<?xml version="1.0" encoding="utf-8"?>
<!-- Generator: Adobe Illustrator 22.0.1, SVG Export Plug-In . SVG Version: 6.00 Build 0)  -->
<svg version="1.1" id="Слой_1" xmlns="http://www.w3.org/2000/svg" xmlns:xlink="http://www.w3.org/1999/xlink" x="0px" y="0px"
	 viewBox="0 0 75 76.1" style="enable-background:new 0 0 75 76.1;" xml:space="preserve">
<style type="text/css">
	.st0{opacity:0;fill:#FFFFFF;}
	.st1{fill:#201600;}
	.st2{fill:#FFFFFF;}
</style>
<g>
	<g>
		<ellipse class="st0" cx="37.7" cy="37.7" rx="33.5" ry="33.5"/>
		<path class="st1" d="M37.7,72.3c-19.1,0-34.6-15.5-34.6-34.6C3.1,18.5,18.6,3,37.7,3s34.6,15.5,34.6,34.6
			C72.4,56.7,56.8,72.3,37.7,72.3z M37.7,5.3C19.9,5.3,5.4,19.8,5.4,37.6s14.5,32.3,32.3,32.3S70,55.4,70,37.6
			C70.1,19.8,55.6,5.3,37.7,5.3z"/>
	</g>
	<g>
		<path class="st1" d="M37.7,71.4C19.1,71.4,4,56.3,4,37.6C4,19,19.1,3.9,37.7,3.9S71.5,19,71.5,37.7C71.5,56.3,56.4,71.4,37.7,71.4
			z M37.7,4.5C19.5,4.5,4.6,19.3,4.6,37.6s14.9,33.2,33.2,33.2S71,55.9,71,37.6C70.9,19.3,56,4.5,37.7,4.5z"/>
		<path class="st2" d="M37.7,72.6c-19.3,0-34.9-15.7-34.9-34.9c0-19.3,15.7-34.9,34.9-34.9c19.3,0,34.9,15.7,34.9,34.9
			C72.7,56.9,57,72.6,37.7,72.6z M37.7,5.6c-17.7,0-32,14.4-32,32c0,17.7,14.4,32,32,32c17.7,0,32-14.4,32-32
			C69.8,20,55.4,5.6,37.7,5.6z"/>
	</g>
</g>
<path class="st2" d="M55,52.4c4-3.7,6.7-9.3,6.7-15.5s-2.1-11-6.7-15.5l3-2.7c6.4,5.8,8.6,12,8.6,18.2s-2.1,12.6-8.5,18.2L55,52.4z"
	/>
<g>
	<path class="st2" d="M27.8,46.5c-0.6-0.5-1.4-0.8-2.2-0.8c-1.1,0-2.1,0.5-2.8,1.3c-0.6,0.7-0.9,1.7-0.8,2.6c0.1,1,0.6,1.8,1.3,2.4
		c0.6,0.5,1.4,0.8,2.2,0.8c1.1,0,2.1-0.5,2.8-1.3c0.6-0.7,0.9-1.7,0.8-2.6C29,47.9,28.5,47.1,27.8,46.5L27.8,46.5z M27.1,50.5
		c-0.4,0.5-0.9,0.7-1.5,0.7c-0.4,0-0.9-0.1-1.2-0.4c-0.4-0.3-0.7-0.8-0.7-1.3c-0.1-0.5,0.1-1,0.4-1.4c0.4-0.5,0.9-0.7,1.5-0.7
		c0.5,0,0.9,0.1,1.2,0.4c0.4,0.3,0.7,0.8,0.7,1.3S27.4,50.1,27.1,50.5L27.1,50.5z"/>
	<path class="st2" d="M25.5,53.4c-0.9,0-1.8-0.3-2.6-0.9c-0.9-0.7-1.4-1.7-1.5-2.7c-0.1-1.1,0.2-2.2,0.9-3c0.8-1,2-1.5,3.2-1.5
		c0.9,0,1.8,0.3,2.6,0.9c0.9,0.7,1.4,1.7,1.5,2.7c0.1,1.1-0.2,2.2-0.9,3C28,52.8,26.8,53.4,25.5,53.4z M25.5,46.2
		c-1,0-1.8,0.4-2.4,1.2c-0.5,0.6-0.8,1.4-0.7,2.3c0.1,0.8,0.5,1.6,1.2,2.1c0.5,0.4,1.2,0.7,1.9,0.7c1,0,1.8-0.4,2.4-1.2
		c0.5-0.6,0.8-1.4,0.7-2.3c-0.1-0.8-0.5-1.6-1.2-2.1C26.9,46.4,26.2,46.2,25.5,46.2z M25.5,51.7c-0.6,0-1.1-0.2-1.5-0.5
		c-0.5-0.4-0.8-1-0.9-1.6s0.1-1.3,0.5-1.8c0.8-1,2.4-1.2,3.5-0.4c0.5,0.4,0.8,1,0.9,1.6s-0.1,1.3-0.5,1.8
		C27,51.4,26.3,51.7,25.5,51.7z M25.5,47.9c-0.5,0-0.9,0.2-1.1,0.5s-0.3,0.7-0.3,1.1c0,0.4,0.2,0.7,0.5,1c0.6,0.5,1.6,0.4,2.1-0.2
		c0.2-0.3,0.3-0.7,0.3-1.1c0-0.4-0.2-0.7-0.5-1C26.2,48,25.9,47.9,25.5,47.9z"/>
</g>
<g>
	<path class="st2" d="M42.2,38.1c0.5,0,1.1-0.1,1.6-0.4c0.9-0.4,1.5-1.1,1.8-2.1c0.3-0.9,0.3-1.9-0.2-2.7c-0.6-1.2-1.9-2-3.3-2
		c-0.5,0-1.1,0.1-1.6,0.4c-0.9,0.4-1.5,1.1-1.8,2.1c-0.3,0.9-0.3,1.9,0.2,2.7C39.6,37.3,40.9,38.1,42.2,38.1L42.2,38.1z M40.4,33.9
		c0.2-0.5,0.5-0.9,1-1.1c0.3-0.1,0.6-0.2,0.9-0.2c0.8,0,1.4,0.4,1.8,1.1c0.2,0.5,0.3,1,0.1,1.5s-0.5,0.9-1,1.1
		c-0.3,0.1-0.6,0.2-0.9,0.2c-0.8,0-1.5-0.4-1.8-1.1C40.2,34.9,40.2,34.3,40.4,33.9L40.4,33.9z"/>
	<path class="st2" d="M42.2,38.6c-1.6,0-3-0.9-3.7-2.3c-0.5-1-0.5-2.1-0.2-3.1c0.4-1,1.1-1.9,2.1-2.3c0.6-0.3,1.2-0.4,1.8-0.4
		c1.6,0,3,0.9,3.7,2.3c0.5,1,0.5,2.1,0.2,3.1c-0.4,1-1.1,1.9-2.1,2.3C43.4,38.4,42.8,38.6,42.2,38.6z M42.2,31.4
		c-0.5,0-0.9,0.1-1.3,0.3c-0.8,0.4-1.3,1-1.6,1.8c-0.3,0.8-0.2,1.6,0.1,2.4c0.5,1.1,1.6,1.7,2.8,1.7c0.5,0,0.9-0.1,1.3-0.3
		c0.8-0.4,1.3-1,1.6-1.8s0.2-1.6-0.1-2.3C44.5,32.1,43.4,31.4,42.2,31.4z M42.2,36.9c-0.9,0-1.8-0.5-2.2-1.4
		c-0.3-0.6-0.3-1.2-0.1-1.9c0.2-0.6,0.7-1.1,1.3-1.4c1.2-0.6,2.7,0,3.3,1.1c0.3,0.6,0.3,1.2,0.1,1.9c-0.2,0.6-0.7,1.1-1.3,1.4
		C43,36.8,42.6,36.9,42.2,36.9z M42.2,33c-0.2,0-0.4,0-0.6,0.1c-0.4,0.2-0.6,0.5-0.7,0.8c-0.1,0.4-0.1,0.7,0.1,1.1
		c0.3,0.7,1.2,1,2,0.7c0.4-0.2,0.6-0.5,0.7-0.8c0.1-0.4,0.1-0.7-0.1-1.1C43.3,33.4,42.8,33,42.2,33z"/>
</g>
<g>
	<path class="st2" d="M33.3,32.3c0.3,0.1,0.5,0.1,0.8,0.1c1.7,0,3.1-1.1,3.5-2.8c0.2-0.9,0-1.9-0.5-2.7c-0.5-0.8-1.3-1.4-2.3-1.6
		c-0.3-0.1-0.5-0.1-0.8-0.1c-1.7,0-3.1,1.1-3.5,2.8c-0.2,0.9-0.1,1.9,0.5,2.7C31.5,31.5,32.3,32,33.3,32.3L33.3,32.3z M32.2,28.3
		c0.2-0.9,1-1.5,1.9-1.5c0.1,0,0.3,0,0.4,0.1c0.5,0.1,1,0.4,1.2,0.9c0.3,0.4,0.4,1,0.2,1.5c-0.2,0.9-1,1.5-1.9,1.5
		c-0.1,0-0.3,0-0.4,0c-0.5-0.1-1-0.4-1.2-0.9C32.1,29.4,32.1,28.8,32.2,28.3L32.2,28.3z"/>
	<path class="st2" d="M34.1,32.9c-0.3,0-0.6,0-0.9-0.1c-1.1-0.2-2-0.9-2.6-1.8s-0.8-2-0.5-3.1c0.4-1.9,2.1-3.2,4-3.2
		c0.3,0,0.6,0,0.9,0.1c1.1,0.2,2,0.9,2.6,1.8s0.8,2,0.5,3.1C37.7,31.5,36,32.9,34.1,32.9z M34.1,25.7c-1.5,0-2.7,1-3,2.4
		c-0.2,0.8,0,1.6,0.4,2.3c0.4,0.7,1.1,1.2,1.9,1.4c0.2,0.1,0.5,0.1,0.7,0.1c1.5,0,2.7-1,3-2.4c0.2-0.8,0-1.6-0.4-2.3
		c-0.4-0.7-1.1-1.2-1.9-1.4C34.5,25.7,34.3,25.7,34.1,25.7z M34.1,31.2c-0.2,0-0.4,0-0.6-0.1C32.9,31,32.3,30.6,32,30
		s-0.5-1.2-0.3-1.8c0.3-1.3,1.6-2.1,2.9-1.8c0.6,0.1,1.2,0.5,1.5,1.1c0.3,0.5,0.5,1.2,0.3,1.8C36.2,30.4,35.2,31.2,34.1,31.2z
		 M34.1,27.3c-0.7,0-1.3,0.5-1.4,1.1c-0.1,0.4,0,0.8,0.2,1.1c0.2,0.3,0.5,0.6,0.9,0.6c0.8,0.2,1.6-0.3,1.8-1.1
		c0.1-0.4,0-0.8-0.2-1.1c-0.2-0.3-0.5-0.6-0.9-0.6C34.3,27.3,34.2,27.3,34.1,27.3z"/>
</g>
<g>
	<path class="st2" d="M26.8,34.3c0.8-0.6,1.2-1.5,1.3-2.4c0.1-1-0.2-1.9-0.8-2.6c-0.7-0.9-1.7-1.3-2.8-1.3c-0.8,0-1.6,0.3-2.2,0.8
		c-0.8,0.6-1.2,1.5-1.3,2.4c-0.1,1,0.2,1.9,0.8,2.6c0.7,0.9,1.7,1.3,2.8,1.3C25.3,35.1,26.1,34.8,26.8,34.3L26.8,34.3z M23,32.7
		c-0.3-0.4-0.5-0.9-0.4-1.4s0.3-1,0.7-1.3c0.4-0.3,0.8-0.4,1.2-0.4c0.6,0,1.2,0.3,1.5,0.7c0.3,0.4,0.5,0.9,0.4,1.4
		c-0.1,0.5-0.3,1-0.7,1.3c-0.4,0.3-0.8,0.4-1.2,0.4C23.9,33.4,23.3,33.2,23,32.7L23,32.7z"/>
	<path class="st2" d="M24.5,35.6L24.5,35.6c-1.3,0-2.4-0.6-3.2-1.5c-0.7-0.9-1-1.9-0.9-3c0.1-1.1,0.7-2.1,1.5-2.7
		c0.7-0.6,1.6-0.9,2.6-0.9c1.3,0,2.4,0.6,3.2,1.5c0.7,0.9,1,1.9,0.9,3s-0.7,2.1-1.5,2.7C26.3,35.3,25.4,35.6,24.5,35.6z M24.5,28.4
		c-0.7,0-1.4,0.2-1.9,0.7c-0.6,0.5-1.1,1.2-1.2,2.1c-0.1,0.8,0.1,1.6,0.7,2.3s1.5,1.2,2.4,1.2c0.7,0,1.4-0.2,1.9-0.7
		c0.6-0.5,1.1-1.3,1.2-2.1c0.1-0.8-0.1-1.6-0.7-2.3C26.3,28.8,25.5,28.4,24.5,28.4z M24.5,33.9c-0.8,0-1.5-0.3-1.9-0.9
		c-0.4-0.5-0.6-1.1-0.5-1.8c0.1-0.6,0.4-1.2,0.9-1.6c1-0.8,2.6-0.6,3.5,0.4c0.4,0.5,0.6,1.1,0.5,1.8c-0.1,0.6-0.4,1.2-0.9,1.6
		C25.6,33.8,25.1,33.9,24.5,33.9z M24.5,30.1c-0.3,0-0.7,0.1-0.9,0.3c-0.3,0.2-0.5,0.6-0.5,1s0.1,0.8,0.3,1.1
		c0.5,0.6,1.4,0.7,2.1,0.2c0.3-0.2,0.5-0.6,0.5-1c0-0.4-0.1-0.8-0.3-1.1C25.4,30.3,25,30.1,24.5,30.1z"/>
</g>
<g>
	<path class="st2" d="M61.8,25.4c-0.2-0.2-0.4-0.3-0.8-0.3c-0.5,0-1.8,0-9.9,6.9c-0.2,0.1-0.3,0.3-0.5,0.4c-1.4-3.8-4-7.1-7.2-9.5
		c-3.7-2.8-8.2-4.2-12.9-4.2l0,0c-3.2,0-7,1.1-10,2.9c-3.7,2.2-5.7,5.1-5.7,8.2c0,3.8,2.1,5.3,3.8,6.6c1.4,1,2.5,1.8,2.5,3.6
		s-1.1,2.6-2.5,3.6c-1.7,1.3-3.8,2.8-3.8,6.6c0,3.1,2,6,5.7,8.2c3,1.8,6.9,2.9,10,2.9l0,0c5.7,0,11.1-2.2,15.2-6.2
		c4-4,6.2-9.2,6.3-14.8c1.4-1.5,2.7-3.1,3.9-4.5c2.1-2.5,3.6-4.5,4.7-6.1C61.9,27.4,62.6,26.2,61.8,25.4L61.8,25.4z M44.4,53.7
		c-3.7,3.7-8.7,5.7-13.9,5.7l0,0c-5.6,0-14-3.9-14-9.3c0-2.9,1.5-4,3.1-5.2c1.5-1.1,3.2-2.4,3.2-5c0-2.7-1.7-3.9-3.2-5
		c-1.6-1.2-3.1-2.3-3.1-5.2c0-3.3,3.1-5.6,4.9-6.7c2.7-1.6,6.3-2.6,9.1-2.6l0,0c4.3,0,8.4,1.4,11.8,3.9c3.2,2.4,5.6,5.7,6.9,9.3
		c-3.8,3.3-7.9,7.1-11,10.2c-5.1,0.7-5.8,4-6.3,6.5c-0.4,2.1-0.7,3.1-2.3,3.3c-0.4,0-0.7,0.3-0.8,0.7c-0.1,0.4,0.2,0.8,0.5,0.9
		c0.1,0,2.6,1.1,5.5,1.1l0,0c2,0,3.8-0.5,5.2-1.5c1.7-1.2,2.9-3.1,3.5-5.7c2-2,4.3-4.5,6.5-7C49.6,46.5,47.6,50.6,44.4,53.7
		L44.4,53.7z M41.8,49c-0.9,3.7-3.3,5.5-6.9,5.5l0,0c-1,0-1.9-0.1-2.7-0.3c0.9-1,1.2-2.4,1.5-3.6c0.5-2.4,0.9-4.6,4.7-5.1L41.8,49z
		 M53.9,35.2c-3.5,4.1-7.7,8.8-11.1,12.3L42.2,47l-2.4-2.4c3.1-3.1,7.2-6.8,10.9-10.1c0.4-0.4,0.9-0.8,1.3-1.1
		c4.4-3.7,6.6-5.3,7.8-6C59.1,28.5,57.5,30.8,53.9,35.2L53.9,35.2z"/>
	<path class="st2" d="M30.5,61.7L30.5,61.7c-3.3,0-7.2-1.1-10.3-3c-3.9-2.3-6-5.4-6-8.7c0-4,2.3-5.8,4-7c1.4-1,2.3-1.7,2.3-3.2
		s-0.9-2.2-2.3-3.2c-1.7-1.3-4-3-4-7c0-3.3,2.1-6.4,6-8.7c3.1-1.8,7-3,10.3-3c4.8,0,9.4,1.5,13.2,4.4c3.1,2.3,5.6,5.5,7.1,9.1
		c8.1-6.9,9.5-6.9,10.2-6.9c0.5,0,0.9,0.2,1.2,0.5c1.1,1.1,0.1,2.8-1.2,4.8c-1.1,1.6-2.7,3.6-4.7,6.1c-1.2,1.4-2.4,2.9-3.8,4.4
		c-0.1,5.7-2.4,11-6.4,15C41.9,59.4,36.4,61.7,30.5,61.7z M30.5,19.1c-3.1,0-6.8,1.1-9.8,2.8c-3.5,2.1-5.5,4.8-5.5,7.7
		c0,3.5,1.9,4.9,3.6,6.2c1.5,1.1,2.7,2,2.7,4.1c0,2-1.2,3-2.7,4c-1.7,1.3-3.6,2.7-3.6,6.2c0,2.9,1.9,5.7,5.5,7.7
		c2.9,1.7,6.7,2.8,9.8,2.8v0.5v-0.5c5.6,0,10.8-2.2,14.8-6.1c3.9-3.9,6.1-9,6.1-14.5v-0.2l0.1-0.1c1.4-1.6,2.7-3.1,3.9-4.5
		c2-2.5,3.6-4.5,4.7-6c1.4-2,1.8-3,1.3-3.4c-0.1-0.1-0.3-0.2-0.5-0.2c-1.1,0-4.3,2.3-9.5,6.7l-1.1,0.9L50,32.5c-1.4-3.7-3.9-7-7-9.3
		C39.4,20.5,35,19.1,30.5,19.1z M30.5,59.9c-5.9,0-14.6-4.1-14.6-9.9c0-3.1,1.7-4.4,3.3-5.6c1.5-1.1,3-2.2,3-4.6
		c0-2.4-1.5-3.5-3-4.6c-1.6-1.2-3.3-2.5-3.3-5.6c0-3.6,3.2-6,5.1-7.2c2.8-1.6,6.5-2.7,9.4-2.7l0,0c4.4,0,8.6,1.4,12.1,4
		c3.2,2.4,5.7,5.8,7,9.6l0.1,0.3L49.5,34c-3.8,3.3-7.9,7.1-10.9,10.2l-0.1,0.1h-0.2c-4.7,0.6-5.3,3.7-5.8,6.1
		c-0.4,2-0.7,3.5-2.8,3.7c-0.2,0-0.3,0.1-0.3,0.3s0.1,0.3,0.2,0.4c0,0,2.5,1,5.3,1c1.9,0,3.6-0.5,4.9-1.4c1.6-1.1,2.7-2.9,3.3-5.3
		V49l0.1-0.1c2-2,4.2-4.4,6.5-7l1.1-1.3l-0.2,1.7c-0.5,4.5-2.5,8.6-5.8,11.8C41,57.9,35.9,59.9,30.5,59.9z M30.5,20.3v0.5
		c-2.7,0-6.2,1-8.9,2.6c-1.7,1-4.6,3.2-4.6,6.2c0,2.6,1.3,3.6,2.9,4.8c1.5,1.1,3.4,2.5,3.4,5.5c0,2.9-1.9,4.3-3.4,5.5
		c-1.6,1.2-2.9,2.1-2.9,4.8c0,5,8.2,8.8,13.5,8.8c5.1,0,10-2,13.6-5.6c2.6-2.6,4.4-5.8,5.2-9.4c-1.9,2-3.6,3.9-5.2,5.5
		c-0.6,2.6-1.9,4.6-3.7,5.8c-1.5,1-3.4,1.6-5.5,1.6c-3.1,0-5.6-1.1-5.7-1.1c-0.6-0.2-1-0.9-0.9-1.5s0.6-1.1,1.3-1.2
		c1.2-0.1,1.4-0.6,1.9-2.9c0.5-2.5,1.3-6.2,6.6-6.9c3-3,6.9-6.6,10.6-9.9c-1.3-3.5-3.6-6.5-6.5-8.8c-3.3-2.5-7.3-3.8-11.5-3.8
		L30.5,20.3z M34.8,55.1c-0.9,0-1.8-0.1-2.8-0.3l-1-0.2l0.7-0.7c0.8-0.8,1.1-2.2,1.3-3.4c0.5-2.3,1-5,5.1-5.6h0.3l3.9,3.9l-0.1,0.3
		C41.3,53,38.7,55.1,34.8,55.1z M33.1,53.9c0.6,0.1,1.2,0.1,1.7,0.1c3.4,0,5.4-1.6,6.4-4.8l-3.1-3.1c-3.1,0.5-3.5,2.4-3.9,4.7
		C33.9,51.7,33.7,52.9,33.1,53.9z M42.7,48.3L39,44.6l0.4-0.4c3.1-3.1,7.1-6.8,10.9-10.1c0.4-0.4,0.9-0.8,1.3-1.1
		c4.4-3.8,6.7-5.4,7.9-6.1l1.8-1.1l-1.1,1.8c-0.7,1.2-2.3,3.5-6,7.9c-3.5,4.2-7.7,8.8-11.2,12.3L42.7,48.3z M40.6,44.6l2.1,2.2
		c3.4-3.5,7.4-7.9,10.7-11.9c2-2.4,3.4-4.2,4.4-5.5c-1.3,1-3,2.4-5.4,4.4c-0.4,0.4-0.9,0.7-1.3,1.1C47.5,38,43.7,41.6,40.6,44.6z"/>
</g>
</svg>
