<?xml version="1.0" encoding="utf-8"?>
<!-- Generator: Adobe Illustrator 22.0.1, SVG Export Plug-In . SVG Version: 6.00 Build 0)  -->
<svg version="1.1" id="Слой_1" xmlns="http://www.w3.org/2000/svg" xmlns:xlink="http://www.w3.org/1999/xlink" x="0px" y="0px"
	 viewBox="0 0 75 76.1" style="enable-background:new 0 0 75 76.1;" xml:space="preserve">
<style type="text/css">
	.st0{opacity:0;fill:#FFFFFF;}
	.st1{fill:#201600;}
	.st2{fill:#FFFFFF;stroke:#FFFFFF;stroke-miterlimit:10;}
	.st3{fill:#FFFFFF;}
</style>
<g>
	<g>
		<ellipse class="st0" cx="37.9" cy="38.3" rx="33.5" ry="33.5"/>
		<path class="st1" d="M37.9,72.9c-19.1,0-34.6-15.5-34.6-34.6S18.8,3.7,37.9,3.7s34.6,15.5,34.6,34.6S57,72.9,37.9,72.9z M37.9,6
			C20,6,5.6,20.4,5.6,38.3c0,17.8,14.5,32.3,32.3,32.3s32.3-14.5,32.3-32.3C70.2,20.4,55.7,6,37.9,6z"/>
	</g>
	<g>
		<path class="st1" d="M37.9,72C19.2,72,4.1,56.9,4.1,38.3S19.2,4.5,37.9,4.5c18.6,0,33.8,15.1,33.8,33.8C71.6,56.9,56.5,72,37.9,72
			z M37.9,5.1C19.6,5.1,4.7,20,4.7,38.3s14.9,33.2,33.2,33.2S71,56.6,71,38.3S56.2,5.1,37.9,5.1z"/>
		<path class="st2" d="M37.9,73.2C18.6,73.2,3,57.5,3,38.3C2.9,19,18.6,3.3,37.9,3.3S72.8,19,72.8,38.2
			C72.8,57.5,57.1,73.2,37.9,73.2z M37.9,6.2c-17.7,0-32,14.4-32,32c0,17.7,14.4,32,32,32c17.7,0,32-14.4,32-32S55.5,6.2,37.9,6.2z"
			/>
	</g>
</g>
<path class="st3" d="M55.1,53.1c4-3.7,6.7-9.3,6.7-15.5s-2.1-11-6.7-15.5l3-2.7c6.4,5.8,8.6,12,8.6,18.2s-2.1,12.6-8.5,18.2
	L55.1,53.1z"/>
<g>
	<path class="st3" d="M20.1,19.3c-1.8,0-3.4,0.9-4.6,2.5c-1.2,1.5-1.8,3.5-1.8,5.7c0,2.1,0.6,4.1,1.8,5.7c0.7,0.9,1.5,1.6,2.4,2
		l-1.4,20.2c-0.1,1,0.3,2,1,2.7s1.6,1.1,2.6,1.1s2-0.4,2.6-1.1c0.7-0.7,1-1.7,1-2.7l-1.4-20.2c0.9-0.4,1.7-1.1,2.4-2
		c1.2-1.5,1.8-3.5,1.8-5.7c0-2.1-0.6-4.1-1.8-5.7C23.5,20.2,21.8,19.3,20.1,19.3z M21.8,55.5c0,0.5-0.1,1-0.5,1.3
		c-0.3,0.4-0.8,0.6-1.3,0.6s-1-0.2-1.3-0.6c-0.3-0.4-0.5-0.8-0.5-1.3l1.3-19.8c0.1,0,0.3,0,0.4,0s0.3,0,0.4,0L21.8,55.5z M20.1,33.8
		c-0.3,0-0.7-0.1-1-0.1H19c-2-0.7-3.5-3.2-3.5-6.2c0-3.5,2-6.3,4.6-6.3s4.6,2.8,4.6,6.3C24.6,31,22.6,33.8,20.1,33.8z"/>
	<path class="st3" d="M20.1,59.6c-1.1,0-2.2-0.5-3-1.3s-1.2-1.9-1.1-3.1l1.3-19.9c-0.8-0.5-1.6-1.1-2.2-2c-1.2-1.6-1.9-3.7-1.9-6
		c0-2.2,0.7-4.4,1.9-6c1.3-1.7,3.1-2.7,5-2.7s3.7,1,5,2.7c1.2,1.6,1.9,3.7,1.9,6c0,2.2-0.7,4.4-1.9,6c-0.6,0.9-1.4,1.5-2.2,2
		l1.3,19.9c0.1,1.1-0.3,2.2-1.1,3.1C22.3,59.2,21.2,59.6,20.1,59.6z M20.1,19.8c-1.6,0-3.1,0.8-4.2,2.3c-1.1,1.4-1.7,3.3-1.7,5.4
		c0,2,0.6,3.9,1.7,5.4c0.6,0.8,1.4,1.4,2.2,1.8l0.3,0.1L17,55.4c-0.1,0.8,0.2,1.7,0.8,2.3c1.2,1.2,3.4,1.2,4.5,0
		c0.6-0.6,0.9-1.5,0.8-2.3l-1.4-20.5l0.3-0.1c0.8-0.4,1.6-1,2.2-1.8c1.1-1.4,1.7-3.3,1.7-5.4c0-2-0.6-3.9-1.7-5.4
		C23.2,20.6,21.7,19.8,20.1,19.8z M20.1,57.8c-0.6,0-1.2-0.3-1.7-0.7c-0.4-0.5-0.6-1.1-0.6-1.7l1.4-20.3h0.5c0.3,0,0.5,0,0.8,0H21
		l1.4,20.3c0,0.6-0.2,1.2-0.6,1.7C21.3,57.6,20.7,57.8,20.1,57.8z M20.1,36.7l-1.3,18.8c0,0.3,0.1,0.7,0.3,0.9
		c0.5,0.5,1.4,0.5,1.9,0c0.2-0.3,0.4-0.6,0.3-0.9L20.1,36.7z M20.1,34.3c-0.4,0-0.7-0.1-1.1-0.2c-2.4-0.8-4-3.5-4-6.7
		c0-3.8,2.3-6.8,5.1-6.8s5.1,3.1,5.1,6.8S22.9,34.3,20.1,34.3z M20.1,21.7c-2.2,0-4.1,2.6-4.1,5.8c0,2.7,1.3,5.1,3.2,5.7h0.1
		c0.2,0.1,0.5,0.1,0.8,0.1c2.2,0,4.1-2.6,4.1-5.8C24.1,24.3,22.3,21.7,20.1,21.7z"/>
</g>
<g>
	<path class="st3" d="M52.7,43.1V20.4l0,0c0-0.2,0-0.4-0.1-0.6c-0.3-0.4-0.8-0.6-1.3-0.3c-3.8,2.3-6,6.3-6,10.7l0,0v12
		c0,1,0.8,1.9,1.9,1.9v12.4c0,1.5,1.2,2.7,2.8,2.7c1.5,0,2.8-1.2,2.8-2.7L52.7,43.1L52.7,43.1z M47.1,42.1v-12l0,0
		c0-3.2,1.4-6.1,3.7-8.1v20.2h-3.6C47.2,42.2,47.1,42.2,47.1,42.1z M50.9,56.4c0,0.5-0.4,0.9-0.9,0.9s-0.9-0.4-0.9-0.9V44h1.8
		C50.9,44,50.9,56.4,50.9,56.4z"/>
	<path class="st3" d="M49.9,59.6c-1.8,0-3.3-1.4-3.3-3.2V44.5c-1.1-0.3-1.9-1.2-1.9-2.4v-12c0-4.6,2.3-8.7,6.2-11.1
		c0.6-0.4,1.6-0.2,2,0.5c0,0.1,0.1,0.1,0.1,0.2h0.1v0.5v0.1v0.1v36C53.2,58.2,51.7,59.6,49.9,59.6z M51.8,19.8c-0.1,0-0.2,0-0.2,0.1
		c-3.6,2.2-5.8,6-5.8,10.2v12c0,0.8,0.6,1.4,1.4,1.4h0.5v12.8c0,1.2,1,2.2,2.3,2.2c1.2,0,2.3-1,2.3-2.2V21.1h-0.1l0.1-0.8
		c0-0.1,0-0.2-0.1-0.3C52.1,19.9,51.9,19.8,51.8,19.8z M49.9,57.8c-0.8,0-1.4-0.6-1.4-1.4V43.5h2.8v12.9
		C51.4,57.2,50.7,57.8,49.9,57.8z M49.5,44.5v11.9c0,0.2,0.2,0.4,0.4,0.4s0.4-0.2,0.4-0.4V44.5H49.5z M51.4,42.7h-4.1
		c-0.3,0-0.6-0.3-0.6-0.6v-12c0-3.3,1.4-6.4,3.9-8.5l0.8-0.7C51.4,20.9,51.4,42.7,51.4,42.7z M47.6,41.7h2.7V23.2
		c-1.7,1.9-2.7,4.3-2.7,6.9V41.7z"/>
</g>
<g>
	<path class="st3" d="M39.7,19.3c-0.5,0-0.9,0.4-0.9,0.9v10.4h-2.3V20.2c0-0.5-0.4-0.9-0.9-0.9s-0.9,0.4-0.9,0.9v10.4h-2.3V20.2
		c0-0.5-0.4-0.9-0.9-0.9s-0.9,0.4-0.9,0.9v13.2c0,1.5,1.2,2.7,2.7,2.7h0.2L32,55.4c-0.1,1,0.3,1.9,0.9,2.6c0.7,0.7,1.6,1.1,2.6,1.1
		s1.9-0.4,2.6-1.1c0.7-0.7,1-1.7,0.9-2.6l-1.3-19.3h0.2c1.5,0,2.7-1.2,2.7-2.7V20.2C40.6,19.7,40.2,19.3,39.7,19.3z M37.2,55.5
		c0,0.5-0.1,0.9-0.4,1.2c-0.3,0.3-0.8,0.5-1.2,0.5c-0.5,0-0.9-0.2-1.2-0.5s-0.5-0.8-0.4-1.2l1.3-19.4h0.8L37.2,55.5z M37.9,34.3
		h-3.7l0,0h-1.1c-0.5,0-0.9-0.4-0.9-0.9v-1h6.5v1C38.8,33.9,38.4,34.3,37.9,34.3z"/>
	<path class="st3" d="M35.5,59.6c-1.1,0-2.2-0.5-2.9-1.3c-0.8-0.8-1.2-1.9-1.1-3l1.3-18.7c-1.6-0.2-2.9-1.5-2.9-3.2V20.2
		c0-0.8,0.6-1.4,1.4-1.4s1.4,0.6,1.4,1.4v9.9H34v-9.9c0-0.8,0.6-1.4,1.4-1.4c0.8,0,1.4,0.6,1.4,1.4v9.9h1.3v-9.9
		c0-0.8,0.6-1.4,1.4-1.4s1.4,0.6,1.4,1.4v13.2c0,1.6-1.2,3-2.9,3.2l1.3,18.7c0.1,1.1-0.3,2.2-1.1,3C37.7,59.2,36.6,59.6,35.5,59.6z
		 M31.3,19.8c-0.2,0-0.4,0.2-0.4,0.4v13.2c0,1.2,1,2.2,2.2,2.2h0.7l-1.3,19.8c-0.1,0.8,0.2,1.6,0.8,2.2c1.1,1.2,3.3,1.2,4.4,0
		c0.6-0.6,0.9-1.4,0.8-2.2l-1.3-19.8h0.7c1.2,0,2.2-1,2.2-2.2V20.2c0-0.2-0.2-0.4-0.4-0.4s-0.4,0.2-0.4,0.4v10.9H36V20.2
		c0-0.2-0.2-0.4-0.4-0.4s-0.4,0.2-0.4,0.4v10.9h-3.3V20.2C31.8,20,31.6,19.8,31.3,19.8z M35.5,57.8c-0.6,0-1.2-0.2-1.6-0.7
		c-0.4-0.4-0.6-1-0.6-1.6l1.3-19.8h1.7l1.3,19.8c0,0.6-0.2,1.2-0.6,1.6C36.7,57.6,36.1,57.8,35.5,57.8z M35.5,38l-1.2,17.6
		c0,0.3,0.1,0.6,0.3,0.9c0.5,0.5,1.3,0.5,1.7,0c0.2-0.2,0.3-0.5,0.3-0.9L35.5,38z M37.9,34.8h-4.8c-0.8,0-1.4-0.6-1.4-1.4v-1.5h7.5
		v1.5C39.3,34.2,38.7,34.8,37.9,34.8z M32.8,32.9v0.5c0,0.2,0.2,0.4,0.4,0.4H38c0.2,0,0.4-0.2,0.4-0.4v-0.5H32.8z"/>
</g>
</svg>
