<?xml version="1.0" encoding="utf-8"?>
<!-- Generator: Adobe Illustrator 22.0.1, SVG Export Plug-In . SVG Version: 6.00 Build 0)  -->
<svg version="1.1" id="Слой_1" xmlns="http://www.w3.org/2000/svg" xmlns:xlink="http://www.w3.org/1999/xlink" x="0px" y="0px"
	 viewBox="0 0 76.7 77.5" style="enable-background:new 0 0 76.7 77.5;" xml:space="preserve">
<style type="text/css">
	.st0{opacity:0;fill:#FFFFFF;}
	.st1{fill:#201600;}
	.st2{fill:#FFFFFF;}
	.st3{fill:#FFFFFF;stroke:#FFFFFF;stroke-miterlimit:10;}
</style>
<g>
	<g>
		<ellipse class="st0" cx="38.2" cy="39.1" rx="33.5" ry="33.5"/>
		<path class="st1" d="M38.2,73.8c-19.1,0-34.6-15.5-34.6-34.6C3.5,20,19.1,4.5,38.2,4.5S72.8,20,72.8,39.1S57.3,73.8,38.2,73.8z
			 M38.2,6.8C20.4,6.8,5.9,21.3,5.9,39.1s14.5,32.3,32.3,32.3C56,71.4,70.5,57,70.5,39.1C70.5,21.3,56,6.8,38.2,6.8z"/>
	</g>
	<g>
		<path class="st1" d="M38.2,72.9c-18.6,0-33.8-15.1-33.8-33.8c0-18.6,15.1-33.8,33.8-33.8C56.8,5.3,72,20.4,72,39.1
			C71.9,57.8,56.8,72.9,38.2,72.9z M38.2,6C19.9,6,5,20.8,5,39.1s14.9,33.2,33.2,33.2s33.2-14.9,33.2-33.2S56.5,6,38.2,6z"/>
		<path class="st2" d="M38.2,74.1c-19.3,0-34.9-15.7-34.9-34.9C3.3,19.9,19,4.3,38.2,4.3c19.3,0,34.9,15.7,34.9,34.9
			C73.1,58.4,57.4,74.1,38.2,74.1z M38.2,7.1c-17.7,0-32,14.4-32,32c0,17.7,14.4,32,32,32c17.7,0,32-14.4,32-32S55.8,7.1,38.2,7.1z"
			/>
	</g>
</g>
<path class="st2" d="M55.5,53.9c4-3.7,6.7-9.3,6.7-15.5s-2.1-11-6.7-15.5l3-2.7c6.4,5.8,8.6,12,8.6,18.2S65,51,58.6,56.6L55.5,53.9z
	"/>
<g>
	<path class="st2" d="M57.1,32.3c-0.3-0.2-0.8-0.2-1.1,0l-7.4,4v-3.4c0-0.6-0.5-1.1-1.1-1.1h-1.9c2.3-1.9,3.8-4.7,3.8-8
		c0-5.6-4.6-10.2-10.2-10.2c-4.8,0-8.9,3.3-10,7.8c-1.4-1.7-3.6-2.8-5.9-2.8c-4.3,0-7.7,3.5-7.7,7.7c0,2.1,0.9,4,2.2,5.4h-1
		c-0.6,0-1.1,0.5-1.1,1.1V38h-2.9c-0.6,0-1.1,0.5-1.1,1.1v4.5c0,0.6,0.5,1.1,1.1,1.1h2.9V50c0,0.6,0.5,1.1,1.1,1.1h13.5L24,63
		c-0.3,0.6-0.1,1.2,0.5,1.5c0.2,0.1,0.3,0.1,0.5,0.1c0.4,0,0.8-0.2,1-0.6l6-11.6L38,64c0.2,0.4,0.6,0.6,1,0.6c0.2,0,0.4,0,0.5-0.1
		c0.6-0.3,0.8-1,0.5-1.5l-6.2-11.9h13.5c0.6,0,1.1-0.5,1.1-1.1v-3.4l7.4,4c0.2,0.1,0.4,0.1,0.5,0.1c0.2,0,0.4-0.1,0.6-0.2
		c0.3-0.2,0.6-0.6,0.6-1V33.3C57.6,32.9,57.4,32.5,57.1,32.3z M39.1,15.8c4.4,0,8,3.6,8,8s-3.6,8-8,8s-8-3.6-8-8
		C31.2,19.4,34.7,15.8,39.1,15.8z M32.7,31.7h-4c0.7-0.7,1.3-1.6,1.7-2.6C31,30.1,31.8,31,32.7,31.7z M17.8,26.3
		c0-3,2.4-5.4,5.4-5.4s5.4,2.4,5.4,5.4s-2.4,5.4-5.4,5.4C20.2,31.7,17.8,29.3,17.8,26.3z M13.8,42.5v-2.2h1.7v2.2H13.8z M46.3,48.9
		H32.1l0,0l0,0l0,0H17.9v-5.2v-4.5V34h28.4v4.2v6.5V48.9z M55.4,47.6L48.6,44v-5.1l6.8-3.7C55.4,35.2,55.4,47.6,55.4,47.6z"/>
	<path class="st2" d="M39.1,65.2c-0.6,0-1.2-0.3-1.5-0.9L32,53.6l-5.6,10.7c-0.4,0.8-1.5,1.1-2.3,0.7c-0.4-0.2-0.7-0.6-0.8-1
		c-0.1-0.4-0.1-0.9,0.1-1.3l5.8-11.1H16.7c-0.9,0-1.7-0.8-1.7-1.7v-4.6h-2.4c-0.9,0-1.7-0.8-1.7-1.7v-4.5c0-0.9,0.8-1.7,1.7-1.7H15
		v-4.6c0-0.9,0.7-1.6,1.6-1.7c-1-1.4-1.6-3.1-1.6-4.9c0-4.6,3.7-8.3,8.3-8.3c2.1,0,4.2,0.8,5.7,2.3c1.5-4.4,5.5-7.3,10.2-7.3
		c5.9,0,10.8,4.8,10.8,10.8c0,2.8-1.1,5.4-3,7.4h0.5c0.9,0,1.7,0.8,1.7,1.7v2.5l6.6-3.5c0.5-0.3,1.2-0.3,1.7,0s0.8,0.9,0.8,1.4v16.3
		c0,0.6-0.3,1.1-0.8,1.4c-0.5,0.3-1.2,0.3-1.7,0l-6.6-3.5V50c0,0.9-0.8,1.7-1.7,1.7H34.8l5.8,11.1c0.2,0.4,0.2,0.9,0.1,1.3
		c-0.1,0.4-0.4,0.8-0.8,1C39.7,65.2,39.4,65.2,39.1,65.2z M32.1,51.3l6.5,12.5c0.1,0.3,0.5,0.4,0.8,0.3c0.1-0.1,0.2-0.2,0.3-0.4
		c0-0.2,0-0.3,0-0.5l-6.6-12.7h14.4c0.3,0,0.6-0.3,0.6-0.6v-4.3l8.2,4.4c0.2,0.1,0.4,0.1,0.6,0c0.2-0.1,0.3-0.3,0.3-0.5V33.3
		c0-0.2-0.1-0.4-0.3-0.5s-0.4-0.1-0.6,0L48,37.2v-4.3c0-0.3-0.3-0.6-0.6-0.6H44l1.2-1c2.3-1.9,3.6-4.6,3.6-7.5
		c0-5.3-4.4-9.7-9.7-9.7c-4.5,0-8.4,3.1-9.4,7.4l-0.3,1l-0.7-0.8c-1.4-1.7-3.4-2.6-5.5-2.6c-4,0-7.2,3.2-7.2,7.2
		c0,1.9,0.7,3.7,2.1,5.1l0.9,0.9h-2.3c-0.3,0-0.6,0.3-0.6,0.6v5.7h-3.4c-0.3,0-0.6,0.3-0.6,0.6v4.5c0,0.3,0.3,0.6,0.6,0.6h3.4V50
		c0,0.3,0.3,0.6,0.6,0.6h14.4l-6.6,12.7c-0.1,0.1-0.1,0.3,0,0.5c0,0.2,0.2,0.3,0.3,0.4c0.3,0.2,0.7,0,0.8-0.3L32.1,51.3z M46.8,49.4
		H17.3V33.5h29.5V49.4z M18.4,48.3h27.4V34.5H18.4V48.3z M55.9,48.5L48,44.3v-5.8l7.9-4.2V48.5z M49.1,43.7l5.7,3.1V36.1l-5.7,3.1
		V43.7z M16.1,43.1h-2.8v-3.3h2.8V43.1z M14.4,42H15v-1.1h-0.7L14.4,42L14.4,42z M39.1,32.2c-4.7,0-8.5-3.8-8.5-8.5s3.8-8.5,8.5-8.5
		s8.5,3.8,8.5,8.5S43.8,32.2,39.1,32.2z M39.1,16.3c-4.1,0-7.4,3.3-7.4,7.4s3.3,7.4,7.4,7.4s7.4-3.3,7.4-7.4
		C46.5,19.7,43.2,16.3,39.1,16.3z M34.2,32.2h-6.8l0.9-0.9c0.7-0.7,1.2-1.5,1.6-2.4l0.4-1l0.6,0.9c0.6,0.9,1.3,1.8,2.2,2.5
		L34.2,32.2z M29.9,31.2h1.4c-0.3-0.3-0.6-0.6-0.8-1C30.3,30.5,30.1,30.9,29.9,31.2z M23.2,32.2c-3.3,0-6-2.7-6-6s2.7-6,6-6
		s6,2.7,6,6C29.2,29.6,26.5,32.2,23.2,32.2z M23.2,21.4c-2.7,0-4.9,2.2-4.9,4.9s2.2,4.9,4.9,4.9s4.9-2.2,4.9-4.9
		S25.9,21.4,23.2,21.4z"/>
</g>
<path class="st3" d="M38.9,29.2c2.4,0,4.4-2,4.4-4.4s-2-4.4-4.4-4.4s-4.4,2-4.4,4.4S36.5,29.2,38.9,29.2z M38.9,22.4
	c1.3,0,2.4,1.1,2.4,2.4s-1.1,2.4-2.4,2.4c-1.3,0-2.4-1.1-2.4-2.4C36.6,23.4,37.6,22.4,38.9,22.4z"/>
<path class="st3" d="M35.7,36.8h-11c-0.5,0-1,0.4-1,1v5.4c0,0.5,0.4,1,1,1h11c0.5,0,1-0.4,1-1v-5.4C36.6,37.2,36.2,36.8,35.7,36.8z
	 M34.7,42.1h-9.1v-3.4h9.1V42.1z"/>
<path class="st3" d="M41,37.7c0.6,0,1,0.5,1,1c0,0.6-0.5,1-1,1c-0.6,0-1-0.5-1-1S40.4,37.7,41,37.7z"/>
<path class="st3" d="M41,41.1c0.6,0,1,0.5,1,1c0,0.6-0.5,1-1,1c-0.6,0-1-0.5-1-1C40,41.5,40.4,41.1,41,41.1z"/>
</svg>
