<?xml version="1.0" encoding="utf-8"?>
<!-- Generator: Adobe Illustrator 22.0.1, SVG Export Plug-In . SVG Version: 6.00 Build 0)  -->
<svg version="1.1" id="Слой_1" xmlns="http://www.w3.org/2000/svg" xmlns:xlink="http://www.w3.org/1999/xlink" x="0px" y="0px"
	 viewBox="0 0 399 71.2" style="enable-background:new 0 0 399 71.2;" xml:space="preserve">
<style type="text/css">
	.st0{fill:#201600;}
	.st1{fill:#FF0000;}
	.st2{fill:#FFFFFF;}
</style>
<path class="st0" d="M3.3,3.1h8.3v20.1c2-1.6,5.1-2.8,8.6-2.8c9.7,0,15.5,7,15.5,16.6c0,10.7-7.2,17.6-18.6,17.6
	c-5.4,0-10.9-1.7-13.8-3.6C3.3,51,3.3,3.1,3.3,3.1z M11.7,31.3v13.8c1.8,1.2,3.6,1.7,5.9,1.7c5.2,0,9.3-3.4,9.3-9.3
	c0-6.2-3.8-9.3-8.5-9.3C15.4,28.2,13,29.7,11.7,31.3"/>
<path class="st0" d="M46.8,4.6c2.4,0,4.8,1.9,4.8,4.9c0,3.3-2.4,5.2-4.8,5.2c-2.8,0-5.2-1.9-5.2-5.2C41.6,6.5,44,4.6,46.8,4.6
	 M42.5,21.2h8.3v32.6h-8.3V21.2z"/>
<path class="st0" d="M74.2,68.9c-7.9,0-12.4-3.4-14-4.6l4.1-6.4c1.9,1.4,5.9,3.3,10.5,3.3c5.2,0,7.7-2.4,7.7-7v-2
	c-2.5,1.6-5.4,2.5-8,2.5c-10.4,0-16.9-6.8-16.9-17.1c0-9.5,7.7-17.1,18.7-17.1c5.6,0,11.2,1.7,14.6,3.9v29
	C90.8,64.5,83.4,68.9,74.2,68.9 M82.4,43.9V29.8c-2-0.9-4.1-1.6-6.4-1.6c-6.4,0-9.7,4.5-9.7,9.6s3.5,9,9.1,9
	C78.1,46.8,80.8,45.6,82.4,43.9"/>
<path class="st0" d="M147.6,53.8h-8.3V34.7c0-4.1-1.7-6.2-5.6-6.2c-3.1,0-5.6,1.5-6.7,3.8c0,0.5,0.1,1.7,0.1,2.4v19.2h-8.3V34.1
	c0-3.4-1.9-5.6-5.4-5.6c-3,0-5.4,1.3-6.8,3.5v21.9h-8.3V21.2h8.3v3.6c2.3-2.6,6.2-4.2,10.2-4.2c5,0,8.3,2.2,9.5,5.2
	c2.3-3,5.9-5.2,11-5.2c5.9,0,10.4,3,10.4,11.9L147.6,53.8L147.6,53.8z"/>
<path class="st0" d="M159.9,4.6c2.4,0,4.8,1.9,4.8,4.9c0,3.3-2.4,5.2-4.8,5.2c-2.8,0-5.2-1.9-5.2-5.2C154.7,6.5,157.1,4.6,159.9,4.6
	 M155.5,21.2h8.3v32.6h-8.3V21.2z"/>
<path class="st0" d="M172.6,21.2h8.3v3.2c1.5-2.1,3.5-3.8,7.5-3.8c2.7,0,4,0.4,5.1,1.2l-3,7.8c-1.6-0.9-2.5-1.2-4.2-1.2
	c-2.9,0-4.4,1.6-5.4,3.5v21.9h-8.3L172.6,21.2L172.6,21.2z"/>
<g>
	<path class="st1" d="M390.4,9.2H204.9c5.4,7.9,8,16.7,8,26.5c0,9.5-2.4,18-7.2,25.5h184.7V9.2z"/>
	<path class="st2" d="M204.9,9.2c-2.5-3.7-5.7-7.3-9.4-10.7l-1-0.9l-8.1,7.2l1.1,1.1c8.9,8.8,12.8,18,12.8,29.7
		c0,11.1-4.8,22.2-12.9,29.7l-1.2,1.1l8.4,7.2l1-0.8c4.1-3.6,7.5-7.4,10.2-11.6c4.8-7.5,7.2-16.1,7.2-25.5
		C212.9,25.9,210.3,17.2,204.9,9.2z M194.5,69.7l-3.9-3.3c7.9-8,12.6-19.3,12.6-30.7c0-12.1-3.9-21.6-12.6-30.7l3.7-3.3
		c10.4,9.8,15.5,20.9,15.5,34C209.9,49.1,204.7,60.5,194.5,69.7z"/>
	<path class="st1" d="M194.4,1.7L190.7,5c8.7,9.1,12.6,18.6,12.6,30.7c0,11.4-4.7,22.7-12.6,30.7l3.9,3.3
		c10.2-9.2,15.4-20.7,15.4-34C209.9,22.6,204.8,11.5,194.4,1.7z"/>
</g>
<g>
	<path class="st2" d="M229.2,42.6l-3.3,10h-4.2l10.8-31.8h5l10.9,31.8H244l-3.4-10H229.2z M239.6,39.4l-3.1-9.2
		c-0.7-2.1-1.2-4-1.7-5.8h-0.1c-0.5,1.9-1,3.8-1.6,5.8l-3.1,9.2H239.6z"/>
	<path class="st2" d="M267.6,19.5v2.8c6.7,0.3,13.4,4.3,13.4,14.3s-6.7,13.8-13.5,14.2v3h-4v-3c-6.7-0.4-13.4-4-13.4-14
		c0-10.4,7.4-14.2,13.5-14.5v-2.8H267.6z M263.7,25.3c-4.2,0.2-9.2,3.1-9.2,11.4c0,7.6,4.5,10.8,9.2,11.3V25.3z M267.6,47.9
		c4.6-0.4,9.2-3.4,9.2-11.3c0-8.2-4.6-11.1-9.2-11.3V47.9z"/>
	<path class="st2" d="M290.2,20.8v13.4c0,5-0.1,9.2-0.4,13.5h0.1c1.6-3.3,3.6-6.7,5.9-10.5l10.3-16.4h4.1v31.8h-3.9V39
		c0-5.1,0-8.9,0.4-12.9h-0.1c-1.6,3.5-3.7,7.2-5.9,10.7l-10,15.8h-4.4V20.8H290.2z"/>
	<path class="st2" d="M321.5,20.8v28.4h10.3V20.8h4.1v28.4h10.3V20.8h4.1v31.8h-32.8V20.8H321.5z"/>
	<path class="st2" d="M362.5,42.6l-3.3,10H355l10.8-31.8h5l10.9,31.8h-4.4l-3.4-10H362.5z M372.9,39.4l-3.1-9.2
		c-0.7-2.1-1.2-4-1.7-5.8H368c-0.5,1.9-1,3.8-1.6,5.8l-3.1,9.2H372.9z"/>
</g>
</svg>
