<svg id="Слой_1" data-name="Слой 1" xmlns="http://www.w3.org/2000/svg" viewBox="0 0 387.1 68">
  <defs>
    <style>
      .cls-1 {
        fill: #fff;
      }

      .cls-2 {
        fill: red;
      }
    </style>
  </defs>
  <title>logo_w</title>
  <path class="cls-1" d="M3.3,3.1h8.3V23.2a14,14,0,0,1,8.6-2.8c9.7,0,15.5,7,15.5,16.6,0,10.7-7.2,17.6-18.6,17.6-5.4,0-10.9-1.7-13.8-3.6V3.1Zm8.4,28.2V45.1a10,10,0,0,0,5.9,1.7c5.2,0,9.3-3.4,9.3-9.3,0-6.2-3.8-9.3-8.5-9.3a8.73,8.73,0,0,0-6.7,3.1" transform="translate(-3.3 -1.7)"/>
  <path class="cls-1" d="M46.8,4.6a4.82,4.82,0,0,1,4.8,4.9,4.9,4.9,0,0,1-4.8,5.2,5,5,0,0,1-5.2-5.2,4.92,4.92,0,0,1,5.2-4.9M42.5,21.2h8.3V53.8H42.5V21.2Z" transform="translate(-3.3 -1.7)"/>
  <path class="cls-1" d="M74.2,68.9a22.08,22.08,0,0,1-14-4.6l4.1-6.4a18.84,18.84,0,0,0,10.5,3.3c5.2,0,7.7-2.4,7.7-7v-2a15.31,15.31,0,0,1-8,2.5c-10.4,0-16.9-6.8-16.9-17.1,0-9.5,7.7-17.1,18.7-17.1a28.61,28.61,0,0,1,14.6,3.9v29c-0.1,11.1-7.5,15.5-16.7,15.5m8.2-25V29.8A15.51,15.51,0,0,0,76,28.2c-6.4,0-9.7,4.5-9.7,9.6s3.5,9,9.1,9a10,10,0,0,0,7-2.9" transform="translate(-3.3 -1.7)"/>
  <path class="cls-1" d="M147.6,53.8h-8.3V34.7c0-4.1-1.7-6.2-5.6-6.2a7.16,7.16,0,0,0-6.7,3.8c0,0.5.1,1.7,0.1,2.4V53.9h-8.3V34.1c0-3.4-1.9-5.6-5.4-5.6a7.75,7.75,0,0,0-6.8,3.5V53.9H98.3V21.2h8.3v3.6a13.85,13.85,0,0,1,10.2-4.2c5,0,8.3,2.2,9.5,5.2a13.29,13.29,0,0,1,11-5.2c5.9,0,10.4,3,10.4,11.9l-0.1,21.3h0Z" transform="translate(-3.3 -1.7)"/>
  <path class="cls-1" d="M159.9,4.6a4.82,4.82,0,0,1,4.8,4.9,4.9,4.9,0,0,1-4.8,5.2,5,5,0,0,1-5.2-5.2,4.92,4.92,0,0,1,5.2-4.9m-4.4,16.6h8.3V53.8h-8.3V21.2Z" transform="translate(-3.3 -1.7)"/>
  <path class="cls-1" d="M172.6,21.2h8.3v3.2a8.32,8.32,0,0,1,7.5-3.8c2.7,0,4,.4,5.1,1.2l-3,7.8a7.29,7.29,0,0,0-4.2-1.2,5.73,5.73,0,0,0-5.4,3.5V53.8h-8.3V21.2h0Z" transform="translate(-3.3 -1.7)"/>
  <path class="cls-2" d="M390.4,9.2H204.9a45.73,45.73,0,0,1,8,26.5,46.28,46.28,0,0,1-7.2,25.5H390.4V9.2Z" transform="translate(-3.3 -1.7)"/>
  <path class="cls-2" d="M194.4,1.7L190.7,5c8.7,9.1,12.6,18.6,12.6,30.7a44.3,44.3,0,0,1-12.6,30.7l3.9,3.3C204.8,60.5,210,49,210,35.7,209.9,22.6,204.8,11.5,194.4,1.7Z" transform="translate(-3.3 -1.7)"/>
  <g>
    <path class="cls-1" d="M229.2,42.6l-3.3,10h-4.2l10.8-31.8h5l10.9,31.8H244l-3.4-10H229.2Zm10.4-3.2-3.1-9.2c-0.7-2.1-1.2-4-1.7-5.8h-0.1c-0.5,1.9-1,3.8-1.6,5.8L230,39.4h9.6Z" transform="translate(-3.3 -1.7)"/>
    <path class="cls-1" d="M267.6,19.5v2.8c6.7,0.3,13.4,4.3,13.4,14.3s-6.7,13.8-13.5,14.2v3h-4v-3c-6.7-.4-13.4-4-13.4-14,0-10.4,7.4-14.2,13.5-14.5V19.5h4Zm-3.9,5.8c-4.2.2-9.2,3.1-9.2,11.4,0,7.6,4.5,10.8,9.2,11.3V25.3Zm3.9,22.6c4.6-.4,9.2-3.4,9.2-11.3,0-8.2-4.6-11.1-9.2-11.3V47.9Z" transform="translate(-3.3 -1.7)"/>
    <path class="cls-1" d="M290.2,20.8V34.2c0,5-.1,9.2-0.4,13.5h0.1c1.6-3.3,3.6-6.7,5.9-10.5l10.3-16.4h4.1V52.6h-3.9V39a127.54,127.54,0,0,1,.4-12.9h-0.1a94.79,94.79,0,0,1-5.9,10.7l-10,15.8h-4.4V20.8h3.9Z" transform="translate(-3.3 -1.7)"/>
    <path class="cls-1" d="M321.5,20.8V49.2h10.3V20.8h4.1V49.2h10.3V20.8h4.1V52.6H317.5V20.8h4Z" transform="translate(-3.3 -1.7)"/>
    <path class="cls-1" d="M362.5,42.6l-3.3,10H355l10.8-31.8h5l10.9,31.8h-4.4l-3.4-10H362.5Zm10.4-3.2-3.1-9.2c-0.7-2.1-1.2-4-1.7-5.8H368c-0.5,1.9-1,3.8-1.6,5.8l-3.1,9.2h9.6Z" transform="translate(-3.3 -1.7)"/>
  </g>
</svg>
