<?xml version="1.0" encoding="UTF-8"?> <svg xmlns="http://www.w3.org/2000/svg" xmlns:xlink="http://www.w3.org/1999/xlink" width="343px" height="954px" viewBox="0 0 343 954"> <!-- Generator: Sketch 52.6 (67491) - http://www.bohemiancoding.com/sketch --> <title>lines</title> <desc>Created with Sketch.</desc> <g id="Page-1" stroke="none" stroke-width="1" fill="none" fill-rule="evenodd"> <g id="Artboard" transform="translate(-837.000000, -146.000000)" stroke="#FDF8F9"> <g id="lines" transform="translate(1054.000000, 623.000000) scale(-1, 1) translate(-1054.000000, -623.000000) translate(838.000000, 146.000000)"> <path d="M30,145 C102.031376,155.54367 163.655672,179.54367 214.872889,217 C291.698713,273.184495 317.924867,354.908411 294.997502,407 C272.070137,459.091589 179.227207,626 214.872889,745 C238.636677,824.333333 177.01238,872.666667 30,890 L30,145 Z" id="Path-3"></path> <path d="M0,222 C58.838816,230.604767 109.176611,250.191344 151.013385,280.759732 C213.768546,326.612312 235.191375,393.307804 216.463161,435.820134 C197.734947,478.332464 121.896217,614.547651 151.013385,711.66443 C170.424831,776.408949 120.087036,815.854139 0,830 L0,222 Z" id="Path-3-Copy"></path> <path d="M82,0 C174.347918,13.5015586 253.353426,44.2344445 319.016525,92.1986577 C417.511171,164.144977 451.134445,268.795469 421.740387,335.500671 C392.34633,402.205874 273.316932,615.938255 319.016525,768.322148 C349.482919,869.911409 270.47741,931.804027 82,954 L82,0 Z" id="Path-3-Copy" stroke-width="1.27999994"></path> </g> </g> </g> </svg> 