<?xml version="1.0" encoding="UTF-8"?> <svg xmlns="http://www.w3.org/2000/svg" xmlns:xlink="http://www.w3.org/1999/xlink" width="190px" height="207px" viewBox="0 0 190 207"> <!-- Generator: Sketch 52.6 (67491) - http://www.bohemiancoding.com/sketch --> <title>Group 2</title> <desc>Created with Sketch.</desc> <defs> <polygon id="path-1" points="63 151 85 151 85 165 63 165"></polygon> <polygon id="path-2" points="54 170 94 170 94 226 54 226"></polygon> <path d="M74.5,149 C33.3547861,149 0,115.645214 0,74.5 C0,33.3547861 33.3547861,0 74.5,0 C115.645214,0 149,33.3547861 149,74.5 C149,115.645214 115.645214,149 74.5,149 Z M74.5,135 C107.913227,135 135,107.913227 135,74.5 C135,41.0867726 107.913227,14 74.5,14 C41.0867726,14 14,41.0867726 14,74.5 C14,107.913227 41.0867726,135 74.5,135 Z" id="path-3"></path> </defs> <g id="Page-1" stroke="none" stroke-width="1" fill="none" fill-rule="evenodd"> <g id="Artboard" transform="translate(-326.000000, -208.000000)"> <g id="Group-3" transform="translate(296.000000, 164.000000)"> <g id="Group-2" transform="translate(132.500000, 152.000000) rotate(-40.000000) translate(-132.500000, -152.000000) translate(58.000000, 36.000000)"> <g id="Rectangle"> <use fill="#F5E1E8" xlink:href="#path-1"></use> <path stroke="#000000" stroke-width="1.08000001" d="M62.46,150.46 L85.54,150.46 L85.54,165.54 L62.46,165.54 L62.46,150.46 Z" fill="#F5DAE4"></path> </g> <g id="Rectangle-Copy-2"> <use fill="#F5E1E8" xlink:href="#path-2"></use> <path stroke="#000000" stroke-width="1.08000001" d="M53.46,169.46 L94.54,169.46 L94.54,226.54 L53.46,226.54 L53.46,169.46 Z" fill="#F5DAE4"></path> </g> <path d="M54.5592449,231.46 L93.4407551,231.46 C93.1640716,227.592031 89.9384558,224.54 86,224.54 L62,224.54 C58.0615442,224.54 54.8359284,227.592031 54.5592449,231.46 Z" id="Rectangle-Copy-3" stroke="#000000" stroke-width="1.08000001" fill="#E39744" transform="translate(74.000000, 228.000000) scale(1, -1) translate(-74.000000, -228.000000) "></path> <path d="M54.5592449,170.46 L93.4407551,170.46 C93.1640716,166.592031 89.9384558,163.54 86,163.54 L62,163.54 C58.0615442,163.54 54.8359284,166.592031 54.5592449,170.46 Z" id="Rectangle" stroke="#000000" stroke-width="1.08000001" fill="#E39744"></path> <path d="M45.5481915,138.54 C45.8335387,147.933046 53.5377622,155.46 63,155.46 L85,155.46 C94.4622378,155.46 102.166461,147.933046 102.451808,138.54 L45.5481915,138.54 Z" id="Rectangle" stroke="#000000" stroke-width="1.08000001" fill="#E39744"></path> <g id="Combined-Shape"> <use fill="#F5E1E8" xlink:href="#path-3"></use> <path stroke="#000000" stroke-width="1.08000001" d="M74.5,149.54 C33.0565524,149.54 -0.540000007,115.943448 -0.540000007,74.5 C-0.540000007,33.0565524 33.0565524,-0.540000007 74.5,-0.540000007 C115.943448,-0.540000007 149.54,33.0565524 149.54,74.5 C149.54,115.943448 115.943448,149.54 74.5,149.54 Z M74.5,134.46 C107.614994,134.46 134.46,107.614994 134.46,74.5 C134.46,41.3850064 107.614994,14.54 74.5,14.54 C41.3850064,14.54 14.54,41.3850064 14.54,74.5 C14.54,107.614994 41.3850064,134.46 74.5,134.46 Z" fill="#F5DAE4"></path> </g> </g> </g> </g> </g> </svg> 