<?xml version="1.0" encoding="UTF-8"?> <svg xmlns="http://www.w3.org/2000/svg" xmlns:xlink="http://www.w3.org/1999/xlink" width="275px" height="160px" viewBox="0 0 275 160"> <!-- Generator: Sketch 52.6 (67491) - http://www.bohemiancoding.com/sketch --> <title>Rectangle 5</title> <desc>Created with Sketch.</desc> <defs> <path d="M7,87 L110,87 L110,145 L-9.09494702e-13,145 L-9.1038288e-13,94 C-9.10856328e-13,90.1340068 3.13400675,87 7,87 Z" id="path-1"></path> <path d="M116,86 L169,86 C172.865993,86 176,89.1340068 176,93 L176,145 L116,145 L116,86 Z" id="path-2"></path> <polygon id="path-3" points="175 104 194 104 194 132 175 132"></polygon> <polygon id="path-4" points="198 100 214 100 214 136 198 136"></polygon> <polygon id="path-5" points="37 0 172 0 162 87 117 87"></polygon> <path d="M218,121 L238.777344,121 L274.777344,154.533203 L274.777344,159.976562 L237.799135,148.13196 C226.003125,144.353544 218,133.386375 218,121 Z" id="path-6"></path> </defs> <g id="Page-1" stroke="none" stroke-width="1" fill="none" fill-rule="evenodd"> <g id="Artboard" transform="translate(-465.000000, -2393.000000)"> <g id="Rectangle-5" transform="translate(465.000000, 2393.000000)"> <g id="Group-29" transform="translate(12.000000, 0.000000)"> <g id="Group-30"> <polygon id="Rectangle" stroke="#000000" stroke-width="1.08000001" fill="#E39744" points="109 92 118 92 118 140 109 140"></polygon> <g id="Rectangle"> <use fill="#F5E1E8" xlink:href="#path-1"></use> <use fill="#F5E1E8" xlink:href="#path-1"></use> <path stroke="#000000" stroke-width="1.08000001" d="M0.540000007,144.46 L109.46,144.46 L109.46,87.54 L7,87.54 C3.43224052,87.54 0.540000007,90.4322405 0.540000007,94 L0.540000007,144.46 Z" stroke-linejoin="square" fill="#F5DAE4"></path> </g> <g id="Rectangle-Copy-22"> <use fill="#F5E1E8" xlink:href="#path-2"></use> <use fill="#F5E1E8" xlink:href="#path-2"></use> <path stroke="#000000" stroke-width="1.08000001" d="M116.54,86.54 L116.54,144.46 L175.46,144.46 L175.46,93 C175.46,89.4322405 172.567759,86.54 169,86.54 L116.54,86.54 Z" stroke-linejoin="square" fill="#F5DAE4"></path> </g> <polygon id="Rectangle" stroke="#000000" stroke-width="1.08000001" fill="#E39744" points="192 108 199 108 199 128 192 128"></polygon> <g id="Rectangle"> <use fill="#F5E1E8" xlink:href="#path-3"></use> <use fill="#F5E1E8" xlink:href="#path-3"></use> <path stroke="#000000" stroke-width="1.08000001" d="M175.54,104.54 L175.54,131.46 L193.46,131.46 L193.46,104.54 L175.54,104.54 Z" stroke-linejoin="square" fill="#F5DAE4"></path> </g> <g id="Rectangle-Copy-23"> <use fill="#F5E1E8" xlink:href="#path-4"></use> <use fill="#F5E1E8" xlink:href="#path-4"></use> <path stroke="#000000" stroke-width="1.08000001" d="M198.54,100.54 L198.54,135.46 L213.46,135.46 L213.46,100.54 L198.54,100.54 Z" stroke-linejoin="square" fill="#F5DAE4"></path> </g> <g id="Rectangle"> <use fill="#F5E1E8" xlink:href="#path-5"></use> <use fill="#F5E1E8" xlink:href="#path-5"></use> <path stroke="#000000" stroke-width="1.08000001" d="M38.2301481,0.540000007 L117.237045,86.46 L161.518513,86.46 L171.394376,0.540000007 L38.2301481,0.540000007 Z" stroke-linejoin="square" fill="#F5DAE4"></path> </g> <rect id="Rectangle" fill="#000000" x="0" y="144" width="50" height="8"></rect> <rect id="Rectangle-Copy-14" fill="#000000" x="116" y="144" width="50" height="8"></rect> <polygon id="Rectangle" fill="#000000" points="44 6 171 6 171 7 44 7"></polygon> </g> </g> <polygon id="Rectangle" fill="#000000" points="1.8189894e-12 156 187.290093 156 187.290093 158 1.8189894e-12 158"></polygon> <g id="Path-6"> <use fill="#F5E1E8" xlink:href="#path-6"></use> <use fill="#F5E1E8" xlink:href="#path-6"></use> <path stroke="#000000" stroke-width="1.08000001" d="M218.545173,121.54 C218.773828,133.469355 226.563151,143.965902 237.96386,147.617698 L274.237344,159.236568 L274.237344,154.76818 L238.564805,121.54 L218.545173,121.54 Z" stroke-linejoin="square" fill="#F5DAE4"></path> </g> </g> </g> </g> </svg> 