<?xml version="1.0" encoding="UTF-8"?> <svg xmlns="http://www.w3.org/2000/svg" xmlns:xlink="http://www.w3.org/1999/xlink" width="116px" height="156px" viewBox="0 0 116 156"> <!-- Generator: Sketch 52.6 (67491) - http://www.bohemiancoding.com/sketch --> <title>Group 2</title> <desc>Created with Sketch.</desc> <defs> <path d="M37.14695,74.0035721 L19.1866955,48.5005552 C14.9368418,42.4658918 8.01717414,38.8756098 0.636224441,38.8756098 L14.513274,87.5771341 L45.2564019,143.391461 L89.1054808,124.331707 L86.0061005,115.902439 L110.867709,71.4345801 C112.124138,69.1873129 112.040679,66.4307093 110.650602,64.2635671 L110.24387,63.6294699 C109.090163,61.8308305 107.100263,60.7431402 104.963409,60.7431402 L104.963409,59.0611739 C104.963409,56.676071 103.452709,54.5526994 101.199442,53.7707121 L99.0493827,53.0245427 L98.0621157,48.9883716 C97.0801057,44.9736923 95.0065072,41.3089746 92.0707863,38.3997588 L76.3657274,22.8364931 C74.5314229,21.0187498 72.0534912,19.9989329 69.4710769,19.9989329 L61.4739945,0.651676829 L61.4739945,0.651676829 C55.176568,3.53834359 51.8006662,10.476363 53.4155776,17.2130155 L54.7411868,22.7428354 L56.772473,42.8487805 L43.4035856,72.0215691 L43.4035856,72.0215691 C43.4035856,73.922672 41.8624371,75.4638204 39.9613342,75.4638204 C38.8415336,75.4638204 37.7917164,74.9191209 37.14695,74.0035721 Z" id="path-1"></path> </defs> <g id="Page-1" stroke="none" stroke-width="1" fill="none" fill-rule="evenodd"> <g id="Artboard" transform="translate(-435.000000, -1392.000000)"> <g id="Group-4" transform="translate(351.000000, 1094.000000)"> <g id="Group-3" transform="translate(150.400992, 233.808753) rotate(-10.000000) translate(-150.400992, -233.808753) translate(35.900992, 17.308753)"> <g id="Group-2" transform="translate(29.000000, 277.000000)"> <g id="Path-9-Copy"> <use fill="#F5E1E8" xlink:href="#path-1"></use> <use fill="#F5E1E8" xlink:href="#path-1"></use> <path stroke="#000000" stroke-width="1.08000001" d="M1.35490093,39.4272423 L15.0158188,87.3702522 L45.4921384,142.700187 L88.4227508,124.039661 L85.4135668,115.855696 L110.396374,71.1710603 C111.555548,69.0977424 111.47855,66.5545132 110.196071,64.5551182 L109.78934,63.921021 C108.734941,62.2772045 106.916327,61.2831403 104.963409,61.2831403 L104.423409,61.2831403 L104.423409,59.0611739 C104.423409,56.906063 103.058384,54.9874451 101.022396,54.2808638 L98.5946782,53.4383341 L97.5375796,49.1166757 C96.5792431,45.1987788 94.5556331,41.622407 91.690684,38.7833241 L75.9856251,23.2200584 C74.252446,21.5025272 71.9111226,20.5389329 69.4710769,20.5389329 L69.1099705,20.5389329 L61.1934519,1.38658388 C55.4568336,4.297844 52.4297213,10.7840388 53.9407,17.087133 L55.2784519,22.6885559 L57.32448,42.940419 L43.9417576,72.1433976 C43.877365,74.2863711 42.1199155,76.0038204 39.9613342,76.0038204 C38.6658659,76.0038204 37.4513596,75.3736716 36.7054461,74.314497 L18.7451915,48.8114801 C14.734723,43.1167364 8.28877464,39.6518264 1.35490093,39.4272423 Z" stroke-linejoin="square" fill="#F5DAE4"></path> </g> <polygon id="Path-10" stroke="#000000" stroke-width="0.700000048" points="69.1355945 20.2328506 76.6902488 44.8565541 74.9110002 55.1395852 79.8550227 47.3686738 73.7707007 36.5268293"></polygon> <path d="M2.39804023,43.5413786 L6.77990397,58.858222 L9.80135329,56.2991195 C11.9416635,54.4863229 12.3519874,51.3430174 10.74875,49.0415419 L10.17229,48.2140234 C8.64900706,46.0273238 6.37243714,44.4795729 3.77875636,43.8673098 L2.39804023,43.5413786 Z" id="Path-2" stroke="#000000" stroke-width="0.756000062" fill="#E39744"></path> <path d="M61.9416766,3.52522305 L60.3010125,5.82707097 L60.7327339,15.9711997 L67.0543322,15.9711997 L61.9416766,3.52522305 Z" id="Path-4" stroke="#000000" stroke-width="0.756000062" fill="#E39744"></path> <rect id="Rectangle" stroke="#000000" stroke-width="1.08000001" fill="#E39744" transform="translate(71.437223, 137.149021) rotate(-23.000000) translate(-71.437223, -137.149021) " x="42.9772233" y="129.689021" width="56.92" height="14.92"></rect> <circle id="Oval" stroke="#000000" stroke-width="1.08000001" fill="#F5E1E8" cx="90" cy="130" r="2.45999999"></circle> <circle id="Oval-Copy-2" stroke="#000000" stroke-width="1.08000001" fill="#F5E1E8" cx="80" cy="134" r="2.45999999"></circle> </g> </g> </g> </g> </g> </svg> 