<?xml version="1.0" encoding="UTF-8"?> <svg xmlns="http://www.w3.org/2000/svg" xmlns:xlink="http://www.w3.org/1999/xlink" width="483px" height="322px" viewBox="0 0 483 322"> <!-- Generator: Sketch 52.6 (67491) - http://www.bohemiancoding.com/sketch --> <title>Group 2</title> <desc>Created with Sketch.</desc> <g id="Page-1" stroke="none" stroke-width="1" fill="none" fill-rule="evenodd"> <g id="Artboard" transform="translate(-332.000000, -640.000000)"> <g id="Group-2" transform="translate(332.000000, 640.000000)"> <g id="lab" opacity="0.04406" transform="translate(252.000000, 166.000000)" fill="#000000"> <path d="M96.6054406,103.7251 L96.6054406,87.1961595 L101.435713,87.1961595 L101.435713,82.3650948 L72.4540804,82.3650948 L72.4540804,87.1961595 L77.2843525,87.1961595 L77.2843525,103.7251 C75.6416355,104.443391 74.1475059,105.379881 72.7347458,106.416626 L57.9632644,79.3338849 L57.9632644,67.8719008 L62.7935364,67.8719008 L62.7935364,63.0408362 L57.9632644,63.0408362 L57.9632644,55.7942392 C57.9632644,54.4614505 56.8842362,53.3787069 55.5481283,53.3787069 L53.1329923,53.3787069 L53.1329923,46.1321099 C53.1329923,44.7993212 52.0539642,43.7165775 50.7178563,43.7165775 L36.2270402,43.7165775 C34.8909323,43.7165775 33.8119042,44.7993212 33.8119042,46.1321099 L33.8119042,53.3787069 L31.3967682,53.3787069 C30.0606603,53.3787069 28.9816322,54.4614505 28.9816322,55.7942392 L28.9816322,63.0408362 L24.1513601,63.0408362 L24.1513601,67.8719008 L28.9816322,67.8719008 L28.9816322,79.3338849 L1.4729027,129.772276 C0.509442753,131.540285 0,133.540648 0,135.555164 L0,137.922338 C0,144.581565 5.41754616,150 12.0756801,150 L74.8692165,150 C76.5815102,150 78.2619636,149.617855 79.8103396,148.923154 C82.0662747,149.620214 84.4625425,150 86.9448965,150 C100.262343,150 111.096257,139.164309 111.096257,125.844677 C111.096257,116.223829 105.339082,107.54183 96.6054406,103.7251 Z M91.7751686,87.1961595 L91.7751686,92.0272241 L82.1146245,92.0272241 L82.1146245,87.1961595 L91.7751686,87.1961595 Z M80.5061062,107.645622 C81.4695661,107.303579 82.1146245,106.391857 82.1146245,105.368087 L82.1146245,96.8582888 L91.7751686,96.8582888 L91.7751686,105.368087 C91.7751686,106.391857 92.4202269,107.303579 93.3836869,107.645622 C99.527661,109.822904 104.012408,114.928782 105.5997,121.037201 C103.761224,121.100892 102.037138,121.827439 100.728153,123.136639 L98.7281187,125.137001 C98.2764599,125.586375 97.6561663,125.844677 97.0205421,125.844677 L96.1903391,125.844677 C95.5547148,125.844677 94.9320626,125.586375 94.4827625,125.137001 L92.4827279,123.136639 C91.115959,121.767287 89.2951729,121.013612 87.359998,121.013612 L86.529795,121.013612 C84.5946202,121.013612 82.7738341,121.767287 81.4070651,123.136639 L79.4070306,125.137001 C78.9553718,125.586375 78.3350782,125.844677 77.699454,125.844677 L76.869251,125.844677 C76.2336267,125.844677 75.6109745,125.586375 75.1616743,125.137001 L73.1616398,123.136639 C71.8550135,121.827439 70.1309273,121.103251 68.2900934,121.037201 C69.8773851,114.928782 74.3621321,109.820545 80.5061062,107.645622 Z M38.6421762,48.5476422 L48.3027203,48.5476422 L48.3027203,53.3787069 L38.6421762,53.3787069 L38.6421762,48.5476422 Z M33.8119042,58.2097715 L53.1329923,58.2097715 L53.1329923,63.0408362 L33.8119042,63.0408362 L33.8119042,58.2097715 Z M33.517088,81.1066118 C33.7104872,80.7515947 33.8119042,80.3529376 33.8119042,79.9495625 L33.8119042,67.8719008 L53.1329923,67.8719008 L53.1329923,79.9495625 C53.1329923,80.3529376 53.2344093,80.7515947 53.4278086,81.1066118 L62.0376272,96.892493 C60.2333506,96.9762347 58.543463,97.6945252 57.255705,98.9813152 L55.2556705,100.981678 C54.8040117,101.431052 54.1837181,101.689353 53.5480938,101.689353 L52.7178908,101.689353 C52.0822666,101.689353 51.4596143,101.431052 51.0103142,100.981678 L49.0102797,98.9813152 C47.6435107,97.6119632 45.8227246,96.8582888 43.8875498,96.8582888 L43.0573468,96.8582888 C41.1221719,96.8582888 39.3013858,97.6119632 37.9346169,98.9813152 L35.9345823,100.981678 C35.4829235,101.431052 34.86263,101.689353 34.2270057,101.689353 L33.3968027,101.689353 C32.7611785,101.689353 32.1385262,101.431052 31.6892261,100.981678 L29.6891916,98.9813152 C28.4049714,97.6945252 26.7115459,96.9762347 24.9072693,96.892493 L33.517088,81.1066118 Z M12.0756801,145.168935 C8.0815073,145.168935 4.83027203,141.917167 4.83027203,137.922338 L4.83027203,135.555164 C4.83027203,134.347398 5.13688109,133.144349 5.7147214,132.084015 L22.2916583,101.689353 L24.5664617,101.689353 C25.2020859,101.689353 25.8247382,101.947655 26.2740383,102.397029 L28.2740728,104.397392 C29.6408417,105.766744 31.4616279,106.520418 33.3968027,106.520418 L34.2270057,106.520418 C36.1621805,106.520418 37.9829667,105.766744 39.3497356,104.397392 L41.3497701,102.397029 C41.8014289,101.947655 42.4217225,101.689353 43.0573468,101.689353 L43.8875498,101.689353 C44.523174,101.689353 45.1458263,101.947655 45.5951264,102.397029 L47.5951609,104.397392 C48.9619299,105.766744 50.782716,106.520418 52.7178908,106.520418 L53.5480938,106.520418 C55.4832687,106.520418 57.3040548,105.766744 58.6708237,104.397392 L60.6708582,102.397029 C61.1225171,101.947655 61.7428106,101.689353 62.3784349,101.689353 L64.6532382,101.689353 L69.024776,109.703778 C65.1143312,114.047726 62.7935364,119.75277 62.7935364,125.844677 C62.7935364,133.750591 66.6285082,140.760117 72.5165814,145.168935 L12.0756801,145.168935 Z M86.9448965,145.168935 C76.291411,145.168935 67.6238084,136.49991 67.6238084,125.844677 L68.0389099,125.844677 C68.6745342,125.844677 69.2971864,126.102978 69.7464866,126.552352 L71.7465211,128.552715 C73.11329,129.922067 74.9340761,130.675741 76.869251,130.675741 L77.699454,130.675741 C79.6346288,130.675741 81.4554149,129.922067 82.8221839,128.552715 L84.8222184,126.552352 C85.2738772,126.102978 85.8941708,125.844677 86.529795,125.844677 L87.359998,125.844677 C87.9956223,125.844677 88.6182745,126.102978 89.0675747,126.552352 L91.0676092,128.552715 C92.4343781,129.922067 94.2551643,130.675741 96.1903391,130.675741 L97.0205421,130.675741 C98.9557169,130.675741 100.776503,129.922067 102.143272,128.552715 L104.143307,126.552352 C104.594965,126.102978 105.215259,125.844677 105.850883,125.844677 L106.265985,125.844677 C106.265985,136.49991 97.5983821,145.168935 86.9448965,145.168935 Z" id="Shape" fill-rule="nonzero"></path> <path d="M16.8449198,125.935829 C12.8651664,125.935829 9.62566845,129.175327 9.62566845,133.15508 C9.62566845,137.134834 12.8651664,140.374332 16.8449198,140.374332 C20.8246732,140.374332 24.0641711,137.134834 24.0641711,133.15508 C24.0641711,129.175327 20.8246732,125.935829 16.8449198,125.935829 Z M16.8449198,135.561497 C15.5171605,135.561497 14.4385027,134.48049 14.4385027,133.15508 C14.4385027,131.829671 15.5171605,130.748663 16.8449198,130.748663 C18.1726791,130.748663 19.2513369,131.829671 19.2513369,133.15508 C19.2513369,134.48049 18.1726791,135.561497 16.8449198,135.561497 Z" id="Shape" fill-rule="nonzero"></path> <path d="M36.0962567,121.122995 C32.1165033,121.122995 28.8770053,124.362493 28.8770053,128.342246 C28.8770053,132.321999 32.1165033,135.561497 36.0962567,135.561497 C40.0760101,135.561497 43.315508,132.321999 43.315508,128.342246 C43.315508,124.362493 40.0760101,121.122995 36.0962567,121.122995 Z M36.0962567,130.748663 C34.7684974,130.748663 33.6898396,129.667655 33.6898396,128.342246 C33.6898396,127.016837 34.7684974,125.935829 36.0962567,125.935829 C37.424016,125.935829 38.5026738,127.016837 38.5026738,128.342246 C38.5026738,129.667655 37.424016,130.748663 36.0962567,130.748663 Z" id="Shape" fill-rule="nonzero"></path> <path d="M53.342246,111.497326 C49.3624926,111.497326 46.1229947,114.736824 46.1229947,118.716578 C46.1229947,122.696331 49.3624926,125.935829 53.342246,125.935829 C57.3219994,125.935829 60.5614973,122.696331 60.5614973,118.716578 C60.5614973,114.736824 57.3219994,111.497326 53.342246,111.497326 Z M53.342246,121.122995 C52.0144867,121.122995 50.9358289,120.041987 50.9358289,118.716578 C50.9358289,117.391168 52.0144867,116.31016 53.342246,116.31016 C54.6700053,116.31016 55.7486631,117.391168 55.7486631,118.716578 C55.7486631,120.041987 54.6700053,121.122995 53.342246,121.122995 Z" id="Shape" fill-rule="nonzero"></path> <polygon id="Path" points="55.7486631 135.561497 60.5614973 135.561497 60.5614973 140.374332 55.7486631 140.374332"></polygon> <polygon id="Path" points="50.9358289 130.748663 55.7486631 130.748663 55.7486631 135.561497 50.9358289 135.561497"></polygon> <polygon id="Path" points="46.1229947 135.561497 50.9358289 135.561497 50.9358289 140.374332 46.1229947 140.374332"></polygon> <polygon id="Path" points="26.4705882 113.903743 31.2834225 113.903743 31.2834225 118.716578 26.4705882 118.716578"></polygon> <path d="M147.568516,33.6898396 L113.527741,33.6898396 C112.182589,33.6898396 111.096257,34.7759881 111.096257,36.1129679 L111.096257,45.8054813 C111.096257,47.1424611 112.182589,48.2286096 113.527741,48.2286096 L115.959225,48.2286096 L115.959225,135.46123 C115.959225,143.47956 122.502149,150 130.548128,150 C138.594108,150 145.137032,143.47956 145.137032,135.46123 L145.137032,48.2286096 L147.568516,48.2286096 C148.913668,48.2286096 150,47.1424611 150,45.8054813 L150,36.1129679 C150,34.7759881 148.913668,33.6898396 147.568516,33.6898396 Z M130.548128,145.153743 C125.184142,145.153743 120.822193,140.806784 120.822193,135.46123 L120.822193,82.1524064 L140.274064,82.1524064 L140.274064,135.46123 C140.274064,140.806784 135.912115,145.153743 130.548128,145.153743 Z M140.274064,77.3061497 L120.822193,77.3061497 L120.822193,48.2286096 L140.274064,48.2286096 L140.274064,77.3061497 Z M145.137032,43.3823529 L115.959225,43.3823529 L115.959225,38.5360963 L145.137032,38.5360963 L145.137032,43.3823529 Z" id="Shape" fill-rule="nonzero"></path> <polygon id="Path" points="125.935829 133.15508 130.748663 133.15508 130.748663 137.967914 125.935829 137.967914"></polygon> <polygon id="Path" points="130.748663 123.529412 135.561497 123.529412 135.561497 128.342246 130.748663 128.342246"></polygon> <polygon id="Path" points="125.935829 113.903743 130.748663 113.903743 130.748663 118.716578 125.935829 118.716578"></polygon> <polygon id="Path" points="130.748663 103.877005 135.561497 103.877005 135.561497 108.68984 130.748663 108.68984"></polygon> <polygon id="Path" points="125.935829 94.2513369 130.748663 94.2513369 130.748663 99.0641711 125.935829 99.0641711"></polygon> <path d="M38.9211811,26.6084559 C38.9211811,25.2761433 40.0037471,24.1895053 41.3363171,24.1895053 L48.5817252,24.1895053 L48.5817252,38.7032086 L53.4119972,38.7032086 L53.4119972,24.1895053 L77.5633574,24.1895053 L77.5633574,77.4064171 L82.3936294,77.4064171 L82.3936294,24.1895053 L89.6390374,24.1895053 C90.9716074,24.1895053 92.0541734,25.2761433 92.0541734,26.6084559 L92.0541734,77.4064171 L96.8844455,77.4064171 L96.8844455,26.6084559 C96.8844455,22.6079746 93.6332102,19.3516043 89.6390374,19.3516043 L82.3936294,19.3516043 L82.3936294,16.9326537 C82.3936294,15.6003411 83.4761954,14.5137032 84.8087654,14.5137032 L113.790398,14.5137032 C115.122968,14.5137032 116.205534,15.6003411 116.205534,16.9326537 L116.205534,29.0274064 L121.035806,29.0274064 L121.035806,16.9326537 C121.035806,12.9321725 117.78457,9.67580214 113.790398,9.67580214 L84.8087654,9.67580214 C80.8145926,9.67580214 77.5633574,12.9321725 77.5633574,16.9326537 L77.5633574,19.3516043 L53.4119972,19.3516043 L53.4119972,7.2568516 C53.4119972,5.92453901 54.4945632,4.83790107 55.8271332,4.83790107 L137.941758,4.83790107 C139.274328,4.83790107 140.356894,5.92453901 140.356894,7.2568516 L140.356894,29.0274064 L145.187166,29.0274064 L145.187166,7.2568516 C145.187166,3.25637035 141.935931,0 137.941758,0 L55.8271332,0 C51.8329605,0 48.5817252,3.25637035 48.5817252,7.2568516 L48.5817252,19.3516043 L41.3363171,19.3516043 C37.3421444,19.3516043 34.0909091,22.6079746 34.0909091,26.6084559 L34.0909091,38.7032086 L38.9211811,38.7032086 L38.9211811,26.6084559 Z" id="Path"></path> <path d="M14.4385027,36.0962567 C14.4385027,40.0760101 17.6780006,43.315508 21.657754,43.315508 C25.6375074,43.315508 28.8770053,40.0760101 28.8770053,36.0962567 C28.8770053,32.1165033 25.6375074,28.8770053 21.657754,28.8770053 C17.6780006,28.8770053 14.4385027,32.1165033 14.4385027,36.0962567 Z M24.0641711,36.0962567 C24.0641711,37.4216661 22.9855133,38.5026738 21.657754,38.5026738 C20.3299947,38.5026738 19.2513369,37.4216661 19.2513369,36.0962567 C19.2513369,34.7708473 20.3299947,33.6898396 21.657754,33.6898396 C22.9855133,33.6898396 24.0641711,34.7708473 24.0641711,36.0962567 Z" id="Shape" fill-rule="nonzero"></path> <path d="M12.0320856,24.0641711 C18.6661829,24.0641711 24.0641711,18.6661829 24.0641711,12.0320856 C24.0641711,5.39798824 18.6661829,0 12.0320856,0 C5.39798824,0 0,5.39798824 0,12.0320856 C0,18.6661829 5.39798824,24.0641711 12.0320856,24.0641711 Z M12.0320856,4.81283422 C16.0118389,4.81283422 19.2513369,8.05233219 19.2513369,12.0320856 C19.2513369,16.0118389 16.0118389,19.2513369 12.0320856,19.2513369 C8.05233219,19.2513369 4.81283422,16.0118389 4.81283422,12.0320856 C4.81283422,8.05233219 8.05233219,4.81283422 12.0320856,4.81283422 Z" id="Shape" fill-rule="nonzero"></path> <path d="M9.62566845,67.7807487 C14.9343564,67.7807487 19.2513369,63.4637681 19.2513369,58.1550802 C19.2513369,52.8463923 14.9343564,48.5294118 9.62566845,48.5294118 C4.31698055,48.5294118 0,52.8463923 0,58.1550802 C0,63.4637681 4.31698055,67.7807487 9.62566845,67.7807487 Z M9.62566845,53.342246 C12.2800124,53.342246 14.4385027,55.5007363 14.4385027,58.1550802 C14.4385027,60.8094242 12.2800124,62.9679144 9.62566845,62.9679144 C6.9713245,62.9679144 4.81283422,60.8094242 4.81283422,58.1550802 C4.81283422,55.5007363 6.9713245,53.342246 9.62566845,53.342246 Z" id="Shape" fill-rule="nonzero"></path> </g> <g id="Rectangle-6"> <rect id="Rectangle" fill="#000000" x="0" y="320" width="483" height="2"></rect> <path d="M119.54,288.237198 C121.849467,288.385522 124.170236,288.46 126.5,288.46 C185.572377,288.46 233.46,240.572377 233.46,181.5 C233.46,122.427623 185.572377,74.54 126.5,74.54 C124.170236,74.54 121.849467,74.6144777 119.54,74.7628015 L119.54,104.770178 C121.844354,104.563816 124.165873,104.46 126.5,104.46 C169.048017,104.46 203.54,138.951983 203.54,181.5 C203.54,224.048017 169.048017,258.54 126.5,258.54 C124.165873,258.54 121.844354,258.436184 119.54,258.229822 L119.54,288.237198 Z" id="Combined-Shape" stroke="#000000" stroke-width="1.08000001" fill="#F5DAE4"></path> <g id="Group-21" transform="translate(19.000000, 285.000000)" stroke="#000000" stroke-width="1.08000001"> <path d="M0.540000007,30.46 L207.46,30.46 L207.46,19 C207.46,14.327671 203.672329,10.54 199,10.54 L9,10.54 C4.32767102,10.54 0.540000007,14.327671 0.540000007,19 L0.540000007,30.46 Z" id="Rectangle"></path> <path d="M20.54,10.46 L187.46,10.46 L187.46,9 C187.46,4.32767102 183.672329,0.540000007 179,0.540000007 L29,0.540000007 C24.327671,0.540000007 20.54,4.32767102 20.54,9 L20.54,10.46 Z" id="Rectangle-Copy-16" fill="#E39744"></path> </g> <g id="Group-20" transform="translate(79.000000, 0.000000)" stroke="#000000" stroke-width="1.08000001"> <path d="M0.540000007,26.54 L0.540000007,115.46 L53.46,115.46 L53.46,26.54 L0.540000007,26.54 Z" id="Rectangle" fill="#F5DAE4"></path> <rect id="Rectangle" x="6.54000001" y="115.54" width="40.92" height="10.92"></rect> <path d="M16.54,126.54 L16.54,142.46 L37.46,142.46 L37.46,126.54 L16.54,126.54 Z" id="Rectangle-Copy-18"></path> <path d="M16.54,135.54 L16.54,142.46 L37.46,142.46 L37.46,135.54 L16.54,135.54 Z" id="Rectangle-Copy-19" fill="#E39744"></path> <path d="M14.54,12.54 L14.54,26.46 L39.46,26.46 L39.46,12.54 L14.54,12.54 Z" id="Rectangle-Copy-17" transform="translate(27.000000, 19.500000) scale(1, -1) translate(-27.000000, -19.500000) "></path> <path d="M6.54000001,0.540000007 L6.54000001,3 C6.54000001,8.22461373 10.7753863,12.46 16,12.46 L38,12.46 C43.2246137,12.46 47.46,8.22461373 47.46,3 L47.46,0.540000007 L6.54000001,0.540000007 Z" id="Rectangle"></path> </g> <g id="Oval-4" transform="translate(106.000000, 47.000000)"> <circle id="Oval" stroke="#000000" stroke-width="1.08000001" fill="#F5E1E8" cx="27" cy="27" r="26.46"></circle> <circle id="Oval-Copy-18" stroke="#000000" stroke-width="1.08000001" fill="#E39744" cx="27" cy="27" r="18.46"></circle> <circle id="Oval-Copy-19" stroke="#000000" stroke-width="1.08000001" fill="#E39744" cx="27" cy="27" r="11.46"></circle> <path d="M16.5,26 L36.5,26 C37.3284271,26 38,26.6715729 38,27.5 L38,27.5 C38,28.3284271 37.3284271,29 36.5,29 L16.5,29 C15.6715729,29 15,28.3284271 15,27.5 L15,27.5 C15,26.6715729 15.6715729,26 16.5,26 Z" id="Rectangle" fill="#000000" transform="translate(26.500000, 27.500000) rotate(30.000000) translate(-26.500000, -27.500000) "></path> </g> <g id="Group-22" transform="translate(184.000000, 163.000000)" stroke="#000000" stroke-width="1.08000001"> <circle id="Oval" fill="#F5E1E8" cx="19" cy="19" r="18.46"></circle> <circle id="Oval-Copy-21" fill="#E39744" cx="19" cy="19" r="10.46"></circle> </g> <rect id="Rectangle" stroke="#000000" stroke-width="1.08000001" x="65.54" y="234.54" width="80.92" height="10.92"></rect> <path d="M113.54,245.54 L113.54,285.46 L124.46,285.46 L124.46,245.54 L113.54,245.54 Z" id="Rectangle" stroke="#000000" stroke-width="1.08000001" fill="#F5DAE4"></path> </g> </g> </g> </g> </svg> 