<?xml version="1.0" encoding="UTF-8"?> <svg xmlns="http://www.w3.org/2000/svg" xmlns:xlink="http://www.w3.org/1999/xlink" width="309px" height="175px" viewBox="0 0 309 175"> <!-- Generator: Sketch 52.6 (67491) - http://www.bohemiancoding.com/sketch --> <title>pan 3</title> <desc>Created with Sketch.</desc> <g id="Page-1" stroke="none" stroke-width="1" fill="none" fill-rule="evenodd"> <g id="Artboard" transform="translate(-103.000000, -337.000000)"> <g id="Group-8" transform="translate(104.000000, 62.000000)"> <g id="Group-7"> <g id="pan-3" transform="translate(0.000000, 276.000000)"> <path d="M231.446946,158.221939 L76.1526539,158.221939 L68.1982944,140.385541 C56.3290472,113.77149 50.1958674,84.9707857 50.1958674,55.8458776 L50.1958674,0 L257.403733,0 L257.403733,55.8458776 C257.403733,84.9707857 251.270553,113.77149 239.401306,140.385541 L231.446946,158.221939 Z" id="Fill-1" stroke="#000000" stroke-width="1.08000001"></path> <g id="Rectangle-4" transform="translate(48.000000, 40.000000)" stroke="#E39744"> <g id="Group-5"> <path d="M13.5,2.36652746 C5.96565654,10.275067 5.96565654,22.724933 13.5,30.6334725 C21.0343435,22.7249331 21.0343435,10.275067 13.5,2.36652746 Z" id="Rectangle" transform="translate(13.500000, 16.500000) rotate(30.000000) translate(-13.500000, -16.500000) "></path> <circle id="Oval" cx="24" cy="24" r="2.5"></circle> <circle id="Oval-Copy-4" cx="44" cy="7" r="2.5"></circle> <path d="M33.5,2.36652746 C25.9656565,10.275067 25.9656565,22.724933 33.5,30.6334725 C41.0343435,22.7249331 41.0343435,10.275067 33.5,2.36652746 Z" id="Rectangle-Copy-12" transform="translate(33.500000, 16.500000) scale(-1, 1) rotate(30.000000) translate(-33.500000, -16.500000) "></path> </g> <g id="Group-5-Copy" transform="translate(40.000000, 0.000000)"> <path d="M13.5,2.36652746 C5.96565654,10.275067 5.96565654,22.724933 13.5,30.6334725 C21.0343435,22.7249331 21.0343435,10.275067 13.5,2.36652746 Z" id="Rectangle" transform="translate(13.500000, 16.500000) rotate(30.000000) translate(-13.500000, -16.500000) "></path> <circle id="Oval" cx="24" cy="24" r="2.5"></circle> <circle id="Oval-Copy-4" cx="44" cy="7" r="2.5"></circle> <path d="M33.5,2.36652746 C25.9656565,10.275067 25.9656565,22.724933 33.5,30.6334725 C41.0343435,22.7249331 41.0343435,10.275067 33.5,2.36652746 Z" id="Rectangle-Copy-12" transform="translate(33.500000, 16.500000) scale(-1, 1) rotate(30.000000) translate(-33.500000, -16.500000) "></path> </g> <g id="Group-5-Copy-2" transform="translate(80.000000, 0.000000)"> <path d="M13.5,2.36652746 C5.96565654,10.275067 5.96565654,22.724933 13.5,30.6334725 C21.0343435,22.7249331 21.0343435,10.275067 13.5,2.36652746 Z" id="Rectangle" transform="translate(13.500000, 16.500000) rotate(30.000000) translate(-13.500000, -16.500000) "></path> <circle id="Oval" cx="24" cy="24" r="2.5"></circle> <circle id="Oval-Copy-4" cx="44" cy="7" r="2.5"></circle> <path d="M33.5,2.36652746 C25.9656565,10.275067 25.9656565,22.724933 33.5,30.6334725 C41.0343435,22.7249331 41.0343435,10.275067 33.5,2.36652746 Z" id="Rectangle-Copy-12" transform="translate(33.500000, 16.500000) scale(-1, 1) rotate(30.000000) translate(-33.500000, -16.500000) "></path> </g> <g id="Group-5-Copy-3" transform="translate(120.000000, 0.000000)"> <path d="M13.5,2.36652746 C5.96565654,10.275067 5.96565654,22.724933 13.5,30.6334725 C21.0343435,22.7249331 21.0343435,10.275067 13.5,2.36652746 Z" id="Rectangle" transform="translate(13.500000, 16.500000) rotate(30.000000) translate(-13.500000, -16.500000) "></path> <circle id="Oval" cx="24" cy="24" r="2.5"></circle> <circle id="Oval-Copy-4" cx="44" cy="7" r="2.5"></circle> <path d="M33.5,2.36652746 C25.9656565,10.275067 25.9656565,22.724933 33.5,30.6334725 C41.0343435,22.7249331 41.0343435,10.275067 33.5,2.36652746 Z" id="Rectangle-Copy-12" transform="translate(33.500000, 16.500000) scale(-1, 1) rotate(30.000000) translate(-33.500000, -16.500000) "></path> </g> <g id="Group-5-Copy-4" transform="translate(160.000000, 0.000000)"> <path d="M13.5,2.36652746 C5.96565654,10.275067 5.96565654,22.724933 13.5,30.6334725 C21.0343435,22.7249331 21.0343435,10.275067 13.5,2.36652746 Z" id="Rectangle" transform="translate(13.500000, 16.500000) rotate(30.000000) translate(-13.500000, -16.500000) "></path> <circle id="Oval" cx="24" cy="24" r="2.5"></circle> <circle id="Oval-Copy-4" cx="44" cy="7" r="2.5"></circle> <path d="M33.5,2.36652746 C25.9656565,10.275067 25.9656565,22.724933 33.5,30.6334725 C41.0343435,22.7249331 41.0343435,10.275067 33.5,2.36652746 Z" id="Rectangle-Copy-12" transform="translate(33.500000, 16.500000) scale(-1, 1) rotate(30.000000) translate(-33.500000, -16.500000) "></path> </g> </g> <polygon id="Fill-3" stroke="#000000" stroke-width="1.08000001" fill="#000000" points="76.153 168.353316 231.362506 168.353316 231.362506 158.006378 76.153 158.006378"></polygon> <polygon id="Rectangle" fill="#000000" points="47 172 256 172 256 174 47 174"></polygon> <polygon id="Fill-5" stroke="#000000" stroke-width="1.08000001" points="50.1962135 14.9797806 257.404079 14.9797806 257.404079 0 50.1962135 0"></polygon> <path d="M307.441534,45.9174724 C307.441534,49.0646663 305.235354,51.7807378 302.156219,52.4446663 L299.438725,53.0309929 L272.402208,53.0309929 L266.580489,58.9201255 L263.023781,58.9201255 L263.023781,39.2350745 L300.736478,39.2350745 C302.588803,39.2350745 304.266365,39.9852276 305.477601,41.1923704 C306.688837,42.3995133 307.441534,44.0722684 307.441534,45.9174724" id="Fill-6" stroke="#000000" stroke-width="1.08000001"></path> <polygon id="Fill-7" stroke="#000000" stroke-width="1.08000001" fill="#E39744" points="257.259596 58.9197806 262.955865 58.9197806 262.955865 42.9527296 257.259596 42.9527296"></polygon> <g id="Group-9" transform="translate(0.000000, 39.000000)"> <path d="M-1.0658141e-13,6.91747245 C-1.0658141e-13,10.0646663 2.20617978,12.7807378 5.28617978,13.4446663 L8.00280899,14.0309929 L35.0393258,14.0309929 L40.8619101,19.9201255 L44.4177528,19.9201255 L44.4177528,0.23507449 L6.70505618,0.23507449 C4.85359551,0.23507449 3.17516854,0.985227551 1.96393258,2.19237041 C0.752696629,3.39951327 -1.0658141e-13,5.07226837 -1.0658141e-13,6.91747245" id="Fill-8" stroke="#000000" stroke-width="1.08000001"></path> <ellipse id="Oval" fill="#000000" cx="7.0245614" cy="6.74840764" rx="2.70175439" ry="2.6910828"></ellipse> <polygon id="Fill-9" stroke="#000000" stroke-width="1.08000001" fill="#E39744" points="44.4869663 19.9197806 50.1823708 19.9197806 50.1823708 3.95272959 44.4869663 3.95272959"></polygon> </g> <ellipse id="Oval-Copy-2" fill="#000000" cx="299.894737" cy="45.7484076" rx="2.70175439" ry="2.6910828"></ellipse> </g> </g> </g> </g> </g> </svg> 