<?xml version="1.0" encoding="utf-8"?>
<!-- Generator: Adobe Illustrator 23.0.0, SVG Export Plug-In . SVG Version: 6.00 Build 0)  -->
<svg version="1.1" id="Layer_1" xmlns="http://www.w3.org/2000/svg" xmlns:xlink="http://www.w3.org/1999/xlink" x="0px" y="0px"
	 viewBox="0 0 477 483" style="enable-background:new 0 0 477 483;" xml:space="preserve">
<style type="text/css">
	.st0{fill:#FFFFFF;}
	.st1{fill:none;}
</style>
<path class="st0" d="M36.5,156.4c1.9-3.9,3.4-7.3,5.1-10.5c3.8-7.6,9.5-10.5,16.3-8.4c8.1,2.5,13.1,8.8,11.5,16.8
	c-1.4,6.9-4.8,13.4-7.5,20.6c-15.3-7.4-29.7-14.3-44.6-21.5c-1.6,2.6-3,5-4.7,7.7c-1.2-0.6-2.3-1.1-3.8-1.8
	c2.2-4.5,4.3-8.8,6.5-13.2C22.4,149.5,29.3,152.9,36.5,156.4z M59.8,167.6c1.7-3.6,3.3-6.8,4.8-10.1c2.4-5.7,0.9-9.8-4.5-12.8
	c-5.5-3.1-10.5-2.3-13.9,2.7c-2.2,3.3-3.8,7.1-5.8,10.9C47,161.5,53.2,164.5,59.8,167.6z"/>
<title>Безимени-1</title>
<desc>Created with Sketch.</desc>
<path class="st0" d="M222.2,465.4c-0.2,0-0.5,0-0.7,0c-0.4-1.4-0.9-2.7-1.3-4.1c-2.9-10.1-5.7-20.3-8.7-30.4c-0.6-1.9-2-3.5-3-5.3
	c-1.5,1.4-3.3,2.7-4.5,4.3c-3.1,4.3-5.9,8.7-8.9,13.1c-3.7,5.4-7.3,10.8-11,16.2c-0.3-0.1-0.6-0.2-0.9-0.3c1.9-12,3.8-24.1,5.8-36.5
	c-2.1-0.2-3.7-0.4-5.6-0.6c-2.8,17.6-5.6,34.8-8.3,51.7c3.6,2.1,5.6,1.1,7.4-1.8c3-4.9,6.3-9.6,9.5-14.3c4.9-7.2,9.7-14.5,15-22.3
	c4.1,14.7,8.2,28.6,11.9,42.6c1,3.7,2.8,4.8,6.6,3.8c2.7-17,5.5-34.2,8.3-51.3c-5.3-1.7-5.6-1.5-6.4,3.2
	C225.7,444,223.9,454.7,222.2,465.4z"/>
<path class="st0" d="M310.5,11.4c-3.2-2.1-5.3-1.8-7.2,1.3c-1.5,2.5-3.4,4.8-5.2,7.1c-6.9,9.3-13.8,18.6-21.1,28.4
	c-0.5-1.9-0.9-3.1-1.2-4.4c-3.1-13.3-6.2-26.6-9.2-39.9c-0.5-2.4-1.8-3.5-3.9-2.9c-1.1,0.3-2.5,1.8-2.8,3c-2.3,10-4.3,20.1-6.4,30.1
	c-1.2,6-2.5,11.9-3.8,18.1c2.2,0.4,3.7,0.7,5.6,1.1c2.6-12.2,5.1-24,7.6-35.7c1,0.6,1.3,1.3,1.4,1.9c2.6,11.3,5.2,22.6,8,33.8
	c0.3,1.4,1.4,2.7,2.1,4c1.4-0.9,3.2-1.4,4.1-2.7c6.6-8.6,13-17.4,19.5-26.1c0.9-1.2,1.9-2.4,2.8-3.6c0.3,0.1,0.6,0.3,0.8,0.4
	c-2.5,12-5,24-7.4,35.9c4,1.8,5.8,0.9,6.4-3.1c0.8-5.4,2.2-10.6,3.3-15.9C306.3,32,308.4,21.7,310.5,11.4z"/>
<path class="st0" d="M312.4,426c0.3,0.1,0.6,0.1,0.9,0.2c4.1,12.9,8.3,25.9,12.6,39.1c1.9-0.5,3.3-1,5.1-1.5c-0.5-1.9-0.8-3.5-1.2-5
	c-4.5-14.1-8.9-28.3-13.5-42.3c-0.5-1.5-1.7-2.7-2.6-4.1c-1.3,1.4-3.2,2.5-3.8,4.1c-4.9,14-9.6,28-14.4,42.1c-0.5,1.4-1.1,2.7-2,5.1
	c-4.2-13.2-8-25.2-12-37.2c-0.4-1.2-2.2-2.7-3.4-2.7c-2.7,0.1-2.6,2.3-2,4.3c4.9,15.2,9.7,30.5,14.7,45.7c0.3,0.8,1.3,2,1.8,2
	c1.2-0.1,2.5-0.7,3.4-1.5c0.7-0.8,0.9-2.1,1.2-3.2C302.2,455.9,307.3,441,312.4,426z"/>
<path class="st0" d="M138.3,22.7c-4.3,0.2-5.2,1.8-3.8,5.4c5.5,14.4,10.8,28.8,16.2,43.2c0.4,1.2,1.6,2,2.5,3c1-1,2.6-1.9,3-3.2
	c1.6-4.7,2.9-9.5,4.2-14.3c3.3-11.4,6.5-22.7,10.1-35.1c5.2,14,10.1,27,15.1,40.3c1.8-0.5,3.3-1,5.2-1.5
	C184.4,43.4,178.2,26.7,172,10c-0.5-0.2-1-0.4-1.4-0.6c-1.1,1.5-2.8,2.9-3.3,4.6c-4.2,14-8.2,28.1-12.3,42.2
	c-0.5,1.7-1.1,3.4-1.9,6.1C147.9,48.3,143.1,35.5,138.3,22.7z"/>
<path class="st0" d="M356.7,451.4c6.1-4.1,11.6-8,17.3-11.6c2.7-1.7,3.1-3.4,1.7-6.1c-3.2-6.3-6.3-12.6-9.1-19
	c-2.7-6-5.2-12.1-7.5-18.3c-1.2-3.1-1.1-6.2,2.5-7.9c2-1,3.1-2.3,1.4-3.9c-0.9-0.9-3.2-1.3-4.4-0.8c-3.5,1.4-5.4,4.4-5,8
	c0.5,4.6,1.2,9.4,3,13.6c4.2,10.1,9,20,13.7,30.2c-4,2.7-7.9,5.2-12,8c-9.2-13.6-18.2-27-27.5-40.8c-1.7,2.1-5.3,2.3-2.8,6
	C337.4,422.7,346.9,436.8,356.7,451.4z"/>
<path class="st0" d="M94.9,54.3c3.9-2.9,7.7-5.7,11.7-8.7c9.2,12.4,18,24.2,26.8,36.1c1.1,1.5,1.9,3.6,4.4,1.8
	c2.4-1.8,1.4-3.4,0-5.2c-4-5.3-7.8-10.6-11.8-15.9c-6-8.1-12-16.2-18.3-24.6c-3.7,2.7-7.1,5.2-10.5,7.8c-11.3,8.6-10.3,4.9-3.8,17.6
	c5,9.8,9.8,19.6,14.5,29.6c1.5,3.2,1.3,6.2-2.2,8.4c-0.9,0.6-0.9,2.4-1.4,3.6c1.5,0.3,3.9,1.3,4.3,0.7c1.9-2.3,4.7-5.2,4.5-7.8
	c-0.3-5-1.7-10.1-3.7-14.6C105.2,73.4,100,64,94.9,54.3z"/>
<path class="st0" d="M67.4,403.7c-16.6-14.2-18.8-26.9-6.5-36.7c4.3,5.3,8.8,10.6,13,16.1c2.4,3.2,4.3,2.8,6.8-0.3
	c-2.6-3.3-5.1-6.4-7.7-9.6c-2.6-3.3-5.3-6.6-7.9-9.9c12.6-10.5,23.7-5.8,34.3,14.5c3.7-0.9,4.5-2.8,3.1-6.4
	c-5-12.6-15.1-18.9-28.8-17.5C62.4,355,50.9,365,48.2,376c-2.6,10.5,2.2,21.9,12,28.6C62.8,406.4,65.1,407.2,67.4,403.7z"/>
<path class="st0" d="M414.8,87.8c6.1,4.6,11.5,9.6,13,17.3c1.6,8.1-2.1,14.1-7.7,19.9c-4.3-5.8-8.4-11.3-12.3-16.9
	c-2.3-3.4-4.2-3.6-6.9-0.1c2.4,3.3,4.7,6.6,7.1,9.9c2.5,3.4,5,6.8,7.4,10.2c-12.6,9.9-23.8,4.5-33.4-15.8c-3.7,0.3-4.6,2.1-3.5,5.6
	c3.9,12.7,13.5,19.5,27.2,19.1c11.2-0.3,23.6-9.6,27-20.2s-1-22.6-10.7-30C419.5,84.9,417.4,84.6,414.8,87.8z"/>
<path class="st0" d="M409.6,409.5c5-5.7,10.1-11.3,14.9-17.2c0.7-0.9,0.3-3.7-0.6-4.7c-2.3-2.6-5.2-4.7-7.8-7.1
	c-9.9-8.7-19.8-17.3-30-26.3c-5.6,6.4-11.1,12.5-16.4,18.8c-2.1,2.6,0,3.8,2.3,5c4.8-5.4,9.5-10.7,14.3-16.2
	c5.1,4.5,9.8,8.6,14.6,12.9c-3.5,4.1-6.7,7.7-9.9,11.3c-2.2,2.5-2.2,4.5,1.3,6.3c4.2-4.8,8.3-9.4,12.6-14.2c5,4.4,9.6,8.4,14.3,12.6
	c-3.9,4.5-7.3,8.6-11,12.6C405.5,406.1,406.1,407.9,409.6,409.5z"/>
<path class="st0" d="M55.9,82.7c-4.7,5.8-9.1,11.5-13.7,17c-2.1,2.5-1.7,4.2,0.8,6.1c9.6,7.5,19.1,15.1,28.6,22.7
	c3.4,2.7,6.8,5.4,10.4,8.3c5.2-6.5,10-12.5,14.8-18.6c2-2.5,1.4-4.4-1.7-5.9c-4.6,5.7-9.1,11.3-13.7,17c-5.2-4.1-10.1-8.1-15.3-12.2
	c3.2-4.1,6.2-8,9.4-11.8c2.2-2.7,2.2-4.6-1.6-6.1c-3.9,4.8-7.9,9.7-12,14.7c-5.2-4.1-10-8-14.9-12c3.8-4.7,7.1-9,10.6-13.2
	C59.9,86,59.6,84.1,55.9,82.7z"/>
<path class="st0" d="M417.5,307.8c0.4-0.4,0.8-0.7,1.2-1.1c-0.1-1.1-0.3-2.3-0.4-3.4c-0.3-6.7,1.1-12.9,5.8-17.9
	c7.7-8.3,22.1-8.5,32.6-0.7c9.4,7,11,17.4,4.7,28.6c-0.8,1.5-1.3,4.7-0.8,5.1c3,1.8,3.9-0.9,5-3c9.7-19.5-0.4-38.7-22-41.9
	c-17.6-2.6-31.1,9.7-28.7,31.2C415,305.8,416.6,306.7,417.5,307.8z"/>
<path class="st0" d="M6.4,174.9c-4.8,8.1-6.2,16.5-4.1,25c4.1,16.1,25,25,40.3,17.5c10.2-5,16.6-20.3,12.8-31
	c-0.3-0.9-1.9-1.4-3.9-2.9c1.2,9.1,1.2,16.7-4,23.1c-5.4,6.6-12.6,8.2-20.6,7c-7-1-13.3-3.8-17.7-9.6c-7.2-9.6-3.4-18.8,1.8-28
	C9.1,175.6,7.9,175.3,6.4,174.9z"/>
<path class="st0" d="M29.2,351.3c1.4-0.8,2.4-1.4,3.4-1.9c12-6.1,24-12.2,36-18.3c1.7-0.9,4.7-1,3.1-4.5c-1.8-3.7-3.9-1.2-5.7-0.4
	c-5,2.4-10,5-14.9,7.5C43,337.8,35,341.8,26.7,346c-1.8-3.4-3.4-6.5-5-9.6c-1-1.9-1.9-4.2-4.4-2.3c-0.9,0.7-1.1,3.4-0.5,4.6
	c4,8.3,8.4,16.4,12.4,24.7c1.8,3.7,3.7,3.3,6.5,0.8C33.5,360,31.5,355.9,29.2,351.3z"/>
<path class="st0" d="M453,147c1.6,3.5,3.2,6.6,4.4,9.9c1.4,3.8,3.4,3.8,6.6,1.3c-4.5-10.1-9-20.3-13.7-30.4
	c-0.3-0.6-2.5-1.1-3.1-0.7c-0.9,0.6-1.8,2.4-1.5,3.2c1.4,3.8,3.2,7.5,5,11.5c-3,1.4-5.8,2.7-8.6,4c-11,4.9-22,9.8-32.9,14.9
	c-1.1,0.5-1.4,2.5-2.1,3.8c1.4,0.4,2.9,1.2,4.3,1.1c1.7-0.2,3.2-1.3,4.9-2C428.4,158.1,440.6,152.6,453,147z"/>
<path class="st0" d="M105.8,442.8c3.4,2.8,5.5,2.5,7-1.3c0.8-2,2-3.9,3-5.8c6.6-12.4,13.2-24.7,19.8-37.1c-2.7-1.9-4.8-2.8-6.7,0.7
	C121.4,413.7,113.7,428.1,105.8,442.8z"/>
<path class="st0" d="M378.4,45.5c-2.8-2.5-4.7-3-6.7,0.4c-8.2,14-16.7,28.1-25.1,42.3c2.2,1.7,4.1,3.8,6.4,0
	C361.3,74,369.8,59.9,378.4,45.5z"/>
<path class="st0" d="M209.3,42.1c-1.5-11.2-3.1-22.4-4.6-33.5c-0.7-5.3-1.2-5.6-6.3-3.2c1.7,11.3,3.5,22.6,5.2,33.9
	C204.1,42.6,205.4,43.7,209.3,42.1z"/>
<path class="st0" d="M256.5,442.1c0,2-0.1,3.6,0,5.2c0.8,9.6,1.8,19.3,2.6,28.9c0.4,5.1,0.8,5.4,6.1,3.2
	c-1.4-12.4-2.7-24.8-4.1-37.3C259.3,442.1,258.1,442.1,256.5,442.1z"/>
<path class="st0" d="M207.6,58.6c0.6,0,1.3,0,1.9,0c1-1.4,3-2.9,2.8-4c-0.3-1.4-2.1-3.2-3.6-3.6c-2.1-0.6-4.3,0.8-3.8,3.4
	C205.2,55.9,206.7,57.2,207.6,58.6z"/>
<path class="st0" d="M257.3,435.2c1.9-2.5,3.4-3.6,3.7-5c0.6-2.7-1.4-3.9-3.7-3.3c-1.5,0.4-3.6,2-3.7,3
	C253.5,431.3,255.4,432.7,257.3,435.2z"/>
<path class="st0" d="M222.2,465.4c1.7-10.7,3.5-21.4,5.2-32.1c0.7-4.7,1.1-4.9,6.4-3.2c-2.8,17.1-5.5,34.3-8.3,51.3
	c-3.8,1-5.6-0.1-6.6-3.8c-3.7-14-7.8-27.9-11.9-42.6c-5.3,7.8-10.2,15.1-15,22.3c-3.2,4.8-6.5,9.4-9.5,14.3
	c-1.8,2.9-3.7,3.9-7.4,1.8c2.7-16.9,5.5-34.1,8.3-51.7c1.8,0.2,3.4,0.4,5.6,0.6c-2,12.5-3.9,24.5-5.8,36.5c0.3,0.1,0.6,0.2,0.9,0.3
	c3.7-5.4,7.3-10.8,11-16.2c3-4.4,5.8-8.8,8.9-13.1c1.2-1.7,3-2.9,4.5-4.3c1,1.8,2.5,3.4,3,5.3c3,10.1,5.8,20.3,8.7,30.4
	c0.4,1.4,0.9,2.7,1.3,4.1C221.7,465.4,222,465.4,222.2,465.4z"/>
<path class="st0" d="M310.5,11.4c-2.1,10.3-4.3,20.6-6.4,30.9c-1.1,5.3-2.5,10.6-3.3,15.9c-0.6,4-2.4,5-6.4,3.1
	c2.5-11.9,4.9-23.9,7.4-35.9c-0.3-0.1-0.6-0.3-0.8-0.4c-0.9,1.2-1.9,2.4-2.8,3.6c-6.5,8.7-12.9,17.5-19.5,26.1
	c-0.9,1.2-2.7,1.8-4.1,2.7c-0.7-1.3-1.7-2.6-2.1-4c-2.7-11.3-5.3-22.6-8-33.8c-0.2-0.6-0.4-1.3-1.4-1.9c-2.5,11.8-5,23.6-7.6,35.7
	c-1.8-0.4-3.3-0.7-5.6-1.1c1.3-6.1,2.6-12.1,3.8-18.1c2.1-10,4.1-20.1,6.4-30.1c0.3-1.2,1.6-2.7,2.8-3c2-0.5,3.3,0.5,3.9,2.9
	c3,13.3,6.1,26.6,9.2,39.9c0.3,1.2,0.7,2.5,1.2,4.4c7.3-9.8,14.2-19.1,21.1-28.4c1.8-2.4,3.7-4.6,5.2-7.1
	C305.2,9.7,307.4,9.4,310.5,11.4z"/>
<path class="st0" d="M312.4,426c-5.1,15-10.2,29.9-15.3,44.9c-0.4,1.1-0.5,2.5-1.2,3.2c-0.8,0.8-2.2,1.4-3.4,1.5
	c-0.6,0.1-1.5-1.1-1.8-2c-4.9-15.2-9.8-30.4-14.7-45.7c-0.6-2-0.7-4.2,2-4.3c1.1,0,3,1.5,3.4,2.7c4,11.9,7.8,24,12,37.2
	c0.9-2.3,1.5-3.7,2-5.1c4.8-14,9.4-28.1,14.4-42.1c0.6-1.6,2.5-2.7,3.8-4.1c0.9,1.4,2.1,2.6,2.6,4.1c4.6,14.1,9.1,28.2,13.5,42.3
	c0.5,1.5,0.8,3.1,1.2,5c-1.8,0.5-3.2,0.9-5.1,1.5c-4.3-13.3-8.4-26.2-12.6-39.1C313,426.1,312.7,426,312.4,426z"/>
<path class="st0" d="M138.3,22.7c4.8,12.8,9.6,25.7,14.8,39.6c0.8-2.7,1.4-4.4,1.9-6.1c4.1-14.1,8-28.2,12.3-42.2
	c0.5-1.7,2.2-3,3.3-4.6c0.5,0.2,1,0.4,1.4,0.6c6.2,16.7,12.4,33.3,18.8,50.5c-2,0.6-3.4,1-5.2,1.5c-5-13.3-9.9-26.3-15.1-40.3
	c-3.6,12.4-6.8,23.8-10.1,35.1c-1.4,4.8-2.6,9.6-4.2,14.3c-0.4,1.3-2,2.1-3,3.2c-0.8-1-2-1.9-2.5-3c-5.5-14.4-10.7-28.8-16.2-43.2
	C133.1,24.5,134.1,22.9,138.3,22.7z"/>
<g>
	<path class="st0" d="M446.3,233.5c-9.9,0.4-18.2-2.7-23-11.7c-4.5-8.6-5.3-17.9-0.3-26.6c8-14,33-17.6,44.7-6.5
		c8.3,7.8,9.6,17.8,6.7,28c-3,10.5-11.7,14.8-21.9,16.4C450.4,233.4,448.3,233.4,446.3,233.5z M447.3,187.9
		c-2.5,0.7-7.2,1.5-11.4,3.4c-8.2,3.6-12.2,11.2-11,19.5c1.3,9,7.4,15.4,16.2,16.8c7.2,1.1,14.1-0.1,20.4-3.8
		c8.8-5.1,11.8-14.8,7.5-23.9C465.2,191.7,458.2,188.4,447.3,187.9z"/>
</g>
<g>
	<path class="st0" d="M27.6,311.1c-9.9,0.4-18.2-2.7-23-11.7c-4.5-8.6-5.3-17.9-0.3-26.6c8-14,33-17.6,44.7-6.5
		c8.3,7.8,9.6,17.8,6.7,28c-3,10.5-11.7,14.8-21.9,16.4C31.7,311,29.6,311,27.6,311.1z M28.6,265.5c-2.5,0.7-7.2,1.5-11.4,3.4
		C9,272.5,5,280.1,6.2,288.4c1.3,9,7.4,15.4,16.2,16.8c7.2,1.1,14.1-0.1,20.4-3.8c8.8-5.1,11.8-14.8,7.5-23.9
		C46.5,269.3,39.5,266,28.6,265.5z"/>
</g>
<path class="st0" d="M356.7,451.4c-9.8-14.6-19.3-28.7-28.8-42.8c-2.5-3.7,1.1-3.9,2.8-6c9.3,13.8,18.3,27.2,27.5,40.8
	c4.1-2.7,8-5.3,12-8c-4.7-10.2-9.5-20.1-13.7-30.2c-1.7-4.2-2.5-9-3-13.6c-0.4-3.6,1.5-6.7,5-8c1.2-0.5,3.5-0.1,4.4,0.8
	c1.7,1.6,0.6,3-1.4,3.9c-3.6,1.7-3.7,4.8-2.5,7.9c2.3,6.2,4.8,12.3,7.5,18.3c2.9,6.4,6,12.8,9.1,19c1.4,2.8,1,4.4-1.7,6.1
	C368.4,443.4,362.9,447.3,356.7,451.4z"/>
<path class="st0" d="M94.9,54.3c5,9.7,10.3,19.1,14.7,28.8c2.1,4.5,3.5,9.7,3.7,14.6c0.1,2.5-2.6,5.4-4.5,7.8
	c-0.5,0.6-2.8-0.5-4.3-0.7c0.4-1.2,0.5-3.1,1.4-3.6c3.4-2.3,3.7-5.2,2.2-8.4c-4.7-9.9-9.6-19.8-14.5-29.6
	c-6.4-12.6-7.5-8.9,3.8-17.6c3.4-2.6,6.8-5,10.5-7.8c6.2,8.4,12.3,16.5,18.3,24.6c3.9,5.3,7.8,10.6,11.8,15.9c1.4,1.8,2.4,3.4,0,5.2
	c-2.5,1.8-3.3-0.3-4.4-1.8c-8.8-11.9-17.7-23.8-26.8-36.1C102.6,48.6,98.8,51.4,94.9,54.3z"/>
<path class="st0" d="M67.4,403.7c-2.2,3.5-4.5,2.7-7.1,0.9c-9.8-6.7-14.6-18.1-12-28.6c2.7-11,14.2-21,25.4-22.2
	c13.7-1.4,23.8,4.9,28.8,17.5c1.4,3.6,0.6,5.5-3.1,6.4c-10.6-20.3-21.7-25-34.3-14.5c2.6,3.3,5.3,6.6,7.9,9.9
	c2.5,3.2,5.1,6.4,7.7,9.6c-2.5,3.1-4.4,3.5-6.8,0.3c-4.2-5.5-8.6-10.7-13-16.1C48.5,376.8,50.8,389.5,67.4,403.7z"/>
<path class="st0" d="M414.8,87.8c2.6-3.2,4.7-2.9,7.2-0.9c9.7,7.4,14,19.4,10.7,30c-3.4,10.6-15.7,19.9-27,20.2
	c-13.6,0.4-23.3-6.4-27.2-19.1c-1.1-3.5-0.2-5.3,3.5-5.6c9.6,20.3,20.8,25.7,33.4,15.8c-2.5-3.4-5-6.8-7.4-10.2
	c-2.4-3.3-4.8-6.6-7.1-9.9c2.7-3.5,4.6-3.3,6.9,0.1c3.9,5.7,8,11.1,12.3,16.9c5.6-5.8,9.3-11.8,7.7-19.9
	C426.3,97.4,421,92.4,414.8,87.8z"/>
<path class="st0" d="M408,316.5c14.3,7.8,28,15.2,42.2,22.9c1.5-2.3,2.9-4.6,4.6-7.4c1.5,0.7,3,1.4,4.9,2.2
	c-2.5,4.4-4.8,8.4-7.2,12.7c-6.8-3.7-13.5-7.3-20.5-11c-1.7,3.2-3.3,6.1-4.9,9.1c-5,9-11.2,11.7-19,8c-8.2-3.9-11.3-11.2-7.9-21.1
	C402,326.7,405.2,322,408,316.5z M409.4,323.6c-2,3.7-3.9,6.8-5.5,10.2c-2.5,5.3-1.2,9.2,3.7,12.5c5.2,3.5,10.1,3.2,13.7-1.3
	c2.6-3.3,4.5-7.1,7-11.1C421.8,330.4,415.8,327.1,409.4,323.6z"/>
<path class="st0" d="M409.6,409.5c-3.5-1.6-4.1-3.4-1.5-6.1c3.7-4,7.1-8.1,11-12.6c-4.7-4.2-9.3-8.2-14.3-12.6
	c-4.2,4.8-8.4,9.4-12.6,14.2c-3.5-1.8-3.5-3.8-1.3-6.3c3.2-3.6,6.3-7.3,9.9-11.3c-4.8-4.3-9.5-8.4-14.6-12.9
	c-4.8,5.5-9.5,10.8-14.3,16.2c-2.3-1.3-4.4-2.5-2.3-5c5.3-6.3,10.7-12.3,16.4-18.8c10.2,8.9,20.1,17.6,30,26.3
	c2.6,2.3,5.5,4.4,7.8,7.1c0.9,1,1.3,3.8,0.6,4.7C419.7,398.2,414.6,403.8,409.6,409.5z"/>
<path class="st0" d="M55.9,82.7c3.7,1.4,3.9,3.3,1.9,5.9c-3.4,4.2-6.8,8.5-10.6,13.2c4.9,4,9.8,7.9,14.9,12c4.1-5,8-9.9,12-14.7
	c3.7,1.5,3.7,3.5,1.6,6.1c-3.2,3.8-6.2,7.7-9.4,11.8c5.2,4.2,10.1,8.1,15.3,12.2c4.6-5.7,9.1-11.2,13.7-17c3.1,1.5,3.7,3.4,1.7,5.9
	c-4.8,6.1-9.7,12.1-14.8,18.6c-3.6-2.9-7-5.6-10.4-8.3c-9.5-7.6-19-15.2-28.6-22.7c-2.5-1.9-2.9-3.6-0.8-6.1
	C46.9,94.2,51.3,88.5,55.9,82.7z"/>
<path class="st0" d="M140.6,461.4c3.6-6.8,7-13.4,10.7-20.3c-3.1-1.7-6-3.3-9-4.9c-9.3-4.9-12-11.2-8.3-19.2
	c3.8-8.2,12.7-11.6,21.5-7.8c5,2.1,9.6,4.9,15,7.6c-2.7,5.1-5.2,9.9-7.8,14.7c-5.1,9.6-10.3,19-15.2,28.7
	C145.8,463.8,143.9,463.9,140.6,461.4z M163.5,418.2c-3-1.6-5.4-2.9-7.8-4.3c-0.8-0.4-1.6-0.8-2.4-1.2c-5.4-2.4-9.5-1-12.7,4.1
	c-3.4,5.4-3,10,1.7,13.6c3.3,2.5,7.1,4.4,11,6.8C156.9,430.7,160.1,424.7,163.5,418.2z"/>
<path class="st0" d="M344.6,25.3c-2,3.4-4,6.7-5.9,10c-1.9,3.1-3.7,6.3-5.7,9.7c3.1,1.9,5.9,3.6,8.8,5.3c8.9,5.3,11.3,11.5,7.5,19.2
	c-4.5,9.1-13.6,10.7-21.7,7.3c-5.1-2.1-9.7-5.4-14.9-8.5c1.4-2.3,2.6-4.4,3.9-6.5c7.1-12,14.3-23.9,21.3-35.9
	C339.6,22.5,341.5,22.4,344.6,25.3z M319.6,67.2c3.7,2.2,6.7,4.2,9.9,5.9c5.3,2.8,9.4,1.7,12.9-3.4s3.4-9.9-1.1-13.7
	c-3.2-2.7-6.9-4.7-10.7-7.2C326.8,55.1,323.4,61,319.6,67.2z"/>
<path class="st0" d="M417.5,307.8c-0.9-1-2.5-2-2.6-3.1c-2.4-21.6,11.2-33.8,28.7-31.2c21.6,3.2,31.8,22.4,22,41.9
	c-1.1,2.1-2,4.8-5,3c-0.6-0.3-0.1-3.6,0.8-5.1c6.3-11.1,4.7-21.5-4.7-28.6c-10.5-7.9-24.9-7.6-32.6,0.7c-4.7,5-6.1,11.2-5.8,17.9
	c0.1,1.2,0.3,2.3,0.4,3.4C418.4,307,417.9,307.4,417.5,307.8z"/>
<path class="st0" d="M6.4,174.9c1.5,0.4,2.7,0.6,4.7,1.1c-5.2,9.2-9.1,18.4-1.8,28c4.4,5.9,10.7,8.6,17.7,9.6c8,1.2,15.3-0.4,20.6-7
	c5.2-6.4,5.2-14,4-23.1c2.1,1.5,3.6,2,3.9,2.9c3.8,10.7-2.5,26-12.8,31c-15.3,7.5-36.3-1.4-40.3-17.5C0.2,191.4,1.6,183,6.4,174.9z"
	/>
<path class="st0" d="M29.2,351.3c2.3,4.6,4.3,8.7,6.4,13c-2.9,2.4-4.7,2.9-6.5-0.8c-4-8.3-8.4-16.4-12.4-24.7
	c-0.6-1.2-0.4-3.9,0.5-4.6c2.4-1.9,3.4,0.4,4.4,2.3c1.6,3.1,3.2,6.2,5,9.6c8.3-4.2,16.4-8.3,24.4-12.3c5-2.5,9.9-5.1,14.9-7.5
	c1.8-0.9,3.9-3.4,5.7,0.4c1.7,3.5-1.4,3.6-3.1,4.5c-12,6.2-24,12.2-36,18.3C31.6,350,30.6,350.6,29.2,351.3z"/>
<path class="st0" d="M453,147c-12.5,5.6-24.6,11.1-36.8,16.5c-1.6,0.7-3.2,1.8-4.9,2c-1.4,0.2-2.9-0.7-4.3-1.1
	c0.7-1.3,1.1-3.3,2.1-3.8c10.9-5.1,21.9-10,32.9-14.9c2.8-1.3,5.5-2.6,8.6-4c-1.8-4-3.6-7.7-5-11.5c-0.3-0.8,0.6-2.6,1.5-3.2
	c0.7-0.4,2.8,0.1,3.1,0.7c4.7,10.1,9.2,20.2,13.7,30.4c-3.2,2.5-5.2,2.5-6.6-1.3C456.3,153.6,454.6,150.5,453,147z"/>
<path class="st0" d="M105.8,442.8c7.8-14.7,15.6-29.1,23.2-43.6c1.9-3.5,4-2.6,6.7-0.7c-6.6,12.4-13.2,24.8-19.8,37.1
	c-1,1.9-2.2,3.8-3,5.8C111.3,445.2,109.2,445.6,105.8,442.8z"/>
<path class="st0" d="M378.4,45.5c-8.6,14.4-17.1,28.6-25.5,42.8c-2.3,3.8-4.1,1.6-6.4,0c8.5-14.2,16.9-28.2,25.2-42.4
	C373.7,42.5,375.6,43,378.4,45.5z"/>
<path class="st0" d="M209.3,42.1c-3.9,1.6-5.3,0.5-5.8-2.8c-1.6-11.3-3.4-22.6-5.2-33.9c5.1-2.4,5.6-2.1,6.3,3.2
	C206.3,19.8,207.8,30.9,209.3,42.1z"/>
<path class="st0" d="M256.5,442.1c1.6,0,2.8,0,4.6,0c1.4,12.5,2.7,24.9,4.1,37.3c-5.3,2.2-5.7,2-6.1-3.2c-0.8-9.6-1.7-19.3-2.6-28.9
	C256.3,445.7,256.5,444.1,256.5,442.1z"/>
<path class="st0" d="M207.6,58.6c-1-1.4-2.5-2.7-2.7-4.2c-0.5-2.6,1.7-3.9,3.8-3.4c1.5,0.4,3.4,2.2,3.6,3.6c0.2,1.1-1.8,2.7-2.8,4
	C208.9,58.6,208.3,58.6,207.6,58.6z"/>
<path class="st0" d="M257.3,435.2c-1.9-2.5-3.8-3.9-3.7-5.3c0-1.1,2.2-2.7,3.7-3c2.3-0.6,4.3,0.6,3.7,3.3
	C260.6,431.6,259.1,432.7,257.3,435.2z"/>
<g>
	<path class="st1" d="M55.9,282c-1.9-13.3-9.1-20.8-21.8-22c-3.7-0.4-7.7-0.1-11.4,0.6C9.8,263-1.2,271.2,0.6,288.7
		C2,302.2,11.7,310.8,26,311c2.3-0.2,4.7-0.2,7-0.6c2.6-0.5,5.2-1.2,7.6-2.2C52,303.6,57.5,294,55.9,282z"/>
</g>
</svg>
