<?xml version="1.0" encoding="UTF-8"?> <svg xmlns="http://www.w3.org/2000/svg" xmlns:xlink="http://www.w3.org/1999/xlink" width="96px" height="72px" viewBox="0 0 96 72"> <!-- Generator: Sketch 52.6 (67491) - http://www.bohemiancoding.com/sketch --> <title>бащинский лого</title> <desc>Created with Sketch.</desc> <g id="Page-1" stroke="none" stroke-width="1" fill="none" fill-rule="evenodd"> <g id="02-copy" transform="translate(-48.000000, -15.000000)"> <g id="HEADER" transform="translate(48.000000, 15.000000)"> <g id="бащинский-лого"> <path d="M48.06,72 C36.36,72 25.02,68.7 16.86,62.94 L12.42,63.96 C11.34,64.14 9.78,64.5 8.1,64.5 C5.94,64.5 4.14,63.96 2.7,62.94 C1.32,61.98 0.6,60.72 0.48,59.28 C0.42,59.1 0.36,58.44 0.48,58.02 L1.2,55.14 L1.44,54 C1.56,53.46 1.62,53.1 1.68,52.74 C2.04,50.64 2.22,48.48 2.22,46.32 C2.22,42.54 1.68,39.3 1.26,37.32 L0.96,36.12 L0.78,35.46 L0,33 L2.52,32.16 C4.02,31.68 5.7,31.14 7.62,30.66 C9.9,26.76 13.38,23.22 17.76,20.28 C16.68,18.36 16.32,16.98 16.32,16.98 L15.96,15.72 L16.8,14.76 C16.8,14.76 18.24,13.08 20.88,11.58 C19.86,8.88 19.74,6.66 19.74,5.76 C19.74,5.28 19.8,4.92 19.8,4.74 L19.98,3.36 L21.12,2.76 C21.48,2.58 24.36,1.08 28.68,1.08 C31.74,1.08 34.68,1.86 37.5,3.36 C40.56,1.2 44.34,0 48.24,0 C52.02,0 55.62,1.14 58.62,3.24 C61.26,1.86 64.08,1.14 67.02,1.14 C71.28,1.14 74.22,2.64 74.58,2.82 L75.72,3.42 L75.9,4.68 C75.9,4.74 75.96,5.1 75.96,5.76 C75.96,6.66 75.84,8.88 74.82,11.58 C77.4,13.08 78.84,14.7 78.9,14.76 L79.74,15.72 L79.38,16.98 C79.38,16.98 79.02,18.36 78,20.1 C81.06,22.08 83.7,24.42 85.8,26.94 C86.52,25.02 88.38,23.58 90.66,23.58 C91.98,23.58 93.3,24.12 94.32,25.14 C95.28,26.1 95.82,27.36 95.82,28.62 C95.76,30.12 95.1,31.44 94.02,32.4 L96,33.06 L95.22,35.52 C94.86,36.66 93.78,40.86 93.78,46.38 C93.78,48.6 93.96,50.76 94.32,52.86 C94.32,52.86 94.68,54.66 94.68,54.78 C94.74,54.9 94.98,56.04 95.04,56.16 C95.22,56.64 95.46,58.62 95.58,59.22 L95.58,59.28 L95.58,59.4 C95.46,60.84 94.68,62.04 93.36,63.06 C91.92,64.08 90.12,64.62 87.96,64.62 C86.28,64.62 84.72,64.32 83.7,64.08 L83.46,64.02 C81.78,63.72 80.46,63.36 79.26,63.06 C71.04,68.7 59.7,72 48.06,72 Z" id="Path" fill="#853347"></path> <path d="M94.68,59.28 C94.92,59.34 94.68,59.28 94.68,59.28 Z M94.98,33.54 L93.24,32.94 C92.88,32.82 92.4,32.7 91.98,32.52 C93.78,31.92 94.98,30.36 94.98,28.56 C95.04,26.52 93.06,24.42 90.72,24.42 C88.38,24.42 86.46,26.28 86.46,28.56 C86.46,28.62 86.46,28.68 86.52,28.74 C86.46,28.74 86.4,28.8 86.34,28.8 C84,25.62 80.82,22.8 76.98,20.34 C78.18,18.36 78.66,16.8 78.66,16.74 L78.9,15.9 L78.3,15.24 C78.24,15.18 76.62,13.38 73.8,11.88 C74.94,9.3 75.18,6.96 75.18,5.7 C75.18,5.1 75.12,4.74 75.12,4.74 L75,3.9 L74.22,3.48 C73.92,3.36 66.84,-0.36 58.74,4.08 L58.62,4.14 C55.8,2.04 52.2,0.78 48.3,0.78 C44.22,0.78 40.5,2.16 37.62,4.38 L37.56,4.38 C29.28,-0.48 21.9,3.36 21.6,3.48 L20.82,3.9 L20.7,4.74 C20.7,4.8 20.64,5.16 20.64,5.7 C20.64,6.96 20.88,9.3 22.02,11.88 C19.2,13.38 17.58,15.12 17.52,15.24 L16.86,15.96 L17.1,16.8 C17.16,16.86 17.58,18.54 18.9,20.58 C14.22,23.52 10.5,27.24 8.16,31.38 C6.18,31.86 4.32,32.4 2.76,33 L1.02,33.6 L1.56,35.34 L1.74,36 L2.04,37.2 C2.46,39.3 3,42.54 3,46.38 C3,48.54 2.82,50.76 2.4,52.92 L2.4,52.98 C2.28,53.28 2.22,53.7 2.16,54.24 L2.22,54.36 C2.16,54.66 1.98,55.44 1.98,55.44 L1.68,56.7 L1.44,57.54 C1.44,57.54 1.32,58.08 1.2,58.38 C1.14,58.68 1.26,59.34 1.26,59.34 C1.38,60.3 1.8,61.38 3.18,62.4 C6.12,64.5 10.08,63.72 12.18,63.3 L12.36,63.24 L17.04,62.16 C25.02,67.92 36.18,71.28 48.06,71.28 C59.94,71.28 71.1,67.92 79.02,62.16 C80.28,62.52 81.72,62.88 83.58,63.24 L83.76,63.24 C85.86,63.66 89.82,64.5 92.76,62.34 C94.14,61.38 94.56,60.3 94.68,59.34 C94.68,59.34 94.32,56.88 94.2,56.46 L94.14,56.4 C94.08,56.22 93.78,54.96 93.78,54.96 C93.78,54.96 93.66,54.54 93.6,54.12 L93.36,52.98 C93,50.88 92.82,48.6 92.82,46.38 C92.82,40.74 93.96,36.48 94.32,35.28 L94.98,33.54 Z" id="Shape" fill="#FFFFFF" fill-rule="nonzero"></path> <path d="M25.5,18.12 C24,17.64 23.34,17.4 23.34,17.4 C23.34,17.4 24.36,17.4 26.58,17.7 C28.14,17.1 29.82,16.56 31.5,16.02 C31.56,14.7 31.74,13.38 32.1,12.12 C27.6,8.94 25.92,7.32 25.92,7.32 C25.92,7.32 28.02,8.16 32.52,10.92 C33.36,8.94 34.56,7.08 36.12,5.58 C28.74,1.56 22.32,4.98 22.32,4.98 C22.32,4.98 21.84,8.76 24.18,12.78 C20.64,14.22 18.72,16.44 18.72,16.44 C18.72,16.44 19.2,18.3 20.76,20.46 C22.32,19.56 23.82,18.84 25.5,18.12 Z M69.72,7.32 C69.72,7.32 68.16,8.82 64.14,11.7 C64.62,13.14 64.86,14.64 64.86,16.2 C66.3,16.62 67.68,17.1 69,17.64 C71.28,17.34 72.36,17.34 72.36,17.34 C72.36,17.34 71.64,17.64 70.14,18.12 C71.76,18.78 73.32,19.56 74.82,20.4 C76.44,18.18 76.92,16.32 76.92,16.32 C76.92,16.32 75,14.16 71.46,12.72 C73.74,8.7 73.32,4.92 73.32,4.92 C73.32,4.92 67.14,1.68 60,5.34 C61.62,6.84 62.82,8.64 63.72,10.56 C67.8,8.1 69.72,7.32 69.72,7.32 Z M31.74,18.48 C31.62,17.88 31.56,17.28 31.56,16.62 C21.24,19.68 13.08,25.5 9.3,32.7 C10.08,32.52 10.92,32.28 11.76,32.1 C15.54,26.1 22.74,21.24 31.74,18.48 Z M64.86,16.8 C64.8,17.4 64.74,18 64.68,18.66 C73.68,21.42 80.82,26.4 84.48,32.46 C85.32,32.64 86.1,32.82 86.88,33 C83.16,25.74 75.12,19.86 64.86,16.8 Z M64.5,19.62 C63.6,23.34 61.32,26.52 58.2,28.68 C66.42,29.22 75.48,30.6 82.56,31.98 C78.96,26.58 72.54,22.2 64.5,19.62 Z M31.92,19.5 C23.88,22.02 17.4,26.34 13.74,31.68 C20.46,30.18 29.04,28.8 37.8,28.38 C34.86,26.22 32.76,23.1 31.92,19.5 Z" id="Shape" fill="#853347" fill-rule="nonzero"></path> <path d="M43.14,36.54 C43.08,36.6 43.14,36.66 43.2,36.72 C43.56,36.96 43.56,37.32 43.56,37.74 L43.44,42.66 C43.44,43.02 43.38,43.38 43.02,43.62 C42.96,43.62 42.9,43.74 42.96,43.8 C43.02,43.86 43.08,43.92 43.14,43.92 L46.02,43.98 C46.08,43.98 46.14,43.98 46.2,43.86 C46.2,43.86 46.2,43.86 46.2,43.8 C46.2,43.74 46.14,43.74 46.14,43.68 C45.84,43.44 45.78,43.08 45.78,42.78 C45.78,42.78 45.84,40.92 45.84,40.68 C46.08,40.68 47.28,40.68 47.52,40.68 C47.52,40.92 47.46,42.72 47.46,42.72 C47.46,43.08 47.4,43.44 47.04,43.68 C46.98,43.68 46.98,43.74 46.98,43.8 C46.98,43.8 46.98,43.8 46.98,43.86 C47.04,43.92 47.1,43.98 47.16,43.98 L50.04,44.04 C50.1,44.04 50.16,43.98 50.22,43.92 C50.28,43.86 50.22,43.8 50.16,43.74 C49.8,43.5 49.8,43.14 49.8,42.72 L49.8,37.8 C49.8,37.44 49.86,37.08 50.22,36.84 C50.28,36.84 50.34,36.72 50.28,36.66 C50.22,36.6 50.16,36.54 50.1,36.54 L47.22,36.48 C47.16,36.48 47.1,36.48 47.04,36.6 C47.04,36.6 47.04,36.6 47.04,36.66 C47.04,36.72 47.1,36.72 47.1,36.78 C47.4,37.02 47.46,37.38 47.46,37.74 C47.46,37.74 47.4,39.12 47.4,39.36 C47.16,39.36 46.02,39.36 45.72,39.36 C45.72,39.12 45.78,37.8 45.78,37.8 C45.78,37.44 45.84,37.08 46.2,36.84 C46.26,36.84 46.26,36.78 46.26,36.72 C46.26,36.72 46.26,36.72 46.26,36.66 C46.2,36.6 46.14,36.54 46.08,36.54 L43.2,36.48 C43.2,36.42 43.14,36.48 43.14,36.54 Z M51.9,37.5 C51.12,38.16 50.7,39.18 50.64,40.26 C50.64,40.32 50.64,40.38 50.64,40.44 C50.64,41.52 51,42.42 51.66,43.14 C52.38,43.92 53.46,44.34 54.78,44.4 C55.92,44.4 56.7,44.28 57.12,44.1 C57.18,44.1 57.24,44.04 57.24,44.04 L57.84,42.6 C57.9,42.54 57.84,42.48 57.78,42.42 C57.72,42.36 57.66,42.36 57.6,42.42 C56.94,42.72 55.98,43.02 55.32,43.02 C54.3,43.02 53.04,42.48 53.16,40.14 C53.22,39.48 53.46,37.92 55.14,37.98 C55.68,37.98 56.28,38.22 56.76,38.58 C56.82,38.58 56.88,38.58 56.94,38.58 C57,38.58 57.06,38.52 57.06,38.46 L57,36.96 C57,36.9 56.94,36.84 56.88,36.84 L55.02,36.6 C53.76,36.42 52.68,36.78 51.9,37.5 Z M42.06,36.48 L39.9,36.54 C39.84,36.54 39.78,36.54 39.72,36.6 C39.72,36.6 38.16,39.84 37.74,40.74 C37.68,39.84 37.62,37.86 37.62,37.86 C37.62,37.86 37.62,37.8 37.62,37.74 C37.62,37.44 37.68,37.08 37.98,36.84 C38.04,36.84 38.04,36.78 38.04,36.72 C38.04,36.72 38.04,36.72 38.04,36.66 C37.98,36.6 37.92,36.54 37.86,36.6 L34.98,36.66 C34.92,36.66 34.86,36.72 34.8,36.78 C34.8,36.78 34.8,36.78 34.8,36.84 C34.8,36.9 34.86,36.9 34.86,36.96 C35.22,37.2 35.28,37.56 35.28,37.92 L35.46,42.84 C35.46,42.84 35.46,42.9 35.46,42.96 C35.46,43.26 35.4,43.62 35.1,43.86 C35.04,43.86 35.04,43.92 35.04,43.92 C34.92,43.32 34.86,42.66 34.86,42.66 C34.86,42.6 34.74,42.54 34.68,42.54 C34.68,42.54 34.08,42.6 33.84,42.66 C33.78,42.36 33.24,37.8 33.24,37.8 C33.24,37.68 33.18,37.62 33.18,37.5 C33.18,37.26 33.24,37.02 33.48,36.78 C33.54,36.78 33.54,36.72 33.54,36.66 C33.54,36.66 33.54,36.6 33.48,36.6 C33.66,36.6 33.6,36.6 33.54,36.6 L30.6,36.96 C30.54,36.96 30.48,37.02 30.42,37.08 C30.42,37.14 30.48,37.2 30.54,37.2 C30.9,37.38 31.02,37.74 31.08,38.16 C31.08,38.16 31.68,42.72 31.68,43.02 C31.44,43.02 30.36,43.14 30.12,43.2 C30.06,42.9 29.52,38.34 29.52,38.34 C29.52,38.28 29.46,38.16 29.46,38.04 C29.46,37.8 29.52,37.56 29.76,37.32 C29.82,37.32 29.82,37.26 29.82,37.2 C29.82,37.2 29.82,37.2 29.76,37.14 C29.7,37.08 29.64,37.08 29.58,37.08 L26.7,37.44 C26.64,37.44 26.58,37.5 26.52,37.56 C26.52,37.62 26.58,37.68 26.64,37.68 C27,37.86 27.12,38.28 27.12,38.64 C27.12,38.64 27.72,43.2 27.72,43.5 C27.48,43.5 26.4,43.62 26.16,43.68 C26.1,43.38 25.56,38.82 25.56,38.82 C25.56,38.76 25.5,38.64 25.5,38.52 C25.5,38.28 25.56,38.04 25.8,37.8 C25.86,37.8 25.86,37.74 25.86,37.68 C25.86,37.68 25.86,37.62 25.8,37.62 C25.74,37.56 25.68,37.56 25.62,37.56 L22.8,37.92 C22.74,37.92 22.68,37.98 22.62,38.04 C22.56,38.1 22.68,38.16 22.74,38.22 C23.1,38.4 23.22,38.76 23.28,39.18 L23.88,44.1 C23.94,44.46 23.94,44.82 23.64,45.12 C23.58,45.18 23.58,45.24 23.58,45.3 C23.64,45.36 23.7,45.36 23.76,45.36 L32.82,44.28 C33.12,44.28 33.3,44.28 33.48,44.4 C33.84,44.64 33.96,45.24 34.02,45.66 L34.08,45.84 C34.08,45.9 34.14,45.9 34.2,45.96 C34.26,45.96 34.32,45.96 34.38,45.96 L35.28,45.6 C35.34,45.6 35.4,45.54 35.4,45.48 C35.4,45.48 35.28,44.82 35.22,44.16 C35.28,44.22 35.28,44.22 35.4,44.22 L37.56,44.16 C37.62,44.16 37.68,44.16 37.74,44.1 C37.74,44.1 39.3,40.86 39.78,39.96 C39.84,40.86 39.9,42.84 39.9,42.84 C39.9,42.84 39.9,42.9 39.9,42.96 C39.9,43.26 39.84,43.62 39.54,43.86 C39.48,43.86 39.48,43.92 39.48,43.98 C39.48,43.98 39.48,43.98 39.48,44.04 C39.54,44.1 39.6,44.16 39.66,44.1 L42.54,44.04 C42.66,44.04 42.72,43.98 42.72,43.92 C42.78,43.86 42.72,43.8 42.66,43.74 C42.3,43.5 42.24,43.14 42.24,42.78 L41.76,37.8 C41.76,37.44 41.82,37.08 42.12,36.78 C42.18,36.72 42.18,36.66 42.18,36.6 C42.18,36.48 42.12,36.48 42.06,36.48 Z M58.2,36.78 C58.14,36.84 58.2,36.9 58.26,36.96 C58.56,37.2 58.62,37.62 58.56,37.98 L58.14,42.9 C58.08,43.26 58.02,43.62 57.66,43.86 C57.6,43.86 57.54,43.98 57.6,44.04 C57.66,44.1 57.72,44.16 57.78,44.16 L60.78,44.4 C62.82,44.58 64.02,43.74 64.2,42.06 C64.38,40.5 63.48,39.6 61.92,39.42 C61.92,39.42 61.08,39.42 60.78,39.42 C60.84,39.18 60.9,38.16 60.9,38.16 C60.9,37.8 61.02,37.44 61.38,37.2 C61.44,37.2 61.5,37.14 61.5,37.08 C61.44,37.02 61.38,36.96 61.32,36.96 L58.44,36.72 C58.32,36.66 58.26,36.72 58.2,36.78 Z M61.02,40.8 C61.44,40.8 61.86,40.92 61.74,41.88 C61.68,42.12 61.56,43.08 60.78,42.96 C60.78,42.96 60.54,42.9 60.42,42.9 C60.48,42.72 60.6,41.1 60.6,40.86 C60.78,40.8 61.02,40.8 61.02,40.8 Z M65.04,37.2 C64.98,37.26 64.98,37.32 65.04,37.38 C65.34,37.68 65.34,38.04 65.28,38.4 L64.68,43.32 C64.62,43.74 64.5,44.04 64.14,44.28 C64.08,44.28 64.02,44.34 64.02,44.46 C64.08,44.52 64.08,44.58 64.2,44.58 L67.08,44.94 C67.14,44.94 67.26,44.94 67.26,44.88 C67.26,44.88 67.32,44.82 67.32,44.82 C67.32,44.82 67.26,44.76 67.26,44.7 C67.02,44.52 66.96,44.28 66.96,43.98 C66.96,43.92 66.96,43.8 67.02,43.68 C67.02,43.68 67.14,42.78 67.26,42.18 C67.56,42.84 68.04,44.04 68.04,44.04 C68.52,45.12 69.18,45.3 69.78,45.36 C69.78,45.36 70.92,45.48 71.1,45.48 C71.1,45.48 71.1,45.48 71.16,45.48 L73.32,45.78 C73.38,45.78 73.44,45.78 73.5,45.72 C73.5,45.72 75.66,42.84 76.32,42 C76.14,42.84 75.84,44.82 75.84,44.82 C75.78,45.18 75.66,45.54 75.3,45.72 C75.24,45.72 75.18,45.78 75.18,45.84 C75.18,45.9 75.24,45.96 75.36,45.96 L78.18,46.38 C78.24,46.38 78.36,46.38 78.36,46.32 C78.42,46.26 78.42,46.2 78.3,46.14 C78,45.84 78,45.54 78.06,45.12 L78.84,40.26 C78.9,39.9 79.02,39.54 79.38,39.36 C79.44,39.36 79.5,39.3 79.5,39.18 C79.5,39.12 79.44,39.06 79.38,39.06 L77.22,38.7 C77.16,38.7 77.1,38.7 77.04,38.76 C77.04,38.76 74.88,41.64 74.28,42.48 C74.46,41.64 74.76,39.66 74.76,39.66 C74.82,39.3 74.94,38.94 75.3,38.76 C75.36,38.76 75.42,38.7 75.42,38.64 C75.42,38.58 75.36,38.52 75.3,38.52 L72.48,38.1 C72.42,38.1 72.3,38.1 72.3,38.16 C72.3,38.16 72.24,38.22 72.24,38.22 C72.24,38.22 72.24,38.28 72.3,38.34 C72.48,38.52 72.54,38.7 72.54,39 L72.48,39.36 L71.7,44.22 C71.64,44.52 71.46,44.7 71.34,44.88 C71.16,44.7 70.98,44.4 70.98,44.4 C70.98,44.4 69.36,40.92 69.24,40.74 C69.42,40.62 71.94,38.22 71.94,38.22 C71.94,38.22 72,38.16 72,38.1 C72,38.1 72,38.1 72,38.04 C71.94,37.98 71.94,37.98 71.82,37.92 L69.18,37.62 C69.12,37.62 69,37.62 69,37.68 C69,37.68 68.94,37.74 68.94,37.74 C68.94,37.74 69,37.8 69,37.86 C69.24,38.04 69.3,38.22 69.3,38.34 L69.06,38.76 C69.06,38.76 67.86,39.96 67.44,40.44 C67.5,39.84 67.68,38.7 67.68,38.7 C67.74,38.34 67.86,37.98 68.22,37.74 C68.28,37.74 68.34,37.68 68.34,37.62 C68.34,37.56 68.28,37.5 68.16,37.5 L65.28,37.14 C65.16,37.08 65.1,37.14 65.04,37.2 Z M82.68,37.68 C82.56,38.1 82.68,38.64 82.92,39 C83.22,39.42 83.64,39.72 84.18,39.84 C85.44,40.08 86.28,39.36 86.46,38.46 C86.46,38.46 86.46,38.34 86.46,38.28 C86.4,38.28 86.4,38.22 86.34,38.16 L85.08,37.92 C85.02,37.92 84.96,37.92 84.9,37.98 C84.84,37.98 84.84,38.1 84.84,38.16 L84.9,38.4 L84.78,38.52 L84.36,38.58 C84.06,38.52 83.94,38.34 83.94,38.22 L84.12,38.04 C84.18,38.04 84.18,37.92 84.18,37.86 C84.12,37.8 84.12,37.74 84.06,37.74 L82.74,37.5 C82.8,37.44 82.74,37.62 82.68,37.68 Z M19.08,38.28 L16.44,38.7 C16.38,38.7 16.32,38.76 16.32,38.82 C16.32,38.88 16.38,38.94 16.44,39 C16.8,39.12 16.86,39.3 16.86,39.36 L16.86,39.84 L16.02,44.82 C15.9,45.36 15.78,45.66 15.48,46.14 C15.42,46.2 15.42,46.26 15.48,46.32 C15.54,46.38 15.6,46.38 15.66,46.38 L17.82,46.02 C17.88,46.02 17.94,45.96 17.94,45.9 C17.94,45.84 17.88,45.78 17.82,45.78 C17.58,45.66 17.46,45.54 17.4,45.36 L17.4,44.88 C17.4,44.88 17.52,44.1 17.58,43.92 C17.76,43.92 19.32,43.62 19.5,43.62 C19.62,43.74 19.98,44.46 19.98,44.46 L20.16,44.82 C20.16,44.82 20.16,44.88 20.16,44.94 C20.16,45.12 20.04,45.3 19.86,45.48 C19.8,45.48 19.8,45.54 19.8,45.6 C19.8,45.6 19.8,45.66 19.86,45.66 C19.92,45.72 19.98,45.78 20.04,45.72 L23.34,45.18 C23.4,45.18 23.46,45.12 23.46,45.06 C23.46,45 23.4,44.94 23.34,44.94 C22.98,44.82 22.62,44.46 22.32,43.92 L19.14,38.46 C19.26,38.34 19.2,38.28 19.08,38.28 Z M18.18,40.92 C18.48,41.34 18.84,42.06 18.96,42.36 C18.66,42.42 18.18,42.48 17.88,42.54 C17.94,42.3 18.06,41.46 18.18,40.92 Z M80.52,39.18 C80.46,39.24 80.46,39.3 80.52,39.36 C80.82,39.66 80.76,40.02 80.7,40.38 L79.62,45.24 C79.5,45.6 79.38,45.96 79.02,46.14 C78.96,46.14 78.9,46.2 78.9,46.32 C78.9,46.38 78.96,46.44 79.02,46.44 L81.12,46.86 C81.18,46.86 81.24,46.86 81.3,46.8 C81.3,46.8 83.64,44.04 84.3,43.26 C84.12,44.1 83.64,46.08 83.64,46.08 C83.52,46.5 83.4,46.8 83.04,46.98 C82.98,46.98 82.92,47.04 82.92,47.1 C82.92,47.1 82.92,47.1 82.92,47.1 C82.92,47.16 82.98,47.22 83.04,47.22 L85.86,47.82 C85.92,47.82 86.04,47.82 86.04,47.76 C86.1,47.7 86.1,47.64 85.98,47.58 C85.74,47.28 85.74,46.98 85.8,46.56 L86.88,41.7 C87,41.28 87.12,40.98 87.48,40.8 C87.54,40.8 87.6,40.74 87.6,40.62 C87.6,40.56 87.54,40.5 87.48,40.5 L85.32,40.08 C85.26,40.08 85.2,40.08 85.14,40.14 C85.14,40.14 82.86,42.9 82.2,43.68 C82.38,42.84 82.8,40.86 82.8,40.86 C82.92,40.5 83.04,40.14 83.4,39.96 C83.46,39.96 83.52,39.9 83.52,39.84 C83.52,39.84 83.52,39.84 83.52,39.84 C83.52,39.78 83.46,39.72 83.4,39.72 L80.58,39.12 C80.58,39.06 80.52,39.12 80.52,39.18 Z M13.32,39.24 L13.08,39.3 L8.28,40.38 C8.22,40.38 8.16,40.44 8.16,40.5 C8.16,40.56 8.22,40.62 8.28,40.62 C8.7,40.8 8.82,41.16 8.88,41.52 L10.02,46.32 C10.14,46.68 10.14,47.04 9.84,47.34 C9.78,47.4 9.78,47.46 9.84,47.52 C9.9,47.58 9.96,47.58 10.02,47.58 L13.08,46.92 C13.98,46.74 15.9,46.02 15.36,43.68 C15.24,43.2 14.64,41.52 12.42,42 C12.42,42 11.82,42.24 11.46,42.36 C11.4,42.12 11.22,41.34 11.16,41.1 C11.46,41.04 12.78,40.74 12.78,40.74 C13.02,40.68 13.44,40.62 13.74,40.92 C13.8,40.98 13.86,40.98 13.98,40.92 C14.04,40.92 14.1,40.8 14.1,40.74 L13.62,39.12 C13.62,39.06 13.56,39.06 13.5,39.06 C13.44,39.18 13.38,39.18 13.32,39.24 Z M12.18,43.74 C12.42,43.68 12.6,43.74 12.78,43.8 C12.96,43.92 13.14,44.16 13.2,44.46 C13.26,44.58 13.26,44.76 13.26,44.88 C13.26,45.12 13.2,45.24 13.14,45.36 L12.66,45.66 C12.66,45.66 12.36,45.66 12.24,45.66 C12.18,45.48 11.88,44.1 11.82,43.86 C11.94,43.8 12.18,43.74 12.18,43.74 Z" id="Shape" fill="#853347" fill-rule="nonzero"></path> <path d="M4.14,35.4 L3.36,35.58 C3.3,35.58 3.24,35.64 3.3,35.7 L3.6,36.72 C3.6,36.72 3.66,36.78 3.66,36.78 C3.72,36.78 3.72,36.78 3.72,36.78 L4.56,36.54 C11.22,34.68 23.7,31.26 42.78,30.96 C42.84,30.96 42.9,30.96 42.9,30.9 C42.9,30.9 42.84,30.84 42.84,30.78 L40.44,29.82 C22.38,30.36 10.5,33.6 4.14,35.4 Z M53.58,30.84 C53.52,30.84 53.52,30.9 53.52,30.96 C53.52,31.02 53.58,31.02 53.64,31.02 C70.74,31.38 85.2,34.8 92.34,36.84 C92.4,36.84 92.4,36.84 92.46,36.84 C92.52,36.84 92.52,36.84 92.52,36.78 L92.76,35.76 C92.76,35.7 92.7,35.64 92.7,35.64 C85.98,33.72 72.3,30.48 56.1,29.88 C55.98,29.88 53.58,30.84 53.58,30.84 Z M4.08,53.1 C4.02,53.1 4.02,53.1 3.78,54.48 C3.78,54.48 3.84,54.54 3.84,54.54 C3.9,54.54 3.96,54.54 3.96,54.54 C11.22,52.56 26.28,48.42 48.36,49.08 C64.86,48.78 82.2,51.84 91.98,54.54 C92.04,54.54 92.04,54.54 92.1,54.54 C92.16,54.54 92.16,54.48 92.16,54.48 L91.92,53.16 C81.96,50.46 64.62,47.46 48.42,47.7 C26.16,47.04 10.74,51.3 4.08,53.1 Z M15.36,54 C15.3,54 15.3,54 15.3,54.06 C15.3,54.06 15.3,54.12 15.36,54.12 C22.08,61.86 34.62,66.6 48.06,66.6 C61.38,66.6 73.86,61.92 80.64,54.36 C80.7,54.36 80.7,54.3 80.64,54.3 C80.64,54.3 80.58,54.24 80.58,54.24 C69.6,52.2 58.2,51.18 48.36,51.36 C36.96,51 25.92,51.9 15.36,54 Z M12.06,54.66 L11.7,54.72 C11.64,54.72 11.64,54.72 11.64,54.78 C11.64,54.78 11.64,54.84 11.64,54.84 C18.84,63.9 32.76,69.54 48,69.54 C63.12,69.54 77.04,63.96 84.24,54.96 C84.3,54.96 84.3,54.9 84.24,54.9 C84.24,54.9 84.18,54.84 84.18,54.84 L82.2,54.48 C75.18,62.58 62.1,67.62 48,67.62 C33.78,67.62 20.64,62.52 13.74,54.3 C13.68,54.36 12.06,54.66 12.06,54.66 Z M3.9,56.76 L3.3,56.88 C3.24,56.94 3.12,57.36 3.12,57.36 C2.76,58.5 2.4,59.82 4.14,61.02 C6.54,62.76 9.9,62.04 11.88,61.62 L12.06,61.62 L16.26,60.66 C16.32,60.66 16.32,60.66 16.32,60.6 C16.32,60.6 16.32,60.54 16.26,60.54 C14.1,58.92 12.24,57.06 10.68,55.08 C10.56,55.02 3.9,56.76 3.9,56.76 Z M79.44,60.42 C79.38,60.42 79.38,60.48 79.38,60.48 C79.38,60.48 79.44,60.54 79.44,60.54 L83.94,61.62 L84.12,61.62 C86.1,62.04 89.46,62.7 91.86,61.02 C93.54,59.82 93.18,58.5 92.88,57.36 L92.76,57 L92.1,56.82 L85.02,55.08 C83.4,57.06 81.54,58.8 79.44,60.42 Z" id="Shape" fill="#853347" fill-rule="nonzero"></path> <path d="M29.34,57.54 C29.46,57.72 29.4,57.84 29.34,57.96 C29.28,57.96 29.28,58.02 29.28,58.08 L28.32,59.76 C28.14,60 28.02,60.12 27.9,60.12 L28.74,60.42 C28.62,60.3 28.62,60.18 28.68,60.06 C28.68,60.06 28.74,60 28.74,60 L29.46,58.68 L29.4,60.18 C29.4,60.42 29.46,60.48 29.52,60.54 C29.58,60.66 29.7,60.72 29.88,60.9 L31.26,59.28 L30.84,60.6 C30.78,60.66 30.78,60.72 30.78,60.84 C30.72,60.9 30.66,61.02 30.48,61.08 L31.56,61.5 C31.5,61.26 31.5,61.14 31.62,60.84 L32.16,58.98 C32.16,58.98 32.22,58.92 32.22,58.92 C32.28,58.8 32.34,58.74 32.52,58.68 L31.5,58.26 L30.3,59.7 L30.36,57.84 L29.34,57.54 Z M33.36,58.86 C33.12,58.8 32.88,58.92 32.82,59.1 C32.76,59.28 32.82,59.46 33.06,59.52 C32.88,59.64 32.76,59.7 32.46,59.82 C32.52,59.82 32.58,59.88 32.64,59.88 C32.76,59.88 32.76,59.88 32.88,59.88 C33.48,59.64 33.6,59.34 33.6,59.28 C33.66,59.16 33.54,58.92 33.36,58.86 Z M34.92,59.46 L36.24,59.82 C36.06,59.88 35.94,60.06 35.94,60.18 L35.34,62.1 C35.28,62.28 35.28,62.4 35.4,62.58 L34.26,62.28 C34.44,62.22 34.56,62.04 34.56,61.92 L34.8,61.14 L34.2,61.74 C33.9,61.98 33.72,62.16 33.36,62.1 L32.76,61.92 C33,61.8 33.3,61.56 33.48,61.44 L34.08,60.9 C33.9,60.78 33.6,60.54 33.72,60.06 C33.9,59.52 34.38,59.28 34.92,59.46 Z M35.16,59.94 L35.1,59.94 C34.8,59.88 34.56,60.06 34.5,60.3 C34.38,60.54 34.62,60.84 34.86,60.96 L35.16,59.94 Z M38.88,60.36 C38.64,60.3 38.4,60.18 38.16,60.12 C37.2,59.94 36.42,60.42 36.24,61.32 C36.06,62.16 36.48,63 37.56,63.18 C37.98,63.24 38.28,63.24 38.52,63.18 L38.88,62.64 C38.58,62.7 38.16,62.76 37.86,62.7 C37.5,62.64 36.9,62.34 37.14,61.32 C37.2,61.2 37.38,60.36 38.16,60.54 C38.4,60.6 38.64,60.72 38.82,60.9 L38.88,60.36 Z M41.04,60.66 C41.16,60.78 41.16,60.96 41.16,61.14 L41.04,61.86 L40.2,61.74 L40.32,61.02 C40.38,60.84 40.44,60.72 40.56,60.6 L39.42,60.42 C39.54,60.54 39.54,60.72 39.54,60.9 L39.18,62.88 C39.12,63.06 39.06,63.18 38.94,63.3 L40.08,63.48 C39.96,63.36 39.96,63.18 39.96,63 L40.14,62.1 L40.98,62.22 L40.8,63.12 C40.74,63.3 40.68,63.42 40.56,63.54 L41.76,63.72 C41.64,63.6 41.64,63.42 41.64,63.24 L42,61.26 C42.06,61.08 42.12,60.96 42.24,60.84 L41.04,60.66 Z M42.54,60.84 C42.72,60.96 42.72,61.14 42.66,61.32 L42.42,63.3 C42.36,63.48 42.36,63.66 42.18,63.72 L43.38,63.84 C43.2,63.72 43.2,63.54 43.26,63.36 L43.5,61.38 C43.56,61.2 43.56,61.08 43.74,60.96 L42.54,60.84 Z M45.06,61.02 C45.24,61.14 45.24,61.32 45.24,61.5 L45.12,63.54 C45.12,63.72 45.06,63.84 44.88,63.96 L46.08,64.02 C45.9,63.9 45.9,63.72 45.9,63.54 L46.02,61.5 L46.8,61.56 L46.68,63.6 C46.68,63.78 46.62,63.96 46.44,64.02 L47.64,64.08 C47.46,63.96 47.46,63.78 47.46,63.6 L47.58,61.62 C47.58,61.44 47.64,61.26 47.82,61.2 L45.06,61.02 Z M48.18,61.14 C48.36,61.26 48.36,61.38 48.36,61.56 L48.42,63.6 C48.42,63.78 48.36,63.96 48.24,64.08 L49.44,64.08 C49.26,63.96 49.26,63.78 49.26,63.66 L49.2,61.62 C49.44,61.62 49.68,61.74 49.68,62.16 C49.68,62.46 49.56,62.7 49.26,62.82 C49.32,62.82 49.38,62.82 49.44,62.82 C50.04,62.82 50.52,62.52 50.52,61.92 C50.52,61.44 50.1,61.14 49.56,61.14 L48.18,61.14 Z M50.76,62.58 C50.82,63.3 51.42,64.08 52.5,63.96 C53.58,63.9 54.12,63.12 54.06,62.22 C53.94,61.32 53.28,60.72 52.26,60.84 C51.24,60.96 50.7,61.8 50.76,62.58 Z M51.6,62.4 C51.54,61.68 51.96,61.38 52.32,61.32 C52.86,61.32 53.22,61.86 53.22,62.46 C53.28,63.18 52.86,63.42 52.56,63.48 C52.14,63.54 51.72,63.24 51.6,62.4 Z M54.36,60.78 C54.66,60.9 54.72,61.14 54.78,61.38 C54.9,61.98 54.9,62.58 54.66,63.3 L54.3,63.36 L54.48,64.44 L54.9,64.44 C54.84,64.14 54.84,63.66 55.26,63.6 L56.52,63.42 C56.76,63.42 57.06,63.42 57.12,64.08 L57.48,63.96 L57.3,62.88 L56.88,62.94 L56.52,60.9 C56.46,60.72 56.46,60.54 56.64,60.42 L54.36,60.78 Z M55.74,60.96 L56.1,63 L55.26,63.12 C55.38,62.64 55.44,62.04 55.2,61.02 L55.74,60.96 Z M56.82,60.42 L57.84,60.24 L58.86,61.56 L59.04,60.54 C59.04,60.48 59.04,60.42 59.04,60.36 C58.98,60.24 58.92,60.18 58.8,60.12 L59.64,59.94 L59.16,62.46 C59.04,63.18 58.44,63.3 58.32,63.3 C58.08,63.3 57.96,63.3 57.78,63.24 L57.96,62.76 C58.08,62.82 58.2,62.82 58.32,62.82 C58.44,62.82 58.62,62.76 58.74,62.46 L58.8,62.4 C58.56,62.34 58.5,62.22 58.44,62.16 L57.36,60.9 C57.12,60.54 56.94,60.48 56.82,60.42 Z M62.34,59.1 L61.26,59.4 C61.38,59.4 61.5,59.46 61.5,59.58 C61.5,59.64 61.5,59.7 61.44,59.82 L61.02,60.9 L60.72,60.06 C60.66,59.88 60.6,59.76 60.78,59.58 L59.64,59.88 C59.82,59.94 59.94,60.12 59.94,60.24 L60.54,62.16 C60.6,62.34 60.66,62.46 60.48,62.64 L61.62,62.28 C61.44,62.22 61.32,62.1 61.32,61.92 L61.02,61.08 L61.8,61.8 C62.1,62.1 62.34,62.1 62.64,61.98 L63.24,61.8 C63.12,61.74 62.94,61.68 62.88,61.62 L61.56,60.48 L62.34,59.1 Z M64.62,58.38 L64.68,59.04 C64.56,58.92 64.38,58.98 64.26,59.04 L63.96,59.1 L64.62,61.02 C64.68,61.2 64.74,61.32 64.92,61.38 L63.78,61.74 C63.9,61.62 63.9,61.44 63.78,61.26 L63.12,59.34 L62.82,59.4 C62.58,59.46 62.46,59.58 62.4,59.7 L62.34,58.98 C62.4,58.98 62.4,58.98 62.46,58.98 L64.38,58.38 C64.62,58.38 64.62,58.38 64.62,58.38 Z M64.56,58.38 C64.74,58.44 64.86,58.56 64.92,58.74 L65.76,60.6 C65.82,60.72 65.88,60.9 65.82,61.08 L66.66,60.78 L66.84,58.62 L67.44,59.94 C67.5,60.06 67.56,60.24 67.44,60.42 L68.52,60 C68.34,60 68.22,59.82 68.16,59.64 L67.32,57.78 C67.26,57.66 67.2,57.48 67.32,57.3 L66.48,57.66 L66.3,59.76 L65.7,58.44 C65.64,58.32 65.58,58.14 65.7,57.96 L64.56,58.38 Z" id="Shape" fill="#FFFFFF" fill-rule="nonzero"></path> <path d="M31.5,16.26 C31.5,24.84 39,31.8 48.18,31.8 C57.36,31.8 64.86,24.84 64.86,16.26 C64.86,12.12 63.12,8.22 59.94,5.28 C56.82,2.34 52.62,0.72 48.18,0.72 C39,0.72 31.5,7.74 31.5,16.26 Z" id="Path" fill="#FFFFFF"></path> <path d="M31.86,16.26 C31.86,24.66 39.18,31.5 48.18,31.5 C57.18,31.5 64.5,24.66 64.5,16.26 C64.5,12.24 62.82,8.4 59.7,5.52 C56.64,2.64 52.5,1.08 48.18,1.08 C39.24,1.08 31.86,7.86 31.86,16.26 Z" id="Path" fill="#FFFFFF"></path> <path d="M33.06,16.32 C33.06,24.06 39.84,30.3 48.18,30.3 C56.52,30.3 63.3,24.06 63.3,16.32 C63.3,8.58 56.52,2.34 48.18,2.34 C39.9,2.34 33.06,8.64 33.06,16.32 Z M35.28,16.32 C35.28,9.66 41.1,4.32 48.24,4.32 C55.38,4.32 61.14,9.72 61.14,16.32 C61.14,22.98 55.32,28.38 48.24,28.38 C41.1,28.38 35.28,22.98 35.28,16.32 Z" id="Shape" fill="#853347" fill-rule="nonzero"></path> <path d="M47.46,9.18 L46.92,9.42 C45.6,10.02 44.16,10.74 43.32,10.8 C42.3,10.86 41.16,10.5 41.16,10.32 C41.16,10.26 41.1,10.14 41.1,10.08 C41.1,9.96 41.16,9.96 41.16,9.9 C41.16,9.9 41.16,9.9 41.16,9.96 C41.22,10.02 41.28,10.14 41.52,10.14 C41.82,10.14 42.06,10.08 42.18,9.96 C42.3,9.9 42.3,9.72 42.24,9.6 C42.12,9.36 41.88,8.7 41.1,8.94 C40.32,9.12 39.9,9.6 40.02,10.26 C40.14,10.92 40.68,11.4 41.28,11.52 C41.76,11.58 42,11.76 42.24,12.18 C42.48,12.54 42.54,12.96 42.54,13.56 C42.6,14.28 42.66,21.24 42.48,21.9 C42.36,22.44 41.94,22.74 41.4,23.04 C41.34,23.04 41.16,23.16 41.16,23.16 C40.62,23.46 40.02,23.76 40.14,24.42 C40.26,25.08 40.92,25.32 41.52,25.26 C41.94,25.2 42.36,25.14 42.48,24.78 C42.54,24.6 42.54,24.42 42.42,24.24 C42.3,24.12 42.12,24 41.76,23.94 C41.52,23.94 41.4,24 41.28,24.06 C41.46,23.94 41.82,23.7 42.48,23.52 L42.9,23.4 C43.44,23.28 43.92,23.16 45.54,23.52 L46.8,23.88 C48.24,24.24 49.44,24.6 51,24.48 C53.04,24.3 56.88,23.04 56.76,19.56 C56.7,18.54 56.28,17.64 55.5,16.98 C53.94,15.6 51.24,15.24 49.86,15.36 C48.54,15.42 46.68,15.72 45.6,16.92 C45.36,17.16 45.42,17.34 45.48,17.4 C45.6,17.52 45.9,17.52 46.08,17.46 L46.44,17.28 L47.76,16.56 C49.08,16.14 50.94,16.08 52.32,17.28 C53.16,18 53.64,19.32 53.46,20.52 C53.34,21.18 53.04,22.08 52.02,22.56 C49.8,23.64 46.92,23.4 46.02,22.44 C45.06,21.48 44.94,20.46 44.94,18.42 L44.94,17.64 C44.94,15.84 44.94,12.9 45.12,12.54 C45.3,12.18 46.92,10.44 48.78,10.14 C50.28,9.9 51.78,10.2 52.44,11.04 C53.1,11.88 52.98,12.54 52.92,12.9 C52.86,13.02 52.98,13.14 53.16,13.2 C53.7,13.32 55.8,12.72 55.92,12 C56.16,11.22 54.9,10.02 53.76,9.36 C52.38,8.34 48.84,8.46 47.46,9.18 Z" id="Path" fill="#853347"></path> <path d="M90.72,25.68 C89.1,25.68 87.78,26.94 87.78,28.56 C87.78,30.12 89.1,31.44 90.72,31.44 C92.34,31.44 93.66,30.12 93.66,28.56 C93.66,27 92.28,25.68 90.72,25.68 Z" id="Path" fill="#FFFFFF"></path> <path d="M88.56,28.56 C88.56,27.36 89.52,26.4 90.66,26.4 C91.86,26.4 92.76,27.36 92.76,28.56 C92.76,29.76 91.8,30.72 90.66,30.72 C89.52,30.72 88.56,29.76 88.56,28.56 Z M88.08,28.56 C88.08,29.94 89.22,31.08 90.66,31.08 C92.1,31.08 93.24,29.94 93.24,28.56 C93.24,27.18 92.1,26.04 90.66,26.04 C89.22,26.04 88.08,27.18 88.08,28.56 Z M89.76,29.82 L90.24,29.82 L90.24,28.74 L90.66,28.74 C91.2,28.74 91.26,28.98 91.26,29.22 C91.26,29.64 91.26,29.7 91.38,29.82 L91.86,29.82 C91.74,29.7 91.74,29.64 91.74,29.22 C91.74,28.98 91.68,28.68 91.38,28.62 C91.8,28.5 91.8,28.2 91.8,28.08 C91.8,27.42 91.2,27.36 90.96,27.36 L89.82,27.36 L89.82,29.82 L89.76,29.82 Z M90.24,27.6 L90.24,28.38 L90.84,28.38 C91.26,28.38 91.32,28.14 91.32,27.96 C91.32,27.66 91.08,27.6 90.78,27.6 L90.24,27.6 Z" id="Shape" fill="#853347" fill-rule="nonzero"></path> </g> </g> </g> </g> </svg> 