<?xml version="1.0" encoding="UTF-8"?> <svg xmlns="http://www.w3.org/2000/svg" xmlns:xlink="http://www.w3.org/1999/xlink" width="144px" height="188px" viewBox="0 0 144 188"> <!-- Generator: Sketch 52.6 (67491) - http://www.bohemiancoding.com/sketch --> <title>paper</title> <desc>Created with Sketch.</desc> <g id="Page-1" stroke="none" stroke-width="1" fill="none" fill-rule="evenodd"> <g id="Artboard" transform="translate(-801.000000, -2431.000000)" fill="#EDD2DC"> <g id="paper" transform="translate(801.000000, 2431.000000)"> <path d="M0.0360411899,21.9331611 L0.0360411899,184.866322 C0.0360411899,186.597073 1.43521175,188 3.16132723,188 L121.909325,188 C123.634153,188 125.033324,186.597073 125.033324,184.866322 L125.033324,53.267355 C125.033324,53.1976602 124.999857,53.1382909 124.993421,53.0698869 C124.977975,52.7949801 124.923913,52.5239455 124.83381,52.2645267 C124.799056,52.1638565 124.7746,52.0670586 124.730835,51.9689695 C124.578947,51.6282402 124.367849,51.3171957 124.105263,51.0513237 L92.8562644,19.7184206 C92.591104,19.4538389 92.2796053,19.2421737 91.9372139,19.0911687 C91.8432494,19.0511587 91.7479979,19.0176022 91.6501715,18.9879174 C91.3888731,18.8975723 91.1172769,18.8433656 90.840532,18.8252964 C90.7877574,18.834331 90.7259725,18.8007745 90.660326,18.8007745 L3.16132723,18.8007745 C1.43521175,18.8007745 0.0360411899,20.2024109 0.0360411899,21.9331611 Z M114.365131,50.1336775 L93.7843249,50.1336775 L93.7843249,29.497611 L114.365131,50.1336775 Z M6.28532617,25.0668389 L87.53504,25.0668389 L87.53504,53.267355 C87.53504,54.9968146 88.9342105,56.399742 90.6590389,56.399742 L118.784039,56.399742 L118.784039,181.733936 L6.28532617,181.733936 L6.28532617,25.0668389 Z" id="Shape" fill-rule="nonzero"></path> <path d="M131.283896,162.933161 L131.283896,169.199226 L140.658467,169.199226 C142.384582,169.199226 143.783753,167.797589 143.783753,166.066839 L143.783753,3.1336775 C143.783753,1.40292737 142.384582,5.68434189e-14 140.658467,5.68434189e-14 L21.9104693,5.68434189e-14 C20.1843535,5.68434189e-14 18.7851829,1.40292737 18.7851829,3.1336775 L18.7851829,12.5334195 L25.035755,12.5334195 L25.035755,6.26606445 L137.533181,6.26606445 L137.533181,162.933161 L131.283896,162.933161 Z" id="Path"></path> <polygon id="Path" points="25.035755 62.667097 100.03361 62.667097 100.03361 68.9331611 25.035755 68.9331611"></polygon> <polygon id="Path" points="25.035755 43.8663225 50.0354691 43.8663225 50.0354691 50.1336775 25.035755 50.1336775"></polygon> <polygon id="Path" points="25.035755 81.4665805 75.0351832 81.4665805 75.0351832 87.7339356 25.035755 87.7339356"></polygon> <polygon id="Path" points="81.2844679 81.4665805 100.03361 81.4665805 100.03361 87.7339356 81.2844679 87.7339356"></polygon> <polygon id="Path" points="25.035755 100.266064 100.03361 100.266064 100.03361 106.533419 25.035755 106.533419"></polygon> <polygon id="Path" points="25.035755 137.866322 100.03361 137.866322 100.03361 144.133678 25.035755 144.133678"></polygon> <polygon id="Path" points="53.159468 119.066839 100.03361 119.066839 100.03361 125.332903 53.159468 125.332903"></polygon> <polygon id="Path" points="25.035755 119.066839 46.9101831 119.066839 46.9101831 125.332903 25.035755 125.332903"></polygon> <polygon id="Path" points="25.035755 156.667097 37.535612 156.667097 37.535612 162.933161 25.035755 162.933161"></polygon> <polygon id="Path" points="43.784897 156.667097 100.03361 156.667097 100.03361 162.933161 43.784897 162.933161"></polygon> </g> </g> </g> </svg> 