<?xml version="1.0" encoding="UTF-8"?> <svg xmlns="http://www.w3.org/2000/svg" xmlns:xlink="http://www.w3.org/1999/xlink" width="340px" height="123px" viewBox="0 0 340 123"> <!-- Generator: Sketch 52.6 (67491) - http://www.bohemiancoding.com/sketch --> <title>Rectangle 5</title> <desc>Created with Sketch.</desc> <g id="Page-1" stroke="none" stroke-width="1" fill="none" fill-rule="evenodd"> <g id="Artboard" transform="translate(-367.000000, -1827.000000)"> <g id="Group-36" transform="translate(351.000000, 1727.000000)"> <g id="Rectangle-5" transform="translate(16.000000, 101.000000)"> <path d="M20.54,108.46 L319.46,108.46 L319.46,41 C319.46,37.4322405 316.567759,34.54 313,34.54 L27,34.54 C23.4322405,34.54 20.54,37.4322405 20.54,41 L20.54,108.46 Z M319.46,108.46 L320,108.46 L319.46,109 L319.46,108.46 Z" id="Rectangle" stroke="#000000" stroke-width="1.08000001"></path> <rect id="Rectangle" fill="#000000" x="40" y="108" width="50" height="8"></rect> <rect id="Rectangle-Copy-14" fill="#000000" x="250" y="108" width="50" height="8"></rect> <polygon id="Rectangle" fill="#000000" points="0 120 339.029412 120 339.029412 122 0 122"></polygon> <path d="M28,34 L312,34 C316.418278,34 320,37.581722 320,42 L320,44 L20,44 L20,42 C20,37.581722 23.581722,34 28,34 Z" id="Rectangle-Copy-13" fill="#000000"></path> <g id="Group-17" transform="translate(35.000000, 0.000000)" stroke="#000000" stroke-width="1.08000001"> <rect id="Rectangle" fill="#E39744" x="34" y="14" width="47" height="20"></rect> <path d="M9,0 L107,0 C111.970563,-9.13077564e-16 116,4.02943725 116,9 L116,14 L0,14 L0,9 C-6.08718376e-16,4.02943725 4.02943725,9.13077564e-16 9,0 Z" id="Rectangle"></path> </g> <g id="Group-17-Copy" transform="translate(185.000000, 0.000000)" stroke="#000000" stroke-width="1.08000001"> <rect id="Rectangle" fill="#E39744" x="34" y="14" width="47" height="20"></rect> <path d="M9,0 L107,0 C111.970563,-9.13077564e-16 116,4.02943725 116,9 L116,14 L0,14 L0,9 C-6.08718376e-16,4.02943725 4.02943725,9.13077564e-16 9,0 Z" id="Rectangle"></path> </g> <g id="Group-18" transform="translate(80.000000, 69.000000)"> <rect id="Rectangle" stroke="#000000" stroke-width="1.08000001" x="0" y="0" width="180" height="16" rx="8"></rect> <g id="Oval-3" transform="translate(8.000000, 5.000000)" fill="#000000"> <circle id="Oval" cx="3" cy="3" r="3"></circle> <circle id="Oval-Copy-10" cx="23" cy="3" r="3"></circle> <circle id="Oval-Copy-11" cx="43" cy="3" r="3"></circle> <circle id="Oval-Copy-12" cx="63" cy="3" r="3"></circle> <circle id="Oval-Copy-13" cx="83" cy="3" r="3"></circle> <circle id="Oval-Copy-14" cx="103" cy="3" r="3"></circle> <circle id="Oval-Copy-15" cx="123" cy="3" r="3"></circle> <circle id="Oval-Copy-16" cx="143" cy="3" r="3"></circle> <circle id="Oval-Copy-17" cx="163" cy="3" r="3"></circle> </g> </g> </g> </g> </g> </g> </svg> 