<?xml version="1.0" encoding="UTF-8"?> <svg xmlns="http://www.w3.org/2000/svg" xmlns:xlink="http://www.w3.org/1999/xlink" width="267px" height="787px" viewBox="0 0 267 787"> <!-- Generator: Sketch 57.1 (83088) - https://sketch.com --> <title>lines</title> <desc>Created with Sketch.</desc> <g id="Page-1" stroke="none" stroke-width="1" fill="none" fill-rule="evenodd"> <g id="02-copy" transform="translate(0.000000, -19.000000)" stroke="#FDF9FA"> <g id="Post-03-Copy" transform="translate(-318.000000, -40.000000)"> <g id="lines" transform="translate(283.000000, 56.000000)"> <path d="M21,115 C71.3955782,122.373493 114.510013,139.157386 150.343303,165.351678 C204.093239,204.643116 222.44194,261.79501 206.401183,298.224161 C190.360426,334.653312 125.404383,451.377181 150.343303,534.597315 C166.96925,590.077405 123.854816,623.8783 21,636 L21,115 Z" id="Path-3" stroke-width="0.699999988"></path> <path d="M11,0 C87.5168464,11.2088415 152.978553,36.7229354 207.38512,76.5422819 C288.99497,136.271302 316.854255,223.150955 292.499178,278.528859 C268.144102,333.906763 169.519744,511.344966 207.38512,637.852349 C232.628704,722.190604 167.166997,773.573154 11,792 L11,0 Z" id="Path-3-Copy-2" stroke-width="0.7"></path> <path d="M0,169 C41.1607864,175.028998 76.3746699,188.752488 105.641651,210.17047 C149.542122,242.297443 164.528496,289.028165 151.427144,318.814765 C138.325793,348.601365 85.2726897,444.041611 105.641651,512.087248 C119.220958,557.451007 84.0070744,585.088591 0,595 L0,169 Z" id="Path-3-Copy" stroke-width="0.699999988"></path> </g> </g> </g> </g> </svg> 