<?xml version="1.0" standalone="no"?>
<!DOCTYPE svg PUBLIC "-//W3C//DTD SVG 20010904//EN"
 "http://www.w3.org/TR/2001/REC-SVG-20010904/DTD/svg10.dtd">
<svg version="1.0" xmlns="http://www.w3.org/2000/svg"
 width="208.000000pt" height="208.000000pt" viewBox="0 0 208.000000 208.000000"
 preserveAspectRatio="xMidYMid meet">
<metadata>
Created by potrace 1.11, written by Peter Selinger 2001-2013
</metadata>
<g transform="translate(0.000000,208.000000) scale(0.100000,-0.100000)"
fill="#000000" stroke="none">
<path d="M1078 2040 l-42 -37 2 -83 c0 -45 4 -85 7 -88 8 -8 -26 -42 -36 -36
-15 9 -93 12 -115 4 -11 -5 -43 -11 -71 -15 -48 -6 -148 -37 -205 -65 -22 -11
-25 -15 -15 -31 14 -23 8 -29 -35 -35 -54 -9 -243 -66 -243 -75 0 0 -31 -3
-70 -5 -103 -8 -115 -9 -167 -23 -48 -13 -58 -24 -37 -37 8 -4 7 -9 -2 -16
-14 -10 1 -7 51 8 16 5 19 3 14 -10 -6 -14 -1 -16 37 -10 24 3 76 16 114 29
39 12 89 22 113 21 23 0 42 1 42 4 0 3 33 4 72 3 40 -1 78 3 85 9 7 6 13 8 13
4 0 -4 12 0 28 7 15 8 32 12 39 10 6 -2 33 3 59 12 26 9 68 18 94 20 47 4 48
4 54 -28 3 -18 2 -47 -4 -66 -5 -19 -8 -37 -5 -41 7 -12 -52 -184 -89 -255
-19 -39 -38 -92 -41 -119 -4 -28 -8 -52 -10 -56 -2 -3 -6 -25 -10 -50 -4 -25
-8 -47 -10 -50 -4 -7 -16 -83 -20 -130 -4 -52 -54 -139 -95 -166 -19 -14 -45
-39 -58 -57 -12 -17 -46 -66 -75 -107 -38 -54 -65 -80 -98 -98 l-46 -23 -38
25 c-66 45 -170 31 -230 -31 -34 -35 -35 -39 -35 -109 0 -62 3 -76 22 -94 12
-11 33 -21 47 -21 14 -1 40 -2 56 -3 46 -2 96 21 135 63 19 20 48 45 63 55 15
9 31 25 35 35 4 10 36 42 72 71 36 30 67 56 70 59 3 4 17 12 32 20 29 15 178
159 178 172 0 5 16 11 35 15 22 4 48 21 72 46 21 21 52 46 68 55 31 15 136 84
145 93 3 3 21 17 40 30 19 13 37 27 40 31 11 15 92 49 127 55 76 11 86 13 96
23 18 18 -4 46 -58 73 -65 33 -100 35 -117 8 -7 -11 -16 -20 -20 -20 -13 0 -8
53 6 80 9 16 12 42 9 76 -5 42 -1 62 21 109 14 31 38 71 52 88 15 18 33 47 41
65 7 18 20 35 28 38 7 3 49 -3 92 -14 76 -19 79 -19 99 -1 16 15 34 19 90 17
54 -1 92 6 174 32 58 19 107 34 110 34 3 1 10 4 15 8 6 3 33 9 62 12 72 8 75
9 97 29 11 10 26 15 33 13 9 -4 13 7 13 38 l0 44 -36 -4 c-19 -2 -50 -12 -67
-23 -38 -23 -95 -37 -187 -46 -36 -3 -90 -9 -120 -12 -71 -8 -119 -8 -150 -1
-14 4 -30 7 -37 7 -10 1 -129 85 -143 101 -7 9 -61 29 -85 33 -51 7 -58 35
-21 90 39 57 52 138 29 186 -19 39 -50 59 -102 64 -37 4 -47 0 -83 -33z"/>
</g>
</svg>
