<?xml version="1.0" encoding="utf-8"?>
<!-- Generator: Adobe Illustrator 18.0.0, SVG Export Plug-In . SVG Version: 6.00 Build 0)  -->
<!DOCTYPE svg PUBLIC "-//W3C//DTD SVG 1.1//EN" "http://www.w3.org/Graphics/SVG/1.1/DTD/svg11.dtd">
<svg version="1.1" id="Layer_1" xmlns="http://www.w3.org/2000/svg" xmlns:xlink="http://www.w3.org/1999/xlink" x="0px" y="0px"
	 viewBox="0 0 185 45" enable-background="new 0 0 185 45" xml:space="preserve">
<path fill-rule="evenodd" clip-rule="evenodd" fill="#12100B" d="M22,26.4l-4.9-11.1L12,26.4H22L22,26.4z M24,31.2H10l-3.6,8H0.8
	l16.4-35l15.7,35h-5.5L24,31.2L24,31.2z"/>
<path fill-rule="evenodd" clip-rule="evenodd" fill="#12100B" d="M39.7,21.1h2.2c2.2,0,6.2-0.5,6.2-5.2c0-4.8-4.5-5.1-6.2-5.1h-2.2
	V21.1L39.7,21.1z M41.9,6.1c2.2,0,4.7,0.1,7.2,1.8c3.3,2.2,4.1,5.6,4.1,8c0,3.4-1.6,5.8-3.2,7.2c-2.6,2.2-5.7,2.6-8.1,2.6h-2.2v13.4
	h-5.1V6.1H41.9L41.9,6.1z"/>
<polygon fill-rule="evenodd" clip-rule="evenodd" fill="#12100B" points="62.9,22 53.7,6.1 59.4,6.1 65.8,17.3 72.4,6.1 78.1,6.1 
	68.6,22 78.5,39.2 72.9,39.2 65.6,26.5 58.1,39.2 52.5,39.2 62.9,22 "/>
<polygon fill-rule="evenodd" clip-rule="evenodd" fill="#12100B" points="161.5,10.8 148.4,10.8 148.4,18.8 161.1,18.8 161.1,23.5 
	148.4,23.5 148.4,34.5 161.5,34.5 161.5,39.2 143.3,39.2 143.3,6.1 161.5,6.1 161.5,10.8 "/>
<path fill-rule="evenodd" clip-rule="evenodd" fill="#12100B" d="M176.5,10.8c-2.3,0-4.4,0.2-5.6,1.5c-0.8,0.9-1.4,2.6-1.4,3.8
	c0,1.6,0.6,3.1,1.7,4c0.6,0.5,1.9,1.1,5,1.1h2.8V10.8H176.5L176.5,10.8z M172.4,25.4c-1.7-0.2-3.7-1-5.1-2.2c-2.3-2-2.8-4.7-2.8-7
	c0-2.9,0.9-5.1,2.6-6.9c2.9-3.1,6.6-3.1,9-3.1h8.2v33.1H179V26h-1.2l-9.1,13.2h-6.2L172.4,25.4L172.4,25.4z"/>
<polygon fill-rule="evenodd" clip-rule="evenodd" fill="#12100B" points="97.5,15.7 85.5,28.4 85.5,6.1 80.4,6.1 80.4,40.6 
	102.7,16.9 102.7,39.2 107.8,39.2 107.8,15.7 97.5,15.7 "/>
<path fill-rule="evenodd" clip-rule="evenodd" fill="#12100B" d="M125.6,15.3l8.3,19.2h-17L125.6,15.3L125.6,15.3z M139.4,34.5
	L125.8,4.2l-14.2,30.2h-2.5v4.7h32.9v-4.7H139.4L139.4,34.5z"/>
<path fill-rule="evenodd" clip-rule="evenodd" fill="#ED6C26" d="M108.7,8.4c0-2.2-1.8-4-4-4c-2.2,0-4,1.8-4,4c0,2.2,1.8,4,4,4
	C106.9,12.4,108.7,10.6,108.7,8.4L108.7,8.4L108.7,8.4z"/>
</svg>
