<?xml version="1.0" encoding="UTF-8"?> <svg xmlns="http://www.w3.org/2000/svg" xmlns:xlink="http://www.w3.org/1999/xlink" width="107px" height="147px" viewBox="0 0 107 147"> <!-- Generator: Sketch 52.6 (67491) - http://www.bohemiancoding.com/sketch --> <title>Oval 8 Copy</title> <desc>Created with Sketch.</desc> <g id="Page-1" stroke="none" stroke-width="1" fill="none" fill-rule="evenodd"> <g id="Oval-8-Copy" transform="translate(53.500000, 73.500000) rotate(90.000000) translate(-53.500000, -73.500000) translate(-20.000000, 20.000000)" fill="#FFE02B"> <g id="Group-12"> <circle id="Oval" cx="3.5" cy="3.5" r="3.5"></circle> <circle id="Oval-Copy-37" cx="23.5" cy="3.5" r="3.5"></circle> <circle id="Oval-Copy-38" cx="43.5" cy="3.5" r="3.5"></circle> <circle id="Oval-Copy-39" cx="63.5" cy="3.5" r="3.5"></circle> <circle id="Oval-Copy-40" cx="83.5" cy="3.5" r="3.5"></circle> <circle id="Oval-Copy-41" cx="103.5" cy="3.5" r="3.5"></circle> <circle id="Oval-Copy-42" cx="123.5" cy="3.5" r="3.5"></circle> <circle id="Oval-Copy-43" cx="143.5" cy="3.5" r="3.5"></circle> </g> <g id="Group-12-Copy" transform="translate(0.000000, 20.000000)"> <circle id="Oval" cx="3.5" cy="3.5" r="3.5"></circle> <circle id="Oval-Copy-37" cx="23.5" cy="3.5" r="3.5"></circle> <circle id="Oval-Copy-38" cx="43.5" cy="3.5" r="3.5"></circle> <circle id="Oval-Copy-39" cx="63.5" cy="3.5" r="3.5"></circle> <circle id="Oval-Copy-40" cx="83.5" cy="3.5" r="3.5"></circle> <circle id="Oval-Copy-41" cx="103.5" cy="3.5" r="3.5"></circle> <circle id="Oval-Copy-42" cx="123.5" cy="3.5" r="3.5"></circle> <circle id="Oval-Copy-43" cx="143.5" cy="3.5" r="3.5"></circle> </g> <g id="Group-12-Copy-3" transform="translate(0.000000, 40.000000)"> <circle id="Oval" cx="3.5" cy="3.5" r="3.5"></circle> <circle id="Oval-Copy-37" cx="23.5" cy="3.5" r="3.5"></circle> <circle id="Oval-Copy-38" cx="43.5" cy="3.5" r="3.5"></circle> <circle id="Oval-Copy-39" cx="63.5" cy="3.5" r="3.5"></circle> <circle id="Oval-Copy-40" cx="83.5" cy="3.5" r="3.5"></circle> <circle id="Oval-Copy-41" cx="103.5" cy="3.5" r="3.5"></circle> <circle id="Oval-Copy-42" cx="123.5" cy="3.5" r="3.5"></circle> <circle id="Oval-Copy-43" cx="143.5" cy="3.5" r="3.5"></circle> </g> <g id="Group-12-Copy-2" transform="translate(0.000000, 60.000000)"> <circle id="Oval" cx="3.5" cy="3.5" r="3.5"></circle> <circle id="Oval-Copy-37" cx="23.5" cy="3.5" r="3.5"></circle> <circle id="Oval-Copy-38" cx="43.5" cy="3.5" r="3.5"></circle> <circle id="Oval-Copy-39" cx="63.5" cy="3.5" r="3.5"></circle> <circle id="Oval-Copy-40" cx="83.5" cy="3.5" r="3.5"></circle> <circle id="Oval-Copy-41" cx="103.5" cy="3.5" r="3.5"></circle> <circle id="Oval-Copy-42" cx="123.5" cy="3.5" r="3.5"></circle> <circle id="Oval-Copy-43" cx="143.5" cy="3.5" r="3.5"></circle> </g> <g id="Group-12-Copy-5" transform="translate(0.000000, 80.000000)"> <circle id="Oval" cx="3.5" cy="3.5" r="3.5"></circle> <circle id="Oval-Copy-37" cx="23.5" cy="3.5" r="3.5"></circle> <circle id="Oval-Copy-38" cx="43.5" cy="3.5" r="3.5"></circle> <circle id="Oval-Copy-39" cx="63.5" cy="3.5" r="3.5"></circle> <circle id="Oval-Copy-40" cx="83.5" cy="3.5" r="3.5"></circle> <circle id="Oval-Copy-41" cx="103.5" cy="3.5" r="3.5"></circle> <circle id="Oval-Copy-42" cx="123.5" cy="3.5" r="3.5"></circle> <circle id="Oval-Copy-43" cx="143.5" cy="3.5" r="3.5"></circle> </g> <g id="Group-12-Copy-4" transform="translate(0.000000, 100.000000)"> <circle id="Oval" cx="3.5" cy="3.5" r="3.5"></circle> <circle id="Oval-Copy-37" cx="23.5" cy="3.5" r="3.5"></circle> <circle id="Oval-Copy-38" cx="43.5" cy="3.5" r="3.5"></circle> <circle id="Oval-Copy-39" cx="63.5" cy="3.5" r="3.5"></circle> <circle id="Oval-Copy-40" cx="83.5" cy="3.5" r="3.5"></circle> <circle id="Oval-Copy-41" cx="103.5" cy="3.5" r="3.5"></circle> <circle id="Oval-Copy-42" cx="123.5" cy="3.5" r="3.5"></circle> <circle id="Oval-Copy-43" cx="143.5" cy="3.5" r="3.5"></circle> </g> </g> </g> </svg> 