<?xml version="1.0" encoding="utf-8"?>
<!-- Generator: Adobe Illustrator 19.2.1, SVG Export Plug-In . SVG Version: 6.00 Build 0)  -->
<svg version="1.1" id="Layer_1" xmlns="http://www.w3.org/2000/svg" xmlns:xlink="http://www.w3.org/1999/xlink" x="0px" y="0px"
	 viewBox="0 0 610 542.2" style="enable-background:new 0 0 610 542.2;" xml:space="preserve">
<style type="text/css">
	.st0{fill:url(#Path_1_);}
</style>
<title>Path</title>
<desc>Created with Sketch.</desc>
<g id="Page-1">
	<g id="Desktop-HD1" transform="translate(-830.000000, 0.000000)">
		
			<linearGradient id="Path_1_" gradientUnits="userSpaceOnUse" x1="830.7148" y1="400.1722" x2="830.2098" y2="399.196" gradientTransform="matrix(1601.3966 924.5668 1011.7592 -1752.4183 -1732813.5 -67031.3359)">
			<stop  offset="0" style="stop-color:#FE6C4C"/>
			<stop  offset="1" style="stop-color:#FAB304"/>
		</linearGradient>
		<path id="Path" class="st0" d="M2287.5-420.7c-140-6-188.9,47.8-559.3-76.8S1420-658.5,1336.9-723.4s-302.8-1.3-434,225.9
			s77.5,291-16.9,555s-62.9,313.8,49,394.6s364.8,10.5,511.8,93.5c147,83,24.1,901.5,163,938.3s164.3,24.6,304.3-100.6
			c17.1-15.3,30.4-26.8,41-35.9c76.4-65.7,10.1-6.2,163.8-318.8c175-355.9,235.1-519,325.7-724S2662.4,83.7,2621-107.5
			C2579.5-298.7,2427.5-414.7,2287.5-420.7z"/>
	</g>
</g>
</svg>
