<?xml version="1.0" encoding="utf-8"?>
<!-- Generator: Adobe Illustrator 23.0.6, SVG Export Plug-In . SVG Version: 6.00 Build 0)  -->
<svg version="1.1" id="Layer_1" xmlns="http://www.w3.org/2000/svg" xmlns:xlink="http://www.w3.org/1999/xlink" x="0px" y="0px"
	 viewBox="0 0 1187.2 1079.7" style="enable-background:new 0 0 1187.2 1079.7;" xml:space="preserve">
<style type="text/css">
	.st0{fill-rule:evenodd;clip-rule:evenodd;fill:url(#Path_1_);}
</style>
<title>Path</title>
<desc>Created with Sketch.</desc>
<g id="Page-1">
	<g id="Desktop-HD1" transform="translate(-838.000000, 0.000000)">
		
			<linearGradient id="Path_1_" gradientUnits="userSpaceOnUse" x1="1370.9794" y1="918.8971" x2="1370.5117" y2="917.993" gradientTransform="matrix(1467.1832 847.0786 703.3199 -1218.1859 -2655108.5 -41906.1445)">
			<stop  offset="0" style="stop-color:#FE6C4C"/>
			<stop  offset="1" style="stop-color:#FAB304"/>
		</linearGradient>
		<path id="Path" class="st0" d="M2773.1,149c-131.8-5.2-177.8,41.5-526.5-66.7S1956.4-57.6,1878.2-114
			c-78.2-56.4-233.3-83.7-393.4,178s57.8,271.2-31,500.5c-9.7,25-35,57.9-39.6,79.4c-37.6,175.4,124.6,231.2,181.1,236.4
			c56.5,5.2,145.2-11.6,233.3-11.6c88.1,0,151.1,35.4,215.4,0c64.3-35.4,1082-281.5,1043.1-447.6C3048,255,2904.9,154.3,2773.1,149z
			"/>
	</g>
</g>
</svg>
