<?xml version="1.0" encoding="UTF-8"?>
<svg width="610px" height="1077px" viewBox="0 0 610 1077" version="1.1" xmlns="http://www.w3.org/2000/svg" xmlns:xlink="http://www.w3.org/1999/xlink">
    <!-- Generator: Sketch 52.6 (67491) - http://www.bohemiancoding.com/sketch -->
    <title>Path</title>
    <desc>Created with Sketch.</desc>
    <defs>
        <linearGradient x1="61.7666097%" y1="0%" x2="11.2717622%" y2="97.6157534%" id="linearGradient-1">
            <stop stop-color="#FE6C4C" offset="0%"></stop>
            <stop stop-color="#FAB304" offset="100%"></stop>
        </linearGradient>
    </defs>
    <g id="Page-1" stroke="none" stroke-width="1" fill="none" fill-rule="evenodd">
        <g id="Desktop-HD1" transform="translate(-830.000000, 0.000000)" fill="url(#linearGradient-1)">
            <path d="M1840.5305,-173.343982 C1716.28966,-108.565953 1700.82031,-37.5190814 1317.76636,39.7966315 C934.712419,117.112344 970.289153,54.4239285 865.891851,39.7966315 C761.49455,25.1693344 603.011151,190.101744 603.011151,452.460745 C603.011151,714.819747 815.684824,665.74116 865.891851,941.526231 C916.098879,1217.3113 968.325881,1244.71384 1105.60875,1258.74003 C1242.89162,1272.76623 1426.78973,1085.44439 1595.59762,1083.82823 C1764.40551,1082.21207 2067.21456,1852.45236 2205.8794,1814.92361 C2344.54423,1777.39485 2360.51109,1754.10887 2419.17317,1575.66282 C2426.31922,1553.925 2432.11589,1537.27852 2436.73819,1524.0901 C2470.06035,1429.0146 2442.35009,1513.65409 2419.17317,1166.0985 C2392.78125,770.331668 2363.24814,599.115897 2339.188,376.224463 C2315.12787,153.333028 2417.31731,76.0102659 2285.86456,-68.8632893 C2154.41181,-213.736844 1964.77135,-238.122012 1840.5305,-173.343982 Z" id="Path" transform="translate(1527.577922, 804.492574) rotate(30.000000) translate(-1527.577922, -804.492574) "></path>
        </g>
    </g>
</svg>