<?xml version="1.0" encoding="utf-8"?>
<!-- Generator: Adobe Illustrator 19.2.1, SVG Export Plug-In . SVG Version: 6.00 Build 0)  -->
<svg version="1.1" id="Layer_1" xmlns="http://www.w3.org/2000/svg" xmlns:xlink="http://www.w3.org/1999/xlink" x="0px" y="0px"
	 viewBox="0 0 777 247" style="enable-background:new 0 0 777 247;" xml:space="preserve">
<style type="text/css">
	.st0{fill:url(#SVGID_1_);}
</style>
<g>
	<g transform="rotate(176 388.5 437)">
		
			<linearGradient id="SVGID_1_" gradientUnits="userSpaceOnUse" x1="-29.3209" y1="126.2218" x2="-419.7508" y2="974.6718" gradientTransform="matrix(-0.9976 -6.975601e-002 -6.975601e-002 0.9976 643.5995 -59.5253)">
			<stop  offset="0" style="stop-color:#FE6C4C"/>
			<stop  offset="1" style="stop-color:#FAB304"/>
		</linearGradient>
		<path class="st0" d="M535,5.3c-52.1,27.2-58.6,57-219.3,89.4C155,127.2,457.2,216.1,413.4,210c-43.8-6.1-323,82.3-323,192.4
			c0,110.1,14.6-44.9,35.7,70.8c21.1,115.7-165.6,91-89.4,198.6C112.9,779.4,244.8,814.7,389,844.5c144.2,29.8,241,10.9,299.2-4.8
			c58.2-15.7,64.9-25.5,89.5-100.4s11.1-5.8,0-171.9c-11.1-166.1-23.5-237.9-33.6-331.5c-10.1-93.5,32.8-126-22.4-186.8
			C666.6-11.7,587.1-21.9,535,5.3L535,5.3z"/>
	</g>
</g>
</svg>
