<svg xmlns="http://www.w3.org/2000/svg" width="2089" height="2262" viewBox="0 0 2089 2262"><defs><linearGradient id="ed69a" x1="1237.03" x2="301.93" y1="-156.82" y2="1864.98" gradientUnits="userSpaceOnUse"><stop offset="0" stop-color="#fe6c4c"/><stop offset="1" stop-color="#fab304"/></linearGradient></defs><g><g transform="rotate(30 1385.5 906)"><path fill="url(#ed69a)" d="M1333.446-122.897c-124.24 64.778-139.71 135.825-522.764 213.14-383.054 77.316-347.477 14.628-451.875 0C254.41 75.616 93.19 172.671 93.19 435.03S308.6 716.188 358.807 991.973c50.207 275.785-239.42 328.137-57.808 584.54 181.612 256.405 340.863 229.32 684.581 300.35 343.718 71.03 574.55 26.036 713.215-11.493 138.665-37.528 154.632-60.814 213.294-239.26 58.662-178.447 26.392-13.798 0-409.565s-55.925-566.982-79.985-789.874c-24.06-222.891 78.129-300.214-53.324-445.088-131.453-144.873-321.093-169.258-445.334-104.48z"/></g></g></svg>