<svg xmlns="http://www.w3.org/2000/svg" width="1852" height="1762" viewBox="0 0 1852 1762"><defs><linearGradient id="pb95a" x1="1143.84" x2="208.74" y1="0" y2="1719.19" gradientUnits="userSpaceOnUse"><stop offset="0" stop-color="#fe6c4c"/><stop offset="1" stop-color="#fab304"/></linearGradient></defs><g><g><path fill="url(#pb95a)" d="M1240.256 28.845c-124.24 55.083-139.71 115.496-522.764 181.24-383.054 65.743-347.477 12.437-451.875 0C161.22 197.646 0 280.174 0 503.264 0 726.356 215.41 742.342 265.617 976.85c50.207 234.508-239.42 279.024-57.808 497.05 181.612 218.028 340.863 194.997 684.581 255.396 343.718 60.399 574.55 22.139 713.215-9.773 138.665-31.911 154.632-51.712 213.294-203.45 58.662-151.737 26.392-11.732 0-348.263-26.392-336.531-55.925-482.12-79.985-671.651-24.06-189.53 78.129-255.28-53.324-378.47-131.453-123.19-321.093-143.925-445.334-88.843z"/></g></g></svg>