<?xml version="1.0" encoding="utf-8"?>
<!-- Generator: Adobe Illustrator 23.0.6, SVG Export Plug-In . SVG Version: 6.00 Build 0)  -->
<svg version="1.1" id="Layer_1" xmlns="http://www.w3.org/2000/svg" xmlns:xlink="http://www.w3.org/1999/xlink" x="0px" y="0px"
	 viewBox="0 0 1049.8 1568" style="enable-background:new 0 0 1049.8 1568;" xml:space="preserve">
<style type="text/css">
	.st0{fill-rule:evenodd;clip-rule:evenodd;fill:url(#Path-Copy-2_1_);}
</style>
<title>Path Copy 2</title>
<desc>Created with Sketch.</desc>
<g id="Page-1">
	<g id="Desktop-HD1-Copy-2" transform="translate(-423.000000, 0.000000)">
		
			<linearGradient id="Path-Copy-2_1_" gradientUnits="userSpaceOnUse" x1="626.6653" y1="741.4844" x2="626.1603" y2="740.5082" gradientTransform="matrix(1737.3624 1003.0667 1097.7592 -1901.3746 -1900624.25 781416.25)">
			<stop  offset="0" style="stop-color:#FE6C4C"/>
			<stop  offset="1" style="stop-color:#FAB304"/>
		</linearGradient>
		<path id="Path-Copy-2" class="st0" d="M2004.1-22.4c-151.9-6.5-205,51.8-606.8-83.3s-334.4-174.7-424.6-245.1
			s-328.5-1.4-470.9,245.2s84.1,315.8-18.3,602.1s-68.2,340.5,53.1,428.1s395.8,11.4,555.3,101.4c159.5,90.1,26.1,978.1,176.8,1018
			c150.6,40,178.3,26.7,330.2-109.1c18.5-16.5,33-29,44.5-38.9c82.9-71.3,10.9-6.8,177.7-345.9c189.9-386.2,255-563.1,353.4-785.6
			c98.3-222.5,236.3-239.7,191.4-447.1S2155.9-15.9,2004.1-22.4z"/>
	</g>
</g>
</svg>
