<?xml version="1.0" encoding="UTF-8"?> <svg xmlns="http://www.w3.org/2000/svg" width="91" height="89" viewBox="0 0 91 89" fill="none"> <path d="M8.37231 62.6296C-10.294 45.231 18.411 10.2362 53.5432 11.7419C69.412 12.4221 92.4486 28.3564 88.8415 45.7362C85.7022 60.7964 57.4 54.6561 48.054 67.083C18.0951 106.869 19.6544 73.1328 8.37231 62.6296Z" fill="#FFC700"></path> <path d="M23.8125 46.5625C22.3385 46.5625 21.25 46.0417 20.5469 45C19.9844 44.1667 19.7031 43.0729 19.7031 41.7188C19.7031 39.1823 20.7812 36.9844 22.9375 35.125C23.2083 34.8646 23.4792 34.6068 23.75 34.3516C24.1302 34.013 24.4453 33.8438 24.6953 33.8438C24.9818 33.8438 25.2344 33.9427 25.4531 34.1406C25.6719 34.3333 25.7865 34.5677 25.7969 34.8438C25.8073 35.1042 25.5104 35.5234 24.9062 36.1016C24.474 36.4974 24.0443 36.8906 23.6172 37.2812C23.138 37.75 22.7917 38.2083 22.5781 38.6562C22.8594 38.5469 23.1198 38.4661 23.3594 38.4141C23.6042 38.362 23.8281 38.3359 24.0312 38.3359C25.3333 38.3359 26.3411 38.6771 27.0547 39.3594C27.7682 40.0365 28.125 40.9818 28.125 42.1953C28.125 43.4557 27.7474 44.4896 26.9922 45.2969C26.1953 46.1406 25.1354 46.5625 23.8125 46.5625ZM23.8125 40.4453C23.4271 40.4453 23.0807 40.5078 22.7734 40.6328C22.612 40.7005 22.3151 40.8646 21.8828 41.125C21.862 41.3385 21.8516 41.5365 21.8516 41.7188C21.8516 42.7031 22.0182 43.4427 22.3516 43.9375C22.6849 44.4271 23.1849 44.6719 23.8516 44.6719C24.5339 44.6719 25.0625 44.4427 25.4375 43.9844C25.7969 43.5469 25.9766 42.9505 25.9766 42.1953C25.9766 41.612 25.7969 41.1745 25.4375 40.8828C25.0781 40.5911 24.5365 40.4453 23.8125 40.4453ZM32.9062 46.9688C32.651 47.4792 32.4479 47.8802 32.2969 48.1719C32.1198 48.5156 31.8359 48.6875 31.4453 48.6875C31.1693 48.6875 30.9349 48.599 30.7422 48.4219C30.5495 48.25 30.4531 48.0495 30.4531 47.8203C30.4531 47.6849 30.6198 47.2812 30.9531 46.6094C31.25 46.0156 31.474 45.5964 31.625 45.3516C31.8177 45.0443 32.0885 44.8906 32.4375 44.8906C32.7135 44.8906 32.9479 44.9792 33.1406 45.1562C33.3333 45.3333 33.4297 45.5365 33.4297 45.7656C33.4297 45.8698 33.2552 46.2708 32.9062 46.9688ZM40.0938 46.4922C38.5 46.4922 37.3255 45.9245 36.5703 44.7891C36.4401 44.5911 36.375 44.401 36.375 44.2188C36.375 43.9375 36.487 43.6979 36.7109 43.5C36.9349 43.3021 37.1901 43.2031 37.4766 43.2031C37.7682 43.2031 38.0182 43.3125 38.2266 43.5312C38.5911 43.9115 38.7891 44.1146 38.8203 44.1406C39.1276 44.3594 39.5521 44.4688 40.0938 44.4688C40.8958 44.4688 41.5651 44.1745 42.1016 43.5859C42.6172 43.0182 42.875 42.3307 42.875 41.5234C42.875 40.7474 42.7448 40.1667 42.4844 39.7812C42.2292 39.3958 41.8411 39.2031 41.3203 39.2031C40.4036 39.2031 39.6667 39.5 39.1094 40.0938C38.8906 40.3438 38.6693 40.5911 38.4453 40.8359C38.1641 41.1016 37.8646 41.2344 37.5469 41.2344C37.25 41.2344 36.9974 41.1328 36.7891 40.9297C36.5859 40.7266 36.4844 40.487 36.4844 40.2109C36.4844 40.0911 36.5286 39.638 36.6172 38.8516C36.7891 37.3255 36.875 36.3099 36.875 35.8047C36.875 35.6797 36.8281 35.5078 36.7344 35.2891C36.6458 35.0703 36.6016 34.8984 36.6016 34.7734C36.6016 34.513 36.7344 34.3151 37 34.1797C37.2083 34.0755 37.4531 34.0234 37.7344 34.0234C37.8385 34.0234 37.9948 34.0339 38.2031 34.0547C38.4167 34.0703 38.5755 34.0781 38.6797 34.0781L42.4375 34.0859C42.5312 34.0859 42.7318 34.0703 43.0391 34.0391C43.3464 34.0078 43.5495 33.9922 43.6484 33.9922C43.9297 33.9922 44.1615 34.0833 44.3438 34.2656C44.526 34.4427 44.6172 34.6719 44.6172 34.9531C44.6172 35.7292 43.8281 36.1172 42.25 36.1172C42.125 36.1172 41.9661 36.1146 41.7734 36.1094C41.5859 36.1042 41.4609 36.1016 41.3984 36.1016H39.0703C39.0547 36.4193 38.9896 36.9453 38.875 37.6797C39.5573 37.3464 40.3724 37.1797 41.3203 37.1797C42.5859 37.1797 43.5469 37.651 44.2031 38.5938C44.75 39.3698 45.0234 40.3464 45.0234 41.5234C45.0234 42.9401 44.5859 44.112 43.7109 45.0391C42.7995 46.0078 41.5938 46.4922 40.0938 46.4922ZM60.8672 46.3047C60.5547 46.3047 60.2943 46.2083 60.0859 46.0156C59.8828 45.8229 59.7812 45.5807 59.7812 45.2891C59.7812 45.1328 59.7682 44.9193 59.7422 44.6484C59.7109 44.3411 59.6927 44.1302 59.6875 44.0156C59.6719 43.6198 59.6641 43.1094 59.6641 42.4844C59.6641 42.2552 59.6745 41.3906 59.6953 39.8906C59.4505 39.9115 59.2083 39.9219 58.9688 39.9219C58.2083 39.9219 57.4688 39.9089 56.75 39.8828L56.7656 41.4062C56.7656 42.9844 56.6406 44.1068 56.3906 44.7734C56.0156 45.763 55.2812 46.2578 54.1875 46.2578C53.75 46.2578 53.3594 46.1693 53.0156 45.9922C52.5573 45.7578 52.3281 45.4115 52.3281 44.9531C52.3281 44.6979 52.4167 44.4766 52.5938 44.2891C52.776 44.1016 53.013 44.0078 53.3047 44.0078C53.4193 44.0078 53.5729 44.0443 53.7656 44.1172C53.9583 44.1901 54.099 44.2266 54.1875 44.2266C54.5417 44.2266 54.7188 43.5573 54.7188 42.2188C54.7188 41.8385 54.6901 41.2708 54.6328 40.5156C54.5807 39.7604 54.5547 39.1927 54.5547 38.8125C54.5547 38.5052 54.6667 38.2604 54.8906 38.0781C55.1146 37.8958 55.3828 37.8047 55.6953 37.8047C55.8307 37.8047 56.013 37.8099 56.2422 37.8203C56.5286 37.8411 56.7109 37.8542 56.7891 37.8594C57.3568 37.8802 58.0833 37.8906 58.9688 37.8906C59.1615 37.8906 59.4479 37.8568 59.8281 37.7891C60.2083 37.7214 60.4974 37.6875 60.6953 37.6875C61.4818 37.6875 61.875 38.0182 61.875 38.6797C61.875 39.1016 61.8672 39.7344 61.8516 40.5781C61.8411 41.4167 61.8359 42.0443 61.8359 42.4609C61.8359 43.0547 61.8438 43.5469 61.8594 43.9375C61.8646 44.0625 61.8828 44.2891 61.9141 44.6172C61.9453 44.8984 61.9609 45.1224 61.9609 45.2891C61.9609 45.5807 61.8568 45.8229 61.6484 46.0156C61.4401 46.2083 61.1797 46.3047 60.8672 46.3047ZM67.5 46.3594C66.2552 46.3594 65.237 46.0625 64.4453 45.4688C63.5703 44.8125 63.1328 43.888 63.1328 42.6953C63.1328 41.3776 63.4792 40.263 64.1719 39.3516C64.9427 38.3411 65.9818 37.8359 67.2891 37.8359C68.1953 37.8359 68.9479 37.9818 69.5469 38.2734C70.3333 38.6589 70.7266 39.2578 70.7266 40.0703C70.7266 40.6432 70.4062 41.151 69.7656 41.5938C69.474 41.7969 68.888 42.0938 68.0078 42.4844L65.375 43.6484C65.625 43.9193 65.9271 44.1224 66.2812 44.2578C66.6354 44.3932 67.0417 44.4609 67.5 44.4609C68.1979 44.4609 68.7891 44.3177 69.2734 44.0312C69.7057 43.776 70.0521 43.6484 70.3125 43.6484C70.8542 43.6484 71.125 43.9115 71.125 44.4375C71.125 45.0312 70.6901 45.5156 69.8203 45.8906C69.0911 46.2031 68.3177 46.3594 67.5 46.3594ZM67.2891 39.7266C66.8047 39.7266 66.3906 39.888 66.0469 40.2109C65.7031 40.5339 65.4271 41.0182 65.2188 41.6641C65.8073 41.4089 66.3932 41.1562 66.9766 40.9062C67.6797 40.5885 68.2396 40.2943 68.6562 40.0234C68.3073 39.8255 67.8516 39.7266 67.2891 39.7266ZM78.0312 39.8203C77.8906 39.8203 77.6797 39.8151 77.3984 39.8047C77.1224 39.7891 76.9141 39.7812 76.7734 39.7812C76.6953 39.7812 76.6094 39.7865 76.5156 39.7969C76.625 42.1354 76.6797 43.7865 76.6797 44.75C76.6797 45.9167 76.2995 46.5 75.5391 46.5C75.2578 46.5 75.0104 46.4141 74.7969 46.2422C74.5677 46.0599 74.4531 45.8281 74.4531 45.5469C74.4531 45.3646 74.4609 45.0885 74.4766 44.7188C74.4922 44.3438 74.5 44.0651 74.5 43.8828C74.5 43.1693 74.4531 41.8177 74.3594 39.8281C74.2656 39.8281 74.0339 39.8281 73.6641 39.8281C73.1328 39.8281 72.7448 39.7786 72.5 39.6797C72.1094 39.5234 71.9141 39.224 71.9141 38.7812C71.9141 38.5 72.0104 38.2578 72.2031 38.0547C72.401 37.8464 72.6562 37.7422 72.9688 37.7422H77.5859C78.6016 37.7422 79.1094 38.0911 79.1094 38.7891C79.1094 39.0807 79.0078 39.3255 78.8047 39.5234C78.6068 39.7214 78.349 39.8203 78.0312 39.8203Z" fill="white"></path> </svg> 