<?xml version="1.0" encoding="UTF-8"?> <svg xmlns="http://www.w3.org/2000/svg" width="230" height="231" viewBox="0 0 230 231" fill="none"> <path fill-rule="evenodd" clip-rule="evenodd" d="M58.4004 178.136C41.7627 162.763 29.6296 142.096 29.6147 119.443C29.5999 97.1297 41.6461 76.6284 58.3235 61.804C73.7643 48.0788 94.4242 44.4729 115.06 43.4918C136.514 42.4719 161.083 40.5047 175.719 56.2228C190.058 71.6206 184.071 95.4823 183.043 116.497C182.12 135.356 181.67 154.463 170.18 169.445C157.315 186.219 139.163 199.553 118.088 201.192C95.9824 202.91 74.6855 193.183 58.4004 178.136Z" fill="#FFC700"></path> <path d="M126.623 75.0166L116.249 75C104.594 75 97.062 82.7276 97.062 94.6881V103.766H86.6312C85.7299 103.766 85 104.496 85 105.398V118.55C85 119.451 85.7307 120.181 86.6312 120.181H97.062V153.369C97.062 154.27 97.7919 155 98.6933 155H112.303C113.204 155 113.934 154.269 113.934 153.369V120.181H126.13C127.031 120.181 127.761 119.451 127.761 118.55L127.766 105.398C127.766 104.965 127.594 104.55 127.288 104.244C126.983 103.938 126.567 103.766 126.134 103.766H113.934V96.0705C113.934 92.3719 114.815 90.4943 119.633 90.4943L126.622 90.4918C127.522 90.4918 128.252 89.7611 128.252 88.8606V76.6479C128.252 75.7482 127.523 75.0183 126.623 75.0166Z" fill="#3B5998"></path> </svg> 