<?xml version="1.0" encoding="UTF-8"?> <svg xmlns="http://www.w3.org/2000/svg" width="81" height="82" viewBox="0 0 81 82" fill="none"> <path d="M7.10427 58.6456C-9.6751 43.0058 16.1282 11.5485 47.7089 12.9021C61.9736 13.5135 82.6814 27.837 79.4389 43.46C76.617 56.9977 51.1758 51.4781 42.7746 62.6488C15.8442 98.4127 17.2458 68.0871 7.10427 58.6456Z" fill="#B1304C"></path> <path d="M19.6875 42.7734H16.5703C14.8984 42.7734 14.0625 42.4323 14.0625 41.75C14.0625 41.4635 14.2083 41.1432 14.5 40.7891C14.7396 40.5182 14.9818 40.2448 15.2266 39.9688C16.0651 38.7708 17.3438 36.9896 19.0625 34.625C19.4688 34.0833 19.9974 33.8125 20.6484 33.8125C20.9557 33.8125 21.2214 33.8906 21.4453 34.0469C21.7109 34.2344 21.8438 34.4974 21.8438 34.8359L21.8516 40.7109C22.5339 40.7318 22.9896 40.8021 23.2188 40.9219C23.474 41.0625 23.6016 41.3385 23.6016 41.75C23.6068 42.1823 23.4089 42.4792 23.0078 42.6406C22.7266 42.75 22.3411 42.7943 21.8516 42.7734C21.8672 43.5234 21.8646 44.3359 21.8438 45.2109C21.8385 45.4974 21.7448 45.7344 21.5625 45.9219C21.3802 46.1094 21.1328 46.2031 20.8203 46.2031C20.0286 46.2031 19.651 45.6823 19.6875 44.6406V42.7734ZM19.6875 37.2031C19.1823 38 18.4036 39.1693 17.3516 40.7109H19.6875V37.2031ZM33.6641 39.7422C33.7005 40.0078 33.7422 40.4036 33.7891 40.9297C33.8672 43.0339 33.9062 44.5052 33.9062 45.3438C33.9062 45.6354 33.8021 45.8776 33.5938 46.0703C33.3854 46.263 33.125 46.3594 32.8125 46.3594C32.5 46.3594 32.2396 46.263 32.0312 46.0703C31.8281 45.8776 31.7266 45.6354 31.7266 45.3438C31.7266 44.5365 31.6901 43.0859 31.6172 40.9922C31.612 40.7995 31.5781 40.4818 31.5156 40.0391C31.4635 39.6328 31.4375 39.3177 31.4375 39.0938C31.4375 38.1823 32.1432 37.7266 33.5547 37.7266C33.8464 37.7266 34.2865 37.7396 34.875 37.7656C35.4688 37.7917 35.9115 37.8047 36.2031 37.8047C36.3229 37.8047 36.5 37.7969 36.7344 37.7812C36.974 37.7604 37.1536 37.75 37.2734 37.75C37.5807 37.75 37.8385 37.8516 38.0469 38.0547C38.2396 38.2526 38.3359 38.4922 38.3359 38.7734C38.3359 39.2526 38.0885 39.5677 37.5938 39.7188C37.3385 39.7969 36.8932 39.8359 36.2578 39.8359C35.9818 39.8359 35.5495 39.8203 34.9609 39.7891C34.3932 39.7578 33.9609 39.7422 33.6641 39.7422ZM42.8125 46.4844C41.6354 46.4844 40.6302 46.1589 39.7969 45.5078C38.9062 44.8047 38.4609 43.8958 38.4609 42.7812C38.4609 41.5208 38.8724 40.3672 39.6953 39.3203C40.638 38.1172 41.8385 37.5156 43.2969 37.5156C46.0885 37.5156 47.4844 38.75 47.4844 41.2188C47.4844 42.4792 47.1068 43.625 46.3516 44.6562C45.4557 45.875 44.276 46.4844 42.8125 46.4844ZM43.2969 39.5703C42.6042 39.5703 42 39.9036 41.4844 40.5703C40.9688 41.2318 40.7109 41.9688 40.7109 42.7812C40.7109 43.2708 40.9062 43.6693 41.2969 43.9766C41.6927 44.2839 42.1979 44.4375 42.8125 44.4375C43.4844 44.4375 44.0599 44.1042 44.5391 43.4375C45.0026 42.7969 45.2344 42.0573 45.2344 41.2188C45.2344 40.5677 45.099 40.1302 44.8281 39.9062C44.5625 39.6823 44.0521 39.5703 43.2969 39.5703ZM56.0469 48C55.5521 48 55.224 47.7891 55.0625 47.3672C54.9583 47.1016 54.9167 46.6849 54.9375 46.1172H50.9141C50.8724 46.1172 50.5156 46.1432 49.8438 46.1953C49.8438 46.2786 49.8464 46.4115 49.8516 46.5938C49.8568 46.7812 49.8594 46.9245 49.8594 47.0234C49.8594 47.3203 49.7552 47.5651 49.5469 47.7578C49.3438 47.9505 49.0859 48.0469 48.7734 48.0469C48.0234 48.0469 47.6484 47.5859 47.6484 46.6641C47.6484 46.4766 47.6536 46.224 47.6641 45.9062C47.6745 45.5885 47.6797 45.3385 47.6797 45.1562C47.6797 44.8542 47.7839 44.6068 47.9922 44.4141C48.1849 44.237 48.4323 44.1432 48.7344 44.1328C49.1979 43.4766 49.5156 42.6979 49.6875 41.7969C49.8073 41.1562 49.8672 40.3151 49.8672 39.2734C49.8672 38.2474 50.4245 37.7344 51.5391 37.7344C51.6693 37.7344 51.9115 37.7448 52.2656 37.7656C52.625 37.7812 52.9089 37.7891 53.1172 37.7891C53.3151 37.7891 53.6094 37.7734 54 37.7422C54.3906 37.7109 54.6719 37.6953 54.8438 37.6953C55.3646 37.6953 55.7109 37.8906 55.8828 38.2812C55.987 38.5156 56.0391 38.9062 56.0391 39.4531C56.0391 39.6771 56.0234 40.0104 55.9922 40.4531C55.9661 40.8958 55.9531 41.2292 55.9531 41.4531C55.9531 41.651 55.9661 42.6016 55.9922 44.3047C56.7318 44.3776 57.1016 44.7161 57.1016 45.3203C57.1016 45.5234 57.1068 45.7995 57.1172 46.1484C57.1276 46.4974 57.1328 46.7708 57.1328 46.9688C57.1328 47.2656 57.0286 47.5104 56.8203 47.7031C56.6172 47.901 56.3594 48 56.0469 48ZM50.9766 44.2188H53.8125C53.7865 42.5052 53.7734 41.5833 53.7734 41.4531C53.7734 41.2448 53.7865 40.9349 53.8125 40.5234C53.8438 40.013 53.8594 39.7005 53.8594 39.5859C52.9375 39.612 52.3255 39.6172 52.0234 39.6016C51.9766 41.4036 51.6276 42.9427 50.9766 44.2188ZM64.7266 46.5156C64.487 46.5156 64.1068 46.2552 63.5859 45.7344C63.1068 45.9635 62.6849 46.1354 62.3203 46.25C61.9557 46.3698 61.6458 46.4297 61.3906 46.4297C60.1354 46.4297 59.1927 46.0938 58.5625 45.4219C57.9375 44.75 57.625 43.7448 57.625 42.4062C57.625 41.151 58.0885 40.0781 59.0156 39.1875C59.9427 38.2917 61.0521 37.8438 62.3438 37.8438C62.8385 37.8438 63.4115 37.9844 64.0625 38.2656C64.849 38.6042 65.2422 38.9974 65.2422 39.4453C65.2422 39.6328 65.1823 39.7969 65.0625 39.9375C65.0104 40.1458 64.9688 40.4089 64.9375 40.7266C64.9115 41.0391 64.8984 41.4062 64.8984 41.8281C64.8984 42.8229 64.9688 43.5391 65.1094 43.9766C65.125 44.0234 65.2448 44.2943 65.4688 44.7891C65.6719 45.237 65.7734 45.4922 65.7734 45.5547C65.7734 45.8307 65.6667 46.0599 65.4531 46.2422C65.2448 46.4245 65.0026 46.5156 64.7266 46.5156ZM62.7891 41.1562C62.7891 40.9896 62.7995 40.7995 62.8203 40.5859C62.8464 40.3672 62.8828 40.125 62.9297 39.8594C62.8255 39.8073 62.7318 39.7708 62.6484 39.75C62.5703 39.724 62.5026 39.7109 62.4453 39.7109C61.737 39.7109 61.1172 39.9896 60.5859 40.5469C60.0547 41.099 59.7891 41.7396 59.7891 42.4688C59.7891 43.1667 59.9141 43.6927 60.1641 44.0469C60.4141 44.3958 60.7891 44.5703 61.2891 44.5703C61.612 44.5703 61.9167 44.5182 62.2031 44.4141C62.4948 44.3047 62.7682 44.1458 63.0234 43.9375C62.8672 42.6979 62.7891 41.7708 62.7891 41.1562Z" fill="white"></path> </svg> 