<?xml version="1.0" encoding="UTF-8"?> <svg xmlns="http://www.w3.org/2000/svg" width="35" height="45" viewBox="0 0 35 45" fill="none"> <g clip-path="url(#clip0)"> <path d="M22.4001 -5.06139e-05C26.3001 -5.0273e-05 30.2001 0.99995 33.6001 2.99995C33.9001 3.09995 34.1001 3.49995 34.1001 3.79995C34.1001 4.19995 33.9001 4.49995 33.6001 4.69995C27.3001 8.29995 23.4001 15.1 23.4001 22.3C23.4001 29.5 27.3001 36.3 33.6001 39.9C33.9001 40.1 34.1001 40.5 34.1001 40.8C34.1001 41.1 33.9001 41.5 33.6001 41.7C30.2001 43.7 26.3001 44.7 22.4001 44.7C10.1001 44.6999 0.000100056 34.6999 0.00010114 22.2999C0.000102216 9.99995 10.1001 -5.16892e-05 22.4001 -5.06139e-05ZM31.1001 3.89995C28.4001 2.59995 25.4001 1.99995 22.4001 1.99995C11.2001 1.99995 2.0001 11.0999 2.0001 22.3999C2.0001 33.5999 11.2001 42.6999 22.4001 42.7C25.4001 42.7 28.4001 42 31.1001 40.8C25.1001 36.6 21.4001 29.7 21.4001 22.4C21.4001 15 25.1001 8.09995 31.1001 3.89995Z" fill="#F6B800"></path> </g> <defs> <clipPath id="clip0"> <rect width="34.1" height="44.7" fill="white" transform="translate(34.1001 44.7) rotate(-180)"></rect> </clipPath> </defs> </svg> 