<?xml version="1.0" encoding="UTF-8"?> <svg xmlns="http://www.w3.org/2000/svg" width="261" height="338" viewBox="0 0 261 338" fill="none"> <g clip-path="url(#clip0)"> <path d="M232.77 314.555C226.555 314.555 220.696 312.601 215.725 308.694C215.37 308.338 215.014 307.983 215.014 307.45C215.014 306.917 215.192 306.385 215.547 306.029C227.621 293.419 235.61 277.789 238.984 260.738C239.161 260.205 239.339 259.85 239.872 259.494C240.227 259.317 240.759 259.139 241.292 259.317C253.188 263.047 261.178 273.881 261.178 286.314C261 301.767 248.394 314.555 232.77 314.555ZM219.453 306.917C223.359 309.582 227.976 310.825 232.77 310.825C246.441 310.825 257.449 299.813 257.449 286.137C257.449 275.835 251.235 266.954 242.002 263.224C238.451 279.565 230.639 294.662 219.453 306.917Z" fill="#B1304C"></path> <path d="M149.498 338C119.847 338 95.7 313.844 95.7 284.183C95.7 254.521 119.847 230.366 149.498 230.366C150.563 230.366 151.273 231.076 151.273 232.142C151.273 233.208 150.563 233.918 149.498 233.918C121.8 233.918 99.251 256.475 99.251 284.183C99.251 311.891 121.8 334.448 149.498 334.448C150.563 334.448 151.273 335.158 151.273 336.224C151.273 337.112 150.386 338 149.498 338Z" fill="#B1304C"></path> <path d="M149.498 338C97.298 338 54.8633 295.55 54.8633 243.332C54.8633 236.405 55.5735 229.3 57.1714 222.373C57.349 221.485 58.2367 220.952 59.1245 220.952C61.2551 221.13 63.3857 221.307 65.5163 221.307C99.6061 221.307 127.482 193.6 127.482 159.32C127.482 157.189 127.304 155.057 127.127 152.926C126.949 152.038 127.659 151.15 128.547 150.972C135.471 149.374 142.573 148.663 149.498 148.663C201.698 148.663 244.133 191.113 244.133 243.332C244.133 295.55 201.52 338 149.498 338ZM60.3674 224.682C59.1245 230.899 58.4143 237.115 58.4143 243.332C58.4143 293.596 99.251 334.448 149.498 334.448C199.745 334.448 240.582 293.596 240.582 243.332C240.582 193.067 199.745 152.215 149.498 152.215C143.284 152.215 137.069 152.926 130.855 154.169C131.033 155.945 131.033 157.544 131.033 159.32C131.033 195.376 101.737 224.86 65.5163 224.86C63.7408 224.86 61.9653 224.682 60.3674 224.682Z" fill="#B1304C"></path> <path d="M42.9674 149.906C40.8368 149.906 39.0613 148.13 39.0613 145.821C39.0613 143.512 40.8368 141.736 42.9674 141.736C45.098 141.736 46.8735 143.512 46.8735 145.821C46.8735 148.13 45.098 149.906 42.9674 149.906ZM42.9674 145.289C42.9674 145.289 42.6123 145.466 42.6123 145.821C42.6123 146.532 43.145 146.532 43.145 145.821C43.3225 145.466 43.145 145.289 42.9674 145.289Z" fill="#B1304C"></path> <path d="M57.3489 97.8655C56.6387 97.8655 56.106 97.5102 55.7509 96.7998C55.3958 96.0893 55.5734 95.3789 56.106 94.846L150.386 0.532845C150.918 2.11736e-06 151.628 -0.177612 152.339 0.177616C153.049 0.532845 153.404 1.06569 153.404 1.77614C152.339 34.1019 137.779 66.783 113.1 91.2937C111.324 93.0699 109.371 94.846 107.241 96.7998C106.886 97.155 106.53 97.3326 105.998 97.3326H65.5162C63.0305 97.3326 60.3672 97.5102 57.5264 97.8655H57.3489ZM149.675 6.2165L62.1427 93.958C63.3856 93.958 64.4509 93.7803 65.5162 93.7803H105.465C107.418 92.0042 109.194 90.4057 110.792 88.8071C133.518 66.0725 147.545 36.2333 149.675 6.2165Z" fill="#B1304C"></path> <path d="M149.32 131.79C139.555 131.79 129.612 130.724 119.847 128.77C119.314 128.593 118.959 128.415 118.604 127.882C107.418 109.055 87 97.5102 65.3387 97.5102C64.2734 97.5102 63.5632 96.7998 63.5632 95.7341C63.5632 94.6684 64.2734 93.958 65.3387 93.958H239.871C240.582 93.958 241.292 94.4908 241.469 95.0236C241.824 95.7341 241.647 96.4446 241.114 96.9774C217.678 119.002 184.12 131.79 149.32 131.79ZM121.445 125.396C130.678 127.349 140.088 128.238 149.32 128.238C181.635 128.238 212.706 117.048 235.255 97.5102H86.6449C101.026 102.306 113.455 112.075 121.445 125.396Z" fill="#B1304C"></path> <path d="M65.5163 224.86C29.2959 224.86 0 195.376 0 159.32C0 123.264 29.2959 93.7803 65.5163 93.7803C101.737 93.7803 131.033 123.087 131.033 159.32C131.033 195.553 101.559 224.86 65.5163 224.86ZM65.5163 97.3326C31.249 97.3326 3.55102 125.218 3.55102 159.32C3.55102 193.422 31.249 221.307 65.5163 221.307C99.6061 221.307 127.482 193.6 127.482 159.32C127.482 125.218 99.6061 97.3326 65.5163 97.3326Z" fill="#B1304C"></path> </g> <defs> <clipPath id="clip0"> <rect width="261" height="338" fill="white"></rect> </clipPath> </defs> </svg> 