<?xml version="1.0" encoding="UTF-8"?> <svg xmlns="http://www.w3.org/2000/svg" width="72" height="80" viewBox="0 0 72 80" fill="none"> <g clip-path="url(#clip0)"> <path d="M35.6001 79.5C35.0001 79.5 34.6001 79.1 34.6001 78.5V1C34.6001 0.4 35.0001 0 35.6001 0C36.2001 0 36.6001 0.4 36.6001 1V78.5C36.6001 79 36.1001 79.5 35.6001 79.5Z" fill="#F6B800"></path> <path d="M70.2 40.7H1C0.4 40.7 0 40.3 0 39.7C0 39.1 0.4 38.7 1 38.7H70.2C70.8 38.7 71.2 39.1 71.2 39.7C71.2 40.3 70.7 40.7 70.2 40.7Z" fill="#F6B800"></path> <path d="M16.7 59.6C16.4 59.6 16.2 59.5 16 59.3C15.6 58.9 15.6 58.3 16 57.9L53.7999 20.1C54.2 19.7 54.7999 19.7 55.2 20.1C55.6 20.5 55.6 21.1 55.2 21.5L17.4 59.4C17.2 59.5 16.9 59.6 16.7 59.6Z" fill="#F6B800"></path> <path d="M54.5 59.6C54.2 59.6 54 59.5 53.7999 59.3L16 21.5C15.6 21.1 15.6 20.5 16 20.1C16.4 19.7 17 19.7 17.4 20.1L55.2 57.9C55.6 58.3 55.6 58.9 55.2 59.3C55 59.5 54.7 59.6 54.5 59.6Z" fill="#F6B800"></path> </g> <defs> <clipPath id="clip0"> <rect width="71.2" height="79.5" fill="white"></rect> </clipPath> </defs> </svg> 