<?xml version="1.0" encoding="UTF-8"?> <svg xmlns="http://www.w3.org/2000/svg" width="72" height="88" viewBox="0 0 72 88" fill="none"> <g clip-path="url(#clip0)"> <path d="M29.462 75.8361C30.3525 80.2884 32.6422 84.1046 35.4408 87.5395C36.0771 88.3027 37.3491 88.0481 37.858 87.2849C40.1477 83.2142 42.0558 78.7619 42.5647 74.0554C42.6919 72.6561 40.5293 72.5287 40.2749 73.8008C39.3845 77.2354 38.1124 80.543 36.4587 83.723C35.8226 82.8326 35.1864 81.8149 34.6776 80.7972C35.568 81.6877 37.6036 81.3061 37.6036 79.6524C37.7308 58.9174 42.4375 37.5467 38.7484 17.066C38.494 15.4123 35.6954 15.7939 35.8226 17.4476C37.4764 38.3097 34.2959 58.79 34.1687 79.6524C34.1687 79.7796 34.1687 79.9068 34.1687 79.9068C33.4055 78.3803 32.8969 76.8538 32.515 75.0729C32.2604 73.0375 29.0804 73.8008 29.462 75.8361Z" fill="#FFC700"></path> </g> <g clip-path="url(#clip1)"> <path d="M29.462 59.8361C30.3525 64.2884 32.6422 68.1046 35.4408 71.5395C36.0771 72.3027 37.3491 72.0481 37.858 71.2849C40.1477 67.2142 42.0558 62.7619 42.5647 58.0554C42.6919 56.6561 40.5293 56.5287 40.2749 57.8008C39.3845 61.2354 38.1124 64.543 36.4587 67.723C35.8226 66.8326 35.1864 65.8149 34.6776 64.7972C35.568 65.6877 37.6036 65.3061 37.6036 63.6524C37.7308 42.9174 42.4375 21.5467 38.7484 1.06598C38.494 -0.587731 35.6954 -0.206101 35.8226 1.44761C37.4764 22.3097 34.2959 42.79 34.1687 63.6524C34.1687 63.7796 34.1687 63.9068 34.1687 63.9068C33.4055 62.3803 32.8969 60.8538 32.515 59.0729C32.2604 57.0375 29.0804 57.8008 29.462 59.8361Z" fill="#FFC700"></path> </g> <defs> <clipPath id="clip0"> <rect width="72" height="72" fill="white" transform="translate(72 88) rotate(-180)"></rect> </clipPath> <clipPath id="clip1"> <rect width="72" height="72" fill="white" transform="translate(72 72) rotate(-180)"></rect> </clipPath> </defs> </svg> 