<?xml version="1.0" encoding="UTF-8"?> <svg xmlns="http://www.w3.org/2000/svg" width="230" height="231" viewBox="0 0 230 231" fill="none"> <path fill-rule="evenodd" clip-rule="evenodd" d="M58.4004 178.135C41.7627 162.762 29.6296 142.095 29.6147 119.443C29.5999 97.1292 41.6461 76.6279 58.3235 61.8035C73.7643 48.0783 94.4242 44.4724 115.06 43.4913C136.514 42.4714 161.083 40.5043 175.719 56.2224C190.058 71.6201 184.071 95.4818 183.043 116.497C182.12 135.355 181.67 154.462 170.18 169.445C157.315 186.218 139.163 199.553 118.088 201.191C95.9824 202.91 74.6855 193.182 58.4004 178.135Z" fill="#FFC700"></path> <path d="M125.168 75H92.8324C79.6912 75 69 85.6912 69 98.8324V131.168C69 144.309 79.6912 155 92.8324 155H125.168C138.309 155 149 144.309 149 131.168V98.8324C149 85.6912 138.309 75 125.168 75ZM140.952 131.168C140.952 139.885 133.885 146.952 125.168 146.952H92.8324C84.115 146.952 77.048 139.885 77.048 131.168V98.8324C77.048 90.1149 84.115 83.048 92.8324 83.048H125.168C133.885 83.048 140.952 90.1149 140.952 98.8324V131.168Z" fill="url(#paint0_linear)"></path> <path d="M109 94.3091C97.5915 94.3091 88.3096 103.591 88.3096 115C88.3096 126.409 97.5915 135.691 109 135.691C120.409 135.691 129.691 126.409 129.691 115C129.691 103.591 120.409 94.3091 109 94.3091ZM109 127.643C102.018 127.643 96.3576 121.982 96.3576 115C96.3576 108.017 102.018 102.357 109 102.357C115.983 102.357 121.643 108.017 121.643 115C121.643 121.982 115.983 127.643 109 127.643Z" fill="url(#paint1_linear)"></path> <path d="M134.958 99.4223C137.696 99.4223 139.916 97.2025 139.916 94.4643C139.916 91.7261 137.696 89.5063 134.958 89.5063C132.22 89.5063 130 91.7261 130 94.4643C130 97.2025 132.22 99.4223 134.958 99.4223Z" fill="url(#paint2_linear)"></path> <defs> <linearGradient id="paint0_linear" x1="109" y1="154.767" x2="109" y2="75.6214" gradientUnits="userSpaceOnUse"> <stop stop-color="#E09B3D"></stop> <stop offset="0.3" stop-color="#C74C4D"></stop> <stop offset="0.6" stop-color="#C21975"></stop> <stop offset="1" stop-color="#7024C4"></stop> </linearGradient> <linearGradient id="paint1_linear" x1="109" y1="154.767" x2="109" y2="75.6213" gradientUnits="userSpaceOnUse"> <stop stop-color="#E09B3D"></stop> <stop offset="0.3" stop-color="#C74C4D"></stop> <stop offset="0.6" stop-color="#C21975"></stop> <stop offset="1" stop-color="#7024C4"></stop> </linearGradient> <linearGradient id="paint2_linear" x1="134.958" y1="154.767" x2="134.958" y2="75.6212" gradientUnits="userSpaceOnUse"> <stop stop-color="#E09B3D"></stop> <stop offset="0.3" stop-color="#C74C4D"></stop> <stop offset="0.6" stop-color="#C21975"></stop> <stop offset="1" stop-color="#7024C4"></stop> </linearGradient> </defs> </svg> 