<?xml version="1.0" encoding="UTF-8"?> <svg xmlns="http://www.w3.org/2000/svg" width="411" height="247" viewBox="0 0 411 247" fill="none"> <path d="M362.753 93.3913C362.573 93.3913 362.573 93.3913 362.393 93.3913C359.332 92.8504 356.452 92.6701 353.392 92.6701H293.443C292.543 92.6701 291.643 91.9489 291.643 90.8672C291.102 61.119 275.8 33.7146 250.777 17.6686C250.237 17.308 250.056 16.7672 249.876 16.2263C249.876 15.6854 250.056 15.1445 250.597 14.7839C263.198 5.22847 278.321 0.180298 294.343 0.180298C334.489 0.180298 367.074 32.8131 367.074 73.0183C367.074 79.5088 366.173 85.819 364.553 92.1292C364.373 92.8504 363.653 93.3913 362.753 93.3913ZM295.063 89.0642H353.392C355.912 89.0642 358.612 89.2445 361.313 89.6051C362.573 84.1964 363.293 78.6073 363.293 73.0183C363.293 34.7964 332.329 3.78614 294.163 3.78614C279.941 3.78614 266.259 8.11314 254.737 16.046C279.221 32.4526 294.163 59.4964 295.063 89.0642Z" fill="#E9B500"></path> <path d="M353.572 203.91H187.407C186.327 203.91 185.607 203.189 185.607 202.107C185.607 179.391 167.064 160.82 144.381 160.82C121.698 160.82 103.155 179.391 103.155 202.107C103.155 203.189 102.435 203.91 101.355 203.91H57.4284C25.7438 203.91 0 178.128 0 146.397C0 114.666 25.7438 88.8839 57.4284 88.8839H58.5085C64.6294 64.1839 87.1327 46.335 112.876 46.335C116.117 46.335 119.537 46.6956 122.778 47.2365C138.98 18.0292 169.585 0 203.07 0C252.397 0 293.443 39.8445 295.063 89.0642H353.392C385.076 89.0642 410.82 114.846 410.82 146.577C411 178.128 385.256 203.91 353.572 203.91ZM189.208 200.304H353.572C383.276 200.304 407.399 176.145 407.399 146.397C407.399 116.649 383.276 92.4898 353.572 92.4898H293.443C292.543 92.4898 291.643 91.7686 291.643 90.6869C290.742 42.7292 251.137 3.60584 203.07 3.60584C170.485 3.60584 140.601 21.4547 125.118 50.1212C124.758 50.8423 124.038 51.2029 123.138 51.0226C119.717 50.3015 116.117 49.9409 112.696 49.9409C88.2129 49.9409 66.7897 67.2489 61.569 91.2277C61.389 92.1292 60.6689 92.6701 59.7687 92.6701H57.2484C27.724 92.6701 3.60053 116.829 3.60053 146.397C3.60053 176.145 27.724 200.304 57.4284 200.304H99.5545C100.455 176.326 120.258 157.215 144.381 157.215C168.505 157.215 188.127 176.326 189.208 200.304Z" fill="#E9B500"></path> <path d="M144.381 247C119.718 247 99.5547 226.807 99.5547 202.107C99.5547 177.407 119.718 157.215 144.381 157.215C169.045 157.215 189.208 177.407 189.208 202.107C189.208 226.807 169.045 247 144.381 247ZM144.381 160.82C121.698 160.82 103.155 179.39 103.155 202.107C103.155 224.824 121.698 243.394 144.381 243.394C167.065 243.394 185.607 224.824 185.607 202.107C185.607 179.39 167.065 160.82 144.381 160.82Z" fill="#E9B500"></path> </svg> 