<?xml version="1.0" encoding="UTF-8"?> <svg xmlns="http://www.w3.org/2000/svg" width="394" height="215" viewBox="0 0 394 215" fill="none"> <path d="M224.077 96.0858C223.948 96.0858 223.82 96.0858 223.691 96.0858C223.177 95.9568 222.919 95.5699 222.791 95.054C220.733 82.2855 209.799 73.1284 196.936 73.1284C184.072 73.1284 173.139 82.4145 171.081 95.054C170.952 95.5699 170.695 95.9568 170.18 96.0858C169.666 96.2148 169.151 96.0858 168.894 95.6989C152.043 78.0294 129.532 67.4535 105.35 65.9058C104.964 65.9058 104.578 65.6479 104.321 65.2609C104.063 64.874 104.063 64.4871 104.192 64.1002C118.727 25.7948 156.031 0 197.064 0C237.969 0 275.273 25.7948 289.808 64.2292C289.937 64.6161 289.937 65.003 289.679 65.3899C289.422 65.7768 289.036 65.9058 288.65 66.0348C264.467 67.5825 241.828 78.1584 225.106 95.8278C224.849 95.9568 224.463 96.0858 224.077 96.0858ZM197.064 70.5489C210.313 70.5489 221.762 79.5771 224.977 92.2166C241.571 75.5789 263.438 65.5189 286.849 63.5843C272.185 26.9556 236.297 2.57948 197.064 2.57948C157.703 2.57948 121.943 26.9556 107.408 63.5843C130.819 65.5189 152.558 75.5789 169.28 92.2166C172.367 79.4481 183.687 70.5489 197.064 70.5489Z" fill="#009120"></path> <path d="M265.111 70.42C264.596 70.42 264.21 70.1621 263.953 69.6462C252.248 43.2064 226.007 26.0529 197.064 26.0529C168.122 26.0529 141.881 43.2064 130.176 69.6462C129.918 70.291 129.147 70.549 128.503 70.291C127.86 70.0331 127.603 69.2592 127.86 68.6144C139.952 41.1429 167.222 23.4734 197.064 23.4734C226.907 23.4734 254.177 41.1429 266.268 68.6144C266.526 69.2592 266.268 70.0331 265.625 70.291C265.368 70.42 265.239 70.42 265.111 70.42Z" fill="#009120"></path> <path d="M243.758 80.2219C243.243 80.2219 242.729 79.9639 242.6 79.448C234.625 61.2627 216.745 49.526 197.064 49.526C177.384 49.526 159.375 61.2627 151.528 79.448C151.271 80.0929 150.499 80.3508 149.856 80.0929C149.213 79.8349 148.956 79.0611 149.213 78.4162C157.574 59.3281 176.354 46.9465 197.064 46.9465C217.774 46.9465 236.683 59.3281 244.915 78.4162C245.173 79.0611 244.915 79.8349 244.272 80.0929C244.144 80.2219 243.886 80.2219 243.758 80.2219Z" fill="#009120"></path> <path d="M369.302 163.926C368.531 163.926 368.016 163.41 368.016 162.636C368.016 122.268 335.215 89.2501 294.825 89.2501C269.87 89.2501 246.845 101.761 233.338 122.912C232.952 123.557 232.181 123.686 231.538 123.299C230.894 122.912 230.766 122.139 231.152 121.494C245.173 99.6971 268.969 86.6707 294.825 86.6707C336.63 86.6707 370.589 120.72 370.589 162.636C370.589 163.281 369.946 163.926 369.302 163.926Z" fill="#009120"></path> <path d="M345.892 163.926C345.12 163.926 344.605 163.41 344.605 162.636C344.605 135.165 322.352 112.852 294.953 112.852C278.746 112.852 263.567 120.849 254.306 134.133C253.92 134.778 253.148 134.907 252.505 134.391C251.862 134.004 251.733 133.23 252.247 132.585C262.023 118.656 277.974 110.273 295.082 110.273C323.895 110.273 347.306 133.746 347.306 162.636C347.178 163.281 346.535 163.926 345.892 163.926Z" fill="#009120"></path> <path d="M392.714 163.926H322.352C321.58 163.926 321.066 163.41 321.066 162.636C321.066 148.191 309.231 136.326 294.825 136.326C285.306 136.326 276.559 141.485 271.928 149.868C271.671 150.255 271.414 150.513 270.899 150.513C270.513 150.513 270.127 150.384 269.741 150.126C253.92 131.941 232.181 120.333 208.384 117.495C207.998 117.495 207.612 117.237 207.355 116.851C207.098 116.464 207.098 116.077 207.355 115.69C224.849 83.3172 258.293 63.1973 294.825 63.1973C349.493 63.1973 394 107.822 394 162.636C394 163.281 393.485 163.926 392.714 163.926ZM323.638 161.347H391.427C390.784 108.596 347.692 65.7768 294.825 65.7768C259.837 65.7768 227.679 84.607 210.571 115.174C233.724 118.398 254.82 129.619 270.513 147.031C275.787 138.776 284.92 133.746 294.825 133.746C310.389 133.746 322.995 145.999 323.638 161.347Z" fill="#009120"></path> <path d="M24.6975 163.926C23.9257 163.926 23.4111 163.41 23.4111 162.636C23.4111 120.72 57.37 86.6707 99.1754 86.6707C124.902 86.6707 148.699 99.6971 162.72 121.365C163.106 122.01 162.977 122.783 162.334 123.17C161.691 123.557 160.919 123.428 160.533 122.783C147.027 101.761 124.001 89.2501 99.0468 89.2501C58.785 89.2501 25.8551 122.139 25.8551 162.636C25.9838 163.281 25.4692 163.926 24.6975 163.926Z" fill="#009120"></path> <path d="M48.237 163.926C47.4652 163.926 46.9507 163.41 46.9507 162.636C46.9507 133.746 70.3617 110.273 99.1753 110.273C116.155 110.273 132.234 118.656 142.01 132.585C142.396 133.23 142.267 134.004 141.753 134.391C141.109 134.778 140.338 134.649 139.952 134.133C130.69 120.849 115.383 112.981 99.3039 112.981C71.9053 112.981 49.652 135.294 49.652 162.765C49.5233 163.281 48.8802 163.926 48.237 163.926Z" fill="#009120"></path> <path d="M71.6481 163.926H1.28632C0.514528 163.926 0 163.41 0 162.636C0 107.822 44.5067 63.1973 99.1753 63.1973C135.707 63.1973 169.28 83.3172 186.516 115.561C186.774 115.948 186.774 116.335 186.516 116.722C186.259 117.108 186.002 117.366 185.487 117.366C161.69 120.204 139.952 131.812 124.13 149.997C123.873 150.255 123.487 150.513 122.972 150.384C122.586 150.384 122.2 150.126 121.943 149.739C117.312 141.356 108.565 136.197 99.0467 136.197C84.6399 136.197 72.8057 148.062 72.8057 162.507C72.9344 163.281 72.2912 163.926 71.6481 163.926ZM2.57264 161.347H70.3617C71.0049 145.999 83.7395 133.746 99.1753 133.746C109.08 133.746 118.213 138.776 123.487 147.031C139.18 129.619 160.276 118.398 183.429 115.174C166.193 84.736 134.163 65.7768 99.1753 65.7768C46.3075 65.7768 3.2158 108.596 2.57264 161.347Z" fill="#009120"></path> <path d="M294.825 215H224.463C223.691 215 223.177 214.484 223.177 213.71C223.177 199.136 211.342 187.4 196.936 187.4C182.4 187.4 170.695 199.265 170.695 213.71C170.695 214.484 170.18 215 169.408 215H99.1752C98.4034 215 97.8889 214.484 97.8889 213.71C97.8889 158.896 142.396 114.271 197.064 114.271C251.733 114.271 296.24 158.896 296.24 213.71C296.111 214.355 295.596 215 294.825 215ZM225.749 212.421H293.538C292.895 159.67 249.803 116.851 196.936 116.851C144.068 116.851 101.105 159.541 100.333 212.421H168.122C168.765 197.073 181.5 184.82 196.936 184.82C212.5 184.82 225.106 197.073 225.749 212.421Z" fill="#009120"></path> <path d="M271.414 215C270.642 215 270.127 214.484 270.127 213.71C270.127 173.213 237.326 140.324 196.936 140.324C156.545 140.324 123.744 173.213 123.744 213.71C123.744 214.484 123.23 215 122.458 215C121.686 215 121.171 214.484 121.171 213.71C121.171 171.794 155.13 137.745 196.936 137.745C238.741 137.745 272.7 171.794 272.7 213.71C272.7 214.355 272.185 215 271.414 215Z" fill="#009120"></path> <path d="M248.003 215C247.231 215 246.716 214.484 246.716 213.71C246.716 186.239 224.463 163.926 197.064 163.926C169.666 163.926 147.412 186.239 147.412 213.71C147.412 214.484 146.898 215 146.126 215C145.354 215 144.84 214.484 144.84 213.71C144.84 184.82 168.251 161.347 197.064 161.347C225.878 161.347 249.289 184.82 249.289 213.71C249.289 214.355 248.646 215 248.003 215Z" fill="#009120"></path> <g clip-path="url(#clip0)"> <path d="M347.4 208.8C341.7 208.8 337 204.1 337 198.4C337 192.7 341.7 188 347.4 188C353.1 188 357.8 192.7 357.8 198.4C357.8 204.1 353.1 208.8 347.4 208.8ZM347.4 190C342.8 190 339 193.8 339 198.4C339 203 342.8 206.8 347.4 206.8C352 206.8 355.8 203 355.8 198.4C355.8 193.8 352 190 347.4 190Z" fill="#222221"></path> </g> <defs> <clipPath id="clip0"> <rect width="20.8" height="20.8" fill="white" transform="translate(337 188)"></rect> </clipPath> </defs> </svg> 