<?xml version="1.0" encoding="UTF-8"?> <svg xmlns="http://www.w3.org/2000/svg" width="91" height="89" viewBox="0 0 91 89" fill="none"> <path d="M8.37231 62.6296C-10.294 45.231 18.411 10.2362 53.5432 11.7419C69.412 12.4221 92.4486 28.3564 88.8415 45.7362C85.7022 60.7964 57.4 54.6561 48.054 67.083C18.0951 106.869 19.6544 73.1328 8.37231 62.6296Z" fill="#2D5F4F"></path> <path d="M25.4219 46.0078L22.3203 46C21.3359 46 20.8438 45.6901 20.8438 45.0703C20.8438 44.3724 21.3932 44.0234 22.4922 44.0234C22.5964 44.0234 22.7109 44.026 22.8359 44.0312V37.1016C22.3828 37.4141 22.0885 37.5703 21.9531 37.5703C21.6615 37.5703 21.4062 37.4661 21.1875 37.2578C20.974 37.0495 20.8672 36.8073 20.8672 36.5312C20.8672 36.2448 21.0417 35.9505 21.3906 35.6484L22.2734 35.0078L23.2266 34.2422C23.6172 33.9609 23.9948 33.8203 24.3594 33.8203C24.8281 33.8203 25.0625 34.1016 25.0625 34.6641C25.0625 35.2839 25.0365 36.1562 24.9844 37.2812C24.9323 38.4062 24.9062 40.013 24.9062 42.1016V43.9922H25.4219C25.724 43.9922 25.9766 44.0885 26.1797 44.2812C26.388 44.474 26.4922 44.7135 26.4922 45C26.4922 45.2865 26.388 45.526 26.1797 45.7188C25.9766 45.9115 25.724 46.0078 25.4219 46.0078ZM36.6406 46.0156C36.5104 46.0156 36.3073 45.9948 36.0312 45.9531C35.7604 45.9062 35.5651 45.8828 35.4453 45.8828L33.1484 45.875C32.9505 45.875 32.651 45.901 32.25 45.9531C31.849 46 31.5469 46.0234 31.3438 46.0234C31.2865 46.0234 31.2031 46.013 31.0938 45.9922C30.9844 45.9714 30.901 45.9609 30.8438 45.9609C30.375 45.9609 30.0573 45.7708 29.8906 45.3906C29.7865 45.151 29.7344 44.7812 29.7344 44.2812C29.7344 43.3073 29.9505 42.4922 30.3828 41.8359C30.7161 41.3307 31.2552 40.8255 32 40.3203C32.7031 39.8568 33.4036 39.3958 34.1016 38.9375C34.9245 38.3385 35.3359 37.6589 35.3359 36.8984C35.3359 36.7005 35.1719 36.5052 34.8438 36.3125C34.5156 36.1146 34.1953 36.0156 33.8828 36.0156C33.3307 36.0156 32.7448 36.263 32.125 36.7578C31.5104 37.2474 31.0885 37.4922 30.8594 37.4922C30.5833 37.4922 30.3411 37.4245 30.1328 37.2891C29.8724 37.1224 29.7422 36.8906 29.7422 36.5938C29.7422 36.276 29.8724 36.0026 30.1328 35.7734C30.763 35.2161 31.3125 34.8099 31.7812 34.5547C32.4583 34.1849 33.1589 34 33.8828 34C34.7839 34 35.5964 34.237 36.3203 34.7109C37.1484 35.2526 37.5625 35.9609 37.5625 36.8359C37.5625 37.7214 37.3594 38.474 36.9531 39.0938C36.6354 39.5885 36.1328 40.0703 35.4453 40.5391C34.7943 40.9505 34.1432 41.3594 33.4922 41.7656C32.5026 42.4115 31.9714 43.1484 31.8984 43.9766C32.1849 43.9401 32.6068 43.8984 33.1641 43.8516C34.2734 43.7943 35.0677 43.7656 35.5469 43.7656C35.9948 43.7656 36.4375 43.862 36.875 44.0547C37.4167 44.2943 37.6875 44.6016 37.6875 44.9766C37.6875 45.2474 37.5911 45.4844 37.3984 45.6875C37.1953 45.9062 36.9427 46.0156 36.6406 46.0156ZM53.9297 46.3047C53.6172 46.3047 53.3568 46.2083 53.1484 46.0156C52.9453 45.8229 52.8438 45.5807 52.8438 45.2891C52.8438 45.1328 52.8307 44.9193 52.8047 44.6484C52.7734 44.3411 52.7552 44.1302 52.75 44.0156C52.7344 43.6198 52.7266 43.1094 52.7266 42.4844C52.7266 42.2552 52.737 41.3906 52.7578 39.8906C52.513 39.9115 52.2708 39.9219 52.0312 39.9219C51.2708 39.9219 50.5312 39.9089 49.8125 39.8828L49.8281 41.4062C49.8281 42.9844 49.7031 44.1068 49.4531 44.7734C49.0781 45.763 48.3438 46.2578 47.25 46.2578C46.8125 46.2578 46.4219 46.1693 46.0781 45.9922C45.6198 45.7578 45.3906 45.4115 45.3906 44.9531C45.3906 44.6979 45.4792 44.4766 45.6562 44.2891C45.8385 44.1016 46.0755 44.0078 46.3672 44.0078C46.4818 44.0078 46.6354 44.0443 46.8281 44.1172C47.0208 44.1901 47.1615 44.2266 47.25 44.2266C47.6042 44.2266 47.7812 43.5573 47.7812 42.2188C47.7812 41.8385 47.7526 41.2708 47.6953 40.5156C47.6432 39.7604 47.6172 39.1927 47.6172 38.8125C47.6172 38.5052 47.7292 38.2604 47.9531 38.0781C48.1771 37.8958 48.4453 37.8047 48.7578 37.8047C48.8932 37.8047 49.0755 37.8099 49.3047 37.8203C49.5911 37.8411 49.7734 37.8542 49.8516 37.8594C50.4193 37.8802 51.1458 37.8906 52.0312 37.8906C52.224 37.8906 52.5104 37.8568 52.8906 37.7891C53.2708 37.7214 53.5599 37.6875 53.7578 37.6875C54.5443 37.6875 54.9375 38.0182 54.9375 38.6797C54.9375 39.1016 54.9297 39.7344 54.9141 40.5781C54.9036 41.4167 54.8984 42.0443 54.8984 42.4609C54.8984 43.0547 54.9062 43.5469 54.9219 43.9375C54.9271 44.0625 54.9453 44.2891 54.9766 44.6172C55.0078 44.8984 55.0234 45.1224 55.0234 45.2891C55.0234 45.5807 54.9193 45.8229 54.7109 46.0156C54.5026 46.2083 54.2422 46.3047 53.9297 46.3047ZM60.5625 46.3594C59.3177 46.3594 58.2995 46.0625 57.5078 45.4688C56.6328 44.8125 56.1953 43.888 56.1953 42.6953C56.1953 41.3776 56.5417 40.263 57.2344 39.3516C58.0052 38.3411 59.0443 37.8359 60.3516 37.8359C61.2578 37.8359 62.0104 37.9818 62.6094 38.2734C63.3958 38.6589 63.7891 39.2578 63.7891 40.0703C63.7891 40.6432 63.4688 41.151 62.8281 41.5938C62.5365 41.7969 61.9505 42.0938 61.0703 42.4844L58.4375 43.6484C58.6875 43.9193 58.9896 44.1224 59.3438 44.2578C59.6979 44.3932 60.1042 44.4609 60.5625 44.4609C61.2604 44.4609 61.8516 44.3177 62.3359 44.0312C62.7682 43.776 63.1146 43.6484 63.375 43.6484C63.9167 43.6484 64.1875 43.9115 64.1875 44.4375C64.1875 45.0312 63.7526 45.5156 62.8828 45.8906C62.1536 46.2031 61.3802 46.3594 60.5625 46.3594ZM60.3516 39.7266C59.8672 39.7266 59.4531 39.888 59.1094 40.2109C58.7656 40.5339 58.4896 41.0182 58.2812 41.6641C58.8698 41.4089 59.4557 41.1562 60.0391 40.9062C60.7422 40.5885 61.3021 40.2943 61.7188 40.0234C61.3698 39.8255 60.9141 39.7266 60.3516 39.7266ZM71.0938 39.8203C70.9531 39.8203 70.7422 39.8151 70.4609 39.8047C70.1849 39.7891 69.9766 39.7812 69.8359 39.7812C69.7578 39.7812 69.6719 39.7865 69.5781 39.7969C69.6875 42.1354 69.7422 43.7865 69.7422 44.75C69.7422 45.9167 69.362 46.5 68.6016 46.5C68.3203 46.5 68.0729 46.4141 67.8594 46.2422C67.6302 46.0599 67.5156 45.8281 67.5156 45.5469C67.5156 45.3646 67.5234 45.0885 67.5391 44.7188C67.5547 44.3438 67.5625 44.0651 67.5625 43.8828C67.5625 43.1693 67.5156 41.8177 67.4219 39.8281C67.3281 39.8281 67.0964 39.8281 66.7266 39.8281C66.1953 39.8281 65.8073 39.7786 65.5625 39.6797C65.1719 39.5234 64.9766 39.224 64.9766 38.7812C64.9766 38.5 65.0729 38.2578 65.2656 38.0547C65.4635 37.8464 65.7188 37.7422 66.0312 37.7422H70.6484C71.6641 37.7422 72.1719 38.0911 72.1719 38.7891C72.1719 39.0807 72.0703 39.3255 71.8672 39.5234C71.6693 39.7214 71.4115 39.8203 71.0938 39.8203Z" fill="white"></path> </svg> 