<?xml version="1.0" encoding="UTF-8"?> <svg xmlns="http://www.w3.org/2000/svg" width="81" height="82" viewBox="0 0 81 82" fill="none"> <path d="M6.67116 58.6456C-10.1082 43.0058 15.6951 11.5485 47.2758 12.9021C61.5405 13.5135 82.2483 27.837 79.0058 43.46C76.1839 56.9977 50.7427 51.4781 42.3415 62.6488C15.4111 98.4127 16.8127 68.0871 6.67116 58.6456Z" fill="#9982FA"></path> <path d="M18.3638 46.4219C17.2075 46.4219 16.2596 46.1771 15.52 45.6875C14.6606 45.1146 14.2231 44.2786 14.2075 43.1797C14.1815 41.6432 14.6867 40.5417 15.7231 39.875C14.9679 39.276 14.5903 38.5234 14.5903 37.6172C14.5903 36.5911 14.981 35.7396 15.7622 35.0625C16.507 34.4167 17.4054 34.0885 18.4575 34.0781C19.7023 34.0677 20.6346 34.3984 21.2544 35.0703C21.7856 35.6536 22.0513 36.4505 22.0513 37.4609C22.0513 38.0286 21.9497 38.4844 21.7466 38.8281C21.5643 39.1354 21.2596 39.4141 20.8325 39.6641C21.4679 40.0182 21.9237 40.4297 22.1997 40.8984C22.5174 41.4193 22.6763 42.1042 22.6763 42.9531C22.6763 44.0677 22.2414 44.9401 21.3716 45.5703C20.5851 46.138 19.5825 46.4219 18.3638 46.4219ZM18.4341 36C17.2935 36 16.7284 36.5365 16.7388 37.6094C16.744 38.1458 17.2362 38.5391 18.2153 38.7891C18.7622 38.638 19.1398 38.5 19.3481 38.375C19.7179 38.151 19.9028 37.8464 19.9028 37.4609C19.9028 36.8776 19.7778 36.4792 19.5278 36.2656C19.3195 36.0885 18.9549 36 18.4341 36ZM18.3169 40.7344C17.5669 41.0625 17.0721 41.3516 16.8325 41.6016C16.4836 41.9505 16.3195 42.4479 16.3403 43.0938C16.356 43.599 16.6007 43.9792 17.0747 44.2344C17.4445 44.4323 17.8742 44.5312 18.3638 44.5312C19.1815 44.5312 19.744 44.3594 20.0513 44.0156C20.2909 43.7448 20.4106 43.3125 20.4106 42.7188C20.4106 42.1823 20.1997 41.7474 19.7778 41.4141C19.4601 41.1641 18.9731 40.9375 18.3169 40.7344ZM33.231 39.7422C33.2674 40.0078 33.3091 40.4036 33.356 40.9297C33.4341 43.0339 33.4731 44.5052 33.4731 45.3438C33.4731 45.6354 33.369 45.8776 33.1606 46.0703C32.9523 46.263 32.6919 46.3594 32.3794 46.3594C32.0669 46.3594 31.8065 46.263 31.5981 46.0703C31.395 45.8776 31.2935 45.6354 31.2935 45.3438C31.2935 44.5365 31.257 43.0859 31.1841 40.9922C31.1789 40.7995 31.145 40.4818 31.0825 40.0391C31.0304 39.6328 31.0044 39.3177 31.0044 39.0938C31.0044 38.1823 31.7101 37.7266 33.1216 37.7266C33.4132 37.7266 33.8534 37.7396 34.4419 37.7656C35.0356 37.7917 35.4784 37.8047 35.77 37.8047C35.8898 37.8047 36.0669 37.7969 36.3013 37.7812C36.5409 37.7604 36.7205 37.75 36.8403 37.75C37.1476 37.75 37.4054 37.8516 37.6138 38.0547C37.8065 38.2526 37.9028 38.4922 37.9028 38.7734C37.9028 39.2526 37.6554 39.5677 37.1606 39.7188C36.9054 39.7969 36.4601 39.8359 35.8247 39.8359C35.5487 39.8359 35.1164 39.8203 34.5278 39.7891C33.9601 39.7578 33.5278 39.7422 33.231 39.7422ZM42.3794 46.4844C41.2023 46.4844 40.1971 46.1589 39.3638 45.5078C38.4731 44.8047 38.0278 43.8958 38.0278 42.7812C38.0278 41.5208 38.4393 40.3672 39.2622 39.3203C40.2049 38.1172 41.4054 37.5156 42.8638 37.5156C45.6554 37.5156 47.0513 38.75 47.0513 41.2188C47.0513 42.4792 46.6737 43.625 45.9185 44.6562C45.0226 45.875 43.8429 46.4844 42.3794 46.4844ZM42.8638 39.5703C42.1711 39.5703 41.5669 39.9036 41.0513 40.5703C40.5356 41.2318 40.2778 41.9688 40.2778 42.7812C40.2778 43.2708 40.4731 43.6693 40.8638 43.9766C41.2596 44.2839 41.7648 44.4375 42.3794 44.4375C43.0513 44.4375 43.6268 44.1042 44.106 43.4375C44.5695 42.7969 44.8013 42.0573 44.8013 41.2188C44.8013 40.5677 44.6659 40.1302 44.395 39.9062C44.1294 39.6823 43.619 39.5703 42.8638 39.5703ZM55.6138 48C55.119 48 54.7909 47.7891 54.6294 47.3672C54.5252 47.1016 54.4836 46.6849 54.5044 46.1172H50.481C50.4393 46.1172 50.0825 46.1432 49.4106 46.1953C49.4106 46.2786 49.4132 46.4115 49.4185 46.5938C49.4237 46.7812 49.4263 46.9245 49.4263 47.0234C49.4263 47.3203 49.3221 47.5651 49.1138 47.7578C48.9106 47.9505 48.6528 48.0469 48.3403 48.0469C47.5903 48.0469 47.2153 47.5859 47.2153 46.6641C47.2153 46.4766 47.2205 46.224 47.231 45.9062C47.2414 45.5885 47.2466 45.3385 47.2466 45.1562C47.2466 44.8542 47.3507 44.6068 47.5591 44.4141C47.7518 44.237 47.9992 44.1432 48.3013 44.1328C48.7648 43.4766 49.0825 42.6979 49.2544 41.7969C49.3742 41.1562 49.4341 40.3151 49.4341 39.2734C49.4341 38.2474 49.9914 37.7344 51.106 37.7344C51.2362 37.7344 51.4784 37.7448 51.8325 37.7656C52.1919 37.7812 52.4757 37.7891 52.6841 37.7891C52.882 37.7891 53.1763 37.7734 53.5669 37.7422C53.9575 37.7109 54.2388 37.6953 54.4106 37.6953C54.9315 37.6953 55.2778 37.8906 55.4497 38.2812C55.5539 38.5156 55.606 38.9062 55.606 39.4531C55.606 39.6771 55.5903 40.0104 55.5591 40.4531C55.533 40.8958 55.52 41.2292 55.52 41.4531C55.52 41.651 55.533 42.6016 55.5591 44.3047C56.2987 44.3776 56.6685 44.7161 56.6685 45.3203C56.6685 45.5234 56.6737 45.7995 56.6841 46.1484C56.6945 46.4974 56.6997 46.7708 56.6997 46.9688C56.6997 47.2656 56.5955 47.5104 56.3872 47.7031C56.1841 47.901 55.9263 48 55.6138 48ZM50.5435 44.2188H53.3794C53.3534 42.5052 53.3403 41.5833 53.3403 41.4531C53.3403 41.2448 53.3534 40.9349 53.3794 40.5234C53.4106 40.013 53.4263 39.7005 53.4263 39.5859C52.5044 39.612 51.8924 39.6172 51.5903 39.6016C51.5435 41.4036 51.1945 42.9427 50.5435 44.2188ZM64.2935 46.5156C64.0539 46.5156 63.6737 46.2552 63.1528 45.7344C62.6737 45.9635 62.2518 46.1354 61.8872 46.25C61.5226 46.3698 61.2127 46.4297 60.9575 46.4297C59.7023 46.4297 58.7596 46.0938 58.1294 45.4219C57.5044 44.75 57.1919 43.7448 57.1919 42.4062C57.1919 41.151 57.6554 40.0781 58.5825 39.1875C59.5096 38.2917 60.619 37.8438 61.9106 37.8438C62.4054 37.8438 62.9784 37.9844 63.6294 38.2656C64.4159 38.6042 64.8091 38.9974 64.8091 39.4453C64.8091 39.6328 64.7492 39.7969 64.6294 39.9375C64.5773 40.1458 64.5356 40.4089 64.5044 40.7266C64.4784 41.0391 64.4653 41.4062 64.4653 41.8281C64.4653 42.8229 64.5356 43.5391 64.6763 43.9766C64.6919 44.0234 64.8117 44.2943 65.0356 44.7891C65.2388 45.237 65.3403 45.4922 65.3403 45.5547C65.3403 45.8307 65.2336 46.0599 65.02 46.2422C64.8117 46.4245 64.5695 46.5156 64.2935 46.5156ZM62.356 41.1562C62.356 40.9896 62.3664 40.7995 62.3872 40.5859C62.4132 40.3672 62.4497 40.125 62.4966 39.8594C62.3924 39.8073 62.2987 39.7708 62.2153 39.75C62.1372 39.724 62.0695 39.7109 62.0122 39.7109C61.3039 39.7109 60.6841 39.9896 60.1528 40.5469C59.6216 41.099 59.356 41.7396 59.356 42.4688C59.356 43.1667 59.481 43.6927 59.731 44.0469C59.981 44.3958 60.356 44.5703 60.856 44.5703C61.1789 44.5703 61.4836 44.5182 61.77 44.4141C62.0617 44.3047 62.3351 44.1458 62.5903 43.9375C62.4341 42.6979 62.356 41.7708 62.356 41.1562Z" fill="white"></path> </svg> 