<?xml version="1.0" encoding="UTF-8"?> <svg xmlns="http://www.w3.org/2000/svg" width="75" height="98" viewBox="0 0 75 98" fill="none"> <path d="M25.7331 98C17.1554 98 8.57771 95.8076 1.09971 91.4228C0.439883 91.2036 0 90.3266 0 89.6689C0 88.792 0.439883 88.1342 1.09971 87.6958C14.956 79.8031 23.5337 64.8949 23.5337 49.1096C23.5337 33.3244 14.956 18.4161 1.09971 10.5235C0.439883 10.085 0 9.20805 0 8.55034C0 7.89262 0.439883 7.01566 1.09971 6.57718C8.57771 2.19239 17.1554 0 25.7331 0C52.7859 0 75 21.9239 75 49.1096C75 76.0761 52.7859 98 25.7331 98ZM6.59824 89.4497C12.5367 92.2998 19.1349 93.6152 25.7331 93.6152C50.3666 93.6152 70.6012 73.6644 70.6012 48.8904C70.6012 24.3356 50.3666 4.38479 25.7331 4.38479C19.1349 4.38479 12.5367 5.91946 6.59824 8.55034C19.7947 17.7584 27.9326 32.8859 27.9326 48.8904C27.9326 65.1141 19.7947 80.2416 6.59824 89.4497Z" fill="#F6B800"></path> </svg> 