<?xml version="1.0" encoding="UTF-8"?> <svg xmlns="http://www.w3.org/2000/svg" width="190" height="55" viewBox="0 0 190 55" fill="none"> <path d="M66.4362 46.0423C67.5362 46.5423 68.9362 45.6423 69.8362 47.0423C68.4362 47.9423 66.9362 48.1423 65.4362 47.9423C64.6362 47.8423 63.8362 47.7423 63.0362 47.9423C61.1362 48.6423 59.6362 48.6423 59.6362 45.8423C59.6362 44.5423 55.0362 42.2423 53.5362 42.5423C51.6362 42.8423 49.3362 42.8423 48.0362 43.5423C44.4362 45.5423 40.1362 46.4423 37.5362 49.9423C37.0362 50.6423 36.3362 50.5423 35.6362 50.7423C33.2362 51.6423 30.2362 51.3423 28.7362 54.2423C28.1362 55.4423 27.9362 53.0423 26.6362 53.6423C25.2362 54.3423 23.4362 54.3423 21.8362 54.4423C17.8362 54.7423 15.6362 53.7423 14.9362 50.0423C14.4362 47.6423 13.5362 48.5423 12.2362 48.8423C12.7362 47.6423 13.8362 46.5423 11.5362 46.3423C10.0362 46.2423 9.9362 44.4423 9.2362 43.5423C8.7362 42.8423 9.8362 43.2423 10.2362 43.0423C10.9362 42.7423 11.7362 42.5423 11.8362 41.6423C11.0362 41.5423 11.2362 39.8423 9.8362 40.4423C8.9362 40.8423 7.93619 40.2423 7.03619 39.5423C7.83619 41.6423 6.0362 43.0423 5.8362 44.9423C5.7362 46.3423 5.13619 47.7423 5.53619 49.1423C5.83619 50.1423 5.0362 50.5423 4.7362 50.0423C3.8362 48.4423 1.6362 48.1423 1.2362 46.0423C1.1362 45.2423 1.53619 45.1423 2.03619 44.8423C2.53619 44.6423 3.8362 45.0423 3.3362 44.2423C2.3362 42.7423 2.83619 41.2423 2.63619 39.7423C0.836192 41.4423 1.2362 38.5423 0.236198 38.4423C-0.0638019 38.4423 -0.263803 36.6423 0.836197 36.6423C3.8362 36.6423 3.5362 34.2423 3.4362 32.7423C3.2362 30.3423 4.43619 29.2423 6.13619 28.1423C7.13619 28.6423 5.73619 30.5423 7.53619 30.6423C8.93619 30.7423 8.8362 29.3423 9.4362 28.6423C9.7362 28.2423 10.2362 27.8423 9.8362 27.2423C9.4362 26.6423 8.8362 27.0423 8.3362 27.1423C5.8362 27.8423 6.13619 25.4423 6.53619 24.9423C8.13619 23.2423 8.7362 20.8423 10.7362 19.5423C12.8362 18.1423 14.2362 18.6423 14.6362 21.1423C14.6362 21.4423 14.8362 21.6423 15.0362 21.8423C19.0362 25.6423 18.2362 30.5423 17.9362 35.2423C17.7362 39.2423 17.8362 39.4423 21.8362 38.4423C26.4362 37.3423 30.6362 35.0423 34.8362 32.9423C39.7362 30.6423 44.5362 28.0423 49.8362 26.6423C54.0362 25.5423 57.8362 26.2423 60.6362 29.8423C62.1362 31.7423 63.6362 31.9423 65.8362 31.1423C73.1362 28.3423 79.7362 24.2423 86.4362 20.3423C89.7362 18.4423 93.2362 16.9423 96.7362 15.6423C100.836 14.1423 105.136 15.1423 108.136 18.5423C110.936 21.6423 114.136 22.4423 118.136 21.8423C129.236 20.2423 139.836 16.6423 150.336 13.0423C161.236 9.24228 171.836 5.04228 182.436 0.542278C183.036 0.342278 183.636 0.0422782 184.236 0.0422782C185.236 -0.0577218 186.536 -0.0577202 186.836 0.94228C187.136 1.74228 185.836 1.94228 185.236 2.44228C184.636 2.94228 183.236 2.94228 183.736 3.94228C184.236 5.04228 185.336 4.14228 186.136 4.14228C187.236 4.04228 189.936 2.64228 187.936 5.84228C187.836 6.04228 187.936 6.34228 188.036 6.54228C190.436 9.74228 189.236 12.5423 185.236 14.1423C182.536 15.2423 179.736 16.6423 177.236 18.1423C172.336 21.1423 167.036 23.3423 161.936 25.8423C152.936 30.2423 143.836 34.1423 134.336 37.3423C128.836 39.1423 123.136 40.1423 117.236 39.9423C116.336 39.9423 115.436 39.9423 114.636 40.6423C115.336 41.3423 116.236 41.7423 117.136 41.9423C115.636 41.6423 113.936 41.7423 112.836 40.2423C112.336 39.6423 111.736 39.6423 110.936 39.5423C109.936 39.3423 108.236 39.2423 109.136 37.3423C109.236 37.2423 109.236 37.0423 109.236 36.8423C106.936 37.4423 107.736 34.6423 106.436 34.3423C104.736 33.9423 103.436 33.0423 102.236 31.7423C101.336 30.8423 100.136 30.8423 98.9362 31.0423C97.9362 31.2423 96.7362 32.7423 96.5362 30.3423C96.5362 30.3423 95.8362 30.2423 95.5362 30.3423C94.9362 30.5423 94.9362 31.0423 95.2362 31.4423C95.8362 32.5423 95.6362 33.5423 94.5362 33.8423C92.8362 34.3423 91.7362 36.2423 89.7362 36.1423C88.7362 36.0423 89.2362 34.7423 88.4362 34.1423C87.8362 35.5423 85.3362 35.8423 86.2362 38.0423C86.2362 38.1423 86.0362 38.4423 85.9362 38.4423C84.1362 38.2423 83.9362 39.1423 83.5362 40.7423C83.1362 42.4423 80.7362 42.5423 79.2362 43.1423C79.0362 43.2423 78.5362 43.3423 78.5362 43.5423C78.4362 47.2423 75.3362 44.8423 73.9362 45.7423C73.5362 46.0423 73.1362 45.5423 72.7362 45.0423C71.3362 42.8423 70.0362 42.8423 68.5362 44.6423C68.1362 45.0423 67.2362 45.4423 66.4362 46.0423ZM124.036 25.4423C123.236 25.2423 115.036 25.3423 114.336 25.6423C114.036 25.7423 113.536 25.8423 113.636 26.3423C113.736 26.6423 113.936 27.0423 114.236 27.2423C116.036 28.2423 122.136 27.1423 124.036 25.4423ZM95.2362 19.8423C97.2362 21.7423 99.6362 20.5423 101.936 20.5423C102.436 20.5423 102.736 20.1423 102.736 19.6423C102.736 19.2423 102.536 18.8423 102.136 18.9423C99.8362 19.8423 97.2362 17.7423 95.2362 19.8423ZM24.4362 41.2423C22.7362 41.4423 21.0362 41.6423 19.4362 41.9423C19.0362 42.0423 18.0362 41.2423 18.0362 42.5423C18.0362 43.4423 18.5362 43.6423 19.3362 43.9423C21.8362 44.6423 22.9362 42.7423 24.4362 41.2423ZM129.236 36.3423C125.436 37.1423 121.636 37.4423 117.836 38.0423C121.836 38.8423 125.536 37.5423 129.236 36.3423ZM118.436 32.5423C118.436 32.6423 118.436 32.8423 118.536 32.9423C121.236 32.6423 123.936 32.2423 126.536 31.9423C126.736 31.9423 126.936 31.5423 126.936 31.4423C126.836 30.9423 126.336 30.6423 125.936 30.7423C123.436 31.2423 120.936 31.9423 118.436 32.5423ZM134.836 22.1423C132.436 22.1423 130.436 23.2423 128.336 24.0423C130.436 23.2423 133.236 25.5423 134.836 22.1423ZM5.43619 34.6423C4.63619 35.3423 3.8362 35.8423 4.3362 36.9423C4.8362 38.0423 5.73619 38.4423 7.63619 38.6423C5.73619 37.5423 6.03619 36.0423 5.43619 34.6423ZM24.3362 52.7423C22.4362 50.7423 22.4362 50.7423 20.1362 53.2423C21.5362 53.0423 22.8362 52.9423 24.3362 52.7423Z" fill="#ECD7E6"></path> </svg> 