<?xml version="1.0" standalone="no"?>
<!DOCTYPE svg PUBLIC "-//W3C//DTD SVG 20010904//EN"
 "http://www.w3.org/TR/2001/REC-SVG-20010904/DTD/svg10.dtd">
<svg version="1.0" xmlns="http://www.w3.org/2000/svg"
 width="700.000000pt" height="700.000000pt" viewBox="0 0 700.000000 700.000000"
 preserveAspectRatio="xMidYMid meet">
<metadata>
Created by potrace 1.11, written by Peter Selinger 2001-2013
</metadata>
<g transform="translate(0.000000,700.000000) scale(0.100000,-0.100000)"
fill="#000000" stroke="none">
<path d="M3080 6637 c-31 -28 -93 -86 -139 -127 -46 -41 -96 -86 -110 -98 -14
-13 -59 -54 -100 -90 -41 -37 -80 -73 -87 -80 -12 -11 -2 -26 60 -90 41 -42
88 -93 106 -112 17 -19 44 -48 59 -65 15 -16 65 -77 112 -135 305 -380 518
-771 644 -1185 38 -124 89 -342 100 -430 4 -27 8 -52 10 -55 2 -3 6 -34 10
-70 4 -36 9 -74 11 -85 25 -126 24 -782 -1 -875 -2 -8 -6 -42 -10 -75 -23
-218 -139 -657 -224 -851 -12 -25 -21 -51 -21 -56 0 -5 -38 -86 -84 -181 -188
-388 -399 -686 -704 -996 -51 -51 -91 -95 -90 -95 2 -1 28 -22 58 -46 30 -25
63 -52 73 -60 11 -8 24 -20 31 -25 6 -6 91 -77 190 -158 l178 -148 57 53 c31
29 79 74 106 99 69 64 259 261 326 339 441 508 744 1111 878 1750 27 127 32
155 66 407 27 192 26 768 0 943 -2 14 -6 47 -9 74 -29 251 -144 711 -221 881
-7 17 -23 55 -35 85 -80 202 -217 458 -367 682 -166 250 -354 476 -594 717
-98 99 -216 211 -220 211 -2 0 -29 -24 -59 -53z"/>
</g>
</svg>
