<?xml version="1.0" encoding="UTF-8"?> <svg xmlns="http://www.w3.org/2000/svg" xmlns:xlink="http://www.w3.org/1999/xlink" width="68px" height="166px" viewBox="0 0 68 166"> <!-- Generator: Sketch 57.1 (83088) - https://sketch.com --> <title>Group 4</title> <desc>Created with Sketch.</desc> <g id="Page-1" stroke="none" stroke-width="1" fill="none" fill-rule="evenodd"> <g id="kontrol-02-copy" transform="translate(-717.000000, -301.000000)" fill="#F7C67B"> <g id="Hero-area" transform="translate(-42.000000, -208.000000)"> <g id="Group-4" transform="translate(759.000000, 509.000000)"> <g id="Group-5" transform="translate(5.354331, 0.000000)"> <ellipse id="Oval" cx="1.87401575" cy="1.89250814" rx="1.87401575" ry="1.89250814"></ellipse> <ellipse id="Oval-Copy" cx="12.5826772" cy="1.89250814" rx="1.87401575" ry="1.89250814"></ellipse> <ellipse id="Oval-Copy-2" cx="23.2913386" cy="1.89250814" rx="1.87401575" ry="1.89250814"></ellipse> <ellipse id="Oval-Copy-3" cx="34" cy="1.89250814" rx="1.87401575" ry="1.89250814"></ellipse> <ellipse id="Oval-Copy-4" cx="44.7086614" cy="1.89250814" rx="1.87401575" ry="1.89250814"></ellipse> <ellipse id="Oval-Copy-5" cx="55.4173228" cy="1.89250814" rx="1.87401575" ry="1.89250814"></ellipse> </g> <g id="Group-5-Copy" transform="translate(0.000000, 10.814332)"> <ellipse id="Oval" cx="1.87401575" cy="1.89250814" rx="1.87401575" ry="1.89250814"></ellipse> <ellipse id="Oval-Copy" cx="12.5826772" cy="1.89250814" rx="1.87401575" ry="1.89250814"></ellipse> <ellipse id="Oval-Copy-2" cx="23.2913386" cy="1.89250814" rx="1.87401575" ry="1.89250814"></ellipse> <ellipse id="Oval-Copy-3" cx="34" cy="1.89250814" rx="1.87401575" ry="1.89250814"></ellipse> <ellipse id="Oval-Copy-4" cx="44.7086614" cy="1.89250814" rx="1.87401575" ry="1.89250814"></ellipse> <ellipse id="Oval-Copy-5" cx="55.4173228" cy="1.89250814" rx="1.87401575" ry="1.89250814"></ellipse> <ellipse id="Oval-Copy-6" cx="66.1259843" cy="1.89250814" rx="1.87401575" ry="1.89250814"></ellipse> </g> <g id="Group-5-Copy-3" transform="translate(5.354331, 21.628664)"> <ellipse id="Oval" cx="1.87401575" cy="1.89250814" rx="1.87401575" ry="1.89250814"></ellipse> <ellipse id="Oval-Copy" cx="12.5826772" cy="1.89250814" rx="1.87401575" ry="1.89250814"></ellipse> <ellipse id="Oval-Copy-2" cx="23.2913386" cy="1.89250814" rx="1.87401575" ry="1.89250814"></ellipse> <ellipse id="Oval-Copy-3" cx="34" cy="1.89250814" rx="1.87401575" ry="1.89250814"></ellipse> <ellipse id="Oval-Copy-4" cx="44.7086614" cy="1.89250814" rx="1.87401575" ry="1.89250814"></ellipse> <ellipse id="Oval-Copy-5" cx="55.4173228" cy="1.89250814" rx="1.87401575" ry="1.89250814"></ellipse> </g> <g id="Group-5-Copy-2" transform="translate(0.000000, 32.442997)"> <ellipse id="Oval" cx="1.87401575" cy="1.89250814" rx="1.87401575" ry="1.89250814"></ellipse> <ellipse id="Oval-Copy" cx="12.5826772" cy="1.89250814" rx="1.87401575" ry="1.89250814"></ellipse> <ellipse id="Oval-Copy-2" cx="23.2913386" cy="1.89250814" rx="1.87401575" ry="1.89250814"></ellipse> <ellipse id="Oval-Copy-3" cx="34" cy="1.89250814" rx="1.87401575" ry="1.89250814"></ellipse> <ellipse id="Oval-Copy-4" cx="44.7086614" cy="1.89250814" rx="1.87401575" ry="1.89250814"></ellipse> <ellipse id="Oval-Copy-5" cx="55.4173228" cy="1.89250814" rx="1.87401575" ry="1.89250814"></ellipse> <ellipse id="Oval-Copy-6" cx="66.1259843" cy="1.89250814" rx="1.87401575" ry="1.89250814"></ellipse> </g> <g id="Group-5-Copy-7" transform="translate(5.354331, 43.257329)"> <ellipse id="Oval" cx="1.87401575" cy="1.89250814" rx="1.87401575" ry="1.89250814"></ellipse> <ellipse id="Oval-Copy" cx="12.5826772" cy="1.89250814" rx="1.87401575" ry="1.89250814"></ellipse> <ellipse id="Oval-Copy-2" cx="23.2913386" cy="1.89250814" rx="1.87401575" ry="1.89250814"></ellipse> <ellipse id="Oval-Copy-3" cx="34" cy="1.89250814" rx="1.87401575" ry="1.89250814"></ellipse> <ellipse id="Oval-Copy-4" cx="44.7086614" cy="1.89250814" rx="1.87401575" ry="1.89250814"></ellipse> <ellipse id="Oval-Copy-5" cx="55.4173228" cy="1.89250814" rx="1.87401575" ry="1.89250814"></ellipse> </g> <g id="Group-5-Copy-6" transform="translate(0.000000, 54.071661)"> <ellipse id="Oval" cx="1.87401575" cy="1.89250814" rx="1.87401575" ry="1.89250814"></ellipse> <ellipse id="Oval-Copy" cx="12.5826772" cy="1.89250814" rx="1.87401575" ry="1.89250814"></ellipse> <ellipse id="Oval-Copy-2" cx="23.2913386" cy="1.89250814" rx="1.87401575" ry="1.89250814"></ellipse> <ellipse id="Oval-Copy-3" cx="34" cy="1.89250814" rx="1.87401575" ry="1.89250814"></ellipse> <ellipse id="Oval-Copy-4" cx="44.7086614" cy="1.89250814" rx="1.87401575" ry="1.89250814"></ellipse> <ellipse id="Oval-Copy-5" cx="55.4173228" cy="1.89250814" rx="1.87401575" ry="1.89250814"></ellipse> <ellipse id="Oval-Copy-6" cx="66.1259843" cy="1.89250814" rx="1.87401575" ry="1.89250814"></ellipse> </g> <g id="Group-5-Copy-5" transform="translate(5.354331, 64.885993)"> <ellipse id="Oval" cx="1.87401575" cy="1.89250814" rx="1.87401575" ry="1.89250814"></ellipse> <ellipse id="Oval-Copy" cx="12.5826772" cy="1.89250814" rx="1.87401575" ry="1.89250814"></ellipse> <ellipse id="Oval-Copy-2" cx="23.2913386" cy="1.89250814" rx="1.87401575" ry="1.89250814"></ellipse> <ellipse id="Oval-Copy-3" cx="34" cy="1.89250814" rx="1.87401575" ry="1.89250814"></ellipse> <ellipse id="Oval-Copy-4" cx="44.7086614" cy="1.89250814" rx="1.87401575" ry="1.89250814"></ellipse> <ellipse id="Oval-Copy-5" cx="55.4173228" cy="1.89250814" rx="1.87401575" ry="1.89250814"></ellipse> </g> <g id="Group-5-Copy-4" transform="translate(0.000000, 75.700326)"> <ellipse id="Oval" cx="1.87401575" cy="1.89250814" rx="1.87401575" ry="1.89250814"></ellipse> <ellipse id="Oval-Copy" cx="12.5826772" cy="1.89250814" rx="1.87401575" ry="1.89250814"></ellipse> <ellipse id="Oval-Copy-2" cx="23.2913386" cy="1.89250814" rx="1.87401575" ry="1.89250814"></ellipse> <ellipse id="Oval-Copy-3" cx="34" cy="1.89250814" rx="1.87401575" ry="1.89250814"></ellipse> <ellipse id="Oval-Copy-4" cx="44.7086614" cy="1.89250814" rx="1.87401575" ry="1.89250814"></ellipse> <ellipse id="Oval-Copy-5" cx="55.4173228" cy="1.89250814" rx="1.87401575" ry="1.89250814"></ellipse> <ellipse id="Oval-Copy-6" cx="66.1259843" cy="1.89250814" rx="1.87401575" ry="1.89250814"></ellipse> </g> <g id="Group-5-Copy-15" transform="translate(5.354331, 86.514658)"> <ellipse id="Oval" cx="1.87401575" cy="1.89250814" rx="1.87401575" ry="1.89250814"></ellipse> <ellipse id="Oval-Copy" cx="12.5826772" cy="1.89250814" rx="1.87401575" ry="1.89250814"></ellipse> <ellipse id="Oval-Copy-2" cx="23.2913386" cy="1.89250814" rx="1.87401575" ry="1.89250814"></ellipse> <ellipse id="Oval-Copy-3" cx="34" cy="1.89250814" rx="1.87401575" ry="1.89250814"></ellipse> <ellipse id="Oval-Copy-4" cx="44.7086614" cy="1.89250814" rx="1.87401575" ry="1.89250814"></ellipse> <ellipse id="Oval-Copy-5" cx="55.4173228" cy="1.89250814" rx="1.87401575" ry="1.89250814"></ellipse> </g> <g id="Group-5-Copy-14" transform="translate(0.000000, 97.328990)"> <ellipse id="Oval" cx="1.87401575" cy="1.89250814" rx="1.87401575" ry="1.89250814"></ellipse> <ellipse id="Oval-Copy" cx="12.5826772" cy="1.89250814" rx="1.87401575" ry="1.89250814"></ellipse> <ellipse id="Oval-Copy-2" cx="23.2913386" cy="1.89250814" rx="1.87401575" ry="1.89250814"></ellipse> <ellipse id="Oval-Copy-3" cx="34" cy="1.89250814" rx="1.87401575" ry="1.89250814"></ellipse> <ellipse id="Oval-Copy-4" cx="44.7086614" cy="1.89250814" rx="1.87401575" ry="1.89250814"></ellipse> <ellipse id="Oval-Copy-5" cx="55.4173228" cy="1.89250814" rx="1.87401575" ry="1.89250814"></ellipse> <ellipse id="Oval-Copy-6" cx="66.1259843" cy="1.89250814" rx="1.87401575" ry="1.89250814"></ellipse> </g> <g id="Group-5-Copy-13" transform="translate(5.354331, 108.143322)"> <ellipse id="Oval" cx="1.87401575" cy="1.89250814" rx="1.87401575" ry="1.89250814"></ellipse> <ellipse id="Oval-Copy" cx="12.5826772" cy="1.89250814" rx="1.87401575" ry="1.89250814"></ellipse> <ellipse id="Oval-Copy-2" cx="23.2913386" cy="1.89250814" rx="1.87401575" ry="1.89250814"></ellipse> <ellipse id="Oval-Copy-3" cx="34" cy="1.89250814" rx="1.87401575" ry="1.89250814"></ellipse> <ellipse id="Oval-Copy-4" cx="44.7086614" cy="1.89250814" rx="1.87401575" ry="1.89250814"></ellipse> <ellipse id="Oval-Copy-5" cx="55.4173228" cy="1.89250814" rx="1.87401575" ry="1.89250814"></ellipse> </g> <g id="Group-5-Copy-12" transform="translate(0.000000, 118.957655)"> <ellipse id="Oval" cx="1.87401575" cy="1.89250814" rx="1.87401575" ry="1.89250814"></ellipse> <ellipse id="Oval-Copy" cx="12.5826772" cy="1.89250814" rx="1.87401575" ry="1.89250814"></ellipse> <ellipse id="Oval-Copy-2" cx="23.2913386" cy="1.89250814" rx="1.87401575" ry="1.89250814"></ellipse> <ellipse id="Oval-Copy-3" cx="34" cy="1.89250814" rx="1.87401575" ry="1.89250814"></ellipse> <ellipse id="Oval-Copy-4" cx="44.7086614" cy="1.89250814" rx="1.87401575" ry="1.89250814"></ellipse> <ellipse id="Oval-Copy-5" cx="55.4173228" cy="1.89250814" rx="1.87401575" ry="1.89250814"></ellipse> <ellipse id="Oval-Copy-6" cx="66.1259843" cy="1.89250814" rx="1.87401575" ry="1.89250814"></ellipse> </g> <g id="Group-5-Copy-11" transform="translate(5.354331, 129.771987)"> <ellipse id="Oval" cx="1.87401575" cy="1.89250814" rx="1.87401575" ry="1.89250814"></ellipse> <ellipse id="Oval-Copy" cx="12.5826772" cy="1.89250814" rx="1.87401575" ry="1.89250814"></ellipse> <ellipse id="Oval-Copy-2" cx="23.2913386" cy="1.89250814" rx="1.87401575" ry="1.89250814"></ellipse> <ellipse id="Oval-Copy-3" cx="34" cy="1.89250814" rx="1.87401575" ry="1.89250814"></ellipse> <ellipse id="Oval-Copy-4" cx="44.7086614" cy="1.89250814" rx="1.87401575" ry="1.89250814"></ellipse> <ellipse id="Oval-Copy-5" cx="55.4173228" cy="1.89250814" rx="1.87401575" ry="1.89250814"></ellipse> </g> <g id="Group-5-Copy-10" transform="translate(0.000000, 140.586319)"> <ellipse id="Oval" cx="1.87401575" cy="1.89250814" rx="1.87401575" ry="1.89250814"></ellipse> <ellipse id="Oval-Copy" cx="12.5826772" cy="1.89250814" rx="1.87401575" ry="1.89250814"></ellipse> <ellipse id="Oval-Copy-2" cx="23.2913386" cy="1.89250814" rx="1.87401575" ry="1.89250814"></ellipse> <ellipse id="Oval-Copy-3" cx="34" cy="1.89250814" rx="1.87401575" ry="1.89250814"></ellipse> <ellipse id="Oval-Copy-4" cx="44.7086614" cy="1.89250814" rx="1.87401575" ry="1.89250814"></ellipse> <ellipse id="Oval-Copy-5" cx="55.4173228" cy="1.89250814" rx="1.87401575" ry="1.89250814"></ellipse> <ellipse id="Oval-Copy-6" cx="66.1259843" cy="1.89250814" rx="1.87401575" ry="1.89250814"></ellipse> </g> <g id="Group-5-Copy-9" transform="translate(5.354331, 151.400651)"> <ellipse id="Oval" cx="1.87401575" cy="1.89250814" rx="1.87401575" ry="1.89250814"></ellipse> <ellipse id="Oval-Copy" cx="12.5826772" cy="1.89250814" rx="1.87401575" ry="1.89250814"></ellipse> <ellipse id="Oval-Copy-2" cx="23.2913386" cy="1.89250814" rx="1.87401575" ry="1.89250814"></ellipse> <ellipse id="Oval-Copy-3" cx="34" cy="1.89250814" rx="1.87401575" ry="1.89250814"></ellipse> <ellipse id="Oval-Copy-4" cx="44.7086614" cy="1.89250814" rx="1.87401575" ry="1.89250814"></ellipse> <ellipse id="Oval-Copy-5" cx="55.4173228" cy="1.89250814" rx="1.87401575" ry="1.89250814"></ellipse> </g> <g id="Group-5-Copy-8" transform="translate(0.000000, 162.214984)"> <ellipse id="Oval" cx="1.87401575" cy="1.89250814" rx="1.87401575" ry="1.89250814"></ellipse> <ellipse id="Oval-Copy" cx="12.5826772" cy="1.89250814" rx="1.87401575" ry="1.89250814"></ellipse> <ellipse id="Oval-Copy-2" cx="23.2913386" cy="1.89250814" rx="1.87401575" ry="1.89250814"></ellipse> <ellipse id="Oval-Copy-3" cx="34" cy="1.89250814" rx="1.87401575" ry="1.89250814"></ellipse> <ellipse id="Oval-Copy-4" cx="44.7086614" cy="1.89250814" rx="1.87401575" ry="1.89250814"></ellipse> <ellipse id="Oval-Copy-5" cx="55.4173228" cy="1.89250814" rx="1.87401575" ry="1.89250814"></ellipse> <ellipse id="Oval-Copy-6" cx="66.1259843" cy="1.89250814" rx="1.87401575" ry="1.89250814"></ellipse> </g> </g> </g> </g> </g> </svg> 