<?xml version="1.0" encoding="UTF-8"?> <svg xmlns="http://www.w3.org/2000/svg" xmlns:xlink="http://www.w3.org/1999/xlink" width="124px" height="1048px" viewBox="0 0 124 1048"> <!-- Generator: Sketch 52.6 (67491) - http://www.bohemiancoding.com/sketch --> <title>CONCERT.UA Copy</title> <desc>Created with Sketch.</desc> <g id="Page-1" stroke="none" stroke-width="1" fill="none" fill-rule="evenodd"> <path d="M-399.255,585.88 C-417.161756,585.88 -431.951608,579.930059 -443.625,568.03 C-455.298392,556.12994 -461.135,541.453421 -461.135,524 C-461.135,506.433245 -455.298392,491.728393 -443.625,479.885 C-431.951608,468.041607 -417.161756,462.12 -399.255,462.12 C-388.488279,462.12 -378.543379,464.641641 -369.42,469.685 C-360.296621,474.728359 -353.185025,481.556624 -348.085,490.17 L-368.315,501.9 C-371.261681,496.573307 -375.454973,492.408348 -380.895,489.405 C-386.335027,486.401652 -392.454966,484.9 -399.255,484.9 C-410.815058,484.9 -420.136631,488.52663 -427.22,495.78 C-434.303369,503.03337 -437.845,512.439942 -437.845,524 C-437.845,535.446724 -434.303369,544.79663 -427.22,552.05 C-420.136631,559.30337 -410.815058,562.93 -399.255,562.93 C-392.454966,562.93 -386.306694,561.428348 -380.81,558.425 C-375.313306,555.421652 -371.148347,551.313359 -368.315,546.1 L-348.085,557.83 C-353.185025,566.443376 -360.268288,573.271641 -369.335,578.315 C-378.401712,583.358359 -388.374946,585.88 -399.255,585.88 Z M-232.145,568.03 C-244.158393,579.930059 -258.778247,585.88 -276.005,585.88 C-293.231753,585.88 -307.823274,579.901726 -319.78,567.945 C-331.736726,555.988274 -337.715,541.340087 -337.715,524 C-337.715,506.659913 -331.736726,492.011726 -319.78,480.055 C-307.823274,468.098274 -293.231753,462.12 -276.005,462.12 C-258.778247,462.12 -244.158393,468.098274 -232.145,480.055 C-220.131607,492.011726 -214.125,506.659913 -214.125,524 C-214.125,541.340087 -220.131607,556.016607 -232.145,568.03 Z M-303.375,552.05 C-296.008296,559.30337 -286.885054,562.93 -276.005,562.93 C-265.124946,562.93 -256.001703,559.275037 -248.635,551.965 C-241.268296,544.654963 -237.585,535.33339 -237.585,524 C-237.585,512.66661 -241.268296,503.316704 -248.635,495.95 C-256.001703,488.583296 -265.124946,484.9 -276.005,484.9 C-286.885054,484.9 -296.008296,488.583296 -303.375,495.95 C-310.741703,503.316704 -314.425,512.66661 -314.425,524 C-314.425,535.33339 -310.741703,544.683296 -303.375,552.05 Z M-128.785,464.5 L-105.325,464.5 L-105.325,583.5 L-123.175,583.5 L-174.175,510.74 L-174.175,583.5 L-197.635,583.5 L-197.635,464.5 L-179.785,464.5 L-128.785,537.09 L-128.785,464.5 Z M-26.785,585.88 C-44.6917562,585.88 -59.4816083,579.930059 -71.155,568.03 C-82.8283917,556.12994 -88.665,541.453421 -88.665,524 C-88.665,506.433245 -82.8283917,491.728393 -71.155,479.885 C-59.4816083,468.041607 -44.6917562,462.12 -26.785,462.12 C-16.0182795,462.12 -6.07337895,464.641641 3.05,469.685 C12.173379,474.728359 19.2849745,481.556624 24.385,490.17 L4.155,501.9 C1.2083186,496.573307 -2.9849728,492.408348 -8.425,489.405 C-13.8650272,486.401652 -19.984966,484.9 -26.785,484.9 C-38.3450578,484.9 -47.6666312,488.52663 -54.75,495.78 C-61.8333687,503.03337 -65.375,512.439942 -65.375,524 C-65.375,535.446724 -61.8333687,544.79663 -54.75,552.05 C-47.6666312,559.30337 -38.3450578,562.93 -26.785,562.93 C-19.984966,562.93 -13.8366941,561.428348 -8.34,558.425 C-2.84330585,555.421652 1.3216525,551.313359 4.155,546.1 L24.385,557.83 C19.2849745,566.443376 12.201712,573.271641 3.135,578.315 C-5.931712,583.358359 -15.9049456,585.88 -26.785,585.88 Z M63.655,561.06 L113.805,561.06 L113.805,583.5 L40.195,583.5 L40.195,464.5 L112.955,464.5 L112.955,486.94 L63.655,486.94 L63.655,512.27 L108.705,512.27 L108.705,534.37 L63.655,534.37 L63.655,561.06 Z M195.575,583.5 L171.605,542.19 L153.755,542.19 L153.755,583.5 L130.295,583.5 L130.295,464.5 L177.895,464.5 C188.888388,464.5 198.238295,468.353295 205.945,476.06 C213.651705,483.766705 217.505,493.059946 217.505,503.94 C217.505,511.306703 215.408354,518.134969 211.215,524.425 C207.021646,530.715031 201.468368,535.446651 194.555,538.62 L220.905,583.5 L195.575,583.5 Z M153.755,486.43 L153.755,521.62 L177.895,521.62 C182.315022,521.62 186.111651,519.891684 189.285,516.435 C192.458349,512.978316 194.045,508.813358 194.045,503.94 C194.045,499.066642 192.458349,494.930017 189.285,491.53 C186.111651,488.129983 182.315022,486.43 177.895,486.43 L153.755,486.43 Z M313.385,464.5 L313.385,486.94 L281.255,486.94 L281.255,583.5 L257.795,583.5 L257.795,486.94 L225.835,486.94 L225.835,464.5 L313.385,464.5 Z M348.405,581.46 C345.571653,584.293347 342.171687,585.71 338.205,585.71 C334.238314,585.71 330.838348,584.293347 328.005,581.46 C325.171653,578.626653 323.755,575.226687 323.755,571.26 C323.755,567.293313 325.171653,563.893347 328.005,561.06 C330.838348,558.226653 334.238314,556.81 338.205,556.81 C342.171687,556.81 345.571653,558.226653 348.405,561.06 C351.238348,563.893347 352.655,567.293313 352.655,571.26 C352.655,575.226687 351.238348,578.626653 348.405,581.46 Z M416.405,585.88 C403.144934,585.88 392.265042,582.140037 383.765,574.66 C375.264957,567.179963 371.015,557.150063 371.015,544.57 L371.015,464.5 L394.305,464.5 L394.305,542.7 C394.305,548.933365 396.089982,553.863315 399.66,557.49 C403.230018,561.116685 408.811629,562.93 416.405,562.93 C423.998371,562.93 429.579982,561.116685 433.15,557.49 C436.720018,553.863315 438.505,548.933365 438.505,542.7 L438.505,464.5 L461.965,464.5 L461.965,544.57 C461.965,557.150063 457.715042,567.179963 449.215,574.66 C440.714958,582.140037 429.7784,585.88 416.405,585.88 Z M559.545,583.5 L552.405,562.08 L504.975,562.08 L497.835,583.5 L472.505,583.5 L514.155,464.5 L543.225,464.5 L585.045,583.5 L559.545,583.5 Z M512.455,540.15 L545.095,540.15 L528.775,491.53 L512.455,540.15 Z" id="CONCERT.UA-Copy" fill="#FFFFFF" transform="translate(61.955000, 524.000000) rotate(90.000000) translate(-61.955000, -524.000000) "></path> </g> </svg> 