<?xml version="1.0" encoding="UTF-8"?> <svg xmlns="http://www.w3.org/2000/svg" xmlns:xlink="http://www.w3.org/1999/xlink" width="124px" height="531px" viewBox="0 0 124 531"> <!-- Generator: Sketch 52.6 (67491) - http://www.bohemiancoding.com/sketch --> <title>Shape</title> <desc>Created with Sketch.</desc> <g id="Page-1" stroke="none" stroke-width="1" fill="none" fill-rule="evenodd"> <path d="M66.3,122.23 L57.12,122.23 C40.119915,122.23 26.3500527,116.790054 15.81,105.91 C5.2699473,95.0299456 1.8189894e-12,80.9767528 1.8189894e-12,63.75 C1.8189894e-12,45.3899082 5.97827355,30.1750603 17.935,18.105 C29.8917265,6.03493965 44.4832472,0 61.71,0 C79.0500867,0 93.7266066,5.97827355 105.74,17.935 C117.753393,29.8917264 123.76,44.7099116 123.76,62.39 C123.76,73.4967222 121.238359,83.6399541 116.195,92.82 C111.151641,102.000046 104.436709,109.139974 96.05,114.24 L84.49,94.18 C89.3633577,91.3466525 93.3299847,87.0683619 96.39,81.345 C99.4500153,75.621638 100.98,69.2467018 100.98,62.22 C100.98,50.88661 97.2683705,41.5650365 89.845,34.255 C82.4216296,26.9449634 73.04339,23.29 61.71,23.29 C50.4899439,23.29 41.2250366,27.0016295 33.915,34.425 C26.6049635,41.8483704 22.95,51.6799388 22.95,63.92 C22.95,72.986712 24.9616466,80.4949702 28.985,86.445 C33.0083535,92.3950297 38.5332982,96.4466559 45.56,98.6 L45.56,62.56 L66.3,62.56 L66.3,122.23 Z M2.38,204.17 L43.69,180.2 L43.69,162.35 L2.38,162.35 L2.38,138.89 L121.38,138.89 L121.38,186.49 C121.38,197.483388 117.526705,206.833295 109.82,214.54 C102.113295,222.246705 92.8200544,226.1 81.94,226.1 C74.5732965,226.1 67.7450315,224.003354 61.455,219.81 C55.1649686,215.616646 50.4333492,210.063368 47.26,203.15 L2.38,229.5 L2.38,204.17 Z M99.45,162.35 L64.26,162.35 L64.26,186.49 C64.26,190.910022 65.9883161,194.706651 69.445,197.88 C72.901684,201.053349 77.0666423,202.64 81.94,202.64 C86.8133577,202.64 90.949983,201.053349 94.35,197.88 C97.750017,194.706651 99.45,190.910022 99.45,186.49 L99.45,162.35 Z M2.38,319.77 L23.8,312.63 L23.8,265.2 L2.38,258.06 L2.38,232.73 L121.38,274.38 L121.38,303.45 L2.38,345.27 L2.38,319.77 Z M45.73,272.68 L45.73,305.32 L94.35,289 L45.73,272.68 Z M121.38,401.2 C121.38,412.646724 117.526705,422.279961 109.82,430.1 C102.113295,437.920039 92.6500561,441.83 81.43,441.83 C70.2099439,441.83 60.7467052,437.920039 53.04,430.1 C45.3332948,422.279961 41.48,412.646724 41.48,401.2 L41.48,380.29 L2.38,380.29 L2.38,356.83 L121.38,356.83 L121.38,401.2 Z M63.41,401.2 C63.41,406.186692 65.1383161,410.323317 68.595,413.61 C72.051684,416.896683 76.3299745,418.54 81.43,418.54 C86.6433594,418.54 90.949983,416.896683 94.35,413.61 C97.750017,410.323317 99.45,406.186692 99.45,401.2 L99.45,380.29 L63.41,380.29 L63.41,401.2 Z M24.82,480.59 L24.82,530.74 L2.38,530.74 L2.38,457.13 L121.38,457.13 L121.38,529.89 L98.94,529.89 L98.94,480.59 L73.61,480.59 L73.61,525.64 L51.51,525.64 L51.51,480.59 L24.82,480.59 Z" id="Shape" fill="#FFFFFF"></path> </g> </svg> 