<?xml version="1.0" encoding="UTF-8"?> <svg xmlns="http://www.w3.org/2000/svg" xmlns:xlink="http://www.w3.org/1999/xlink" width="145px" height="1004px" viewBox="0 0 145 1004"> <!-- Generator: Sketch 52.6 (67491) - http://www.bohemiancoding.com/sketch --> <title>Эпицентр К Copy</title> <desc>Created with Sketch.</desc> <g id="Page-1" stroke="none" stroke-width="1" fill="none" fill-rule="evenodd"> <path d="M-377.74,430.12 C-359.833244,430.12 -345.043392,436.041607 -333.37,447.885 C-321.696608,459.728393 -315.86,474.433245 -315.86,492 C-315.86,509.453421 -321.696608,524.12994 -333.37,536.03 C-345.043392,547.930059 -359.833244,553.88 -377.74,553.88 C-388.50672,553.88 -398.423288,551.358359 -407.49,546.315 C-416.556712,541.271641 -423.639974,534.443376 -428.74,525.83 L-408.51,514.1 C-405.676653,519.313359 -401.511694,523.421652 -396.015,526.425 C-390.518306,529.428348 -384.4267,530.93 -377.74,530.93 C-368.106618,530.93 -360.003366,528.408359 -353.43,523.365 C-346.856634,518.321641 -342.55001,511.493376 -340.51,502.88 L-393.55,502.88 L-393.55,480.95 L-340.51,480.95 C-342.55001,472.336624 -346.856634,465.508359 -353.43,460.465 C-360.003366,455.421641 -368.106618,452.9 -377.74,452.9 C-384.4267,452.9 -390.489973,454.401652 -395.93,457.405 C-401.370027,460.408348 -405.563319,464.573307 -408.51,469.9 L-428.74,458.17 C-423.639974,449.556624 -416.528379,442.728359 -407.405,437.685 C-398.281621,432.641641 -388.393387,430.12 -377.74,430.12 Z M-210.46,432.5 L-210.46,551.5 L-233.92,551.5 L-233.92,454.94 L-275.91,454.94 L-275.91,551.5 L-299.37,551.5 L-299.37,432.5 L-210.46,432.5 Z M-119.51,551.5 L-119.51,478.91 L-170.51,551.5 L-188.36,551.5 L-188.36,432.5 L-164.9,432.5 L-164.9,505.26 L-113.9,432.5 L-96.05,432.5 L-96.05,551.5 L-119.51,551.5 Z M14.96,529.06 L27.71,529.06 L27.71,574.28 L4.25,574.28 L4.25,551.5 L-73.95,551.5 L-73.95,432.5 L-50.49,432.5 L-50.49,529.06 L-8.5,529.06 L-8.5,432.5 L14.96,432.5 L14.96,529.06 Z M66.81,529.06 L116.96,529.06 L116.96,551.5 L43.35,551.5 L43.35,432.5 L116.11,432.5 L116.11,454.94 L66.81,454.94 L66.81,480.27 L111.86,480.27 L111.86,502.37 L66.81,502.37 L66.81,529.06 Z M201.11,432.5 L224.4,432.5 L224.4,551.5 L201.11,551.5 L201.11,502.2 L156.91,502.2 L156.91,551.5 L133.45,551.5 L133.45,432.5 L156.91,432.5 L156.91,479.76 L201.11,479.76 L201.11,432.5 Z M325.21,432.5 L325.21,454.94 L293.08,454.94 L293.08,551.5 L269.62,551.5 L269.62,454.94 L237.66,454.94 L237.66,432.5 L325.21,432.5 Z M382.67,432.5 C394.116724,432.5 403.749961,436.353295 411.57,444.06 C419.390039,451.766705 423.3,461.229944 423.3,472.45 C423.3,483.670056 419.390039,493.133295 411.57,500.84 C403.749961,508.546705 394.116724,512.4 382.67,512.4 L361.76,512.4 L361.76,551.5 L338.3,551.5 L338.3,432.5 L382.67,432.5 Z M382.67,490.47 C387.656692,490.47 391.793317,488.741684 395.08,485.285 C398.366683,481.828316 400.01,477.550026 400.01,472.45 C400.01,467.236641 398.366683,462.930017 395.08,459.53 C391.793317,456.129983 387.656692,454.43 382.67,454.43 L361.76,454.43 L361.76,490.47 L382.67,490.47 Z M574.09,551.5 L547.06,551.5 L504.56,495.74 L504.56,551.5 L481.1,551.5 L481.1,432.5 L504.56,432.5 L504.56,485.03 L545.36,432.5 L572.39,432.5 L528.36,490.3 L574.09,551.5 Z" id="Эпицентр-К-Copy" fill="#FFFFFF" transform="translate(72.675000, 502.200000) rotate(90.000000) translate(-72.675000, -502.200000) "></path> </g> </svg> 