<?xml version="1.0" encoding="UTF-8"?> <svg xmlns="http://www.w3.org/2000/svg" xmlns:xlink="http://www.w3.org/1999/xlink" width="155px" height="57px" viewBox="0 0 155 57"> <!-- Generator: Sketch 57.1 (83088) - https://sketch.com --> <title>Path 2 Copy</title> <desc>Created with Sketch.</desc> <g id="Page-1" stroke="none" stroke-width="1" fill="none" fill-rule="evenodd"> <g id="kontrol-02-copy" transform="translate(-1359.000000, -814.000000)" stroke="#F7C67B" stroke-width="1.5999999"> <g id="Path-2-Copy" transform="translate(1360.000000, 816.000000)"> <g id="Group-6" transform="translate(11.968912, 0.000000)"> <polyline id="Path" points="0 6.35294118 5.1865285 0 10.373057 6.35294118"></polyline> <polyline id="Path-Copy" points="23.9378238 6.35294118 29.1243523 0 34.3108808 6.35294118"></polyline> <polyline id="Path-Copy-2" points="47.8756477 6.35294118 53.0621762 0 58.2487047 6.35294118"></polyline> <polyline id="Path-Copy-3" points="71.8134715 6.35294118 77 0 82.1865285 6.35294118"></polyline> <polyline id="Path-Copy-4" points="95.7512953 6.35294118 100.937824 0 106.124352 6.35294118"></polyline> <polyline id="Path-Copy-5" points="119.689119 6.35294118 124.875648 0 130.062176 6.35294118"></polyline> </g> <g id="Group-6-Copy" transform="translate(0.000000, 15.882353)"> <polyline id="Path" points="0 6.35294118 5.1865285 0 10.373057 6.35294118"></polyline> <polyline id="Path-Copy" points="23.9378238 6.35294118 29.1243523 0 34.3108808 6.35294118"></polyline> <polyline id="Path-Copy-2" points="47.8756477 6.35294118 53.0621762 0 58.2487047 6.35294118"></polyline> <polyline id="Path-Copy-3" points="71.8134715 6.35294118 77 0 82.1865285 6.35294118"></polyline> <polyline id="Path-Copy-4" points="95.7512953 6.35294118 100.937824 0 106.124352 6.35294118"></polyline> <polyline id="Path-Copy-5" points="119.689119 6.35294118 124.875648 0 130.062176 6.35294118"></polyline> <polyline id="Path-Copy-6" points="143.626943 6.35294118 148.813472 0 154 6.35294118"></polyline> </g> <g id="Group-6-Copy-3" transform="translate(11.968912, 31.764706)"> <polyline id="Path" points="0 6.35294118 5.1865285 0 10.373057 6.35294118"></polyline> <polyline id="Path-Copy" points="23.9378238 6.35294118 29.1243523 0 34.3108808 6.35294118"></polyline> <polyline id="Path-Copy-2" points="47.8756477 6.35294118 53.0621762 0 58.2487047 6.35294118"></polyline> <polyline id="Path-Copy-3" points="71.8134715 6.35294118 77 0 82.1865285 6.35294118"></polyline> <polyline id="Path-Copy-4" points="95.7512953 6.35294118 100.937824 0 106.124352 6.35294118"></polyline> <polyline id="Path-Copy-5" points="119.689119 6.35294118 124.875648 0 130.062176 6.35294118"></polyline> </g> <g id="Group-6-Copy-2" transform="translate(0.000000, 47.647059)"> <polyline id="Path" points="0 6.35294118 5.1865285 0 10.373057 6.35294118"></polyline> <polyline id="Path-Copy" points="23.9378238 6.35294118 29.1243523 0 34.3108808 6.35294118"></polyline> <polyline id="Path-Copy-2" points="47.8756477 6.35294118 53.0621762 0 58.2487047 6.35294118"></polyline> <polyline id="Path-Copy-3" points="71.8134715 6.35294118 77 0 82.1865285 6.35294118"></polyline> <polyline id="Path-Copy-4" points="95.7512953 6.35294118 100.937824 0 106.124352 6.35294118"></polyline> <polyline id="Path-Copy-5" points="119.689119 6.35294118 124.875648 0 130.062176 6.35294118"></polyline> <polyline id="Path-Copy-6" points="143.626943 6.35294118 148.813472 0 154 6.35294118"></polyline> </g> </g> </g> </g> </svg> 