<?xml version="1.0" encoding="UTF-8"?> <svg xmlns="http://www.w3.org/2000/svg" id="Слой_1" data-name="Слой 1" viewBox="0 0 617 126.4"> <defs> <style> .cls-1 { fill: #ed1c24; } .cls-2 { fill: #fff; } </style> </defs> <title>korr_net_logo</title> <g> <rect class="cls-1" width="617" height="126.4"></rect> <path class="cls-2" d="M196.3,314.6V301.8l-1.7.4a2.12,2.12,0,0,1-1.4-.4l-.7-.9-.5-1.3-.2-1.1a8.14,8.14,0,0,0-1.8-4.3,7.65,7.65,0,0,0-2.9-2.4,9,9,0,0,0-3.7-.6v-.9a9.43,9.43,0,0,0,3.8-1.3,8.63,8.63,0,0,0,2.2-2l1.9-3.3a9.73,9.73,0,0,1,1.7-2.8,2.28,2.28,0,0,1,1.9-1l.8.1V269.4a21,21,0,0,0-5.8-.9,10,10,0,0,0-4.5,1,8.63,8.63,0,0,0-2.8,2.6,21.14,21.14,0,0,0-1.8,3.2l-3.3,9.1a5,5,0,0,1-1.2,1.9,2.58,2.58,0,0,1-1.5.3h-1.2v-6.1c0-1.2.2-1.9.6-2.2a3.45,3.45,0,0,1,1.8-.5h.9v-8.3H156v8.3h2.3a2.46,2.46,0,0,1,1.7.5c.4.3.6.9.6,2.1v23.3a3.4,3.4,0,0,1-.6,2.2c-.3.3-.8.4-1.7.4H156v8.3h21.1v-8.3h-.9a2.76,2.76,0,0,1-1.8-.5c-.4-.3-.6-1-.6-2.2v-7.9H175a2,2,0,0,1,2.1,1.3,19.15,19.15,0,0,1,1.7,4.7l2.2,6.1a25.49,25.49,0,0,0,2.3,4.3,8.58,8.58,0,0,0,3.3,2.7,11.44,11.44,0,0,0,4.6.9,11.94,11.94,0,0,0,5.1-1.1Z" transform="translate(-110.5 -229)"></path> <path class="cls-2" d="M215.7,281.2a15.76,15.76,0,0,0-7.6,1.7,18.11,18.11,0,0,0-5.2,4.2,19.47,19.47,0,0,0-2.6,5.2,20.79,20.79,0,0,0-.9,6,18.71,18.71,0,0,0,3.4,11.3,15,15,0,0,0,5.6,4.2,19.57,19.57,0,0,0,7.4,1.5,19.81,19.81,0,0,0,7.6-1.5,13.39,13.39,0,0,0,5.6-4.2,19.31,19.31,0,0,0,3.3-11.3l-.3-4a16,16,0,0,0-1.3-3.9,14,14,0,0,0-1.9-3.3,13.75,13.75,0,0,0-5.9-4.5,20,20,0,0,0-7.2-1.4Zm0,27a2.79,2.79,0,0,1-2.6-1.5c-.7-1.2-1.1-3.4-1.1-6.9v-2.9a25.57,25.57,0,0,1,.6-6.1,3.1,3.1,0,0,1,3.1-2.4,3.19,3.19,0,0,1,3.2,2.4,20,20,0,0,1,.7,6.1v2.9c0,3.4-.3,5.7-1.1,6.9a3.46,3.46,0,0,1-2.8,1.5Z" transform="translate(-110.5 -229)"></path> <path class="cls-2" d="M254.5,281.2a10.73,10.73,0,0,0-3.8.7,30.85,30.85,0,0,0-4,3h-.3l-1.1-3.1h-12v6.5h1.1a2.08,2.08,0,0,1,1.5.4,1.84,1.84,0,0,1,.6,1.6v25.1a1.93,1.93,0,0,1-.6,1.7,2.58,2.58,0,0,1-1.5.3h-1.1v6.4h18.1v-6.4h-2.3a3.39,3.39,0,0,1-1.4-.5c-.3-.2-.4-.7-.4-1.5v-2.1a15.91,15.91,0,0,0,2.6,1.4,7.21,7.21,0,0,0,3.1.5,13.36,13.36,0,0,0,7.4-1.9,14.29,14.29,0,0,0,4.4-4.8,18.55,18.55,0,0,0,2.1-5.6,27.34,27.34,0,0,0,.5-5,23.47,23.47,0,0,0-1.2-7.7,12.42,12.42,0,0,0-3.9-6.4,11.8,11.8,0,0,0-7.8-2.6Zm-.3,8.8a14.76,14.76,0,0,1,.6,4.8v5.3l-.1.7-.1,1.9q-.15,5.4-3.9,5.4c-1.4,0-2.5-.8-3.4-2.4V291.6c.5-2.2,1.7-3.3,3.7-3.3,1.7.1,2.8.7,3.2,1.7Z" transform="translate(-110.5 -229)"></path> <path class="cls-2" d="M297.7,283.9a11.74,11.74,0,0,0-7.9-2.6,10.73,10.73,0,0,0-3.8.7,30.1,30.1,0,0,0-4.1,3h-.2l-1.1-3.1h-12v6.5h1.1a2.08,2.08,0,0,1,1.5.4,2.17,2.17,0,0,1,.5,1.6v25.1a2.28,2.28,0,0,1-.5,1.7,2.58,2.58,0,0,1-1.5.3h-1.1v6.4h18.1v-6.4h-2.3a3.39,3.39,0,0,1-1.4-.5c-.3-.2-.4-.7-.4-1.5v-2.1a14.81,14.81,0,0,0,2.5,1.4,8,8,0,0,0,3.2.5,13.36,13.36,0,0,0,7.4-1.9,15,15,0,0,0,4.4-4.8,18.1,18.1,0,0,0,2-5.6,29.73,29.73,0,0,0,.6-5,23.47,23.47,0,0,0-1.2-7.7,12.23,12.23,0,0,0-3.8-6.4Zm-11.4,4.5c1.7,0,2.7.5,3.2,1.6a14.76,14.76,0,0,1,.6,4.8v5.3l-.1.7-.1,1.9q-.15,5.4-3.9,5.4c-1.4,0-2.5-.8-3.4-2.4V291.6c.5-2.1,1.7-3.2,3.7-3.2Z" transform="translate(-110.5 -229)"></path> <path class="cls-2" d="M337.7,300.6a23.23,23.23,0,0,0-2-10.2,13.17,13.17,0,0,0-5.2-6.7,13.69,13.69,0,0,0-7.9-2.4,19.51,19.51,0,0,0-7.1,1.4,14.73,14.73,0,0,0-5.8,4.7,16.7,16.7,0,0,0-2.6,5.2,20.46,20.46,0,0,0-.9,6.1,18.31,18.31,0,0,0,3.4,11.1,12.86,12.86,0,0,0,6.3,4.6,27.65,27.65,0,0,0,6.3,1.1c4.3,0,7.8-1.1,10.2-3.2a14.53,14.53,0,0,0,4.8-7.5H327c-.3,2.4-1.6,3.5-4,3.5a5.54,5.54,0,0,1-2.6-.6,5.16,5.16,0,0,1-1.2-1.9,8.61,8.61,0,0,1-.5-3.4v-1.6h19Zm-11.8-10.8c.7.8,1.1,2.3,1.1,4.4h-8.3A6,6,0,0,1,320,290a4,4,0,0,1,3.1-1.5,3.29,3.29,0,0,1,2.8,1.3Z" transform="translate(-110.5 -229)"></path> <path class="cls-2" d="M366.7,283.7c-2.2-1.6-5.4-2.4-9.3-2.4-5.6,0-9.8,2-12.7,5.9a13.41,13.41,0,0,0-2.6,5.2,20.79,20.79,0,0,0-.9,6,18.71,18.71,0,0,0,3.4,11.3,13.4,13.4,0,0,0,5.6,4.3,20,20,0,0,0,7.4,1.5,21.63,21.63,0,0,0,6.5-1,10.9,10.9,0,0,0,4.8-3,17.7,17.7,0,0,0,3.1-4.4,15.12,15.12,0,0,0,.9-5.3H361c0,2.7-.3,4.4-1.1,5.3a4.32,4.32,0,0,1-2.5,1.3,2.79,2.79,0,0,1-2.7-1.7c-.6-.9-.9-3.2-.9-6.7v-3.1a25.9,25.9,0,0,1,.6-6.2,3,3,0,0,1,3.1-2.1,2.72,2.72,0,0,1,2.6,1.6,9.57,9.57,0,0,1,.9,4.4h11.6a15.5,15.5,0,0,0-1.4-5.3,11.71,11.71,0,0,0-4.5-5.6Z" transform="translate(-110.5 -229)"></path> <path class="cls-2" d="M389.1,289.1h6.8v17a2.58,2.58,0,0,1-.3,1.5c-.2.3-.7.5-1.7.5h-.2v6.5h16.1v-6.5h-1.1a2.24,2.24,0,0,1-1.5-.4,2.2,2.2,0,0,1-.4-1.6V290.3a3.34,3.34,0,0,1,.3-1.5,2.17,2.17,0,0,1,1.6-.5h1.1v-6.5H375v6.5h1.2c.8,0,1.4.2,1.6.6a2.12,2.12,0,0,1,.4,1.4v15.8c0,.7-.1,1.3-.4,1.5s-.7.5-1.6.5h-1.1v6.5h16.1v-6.5H391a2.5,2.5,0,0,1-1.4-.4,2.17,2.17,0,0,1-.5-1.6v-17Z" transform="translate(-110.5 -229)"></path> <path class="cls-2" d="M434.6,282.6a18.22,18.22,0,0,0-7-1.4,15.78,15.78,0,0,0-7.8,1.7,14.4,14.4,0,0,0-5.1,4.2,13.39,13.39,0,0,0-2.6,5.2,21.85,21.85,0,0,0-.9,6,19.09,19.09,0,0,0,3.3,11.3,15.29,15.29,0,0,0,5.6,4.2,20.57,20.57,0,0,0,7.6,1.5,19.68,19.68,0,0,0,7.5-1.5,14.05,14.05,0,0,0,5.6-4.2,18.71,18.71,0,0,0,3.4-11.3,30.09,30.09,0,0,0-.5-4,18.82,18.82,0,0,0-1.2-3.9,14.39,14.39,0,0,0-2-3.3,15.79,15.79,0,0,0-5.9-4.5Zm-6.9,5.8c1.6,0,2.5.8,3.1,2.4a24.45,24.45,0,0,1,.6,6.1v2.9c0,3.4-.3,5.7-1.1,6.9a2.9,2.9,0,0,1-2.6,1.5,3.22,3.22,0,0,1-2.8-1.5c-.6-1.2-.9-3.4-.9-6.9v-2.9a19.17,19.17,0,0,1,.7-6.1,2.77,2.77,0,0,1,3-2.4Z" transform="translate(-110.5 -229)"></path> <path class="cls-2" d="M478.1,288.8a2.08,2.08,0,0,1,1.5-.4h1.1v-6.5h-16v6.5h.2a2,2,0,0,1,1.6.5,3.65,3.65,0,0,1,.3,1.5v4h-7.1v-4a2,2,0,0,1,.5-1.6,2.08,2.08,0,0,1,1.5-.4h.2v-6.5H445.8v6.5h1.1a2,2,0,0,1,1.6.5,2.58,2.58,0,0,1,.3,1.5v15.8c0,.8-.1,1.4-.4,1.6s-.7.4-1.5.4h-1.1v6.5h16.1v-6.5h-.2a2.24,2.24,0,0,1-1.5-.4,2.17,2.17,0,0,1-.5-1.6v-4.5h7.1v4.5a2.58,2.58,0,0,1-.3,1.5c-.2.3-.7.5-1.6.5h-.2v6.5h16v-6.5h-1.1a2.24,2.24,0,0,1-1.5-.4,2.17,2.17,0,0,1-.5-1.6V290.4a2,2,0,0,1,.5-1.6Z" transform="translate(-110.5 -229)"></path> <path class="cls-2" d="M520.7,288.4v-6.5H487.6v6.5h2.6a2.17,2.17,0,0,1,1.4.5,1.58,1.58,0,0,1,.5,1.3,39.32,39.32,0,0,1-1.1,8.1,20.28,20.28,0,0,1-2.4,6.4,11.15,11.15,0,0,1-2,2.2,4.52,4.52,0,0,1-2.7.6V323h6.4l1.2-5.8a4.12,4.12,0,0,1,.9-2.1,3.2,3.2,0,0,1,1.8-.5h17a2.58,2.58,0,0,1,1.8.5,7.28,7.28,0,0,1,1.1,2.6l1.2,5.2h6.3V307.3h-2a2.08,2.08,0,0,1-1.5-.4c-.3-.2-.4-.7-.4-1.5V290.3c0-.8.1-1.4.4-1.6a2.41,2.41,0,0,1,1.5-.4h1.1Zm-20.3,7.2c.3-2.3.5-4.4.6-6.4h5.7v18.3h-9.5l1.3-2.7.7-2.6,1.2-6.6Z" transform="translate(-110.5 -229)"></path> <path class="cls-2" d="M547.6,283.6a14.25,14.25,0,0,0-8-2.4,19,19,0,0,0-7,1.4,13.48,13.48,0,0,0-5.8,4.7,16.7,16.7,0,0,0-2.6,5.2,17.81,17.81,0,0,0-1.1,6.1,18.31,18.31,0,0,0,3.4,11.1,12.86,12.86,0,0,0,6.3,4.6,29.24,29.24,0,0,0,6.4,1.1c4.3,0,7.8-1.1,10.2-3.2a15.19,15.19,0,0,0,4.8-7.5H543.9c-.3,2.4-1.7,3.5-4.1,3.5a5.14,5.14,0,0,1-2.5-.6,3.63,3.63,0,0,1-1.3-1.9,9.09,9.09,0,0,1-.4-3.4v-1.6h19a24.76,24.76,0,0,0-1.9-10.2,12.29,12.29,0,0,0-5.1-6.9Zm-7.7,4.8a3.56,3.56,0,0,1,2.9,1.4,6.81,6.81,0,0,1,1.2,4.4h-8.3A6,6,0,0,1,537,290a3.77,3.77,0,0,1,2.9-1.6Z" transform="translate(-110.5 -229)"></path> <path class="cls-2" d="M577.1,288.9a2.6,2.6,0,0,1,.4,1.5v4h-7.2v-4c0-.8.2-1.4.6-1.6a2,2,0,0,1,1.4-.4h.3v-6.5H556.4v6.5h1.2a2,2,0,0,1,1.6.5,2.58,2.58,0,0,1,.3,1.5v15.8c0,.8-.1,1.4-.4,1.6a2.08,2.08,0,0,1-1.5.4h-1.2v6.5h16.2v-6.5h-.3a2.24,2.24,0,0,1-1.5-.4,2.17,2.17,0,0,1-.5-1.6v-4.5h7.2v4.5c0,.7-.1,1.3-.4,1.5s-.7.5-1.6.5h-.2v6.5h16.1v-6.5h-1.2a2.6,2.6,0,0,1-1.5-.4,2.2,2.2,0,0,1-.4-1.6V290.4c0-.8.1-1.4.4-1.6s.7-.4,1.5-.4h1.2v-6.5H575.3v6.5h.2c.9,0,1.4.2,1.6.5Z" transform="translate(-110.5 -229)"></path> <path class="cls-2" d="M605,278.8h1.4v25.1a3,3,0,0,1-.6,2.2c-.3.3-.8.4-1.7.4h-2.4v8.3h22.4v-8.3h-2.4a2.36,2.36,0,0,1-1.6-.4,3.3,3.3,0,0,1-.5-2.2V278.8h1.3c1.5,0,2.3.1,2.6.4a2.52,2.52,0,0,1,.7,1.8l.7,3.8h7.4V269.7H593.4v15.1h7.4c.2-1.5.5-2.9.8-4.3.2-.8.5-1.3,1.1-1.5a9.21,9.21,0,0,1,2.3-.2Z" transform="translate(-110.5 -229)"></path> <g> <path class="cls-2" d="M682.9,298.4h2l-.5,3.7h-2l-.9,6.3c-.3,1.8-.4,2.4,1.6,2.7l-.5,3.7-3.1.2a4.8,4.8,0,0,1-3.9-1.1c-1-1.1-.7-2.7-.4-4.1l1.1-7.6h-.8l.5-3.7h.8l.5-3.2,6.4-1.7Z" transform="translate(-110.5 -229)"></path> <path class="cls-2" d="M658.7,304.3c.5-4.5,2.3-6.3,8.1-6.3,6,0,7.2,2,6.5,6l-.6,3.9h-8.4l-.2,1.5c-.1.8-.2,1.9.9,1.9s1.3-1,1.4-1.8l.1-.6h6.1L672,313c-1.5,1.2-4.2,1.9-6.7,2.1s-5-.2-6.2-1.2c-1.5-1.3-1.3-3.1-1.1-5.1Zm8.7-.8c.1-.7.1-1.7-1-1.7s-1.3,1-1.4,1.7l-.1.6h2.4Z" transform="translate(-110.5 -229)"></path> <path class="cls-2" d="M647.8,299.4a8.54,8.54,0,0,1,4.6-1.4,4.56,4.56,0,0,1,2.9,1.1c1,1.1.9,2.3.7,3.7l-.9,6.1c-.1.8-.3,1.7.4,2.2l-.5,3.7h-6.5a29.22,29.22,0,0,1,.4-5.1l.7-4.8a3.56,3.56,0,0,0,0-1.5,1.35,1.35,0,0,0-2-.6l-.9,6.1c-.1.8-.3,1.7.4,2.2l-.5,3.7H639l.5-3.7c.9-.5.9-1.2,1.1-2.1l.7-5c.1-.9.2-1.5-.5-2l.5-3.7h6.6Z" transform="translate(-110.5 -229)"></path> <path class="cls-2" d="M630.3,312.2a3.61,3.61,0,0,1,3.4-3,2.54,2.54,0,0,1,2.6,3,3.61,3.61,0,0,1-3.4,3A2.59,2.59,0,0,1,630.3,312.2Z" transform="translate(-110.5 -229)"></path> </g> </g> </svg> 