<?xml version="1.0" encoding="utf-8"?>
<!-- Generator: Adobe Illustrator 22.0.1, SVG Export Plug-In . SVG Version: 6.00 Build 0)  -->
<svg version="1.1" id="Слой_1" xmlns="http://www.w3.org/2000/svg" xmlns:xlink="http://www.w3.org/1999/xlink" x="0px" y="0px"
	 viewBox="0 0 83 82.8" style="enable-background:new 0 0 83 82.8;" xml:space="preserve">
<style type="text/css">
	.st0{fill:#FFFFFF;}
	.st1{fill:#201600;}
	.st2{fill:#D14A43;}
	.st3{clip-path:url(#SVGID_2_);}
	.st4{fill:#000703;}
</style>
<g>
	<g>
		
			<ellipse transform="matrix(0.9993 -3.847662e-02 3.847662e-02 0.9993 -1.5655 1.6183)" class="st0" cx="41.3" cy="41.5" rx="33.5" ry="33.5"/>
		<path class="st1" d="M41.3,76.1c-19.1,0-34.6-15.5-34.6-34.6c0-19.1,15.5-34.6,34.6-34.6s34.6,15.5,34.6,34.6
			C75.9,60.6,60.4,76.1,41.3,76.1z M41.3,9.2C23.4,9.2,9,23.7,9,41.5c0,17.8,14.5,32.3,32.3,32.3c17.8,0,32.3-14.5,32.3-32.3
			C73.6,23.7,59.1,9.2,41.3,9.2z"/>
	</g>
	<g>
		<path class="st1" d="M41.3,75.2c-18.6,0-33.8-15.1-33.8-33.8c0-18.6,15.1-33.8,33.8-33.8C59.9,7.7,75,22.9,75,41.5
			C75,60.1,59.9,75.2,41.3,75.2z M41.3,8.3C23,8.3,8.1,23.2,8.1,41.5c0,18.3,14.9,33.2,33.2,33.2c18.3,0,33.2-14.9,33.2-33.2
			C74.4,23.2,59.6,8.3,41.3,8.3z"/>
		<path class="st1" d="M41.3,76.4C22,76.4,6.3,60.7,6.3,41.5C6.3,22.2,22,6.6,41.3,6.6s34.9,15.7,34.9,34.9
			C76.2,60.7,60.5,76.4,41.3,76.4z M41.3,9.5c-17.7,0-32,14.4-32,32c0,17.7,14.4,32,32,32c17.7,0,32-14.4,32-32
			C73.3,23.8,58.9,9.5,41.3,9.5z"/>
	</g>
</g>
<path class="st2" d="M58.5,56.3c4-3.7,6.7-9.3,6.7-15.5c0-6.2-2.1-11-6.7-15.5l3-2.7c6.4,5.8,8.6,12,8.6,18.2
	c0,6.2-2.1,12.6-8.5,18.2L58.5,56.3z"/>
<g>
	<rect x="23.2" y="35.5" width="3" height="2.7"/>
	<rect x="46.7" y="35.5" width="3" height="2.7"/>
	<rect x="23.2" y="39.7" width="3" height="2.7"/>
	<rect x="32.3" y="37" width="8.7" height="7.8"/>
	<rect x="46.7" y="39.7" width="3" height="2.7"/>
	<rect x="23.2" y="44" width="3" height="2.7"/>
	<rect x="46.7" y="44" width="3" height="2.7"/>
	<rect x="23.2" y="48.3" width="3" height="2.7"/>
	<rect x="27.2" y="48.3" width="3" height="2.7"/>
	<rect x="42.7" y="48.3" width="3" height="2.7"/>
	<rect x="46.7" y="48.3" width="3" height="2.7"/>
	<g>
		<g>
			<defs>
				<rect id="SVGID_1_" x="24.2" y="28.2" width="33.8" height="33.8"/>
			</defs>
			<clipPath id="SVGID_2_">
				<use xlink:href="#SVGID_1_"  style="overflow:visible;"/>
			</clipPath>
			<path class="st3" d="M57.1,56.6l-7.8-7.8c-1.2,1.8-2.7,3.3-4.5,4.5l7.8,7.8c1.2,1.2,3.2,1.2,4.5,0C58.3,59.9,58.3,57.9,57.1,56.6
				L57.1,56.6z M57.1,56.6"/>
		</g>
		<path d="M49.6,40.9c0-7-5.7-12.7-12.7-12.7c-7,0-12.7,5.7-12.7,12.7c0,7,5.7,12.7,12.7,12.7C43.9,53.6,49.6,47.9,49.6,40.9
			L49.6,40.9z M36.9,50.4c-5.2,0-9.5-4.3-9.5-9.5c0-5.2,4.3-9.5,9.5-9.5c5.2,0,9.5,4.3,9.5,9.5C46.4,46.2,42.1,50.4,36.9,50.4
			L36.9,50.4z M36.9,50.4"/>
	</g>
	<path class="st4" d="M51.7,24.5h-2.1V23c0-0.8-0.7-1.5-1.6-1.5s-1.6,0.7-1.6,1.5v1.5h-7.5V23c0-0.8-0.7-1.5-1.6-1.5
		s-1.6,0.7-1.6,1.5v1.5h-7.4V23c0-0.8-0.7-1.5-1.6-1.5c-0.9,0-1.6,0.7-1.6,1.5v1.5h-2.1c-3.6,0-6.6,2.7-6.6,5.9v23.1
		c0,3.3,3,5.9,6.6,5.9h12.6c0.9,0,1.6-0.7,1.6-1.5c0-0.8-0.7-1.5-1.6-1.5H22.8c-1.8,0-3.3-1.3-3.3-3V30.4c0-1.6,1.5-3,3.3-3h2.1v1.5
		c0,0.8,0.7,1.5,1.6,1.5c0.9,0,1.6-0.7,1.6-1.5v-1.5h7.4v1.5c0,0.8,0.7,1.5,1.6,1.5s1.6-0.7,1.6-1.5v-1.5h7.5v1.5
		c0,0.8,0.7,1.5,1.6,1.5s1.6-0.7,1.6-1.5v-1.5h2.1c1.8,0,3.3,1.3,3.3,3v8.4c0,0.8,0.7,1.5,1.6,1.5s1.6-0.7,1.6-1.5v-8.4
		C58.3,27.2,55.3,24.5,51.7,24.5z"/>
</g>
</svg>
