<?xml version="1.0" encoding="utf-8"?>
<!-- Generator: Adobe Illustrator 22.0.1, SVG Export Plug-In . SVG Version: 6.00 Build 0)  -->
<svg version="1.1" id="Слой_1" xmlns="http://www.w3.org/2000/svg" xmlns:xlink="http://www.w3.org/1999/xlink" x="0px" y="0px"
	 viewBox="0 0 84.2 84.2" style="enable-background:new 0 0 84.2 84.2;" xml:space="preserve">
<style type="text/css">
	.st0{fill:#FFFFFF;}
	.st1{fill:#201600;}
	.st2{fill:#D14A43;}
	.st3{fill:none;stroke:#000000;stroke-width:0.25;stroke-miterlimit:10;}
	.st4{fill:#000703;}
</style>
<g>
	<g>
		
			<ellipse transform="matrix(0.9951 -9.918875e-02 9.918875e-02 0.9951 -4.1085 4.4087)" class="st0" cx="42.3" cy="43.5" rx="33.5" ry="33.5"/>
		<path class="st1" d="M42.3,78.2c-19.1,0-34.6-15.5-34.6-34.6c0-19.1,15.5-34.6,34.6-34.6s34.6,15.5,34.6,34.6
			C76.9,62.6,61.4,78.2,42.3,78.2z M42.3,11.2C24.5,11.2,10,25.7,10,43.5c0,17.8,14.5,32.3,32.3,32.3s32.3-14.5,32.3-32.3
			C74.6,25.7,60.1,11.2,42.3,11.2z"/>
	</g>
	<g>
		<path class="st1" d="M42.3,77.3c-18.6,0-33.8-15.1-33.8-33.8c0-18.6,15.1-33.8,33.8-33.8C60.9,9.8,76,24.9,76,43.5
			C76,62.1,60.9,77.3,42.3,77.3z M42.3,10.3C24,10.3,9.1,25.2,9.1,43.5c0,18.3,14.9,33.2,33.2,33.2s33.2-14.9,33.2-33.2
			C75.5,25.2,60.6,10.3,42.3,10.3z"/>
		<path class="st1" d="M42.3,78.4C23,78.4,7.4,62.8,7.4,43.5C7.4,24.3,23,8.6,42.3,8.6c19.3,0,34.9,15.7,34.9,34.9
			C77.2,62.8,61.5,78.4,42.3,78.4z M42.3,11.5c-17.7,0-32,14.4-32,32c0,17.7,14.4,32,32,32c17.7,0,32-14.4,32-32
			C74.3,25.9,59.9,11.5,42.3,11.5z"/>
	</g>
</g>
<path class="st2" d="M59.5,58.3c4-3.7,6.7-9.3,6.7-15.5c0-6.2-2.1-11-6.7-15.5l3-2.7c6.4,5.8,8.6,12,8.6,18.2
	c0,6.2-2.1,12.6-8.5,18.2L59.5,58.3z"/>
<g>
	<rect x="25.5" y="37.9" class="st3" width="3.2" height="2.6"/>
	<rect x="29.7" y="37.9" class="st3" width="3.2" height="2.6"/>
	<rect x="46.3" y="37.9" class="st3" width="3.2" height="2.6"/>
	<rect x="50.5" y="37.9" class="st3" width="3.2" height="2.6"/>
	<rect x="25.5" y="41.9" width="3.2" height="2.6"/>
	<rect x="29.7" y="41.9" width="3.2" height="2.6"/>
	<rect x="46.3" y="41.9" width="3.2" height="2.6"/>
	<rect x="50.5" y="41.9" width="3.2" height="2.6"/>
	<rect x="25.5" y="46.2" class="st3" width="3.2" height="2.6"/>
	<rect x="29.7" y="46.2" class="st3" width="3.2" height="2.6"/>
	<rect x="46.3" y="46.2" class="st3" width="3.2" height="2.6"/>
	<rect x="50.5" y="46.2" class="st3" width="3.2" height="2.6"/>
	<rect x="25.5" y="50.4" class="st3" width="3.2" height="2.6"/>
	<rect x="29.7" y="50.4" class="st3" width="3.2" height="2.6"/>
	<rect x="33.9" y="50.4" class="st3" width="3.2" height="2.6"/>
	<rect x="38.2" y="50.4" class="st3" width="3.2" height="2.6"/>
	<rect x="42" y="50.3" class="st3" width="3.2" height="2.6"/>
	<rect x="33.9" y="46.2" class="st3" width="3.2" height="2.6"/>
	<rect x="38.2" y="46.2" class="st3" width="3.2" height="2.6"/>
	<rect x="42" y="46.2" class="st3" width="3.2" height="2.6"/>
	<rect x="33.9" y="41.9" width="3.2" height="2.6"/>
	<rect x="38.2" y="41.9" width="3.2" height="2.6"/>
	<rect x="42" y="41.9" width="3.2" height="2.6"/>
	<rect x="33.9" y="37.9" class="st3" width="3.2" height="2.6"/>
	<rect x="38.2" y="37.9" class="st3" width="3.2" height="2.6"/>
	<rect x="42" y="37.9" class="st3" width="3.2" height="2.6"/>
	<rect x="46.3" y="50.3" class="st3" width="3.2" height="2.6"/>
	<rect x="50.5" y="50.3" class="st3" width="3.2" height="2.6"/>
	<path class="st4" d="M53.4,27.8h-2v-1.4c0-0.8-0.7-1.4-1.6-1.4c-0.9,0-1.6,0.6-1.6,1.4v1.4h-7.1v-1.4c0-0.8-0.7-1.4-1.6-1.4
		c-0.9,0-1.6,0.6-1.6,1.4v1.4h-7v-1.4c0-0.8-0.7-1.4-1.6-1.4c-0.9,0-1.6,0.6-1.6,1.4v1.4h-1.9c-3.4,0-6.2,2.6-6.2,5.7v22.2
		c0,3.1,2.8,5.7,6.2,5.7H38c0.9,0,1.6-0.6,1.6-1.4s-0.7-1.4-1.6-1.4H26.1c-1.7,0-3.1-1.3-3.1-2.9V33.5c0-1.6,1.4-2.9,3.1-2.9H28v1.4
		c0,0.8,0.7,1.4,1.6,1.4c0.9,0,1.6-0.6,1.6-1.4v-1.4h7v1.4c0,0.8,0.7,1.4,1.6,1.4c0.9,0,1.6-0.6,1.6-1.4v-1.4h7.1v1.4
		c0,0.8,0.7,1.4,1.6,1.4c0.9,0,1.6-0.6,1.6-1.4v-1.4h2c1.7,0,3.1,1.3,3.1,2.9v8.1c0,0.8,0.7,1.4,1.6,1.4c0.9,0,1.6-0.6,1.6-1.4v-8.1
		C59.6,30.3,56.9,27.8,53.4,27.8z"/>
</g>
</svg>
