<?xml version="1.0" encoding="utf-8"?>
<!-- Generator: Adobe Illustrator 22.0.1, SVG Export Plug-In . SVG Version: 6.00 Build 0)  -->
<svg version="1.1" id="Слой_1" xmlns="http://www.w3.org/2000/svg" xmlns:xlink="http://www.w3.org/1999/xlink" x="0px" y="0px"
	 viewBox="0 0 84.9 84.5" style="enable-background:new 0 0 84.9 84.5;" xml:space="preserve">
<style type="text/css">
	.st0{fill:#FFFFFF;}
	.st1{fill:#201600;}
	.st2{fill:#D14A43;}
	.st3{fill:none;stroke:#000000;stroke-width:0.25;stroke-miterlimit:10;}
	.st4{fill:#000703;}
	.st5{clip-path:url(#SVGID_2_);}
</style>
<g>
	<g>
		<ellipse transform="matrix(0.2265 -0.974 0.974 0.2265 -9.2609 75.884)" class="st0" cx="43.1" cy="43.8" rx="33.5" ry="33.5"/>
		<path class="st1" d="M43.1,78.4C24,78.4,8.5,62.9,8.5,43.8C8.5,24.7,24,9.1,43.1,9.1c19.1,0,34.6,15.5,34.6,34.6
			C77.8,62.9,62.2,78.4,43.1,78.4z M43.1,11.5c-17.8,0-32.3,14.5-32.3,32.3c0,17.8,14.5,32.3,32.3,32.3c17.8,0,32.3-14.5,32.3-32.3
			C75.5,26,61,11.5,43.1,11.5z"/>
	</g>
	<g>
		<path class="st1" d="M43.1,77.5c-18.6,0-33.8-15.1-33.8-33.8C9.4,25.2,24.5,10,43.1,10c18.6,0,33.8,15.1,33.8,33.8
			C76.9,62.4,61.8,77.5,43.1,77.5z M43.1,10.6C24.9,10.6,10,25.5,10,43.8C10,62.1,24.9,77,43.1,77c18.3,0,33.2-14.9,33.2-33.2
			C76.3,25.5,61.4,10.6,43.1,10.6z"/>
		<path class="st1" d="M43.1,78.7C23.9,78.7,8.2,63,8.2,43.8c0-19.3,15.7-34.9,34.9-34.9c19.3,0,34.9,15.7,34.9,34.9
			C78.1,63,62.4,78.7,43.1,78.7z M43.1,11.8c-17.7,0-32,14.4-32,32c0,17.7,14.4,32,32,32c17.7,0,32-14.4,32-32
			C75.2,26.1,60.8,11.8,43.1,11.8z"/>
	</g>
</g>
<path class="st2" d="M56.9,58.6c4-3.7,6.7-9.3,6.7-15.5c0-6.2-2.1-11-6.7-15.5l3-2.7c6.4,5.8,8.6,12,8.6,18.2
	c0,6.2-2.1,12.6-8.5,18.2L56.9,58.6z"/>
<g>
	<rect x="23.1" y="37.2" class="st3" width="3.1" height="2.7"/>
	<rect x="27.2" y="37.2" class="st3" width="3.1" height="2.7"/>
	<rect x="43.3" y="37.2" width="3.1" height="2.6"/>
	<rect x="47.4" y="37.2" width="3.1" height="2.6"/>
	<rect x="23.1" y="41.4" class="st3" width="3.1" height="2.7"/>
	<rect x="27.2" y="41.4" class="st3" width="3.1" height="2.7"/>
	<rect x="23.1" y="45.7" class="st3" width="3.1" height="2.7"/>
	<rect x="27.2" y="45.7" class="st3" width="3.1" height="2.7"/>
	<rect x="40.3" y="46.3" width="5.9" height="5.1"/>
	<rect x="48.2" y="46.3" width="5.9" height="5.1"/>
	<rect x="23.1" y="50" class="st3" width="3.1" height="2.7"/>
	<rect x="27.2" y="50" class="st3" width="3.1" height="2.7"/>
	<rect x="31.3" y="50" class="st3" width="3.1" height="2.7"/>
	<rect x="35.4" y="50" class="st3" width="3.1" height="2.7"/>
	<rect x="31.3" y="45.7" class="st3" width="3.1" height="2.7"/>
	<rect x="35.4" y="45.7" class="st3" width="3.1" height="2.7"/>
	<rect x="31.3" y="41.4" class="st3" width="3.1" height="2.7"/>
	<rect x="35.4" y="41.4" class="st3" width="3.1" height="2.7"/>
	<rect x="31.3" y="37.2" class="st3" width="3.1" height="2.7"/>
	<rect x="35.4" y="37.2" class="st3" width="3.1" height="2.7"/>
	<rect x="39.2" y="37.2" class="st3" width="3.1" height="2.6"/>
	<path class="st4" d="M50.2,26.9h-2v-1.5c0-0.8-0.7-1.5-1.5-1.5s-1.5,0.7-1.5,1.5v1.5h-6.9v-1.5c0-0.8-0.7-1.5-1.5-1.5
		s-1.5,0.7-1.5,1.5v1.5h-6.8v-1.5c0-0.8-0.7-1.5-1.5-1.5c-0.8,0-1.5,0.7-1.5,1.5v1.5h-1.9c-3.3,0-6,2.6-6,5.8v22.8
		c0,3.2,2.7,5.8,6,5.8h11.5c0.8,0,1.5-0.7,1.5-1.5s-0.7-1.5-1.5-1.5H23.7c-1.7,0-3-1.3-3-2.9V32.7c0-1.6,1.4-2.9,3-2.9h1.9v1.5
		c0,0.8,0.7,1.5,1.5,1.5c0.8,0,1.5-0.7,1.5-1.5v-1.5h6.8v1.5c0,0.8,0.7,1.5,1.5,1.5s1.5-0.7,1.5-1.5v-1.5h6.9v1.5
		c0,0.8,0.7,1.5,1.5,1.5s1.5-0.7,1.5-1.5v-1.5h2c1.7,0,3,1.3,3,2.9V41c0,0.8,0.7,1.5,1.5,1.5c0.8,0,1.5-0.7,1.5-1.5v-8.3
		C56.3,29.5,53.6,26.9,50.2,26.9z"/>
	<g>
		<g>
			<defs>
				<rect id="SVGID_1_" x="37" y="38.5" width="27.9" height="27"/>
			</defs>
			<clipPath id="SVGID_2_">
				<use xlink:href="#SVGID_1_"  style="overflow:visible;"/>
			</clipPath>
			<path class="st5" d="M64.1,61.2L57.7,55c-1,1.4-2.2,2.7-3.7,3.6l6.4,6.2c1,1,2.7,1,3.7,0C65.1,63.7,65.1,62.1,64.1,61.2
				L64.1,61.2z M64.1,61.2"/>
		</g>
		<path d="M57.9,48.6c0-5.6-4.7-10.1-10.4-10.1C41.7,38.5,37,43,37,48.6c0,5.6,4.7,10.1,10.4,10.1C53.2,58.7,57.9,54.2,57.9,48.6
			L57.9,48.6z M47.5,56.2c-4.3,0-7.8-3.4-7.8-7.6c0-4.2,3.5-7.6,7.8-7.6c4.3,0,7.8,3.4,7.8,7.6C55.3,52.8,51.8,56.2,47.5,56.2
			L47.5,56.2z M47.5,56.2"/>
	</g>
</g>
</svg>
