<?xml version="1.0" encoding="utf-8"?>
<!-- Generator: Adobe Illustrator 22.0.1, SVG Export Plug-In . SVG Version: 6.00 Build 0)  -->
<svg version="1.1" id="Слой_1" xmlns="http://www.w3.org/2000/svg" xmlns:xlink="http://www.w3.org/1999/xlink" x="0px" y="0px"
	 viewBox="0 0 83.9 83.9" style="enable-background:new 0 0 83.9 83.9;" xml:space="preserve">
<style type="text/css">
	.st0{fill:#FFFFFF;}
	.st1{fill:#201600;}
	.st2{fill:#D14A43;}
	.st3{stroke:#201600;stroke-width:0.75;stroke-miterlimit:10;}
</style>
<g>
	<g>
		<ellipse transform="matrix(0.2265 -0.974 0.974 0.2265 -9.6268 73.4649)" class="st0" cx="41.4" cy="42.8" rx="33.5" ry="33.5"/>
		<path class="st1" d="M41.4,77.4c-19.1,0-34.6-15.5-34.6-34.6c0-19.1,15.5-34.6,34.6-34.6c19.1,0,34.6,15.5,34.6,34.6
			C76.1,61.9,60.5,77.4,41.4,77.4z M41.4,10.5C23.6,10.5,9.1,25,9.1,42.8c0,17.8,14.5,32.3,32.3,32.3c17.8,0,32.3-14.5,32.3-32.3
			C73.7,25,59.3,10.5,41.4,10.5z"/>
	</g>
	<g>
		<path class="st1" d="M41.4,76.6c-18.6,0-33.8-15.1-33.8-33.8C7.7,24.2,22.8,9,41.4,9c18.6,0,33.8,15.1,33.8,33.8
			C75.2,61.4,60.1,76.6,41.4,76.6z M41.4,9.6C23.1,9.6,8.3,24.5,8.3,42.8C8.3,61.1,23.1,76,41.4,76c18.3,0,33.2-14.9,33.2-33.2
			C74.6,24.5,59.7,9.6,41.4,9.6z"/>
		<path class="st1" d="M41.4,77.7c-19.3,0-34.9-15.7-34.9-34.9c0-19.3,15.7-34.9,34.9-34.9c19.3,0,34.9,15.7,34.9,34.9
			C76.4,62.1,60.7,77.7,41.4,77.7z M41.4,10.8c-17.7,0-32,14.4-32,32c0,17.7,14.4,32,32,32c17.7,0,32-14.4,32-32
			C73.5,25.1,59.1,10.8,41.4,10.8z"/>
	</g>
</g>
<path class="st2" d="M58.7,57.6c4-3.7,6.7-9.3,6.7-15.5c0-6.2-2.1-11-6.7-15.5l3-2.7c6.4,5.8,8.6,12,8.6,18.2
	c0,6.2-2.1,12.6-8.5,18.2L58.7,57.6z"/>
<g>
	<path d="M18,59.5h39.1V31.3H18V59.5z M55.4,57.9H21L33,47.4l8.6,8.6c0.3,0.3,0.8,0.3,1.2,0c0.3-0.3,0.3-0.9,0-1.2l-4-4l7.6-8.4
		l9.1,8.3V57.9z M19.7,32.9h35.8v15.6l-8.6-7.9c-0.2-0.2-0.4-0.2-0.6-0.2c-0.2,0-0.4,0.1-0.6,0.3l-8.1,8.9l-3.9-3.9
		c-0.3-0.3-0.8-0.3-1.1,0L19.7,56.9V32.9z M19.7,32.9"/>
	<g>
		<path class="st3" d="M28,36.9c-2.2,0-4,1.8-4,4c0,2.2,1.8,4,4,4c2.2,0,4-1.8,4-4C31.9,38.7,30.1,36.9,28,36.9L28,36.9z M28,43.4
			c-1.4,0-2.5-1.1-2.5-2.5c0-1.4,1.1-2.5,2.5-2.5s2.5,1.1,2.5,2.5C30.5,42.2,29.4,43.4,28,43.4L28,43.4z M28,43.4"/>
		<path class="st3" d="M52.4,30.5c-1.3-1.1-8-7.1-11.9-9.5c-0.6-0.7-1.6-1.1-2.6-1.1c-1,0-1.9,0.4-2.6,1.1
			c-3.9,2.5-10.6,8.4-11.9,9.5H18v29.9h39.1V30.5H52.4z M35.8,22.9C35.8,22.9,35.8,22.9,35.8,22.9c0.1-0.5,0.3-0.8,0.5-1
			c0,0,0,0,0,0c0.4-0.4,0.9-0.7,1.6-0.7c0.6,0,1.2,0.3,1.6,0.7c0,0,0,0,0,0c0.2,0.2,0.4,0.5,0.5,0.9c0,0,0,0.1,0,0.1
			c0,0.1,0,0.3,0,0.4c0,1.2-1,2.1-2.1,2.1c-1.2,0-2.1-1-2.1-2.1C35.8,23.2,35.8,23.1,35.8,22.9L35.8,22.9z M34.3,23.3L34.3,23.3
			c0,2,1.6,3.6,3.6,3.6c2,0,3.6-1.6,3.6-3.6v0c3,2.2,6.8,5.4,8.8,7.1H25.6C27.6,28.7,31.4,25.5,34.3,23.3L34.3,23.3z M55.7,58.9
			H19.4v-27h36.3V58.9z M55.7,58.9"/>
	</g>
</g>
</svg>
