<?xml version="1.0" encoding="utf-8"?>
<!-- Generator: Adobe Illustrator 22.0.1, SVG Export Plug-In . SVG Version: 6.00 Build 0)  -->
<svg version="1.1" id="Слой_1" xmlns="http://www.w3.org/2000/svg" xmlns:xlink="http://www.w3.org/1999/xlink" x="0px" y="0px"
	 viewBox="0 0 83.9 83.9" style="enable-background:new 0 0 83.9 83.9;" xml:space="preserve">
<style type="text/css">
	.st0{fill:#FFFFFF;}
	.st1{fill:#201600;}
	.st2{fill:#D14A43;}
</style>
<g>
	<g>
		<ellipse transform="matrix(0.2265 -0.974 0.974 0.2265 -9.5286 74.2969)" class="st0" cx="42" cy="43.1" rx="33.5" ry="33.5"/>
		<path class="st1" d="M42,77.8c-19.1,0-34.6-15.5-34.6-34.6C7.4,24.1,22.9,8.5,42,8.5c19.1,0,34.6,15.5,34.6,34.6
			C76.6,62.2,61.1,77.8,42,77.8z M42,10.8c-17.8,0-32.3,14.5-32.3,32.3C9.7,61,24.2,75.5,42,75.5S74.3,61,74.3,43.1
			C74.3,25.3,59.8,10.8,42,10.8z"/>
	</g>
	<g>
		<path class="st1" d="M42,76.9c-18.6,0-33.8-15.1-33.8-33.8C8.3,24.5,23.4,9.4,42,9.4s33.8,15.1,33.8,33.8
			C75.8,61.8,60.6,76.9,42,76.9z M42,10C23.7,10,8.8,24.9,8.8,43.1c0,18.3,14.9,33.2,33.2,33.2s33.2-14.9,33.2-33.2
			C75.2,24.9,60.3,10,42,10z"/>
		<path class="st1" d="M42,78.1c-19.3,0-34.9-15.7-34.9-34.9C7.1,23.9,22.8,8.2,42,8.2c19.3,0,34.9,15.7,34.9,34.9
			C76.9,62.4,61.3,78.1,42,78.1z M42,11.1c-17.7,0-32,14.4-32,32c0,17.7,14.4,32,32,32c17.7,0,32-14.4,32-32
			C74,25.5,59.7,11.1,42,11.1z"/>
	</g>
</g>
<path class="st2" d="M59.3,58c4-3.7,6.7-9.3,6.7-15.5c0-6.2-2.1-11-6.7-15.5l3-2.7c6.4,5.8,8.6,12,8.6,18.2c0,6.2-2.1,12.6-8.5,18.2
	L59.3,58z"/>
<g>
	<g>
		<path d="M39.8,47L39.8,47c-0.9,0-1.7-0.1-2.6-0.4c-3.6-1.3-5.8-4.6-6.5-7.4c-0.9-0.7-1.4-2-1.7-3.4c-0.6-2-0.5-3.4,0.2-4.3
			c0.1-0.1,0.2-0.2,0.3-0.3c0,0,0,0,0,0c-0.3-1.8-0.3-3.2,0-4.5c0.4-1.7,1.3-3.2,2.6-4.6c0.7-0.7,1.5-1.4,2.4-2
			c0.7-0.5,1.5-0.9,2.4-1.2c0.8-0.3,1.5-0.4,2.3-0.4c0.2,0,0.6,0,0.8,0c1.7,0,3.3,0.4,4.6,1.2c1.2,0.7,2,1.5,2.4,2.1
			c0.6,0.2,1.3,0.6,1.9,1.4c1.3,1.7,1.7,4.4,1.1,8c0,0,0,0,0,0.1c0.1,0.1,0.2,0.2,0.3,0.3c0.7,0.9,0.7,2.3,0.2,4.3
			c-0.4,1.3-0.9,2.7-1.7,3.4c-0.7,2.8-2.9,6.1-6.5,7.4C41.5,46.8,40.7,47,39.8,47z M32.6,36.7l0.8,0.1l0.2,1.2
			c0.3,2.2,2,4.9,4.7,5.8c0.5,0.2,1,0.3,1.6,0.3l0,0c0.5,0,1.1-0.1,1.6-0.3c2.6-0.9,4.4-3.7,4.7-5.8l0.2-1.2l0.8-0.1
			c0.1-0.2,0.4-0.7,0.7-1.7c0.2-0.6,0.3-1.1,0.3-1.4l-1.8,0.2l0.8-2.2c0.1-0.3,0.2-0.6,0.3-1c0.8-4.6-0.4-6-1.2-6.1l-0.9-0.1
			l-0.3-0.7c0,0-0.5-0.8-1.7-1.5c-1.1-0.7-2.3-0.9-3.8-0.8c-0.5,0-1,0.1-1.5,0.3c-0.5,0.2-1.1,0.5-1.7,0.9c-0.7,0.4-1.3,1-1.9,1.5
			c-1,1-1.6,2.1-1.9,3.3c-0.2,0.9-0.2,1.9,0,3.3c0.1,0.3,0.2,0.7,0.3,1l0.8,2.2l-1.8-0.2c0,0.3,0.1,0.7,0.3,1.4
			C32.2,36,32.4,36.5,32.6,36.7z"/>
		<path d="M39.8,64.6L39.8,64.6c-11.5,0-18.4-4.4-18.7-4.6l-0.6-0.4L20.4,59C20.2,57.8,20,55.2,20,55c-0.3-4.5,1.4-7.5,4.6-8.3
			c4.3-1.1,7.8-3.5,7.8-3.6l1.7-1.2l1.9,5.9c0-0.1,0.1-0.2,0.1-0.3c0.9-1.7,3-1.9,3.6-1.9h0.1c0.6,0,2.7,0.1,3.6,1.9
			c0.1,0.1,0.1,0.2,0.1,0.3l1.9-5.9l1.7,1.2c0,0,3.6,2.5,7.8,3.6c3.2,0.8,4.9,3.8,4.6,8.3c0,0.1-0.2,2.7-0.4,4l-0.1,0.6L58.5,60
			C58.2,60.2,51.3,64.6,39.8,64.6z M23.3,57.8c1.8,1,7.7,3.8,16.5,3.8c8.8,0,14.7-2.8,16.5-3.8c0.1-1.2,0.3-3,0.3-3
			c0.1-2.1-0.2-4.6-2.3-5.2c-2.9-0.7-5.5-2-7.1-2.9l-4.3,13.5l0-0.1l-0.4,1.3L39.8,54l-2.6,7.4l-0.4-1.3l0,0l-4.3-13.4
			c-1.6,0.9-4.2,2.2-7.1,2.9c-2.3,0.6-2.4,3.5-2.3,5.2C23,54.8,23.2,56.6,23.3,57.8z M38.8,49c0,0-0.1,0.6,1,2.3
			c1.2-1.7,1-2.3,1-2.3c-0.1-0.1-0.5-0.2-0.9-0.2h-0.1l0,0C39.3,48.7,38.9,48.9,38.8,49L38.8,49z"/>
	</g>
</g>
</svg>
