<?xml version="1.0" encoding="UTF-8"?> <svg xmlns="http://www.w3.org/2000/svg" xmlns:xlink="http://www.w3.org/1999/xlink" width="447px" height="392px" viewBox="0 0 447 392"> <!-- Generator: Sketch 57.1 (83088) - https://sketch.com --> <title>Group 17</title> <desc>Created with Sketch.</desc> <defs> <polygon id="path-1" points="0.298115314 0.311117314 32.9033111 0.311117314 32.9033111 33.6600007 0.298115314 33.6600007"></polygon> <polygon id="path-3" points="0.190533973 0.294690006 47.8290276 0.294690006 47.8290276 31.9837987 0.190533973 31.9837987"></polygon> </defs> <g id="Page-1" stroke="none" stroke-width="1" fill="none" fill-rule="evenodd"> <g id="artem" transform="translate(-611.000000, -3545.000000)"> <g id="Group-11-Copy-12" transform="translate(134.000000, 3545.000000)"> <g id="Group-17" transform="translate(477.000000, 0.000000)"> <g id="Group-177" transform="translate(0.000000, 186.000000)"> <g id="Group-3" transform="translate(0.000000, 0.157500)" fill="#EAF1F8"> <path d="M26.2689972,174.057588 C26.2689972,174.057588 -34.6164067,118.003126 28.9992558,87.3905508 C69.3214952,67.9870165 59.6753144,63.1535586 72.6874446,36.3520455 C88.6378724,3.49829804 167.907384,-21.1421572 201.037088,29.2276696 C225.428285,66.3104036 239.276622,65.5124434 257.075385,59.0153874 C277.486933,51.5647703 295.196578,35.5011579 319.431819,46.6008738 C354.242038,62.5438811 359.275192,96.4807605 381.502379,89.0839385 C441.004425,69.2824365 464.445125,156.148747 411.560108,174.496625 L26.2689972,174.057588 Z" id="Fill-1"></path> </g> <polygon id="Fill-4" fill="#C4D9ED" points="336.93775 158.2125 360.64575 158.2125 360.64575 42.923 336.93775 42.923"></polygon> <polygon id="Fill-6" fill="#D5E7F7" points="342.2625 158.2125 365.9705 158.2125 365.9705 42.923 342.2625 42.923"></polygon> <polygon id="Fill-7" fill="#C4D9ED" points="342.2685 49.5545 365.97025 49.5545 365.97025 42.8925 342.2685 42.8925"></polygon> <polygon id="Fill-8" fill="#C4D9ED" points="342.2685 64.0035 365.97025 64.0035 365.97025 57.3415 342.2685 57.3415"></polygon> <polygon id="Fill-9" fill="#C4D9ED" points="342.2685 78.4525 365.97025 78.4525 365.97025 71.7905 342.2685 71.7905"></polygon> <polygon id="Fill-10" fill="#C4D9ED" points="342.2685 92.90175 365.97025 92.90175 365.97025 86.23975 342.2685 86.23975"></polygon> <polygon id="Fill-11" fill="#C4D9ED" points="342.2685 107.35075 365.97025 107.35075 365.97025 100.68875 342.2685 100.68875"></polygon> <polygon id="Fill-12" fill="#C4D9ED" points="342.2685 121.8 365.97025 121.8 365.97025 115.138 342.2685 115.138"></polygon> <polygon id="Fill-13" fill="#C4D9ED" points="342.2685 136.24875 365.97025 136.24875 365.97025 129.58675 342.2685 129.58675"></polygon> <polygon id="Fill-14" fill="#C4D9ED" points="342.2685 150.698 365.97025 150.698 365.97025 144.036 342.2685 144.036"></polygon> <polygon id="Fill-15" fill="#C4D9ED" points="374.83725 158.2125 398.54525 158.2125 398.54525 59.2365 374.83725 59.2365"></polygon> <polygon id="Fill-16" fill="#D5E7F7" points="380.16175 158.2125 403.86975 158.2125 403.86975 59.2365 380.16175 59.2365"></polygon> <polygon id="Fill-17" fill="#C4D9ED" points="380.168 64.92975 403.86975 64.92975 403.86975 59.2105 380.168 59.2105"></polygon> <polygon id="Fill-18" fill="#C4D9ED" points="380.168 77.33425 403.86975 77.33425 403.86975 71.615 380.168 71.615"></polygon> <polygon id="Fill-19" fill="#C4D9ED" points="380.168 89.73875 403.86975 89.73875 403.86975 84.0195 380.168 84.0195"></polygon> <polygon id="Fill-20" fill="#C4D9ED" points="380.168 102.14325 403.86975 102.14325 403.86975 96.424 380.168 96.424"></polygon> <polygon id="Fill-21" fill="#C4D9ED" points="380.168 114.54775 403.86975 114.54775 403.86975 108.8285 380.168 108.8285"></polygon> <polygon id="Fill-22" fill="#C4D9ED" points="380.168 126.95225 403.86975 126.95225 403.86975 121.233 380.168 121.233"></polygon> <polygon id="Fill-23" fill="#C4D9ED" points="380.168 139.35675 403.86975 139.35675 403.86975 133.6375 380.168 133.6375"></polygon> <polygon id="Fill-24" fill="#C4D9ED" points="380.168 151.76125 403.86975 151.76125 403.86975 146.042 380.168 146.042"></polygon> <polygon id="Fill-25" fill="#DCEAF9" points="324.1065 169.15325 334.03425 169.15325 334.03425 154.67625 324.1065 154.67625"></polygon> <polygon id="Fill-26" fill="#C4D9ED" points="227.02475 174.62175 286.01775 174.62175 286.01775 143.035 227.02475 143.035"></polygon> <polygon id="Fill-27" fill="#C4D9ED" points="271.75775 174.62175 330.75075 174.62175 330.75075 158.94775 271.75775 158.94775"></polygon> <polygon id="Fill-28" fill="#C4D9ED" points="163.3025 174.6575 222.2955 174.6575 222.2955 147.99425 163.3025 147.99425"></polygon> <polygon id="Fill-29" fill="#D5E7F7" points="271.08575 152.65625 282.077 152.65625 282.077 146.762 271.08575 146.762"></polygon> <polygon id="Fill-30" fill="#D5E7F7" points="256.97675 152.65625 267.968 152.65625 267.968 146.762 256.97675 146.762"></polygon> <polygon id="Fill-31" fill="#D5E7F7" points="243.13675 152.65625 254.128 152.65625 254.128 146.762 243.13675 146.762"></polygon> <polygon id="Fill-32" fill="#D5E7F7" points="229.5625 152.65625 240.55375 152.65625 240.55375 146.762 229.5625 146.762"></polygon> <polygon id="Fill-33" fill="#ADC9E0" points="221.9755 174.62175 227.63775 174.62175 227.63775 143.035 221.9755 143.035"></polygon> <polygon id="Fill-34" fill="#ADC9E0" points="151.7365 174.6025 157.39875 174.6025 157.39875 136.827 151.7365 136.827"></polygon> <polygon id="Fill-35" fill="#ADC9E0" points="157.224 174.6025 163.3025 174.6025 163.3025 147.99425 157.224 147.99425"></polygon> <polygon id="Fill-36" fill="#D5E7F7" points="157.224 174.6025 189.6925 174.6025 189.6925 136.734 157.224 136.734"></polygon> <polygon id="Fill-37" fill="#D5E7F7" points="149.187 174.6025 189.6925 174.6025 189.6925 147.36175 149.187 147.36175"></polygon> <polygon id="Fill-38" fill="#C4D9ED" points="149.187 152.65625 189.6925 152.65625 189.6925 143.8025 149.187 143.8025"></polygon> <polygon id="Fill-39" fill="#ADC9E0" points="184.85425 158.2125 186.9345 158.2125 186.9345 155.28025 184.85425 155.28025"></polygon> <polygon id="Fill-40" fill="#ADC9E0" points="180.964 158.2125 183.04425 158.2125 183.04425 155.28025 180.964 155.28025"></polygon> <polygon id="Fill-41" fill="#ADC9E0" points="177.161 158.2125 179.24125 158.2125 179.24125 155.28025 177.161 155.28025"></polygon> <polygon id="Fill-42" fill="#ADC9E0" points="173.555 158.2125 175.63525 158.2125 175.63525 155.28025 173.555 155.28025"></polygon> <polygon id="Fill-43" fill="#ADC9E0" points="169.88 158.2125 171.96025 158.2125 171.96025 155.28025 169.88 155.28025"></polygon> <polygon id="Fill-44" fill="#ADC9E0" points="166.163 158.2125 168.24325 158.2125 168.24325 155.28025 166.163 155.28025"></polygon> <polygon id="Fill-45" fill="#ADC9E0" points="162.27275 158.2125 164.353 158.2125 164.353 155.28025 162.27275 155.28025"></polygon> <polygon id="Fill-46" fill="#ADC9E0" points="158.4695 158.2125 160.54975 158.2125 160.54975 155.28025 158.4695 155.28025"></polygon> <polygon id="Fill-47" fill="#ADC9E0" points="154.86375 158.2125 156.944 158.2125 156.944 155.28025 154.86375 155.28025"></polygon> <polygon id="Fill-48" fill="#ADC9E0" points="151.1885 158.2125 153.26875 158.2125 153.26875 155.28025 151.1885 155.28025"></polygon> <polygon id="Fill-49" fill="#ADC9E0" points="184.85425 163.38675 186.9345 163.38675 186.9345 160.4545 184.85425 160.4545"></polygon> <polygon id="Fill-50" fill="#ADC9E0" points="180.964 163.38675 183.04425 163.38675 183.04425 160.4545 180.964 160.4545"></polygon> <polygon id="Fill-51" fill="#ADC9E0" points="177.161 163.38675 179.24125 163.38675 179.24125 160.4545 177.161 160.4545"></polygon> <polygon id="Fill-52" fill="#ADC9E0" points="173.555 163.38675 175.63525 163.38675 175.63525 160.4545 173.555 160.4545"></polygon> <polygon id="Fill-53" fill="#ADC9E0" points="169.88 163.38675 171.96025 163.38675 171.96025 160.4545 169.88 160.4545"></polygon> <polygon id="Fill-54" fill="#ADC9E0" points="166.163 163.38675 168.24325 163.38675 168.24325 160.4545 166.163 160.4545"></polygon> <polygon id="Fill-55" fill="#ADC9E0" points="162.27275 163.38675 164.353 163.38675 164.353 160.4545 162.27275 160.4545"></polygon> <polygon id="Fill-56" fill="#ADC9E0" points="158.4695 163.38675 160.54975 163.38675 160.54975 160.4545 158.4695 160.4545"></polygon> <polygon id="Fill-57" fill="#ADC9E0" points="154.86375 163.38675 156.944 163.38675 156.944 160.4545 154.86375 160.4545"></polygon> <polygon id="Fill-58" fill="#ADC9E0" points="151.1885 163.38675 153.26875 163.38675 153.26875 160.4545 151.1885 160.4545"></polygon> <polygon id="Fill-59" fill="#ADC9E0" points="184.85425 168.48175 186.9345 168.48175 186.9345 165.5495 184.85425 165.5495"></polygon> <polygon id="Fill-60" fill="#ADC9E0" points="180.964 168.48175 183.04425 168.48175 183.04425 165.5495 180.964 165.5495"></polygon> <polygon id="Fill-61" fill="#ADC9E0" points="177.161 168.48175 179.24125 168.48175 179.24125 165.5495 177.161 165.5495"></polygon> <polygon id="Fill-62" fill="#ADC9E0" points="173.555 168.48175 175.63525 168.48175 175.63525 165.5495 173.555 165.5495"></polygon> <polygon id="Fill-63" fill="#ADC9E0" points="169.88 168.48175 171.96025 168.48175 171.96025 165.5495 169.88 165.5495"></polygon> <polygon id="Fill-64" fill="#ADC9E0" points="166.163 168.48175 168.24325 168.48175 168.24325 165.5495 166.163 165.5495"></polygon> <polygon id="Fill-65" fill="#ADC9E0" points="162.27275 168.48175 164.353 168.48175 164.353 165.5495 162.27275 165.5495"></polygon> <polygon id="Fill-66" fill="#ADC9E0" points="158.4695 168.48175 160.54975 168.48175 160.54975 165.5495 158.4695 165.5495"></polygon> <polygon id="Fill-67" fill="#ADC9E0" points="154.86375 168.48175 156.944 168.48175 156.944 165.5495 154.86375 165.5495"></polygon> <polygon id="Fill-68" fill="#ADC9E0" points="151.1885 168.48175 153.26875 168.48175 153.26875 165.5495 151.1885 165.5495"></polygon> <polygon id="Fill-69" fill="#ADC9E0" points="184.8545 149.3145 186.6025 149.3145 186.6025 146.29 184.8545 146.29"></polygon> <polygon id="Fill-70" fill="#ADC9E0" points="167.49925 149.3145 169.24725 149.3145 169.24725 146.29 167.49925 146.29"></polygon> <polygon id="Fill-71" fill="#ADC9E0" points="153.69375 149.3145 155.44175 149.3145 155.44175 146.29 153.69375 146.29"></polygon> <polygon id="Fill-72" fill="#D5E7F7" points="319.5835 174.6025 360.089 174.6025 360.089 147.36175 319.5835 147.36175"></polygon> <polygon id="Fill-73" fill="#C4D9ED" points="319.5835 152.65625 360.089 152.65625 360.089 143.8025 319.5835 143.8025"></polygon> <polygon id="Fill-74" fill="#ADC9E0" points="355.25075 158.2125 357.331 158.2125 357.331 155.28025 355.25075 155.28025"></polygon> <polygon id="Fill-75" fill="#ADC9E0" points="351.3605 158.2125 353.44075 158.2125 353.44075 155.28025 351.3605 155.28025"></polygon> <polygon id="Fill-76" fill="#ADC9E0" points="347.5575 158.2125 349.63775 158.2125 349.63775 155.28025 347.5575 155.28025"></polygon> <polygon id="Fill-77" fill="#ADC9E0" points="343.95175 158.2125 346.032 158.2125 346.032 155.28025 343.95175 155.28025"></polygon> <polygon id="Fill-78" fill="#ADC9E0" points="340.2765 158.2125 342.35675 158.2125 342.35675 155.28025 340.2765 155.28025"></polygon> <polygon id="Fill-79" fill="#ADC9E0" points="336.5595 158.2125 338.63975 158.2125 338.63975 155.28025 336.5595 155.28025"></polygon> <polygon id="Fill-80" fill="#ADC9E0" points="332.669 158.2125 334.7495 158.2125 334.7495 155.28025 332.669 155.28025"></polygon> <polygon id="Fill-81" fill="#ADC9E0" points="328.866 158.2125 330.94625 158.2125 330.94625 155.28025 328.866 155.28025"></polygon> <polygon id="Fill-82" fill="#ADC9E0" points="325.26025 158.2125 327.3405 158.2125 327.3405 155.28025 325.26025 155.28025"></polygon> <polygon id="Fill-83" fill="#ADC9E0" points="321.585 158.2125 323.6655 158.2125 323.6655 155.28025 321.585 155.28025"></polygon> <polygon id="Fill-84" fill="#ADC9E0" points="355.25075 163.38675 357.331 163.38675 357.331 160.4545 355.25075 160.4545"></polygon> <polygon id="Fill-85" fill="#ADC9E0" points="351.3605 163.38675 353.44075 163.38675 353.44075 160.4545 351.3605 160.4545"></polygon> <polygon id="Fill-86" fill="#ADC9E0" points="347.5575 163.38675 349.63775 163.38675 349.63775 160.4545 347.5575 160.4545"></polygon> <polygon id="Fill-87" fill="#ADC9E0" points="343.95175 163.38675 346.032 163.38675 346.032 160.4545 343.95175 160.4545"></polygon> <polygon id="Fill-88" fill="#ADC9E0" points="340.2765 163.38675 342.35675 163.38675 342.35675 160.4545 340.2765 160.4545"></polygon> <polygon id="Fill-89" fill="#ADC9E0" points="336.5595 163.38675 338.63975 163.38675 338.63975 160.4545 336.5595 160.4545"></polygon> <polygon id="Fill-90" fill="#ADC9E0" points="332.669 163.38675 334.7495 163.38675 334.7495 160.4545 332.669 160.4545"></polygon> <polygon id="Fill-91" fill="#ADC9E0" points="328.866 163.38675 330.94625 163.38675 330.94625 160.4545 328.866 160.4545"></polygon> <polygon id="Fill-92" fill="#ADC9E0" points="325.26025 163.38675 327.3405 163.38675 327.3405 160.4545 325.26025 160.4545"></polygon> <polygon id="Fill-93" fill="#ADC9E0" points="321.585 163.38675 323.6655 163.38675 323.6655 160.4545 321.585 160.4545"></polygon> <polygon id="Fill-94" fill="#ADC9E0" points="355.25075 168.48175 357.331 168.48175 357.331 165.5495 355.25075 165.5495"></polygon> <polygon id="Fill-95" fill="#ADC9E0" points="351.3605 168.48175 353.44075 168.48175 353.44075 165.5495 351.3605 165.5495"></polygon> <polygon id="Fill-96" fill="#ADC9E0" points="347.5575 168.48175 349.63775 168.48175 349.63775 165.5495 347.5575 165.5495"></polygon> <polygon id="Fill-97" fill="#ADC9E0" points="343.95175 168.48175 346.032 168.48175 346.032 165.5495 343.95175 165.5495"></polygon> <polygon id="Fill-98" fill="#ADC9E0" points="340.2765 168.48175 342.35675 168.48175 342.35675 165.5495 340.2765 165.5495"></polygon> <polygon id="Fill-99" fill="#ADC9E0" points="336.5595 168.48175 338.63975 168.48175 338.63975 165.5495 336.5595 165.5495"></polygon> <polygon id="Fill-100" fill="#ADC9E0" points="332.669 168.48175 334.7495 168.48175 334.7495 165.5495 332.669 165.5495"></polygon> <polygon id="Fill-101" fill="#ADC9E0" points="328.866 168.48175 330.94625 168.48175 330.94625 165.5495 328.866 165.5495"></polygon> <polygon id="Fill-102" fill="#ADC9E0" points="325.26025 168.48175 327.3405 168.48175 327.3405 165.5495 325.26025 165.5495"></polygon> <polygon id="Fill-103" fill="#ADC9E0" points="321.585 168.48175 323.6655 168.48175 323.6655 165.5495 321.585 165.5495"></polygon> <polygon id="Fill-104" fill="#ADC9E0" points="355.2505 149.3145 356.99875 149.3145 356.99875 146.29 355.2505 146.29"></polygon> <polygon id="Fill-105" fill="#ADC9E0" points="337.89575 149.3145 339.64375 149.3145 339.64375 146.29 337.89575 146.29"></polygon> <polygon id="Fill-106" fill="#ADC9E0" points="324.09025 149.3145 325.83825 149.3145 325.83825 146.29 324.09025 146.29"></polygon> <polygon id="Fill-107" fill="#D5E7F7" points="362.63275 174.6025 403.13825 174.6025 403.13825 147.36175 362.63275 147.36175"></polygon> <polygon id="Fill-108" fill="#C4D9ED" points="362.63275 152.65625 403.13825 152.65625 403.13825 143.8025 362.63275 143.8025"></polygon> <polygon id="Fill-109" fill="#C4D9ED" points="398.30025 158.2125 400.3805 158.2125 400.3805 155.28025 398.30025 155.28025"></polygon> <polygon id="Fill-110" fill="#C4D9ED" points="394.41 158.2125 396.49025 158.2125 396.49025 155.28025 394.41 155.28025"></polygon> <polygon id="Fill-111" fill="#C4D9ED" points="390.607 158.2125 392.68725 158.2125 392.68725 155.28025 390.607 155.28025"></polygon> <polygon id="Fill-112" fill="#C4D9ED" points="387.001 158.2125 389.08125 158.2125 389.08125 155.28025 387.001 155.28025"></polygon> <polygon id="Fill-113" fill="#C4D9ED" points="383.32575 158.2125 385.406 158.2125 385.406 155.28025 383.32575 155.28025"></polygon> <polygon id="Fill-114" fill="#C4D9ED" points="379.60875 158.2125 381.689 158.2125 381.689 155.28025 379.60875 155.28025"></polygon> <polygon id="Fill-115" fill="#C4D9ED" points="375.7185 158.2125 377.79875 158.2125 377.79875 155.28025 375.7185 155.28025"></polygon> <polygon id="Fill-116" fill="#C4D9ED" points="371.9155 158.2125 373.99575 158.2125 373.99575 155.28025 371.9155 155.28025"></polygon> <polygon id="Fill-117" fill="#C4D9ED" points="368.3095 158.2125 370.39 158.2125 370.39 155.28025 368.3095 155.28025"></polygon> <polygon id="Fill-118" fill="#C4D9ED" points="364.6345 158.2125 366.71475 158.2125 366.71475 155.28025 364.6345 155.28025"></polygon> <polygon id="Fill-119" fill="#C4D9ED" points="398.30025 163.38675 400.3805 163.38675 400.3805 160.4545 398.30025 160.4545"></polygon> <polygon id="Fill-120" fill="#C4D9ED" points="394.41 163.38675 396.49025 163.38675 396.49025 160.4545 394.41 160.4545"></polygon> <polygon id="Fill-121" fill="#C4D9ED" points="390.607 163.38675 392.68725 163.38675 392.68725 160.4545 390.607 160.4545"></polygon> <polygon id="Fill-122" fill="#C4D9ED" points="387.001 163.38675 389.08125 163.38675 389.08125 160.4545 387.001 160.4545"></polygon> <polygon id="Fill-123" fill="#C4D9ED" points="383.32575 163.38675 385.406 163.38675 385.406 160.4545 383.32575 160.4545"></polygon> <polygon id="Fill-124" fill="#C4D9ED" points="379.60875 163.38675 381.689 163.38675 381.689 160.4545 379.60875 160.4545"></polygon> <polygon id="Fill-125" fill="#C4D9ED" points="375.7185 163.38675 377.79875 163.38675 377.79875 160.4545 375.7185 160.4545"></polygon> <polygon id="Fill-126" fill="#C4D9ED" points="371.9155 163.38675 373.99575 163.38675 373.99575 160.4545 371.9155 160.4545"></polygon> <polygon id="Fill-127" fill="#C4D9ED" points="368.3095 163.38675 370.39 163.38675 370.39 160.4545 368.3095 160.4545"></polygon> <polygon id="Fill-128" fill="#C4D9ED" points="364.6345 163.38675 366.71475 163.38675 366.71475 160.4545 364.6345 160.4545"></polygon> <polygon id="Fill-129" fill="#C4D9ED" points="398.30025 168.48175 400.3805 168.48175 400.3805 165.5495 398.30025 165.5495"></polygon> <polygon id="Fill-130" fill="#C4D9ED" points="394.41 168.48175 396.49025 168.48175 396.49025 165.5495 394.41 165.5495"></polygon> <polygon id="Fill-131" fill="#C4D9ED" points="390.607 168.48175 392.68725 168.48175 392.68725 165.5495 390.607 165.5495"></polygon> <polygon id="Fill-132" fill="#C4D9ED" points="387.001 168.48175 389.08125 168.48175 389.08125 165.5495 387.001 165.5495"></polygon> <polygon id="Fill-133" fill="#C4D9ED" points="383.32575 168.48175 385.406 168.48175 385.406 165.5495 383.32575 165.5495"></polygon> <polygon id="Fill-134" fill="#C4D9ED" points="379.60875 168.48175 381.689 168.48175 381.689 165.5495 379.60875 165.5495"></polygon> <polygon id="Fill-135" fill="#C4D9ED" points="375.7185 168.48175 377.79875 168.48175 377.79875 165.5495 375.7185 165.5495"></polygon> <polygon id="Fill-136" fill="#C4D9ED" points="371.9155 168.48175 373.99575 168.48175 373.99575 165.5495 371.9155 165.5495"></polygon> <polygon id="Fill-137" fill="#C4D9ED" points="368.3095 168.48175 370.39 168.48175 370.39 165.5495 368.3095 165.5495"></polygon> <polygon id="Fill-138" fill="#C4D9ED" points="364.6345 168.48175 366.71475 168.48175 366.71475 165.5495 364.6345 165.5495"></polygon> <polygon id="Fill-139" fill="#ADC9E0" points="398.30025 149.3145 400.0485 149.3145 400.0485 146.29 398.30025 146.29"></polygon> <polygon id="Fill-140" fill="#ADC9E0" points="380.94525 149.3145 382.69325 149.3145 382.69325 146.29 380.94525 146.29"></polygon> <polygon id="Fill-141" fill="#ADC9E0" points="367.1395 149.3145 368.88775 149.3145 368.88775 146.29 367.1395 146.29"></polygon> <polygon id="Fill-142" fill="#D5E7F7" points="405.7775 174.6025 446.283 174.6025 446.283 147.36175 405.7775 147.36175"></polygon> <polygon id="Fill-143" fill="#C4D9ED" points="405.7775 152.65625 446.283 152.65625 446.283 143.8025 405.7775 143.8025"></polygon> <polygon id="Fill-144" fill="#C4D9ED" points="441.44475 158.2125 443.525 158.2125 443.525 155.28025 441.44475 155.28025"></polygon> <polygon id="Fill-145" fill="#C4D9ED" points="437.55475 158.2125 439.635 158.2125 439.635 155.28025 437.55475 155.28025"></polygon> <polygon id="Fill-146" fill="#C4D9ED" points="433.7515 158.2125 435.83175 158.2125 435.83175 155.28025 433.7515 155.28025"></polygon> <polygon id="Fill-147" fill="#C4D9ED" points="430.14575 158.2125 432.226 158.2125 432.226 155.28025 430.14575 155.28025"></polygon> <polygon id="Fill-148" fill="#C4D9ED" points="426.4705 158.2125 428.55075 158.2125 428.55075 155.28025 426.4705 155.28025"></polygon> <polygon id="Fill-149" fill="#C4D9ED" points="422.7535 158.2125 424.83375 158.2125 424.83375 155.28025 422.7535 155.28025"></polygon> <polygon id="Fill-150" fill="#C4D9ED" points="418.86325 158.2125 420.9435 158.2125 420.9435 155.28025 418.86325 155.28025"></polygon> <polygon id="Fill-151" fill="#C4D9ED" points="415.06025 158.2125 417.1405 158.2125 417.1405 155.28025 415.06025 155.28025"></polygon> <polygon id="Fill-152" fill="#C4D9ED" points="411.45425 158.2125 413.5345 158.2125 413.5345 155.28025 411.45425 155.28025"></polygon> <polygon id="Fill-153" fill="#C4D9ED" points="407.77925 158.2125 409.8595 158.2125 409.8595 155.28025 407.77925 155.28025"></polygon> <polygon id="Fill-154" fill="#C4D9ED" points="441.44475 163.38675 443.525 163.38675 443.525 160.4545 441.44475 160.4545"></polygon> <polygon id="Fill-155" fill="#C4D9ED" points="437.55475 163.38675 439.635 163.38675 439.635 160.4545 437.55475 160.4545"></polygon> <polygon id="Fill-156" fill="#C4D9ED" points="433.7515 163.38675 435.83175 163.38675 435.83175 160.4545 433.7515 160.4545"></polygon> <polygon id="Fill-157" fill="#C4D9ED" points="430.14575 163.38675 432.226 163.38675 432.226 160.4545 430.14575 160.4545"></polygon> <polygon id="Fill-158" fill="#C4D9ED" points="426.4705 163.38675 428.55075 163.38675 428.55075 160.4545 426.4705 160.4545"></polygon> <polygon id="Fill-159" fill="#C4D9ED" points="422.7535 163.38675 424.83375 163.38675 424.83375 160.4545 422.7535 160.4545"></polygon> <polygon id="Fill-160" fill="#C4D9ED" points="418.86325 163.38675 420.9435 163.38675 420.9435 160.4545 418.86325 160.4545"></polygon> <polygon id="Fill-161" fill="#C4D9ED" points="415.06025 163.38675 417.1405 163.38675 417.1405 160.4545 415.06025 160.4545"></polygon> <polygon id="Fill-162" fill="#C4D9ED" points="411.45425 163.38675 413.5345 163.38675 413.5345 160.4545 411.45425 160.4545"></polygon> <polygon id="Fill-163" fill="#C4D9ED" points="407.77925 163.38675 409.8595 163.38675 409.8595 160.4545 407.77925 160.4545"></polygon> <polygon id="Fill-164" fill="#C4D9ED" points="441.44475 168.48175 443.525 168.48175 443.525 165.5495 441.44475 165.5495"></polygon> <polygon id="Fill-165" fill="#C4D9ED" points="437.55475 168.48175 439.635 168.48175 439.635 165.5495 437.55475 165.5495"></polygon> <polygon id="Fill-166" fill="#C4D9ED" points="433.7515 168.48175 435.83175 168.48175 435.83175 165.5495 433.7515 165.5495"></polygon> <polygon id="Fill-167" fill="#C4D9ED" points="430.14575 168.48175 432.226 168.48175 432.226 165.5495 430.14575 165.5495"></polygon> <polygon id="Fill-168" fill="#C4D9ED" points="426.4705 168.48175 428.55075 168.48175 428.55075 165.5495 426.4705 165.5495"></polygon> <polygon id="Fill-169" fill="#C4D9ED" points="422.7535 168.48175 424.83375 168.48175 424.83375 165.5495 422.7535 165.5495"></polygon> <polygon id="Fill-170" fill="#C4D9ED" points="418.86325 168.48175 420.9435 168.48175 420.9435 165.5495 418.86325 165.5495"></polygon> <polygon id="Fill-171" fill="#C4D9ED" points="415.06025 168.48175 417.1405 168.48175 417.1405 165.5495 415.06025 165.5495"></polygon> <polygon id="Fill-172" fill="#C4D9ED" points="411.45425 168.48175 413.5345 168.48175 413.5345 165.5495 411.45425 165.5495"></polygon> <polygon id="Fill-173" fill="#C4D9ED" points="407.77925 168.48175 409.8595 168.48175 409.8595 165.5495 407.77925 165.5495"></polygon> <polygon id="Fill-174" fill="#ADC9E0" points="441.44475 149.3145 443.19275 149.3145 443.19275 146.29 441.44475 146.29"></polygon> <polygon id="Fill-175" fill="#ADC9E0" points="424.08975 149.3145 425.83775 149.3145 425.83775 146.29 424.08975 146.29"></polygon> <polygon id="Fill-176" fill="#ADC9E0" points="410.28425 149.3145 412.03225 149.3145 412.03225 146.29 410.28425 146.29"></polygon> </g> <g id="Group-942" transform="translate(61.000000, 0.000000)"> <path d="M33.4288423,387.646553 C37.7762624,382.790603 24.1997321,360.619883 23.4192821,352.911413 C23.4097121,352.816703 23.3305121,352.742783 23.2480121,352.694933 L15.7629519,348.319793 C15.6362319,348.245543 14.8303719,347.602373 14.7095919,347.685863 C13.2757419,348.679163 2.52368164,352.883033 2.5808725,358.094723 C2.59925164,359.726243 5.53790171,363.039113 6.67739173,364.206323 L30.9277723,389.050373 C31.9893823,390.137723 32.4154123,388.778783 33.4288423,387.646553" id="Fill-846" fill="#E2A346"></path> <path d="M26.1150522,374.155559 C26.2602522,374.155559 26.4061122,374.182619 26.5235922,374.078999 C26.5433922,374.061839 28.5735522,372.433949 30.6885223,372.433949 L30.7033723,372.433949 C31.0379923,372.433949 31.3132123,372.088769 31.3211323,371.752829 C31.3290523,371.411609 31.0591123,371.089199 30.7178923,371.081279 C28.1102322,371.013959 25.8032021,373.007489 25.7061821,373.093289 C25.4497721,373.319009 25.4253521,373.699829 25.6514021,373.956239 C25.7731721,374.094509 25.9437821,374.155559 26.1150522,374.155559" id="Fill-848" fill="#FFFFFF"></path> <path d="M22.9782701,368.066993 C23.1340301,368.066993 23.2897901,368.008583 23.4099101,367.891433 C23.7570701,367.552523 26.4426102,366.121643 27.6797802,366.010103 C28.0196802,365.979083 28.2704802,365.678453 28.2394602,365.338223 C28.2087702,364.998653 27.9071502,364.749503 27.5682402,364.778213 C26.0172401,364.918793 23.0917901,366.474083 22.5463001,367.006373 C22.3021001,367.244963 22.2974801,367.636343 22.5357401,367.880873 C22.6568501,368.004953 22.8175601,368.066993 22.9782701,368.066993" id="Fill-850" fill="#FFFFFF"></path> <g id="Group-854" transform="translate(0.390001, 357.426308)"> <mask id="mask-2" fill="white"> <use xlink:href="#path-1"></use> </mask> <g id="Clip-853"></g> <path d="M31.7905507,33.6601327 C32.0710507,33.6601327 32.3512207,33.5548627 32.5677007,33.3436627 C33.0075907,32.9143327 33.0161707,32.2094527 32.5868407,31.7698927 L2.20737005,0.646602014 C1.77804004,0.206712004 1.07349002,0.198462004 0.633600014,0.627462014 C0.193710004,1.05679202 0.185460004,1.76167204 0.614460013,2.20123205 L30.9942607,33.3245227 C31.2123907,33.5479327 31.5014707,33.6601327 31.7905507,33.6601327" id="Fill-852" fill="#172755" mask="url(#mask-2)"></path> </g> <path d="M107.881893,173.485921 C107.881893,173.485921 152.771134,184.730011 157.606954,187.452181 C163.764424,238.969802 101.325453,287.313813 90.2787025,294.488673 C74.5819222,304.683034 38.9307014,336.398674 24.4311611,353.645135 C23.0293211,355.312625 13.5870309,351.258575 14.4612009,347.424965 C18.557821,329.452834 28.5436212,297.124713 46.1583616,278.546043 C49.9847117,274.510803 63.121682,271.745403 66.760262,267.400293 C99.3091527,228.533222 107.881893,173.485921 107.881893,173.485921" id="Fill-855" fill="#BC7551"></path> <path d="M263.376015,80.3620967 C263.376015,80.3620967 253.701075,120.939228 223.265834,132.834738 C205.385444,139.823478 177.561163,114.889997 177.561163,114.889997 C177.561163,114.889997 194.347934,93.109997 198.061094,85.9506469 C213.403454,100.555457 223.265834,101.747087 223.265834,101.747087 C223.265834,101.747087 260.525475,77.6798567 263.376015,80.3620967" id="Fill-857" fill="#BC7551"></path> <path d="M253.121694,88.9939729 C251.917854,84.9973428 245.842884,76.4414327 249.933234,72.0870826 C254.023914,67.7320725 259.377504,72.5500726 259.377504,72.5500726 C259.377504,72.5500726 259.279824,68.8042425 260.532174,68.1218025 C261.784524,67.4393625 268.634004,66.7998224 270.746004,67.9508625 C272.858004,69.1019025 275.258095,78.7679327 274.869355,81.8402328 C274.480615,84.9131928 267.717594,94.9623531 258.367374,93.259883 C249.016824,91.557083 253.121694,88.9939729 253.121694,88.9939729" id="Fill-859" fill="#BC7551"></path> <path d="M257.097963,78.2299997 C259.363413,79.9139897 261.311073,80.0763497 262.248273,79.3800497 C261.771753,82.5315498 262.850523,82.8285498 263.756043,82.7622198 C263.482803,83.9587998 264.386673,86.1618799 264.871773,86.5681099 C265.356543,86.9740099 267.251073,85.2801198 267.763893,83.2159698 C267.763893,83.2159698 271.351323,84.6402498 271.219653,83.0080698 C270.938493,79.5090797 270.365283,71.2359795 267.780393,68.0653395 C266.918433,67.0083495 263.913453,67.3693695 263.180853,67.5294195 C259.400373,68.3550795 259.970283,70.6720095 259.448883,72.5985496 C258.112053,71.2419195 255.622863,70.2578595 254.217063,70.2740295 C252.686853,70.2911895 254.832513,76.5460097 257.097963,78.2299997" id="Fill-861" fill="#BC7551"></path> <path d="M260.834949,80.3591927 C260.966949,80.3591927 261.097629,80.3516027 261.226659,80.3351027 C261.793929,80.2628327 262.256919,79.8163427 262.497159,79.1098127 C262.984899,77.6749727 262.551609,75.0042826 259.725819,72.1989526 C259.531779,72.0065626 259.218609,72.0082126 259.026549,72.2015926 C258.833829,72.3956326 258.834819,72.7084726 259.028859,72.9008626 C261.704829,75.5576926 261.879399,77.8538327 261.560619,78.7913627 C261.451719,79.1114627 261.271869,79.3322327 261.102249,79.3536827 C259.080669,79.6186727 256.112649,76.8697727 255.139479,75.7916626 C254.956329,75.5890426 254.643819,75.5725426 254.441199,75.7560226 C254.238249,75.9388426 254.222079,76.2516827 254.404899,76.4543027 C254.555049,76.6206227 257.960979,80.3591927 260.834949,80.3591927" id="Fill-863" fill="#804737"></path> <path d="M261.947577,75.1233466 C262.205967,75.1233466 262.423437,74.9230366 262.440597,74.6610166 C262.491417,73.8799066 263.026677,72.0797566 263.292657,71.7840766 C263.849697,71.4679365 268.092177,70.5706665 271.324527,71.8002466 C271.579617,71.8972666 271.865397,71.7695566 271.962417,71.5138066 C272.059767,71.2587165 271.931397,70.9729365 271.675977,70.8759165 C268.015617,69.4826565 263.226327,70.5449265 262.660707,71.0214465 C262.045917,71.5395466 261.497457,73.9218166 261.453567,74.5966666 C261.435747,74.8692466 261.642327,75.1045366 261.914907,75.1223566 C261.925797,75.1230166 261.936687,75.1233466 261.947577,75.1233466" id="Fill-865" fill="#804737"></path> <path d="M265.050501,87.0916549 C265.116171,87.0916549 265.172931,87.0853849 265.218141,87.0774649 C266.472471,86.8576849 267.766731,85.4393449 268.147221,84.0368448 C268.807881,84.4064448 269.877411,84.8268648 271.503981,84.6456948 C271.775571,84.6153348 271.970931,84.3704748 271.940571,84.0992148 C271.910211,83.8276248 271.665681,83.6292948 271.394091,83.6626248 C269.651031,83.8576548 268.717131,83.2458348 268.215201,82.9171548 C268.137321,82.8656748 268.070001,82.8221148 268.013241,82.7891148 L267.254571,82.3459248 L267.269421,83.2243848 C267.288231,84.3381348 266.062941,85.9254349 265.047531,86.1033049 C265.005951,86.1108949 264.817521,85.9980349 264.618531,85.5858649 C263.970411,84.2454048 263.979321,81.5628348 265.466301,80.2392047 C267.922491,78.0536147 273.523912,79.8544247 273.580342,79.8729047 C273.840052,79.9573847 274.119232,79.8164747 274.204372,79.5574247 C274.289512,79.2977147 274.148272,79.0182047 273.888892,78.9327347 C273.637432,78.8502347 267.690171,76.9362347 264.808611,79.5003347 C262.878441,81.2186448 262.940811,84.3886248 263.728191,86.0165149 C264.171381,86.9332549 264.722481,87.0916549 265.050501,87.0916549" id="Fill-867" fill="#804737"></path> <path d="M263.261934,83.2773168 L263.263914,83.2773168 C263.537154,83.2773168 263.758254,83.2202268 263.757924,82.9473168 C263.757594,82.6740768 263.536494,82.6179768 263.263254,82.6179768 L263.261604,82.6179768 C263.080434,82.6179768 262.893654,82.3942368 262.754064,82.0368468 C262.154454,80.5016867 263.435514,76.2120167 264.347304,75.3728266 C265.496364,74.3161666 268.602324,74.3927266 272.655054,75.6523366 C272.916085,75.7338466 273.193285,75.5652166 273.274135,75.3051766 C273.355315,75.0441466 273.209455,74.7560566 272.948755,74.6748766 C268.424124,73.2697366 265.131714,73.2258466 263.677734,74.5636666 C262.530984,75.6183466 261.078324,80.3036867 261.832704,82.2345168 C262.093734,82.9030968 262.601274,83.2773168 263.261934,83.2773168" id="Fill-869" fill="#804737"></path> <path d="M220.056749,110.622206 C220.315469,110.622206 220.532939,110.421566 220.549769,110.159546 C220.678139,108.177236 221.780339,104.758766 223.336619,102.692966 C223.501289,102.474836 223.457399,102.164636 223.239269,102.000296 C223.021139,101.835626 222.710939,101.879186 222.546599,102.097976 C220.857989,104.339336 219.703319,107.924126 219.562739,110.095526 C219.544919,110.368106 219.751829,110.603396 220.024079,110.621216 C220.035299,110.621876 220.045859,110.622206 220.056749,110.622206" id="Fill-871" fill="#804737"></path> <path d="M103.095771,61.5794863 C114.353721,57.2568162 125.079381,56.9350662 138.096232,58.6325863 C151.281052,58.2346063 164.198242,59.0427763 176.479852,65.5480664 C189.382853,72.3830266 205.364093,88.5642469 206.681783,91.508837 C208.179983,94.8573471 198.163163,117.646488 186.761993,121.769838 C185.351243,122.279688 177.561262,119.486238 173.999242,115.361238 C159.561082,153.477558 168.477022,179.859079 156.855082,192.223189 C154.077472,195.178009 86.0948305,191.728189 83.7950604,178.871389 C83.1753204,175.408369 98.3216607,108.727577 101.703501,95.2906371 C105.164541,81.5398668 83.1753204,69.2282265 103.095771,61.5794863" id="Fill-873" fill="#E2A346"></path> <path d="M74.3799622,153.880554 C66.583712,148.465254 24.6228911,115.559634 45.8075716,90.224543 C56.2781418,77.7023627 75.8524222,68.3726025 87.7647625,64.9524824 C90.7786526,72.7728226 94.9211426,97.1010831 94.9211426,97.1010831 L70.6100421,110.259503 C70.6100421,110.259503 76.8566123,140.913864 82.5850824,143.678934 C85.6253724,145.146114 75.0719722,154.361034 74.3799622,153.880554" id="Fill-875" fill="#BC7551"></path> <path d="M82.5851484,143.678901 C85.8244284,144.387081 91.9498886,138.629571 93.4903286,140.417841 C94.3344686,141.397941 103.508469,150.963651 98.2888587,150.659721 C100.947999,153.430071 102.904569,158.122671 103.236549,159.340041 C103.970469,162.034492 91.2631586,167.908162 86.3976385,168.657922 C81.5321184,169.408342 73.6167382,159.741981 73.1039182,154.703211 C72.6706282,150.450831 77.5305383,142.573731 82.5851484,143.678901" id="Fill-877" fill="#BC7551"></path> <path d="M97.8146157,157.252758 C97.9307757,157.252758 98.0472657,157.212498 98.1409857,157.129668 C98.3462457,156.949488 98.3663757,156.636978 98.1858657,156.432048 C95.6616957,153.560718 95.2244456,151.448388 95.8867557,150.700938 C96.2075157,150.338598 96.7929357,150.348498 97.3437057,150.725028 C97.5690957,150.879138 97.8766557,150.821388 98.0310957,150.595998 C98.1852057,150.370938 98.1274557,150.062718 97.9020657,149.908608 C96.9358257,149.247288 95.8026057,149.303388 95.1462356,150.045228 C94.2017756,151.111458 94.3093556,153.520458 97.4433657,157.084788 C97.5407157,157.196328 97.6773357,157.252758 97.8146157,157.252758" id="Fill-879" fill="#804737"></path> <path d="M99.0434367,162.732871 C99.2978667,162.732871 99.5331567,162.714061 99.7446867,162.673801 C100.012977,162.622651 100.189197,162.363931 100.138047,162.095641 C100.086897,161.827351 99.8281767,161.649811 99.5595567,161.702281 C97.4195067,162.111811 92.3127566,159.85527 91.6969766,158.95833 C91.5422066,158.73327 91.2343166,158.67585 91.0092566,158.83062 C90.7841966,158.98539 90.7267766,159.29295 90.8815466,159.51801 C91.6804766,160.68192 96.3885867,162.732871 99.0434367,162.732871" id="Fill-881" fill="#804737"></path> <path d="M94.1195396,165.46471 C94.4891396,165.46471 94.8636896,165.43864 95.2418696,165.38056 C95.5118097,165.33931 95.6972697,165.08686 95.6556897,164.81692 C95.6144397,164.54698 95.3623197,164.36317 95.0920496,164.40277 C92.3002496,164.8321 89.5787395,163.24876 88.4168095,162.57325 L88.2973495,162.50428 C88.0610695,162.36766 87.7584595,162.44785 87.6218395,162.68446 C87.4848895,162.92074 87.5654095,163.22335 87.8016895,163.35997 L87.9194995,163.42861 C89.0210395,164.06881 91.4224496,165.46471 94.1195396,165.46471" id="Fill-883" fill="#804737"></path> <path d="M89.3393575,167.552026 C89.7950875,167.552026 90.2461975,167.497906 90.6788276,167.369866 C90.9408476,167.292316 91.0903376,167.017426 91.0127876,166.755406 C90.9355676,166.493716 90.6606776,166.343566 90.3983275,166.421116 C87.9312475,167.150416 84.4471074,164.879686 84.4121274,164.856586 C84.1840974,164.706436 83.8775274,164.769136 83.7273774,164.997166 C83.5768974,165.225196 83.6399274,165.531766 83.8676274,165.682246 C84.0022674,165.771016 86.7379675,167.552026 89.3393575,167.552026" id="Fill-885" fill="#804737"></path> <path d="M70.6096131,110.754338 C70.6432731,110.754338 70.6775931,110.750708 70.7119131,110.743778 C70.9792131,110.687678 71.1501531,110.425328 71.0940531,110.157698 C70.6544931,108.066488 69.0500331,106.184168 66.692843,104.992868 C65.008853,104.141798 63.239723,103.817408 62.3906329,104.205158 C62.1421429,104.318678 62.0325829,104.612048 62.1457729,104.860868 C62.2592929,105.109028 62.5523329,105.218918 62.8008229,105.105068 C63.208373,104.918948 64.585133,105.035768 66.246683,105.875948 C67.234373,106.374908 69.5899131,107.811398 70.1261631,110.361308 C70.1750031,110.594618 70.3805931,110.754338 70.6096131,110.754338" id="Fill-887" fill="#804737"></path> <path d="M132.512499,57.7216543 C100.958229,47.826934 70.0893681,69.2115945 69.4706181,71.7159646 C68.4116481,76.0023346 80.2263083,99.1495251 87.7714285,102.257465 C96.4672587,102.257465 107.153979,100.922945 109.957989,94.9958151 C116.250759,81.6941748 132.512499,57.7216543 132.512499,57.7216543" id="Fill-889" fill="#E2A346"></path> <path d="M286.220959,314.208682 C280.914559,310.604092 250.864428,313.271812 248.788398,313.242772 C248.693028,313.241452 248.600958,313.276432 248.530338,313.340452 L242.095998,319.151752 C241.986768,319.249762 241.295748,319.725952 241.338978,319.866532 C241.851798,321.533362 244.773618,332.428312 247.772658,334.703332 C249.072198,335.689372 253.032858,333.350002 254.490138,332.616742 L285.505519,317.017312 C286.863139,316.334212 287.477929,315.062722 286.220959,314.208682" id="Fill-891" fill="#E2A346"></path> <path d="M267.559359,317.56828 C267.642519,317.56828 267.727329,317.55112 267.808509,317.51548 C268.121019,317.37754 268.262589,317.01256 268.124649,316.70038 C268.114419,316.67629 267.054129,314.21284 267.742509,312.20974 C267.853719,311.88667 267.681789,311.53489 267.358719,311.42401 C267.035979,311.31346 266.684199,311.48473 266.573319,311.8078 C265.725549,314.27422 266.941269,317.08087 266.993409,317.19934 C267.095379,317.43067 267.321759,317.56828 267.559359,317.56828" id="Fill-893" fill="#FFFFFF"></path> <path d="M262.722945,318.437434 C262.816335,318.437434 262.911045,318.416644 263.000145,318.371434 C263.305065,318.217984 263.428155,317.846404 263.274705,317.541484 C263.056905,317.108194 262.505475,314.115754 262.772775,312.902674 C262.846365,312.569044 262.635495,312.239374 262.302195,312.165784 C261.968235,312.091864 261.638895,312.303064 261.565305,312.636364 C261.230355,314.157004 261.827985,317.416084 262.170195,318.096874 C262.278765,318.312694 262.496565,318.437434 262.722945,318.437434" id="Fill-895" fill="#FFFFFF"></path> <path d="M248.725005,336.336073 C248.893305,336.336073 249.063585,336.297793 249.224295,336.217273 L288.078826,316.674673 C288.627616,316.398463 288.849046,315.729553 288.572836,315.180433 C288.296956,314.631643 287.627716,314.410543 287.078926,314.686423 L248.224065,334.228693 C247.675275,334.504903 247.453845,335.174143 247.730055,335.723263 C247.925745,336.111673 248.317785,336.336073 248.725005,336.336073" id="Fill-897" fill="#172755"></path> <path d="M86.6289355,181.136509 C84.7093254,188.787229 70.8549351,204.086689 81.3723653,220.25636 C92.1521456,236.82929 182.972438,226.24289 191.711168,230.08508 C194.262398,231.20675 193.594808,261.619221 197.838278,270.527901 C206.774018,289.287081 229.476699,309.771502 242.240109,319.523662 C243.780879,320.701102 250.456779,315.200662 249.442029,312.816412 C241.202919,293.462571 226.095518,206.897299 219.565148,199.398379 C202.142798,179.390479 87.5502955,177.464929 86.6289355,181.136509" id="Fill-899" fill="#BC7551"></path> <path d="M162.462244,182.260225 C162.462244,182.260225 143.278684,261.845337 122.765223,278.114667 C113.405433,285.537687 66.618362,259.722777 66.618362,257.784027 C66.618362,255.845277 82.6695624,220.256426 82.6695624,220.256426 L100.147023,180.208285 L162.462244,182.260225 Z" id="Fill-901" fill="#172755"></path> <path d="M86.6289355,181.136509 C86.6289355,181.136509 66.430955,203.884069 81.2192453,224.86217 C96.0072057,245.84027 177.690787,240.93977 178.981747,238.35752 C180.273037,235.7756 205.281428,193.239919 203.296148,190.129999 C198.609488,182.788819 111.813876,174.511429 86.6289355,181.136509" id="Fill-903" fill="#172755"></path> <path d="M143.575057,241.581587 C143.543707,241.581587 143.512687,241.580267 143.481007,241.577297 C91.5716756,236.694617 81.2278253,225.984137 80.8130153,225.530387 C80.4437453,225.127457 80.4717953,224.500787 80.8750553,224.131847 C81.2776553,223.763897 81.8993754,223.790627 82.2693054,224.189267 C82.4095554,224.335127 92.9497556,234.835727 143.666467,239.606207 C144.210967,239.657027 144.610597,240.140147 144.559117,240.684317 C144.511267,241.197137 144.079627,241.581587 143.575057,241.581587" id="Fill-905" fill="#999999"></path> <path d="M185.884655,225.692285 C185.865845,225.692285 185.847365,225.691625 185.828225,225.690305 C185.652665,225.678755 168.020104,224.474255 148.676494,221.465315 C122.588343,217.407965 105.962283,212.165255 99.2583327,205.883044 C91.8650126,198.954364 96.5520027,180.769054 96.7552827,179.998174 C96.8711127,179.557624 97.3212327,179.294284 97.7631027,179.410774 C98.2036527,179.526604 98.4666627,179.978374 98.3508327,180.418924 C98.3036427,180.598114 93.7093826,198.421084 100.386933,204.678874 C115.858323,219.178085 185.240165,223.997075 185.939105,224.044265 C186.393515,224.074955 186.737375,224.467985 186.706685,224.922725 C186.677315,225.358325 186.314975,225.692285 185.884655,225.692285" id="Fill-907" fill="#FFFFFF"></path> <path d="M183.938843,230.880116 C183.924323,230.880116 183.910133,230.880116 183.895613,230.879126 C183.722363,230.870216 166.353142,229.950176 146.900962,227.202266 C120.687411,223.499996 103.366041,218.414366 95.4183207,212.086946 C90.5904205,208.243766 88.4645605,201.545095 89.2704205,192.715945 C89.8690405,186.155875 91.8328706,180.795685 91.9160306,180.570625 C92.0741006,180.143605 92.5486406,179.925145 92.9756606,180.083215 C93.4030106,180.241615 93.6214706,180.715825 93.4634006,181.143175 C93.4436006,181.196635 91.4847206,186.551875 90.9105206,192.899755 C90.3911005,198.640435 90.9299906,206.405335 96.4456107,210.796316 C106.053231,218.444396 129.305361,223.049876 147.119752,225.566786 C166.501312,228.305126 183.808163,229.222526 183.980753,229.231436 C184.435823,229.254866 184.785623,229.642946 184.762193,230.098016 C184.739423,230.538566 184.374773,230.880116 183.938843,230.880116" id="Fill-909" fill="#FFFFFF"></path> <path d="M141.631786,68.7711765 C135.302716,68.7715065 130.600875,67.2983865 127.608435,64.3676564 C123.827955,60.6657163 124.292265,56.0533062 124.313715,55.8586062 C124.364205,55.4058462 124.770765,55.0798062 125.224845,55.1296362 C125.677275,55.1797962 126.003645,55.5873462 125.953815,56.0394462 C125.935335,56.2209462 125.578935,60.0911863 128.785215,63.2106764 C132.344595,66.6740264 139.075936,67.8623565 148.252246,66.6479564 C157.074136,65.4800864 158.963056,63.2961464 159.303946,62.0979163 C159.831616,60.2413363 157.535146,58.3355863 157.512046,58.3164463 C157.159936,58.0283563 157.107136,57.5089362 157.394566,57.1564962 C157.681666,56.8033962 158.199436,56.7492762 158.552866,57.0360462 C158.682226,57.1409862 161.711956,59.6397463 160.892896,62.5417664 C160.085056,65.4058364 156.021106,67.2838665 148.469056,68.2837665 C146.012536,68.6091465 143.732236,68.7711765 141.631786,68.7711765" id="Fill-911" fill="#FFFFFF"></path> <path d="M94.2017096,103.406987 C94.0809296,103.406987 93.9584996,103.380257 93.8423396,103.324157 C87.8409595,100.414877 82.3886994,93.623807 77.6373593,83.1410268 C74.1294592,75.4008766 72.3253492,68.3979465 72.3071992,68.3283165 C72.1946691,67.8867765 72.4613092,67.4376465 72.9028492,67.3251165 C73.3424092,67.2129165 73.7935192,67.4788965 73.9060492,67.9204365 C73.9760092,68.1933465 81.0284393,95.2784271 94.5623996,101.839487 C94.9722596,102.038147 95.1435296,102.531827 94.9448696,102.941687 C94.8019796,103.235387 94.5079496,103.406987 94.2017096,103.406987" id="Fill-913" fill="#FFFFFF"></path> <path d="M181.112888,121.764195 C180.799718,121.764195 180.500407,121.585335 180.361807,121.281735 C180.172387,120.867255 180.355207,120.377865 180.769688,120.188775 C197.976878,112.332134 202.682348,86.9798839 202.727888,86.7247939 C202.807748,86.2763239 203.237408,85.9766839 203.684888,86.0575339 C204.133358,86.1373939 204.432338,86.5660639 204.352148,87.0145339 C204.303968,87.2834839 203.138078,93.687464 199.752938,101.195954 C195.244808,111.195944 188.917058,118.282365 181.454768,121.689285 C181.343888,121.740435 181.227398,121.764195 181.112888,121.764195" id="Fill-915" fill="#FFFFFF"></path> <path d="M21.197755,323.914015 L39.9813555,337.230835 L24.2271551,355.895306 C24.2271551,355.895306 14.1740349,352.684736 14.1367449,347.749256 C14.0796549,340.228885 21.197755,323.914015 21.197755,323.914015" id="Fill-917" fill="#B4E8FF"></path> <path d="M17.671507,354.556991 C17.671507,354.556991 27.8635572,344.722 29.3759472,345.36748 C30.8880073,346.01296 35.4066974,349.589171 35.1912073,350.920721 C34.9760473,352.252931 24.1995671,358.385981 24.1995671,358.385981 L17.671507,354.556991 Z" id="Fill-919" fill="#E2A346"></path> <path d="M223.214453,303.314161 L242.756724,290.17983 L249.922344,313.506541 C249.922344,313.506541 245.191794,322.330411 241.267434,319.523761 C238.218894,317.344111 223.214453,303.314161 223.214453,303.314161" id="Fill-921" fill="#B4E8FF"></path> <path d="M247.611255,318.437434 C247.611255,318.437434 241.318815,306.523114 243.040095,305.017324 C244.761375,303.511204 248.413155,301.359604 249.922245,302.219914 C251.431665,303.080884 252.292305,314.479414 252.292305,314.479414 L247.611255,318.437434 Z" id="Fill-923" fill="#E2A346"></path> <path d="M162.416968,20.4393754 C162.416968,20.4393754 163.952458,29.2421256 166.695088,35.2814558 C167.092078,36.1569458 164.995588,36.5809958 163.528408,36.7657958 C163.220848,42.3810759 162.030538,47.582536 159.079348,49.0701761 C157.464988,49.8806561 155.775718,50.2535561 154.072588,50.2535561 C154.476178,54.4801962 156.171058,57.1459362 156.263458,58.8929563 C156.679918,66.7664264 123.366417,65.7906164 128.409807,55.4015562 C132.106467,47.787136 133.420197,38.3933558 135.106168,31.6392457 L135.519988,31.7590357 C134.849758,28.0075956 135.181408,24.0987455 136.911928,20.4565354 C141.969838,9.81403521 157.677178,10.8363752 162.187948,19.9777054 L162.416968,20.4393754 Z" id="Fill-925" fill="#BC7551"></path> <path d="M151.093513,11.8735653 C144.367453,10.7113052 136.951693,9.3939452 135.279913,14.9947053 C127.211082,14.5696653 128.534712,27.4116156 129.953382,32.6757757 C130.914012,36.2384558 131.769702,43.835386 133.098282,43.835386 C136.102273,43.835716 142.340593,38.8880258 140.504803,35.3180858 C138.397093,31.2201457 139.596313,28.6072056 140.537803,28.3432056 C146.587363,26.6483256 143.939443,34.9877558 144.297823,35.5777958 C144.297823,35.5777958 145.409923,34.4871457 146.381773,32.9038057 C146.840473,32.1560257 148.747543,28.5187656 147.730153,21.7049255 L151.093513,11.8735653 Z" id="Fill-927" fill="#172755"></path> <path d="M153.238843,50.8309571 C153.229273,50.8309571 153.219373,50.8309571 153.209803,50.8302971 C149.085463,50.6256971 146.213473,49.4792771 144.674023,47.424037 C143.014123,45.207097 143.570503,42.7842369 143.595253,42.6822669 C143.669833,42.3723969 143.982013,42.1816569 144.291553,42.2555769 C144.601093,42.3298269 144.791833,42.6403569 144.718903,42.9498969 C144.713293,42.9736569 144.271423,44.974117 145.610233,46.746877 C146.937163,48.5044571 149.513473,49.4904971 153.267223,49.6766171 C153.585673,49.6927871 153.831193,49.9633871 153.815353,50.2821671 C153.799843,50.5907171 153.544753,50.8309571 153.238843,50.8309571" id="Fill-929" fill="#804737"></path> <path d="M158.821123,31.9871317 L158.732353,31.9871317 C158.057173,31.9871317 157.510033,31.4399917 157.510033,30.7648117 L157.510033,29.7444516 C157.510033,29.0692716 158.057173,28.5221316 158.732353,28.5221316 L158.821123,28.5221316 C159.496303,28.5221316 160.043443,29.0692716 160.043443,29.7444516 L160.043443,30.7648117 C160.043443,31.4399917 159.496303,31.9871317 158.821123,31.9871317" id="Fill-931" fill="#804737"></path> <path d="M161.645461,42.4336779 C159.414661,42.4336779 158.490001,41.1159879 158.310481,40.3398279 C158.238541,40.0292979 158.432251,39.7187679 158.742781,39.6468279 C159.051661,39.5752179 159.358891,39.7656279 159.434131,40.0725279 C159.476371,40.2305979 159.904711,41.5472979 162.326911,41.2318179 C162.642721,41.1922179 162.932791,41.4136479 162.974041,41.7297879 C163.015291,42.0462579 162.792541,42.3359979 162.476071,42.3772479 C162.181051,42.4155279 161.904181,42.4336779 161.645461,42.4336779" id="Fill-933" fill="#804737"></path> <path d="M153.642631,26.6845596 C153.642631,26.6845596 157.984441,25.2266195 161.200621,25.8440496 C161.836201,25.9658196 161.709811,23.9260895 160.048921,23.8389695 C158.263291,23.7455795 154.153141,24.2550995 153.642631,25.2394895 C153.243001,26.0097096 153.642631,26.6845596 153.642631,26.6845596" id="Fill-935" fill="#172755"></path> <g id="Group-939" transform="translate(119.190003, 0.036300)"> <mask id="mask-4" fill="white"> <use xlink:href="#path-3"></use> </mask> <g id="Clip-938"></g> <path d="M43.95511,16.3183684 C52.6968101,12.2243883 45.06193,5.36005812 36.6591398,6.71602815 C41.1702399,0.170148004 26.6307696,-3.11962207 20.2218394,5.47753812 C10.0891892,2.24881805 0.45714901,7.46116816 9.57042921,15.6867483 C1.76097904,18.2528284 -8.50796118,26.6717886 13.2519093,31.9837987 L43.95511,16.3183684 Z" id="Fill-937" fill="#172755" mask="url(#mask-4)"></path> </g> <path d="M129.218439,31.9661767 C127.908669,28.9945266 135.78544,21.5259665 145.90555,18.9595564 C156.38272,16.3027264 160.39915,15.0876663 162.49135,16.8046564 C163.08073,22.2255665 162.75205,22.2282065 162.54514,21.5649065 C162.40093,21.1035665 157.84693,20.3646964 148.15648,23.9917265 C132.950079,29.6838966 131.565069,39.8564769 130.770759,38.5740968 C129.554049,36.6109268 129.787689,33.2577967 129.218439,31.9661767" id="Fill-940" fill="#E2A346"></path> </g> </g> </g> </g> </g> </svg> 