<?xml version="1.0" encoding="UTF-8"?> <svg xmlns="http://www.w3.org/2000/svg" xmlns:xlink="http://www.w3.org/1999/xlink" width="57px" height="57px" viewBox="0 0 57 57"> <!-- Generator: Sketch 57.1 (83088) - https://sketch.com --> <title>Group 16</title> <desc>Created with Sketch.</desc> <defs> <circle id="path-1" cx="28.1250011" cy="28.1250011" r="28.1250011"></circle> <polygon id="path-3" points="0 222.19919 131.914779 222.19919 131.914779 0.0495719977 0 0.0495719977"></polygon> </defs> <g id="Page-1" stroke="none" stroke-width="1" fill="none" fill-rule="evenodd"> <g id="artem" transform="translate(-197.000000, -21.000000)"> <g id="Group-8"> <g id="Group-7" transform="translate(197.000000, 21.000000)"> <g id="Group-5"> <g id="Group-16"> <g id="Group-15"> <g id="Group-2"> <mask id="mask-2" fill="white"> <use xlink:href="#path-1"></use> </mask> <g id="Oval"> <use fill="#FBEFAA" xlink:href="#path-1"></use> <use fill="#DEF6E8" xlink:href="#path-1"></use> </g> <g id="Group-67" mask="url(#mask-2)"> <g transform="translate(-47.000000, 6.000000)"> <path d="M84.3321935,4.59654891 C83.127594,3.46523816 82.1252676,2.11853222 80.4888085,1.67393944 C78.8524466,1.22934666 77.1114975,1.27989066 75.4160379,1.43511905 C72.2989313,1.72030384 69.1151454,2.38903981 66.5874596,4.12571213 C62.7684717,6.74962601 61.0700962,11.4438998 61.1170438,15.8877864 C61.2052042,24.2374604 55.4570881,41.6109876 59.1541871,43.2783563 C62.8511889,44.9456278 84.7055387,43.8937295 88.5058641,41.5272984 C93.7637035,38.2533109 85.9162619,18.1331063 86.8497706,12.2735018 C86.8497706,12.2735018 86.232259,6.38094642 84.3321935,4.59654891" id="Fill-1" stroke="none" fill="#A3262A" fill-rule="evenodd"></path> <path d="M81.7919202,22.1225343 C81.7919202,22.1225343 83.2728594,21.2758251 83.564751,20.7274228 C83.7468066,20.3852788 84.5353901,18.5029037 84.5353901,17.2885841 C84.5353901,16.0741674 82.4924406,16.7280317 81.7919202,17.2885841 L81.7919202,22.1225343 Z" id="Fill-3" stroke="none" fill="#F29879" fill-rule="evenodd"></path> <path d="M82.9104784,20.1352512 C82.899592,20.1352512 82.8885112,20.1326268 82.8787912,20.1270864 C82.8525472,20.1119232 82.8454516,20.0814024 82.8629476,20.058852 C83.3925903,19.3769941 83.6934243,18.5501137 83.7099483,17.7306205 C83.7125727,17.5999837 83.7028527,17.4670142 83.6145951,17.3782706 C83.4995103,17.2626026 83.2841151,17.2619222 83.1309279,17.3212142 C82.9575232,17.388185 82.8211516,17.5218349 82.7009152,17.6398357 C82.6801144,17.6603449 82.643956,17.6622889 82.620142,17.6444041 C82.5964252,17.6265193 82.5940924,17.5955125 82.6148932,17.5751005 C82.7428084,17.4496154 82.8878308,17.3073146 83.0840775,17.2315958 C83.2760475,17.157335 83.5498599,17.1619034 83.7014919,17.3144102 C83.8145355,17.428037 83.8273659,17.5824877 83.8243527,17.7323701 C83.8074399,18.5704285 83.4998019,19.4160685 82.9581064,20.1133812 C82.9471228,20.1275724 82.9289464,20.1352512 82.9104784,20.1352512" id="Fill-5" stroke="none" fill="#BD6142" fill-rule="evenodd"></path> <mask id="mask-4" fill="white"> <use xlink:href="#path-3"></use> </mask> <g id="Clip-8" stroke="none" fill="none"></g> <polygon id="Fill-7" stroke="none" fill="#FFA07F" fill-rule="evenodd" mask="url(#mask-4)" points="70.2260247 43.2257128 79.8433811 43.2257128 79.8433811 25.4841864 70.2260247 25.4841864"></polygon> <path d="M70.2260442,25.3800366 L79.8434005,25.3800366 L79.8434005,31.8174951 C78.5862158,33.5507654 76.8861879,34.6950038 75.004396,34.7025854 C73.1388364,34.6899494 71.4654413,33.5650538 70.2260442,31.8577359 L70.2260442,25.3800366 Z" id="Fill-9" stroke="none" fill="#FA704E" fill-rule="evenodd" mask="url(#mask-4)"></path> <path d="M82.3954156,8.14125778 C82.9577176,9.17031413 83.2740063,10.2573017 83.1743763,11.4256456 C82.989988,13.5876651 82.6213084,16.928429 82.6213084,17.9118013 C82.6213084,18.8950765 82.8977452,20.915184 83.4794871,23.2241699 C83.6339379,23.8371131 83.9271903,24.4422802 83.8229919,25.065721 C83.7411495,25.5552202 83.4639351,25.986691 83.1930387,26.4026097 L82.8691684,26.8995933 C81.95578,28.1109969 81.0281032,29.339702 79.8251561,30.26456 C78.6279438,31.1850439 77.1033618,31.7833099 75.6106615,31.5542095 C74.2385864,31.3435771 67.9230167,27.8116209 67.0245971,25.0012774 C66.0729119,22.0240415 65.9574383,20.0946216 65.9574383,17.4686666 C65.9574383,14.8428087 66.0742727,9.07243374 67.5373271,7.60937941 C69.0003814,6.14632508 80.7422381,5.11581072 82.3954156,8.14125778" id="Fill-10" stroke="none" fill="#FFA07F" fill-rule="evenodd" mask="url(#mask-4)"></path> <path d="M66.6069579,22.6205968 C66.6069579,22.6205968 64.6082344,21.4778164 64.2142828,20.7377357 C63.9685612,20.2759385 62.9042212,17.7354222 62.9042212,16.0964359 C62.9042212,14.457644 65.6615907,15.3401227 66.6069579,16.0964359 L66.6069579,22.6205968 Z" id="Fill-11" stroke="none" fill="#FFA07F" fill-rule="evenodd" mask="url(#mask-4)"></path> <path d="M65.0972961,19.9385282 C65.1119733,19.9385282 65.1269421,19.9348346 65.1400641,19.9273502 C65.1755421,19.9070354 65.1850677,19.8658226 65.1614481,19.835399 C64.4465422,18.9151094 64.040635,17.7991563 64.018279,16.6931175 C64.0147798,16.5168939 64.0279018,16.3373655 64.147069,16.2175179 C64.3023946,16.0615119 64.5930226,16.0605399 64.799767,16.1405355 C65.0338245,16.2309315 65.2178241,16.4113347 65.3801481,16.5706455 C65.4082389,16.5982503 65.4570333,16.6009719 65.4891093,16.5767691 C65.5210881,16.5527607 65.5243929,16.5107703 65.4962049,16.4832627 C65.3235777,16.3138431 65.1278169,16.1218731 64.8630442,16.0196187 C64.603909,15.9194055 64.2343546,15.9256263 64.0296514,16.1314959 C63.8771446,16.2847803 63.8599402,16.4931771 63.8639254,16.6954503 C63.8867674,17.8264695 64.3019086,18.9677918 65.0330469,19.9089794 C65.0478213,19.928225 65.0723157,19.9385282 65.0972961,19.9385282" id="Fill-12" stroke="none" fill="#BD6142" fill-rule="evenodd" mask="url(#mask-4)"></path> <path d="M71.6122425,16.3461621 C72.4369844,15.4050718 73.6003712,15.0744946 74.7998191,14.8464634 C74.9962603,14.8102078 74.8781623,14.381167 74.6572267,14.2228282 C74.4364855,14.064781 74.1330272,13.959805 73.9873244,14.0002402 C73.0537184,14.248489 72.2465697,14.7961138 71.6393613,15.5918902 C71.5450773,15.7170838 71.4511821,16.0083921 71.4231885,16.2304941 C71.3955837,16.4527905 71.4765513,16.4993493 71.6122425,16.3461621" id="Fill-13" stroke="none" fill="#1A1A1A" fill-rule="evenodd" mask="url(#mask-4)"></path> <path d="M83.2780693,16.2152143 C82.2868237,15.4514167 81.0815438,15.3522727 79.8605175,15.3605347 C79.6607715,15.3628675 79.6936251,14.9191495 79.8797631,14.721056 C80.0658038,14.5233512 80.3432126,14.3615132 80.4939698,14.3729828 C81.4579994,14.4359684 82.3558357,14.8171868 83.1055393,15.4803823 C83.2222765,15.5850667 83.3707981,15.8526583 83.4410737,16.0651375 C83.5113493,16.2779083 83.4407821,16.3392415 83.2780693,16.2152143" id="Fill-14" stroke="none" fill="#1A1A1A" fill-rule="evenodd" mask="url(#mask-4)"></path> <path d="M80.6081507,19.71907 L80.6824115,19.71907 C80.977705,19.71907 81.2191498,19.477528 81.2191498,19.1823316 L81.2191498,17.9935757 C81.2191498,17.6983793 80.977705,17.4568373 80.6824115,17.4568373 L80.6081507,17.4568373 C80.3129543,17.4568373 80.0714123,17.6983793 80.0714123,17.9935757 L80.0714123,19.1823316 C80.0714123,19.477528 80.3129543,19.71907 80.6081507,19.71907" id="Fill-15" stroke="none" fill="#1A1A1A" fill-rule="evenodd" mask="url(#mask-4)"></path> <path d="M73.9458686,19.7911632 L74.0201294,19.7911632 C74.3153258,19.7911632 74.5568677,19.5496213 74.5568677,19.2544249 L74.5568677,18.0656689 C74.5568677,17.7703753 74.3153258,17.5289305 74.0201294,17.5289305 L73.9458686,17.5289305 C73.6506722,17.5289305 73.4091302,17.7703753 73.4091302,18.0656689 L73.4091302,19.2544249 C73.4091302,19.5496213 73.6506722,19.7911632 73.9458686,19.7911632" id="Fill-16" stroke="none" fill="#1A1A1A" fill-rule="evenodd" mask="url(#mask-4)"></path> <path d="M76.8782661,23.2266388 C77.3618361,23.4293008 78.3167288,23.8296675 78.3167288,23.8296675 C78.3802004,23.8563003 78.4467824,23.8690335 78.512684,23.8690335 C78.6775352,23.8690335 78.8381096,23.7891351 78.9353096,23.6468343 L79.5960751,22.6789168 C79.7450827,22.4607028 79.7062027,22.1684224 79.505582,21.9990028 C79.238768,21.7739848 78.72944,21.2475497 78.3152708,20.2498889 C77.6142644,18.5612334 78.5813072,16.8570259 78.5911244,16.8399187 C78.6392384,16.7567155 78.6109532,16.6501843 78.5278472,16.6019731 C78.4447412,16.5537619 78.3383072,16.5818527 78.2899016,16.6650559 C78.2659904,16.7059771 77.6190272,17.2904406 77.4359997,18.0759138 C77.3270385,18.543543 77.6969816,20.4634373 78.28232,21.933004 C78.5323184,22.5607216 77.875052,23.0305864 77.6554772,23.0305864 C77.4359997,23.0305864 76.8782661,23.2266388 76.8782661,23.2266388" id="Fill-17" stroke="none" fill="#DB7D63" fill-rule="evenodd" mask="url(#mask-4)"></path> <path d="M78.5126548,23.8690627 C78.4467532,23.8690627 78.3801712,23.8563295 78.3166996,23.8295995 L76.6045217,23.1118747 C76.5158753,23.0746471 76.4740793,22.9725871 76.5112097,22.8838435 C76.5484373,22.7951971 76.6504973,22.7533039 76.7392409,22.7906287 L78.4514188,23.5084507 C78.5220832,23.5379995 78.6044116,23.5135051 78.6475684,23.4504223 L79.3084312,22.4824076 C79.3562536,22.4122292 79.3444924,22.3189172 79.2808264,22.2651656 C78.990004,22.0198328 78.435964,21.4490744 77.9935097,20.3834709 C77.2251437,18.5323941 78.2460353,16.7403178 78.2898725,16.6649878 C78.338278,16.5817846 78.444712,16.553791 78.527818,16.601905 C78.610924,16.6502134 78.6392092,16.7567446 78.5910952,16.8399478 C78.581278,16.8569578 77.6142353,18.5611653 78.3152416,20.2499181 C78.7294108,21.2475788 79.2387388,21.774014 79.5055528,21.999032 C79.7061736,22.1683544 79.7450536,22.460732 79.596046,22.6789459 L78.9352804,23.6467663 C78.8380804,23.7890671 78.677506,23.8690627 78.5126548,23.8690627" id="Fill-18" stroke="none" fill="#BD6142" fill-rule="evenodd" mask="url(#mask-4)"></path> <path d="M72.0421192,21.3331731 C72.0421192,21.5918223 72.7869627,21.8013855 73.7057943,21.8013855 C74.6246259,21.8013855 75.3694694,21.5918223 75.3694694,21.3331731 C75.3694694,21.0745239 74.6246259,20.8649608 73.7057943,20.8649608 C72.7869627,20.8649608 72.0421192,21.0745239 72.0421192,21.3331731" id="Fill-19" stroke="none" fill="#ED766D" fill-rule="evenodd" mask="url(#mask-4)"></path> <path d="M79.9844475,21.3331731 C79.9844475,21.5918223 80.5700774,21.8013855 81.292565,21.8013855 C82.0150526,21.8013855 82.6006825,21.5918223 82.6006825,21.3331731 C82.6006825,21.0745239 82.0150526,20.8649608 81.292565,20.8649608 C80.5700774,20.8649608 79.9844475,21.0745239 79.9844475,21.3331731" id="Fill-20" stroke="none" fill="#ED766D" fill-rule="evenodd" mask="url(#mask-4)"></path> <path d="M79.5927218,25.6806956 C77.2254159,26.8090904 74.5089676,26.0674544 73.0707965,23.8726785 C72.9418121,23.6759457 73.2573232,23.4931126 73.3856272,23.6886789 C74.7081304,25.7070368 77.2275543,26.4056132 79.4087222,25.3659621 C79.6194517,25.2655545 79.8046177,25.5797049 79.5927218,25.6806956" id="Fill-21" stroke="none" fill="#C24848" fill-rule="evenodd" mask="url(#mask-4)"></path> <path d="M90.6017585,11.0818006 C90.1739813,14.0146161 88.464525,16.7340776 86.0588251,18.4836775 C86.7365035,16.9382948 86.4047599,14.9937117 85.3481959,13.6466169 C84.1452488,12.112801 82.1671317,11.314789 80.219341,11.2396534 C78.6579202,11.1793894 77.0883347,11.5377658 75.5394528,11.3317018 C74.1590184,11.1479938 71.7217286,9.31684313 71.114909,7.818408 C71.4378074,7.79751 71.766149,7.670178 72.0210073,7.47091801 C72.5384029,7.06627443 72.8335993,6.44934606 73.1377381,5.86711809 C73.9862941,4.24271176 75.0643392,2.69480184 76.5443063,1.61393789 C79.3115902,-0.407433221 83.3192432,-0.447868419 86.2276615,1.3646199 C89.1359825,3.17701101 90.8515625,6.67105925 90.6962369,10.0944431 C90.6811709,10.4255063 90.6493865,10.7550143 90.6017585,11.0818006" id="Fill-22" stroke="none" fill="#A3262A" fill-rule="evenodd" mask="url(#mask-4)"></path> <path d="M86.0676508,12.9242266 C86.4256384,13.9265529 86.5616212,15.1501065 86.3927848,16.315826 C86.308804,15.3551984 85.9438181,14.4059433 85.3481765,13.6466169 C84.1453265,12.112801 82.1671122,11.314789 80.2193215,11.2396534 C78.6579008,11.1793894 77.0884125,11.5377658 75.5395305,11.3317018 C75.0690826,11.269105 74.4759682,11.014927 73.8743974,10.6480943 C74.162401,10.6164071 74.4479746,10.5632387 74.7258694,10.4938379 C78.6144524,9.52174072 84.4474241,8.38751397 86.0676508,12.9242266" id="Fill-23" stroke="none" fill="#7A1C20" fill-rule="evenodd" mask="url(#mask-4)"></path> <path d="M63.6948266,28.3964149 C63.6954098,27.9120673 63.7341926,27.4282058 63.8084534,26.954453 C64.1754805,24.6128079 65.3008621,22.46323 66.5122656,20.4259181 C68.2500072,17.5033086 70.2008111,14.7072536 72.3439738,12.0673989 C73.0558665,11.1904605 73.8043065,10.304191 74.1699729,9.23537981 C74.5356393,8.16666586 74.4293025,6.85145272 73.6005753,6.08396156 C73.0583937,5.58192358 71.9509942,5.47937759 71.1377218,5.76417357 C67.3977576,9.66004659 64.7267017,14.5725344 63.4905122,19.8299849 C62.840633,22.5940612 62.5846082,25.5006327 63.2091182,28.2705409 C63.3841754,29.0469745 63.6343682,29.8121329 63.9570722,30.5442432 C63.7784186,29.8486801 63.6938546,29.1220129 63.6948266,28.3964149" id="Fill-24" stroke="none" fill="#A3262A" fill-rule="evenodd" mask="url(#mask-4)"></path> <path d="M65.0167854,19.1802904 C65.0167854,19.1802904 63.8641878,10.3488932 64.282245,7.50559897 C64.7003994,4.6623047 70.4760231,0.481052498 76.0943773,0.481052498 C81.7126342,0.481052498 84.9224697,3.69224875 84.6395205,10.265204 C84.6395205,10.265204 74.6936281,2.655222 70.5095571,8.09093734 C66.3254861,13.5266527 65.0167854,19.1802904 65.0167854,19.1802904" id="Fill-25" stroke="none" fill="#A3262A" fill-rule="evenodd" mask="url(#mask-4)"></path> <path d="M69.2719679,5.18258712 C69.3113339,5.5764415 69.4906679,5.89331349 69.7389167,6.12746828 C69.7774079,6.09675308 69.8157047,6.06594068 69.8542931,6.03532268 C70.5169055,5.29164551 71.2696222,4.62514515 72.0236998,3.97030878 C71.1055486,3.63001159 70.3860743,2.91568882 70.2497027,1.83696327 C70.1112899,1.90004607 69.9748211,1.96526727 69.8392271,2.03155767 C69.9234023,3.09959122 69.1630067,4.09278077 69.2719679,5.18258712" id="Fill-26" stroke="none" fill="#B55155" fill-rule="evenodd" mask="url(#mask-4)"></path> <path d="M89.5028542,4.92013741 C87.4496015,5.2770558 85.4243424,6.42518214 83.3989861,7.02529491 C81.8020874,7.3937801 80.6964374,5.42829899 79.9593699,4.07702465 C79.0994415,2.35716793 76.5197536,2.9713747 75.0456185,3.83130306 C74.5229741,4.07721905 73.9391909,4.19823305 73.3629894,4.19949665 C72.5082126,5.0756574 71.5262982,5.80251897 70.5681979,6.55883214 C70.9443619,6.64028573 71.3276215,6.59664293 71.6060022,6.41099094 C73.5714833,5.1825774 75.782686,4.19988545 77.9938887,4.56837063 C79.0994415,4.81409222 79.5908847,6.04250576 80.3279522,7.14805851 C80.942159,8.13084766 82.2934333,8.25370846 83.5218469,8.13084766 C85.7591964,7.78666248 87.5748923,5.93694656 89.6017066,5.112399 C89.5690474,5.04814981 89.5368742,4.98360901 89.5028542,4.92013741" id="Fill-27" stroke="none" fill="#B55155" fill-rule="evenodd" mask="url(#mask-4)"></path> <path d="M86.5738684,39.4191666 C86.5738684,41.3740529 78.9127592,54.9587243 74.3688538,54.9587243 C69.8249484,54.9587243 62.0449636,41.4572561 62.0449636,39.5022726 C62.0449636,37.5473863 66.5877998,36.0800551 74.0499406,36.0800551 C81.8947578,36.0800551 86.5738684,37.4641831 86.5738684,39.4191666" id="Fill-28" stroke="none" fill="#FFA07F" fill-rule="evenodd" mask="url(#mask-4)"></path> <path d="M86.407637,38.4539998 C87.9063637,37.6631806 90.1312716,38.235397 92.4989663,43.6975507 C94.866661,49.1598017 100.439234,67.2810884 100.960615,69.9263863 C101.481898,72.571587 96.8221305,75.790948 95.0515354,72.5755722 C93.2809403,69.3601963 86.1944774,50.6188708 85.2512486,48.0147857 C84.3080199,45.4107007 83.8660515,39.7951653 86.407637,38.4539998" id="Fill-29" stroke="none" fill="#FFA07F" fill-rule="evenodd" mask="url(#mask-4)"></path> <path d="M61.2998576,38.6569922 C59.7116096,38.0693211 57.5895393,38.8580018 55.9859338,44.3138376 C54.3823283,49.7695761 52.2159348,68.2761637 52.0574016,70.8496308 C51.8988684,73.4230978 56.2502206,76.3675773 57.5666973,73.1145851 C58.8831741,69.8615928 63.1515175,50.2050321 63.7326762,47.6243722 C64.3137378,45.0437124 63.993075,39.6535838 61.2998576,38.6569922" id="Fill-30" stroke="none" fill="#F59A7A" fill-rule="evenodd" mask="url(#mask-4)"></path> <path d="M69.360313,63.9045453 C64.6626372,63.9045453 62.6122033,62.0717422 60.9482366,59.0514467 C59.2841727,56.0313456 58.9523319,52.4759642 58.7642499,49.0328488 C58.5953163,45.9399449 58.5021015,42.7781263 57.5667459,39.8422004 C58.1761899,39.2003888 59.0970627,38.4639045 59.7361526,38.2995393 C60.5104478,38.1004737 66.0997391,36.7086669 66.0997391,36.7086669 C66.0997391,36.7086669 69.5584066,54.4668145 73.9935452,54.4668145 C78.4286838,54.4668145 82.3161976,36.6150633 82.3161976,36.6150633 L88.3011901,38.2294581 C89.5422396,38.5839465 89.7908772,39.2003888 90.4004184,39.8422004 C89.4650629,42.7781263 89.3717509,45.9399449 89.2028173,49.0328488 C89.0148325,52.4759642 88.6828945,56.0313456 87.0189278,59.0514467 C85.3548638,62.0717422 83.5832967,63.9045453 78.6067542,63.9045453 L69.360313,63.9045453 Z" id="Fill-32" stroke="none" fill="#E6E6E6" fill-rule="evenodd" mask="url(#mask-4)"></path> </g> </g> </g> </g> </g> </g> </g> </g> </g> </g> </svg> 