<?xml version="1.0" encoding="UTF-8"?> <svg xmlns="http://www.w3.org/2000/svg" width="94" height="44" viewBox="0 0 94 44" fill="none"> <g clip-path="url(#clip0)"> <g filter="url(#filter0_d)"> <path fill-rule="evenodd" clip-rule="evenodd" d="M0 22C0 9.84974 9.84974 0 22 0H72C84.1503 0 94 9.84974 94 22C94 34.1503 84.1503 44 72 44H22C9.84973 44 0 34.1503 0 22Z" fill="white"></path> <path fill-rule="evenodd" clip-rule="evenodd" d="M0 22C0 9.84974 9.84974 0 22 0H72C84.1503 0 94 9.84974 94 22C94 34.1503 84.1503 44 72 44H22C9.84973 44 0 34.1503 0 22Z" fill="#0099FF"></path> </g> <path d="M24.8516 18.8906C24.8516 19.6094 24.6602 20.3438 24.2773 21.0938C23.8945 21.8438 23.3672 22.5547 22.6953 23.2266L17.9141 27.8203H22.4023V25.7227H24.5938V30H14.75V27.7148L20.9141 21.8203C21.4453 21.2734 21.8281 20.7617 22.0625 20.2852C22.3047 19.8008 22.4258 19.3359 22.4258 18.8906C22.4258 18.4922 22.3477 18.1484 22.1914 17.8594C22.043 17.5703 21.8477 17.3359 21.6055 17.1562C21.3711 16.9688 21.1016 16.8359 20.7969 16.7578C20.4922 16.6719 20.1875 16.6289 19.8828 16.6289C18.9219 16.6289 18.1641 16.9102 17.6094 17.4727C17.0625 18.0352 16.7891 18.8672 16.7891 19.9688H14.5156C14.5156 18.2422 14.9727 16.8906 15.8867 15.9141C16.8086 14.9375 18.1406 14.4492 19.8828 14.4492C20.5391 14.4492 21.168 14.5469 21.7695 14.7422C22.3711 14.9297 22.8984 15.207 23.3516 15.5742C23.8125 15.9414 24.1758 16.4062 24.4414 16.9688C24.7148 17.5312 24.8516 18.1719 24.8516 18.8906ZM26.9609 22.3477C26.9609 21.3242 27.0703 20.3359 27.2891 19.3828C27.5078 18.4297 27.8477 17.5898 28.3086 16.8633C28.7695 16.1367 29.3711 15.5547 30.1133 15.1172C30.8633 14.6719 31.7656 14.4492 32.8203 14.4492C33.875 14.4492 34.7734 14.6719 35.5156 15.1172C36.2656 15.5547 36.875 16.1367 37.3438 16.8633C37.8125 17.5898 38.1523 18.4297 38.3633 19.3828C38.5742 20.3359 38.6797 21.3242 38.6797 22.3477C38.6797 23.3711 38.5742 24.3594 38.3633 25.3125C38.1523 26.2578 37.8164 27.1016 37.3555 27.8438C36.8945 28.5781 36.2891 29.168 35.5391 29.6133C34.7969 30.0508 33.8906 30.2695 32.8203 30.2695C31.75 30.2695 30.8398 30.0508 30.0898 29.6133C29.3477 29.168 28.7422 28.5781 28.2734 27.8438C27.8125 27.1016 27.4805 26.2578 27.2773 25.3125C27.0664 24.3594 26.9609 23.3711 26.9609 22.3477ZM29.3867 22.3477C29.3867 23.0664 29.4336 23.7617 29.5273 24.4336L35.5273 18.4102C35.2617 17.8789 34.9102 17.4492 34.4727 17.1211C34.043 16.793 33.4922 16.6289 32.8203 16.6289C31.7031 16.6289 30.8516 17.1328 30.2656 18.1406C29.6797 19.1484 29.3867 20.5508 29.3867 22.3477ZM32.8203 28.0781C33.5078 28.0781 34.0703 27.9102 34.5078 27.5742C34.9531 27.2383 35.3008 26.8008 35.5508 26.2617C35.8086 25.7148 35.9883 25.0977 36.0898 24.4102C36.1992 23.7227 36.2539 23.0352 36.2539 22.3477C36.2539 21.6914 36.207 21.0508 36.1133 20.4258L30.1602 26.4023C30.4258 26.9102 30.7656 27.3164 31.1797 27.6211C31.6016 27.9258 32.1484 28.0781 32.8203 28.0781ZM47.3867 22.0312H44.4336V19.0781H47.3867V22.0312ZM47.3867 30H44.4336V27.0469H47.3867V30ZM53.1641 22.3477C53.1641 21.3242 53.2734 20.3359 53.4922 19.3828C53.7109 18.4297 54.0508 17.5898 54.5117 16.8633C54.9727 16.1367 55.5742 15.5547 56.3164 15.1172C57.0664 14.6719 57.9688 14.4492 59.0234 14.4492C60.0781 14.4492 60.9766 14.6719 61.7188 15.1172C62.4688 15.5547 63.0781 16.1367 63.5469 16.8633C64.0156 17.5898 64.3555 18.4297 64.5664 19.3828C64.7773 20.3359 64.8828 21.3242 64.8828 22.3477C64.8828 23.3711 64.7773 24.3594 64.5664 25.3125C64.3555 26.2578 64.0195 27.1016 63.5586 27.8438C63.0977 28.5781 62.4922 29.168 61.7422 29.6133C61 30.0508 60.0938 30.2695 59.0234 30.2695C57.9531 30.2695 57.043 30.0508 56.293 29.6133C55.5508 29.168 54.9453 28.5781 54.4766 27.8438C54.0156 27.1016 53.6836 26.2578 53.4805 25.3125C53.2695 24.3594 53.1641 23.3711 53.1641 22.3477ZM55.5898 22.3477C55.5898 23.0664 55.6367 23.7617 55.7305 24.4336L61.7305 18.4102C61.4648 17.8789 61.1133 17.4492 60.6758 17.1211C60.2461 16.793 59.6953 16.6289 59.0234 16.6289C57.9062 16.6289 57.0547 17.1328 56.4688 18.1406C55.8828 19.1484 55.5898 20.5508 55.5898 22.3477ZM59.0234 28.0781C59.7109 28.0781 60.2734 27.9102 60.7109 27.5742C61.1562 27.2383 61.5039 26.8008 61.7539 26.2617C62.0117 25.7148 62.1914 25.0977 62.293 24.4102C62.4023 23.7227 62.457 23.0352 62.457 22.3477C62.457 21.6914 62.4102 21.0508 62.3164 20.4258L56.3633 26.4023C56.6289 26.9102 56.9688 27.3164 57.3828 27.6211C57.8047 27.9258 58.3516 28.0781 59.0234 28.0781ZM66.2656 22.3477C66.2656 21.3242 66.375 20.3359 66.5938 19.3828C66.8125 18.4297 67.1523 17.5898 67.6133 16.8633C68.0742 16.1367 68.6758 15.5547 69.418 15.1172C70.168 14.6719 71.0703 14.4492 72.125 14.4492C73.1797 14.4492 74.0781 14.6719 74.8203 15.1172C75.5703 15.5547 76.1797 16.1367 76.6484 16.8633C77.1172 17.5898 77.457 18.4297 77.668 19.3828C77.8789 20.3359 77.9844 21.3242 77.9844 22.3477C77.9844 23.3711 77.8789 24.3594 77.668 25.3125C77.457 26.2578 77.1211 27.1016 76.6602 27.8438C76.1992 28.5781 75.5938 29.168 74.8438 29.6133C74.1016 30.0508 73.1953 30.2695 72.125 30.2695C71.0547 30.2695 70.1445 30.0508 69.3945 29.6133C68.6523 29.168 68.0469 28.5781 67.5781 27.8438C67.1172 27.1016 66.7852 26.2578 66.582 25.3125C66.3711 24.3594 66.2656 23.3711 66.2656 22.3477ZM68.6914 22.3477C68.6914 23.0664 68.7383 23.7617 68.832 24.4336L74.832 18.4102C74.5664 17.8789 74.2148 17.4492 73.7773 17.1211C73.3477 16.793 72.7969 16.6289 72.125 16.6289C71.0078 16.6289 70.1562 17.1328 69.5703 18.1406C68.9844 19.1484 68.6914 20.5508 68.6914 22.3477ZM72.125 28.0781C72.8125 28.0781 73.375 27.9102 73.8125 27.5742C74.2578 27.2383 74.6055 26.8008 74.8555 26.2617C75.1133 25.7148 75.293 25.0977 75.3945 24.4102C75.5039 23.7227 75.5586 23.0352 75.5586 22.3477C75.5586 21.6914 75.5117 21.0508 75.418 20.4258L69.4648 26.4023C69.7305 26.9102 70.0703 27.3164 70.4844 27.6211C70.9062 27.9258 71.4531 28.0781 72.125 28.0781Z" fill="white"></path> </g> <defs> <filter id="filter0_d" x="-5" y="-3" width="104" height="54" filterUnits="userSpaceOnUse" color-interpolation-filters="sRGB"> <feFlood flood-opacity="0" result="BackgroundImageFix"></feFlood> <feColorMatrix in="SourceAlpha" type="matrix" values="0 0 0 0 0 0 0 0 0 0 0 0 0 0 0 0 0 0 127 0"></feColorMatrix> <feOffset dy="2"></feOffset> <feGaussianBlur stdDeviation="2.5"></feGaussianBlur> <feColorMatrix type="matrix" values="0 0 0 0 0 0 0 0 0 0 0 0 0 0 0 0 0 0 0.124945 0"></feColorMatrix> <feBlend mode="normal" in2="BackgroundImageFix" result="effect1_dropShadow"></feBlend> <feBlend mode="normal" in="SourceGraphic" in2="effect1_dropShadow" result="shape"></feBlend> </filter> <clipPath id="clip0"> <rect width="94" height="44" fill="white"></rect> </clipPath> </defs> </svg> 