<?xml version="1.0" encoding="UTF-8"?> <svg xmlns="http://www.w3.org/2000/svg" xmlns:xlink="http://www.w3.org/1999/xlink" width="371px" height="338px" viewBox="0 0 371 338"> <!-- Generator: Sketch 57.1 (83088) - https://sketch.com --> <title>Group 74</title> <desc>Created with Sketch.</desc> <defs> <polygon id="path-1" points="0 338.400013 370.163535 338.400013 370.163535 0.843840034 0 0.843840034"></polygon> </defs> <g id="Page-1" stroke="none" stroke-width="1" fill="none" fill-rule="evenodd"> <g id="mark" transform="translate(-337.000000, -4830.000000)"> <g id="Group-11-Copy-7" transform="translate(177.000000, 4682.000000)"> <g id="Group-74" transform="translate(160.000000, 147.000000)"> <polygon id="Fill-1" fill="#5B293C" points="337.154413 270.414443 340.914254 337.563085 345.611534 337.563085 345.611534 270.414443"></polygon> <polygon id="Fill-2" fill="#5B293C" points="264.015946 270.414443 267.775787 337.563085 272.474507 337.563085 272.474507 270.414443"></polygon> <polygon id="Fill-3" fill="#5B293C" points="4.81204819 270.414443 4.81204819 337.563085 9.50932838 337.563085 13.2691685 270.414443"></polygon> <polygon id="Fill-4" fill="#5B293C" points="91.5533316 270.414443 91.5533316 337.563085 96.2520518 337.563085 100.010452 270.414443"></polygon> <g id="Group-73" transform="translate(0.000000, 0.596160)"> <path d="M356.970398,81.8752353 L84.5497474,81.8752353 C84.5497474,85.2318754 65.8758266,255.884842 65.8758266,255.884842 L340.227518,255.884842" id="Fill-5" fill="#FFC7C8"></path> <path d="M79.1326111,272.630315 L97.6409319,91.6957476 C98.1881319,86.4527074 94.2482917,81.8749473 89.1895715,81.8749473 L80.1895712,81.8749473 C76.036611,81.8749473 72.5402909,85.1135074 72.0521309,89.4133476 L51.6574101,272.630315" id="Fill-7" fill="#FFC7C8"></path> <mask id="mask-2" fill="white"> <use xlink:href="#path-1"></use> </mask> <g id="Clip-10"></g> <polygon id="Fill-9" fill="#F7B2B2" mask="url(#mask-2)" points="10.2009604 272.630891 68.5339227 272.630891 68.5339227 191.515688 10.2009604 191.515688"></polygon> <path d="M68.5336347,191.515688 L68.5336347,191.515688 C73.9869149,191.515688 78.4077151,196.123688 78.4077151,201.808808 L78.4077151,272.630891 L58.6609943,272.630891 L58.6609943,201.808808 C58.6609943,196.123688 63.0803545,191.515688 68.5336347,191.515688" id="Fill-11" fill="#F7B2B2" mask="url(#mask-2)"></path> <path d="M31.7462413,272.630315 L294.929292,272.630315 L294.929292,207.069992 L38.9923215,207.069992 C34.9905614,207.069992 31.7462413,210.314312 31.7462413,214.316073 L31.7462413,272.630315 Z" id="Fill-12" fill="#FFC7C8" mask="url(#mask-2)"></path> <path d="M351.604094,272.630315 L370.112415,91.6957476 C370.659615,86.4527074 366.719775,81.8749473 361.661054,81.8749473 L352.661054,81.8749473 C348.508094,81.8749473 345.011774,85.1135074 344.523614,89.4133476 L324.128893,272.630315" id="Fill-13" fill="#FFD2D4" mask="url(#mask-2)"></path> <path d="M10.2009604,191.515688 L10.2009604,191.515688 C15.6542406,191.515688 20.0750408,196.123688 20.0750408,201.808808 L20.0750408,272.630891 L0.326880013,272.630891 L0.326880013,201.808808 C0.326880013,196.123688 4.74768019,191.515688 10.2009604,191.515688" id="Fill-14" fill="#FFE9E9" mask="url(#mask-2)"></path> <polygon id="Fill-15" fill="#FFD2D4" mask="url(#mask-2)" points="270.466571 272.630891 351.817934 272.630891 351.817934 191.515688 270.466571 191.515688"></polygon> <path d="M270.467003,191.515688 L270.467003,191.515688 C275.920283,191.515688 280.341083,196.123688 280.341083,201.808808 L280.341083,272.630891 L260.592922,272.630891 L260.592922,201.808808 C260.592922,196.123688 265.013723,191.515688 270.467003,191.515688" id="Fill-16" fill="#FFE9E9" mask="url(#mask-2)"></path> <path d="M141.098262,226.849113 C132.982421,229.651353 124.152341,224.745273 122.368181,216.184473 C120.985781,209.548952 124.702421,202.886072 130.862741,200.060792 L205.680824,167.820631 C215.420985,163.35231 227.226105,168.903511 230.137785,179.216791 C233.215065,190.108952 223.698105,198.471032 214.925625,201.474872 L141.098262,226.849113 Z" id="Fill-17" fill="#04162E" mask="url(#mask-2)"></path> <polygon id="Fill-18" fill="#FFFFFF" mask="url(#mask-2)" points="141.696006 317.583229 138.962886 291.000828 151.410246 291.058428 154.166406 317.639389"></polygon> <path d="M140.745318,317.578333 L125.199077,326.044093 L116.448197,327.753373 C112.426276,328.538173 109.403716,331.880413 109.026436,335.961373 L108.849316,337.869373 L157.460838,338.082493 L156.104358,317.647453 L140.745318,317.578333 Z" id="Fill-19" fill="#1A1A1A" mask="url(#mask-2)"></path> <path d="M134.204837,321.645181 C134.204837,321.645181 137.145317,312.35142 133.708037,310.8063 C128.790437,308.59302 129.641477,316.500061 134.204837,321.645181 Z" id="Stroke-20" stroke="#FFFFFF" stroke-width="0.5" stroke-linecap="round" stroke-linejoin="round" mask="url(#mask-2)"></path> <path d="M134.100869,321.580381 C134.100869,321.580381 141.57159,315.320701 144.31191,317.909821 C148.23159,321.612061 140.59815,323.838301 134.100869,321.580381 Z" id="Stroke-21" stroke="#FFFFFF" stroke-width="0.5" stroke-linecap="round" stroke-linejoin="round" mask="url(#mask-2)"></path> <polygon id="Fill-22" fill="#FFFFFF" mask="url(#mask-2)" points="157.64991 338.399869 108.656788 338.185309 108.675508 333.987709 157.66863 334.202269"></polygon> <path d="M150.35631,212.2262 L156.21855,306.769404 L137.416469,306.746364 L122.274869,215.417241 C120.844949,206.79596 127.494869,198.95228 136.232789,198.95228 C143.70783,198.95228 149.89407,204.76556 150.35631,212.2262" id="Fill-23" fill="#04162E" mask="url(#mask-2)"></path> <path d="M117.833333,202.845896 C108.198292,202.765256 100.698772,194.264936 102.022132,184.540615 C103.047412,177.003655 109.478452,171.350215 117.052853,170.671975 L208.282616,164.631175 C220.261977,163.556934 230.664537,173.855815 229.878297,185.858215 C229.047417,198.533096 215.845497,203.807816 205.438616,203.695496 L117.833333,202.845896 Z" id="Fill-24" fill="#04162E" mask="url(#mask-2)"></path> <polygon id="Fill-25" fill="#FFFFFF" mask="url(#mask-2)" points="43.2887057 283.350107 60.0215064 258.462586 70.7149468 267.449627 54.0023061 292.354428"></polygon> <path d="M42.4716497,282.663227 L22.9841289,278.799707 L14.2116486,273.990107 C10.1796484,271.779707 5.17276821,272.491067 1.91548808,275.736827 L0.391968016,277.256027 L42.1620497,312.350268 L55.6663702,293.752668 L42.4716497,282.663227 Z" id="Fill-26" fill="#1A1A1A" mask="url(#mask-2)"></path> <path d="M33.9104173,281.473499 C33.9104173,281.473499 43.1206577,275.570939 41.2659376,271.769339 C38.6148975,266.329019 33.6699373,273.759419 33.9104173,281.473499 Z" id="Stroke-27" stroke="#FFFFFF" stroke-width="0.5" stroke-linecap="round" stroke-linejoin="round" mask="url(#mask-2)"></path> <path d="M33.8682253,281.343459 C33.8682253,281.343459 44.8064658,281.310347 45.3104658,285.510827 C46.0304658,291.518508 37.8483855,287.955947 33.8682253,281.343459 Z" id="Stroke-28" stroke="#FFFFFF" stroke-width="0.5" stroke-linecap="round" stroke-linejoin="round" mask="url(#mask-2)"></path> <polygon id="Fill-29" fill="#FFFFFF" mask="url(#mask-2)" points="42.0975377 312.76038 0.000576000023 277.391099 3.03033612 273.783899 45.1287378 309.15318"></polygon> <path d="M126.418469,198.709352 L63.5797465,284.454155 L47.3797459,270.931115 L99.909508,181.293991 C104.867428,172.832551 116.234789,170.843911 123.771749,177.119431 C130.218629,182.487751 131.376389,191.942792 126.418469,198.709352" id="Fill-30" fill="#04162E" mask="url(#mask-2)"></path> <path d="M188.596519,87.0734915 C185.478919,102.664372 177.167239,137.497973 172.948039,154.993974 C171.538279,160.844694 174.982759,166.761655 180.765799,168.430615 C186.898759,170.200375 193.27364,166.515415 194.80148,160.316214 L211.66676,91.9147717 C213.12116,85.2835714 208.68884,78.7978111 201.98276,77.7451711 L201.98132,77.7451711 C195.74036,76.7659711 189.83636,80.8771712 188.596519,87.0734915" id="Fill-31" fill="#007DDC" mask="url(#mask-2)"></path> <polygon id="Fill-32" fill="#007DDC" mask="url(#mask-2)" points="225.767961 73.8406109 236.694681 76.9740511 247.415482 79.7143712 265.916603 95.1079718 240.402682 178.809415 211.211 170.887975 181.729879 162.887334 204.39692 78.1764511"></polygon> <path d="M228.223161,90.5391396 L206.6966,169.871623" id="Stroke-33" stroke="#005F99" stroke-width="1.03536004" mask="url(#mask-2)"></path> <path d="M227.991897,99.793012 C227.804697,100.481332 228.210777,101.191252 228.899097,101.377012 C229.587417,101.564212 230.297337,101.158132 230.484537,100.469812 C230.670297,99.781492 230.264217,99.0715719 229.575897,98.8843719 C228.887577,98.6986119 228.179097,99.1046919 227.991897,99.793012" id="Fill-34" fill="#289DE5" mask="url(#mask-2)"></path> <path d="M223.986825,114.551573 C223.801065,115.239893 224.207145,115.949813 224.895465,116.135573 C225.583785,116.322773 226.292265,115.916693 226.479465,115.228373 C226.666665,114.540053 226.260585,113.830133 225.572265,113.642933 C224.883945,113.457173 224.174025,113.863253 223.986825,114.551573" id="Fill-35" fill="#289DE5" mask="url(#mask-2)"></path> <path d="M219.982617,129.310277 C219.795417,129.998597 220.201497,130.708517 220.889817,130.894277 C221.578137,131.081477 222.288057,130.675397 222.473817,129.987077 C222.661017,129.298757 222.254937,128.588837 221.566617,128.401637 C220.878297,128.215877 220.168377,128.621957 219.982617,129.310277" id="Fill-36" fill="#289DE5" mask="url(#mask-2)"></path> <path d="M215.977545,144.068838 C215.790345,144.757158 216.197865,145.467078 216.884745,145.652838 C217.573065,145.840038 218.282985,145.433958 218.470185,144.745638 C218.655945,144.057318 218.249865,143.347398 217.561545,143.161638 C216.873225,142.974438 216.164745,143.380518 215.977545,144.068838" id="Fill-37" fill="#289DE5" mask="url(#mask-2)"></path> <path d="M211.972616,158.827398 C211.786856,159.515718 212.192936,160.225638 212.881256,160.411398 C213.569576,160.598598 214.279497,160.192518 214.465257,159.504198 C214.652457,158.815878 214.246377,158.105958 213.558056,157.918758 C212.869736,157.732998 212.159816,158.139078 211.972616,158.827398" id="Fill-38" fill="#289DE5" mask="url(#mask-2)"></path> <path d="M186.575767,144.29175 L198.002168,102.183268" id="Stroke-39" stroke="#005F99" stroke-width="1.03536004" mask="url(#mask-2)"></path> <path d="M176.365015,207.560312 L212.195096,207.560312 C227.692377,207.560312 240.174298,194.845112 239.886298,179.350711 L239.792698,174.310711 L179.226295,174.310711 L176.365015,207.560312 Z" id="Fill-40" fill="#04162E" mask="url(#mask-2)"></path> <polygon id="Fill-41" fill="#007DDC" mask="url(#mask-2)" points="215.139465 67.4710587 220.676265 68.7987387 217.584585 72.9992189"></polygon> <path d="M225.521865,89.2876355 L225.521865,89.2876355 C232.443945,91.3252356 239.707306,87.3666755 241.744906,80.4431552 L249.597226,53.7671541 L224.529705,46.3885938 L216.677385,73.0645949 C214.639785,79.9866752 218.599785,87.2500355 225.521865,89.2876355" id="Fill-42" fill="#F3A396" mask="url(#mask-2)"></path> <path d="M248.957002,55.9447222 C248.957002,55.9447222 238.632201,68.6685627 229.180041,65.7727226 C216.999081,62.0402425 224.481321,47.0167219 224.481321,47.0167219 C224.481321,47.0167219 226.242441,58.4791223 233.714601,60.6880824 C242.047882,63.1533625 248.957002,55.9447222 248.957002,55.9447222" id="Fill-43" fill="#1A1A1A" mask="url(#mask-2)"></path> <path d="M225.591417,10.5052324 C227.689497,7.08091228 231.590457,2.5247521 241.156378,1.08619204 C256.957498,-1.28980805 260.233498,14.6020326 260.233498,14.6020326 C264.099898,15.2975526 266.822939,17.5295527 267.545819,21.6580329 C268.224059,25.524433 264.717659,31.3909932 263.561338,33.4530733 L256.387258,46.5743539 L257.638618,32.4522733 C257.592538,22.9065129 254.649178,18.1588327 254.649178,18.1588327 L242.250778,13.3881125 L221.295897,34.8570734 L223.104537,19.0357928 C223.334937,17.0284327 223.768377,15.0426726 224.443737,13.1375525 C224.835417,12.0359525 225.229977,11.0956324 225.591417,10.5052324" id="Fill-44" fill="#1A1A1A" mask="url(#mask-2)"></path> <path d="M224.543097,32.4681133 C224.543097,32.4681133 223.643097,29.2741932 219.757977,29.5708332 C215.872857,29.8674732 214.955577,38.8199535 219.878937,41.4450736 C219.878937,41.4450736 221.637177,42.4069937 223.489017,41.5545137 C223.489017,41.5545137 224.046297,34.9060334 224.543097,32.4681133" id="Fill-45" fill="#E88E85" mask="url(#mask-2)"></path> <path d="M257.241178,41.9883857 C257.241178,41.9883857 260.088058,39.9551056 263.002618,42.3008657 C266.039579,44.7431058 262.029178,52.6775061 256.467898,52.2152661 C256.467898,52.2152661 254.469178,52.0727061 253.373338,50.351906 C253.373338,50.351906 256.338298,44.3082258 257.241178,41.9883857" id="Fill-46" fill="#F3A396" mask="url(#mask-2)"></path> <path d="M261.428986,45.0912978 C261.428986,45.0912978 258.789466,43.2524177 255.442906,46.9517779" id="Stroke-47" stroke="#D26665" stroke-width="0.923040037" stroke-linecap="round" stroke-linejoin="round" mask="url(#mask-2)"></path> <path d="M257.484538,45.2615058 C257.484538,45.2615058 260.168698,47.9024659 257.310298,49.843586" id="Stroke-48" stroke="#D26665" stroke-width="0.923040037" stroke-linecap="round" stroke-linejoin="round" mask="url(#mask-2)"></path> <path d="M223.659225,23.4568809 C222.151545,28.5717611 219.503385,39.4236016 220.779225,46.7028019 C221.975865,53.5370421 225.914265,58.1853623 232.261785,60.2618424 C238.609305,62.3368825 244.105786,61.2741624 250.208506,54.6573622 C256.309786,48.0420019 260.156026,34.3029614 260.156026,34.3029614 C260.156026,34.3029614 265.535867,16.0264806 247.472506,10.7085604 C228.447225,5.1084002 223.659225,23.4568809 223.659225,23.4568809" id="Fill-49" fill="#F3A396" mask="url(#mask-2)"></path> <path d="M229.983849,8.04499232 C230.407209,8.34019233 246.83329,8.60227234 246.83329,8.60227234 L258.96673,16.5769927 C258.96673,16.5769927 258.96097,16.5870727 258.95521,16.5942727 C269.737931,23.2139529 261.30817,32.7899533 261.30817,32.7899533 C254.78785,27.7917131 256.16161,23.0685129 256.32289,19.1459528 C253.36657,21.3217928 242.24545,23.5955529 232.254729,20.4433928 C222.024969,17.2163527 224.945289,13.7214725 224.945289,13.7214725 C224.945289,13.7214725 229.559049,7.74979231 229.983849,8.04499232" id="Fill-50" fill="#1A1A1A" mask="url(#mask-2)"></path> <polygon id="Fill-51" fill="#1A1A1A" mask="url(#mask-2)" points="260.700634 27.6932171 255.620314 42.7210577 258.655834 41.3501776 264.603035 27.9826571"></polygon> <path d="M234.372825,32.0427373 L231.970905,40.2032176 C231.916185,40.3846576 231.900345,40.5689776 231.917625,40.7475376 C231.983865,41.4473776 232.616025,41.9600177 233.320185,41.9787377 L234.830745,42.0190577" id="Stroke-52" stroke="#D26665" stroke-width="0.923040037" stroke-linecap="round" stroke-linejoin="round" mask="url(#mask-2)"></path> <path d="M242.038234,35.0154734 C241.761754,35.9572334 242.300314,36.9450735 243.240634,37.2215535 C244.182394,37.4994735 245.170234,36.9609135 245.448154,36.0191534 C245.724634,35.0773934 245.186074,34.0895534 244.244314,33.8130733 C243.302554,33.5351533 242.316154,34.0737134 242.038234,35.0154734" id="Fill-53" fill="#1A1A1A" mask="url(#mask-2)"></path> <path d="M242.159914,28.2522251 L243.051274,24.993505 L249.030154,26.8712651 C249.783274,27.1088651 250.434154,27.5970251 250.871914,28.2551051 L253.491274,32.1949453 L248.647114,29.9499852 L242.159914,28.2522251 Z" id="Fill-54" fill="#1A1A1A" mask="url(#mask-2)"></path> <path d="M230.790969,31.7044813 C230.514489,32.6462413 229.526649,33.1848013 228.584889,32.9068813 C227.643129,32.6304013 227.104569,31.6425613 227.381049,30.7008012 C227.658969,29.7590412 228.646809,29.2204812 229.588569,29.4984012 C230.528889,29.7748812 231.067449,30.7627212 230.790969,31.7044813" id="Fill-55" fill="#1A1A1A" mask="url(#mask-2)"></path> <path d="M233.707545,25.762321 L234.676665,22.5280809 L229.920345,21.1788008 C229.319865,21.0088808 228.667545,21.1053608 228.071385,21.4538409 L224.508825,23.5332009 L228.707865,24.005521 L233.707545,25.762321 Z" id="Fill-56" fill="#1A1A1A" mask="url(#mask-2)"></path> <path d="M235.680633,43.3559537 C235.922553,43.7490737 236.361753,44.2645938 236.773593,44.6749938 C237.202713,45.1012338 237.672153,45.4885938 238.174713,45.8327538 C239.175514,46.5311538 240.333274,46.9948339 241.575994,47.1935539 L241.601914,47.1964339 C241.948954,47.2525939 242.183674,47.5765939 242.128954,47.9221939 C242.081434,48.2202739 241.833754,48.4362739 241.545754,48.4564339 C240.091354,48.5543539 238.572153,48.3138739 237.185433,47.7493939 C236.489913,47.4729139 235.815993,47.1316339 235.176633,46.7298739 C234.527193,46.3093938 233.961273,45.9119538 233.319033,45.2841138 L233.298873,45.2639538 C232.691193,44.6721138 232.679673,43.6972337 233.272953,43.0895537 C233.866233,42.4833137 234.839673,42.4703537 235.447353,43.0636337 C235.536633,43.1514737 235.617273,43.2551537 235.680633,43.3559537" id="Fill-57" fill="#1A1A1A" mask="url(#mask-2)"></path> <path d="M231.107481,44.4949938 C230.321241,44.7052338 229.704921,44.7599538 229.006521,44.7945138 C228.326841,44.8175538 227.647161,44.7743538 226.979001,44.6605938 C226.312281,44.5554738 225.655641,44.3538738 225.040761,44.0845938 C224.417241,43.8325937 223.858521,43.4452337 223.340121,43.0506737 C223.080921,42.8519537 223.030521,42.4804337 223.229241,42.2197937 C223.402041,41.9937137 223.705881,41.9260337 223.952121,42.0441137 L223.992441,42.0628337 C224.987481,42.5337137 226.055961,42.7266737 227.112921,42.6460337 C227.639961,42.6100337 228.164121,42.5207537 228.671001,42.3796337 C229.157721,42.2457137 229.717881,42.0354737 230.057721,41.8396337 C230.748921,41.4407536 231.631641,41.6769137 232.029081,42.3666737 C232.427961,43.0578737 232.191801,43.9405937 231.500601,44.3394738 C231.391161,44.4028338 231.275961,44.4503538 231.159321,44.4820338 L231.107481,44.4949938 Z" id="Fill-58" fill="#1A1A1A" mask="url(#mask-2)"></path> <path d="M232.477065,52.0058901 C232.477065,52.0058901 230.436585,52.1599701 228.309705,50.65085" id="Stroke-59" stroke="#D26665" stroke-width="0.692640028" stroke-linecap="round" stroke-linejoin="round" mask="url(#mask-2)"></path> <path d="M236.744361,48.2054419 L227.525481,45.4910418 C227.525481,45.4910418 227.400201,49.222082 231.152841,50.107682 C234.904041,50.994722 236.744361,48.2054419 236.744361,48.2054419" id="Fill-60" fill="#FFFFFF" mask="url(#mask-2)"></path> <polygon id="Fill-61" fill="#007DDC" mask="url(#mask-2)" points="243.794602 95.0673638 234.891081 77.8464031 222.494121 86.9544035 216.996201 72.8582429 200.48228 84.6748834"></polygon> <path d="M222.660729,86.2585954 L231.928569,78.2651551 C233.253369,76.8928351 234.874809,75.818595 236.677689,75.120195 L240.04585,73.8126749 C240.75865,73.5376349 241.57801,73.6917149 242.14249,74.2115549 L244.66537,76.534275 C245.24857,77.0699551 245.44729,77.8893151 245.16793,78.6107551 L241.80697,87.3414755 C241.47577,88.2025955 240.26041,88.2918755 239.77513,87.4897955 L234.948249,79.5093152 C234.678969,79.0629151 234.061209,78.9664351 233.670969,79.3062752 L222.276249,87.8627555 L222.660729,86.2585954 Z" id="Fill-62" fill="#289DE5" mask="url(#mask-2)"></path> <path d="M222.660153,86.2634914 L215.483193,67.9193307 C215.281593,67.4138907 215.274393,67.3807707 214.653753,67.6154907 L211.883192,68.6681307 C211.243832,68.9114907 210.762872,69.5681308 210.664952,70.3327708 L208.139192,79.2622111 C208.022552,80.1751712 208.859192,80.7569312 209.537432,80.2342112 L215.735193,74.933571 C216.112473,74.644131 216.596313,74.809731 216.735993,75.277731 L222.274233,87.8676515 L222.660153,86.2634914 Z" id="Fill-63" fill="#289DE5" mask="url(#mask-2)"></path> <path d="M157.206966,91.2542436 L157.206966,91.2542436 C159.886806,90.1296036 162.969846,91.3910436 164.094487,94.0708837 L169.094167,106.194244 C170.218807,108.874084 168.957367,111.957124 166.277527,113.081764 C163.596247,114.204965 160.513206,112.944964 159.390006,110.265124 L154.390326,98.1417639 C153.265686,95.4619238 154.527126,92.3788837 157.206966,91.2542436" id="Fill-64" fill="#F3A396" mask="url(#mask-2)"></path> <path d="M150.606006,97.0339719 C152.993526,98.6165319 154.635126,98.5517319 154.635126,98.5517319 C155.556726,100.885972 158.248086,101.967412 160.527606,100.920532 L162.143286,100.180372 C164.252887,99.2126919 165.237847,96.7646918 164.388247,94.6046918 L164.340727,94.4808518 C164.340727,94.4808518 163.691287,87.8424515 159.774486,80.8382912 C154.712886,71.7893309 148.139286,69.9302908 145.450806,71.7130108 C142.912086,73.3963709 148.330806,84.3619714 150.292086,88.4558915 L146.152086,85.7630914 C145.626486,85.4218114 144.941046,85.4606914 144.457206,85.8595714 C143.937366,86.2886914 143.787606,87.0216515 144.095766,87.6206915 L146.539446,92.3712517 C147.497046,94.2317317 148.862166,95.8776518 150.606006,97.0339719" id="Fill-65" fill="#F3A396" mask="url(#mask-2)"></path> <path d="M192.832856,154.18743 L171.516535,97.5853479 L150.126774,104.997028 L171.983095,162.84039 C174.419575,168.866791 181.430935,171.594151 187.300375,168.799111 C192.763736,166.197031 195.204536,159.75447 192.832856,154.18743" id="Fill-66" fill="#007DDC" mask="url(#mask-2)"></path> <polygon id="Fill-67" fill="#04162E" mask="url(#mask-2)" points="154.635558 98.5512999 164.388679 94.6042598 165.690439 97.9392999 155.940198 101.90074"></polygon> <path d="M157.74063,96.7625318 C157.74063,99.1961319 159.71343,101.170372 162.14847,101.170372 C164.582071,101.170372 166.554871,99.1961319 166.554871,96.7625318 C166.554871,94.3289317 164.582071,92.3546917 162.14847,92.3546917 C159.71343,92.3546917 157.74063,94.3289317 157.74063,96.7625318" id="Fill-68" fill="#04162E" mask="url(#mask-2)"></path> <path d="M260.618266,90.3837636 C271.650107,99.3103239 297.221628,118.489685 310.095228,128.097365 C314.399388,131.310005 315.408829,137.337845 312.390588,141.780246 C309.188028,146.493366 302.708028,147.597846 298.124508,144.213846 L247.537306,106.864564 C242.757946,103.140724 242.104186,96.1596038 246.107386,91.6120836 C249.835546,87.3799235 256.234906,86.8356035 260.618266,90.3837636" id="Fill-69" fill="#007DDC" mask="url(#mask-2)"></path> <path d="M246.768778,171.586951 L246.768778,171.586951 C247.972618,173.883751 250.810858,174.770791 253.109098,173.566951 L263.442538,168.071911 C265.740779,166.866631 266.626379,164.028391 265.422539,161.73159 C264.218698,159.43335 261.379018,158.54631 259.082218,159.75159 L248.748778,165.246631 C246.450538,166.450471 245.564938,169.288711 246.768778,171.586951" id="Fill-70" fill="#F3A396" mask="url(#mask-2)"></path> <path d="M245.515834,163.856887 C248.057434,164.126167 249.150394,165.103927 249.150394,165.103927 C251.111674,164.022487 253.578394,164.810167 254.551834,166.826167 L255.240154,168.254647 C256.141594,170.120887 255.427354,172.364407 253.615834,173.366647 L253.510714,173.424247 C253.510714,173.424247 249.290074,177.621847 242.609914,180.210967 C233.982873,183.557527 228.402873,181.098007 227.569113,178.343287 C226.779993,175.739767 236.743353,171.280087 240.421114,169.579447 L236.042073,169.076887 C235.486233,169.013527 235.035513,168.595927 234.930393,168.047287 C234.816633,167.455447 235.130553,166.865047 235.683513,166.628887 L240.066874,164.751127 C241.783354,164.015287 243.658234,163.661047 245.515834,163.856887" id="Fill-71" fill="#F3A396" mask="url(#mask-2)"></path> <path d="M307.0695,148.558902 L260.213338,175.371703 L249.715738,158.106102 L297.64902,130.747541 C302.75238,127.988501 309.12582,130.100981 311.57382,135.361301 C313.8519,140.257302 311.86758,146.079222 307.0695,148.558902" id="Fill-72" fill="#007DDC" mask="url(#mask-2)"></path> </g> </g> </g> </g> </g> </svg> 