<?xml version="1.0" encoding="UTF-8"?> <svg xmlns="http://www.w3.org/2000/svg" xmlns:xlink="http://www.w3.org/1999/xlink" width="328px" height="319px" viewBox="0 0 328 319"> <!-- Generator: Sketch 57.1 (83088) - https://sketch.com --> <title>Group 88</title> <desc>Created with Sketch.</desc> <defs> <polygon id="path-1" points="0.256145603 0.853632028 61.5259564 0.853632028 61.5259564 56.7763891 0.256145603 56.7763891"></polygon> <polygon id="path-3" points="0 319.882378 327.442763 319.882378 327.442763 1.24800004 0 1.24800004"></polygon> </defs> <g id="Page-1" stroke="none" stroke-width="1" fill="none" fill-rule="evenodd"> <g id="mark" transform="translate(-375.000000, -6043.000000)"> <g id="Group-11-Copy-9" transform="translate(219.000000, 5954.000000)"> <g id="Group-88" transform="translate(156.000000, 88.000000)"> <path d="M141.094017,141.559272 C136.763457,163.212073 125.219457,211.592042 119.361345,235.893099 C117.403233,244.018827 122.186817,252.236907 130.216449,254.553196 C138.735297,257.011756 147.589858,251.893707 149.712706,243.285003 L173.136418,148.283496 C175.155683,139.073256 168.999298,130.066439 159.684226,128.603783 C151.015618,127.242215 142.815009,132.953064 141.094017,141.559272" id="Fill-1" fill="#007DDC"></path> <path d="M260.660658,141.559272 C264.991218,163.212073 276.535219,211.592042 282.393331,235.893099 C284.351443,244.018827 279.566611,252.236907 271.536978,254.553196 C263.01813,257.011756 254.16357,251.893707 252.04197,243.285003 L228.618257,148.283496 C226.598993,139.073256 232.755377,130.066439 242.069202,128.603783 C250.739058,127.242215 258.939666,132.953064 260.660658,141.559272" id="Fill-3" fill="#007DDC"></path> <polygon id="Fill-5" fill="#007DDC" points="216.474842 115.029537 200.690138 115.255425 185.322265 115.029537 152.398776 129.099489 158.681208 250.407589 200.690138 250.407589 243.115899 250.407589 249.398331 129.099489"></polygon> <path d="M201.514067,136.519723 L201.514067,250.686767" id="Stroke-7" stroke="#005F99" stroke-width="0.897312029"></path> <path d="M198.458714,149.007086 C198.458714,149.997999 197.65625,150.800463 196.665338,150.800463 C195.674426,150.800463 194.871962,149.997999 194.871962,149.007086 C194.871962,148.017422 195.674426,147.21371 196.665338,147.21371 C197.65625,147.21371 198.458714,148.017422 198.458714,149.007086" id="Fill-9" fill="#289DE5"></path> <path d="M198.458714,170.246175 C198.458714,171.237087 197.65625,172.039551 196.665338,172.039551 C195.674426,172.039551 194.871962,171.237087 194.871962,170.246175 C194.871962,169.255263 195.674426,168.452799 196.665338,168.452799 C197.65625,168.452799 198.458714,169.255263 198.458714,170.246175" id="Fill-11" fill="#289DE5"></path> <path d="M198.458714,191.485389 C198.458714,192.476301 197.65625,193.278765 196.665338,193.278765 C195.674426,193.278765 194.871962,192.476301 194.871962,191.485389 C194.871962,190.494477 195.674426,189.692013 196.665338,189.692013 C197.65625,189.692013 198.458714,190.494477 198.458714,191.485389" id="Fill-13" fill="#289DE5"></path> <path d="M198.458714,212.724477 C198.458714,213.715389 197.65625,214.517853 196.665338,214.517853 C195.674426,214.517853 194.871962,213.715389 194.871962,212.724477 C194.871962,211.733565 195.674426,210.931101 196.665338,210.931101 C197.65625,210.931101 198.458714,211.733565 198.458714,212.724477" id="Fill-15" fill="#289DE5"></path> <path d="M198.458714,233.963691 C198.458714,234.954603 197.65625,235.757067 196.665338,235.757067 C195.674426,235.757067 194.871962,234.954603 194.871962,233.963691 C194.871962,232.972779 195.674426,232.170315 196.665338,232.170315 C197.65625,232.170315 198.458714,232.972779 198.458714,233.963691" id="Fill-17" fill="#289DE5"></path> <path d="M156.805464,214.518477 L154.160952,163.118348" id="Stroke-19" stroke="#005F99" stroke-width="0.897312029"></path> <path d="M244.952206,214.518477 L247.596718,163.118348" id="Stroke-21" stroke="#005F99" stroke-width="0.897312029"></path> <path d="M203.439731,124.716138 L203.439731,124.716138 C193.630451,124.716138 185.679443,116.763882 185.679443,106.95585 L185.679443,69.1551767 L221.20002,69.1551767 L221.20002,106.95585 C221.20002,116.763882 213.247764,124.716138 203.439731,124.716138" id="Fill-23" fill="#F3A396"></path> <path d="M185.678944,75.4896505 C185.678944,75.4896505 195.452032,93.6530431 206.620384,92.764467 C223.883969,91.390419 221.022305,69.9934583 221.022305,69.9934583 C221.022305,69.9934583 214.325537,84.2655868 203.735008,84.2780668 C191.92144,84.2930428 185.678944,75.4896505 185.678944,75.4896505" id="Fill-25" fill="#1A1A1A"></path> <g id="Group-29" transform="translate(171.936006, 0.394368)"> <mask id="mask-2" fill="white"> <use xlink:href="#path-1"></use> </mask> <g id="Clip-28"></g> <path d="M60.9786164,21.5628199 C59.5246964,16.2925157 56.1089203,8.85443549 43.9109679,3.30707531 C23.7570152,-5.85948499 10.1662948,13.6080676 10.1662948,13.6080676 C4.73499861,13.0302436 1.79221451,15.1094117 0.614102473,20.0003239 C-0.39178556,24.182372 0.966038484,32.3517803 1.69986251,35.4830124 L5.71717464,56.7763891 L9.59346277,37.8804204 C13.4048549,25.45034 19.1993191,20.3896999 19.1993191,20.3896999 L37.6160557,18.9295398 L57.1460083,54.966789 L60.9461684,33.6409643 C61.4278965,30.9365482 61.6288245,28.1797161 61.4753205,25.436612 C61.3867125,23.849156 61.2294645,22.4726119 60.9786164,21.5628199" id="Fill-27" fill="#1A1A1A" mask="url(#mask-2)"></path> </g> <path d="M228.583812,50.9987729 C228.583812,50.9987729 230.984964,47.1798927 235.937029,49.0581328 C240.887845,50.9363729 238.647685,62.9621013 231.220836,64.4946453 C231.220836,64.4946453 228.557604,65.0749653 226.4697,63.2516373 C226.4697,63.2516373 228.296772,54.369621 228.583812,50.9987729" id="Fill-30" fill="#F3A396"></path> <path d="M234.954228,53.3010833 C234.954228,53.3010833 230.805876,51.9170513 227.861844,58.0247635" id="Stroke-32" stroke="#D26665" stroke-width="0.799968026" stroke-linecap="round" stroke-linejoin="round"></path> <path d="M229.876241,55.0365522 C229.876241,55.0365522 234.389009,57.4514323 231.408785,61.0793684" id="Stroke-34" stroke="#D26665" stroke-width="0.799968026" stroke-linecap="round" stroke-linejoin="round"></path> <path d="M177.894793,50.9987729 C177.894793,50.9987729 175.494889,47.1798927 170.542825,49.0581328 C165.590761,50.9363729 167.830921,62.9621013 175.257769,64.4946453 C175.257769,64.4946453 177.921001,65.0749653 180.008905,63.2516373 C180.008905,63.2516373 178.181833,54.369621 177.894793,50.9987729" id="Fill-36" fill="#F3A396"></path> <path d="M171.524377,53.3010833 C171.524377,53.3010833 175.672729,51.9170513 178.616761,58.0247635" id="Stroke-38" stroke="#D26665" stroke-width="0.799968026" stroke-linecap="round" stroke-linejoin="round"></path> <path d="M176.602239,55.0365522 C176.602239,55.0365522 172.089471,57.4514323 175.069695,61.0793684" id="Stroke-40" stroke="#D26665" stroke-width="0.799968026" stroke-linecap="round" stroke-linejoin="round"></path> <path d="M229.079767,39.5876845 C229.082289,46.8373167 228.370903,62.0042612 223.913047,71.0060855 C219.728503,79.4587898 212.808343,84.0077499 203.734135,84.278566 C194.659926,84.549382 187.900758,81.0524858 182.484438,70.0825655 C177.06687,59.1126451 177.325206,39.7212205 177.325206,39.7212205 C177.325206,39.7212205 177.325206,13.8239717 202.921687,13.8239717 C229.880984,13.8239717 229.079767,39.5876845 229.079767,39.5876845" id="Fill-42" fill="#F3A396"></path> <path d="M226.748878,17.0639046 C226.082446,17.2860486 204.564429,11.3218564 204.564429,11.3218564 L185.678444,17.0639046 C185.678444,17.0639046 185.684684,17.0788806 185.689676,17.0901126 C169.087532,21.5829127 176.403308,37.3052172 176.403308,37.3052172 C183.23486,33.7958411 182.730668,26.6061129 184.026092,21.4281607 C187.047501,25.4005448 198.618957,32.6352011 212.854893,32.3593931 C227.43403,32.077345 229.082638,26.3989449 229.082638,26.3989449 C229.082638,26.3989449 227.416558,16.8405126 226.748878,17.0639046" id="Fill-44" fill="#1A1A1A"></path> <path d="M201.377037,46.6710831 L201.377037,58.2350515 C201.377037,58.4921395 201.426957,58.7379955 201.516813,58.9651315 C201.871245,59.8524596 202.893357,60.2767796 203.818125,60.0321716 L205.804941,59.5030195" id="Stroke-46" stroke="#D26665" stroke-width="0.799968026" stroke-linecap="round" stroke-linejoin="round"></path> <path d="M193.860957,47.6045872 C193.860957,48.9386992 192.780189,50.0207152 191.446077,50.0207152 C190.111965,50.0207152 189.029949,48.9386992 189.029949,47.6045872 C189.029949,46.2717231 190.111965,45.1884591 191.446077,45.1884591 C192.780189,45.1884591 193.860957,46.2717231 193.860957,47.6045872" id="Fill-48" fill="#1A1A1A"></path> <path d="M196.29905,40.2652237 L196.387658,35.6738316 L187.871305,35.8273356 C186.796777,35.8460556 185.760937,36.2341836 184.937257,36.9243276 L180.008905,41.0577037 L187.188649,39.9881677 L196.29905,40.2652237 Z" id="Fill-50" fill="#1A1A1A"></path> <path d="M211.068506,47.6045872 C211.068506,48.9386992 212.149274,50.0207152 213.483386,50.0207152 C214.817498,50.0207152 215.899514,48.9386992 215.899514,47.6045872 C215.899514,46.2717231 214.817498,45.1884591 213.483386,45.1884591 C212.149274,45.1884591 211.068506,46.2717231 211.068506,47.6045872" id="Fill-52" fill="#1A1A1A"></path> <path d="M208.630413,40.2652237 L208.541805,35.6738316 L217.058157,35.8273356 C218.132686,35.8460556 219.168526,36.2341836 219.992206,36.9243276 L224.920558,41.0577037 L217.740814,39.9881677 L208.630413,40.2652237 Z" id="Fill-54" fill="#1A1A1A"></path> <path d="M200.969315,63.4252341 C200.002115,63.9693621 199.133507,64.3075701 198.180035,64.6195701 C197.241539,64.9190901 196.278083,65.1300021 195.304643,65.2535541 C194.333699,65.3833461 193.346531,65.3995701 192.374339,65.3122101 C191.399651,65.2498101 190.447427,65.0014581 189.528899,64.7219061 C189.240611,64.6345461 189.077123,64.3287861 189.164483,64.0392501 C189.243107,63.7759221 189.503939,63.6174261 189.768515,63.6586101 L189.813443,63.6636021 C190.679555,63.7958901 191.543171,63.8994741 192.409283,63.8295861 C193.270403,63.7859061 194.124035,63.6523701 194.951459,63.4177461 C195.778883,63.1918581 196.586339,62.8910901 197.356355,62.520434 C198.107651,62.157266 198.900131,61.690514 199.477955,61.24373 L199.509155,61.21877 C200.088227,60.771986 200.920643,60.879314 201.368675,61.458386 C201.816707,62.038706 201.710627,62.8711221 201.130307,63.3179061 C201.080387,63.3565941 201.021731,63.3952821 200.969315,63.4252341" id="Fill-56" fill="#1A1A1A"></path> <path d="M206.519546,61.2436052 C207.09737,61.6903892 207.88985,62.1571412 208.641146,62.5203092 C209.411162,62.8909653 210.21737,63.1929813 211.046042,63.4176213 C211.873466,63.6522453 212.727098,63.7857813 213.589466,63.8294613 C214.45433,63.8993493 215.317946,63.7957653 216.184058,63.6634773 L216.227738,63.6584853 C216.527258,63.6123093 216.805562,63.8182293 216.85049,64.1177493 C216.891674,64.3898133 216.724442,64.6444053 216.468602,64.7217813 C215.550074,65.0013333 214.59785,65.2496853 213.623162,65.3120853 C212.652218,65.3994453 211.663802,65.3832213 210.692858,65.2534293 C209.719418,65.1298773 208.755962,64.9189653 207.817466,64.6194453 C206.863994,64.3074453 205.995386,63.9692373 205.028186,63.4251093 C204.38921,63.0669333 204.162074,62.2569812 204.521498,61.6192532 C204.880922,60.9815252 205.688378,60.7531412 206.327354,61.1138132 C206.382266,61.1437652 206.434682,61.1774612 206.482106,61.2161492 L206.519546,61.2436052 Z" id="Fill-58" fill="#1A1A1A"></path> <path d="M199.451373,74.5061016 C199.451373,74.5061016 202.259373,75.3871897 205.766253,74.5061016" id="Stroke-60" stroke="#D26665" stroke-width="0.60028802" stroke-linecap="round" stroke-linejoin="round"></path> <path d="M194.947466,66.8365174 L210.667274,66.8365174 C210.667274,66.8365174 208.033994,71.7486455 202.228298,71.4641015 C196.422602,71.1783095 194.947466,66.8365174 194.947466,66.8365174" id="Fill-62" fill="#FFFFFF"></path> <polygon id="Fill-64" fill="#007DDC" points="173.520678 126.789191 190.43607 106.415591 202.076167 122.741927 212.921287 106.415591 232.957928 126.789191"></polygon> <path d="M201.514067,121.748519 L193.625459,107.941895 C192.320051,105.658055 190.536659,103.683719 188.395091,102.156167 L184.397747,99.3007424 C183.550355,98.6942144 182.429651,98.6393024 181.528595,99.1584704 L177.496307,101.477255 C176.565299,102.012647 176.047379,103.054727 176.184659,104.120519 L177.842003,116.998631 C178.006739,118.270343 179.569235,118.784519 180.455315,117.858503 L189.281171,108.643271 C189.772883,108.130343 190.612787,108.197735 191.014643,108.783047 L201.514067,124.039847 L201.514067,121.748519 Z" id="Fill-66" fill="#289DE5"></path> <path d="M201.514067,121.748519 L209.402676,107.941895 C210.708084,105.658055 212.491476,103.683719 214.631796,102.156167 L218.630388,99.3007424 C219.476532,98.6942144 220.598484,98.6393024 221.49954,99.1584704 L225.531828,101.477255 C226.462836,102.012647 226.979508,103.054727 226.843476,104.120519 L225.184884,116.998631 C225.021396,118.270343 223.4589,118.784519 222.57282,117.858503 L213.745716,108.643271 C213.255252,108.130343 212.415348,108.197735 212.013492,108.783047 L201.514067,124.039847 L201.514067,121.748519 Z" id="Fill-68" fill="#289DE5"></path> <mask id="mask-4" fill="white"> <use xlink:href="#path-3"></use> </mask> <g id="Clip-71"></g> <polygon id="Fill-70" fill="#D39A4F" mask="url(#mask-4)" points="16.8904326 287.307081 310.551082 287.307081 310.551082 259.854824 16.8904326 259.854824"></polygon> <path d="M11.5377604,263.331877 L7.98969626,263.331877" id="Fill-72" fill="#D39A4F" mask="url(#mask-4)"></path> <path d="M11.5377604,263.331877 L4.32931214,263.331877" id="Fill-73" fill="#E0C070" mask="url(#mask-4)"></path> <polygon id="Fill-74" fill="#E8CD80" mask="url(#mask-4)" points="11.5377604 283.645449 315.905002 283.645449 315.905002 256.19444 11.5377604 256.19444"></polygon> <polygon id="Fill-75" fill="#222222" opacity="0.109491257" mask="url(#mask-4)" points="11.5377604 267.123177 315.905002 267.123177 315.905002 256.19444 11.5377604 256.19444"></polygon> <polygon id="Fill-76" fill="#C1843D" mask="url(#mask-4)" points="0 259.803656 327.442763 259.803656 327.442763 241.500488 0 241.500488"></polygon> <path d="M277.945583,287.307081 C286.275984,274.000905 291.092016,258.3098 291.092016,241.501736 L291.092016,241.500488 L111.914154,241.500488 L111.914154,241.501736 C111.914154,258.3098 116.728938,274.000905 125.060586,287.307081 L277.945583,287.307081 Z" id="Fill-77" fill="#222222" opacity="0.109491257" mask="url(#mask-4)"></path> <path d="M121.260676,241.500363 L121.260676,241.501611 C121.260676,284.790989 156.353189,319.882254 199.641319,319.882254 L202.680199,319.882254 C245.969576,319.882254 281.062089,284.790989 281.062089,241.501611 L281.062089,241.500363 L121.260676,241.500363 Z" id="Fill-78" fill="#F2E4AA" mask="url(#mask-4)"></path> <polygon id="Fill-79" fill="#FFFFFF" mask="url(#mask-4)" points="66.8519926 202.947645 62.2780724 230.392414 62.2780724 241.500862 44.5177839 241.500862 44.5177839 230.392414 39.9438637 202.947645"></polygon> <polygon id="Fill-80" fill="#43D3FF" mask="url(#mask-4)" points="63.6106869 209.710557 60.2298548 230.000542 60.2298548 239.925886 46.5667503 239.925886 46.5667503 230.000542 43.1859182 209.710557"></polygon> <polygon id="Fill-81" fill="#2D2D2D" mask="url(#mask-4)" points="53.3085713 202.947645 53.3085713 241.500862 44.5189071 241.500862 44.5189071 230.392414 39.9449869 202.947645"></polygon> <polygon id="Fill-82" fill="#69878C" mask="url(#mask-4)" points="51.2794481 241.500363 97.0822976 241.500363 100.919898 238.624971 47.4418479 238.624971"></polygon> <polygon id="Fill-83" fill="#95B3BA" mask="url(#mask-4)" points="44.1229166 239.554107 104.237831 239.554107 111.914279 234.374907 36.4477164 234.374907"></polygon> <path d="M209.17816,190.571229 C209.17816,194.809437 205.742416,198.246429 201.50296,198.246429 C197.263504,198.246429 193.82776,194.809437 193.82776,190.571229 C193.82776,186.33302 197.263504,182.896028 201.50296,182.896028 C205.742416,182.896028 209.17816,186.33302 209.17816,190.571229" id="Fill-84" fill="#BDD9E0" mask="url(#mask-4)"></path> <polygon id="Fill-85" fill="#8EABB2" mask="url(#mask-4)" points="244.495813 241.508974 157.825954 241.508974 153.989602 238.542478 248.333413 238.542478"></polygon> <path d="M201.161258,190.187344 C175.939177,190.187344 155.491944,210.634576 155.491944,235.856657 L246.829323,235.856657 C246.829323,210.634576 226.383339,190.187344 201.161258,190.187344" id="Fill-86" fill="#D1EBF2" mask="url(#mask-4)"></path> <path d="M251.088623,238.654673 L151.329739,238.654673 C150.511051,238.654673 149.845867,237.990737 149.845867,237.172049 C149.845867,236.352113 150.511051,235.688177 151.329739,235.688177 L251.088623,235.688177 C251.907311,235.688177 252.571247,236.352113 252.571247,237.172049 C252.571247,237.990737 251.907311,238.654673 251.088623,238.654673" id="Fill-87" fill="#B0CAD1" mask="url(#mask-4)"></path> </g> </g> </g> </g> </svg> 