<?xml version="1.0" encoding="UTF-8"?> <svg xmlns="http://www.w3.org/2000/svg" xmlns:xlink="http://www.w3.org/1999/xlink" width="315px" height="481px" viewBox="0 0 315 481"> <!-- Generator: Sketch 57.1 (83088) - https://sketch.com --> <title>Group 169</title> <desc>Created with Sketch.</desc> <g id="Page-1" stroke="none" stroke-width="1" fill="none" fill-rule="evenodd"> <g id="masha-copy" transform="translate(-726.000000, -2992.000000)"> <g id="Group-18" transform="translate(232.000000, 2992.000000)"> <g id="Group-169" transform="translate(494.000000, 0.000000)"> <path d="M171.169498,445.500096 C170.134858,448.584846 169.489288,452.897286 169.489288,457.679526 C169.489288,462.462036 170.134858,466.774476 171.169498,469.859226 L171.169498,474.650375 L175.006467,474.650375 C178.053687,474.650375 180.523647,467.052306 180.523647,457.679526 C180.523647,448.307016 178.053687,440.709216 175.006467,440.709216 L171.169498,440.709216 L171.169498,445.500096 Z" id="Fill-1" fill="#AEAFAF"></path> <path d="M18.7099599,479.886623 C18.7099599,479.886623 -24.65536,439.875334 20.6545728,418.024287 C49.3738832,404.174178 42.5034399,400.724089 51.7712636,381.593353 C63.1318749,358.142574 119.591182,340.554386 143.187646,376.508022 C160.560152,402.977423 170.42356,402.407845 183.100639,397.770291 C197.63866,392.452091 210.252265,380.985995 227.513692,388.908896 C252.307094,400.288905 255.891933,424.512817 271.723134,419.233016 C314.103164,405.09884 330.798684,467.103415 293.131599,480.200005 L18.7099599,479.886623 Z" id="Fill-1" fill="#EAF1F8"></path> <path d="M171.169498,440.709189 C174.216448,440.709189 176.686677,448.307259 176.686677,457.679769 C176.686677,467.052279 174.216448,474.650348 171.169498,474.650348 C168.122548,474.650348 165.652318,467.052279 165.652318,457.679769 C165.652318,448.307259 168.122548,440.709189 171.169498,440.709189" id="Fill-3" fill="#CACCCC"></path> <path d="M171.018541,441.826638 C173.887831,448.338498 174.312271,454.157268 174.312271,457.470168 C174.312271,460.783068 173.887831,466.601838 171.018541,473.113967 L136.599752,473.113967 L136.599752,441.826638 L171.018541,441.826638 Z" id="Fill-5" fill="#D14633"></path> <path d="M156.573082,441.935259 C156.573082,441.897459 156.564442,441.861819 156.554452,441.826719 L155.752822,441.826719 C155.751472,441.831309 155.747692,441.835089 155.746612,441.839949 C152.732332,454.456779 137.739772,472.463078 137.589112,472.643438 C137.475442,472.780868 137.467342,472.968248 137.551312,473.114048 L138.283552,473.114048 C139.197232,472.011098 153.584722,454.491879 156.561742,442.031109 C156.569842,441.998709 156.573082,441.966849 156.573082,441.935259" id="Fill-7" fill="#CE3C24"></path> <path d="M159.426064,441.935259 C159.426064,441.897459 159.417424,441.861819 159.407434,441.826719 L158.605804,441.826719 C158.604454,441.831309 158.600674,441.835089 158.599594,441.839949 C155.585314,454.456779 140.592754,472.463078 140.442094,472.643438 C140.327614,472.780868 140.319784,472.968248 140.404294,473.114048 L141.136534,473.114048 C142.050214,472.011098 156.437704,454.491879 159.414724,442.031109 C159.422824,441.998709 159.426064,441.966849 159.426064,441.935259" id="Fill-9" fill="#CE3C24"></path> <path d="M143.295211,472.643546 C143.180731,472.780976 143.173441,472.968086 143.257681,473.113886 L143.989651,473.113886 C144.903061,472.010936 159.290821,454.491717 162.268381,442.031217 C162.276751,441.998817 162.279991,441.966957 162.279991,441.935367 C162.279991,441.897567 162.271081,441.861657 162.261091,441.826557 L161.459461,441.826557 C161.458111,441.831417 161.454601,441.835197 161.453251,441.840057 C158.438161,454.456887 143.445871,472.463186 143.295211,472.643546" id="Fill-11" fill="#CE3C24"></path> <path d="M146.148139,472.643546 C146.034199,472.780976 146.026099,472.968086 146.110339,473.113886 L146.842579,473.113886 C147.755989,472.010936 162.143749,454.491717 165.121309,442.031217 C165.129679,441.998817 165.132919,441.966957 165.132919,441.935367 C165.132919,441.897567 165.124009,441.861657 165.114289,441.826557 L164.312659,441.826557 C164.311309,441.831417 164.307529,441.835197 164.306179,441.840057 C161.291089,454.456887 146.298799,472.463186 146.148139,472.643546" id="Fill-13" fill="#CE3C24"></path> <path d="M149.001148,472.643546 C148.886668,472.780976 148.878838,472.968086 148.963078,473.113886 L149.695588,473.113886 C150.608998,472.010936 164.996758,454.491717 167.974318,442.031217 C167.982688,441.998817 167.985928,441.966957 167.985928,441.935367 C167.985928,441.897567 167.977018,441.861657 167.967298,441.826557 L167.165668,441.826557 C167.164318,441.831417 167.160538,441.835197 167.159188,441.840057 C164.144098,454.456887 149.151808,472.463186 149.001148,472.643546" id="Fill-15" fill="#CE3C24"></path> <path d="M151.85413,472.643546 C151.74019,472.780976 151.73209,472.968086 151.81633,473.113886 L152.54857,473.113886 C153.46198,472.010936 167.84974,454.491717 170.8273,442.031217 C170.83567,441.998817 170.83891,441.966957 170.83891,441.935367 C170.83891,441.897567 170.83,441.861657 170.82028,441.826557 L170.01838,441.826557 C170.0173,441.831417 170.01352,441.835197 170.01217,441.840057 C166.99708,454.456887 152.00479,472.463186 151.85413,472.643546" id="Fill-17" fill="#CE3C24"></path> <path d="M154.669177,473.11394 L155.401417,473.11394 C156.226267,472.11818 168.027967,457.747971 172.508617,445.793991 C172.374967,445.370091 172.232677,444.942141 172.079047,444.508791 C167.857057,456.846711 154.847377,472.47566 154.707247,472.6436 C154.592497,472.78103 154.584937,472.96814 154.669177,473.11394" id="Fill-19" fill="#CE3C24"></path> <path d="M136.599806,454.064442 L136.599806,455.648802 C138.861595,459.348612 140.979745,463.306272 142.423165,467.046042 C142.613515,466.786032 142.806295,466.521972 143.003665,466.248732 C141.388255,462.211692 139.042765,457.960542 136.599806,454.064442" id="Fill-21" fill="#CE3C24"></path> <path d="M136.599806,449.709639 L136.599806,451.200039 C139.319245,455.258679 142.172335,459.976389 144.226765,464.532639 C144.409555,464.272899 144.594775,464.006409 144.780535,463.738299 C142.538455,458.881539 139.448575,453.886539 136.599806,449.709639" id="Fill-23" fill="#CE3C24"></path> <path d="M136.599806,445.666227 L136.599806,447.092637 C139.553335,451.202307 143.176465,456.654147 145.911835,462.084927 C146.087875,461.823297 146.265265,461.556267 146.442385,461.288967 C143.489395,455.522307 139.603825,449.786427 136.599806,445.666227" id="Fill-25" fill="#CE3C24"></path> <path d="M136.599806,441.869865 L136.599806,443.242275 C139.346785,446.835165 143.905735,453.122655 147.498085,459.674205 C147.667915,459.409875 147.837475,459.141225 148.007305,458.872845 C144.108775,451.849605 139.188025,445.206525 136.599806,441.869865" id="Fill-27" fill="#CE3C24"></path> <path d="M139.419118,441.826638 L138.356938,441.826638 C140.557438,444.633018 145.105588,450.663468 148.993858,457.286298 C149.158018,457.017108 149.320018,456.744678 149.482288,456.473058 C145.845118,450.337578 141.703318,444.768558 139.419118,441.826638" id="Fill-29" fill="#CE3C24"></path> <path d="M142.27291,441.826638 L141.21046,441.826638 C143.14312,444.291738 146.88694,449.245158 150.40423,454.901118 C150.56191,454.626258 150.71689,454.350858 150.8716,454.074378 C147.63538,448.911978 144.25471,444.379488 142.27291,441.826638" id="Fill-31" fill="#CE3C24"></path> <path d="M145.125838,441.826638 L144.063388,441.826638 C145.717678,443.936418 148.699288,447.868968 151.729498,452.504598 C151.879618,452.223258 152.028118,451.941918 152.173918,451.659768 C149.447458,447.517428 146.792008,443.972868 145.125838,441.826638" id="Fill-33" fill="#CE3C24"></path> <path d="M148.810501,441.826638 L147.788011,441.826638 C149.471191,444.208038 151.318261,446.964738 153.069751,449.864808 C153.214741,449.563758 153.357031,449.263248 153.495811,448.962738 C151.936561,446.408538 150.316561,443.976378 148.810501,441.826638" id="Fill-35" fill="#CE3C24"></path> <path d="M151.66351,441.826638 L150.64102,441.826638 C151.80067,443.467428 153.03862,445.286688 154.26928,447.208008 C154.40158,446.892918 154.52983,446.578908 154.65322,446.265978 C153.64045,444.700248 152.62822,443.203908 151.66351,441.826638" id="Fill-37" fill="#CE3C24"></path> <path d="M154.516492,441.826638 L153.494002,441.826638 C154.085302,442.663368 154.697122,443.547348 155.317852,444.466158 C155.433412,444.128118 155.540602,443.793318 155.643202,443.460138 C155.263042,442.902048 154.885582,442.353138 154.516492,441.826638" id="Fill-39" fill="#CE3C24"></path> <path d="M158.257342,473.11394 L159.167242,473.11394 C158.676652,471.98453 158.133952,470.843511 157.554532,469.702761 C157.357162,469.960611 157.168162,470.206311 156.989692,470.436891 C157.438162,471.331941 157.865032,472.22672 158.257342,473.11394" id="Fill-41" fill="#CE3C24"></path> <path d="M161.110351,473.11394 L162.020251,473.11394 C161.209441,471.247431 160.257421,469.348521 159.228721,467.472561 C159.042151,467.725551 158.859091,467.972871 158.681161,468.211281 C159.567031,469.844511 160.392691,471.490431 161.110351,473.11394" id="Fill-43" fill="#CE3C24"></path> <path d="M163.963333,473.11394 L164.873233,473.11394 C163.741663,470.509521 162.336043,467.842191 160.829443,465.262341 C160.649083,465.515601 160.472503,465.761571 160.296733,466.005921 C161.653753,468.348981 162.920863,470.755761 163.963333,473.11394" id="Fill-45" fill="#CE3C24"></path> <path d="M166.816342,473.11394 L167.726242,473.11394 C166.269592,469.761621 164.359342,466.304811 162.363502,463.065081 C162.189352,463.319421 162.017092,463.568091 161.845102,463.815681 C163.688122,466.827531 165.445552,470.012991 166.816342,473.11394" id="Fill-47" fill="#CE3C24"></path> <path d="M169.66927,473.11394 L170.57917,473.11394 C168.7888,468.992931 166.31263,464.715591 163.83484,460.875921 C163.66636,461.132151 163.49869,461.382711 163.33075,461.634081 C165.65653,465.258561 167.96206,469.251861 169.66927,473.11394" id="Fill-49" fill="#CE3C24"></path> <path d="M171.723187,471.390828 C171.863587,471.025248 171.997507,470.662638 172.123327,470.302998 C170.121817,466.270008 167.621617,462.218118 165.244537,458.684898 C165.081457,458.944098 164.918107,459.201408 164.754487,459.456828 C167.195287,463.104258 169.744897,467.279268 171.723187,471.390828" id="Fill-51" fill="#CE3C24"></path> <path d="M172.845523,468.020067 C172.956223,467.628027 173.058823,467.241387 173.153863,466.859877 C171.076753,463.143057 168.722893,459.541527 166.590703,456.489987 C166.434103,456.751617 166.278313,457.014057 166.120093,457.273257 C168.329503,460.448997 170.755453,464.191467 172.845523,468.020067" id="Fill-53" fill="#CE3C24"></path> <path d="M173.66311,464.51058 C173.77057,463.92819 173.8621,463.36308 173.93797,462.81822 C172.6471,459.4551 170.81083,455.92296 168.82066,452.55579 C168.66757,452.84226 168.51529,453.12873 168.35869,453.41412 C170.50546,457.08666 172.44541,460.93281 173.66311,464.51058" id="Fill-55" fill="#CE3C24"></path> <path d="M174.274876,459.124566 C174.300526,458.523276 174.312136,457.965726 174.312136,457.470276 C174.312136,457.423296 174.311056,457.370646 174.311056,457.322586 C173.039356,454.833996 171.592156,452.359716 170.117956,450.009636 C169.976746,450.301236 169.834996,450.592566 169.688386,450.884436 C171.337276,453.537996 172.935946,456.345726 174.274876,459.124566" id="Fill-57" fill="#CE3C24"></path> <path d="M174.102778,453.473007 C174.033928,452.810427 173.942398,452.110317 173.826298,451.378617 C172.994158,450.011337 172.144468,448.681047 171.302878,447.407997 C171.173278,447.713367 171.041518,448.018467 170.904358,448.325457 C171.981658,449.968677 173.066518,451.698297 174.102778,453.473007" id="Fill-59" fill="#CE3C24"></path> <path d="M172.857727,446.964549 C172.678177,446.325459 172.470277,445.669899 172.246717,445.007049 C172.164367,445.236009 172.080937,445.464969 171.993457,445.695549 C172.279117,446.110809 172.567207,446.532549 172.857727,446.964549" id="Fill-61" fill="#CE3C24"></path> <path d="M131.781008,445.500096 C130.746368,448.584846 130.100798,452.897286 130.100798,457.679526 C130.100798,462.462036 130.746368,466.774476 131.781008,469.859226 L131.781008,474.650375 L135.617978,474.650375 C138.665197,474.650375 141.135157,467.052306 141.135157,457.679526 C141.135157,448.307016 138.665197,440.709216 135.617978,440.709216 L131.781008,440.709216 L131.781008,445.500096 Z" id="Fill-63" fill="#AEAFAF"></path> <path d="M131.781008,440.709189 C134.827958,440.709189 137.298187,448.307259 137.298187,457.679769 C137.298187,467.052279 134.827958,474.650348 131.781008,474.650348 C128.734058,474.650348 126.263828,467.052279 126.263828,457.679769 C126.263828,448.307259 128.734058,440.709189 131.781008,440.709189" id="Fill-65" fill="#CACCCC"></path> <path d="M131.781008,450.486402 C133.072418,450.486402 134.119478,453.706962 134.119478,457.679742 C134.119478,461.652252 133.072418,464.873082 131.781008,464.873082 C130.489328,464.873082 129.442538,461.652252 129.442538,457.679742 C129.442538,453.706962 130.489328,450.486402 131.781008,450.486402" id="Fill-67" fill="#191919"></path> <polygon id="Fill-76" fill="#DDDBDB" points="235.402334 466.693368 243.264194 466.693368 243.264194 220.189044 235.402334 220.189044"></polygon> <polygon id="Fill-77" fill="#FFFFFF" points="237.040694 466.693368 240.275294 466.693368 240.275294 220.189044 237.040694 220.189044"></polygon> <polygon id="Fill-78" fill="#345071" points="211.300515 473.258687 267.366283 473.258687 267.366283 457.445328 211.300515 457.445328"></polygon> <polygon id="Fill-79" fill="#FFFFFF" points="220.688414 473.258687 233.267174 473.258687 233.267174 457.445328 220.688414 457.445328"></polygon> <path d="M280.753693,90.8065866 C274.879033,88.9902966 269.986633,87.1683367 266.281963,85.6852267 C257.230753,82.0615568 254.685193,80.2271769 253.041163,77.329267 C251.438983,74.505337 251.192473,71.5523471 251.216233,69.6024072 L240.012314,69.6024072 L238.654484,69.6024072 L227.450564,69.6024072 C227.474054,71.5523471 227.227814,74.505337 225.625634,77.329267 C223.981334,80.2271769 221.435774,82.0615568 212.384565,85.6852267 C208.680165,87.1683367 203.787765,88.9902966 197.913105,90.8065866 C198.695835,95.0293865 199.932975,101.414616 201.647745,109.135806 C209.479095,144.401585 214.063964,148.063325 212.681834,161.248235 C211.516515,172.362244 207.693585,175.151074 205.286265,182.252344 C204.001335,186.042334 203.702715,188.930524 203.345235,193.503784 C202.449915,204.955024 204.026175,216.012333 205.382385,223.064193 C213.717284,225.366213 225.127754,227.571573 238.739264,227.466543 C238.939334,227.465463 239.135894,227.460063 239.333534,227.456283 C239.530904,227.460063 239.727464,227.465463 239.927534,227.466543 C253.538773,227.571573 264.949513,225.366213 273.284413,223.064193 C274.640623,216.012603 276.216883,204.955024 275.321563,193.503784 C274.964083,188.930794 274.665463,186.042334 273.380533,182.252344 C270.973213,175.151074 267.150013,172.362244 265.984963,161.248235 C264.602833,148.063325 269.187703,144.401585 277.019053,109.135806 C278.733823,101.414616 279.970963,95.0293865 280.753693,90.8065866" id="Fill-80" fill="#F4BF70"></path> <path d="M264.401224,136.270211 C259.369774,138.605981 254.517874,134.473361 252.361384,136.270211 C250.205165,138.067061 253.259944,141.300041 258.471214,143.457071 C262.500424,145.125131 265.240654,144.854051 268.020574,143.567771 C269.971324,136.589351 273.085234,126.851262 277.019134,109.135752 C277.293184,107.901312 277.550494,106.714932 277.800514,105.552042 C274.093144,116.890152 267.807544,134.688551 264.401224,136.270211" id="Fill-81" fill="#EAA918"></path> <path d="M198.322344,92.9850545 C199.102914,97.0985044 200.203974,102.634584 201.647664,109.135644 C203.699934,118.378284 205.526754,125.435544 207.084384,131.076654 C207.664884,132.227933 208.313154,133.460213 209.004354,134.684933 C210.048444,136.534973 210.571974,137.459183 211.180824,138.247043 C213.180983,140.834993 215.970353,141.916343 216.781163,142.200113 C221.754833,143.941883 227.645963,142.076723 227.849003,140.372753 L225.946043,137.528033 C224.046053,138.161993 220.792553,138.898013 217.679723,137.528033 C213.853823,135.844043 212.255694,131.866404 211.390344,129.621084 C205.448724,114.206514 198.881514,94.6536545 198.322344,92.9850545" id="Fill-82" fill="#EAA918"></path> <path d="M252.333345,68.0013612 C252.333345,71.3151546 246.513097,74.0013612 239.333485,74.0013612 C232.153593,74.0013612 226.333345,71.3151546 226.333345,68.0013612 C226.333345,64.6875678 232.153593,62.0013612 239.333485,62.0013612 C246.513097,62.0013612 252.333345,64.6875678 252.333345,68.0013612" id="Fill-83" fill="#EAA918"></path> <path d="M246.714902,68.0013612 C246.714902,69.8754311 243.410102,71.3947211 239.333372,71.3947211 C235.256642,71.3947211 231.951842,69.8754311 231.951842,68.0013612 C231.951842,66.1272912 235.256642,64.6080013 239.333372,64.6080013 C243.410102,64.6080013 246.714902,66.1272912 246.714902,68.0013612" id="Fill-84" fill="#FFFFFF"></path> <path d="M218.26241,165.471089 C216.10592,182.183008 212.062941,180.026518 210.176181,190.808428 C208.289151,201.590068 210.176181,216.146037 210.176181,216.146037 C210.176181,216.146037 216.64511,223.154157 237.13055,222.614967 C234.2699,222.122487 230.228,221.103237 225.80972,218.841177 C221.54048,216.655527 218.42792,214.081617 216.37565,212.102517 C214.91171,203.203858 215.7884,196.473028 216.91457,191.886538 C218.21138,186.604798 220.18454,182.758108 220.14917,176.252998 C220.12433,171.684868 219.12101,167.943479 218.26241,165.471089" id="Fill-87" fill="#FFFFFF"></path> <path d="M122.760578,165.972317 C122.283218,166.729127 119.156618,168.469007 116.967188,166.903817 C113.763908,164.613947 111.626588,161.746007 109.918568,158.198207 C103.519028,144.905297 94.4076086,130.370388 88.0077988,117.077208 C82.279209,105.178038 79.278159,83.9509088 84.4394789,79.3155489 C89.6007988,74.680459 98.2910185,87.3040387 101.104958,94.7660285 C104.134088,102.799068 108.262658,113.141688 111.357938,121.149348 C114.426758,129.089238 116.274638,134.345057 119.944748,142.025747 C123.591368,149.657297 127.264448,158.832437 122.760578,165.972317" id="Fill-88" fill="#FFA07F"></path> <path d="M162.895267,110.467284 C162.895267,110.467284 162.068797,106.533114 157.080007,105.979074 C157.080007,105.979074 117.374888,148.075853 114.623318,152.729573 C111.871748,157.383833 116.197418,168.796463 121.071998,167.154323 C125.946578,165.511913 129.932588,159.818963 134.933258,154.084973 C139.933927,148.351253 162.895267,110.467284 162.895267,110.467284" id="Fill-89" fill="#FFA07F"></path> <path d="M161.460946,97.2602344 C163.708156,95.3480945 177.176565,76.910065 178.445835,74.169565 C179.839305,71.1612251 177.026445,70.9166051 175.079205,72.7296551 C173.131696,74.542435 159.260446,92.2668546 158.140756,93.6784145 C157.021066,95.0905145 159.550426,98.8859044 161.460946,97.2602344" id="Fill-90" fill="#FFA07F"></path> <path d="M171.391114,104.8893 C166.999564,111.66036 163.031374,116.32731 157.331674,113.87733 C151.631974,111.42735 151.003414,102.98283 153.413704,96.7220704 C155.823724,90.4613106 160.598134,88.3385707 166.297834,90.7885506 C171.997534,93.2388005 175.016943,99.2986804 171.391114,104.8893" id="Fill-91" fill="#FFA07F"></path> <path d="M167.113612,91.1765406 C165.046762,91.1719506 162.485002,90.5701206 161.893432,92.0594406 C160.900372,95.0199905 160.977862,98.9158204 159.533092,101.5116 C163.054972,103.55253 167.269942,104.03583 170.896852,105.64368 C171.061282,105.39501 171.225712,105.14418 171.391222,104.8893 C174.839392,99.5724604 172.275202,93.8336105 167.113612,91.1765406" id="Fill-92" fill="#C2826B"></path> <path d="M171.018352,93.9163385 C171.192502,93.7435385 171.366652,93.5710085 171.540802,93.3982085 C172.195552,92.7485885 172.867312,92.0741286 173.198062,91.2217386 C173.528812,90.3690786 173.431612,89.2839486 172.712062,88.6686187 C172.028962,88.0843387 170.975962,88.0867687 170.161102,88.4420887 C169.346242,88.7974086 168.714982,89.4402786 168.104782,90.0682986 C167.150872,91.0505586 166.196962,92.0322786 165.243052,93.0145385 C162.385912,95.6259785 160.588252,97.3979884 160.879852,100.446018 C160.908202,100.741398 160.968412,101.062968 161.199532,101.263038 C161.508682,101.530068 161.982802,101.467428 162.369982,101.346198 C164.026702,100.826718 165.301912,99.5866084 166.511512,98.3867284 C168.013792,96.8965984 169.516072,95.4064685 171.018352,93.9163385" id="Fill-93" fill="#FFA07F"></path> <path d="M173.902843,97.4479654 C174.076993,97.2751654 174.251143,97.1026354 174.425293,96.9298354 C175.080042,96.2802154 175.751802,95.6057555 176.082552,94.7533655 C176.413302,93.9007055 176.316102,92.8155755 175.596552,92.1999756 C174.913452,91.6156956 173.860453,91.6183956 173.045593,91.9737156 C172.230733,92.3287656 171.599473,92.9719055 170.989273,93.5999255 C170.035363,94.5821855 169.081453,95.5639055 168.127543,96.5461654 C165.270403,99.1576054 163.472743,100.929615 163.764343,103.977375 C163.792693,104.273025 163.852903,104.594595 164.084293,104.794395 C164.393173,105.061695 164.867293,104.999055 165.254473,104.877825 C166.911193,104.358345 168.186403,103.117965 169.396273,101.918355 C170.898283,100.427955 172.400563,98.9380954 173.902843,97.4479654" id="Fill-94" fill="#FFA07F"></path> <path d="M176.137983,100.888359 C176.285403,100.742019 176.432823,100.595679 176.580513,100.449339 C177.135093,99.8993494 177.703983,99.3280294 177.983973,98.6060494 C178.264233,97.8840694 178.181883,96.9649894 177.572493,96.4438894 C176.993883,95.9489795 176.102073,95.9511395 175.411953,96.2519195 C174.721834,96.5526994 174.186964,97.0972894 173.670454,97.6294594 C172.862344,98.4610594 172.054504,99.2929294 171.246664,100.124529 C168.826654,102.336099 167.304394,103.837029 167.551174,106.418229 C167.575204,106.668789 167.626234,106.940949 167.821984,107.110509 C168.083884,107.336769 168.485374,107.283849 168.813154,107.180979 C170.216344,106.741149 171.296614,105.690579 172.320994,104.674299 C173.593234,103.412319 174.865744,102.150339 176.137983,100.888359" id="Fill-95" fill="#FFA07F"></path> <path d="M162.983719,95.1993785 C161.496289,96.8064184 160.676029,98.3143684 160.879879,100.446018 C160.908229,100.741398 160.968439,101.062968 161.199559,101.262768 C161.508709,101.530068 161.982559,101.467428 162.370009,101.346198 C162.960499,101.160978 163.501849,100.883418 164.009989,100.549158 C162.805249,100.071528 161.658289,97.9468984 162.983719,95.1993785" id="Fill-96" fill="#EB8E6E"></path> <path d="M167.551255,106.418337 C167.575285,106.668897 167.626315,106.941057 167.822065,107.110347 C168.083965,107.336607 168.485185,107.283687 168.813235,107.180817 C170.145685,106.763127 171.186805,105.794637 172.165825,104.827767 C170.744005,105.409617 168.335605,105.885087 167.911435,104.016417 C167.597965,104.735697 167.464315,105.509787 167.551255,106.418337" id="Fill-97" fill="#EB8E6E"></path> <path d="M164.189161,102.834789 C163.992871,102.522399 164.273401,100.974759 164.273401,100.974759 C163.847341,101.871159 163.654831,102.833439 163.764181,103.977159 C163.792531,104.273079 163.852741,104.594649 164.084131,104.794449 C164.393281,105.061749 164.867131,104.999109 165.254311,104.877609 C166.028671,104.634879 166.719061,104.234199 167.358961,103.754139 C165.936061,104.302239 164.955961,104.054919 164.189161,102.834789" id="Fill-98" fill="#EB8E6E"></path> <path d="M171.722404,88.5329437 C171.451054,86.1569437 163.372654,86.9107837 158.931964,87.9289537 C158.100634,88.1193037 156.291904,88.8985236 155.642554,89.4849636 C155.146834,89.9331636 152.861284,98.4273634 152.861284,98.4273634 C153.367804,99.3332134 154.935964,99.2824534 155.838034,99.1415134 C156.574324,99.0264934 157.154284,98.4630034 157.736134,97.9734934 C159.647194,96.3651034 162.481384,93.3286835 164.921644,93.0743435 C165.983014,92.9639135 168.641704,92.7022835 169.564024,92.1571536 C170.741494,91.4613636 171.913024,90.2015436 171.722404,88.5329437" id="Fill-99" fill="#FFA07F"></path> <path d="M87.4125298,9.66842974 C85.1186099,7.26299981 83.2094399,4.39937988 80.0931,3.45410991 C76.9764901,2.50883993 73.6611602,2.61656993 70.4322303,2.94650992 C64.4960104,3.55292991 58.4326206,4.97474987 53.6187907,8.66753977 C46.3458009,14.2465496 43.111201,24.2281794 43.200571,33.6770991 C43.368511,51.4309486 32.4216313,88.3723477 39.4624211,91.9177176 C46.5032109,95.4628175 70.9255203,94.8815075 78.1631401,89.8500576 C88.1766298,82.8886478 84.7068599,37.450619 86.4845398,24.9917393 C86.4845398,24.9917393 91.0310697,13.4630096 87.4125298,9.66842974" id="Fill-100" fill="#A3262A"></path> <polygon id="Fill-101" fill="#FFA07F" points="58.1000886 88.8891276 78.5496181 88.8891276 78.5496181 51.1652686 58.1000886 51.1652686"></polygon> <path d="M58.1000616,50.9438957 L78.5495911,50.9438957 L78.5495911,70.7664851 C78.5495911,70.7664851 72.5588312,73.623895 65.5326214,70.0272251 C61.0306415,67.7230452 58.1000616,61.8589154 58.1000616,61.8589154 L58.1000616,50.9438957 Z" id="Fill-102" fill="#FA704E"></path> <path d="M90.3605787,81.5393228 C90.7115787,85.6813927 87.0760288,116.162502 77.4143491,116.162502 C67.7526693,116.162502 40.7046101,85.8490627 40.7046101,81.6921428 C40.7046101,77.5354929 50.3641298,73.695553 66.2306794,73.695553 C82.9112789,73.695553 90.1337787,78.8633529 90.3605787,81.5393228" id="Fill-103" fill="#FFA07F"></path> <path d="M51.8718638,32.3083611 L51.8772638,32.3086311 C51.3658838,30.5409412 51.0864338,28.6749712 51.0864338,26.7428513 C51.0864338,15.6933716 60.0436835,6.73612182 71.0931632,6.73612182 C82.142373,6.73612182 91.0996227,15.6933716 91.0996227,26.7428513 C91.0996227,29.3129812 90.6095727,31.7678212 89.7264028,34.0252911 L89.7320728,34.0255611 L89.7139828,34.0574211 C89.1874828,35.3966211 88.5243628,36.666431 87.7354228,37.846601 C86.5771228,40.2550009 85.2797729,43.3505509 84.9309329,45.7489608 C84.9309329,50.0835407 91.1322927,51.6843706 89.7320728,53.0845906 C88.3318528,54.4848106 84.8466929,55.0852905 84.8466929,55.0852905 C84.8466929,55.0852905 79.935933,67.7229102 76.1013931,67.7229102 C72.2668532,67.7229102 56.7550836,58.2529305 56.0881836,50.2504007 C55.5822037,44.1772908 53.4162637,36.990431 52.4010637,33.8770611 C52.2144937,33.3878211 52.0468238,32.8896711 51.8983238,32.3831511 C51.8813138,32.3348211 51.8718638,32.3083611 51.8718638,32.3083611" id="Fill-104" fill="#FFA07F"></path> <path d="M56.1872736,45.1940028 C53.4654037,42.9808129 51.8759138,42.6249529 49.1540438,40.4117629 C47.9784639,39.455963 46.7494239,38.426723 46.2048339,36.956303 C45.7550139,35.7415731 45.9580539,33.7640931 47.1884439,33.1733331 C48.9323738,32.3357931 50.5677638,33.5389131 51.9598838,34.5522231 C53.4240937,35.6179131 54.7492537,37.047293 55.2306637,38.921633 C55.2309337,38.922713 56.1872736,45.1940028 56.1872736,45.1940028" id="Fill-105" fill="#FFA07F"></path> <path d="M74.5703312,36.401345 C76.6028911,34.6841451 79.153581,34.3579851 81.747741,34.2586251 C82.172451,34.2448551 82.060131,33.3052551 81.645951,32.9024151 C81.231771,32.5001151 80.626971,32.1828651 80.307831,32.2220151 C78.2660911,32.4477351 76.3955311,33.3433251 74.8665211,34.8240051 C74.6286512,35.0572851 74.3386712,35.6399451 74.2096112,36.098135 C74.0808212,36.556595 74.2366112,36.680255 74.5703312,36.401345" id="Fill-106" fill="#1A1A1A"></path> <path d="M79.229208,43.3910239 L80.079438,43.3910239 C80.516838,43.3910239 80.874588,43.0332739 80.874588,42.5958739 L80.874588,39.376124 C80.874588,38.938724 80.516838,38.580974 80.079438,38.580974 L79.229208,38.580974 C78.791808,38.580974 78.4340581,38.938724 78.4340581,39.376124 L78.4340581,42.5958739 C78.4340581,43.0332739 78.791808,43.3910239 79.229208,43.3910239" id="Fill-107" fill="#1A1A1A"></path> <path d="M75.5274001,46.6697688 C75.5274001,47.2197587 77.1112201,47.6655287 79.06494,47.6655287 C81.01866,47.6655287 82.6022099,47.2197587 82.6022099,46.6697688 C82.6022099,46.1200488 81.01866,45.6740088 79.06494,45.6740088 C77.1112201,45.6740088 75.5274001,46.1200488 75.5274001,46.6697688" id="Fill-108" fill="#ED766D"></path> <path d="M82.5665699,57.3168405 C78.78954,59.7163304 74.4557702,58.1392605 72.1613102,53.4725806 C71.9555702,53.0540806 72.4588502,52.6652806 72.6635102,53.0813506 C74.7735602,57.3727305 78.79305,58.8582704 82.27308,56.6475105 C82.6092299,56.4339405 82.9046099,57.1021905 82.5665699,57.3168405" id="Fill-109" fill="#C24848"></path> <path d="M99.3525775,23.4582204 C98.5379875,29.6944102 95.2823276,35.4767301 90.7009677,39.19679 C91.9912977,35.91089 91.3594977,31.7761102 89.3474578,28.9116802 C87.0565078,25.6503503 83.2891979,23.9536704 79.579938,23.7938304 C76.6061581,23.6658504 73.6172582,24.4277904 70.6675083,23.9895804 C68.0385183,23.5988904 63.3966785,19.7054905 62.2410785,16.5192206 C62.8561385,16.4749406 63.4811885,16.2041306 63.9666484,15.7802306 C64.9521484,14.9200106 65.5142884,13.6083506 66.0934384,12.3704007 C67.7093883,8.91629076 69.7624683,5.62499085 72.5809982,3.32648091 C77.8511281,-0.971108974 85.4834879,-1.05750897 91.0222677,2.79647093 C96.5610476,6.65018082 99.8283175,14.0797706 99.5323975,21.3589704 C99.5037775,22.0628604 99.4432975,22.7632404 99.3525775,23.4582204" id="Fill-110" fill="#A3262A"></path> <path d="M52.3955287,40.0257709 C52.3955287,40.0257709 48.4324688,21.8995914 49.2286988,15.8540216 C50.0249288,9.80845174 61.0241885,0.917621976 71.7240182,0.917621976 C82.4238479,0.917621976 88.5366478,7.74565179 87.9979978,21.7219314 C87.9979978,21.7219314 69.0566883,5.54083185 61.0881785,17.0987215 C53.1199387,28.6568812 52.3955287,40.0257709 52.3955287,40.0257709" id="Fill-111" fill="#A3262A"></path> <path d="M58.7312406,10.9145607 C58.8063006,11.7521007 59.1475806,12.4260207 59.6206206,12.9236307 C59.6937906,12.8585607 59.7669605,12.7929507 59.8404005,12.7278807 C61.1021105,11.1464907 62.5355405,9.72926074 63.9719404,8.33687078 C62.2231505,7.6132708 60.8531705,6.09452084 60.5934305,3.8008709 C60.3296405,3.9347909 60.0699005,4.07384089 59.8115105,4.21478089 C59.9718905,6.48575083 58.5236106,8.59742077 58.7312406,10.9145607" id="Fill-112" fill="#B55155"></path> <path d="M53.9473807,62.0162714 C53.8207507,60.9943214 53.7664807,59.9640014 53.7821407,58.9471814 C53.8585507,53.9197816 55.4188807,49.1186417 57.1711806,44.5343118 C59.6848806,37.957652 62.6346305,31.5978022 65.9891104,25.5222623 C67.1034004,23.5037424 68.2841103,21.4571424 68.6934303,19.1159725 C69.1030203,16.7748026 68.5554603,14.0248526 66.7869604,12.6008727 C65.6300104,11.6696427 63.5105105,11.7147327 62.0484605,12.5077227 C56.0074806,21.6105024 52.2544807,32.6057121 51.3038108,43.9899918 C50.8040408,49.9753517 51.0861908,56.1683415 52.9964407,61.8653414 C53.5318507,63.4621213 54.2063107,65.0175913 55.0087507,66.4861212 C54.4881907,65.0605213 54.1369207,63.5474413 53.9473807,62.0162714" id="Fill-113" fill="#A3262A"></path> <path d="M97.2597536,10.3566327 C93.3496137,11.1156027 89.4923938,13.5569426 85.6354439,14.8326926 C82.5941639,15.6162326 80.488434,11.4371727 79.084974,8.56383277 C77.4471541,4.90695287 72.5342342,6.21294284 69.7267743,8.04138279 C68.7315543,8.56437277 67.6196943,8.82168277 66.5224144,8.82438277 C64.8943144,10.6873827 63.0245645,12.2328627 61.1999045,13.8407126 C61.9162145,14.0143226 62.6462945,13.9211726 63.1763045,13.5267026 C66.9195844,10.9144527 71.1305042,8.82492277 75.3416941,9.60846275 C77.4471541,10.1311827 78.3829741,12.7431627 79.786704,15.0940526 C80.956344,17.1835825 83.5297139,17.4446725 85.8692639,17.1835825 C90.1301337,16.4516126 93.5880237,12.5187927 97.4479436,10.7654127 C97.3858436,10.6287927 97.3245536,10.4916327 97.2597536,10.3566327" id="Fill-114" fill="#B55155"></path> <path d="M90.7175997,27.3755963 C91.3993497,29.5069762 91.6582797,32.1086961 91.3367097,34.5870261 C91.1768697,32.5447461 90.4816197,30.5264962 89.3476198,28.9116262 C87.0566698,25.6502963 83.2893599,23.9536164 79.57983,23.7937764 C76.6063201,23.6657964 73.6171502,24.4277364 70.6674003,23.9895264 C69.7715403,23.8564164 68.6421303,23.3161464 67.4962503,22.5361164 C68.0448903,22.4686164 68.5886703,22.3557564 69.1178703,22.2077964 C76.5234301,20.1409465 87.6320398,17.7290365 90.7175997,27.3755963" id="Fill-115" fill="#7A1C20"></path> <path d="M87.3221608,173.406037 C85.1443409,155.161058 88.6880908,141.059498 89.6031208,122.670339 L43.566232,104.493129 C44.481262,122.882019 53.3631817,141.924308 46.4976219,177.797587 C46.4976219,177.797587 52.7716117,182.213707 69.0005013,182.213707 C85.2296609,182.213707 87.3221608,173.406037 87.3221608,173.406037" id="Fill-116" fill="#E6E6E6"></path> <path d="M56.0239236,152.628431 C52.2747037,138.477461 49.4442938,129.961122 52.8978637,130.744392 C75.2546731,135.816341 87.1076728,132.510191 89.2755028,127.836222 C89.4037528,126.148182 89.5155328,124.429362 89.6030128,122.670312 L43.566394,104.493102 C44.481424,122.881992 53.3630737,141.924281 46.4975139,177.79756 C46.4975139,177.79756 48.5354738,179.23072 53.2890937,180.46435 C52.4931337,170.01778 58.9985136,163.854491 56.0239236,152.628431" id="Fill-117" fill="#CCCCCC"></path> <path d="M53.7258727,128.317875 C45.7876029,124.549755 39.8719031,107.832435 39.5300831,100.511385 C39.2230931,93.9347255 39.0532631,87.2119957 37.3525331,80.9693259 C38.4608831,79.6044759 40.1351531,78.0384759 41.297233,77.6888259 C42.705283,77.265736 52.8680827,74.306266 52.8680827,74.306266 C52.8680827,74.306266 70.7869023,101.619195 78.851532,101.619195 C86.9158918,101.619195 82.4141819,74.887036 82.4141819,74.887036 L89.9884917,78.2077659 C91.6184817,79.8374859 92.6042517,90.9177456 92.2969917,97.4944054 C91.9551717,104.815455 95.3228816,115.392165 92.2969917,121.813845 C89.2713718,128.235795 84.6489719,131.639685 75.6099121,132.132974 C70.1281023,132.432134 63.0163025,132.727514 53.7258727,128.317875" id="Fill-118" fill="#E6E6E6"></path> <path d="M95.0758316,475.735613 C97.1235116,475.631933 102.388241,470.106114 98.6730415,467.687184 C97.7955415,467.115864 96.6542516,467.028384 95.5750616,466.960344 L85.5248519,466.327464 C81.843132,465.124074 78.668202,462.601194 76.1952721,459.787794 C73.0157522,456.170334 70.6978023,451.995864 67.6495023,448.287684 C64.5677224,444.538734 64.2642424,441.149154 59.1777126,440.278674 C55.4041927,440.827854 54.3601027,449.639034 55.0256527,454.505784 C55.5065227,458.023614 57.0852126,464.046234 57.0852126,464.046234 C59.5827126,464.576514 61.9776125,465.422694 64.1006224,466.714914 C67.0414624,468.505014 69.3815523,471.263874 70.1883123,474.342683 C78.3847021,475.687283 86.7579418,476.156273 95.0758316,475.735613" id="Fill-119" fill="#9A5350"></path> <path d="M86.8217158,466.834065 C82.074036,466.366965 78.5524261,460.057875 76.5568561,456.136395 C74.5615562,452.214645 71.8823462,441.833685 69.3281463,438.186255 C66.5800864,434.261805 59.5120266,437.000955 59.5120266,437.000955 C59.5120266,437.000955 56.8473966,451.546935 58.7546766,453.270885 C60.6622265,454.994565 72.3783362,467.632455 79.004136,467.632455 C85.6296659,467.632455 86.8217158,466.834065 86.8217158,466.834065" id="Fill-120" fill="#FFA07F"></path> <path d="M61.2094895,474.590246 L58.0669596,474.590246 C58.0669596,474.590246 56.6448696,464.726337 56.6448696,462.301197 C56.6448696,459.876327 60.9205895,458.870307 61.5880295,462.301197 L61.2094895,474.590246 Z" id="Fill-121" fill="#9A5350"></path> <path d="M87.9627628,161.699513 C89.4577528,189.802462 77.4457231,235.016931 70.5572133,257.60135 C57.9951936,252.92036 43.287754,246.98792 37.0485942,234.751251 C31.7730643,224.404041 29.9913343,212.280501 31.9655743,200.812792 C36.1929642,185.905822 41.457694,171.448402 48.6461738,157.757513 L87.9627628,161.699513 Z" id="Fill-122" fill="#456A97"></path> <path d="M68.8333713,327.525408 C69.5942313,286.920649 77.4180211,246.23273 81.580341,210.852201 C81.580341,210.852201 67.0446214,189.059962 49.5140618,189.059962 C31.9835023,189.059962 36.1282722,194.427022 35.4281622,205.810492 C34.8725022,214.840911 44.168332,297.926929 46.6855419,325.681308 C43.527352,377.920367 47.7282819,383.333327 55.0871317,439.893195 L71.5061012,439.893195 C68.9708013,406.136446 68.1119313,366.028487 68.8333713,327.525408" id="Fill-123" fill="#456A97"></path> <path d="M58.9783716,201.473887 C64.6235314,203.927917 69.6125913,199.236127 72.6889712,194.961487 C76.2356911,190.033177 78.1675411,184.104247 78.3589711,178.048957 C78.3786811,177.428767 77.4153211,177.429577 77.3956111,178.048957 C77.2333411,183.184087 75.7839811,188.192047 73.1085512,192.586567 C70.4460813,196.960297 65.2780114,203.169217 59.4646416,200.642017 C58.9016916,200.397667 58.4105616,201.227107 58.9783716,201.473887" id="Fill-124" fill="#CCCCCC"></path> <path d="M34.3137642,201.343126 C35.9540142,191.383906 41.321344,181.859926 47.7657039,177.948166 C54.2097937,174.036136 68.6583033,173.770996 80.208093,175.347256 C82.380783,175.643446 87.7035628,176.528506 87.7035628,176.528506 C88.0907428,171.250006 88.2046828,166.249337 87.9627628,161.699567 L48.6461738,157.757567 C41.457694,171.448456 36.1926942,185.905876 31.9655743,200.812846 C29.9910643,212.280555 31.7730643,224.404095 37.0485942,234.751035 C37.2402941,235.126605 37.4400941,235.495965 37.6471841,235.859925 C38.3580941,243.335145 39.1867241,251.651414 40.0536941,260.195834 C41.456884,252.213824 42.670534,244.205895 43.547494,236.063775 C34.4082642,227.158635 31.9704343,213.294405 34.3137642,201.343126" id="Fill-125" fill="#345071"></path> <path d="M46.5033189,156.118127 C46.5033189,156.118127 83.2978379,159.672677 89.4659878,159.672677 C89.4659878,159.672677 88.8611878,166.537427 88.5587878,172.065946 C88.5587878,172.065946 75.4057381,173.552836 44.201299,165.599987 L46.5033189,156.118127 Z" id="Fill-126" fill="#AD4537"></path> <path d="M27.1703744,175.188712 C27.8256644,175.797022 31.2919243,176.675062 33.0045343,174.601462 C35.5104042,171.567742 36.8388042,168.249443 37.5775241,164.384393 C40.3466441,149.904023 45.4156239,133.527443 48.1844739,119.046804 C50.6630738,106.084644 48.1131939,84.8132348 41.938834,81.6615248 C35.7644742,78.5095449 30.6115243,92.9315945 29.8090843,100.860684 C28.9453544,109.396464 27.6126344,120.444594 26.6784344,128.972814 C25.7526045,137.428673 25.3168245,142.979063 23.7438045,151.338533 C22.1805045,159.645353 20.9879146,169.449053 27.1703744,175.188712" id="Fill-127" fill="#FFA07F"></path> <path d="M14.1528378,237 C14.1528378,237 11.7231078,240.58155 11.6858478,241.91211 C11.6485878,243.24294 13.7459478,247.407689 14.1288078,248.254409 C14.5119377,249.100589 17.1249977,253.080389 18.4425976,252.594119 C19.5382576,252.189659 18.4917376,250.229999 17.3747477,247.760849 C16.2580277,245.29224 15.4596377,242.7159 15.7026377,242.2893 C15.9459077,241.8627 17.9395877,235.56036 18.0996977,234.26679 C18.2600776,232.97322 15.0176477,235.48206 14.1528378,237" id="Fill-128" fill="#C2826B"></path> <path d="M11.9201268,240.91446 C11.9201268,240.91446 10.0733269,244.76925 10.2442369,246.091709 C10.4151469,247.413899 13.1413368,251.270039 13.6527168,252.059249 C14.1638268,252.848729 17.3716967,256.456199 18.6004666,255.806849 C19.6221466,255.267119 18.2802466,253.460009 16.7893067,251.157989 C15.2980967,248.855969 14.1057768,246.407069 14.2799268,245.953739 C14.4540767,245.500409 15.4441667,239.00745 15.4012367,237.70605 C15.3577667,236.40519 12.5395068,239.30148 11.9201268,240.91446" id="Fill-129" fill="#C2826B"></path> <path d="M12.3388968,242.814747 C12.3388968,242.814747 9.36835688,248.762846 8.9242069,250.294826 C8.48005691,251.827076 12.4512168,259.621436 13.9381068,261.917246 C15.4249967,264.212786 17.0231267,262.208036 16.0103567,259.849316 C14.2731768,255.072746 12.5678568,252.317396 12.8454168,251.359976 C13.1229768,250.402556 16.5868067,242.808807 15.5694467,241.237947 C14.5520867,239.667357 13.6799868,240.067227 12.3388968,242.814747" id="Fill-130" fill="#FFA07F"></path> <path d="M23.6015145,234.720552 C24.0405345,228.238932 22.6081845,223.118922 16.9595147,225.139602 C13.2073248,226.481502 8.8144249,237.154602 8.6294749,241.641192 C8.44479491,246.127781 23.2980345,239.202012 23.6015145,234.720552" id="Fill-131" fill="#FFA07F"></path> <path d="M9.86869387,239.231982 C7.88122392,241.169502 6.78853395,247.618721 6.41755396,248.898521 C6.04657397,250.178051 5.72581398,259.738211 5.037044,262.114481 C4.61287401,263.576801 7.96033392,263.717471 8.7905839,260.853581 C9.62083388,257.989961 10.3179739,251.274251 10.7181138,249.893201 C11.1185238,248.512691 17.1794837,241.789962 17.7688937,239.756862 C18.3583036,237.724032 12.1798938,236.978832 9.86869387,239.231982" id="Fill-132" fill="#FFA07F"></path> <path d="M18.2547046,235.420608 C18.2547046,235.420608 19.0935946,243.716898 18.7401646,244.935408 C18.3870046,246.153917 20.2821346,254.074907 23.1039045,250.139927 C25.0649145,247.405097 23.6525445,242.578578 23.5434645,240.469338 C23.4338445,238.360098 25.6753845,235.223238 23.6312145,231.190788 C21.5870446,227.158608 18.7315246,233.775498 18.2547046,235.420608" id="Fill-133" fill="#FFA07F"></path> <path d="M15.6250397,229.224837 C15.6250397,229.224837 18.3066796,232.215897 22.9004595,230.201427 C22.9004595,230.201427 36.2138892,173.927218 36.2684292,168.525059 C36.3226992,163.122359 26.8748594,155.408999 23.4777195,159.266759 C20.0808496,163.124789 19.4776696,170.043538 18.0166997,177.504718 C16.5559997,184.965898 15.6250397,229.224837 15.6250397,229.224837" id="Fill-134" fill="#FFA07F"></path> <path d="M196.83162,467.346903 C193.74687,466.312263 189.43443,465.666693 184.65219,465.666693 C179.86968,465.666693 175.55724,466.312263 172.472491,467.346903 L167.681611,467.346903 L167.681611,471.184143 C167.681611,474.231092 175.27941,476.701322 184.65219,476.701322 C194.0247,476.701322 201.62277,474.231092 201.62277,471.184143 L201.62277,467.346903 L196.83162,467.346903 Z" id="Fill-135" fill="#AEAFAF"></path> <path d="M201.622662,467.346903 C201.622662,470.394123 194.024592,472.864352 184.652082,472.864352 C175.279572,472.864352 167.681503,470.394123 167.681503,467.346903 C167.681503,464.299953 175.279572,461.829723 184.652082,461.829723 C194.024592,461.829723 201.622662,464.299953 201.622662,467.346903" id="Fill-136" fill="#CACCCC"></path> <path d="M200.505294,467.196081 C193.993164,470.065371 188.174664,470.489541 184.861764,470.489541 C181.548594,470.489541 175.730094,470.065371 169.217965,467.196081 L169.217965,432.777292 L200.505294,432.777292 L200.505294,467.196081 Z" id="Fill-137" fill="#EF5233"></path> <path d="M200.396538,452.750568 C200.434068,452.750568 200.469978,452.741928 200.505348,452.731938 L200.505348,451.930308 C200.500488,451.928958 200.496978,451.925178 200.491848,451.923828 C187.875018,448.909818 169.868719,433.917259 169.688359,433.766599 C169.551199,433.652929 169.363549,433.644559 169.218019,433.729069 L169.218019,434.461308 C170.320699,435.374718 187.840188,449.762478 200.300688,452.739228 C200.333088,452.747328 200.364948,452.750568 200.396538,452.750568" id="Fill-138" fill="#CE3C24"></path> <path d="M200.396538,455.603496 C200.434068,455.603496 200.469978,455.594856 200.505348,455.585136 L200.505348,454.783236 C200.500488,454.781886 200.496978,454.778106 200.491848,454.777026 C187.875018,451.762746 169.868719,436.770186 169.688359,436.619526 C169.551199,436.505316 169.363549,436.497486 169.218019,436.581726 L169.218019,437.314236 C170.320699,438.227916 187.840188,452.615406 200.300688,455.592156 C200.333088,455.600256 200.364948,455.603496 200.396538,455.603496" id="Fill-139" fill="#CE3C24"></path> <path d="M169.688305,439.472832 C169.551145,439.358082 169.363495,439.350792 169.217965,439.435032 L169.217965,440.167002 C170.320915,441.080682 187.840134,455.468442 200.300634,458.446002 C200.333034,458.454102 200.364894,458.457342 200.396484,458.457342 C200.434284,458.457342 200.469924,458.448432 200.505294,458.438712 L200.505294,457.637082 C200.500434,457.635732 200.496924,457.631952 200.491794,457.630872 C187.874964,454.615782 169.868665,439.623492 169.688305,439.472832" id="Fill-140" fill="#CE3C24"></path> <path d="M169.688305,442.32576 C169.551145,442.21182 169.363495,442.20372 169.217965,442.28769 L169.217965,443.01993 C170.320915,443.93361 187.840134,458.32137 200.300634,461.29893 C200.333034,461.3073 200.364894,461.31027 200.396484,461.31027 C200.434284,461.31027 200.469924,461.30163 200.505294,461.29164 L200.505294,460.49001 C200.500434,460.48893 200.496924,460.48515 200.491794,460.4838 C187.874964,457.46871 169.868665,442.47642 169.688305,442.32576" id="Fill-141" fill="#CE3C24"></path> <path d="M169.688305,445.178688 C169.551145,445.064208 169.363495,445.056378 169.217965,445.140618 L169.217965,445.872858 C170.320915,446.786538 187.840134,461.174298 200.300634,464.151858 C200.333034,464.160228 200.364894,464.163198 200.396484,464.163198 C200.434284,464.163198 200.469924,464.154558 200.505294,464.144568 L200.505294,463.342938 C200.500434,463.341858 200.496924,463.338078 200.491794,463.336728 C187.874964,460.321638 169.868665,445.329348 169.688305,445.178688" id="Fill-142" fill="#CE3C24"></path> <path d="M169.688305,448.031616 C169.551145,447.917676 169.363495,447.909576 169.217965,447.993816 L169.217965,448.725786 C170.320915,449.639466 187.840134,464.027226 200.300634,467.004786 C200.333034,467.013156 200.364894,467.016126 200.396484,467.016126 C200.434284,467.016126 200.469924,467.007486 200.505294,466.997766 L200.505294,466.195866 C200.500434,466.194786 200.496924,466.191006 200.491794,466.189656 C187.874964,463.174836 169.868665,448.182276 169.688305,448.031616" id="Fill-143" fill="#CE3C24"></path> <path d="M169.217911,450.846582 L169.217911,451.579092 C170.213401,452.403672 184.58388,464.205642 196.53786,468.686022 C196.96176,468.552642 197.38971,468.410352 197.82306,468.256452 C185.48541,464.034732 169.856191,451.024782 169.688251,450.884652 C169.551091,450.770172 169.363711,450.762342 169.217911,450.846582" id="Fill-144" fill="#CE3C24"></path> <path d="M188.267409,432.777427 L186.682779,432.777427 C182.983239,435.038946 179.025579,437.157366 175.285539,438.600516 C175.545819,438.790866 175.809879,438.983646 176.083119,439.181286 C180.120159,437.565606 184.371309,435.220116 188.267409,432.777427" id="Fill-145" fill="#CE3C24"></path> <path d="M192.622239,432.777427 L191.131839,432.777427 C187.073199,435.496596 182.355219,438.349956 177.798969,440.404386 C178.058979,440.587176 178.325469,440.772126 178.593579,440.958156 C183.450609,438.716076 188.445609,435.626196 192.622239,432.777427" id="Fill-146" fill="#CE3C24"></path> <path d="M196.665516,432.777427 L195.239106,432.777427 C191.129706,435.730686 185.677596,439.353816 180.247086,442.089186 C180.508446,442.265496 180.775746,442.442616 181.043046,442.619736 C186.809706,439.667016 192.545316,435.781446 196.665516,432.777427" id="Fill-147" fill="#CE3C24"></path> <path d="M200.461851,432.777427 L199.089441,432.777427 C195.496821,435.524136 189.209331,440.083356 182.657511,443.675436 C182.921841,443.845536 183.190761,444.015096 183.459141,444.184656 C190.482381,440.286396 197.125191,435.365646 200.461851,432.777427" id="Fill-148" fill="#CE3C24"></path> <path d="M200.505294,435.596604 L200.505294,434.534424 C197.698914,436.735194 191.668464,441.283344 185.045634,445.171614 C185.314824,445.335504 185.586984,445.497504 185.858874,445.659774 C191.994084,442.022604 197.563104,437.880804 200.505294,435.596604" id="Fill-149" fill="#CE3C24"></path> <path d="M200.505294,438.450315 L200.505294,437.387865 C198.040194,439.320795 193.086774,443.064615 187.430814,446.581635 C187.705404,446.739315 187.981074,446.894295 188.257284,447.049275 C193.419954,443.812785 197.952174,440.432385 200.505294,438.450315" id="Fill-150" fill="#CE3C24"></path> <path d="M200.505294,441.303513 L200.505294,440.240793 C198.395514,441.895083 194.462964,444.876693 189.827334,447.907173 C190.108674,448.057293 190.390014,448.205523 190.672164,448.351593 C194.814504,445.624863 198.358794,442.969683 200.505294,441.303513" id="Fill-151" fill="#CE3C24"></path> <path d="M200.505294,444.988068 L200.505294,443.965578 C198.123624,445.648488 195.367194,447.495828 192.466854,449.247048 C192.768174,449.392308 193.068684,449.534598 193.369194,449.673648 C195.923394,448.114128 198.355554,446.494128 200.505294,444.988068" id="Fill-152" fill="#CE3C24"></path> <path d="M200.505294,447.840996 L200.505294,446.818776 C198.864234,447.978426 197.044974,449.216106 195.123924,450.446766 C195.439284,450.579336 195.753024,450.707316 196.065684,450.830706 C197.631684,449.817936 199.128024,448.805976 200.505294,447.840996" id="Fill-153" fill="#CE3C24"></path> <path d="M200.505294,450.693924 L200.505294,449.671704 C199.668564,450.262734 198.784314,450.874824 197.865504,451.495284 C198.203544,451.610844 198.538344,451.718304 198.871524,451.820904 C199.429614,451.440744 199.978524,451.063014 200.505294,450.693924" id="Fill-154" fill="#CE3C24"></path> <path d="M169.217911,454.434882 L169.217911,455.344782 C170.347321,454.854192 171.488341,454.311492 172.629091,453.731802 C172.371241,453.534702 172.125271,453.345702 171.894961,453.167502 C170.999641,453.615702 170.105131,454.042572 169.217911,454.434882" id="Fill-155" fill="#CE3C24"></path> <path d="M169.217911,457.28781 L169.217911,458.19771 C171.084421,457.3869 172.983331,456.43488 174.859021,455.40618 C174.606301,455.21988 174.359251,455.03655 174.120571,454.85862 C172.487611,455.74449 170.841151,456.57042 169.217911,457.28781" id="Fill-156" fill="#CE3C24"></path> <path d="M169.217911,460.140765 L169.217911,461.050665 C171.822331,459.919365 174.489931,458.513745 177.06951,457.007145 C176.81598,456.826785 176.57028,456.649935 176.32593,456.474165 C173.983141,457.831185 171.576091,459.098565 169.217911,460.140765" id="Fill-157" fill="#CE3C24"></path> <path d="M169.217911,462.993936 L169.217911,463.903566 C172.570231,462.447186 176.02677,460.536666 179.26677,458.541096 C179.01243,458.366676 178.76376,458.194686 178.51617,458.022696 C175.50432,459.865716 172.318861,461.623146 169.217911,462.993936" id="Fill-158" fill="#CE3C24"></path> <path d="M169.217911,465.846864 L169.217911,466.756764 C173.338651,464.966124 177.61653,462.490224 181.45593,460.012434 C181.1997,459.843954 180.94914,459.676284 180.69777,459.508074 C177.07329,461.834124 173.079991,464.139654 169.217911,465.846864" id="Fill-159" fill="#CE3C24"></path> <path d="M170.940943,467.900619 C171.306523,468.041289 171.669133,468.175209 172.028773,468.301029 C176.061762,466.299249 180.113652,463.799319 183.646602,461.422239 C183.387672,461.258889 183.130632,461.095539 182.874942,460.931919 C179.227782,463.372719 175.052502,465.922599 170.940943,467.900619" id="Fill-160" fill="#CE3C24"></path> <path d="M174.311731,469.023063 C174.703771,469.133763 175.09041,469.236363 175.47192,469.331403 C179.18901,467.254023 182.79027,464.900163 185.84181,462.768243 C185.58018,462.611643 185.31774,462.455853 185.05854,462.297633 C181.8828,464.506773 178.14033,466.932993 174.311731,469.023063" id="Fill-161" fill="#CE3C24"></path> <path d="M177.821217,469.840704 C178.403877,469.947894 178.968717,470.039424 179.513577,470.115564 C182.876697,468.824424 186.408837,466.988424 189.776277,464.997984 C189.489537,464.845164 189.203337,464.692884 188.917677,464.536284 C185.245137,466.683054 181.398987,468.622734 177.821217,469.840704" id="Fill-162" fill="#CE3C24"></path> <path d="M183.207177,470.452443 C183.808467,470.478363 184.366287,470.489703 184.861737,470.489703 C184.908717,470.489703 184.961097,470.488623 185.009157,470.488623 C187.497747,469.216923 189.972027,467.769723 192.322107,466.295523 C192.030507,466.154313 191.739177,466.012563 191.447307,465.865953 C188.794017,467.514573 185.986287,469.113243 183.207177,470.452443" id="Fill-163" fill="#CE3C24"></path> <path d="M188.858844,470.280264 C189.521424,470.211414 190.221534,470.119884 190.953234,470.003784 C192.320784,469.171914 193.650804,468.321954 194.923854,467.480364 C194.618484,467.350494 194.313384,467.219004 194.006664,467.081844 C192.363174,468.159414 190.633554,469.244004 188.858844,470.280264" id="Fill-164" fill="#CE3C24"></path> <path d="M195.367383,469.035186 C196.006473,468.855636 196.661763,468.647736 197.324883,468.423906 C197.095923,468.342096 196.866693,468.258396 196.636383,468.171186 C196.221123,468.456576 195.799383,468.744666 195.367383,469.035186" id="Fill-165" fill="#CE3C24"></path> <path d="M196.83162,427.958548 C193.74687,426.923908 189.43443,426.278338 184.65219,426.278338 C179.86968,426.278338 175.55724,426.923908 172.472491,427.958548 L167.681611,427.958548 L167.681611,431.795518 C167.681611,434.842467 175.27941,437.312697 184.65219,437.312697 C194.0247,437.312697 201.62277,434.842467 201.62277,431.795518 L201.62277,427.958548 L196.83162,427.958548 Z" id="Fill-166" fill="#AEAFAF"></path> <path d="M201.622662,427.958548 C201.622662,431.005498 194.024592,433.475728 184.652082,433.475728 C175.279572,433.475728 167.681503,431.005498 167.681503,427.958548 C167.681503,424.911598 175.279572,422.441098 184.652082,422.441098 C194.024592,422.441098 201.622662,424.911598 201.622662,427.958548" id="Fill-167" fill="#CACCCC"></path> <path d="M191.845395,427.958548 C191.845395,429.249958 188.624835,430.297018 184.652055,430.297018 C180.679275,430.297018 177.458715,429.249958 177.458715,427.958548 C177.458715,426.666868 180.679275,425.620078 184.652055,425.620078 C188.624835,425.620078 191.845395,426.666868 191.845395,427.958548" id="Fill-168" fill="#191919"></path> <polygon id="Rectangle" fill="#97C4DE" points="0 474 314 474 314 480 0 480"></polygon> </g> </g> </g> </g> </svg> 