<?xml version="1.0" encoding="UTF-8"?> <svg xmlns="http://www.w3.org/2000/svg" xmlns:xlink="http://www.w3.org/1999/xlink" width="598px" height="432px" viewBox="0 0 598 432"> <!-- Generator: Sketch 57.1 (83088) - https://sketch.com --> <title>Group 22</title> <desc>Created with Sketch.</desc> <g id="Page-1" stroke="none" stroke-width="1" fill="none" fill-rule="evenodd"> <g id="masha-copy" transform="translate(-564.000000, -7595.000000)"> <g id="Group-18-Copy-7" transform="translate(206.000000, 7595.000000)"> <g id="Group-22" transform="translate(358.000000, 0.000000)"> <path d="M35.6209984,431.404524 C35.6209984,431.404524 -46.9401614,355.376634 39.3232539,313.856129 C94.0005762,287.538692 80.9202676,280.982967 98.5648342,244.63149 C120.193759,200.071235 227.683936,166.650847 272.608114,234.968543 C305.6828,285.264665 324.46127,284.182374 348.596554,275.370275 C376.274798,265.264841 400.289237,243.477412 433.152444,258.532199 C480.355416,280.156049 487.18042,326.185379 517.320687,316.152908 C598.006001,289.295698 629.791802,407.114372 558.079239,432 L35.6209984,431.404524 Z" id="Fill-1" fill="#EAF1F8"></path> <g id="Group-224"> <path d="M87.9141635,190.57988 L148.308726,190.57988 C155.558646,202.04948 161.503926,214.090281 172.215607,223.271721 C178.662007,229.257801 185.568727,233.861961 192.935768,238.927401 C226.087929,261.029002 260.62201,273.000203 298.839132,277.144523 C329.689213,280.367723 359.618654,280.828043 390.008415,282.209483 C408.194656,282.891083 426.268577,282.339083 444.341538,281.992523 L444.341538,342.567566 C444.341538,354.243566 434.875937,363.709166 423.199937,363.709166 L87.9141635,363.709166 C76.237683,363.709166 66.7725627,354.243566 66.7725627,342.567566 L66.7725627,211.72148 C66.7725627,200.04548 76.237683,190.57988 87.9141635,190.57988" id="Fill-1" fill="#ABB566"></path> <path d="M390.008319,282.209531 C359.618558,280.828091 329.689117,280.367771 298.839036,277.144571 C260.621914,273.000251 226.088313,261.02905 192.935672,238.927449 C185.568631,233.862009 178.661911,229.257849 172.215511,223.271769 C161.50383,214.090329 155.55855,202.049528 148.30863,190.579928 L423.199841,190.579928 C434.875841,190.579928 444.341442,200.045528 444.341442,211.721528 L444.341442,281.992571 C426.268481,282.339131 408.19456,282.891131 390.008319,282.209531" id="Fill-3" fill="#D1DB85"></path> <path d="M405.117568,216.525465 C405.117568,224.144025 411.293248,230.319225 418.911329,230.319225 C411.293248,230.319225 405.117568,236.495385 405.117568,244.113466 C405.117568,236.495385 398.941888,230.319225 391.323808,230.319225 C398.941888,230.319225 405.117568,224.144025 405.117568,216.525465" id="Fill-5" fill="#828A3F"></path> <path d="M402.575296,229.941753 C402.575296,231.345753 403.713856,232.483833 405.117376,232.483833 C406.521856,232.483833 407.659936,231.345753 407.659936,229.941753 C407.659936,228.537753 406.521856,227.399673 405.117376,227.399673 C403.713856,227.399673 402.575296,228.537753 402.575296,229.941753" id="Fill-7" fill="#ABB566"></path> <path d="M354.314654,216.525465 C354.314654,224.144025 360.490334,230.319225 368.108415,230.319225 C360.490334,230.319225 354.314654,236.495385 354.314654,244.113466 C354.314654,236.495385 348.138974,230.319225 340.520894,230.319225 C348.138974,230.319225 354.314654,224.144025 354.314654,216.525465" id="Fill-9" fill="#828A3F"></path> <path d="M351.772382,229.941753 C351.772382,231.345753 352.910462,232.483833 354.314462,232.483833 C355.718942,232.483833 356.857022,231.345753 356.857022,229.941753 C356.857022,228.537753 355.718942,227.399673 354.314462,227.399673 C352.910462,227.399673 351.772382,228.537753 351.772382,229.941753" id="Fill-11" fill="#ABB566"></path> <path d="M303.511548,216.525465 C303.511548,224.144025 309.687228,230.319225 317.305309,230.319225 C309.687228,230.319225 303.511548,236.495385 303.511548,244.113466 C303.511548,236.495385 297.335868,230.319225 289.717788,230.319225 C297.335868,230.319225 303.511548,224.144025 303.511548,216.525465" id="Fill-13" fill="#828A3F"></path> <path d="M300.969276,229.941753 C300.969276,231.345753 302.107356,232.483833 303.511356,232.483833 C304.915836,232.483833 306.053916,231.345753 306.053916,229.941753 C306.053916,228.537753 304.915836,227.399673 303.511356,227.399673 C302.107356,227.399673 300.969276,228.537753 300.969276,229.941753" id="Fill-15" fill="#ABB566"></path> <path d="M252.708634,216.525465 C252.708634,224.144025 258.884314,230.319225 266.502395,230.319225 C258.884314,230.319225 252.708634,236.495385 252.708634,244.113466 C252.708634,236.495385 246.532954,230.319225 238.914873,230.319225 C246.532954,230.319225 252.708634,224.144025 252.708634,216.525465" id="Fill-17" fill="#828A3F"></path> <path d="M250.166122,229.941753 C250.166122,231.345753 251.304682,232.483833 252.708682,232.483833 C254.112682,232.483833 255.250762,231.345753 255.250762,229.941753 C255.250762,228.537753 254.112682,227.399673 252.708682,227.399673 C251.304682,227.399673 250.166122,228.537753 250.166122,229.941753" id="Fill-19" fill="#ABB566"></path> <path d="M201.905528,216.525465 C201.905528,224.144025 208.081208,230.319225 215.699289,230.319225 C208.081208,230.319225 201.905528,236.495385 201.905528,244.113466 C201.905528,236.495385 195.729848,230.319225 188.111767,230.319225 C195.729848,230.319225 201.905528,224.144025 201.905528,216.525465" id="Fill-21" fill="#828A3F"></path> <path d="M199.363256,229.941753 C199.363256,231.345753 200.501336,232.483833 201.905336,232.483833 C203.309816,232.483833 204.447896,231.345753 204.447896,229.941753 C204.447896,228.537753 203.309816,227.399673 201.905336,227.399673 C200.501336,227.399673 199.363256,228.537753 199.363256,229.941753" id="Fill-23" fill="#ABB566"></path> <path d="M151.102374,216.525465 C151.102374,224.144025 157.278054,230.319225 164.896135,230.319225 C157.278054,230.319225 151.102374,236.495385 151.102374,244.113466 C151.102374,236.495385 144.926694,230.319225 137.308613,230.319225 C144.926694,230.319225 151.102374,224.144025 151.102374,216.525465" id="Fill-25" fill="#828A3F"></path> <path d="M148.560102,229.941753 C148.560102,231.345753 149.698662,232.483833 151.102182,232.483833 C152.506662,232.483833 153.644742,231.345753 153.644742,229.941753 C153.644742,228.537753 152.506662,227.399673 151.102182,227.399673 C149.698662,227.399673 148.560102,228.537753 148.560102,229.941753" id="Fill-27" fill="#ABB566"></path> <path d="M382.564575,249.556618 C382.564575,257.175178 388.740255,263.350378 396.358336,263.350378 C388.740255,263.350378 382.564575,269.526539 382.564575,277.144619 C382.564575,269.526539 376.388895,263.350378 368.770815,263.350378 C376.388895,263.350378 382.564575,257.175178 382.564575,249.556618" id="Fill-29" fill="#828A3F"></path> <path d="M380.022303,262.972954 C380.022303,264.376955 381.160383,265.515035 382.564383,265.515035 C383.968863,265.515035 385.106943,264.376955 385.106943,262.972954 C385.106943,261.568954 383.968863,260.430874 382.564383,260.430874 C381.160383,260.430874 380.022303,261.568954 380.022303,262.972954" id="Fill-31" fill="#ABB566"></path> <path d="M331.761469,249.556618 C331.761469,257.175178 337.937149,263.350378 345.55523,263.350378 C337.937149,263.350378 331.761469,269.526539 331.761469,277.144619 C331.761469,269.526539 325.585789,263.350378 317.967709,263.350378 C325.585789,263.350378 331.761469,257.175178 331.761469,249.556618" id="Fill-33" fill="#C09976"></path> <path d="M329.219197,262.972954 C329.219197,264.376955 330.357277,265.515035 331.761277,265.515035 C333.165757,265.515035 334.303837,264.376955 334.303837,262.972954 C334.303837,261.568954 333.165757,260.430874 331.761277,260.430874 C330.357277,260.430874 329.219197,261.568954 329.219197,262.972954" id="Fill-35" fill="#D8BAA1"></path> <path d="M280.958555,249.556618 C280.958555,257.175178 287.134235,263.350378 294.752316,263.350378 C287.134235,263.350378 280.958555,269.526539 280.958555,277.144619 C280.958555,269.526539 274.782875,263.350378 267.164795,263.350378 C274.782875,263.350378 280.958555,257.175178 280.958555,249.556618" id="Fill-37" fill="#C09976"></path> <path d="M278.416043,262.972954 C278.416043,264.376955 279.554603,265.515035 280.958603,265.515035 C282.362603,265.515035 283.500683,264.376955 283.500683,262.972954 C283.500683,261.568954 282.362603,260.430874 280.958603,260.430874 C279.554603,260.430874 278.416043,261.568954 278.416043,262.972954" id="Fill-39" fill="#D8BAA1"></path> <path d="M230.155449,249.556618 C230.155449,257.175178 236.331129,263.350378 243.94921,263.350378 C236.331129,263.350378 230.155449,269.526539 230.155449,277.144619 C230.155449,269.526539 223.979769,263.350378 216.361689,263.350378 C223.979769,263.350378 230.155449,257.175178 230.155449,249.556618" id="Fill-41" fill="#828A3F"></path> <path d="M227.613177,262.972954 C227.613177,264.376955 228.751257,265.515035 230.155257,265.515035 C231.559737,265.515035 232.697817,264.376955 232.697817,262.972954 C232.697817,261.568954 231.559737,260.430874 230.155257,260.430874 C228.751257,260.430874 227.613177,261.568954 227.613177,262.972954" id="Fill-43" fill="#D8BAA1"></path> <path d="M179.352295,249.556618 C179.352295,257.175178 185.527975,263.350378 193.146056,263.350378 C185.527975,263.350378 179.352295,269.526539 179.352295,277.144619 C179.352295,269.526539 173.176615,263.350378 165.558535,263.350378 C173.176615,263.350378 179.352295,257.175178 179.352295,249.556618" id="Fill-45" fill="#C09976"></path> <path d="M176.810023,262.972954 C176.810023,264.376955 177.948583,265.515035 179.352103,265.515035 C180.756583,265.515035 181.894663,264.376955 181.894663,262.972954 C181.894663,261.568954 180.756583,260.430874 179.352103,260.430874 C177.948583,260.430874 176.810023,261.568954 176.810023,262.972954" id="Fill-47" fill="#D8BAA1"></path> <path d="M128.549429,249.556618 C128.549429,257.175178 134.725109,263.350378 142.34319,263.350378 C134.725109,263.350378 128.549429,269.526539 128.549429,277.144619 C128.549429,269.526539 122.373749,263.350378 114.755669,263.350378 C122.373749,263.350378 128.549429,257.175178 128.549429,249.556618" id="Fill-49" fill="#828A3F"></path> <path d="M126.006917,262.972954 C126.006917,264.376955 127.145477,265.515035 128.549477,265.515035 C129.953477,265.515035 131.091557,264.376955 131.091557,262.972954 C131.091557,261.568954 129.953477,260.430874 128.549477,260.430874 C127.145477,260.430874 126.006917,261.568954 126.006917,262.972954" id="Fill-51" fill="#D8BAA1"></path> <path d="M100.299508,216.525465 C100.299508,224.144025 106.475188,230.319225 114.093269,230.319225 C106.475188,230.319225 100.299508,236.495385 100.299508,244.113466 C100.299508,236.495385 94.1238277,230.319225 86.5057474,230.319225 C94.1238277,230.319225 100.299508,224.144025 100.299508,216.525465" id="Fill-53" fill="#828A3F"></path> <path d="M97.7569959,229.941753 C97.7569959,231.345753 98.8955559,232.483833 100.299556,232.483833 C101.703556,232.483833 102.841636,231.345753 102.841636,229.941753 C102.841636,228.537753 101.703556,227.399673 100.299556,227.399673 C98.8955559,227.399673 97.7569959,228.537753 97.7569959,229.941753" id="Fill-55" fill="#ABB566"></path> <path d="M405.117568,284.559803 C405.117568,292.178364 411.293248,298.353564 418.911329,298.353564 C411.293248,298.353564 405.117568,304.529724 405.117568,312.147804 C405.117568,304.529724 398.941888,298.353564 391.323808,298.353564 C398.941888,298.353564 405.117568,292.178364 405.117568,284.559803" id="Fill-57" fill="#828A3F"></path> <path d="M402.575296,297.97614 C402.575296,299.38014 403.713856,300.51822 405.117376,300.51822 C406.521856,300.51822 407.659936,299.38014 407.659936,297.97614 C407.659936,296.57214 406.521856,295.43406 405.117376,295.43406 C403.713856,295.43406 402.575296,296.57214 402.575296,297.97614" id="Fill-59" fill="#ABB566"></path> <path d="M354.314654,284.559803 C354.314654,292.178364 360.490334,298.353564 368.108415,298.353564 C360.490334,298.353564 354.314654,304.529724 354.314654,312.147804 C354.314654,304.529724 348.138974,298.353564 340.520894,298.353564 C348.138974,298.353564 354.314654,292.178364 354.314654,284.559803" id="Fill-61" fill="#C09976"></path> <path d="M351.772382,297.97614 C351.772382,299.38014 352.910462,300.51822 354.314462,300.51822 C355.718942,300.51822 356.857022,299.38014 356.857022,297.97614 C356.857022,296.57214 355.718942,295.43406 354.314462,295.43406 C352.910462,295.43406 351.772382,296.57214 351.772382,297.97614" id="Fill-63" fill="#D8BAA1"></path> <path d="M303.511548,284.559803 C303.511548,292.178364 309.687228,298.353564 317.305309,298.353564 C309.687228,298.353564 303.511548,304.529724 303.511548,312.147804 C303.511548,304.529724 297.335868,298.353564 289.717788,298.353564 C297.335868,298.353564 303.511548,292.178364 303.511548,284.559803" id="Fill-65" fill="#C09976"></path> <path d="M300.969276,297.97614 C300.969276,299.38014 302.107356,300.51822 303.511356,300.51822 C304.915836,300.51822 306.053916,299.38014 306.053916,297.97614 C306.053916,296.57214 304.915836,295.43406 303.511356,295.43406 C302.107356,295.43406 300.969276,296.57214 300.969276,297.97614" id="Fill-67" fill="#D8BAA1"></path> <path d="M252.708634,284.559803 C252.708634,292.178364 258.884314,298.353564 266.502395,298.353564 C258.884314,298.353564 252.708634,304.529724 252.708634,312.147804 C252.708634,304.529724 246.532954,298.353564 238.914873,298.353564 C246.532954,298.353564 252.708634,292.178364 252.708634,284.559803" id="Fill-69" fill="#C09976"></path> <path d="M250.166122,297.97614 C250.166122,299.38014 251.304682,300.51822 252.708682,300.51822 C254.112682,300.51822 255.250762,299.38014 255.250762,297.97614 C255.250762,296.57214 254.112682,295.43406 252.708682,295.43406 C251.304682,295.43406 250.166122,296.57214 250.166122,297.97614" id="Fill-71" fill="#D8BAA1"></path> <path d="M201.905528,284.559803 C201.905528,292.178364 208.081208,298.353564 215.699289,298.353564 C208.081208,298.353564 201.905528,304.529724 201.905528,312.147804 C201.905528,304.529724 195.729848,298.353564 188.111767,298.353564 C195.729848,298.353564 201.905528,292.178364 201.905528,284.559803" id="Fill-73" fill="#C09976"></path> <path d="M199.363256,297.97614 C199.363256,299.38014 200.501336,300.51822 201.905336,300.51822 C203.309816,300.51822 204.447896,299.38014 204.447896,297.97614 C204.447896,296.57214 203.309816,295.43406 201.905336,295.43406 C200.501336,295.43406 199.363256,296.57214 199.363256,297.97614" id="Fill-75" fill="#D8BAA1"></path> <path d="M151.102374,284.559803 C151.102374,292.178364 157.278054,298.353564 164.896135,298.353564 C157.278054,298.353564 151.102374,304.529724 151.102374,312.147804 C151.102374,304.529724 144.926694,298.353564 137.308613,298.353564 C144.926694,298.353564 151.102374,292.178364 151.102374,284.559803" id="Fill-77" fill="#C09976"></path> <path d="M148.560102,297.97614 C148.560102,299.38014 149.698662,300.51822 151.102182,300.51822 C152.506662,300.51822 153.644742,299.38014 153.644742,297.97614 C153.644742,296.57214 152.506662,295.43406 151.102182,295.43406 C149.698662,295.43406 148.560102,296.57214 148.560102,297.97614" id="Fill-79" fill="#D8BAA1"></path> <path d="M382.564575,317.591005 C382.564575,325.209085 388.740255,331.384765 396.358336,331.384765 C388.740255,331.384765 382.564575,337.560925 382.564575,345.179006 C382.564575,337.560925 376.388895,331.384765 368.770815,331.384765 C376.388895,331.384765 382.564575,325.209085 382.564575,317.591005" id="Fill-81" fill="#C09976"></path> <path d="M380.022303,331.007341 C380.022303,332.411341 381.160383,333.549421 382.564383,333.549421 C383.968863,333.549421 385.106943,332.411341 385.106943,331.007341 C385.106943,329.603341 383.968863,328.465261 382.564383,328.465261 C381.160383,328.465261 380.022303,329.603341 380.022303,331.007341" id="Fill-83" fill="#D8BAA1"></path> <path d="M331.761469,317.591005 C331.761469,325.209085 337.937149,331.384765 345.55523,331.384765 C337.937149,331.384765 331.761469,337.560925 331.761469,345.179006 C331.761469,337.560925 325.585789,331.384765 317.967709,331.384765 C325.585789,331.384765 331.761469,325.209085 331.761469,317.591005" id="Fill-85" fill="#C09976"></path> <path d="M329.219197,331.007341 C329.219197,332.411341 330.357277,333.549421 331.761277,333.549421 C333.165757,333.549421 334.303837,332.411341 334.303837,331.007341 C334.303837,329.603341 333.165757,328.465261 331.761277,328.465261 C330.357277,328.465261 329.219197,329.603341 329.219197,331.007341" id="Fill-87" fill="#D8BAA1"></path> <path d="M280.958555,317.591005 C280.958555,325.209085 287.134235,331.384765 294.752316,331.384765 C287.134235,331.384765 280.958555,337.560925 280.958555,345.179006 C280.958555,337.560925 274.782875,331.384765 267.164795,331.384765 C274.782875,331.384765 280.958555,325.209085 280.958555,317.591005" id="Fill-89" fill="#C09976"></path> <path d="M278.416043,331.007341 C278.416043,332.411341 279.554603,333.549421 280.958603,333.549421 C282.362603,333.549421 283.500683,332.411341 283.500683,331.007341 C283.500683,329.603341 282.362603,328.465261 280.958603,328.465261 C279.554603,328.465261 278.416043,329.603341 278.416043,331.007341" id="Fill-91" fill="#D8BAA1"></path> <path d="M230.155449,317.591005 C230.155449,325.209085 236.331129,331.384765 243.94921,331.384765 C236.331129,331.384765 230.155449,337.560925 230.155449,345.179006 C230.155449,337.560925 223.979769,331.384765 216.361689,331.384765 C223.979769,331.384765 230.155449,325.209085 230.155449,317.591005" id="Fill-93" fill="#C09976"></path> <path d="M227.613177,331.007341 C227.613177,332.411341 228.751257,333.549421 230.155257,333.549421 C231.559737,333.549421 232.697817,332.411341 232.697817,331.007341 C232.697817,329.603341 231.559737,328.465261 230.155257,328.465261 C228.751257,328.465261 227.613177,329.603341 227.613177,331.007341" id="Fill-95" fill="#D8BAA1"></path> <path d="M179.352295,317.591005 C179.352295,325.209085 185.527975,331.384765 193.146056,331.384765 C185.527975,331.384765 179.352295,337.560925 179.352295,345.179006 C179.352295,337.560925 173.176615,331.384765 165.558535,331.384765 C173.176615,331.384765 179.352295,325.209085 179.352295,317.591005" id="Fill-97" fill="#C09976"></path> <path d="M176.810023,331.007341 C176.810023,332.411341 177.948583,333.549421 179.352103,333.549421 C180.756583,333.549421 181.894663,332.411341 181.894663,331.007341 C181.894663,329.603341 180.756583,328.465261 179.352103,328.465261 C177.948583,328.465261 176.810023,329.603341 176.810023,331.007341" id="Fill-99" fill="#D8BAA1"></path> <path d="M128.549429,317.591005 C128.549429,325.209085 134.725109,331.384765 142.34319,331.384765 C134.725109,331.384765 128.549429,337.560925 128.549429,345.179006 C128.549429,337.560925 122.373749,331.384765 114.755669,331.384765 C122.373749,331.384765 128.549429,325.209085 128.549429,317.591005" id="Fill-101" fill="#C09976"></path> <path d="M126.006917,331.007341 C126.006917,332.411341 127.145477,333.549421 128.549477,333.549421 C129.953477,333.549421 131.091557,332.411341 131.091557,331.007341 C131.091557,329.603341 129.953477,328.465261 128.549477,328.465261 C127.145477,328.465261 126.006917,329.603341 126.006917,331.007341" id="Fill-103" fill="#D8BAA1"></path> <path d="M100.299508,284.559803 C100.299508,292.178364 106.475188,298.353564 114.093269,298.353564 C106.475188,298.353564 100.299508,304.529724 100.299508,312.147804 C100.299508,304.529724 94.1238277,298.353564 86.5057474,298.353564 C94.1238277,298.353564 100.299508,292.178364 100.299508,284.559803" id="Fill-105" fill="#828A3F"></path> <path d="M97.7569959,297.97614 C97.7569959,299.38014 98.8955559,300.51822 100.299556,300.51822 C101.703556,300.51822 102.841636,299.38014 102.841636,297.97614 C102.841636,296.57214 101.703556,295.43406 100.299556,295.43406 C98.8955559,295.43406 97.7569959,296.57214 97.7569959,297.97614" id="Fill-107" fill="#ABB566"></path> <polygon id="Fill-109" fill="#A74617" points="59.9525304 398.649136 62.2536505 430.973937 73.5307709 430.973937 73.5307709 398.649136"></polygon> <polygon id="Fill-111" fill="#A74617" points="421.096289 398.649136 423.397409 430.973937 434.675009 430.973937 434.675009 398.649136"></polygon> <path d="M429.754577,366.024351 C426.728177,351.79619 427.880177,337.767709 429.678737,323.806909 L433.130417,304.947708 L500.33234,428.808353 L487.419859,428.808353 C475.460659,425.436353 464.566098,418.416353 455.070258,410.227552 C442.182258,398.716192 433.896977,383.060991 429.754577,366.024351" id="Fill-113" fill="#F9CFD7"></path> <path d="M429.678641,323.807101 C427.880081,337.767421 426.728561,351.796382 429.754481,366.024543 C433.897361,383.060703 442.182162,398.716384 455.070162,410.227264 C464.566002,418.416545 475.460563,425.436545 487.419763,428.808545 L479.677363,428.808545 C471.766003,428.808545 463.959762,426.994145 456.858642,423.504545 L415.17928,403.023424 L429.678641,323.807101 Z" id="Fill-115" fill="#F9C0C9"></path> <polygon id="Fill-117" fill="#E49293" points="407.814736 408.548896 415.179376 403.023616 433.130417 304.947612"></polygon> <path d="M66.7416987,304.947612 L9.60000038e-05,431.110817 L12.2554565,431.110817 C21.7464969,431.110817 30.7964172,427.105697 37.1808975,420.080897 L45.5684178,410.850976 L66.7416987,304.947612 Z" id="Fill-119" fill="#F9CFD7"></path> <polygon id="Fill-121" fill="#E49293" points="54.7742422 411.31144 66.7416027 304.947756 45.5683218 410.85112"></polygon> <path d="M264.060106,307.767612 C264.060106,307.767612 269.319947,276.735131 265.733387,248.37145 C265.733387,248.37145 262.386346,237.359769 270.037547,239.36185 C271.762667,239.81353 277.427627,240.25705 285.245387,240.62665 C285.310667,258.21577 286.409387,277.365851 302.739948,286.997051 C315.171949,293.903292 327.603949,300.349692 341.87819,302.652252 C353.78891,304.685532 365.332431,304.885692 376.857231,304.409532 C377.630031,307.417212 378.591951,310.136892 379.781871,312.438972 C379.781871,312.438972 382.172751,317.778013 375.478191,316.443613 C368.783631,315.108733 274.580267,314.536092 266.690027,316.657693 C258.800266,318.779293 264.060106,307.767612 264.060106,307.767612" id="Fill-123" fill="#F5BD5C"></path> <path d="M341.878238,302.652156 C327.603997,300.350076 315.171997,293.903196 302.739996,286.996955 C286.409435,277.365755 285.310715,258.215674 285.245435,240.626554 C312.099996,241.895674 364.369598,242.290234 369.739839,239.118874 C376.673439,235.023993 376.434399,239.362234 376.434399,239.362234 C376.434399,239.362234 370.794879,280.828955 376.857279,304.409916 C365.332479,304.885596 353.788478,304.685436 341.878238,302.652156" id="Fill-125" fill="#F5BD5C"></path> <path d="M154.940742,295.032636 C154.940742,295.032636 161.703942,269.185595 158.784582,245.130874 C158.784582,245.130874 157.256262,237.278073 163.505382,238.810713 C166.696903,239.593114 174.230503,240.027994 183.434023,240.163834 C179.602663,246.937594 179.892583,255.930874 183.256423,262.237594 C190.623464,276.972155 203.055464,288.943355 219.170985,294.008796 C228.882345,296.951676 238.782345,299.515836 248.749546,300.744156 C248.251306,302.078076 247.230826,302.999196 245.242186,302.585916 C239.792266,301.454076 165.986983,301.244316 159.563142,303.043836 C153.139782,304.842876 154.940742,295.032636 154.940742,295.032636" id="Fill-127" fill="#D46E72"></path> <path d="M183.256279,262.237498 C179.892439,255.930778 179.602999,246.937498 183.433879,240.164218 C205.28924,240.487258 236.565081,239.125018 241.496122,236.735097 C249.604762,232.805817 248.892922,239.753818 248.892922,239.753818 C248.892922,239.753818 243.053242,276.779099 248.892922,294.8439 C248.892922,294.8439 249.616282,298.4223 248.749402,300.74454 C238.782201,299.51574 228.882681,296.95158 219.171321,294.0087 C203.0558,288.943739 190.62332,276.972059 183.256279,262.237498" id="Fill-129" fill="#E47B7C"></path> <path d="M299.667084,260.905546 C311.932524,262.812586 333.626605,263.797546 367.386927,257.665066 C366.241167,263.767786 366.291567,281.271467 368.255247,297.151788 C341.000846,299.340108 306.139404,289.925388 299.667084,260.905546" id="Fill-131" fill="#E49293"></path> <path d="M286.856843,257.665066 C286.856843,257.665066 290.796684,259.526026 299.667084,260.905546 C306.139404,289.924908 341.000846,299.340108 368.255247,297.151788 C369.062127,303.678828 370.192047,309.931788 371.695887,315.005389 C363.840206,314.222988 308.537964,307.177548 285.375563,315.005389 C290.357964,284.867627 286.856843,257.665066 286.856843,257.665066" id="Fill-133" fill="#D47C7F"></path> <path d="M166.470103,288.668651 C151.466742,282.929771 134.777621,274.224491 127.746101,258.90913 C141.173142,260.61601 167.734903,265.227851 201.455384,258.13825 C200.373944,262.84897 199.352984,278.707691 200.269784,293.148012 C188.612503,293.304012 176.923543,292.716972 166.470103,288.668651" id="Fill-135" fill="#F7D27F"></path> <path d="M118.134965,259.84945 C118.133525,257.95105 121.536725,258.12001 127.746005,258.90961 C134.777525,274.224491 151.466646,282.929771 166.470007,288.668651 C176.923927,292.716972 188.612407,293.304012 200.269688,293.148012 C200.748248,300.690732 201.755768,307.847052 203.560088,312.824652 C195.559448,312.172812 139.235286,306.304812 115.645205,312.824652 C122.866805,290.412012 118.134965,259.84945 118.134965,259.84945" id="Fill-137" fill="#F5BD5C"></path> <path d="M231.830985,385.363119 C210.657704,380.758479 190.865384,375.693519 171.533383,366.024399 C153.121542,356.815118 137.932421,344.383118 124.123781,329.188237 C117.311621,322.374157 112.59754,313.843596 108.62938,304.947756 L433.130513,304.947756 L411.971152,391.53832 C353.54363,409.29112 292.687308,398.59768 231.830985,385.363119" id="Fill-139" fill="#F9CFD7"></path> <path d="M54.7742422,411.31144 L66.7416027,304.947756 L108.629284,304.947756 C112.597444,313.843596 117.312005,322.374157 124.123685,329.188237 C137.932325,344.383118 153.121926,356.815118 171.533287,366.024399 C190.865288,375.693519 210.657608,380.758479 231.830889,385.363119 C292.687212,398.59768 353.543534,409.29112 411.971536,391.53832 L407.814736,408.54904 L54.7742422,411.31144 Z" id="Fill-141" fill="#F9C0C9"></path> <path d="M462.22773,155.125494 C462.84885,155.620854 466.015891,156.730614 467.640211,155.042934 C470.017171,152.573814 471.277171,149.872854 471.977971,146.726934 C474.604531,134.941013 479.412691,121.612373 482.038771,109.825972 C484.389811,99.2755719 481.971091,81.9629313 476.114611,79.3973312 C470.258131,76.8317311 465.37029,88.5706115 464.60949,95.0242118 C463.79013,101.971252 462.52581,110.963572 461.63973,117.904853 C460.76133,124.787093 460.34853,129.304853 458.85621,136.108853 C457.37349,142.869654 456.36357,150.454134 462.22773,155.125494" id="Fill-143" fill="#FFA07F"></path> <path d="M476.114659,79.3972832 C470.258179,76.8316831 465.370338,88.5705635 464.609538,95.0241638 C463.790178,101.971204 462.525858,110.963524 461.639778,117.904805 C461.555778,118.565765 461.475618,119.204165 461.398338,119.825285 C461.398338,119.825285 473.602339,135.987365 473.527459,140.448486 C476.214499,130.346885 479.869699,119.561285 482.038819,109.825924 C484.389859,99.2755239 481.971139,81.9628833 476.114659,79.3972832" id="Fill-145" fill="#E69072"></path> <path d="M453.941394,88.4784995 C453.941394,88.4784995 466.814995,134.789861 469.401235,148.853382 C470.134195,152.837862 468.485395,160.856262 464.726994,162.368262 C461.604114,163.623943 457.930674,161.679462 456.110514,158.848422 C454.289874,156.017382 453.871314,152.538342 453.499314,149.193222 C451.286034,129.310661 449.072754,109.42762 446.859954,89.5450596 C446.194194,83.5685793 453.941394,88.4784995 453.941394,88.4784995" id="Fill-147" fill="#FFA07F"></path> <path d="M449.050674,78.0498751 C446.555154,75.074835 443.370834,72.2927549 442.565394,68.3937147 C441.738354,64.3905146 440.051153,59.9284344 439.380113,55.8954742 C438.956753,53.3505141 436.408433,53.1945141 436.554833,54.5524342 C437.097233,59.5852344 439.212113,66.6637946 440.382833,70.9689148 C441.335634,74.471955 442.406514,79.9141952 445.649874,81.6249152 C446.850354,82.2580353 449.936274,79.1058751 449.050674,78.0498751" id="Fill-149" fill="#E69072"></path> <path d="M454.482066,80.2436192 C454.889586,78.7008991 453.447186,74.995779 454.860786,70.2653788 C455.304306,68.7792987 455.081586,65.7020186 452.719986,66.4325786 C450.358386,67.1636187 448.395186,75.547299 447.963666,76.7655391 C447.532146,77.9837791 447.161106,83.2316193 447.609906,84.6831394 C448.059186,86.1346594 453.193266,85.1247394 454.482066,80.2436192" id="Fill-151" fill="#FFA07F"></path> <path d="M448.065618,77.7632191 C445.284498,75.029139 441.047058,72.8859389 439.856657,69.0651387 C438.634577,65.1420986 438.753137,63.1841785 437.564657,59.2505784 C437.164817,57.9262583 434.220017,56.8654583 434.617457,58.1796983 C435.914897,62.4742585 436.345457,67.6582587 437.940017,71.8500989 C439.237457,75.260499 442.022898,83.3897793 443.206578,84.1251393 C444.391218,84.8609794 449.052978,78.7337791 448.065618,77.7632191" id="Fill-153" fill="#E69072"></path> <path d="M454.75605,80.8627232 C454.75605,80.8627232 455.28453,88.2216035 454.30485,90.0792036 C453.32469,91.9377637 450.97173,93.0542437 448.64901,91.8288036 C446.32629,90.6038436 442.26021,83.7436833 441.66117,81.8068833 C441.06213,79.8700832 444.50517,76.9929631 446.62101,75.873123 C448.73685,74.753283 454.76229,73.5004829 454.75605,80.8627232" id="Fill-155" fill="#FFA07F"></path> <path d="M448.024338,82.0232193 C445.548498,79.6971392 441.902418,77.7987391 441.455058,74.392179 C441.194418,72.4035389 442.799058,67.4729787 442.268178,65.8020986 C441.905778,64.6635386 440.760978,64.1916986 440.452338,65.2966586 C439.691057,68.0220987 437.561777,73.4547389 438.929777,77.0734591 C440.042897,80.0182592 442.124658,84.3310594 445.190418,85.4811394 C446.324658,85.9068994 448.903218,82.8488193 448.024338,82.0232193" id="Fill-157" fill="#FFA07F"></path> <path d="M445.730994,77.4390751 C443.033874,74.905155 439.062353,72.8373149 438.575633,69.1273947 C438.291473,66.9611547 440.132273,61.4560344 440.127473,59.5705944 C440.123153,58.0125143 438.729713,56.8691543 438.385073,58.0691543 C437.652593,60.6203544 434.334833,68.1059547 435.824753,72.0477149 C437.037233,75.255075 439.304753,79.9528352 442.643634,81.2056352 C443.880114,81.6693152 446.688594,78.3385951 445.730994,77.4390751" id="Fill-159" fill="#FFA07F"></path> <path d="M443.891154,75.831651 C443.891154,75.831651 446.862354,79.3423712 448.761234,82.8113313 L445.738674,76.312611 L443.891154,75.831651 Z" id="Fill-161" fill="#FFA07F"></path> <path d="M488.033107,9.02539236 C490.070707,6.77995227 491.766068,4.10683216 494.533748,3.22411213 C497.301908,2.34187209 500.246228,2.4421921 503.114228,2.75035211 C508.386548,3.31627213 513.771668,4.64395218 518.047029,8.09083232 C524.506389,13.2993125 527.379669,22.6170729 527.299989,31.4375532 C527.150709,48.0109939 536.873109,82.4965953 530.620149,85.8061954 C524.366709,89.1157955 487.401907,87.0277955 480.973267,82.3305153 C472.080307,75.831795 485.353747,35.8948334 483.774547,24.263953 C483.774547,24.263953 484.819507,12.5673125 488.033107,9.02539236" id="Fill-163" fill="#A3262A"></path> <path d="M490.266931,43.8134417 C490.266931,43.8134417 487.634131,42.1324817 487.115251,41.0443216 C486.791251,40.3651216 485.389171,36.6288015 485.389171,34.2182414 C485.389171,31.8081613 489.021331,33.1056013 490.266931,34.2182414 L490.266931,43.8134417 Z" id="Fill-165" fill="#F29879"></path> <path d="M488.278243,39.8688016 C488.297443,39.8688016 488.317123,39.8635216 488.334403,39.8524816 C488.381443,39.8227216 488.393923,39.7617616 488.362723,39.7171216 C487.420963,38.3635215 486.886243,36.7224015 486.856963,35.0956814 C486.852163,34.8364814 486.869443,34.5724814 487.026403,34.3963214 C487.230883,34.1668814 487.613923,34.1654414 487.886083,34.2830414 C488.194723,34.4160014 488.437123,34.6814414 488.650723,34.9156814 C488.687683,34.9560014 488.752003,34.9603214 488.794243,34.9248014 C488.836483,34.8892814 488.840803,34.8278414 488.803843,34.7870414 C488.576323,34.5379214 488.318083,34.2556814 487.969603,34.1049614 C487.628323,33.9580813 487.141603,33.9667213 486.871843,34.2696014 C486.670723,34.4952014 486.648163,34.8014414 486.653443,35.0990414 C486.683683,36.7627215 487.230403,38.4412815 488.193283,39.8256016 C488.212963,39.8534416 488.245603,39.8688016 488.278243,39.8688016" id="Fill-167" fill="#BD6142"></path> <polygon id="Fill-169" fill="#FFA07F" points="495.37202 85.6737634 513.6701 85.6737634 513.6701 51.9182421 495.37202 51.9182421"></polygon> <path d="M513.670004,51.7200501 L495.371924,51.7200501 L495.371924,63.9682105 C497.763764,67.2658107 500.998484,69.4430908 504.578804,69.4574908 C508.127924,69.4334908 511.311764,67.2931707 513.670004,64.0445305 L513.670004,51.7200501 Z" id="Fill-171" fill="#FA704E"></path> <path d="M489.193987,16.0615686 C488.194147,18.1039687 487.632067,20.2615688 487.809187,22.5809289 C488.136547,26.8721291 488.792227,33.5033293 488.792227,35.4554894 C488.792227,37.4071695 488.301187,41.4166096 487.266307,46.0001298 C486.992227,47.2169299 486.470467,48.4178899 486.655747,49.65533 C486.801667,50.62685 487.294147,51.48365 487.775587,52.3087701 C487.967587,52.6375701 488.159587,52.9668501 488.351587,53.2956501 C489.975427,55.6999702 491.624708,58.1388503 493.763588,59.9748504 C495.891908,61.8017305 498.602468,62.9892505 501.255908,62.5346905 C503.695268,62.1166105 514.923428,55.1057302 516.520389,49.52717 C518.212389,43.6178897 518.417829,39.7879696 518.417829,34.5761294 C518.417829,29.3638092 518.209989,17.9100487 515.608868,15.0060486 C513.007748,12.1015685 492.133028,10.0562884 489.193987,16.0615686" id="Fill-172" fill="#FFA07F"></path> <path d="M517.262949,44.8020018 C517.262949,44.8020018 520.816389,42.5335217 521.516709,41.0647216 C521.953509,40.1479216 523.845669,35.1050414 523.845669,31.8520813 C523.845669,28.5991211 518.943909,30.3506412 517.262949,31.8520813 L517.262949,44.8020018 Z" id="Fill-173" fill="#FFA07F"></path> <path d="M519.947013,39.4781776 C519.920613,39.4781776 519.894213,39.4709776 519.871173,39.4560976 C519.807813,39.4157776 519.791013,39.3341776 519.832773,39.2736976 C521.103813,37.4468175 521.825253,35.2316174 521.865093,33.0365773 C521.871333,32.6866573 521.848293,32.3300173 521.636613,32.0924173 C521.360133,31.7828173 520.843173,31.7808973 520.475973,31.9392973 C520.059333,32.1188173 519.732933,32.4768973 519.443973,32.7932173 C519.394053,32.8479373 519.307173,32.8532173 519.250533,32.8052173 C519.193413,32.7576973 519.187653,32.6746573 519.237573,32.6194573 C519.544773,32.2834573 519.892773,31.9023373 520.363173,31.6992973 C520.823973,31.5005773 521.481093,31.5130573 521.844933,31.9215373 C522.116133,32.2258573 522.146853,32.6391373 522.139173,33.0408973 C522.098853,35.2858574 521.360613,37.5514575 520.060773,39.4196176 C520.034853,39.4575376 519.991173,39.4781776 519.947013,39.4781776" id="Fill-174" fill="#BD6142"></path> <path d="M507.287012,32.8077613 C505.389572,31.2045612 503.008292,30.9002412 500.586692,30.8076012 C500.190692,30.7946412 500.295332,29.9176812 500.682212,29.5413612 C501.068612,29.1660012 501.633092,28.8698411 501.931172,28.9063211 C503.837252,29.1170412 505.583012,29.9532012 507.010532,31.3351212 C507.232772,31.5530413 507.503012,32.0968813 507.623492,32.5245613 C507.743972,32.9527213 507.598532,33.0684013 507.287012,32.8077613" id="Fill-175" fill="#1A1A1A"></path> <path d="M488.519203,30.5851692 C488.695843,30.1901292 489.710083,29.3208492 490.621123,29.2445292 C490.789604,29.2277292 491.106404,29.5253292 491.322404,29.8858092 C491.538404,30.2462892 491.591204,31.0459692 491.367044,31.0368492 C490.424323,31.0066092 489.491683,31.0685292 488.648803,31.5504493 C488.267203,31.3608492 488.342563,30.9802092 488.519203,30.5851692" id="Fill-176" fill="#1A1A1A"></path> <path d="M490.411315,39.1540336 L490.411315,39.1540336 C490.036435,39.1540336 489.729235,38.8473135 489.729235,38.4719535 L489.729235,35.7354734 C489.729235,35.3605934 490.036435,35.0538734 490.411315,35.0538734 C490.786676,35.0538734 491.093396,35.3605934 491.093396,35.7354734 L491.093396,38.4719535 C491.093396,38.8473135 490.786676,39.1540336 490.411315,39.1540336" id="Fill-177" fill="#1A1A1A"></path> <path d="M502.541156,39.3327856 L502.541156,39.3327856 C501.914756,39.3327856 501.402116,38.8201455 501.402116,38.1937455 L501.402116,35.9814254 C501.402116,35.3550254 501.914756,34.8423854 502.541156,34.8423854 C503.167556,34.8423854 503.680676,35.3550254 503.680676,35.9814254 L503.680676,38.1937455 C503.680676,38.8201455 503.167556,39.3327856 502.541156,39.3327856" id="Fill-178" fill="#1A1A1A"></path> <path d="M496.79426,46.1519058 C495.83426,46.5541458 493.93922,47.3490259 493.93922,47.3490259 C493.81298,47.4018259 493.68098,47.4272659 493.54994,47.4272659 C493.22306,47.4272659 492.90434,47.2683859 492.71138,46.9861459 L491.39954,45.0647058 C491.10386,44.6317458 491.18114,44.0514258 491.57954,43.7154257 C492.10898,43.2685457 493.11986,42.2235857 493.9421,40.2435856 C495.33362,36.8917455 493.4141,33.5087053 493.39442,33.4751053 C493.2989,33.3095053 493.35506,33.0983053 493.52018,33.0023053 C493.68482,32.9067853 493.89602,32.9624653 493.9925,33.1275853 C494.03954,33.2091853 495.32402,34.3688654 495.6869,35.9283854 C495.90386,36.8567055 495.16898,40.6669456 494.00738,43.5843857 C493.51106,44.8299858 494.8157,45.7626258 495.25154,45.7626258 C495.6869,45.7626258 496.79426,46.1519058 496.79426,46.1519058" id="Fill-179" fill="#DB7D63"></path> <path d="M493.550036,47.4271219 C493.680596,47.4271219 493.813076,47.4016819 493.939316,47.3488819 L497.337716,45.9242418 C497.513396,45.8503218 497.596436,45.6477618 497.522516,45.4716018 C497.449076,45.2954418 497.246516,45.2124018 497.069876,45.2863218 L493.671476,46.7114419 C493.531316,46.7700019 493.368116,46.7215219 493.282196,46.5962419 L491.970356,44.6748018 C491.875316,44.5356018 491.899316,44.3503218 492.025076,44.2437618 C492.602516,43.7565617 493.702196,42.6237617 494.580596,40.5084016 C496.105556,36.8344815 494.079476,33.2772013 493.992116,33.1274413 C493.896116,32.9623213 493.684916,32.9066413 493.520276,33.0021613 C493.355156,33.0981613 493.298996,33.3098413 493.394516,33.4749613 C493.413716,33.5085613 495.333236,36.8916015 493.941716,40.2434416 C493.119956,42.2234417 492.109076,43.2684017 491.579636,43.7152817 C491.180756,44.0512818 491.103956,44.6316018 491.399636,45.0645618 L492.710996,46.9860019 C492.903956,47.2682419 493.222676,47.4271219 493.550036,47.4271219" id="Fill-180" fill="#BD6142"></path> <path d="M506.393588,42.3936017 C506.393588,42.9067217 504.915188,43.3228817 503.091668,43.3228817 C501.267668,43.3228817 499.789268,42.9067217 499.789268,42.3936017 C499.789268,41.8804817 501.267668,41.4643216 503.091668,41.4643216 C504.915188,41.4643216 506.393588,41.8804817 506.393588,42.3936017" id="Fill-181" fill="#ED766D"></path> <path d="M491.50514,42.4743377 C491.50514,42.9432977 490.80914,43.3229777 489.950899,43.3229777 C489.092179,43.3229777 488.396179,42.9432977 488.396179,42.4743377 C488.396179,42.0053777 489.092179,41.6256977 489.950899,41.6256977 C490.80914,41.6256977 491.50514,42.0053777 491.50514,42.4743377" id="Fill-182" fill="#ED766D"></path> <path d="M491.406212,51.023138 C496.105412,53.2628181 501.496772,51.7906581 504.351812,47.4341779 C504.607652,47.0439379 503.981252,46.6810579 503.726852,47.0693779 C501.101732,51.075458 496.101092,52.4621781 491.771492,50.398178 C491.353412,50.198978 490.985732,50.822498 491.406212,51.023138" id="Fill-183" fill="#C24848"></path> <path d="M474.604339,21.8983209 C475.364659,27.7197611 478.404019,33.1178413 482.680819,36.5906415 C481.476019,33.5229613 482.065939,29.6632812 483.944179,26.9892011 C486.083059,23.944561 489.600019,22.3610409 493.06274,22.2117609 C495.83858,22.0917609 498.62882,22.8031209 501.38258,22.3941609 C503.83634,22.0298409 508.16978,18.3948007 509.24882,15.4207206 C508.67426,15.3794406 508.09106,15.1264806 507.63746,14.7309606 C506.71778,13.9279206 506.19314,12.7034405 505.65266,11.5476005 C504.14402,8.32344033 502.2269,5.25048021 499.59602,3.10488012 C494.67602,-0.906960036 487.551379,-0.987600039 482.380819,2.6100001 C477.210259,6.20808025 474.160339,13.1431205 474.436339,19.9384808 C474.463219,20.5956008 474.519859,21.2493608 474.604339,21.8983209" id="Fill-184" fill="#A3262A"></path> <path d="M482.665459,25.555393 C482.028979,27.5449931 481.787059,29.9737932 482.087059,32.2873933 C482.236339,30.3808332 482.885299,28.4963531 483.944659,26.9891531 C486.083059,23.944993 489.600019,22.3609929 493.06274,22.2117129 C495.83858,22.0917129 498.62882,22.8030729 501.38258,22.3941129 C502.21874,22.2702729 503.2733,21.7657929 504.34274,21.0376328 C503.83058,20.9747528 503.32322,20.8691528 502.82882,20.7309128 C495.91586,18.8013127 485.545939,16.5501127 482.665459,25.555393" id="Fill-185" fill="#7A1C20"></path> <path d="M522.440277,56.2666102 C522.438837,55.3051702 522.370197,54.3446902 522.238197,53.4043701 C521.585877,48.7565299 519.584757,44.4898098 517.430997,40.4458096 C514.341716,34.6445294 510.873716,29.0942892 507.063476,23.8546089 C505.797716,22.1141289 504.467636,20.3549288 503.817236,18.2333287 C503.167316,16.1117286 503.355956,13.5014885 504.830036,11.9779685 C505.793396,10.9814884 507.762356,10.7779684 509.208116,11.3429285 C515.857076,19.0762088 520.605717,28.8269291 522.803637,39.2626096 C523.958517,44.7494898 524.414037,50.51861 523.303797,56.0165302 C522.992277,57.5578103 522.547797,59.0765303 521.973717,60.5299704 C522.291477,59.1490104 522.441717,57.7066103 522.440277,56.2666102" id="Fill-186" fill="#A3262A"></path> <path d="M520.090005,37.9732815 C520.090005,37.9732815 522.139605,20.4432008 521.396085,14.7998406 C520.652565,9.15600036 510.384404,0.856320034 500.396084,0.856320034 C490.407763,0.856320034 484.701043,7.23024029 485.204083,20.2776008 C485.204083,20.2776008 502.886324,5.17200021 510.324884,15.9614406 C517.763445,26.7513611 520.090005,37.9732815 520.090005,37.9732815" id="Fill-187" fill="#A3262A"></path> <path d="M512.5253,10.1887204 C512.45522,10.9706404 512.13602,11.5994405 511.6949,12.0640805 C511.62674,12.0036005 511.5581,11.9421605 511.48994,11.8812005 C510.31202,10.4052004 508.97378,9.08232036 507.63314,7.78248031 C509.26514,7.10712028 510.54434,5.68920023 510.78674,3.54792014 C511.03298,3.67320015 511.27538,3.80280015 511.51634,3.93432016 C511.36706,6.05400024 512.71874,8.02536032 512.5253,10.1887204" id="Fill-188" fill="#B55155"></path> <path d="M476.558083,9.66768038 C480.208483,10.3761604 483.808963,12.6552005 487.409443,13.8460806 C490.248643,14.5776006 492.214244,10.6766404 493.524644,7.99392032 C495.053444,4.58064018 499.639844,5.79984023 502.260644,7.5067203 C503.189444,7.99488032 504.227684,8.23488033 505.251524,8.23728033 C506.771684,9.9763204 508.516964,11.4192005 510.220484,12.9201605 C509.551844,13.0824005 508.870244,12.9955205 508.375364,12.6273605 C504.881444,10.1884804 500.950244,8.23776033 497.019044,8.96928036 C495.053444,9.45744038 494.179844,11.8953605 492.869444,14.0899206 C491.777444,16.0406406 489.375043,16.2844806 487.191043,16.0406406 C483.213763,15.3576006 479.985763,11.6860805 476.382403,10.0492804 C476.440483,9.92160039 476.497603,9.79392039 476.558083,9.66768038" id="Fill-189" fill="#B55155"></path> <path d="M482.566291,78.4313311 C482.566291,82.1508513 490.617811,109.392772 499.263572,109.392772 C507.908852,109.392772 529.235733,82.3092513 529.235733,78.5897311 C529.235733,74.870211 520.592373,72.0785309 506.394452,72.0785309 C491.468852,72.0785309 482.566291,74.711811 482.566291,78.4313311" id="Fill-190" fill="#FFA07F"></path> <path d="M483.780355,165.229639 C486.046435,148.903878 486.709795,132.356357 485.757955,115.901477 L533.655717,99.636196 C532.703397,116.091077 528.339717,148.903878 530.605797,165.229639 C530.605797,165.229639 524.078277,169.181479 507.192836,169.181479 C490.307875,169.181479 483.780355,165.229639 483.780355,165.229639" id="Fill-191" fill="#E6E6E6"></path> <path d="M526.529685,123.387365 C519.694485,127.770725 499.077524,128.476805 486.114163,123.382565 C486.047923,120.397925 485.929843,118.882085 485.758003,115.901285 L533.655765,99.636004 C532.703445,116.090885 528.339765,148.903686 530.605845,165.229447 C530.605845,165.229447 529.565685,165.858247 527.245365,166.614247 C526.427925,164.246407 525.577845,161.899206 525.271605,159.453606 C523.594485,147.291846 525.900405,135.339365 526.529685,123.387365" id="Fill-192" fill="#CCCCCC"></path> <path d="M515.317172,125.017925 C524.483733,124.398725 535.120053,103.273444 535.477653,96.7228838 C535.799253,90.8380836 535.976373,84.8222434 537.756213,79.2364831 C536.596533,78.0153631 534.844533,76.613763 533.628213,76.301283 C532.155573,75.922563 521.521173,73.2744029 521.521173,73.2744029 C521.521173,73.2744029 507.701972,103.213444 499.263572,103.213444 C490.825172,103.213444 490.667251,73.0963229 490.667251,73.0963229 L479.279731,76.167843 C476.918611,76.8422431 476.445331,78.0153631 475.285651,79.2364831 C477.065491,84.8222434 479.942611,88.1385635 480.263731,94.0228837 C480.621331,100.573924 477.097651,110.038084 480.263731,115.784645 C483.429811,121.530725 488.266771,124.576805 497.724692,125.017925 C503.460692,125.285765 506.399732,125.620325 515.317172,125.017925" id="Fill-193" fill="#E6E6E6"></path> <path d="M483.544099,154.175574 C499.21322,155.408694 514.95434,155.408694 530.623461,154.175574 C530.478981,152.344374 530.334981,148.917174 530.190501,147.085494 C514.80986,148.296054 499.35722,148.296054 483.976579,147.085494 C483.832579,148.917174 483.688099,152.344374 483.544099,154.175574" id="Fill-194" fill="#AD4537"></path> <path d="M584.624183,148.87239 C584.361143,149.67207 582.231863,152.31495 579.876503,151.38663 C576.431543,150.02775 573.826583,147.89895 571.458263,145.05159 C562.585462,134.382629 550.954582,123.199109 542.081782,112.530148 C534.139221,102.980068 526.557141,84.2955873 530.208981,78.8883871 C533.860341,73.4811869 544.670902,83.0168673 548.940982,89.1834275 C553.538422,95.8218278 559.665622,104.316868 564.317302,110.917348 C568.929623,117.462149 571.814423,121.835909 576.915863,128.006789 C581.985143,134.137829 587.104343,141.32967 584.624183,148.87239" id="Fill-195" fill="#FFA07F"></path> <path d="M504.529844,390.719968 C504.158804,389.363007 501.094004,386.310207 500.537684,381.894687 C500.220884,379.378527 501.903764,368.407167 501.323444,367.064607 C500.356244,364.826846 498.524084,364.906047 495.768404,364.088126 C494.623604,366.734847 492.490964,377.037567 491.701364,379.818207 C492.074804,399.655648 504.841364,391.860448 504.529844,390.719968" id="Fill-196" fill="#D6866B"></path> <path d="M506.813588,394.335424 C506.580788,394.002784 506.349428,393.652384 506.121428,393.290944 C505.405268,392.110624 504.470228,390.384544 504.008468,389.521983 C501.962708,385.477983 500.476628,381.461343 500.476628,381.461343 C500.681108,382.044063 500.401268,383.744223 502.826708,389.966463 C503.465108,391.604224 495.165908,393.005824 494.378228,387.120543 C493.990868,384.222783 493.287188,373.234143 493.287188,373.234143 C492.117908,373.237983 490.106227,388.148223 490.106227,388.148223 C490.106227,388.148223 489.534547,398.007424 492.488948,398.010304 C495.442868,398.013184 505.873268,398.022304 505.873268,398.022304 C507.351188,396.141664 507.578228,395.270464 506.813588,394.335424" id="Fill-197" fill="#78413E"></path> <path d="M489.900115,421.240529 C490.406035,419.391089 494.582516,415.230928 495.339956,409.214128 C495.771956,405.785008 493.478996,390.834448 494.270036,389.004687 C495.587636,385.955247 498.084116,386.063247 501.839636,384.948207 C503.399636,388.555407 506.305556,402.595408 507.381716,406.384528 C506.872436,433.417649 489.475315,422.794769 489.900115,421.240529" id="Fill-198" fill="#FFA07F"></path> <path d="M486.787891,426.167585 C487.105651,425.713985 487.420051,425.236865 487.731571,424.744385 C488.706931,423.135905 489.981331,420.783425 490.610131,419.607905 C493.398452,414.097504 495.423572,408.624064 495.423572,408.624064 C495.145172,409.417504 495.526292,411.734464 492.221012,420.213665 C491.351252,422.445185 502.660532,424.356065 503.733812,416.335265 C504.262292,412.386304 505.220852,397.411744 505.220852,397.411744 C506.814452,397.417504 509.555252,417.736385 509.555252,417.736385 C509.555252,417.736385 510.334292,431.171585 506.308532,431.175425 C502.283252,431.178785 488.069011,431.191745 488.069011,431.191745 C486.055411,428.628545 485.745811,427.441985 486.787891,426.167585" id="Fill-199" fill="#9A5350"></path> <path d="M503.697332,286.346939 C507.326612,256.088698 505.243412,224.963577 505.570772,198.199736 C505.570772,198.199736 515.503892,183.084055 529.703733,185.081815 C543.903094,187.079575 539.984853,190.595576 539.361813,199.133816 C538.867413,205.907096 526.770453,267.164699 521.829813,287.500859 C518.926773,326.677021 513.313172,334.083901 501.439412,375.271743 L489.219091,373.552383 C494.801972,348.757982 500.256212,315.038941 503.697332,286.346939" id="Fill-200" fill="#456A97"></path> <path d="M489.219043,373.552239 L501.439364,375.272079 C505.936004,359.673998 509.533604,348.922478 512.428004,339.453997 C509.230724,325.959757 505.645604,312.850476 502.015844,299.572236 C498.613604,324.969997 493.963364,352.482638 489.219043,373.552239" id="Fill-201" fill="#345071"></path> <path d="M537.704181,182.653783 C534.592821,174.380983 530.683221,166.386583 526.043061,158.805942 L506.40434,158.805942 L486.765139,158.805942 C482.124979,166.386583 478.215859,174.380983 475.104019,182.653783 C473.795059,186.133303 472.612339,189.764504 472.841779,193.458104 C473.141299,198.286904 475.864339,202.738904 479.404339,206.172824 C482.944819,209.606744 496.5029,214.687545 506.40434,214.687545 C516.305781,214.687545 529.863861,209.606744 533.403861,206.172824 C536.944341,202.738904 540.024981,196.864664 540.324501,192.035864 C540.553941,188.342263 539.013621,186.133303 537.704181,182.653783" id="Fill-202" fill="#456A97"></path> <path d="M499.852148,299.009292 C499.253108,265.795211 504.425108,232.300329 506.763668,203.254088 C506.763668,203.254088 498.383828,185.724487 484.053907,186.251527 C469.723987,186.779047 473.273587,191.041448 473.043667,200.367848 C472.861267,207.766568 478.800307,275.556491 481.692307,298.167852 C480.681907,340.964654 485.530387,349.639694 493.245908,395.651536 L505.578548,395.198416 C502.490708,367.680495 500.420468,330.504973 499.852148,299.009292" id="Fill-203" fill="#456A97"></path> <path d="M507.37562,182.879239 L507.37562,190.14452 L507.37562,201.7322 L507.37562,204.40244 C507.37562,204.71204 507.85658,204.71252 507.85658,204.40244 L507.85658,197.13764 L507.85658,185.549959 L507.85658,182.879239 C507.85658,182.569639 507.37562,182.569159 507.37562,182.879239" id="Fill-204" fill="#1A1A1A"></path> <path d="M505.717652,203.19044 C503.831732,201.60308 501.786452,200.21684 499.609172,199.06052 C499.336532,198.91508 499.093172,199.33028 499.366772,199.47572 C501.507092,200.61284 503.523572,201.9698 505.377812,203.53028 C505.613012,203.72852 505.954772,203.39012 505.717652,203.19044" id="Fill-205" fill="#1A1A1A"></path> <path d="M509.867012,203.593352 C512.562692,202.665992 515.246372,201.691112 517.893573,200.632712 C518.809893,200.265992 519.722373,199.888712 520.617573,199.474472 C520.898373,199.344872 520.654533,198.930152 520.375653,199.059272 C517.233573,200.512712 513.936452,201.657032 510.672932,202.803752 C510.361892,202.913192 510.050852,203.022632 509.738852,203.129672 C509.447972,203.229512 509.573252,203.694152 509.867012,203.593352" id="Fill-206" fill="#1A1A1A"></path> <path d="M508.6853,205.04156 C510.81842,205.33004 512.9525,205.61804 515.08562,205.90652 C515.3885,205.94732 515.51954,205.48364 515.21378,205.44236 C513.08018,205.15436 510.94658,204.86588 508.81298,204.57788 C508.51058,204.53708 508.37906,205.00028 508.6853,205.04156" id="Fill-207" fill="#1A1A1A"></path> <path d="M531.417813,186.584263 C527.804373,188.530663 524.590773,183.748423 522.935733,180.379303 C521.272533,176.994343 520.371093,173.136583 520.270293,169.181863 C520.258293,168.705223 519.659253,168.703303 519.671253,169.181863 C519.790293,173.845543 520.991733,178.412743 523.196373,182.208583 C525.108693,185.501383 528.210453,189.115304 531.719733,187.225063 C532.072053,187.034983 531.767733,186.395623 531.417813,186.584263" id="Fill-208" fill="#CCCCCC"></path> <path d="M528.496053,184.503943 C528.489333,183.482983 528.482613,182.461543 528.475893,181.440583 C528.472533,180.962983 527.873493,180.962023 527.876853,181.440583 C527.884053,182.461543 527.890293,183.482983 527.897493,184.503943 C527.900373,184.981063 528.499413,184.982503 528.496053,184.503943" id="Fill-209" fill="#CCCCCC"></path> <path d="M479.913667,187.225063 C484.261987,189.115304 488.104867,185.501383 490.474147,182.208583 C493.206308,178.412743 494.694308,173.846023 494.842148,169.181863 C494.857028,168.704263 494.114948,168.704263 494.100068,169.181863 C493.974788,173.137063 492.858308,176.994343 490.797668,180.379303 C488.746627,183.748423 484.765987,188.530663 480.288067,186.584263 C479.854627,186.395623 479.476387,187.034983 479.913667,187.225063" id="Fill-210" fill="#CCCCCC"></path> <path d="M529.393749,163.838407 C513.978548,165.285607 498.491348,165.285607 483.075667,163.838407 C483.217267,161.688966 484.130227,157.668006 484.272307,155.518566 C499.404308,156.938886 511.926548,156.570246 527.955189,155.611206 C528.097269,157.760646 529.252149,161.688966 529.393749,163.838407" id="Fill-211" fill="#AD4537"></path> <path d="M534.777333,192.301832 C534.777333,192.301832 535.178613,196.277672 539.942613,196.907912 C539.942613,196.907912 582.552695,155.07015 585.681335,150.42135 C588.809015,145.77207 585.782615,134.210789 580.907255,135.794789 C576.031895,137.378789 571.606775,143.05671 566.196214,148.76103 C560.786134,154.46583 534.777333,192.301832 534.777333,192.301832" id="Fill-212" fill="#FFA07F"></path> <path d="M542.886694,183.364663 C542.886694,183.364663 538.103013,182.138263 535.684773,181.919383 C534.971973,181.934263 534.243333,182.029303 534.243333,182.029303 L536.503173,185.178103 C540.150693,184.838743 544.414534,184.222903 542.886694,183.364663" id="Fill-213" fill="#FFA07F"></path> <path d="M531.049365,187.357495 C532.462005,185.405335 535.211445,183.047095 538.311285,182.479255 C540.158805,182.140855 542.740726,181.503415 544.363126,182.677495 C547.267606,184.779415 547.889686,187.539895 547.722166,189.931736 C547.518166,192.843416 544.830166,196.853816 543.673846,198.451256 C541.567606,201.361496 538.402005,198.244856 534.845205,195.670616 C531.288885,193.096856 528.943125,190.267256 531.049365,187.357495" id="Fill-214" fill="#FFA07F"></path> <path d="M530.398725,188.638087 C530.398725,188.638087 527.417925,195.482408 527.585925,196.980488 C527.704005,198.032648 529.268325,198.709928 530.166885,198.323048 C530.802885,198.048968 533.893605,193.300808 533.828805,192.720488 C533.764005,192.140648 531.357285,187.437607 530.398725,188.638087" id="Fill-215" fill="#FFA07F"></path> <path d="M534.295461,191.74148 C534.295461,191.74148 530.636901,196.9514 530.512101,198.45332 C530.424261,199.50884 531.827781,200.47556 532.784901,200.26964 C533.461701,200.1242 537.412581,196.06292 537.461061,195.48164 C537.509061,194.89988 535.467621,190.74884 534.295461,191.74148" id="Fill-216" fill="#FFA07F"></path> <path d="M537.426693,193.699208 C537.426693,193.699208 533.338053,198.565928 533.213733,200.067848 C533.125413,201.122888 534.842853,201.696968 535.799493,201.491048 C536.476773,201.345608 540.467493,197.638088 540.515973,197.056328 C540.563973,196.474568 538.599333,192.706568 537.426693,193.699208" id="Fill-217" fill="#FFA07F"></path> <path d="M540.832629,195.342152 C540.832629,195.342152 537.338229,198.988232 537.212949,200.490152 C537.125109,201.545672 537.408309,202.166792 538.364469,201.961352 C539.041749,201.815432 543.62527,199.032872 543.67375,198.451592 C543.72223,197.869832 542.00479,194.349512 540.832629,195.342152" id="Fill-218" fill="#FFA07F"></path> <path d="M530.565621,197.81012 C531.313941,196.47572 532.061781,195.14084 532.809621,193.80644 C532.879221,193.68212 533.085141,193.769 533.015061,193.89428 C532.266741,195.22916 531.518901,196.56356 530.771061,197.89796 C530.700981,198.02228 530.495541,197.9354 530.565621,197.81012" id="Fill-219" fill="#C2826B"></path> <path d="M533.164821,199.885544 C534.011541,198.410984 534.857301,196.935944 535.704021,195.461864 C535.774581,195.338504 535.980501,195.425384 535.909461,195.549704 C535.062741,197.024264 534.216501,198.498824 533.370261,199.973384 C533.299221,200.096744 533.093781,200.009864 533.164821,199.885544" id="Fill-220" fill="#C2826B"></path> <path d="M537.182469,200.335304 C538.296069,199.302824 539.351589,198.208904 540.344709,197.059304 C540.437829,196.950824 540.613029,197.089544 540.518949,197.198504 C539.512389,198.363464 538.442469,199.469864 537.313029,200.515784 C537.208389,200.613224 537.077829,200.432264 537.182469,200.335304" id="Fill-221" fill="#C2826B"></path> <polygon id="Fill-222" fill="#606060" points="454.304658 90.0793956 446.819058 92.3430757 447.548178 95.7289958 455.321778 93.4825957"></polygon> <path d="M456.259362,90.9317316 C456.810882,93.1560517 456.088962,95.2493318 454.646562,95.6069318 C453.203682,95.9650118 451.587042,94.4520518 451.035042,92.2277317 C450.483522,90.0034116 451.205442,87.9106115 452.648322,87.5525315 C454.090722,87.1944515 455.707362,88.7074115 456.259362,90.9317316" id="Fill-223" fill="#727272"></path> </g> </g> </g> </g> </g> </svg> 