<?xml version="1.0" encoding="UTF-8"?> <svg xmlns="http://www.w3.org/2000/svg" xmlns:xlink="http://www.w3.org/1999/xlink" width="260px" height="421px" viewBox="0 0 260 421"> <!-- Generator: Sketch 57.1 (83088) - https://sketch.com --> <title>Group 12</title> <desc>Created with Sketch.</desc> <defs> <polygon id="path-1" points="0.0690988506 0.238732258 37.6292598 0.238732258 37.6292598 27 0.0690988506 27"></polygon> <polygon id="path-3" points="0.310157143 0.238732258 26.6364429 0.238732258 26.6364429 27 0.310157143 27"></polygon> <polygon id="path-5" points="0.553322003 0.0465080002 34.3239822 0.0465080002 34.3239822 4.62000002 0.553322003 4.62000002"></polygon> </defs> <g id="Page-1" stroke="none" stroke-width="1" fill="none" fill-rule="evenodd"> <g id="mark" transform="translate(-701.000000, -1375.000000)"> <g id="Group-11-Copy-2" transform="translate(197.000000, 1375.000000)"> <g id="Group-12" transform="translate(504.000000, 0.000000)"> <g id="Group-25" transform="translate(184.500000, 314.000000) scale(-1, 1) translate(-184.500000, -314.000000) translate(109.000000, 213.000000)"> <path d="M53.2161909,145 C55.3132699,138.853627 67.0620652,143.522314 71.8449076,130.680056 C72.8257571,128.045959 62.6325209,123.490305 62.8369009,120.361906 C62.932977,118.896393 73.5956759,118.99421 73.6458975,117.466964 C74.2341452,99.5486665 65.4837972,87.2593994 68.9276882,76.6956206 C70.1325697,72.9985806 62.2901407,72.8459864 63.1967496,69.9623473 C63.5068133,68.9737456 71.3645271,70.9744251 72.063699,70.1827611 C76.1491163,65.5614611 84.9453188,56.8157704 86.4855932,51.5627912 C87.6136138,47.7157655 86.915752,41.554177 86.069409,35.73473 C85.8855543,34.4674591 77.8701884,34.7543883 77.6893907,33.5475465 C77.0889151,29.5405359 85.7589086,32.3520079 86.0178773,30.3082891 C86.7332075,24.6731723 94.880023,3.75211672 85.5741805,0.185499092 C78.6252591,-2.47816086 60.6673282,24.3097286 58.4663124,31.4455723 C58.2134576,32.2654944 64.9636762,39.4935033 64.092004,40.1303993 C63.3264523,40.6894766 54.5564523,34.3839888 53.6738625,34.998713 C46.8428526,39.7569565 37.164497,46.0885288 35.0451458,52.4470551 C32.337547,60.5675878 38.1143401,75.9574298 37.2269464,81.0704223 C35.8425773,89.0453167 24.3073329,103.728704 22.1809944,118.649026 C22.0504183,119.56546 33.2336748,117.388711 33.1786494,118.306015 C33.0825734,119.906732 21.8303167,124.600199 22.0019435,126.189613 C22.1277158,127.344286 42.5709604,117.790411 42.8596254,118.931607 C43.2426196,120.445377 23.5365406,132.647261 24.2457569,134.124946 C29.6513469,145.391267 39.5301523,141.246878 44.1802349,141.069939 C48.8294441,140.892564 53.2161909,145 53.2161909,145" id="Fill-1" fill="#97C4DE"></path> <path d="M55.222342,125.405931 C54.609147,125.251415 53.9955241,125.120033 53.3801896,125 C52.5115323,145.89189 53.2111651,164.854956 54.6703381,176.962597 C54.8586185,178.526958 57.1770347,178.234513 56.9891822,176.671899 C55.3870873,163.353886 54.6168494,145.038127 55.222342,125.405931" id="Fill-3" fill="#97C4DE"></path> <path d="M79.8617647,22.1089575 C79.4647047,21.7660418 79.23345,22.2303977 78.112519,23.5326037 C61.8160414,44.1232721 54.9028338,85.8292481 53,122.630001 C53.6147885,122.738772 54.2269591,122.862397 54.8373843,123 C56.3322498,86.5260003 62.7083356,46.4437412 77.4300994,25.7521638 C78.5322682,24.2708554 79.0785529,23.6448704 79.8944894,22.6799012 C80.0594221,22.4846358 80.0175344,22.2435028 79.8617647,22.1089575" id="Fill-5" fill="#F7F6F1"></path> <path d="M64.9320354,155 C69.225777,149.647799 78.4801129,157.757696 88.6145189,147.401868 C89.3379663,146.662943 77.7088451,140.136208 78.2949736,139.258028 C79.2211091,137.870259 92.2672923,142.034001 92.9104541,140.359017 C97.1879632,129.232932 96.0424682,112.583188 100.19933,101.233859 C100.570047,100.221645 92.7731351,94.9264516 93.2359835,94.0064945 C93.8071955,92.870256 102.652207,96.1445027 103.340118,95.1684081 C109.343547,86.6503188 119.397229,83.7651174 126.51983,78.8298129 C127.679802,78.0260472 117.666483,66.4195304 118.640877,65.473898 C119.313433,64.8207023 131.030298,74.8740843 131.590104,74.1268911 C136.518233,67.5501116 136.710392,57.9645413 137.782621,51.2881069 C138.051555,49.6126883 131.685744,47.0573486 132.154735,45.8414733 C132.521943,44.8871375 139.668673,45.166519 140.256556,44.5986174 C144.579692,40.4235612 155.305491,29.3179293 149.127891,22.849508 C148.344339,22.0292056 143.131042,29.4484814 142.241759,29.1281936 C141.076522,28.7086862 144.198884,20.7149812 142.875269,21.007853 C135.366157,22.6697813 125.534467,34.4686448 115.865542,41.2660574 C115.082867,41.8165521 118.426344,50.9573749 117.647179,51.4338901 C116.777638,51.9656723 111.786334,43.8231379 110.92469,44.2426453 C103.831922,47.6927021 86.1875261,50.1039994 80.0726624,56.7682489 C79.6295564,57.2508565 96.4553026,70.077165 96.0850239,70.6581219 C95.615156,71.3966116 77.9698829,59.9176007 77.6009203,60.7849018 C74.2513017,68.6593692 74.6869495,81.1727879 71.9682087,85.9288009 C67.727552,93.3476415 50.9746331,103.820966 43.5019345,117.86402 C43.0425959,118.726534 54.9555682,120.53294 54.5716891,121.422435 C53.900888,122.97644 41.0157147,123.641821 40.6169192,125.279379 C40.326926,126.468709 64.1046116,124.241055 63.9826477,125.474772 C63.8203217,127.112331 39.8254703,132.227797 40,133.944557 C41.3364182,147.034146 52.65712,146.426208 57.3487796,147.898836 C62.0404393,149.371029 64.9320354,155 64.9320354,155" id="Fill-7" fill="#F7F6F1"></path> <path d="M72.787263,153.195763 C77.1376178,153.379226 82.5426833,153.607574 88.2225309,147.851371 C87.7300133,147.240409 85.2713443,145.581834 83.4423663,144.349016 C78.7532151,141.187004 77.6144585,140.308038 78.079977,139.604255 C78.6173481,138.791963 80.7528977,139.107467 85.4973537,140.019988 C87.1669494,140.340722 88.8931562,140.673221 90.2418098,140.831844 C92.1857521,141.060193 92.5088715,140.821386 92.5498058,140.779115 C94.6775169,135.190687 95.4578808,128.041298 96.2121165,121.126795 C96.9532881,114.334745 97.7201524,107.311733 99.7616403,101.660116 C99.6166284,101.155484 97.6809601,99.4982173 96.391966,98.3956968 C93.5195996,95.9365965 92.5450156,95.0157957 92.8851184,94.3329302 C93.281397,93.5389411 94.8220932,93.8143534 98.5074839,94.6859111 C100.010294,95.0410709 102.51251,95.6324229 102.964094,95.4180196 C107.090181,89.5275965 113.003441,86.35164 118.72161,83.2807062 C121.318323,81.885778 123.772638,80.5675469 125.971331,79.0405776 C125.950863,78.8680092 125.784078,78.3450746 124.831268,76.8577612 C124.077032,75.681594 123.037563,74.2182485 122.031625,72.8028387 C118.430716,67.7347303 117.545839,66.2739995 118.181626,65.6512715 C118.68416,65.1588413 119.663534,65.764574 125.164403,69.9737622 C127.351338,71.6462816 130.300783,73.9031804 131.109017,74.2077898 C134.882373,69.0106909 135.739815,62.0465085 136.497534,55.8954896 C136.681739,54.3994607 136.855492,52.9862298 137.064518,51.6727922 C137.163805,51.0500642 135.353988,49.8346769 134.156007,49.0297933 C132.418478,47.8627774 131.163015,47.0191095 131.499634,46.1375288 C131.772675,45.4224157 133.257195,45.2603059 136.579838,45.0607192 C137.753433,44.9905588 139.355966,44.8942517 139.652522,44.7325777 C143.347928,41.1304295 146.117523,37.7893128 147.883358,34.8020485 C150.713484,30.0154533 150.923816,26.2546815 148.510001,23.6217055 C147.962614,23.8426454 146.352678,25.6851185 145.372868,26.8059418 C143.192029,29.3007759 142.373779,30.1535952 141.753233,29.9287333 C140.877937,29.6106147 141.209766,27.9747008 141.871681,25.1111977 C142.126867,24.0082414 142.499631,22.3932448 142.447374,21.8498286 C137.930669,22.9449409 132.492944,27.8365589 126.740372,33.0118689 C123.236137,36.1651649 119.612148,39.4252267 116.006013,41.990657 C115.886694,42.530587 116.553836,45.0676917 116.999323,46.7611284 C118.066226,50.813872 118.258704,51.880223 117.693463,52.2292819 C117.596353,52.2889836 117.495759,52.3194881 117.387763,52.3194881 C116.722363,52.3194881 115.776085,51.1581374 113.732855,48.4602303 C112.787447,47.211288 111.377392,45.3487691 110.894891,45.0916595 C108.400078,46.2970239 104.625851,47.3873427 100.633018,48.5408494 C93.1298531,50.7084135 84.6416533,53.1605413 80.681045,57.2882389 C81.4487803,58.1541315 85.1803309,61.2172213 88.2225309,63.7142343 C90.2570512,65.3837032 92.3603759,67.1102592 93.9002012,68.4297976 C94.7336926,69.1449108 95.3389973,69.6852766 95.7496464,70.0822711 C96.3188069,70.6326599 96.6475875,70.9921775 96.4207071,71.3512593 C96.1489732,71.7822446 95.5266852,71.4968094 95.0263291,71.2680255 C94.5364243,71.0431636 93.8579606,70.6880038 92.95131,70.1816287 C91.2786661,69.246883 89.0425227,67.9133996 86.8795385,66.6239299 C83.5686529,64.6498516 79.1089948,61.9902931 78.0059469,61.6442846 C76.3960108,65.6007211 75.6857577,70.796077 75.058244,75.3904937 C74.4363915,79.9374106 73.8493766,84.2324473 72.4928846,86.6266164 C70.7283563,89.7411281 66.872261,93.3345608 62.4065064,97.4953776 C56.2972844,103.187957 48.7074611,110.260648 44.3575418,118.380081 C45.0407957,118.743956 47.6475248,119.357968 49.4216335,119.77588 C53.6805394,120.778608 54.9595176,121.150763 55.2282032,121.683284 C55.3004914,121.827092 55.306588,121.985279 55.2451866,122.129086 C54.871117,123.003259 52.7891304,123.441652 48.1269784,124.233463 C46.4991879,124.510182 44.8156572,124.796053 43.5331953,125.105892 C42.5159351,125.351671 41.985967,125.559973 41.7098784,125.705088 C43.2688644,125.908597 48.4483559,125.683299 52.3471274,125.513781 C61.1270927,125.132039 63.9450253,125.102406 64.4749934,125.661946 C64.5812483,125.774812 64.631763,125.918184 64.6173924,126.066784 C64.5747163,126.502127 64.2502904,126.958388 60.7033795,128.130633 C58.5390889,128.846182 55.6022728,129.685056 52.7625667,130.496041 C49.9132802,131.30964 46.9664483,132.151129 44.7128861,132.89021 C41.5831563,133.917341 40.9478042,134.382753 40.8202112,134.53484 C41.9067113,144.970436 49.3110239,146.380181 54.7208795,147.410362 C55.8940383,147.633481 56.9073792,147.826967 57.7508864,148.093664 C61.7223815,149.351757 64.3861574,153.430648 65.2318419,154.890507 C66.662364,153.42629 68.5226959,153.134318 70.6551972,153.134318 C71.3393221,153.134318 72.052188,153.164823 72.787263,153.195763 M65.1147003,155.997821 C64.976656,155.983876 64.855595,155.901078 64.7928872,155.778189 C64.7645816,155.72328 61.9418589,150.274737 57.5052808,148.869786 C56.7079335,148.61747 55.7168016,148.428778 54.5689002,148.210452 C49.2156557,147.19073 41.1263473,145.650252 40.0037032,134.54922 C39.9440437,133.957868 40.5754766,133.415324 44.0770985,132.243514 C46.3946749,131.467828 49.5183081,130.575788 52.5391701,129.712946 C55.2434447,128.941182 58.0396037,128.142399 60.1507669,127.455612 C62.1948675,126.790177 63.1067437,126.382724 63.5134736,126.150454 C63.0414231,126.084651 62.0559523,126.02495 60.0014003,126.056761 C57.84669,126.089445 55.0688208,126.210156 52.382836,126.326944 C49.6842225,126.444169 46.8945956,126.565751 44.7947546,126.594077 C41.3919846,126.640705 40.9395303,126.429788 40.726585,126.1705 C40.6246848,126.046738 40.5876697,125.888115 40.6246848,125.735157 C40.8646293,124.741145 43.0537418,124.269632 47.9911114,123.430758 C49.5666453,123.16319 51.1953067,122.88647 52.4320442,122.591448 C53.5782038,122.31865 54.0907531,122.095096 54.3189399,121.956954 C53.5320438,121.580005 50.9858452,120.980373 49.2352519,120.568126 C45.0168448,119.574986 43.753979,119.205446 43.5118572,118.673796 C43.4443592,118.524759 43.4487139,118.357856 43.5240504,118.215356 C47.9183878,109.883264 55.6445134,102.684197 61.8521519,96.8992321 C66.2682628,92.7841721 70.0825529,89.2303953 71.7852443,86.2248283 C73.0650935,83.9670579 73.641657,79.747411 74.2517518,75.2798059 C74.8997326,70.5424536 75.6335011,65.1723505 77.3553533,61.0886665 C77.4093517,60.9605476 77.5138647,60.8655478 77.6497317,60.8210983 C77.94411,60.7243554 78.3917742,60.7749058 81.1914169,62.3450171 C82.9123981,63.3107031 85.1411385,64.6393929 87.2958488,65.9245048 C89.7654045,67.3970017 92.8999245,69.2656215 94.6749041,70.1903443 C93.1115633,68.7792923 90.0867821,66.29666 87.7069333,64.343499 C85.7912966,62.7712088 83.8103392,61.1457536 82.3523825,59.9007333 C79.8013936,57.723582 79.7865876,57.5196375 79.7691688,57.2834453 C79.7604594,57.1592484 79.8000872,57.0407165 79.8828267,56.9505103 C83.9078847,52.5247399 92.673915,49.9928646 100.407879,47.7586263 C104.414212,46.6011976 108.19889,45.5078284 110.627947,44.3159731 C111.292476,43.9900105 112.089387,44.9413158 114.381707,47.9686717 C115.280519,49.1561692 116.581706,50.8744453 117.19572,51.3703617 C117.15914,50.563735 116.59956,48.4384413 116.212862,46.9685592 C115.144652,42.9084073 114.932577,41.7544648 115.476045,41.3688005 C119.063455,38.8242876 122.690057,35.5620469 126.196469,32.406572 C132.100149,27.0957348 137.676354,22.079484 142.433004,21.0174909 C142.655094,20.9673763 142.86891,21.0262065 143.019147,21.1778575 C143.458973,21.6214804 143.259963,22.7157212 142.664239,25.2946606 C142.399037,26.442938 141.921325,28.5098372 142.048483,29.0959598 C142.566693,28.7795844 143.8718,27.2861701 144.760596,26.2699338 C146.866969,23.8596408 147.862455,22.8020054 148.556161,22.7884963 C148.735139,22.7858816 148.903231,22.8525558 149.022985,22.9789316 C151.798677,25.9112878 151.651053,30.0285266 148.583595,35.21691 C146.778568,38.2695411 143.959765,41.6721026 140.20557,45.3295948 C139.876789,45.6498923 138.963606,45.733126 136.629047,45.8734468 C135.343101,45.9505797 132.701534,46.109639 132.266499,46.4408309 C132.285224,46.5061978 132.382769,46.7101423 132.888351,47.1280542 C133.341676,47.5019525 133.957432,47.9159425 134.609768,48.3539002 C136.378215,49.5422693 138.048682,50.6643999 137.867962,51.8009112 C137.661548,53.0999681 137.488231,54.5062265 137.304462,55.9948472 C136.565903,61.9959582 135.646189,69.4647725 131.646388,74.8501279 C131.566261,74.9582011 131.444765,75.0287972 131.304979,75.0484073 C130.687481,75.1351273 129.1838,74.0735699 124.670579,70.6204581 C122.623865,69.0542688 119.914365,66.9812686 118.882299,66.4470037 C118.995957,66.7468196 119.274223,67.3059239 119.935703,68.3361052 C120.677746,69.4917908 121.702844,70.9350904 122.694412,72.3308902 C125.5781,76.3888631 126.920657,78.3930102 126.774774,79.2353708 C126.736453,79.4580538 126.614521,79.5839939 126.520024,79.6502323 C124.261236,81.2290592 121.757278,82.5738728 119.106131,83.9979982 C113.463298,87.0288404 107.628423,90.1625263 103.612074,95.9113213 C103.166588,96.5497374 101.732582,96.2843481 98.3211024,95.4781571 C97.2271993,95.2197402 96.0958458,94.952172 95.19355,94.8022641 C94.2481425,94.6453837 93.8448964,94.6697873 93.6815948,94.7033423 C93.9968758,95.2742126 95.7391951,96.7654479 96.9210632,97.7768907 C99.7538018,100.201564 100.800238,101.184246 100.543311,101.891079 C98.5222899,107.45859 97.7593448,114.45197 97.0207861,121.215258 C96.2604538,128.183798 95.4739933,135.389402 93.3066543,141.076752 C92.8973116,142.151383 90.5658001,141.823677 85.3436325,140.819207 C83.7868238,140.519827 82.1768877,140.209988 80.9305698,140.054415 C79.6603011,139.895791 79.1203171,139.947213 78.8973559,140.003429 C79.4673874,140.68673 82.1037286,142.464708 83.896998,143.673559 C87.869364,146.352291 89.0342488,147.224721 89.098263,147.842655 C89.1148109,148.003893 89.0638608,148.154673 88.9541221,148.267539 C82.9663965,154.440347 77.3030968,154.201541 72.7528608,154.008926 C69.6074541,153.87645 67.1230923,153.771427 65.4730929,155.846606 C65.395579,155.94422 65.2784373,156 65.1551991,156 C65.141264,156 65.1277644,156 65.1147003,155.997821" id="Fill-9" fill="#F7BF9C"></path> <path d="M45.3053435,156 C42.9049166,151.125551 33.7230223,156.279699 28.3778046,146.138087 C27.281238,144.05845 35.1914983,139.167419 34.6819737,136.59209 C34.4433246,135.386023 25.6590337,136.626998 25.4508689,135.364642 C23.0112478,120.553228 28.8882002,109.397978 24.8956178,101.002632 C23.4981269,98.0651337 29.9499274,97.0842222 28.8882002,94.7894653 C28.5241296,94.0022926 22.2613321,96.5182782 21.5980792,95.9370619 C17.7243859,92.5448885 9.51450777,86.2413977 7.67150945,82.0480884 C6.32105156,78.9761948 6.22480803,73.7853927 6.28751874,68.861636 C6.30145446,67.789964 12.9440001,67.1559496 12.9614198,66.1344577 C13.0197756,62.7422842 6.17516204,66.019698 5.73879996,64.3511013 C4.53423159,59.7506788 -4.46824034,43.2684859 2.81883216,39.2946599 C8.26029341,36.3274899 25.9943618,56.6128965 28.5881468,62.2976451 C28.8864582,62.9508588 24.1065079,69.6858983 24.8956178,70.1200651 C25.5876131,70.5009974 32.1339153,64.3118299 32.929122,64.726361 C39.0826112,67.9335226 47.7562874,72.136868 50.198086,77.1849841 C53.3166377,83.6320335 50.2311833,97.0370965 51.5202369,101.185462 C53.5322058,107.656074 64.6485515,118.591405 68.0301399,130.746329 C68.2374336,131.493358 58.7759541,130.902978 58.9214081,131.658298 C59.1752994,132.976943 68.9686232,135.649141 69,136.987422 C69.0226241,137.95917 51.1178432,132.252168 51.00418,133.230898 C50.8530646,134.529471 68.4386305,142.515522 68.0148977,143.819331 C64.7852957,153.760659 56.1843466,151.395214 52.3302504,151.754329 C48.4752832,152.112571 45.3053435,156 45.3053435,156" id="Fill-11" fill="#F7F6F1"></path> <path d="M55.3184895,151.912884 C59.6591614,152.024765 65.597948,152.177728 68.1876799,144.355195 C68.0767725,144.193928 67.5868586,143.709253 65.4350801,142.448837 C63.8186263,141.502214 61.6978493,140.364605 59.6469354,139.265456 C57.5776824,138.155381 55.4376932,137.008157 53.8762564,136.086445 C51.4987332,134.682681 51.0904717,134.194947 51.1433055,133.739554 C51.1603346,133.597517 51.2363106,133.472961 51.3590073,133.389487 C51.8956421,133.022376 53.9806142,133.494376 60.8708468,135.309393 C63.648772,136.040994 67.2812083,136.997232 68.7714721,137.213128 C68.5435443,137.062787 68.192483,136.86175 67.6514819,136.602587 C66.7201215,136.156371 65.4953368,135.663393 64.3107233,135.187459 C60.7939975,133.773206 59.2369272,133.072198 59.0858486,132.289027 C59.0574668,132.142182 59.0950181,131.995775 59.1915163,131.876463 C59.5141958,131.478322 60.5250252,131.4049 64.0862886,131.343278 C65.4678283,131.319241 67.4785711,131.284715 68.149692,131.137433 C66.130653,124.140026 61.4555123,117.405278 57.6894631,111.979458 C54.9189608,107.988432 52.5261551,104.54108 51.6768837,101.812218 C51.140249,100.086357 51.321456,96.949302 51.5314815,93.3170835 C51.8336387,88.1058486 52.2087154,81.6202124 50.3735032,77.8306604 C48.1566648,73.2531298 40.6271863,69.3591259 34.5770556,66.2303745 C34.1408489,66.0048632 33.7138116,65.7837222 33.2972539,65.5673887 C32.7719719,65.6744629 30.7813147,67.2552274 29.4526089,68.3097989 C26.4982798,70.654505 25.6922361,71.2187203 25.174377,70.9337719 C25.0407641,70.8607866 24.944266,70.7349199 24.9010383,70.5797715 C24.7320573,69.966608 25.418024,68.6991993 27.0248717,65.9541669 C27.692936,64.812625 28.6007176,63.262453 28.6740737,62.8507637 C27.5047428,60.346976 23.5291048,55.2030448 19.1801367,50.5713216 C13.8954418,44.9422789 9.10459064,41.1269417 6.03629759,40.1029628 C4.93202648,39.7345402 4.05611985,39.720555 3.43128317,40.0605702 C-2.00842008,43.0241214 2.34797094,53.8678953 4.95080214,60.346976 C5.67257365,62.142763 6.29566376,63.693809 6.55764979,64.6946248 C6.6493449,65.0446919 8.08721156,64.8637583 9.03822084,64.7440101 C10.6673373,64.5390395 12.3523441,64.3270763 13.2500829,65.1338475 C13.6343291,65.4791071 13.8238323,65.9694632 13.8129162,66.5909305 C13.7998169,67.3727905 12.5715391,67.7189242 10.2189045,68.311547 C9.14912826,68.5816362 7.36980648,69.0300366 7.1213564,69.3582518 C7.0580431,74.374131 7.17986661,79.4162324 8.47451424,82.3583687 C9.94294593,85.6955869 15.6393955,90.4802732 19.7984237,93.9730768 C20.7210512,94.7475072 21.5925914,95.479545 22.3078132,96.1049456 C22.6859464,96.2098346 24.3949686,95.7474489 25.5315513,95.4402116 C28.3465912,94.6793293 29.4386363,94.453818 29.7442867,95.1128705 C30.387899,96.5035238 28.9731744,97.4698137 27.724811,98.3220367 C26.1659941,99.386223 25.1857297,100.170268 25.7389569,101.332351 C27.8785095,105.82597 27.2628423,111.052502 26.5498037,117.10416 C25.9044448,122.585921 25.1726304,128.797971 26.324059,135.819416 C26.3860624,135.867053 26.663331,136.018705 27.7261209,136.094312 C28.5505036,136.152875 29.6023776,136.152001 30.6206299,136.151564 C33.763589,136.147194 35.407988,136.188712 35.5835186,137.07415 C35.8786895,138.565322 34.0600698,140.410494 32.1349092,142.363178 C30.6529415,143.867024 28.8081232,145.738418 29.2229345,146.523775 C32.288171,152.33244 36.6956493,152.979255 40.2368271,153.499767 C42.6366192,153.852019 44.7368738,154.161005 45.9035849,155.896917 C46.8825394,154.840161 49.6002078,152.233669 52.8401017,151.93255 C53.189853,151.90021 53.5679862,151.888847 53.9771211,151.888847 C54.3923689,151.888847 54.8386185,151.900647 55.3184895,151.912884 M45.7887477,156.997378 C45.6503318,156.981644 45.5302548,156.896859 45.4686881,156.772303 C44.5766257,154.962531 42.6095473,154.673212 40.1180601,154.307412 C36.3943654,153.760678 31.7602692,153.080211 28.5015996,146.904871 C27.8077733,145.5907 29.544304,143.829438 31.5546101,141.790222 C33.1470485,140.174931 34.9490758,138.346366 34.7901376,137.273439 C34.4037082,136.964891 31.9493357,136.966639 30.6210666,136.96795 C27.380736,136.968824 25.6800101,136.92818 25.5254383,135.990297 C24.3460645,128.83949 25.0866117,122.554017 25.7398302,117.008448 C26.438023,111.08222 27.0410275,105.964511 25.0023395,101.683292 C24.1076572,99.8031568 25.8581606,98.6078593 27.2650255,97.6472509 C28.5146989,96.7941537 29.2714019,96.2155161 29.0382343,95.5411673 C28.574519,95.4638116 26.8152829,95.9388714 25.7446333,96.2286272 C23.2304407,96.9082205 22.2383869,97.1284874 21.7965038,96.7417092 C21.0821552,96.1167456 20.2040654,95.3794634 19.274015,94.5980404 C15.0534201,91.0536664 9.27313498,86.1994911 7.72785405,82.6878949 C6.36770992,79.5954177 6.24064669,74.4309458 6.3061432,69.3106147 C6.31662264,68.4933546 7.65493461,68.1161913 10.0197952,67.5200721 C11.0402307,67.2630941 12.7322239,66.8361085 12.997703,66.5310563 C12.9959565,66.1753078 12.9003316,65.9165816 12.7055886,65.7417666 C12.0846817,65.1836698 10.4520721,65.3890774 9.13995875,65.5542776 C7.47765739,65.7631815 6.04153731,65.944115 5.7686352,64.9017806 C5.51931183,63.95035 4.90539123,62.4215929 4.19409916,60.6515911 C2.86757657,57.3493359 1.05070346,52.8273091 0.328058659,48.8214235 C-0.0767097559,46.5781102 -0.106838149,44.7512935 0.237236836,43.2365216 C0.643315181,41.445542 1.58646489,40.1361777 3.04092399,39.3438287 C3.87272963,38.8906209 4.96739459,38.8853764 6.29435383,39.3285324 C13.7277708,41.8087201 27.2305307,57.7243141 29.4443127,62.5719338 C29.6438587,63.0094083 29.2740217,63.7270239 27.7287408,66.3667302 C27.0729024,67.4872943 26.0446073,69.244622 25.7629723,70.0422154 C26.4646582,69.6397039 27.9221738,68.4824287 28.9461026,67.669976 C32.1117671,65.1565735 33.0492404,64.5180617 33.6138203,64.8117509 C34.0482805,65.0381363 34.4954033,65.2688921 34.951259,65.5048923 C41.108804,68.6891474 48.772332,72.6522033 51.1070641,77.4744748 C53.0352813,81.4554493 52.6693741,87.7824409 52.3458214,93.3638465 C52.140599,96.9169612 51.9624485,99.9858384 52.4558555,101.569662 C53.2680122,104.178339 55.6271964,107.578054 58.359274,111.514013 C62.2087221,117.059582 67,123.961715 69.0120626,131.188566 C69.0535438,131.337596 69.023852,131.49493 68.9304103,131.619922 C68.6291264,132.024182 67.630523,132.098478 64.1006979,132.159664 C62.7811616,132.18239 60.8970454,132.215167 60.1058476,132.345405 C60.3040837,132.496183 60.6769771,132.728686 61.3777897,133.062146 C62.2777118,133.490443 63.4653818,133.967688 64.6146271,134.429636 C68.4256506,135.96189 69.9792277,136.672513 69.9998796,137.539595 C70.0032431,137.691684 69.936,137.833284 69.8150498,137.928995 C69.3574476,138.290425 67.8182796,137.982751 60.6630045,136.098245 C57.7108586,135.321193 53.835212,134.300273 52.3301022,134.10754 C52.6776704,134.379814 53.3300156,134.824281 54.5556735,135.5384 C56.072136,136.42209 58.085062,137.501136 60.0324915,138.545655 C62.2336108,139.725657 64.5098327,140.946302 66.1804303,141.941 C68.7653591,143.479809 69.1552817,144.016491 68.9924137,144.51821 C66.2302076,153.011159 59.6508652,152.840714 55.2975307,152.728833 C54.3718467,152.704796 53.5723527,152.684692 52.915641,152.74544 C49.2701054,153.084581 46.1808535,156.812511 46.1502884,156.850096 C46.0721293,156.945807 45.9564188,157 45.8345953,157 C45.8193128,157 45.8040302,157 45.7887477,156.997378" id="Fill-13" fill="#97C4DE"></path> <path d="M48.9995327,182.930261 C48.9995327,182.930261 48.9900505,182.405034 48.9715172,181.421054 C48.9564319,180.924254 48.9378986,180.311562 48.9163482,179.590852 C48.8887638,178.87364 48.8585933,178.048846 48.8111825,177.126529 C48.7211019,175.281458 48.5849036,173.043669 48.3831922,170.48226 C48.1823428,167.920851 47.9155493,165.035822 47.5741915,161.894959 C47.2341267,158.754532 46.8160496,155.358271 46.3156501,151.77571 C45.8165436,148.192274 45.2385628,144.421663 44.5713635,140.53385 C44.2425049,138.588631 43.8821828,136.616298 43.5119475,134.62035 C43.133092,132.626588 42.7430304,130.609211 42.3223673,128.582212 C41.4909542,124.525154 40.5681675,120.420427 39.5669375,116.334943 C38.5695865,112.248584 37.4739659,108.186278 36.3158493,104.211437 C35.1486815,100.23922 33.9078114,96.3570914 32.5975491,92.638085 C32.2639495,91.71052 31.942418,90.7877656 31.6001982,89.8816295 C31.4308123,89.4281241 31.2631505,88.9768054 31.0954886,88.5276733 C30.9230857,88.0798531 30.7515448,87.6355315 30.5808659,87.192522 C30.4950954,86.9712358 30.410187,86.7508243 30.3252785,86.5304129 C30.2373531,86.3117507 30.1498586,86.0935258 30.0619331,85.8757383 C29.8873751,85.4401632 29.7141102,85.0076494 29.5412762,84.5773222 C29.3628392,84.1491817 29.1856952,83.7241024 29.0098442,83.3016471 C28.8327002,82.8791917 28.6607283,82.4584857 28.4775502,82.0452141 C27.0448818,78.7272342 25.5751469,75.6388495 24.0847236,72.8583411 C22.5943003,70.0782701 21.0965498,67.6003903 19.6578474,65.4789297 C18.2213,63.3561573 16.8425076,61.5919908 15.6387041,60.1999873 C15.4878516,60.0263695 15.3404471,59.8575623 15.1977837,59.6931284 C15.1262364,59.6113487 15.0559823,59.5304437 14.9865901,59.4504133 C14.9146118,59.3734442 14.8434956,59.2973498 14.7732414,59.2225673 C14.4926557,58.9234375 14.2301722,58.6431125 13.9857911,58.3824672 C13.86554,58.2499579 13.7405479,58.131443 13.6233139,58.0151147 C13.5056489,57.8992238 13.392725,57.7877061 13.2849732,57.6814363 C13.0686075,57.4693339 12.8742232,57.2738499 12.6962172,57.1037308 C11.9643667,56.442059 11.5747361,56.0887009 11.5747361,56.0887009 C11.4325037,55.9601275 11.214414,55.9728099 11.0876979,56.117127 C10.9614127,56.2605694 10.9730499,56.4796689 11.1126963,56.6086796 C11.1243335,56.6191754 11.5027579,56.9694722 12.212627,57.6258961 C12.3863229,57.7947033 12.5746731,57.988438 12.7850047,58.198791 C12.8901705,58.3041862 12.9996463,58.4148292 13.1138633,58.5298455 C13.2276492,58.6452992 13.3491933,58.7625021 13.4664273,58.8941367 C13.7034813,59.1530328 13.9590686,59.4311711 14.2314652,59.7281143 C14.2995644,59.8024594 14.3685256,59.8776792 14.4383488,59.954211 C14.5064479,60.0333667 14.5745471,60.1138344 14.6439393,60.1951767 C14.7827236,60.3582987 14.925818,60.5257939 15.0727915,60.6985371 C16.2429764,62.0809194 17.5842712,63.8332781 18.9815969,65.9455548 C20.3815087,68.0560822 21.8383134,70.5225917 23.286498,73.2926042 C24.7346826,76.0626168 26.1613168,79.1418177 27.5491604,82.4501765 C27.7271664,82.8625734 27.8935353,83.2824048 28.0650762,83.7031108 C28.2357551,84.1246915 28.407296,84.5488962 28.5801299,84.9761621 C28.7473607,85.4051773 28.9150226,85.8368164 29.0844085,86.2710795 C29.1688859,86.4884297 29.2537943,86.7062173 29.3387028,86.9244421 C29.4205942,87.143979 29.5033476,87.3643904 29.58567,87.5843646 C29.7511768,88.0260622 29.9171146,88.4703838 30.0839144,88.9160173 C30.2455422,89.3647121 30.408032,89.8151562 30.5713837,90.2673496 C30.9019663,91.1712991 31.2122916,92.0923042 31.5346851,93.0176825 C32.7992606,96.7283798 33.9940128,100.603074 35.1142009,104.567419 C36.2261998,108.533951 37.2748406,112.587948 38.2256427,116.666435 C39.1811859,120.743173 40.0574238,124.839153 40.8435812,128.887027 C41.2418319,130.909652 41.6094812,132.921782 41.9659242,134.910733 C42.3141781,136.901871 42.6525189,138.868956 42.9598271,140.808927 C43.5847877,144.686245 44.1218228,148.445048 44.5812766,152.014926 C45.0424545,155.584805 45.4238959,158.966635 45.7294801,162.092192 C46.0372194,165.216875 46.2721183,168.085285 46.4458143,170.628764 C46.6199413,173.172242 46.7311411,175.390789 46.8018263,177.217055 C46.839324,178.129751 46.8613054,178.945361 46.8811317,179.654264 C46.8949239,180.36098 46.9074231,180.961864 46.9169053,181.449043 C46.9250944,182.43346 46.9294045,182.958249 46.9294045,182.958249 C46.9341456,183.539016 47.4013575,184.005204 47.9733042,184 C48.5448199,183.995583 49.0047047,183.521523 49,182.941194 L48.9995327,182.930261 Z" id="Fill-15" fill="#97C4DE"></path> <path d="M61.0781832,184.073631 C61.0781832,184.073631 61.1385026,183.534008 61.2513302,182.521996 C61.307744,182.015774 61.3871573,181.40154 61.4748156,180.673655 C61.5182108,180.31058 61.5737567,179.918876 61.6280008,179.501578 C61.6839806,179.084281 61.7390926,178.640523 61.808091,178.172473 C62.0658586,176.299406 62.4164921,174.028562 62.8638969,171.430647 C63.3126036,168.832731 63.8654588,165.909047 64.5346132,162.732034 C65.2068053,159.555888 65.9961645,156.126415 66.9061625,152.517356 C67.8170283,148.908731 68.8554761,145.122255 70.0110911,141.228636 C71.1745172,137.337619 72.449469,133.33729 73.8528707,129.310066 C75.2475933,125.279372 76.7711998,121.221783 78.3868042,117.201499 C80.0123895,113.185554 81.7312745,109.206913 83.5443271,105.347129 C83.990864,104.378496 84.4586646,103.425479 84.9143145,102.472028 C85.1477808,101.998339 85.3808132,101.525517 85.6129777,101.054431 C85.7297109,100.818454 85.8455761,100.583345 85.9618753,100.348235 C86.0803443,100.114861 86.1988133,99.8814868 86.3168483,99.6485463 C86.5537862,99.1830992 86.7898563,98.7185196 87.0250584,98.2556751 C87.265468,97.7958671 87.5045757,97.3373605 87.7436834,96.8801552 C87.8634543,96.6519863 87.9827911,96.4238175 88.1016941,96.1965161 C88.2236347,95.9705162 88.3451413,95.7445162 88.46578,95.5193838 C88.7087933,95.0686852 88.9505047,94.6201555 89.1913483,94.173361 C89.685186,93.2867124 90.1634014,92.4004975 90.6624465,91.5377069 C90.9097993,91.1047933 91.1558503,90.6740487 91.4005994,90.2450391 C91.6505559,89.8194998 91.8992105,89.3956957 92.1469973,88.974928 C92.2706737,88.7641104 92.3943501,88.5545941 92.5175925,88.3450778 C92.6434387,88.1377304 92.7688509,87.9303831 92.8938292,87.7239032 C93.1442196,87.3109436 93.3933083,86.8997191 93.6402271,86.4915311 C93.8932213,86.0868133 94.1440457,85.6846982 94.3940022,85.284752 C94.5189805,85.0847789 94.6435248,84.8856734 94.7672012,84.6870016 C94.8939153,84.490065 95.0201954,84.2939959 95.1460416,84.0979268 C97.1565425,80.9677622 99.1587984,78.0731408 101.119829,75.486504 C103.076086,72.8963969 104.971589,70.601261 106.723455,68.6314609 C108.474886,66.6616608 110.07617,65.012425 111.434007,63.6954655 C111.772056,63.3649243 112.102293,63.0625788 112.406928,62.7723792 C112.714166,62.4839148 112.998405,62.2101989 113.274398,61.9677153 C113.547788,61.7226289 113.800783,61.4953276 114.032513,61.2875465 C114.148378,61.183439 114.259036,61.0845369 114.364053,60.9899726 C114.469503,60.8962759 114.572784,60.810821 114.668687,60.7279688 C115.439386,60.0703566 115.850339,59.7198615 115.850339,59.7198615 C116.028694,59.5680381 116.049089,59.3121072 115.903715,59.142065 C115.759209,58.9728904 115.505347,58.9520689 115.334804,59.0943491 C115.334804,59.0943491 114.91604,59.4448442 114.13102,60.1024564 C114.033381,60.1853086 113.927931,60.2707635 113.82031,60.364894 C113.713558,60.4590245 113.600731,60.5583604 113.482695,60.6624679 C113.246625,60.8706828 112.988858,61.0975503 112.71026,61.3430704 C112.429059,61.5851203 112.139179,61.85927 111.8263,62.1477344 C111.51559,62.4383678 111.178843,62.7407132 110.834285,63.0716882 C109.450411,64.3895153 107.817882,66.0400524 106.032169,68.0120214 C104.246455,69.9839904 102.312764,72.281729 100.316583,74.8748726 C98.3156291,77.4645459 96.2708459,80.3626376 94.2169497,83.4980075 C94.0884998,83.6936428 93.959182,83.8901457 93.8302982,84.0870823 C93.7035841,84.2861878 93.5764361,84.4857272 93.4488542,84.6857003 C93.1936902,85.0860802 92.9367905,85.4890629 92.6785888,85.8946482 C92.4255947,86.3032701 92.1712986,86.7149283 91.9157007,87.1283218 C91.7881187,87.3348016 91.6596689,87.5425827 91.531219,87.7503639 C91.4049389,87.960314 91.2786588,88.170264 91.1519447,88.3806479 C90.8989505,88.8027169 90.6446545,89.2269548 90.3890566,89.6533617 C90.1386661,90.0823712 89.8869738,90.5135496 89.6339796,90.946897 C89.1236517,91.8118565 88.6341535,92.6989389 88.1285991,93.5868889 C87.8825482,94.034551 87.6347614,94.4839483 87.3865407,94.9350806 C87.2624303,95.1606468 87.13832,95.3870806 87.0137757,95.6130805 C86.8914011,95.8412494 86.7690266,96.0694183 86.646652,96.2980209 C86.4019029,96.75566 86.1571539,97.2150342 85.9111029,97.6757098 C85.6698254,98.1394218 85.428114,98.6044352 85.1859686,99.0707499 C85.064462,99.3041241 84.9433893,99.5374984 84.8218827,99.7713064 C84.7025458,100.00685 84.5836429,100.242393 84.4647399,100.47837 C84.2265001,100.950323 83.9873924,101.424012 83.7478508,101.898569 C83.2809181,102.853321 82.8018348,103.808074 82.3435812,104.778008 C80.4840956,108.644299 78.7183437,112.630314 77.0467595,116.654501 C75.3851562,120.682593 73.8155508,124.748857 72.3752631,128.789962 C70.9271644,132.827163 69.6075154,136.837903 68.401562,140.7415 C67.2034198,144.647699 66.1237465,148.448055 65.173391,152.071429 C64.2243373,155.695236 63.3980922,159.14076 62.6916178,162.33469 C61.9881812,165.528621 61.4040814,168.470958 60.9271678,171.087092 C60.4519901,173.70366 60.0766213,175.992289 59.7988919,177.883141 C59.7255539,178.354661 59.6652346,178.803191 59.6044813,179.223958 C59.5458977,179.646027 59.4864462,180.039467 59.4391454,180.409048 C59.343242,181.146476 59.2564515,181.777194 59.1952643,182.282549 C59.0728897,183.293259 59.0077969,183.832449 59.0077969,183.832449 C58.9379305,184.404172 59.3454117,184.922975 59.9169269,184.99238 C60.4884421,185.061351 61.007883,184.654464 61.0768814,184.082741 L61.0781832,184.073631 Z" id="Fill-17" fill="#F7BF9C"></path> <g id="Group-21" transform="translate(35.000000, 175.000000)"> <mask id="mask-2" fill="white"> <use xlink:href="#path-1"></use> </mask> <g id="Clip-20"></g> <path d="M0.0690988506,1.19113548 L1.26238621,3.42952258 C1.26238621,3.42952258 2.06737471,27.0000871 8.01721379,27.0000871 L29.6780874,27.0000871 C35.5554207,27.0000871 36.4355356,3.7260871 36.4355356,3.7260871 L37.6292598,1.19113548 C37.6292598,0.6642 37.1999034,0.238732258 36.6744552,0.238732258 L1.02434023,0.238732258 C0.495834483,0.238732258 0.0690988506,0.6642 0.0690988506,1.19113548" id="Fill-19" fill="#8F6969" mask="url(#mask-2)"></path> </g> <g id="Group-24" transform="translate(46.000000, 175.000000)"> <mask id="mask-4" fill="white"> <use xlink:href="#path-3"></use> </mask> <g id="Clip-23"></g> <path d="M0.310157143,1.19113548 L1.48144286,3.42952258 C1.48144286,3.42952258 2.27087143,27.0000871 8.10887143,27.0000871 L18.8347286,27.0000871 C24.6015857,27.0000871 25.4647286,3.7260871 25.4647286,3.7260871 L26.6364429,1.19113548 C26.6364429,0.6642 26.2147286,0.238732258 25.6991571,0.238732258 L1.24744286,0.238732258 C0.728871429,0.238732258 0.310157143,0.6642 0.310157143,1.19113548" id="Fill-22" fill="#BF8A8A" mask="url(#mask-4)"></path> </g> </g> <g id="Group-114" transform="translate(22.000000, 0.000000)"> <path d="M119.774425,89.4113224 C123.110065,106.084902 131.997405,143.337503 136.509605,162.048503 C138.017265,168.305523 134.333585,174.633383 128.148945,176.418243 C121.590085,178.310903 114.772505,174.370043 113.138565,167.741883 L95.1020844,94.5888024 C93.5466844,87.4971024 98.2868045,80.5609424 105.460124,79.4352024 C112.136025,78.3880024 118.450025,82.7847024 119.774425,89.4113224" id="Fill-1" fill="#007DDC"></path> <path d="M158.479707,95.1140964 L158.479707,95.1140964 C155.749287,93.6295364 152.332027,94.6382364 150.847467,97.3686565 L144.220847,109.728697 C142.736287,112.459117 143.746527,115.876377 146.476947,117.360937 C149.207367,118.845497 152.623087,117.836797 154.109187,115.106377 L160.734267,102.746336 C162.218827,100.017456 161.208587,96.5986564 158.479707,95.1140964" id="Fill-3" fill="#F3A396"></path> <path d="M164.879639,101.97495 C162.169239,103.40253 160.429039,103.15613 160.429039,103.15613 C159.198579,105.54005 156.217139,106.40245 153.904059,105.04263 L152.265499,104.08013 C150.124899,102.82195 149.341039,100.11309 150.476019,97.9047305 L150.542239,97.7784505 C150.542239,97.7784505 151.948259,90.7853104 156.870099,83.7552104 C163.231839,74.6722903 170.426719,73.4033303 173.092459,75.5901304 C175.613439,77.6552704 168.666499,88.7371104 166.137819,92.8827904 L170.833279,90.4634504 C171.429259,90.1569904 172.154599,90.2724904 172.625839,90.7483504 C173.132499,91.2611704 173.214119,92.0573504 172.821419,92.6625704 L169.709079,97.4519705 C168.489399,99.3292305 166.860079,100.93237 164.879639,101.97495" id="Fill-5" fill="#F3A396"></path> <path d="M113.790447,158.235309 L142.571507,100.308208 L164.531907,110.499929 L135.042447,169.688289 C131.799207,175.839049 124.045307,177.985809 118.102447,174.379129 C112.570767,171.021929 110.665787,163.902509 113.790447,158.235309" id="Fill-7" fill="#007DDC"></path> <polygon id="Fill-9" fill="#007DDC" points="88.7029224 68.9838383 76.5477024 69.1578583 64.7143423 68.9838383 41.3078822 79.6899184 44.2015422 173.224899 76.5477024 173.224899 109.215723 173.224899 109.545283 79.4435184"></polygon> <path d="M81.4917184,85.5305224 L81.4917184,173.439883" id="Stroke-11" stroke="#005F99" stroke-width="1.10726001"></path> <path d="M79.1389064,95.1464364 C79.1389064,95.9102764 78.5213664,96.5278164 77.7590664,96.5278164 C76.9952264,96.5278164 76.3776864,95.9102764 76.3776864,95.1464364 C76.3776864,94.3841364 76.9952264,93.7665964 77.7590664,93.7665964 C78.5213664,93.7665964 79.1389064,94.3841364 79.1389064,95.1464364" id="Fill-13" fill="#289DE5"></path> <path d="M79.1389064,111.500621 C79.1389064,112.262921 78.5213664,112.882001 77.7590664,112.882001 C76.9952264,112.882001 76.3776864,112.262921 76.3776864,111.500621 C76.3776864,110.738321 76.9952264,110.120781 77.7590664,110.120781 C78.5213664,110.120781 79.1389064,110.738321 79.1389064,111.500621" id="Fill-15" fill="#289DE5"></path> <path d="M79.1389064,127.854959 C79.1389064,128.618799 78.5213664,129.236339 77.7590664,129.236339 C76.9952264,129.236339 76.3776864,128.618799 76.3776864,127.854959 C76.3776864,127.092659 76.9952264,126.475119 77.7590664,126.475119 C78.5213664,126.475119 79.1389064,127.092659 79.1389064,127.854959" id="Fill-17" fill="#289DE5"></path> <path d="M79.1389064,144.209143 C79.1389064,144.972983 78.5213664,145.590523 77.7590664,145.590523 C76.9952264,145.590523 76.3776864,144.972983 76.3776864,144.209143 C76.3776864,143.446843 76.9952264,142.829303 77.7590664,142.829303 C78.5213664,142.829303 79.1389064,143.446843 79.1389064,144.209143" id="Fill-19" fill="#289DE5"></path> <path d="M79.1389064,160.564097 C79.1389064,161.326397 78.5213664,161.943937 77.7590664,161.943937 C76.9952264,161.943937 76.3776864,161.326397 76.3776864,160.564097 C76.3776864,159.800257 76.9952264,159.182717 77.7590664,159.182717 C78.5213664,159.182717 79.1389064,159.800257 79.1389064,160.564097" id="Fill-21" fill="#289DE5"></path> <path d="M109.423007,152.673907 L109.423007,106.013446" id="Stroke-23" stroke="#005F99" stroke-width="1.10726001"></path> <path d="M32.1334861,89.4113224 C28.7993861,106.084902 19.9105061,143.337503 15.3998461,162.048503 C13.8906461,168.305523 17.5758661,174.633383 23.7589661,176.418243 C30.3178261,178.310903 37.1354062,174.370043 38.7708862,167.741883 L56.8058263,94.5888024 C58.3612263,87.4971024 53.6211062,80.5609424 46.4493262,79.4352024 C39.7734262,78.3880024 33.4594262,82.7847024 32.1334861,89.4113224" id="Fill-25" fill="#007DDC"></path> <path d="M53.9897823,106.012984 L42.9526022,150.774625" id="Stroke-27" stroke="#005F99" stroke-width="1.10726001"></path> <path d="M8.80495004,239.034951 L8.80495004,239.034951 C5.76037003,238.408171 3.80149002,235.432891 4.42827002,232.388311 L7.33733003,218.669991 C7.96565004,215.626951 10.9409301,213.666531 13.9839701,214.293311 C17.0285501,214.920091 18.9889701,217.895371 18.3621901,220.939951 L15.4515901,234.658271 C14.8248101,237.701311 11.8495301,239.661731 8.80495004,239.034951" id="Fill-29" fill="#F3A396"></path> <path d="M18.1216421,237.921377 C16.9712621,235.083157 15.4820821,234.148377 15.4820821,234.148377 C16.0796021,231.531917 14.3578821,228.950877 11.7121621,228.498117 L9.84106205,228.176257 C7.39400203,227.755837 5.04550202,229.320477 4.49110202,231.739817 L4.45876202,231.879957 C4.45876202,231.879957 1.021482,238.129277 0.248402001,246.676277 C-0.751058003,257.719617 3.92746202,263.331377 7.37552203,263.380789 C10.634162,263.428397 12.4744621,250.478537 13.2167421,245.681437 L15.2449221,250.558617 C15.5005621,251.176157 16.1304221,251.556537 16.7987821,251.496477 C17.5164221,251.431797 18.0908421,250.875857 18.1817021,250.161297 L18.8931821,244.492557 C19.1734621,242.271877 18.9624821,239.995757 18.1216421,237.921377" id="Fill-31" fill="#F3A396"></path> <path d="M15.3770541,161.975507 L0.000154000001,224.804427 L23.3542541,231.183107 L39.0052742,166.932767 C40.4944542,160.142907 35.9545342,153.500887 29.0861341,152.421347 C22.6920541,151.418807 16.6460141,155.629167 15.3770541,161.975507" id="Fill-33" fill="#007DDC"></path> <polygon id="Fill-35" fill="#04162E" points="112.033769 208.783807 43.5407282 208.783807 44.2013882 173.225207 108.973789 173.225207"></polygon> <path d="M43.3811842,208.359075 L41.2944842,290.485735 C41.0450042,297.905455 46.9924842,304.056215 54.4183643,304.056215 C61.1389243,304.056215 66.7753243,298.980375 67.4775643,292.295235 L75.7335044,210.596695 C76.7391244,201.017895 69.2285443,192.677255 59.5973843,192.677255 C50.8486442,192.677255 43.6737842,199.614955 43.3811842,208.359075" id="Fill-37" fill="#04162E"></path> <polygon id="Fill-39" fill="#FFFFFF" points="40.3952782 398.904662 42.0399982 371.853022 54.7064983 371.911542 52.6998782 398.915442"></polygon> <path d="M53.7054982,398.749122 L39.2818582,398.749122 L29.6399181,406.646242 C27.2914181,408.314062 25.8776981,411.155362 25.8776981,414.199942 L25.8776981,415.895482 L58.2808383,415.706062 L58.2808383,411.404842 C58.2808383,409.814022 57.8942983,408.250922 57.1581783,406.874162 L53.7054982,398.749122 Z" id="Fill-41" fill="#1A1A1A"></path> <g id="Group-45" transform="translate(24.640000, 415.510482)"> <mask id="mask-6" fill="white"> <use xlink:href="#path-5"></use> </mask> <g id="Clip-44"></g> <polygon id="Fill-43" fill="#FFFFFF" mask="url(#mask-6)" points="0.571802003 4.62030802 34.3239822 4.44166802 34.3055022 0.0465080002 0.553322003 0.225148001"></polygon> </g> <path d="M43.2647602,402.7465 C43.2647602,402.7465 45.8088402,393.15846 49.6064802,393.7067 C55.0380603,394.48902 49.9914802,400.81534 43.2647602,402.7465 Z" id="Stroke-46" stroke="#FFFFFF" stroke-width="0.709940003" stroke-linecap="round" stroke-linejoin="round"></path> <path d="M43.3887302,402.747886 C43.3887302,402.747886 40.3857302,393.293826 36.6204302,394.022246 C31.2319701,395.066366 36.5773102,401.143206 43.3887302,402.747886 Z" id="Stroke-48" stroke="#FFFFFF" stroke-width="0.709940003" stroke-linecap="round" stroke-linejoin="round"></path> <path d="M67.4520003,292.751537 L57.0092603,387.888118 L38.4984602,387.888118 L41.3382202,290.906617 C41.5492002,283.573137 47.7400002,277.841257 55.0673203,278.195457 C62.6241003,278.561977 68.3020803,285.234797 67.4520003,292.751537" id="Fill-50" fill="#04162E"></path> <path d="M111.915805,208.359075 L115.477825,290.485735 C115.727305,297.905455 109.778285,304.056215 102.355484,304.056215 C95.6333844,304.056215 89.9969844,298.980375 89.2947444,292.295235 L79.5634844,210.596695 C78.5578644,201.017895 86.0684444,192.677255 95.6996044,192.677255 C104.448344,192.677255 111.623205,199.614955 111.915805,208.359075" id="Fill-52" fill="#04162E"></path> <polygon id="Fill-54" fill="#FFFFFF" points="115.524333 398.904662 113.879613 371.853022 101.213112 371.911542 102.833192 398.961642"></polygon> <path d="M116.492223,398.899426 L132.312643,407.515726 L141.216923,409.254386 C145.310243,410.053646 148.385623,413.453966 148.770623,417.605806 L148.952343,419.549286 L100.956702,419.766426 L100.862762,398.970266 L116.492223,398.899426 Z" id="Fill-56" fill="#1A1A1A"></path> <path d="M123.148411,403.038176 C123.148411,403.038176 120.156191,393.581036 123.653531,392.007156 C128.658531,389.755676 127.791511,397.802176 123.148411,403.038176 Z" id="Stroke-58" stroke="#FFFFFF" stroke-width="0.709940003" stroke-linecap="round" stroke-linejoin="round"></path> <path d="M123.252977,402.972726 C123.252977,402.972726 115.649997,396.601746 112.862597,399.236686 C108.873997,403.005066 116.643297,405.270406 123.252977,402.972726 Z" id="Stroke-60" stroke="#FFFFFF" stroke-width="0.709940003" stroke-linecap="round" stroke-linejoin="round"></path> <polygon id="Fill-62" fill="#FFFFFF" points="100.764356 420.088748 149.146537 419.870068 149.128057 415.598108 100.744336 415.816788"></polygon> <path d="M89.3203084,292.751537 L99.7630485,387.888118 L118.273849,387.888118 L115.434089,290.906617 C115.223109,283.573137 109.032309,277.841257 101.704988,278.195457 C94.1482084,278.561977 88.4702284,285.234797 89.3203084,292.751537" id="Fill-64" fill="#04162E"></path> <polygon id="Fill-66" fill="#007DDC" points="93.4191724 72.0125563 87.6426324 70.0844763 88.0722924 75.6454164"></polygon> <path d="M73.4495303,83.9664984 L73.4495303,83.9664984 C66.7767103,81.7396584 63.1731103,74.5262983 65.3999503,67.8550183 L73.9808303,42.1447182 L98.1418905,50.2081582 L89.5610104,75.9169184 C87.3341704,82.5897384 80.1208104,86.1933384 73.4495303,83.9664984" id="Fill-68" fill="#F3A396"></path> <path d="M73.2804383,44.2421982 C73.2804383,44.2421982 74.4508383,60.1719583 83.6230784,63.1210583 C95.4456584,66.9217783 97.8311185,50.7363782 97.8311185,50.7363782 C97.8311185,50.7363782 90.0356384,58.9245583 82.8284384,56.5283183 C74.7911783,53.8564183 73.2804383,44.2421982 73.2804383,44.2421982" id="Fill-70" fill="#1A1A1A"></path> <polygon id="Fill-72" fill="#007DDC" points="51.7994402 80.8390664 69.6249403 70.2500263 75.7187204 85.5299064 88.6855204 75.8510064 96.9830405 95.9187464"></polygon> <path d="M75.9618864,84.8048744 L72.0764663,72.3062343 C71.6498863,70.3103943 70.7859463,68.4192743 69.5447063,66.7653143 L67.2285463,63.6729943 C66.7372863,63.0200343 65.9072263,62.6966343 65.1002663,62.8490943 L61.4966663,63.5282343 C60.6635263,63.6853143 60.0198063,64.3167143 59.8642663,65.1282943 L57.9731463,74.9534943 C57.7883463,75.9221544 58.8401663,76.6906144 59.7333663,76.2378544 L68.6314863,71.7256543 C69.1273663,71.4746343 69.7433663,71.7364343 69.9035263,72.2646543 L75.4028664,86.4788544 L75.9618864,84.8048744 Z" id="Fill-74" fill="#289DE5"></path> <path d="M75.9595764,84.8101104 L92.8533764,72.2252303 C93.3215364,71.8802703 93.3477164,71.8540903 93.7773764,72.4192703 L95.6962164,74.9417903 C96.1397364,75.5239104 96.2028764,76.3909304 95.8594564,77.1409104 L93.0982364,86.6735104 C92.6870564,87.5697904 91.5998164,87.6236904 91.2794964,86.7659104 L88.6553364,78.4468304 C88.4766964,77.9709704 87.9438564,77.8477704 87.5526964,78.1927304 L75.4020964,86.4825504 L75.9595764,84.8101104 Z" id="Fill-76" fill="#289DE5"></path> <path d="M117.282397,20.9152021 C117.513397,17.0082221 116.929737,11.1916421 110.081357,4.71132202 C98.7669765,-5.99321803 87.2924364,4.89304202 87.2924364,4.89304202 C83.8135764,3.29606202 80.3916964,3.56402202 77.5134364,6.46230203 C74.8168963,9.17732204 74.3533563,15.8224221 74.1300563,18.1170221 L72.5577163,32.6084222 L79.4230364,20.6164421 C84.7791564,13.0073021 89.7795364,10.8497621 89.7795364,10.8497621 L102.352096,13.9405421 L107.152276,42.7862822 L114.519637,29.1234021 C115.454417,27.3909021 116.213637,25.5613821 116.734157,23.6610221 C117.034457,22.5614621 117.242357,21.5881821 117.282397,20.9152021" id="Fill-78" fill="#1A1A1A"></path> <path d="M105.88578,39.0657962 C105.88578,39.0657962 108.386741,37.0129762 111.328141,39.4153762 C114.269541,41.8162362 110.016061,49.4885162 104.61528,48.8447962 C104.61528,48.8447962 102.67334,48.6338162 101.66618,46.9213362 C101.66618,46.9213362 104.92482,41.2941762 105.88578,39.0657962" id="Fill-80" fill="#E88E85"></path> <path d="M74.4294323,28.4639741 C74.4294323,28.4639741 73.2852123,25.2530741 69.6461923,25.5056341 C65.8577923,25.7674341 64.6458123,34.3467742 69.3505123,37.0756542 C69.3505123,37.0756542 71.0291123,38.0751142 72.8632523,37.3081942 C72.8632523,37.3081942 73.8596323,30.8232541 74.4294323,28.4639741" id="Fill-82" fill="#F3A396"></path> <path d="M69.3514363,28.6136621 C69.3514363,28.6136621 72.4868763,28.6136621 73.1028763,33.4369422" id="Stroke-84" stroke="#D26665" stroke-width="0.765380004" stroke-linecap="round" stroke-linejoin="round"></path> <path d="M72.4118783,30.9469161 C72.4118783,30.9469161 68.7928783,31.5644561 69.9986983,34.7091362" id="Stroke-86" stroke="#D26665" stroke-width="0.765380004" stroke-linecap="round" stroke-linejoin="round"></path> <path d="M111.612733,32.3509342 C109.969553,37.2820142 106.041012,47.4367742 100.966712,52.5495742 C96.2019524,57.3482143 90.4623724,58.8712743 84.2284524,56.9955543 C77.9945324,55.1198343 74.1907323,51.2066942 72.9972323,42.5164742 C71.8021923,33.8247142 76.3806124,20.6946741 76.3806124,20.6946741 C76.3806124,20.6946741 82.2587924,3.07861401 99.6684925,8.88903404 C118.005273,15.0089941 111.612733,32.3509342 111.612733,32.3509342" id="Fill-88" fill="#F3A396"></path> <path d="M115.140873,16.5012541 C114.635753,16.5012541 101.353252,7.56001404 101.353252,7.56001404 L87.2052724,7.17809403 C87.2052724,7.17809403 87.2052724,7.19041403 87.2052724,7.19965403 C74.8929723,6.48663403 76.3005324,18.8405141 76.3005324,18.8405141 C84.3008324,18.4770741 85.8331324,13.9340741 87.8890324,10.706234 C89.0424924,14.0942341 96.6701124,22.1083941 106.416772,25.1529741 C116.397513,28.2699341 116.007893,23.8485941 116.007893,23.8485941 C116.007893,23.8485941 115.644453,16.5012541 115.140873,16.5012541" id="Fill-90" fill="#1A1A1A"></path> <path d="M98.2610865,33.2493702 L95.6353864,41.1141502 C95.5784064,41.2897102 95.4875464,41.4467902 95.3751264,41.5792302 C94.9316064,42.1028302 94.1400464,42.1598102 93.5687064,41.7840502 L92.3367064,40.9724702" id="Stroke-92" stroke="#D26665" stroke-width="0.765380004" stroke-linecap="round" stroke-linejoin="round"></path> <path d="M90.4737684,31.3567101 C90.1703884,32.2637701 89.1894084,32.7534902 88.2823484,32.4516502 C87.3752884,32.1482701 86.8840284,31.1672901 87.1874084,30.2602301 C87.4907884,29.3531701 88.4717684,28.8619101 89.3788284,29.1652901 C90.2858884,29.4671301 90.7756084,30.4496501 90.4737684,31.3567101" id="Fill-94" fill="#1A1A1A"></path> <path d="M93.4515124,27.9556201 L94.5541524,24.8525201 L88.7267924,23.0230001 C87.9906724,22.7920001 87.1975724,22.8212601 86.4814724,23.1046201 L82.1910324,24.7955401 L87.3176924,25.6995201 L93.4515124,27.9556201 Z" id="Fill-96" fill="#1A1A1A"></path> <path d="M101.313982,34.9744782 C101.010602,35.8815382 101.501862,36.8625182 102.408922,37.1658982 C103.315982,37.4692782 104.296962,36.9780182 104.600342,36.0709582 C104.903722,35.1638982 104.412462,34.1829182 103.505402,33.8795382 C102.596802,33.5761582 101.617362,34.0674182 101.313982,34.9744782" id="Fill-98" fill="#1A1A1A"></path> <path d="M101.599036,30.6724881 L102.626216,27.5462881 L107.181536,29.1170881 C107.757497,29.3142081 108.224117,29.7561881 108.507477,30.3660281 L110.196857,34.0127482 L106.576316,32.0523281 L101.599036,30.6724881 Z" id="Fill-100" fill="#1A1A1A"></path> <path d="M91.6032044,44.4038982 C90.7731444,44.5501982 90.1017044,44.5655982 89.3609644,44.5486582 C88.6387044,44.5255582 87.9210644,44.4346982 87.2188244,44.2791582 C85.8128044,43.9819382 84.4760844,43.3566982 83.3672844,42.4942982 C83.1378244,42.3156582 83.0977844,41.9860982 83.2764244,41.7566382 C83.4335044,41.5548982 83.7091644,41.4994582 83.9278444,41.6118782 L83.9463244,41.6195782 C85.0505044,42.1816782 86.2455444,42.4819782 87.4544444,42.5066182 C88.0550444,42.5235582 88.6571844,42.4865982 89.2500844,42.3941982 C89.8229644,42.3048782 90.4636044,42.1493382 90.9102044,41.9722382 C91.5616244,41.7119782 92.3008244,42.0292182 92.5626244,42.6806382 C92.8228844,43.3320582 92.5056444,44.0712582 91.8542244,44.3330582 C91.7756844,44.3638582 91.6832844,44.3884982 91.6032044,44.4038982" id="Fill-102" fill="#1A1A1A"></path> <path d="M96.0179224,43.7932882 C96.2073424,44.1598082 96.5476824,44.6310482 96.8787824,45.0129682 C97.2222025,45.4087482 97.6056625,45.7706482 98.0214625,46.0894282 C98.8499825,46.7377682 99.8402025,47.1643482 100.916662,47.3229682 L100.935142,47.3245082 C101.204642,47.3645482 101.389442,47.6140282 101.349402,47.8835282 C101.315522,48.1191482 101.119942,48.2900882 100.892022,48.3039482 C99.6323025,48.3763282 98.3156025,48.1037482 97.1575225,47.5247082 C96.5738624,47.2398082 96.0210024,46.8948482 95.5066424,46.4975282 C94.9830424,46.0832682 94.5318224,45.6890282 94.0451824,45.1038282 C93.6232224,44.5987082 93.6909824,43.8471882 94.1945624,43.4252282 C94.6996824,43.0032682 95.4512024,43.0710282 95.8731624,43.5746082 C95.9270624,43.6408282 95.9794224,43.7209082 96.0179224,43.7932882" id="Fill-104" fill="#1A1A1A"></path> <path d="M87.9427784,45.5325642 L95.8876384,48.1844442" id="Stroke-106" stroke="#D26665" stroke-width="0.765380004" stroke-linecap="round" stroke-linejoin="round"></path> <path d="M88.9864364,48.8900722 C88.9864364,48.8900722 90.4509764,50.0450722 93.0366364,50.2406522" id="Stroke-108" stroke="#D26665" stroke-width="0.574420003" stroke-linecap="round" stroke-linejoin="round"></path> <polygon id="Fill-110" fill="#1A1A1A" points="79.6261624 15.1040121 75.3187823 29.9526921 73.6540423 27.1668321 76.3444224 13.1605321"></polygon> <polygon id="Fill-112" fill="#A08885" points="150.476635 97.9053465 148.778015 101.228666 158.861935 106.238286 160.428115 103.155206"></polygon> </g> <rect id="Rectangle" fill="#97C4DE" x="0" y="415" width="244" height="6"></rect> </g> </g> </g> </g> </svg> 