<?xml version="1.0" encoding="UTF-8"?> <svg xmlns="http://www.w3.org/2000/svg" xmlns:xlink="http://www.w3.org/1999/xlink" width="57px" height="57px" viewBox="0 0 57 57"> <!-- Generator: Sketch 57.1 (83088) - https://sketch.com --> <title>Group 16</title> <desc>Created with Sketch.</desc> <defs> <circle id="path-1" cx="28.1250011" cy="28.1250011" r="28.1250011"></circle> <polygon id="path-3" points="0.843591236 0.249299993 26.5195815 0.249299993 26.5195815 23.6839494 0.843591236 23.6839494"></polygon> </defs> <g id="Page-1" stroke="none" stroke-width="1" fill="none" fill-rule="evenodd"> <g id="masha-copy" transform="translate(-338.000000, -21.000000)"> <g id="Group-8"> <g id="Group-7" transform="translate(197.000000, 21.000000)"> <g id="Group-6" transform="translate(141.300006, 0.000000)"> <g id="Group-16"> <g id="Group-15"> <g id="Group-2"> <mask id="mask-2" fill="white"> <use xlink:href="#path-1"></use> </mask> <use id="Oval" fill="#EEFBF4" xlink:href="#path-1"></use> <g id="Group-66" mask="url(#mask-2)"> <g transform="translate(6.000000, 3.000000)"> <polygon id="Fill-1" fill="#007DDC" points="21.7306794 44.1062988 14.8150796 44.0045988 0.000179999995 50.3360987 2.82707993 104.924697 21.7306794 104.924697 40.8232789 104.924697 43.6501788 50.3360987 28.8343792 44.0045988"></polygon> <g id="Group-65" stroke-width="1" fill="none" transform="translate(0.000000, 0.650700)"> <path d="M22.1018394,53.0240386 L22.1018394,104.399637" id="Stroke-2" stroke="#005F99" stroke-width="0.647099983"></path> <path d="M22.0385694,51.9900286 L22.0385694,51.9900286 C17.9282695,51.9900286 14.5955696,48.6573287 14.5955696,44.5470288 L14.5955696,28.7070292 L29.4815692,28.7070292 L29.4815692,44.5470288 C29.4815692,48.6573287 26.1488693,51.9900286 22.0385694,51.9900286" id="Fill-18" fill="#F3A396"></path> <path d="M14.5955696,31.3607692 C14.5955696,31.3607692 18.6914695,38.972969 23.3714694,38.600369 C30.6065692,38.025269 29.4068692,29.0576692 29.4068692,29.0576692 C29.4068692,29.0576692 26.6006693,35.0390691 22.1618694,35.0444691 C17.2118695,35.0507691 14.5955696,31.3607692 14.5955696,31.3607692" id="Fill-20" fill="#1A1A1A"></path> <polygon id="Fill-22" fill="#007DDC" points="9.50444975 54.2615386 17.1166495 45.0932388 22.3546494 52.4399386 27.2353493 45.0932388 36.251549 54.2615386"></polygon> <path d="M22.1018394,51.9930886 L18.5513395,45.7803888 C17.9645395,44.7525888 17.1617395,43.8642888 16.1987396,43.1766889 L14.3987396,41.8914889 C14.0189396,41.6196889 13.5140396,41.5944889 13.1081397,41.8275889 L11.2937397,42.8706889 C10.8743397,43.1118889 10.6421397,43.5807888 10.7033397,44.0604888 L11.4494397,49.8555887 C11.5232397,50.4279887 12.2261397,50.6592887 12.6257397,50.2425887 L16.5974396,46.0953888 C16.8179396,45.8649888 17.1959395,45.8955888 17.3768395,46.1592888 L22.1018394,53.0244886 L22.1018394,51.9930886 Z" id="Fill-24" fill="#289DE5"></path> <path d="M22.1018394,51.9930886 L25.6514393,45.7803888 C26.2391393,44.7525888 27.0419393,43.8642888 28.0049393,43.1766889 L29.8040392,41.8914889 C30.1847392,41.6196889 30.6896392,41.5944889 31.0955392,41.8275889 L32.9099391,42.8706889 C33.3293391,43.1118889 33.5615391,43.5807888 33.5003391,44.0604888 L32.7542391,49.8555887 C32.6804391,50.4279887 31.9766392,50.6592887 31.5779392,50.2425887 L27.6062393,46.0953888 C27.3857393,45.8649888 27.0077393,45.8955888 26.8268393,46.1592888 L22.1018394,53.0244886 L22.1018394,51.9930886 Z" id="Fill-26" fill="#289DE5"></path> <g id="Group-30" transform="translate(8.100000, 0.000000)"> <mask id="mask-4" fill="white"> <use xlink:href="#path-3"></use> </mask> <g id="Clip-29"></g> <path d="M26.2902593,8.92754976 C25.6809593,6.71894982 24.2490594,3.6022499 19.1379595,1.27754997 C10.6923597,-2.56364993 4.99625987,5.59394985 4.99625987,5.59394985 C2.72105993,5.35184986 1.48715996,6.22304984 0.993959974,8.27324978 C0.571859985,10.0255497 1.14065997,13.4482496 1.44845996,14.7604496 L3.13235992,23.6839494 L4.75685987,15.7657496 C6.35435983,10.5574497 8.78165977,8.43614978 8.78165977,8.43614978 L16.5000596,7.82324979 L24.6837593,22.9261494 L26.2767593,13.9891496 C26.4783593,12.8551497 26.5629593,11.7004497 26.4981593,10.5511497 C26.4612593,9.88604974 26.3955593,9.30824975 26.2902593,8.92754976" id="Fill-28" fill="#1A1A1A" mask="url(#mask-4)"></path> </g> <path d="M32.5753191,21.0977994 C32.5753191,21.0977994 33.5815191,19.4975995 35.6569191,20.2850995 C37.731419,21.0716994 36.792719,26.1116993 33.6805191,26.7533993 C33.6805191,26.7533993 32.5645191,26.9972993 31.6897192,26.2331993 C31.6897192,26.2331993 32.4547191,22.5107994 32.5753191,21.0977994" id="Fill-31" fill="#F3A396"></path> <path d="M35.2449891,22.0624194 C35.2449891,22.0624194 33.5070891,21.4828194 32.2731891,24.0424194" id="Stroke-33" stroke="#D26665" stroke-width="0.5" stroke-linecap="round" stroke-linejoin="round"></path> <path d="M33.1167591,22.7901594 C33.1167591,22.7901594 35.0085591,23.8017594 33.7593591,25.3218593" id="Stroke-35" stroke="#D26665" stroke-width="0.5" stroke-linecap="round" stroke-linejoin="round"></path> <path d="M11.3335197,21.0977994 C11.3335197,21.0977994 10.3273197,19.4975995 8.25281978,20.2850995 C6.17741984,21.0716994 7.11611981,26.1116993 10.2283197,26.7533993 C10.2283197,26.7533993 11.3443197,26.9972993 12.2191197,26.2331993 C12.2191197,26.2331993 11.4541197,22.5107994 11.3335197,21.0977994" id="Fill-37" fill="#F3A396"></path> <path d="M8.66384977,22.0624194 C8.66384977,22.0624194 10.4026497,21.4828194 11.6356497,24.0424194" id="Stroke-39" stroke="#D26665" stroke-width="0.5" stroke-linecap="round" stroke-linejoin="round"></path> <path d="M10.7920797,22.7901594 C10.7920797,22.7901594 8.90027976,23.8017594 10.1503797,25.3218593" id="Stroke-41" stroke="#D26665" stroke-width="0.5" stroke-linecap="round" stroke-linejoin="round"></path> <path d="M32.7832191,16.3156496 C32.7842754,19.3531495 32.4862191,25.7098493 30.6187192,29.4826492 C28.8646192,33.0241491 25.9648193,34.9312491 22.1623194,35.0446491 C18.3598195,35.1580491 15.5266196,33.6919491 13.2568196,29.0947492 C10.9861197,24.4984494 11.0950197,16.3723496 11.0950197,16.3723496 C11.0950197,16.3723496 11.0950197,5.51924985 21.8212194,5.51924985 C33.1189191,5.51924985 32.7832191,16.3156496 32.7832191,16.3156496" id="Fill-43" fill="#F3A396"></path> <path d="M31.8067192,6.87662982 C31.5268192,6.97022982 22.5097194,4.47092988 22.5097194,4.47092988 L14.5951196,6.87662982 C14.5951196,6.87662982 14.5978196,6.88292982 14.5996196,6.88832982 C7.6426198,8.77022977 10.7089197,15.3591296 10.7089197,15.3591296 C13.5718196,13.8885296 13.3603196,10.8753297 13.9030196,8.70632977 C15.1693196,10.3704297 20.0185195,13.4016296 25.9837193,13.2864296 C32.0938191,13.1685297 32.7841191,10.7889297 32.7841191,10.7889297 C32.7841191,10.7889297 32.0866191,6.78302982 31.8067192,6.87662982" id="Fill-45" fill="#1A1A1A"></path> <path d="M21.1742094,19.2842095 L21.1742094,24.1298094 C21.1742094,24.2378094 21.1949094,24.3413094 21.2327094,24.4358094 C21.3812094,24.8084093 21.8096094,24.9866093 22.1966094,24.8831093 L23.0300094,24.6617093" id="Stroke-47" stroke="#D26665" stroke-width="0.5" stroke-linecap="round" stroke-linejoin="round"></path> <path d="M18.0245695,19.6757095 C18.0245695,20.2346095 17.5709695,20.6882095 17.0120695,20.6882095 C16.4531696,20.6882095 15.9995696,20.2346095 15.9995696,19.6757095 C15.9995696,19.1168095 16.4531696,18.6632095 17.0120695,18.6632095 C17.5709695,18.6632095 18.0245695,19.1168095 18.0245695,19.6757095" id="Fill-49" fill="#1A1A1A"></path> <path d="M19.0463395,17.2394095 L19.0832395,15.3152096 L15.5147396,15.3791096 C15.0638396,15.3872096 14.6300396,15.5501096 14.2844396,15.8390096 L12.2198397,17.5715095 L15.2276396,17.1233095 L19.0463395,17.2394095 Z" id="Fill-51" fill="#1A1A1A"></path> <path d="M25.2351893,19.6757095 C25.2351893,20.2346095 25.6887893,20.6882095 26.2476893,20.6882095 C26.8065893,20.6882095 27.2601893,20.2346095 27.2601893,19.6757095 C27.2601893,19.1168095 26.8065893,18.6632095 26.2476893,18.6632095 C25.6887893,18.6632095 25.2351893,19.1168095 25.2351893,19.6757095" id="Fill-53" fill="#1A1A1A"></path> <path d="M24.2134194,17.2394095 L24.1765194,15.3152096 L27.7450193,15.3791096 C28.1959193,15.3872096 28.6297192,15.5501096 28.9753192,15.8390096 L31.0399192,17.5715095 L28.0321193,17.1233095 L24.2134194,17.2394095 Z" id="Fill-55" fill="#1A1A1A"></path> <path d="M21.1077894,26.6999393 C20.6748895,26.9348393 20.3058895,27.0671393 19.8918895,27.1949393 C19.4868895,27.3155393 19.0719895,27.3974393 18.6534895,27.4415393 C17.8191895,27.5369393 16.9632896,27.4379393 16.1892896,27.1643393 C16.0290896,27.1085393 15.9453896,26.9330393 16.0020896,26.7728393 C16.0515896,26.6315393 16.1937896,26.5496393 16.3359896,26.5712393 L16.3476896,26.5730393 C17.0631895,26.6801393 17.7831895,26.6252393 18.4563895,26.4155393 C18.7929895,26.3138393 19.1205895,26.1815393 19.4310895,26.0204393 C19.7325895,25.8647393 20.0583895,25.6604393 20.2734895,25.4804393 C20.5866895,25.2149393 21.0555894,25.2536393 21.3201894,25.5668393 C21.5856894,25.8800393 21.5469894,26.3480393 21.2337894,26.6135393 C21.1959894,26.6450393 21.1491894,26.6765393 21.1077894,26.6999393" id="Fill-57" fill="#1A1A1A"></path> <path d="M23.4333894,25.4799893 C23.6484894,25.6599893 23.9751894,25.8651893 24.2757894,26.0208893 C24.5871893,26.1810893 24.9138893,26.3133893 25.2513893,26.4150893 C25.9245893,26.6256893 26.6436893,26.6796893 27.3591893,26.5725893 L27.3708893,26.5716893 C27.5382893,26.5464893 27.6948893,26.6616893 27.7200893,26.8299893 C27.7416893,26.9775893 27.6543893,27.1161893 27.5184893,27.1647893 C26.7444893,27.4374893 25.8876893,27.5373893 25.0533893,27.4410893 C24.6348893,27.3969893 24.2208894,27.3150893 23.8149894,27.1944893 C23.4009894,27.0666893 23.0319894,26.9343893 22.5990894,26.6994893 C22.2390894,26.5041893 22.1049894,26.0532893 22.3002894,25.6923893 C22.4955894,25.3323893 22.9464894,25.1982893 23.3073894,25.3935893 C23.3514894,25.4178893 23.3964894,25.4493893 23.4333894,25.4799893" id="Fill-59" fill="#1A1A1A"></path> <path d="M18.9197995,28.0025093 L24.4601994,28.0025093" id="Stroke-61" stroke="#D26665" stroke-width="0.5" stroke-linecap="round" stroke-linejoin="round"></path> <path d="M20.3669095,29.6706592 C20.3669095,29.6706592 21.5441094,30.0396592 23.0129094,29.6706592" id="Stroke-63" stroke="#D26665" stroke-width="0.5" stroke-linecap="round" stroke-linejoin="round"></path> </g> </g> </g> </g> </g> </g> </g> </g> </g> </g> </g> </svg> 