<?xml version="1.0" encoding="UTF-8"?> <svg xmlns="http://www.w3.org/2000/svg" xmlns:xlink="http://www.w3.org/1999/xlink" width="313px" height="340px" viewBox="0 0 313 340"> <!-- Generator: Sketch 57.1 (83088) - https://sketch.com --> <title>Group 22</title> <desc>Created with Sketch.</desc> <defs> <polygon id="path-1" points="0.240733199 0.293919598 61.3801929 0.293919598 61.3801929 176.623999 0.240733199 176.623999"></polygon> <polygon id="path-3" points="0.0485715997 0.293919598 61.4154513 0.293919598 61.4154513 176.623999 0.0485715997 176.623999"></polygon> <polygon id="path-5" points="0.0428069465 0.326355998 58.7957159 0.326355998 58.7957159 28.2835115 0.0428069465 28.2835115"></polygon> <polygon id="path-7" points="0.000132799999 0.0973091995 288.338014 0.0973091995 288.338014 40.8359998 0.000132799999 40.8359998"></polygon> <polygon id="path-9" points="0 320.053642 288.338014 320.053642 288.338014 0.331999998 0 0.331999998"></polygon> </defs> <g id="Page-1" stroke="none" stroke-width="1" fill="none" fill-rule="evenodd"> <g id="artem" transform="translate(-655.000000, -4045.000000)"> <g id="Group-11-Copy-6" transform="translate(134.000000, 4045.000000)"> <g id="Group-22" transform="translate(521.000000, 0.000000)"> <g id="Group-126" transform="translate(227.000000, 0.000000)"> <polygon id="Fill-6" fill="#E0858C" points="0 90.2288681 30.7232027 126.636471 30.7232027 57.9884652"></polygon> <g id="Group-35" transform="translate(1.000000, 58.861605)"> <g id="Group-19" transform="translate(1.800000, 0.000000)" fill="#D65C65"> <polygon id="Fill-7" points="5.98754054 41.7800637 3.45354031 38.7780635 3.28334029 38.5780634 0.0133400012 28.4160625 1.26334011 27.1040624"></polygon> <polygon id="Fill-9" points="17.0773815 54.9240049 16.0991814 53.7640048 15.0733813 52.5480047 14.3773813 51.7220046 5.14138046 23.0320021 6.39138057 21.7220019"></polygon> <polygon id="Fill-11" points="27.9234825 67.298046 27.9234825 67.7740461 25.4692823 64.8660458 10.2714809 17.6500416 11.521481 16.3380415"></polygon> <polygon id="Fill-13" points="27.9234825 45.9800641 27.9234825 51.1700646 15.4012814 12.2660611 16.6492815 10.956061"></polygon> <polygon id="Fill-15" points="27.9234825 24.6621022 27.9234825 29.8519027 20.5292818 6.88390062 21.0112819 6.38010057 21.7792819 5.5741005"></polygon> <polygon id="Fill-17" points="27.9234825 3.3439403 27.9234825 8.53394076 25.6594823 1.50194013 26.9094824 0.189940017"></polygon> </g> <g id="Group-34" transform="translate(0.000000, 0.800000)" fill="#EBADB2"> <polygon id="Fill-20" points="29.7234827 0.156040014 29.7234827 2.18004019 15.1734814 13.5938412 22.811282 5.5800405"></polygon> <polygon id="Fill-22" points="29.7234827 8.45800076 29.7234827 10.4800009 1.03948009 32.9840029 0.011280001 31.7680028"></polygon> <polygon id="Fill-24" points="29.7234827 16.7621015 29.7234827 18.7821017 5.25348047 37.9781034 4.22748038 36.7641033"></polygon> <polygon id="Fill-26" points="29.7234827 25.0621022 29.7234827 27.0859024 9.46928085 42.9741038 8.44348075 41.7579037"></polygon> <polygon id="Fill-28" points="29.7234827 33.364063 29.7234827 35.3858632 13.6832812 47.9680643 12.6574811 46.7518642"></polygon> <polygon id="Fill-30" points="29.7234827 41.6660037 29.7234827 43.6860039 17.8992816 52.9640047 16.8734815 51.7480046"></polygon> <polygon id="Fill-32" points="29.7234827 49.9679645 29.7234827 51.9899646 22.115282 57.9579652 21.0894819 56.7419651"></polygon> </g> </g> <polygon id="Fill-36" fill="#EBADB2" points="30.7234827 119.463551 30.7234827 121.483751 28.1074825 123.535551 27.0812824 122.321551"></polygon> <g id="Group-125" transform="translate(8.000000, 0.061600)"> <path d="M22.7234827,59.3883053 C22.7234827,59.8691054 22.3336827,60.2589054 21.8526827,60.2589054 C21.3718826,60.2589054 20.9820826,59.8691054 20.9820826,59.3883053 L20.9820826,54.5965049 C20.9820826,54.1157048 21.3718826,53.7259048 21.8526827,53.7259048 C22.3336827,53.7259048 22.7234827,54.1157048 22.7234827,54.5965049 L22.7234827,59.3883053 Z" id="Fill-37" fill="#E0858C"></path> <polygon id="Fill-43" fill="#E0858C" points="59.372306 57.9269452 59.372306 126.574751 28.6493033 90.1671481"></polygon> <g id="Group-57" transform="translate(31.400004, 58.800005)" fill="#D65C65"> <polygon id="Fill-45" points="6.03636054 41.7800637 3.50236031 38.7780635 3.3323603 38.5780634 0.0625600056 28.4160625 1.31256012 27.1040624"></polygon> <polygon id="Fill-47" points="17.1262015 54.9240049 16.1484014 53.7640048 15.1222014 52.5480047 14.4262013 51.7220046 5.19020046 23.0320021 6.44020058 21.7220019"></polygon> <polygon id="Fill-49" points="27.9723025 67.298046 27.9723025 67.7740461 25.5183023 64.8660458 10.3203009 17.6500416 11.570301 16.3380415"></polygon> <polygon id="Fill-51" points="27.9723025 45.9800641 27.9723025 51.1700646 15.4505014 12.2660611 16.6985015 10.956061"></polygon> <polygon id="Fill-53" points="27.9723025 24.6621022 27.9723025 29.8519027 20.5785018 6.88390062 21.0605019 6.38010057 21.828502 5.5741005"></polygon> <polygon id="Fill-55" points="27.9723025 3.3439403 27.9723025 8.53394076 25.7083023 1.50194013 26.9583024 0.189940017"></polygon> </g> <g id="Group-72" transform="translate(29.600003, 59.600005)" fill="#EBADB2"> <polygon id="Fill-58" points="29.7723027 0.156040014 29.7723027 2.18004019 15.2223014 13.5938412 22.860502 5.5800405"></polygon> <polygon id="Fill-60" points="29.7723027 8.45800076 29.7723027 10.4800009 1.0883001 32.9840029 0.0605000054 31.7680028"></polygon> <polygon id="Fill-62" points="29.7723027 16.7621015 29.7723027 18.7821017 5.30230047 37.9781034 4.27630038 36.7641033"></polygon> <polygon id="Fill-64" points="29.7723027 25.0621022 29.7723027 27.0859024 9.51830085 42.9741038 8.49230076 41.7579037"></polygon> <polygon id="Fill-66" points="29.7723027 33.364063 29.7723027 35.3858632 13.7325012 47.9680643 12.7063011 46.7518642"></polygon> <polygon id="Fill-68" points="29.7723027 41.6660037 29.7723027 43.6860039 17.9485016 52.9640047 16.9223015 51.7480046"></polygon> <polygon id="Fill-70" points="29.7723027 49.9679645 29.7723027 51.9899646 22.164502 57.9579652 21.1383019 56.7419651"></polygon> </g> <polygon id="Fill-73" fill="#EBADB2" points="59.372306 119.401951 59.372306 121.422151 56.7563058 123.473951 55.7305057 122.259951"></polygon> <path d="M59.372306,59.3883053 C59.372306,59.8691054 58.982506,60.2589054 58.5015059,60.2589054 C58.0207059,60.2589054 57.6309059,59.8691054 57.6309059,59.3883053 L57.6309059,54.5965049 C57.6309059,54.1157048 58.0207059,53.7259048 58.5015059,53.7259048 C58.982506,53.7259048 59.372306,54.1157048 59.372306,54.5965049 L59.372306,59.3883053 Z" id="Fill-75" fill="#E0858C"></path> <path d="M38.2383241,31.5191628 L36.786724,31.4651628 C36.793524,31.2497628 37.4131241,9.92176089 24.0743229,8.39336075 L24.2409229,6.96016062 C30.3571234,7.65956068 34.7173238,12.1711611 36.851324,20.0055618 C38.4299242,25.7949623 38.2475241,31.2865628 38.2383241,31.5191628" id="Fill-77" fill="#99CC99"></path> <path d="M42.7564845,23.6927621 C41.2290844,26.7515624 39.1436842,28.8153626 38.0980841,28.3013625 C37.053684,27.7865625 37.4440841,24.8897622 38.9716842,21.830162 C40.4982843,18.7697617 43.6290846,17.2215615 43.6290846,17.2215615 C43.6290846,17.2215615 44.2834847,20.6329618 42.7564845,23.6927621" id="Fill-79" fill="#99CC99"></path> <path d="M30.6100035,28.0843625 C34.0430038,28.3105625 36.886204,27.5559625 36.963804,26.3999624 C37.040804,25.2453623 34.3220038,24.1255622 30.8906035,23.8971621 C27.4582032,23.6707621 24.5372029,25.5811623 24.5372029,25.5811623 C24.5372029,25.5811623 27.1786031,27.8579625 30.6100035,28.0843625" id="Fill-81" fill="#99CC99"></path> <path d="M39.0978842,13.0248012 C37.9534841,15.3166014 36.390284,16.8614015 35.6076839,16.4774015 C34.8248838,16.0920014 35.1176839,13.9206012 36.262684,11.628401 C37.4066841,9.33660083 39.7518843,8.17540073 39.7518843,8.17540073 C39.7518843,8.17540073 40.2424843,10.732401 39.0978842,13.0248012" id="Fill-83" fill="#99CC99"></path> <path d="M29.8418434,18.8267417 C32.3540436,18.2613416 34.2356438,17.1193415 34.0436438,16.2729415 C33.8502437,15.4265414 31.6564435,15.1973414 29.1438433,15.7613414 C26.6308431,16.3259415 24.9426429,18.3159416 24.9426429,18.3159416 C24.9426429,18.3159416 27.3284432,19.3911417 29.8418434,18.8267417" id="Fill-85" fill="#99CC99"></path> <path d="M34.6637038,7.46796067 C33.8029037,9.73836087 32.4769036,11.343561 31.7011035,11.053561 C30.9257035,10.762961 30.9935035,8.68836078 31.8559036,6.41776057 C32.7181036,4.14756037 34.8201038,2.83256025 34.8201038,2.83256025 C34.8201038,2.83256025 35.5259039,5.19756046 34.6637038,7.46796067" id="Fill-87" fill="#99CC99"></path> <path d="M27.2432032,13.8714812 C29.4856034,12.9070812 31.0358035,11.512081 30.7070035,10.757681 C30.3780034,10.0026809 28.2930032,10.1724809 26.050203,11.136281 C23.8086028,12.1006811 22.5880027,14.2502813 22.5880027,14.2502813 C22.5880027,14.2502813 25.000803,14.8352813 27.2432032,13.8714812" id="Fill-89" fill="#99CC99"></path> <path d="M26.5984831,3.98456036 C26.8784831,6.20296055 26.4920831,8.07876072 25.733883,8.17256073 C24.9762829,8.26676074 24.1356829,6.54496059 23.8540828,4.32596039 C23.5744828,2.10836019 24.7190829,0.138560012 24.7190829,0.138560012 C24.7190829,0.138560012 26.3178831,1.76596016 26.5984831,3.98456036" id="Fill-91" fill="#99CC99"></path> <path d="M24.2639029,6.04920054 C25.832903,6.81680061 26.8919031,7.8650007 26.6297031,8.39340075 C26.3677031,8.9218008 24.8847029,8.72820078 23.3157028,7.96160071 C21.7483027,7.19440064 20.9515026,5.6178005 20.9515026,5.6178005 C20.9515026,5.6178005 22.6961027,5.28180047 24.2639029,6.04920054" id="Fill-93" fill="#99CC99"></path> <path d="M43.5162446,32.0832029 L44.4686447,32.0492029 C44.4638447,31.9074029 44.0576447,17.9216016 52.8052454,16.9184015 L52.6962454,15.9786014 C48.6858451,16.4384015 45.8260448,19.3972017 44.4268447,24.5340022 C43.3916446,28.3308025 43.5108446,31.9326029 43.5162446,32.0832029" id="Fill-95" fill="#99CC99"></path> <path d="M40.5537443,26.9517424 C41.5557444,28.9591426 42.9241446,30.3125427 43.6079446,29.9749427 C44.2943447,29.6369426 44.0377447,27.7369425 43.0361446,25.7295423 C42.0345445,23.7233421 39.9819443,22.706342 39.9819443,22.706342 C39.9819443,22.706342 39.5521443,24.9453422 40.5537443,26.9517424" id="Fill-97" fill="#99CC99"></path> <path d="M48.5201651,29.8314427 C46.2689649,29.9788427 44.4041647,29.4862426 44.3533647,28.7286426 C44.3021647,27.9708425 46.0853648,27.2352424 48.335765,27.0864424 C50.5861652,26.9392424 52.5021654,28.1906425 52.5021654,28.1906425 C52.5021654,28.1906425 50.7701653,29.6822427 48.5201651,29.8314427" id="Fill-99" fill="#99CC99"></path> <path d="M42.9533646,19.9552618 C43.7033646,21.4592619 44.7287647,22.472062 45.2419648,22.219062 C45.7553648,21.966462 45.5639648,20.5434618 44.8135647,19.0402617 C44.0623647,17.5362616 42.5241645,16.7750615 42.5241645,16.7750615 C42.5241645,16.7750615 42.2029645,18.4520616 42.9533646,19.9552618" id="Fill-101" fill="#99CC99"></path> <path d="M49.0236651,23.7613221 C47.375665,23.3909221 46.1420648,22.640522 46.2678649,22.084522 C46.3954649,21.5319219 47.833065,21.3813219 49.4810651,21.7507219 C51.1294653,22.121122 52.2364654,23.4255221 52.2364654,23.4255221 C52.2364654,23.4255221 50.6712652,24.1297222 49.0236651,23.7613221" id="Fill-103" fill="#99CC99"></path> <path d="M45.8615648,16.3109215 C46.4255649,17.8003216 47.2947649,18.8531217 47.803765,18.6635217 C48.312365,18.4727217 48.266965,17.1121215 47.702165,15.6227214 C47.1373649,14.1343213 45.7583648,13.2709212 45.7583648,13.2709212 C45.7583648,13.2709212 45.2959648,14.8227213 45.8615648,16.3109215" id="Fill-105" fill="#99CC99"></path> <path d="M50.7271853,20.5109218 C49.2575851,19.8781218 48.239985,18.9647217 48.456385,18.4701217 C48.6721851,17.9733216 50.0389852,18.0859216 51.5091853,18.7169217 C52.9799855,19.3493217 53.7807855,20.7589219 53.7807855,20.7589219 C53.7807855,20.7589219 52.1981854,21.1423219 50.7271853,20.5109218" id="Fill-107" fill="#99CC99"></path> <path d="M51.1510253,14.0269413 C50.9662253,15.4827414 51.2198253,16.7119415 51.7178253,16.7729415 C52.2146254,16.8353415 52.7658254,15.7061414 52.9498254,14.2513413 C53.1338255,12.7963411 52.3830254,11.504941 52.3830254,11.504941 C52.3830254,11.504941 51.3342253,12.5723411 51.1510253,14.0269413" id="Fill-109" fill="#99CC99"></path> <path d="M52.6807054,15.3806614 C51.6525053,15.8838614 50.9577053,16.5720615 51.1303053,16.9182615 C51.3017053,17.2646615 52.2745054,17.1372615 53.3029055,16.6354615 C54.3327056,16.1320614 54.8529056,15.0974613 54.8529056,15.0974613 C54.8529056,15.0974613 53.7097055,14.8784613 52.6807054,15.3806614" id="Fill-111" fill="#99CC99"></path> <path d="M56.4545258,31.5050628 L56.1819257,32.8556629 L52.8197254,49.5476644 C52.8197254,49.9446645 52.3299254,50.2698645 51.7303253,50.2698645 L29.0157233,50.2698645 C28.4139233,50.2698645 27.9267232,49.9446645 27.9267232,49.5476644 L24.7391229,33.728263 L24.2921229,31.5050628 C24.2921229,31.1088628 24.7791229,30.7842628 25.382323,30.7842628 L55.3643257,30.7842628 C55.9647257,30.7842628 56.4545258,31.1088628 56.4545258,31.5050628" id="Fill-113" fill="#D1D3D4"></path> <path d="M47.0064849,31.5050628 L46.3986849,34.5106631 L43.3720846,49.5476644 C43.3720846,49.9446645 42.8802845,50.2698645 42.2810845,50.2698645 L29.0156833,50.2698645 C28.4138833,50.2698645 27.9268832,49.9446645 27.9268832,49.5476644 L24.7390829,33.728263 L24.2920829,31.5050628 C24.2920829,31.1088628 24.7790829,30.7842628 25.382283,30.7842628 L45.9150848,30.7842628 C46.5150849,30.7842628 47.0064849,31.1088628 47.0064849,31.5050628" id="Fill-115" fill="#F1F2F2"></path> <path d="M56.4545258,31.5050628 L56.1819257,32.8556629 C53.2057255,33.605263 49.9091252,34.1680631 46.3987249,34.5106631 C43.8447246,34.7596631 41.1771244,34.8934631 38.4285242,34.8934631 C33.5513237,34.8934631 28.9183233,34.4736631 24.7391229,33.728263 L24.2921229,31.5050628 C24.2921229,31.1088628 24.7791229,30.7842628 25.382323,30.7842628 L55.3643257,30.7842628 C55.9647257,30.7842628 56.4545258,31.1088628 56.4545258,31.5050628" id="Fill-117" fill="#B5B6B6"></path> <polygon id="Fill-122" fill="#C49A6C" points="0.38840075 56.021405 77.0174076 56.021405 77.0174076 50.2698045 0.38840075 50.2698045"></polygon> <path d="M24.0742629,51.1285046 C24.0742629,51.3157046 23.9226629,51.4673046 23.7356628,51.4673046 L2.44166093,51.4673046 C2.25466092,51.4673046 2.1030609,51.3157046 2.1030609,51.1285046 C2.1030609,50.9415046 2.25466092,50.7899045 2.44166093,50.7899045 L23.7356628,50.7899045 C23.9226629,50.7899045 24.0742629,50.9415046 24.0742629,51.1285046" id="Fill-124" fill="#DCC2A7"></path> </g> </g> <g id="Group-204" transform="translate(0.000000, 19.000000)"> <g id="Group-86" transform="translate(31.872000, 0.005644)"> <path d="M58.8465017,241.27074 C67.0638337,244.666104 123.465985,248.368568 164.564265,241.27074" id="Fill-1" fill="#BC7551"></path> <path d="M52.6944421,275.496719 L169.85193,275.496719" id="Fill-3" fill="#172755"></path> <g id="Group-7" transform="translate(160.687999, 143.423999)"> <mask id="mask-2" fill="white"> <use xlink:href="#path-1"></use> </mask> <g id="Clip-6"></g> <path d="M0.240733199,22.7420995 C0.240733199,22.7420995 10.5815371,57.2870313 11.3441411,61.8629873 C12.1067451,66.4389433 14.6697851,78.1704952 18.9061051,87.9920511 C23.8475931,99.4493711 42.096305,129.750679 41.715169,133.182895 C41.333701,136.614779 35.995141,140.046995 35.232205,143.097411 C34.469601,146.148159 37.167433,151.233735 37.052229,153.707799 C36.924077,156.463399 35.119657,159.359767 36.282653,160.395275 C37.812177,161.757471 41.285229,159.661223 41.730773,156.207095 C41.987409,154.220407 40.719833,151.134135 42.346633,150.241055 C45.543129,148.486103 47.045097,176.624099 50.6077889,176.624099 C54.9224609,176.624099 61.3801929,166.579771 61.3801929,152.238035 C61.3801929,145.484823 56.6306009,135.597531 53.9613209,130.640107 C51.2917089,125.682683 59.7255049,91.5979031 57.1734209,71.6124992 C55.7325409,60.3278193 51.8879809,53.6898113 49.9813049,47.2068474 C48.0746289,40.7242154 47.369793,20.6156395 40.290557,0.293919598 C28.963713,3.92799158 0.240733199,22.7420995 0.240733199,22.7420995" id="Fill-5" fill="#BC7551" mask="url(#mask-2)"></path> </g> <path d="M213.793092,318.860003 C213.767196,318.860003 213.7413,318.858675 213.715072,318.856019 C213.302728,318.813191 213.003264,318.444671 213.04576,318.032327 C213.426232,314.356091 212.19916,303.313107 211.79578,299.684015 C211.749964,299.272335 212.046772,298.901159 212.458784,298.855343 C212.870464,298.809859 213.24164,299.106335 213.287456,299.518347 C213.695152,303.186947 214.935504,314.350447 214.538432,318.186707 C214.498592,318.572823 214.1729,318.860003 213.793092,318.860003" id="Fill-8" fill="#804737"></path> <path d="M217.63815,313.714999 L217.634498,313.714999 C217.220162,313.714999 216.885506,313.321911 216.88783,312.907575 C216.902438,309.890359 216.826742,302.328063 215.809494,297.532655 C215.723174,297.127283 215.982466,296.715603 216.387506,296.629615 C216.79321,296.543627 217.191278,296.795947 217.277598,297.201319 C218.28721,301.961203 218.40673,309.110159 218.38847,312.918199 C218.386478,313.331207 218.050826,313.714999 217.63815,313.714999" id="Fill-10" fill="#804737"></path> <path d="M220.358359,304.853587 C220.340431,304.853587 220.322503,304.852923 220.304243,304.851595 C219.890903,304.822047 219.579819,304.463155 219.609367,304.049815 C219.823507,301.047539 219.018739,297.086447 218.715955,295.595103 C218.674455,295.391587 218.641587,295.228243 218.619675,295.112375 C218.543315,294.705011 218.811571,294.312919 219.218935,294.236559 C219.625967,294.160531 220.018391,294.428455 220.094751,294.835819 C220.115335,294.946375 220.147207,295.102083 220.186383,295.296635 C220.500787,296.842759 221.334771,300.949931 221.106023,304.156719 C221.077803,304.551799 220.748459,304.853587 220.358359,304.853587" id="Fill-12" fill="#804737"></path> <g id="Group-16" transform="translate(0.000000, 143.423999)"> <mask id="mask-4" fill="white"> <use xlink:href="#path-3"></use> </mask> <g id="Clip-15"></g> <path d="M61.4154513,22.7420995 C61.4154513,22.7420995 51.0746473,57.2870313 50.3120433,61.8629873 C49.5491073,66.4389433 46.9863994,78.1704952 42.7500794,87.9920511 C37.8082594,99.4493711 19.5598795,129.750679 19.9410155,133.182895 C20.3224835,136.614779 25.6610435,140.046995 26.4239795,143.097411 C27.1865835,146.148159 24.4887515,151.233735 24.6039555,153.707799 C24.7321075,156.463399 26.5365275,159.359767 25.3735315,160.395275 C23.8440075,161.757471 20.3709555,159.661223 19.9254115,156.207095 C19.6687755,154.220407 20.9363515,151.134135 19.3095515,150.241055 C16.1130555,148.486103 14.6110875,176.624099 11.0483955,176.624099 C6.73372356,176.624099 0.0485715997,166.579771 0.0485715997,152.238035 C0.0485715997,145.484823 5.02558357,135.597531 7.69486356,130.640107 C10.3644755,125.682683 1.93067959,91.5979031 4.48276358,71.6124992 C5.92364357,60.3278193 9.76820355,53.6898113 11.6748795,47.2068474 C13.5815555,40.7242154 14.2863915,20.6156395 21.3656275,0.293919598 C32.6924714,3.92799158 61.4154513,22.7420995 61.4154513,22.7420995" id="Fill-14" fill="#BC7551" mask="url(#mask-4)"></path> </g> <path d="M8.55109156,318.860003 C8.17128356,318.860003 7.84559156,318.572823 7.80575156,318.186707 C7.40901156,314.350447 8.64903155,303.186947 9.05672755,299.518347 C9.10254355,299.106667 9.47338755,298.810855 9.88539955,298.855343 C10.2974115,298.901159 10.5942195,299.272335 10.5484035,299.684015 C10.1450235,303.313107 8.91795155,314.356091 9.29842355,318.032327 C9.34091955,318.444671 9.04145555,318.813191 8.62911156,318.856019 C8.60288356,318.858675 8.57698756,318.860003 8.55109156,318.860003" id="Fill-17" fill="#804737"></path> <path d="M4.70603358,313.714999 C4.29335758,313.714999 3.95770558,313.327887 3.95571358,312.914879 C3.93745358,309.106839 4.05697358,301.981123 5.06658557,297.221239 C5.15290557,296.815867 5.55097357,296.543627 5.95667757,296.629615 C6.36171757,296.715603 6.62067757,297.107363 6.53468957,297.512735 C5.51744157,302.307811 5.44174557,309.893679 5.45635357,312.910895 C5.45867757,313.325231 5.12402157,313.714999 4.70968558,313.714999 L4.70603358,313.714999 Z" id="Fill-19" fill="#804737"></path> <path d="M1.98582479,304.853587 C1.59572479,304.853587 1.26638079,304.551799 1.23816079,304.156719 C1.00941279,300.949931 1.84339679,296.842759 2.15780079,295.296635 C2.19697679,295.102083 2.22884879,294.946375 2.24943279,294.835819 C2.32579279,294.428455 2.71788479,294.160531 3.12524878,294.236559 C3.53261278,294.312919 3.80086878,294.705011 3.72450878,295.112375 C3.70259678,295.228243 3.66972878,295.391587 3.62822878,295.595435 C3.32544478,297.086447 2.52067679,301.047871 2.73481679,304.049815 C2.76436479,304.463155 2.45328079,304.822047 2.03994079,304.851595 C2.02168079,304.852923 2.00375279,304.853587 1.98582479,304.853587" id="Fill-21" fill="#804737"></path> <path d="M184.334898,106.054909 C171.53663,91.5328975 134.103631,77.2691816 111.273319,78.8591296 C88.3314547,77.2612136 50.9489189,91.5999615 38.211739,106.054909 C19.8647551,126.875957 8.96552715,163.590177 10.4382791,166.290665 C12.3007991,169.705285 37.051399,177.295801 53.7466829,176.545481 C64.3202189,212.973185 50.4064309,272.636905 52.6945749,275.496753 C56.7353469,280.547801 153.765002,286.470349 169.85173,275.496753 C172.877578,273.433041 160.928898,215.223813 168.799954,176.545481 C185.494906,177.295801 210.245838,169.705285 212.108026,166.290665 C213.580778,163.590177 202.188198,126.313217 184.334898,106.054909" id="Fill-23" fill="#E2A346"></path> <path d="M129.277015,40.3581522 C128.628287,61.6924721 131.159787,76.378824 132.059507,80.678888 C132.822111,84.32292 129.072503,91.0190279 112.086055,91.0190279 C98.5587147,91.0190279 93.1431307,85.003852 94.1411227,81.01454 C95.8037787,74.370888 98.6868667,60.8465361 95.2224467,45.4516962 C91.7576947,30.0565242 126.274075,40.7535642 129.277015,40.3581522" id="Fill-25" fill="#BC7551"></path> <g id="Group-29" transform="translate(82.336000, 0.000000)"> <mask id="mask-6" fill="white"> <use xlink:href="#path-5"></use> </mask> <g id="Clip-28"></g> <path d="M7.26362876,28.2835115 C-2.26643119,24.2590075 -4.61035118,6.36121957 14.2973807,9.53746355 C4.67070878,-0.249896399 25.8493207,-3.74751638 32.3956966,6.58531957 C46.7364366,-1.11608439 55.2429405,6.97043956 48.5684125,12.2329715 C62.0459525,14.0297555 60.3915965,25.8682115 53.9521245,27.1938875 L7.26362876,28.2835115 Z" id="Fill-27" fill="#172755" mask="url(#mask-6)"></path> </g> <path d="M136.642634,34.4025702 C134.356814,32.8816782 132.529154,34.8179022 132.529154,34.8179022 C131.264566,34.4493822 130.583302,34.5300582 129.843606,28.7290223 C129.39441,25.2061703 127.972786,22.5455223 124.550862,23.4960383 C117.619698,25.4213063 110.688202,27.3469063 103.17969,23.5282423 C98.5745179,21.1863143 96.0456739,23.7095143 95.5357219,27.2403343 C94.6462939,33.3962782 93.8129739,37.7155982 92.3714299,37.5668622 C92.3714299,37.5668622 91.5401019,34.5592742 88.7021659,35.5403342 C86.366214,36.3477582 89.5006259,48.0401341 92.7356339,47.3827742 C93.1114579,49.0759741 92.8106659,54.8793341 94.5015419,58.9224301 C96.1363099,62.8313981 104.995066,70.955438 112.55869,70.955438 C120.122314,70.955438 128.98107,62.8313981 130.615506,58.9224301 C132.306382,54.8793341 132.00559,49.0759741 132.381746,47.3827742 C135.411578,47.4358942 138.699042,35.7707422 136.642634,34.4025702" id="Fill-30" fill="#BC7551"></path> <path d="M112.924089,72.6358228 C105.154957,72.6358228 99.2427011,66.7119469 97.0611291,64.1655069 C96.8157811,63.8789909 96.8493131,63.4480549 97.1354971,63.2027069 C97.4220131,62.9576909 97.8529491,62.9905589 98.0982971,63.2770749 C100.156697,65.6804229 105.722013,71.2703068 112.924089,71.2703068 C118.607265,71.2703068 124.270853,67.6830468 128.462353,61.4284989 C128.672509,61.1150909 129.096473,61.0310949 129.409549,61.2412509 C129.722957,61.4510749 129.806621,61.8753709 129.596797,62.1884469 C125.147333,68.8277828 119.070405,72.6358228 112.924089,72.6358228" id="Fill-32" fill="#804737"></path> <path d="M103.85116,44.3057318 L103.85116,44.3057318 C102.902968,44.3057318 102.134388,43.5371518 102.134388,42.5889598 L102.134388,41.3260318 C102.134388,40.3778398 102.902968,39.6092598 103.85116,39.6092598 C104.799352,39.6092598 105.567932,40.3778398 105.567932,41.3260318 L105.567932,42.5889598 C105.567932,43.5371518 104.799352,44.3057318 103.85116,44.3057318" id="Fill-34" fill="#804737"></path> <path d="M121.067153,44.3057318 L121.067153,44.3057318 C120.118961,44.3057318 119.350381,43.5371518 119.350381,42.5889598 L119.350381,41.3260318 C119.350381,40.3778398 120.118961,39.6092598 121.067153,39.6092598 C122.015345,39.6092598 122.783925,40.3778398 122.783925,41.3260318 L122.783925,42.5889598 C122.783925,43.5371518 122.015345,44.3057318 121.067153,44.3057318" id="Fill-36" fill="#804737"></path> <path d="M112.138942,53.9701853 C111.399246,53.9701853 110.437442,53.9399733 109.181818,53.8616213 C108.805662,53.8380493 108.51981,53.5140173 108.543382,53.1375293 C108.566622,52.7613733 108.890322,52.4758533 109.267142,52.4987613 C111.00981,52.6073253 113.095102,52.6431813 113.774374,52.5303013 C113.897214,51.9164333 113.875634,50.0904333 113.856378,48.4619733 C113.778358,41.8598214 113.927094,35.8137694 116.567822,34.3675774 C116.898826,34.1866374 117.313494,34.3081494 117.494434,34.6384894 C117.675374,34.9691614 117.554194,35.3841614 117.223522,35.5654334 C115.08345,36.7370614 115.170102,44.0666254 115.221562,48.4457053 C115.26771,52.3520173 115.225214,53.2288293 114.666458,53.6365253 C114.535982,53.7318093 114.209294,53.9701853 112.138942,53.9701853 L112.138942,53.9701853 Z" id="Fill-38" fill="#804737"></path> <path d="M110.552115,59.1805933 C109.058447,59.1805933 107.519295,58.8844493 106.111283,58.0687253 C104.282959,57.0093133 103.554883,55.5687653 103.524671,55.5080093 C103.357343,55.1703653 103.495787,54.7606773 103.833431,54.5933493 C104.172071,54.4263533 104.581095,54.5644653 104.748423,54.9024413 C104.843707,55.0900213 107.210867,59.5441333 114.710747,57.0860053 C115.068975,56.9684773 115.454759,57.1640253 115.572287,57.5222533 C115.689483,57.8801493 115.494267,58.2659333 115.136039,58.3834613 C113.831611,58.8107453 112.220747,59.1805933 110.552115,59.1805933" id="Fill-40" fill="#804737"></path> <path d="M98.0805351,37.0306822 C98.0805351,37.0306822 104.209255,34.9722822 108.750019,35.8441142 C109.647083,36.0164222 109.468467,33.1366542 107.123883,33.0138142 C104.603007,32.8816782 98.8013071,33.6007902 98.0805351,34.9905422 C97.5164671,36.0781742 98.0805351,37.0306822 98.0805351,37.0306822" id="Fill-42" fill="#172755"></path> <path d="M127.036347,36.5560218 C127.036347,36.5560218 120.907295,34.9723818 116.366863,35.8438818 C115.469799,36.0161898 115.203535,33.4063378 117.518239,33.0135818 C119.877099,32.6135218 126.315575,33.1261298 127.036347,34.5158818 C127.600415,35.6035138 127.036347,36.5560218 127.036347,36.5560218" id="Fill-44" fill="#172755"></path> <path d="M89.8272143,27.6008531 C92.6820823,24.8950531 99.8190863,18.4469491 112.558258,18.4356422 C125.746958,18.4237091 134.099082,24.0823171 136.060538,26.7386491 C138.022658,29.394981 133.655198,35.752117 132.228926,34.982541 C130.802654,34.213297 125.44517,28.2834451 113.304594,28.6164411 C95.2896103,29.110125 93.2750343,39.171053 92.2611063,37.635221 C91.2471783,36.099057 88.5772343,28.7854291 89.8272143,27.6008531" id="Fill-46" fill="#E2A346"></path> <path d="M161.917262,279.741074 C161.85219,279.17933 162.254906,278.671038 162.81665,278.605966 C163.377398,278.541226 163.886686,278.943278 163.951758,279.505022" id="Fill-48" fill="#FFFFFF"></path> <path d="M166.923856,278.148669 C166.858452,277.586925 167.260836,277.078301 167.82258,277.012897 C168.383328,276.947161 168.892616,277.349877 168.95802,277.911621" id="Fill-50" fill="#FFFFFF"></path> <path d="M59.0544997,278.809017 C59.1272077,278.248269 59.6411437,277.853189 60.2015597,277.924901 C60.7623077,277.997277 61.1580517,278.510881 61.0856757,279.071629" id="Fill-52" fill="#FFFFFF"></path> <path d="M54.0487033,277.893527 C54.1243993,277.333111 54.6406593,276.940023 55.2000793,277.015055 C55.7604953,277.090751 56.1539153,277.606347 56.0785513,278.166763" id="Fill-54" fill="#FFFFFF"></path> <path d="M113.30486,97.5777211 L113.304528,97.5777211 C102.346204,97.5777211 94.5149879,94.9027971 90.0280079,89.6269851 C86.5659119,85.5563332 86.5257399,81.4451772 86.5257399,81.2722052 C86.5257399,80.5182332 87.1372839,79.9066892 87.8912559,79.9066892 C88.6429039,79.9066892 89.2527879,80.5142492 89.2567719,81.2652332 C89.2577679,81.3286452 89.3427599,84.6944612 92.2265119,87.9952051 C96.1431159,92.4775371 103.431844,94.8470211 113.304528,94.8470211 C122.789768,94.8470211 129.691716,92.7570811 133.2647,88.8032931 C136.23776,85.5131732 135.929,82.0889252 135.925348,82.0547292 C135.84932,81.3044092 136.395792,80.6347652 137.146112,80.5587372 C137.895436,80.4830412 138.566076,81.0288492 138.642104,81.7791692 C138.66136,81.9680772 139.06806,86.4543931 135.290896,90.6342731 C131.127284,95.2414371 123.729328,97.5777211 113.30486,97.5777211 L113.30486,97.5777211 Z" id="Fill-56" fill="#FFFFFF"></path> <path d="M53.8470465,172.942683 C15.4482587,168.944408 8.56058676,159.90936 8.28602276,159.526564 L10.5051107,157.935288 L10.4908347,157.9157 C10.5071027,157.936616 12.1920027,160.055772 18.4043867,162.624456 C24.1290627,164.991616 34.9741746,168.231936 54.1299105,170.226592 L53.8470465,172.942683 Z" id="Fill-58" fill="#FFFFFF"></path> <path d="M169.210572,171.559638 L168.829768,168.855498 C169.148488,168.810678 200.816972,164.288174 211.042904,157.588746 L212.53956,159.872906 C201.804672,166.905994 170.53658,171.373054 169.210572,171.559638" id="Fill-60" fill="#FFFFFF"></path> <path d="M8.28442916,277.320694 L19.0740971,279.183878 C20.0760731,279.35685 21.0687531,278.83229 21.4907251,277.907006 L27.0102251,264.522426 C27.6304011,263.162222 26.7678651,261.588542 25.2881411,261.378718 L8.61045316,259.015874 C7.19945316,258.81601 5.96374917,259.968382 6.06434517,261.389674 L6.43319717,275.273914 C6.50590517,276.30079 7.26983716,277.145398 8.28442916,277.320694" id="Fill-62" fill="#7EC2EE"></path> <path d="M9.14069035,274.789858 C8.88936635,274.789858 8.68551835,274.58601 8.68551835,274.334686 L8.68551835,262.25387 C8.68551835,262.002546 8.88936635,261.798698 9.14069035,261.798698 C9.39201435,261.798698 9.59586235,262.002546 9.59586235,262.25387 L9.59586235,274.334686 C9.59586235,274.58601 9.39201435,274.789858 9.14069035,274.789858" id="Fill-64" fill="#B4E8FF"></path> <path d="M11.8717555,275.244964 C11.8661115,275.244964 11.8601355,275.244964 11.8544915,275.244632 C11.6031675,275.235336 11.4072875,275.023852 11.4165835,274.77286 L11.8717555,262.692044 C11.8813835,262.44072 12.0951915,262.242516 12.3435275,262.254136 C12.5948515,262.263764 12.7910635,262.474916 12.7814355,262.72624 L12.3262635,274.807056 C12.3169675,275.052404 12.1151115,275.244964 11.8717555,275.244964" id="Fill-66" fill="#B4E8FF"></path> <path d="M14.6028207,275.700103 C14.5855567,275.700103 14.5682927,275.699439 14.5510287,275.697115 C14.3013647,275.668895 14.1217527,275.443799 14.1499727,275.193803 L15.5154887,263.112987 C15.5437087,262.863323 15.7704647,262.683711 16.0188007,262.711931 C16.2684647,262.740151 16.4480767,262.965579 16.4198567,263.215243 L15.0543407,275.296059 C15.0284447,275.528459 14.8312367,275.700103 14.6028207,275.700103" id="Fill-68" fill="#B4E8FF"></path> <path d="M17.1059347,276.155374 C17.0720707,276.155374 17.0375427,276.151722 17.0030147,276.143754 C16.7583307,276.087314 16.6056107,275.842962 16.6620507,275.597946 L19.3927507,263.74455 C19.4491907,263.499534 19.6935427,263.345818 19.9385587,263.403254 C20.1835747,263.459694 20.3359627,263.704046 20.2798547,263.949062 L17.5488227,275.802458 C17.5003507,276.012946 17.3131027,276.155374 17.1059347,276.155374" id="Fill-70" fill="#B4E8FF"></path> <path d="M19.6087499,276.838099 C19.5645939,276.838099 19.5194419,276.831459 19.4749539,276.817847 C19.2349179,276.744143 19.0997939,276.489499 19.1734979,276.249131 L22.8148739,264.395735 C22.8885779,264.156031 23.1432219,264.020575 23.3835899,264.094611 C23.6236259,264.168315 23.7587499,264.422959 23.6847139,264.663327 L20.0436699,276.516391 C19.9835779,276.712271 19.8033019,276.838099 19.6087499,276.838099" id="Fill-72" fill="#B4E8FF"></path> <path d="M213.567266,276.10408 L202.777598,277.967264 C201.775622,278.140236 200.782942,277.615676 200.36097,276.690392 L194.84147,263.305812 C194.221294,261.945608 195.08383,260.371928 196.563554,260.162104 L213.241242,257.79926 C214.652242,257.599396 215.887946,258.751768 215.78735,260.17306 L215.418498,274.0573 C215.34579,275.084176 214.581858,275.928784 213.567266,276.10408" id="Fill-74" fill="#7EC2EE"></path> <path d="M212.497661,273.132282 C212.246337,273.132282 212.042489,272.928434 212.042489,272.67711 L212.042489,260.596294 C212.042489,260.34497 212.246337,260.141122 212.497661,260.141122 C212.748985,260.141122 212.952833,260.34497 212.952833,260.596294 L212.952833,272.67711 C212.952833,272.928434 212.748985,273.132282 212.497661,273.132282" id="Fill-76" fill="#B4E8FF"></path> <path d="M209.766596,273.587421 C209.52324,273.587421 209.321384,273.394529 209.312088,273.149513 L208.856916,261.068365 C208.847288,260.817373 209.0435,260.606221 209.294824,260.596593 C209.54482,260.588293 209.756968,260.783177 209.766596,261.034169 L210.221768,273.114985 C210.231064,273.366309 210.035184,273.577461 209.78386,273.587089 C209.778216,273.587421 209.77224,273.587421 209.766596,273.587421" id="Fill-78" fill="#B4E8FF"></path> <path d="M207.035564,274.042526 C206.807148,274.042526 206.60994,273.870882 206.584044,273.638482 L205.218528,261.557666 C205.190308,261.308002 205.36992,261.082574 205.619584,261.054354 C205.868584,261.02547 206.094676,261.205414 206.122896,261.45541 L207.488412,273.536226 C207.516632,273.786222 207.33702,274.011318 207.087356,274.039538 C207.070092,274.04153 207.052496,274.042526 207.035564,274.042526" id="Fill-80" fill="#B4E8FF"></path> <path d="M204.532417,274.497731 C204.325249,274.497731 204.138001,274.355303 204.089529,274.144815 L201.358497,262.291419 C201.302389,262.046403 201.454777,261.802051 201.699793,261.745943 C201.945141,261.689171 202.189161,261.841891 202.245601,262.086907 L204.976301,273.940303 C205.032741,274.185319 204.880021,274.429671 204.635005,274.486111 C204.600809,274.494079 204.566281,274.497731 204.532417,274.497731" id="Fill-82" fill="#B4E8FF"></path> <path d="M202.029602,275.180456 C201.83505,275.180456 201.654774,275.054628 201.594682,274.858748 L197.953638,263.005684 C197.879602,262.765316 198.014726,262.510672 198.254762,262.436968 C198.496126,262.362932 198.749774,262.498056 198.823478,262.738092 L202.464854,274.591488 C202.538558,274.831856 202.403434,275.0865 202.163398,275.160204 C202.11891,275.173816 202.073758,275.180456 202.029602,275.180456" id="Fill-84" fill="#B4E8FF"></path> </g> <g id="Group-89" transform="translate(0.000000, 279.217643)"> <mask id="mask-8" fill="white"> <use xlink:href="#path-7"></use> </mask> <g id="Clip-88"></g> <path d="M271.446319,40.836033 L16.8919607,40.836033 C7.56276076,40.836033 0.000132799999,33.273405 0.000132799999,23.9442051 L0.000132799999,0.0973091995 L288.338147,0.0973091995 L288.338147,23.9442051 C288.338147,33.273405 280.775519,40.836033 271.446319,40.836033" id="Fill-87" fill="#F1F2F2" mask="url(#mask-8)"></path> </g> <mask id="mask-10" fill="white"> <use xlink:href="#path-9"></use> </mask> <g id="Clip-91"></g> <polygon id="Fill-90" fill="#D1D3D4" mask="url(#mask-10)" points="0 288.776918 288.338014 288.776918 288.338014 279.314919 0 279.314919"></polygon> <polygon id="Fill-92" fill="#C49A6C" mask="url(#mask-10)" points="0 279.314919 288.338014 279.314919 288.338014 257.112087 0 257.112087"></polygon> <polygon id="Fill-93" fill="#937451" mask="url(#mask-10)" points="0 279.314919 288.338014 279.314919 288.338014 268.213503 0 268.213503"></polygon> <path d="M43.4688211,260.208418 C43.4847622,263.504182 87.2194539,265.959654 141.151526,265.697042 C195.082601,265.434762 238.790401,262.553666 238.774801,259.258566 C238.759193,255.965458 195.024833,253.509654 141.093758,253.771934 C87.1616859,254.033882 43.4515622,256.915974 43.4688211,260.208418" id="Fill-94" fill="#B5B6B6" mask="url(#mask-10)"></path> <path d="M59.5990094,259.374534 C59.6126249,262.122498 96.1210047,264.173926 141.141864,263.955802 C186.165048,263.736682 222.65218,261.329682 222.638904,258.581386 C222.626616,255.83309 186.116908,253.780002 141.09472,253.999454 C96.0725327,254.217578 59.5860649,256.62657 59.5990094,259.374534" id="Fill-95" fill="#EDEDEE" mask="url(#mask-10)"></path> <path d="M117.329065,240.763643 C117.998709,240.998367 118.743385,241.051155 119.483413,240.867227 C121.507285,240.367567 122.744649,238.320787 122.245321,236.294923 C122.117501,235.781319 121.889749,235.320171 121.589289,234.924095 L129.233257,224.443519 L155.270025,232.895243 C155.180053,233.400215 155.188353,233.932079 155.319493,234.465603 C155.818821,236.489475 157.866597,237.725511 159.891133,237.226183 C161.024913,236.944647 161.913013,236.179055 162.385449,235.202975 L184.274209,242.308771 L99.3110931,265.463115 L117.329065,240.763643 Z" id="Fill-96" fill="#FCC066" mask="url(#mask-10)"></path> <polygon id="Fill-97" fill="#FBB040" mask="url(#mask-10)" points="186.974531 253.239572 184.274043 242.308804 99.3109271 265.463148 101.884923 275.877656"></polygon> <polygon id="Fill-98" fill="#FBB040" mask="url(#mask-10)" points="186.971609 253.237945 101.884989 275.879349 100.757185 271.301401 99.3109935 265.461853 184.275105 242.30585 186.025077 249.392722"></polygon> <path d="M165.206154,242.991994 C165.63211,244.711754 167.371126,245.762866 169.090222,245.338902 C169.736626,245.178214 170.28509,244.833598 170.70009,244.374442 C171.390318,243.61051 171.702398,242.529518 171.436798,241.453838 C171.012502,239.731754 169.270498,238.682966 167.551402,239.107926 C166.480702,239.372198 165.67029,240.145758 165.31339,241.106234 C165.095598,241.68823 165.046794,242.343598 165.206154,242.991994" id="Fill-99" fill="#BC8430" mask="url(#mask-10)"></path> <path d="M165.206154,242.991994 C165.63211,244.711754 167.371126,245.762866 169.090222,245.338902 C169.736626,245.178214 170.28509,244.833598 170.70009,244.374442 C170.918546,243.790454 170.969342,243.141062 170.808654,242.489346 C170.383362,240.770582 168.64667,239.71781 166.922926,240.144762 C166.278182,240.303458 165.728058,240.648074 165.31339,241.106234 C165.095598,241.68823 165.046794,242.343598 165.206154,242.991994" id="Fill-100" fill="#FBB040" mask="url(#mask-10)"></path> <path d="M119.142117,249.776912 C119.565749,251.49634 121.306425,252.546788 123.025189,252.122492 C123.671261,251.962468 124.223045,251.617188 124.636385,251.159028 C125.325949,250.393104 125.637365,249.314104 125.370105,248.238756 C124.945809,246.516672 123.205465,245.46722 121.485373,245.892512 C120.416333,246.15778 119.605589,246.930676 119.250017,247.891484 C119.030897,248.473148 118.982425,249.130176 119.142117,249.776912" id="Fill-101" fill="#BC8430" mask="url(#mask-10)"></path> <path d="M119.142117,249.776912 C119.565749,251.49634 121.306425,252.546788 123.025189,252.122492 C123.671261,251.962468 124.223045,251.617188 124.636385,251.159028 C124.854509,250.575704 124.905637,249.92598 124.744285,249.274596 C124.318329,247.555832 122.580309,246.502728 120.859221,246.930012 C120.213149,247.08904 119.663025,247.432992 119.250017,247.891484 C119.030897,248.473148 118.982425,249.130176 119.142117,249.776912" id="Fill-102" fill="#FBB040" mask="url(#mask-10)"></path> <path d="M143.431934,247.311546 C143.859218,249.030974 145.598234,250.081422 147.31733,249.657126 C147.964398,249.496438 148.514522,249.152154 148.928526,248.69499 C149.618422,247.929398 149.92851,246.848074 149.663906,245.772394 C149.237618,244.050974 147.497606,243.003182 145.778178,243.426814 C144.709802,243.691418 143.89773,244.46531 143.541494,245.425454 C143.322706,246.007782 143.27357,246.66315 143.431934,247.311546" id="Fill-103" fill="#BC8430" mask="url(#mask-10)"></path> <path d="M143.431934,247.311546 C143.859218,249.030974 145.598234,250.081422 147.31733,249.657126 C147.964398,249.496438 148.514522,249.152154 148.928526,248.69499 C149.146318,248.110006 149.196782,247.458954 149.03543,246.808234 C148.611798,245.08947 146.87245,244.037362 145.151362,244.463318 C144.503962,244.622678 143.954834,244.966962 143.541494,245.425454 C143.322706,246.007782 143.27357,246.66315 143.431934,247.311546" id="Fill-104" fill="#FBB040" mask="url(#mask-10)"></path> <path d="M113.786658,255.696837 C113.971582,256.450809 114.73319,256.910297 115.487162,256.723713 C115.768034,256.653993 116.011058,256.502601 116.191334,256.301741 C116.49279,255.967749 116.629574,255.493985 116.511714,255.024537 C116.32679,254.269569 115.565182,253.812073 114.81287,253.998325 C114.34475,254.113197 113.990174,254.451837 113.833138,254.872481 C113.736858,255.126793 113.716938,255.413641 113.786658,255.696837" id="Fill-105" fill="#BC8430" mask="url(#mask-10)"></path> <path d="M113.786658,255.696837 C113.971582,256.450809 114.73319,256.910297 115.487162,256.723713 C115.768034,256.653993 116.011058,256.502601 116.191334,256.301741 C116.28529,256.047429 116.308198,255.762241 116.238146,255.477053 C116.052226,254.725737 115.290618,254.264921 114.537974,254.451837 C114.254778,254.521225 114.014078,254.672285 113.833138,254.872481 C113.736858,255.126793 113.716938,255.413641 113.786658,255.696837" id="Fill-106" fill="#FBB040" mask="url(#mask-10)"></path> <path d="M147.634124,237.864785 C147.820376,238.616765 148.58298,239.076253 149.334628,238.890001 C149.618156,238.820613 149.858524,238.669553 150.04046,238.468361 C150.340588,238.134701 150.477704,237.660273 150.3625,237.188833 C150.175252,236.436853 149.41464,235.978361 148.661332,236.163285 C148.192548,236.279817 147.838968,236.617461 147.682596,237.038769 C147.585984,237.293413 147.565732,237.580261 147.634124,237.864785" id="Fill-107" fill="#BC8430" mask="url(#mask-10)"></path> <path d="M147.634124,237.864785 C147.820376,238.616765 148.58298,239.076253 149.334628,238.890001 C149.618156,238.820613 149.858524,238.669553 150.04046,238.468361 C150.136076,238.213053 150.158652,237.928861 150.087272,237.643009 C149.90102,236.891361 149.141072,236.431209 148.3871,236.617461 C148.105232,236.688177 147.863868,236.837245 147.682596,237.038769 C147.585984,237.293413 147.565732,237.580261 147.634124,237.864785" id="Fill-108" fill="#FBB040" mask="url(#mask-10)"></path> <path d="M127.882083,234.947468 C128.618791,237.93746 131.648291,239.76512 134.638615,239.02808 C135.763099,238.748868 136.720919,238.149276 137.440031,237.35148 C138.638551,236.020492 139.181703,234.13938 138.720555,232.268892 C137.980527,229.273588 134.951027,227.450244 131.961035,228.189276 C130.099511,228.64976 128.688843,229.994692 128.068667,231.666312 C127.688527,232.679244 127.603867,233.818004 127.882083,234.947468" id="Fill-109" fill="#BC8430" mask="url(#mask-10)"></path> <path d="M127.882083,234.947468 C128.618791,237.93746 131.648291,239.76512 134.638615,239.02808 C135.763099,238.748868 136.720919,238.149276 137.440031,237.35148 C137.819507,236.335892 137.907155,235.205764 137.627611,234.070988 C136.888911,231.080996 133.865055,229.251676 130.868755,229.991372 C129.745599,230.269588 128.788443,230.869844 128.068667,231.666312 C127.688527,232.679244 127.603867,233.818004 127.882083,234.947468" id="Fill-110" fill="#FBB040" mask="url(#mask-10)"></path> <path d="M141.562807,256.295964 C141.749391,257.04728 142.510003,257.507764 143.262979,257.320516 C143.545179,257.250796 143.785215,257.101396 143.967483,256.900204 C144.268939,256.564552 144.405723,256.092116 144.290187,255.621672 C144.102939,254.867036 143.341331,254.408212 142.588687,254.594132 C142.120567,254.71 141.765659,255.048308 141.610283,255.469948 C141.514335,255.722932 141.493087,256.010776 141.562807,256.295964" id="Fill-111" fill="#BC8430" mask="url(#mask-10)"></path> <path d="M141.562807,256.295964 C141.749391,257.04728 142.510003,257.507764 143.262979,257.320516 C143.545179,257.250796 143.785215,257.101396 143.967483,256.900204 C144.061439,256.644896 144.084015,256.360704 144.014627,256.07452 C143.828375,255.322208 143.066767,254.861724 142.314123,255.047644 C142.030927,255.11836 141.789895,255.268756 141.610283,255.469948 C141.514335,255.722932 141.493087,256.010776 141.562807,256.295964" id="Fill-112" fill="#FBB040" mask="url(#mask-10)"></path> <path d="M169.283844,253.75799 C169.470428,254.509638 170.231704,254.969126 170.983352,254.784534 C171.266548,254.713818 171.506252,254.56309 171.68852,254.363558 C171.99064,254.028238 172.126428,253.555802 172.01056,253.084362 C171.823976,252.33205 171.062036,251.871566 170.310056,252.057818 C169.841272,252.173354 169.486364,252.510998 169.329992,252.933302 C169.235704,253.185954 169.21346,253.473466 169.283844,253.75799" id="Fill-113" fill="#BC8430" mask="url(#mask-10)"></path> <path d="M169.283844,253.75799 C169.470428,254.509638 170.231704,254.969126 170.983352,254.784534 C171.266548,254.713818 171.506252,254.56309 171.68852,254.363558 C171.781812,254.106922 171.805384,253.82273 171.734668,253.538206 C171.548416,252.784566 170.788468,252.325078 170.035824,252.510334 C169.753624,252.580386 169.51226,252.73211 169.329992,252.933302 C169.235704,253.185954 169.21346,253.473466 169.283844,253.75799" id="Fill-114" fill="#FBB040" mask="url(#mask-10)"></path> <path d="M176.632598,247.629304 C176.939034,248.869656 178.13191,249.639896 179.30055,249.352052 C180.46421,249.063876 181.161078,247.826512 180.85431,246.58616 C180.549866,245.345144 179.354998,244.575236 178.19001,244.86474 C177.022698,245.15192 176.325498,246.38862 176.632598,247.629304" id="Fill-115" fill="#FCC066" mask="url(#mask-10)"></path> <path d="M132.787184,260.844431 C133.094284,262.083787 134.286496,262.854691 135.45248,262.567843 C136.619128,262.278671 137.317324,261.039979 137.01122,259.799959 C136.704452,258.561931 135.51058,257.790031 134.344596,258.078871 C133.177616,258.366051 132.481412,259.606071 132.787184,260.844431" id="Fill-116" fill="#FCC066" mask="url(#mask-10)"></path> <path d="M119.703662,267.94777 C120.011094,269.187458 121.203306,269.959358 122.370286,269.668858 C123.53461,269.38201 124.234134,268.144314 123.925706,266.90363 C123.62093,265.665602 122.428054,264.892042 121.260078,265.181214 C120.094094,265.469722 119.398554,266.707086 119.703662,267.94777" id="Fill-117" fill="#FCC066" mask="url(#mask-10)"></path> <path d="M102.686072,270.213404 C103.227232,272.40726 105.34174,273.774104 107.407444,273.263156 C109.471156,272.75254 110.705864,270.560676 110.163376,268.36516 C109.621552,266.168316 107.507708,264.803464 105.443664,265.313416 C103.377628,265.8237 102.14292,268.017556 102.686072,270.213404" id="Fill-118" fill="#FCC066" mask="url(#mask-10)"></path> <path d="M154.200852,256.074553 C154.52754,257.395913 155.80242,258.219273 157.045096,257.910181 C158.288768,257.604077 159.033112,256.281721 158.70742,254.960361 C158.378076,253.637341 157.106516,252.815309 155.86052,253.122409 C154.619172,253.428513 153.87516,254.751201 154.200852,256.074553" id="Fill-119" fill="#FCC066" mask="url(#mask-10)"></path> <path d="M142.755949,226.55992 C142.755949,226.55992 144.552401,237.81306 135.424061,236.4751 C135.122605,233.164396 131.679101,229.046268 142.755949,226.55992" id="Fill-120" fill="#39B54A" mask="url(#mask-10)"></path> <path d="M135.424692,236.474203 C135.394148,236.162455 135.3397,235.847387 135.26998,235.524019 C140.059744,233.176779 142.033152,228.280111 142.584936,226.603179 C142.643036,226.589567 142.70014,226.576287 142.758904,226.562011 C142.758904,226.562011 144.552368,237.812827 135.424692,236.474203" id="Fill-121" fill="#2B8838" mask="url(#mask-10)"></path> <path d="M135.984942,234.015976 C136.838846,234.26066 137.690426,234.52128 138.544662,234.767292 C138.647582,234.796176 138.815242,234.641464 138.671154,234.600296 C137.815922,234.354616 136.965338,234.092668 136.11077,233.84898 C136.00785,233.8191 135.840522,233.974144 135.984942,234.015976" id="Fill-122" fill="#39B54A" mask="url(#mask-10)"></path> <path d="M138.318669,232.280778 C139.200129,232.235958 140.065985,232.350498 140.934497,232.47699 C141.056341,232.494918 141.161585,232.31597 141.003553,232.293062 C140.111801,232.16325 139.227353,232.052694 138.325641,232.099506 C138.187529,232.10681 138.159641,232.290074 138.318669,232.280778" id="Fill-123" fill="#39B54A" mask="url(#mask-10)"></path> <path d="M140.856975,229.50383 C141.157767,229.484574 141.455903,229.46897 141.755367,229.503166 C141.814795,229.510138 142.013331,229.403234 141.941619,229.395598 C141.627547,229.359078 141.317127,229.37103 141.002391,229.391614 C140.949271,229.395266 140.739115,229.511466 140.856975,229.50383" id="Fill-124" fill="#39B54A" mask="url(#mask-10)"></path> <path d="M139.209292,235.911065 C139.844076,240.032181 135.949384,243.310017 132.021825,243.566653 C128.093269,243.823289 123.804493,241.080969 123.896789,236.911713 C123.971821,233.522989 127.326681,231.200317 131.195809,230.946005 C135.0656,230.691693 138.693032,232.559525 139.209292,235.911065" id="Fill-125" fill="#B03829" mask="url(#mask-10)"></path> <path d="M138.841005,236.01674 C139.401089,239.270008 136.392837,242.967824 132.000809,243.255336 C130.044665,243.383488 128.220657,242.80614 126.861117,241.827404 C125.168581,240.610292 124.203125,238.798568 124.276497,236.968916 C124.407637,233.6695 127.520137,231.49988 131.216957,231.256524 C133.650517,231.097164 135.878901,231.817604 137.343353,233.236904 C138.103301,233.97328 138.649773,234.905204 138.841005,236.01674" id="Fill-126" fill="#EB4B36" mask="url(#mask-10)"></path> <path d="M134.017908,233.530957 C134.051772,233.845693 133.864856,234.768321 133.469112,235.641813 C133.056768,236.553153 132.409036,237.411373 131.621864,237.462833 C130.83436,237.514957 130.08238,236.748701 129.555496,235.898781 C129.049528,235.083721 128.742096,234.192301 128.73446,233.876237 C128.71786,233.230497 129.872224,232.732497 131.306464,232.638873 C132.384136,232.567825 133.331332,232.746109 133.768576,233.110313 C133.912664,233.230497 134.001972,233.370601 134.017908,233.530957" id="Fill-127" fill="#B03829" mask="url(#mask-10)"></path> <path d="M131.621931,237.462766 C131.663763,238.105518 130.730511,238.753914 129.675083,239.17655 C128.661487,239.58325 127.541651,239.776806 127.140263,239.751906 C126.323211,239.70111 125.680127,238.609826 125.705027,237.352542 C125.723951,236.30143 126.180451,235.46313 126.773071,235.24567 C126.774067,235.243678 126.775063,235.24567 126.776391,235.24567 C126.890931,235.203506 127.010783,235.184914 127.135615,235.192218 C127.509779,235.21579 128.558899,235.508282 129.555231,235.897718 L129.555231,235.898714 C130.591735,236.304086 131.580099,236.821342 131.621931,237.462766" id="Fill-128" fill="#B03829" mask="url(#mask-10)"></path> <path d="M128.919251,241.195177 C128.902983,240.549437 130.080255,237.563429 131.622063,237.462833 C133.162211,237.362237 134.719955,240.168633 134.787019,240.812049 C134.855079,241.454801 133.584847,242.179889 131.937795,242.287125 C130.290743,242.395689 128.935519,241.841581 128.919251,241.195177" id="Fill-129" fill="#B03829" mask="url(#mask-10)"></path> <path d="M136.362326,239.147733 C135.558554,239.304769 131.704034,238.722441 131.62203,237.462833 C131.539362,236.203889 135.022042,234.773633 135.774354,234.626557 C136.528326,234.479149 137.286946,235.340357 137.474858,236.583365 C137.662438,237.826373 137.167426,238.991693 136.362326,239.147733" id="Fill-130" fill="#B03829" mask="url(#mask-10)"></path> <path d="M129.698987,233.922617 C129.634911,233.723749 129.680727,233.541149 129.802239,233.513925 C129.922755,233.485373 130.073151,233.620829 130.138887,233.818701 C130.204623,234.015245 130.038291,234.228389 130.038291,234.228389 C130.038291,234.228389 129.763727,234.120821 129.698987,233.922617" id="Fill-131" fill="#EF6F5E" mask="url(#mask-10)"></path> <path d="M131.109356,233.520897 C131.096408,233.316053 131.18638,233.145405 131.311876,233.137105 C131.43704,233.128473 131.551248,233.286837 131.564528,233.491681 C131.578472,233.696525 131.361012,233.877465 131.361012,233.877465 C131.361012,233.877465 131.121308,233.725077 131.109356,233.520897" id="Fill-132" fill="#EF6F5E" mask="url(#mask-10)"></path> <path d="M132.587154,233.602934 C132.696382,233.41635 132.87367,233.301146 132.985886,233.34663 C133.096442,233.390454 133.100758,233.58069 132.991862,233.768602 C132.883298,233.956182 132.590806,234.025238 132.590806,234.025238 C132.590806,234.025238 132.477926,233.78985 132.587154,233.602934" id="Fill-133" fill="#EF6F5E" mask="url(#mask-10)"></path> <path d="M127.196669,238.925957 C126.948001,238.960153 126.719585,238.897405 126.688709,238.790169 C126.656173,238.681273 126.831801,238.570385 127.080469,238.536521 C127.328141,238.503653 127.587433,238.668989 127.587433,238.668989 C127.587433,238.668989 127.446001,238.892425 127.196669,238.925957" id="Fill-134" fill="#EF6F5E" mask="url(#mask-10)"></path> <path d="M126.765468,237.667013 C126.513812,237.648421 126.310628,237.541849 126.311949,237.432953 C126.313616,237.324721 126.517796,237.254669 126.768124,237.272929 C127.018784,237.291521 127.221304,237.499353 127.221304,237.499353 C127.221304,237.499353 127.018452,237.685273 126.765468,237.667013" id="Fill-135" fill="#EF6F5E" mask="url(#mask-10)"></path> <path d="M127.011214,236.416834 C126.800062,236.295654 126.686518,236.123014 126.75657,236.036694 C126.824962,235.949378 127.049062,235.978594 127.25955,236.097782 C127.469706,236.217634 127.518178,236.473274 127.518178,236.473274 C127.518178,236.473274 127.222034,236.538678 127.011214,236.416834" id="Fill-136" fill="#EF6F5E" mask="url(#mask-10)"></path> <path d="M133.723856,240.904013 C133.803204,241.095245 133.759712,241.283489 133.627244,241.325321 C133.492452,241.366489 133.318484,241.242653 133.2398,241.050425 C133.159788,240.857865 133.33774,240.630777 133.33774,240.630777 C133.33774,240.630777 133.642848,240.713445 133.723856,240.904013" id="Fill-137" fill="#EF6F5E" mask="url(#mask-10)"></path> <path d="M132.165315,241.401382 C132.179591,241.606226 132.075343,241.781854 131.935571,241.791814 C131.793475,241.800778 131.669307,241.64009 131.657023,241.435246 C131.644075,241.229406 131.886435,241.04747 131.886435,241.04747 C131.886435,241.04747 132.151039,241.196538 132.165315,241.401382" id="Fill-138" fill="#EF6F5E" mask="url(#mask-10)"></path> <path d="M130.516371,241.28661 C130.385895,241.464894 130.180055,241.563498 130.056883,241.508386 C129.935039,241.453938 129.943339,241.264698 130.074479,241.088406 C130.205619,240.912114 130.531311,240.866298 130.531311,240.866298 C130.531311,240.866298 130.647179,241.108326 130.516371,241.28661" id="Fill-139" fill="#EF6F5E" mask="url(#mask-10)"></path> <path d="M135.826744,235.458449 C136.054828,235.365821 136.276272,235.366817 136.32076,235.464425 C136.366244,235.562033 136.216844,235.722389 135.988096,235.816345 C135.757356,235.910965 135.49076,235.805721 135.49076,235.805721 C135.49076,235.805721 135.598328,235.552405 135.826744,235.458449" id="Fill-140" fill="#EF6F5E" mask="url(#mask-10)"></path> <path d="M136.403527,236.595151 C136.650203,236.545351 136.860359,236.589507 136.875963,236.697075 C136.891235,236.804643 136.703323,236.937443 136.456315,236.986911 C136.209307,237.038703 135.983547,236.880339 135.983547,236.880339 C135.983547,236.880339 136.158179,236.645947 136.403527,236.595151" id="Fill-141" fill="#EF6F5E" mask="url(#mask-10)"></path> <path d="M136.33155,237.899811 C136.557642,237.964551 136.697082,238.100339 136.639646,238.206579 C136.581878,238.312819 136.34815,238.346683 136.12073,238.282275 C135.891982,238.217203 135.81363,237.972187 135.81363,237.972187 C135.81363,237.972187 136.10413,237.836731 136.33155,237.899811" id="Fill-142" fill="#EF6F5E" mask="url(#mask-10)"></path> <path d="M133.768576,233.110446 C130.3513,232.328586 128.73446,233.87637 128.73446,233.87637 C128.71786,233.230298 129.872224,232.732298 131.306464,232.639006 C132.384136,232.567626 133.331332,232.74591 133.768576,233.110446" id="Fill-143" fill="#842A1F" mask="url(#mask-10)"></path> <path d="M127.140263,239.75174 C126.323211,239.701276 125.680127,238.609992 125.705027,237.352376 C125.723951,236.301264 126.180451,235.462964 126.773071,235.245836 C126.774067,235.244508 126.774731,235.245836 126.775063,235.245172 C126.745847,235.29298 125.130335,237.76306 127.140263,239.75174" id="Fill-144" fill="#842A1F" mask="url(#mask-10)"></path> <path d="M138.841005,236.01674 C139.401089,239.270008 136.392837,242.967824 132.000809,243.255336 C130.044665,243.383488 128.221321,242.8078 126.861117,241.827404 C131.877969,241.441288 136.043241,238.072152 137.343353,233.236904 C138.103301,233.97328 138.649773,234.905204 138.841005,236.01674" id="Fill-145" fill="#B03829" mask="url(#mask-10)"></path> <path d="M129.16274,232.277524 C129.16274,232.277524 126.82214,232.468756 125.383584,234.90464 C126.054224,234.301728 126.8321,233.227044 129.16274,232.277524" id="Fill-146" fill="#EF6F5E" mask="url(#mask-10)"></path> <path d="M162.268718,241.76967 C162.90317,245.891782 159.009142,249.168954 155.080586,249.42559 C151.151698,249.682558 146.863254,246.940238 146.955882,242.770982 C147.031578,239.38259 150.386106,237.059254 154.255898,236.805938 C158.12403,236.550962 161.752458,238.419126 162.268718,241.76967" id="Fill-147" fill="#B03829" mask="url(#mask-10)"></path> <path d="M161.899766,241.876042 C162.45985,245.12931 159.452926,248.827126 155.059902,249.114638 C153.104422,249.24279 151.27975,248.666106 149.919546,247.686706 C148.227674,246.469262 147.261554,244.65787 147.334926,242.827886 C147.466066,239.52847 150.57923,237.359182 154.275718,237.11649 C156.708946,236.956134 158.93733,237.676574 160.402778,239.09687 C161.16339,239.832914 161.709198,240.765502 161.899766,241.876042" id="Fill-148" fill="#EB4B36" mask="url(#mask-10)"></path> <path d="M157.077964,239.389927 C157.110168,239.704995 156.923916,240.627955 156.528504,241.501115 C156.116492,242.412123 155.468096,243.270343 154.68026,243.322135 C153.893088,243.373927 153.141772,242.608003 152.613892,241.758747 C152.108256,240.942691 151.800824,240.051271 151.792856,239.735207 C151.777252,239.089799 152.931616,238.591799 154.36652,238.497843 C155.443196,238.426795 156.389728,238.605079 156.826972,238.969283 C156.972388,239.089467 157.060368,239.229903 157.077964,239.389927" id="Fill-149" fill="#B03829" mask="url(#mask-10)"></path> <path d="M154.680393,243.322035 C154.722889,243.964787 153.789637,244.613847 152.734209,245.036483 C151.720613,245.442187 150.600445,245.635743 150.200385,245.611175 C149.382337,245.560711 148.738921,244.469095 148.763489,243.211811 C148.783741,242.160367 149.239577,241.322731 149.831533,241.104275 C149.832861,241.102615 149.833525,241.104939 149.835185,241.104275 C149.951053,241.062111 150.069577,241.044515 150.194077,241.051819 C150.569569,241.074727 151.617693,241.367883 152.613693,241.757319 L152.613693,241.758647 C153.651857,242.163023 154.638561,242.680611 154.680393,243.322035" id="Fill-150" fill="#B03829" mask="url(#mask-10)"></path> <path d="M151.978012,247.05511 C151.962408,246.408706 153.138684,243.423694 154.680492,243.322102 C156.22064,243.220842 157.778716,246.02757 157.846776,246.671318 C157.915168,247.314402 156.643276,248.038826 154.996556,248.146726 C153.349172,248.254626 151.995276,247.701514 151.978012,247.05511" id="Fill-151" fill="#B03829" mask="url(#mask-10)"></path> <path d="M159.422083,245.007334 C158.617315,245.164038 154.762463,244.581378 154.680459,243.322102 C154.598455,242.06349 158.080471,240.632902 158.834111,240.486158 C159.588415,240.33875 160.345707,241.199626 160.534283,242.442302 C160.722195,243.685974 160.226851,244.850962 159.422083,245.007334" id="Fill-152" fill="#B03829" mask="url(#mask-10)"></path> <path d="M152.757748,239.781886 C152.693672,239.584346 152.739156,239.400086 152.861,239.373194 C152.982512,239.344642 153.132576,239.480762 153.197316,239.677638 C153.263052,239.874182 153.09672,240.087658 153.09672,240.087658 C153.09672,240.087658 152.822488,239.98009 152.757748,239.781886" id="Fill-153" fill="#EF6F5E" mask="url(#mask-10)"></path> <path d="M154.168449,239.380531 C154.155833,239.175023 154.245473,239.004043 154.371301,238.996407 C154.496797,238.987775 154.610009,239.146139 154.624285,239.350983 C154.638561,239.555827 154.419441,239.737099 154.419441,239.737099 C154.419441,239.737099 154.181065,239.585043 154.168449,239.380531" id="Fill-154" fill="#EF6F5E" mask="url(#mask-10)"></path> <path d="M155.645583,239.462535 C155.754811,239.275951 155.932099,239.160415 156.044315,239.205567 C156.156531,239.250055 156.160183,239.440291 156.050291,239.628535 C155.942723,239.815119 155.649567,239.884175 155.649567,239.884175 C155.649567,239.884175 155.536355,239.649119 155.645583,239.462535" id="Fill-155" fill="#EF6F5E" mask="url(#mask-10)"></path> <path d="M150.256094,244.785558 C150.006762,244.820086 149.779342,244.756342 149.747138,244.648774 C149.715598,244.540874 149.890894,244.42899 150.13923,244.396454 C150.387898,244.362922 150.647522,244.52859 150.647522,244.52859 C150.647522,244.52859 150.505426,244.751694 150.256094,244.785558" id="Fill-156" fill="#EF6F5E" mask="url(#mask-10)"></path> <path d="M149.825524,243.526315 C149.572872,243.508055 149.370684,243.400487 149.371015,243.292587 C149.373008,243.184687 149.576524,243.113971 149.82652,243.132231 C150.07884,243.150159 150.281028,243.358323 150.281028,243.358323 C150.281028,243.358323 150.07718,243.544907 149.825524,243.526315" id="Fill-157" fill="#EF6F5E" mask="url(#mask-10)"></path> <path d="M150.069676,242.276766 C149.860184,242.155586 149.745644,241.982946 149.815364,241.895962 C149.884752,241.808978 150.10852,241.838526 150.318676,241.957382 C150.529496,242.076902 150.57664,242.333206 150.57664,242.333206 C150.57664,242.333206 150.28116,242.398942 150.069676,242.276766" id="Fill-158" fill="#EF6F5E" mask="url(#mask-10)"></path> <path d="M156.782285,246.763315 C156.862629,246.954547 156.819137,247.143455 156.685673,247.184291 C156.550881,247.225127 156.376913,247.101623 156.298561,246.910059 C156.219213,246.717831 156.396501,246.490411 156.396501,246.490411 C156.396501,246.490411 156.701277,246.572415 156.782285,246.763315" id="Fill-159" fill="#EF6F5E" mask="url(#mask-10)"></path> <path d="M155.22474,247.260651 C155.238352,247.466159 155.1351,247.641787 154.994996,247.651083 C154.853232,247.659715 154.7284,247.499359 154.715452,247.294515 C154.703168,247.089007 154.944864,246.907403 154.944864,246.907403 C154.944864,246.907403 155.209468,247.055807 155.22474,247.260651" id="Fill-160" fill="#EF6F5E" mask="url(#mask-10)"></path> <path d="M153.575132,247.14621 C153.44532,247.324826 153.238484,247.42343 153.115312,247.367986 C152.9938,247.313206 153.002432,247.123966 153.133572,246.94867 C153.264712,246.77105 153.590072,246.724902 153.590072,246.724902 C153.590072,246.724902 153.705608,246.967594 153.575132,247.14621" id="Fill-161" fill="#EF6F5E" mask="url(#mask-10)"></path> <path d="M158.886136,241.318382 C159.11422,241.22509 159.335996,241.226418 159.380816,241.32469 C159.425636,241.421634 159.276236,241.581658 159.046492,241.675614 C158.81708,241.76957 158.54982,241.66499 158.54982,241.66499 C158.54982,241.66499 158.65772,241.411342 158.886136,241.318382" id="Fill-162" fill="#EF6F5E" mask="url(#mask-10)"></path> <path d="M159.462288,242.454752 C159.708632,242.40462 159.919784,242.449108 159.934392,242.556676 C159.950328,242.66358 159.762416,242.796048 159.515076,242.846844 C159.267736,242.897308 159.042972,242.739276 159.042972,242.739276 C159.042972,242.739276 159.217272,242.505548 159.462288,242.454752" id="Fill-163" fill="#EF6F5E" mask="url(#mask-10)"></path> <path d="M159.390643,243.760375 C159.617067,243.824119 159.756839,243.959575 159.698407,244.065815 C159.640639,244.172055 159.407907,244.206251 159.179491,244.141511 C158.950743,244.076439 158.872723,243.831091 158.872723,243.831091 C158.872723,243.831091 159.163223,243.695635 159.390643,243.760375" id="Fill-164" fill="#EF6F5E" mask="url(#mask-10)"></path> <path d="M156.827038,238.969416 C153.410426,238.188552 151.792922,239.73534 151.792922,239.73534 C151.777318,239.0896 152.931682,238.5916 154.366586,238.497976 C155.443262,238.426596 156.389794,238.60488 156.827038,238.969416" id="Fill-165" fill="#842A1F" mask="url(#mask-10)"></path> <path d="M150.200318,245.611042 C149.38227,245.56091 148.739186,244.469294 148.763422,243.211678 C148.783674,242.160234 149.23951,241.322598 149.831466,241.104474 C149.833126,241.104142 149.83379,241.105138 149.83379,241.104474 C149.805238,241.152282 148.189062,243.621698 150.200318,245.611042" id="Fill-166" fill="#842A1F" mask="url(#mask-10)"></path> <path d="M161.899766,241.876042 C162.45985,245.12931 159.452926,248.827126 155.059902,249.114638 C153.104422,249.24279 151.27975,248.666438 149.919546,247.686706 C154.937062,247.300258 159.102334,243.93079 160.402778,239.09687 C161.16339,239.832914 161.709198,240.765502 161.899766,241.876042" id="Fill-167" fill="#B03829" mask="url(#mask-10)"></path> <path d="M152.222464,238.137125 C152.222464,238.137125 149.882196,238.328357 148.442644,240.764573 C149.113948,240.161993 149.89116,239.086313 152.222464,238.137125" id="Fill-168" fill="#EF6F5E" mask="url(#mask-10)"></path> <path d="M134.245195,252.845654 C134.879979,256.967766 130.986283,260.244938 127.057395,260.501574 C123.128507,260.758542 118.840727,258.01589 118.933023,253.846966 C119.008055,250.45791 122.362915,248.135238 126.232707,247.881258 C130.101171,247.626946 133.729267,249.49511 134.245195,252.845654" id="Fill-169" fill="#B03829" mask="url(#mask-10)"></path> <path d="M133.876543,252.951994 C134.436627,256.205926 131.429703,259.903078 127.037011,260.190258 C125.081199,260.318742 123.256195,259.742058 121.896987,258.762326 C120.204451,257.54455 119.238331,255.733822 119.311371,253.903838 C119.442843,250.605086 122.556007,248.43447 126.252495,248.191446 C128.685391,248.032086 130.913775,248.75319 132.379555,250.172822 C133.139835,250.908866 133.685311,251.841122 133.876543,252.951994" id="Fill-170" fill="#EB4B36" mask="url(#mask-10)"></path> <path d="M129.054774,250.465878 C129.086978,250.77995 128.900062,251.703906 128.504318,252.57773 C128.093302,253.488406 127.444242,254.346294 126.65707,254.397754 C125.87023,254.449878 125.118582,253.68329 124.59037,252.834034 C124.085066,252.01831 123.777966,251.127886 123.769334,250.811822 C123.753066,250.16575 124.908426,249.66775 126.342666,249.573794 C127.420006,249.503078 128.366538,249.681362 128.80345,250.044902 C128.949198,250.16575 129.037178,250.306518 129.054774,250.465878" id="Fill-171" fill="#B03829" mask="url(#mask-10)"></path> <path d="M126.657169,254.397688 C126.699665,255.040772 125.766413,255.689168 124.711317,256.111804 C123.697389,256.51784 122.576557,256.711728 122.177161,256.68716 C121.358781,256.6357 120.716029,255.544748 120.739933,254.287796 C120.760849,253.236352 121.216021,252.398384 121.807977,252.18026 C121.808973,252.179264 121.810633,252.180924 121.811961,252.180924 C121.927165,252.13876 122.046685,252.1205 122.171185,252.12714 C122.545681,252.151376 123.594469,252.443204 124.590137,252.833304 L124.590137,252.833968 C125.628301,253.239672 126.615005,253.756596 126.657169,254.397688" id="Fill-172" fill="#B03829" mask="url(#mask-10)"></path> <path d="M123.955785,258.130729 C123.938853,257.484657 125.116789,254.499645 126.657269,254.397721 C128.198081,254.297125 129.754829,257.103521 129.823553,257.747269 C129.891945,258.389689 128.620717,259.114777 126.972669,259.222013 C125.325949,259.329913 123.971721,258.776469 123.955785,258.130729" id="Fill-173" fill="#B03829" mask="url(#mask-10)"></path> <path d="M131.398893,256.083949 C130.594457,256.239657 126.740269,255.657329 126.657269,254.397721 C126.575265,253.139441 130.056949,251.708189 130.810921,251.561777 C131.564561,251.414037 132.322517,252.275577 132.510761,253.518585 C132.698341,254.762589 132.203661,255.926581 131.398893,256.083949" id="Fill-174" fill="#B03829" mask="url(#mask-10)"></path> <path d="M124.734557,250.857539 C124.670481,250.659335 124.715633,250.476403 124.837809,250.449179 C124.959653,250.420627 125.109385,250.556083 125.174125,250.752959 C125.240193,250.950831 125.074193,251.163643 125.074193,251.163643 C125.074193,251.163643 124.799297,251.055743 124.734557,250.857539" id="Fill-175" fill="#EF6F5E" mask="url(#mask-10)"></path> <path d="M126.144927,250.456151 C126.133307,250.251639 126.222615,250.079995 126.347779,250.072027 C126.473607,250.063727 126.586155,250.222091 126.601095,250.427599 C126.615039,250.632443 126.396583,250.812055 126.396583,250.812055 C126.396583,250.812055 126.157875,250.660995 126.144927,250.456151" id="Fill-176" fill="#EF6F5E" mask="url(#mask-10)"></path> <path d="M127.622692,250.537856 C127.732252,250.352268 127.909208,250.2364 128.021092,250.28122 C128.132644,250.325376 128.13696,250.515612 128.0274,250.704188 C127.9195,250.891104 127.626344,250.96016 127.626344,250.96016 C127.626344,250.96016 127.513132,250.725104 127.622692,250.537856" id="Fill-177" fill="#EF6F5E" mask="url(#mask-10)"></path> <path d="M122.232904,255.861542 C121.982908,255.895406 121.756152,255.832326 121.723616,255.724758 C121.692076,255.616858 121.867704,255.504974 122.11604,255.472438 C122.364376,255.43957 122.624332,255.604906 122.624332,255.604906 C122.624332,255.604906 122.482568,255.82801 122.232904,255.861542" id="Fill-178" fill="#EF6F5E" mask="url(#mask-10)"></path> <path d="M121.801669,254.601602 C121.549681,254.583342 121.347493,254.476438 121.348815,254.368538 C121.349817,254.259974 121.553333,254.189258 121.803661,254.208182 C122.055317,254.22611 122.257837,254.434938 122.257837,254.434938 C122.257837,254.434938 122.053989,254.620194 121.801669,254.601602" id="Fill-179" fill="#EF6F5E" mask="url(#mask-10)"></path> <path d="M122.046785,253.351755 C121.836297,253.231571 121.722421,253.058599 121.792141,252.971615 C121.861197,252.884963 122.085297,252.913515 122.295453,253.032371 C122.505941,253.152887 122.553085,253.409191 122.553085,253.409191 C122.553085,253.409191 122.257937,253.473931 122.046785,253.351755" id="Fill-180" fill="#EF6F5E" mask="url(#mask-10)"></path> <path d="M128.759427,257.839598 C128.839107,258.030166 128.795947,258.218742 128.662151,258.260242 C128.528023,258.301078 128.354387,258.177574 128.275703,257.98601 C128.196023,257.792786 128.373643,257.566362 128.373643,257.566362 C128.373643,257.566362 128.679083,257.648366 128.759427,257.839598" id="Fill-181" fill="#EF6F5E" mask="url(#mask-10)"></path> <path d="M127.201218,258.337266 C127.21483,258.54211 127.111578,258.717406 126.97081,258.72637 C126.830374,258.735998 126.705874,258.575642 126.692262,258.370134 C126.679978,258.164958 126.921674,257.983354 126.921674,257.983354 C126.921674,257.983354 127.186278,258.13209 127.201218,258.337266" id="Fill-182" fill="#EF6F5E" mask="url(#mask-10)"></path> <path d="M125.552904,258.222162 C125.421764,258.399782 125.21526,258.49905 125.092752,258.443938 C124.970576,258.388494 124.979208,258.199918 125.109684,258.023958 C125.241156,257.847002 125.566516,257.800854 125.566516,257.800854 C125.566516,257.800854 125.682384,258.043214 125.552904,258.222162" id="Fill-183" fill="#EF6F5E" mask="url(#mask-10)"></path> <path d="M130.862945,252.393669 C131.091029,252.300377 131.311809,252.301705 131.357293,252.399977 C131.402445,252.497585 131.253045,252.657609 131.023301,252.751565 C130.793557,252.846185 130.526629,252.741273 130.526629,252.741273 C130.526629,252.741273 130.634529,252.487293 130.862945,252.393669" id="Fill-184" fill="#EF6F5E" mask="url(#mask-10)"></path> <path d="M131.439397,253.530703 C131.685409,253.480571 131.896561,253.525059 131.911501,253.632627 C131.927105,253.739863 131.739857,253.871999 131.492185,253.922795 C131.244181,253.973591 131.019749,253.814895 131.019749,253.814895 C131.019749,253.814895 131.194049,253.581499 131.439397,253.530703" id="Fill-185" fill="#EF6F5E" mask="url(#mask-10)"></path> <path d="M131.367419,254.835695 C131.593511,254.900103 131.733947,255.035559 131.675515,255.141799 C131.617083,255.248039 131.385015,255.282235 131.156267,255.217495 C130.927851,255.151427 130.849167,254.907075 130.849167,254.907075 C130.849167,254.907075 131.139999,254.771619 131.367419,254.835695" id="Fill-186" fill="#EF6F5E" mask="url(#mask-10)"></path> <path d="M128.803516,250.045035 C125.387236,249.264171 123.7694,250.811955 123.7694,250.811955 C123.753132,250.165551 124.908492,249.667551 126.342732,249.573927 C127.420072,249.502879 128.366604,249.681163 128.803516,250.045035" id="Fill-187" fill="#842A1F" mask="url(#mask-10)"></path> <path d="M122.177128,256.686994 C121.358748,256.635866 120.716328,255.544914 120.7399,254.28763 C120.760816,253.236186 121.215988,252.398218 121.807944,252.180426 C121.809272,252.180094 121.8106,252.180426 121.8106,252.180094 C121.78238,252.228234 120.165872,254.69765 122.177128,256.686994" id="Fill-188" fill="#842A1F" mask="url(#mask-10)"></path> <path d="M133.876543,252.951994 C134.436627,256.205926 131.429703,259.903078 127.037011,260.190258 C125.081199,260.318742 123.256195,259.742722 121.896987,258.762326 C126.913839,258.37621 131.079111,255.007406 132.379555,250.172822 C133.139835,250.908866 133.685311,251.841122 133.876543,252.951994" id="Fill-189" fill="#B03829" mask="url(#mask-10)"></path> <path d="M124.198311,249.212446 C124.198311,249.212446 121.858707,249.404342 120.419487,251.839561 C121.090459,251.236981 121.867671,250.162629 124.198311,249.212446" id="Fill-190" fill="#EF6F5E" mask="url(#mask-10)"></path> <path d="M144.3699,245.784147 C144.3699,245.784147 144.325744,252.944391 138.804584,251.176823 C138.95664,249.093855 137.246508,246.186199 144.3699,245.784147" id="Fill-191" fill="#39B54A" mask="url(#mask-10)"></path> <path d="M138.803721,251.175595 C138.817665,250.980711 138.816005,250.779519 138.806709,250.571687 C142.017149,249.608555 143.743881,246.775599 144.259145,245.793543 C144.295665,245.790555 144.332517,245.787899 144.370033,245.785575 C144.370033,245.785575 144.325877,252.944491 138.803721,251.175595" id="Fill-192" fill="#2B8838" mask="url(#mask-10)"></path> <path d="M139.403844,249.709483 C139.909148,249.949851 140.409804,250.198851 140.914112,250.438555 C140.974868,250.467107 141.09472,250.388755 141.009396,250.348583 C140.505088,250.107883 140.004764,249.858883 139.499792,249.619843 C139.4397,249.590959 139.319516,249.670307 139.403844,249.709483" id="Fill-193" fill="#39B54A" mask="url(#mask-10)"></path> <path d="M141.029781,248.874602 C141.580237,248.936686 142.105129,249.096378 142.631349,249.265366 C142.705385,249.288938 142.788385,249.188342 142.693101,249.15813 C142.154265,248.986486 141.617753,248.826794 141.053021,248.76305 C140.966701,248.75309 140.930513,248.86431 141.029781,248.874602" id="Fill-194" fill="#39B54A" mask="url(#mask-10)"></path> <path d="M142.88918,247.414002 C143.077424,247.432594 143.263012,247.453178 143.445944,247.506298 C143.481468,247.515594 143.616924,247.469778 143.572436,247.458158 C143.381536,247.403378 143.187316,247.37881 142.99044,247.359222 C142.957572,247.355238 142.814812,247.406698 142.88918,247.414002" id="Fill-195" fill="#39B54A" mask="url(#mask-10)"></path> <polygon id="Fill-196" fill="#2B8838" mask="url(#mask-10)" points="163.895982 238.563811 164.849818 238.310827 165.39629 238.769983 164.05003 240.923003"></polygon> <polygon id="Fill-197" fill="#2B8838" mask="url(#mask-10)" points="166.191762 244.332311 166.96333 244.947839 166.920502 245.660311 164.38867 245.862499"></polygon> <polygon id="Fill-198" fill="#2B8838" mask="url(#mask-10)" points="174.012919 241.70224 174.784155 242.3181 174.741327 243.030572 172.210491 243.232428"></polygon> <polygon id="Fill-199" fill="#2B8838" mask="url(#mask-10)" points="143.221512 238.421151 143.992416 239.036679 143.94992 239.748819 141.418088 239.951339"></polygon> <polygon id="Fill-200" fill="#2B8838" mask="url(#mask-10)" points="145.804572 231.519834 146.575476 232.135362 146.53298 232.847834 144.002144 233.050022"></polygon> <polygon id="Fill-201" fill="#2B8838" mask="url(#mask-10)" points="136.060804 244.550834 136.832372 245.166362 136.789212 245.878502 134.25738 246.080358"></polygon> <polygon id="Fill-202" fill="#2B8838" mask="url(#mask-10)" points="130.223248 226.673397 130.994816 227.288925 130.951988 228.001397 128.42082 228.204249"></polygon> <path d="M186.971609,253.237945 L101.884989,275.879349 L100.757185,271.301401 C103.968953,268.567049 108.956257,266.666681 116.908653,268.600913 C134.809429,272.962065 133.702873,256.911193 145.697701,258.969593 C157.692861,261.028325 167.416145,251.342225 171.715877,255.605105 C174.578049,258.433081 180.245621,250.956441 186.025077,249.392722 L186.971609,253.237945 Z" id="Fill-203" fill="#BC8430" mask="url(#mask-10)"></path> </g> </g> </g> </g> </g> </svg> 