<?xml version="1.0" encoding="UTF-8"?> <svg xmlns="http://www.w3.org/2000/svg" xmlns:xlink="http://www.w3.org/1999/xlink" width="379px" height="504px" viewBox="0 0 379 504"> <!-- Generator: Sketch 57.1 (83088) - https://sketch.com --> <title>Group 23</title> <desc>Created with Sketch.</desc> <defs> <polygon id="path-1" points="0 410.4 386.7958 410.4 386.7958 0.0432 0 0.0432"></polygon> <polygon id="path-3" points="0.1784 0.08134 106.7708 0.08134 106.7708 264.61714 0.1784 264.61714"></polygon> <polygon id="path-5" points="0.1222 0.0326 22.0816 0.0326 22.0816 214.37886 0.1222 214.37886"></polygon> <path d="M3.3798,0.0988 C1.6178,0.0988 0.176,1.5406 0.176,3.3026 L0.176,3.3026 L0.176,185.1628 C0.176,186.925 1.6178,188.3666 3.3798,188.3666 L3.3798,188.3666 L59.3676,188.3666 C61.1298,188.3666 62.5714,186.925 62.5714,185.1628 L62.5714,185.1628 L62.5714,3.3026 C62.5714,1.5406 61.1298,0.0988 59.3676,0.0988 L59.3676,0.0988 L3.3798,0.0988 Z" id="path-7"></path> <path d="M3.3798,0.0988 C1.6178,0.0988 0.176,1.5406 0.176,3.3026 L0.176,3.3026 L0.176,185.1628 C0.176,186.925 1.6178,188.3666 3.3798,188.3666 L3.3798,188.3666 L59.3676,188.3666 C61.1298,188.3666 62.5714,186.925 62.5714,185.1628 L62.5714,185.1628 L62.5714,3.3026 C62.5714,1.5406 61.1298,0.0988 59.3676,0.0988 L59.3676,0.0988 L3.3798,0.0988 Z" id="path-9"></path> <path d="M3.3798,0.0988 C1.6178,0.0988 0.176,1.5406 0.176,3.3026 L0.176,3.3026 L0.176,185.1628 C0.176,186.925 1.6178,188.3666 3.3798,188.3666 L3.3798,188.3666 L59.3676,188.3666 C61.1298,188.3666 62.5714,186.925 62.5714,185.1628 L62.5714,185.1628 L62.5714,3.3026 C62.5714,1.5406 61.1298,0.0988 59.3676,0.0988 L59.3676,0.0988 L3.3798,0.0988 Z" id="path-11"></path> <path d="M3.3798,0.0988 C1.6178,0.0988 0.176,1.5406 0.176,3.3026 L0.176,3.3026 L0.176,185.1628 C0.176,186.925 1.6178,188.3666 3.3798,188.3666 L3.3798,188.3666 L59.3676,188.3666 C61.1298,188.3666 62.5714,186.925 62.5714,185.1628 L62.5714,185.1628 L62.5714,3.3026 C62.5714,1.5406 61.1298,0.0988 59.3676,0.0988 L59.3676,0.0988 L3.3798,0.0988 Z" id="path-13"></path> <path d="M3.3798,0.0988 C1.6178,0.0988 0.176,1.5406 0.176,3.3026 L0.176,3.3026 L0.176,185.1628 C0.176,186.925 1.6178,188.3666 3.3798,188.3666 L3.3798,188.3666 L59.3676,188.3666 C61.1298,188.3666 62.5714,186.925 62.5714,185.1628 L62.5714,185.1628 L62.5714,3.3026 C62.5714,1.5406 61.1298,0.0988 59.3676,0.0988 L59.3676,0.0988 L3.3798,0.0988 Z" id="path-15"></path> <path d="M3.3798,0.0988 C1.6178,0.0988 0.176,1.5406 0.176,3.3026 L0.176,3.3026 L0.176,185.1628 C0.176,186.925 1.6178,188.3666 3.3798,188.3666 L3.3798,188.3666 L59.3676,188.3666 C61.1298,188.3666 62.5714,186.925 62.5714,185.1628 L62.5714,185.1628 L62.5714,3.3026 C62.5714,1.5406 61.1298,0.0988 59.3676,0.0988 L59.3676,0.0988 L3.3798,0.0988 Z" id="path-17"></path> <path d="M3.3798,0.0988 C1.6178,0.0988 0.176,1.5406 0.176,3.3026 L0.176,3.3026 L0.176,185.1628 C0.176,186.925 1.6178,188.3666 3.3798,188.3666 L3.3798,188.3666 L59.3676,188.3666 C61.1298,188.3666 62.5714,186.925 62.5714,185.1628 L62.5714,185.1628 L62.5714,3.3026 C62.5714,1.5406 61.1298,0.0988 59.3676,0.0988 L59.3676,0.0988 L3.3798,0.0988 Z" id="path-19"></path> <path d="M3.3798,0.0988 C1.6178,0.0988 0.176,1.5406 0.176,3.3026 L0.176,3.3026 L0.176,185.1628 C0.176,186.925 1.6178,188.3666 3.3798,188.3666 L3.3798,188.3666 L59.3676,188.3666 C61.1298,188.3666 62.5714,186.925 62.5714,185.1628 L62.5714,185.1628 L62.5714,3.3026 C62.5714,1.5406 61.1298,0.0988 59.3676,0.0988 L59.3676,0.0988 L3.3798,0.0988 Z" id="path-21"></path> <path d="M3.3798,0.0988 C1.6178,0.0988 0.176,1.5406 0.176,3.3026 L0.176,3.3026 L0.176,185.1628 C0.176,186.925 1.6178,188.3666 3.3798,188.3666 L3.3798,188.3666 L59.3676,188.3666 C61.1298,188.3666 62.5714,186.925 62.5714,185.1628 L62.5714,185.1628 L62.5714,3.3026 C62.5714,1.5406 61.1298,0.0988 59.3676,0.0988 L59.3676,0.0988 L3.3798,0.0988 Z" id="path-23"></path> <path d="M3.3798,0.0988 C1.6178,0.0988 0.176,1.5406 0.176,3.3026 L0.176,3.3026 L0.176,185.1628 C0.176,186.925 1.6178,188.3666 3.3798,188.3666 L3.3798,188.3666 L59.3676,188.3666 C61.1298,188.3666 62.5714,186.925 62.5714,185.1628 L62.5714,185.1628 L62.5714,3.3026 C62.5714,1.5406 61.1298,0.0988 59.3676,0.0988 L59.3676,0.0988 L3.3798,0.0988 Z" id="path-25"></path> <path d="M3.3798,0.0988 C1.6178,0.0988 0.176,1.5406 0.176,3.3026 L0.176,3.3026 L0.176,185.1628 C0.176,186.925 1.6178,188.3666 3.3798,188.3666 L3.3798,188.3666 L59.3676,188.3666 C61.1298,188.3666 62.5714,186.925 62.5714,185.1628 L62.5714,185.1628 L62.5714,3.3026 C62.5714,1.5406 61.1298,0.0988 59.3676,0.0988 L59.3676,0.0988 L3.3798,0.0988 Z" id="path-27"></path> <path d="M3.3798,0.0988 C1.6178,0.0988 0.176,1.5406 0.176,3.3026 L0.176,3.3026 L0.176,185.1628 C0.176,186.925 1.6178,188.3666 3.3798,188.3666 L3.3798,188.3666 L59.3676,188.3666 C61.1298,188.3666 62.5714,186.925 62.5714,185.1628 L62.5714,185.1628 L62.5714,3.3026 C62.5714,1.5406 61.1298,0.0988 59.3676,0.0988 L59.3676,0.0988 L3.3798,0.0988 Z" id="path-29"></path> <path d="M3.3798,0.0988 C1.6178,0.0988 0.176,1.5406 0.176,3.3026 L0.176,3.3026 L0.176,185.1628 C0.176,186.925 1.6178,188.3666 3.3798,188.3666 L3.3798,188.3666 L59.3676,188.3666 C61.1298,188.3666 62.5714,186.925 62.5714,185.1628 L62.5714,185.1628 L62.5714,3.3026 C62.5714,1.5406 61.1298,0.0988 59.3676,0.0988 L59.3676,0.0988 L3.3798,0.0988 Z" id="path-31"></path> <path d="M3.3798,0.0988 C1.6178,0.0988 0.176,1.5406 0.176,3.3026 L0.176,3.3026 L0.176,185.1628 C0.176,186.925 1.6178,188.3666 3.3798,188.3666 L3.3798,188.3666 L59.3676,188.3666 C61.1298,188.3666 62.5714,186.925 62.5714,185.1628 L62.5714,185.1628 L62.5714,3.3026 C62.5714,1.5406 61.1298,0.0988 59.3676,0.0988 L59.3676,0.0988 L3.3798,0.0988 Z" id="path-33"></path> <path d="M3.3798,0.0988 C1.6178,0.0988 0.176,1.5406 0.176,3.3026 L0.176,3.3026 L0.176,185.1628 C0.176,186.925 1.6178,188.3666 3.3798,188.3666 L3.3798,188.3666 L59.3676,188.3666 C61.1298,188.3666 62.5714,186.925 62.5714,185.1628 L62.5714,185.1628 L62.5714,3.3026 C62.5714,1.5406 61.1298,0.0988 59.3676,0.0988 L59.3676,0.0988 L3.3798,0.0988 Z" id="path-35"></path> <path d="M3.3798,0.0988 C1.6178,0.0988 0.176,1.5406 0.176,3.3026 L0.176,3.3026 L0.176,185.1628 C0.176,186.925 1.6178,188.3666 3.3798,188.3666 L3.3798,188.3666 L59.3676,188.3666 C61.1298,188.3666 62.5714,186.925 62.5714,185.1628 L62.5714,185.1628 L62.5714,3.3026 C62.5714,1.5406 61.1298,0.0988 59.3676,0.0988 L59.3676,0.0988 L3.3798,0.0988 Z" id="path-37"></path> <path d="M3.3798,0.0988 C1.6178,0.0988 0.176,1.5406 0.176,3.3026 L0.176,3.3026 L0.176,185.1628 C0.176,186.925 1.6178,188.3666 3.3798,188.3666 L3.3798,188.3666 L59.3676,188.3666 C61.1298,188.3666 62.5714,186.925 62.5714,185.1628 L62.5714,185.1628 L62.5714,3.3026 C62.5714,1.5406 61.1298,0.0988 59.3676,0.0988 L59.3676,0.0988 L3.3798,0.0988 Z" id="path-39"></path> <path d="M3.3798,0.0988 C1.6178,0.0988 0.176,1.5406 0.176,3.3026 L0.176,3.3026 L0.176,185.1628 C0.176,186.925 1.6178,188.3666 3.3798,188.3666 L3.3798,188.3666 L59.3676,188.3666 C61.1298,188.3666 62.5714,186.925 62.5714,185.1628 L62.5714,185.1628 L62.5714,3.3026 C62.5714,1.5406 61.1298,0.0988 59.3676,0.0988 L59.3676,0.0988 L3.3798,0.0988 Z" id="path-41"></path> <path d="M3.3798,0.0988 C1.6178,0.0988 0.176,1.5406 0.176,3.3026 L0.176,3.3026 L0.176,185.1628 C0.176,186.925 1.6178,188.3666 3.3798,188.3666 L3.3798,188.3666 L59.3676,188.3666 C61.1298,188.3666 62.5714,186.925 62.5714,185.1628 L62.5714,185.1628 L62.5714,3.3026 C62.5714,1.5406 61.1298,0.0988 59.3676,0.0988 L59.3676,0.0988 L3.3798,0.0988 Z" id="path-43"></path> <path d="M3.3798,0.0988 C1.6178,0.0988 0.176,1.5406 0.176,3.3026 L0.176,3.3026 L0.176,185.1628 C0.176,186.925 1.6178,188.3666 3.3798,188.3666 L3.3798,188.3666 L59.3676,188.3666 C61.1298,188.3666 62.5714,186.925 62.5714,185.1628 L62.5714,185.1628 L62.5714,3.3026 C62.5714,1.5406 61.1298,0.0988 59.3676,0.0988 L59.3676,0.0988 L3.3798,0.0988 Z" id="path-45"></path> <path d="M3.3798,0.0988 C1.6178,0.0988 0.176,1.5406 0.176,3.3026 L0.176,3.3026 L0.176,185.1628 C0.176,186.925 1.6178,188.3666 3.3798,188.3666 L3.3798,188.3666 L59.3676,188.3666 C61.1298,188.3666 62.5714,186.925 62.5714,185.1628 L62.5714,185.1628 L62.5714,3.3026 C62.5714,1.5406 61.1298,0.0988 59.3676,0.0988 L59.3676,0.0988 L3.3798,0.0988 Z" id="path-47"></path> <path d="M3.3798,0.0988 C1.6178,0.0988 0.176,1.5406 0.176,3.3026 L0.176,3.3026 L0.176,185.1628 C0.176,186.925 1.6178,188.3666 3.3798,188.3666 L3.3798,188.3666 L59.3676,188.3666 C61.1298,188.3666 62.5714,186.925 62.5714,185.1628 L62.5714,185.1628 L62.5714,3.3026 C62.5714,1.5406 61.1298,0.0988 59.3676,0.0988 L59.3676,0.0988 L3.3798,0.0988 Z" id="path-49"></path> <path d="M3.3798,0.0988 C1.6178,0.0988 0.176,1.5406 0.176,3.3026 L0.176,3.3026 L0.176,185.1628 C0.176,186.925 1.6178,188.3666 3.3798,188.3666 L3.3798,188.3666 L59.3676,188.3666 C61.1298,188.3666 62.5714,186.925 62.5714,185.1628 L62.5714,185.1628 L62.5714,3.3026 C62.5714,1.5406 61.1298,0.0988 59.3676,0.0988 L59.3676,0.0988 L3.3798,0.0988 Z" id="path-51"></path> <path d="M3.3798,0.0988 C1.6178,0.0988 0.176,1.5406 0.176,3.3026 L0.176,3.3026 L0.176,185.1628 C0.176,186.925 1.6178,188.3666 3.3798,188.3666 L3.3798,188.3666 L59.3676,188.3666 C61.1298,188.3666 62.5714,186.925 62.5714,185.1628 L62.5714,185.1628 L62.5714,3.3026 C62.5714,1.5406 61.1298,0.0988 59.3676,0.0988 L59.3676,0.0988 L3.3798,0.0988 Z" id="path-53"></path> <path d="M3.3798,0.0988 C1.6178,0.0988 0.176,1.5406 0.176,3.3026 L0.176,3.3026 L0.176,185.1628 C0.176,186.925 1.6178,188.3666 3.3798,188.3666 L3.3798,188.3666 L59.3676,188.3666 C61.1298,188.3666 62.5714,186.925 62.5714,185.1628 L62.5714,185.1628 L62.5714,3.3026 C62.5714,1.5406 61.1298,0.0988 59.3676,0.0988 L59.3676,0.0988 L3.3798,0.0988 Z" id="path-55"></path> <path d="M3.3798,0.0988 C1.6178,0.0988 0.176,1.5406 0.176,3.3026 L0.176,3.3026 L0.176,185.1628 C0.176,186.925 1.6178,188.3666 3.3798,188.3666 L3.3798,188.3666 L59.3676,188.3666 C61.1298,188.3666 62.5714,186.925 62.5714,185.1628 L62.5714,185.1628 L62.5714,3.3026 C62.5714,1.5406 61.1298,0.0988 59.3676,0.0988 L59.3676,0.0988 L3.3798,0.0988 Z" id="path-57"></path> <path d="M3.3798,0.0988 C1.6178,0.0988 0.176,1.5406 0.176,3.3026 L0.176,3.3026 L0.176,185.1628 C0.176,186.925 1.6178,188.3666 3.3798,188.3666 L3.3798,188.3666 L59.3676,188.3666 C61.1298,188.3666 62.5714,186.925 62.5714,185.1628 L62.5714,185.1628 L62.5714,3.3026 C62.5714,1.5406 61.1298,0.0988 59.3676,0.0988 L59.3676,0.0988 L3.3798,0.0988 Z" id="path-59"></path> <path d="M3.3798,0.0988 C1.6178,0.0988 0.176,1.5406 0.176,3.3026 L0.176,3.3026 L0.176,185.1628 C0.176,186.925 1.6178,188.3666 3.3798,188.3666 L3.3798,188.3666 L59.3676,188.3666 C61.1298,188.3666 62.5714,186.925 62.5714,185.1628 L62.5714,185.1628 L62.5714,3.3026 C62.5714,1.5406 61.1298,0.0988 59.3676,0.0988 L59.3676,0.0988 L3.3798,0.0988 Z" id="path-61"></path> <path d="M3.3798,0.0988 C1.6178,0.0988 0.176,1.5406 0.176,3.3026 L0.176,3.3026 L0.176,185.1628 C0.176,186.925 1.6178,188.3666 3.3798,188.3666 L3.3798,188.3666 L59.3676,188.3666 C61.1298,188.3666 62.5714,186.925 62.5714,185.1628 L62.5714,185.1628 L62.5714,3.3026 C62.5714,1.5406 61.1298,0.0988 59.3676,0.0988 L59.3676,0.0988 L3.3798,0.0988 Z" id="path-63"></path> <path d="M3.3798,0.0988 C1.6178,0.0988 0.176,1.5406 0.176,3.3026 L0.176,3.3026 L0.176,185.1628 C0.176,186.925 1.6178,188.3666 3.3798,188.3666 L3.3798,188.3666 L59.3676,188.3666 C61.1298,188.3666 62.5714,186.925 62.5714,185.1628 L62.5714,185.1628 L62.5714,3.3026 C62.5714,1.5406 61.1298,0.0988 59.3676,0.0988 L59.3676,0.0988 L3.3798,0.0988 Z" id="path-65"></path> <path d="M3.3798,0.0988 C1.6178,0.0988 0.176,1.5406 0.176,3.3026 L0.176,3.3026 L0.176,185.1628 C0.176,186.925 1.6178,188.3666 3.3798,188.3666 L3.3798,188.3666 L59.3676,188.3666 C61.1298,188.3666 62.5714,186.925 62.5714,185.1628 L62.5714,185.1628 L62.5714,3.3026 C62.5714,1.5406 61.1298,0.0988 59.3676,0.0988 L59.3676,0.0988 L3.3798,0.0988 Z" id="path-67"></path> <path d="M3.3798,0.0988 C1.6178,0.0988 0.176,1.5406 0.176,3.3026 L0.176,3.3026 L0.176,185.1628 C0.176,186.925 1.6178,188.3666 3.3798,188.3666 L3.3798,188.3666 L59.3676,188.3666 C61.1298,188.3666 62.5714,186.925 62.5714,185.1628 L62.5714,185.1628 L62.5714,3.3026 C62.5714,1.5406 61.1298,0.0988 59.3676,0.0988 L59.3676,0.0988 L3.3798,0.0988 Z" id="path-69"></path> <polygon id="path-71" points="0.127140011 0.127860011 53.8606048 0.127860011 53.8606048 155.098874 0.127140011 155.098874"></polygon> <polygon id="path-73" points="0.0725600065 0.177440016 34.072563 0.177440016 34.072563 3.20000029 0.0725600065 3.20000029"></polygon> </defs> <g id="Page-1" stroke="none" stroke-width="1" fill="none" fill-rule="evenodd"> <g id="artem" transform="translate(-652.000000, -5671.000000)"> <g id="Group-11-Copy-7" transform="translate(165.000000, 5671.000000)"> <g id="Group-23" transform="translate(487.000000, 0.000000)"> <g id="Group-139" transform="translate(53.000000, 46.000000)"> <g id="Group-18" transform="translate(0.000000, 0.156000)"> <path d="M311.7876,410.4 L32.9078,410.4 C25.2662,410.4 19.0714,404.2052 19.0714,396.5634 L19.0714,45.3952 C19.0714,37.7536 25.2662,31.5586 32.9078,31.5586 L311.7874,31.5586 C319.4292,31.5586 325.624,37.7536 325.624,45.3952 L325.624,396.5636 C325.624,404.2052 319.4292,410.4 311.7876,410.4" id="Fill-1" fill="#EEF7FF"></path> <mask id="mask-2" fill="white"> <use xlink:href="#path-1"></use> </mask> <g id="Clip-4"></g> <polygon id="Fill-3" fill="#C7EAFE" mask="url(#mask-2)" points="20.5872 335.0984 324.6598 335.0984 324.6598 49.4218 20.5872 49.4218"></polygon> <polygon id="Fill-5" fill="#97CFF3" mask="url(#mask-2)" points="21.5038 334.8274 129.2526 334.8274 129.2526 49.1508 21.5038 49.1508"></polygon> <path d="M23.7148,332.6166 L127.042,332.6166 L127.042,51.3614 L23.7148,51.3614 L23.7148,332.6166 Z M19.2932,337.0382 L131.4636,337.0382 L131.4636,46.94 L19.2932,46.94 L19.2932,337.0382 Z" id="Fill-6" fill="#FFFFFF" mask="url(#mask-2)"></path> <g id="Group-9" mask="url(#mask-2)"> <g transform="translate(21.400000, 54.600000)"> <mask id="mask-4" fill="white"> <use xlink:href="#path-3"></use> </mask> <g id="Clip-8" stroke="none" fill="none"></g> <path d="M116.54814,0.08134 L-19.77706,174.27474 L-21.40006,220.25734 L116.54814,52.01474 L114.38434,89.34194 L-19.23606,247.84714 L-19.23606,264.61714 C-19.23606,262.99414 122.49874,99.62034 122.49874,99.62034 L116.54814,0.08134 Z" id="Fill-7" stroke="none" fill="#C7EAFE" fill-rule="evenodd" mask="url(#mask-4)"></path> </g> </g> <polygon id="Fill-10" fill="#97CFF3" mask="url(#mask-2)" points="300.2398 334.8274 323.0856 334.8274 323.0856 49.1508 300.2398 49.1508"></polygon> <path d="M302.4012,332.666 L320.924,332.666 L320.924,51.3122 L302.4012,51.3122 L302.4012,332.666 Z M298.0784,336.9888 L325.247,336.9888 L325.247,46.9892 L298.0784,46.9892 L298.0784,336.9888 Z" id="Fill-11" fill="#FFFFFF" mask="url(#mask-2)"></path> <g id="Group-14" mask="url(#mask-2)"> <g transform="translate(301.200000, 50.200000)"> <mask id="mask-6" fill="white"> <use xlink:href="#path-5"></use> </mask> <g id="Clip-13" stroke="none" fill="none"></g> <path d="M79.64502,-50.15694 L-56.68018,124.03646 L-58.30318,170.01906 L79.64502,1.77646 L77.48122,39.10366 L-56.13918,197.60886 L-56.13918,214.37886 C-56.13918,212.75586 85.59582,49.38206 85.59582,49.38206 L79.64502,-50.15694 Z" id="Fill-12" stroke="none" fill="#C7EAFE" fill-rule="evenodd" mask="url(#mask-6)"></path> </g> </g> <polygon id="Fill-15" fill="#97CFF3" mask="url(#mask-2)" points="273.0936 334.639 275.2578 334.639 275.2578 49.2312 273.0936 49.2312"></polygon> <path d="M117.2997,267.43466 C115.6847,267.43466 114.3633,266.11346 114.3633,264.49826 L114.3633,176.59766 C114.3633,174.98266 115.6847,173.66126 117.2997,173.66126 C118.9147,173.66126 120.2361,174.98266 120.2361,176.59766 L120.2361,264.49826 C120.2361,266.11346 118.9147,267.43466 117.2997,267.43466" id="Fill-16" fill="#FFFFFF" mask="url(#mask-2)"></path> <path d="M309.36456,267.43466 C307.74956,267.43466 306.42796,266.11346 306.42796,264.49826 L306.42796,176.59766 C306.42796,174.98266 307.74956,173.66126 309.36436,173.66126 C310.97936,173.66126 312.30096,174.98266 312.30096,176.59766 L312.30096,264.49826 C312.30096,266.11346 310.97936,267.43466 309.36456,267.43466" id="Fill-17" fill="#FFFFFF" mask="url(#mask-2)"></path> </g> <g id="Group-115" transform="translate(195.800000, 107.356000)"> <g id="Group-21"> <mask id="mask-8" fill="white"> <use xlink:href="#path-7"></use> </mask> <g id="Clip-20"></g> <polygon id="Fill-19" fill="#BADAED" mask="url(#mask-8)" points="96.5919 -48.73632 -72.0751 48.64368 -73.1571 46.76968 95.5101 -50.61032"></polygon> </g> <g id="Group-24"> <mask id="mask-10" fill="white"> <use xlink:href="#path-9"></use> </mask> <g id="Clip-23"></g> <polygon id="Fill-22" fill="#BADAED" mask="url(#mask-10)" points="98.01142 -42.66308 -70.65578 54.71692 -71.73778 52.84272 96.92942 -44.53728"></polygon> </g> <g id="Group-27"> <mask id="mask-12" fill="white"> <use xlink:href="#path-11"></use> </mask> <g id="Clip-26"></g> <polygon id="Fill-25" fill="#BADAED" mask="url(#mask-12)" points="99.43076 -36.58994 -69.23644 60.79006 -70.31824 58.91606 98.34876 -38.46414"></polygon> </g> <g id="Group-30"> <mask id="mask-14" fill="white"> <use xlink:href="#path-13"></use> </mask> <g id="Clip-29"></g> <polygon id="Fill-28" fill="#BADAED" mask="url(#mask-14)" points="100.8501 -30.5168 -67.8169 66.8632 -68.8989 64.9892 99.7681 -32.391"></polygon> </g> <g id="Group-33"> <mask id="mask-16" fill="white"> <use xlink:href="#path-15"></use> </mask> <g id="Clip-32"></g> <polygon id="Fill-31" fill="#BADAED" mask="url(#mask-16)" points="102.26962 -24.44366 -66.39758 72.93634 -67.47958 71.06234 101.18762 -26.31786"></polygon> </g> <g id="Group-36"> <mask id="mask-18" fill="white"> <use xlink:href="#path-17"></use> </mask> <g id="Clip-35"></g> <polygon id="Fill-34" fill="#BADAED" mask="url(#mask-18)" points="103.68896 -18.3705 -64.97824 79.0095 -66.06024 77.1355 102.60696 -20.2445"></polygon> </g> <g id="Group-39"> <mask id="mask-20" fill="white"> <use xlink:href="#path-19"></use> </mask> <g id="Clip-38"></g> <polygon id="Fill-37" fill="#BADAED" mask="url(#mask-20)" points="105.1083 -12.29726 -63.5587 85.08274 -64.6407 83.20854 104.0263 -14.17146"></polygon> </g> <g id="Group-42"> <mask id="mask-22" fill="white"> <use xlink:href="#path-21"></use> </mask> <g id="Clip-41"></g> <polygon id="Fill-40" fill="#BADAED" mask="url(#mask-22)" points="106.52784 -6.22412 -62.13936 91.15588 -63.22136 89.28168 105.44584 -8.09832"></polygon> </g> <g id="Group-45"> <mask id="mask-24" fill="white"> <use xlink:href="#path-23"></use> </mask> <g id="Clip-44"></g> <polygon id="Fill-43" fill="#BADAED" mask="url(#mask-24)" points="107.94716 -0.15098 -60.72004 97.22902 -61.80204 95.35502 106.86516 -2.02518"></polygon> </g> <g id="Group-48"> <mask id="mask-26" fill="white"> <use xlink:href="#path-25"></use> </mask> <g id="Clip-47"></g> <polygon id="Fill-46" fill="#BADAED" mask="url(#mask-26)" points="109.3665 5.92216 -59.3005 103.30216 -60.3825 101.42816 108.2845 4.04796"></polygon> </g> <g id="Group-51"> <mask id="mask-28" fill="white"> <use xlink:href="#path-27"></use> </mask> <g id="Clip-50"></g> <polygon id="Fill-49" fill="#BADAED" mask="url(#mask-28)" points="110.78604 11.99532 -57.88116 109.37532 -58.96316 107.50132 109.70404 10.12132"></polygon> </g> <g id="Group-54"> <mask id="mask-30" fill="white"> <use xlink:href="#path-29"></use> </mask> <g id="Clip-53"></g> <polygon id="Fill-52" fill="#BADAED" mask="url(#mask-30)" points="112.20538 18.06846 -56.46182 115.44846 -57.54382 113.57446 111.12338 16.19446"></polygon> </g> <g id="Group-57"> <mask id="mask-32" fill="white"> <use xlink:href="#path-31"></use> </mask> <g id="Clip-56"></g> <polygon id="Fill-55" fill="#BADAED" mask="url(#mask-32)" points="113.6247 24.1417 -55.0425 121.5217 -56.1243 119.6475 112.5427 22.2675"></polygon> </g> <g id="Group-60"> <mask id="mask-34" fill="white"> <use xlink:href="#path-33"></use> </mask> <g id="Clip-59"></g> <polygon id="Fill-58" fill="#BADAED" mask="url(#mask-34)" points="115.04424 30.21484 -53.62296 127.59484 -54.70496 125.72084 113.96224 28.34064"></polygon> </g> <g id="Group-63"> <mask id="mask-36" fill="white"> <use xlink:href="#path-35"></use> </mask> <g id="Clip-62"></g> <polygon id="Fill-61" fill="#BADAED" mask="url(#mask-36)" points="116.46358 36.28798 -52.20362 133.66798 -53.28562 131.79398 115.38158 34.41378"></polygon> </g> <g id="Group-66"> <mask id="mask-38" fill="white"> <use xlink:href="#path-37"></use> </mask> <g id="Clip-65"></g> <polygon id="Fill-64" fill="#BADAED" mask="url(#mask-38)" points="117.88292 42.36114 -50.78428 139.74114 -51.86608 137.86714 116.80092 40.48694"></polygon> </g> <g id="Group-69"> <mask id="mask-40" fill="white"> <use xlink:href="#path-39"></use> </mask> <g id="Clip-68"></g> <polygon id="Fill-67" fill="#BADAED" mask="url(#mask-40)" points="119.30244 48.43428 -49.36476 145.81428 -50.44676 143.94028 118.22044 46.56028"></polygon> </g> <g id="Group-72"> <mask id="mask-42" fill="white"> <use xlink:href="#path-41"></use> </mask> <g id="Clip-71"></g> <polygon id="Fill-70" fill="#BADAED" mask="url(#mask-42)" points="120.72178 54.50752 -47.94542 151.88752 -49.02742 150.01332 119.63978 52.63332"></polygon> </g> <g id="Group-75"> <mask id="mask-44" fill="white"> <use xlink:href="#path-43"></use> </mask> <g id="Clip-74"></g> <polygon id="Fill-73" fill="#BADAED" mask="url(#mask-44)" points="122.14112 60.58066 -46.52608 157.96066 -47.60788 156.08646 121.05912 58.70646"></polygon> </g> <g id="Group-78"> <mask id="mask-46" fill="white"> <use xlink:href="#path-45"></use> </mask> <g id="Clip-77"></g> <polygon id="Fill-76" fill="#BADAED" mask="url(#mask-46)" points="123.56044 66.6538 -45.10656 164.0338 -46.18856 162.1598 122.47864 64.7796"></polygon> </g> <g id="Group-81"> <mask id="mask-48" fill="white"> <use xlink:href="#path-47"></use> </mask> <g id="Clip-80"></g> <polygon id="Fill-79" fill="#BADAED" mask="url(#mask-48)" points="124.97998 72.72696 -43.68722 170.10696 -44.76922 168.23296 123.89798 70.85276"></polygon> </g> <g id="Group-84"> <mask id="mask-50" fill="white"> <use xlink:href="#path-49"></use> </mask> <g id="Clip-83"></g> <polygon id="Fill-82" fill="#BADAED" mask="url(#mask-50)" points="126.39932 78.8001 -42.26788 176.1801 -43.34968 174.3061 125.31732 76.9261"></polygon> </g> <g id="Group-87"> <mask id="mask-52" fill="white"> <use xlink:href="#path-51"></use> </mask> <g id="Clip-86"></g> <polygon id="Fill-85" fill="#BADAED" mask="url(#mask-52)" points="127.81866 84.87324 -40.84834 182.25324 -41.93034 180.37924 126.73686 82.99924"></polygon> </g> <g id="Group-90"> <mask id="mask-54" fill="white"> <use xlink:href="#path-53"></use> </mask> <g id="Clip-89"></g> <polygon id="Fill-88" fill="#BADAED" mask="url(#mask-54)" points="129.23818 90.94648 -39.42902 188.32648 -40.51102 186.45228 128.15618 89.07228"></polygon> </g> <g id="Group-93"> <mask id="mask-56" fill="white"> <use xlink:href="#path-55"></use> </mask> <g id="Clip-92"></g> <polygon id="Fill-91" fill="#BADAED" mask="url(#mask-56)" points="130.65752 97.01962 -38.00968 194.39962 -39.09168 192.52542 129.57552 95.14542"></polygon> </g> <g id="Group-96"> <mask id="mask-58" fill="white"> <use xlink:href="#path-57"></use> </mask> <g id="Clip-95"></g> <polygon id="Fill-94" fill="#BADAED" mask="url(#mask-58)" points="132.07686 103.09276 -36.59014 200.47276 -37.67214 198.59876 130.99486 101.21856"></polygon> </g> <g id="Group-99"> <mask id="mask-60" fill="white"> <use xlink:href="#path-59"></use> </mask> <g id="Clip-98"></g> <polygon id="Fill-97" fill="#BADAED" mask="url(#mask-60)" points="133.49638 109.1659 -35.17082 206.5459 -36.25282 204.6719 132.41438 107.2917"></polygon> </g> <g id="Group-102"> <mask id="mask-62" fill="white"> <use xlink:href="#path-61"></use> </mask> <g id="Clip-101"></g> <polygon id="Fill-100" fill="#BADAED" mask="url(#mask-62)" points="134.91572 115.23906 -33.75148 212.61906 -34.83348 210.74506 133.83372 113.36506"></polygon> </g> <g id="Group-105"> <mask id="mask-64" fill="white"> <use xlink:href="#path-63"></use> </mask> <g id="Clip-104"></g> <polygon id="Fill-103" fill="#BADAED" mask="url(#mask-64)" points="136.33506 121.3123 -32.33194 218.6923 -33.41394 216.8181 135.25306 119.4381"></polygon> </g> <g id="Group-108"> <mask id="mask-66" fill="white"> <use xlink:href="#path-65"></use> </mask> <g id="Clip-107"></g> <polygon id="Fill-106" fill="#BADAED" mask="url(#mask-66)" points="137.75458 127.38544 -30.91262 224.76544 -31.99462 222.89124 136.67258 125.51124"></polygon> </g> <g id="Group-111"> <mask id="mask-68" fill="white"> <use xlink:href="#path-67"></use> </mask> <g id="Clip-110"></g> <polygon id="Fill-109" fill="#BADAED" mask="url(#mask-68)" points="139.17392 133.45858 -29.49328 230.83858 -30.57528 228.96458 138.09192 131.58438"></polygon> </g> <g id="Group-114"> <mask id="mask-70" fill="white"> <use xlink:href="#path-69"></use> </mask> <g id="Clip-113"></g> <polygon id="Fill-112" fill="#BADAED" mask="url(#mask-70)" points="140.59326 139.53172 -28.07374 236.91172 -29.15574 235.03772 139.51126 137.65752"></polygon> </g> </g> <g id="Group-138" transform="translate(202.400000, 77.956000)"> <path d="M57.50772,159.2953 C55.82152,159.2953 54.44192,157.9159 54.44192,156.2297 L54.44192,26.3897 C54.44192,24.7035 55.82152,23.3241 57.50772,23.3241 C59.19392,23.3241 60.57332,24.7035 60.57332,26.3897 L60.57332,156.2297 C60.57332,157.9159 59.19392,159.2953 57.50772,159.2953" id="Fill-116" fill="#5F8EAC"></path> <path d="M63.09794,48.5706 L41.45794,48.5706 C39.87094,48.5706 38.57274,47.2722 38.57274,45.6854 C38.57274,44.0984 39.87094,42.8 41.45794,42.8 L63.09794,42.8 C64.68494,42.8 65.98334,44.0984 65.98334,45.6854 C65.98334,47.2722 64.68494,48.5706 63.09794,48.5706" id="Fill-118" fill="#5F8EAC"></path> <path d="M55.79112,156.81406 C54.10492,156.81406 52.72552,155.43446 52.72552,153.74826 L52.72552,23.90826 C52.72552,22.22226 54.10492,20.84266 55.79112,20.84266 C57.47732,20.84266 58.85672,22.22226 58.85672,23.90826 L58.85672,153.74826 C58.85672,155.43446 57.47732,156.81406 55.79112,156.81406" id="Fill-120" fill="#74A8C6"></path> <path d="M35.90928,185.08984 C28.94408,185.08984 23.27748,178.06824 23.27748,169.43744 L23.27748,145.27284 L26.45048,145.27284 L26.45048,169.43744 C26.45048,176.31864 30.69368,181.91704 35.90928,181.91704 C41.12508,181.91704 45.36828,176.31864 45.36828,169.43744 L45.36828,15.79344 C45.36828,4.60744 39.97008,3.31364 35.90928,3.31364 L27.20828,3.31364 C18.67188,3.31364 17.78008,6.79584 17.78008,14.74124 L14.60708,14.74124 C14.60708,10.28144 14.96448,6.79044 16.70688,4.24904 C18.62888,1.44624 21.96568,0.14084 27.20828,0.14084 L35.90928,0.14084 C41.67188,0.14084 48.54128,2.85644 48.54128,15.79344 L48.54128,169.43744 C48.54128,178.06824 42.87468,185.08984 35.90928,185.08984" id="Fill-122" fill="#FFFFFF"></path> <path d="M39.54638,148.212 L6.64878,148.212 C4.10938,148.212 2.03198,146.1344 2.03198,143.5954 L2.03198,139.4234 C2.03198,136.8842 4.10938,134.8068 6.64878,134.8068 L39.54638,134.8068 C42.08538,134.8068 44.16298,136.8842 44.16298,139.4234 L44.16298,143.5954 C44.16298,146.1344 42.08538,148.212 39.54638,148.212" id="Fill-124" fill="#5F8EAC"></path> <path d="M37.7628,145.59666 L4.8652,145.59666 C2.3258,145.59666 0.2484,143.51906 0.2484,140.98006 L0.2484,136.80806 C0.2484,134.26886 2.3258,132.19126 4.8652,132.19126 L37.7628,132.19126 C40.3018,132.19126 42.3794,134.26886 42.3794,136.80806 L42.3794,140.98006 C42.3794,143.51906 40.3018,145.59666 37.7628,145.59666" id="Fill-126" fill="#74A8C6"></path> <path d="M40.4628,138.60038 C40.4628,141.38898 38.202,143.64978 35.4134,143.64978 C32.6248,143.64978 30.3642,141.38898 30.3642,138.60038 C30.3642,135.81178 32.6248,133.55098 35.4134,133.55098 C38.202,133.55098 40.4628,135.81178 40.4628,138.60038" id="Fill-128" fill="#FFFFFF"></path> <path d="M12.51104,138.60038 C12.51104,141.38898 10.25044,143.64978 7.46184,143.64978 C4.67324,143.64978 2.41244,141.38898 2.41244,138.60038 C2.41244,135.81178 4.67324,133.55098 7.46184,133.55098 C10.25044,133.55098 12.51104,135.81178 12.51104,138.60038" id="Fill-130" fill="#FFFFFF"></path> <path d="M15.80792,149.1288 L12.82632,149.1288 C11.74972,149.1288 10.87692,148.256 10.87692,147.1792 L10.87692,145.0766 C10.87692,140.0098 14.98432,135.9022 20.05112,135.9022 L26.74052,135.9022 C27.81712,135.9022 28.68992,136.775 28.68992,137.8518 L28.68992,140.8334 C28.68992,141.9102 27.81712,142.783 26.74052,142.783 L20.05112,142.783 C18.78432,142.783 17.75752,143.8098 17.75752,145.0766 L17.75752,147.1792 C17.75752,148.256 16.88472,149.1288 15.80792,149.1288" id="Fill-132" fill="#FFFFFF"></path> <path d="M33.06806,16.60684 C32.70766,12.51604 25.48046,9.25064 16.61366,9.25064 C7.74686,9.25064 0.51946,12.51604 0.15926,16.60684 L33.06806,16.60684 Z" id="Fill-134" fill="#FFFFFF"></path> <path d="M61.38134,46.08936 L39.74134,46.08936 C38.15434,46.08936 36.85614,44.79096 36.85614,43.20396 C36.85614,41.61716 38.15434,40.31856 39.74134,40.31856 L61.38134,40.31856 C62.96834,40.31856 64.26674,41.61716 64.26674,43.20396 C64.26674,44.79096 62.96834,46.08936 61.38134,46.08936" id="Fill-136" fill="#74A8C6"></path> </g> </g> <g id="Group-125"> <path d="M99.2761889,364.078053 C98.7681888,365.348053 98.2341888,366.784053 97.6821887,368.370053 C97.0221887,371.582053 96.5021886,376.970054 96.6121886,385.998055 C96.7803887,399.848056 78.154387,454.014061 72.3581865,470.523862 C71.9001864,472.846062 71.6001864,474.492062 71.4861864,475.298062 C71.2261864,477.152063 57.6401852,478.380063 56.9341851,473.632062 C56.458185,470.420062 46.3641841,399.832056 49.4001844,379.340054 C51.1941846,367.236053 58.1261852,359.950052 58.5181852,355.716052 C64.8201858,287.732046 68.2963861,218.47604 69.8101862,211.958039 C77.0321869,214.942039 126.602191,218.19604 162.722195,211.958039 C164.226195,217.876039 166.986195,285.726046 172.884195,353.548052 C173.246395,357.712052 181.574196,366.508053 182.774196,377.304054 C187.784197,422.346058 173.714196,471.018062 173.700196,475.000062 C173.694196,477.200063 159.856194,477.434063 159.758194,475.000062 C159.740194,474.556062 159.656194,473.780062 159.510194,472.714062 C155.180394,459.554061 136.042192,400.544056 136.218192,385.998055 C136.336192,376.366054 135.958192,370.878053 135.492192,367.754053 C134.466192,364.898053 133.468192,362.434052 132.510192,360.456052 C125.542191,346.062051 124.050191,279.844045 116.42019,279.844045 C109.04819,279.844045 105.826189,349.814051 100.334189,361.616052 C100.044189,362.240052 99.7441889,362.932052 99.4361889,363.688053 L99.2761889,364.078053 Z" id="Fill-1" fill="#BC7551"></path> <path d="M64.4033258,242.038182 L167.369335,242.038182 C167.369335,242.038182 184.343736,327.214589 179.817936,339.78459 C175.292136,352.354192 124.875131,349.340191 124.875131,349.340191 L117.494331,307.507187 L109.61413,349.656791 C109.61413,349.656791 52.9757247,353.587192 49.4011244,338.84619 C45.111124,321.156189 64.4033258,242.038182 64.4033258,242.038182" id="Fill-3" fill="#172755"></path> <path d="M58.1384852,346.947591 C58.1228852,346.947591 58.1074852,346.947591 58.0920852,346.946391 C57.5954851,346.921191 57.2134851,346.498191 57.2388851,346.001791 C57.4414851,342.019391 69.4804862,248.910782 69.9928863,244.949182 C70.0568863,244.456382 70.5084863,244.109182 71.0010863,244.171982 C71.4938864,244.235782 71.8418864,244.687182 71.7780864,245.180182 C71.6526864,246.149582 59.2354853,342.180391 59.0364853,346.093391 C59.0120853,346.574191 58.6144852,346.947591 58.1384852,346.947591" id="Fill-5" fill="#FFFFFF"></path> <path d="M53.3384848,345.347591 C53.3230848,345.347591 53.3074848,345.347591 53.2920848,345.346391 C52.7954847,345.321191 52.4134847,344.898191 52.4388847,344.401791 C52.6416847,340.41719 65.0648858,248.073782 65.5934859,244.144582 C65.6598859,243.651982 66.1136859,243.306582 66.605486,243.372582 C67.098086,243.438982 67.443686,243.892182 67.377486,244.384582 C67.248086,245.346182 54.4354849,340.58279 54.2364848,344.493391 C54.2118848,344.974191 53.8144848,345.347591 53.3384848,345.347591" id="Fill-7" fill="#FFFFFF"></path> <g id="Group-11" transform="translate(159.400014, 126.094011)"> <mask id="mask-72" fill="white"> <use xlink:href="#path-71"></use> </mask> <g id="Clip-10"></g> <path d="M0.127140011,19.8568618 C0.127140011,19.8568618 9.21514082,50.2172645 9.88554088,54.2390648 C10.5559409,58.2608652 12.8083411,68.5712661 16.5313415,77.2028669 C20.8745419,87.2724678 36.9127433,113.90347 36.5775433,116.91967 C36.2425432,119.936071 31.5503428,122.952471 30.8803428,125.633471 C30.2099427,128.314671 32.5807429,132.784272 32.4797429,134.958472 C32.3669429,137.380472 30.7813428,139.925873 31.8033428,140.836073 C33.147543,142.033073 36.1997432,140.190873 36.5915433,137.155272 C36.8167433,135.409072 35.7029432,132.696472 37.1325433,131.911672 C39.9419436,130.369472 41.2619437,155.098874 44.393144,155.098874 C48.1851443,155.098874 53.8607448,146.271273 53.8607448,133.666672 C53.8607448,127.731671 49.6863444,119.041871 47.3401442,114.68507 C44.994344,110.32807 52.4063447,80.3720672 50.1635445,62.8074656 C48.8969444,52.8896647 45.5181441,47.0556642 43.8423439,41.3582637 C42.1667438,35.6608632 41.5473437,17.9880616 35.3257432,0.127860011 C25.3707423,3.3214603 0.127140011,19.8568618 0.127140011,19.8568618" id="Fill-9" fill="#BC7551" mask="url(#mask-72)"></path> </g> <path d="M205.987918,280.148825 C205.965318,280.148825 205.942318,280.147625 205.919318,280.145225 C205.557118,280.107825 205.293718,279.783825 205.331318,279.421425 C205.665518,276.190425 204.586918,266.485024 204.232718,263.295624 C204.192318,262.933624 204.453118,262.607623 204.815318,262.567423 C205.177118,262.527423 205.503318,262.788023 205.543518,263.150024 C205.901718,266.374024 206.991919,276.185425 206.643118,279.557225 C206.608118,279.896425 206.321718,280.148825 205.987918,280.148825" id="Fill-12" fill="#804737"></path> <path d="M209.367199,275.627065 L209.363999,275.627065 C208.999799,275.627065 208.705799,275.281465 208.707799,274.917265 C208.720599,272.265464 208.653999,265.619264 207.759999,261.404863 C207.684399,261.048663 207.911999,260.686663 208.268199,260.611063 C208.624599,260.535663 208.974599,260.757263 209.050199,261.113663 C209.937799,265.296864 210.042799,271.580064 210.026599,274.926665 C210.024799,275.289665 209.729799,275.627065 209.367199,275.627065" id="Fill-14" fill="#804737"></path> <path d="M211.758019,267.838964 C211.742219,267.838964 211.726419,267.838564 211.710419,267.837364 C211.347019,267.811364 211.073619,267.495964 211.099619,267.132564 C211.287819,264.493964 210.580619,261.012763 210.314419,259.702163 C210.278219,259.522963 210.249019,259.379563 210.229819,259.277763 C210.162619,258.919763 210.398619,258.575163 210.756419,258.508163 C211.114419,258.441163 211.459019,258.676763 211.526219,259.034763 C211.544419,259.131763 211.572219,259.268763 211.607019,259.439563 C211.883019,260.798563 212.616219,264.408164 212.415019,267.226364 C212.390419,267.573764 212.100819,267.838964 211.758019,267.838964" id="Fill-16" fill="#804737"></path> <path d="M80.4212872,253.103623 C88.4728879,253.103623 99.6140889,266.580024 98.4950888,276.018425 C97.2300887,278.402225 93.3622883,276.796825 92.3650883,276.626425 C85.9186877,275.580425 87.2324878,287.646026 80.4212872,287.646026 C72.3450865,287.646026 65.8014859,279.910425 65.8014859,270.374824 C65.8014859,260.839223 72.3450865,253.103623 80.4212872,253.103623" id="Fill-18" fill="#0B989D"></path> <path d="M0.0496000044,271.980284 C-0.631600056,260.109483 6.95800062,249.819682 17.0044015,249.017082 C17.8316016,248.944082 18.6586017,248.944082 19.4614017,249.017082 L80.5428072,248.968282 C80.5428072,248.968282 71.9072064,256.290283 70.9098063,254.660483 C69.8882062,253.030683 64.9744058,262.712283 64.9744058,262.712283 L64.9744058,273.099284 L66.2880059,278.305085 L70.2532063,284.143085 L79.1318071,291.805686 L17.5152016,291.805686 L17.4910016,291.805686 C9.14720082,291.805686 0.706400063,283.656485 0.0496000044,271.980284" id="Fill-20" fill="#0B989D"></path> <path d="M0.0496000044,271.980284 C-0.0476000043,270.447684 0.00100000009,268.963884 0.171200015,267.504484 C9.34200084,284.605285 34.1538031,290.784086 71.9072064,285.578286 L77.6480069,290.516486 C77.964207,290.929886 78.304807,291.367886 78.621007,291.805686 L17.5152016,291.805686 L17.4910016,291.805686 C9.14720082,291.805686 0.706400063,283.656485 0.0496000044,271.980284" id="Fill-22" fill="#008A8F"></path> <path d="M44.1275439,248.992682 L56.192945,248.992682 L56.411945,248.992682 C37.9975434,257.020083 41.1353437,283.316085 52.9819447,291.805686 L39.5543435,291.805686 C27.6833425,284.824285 27.6103425,253.809283 43.9571439,248.992682 L44.1275439,248.992682 Z" id="Fill-24" fill="#008A8F"></path> <path d="M42.5218838,248.992682 C46.7302842,248.822282 50.8656845,248.871082 54.9766849,248.992682 C36.5622833,257.020083 39.7244836,283.316085 51.5466846,291.805686 C46.9006842,292.048886 42.4490838,292.048886 38.1188834,291.805686 C26.2482823,284.824285 26.1752823,253.809283 42.5218838,248.992682" id="Fill-26" fill="#FBC800"></path> <path d="M47.1923842,287.354006 C48.4573843,289.129806 49.9169845,290.638006 51.5465846,291.805606 C46.9005842,292.049006 42.4489838,292.049006 38.1189834,291.805606 C36.0999832,290.613606 34.4215831,288.740606 33.107983,286.405406 C37.4379833,287.013406 42.1327838,287.329606 47.1923842,287.354006" id="Fill-28" fill="#F2BF09"></path> <path d="M76.1154268,248.968362 L80.5428272,248.968362 C80.5428272,248.968362 71.9072264,256.290363 70.9098263,254.660563 C69.8882262,253.030763 64.9744258,262.712363 64.9744258,262.712363 L64.9744258,273.099364 L66.2880259,278.304965 L70.2530263,284.143165 L79.1318271,291.805766 L75.6290268,291.805766 C68.4528261,289.810966 62.0796256,282.221365 61.4958255,272.004764 C60.8634254,260.960763 67.236626,251.254962 76.1154268,248.968362" id="Fill-30" fill="#06B4BA"></path> <path d="M62.3472656,271.980284 C61.6662655,260.109483 69.2558662,249.819682 79.3264671,249.017082 C89.373068,248.214282 98.0572688,257.190483 98.7382688,269.061284 C100.197869,277.040085 96.9868687,278.864485 96.1352686,273.318284 C95.8190686,268.039684 93.7514684,263.417684 90.6136681,260.206683 C87.4998678,256.995883 83.3160674,255.195683 78.8642671,255.536283 C75.4588667,255.828083 72.4424665,257.701083 70.3746663,260.498683 C68.2828661,263.320484 67.115266,267.066484 67.334066,271.080284 C67.577266,275.093885 69.1584662,278.645485 71.5424664,281.078085 C73.9262666,283.534885 77.1128669,284.921485 80.5184672,284.653885 C82.8780674,284.459285 84.9456676,283.170085 86.3810677,281.224085 C87.8162679,279.278085 88.6430679,276.699485 88.4728679,273.926284 C88.3268679,271.153284 87.2324678,268.720684 85.5780677,267.017884 C83.9240675,265.315084 81.7348673,264.366484 79.3752671,264.561084 C78.085867,264.658284 76.9426669,265.363684 76.1398668,266.458484 C75.3370667,267.528684 74.8992667,268.939684 74.9966667,270.472084 C75.0694667,272.004684 75.6776668,273.342684 76.6020668,274.291285 C77.5020669,275.215685 78.718267,275.750885 80.0076672,275.653485 C80.4940672,275.604885 80.8590672,275.118285 80.8348672,274.534485 C80.7860672,273.950684 80.3724672,273.537284 79.8860671,273.561484 C79.0832671,273.634484 78.304867,273.293884 77.745267,272.710084 C77.1856669,272.126284 76.7966669,271.299084 76.7480669,270.326084 C76.6994669,269.377484 76.9670669,268.477484 77.4534669,267.820684 C77.964267,267.139484 78.669667,266.701684 79.4968671,266.628684 C81.3698673,266.482684 83.1212674,267.236884 84.4104675,268.574884 C85.7242677,269.937084 86.5998677,271.858684 86.7214678,274.072285 C86.8430678,276.261685 86.2106677,278.329285 85.0674676,279.861685 C83.9240675,281.394285 82.2698674,282.416085 80.3968672,282.586285 C77.4776669,282.805285 74.7532667,281.637685 72.7098665,279.521285 C70.6424663,277.429285 69.2800662,274.388685 69.0852662,270.958684 C68.8908662,267.504484 69.8882662,264.293484 71.6882664,261.885083 C73.4640666,259.477083 76.0426668,257.847083 78.9858671,257.628283 C82.9510674,257.312083 86.6728677,258.917483 89.470268,261.787883 C92.2432682,264.634084 94.1164684,268.745084 94.3840684,273.439884 C94.6514685,278.134685 93.2650683,282.513285 90.8326681,285.797286 C81.2238673,298.762887 63.3444657,289.227086 62.3472656,271.980284" id="Fill-32" fill="#22ADB2"></path> <path d="M72.0677864,145.950873 C72.0677864,145.950873 62.9797856,176.311276 62.3093856,180.333076 C61.6389855,184.354876 59.3865853,194.665277 55.663585,203.296878 C51.3203846,213.366479 35.2821832,239.997481 35.6173832,243.013682 C35.9525832,246.030082 40.6445836,249.046482 41.3147837,251.727483 C41.9851838,254.408683 39.6141835,258.878283 39.7153836,261.052483 C39.8279836,263.474484 41.4137837,266.019884 40.3915836,266.930084 C39.0475835,268.127084 35.9951832,266.284884 35.6035832,263.249284 C35.3781832,261.503083 36.4919833,258.790483 35.0623831,258.005683 C32.2531829,256.463483 30.9329828,281.192885 27.8017825,281.192885 C24.0099821,281.192885 18.1343816,272.365284 18.1343816,259.760683 C18.1343816,253.825683 22.508582,245.135882 24.8547822,240.779082 C27.2007824,236.422081 19.7885818,206.466078 22.031582,188.901477 C23.2979821,178.983676 26.6767824,173.149675 28.3525825,167.452275 C30.0283827,161.754874 30.6475827,144.082073 36.8691833,126.221871 C46.8243842,129.415472 72.0677864,145.950873 72.0677864,145.950873" id="Fill-34" fill="#BC7551"></path> <path d="M25.6070423,280.148825 C25.2732423,280.148825 24.9870422,279.896425 24.9520422,279.557225 C24.6030422,276.185425 25.6934423,266.374024 26.0516423,263.150024 C26.0918423,262.788023 26.4176424,262.528023 26.7796424,262.567423 C27.1418424,262.607623 27.4026424,262.933624 27.3622424,263.295624 C27.0080424,266.485024 25.9294423,276.190425 26.2638423,279.421425 C26.3014424,279.783825 26.0378423,280.107825 25.6758423,280.145225 C25.6528423,280.147625 25.6296423,280.148825 25.6070423,280.148825" id="Fill-36" fill="#804737"></path> <path d="M22.227742,275.627065 C21.865142,275.627065 21.5701419,275.286865 21.5683419,274.923665 C21.5521419,271.577064 21.6573419,265.314464 22.544742,261.131263 C22.620342,260.774863 22.9703421,260.535663 23.3267421,260.611063 C23.6829421,260.686663 23.9105421,261.031063 23.8349421,261.387263 C22.9409421,265.601664 22.874342,272.268664 22.887342,274.920265 C22.889142,275.284465 22.595342,275.627065 22.231142,275.627065 L22.227742,275.627065 Z" id="Fill-38" fill="#804737"></path> <path d="M19.8369218,267.838964 C19.4941217,267.838964 19.2047217,267.573764 19.1799217,267.226364 C18.9787217,264.408164 19.7119218,260.798563 19.9881218,259.439763 C20.0227218,259.268763 20.0505218,259.131763 20.0687218,259.034763 C20.1359218,258.676763 20.4805218,258.441363 20.8385219,258.508163 C21.1965219,258.575163 21.4323219,258.919763 21.3651219,259.277763 C21.3461219,259.379563 21.3169219,259.523163 21.2805219,259.702163 C21.0143219,261.012963 20.3073218,264.494164 20.4955218,267.132564 C20.5213218,267.495964 20.2479218,267.811364 19.8845218,267.837364 C19.8687218,267.838564 19.8527218,267.838964 19.8369218,267.838964" id="Fill-40" fill="#804737"></path> <path d="M180.098056,93.1210083 C168.849855,80.3580072 135.951252,67.8220061 115.88625,69.2196062 C95.7236486,67.8152061 62.8690456,80.4168072 51.6746446,93.1210083 C35.5504432,111.41981 25.9714423,143.687013 27.2658424,146.060413 C28.9022426,149.061413 50.6550445,155.732414 65.3278458,155.072814 C74.6208467,187.088017 62.3924456,239.524621 64.4032458,242.038222 C67.9546461,246.477422 153.231054,251.682423 167.369255,242.038222 C170.028455,240.224221 159.527254,189.066217 166.444655,155.072814 C181.117656,155.732414 202.870258,149.061413 204.506858,146.060413 C205.801258,143.687013 195.788858,110.92521 180.098056,93.1210083" id="Fill-42" fill="#E2A346"></path> <path d="M131.709392,35.3820432 C131.139192,54.1322448 133.364192,67.039446 134.154992,70.8186463 C134.824992,74.0212466 131.529792,79.9064471 116.60059,79.9064471 C104.711989,79.9064471 99.9523889,74.6196467 100.829789,71.1136464 C102.290789,65.2748458 104.824589,53.3888448 101.779989,39.8586436 C98.7349888,26.3284424 129.070192,35.7296432 131.709392,35.3820432" id="Fill-44" fill="#BC7551"></path> <path d="M96.8380887,24.7700222 C88.4622879,21.2330219 86.4024877,5.50322049 103.019889,8.29462074 C94.5590885,-0.306980027 113.17269,-3.3809803 118.925691,5.70002051 C131.529692,-1.0683801 139.005692,6.03842054 133.139692,10.663621 C144.984493,12.2430211 143.530693,22.647222 137.871292,23.8122221 L96.8380887,24.7700222 Z" id="Fill-46" fill="#172755"></path> <path d="M138.182832,30.1478627 C136.173832,28.8112626 134.567632,30.5128627 134.567632,30.5128627 C133.456232,30.1890627 132.857432,30.2598627 132.207432,25.1616622 C131.812432,22.065462 130.563032,19.7270618 127.555631,20.5624618 C121.464031,22.254662 115.37223,23.9468621 108.77303,20.5906618 C104.726029,18.5324617 102.503429,20.7498619 102.055029,23.8530621 C101.273429,29.2636626 100.541029,33.059863 99.2740289,32.9288629 C99.2740289,32.9288629 98.5436288,30.2856627 96.0492286,31.1478628 C93.9964284,31.8574628 96.7512287,42.1334638 99.5942289,41.5558637 C99.9246289,43.0436638 99.6602289,48.1440643 101.146229,51.6976646 C102.583029,55.1332649 110.36863,62.2730656 117.01603,62.2730656 C123.663631,62.2730656 131.449232,55.1330649 132.885832,51.6976646 C134.371832,48.1440643 134.107632,43.0436638 134.438032,41.5558637 C137.101032,41.6024637 139.990233,31.3502628 138.182832,30.1478627" id="Fill-48" fill="#BC7551"></path> <path d="M117.33731,63.7499057 C110.50911,63.7499057 105.313109,58.5437052 103.395909,56.305505 C103.180309,56.053705 103.209509,55.674905 103.461309,55.459505 C103.712909,55.2439049 104.091709,55.2731049 104.307309,55.524905 C106.116509,57.6371052 111.00751,62.5499056 117.33731,62.5499056 C122.332111,62.5499056 127.309511,59.3971053 130.993512,53.8999048 C131.177912,53.6247048 131.550712,53.5509048 131.825912,53.7355048 C132.101112,53.9201048 132.174912,54.2927049 131.990512,54.5679049 C128.079911,60.4033054 122.739111,63.7499057 117.33731,63.7499057" id="Fill-50" fill="#804737"></path> <path d="M109.42541,38.8514835 L109.30141,38.8514835 C108.50241,38.8514835 107.85461,38.2036834 107.85461,37.4046833 L107.85461,36.1706832 C107.85461,35.3716832 108.50241,34.7238831 109.30141,34.7238831 L109.42541,34.7238831 C110.22461,34.7238831 110.87221,35.3716832 110.87221,36.1706832 L110.87221,37.4046833 C110.87221,38.2036834 110.22461,38.8514835 109.42541,38.8514835" id="Fill-52" fill="#804737"></path> <path d="M124.556071,38.8514835 L124.432071,38.8514835 C123.633071,38.8514835 122.985271,38.2036834 122.985271,37.4046833 L122.985271,36.1706832 C122.985271,35.3716832 123.633071,34.7238831 124.432071,34.7238831 L124.556071,34.7238831 C125.355071,34.7238831 126.002871,35.3716832 126.002871,36.1706832 L126.002871,37.4046833 C126.002871,38.2036834 125.355071,38.8514835 124.556071,38.8514835" id="Fill-54" fill="#804737"></path> <path d="M116.64723,47.3454042 C115.99723,47.3454042 115.15183,47.3186042 114.04843,47.2498042 C113.71783,47.2292042 113.46643,46.9442042 113.48703,46.6134042 C113.50763,46.2828041 113.79223,46.0320041 114.12323,46.0520041 C115.65503,46.1474041 117.487631,46.1790041 118.084631,46.0796041 C118.192631,45.5402041 118.173631,43.9354039 118.156631,42.5042038 C118.088031,36.7016033 118.218831,31.3880028 120.539431,30.1172027 C120.830431,29.9582027 121.194831,30.0648027 121.353831,30.3552027 C121.513031,30.6460027 121.406431,31.0106028 121.115831,31.1698028 C119.235031,32.1998029 119.311231,38.6414035 119.356631,42.4900038 C119.397231,45.9232041 119.359631,46.6936042 118.868831,47.0518042 C118.754031,47.1356042 118.466631,47.3454042 116.64723,47.3454042 L116.64723,47.3454042 Z" id="Fill-56" fill="#804737"></path> <path d="M115.25255,51.9245246 C113.94015,51.9245246 112.58715,51.6643246 111.34955,50.9473246 C109.74275,50.0161245 109.10295,48.7503244 109.07635,48.6969244 C108.92935,48.3999243 109.05095,48.0399243 109.34795,47.8929243 C109.64535,47.7461243 110.00495,47.8677243 110.15175,48.1645243 C110.23575,48.3293243 112.31595,52.2441247 118.907551,50.0835245 C119.222551,49.9803245 119.561351,50.1521245 119.664751,50.4669245 C119.767751,50.7817245 119.596151,51.1207246 119.281351,51.2239246 C118.134951,51.5995246 116.71915,51.9245246 115.25255,51.9245246" id="Fill-58" fill="#804737"></path> <path d="M104.291609,32.4576229 C104.291609,32.4576229 109.67841,30.6488227 113.66881,31.4148228 C114.45721,31.5660228 114.30021,29.0352226 112.23981,28.9272226 C110.02421,28.8112226 104.925209,29.4432226 104.291609,30.6646227 C103.795809,31.6204228 104.291609,32.4576229 104.291609,32.4576229" id="Fill-60" fill="#172755"></path> <path d="M129.740052,32.0405429 C129.740052,32.0405429 124.353451,30.6487427 120.363051,31.4147428 C119.574651,31.5661428 119.340651,29.2725426 121.374851,28.9273426 C123.448051,28.5755426 129.106652,29.0261426 129.740052,30.2475427 C130.235852,31.2033428 129.740052,32.0405429 129.740052,32.0405429" id="Fill-62" fill="#172755"></path> <path d="M97.0380887,24.1700222 C99.5470889,21.7920219 105.819689,16.1250214 117.01589,16.1150052 C128.607091,16.1046214 135.947292,21.0778219 137.671292,23.4122221 C139.395492,25.7468223 135.557292,31.3338228 134.303692,30.6576227 C133.050492,29.9814227 128.341691,24.7700222 117.671691,25.0626222 C101.838889,25.4966223 100.068289,34.3388231 99.1772889,32.9888229 C98.2860888,31.6390228 95.9396886,25.2112223 97.0380887,24.1700222" id="Fill-64" fill="#E2A346"></path> <path d="M173.585956,346.304411 C173.159955,346.304411 172.781555,346.000611 172.701755,345.566811 C170.748355,334.92081 160.499154,246.658602 160.395954,245.768402 C160.338754,245.274602 160.692554,244.828002 161.186354,244.770602 C161.679354,244.713802 162.126754,245.067202 162.183955,245.561002 C162.287355,246.450602 172.529555,334.65361 174.472356,345.241811 C174.561956,345.730811 174.238356,346.199811 173.749356,346.289411 C173.694556,346.299611 173.639956,346.304411 173.585956,346.304411" id="Fill-66" fill="#FFFFFF"></path> <path d="M177.985956,344.504411 C177.559956,344.504411 177.181556,344.200611 177.101756,343.766811 C175.148356,333.12101 164.899355,245.255202 164.796155,244.368802 C164.738555,243.875002 165.091955,243.428202 165.585755,243.370602 C166.078755,243.312802 166.526355,243.666802 166.583955,244.160402 C166.687155,245.046202 176.929556,332.85341 178.872356,343.441811 C178.961956,343.930811 178.638356,344.399811 178.149356,344.489411 C178.094556,344.499611 178.039956,344.504411 177.985956,344.504411" id="Fill-68" fill="#FFFFFF"></path> <path d="M117.672131,85.6705477 L117.671731,85.6705477 C108.04093,85.6705477 101.157929,83.3195474 97.2145287,78.682747 C94.1717284,75.1051467 94.1367284,71.4921464 94.1367284,71.3401464 C94.1367284,70.6775463 94.6741285,70.1401463 95.3367285,70.1401463 C95.9975286,70.1401463 96.5333286,70.6739463 96.5367286,71.3339464 C96.5377286,71.3899464 96.6123286,74.3479466 99.1469289,77.2485469 C102.589129,81.1883473 108.99493,83.2705474 117.671731,83.2705474 C126.007731,83.2705474 132.073932,81.4339473 135.214132,77.958947 C137.827132,75.0675467 137.555532,72.0579464 137.552332,72.0279464 C137.485532,71.3685464 137.965932,70.7799463 138.625132,70.7129463 C139.283732,70.6465463 139.873333,71.1263464 139.940133,71.7857464 C139.957133,71.9517464 140.314533,75.8945468 136.994732,79.5681471 C133.335532,83.6171475 126.833531,85.6705477 117.672131,85.6705477 L117.672131,85.6705477 Z" id="Fill-70" fill="#FFFFFF"></path> <path d="M65.4164058,151.906534 C31.6690028,148.392733 25.6152023,140.451933 25.3740023,140.115533 L27.3244024,138.716932 L27.3118024,138.699732 C27.3262024,138.718132 28.8070026,140.580533 34.2668031,142.838133 C39.2980035,144.918533 48.8296044,147.766533 65.6650059,149.519333 L65.4164058,151.906534 Z" id="Fill-72" fill="#FFFFFF"></path> <path d="M166.805875,150.691013 L166.471075,148.314413 C166.751275,148.275013 194.583877,144.300413 203.570878,138.412412 L204.886078,140.420013 C195.451677,146.601013 167.971075,150.527013 166.805875,150.691013" id="Fill-74" fill="#FFFFFF"></path> <path d="M53.0402447,444.79202 L81.2662473,444.79202 L71.6860464,475.298022 C71.4262464,477.152023 57.4402451,478.380023 56.7342451,473.632022 L53.0402447,444.79202 Z" id="Fill-76" fill="#B4E8FF"></path> <path d="M180.402936,444.79202 L150.176933,444.79202 L159.757134,475.298022 C160.016934,477.152023 174.002936,478.380023 174.708936,473.632022 L180.402936,444.79202 Z" id="Fill-78" fill="#B4E8FF"></path> <path d="M71.1744264,501.495845 C72.7884265,501.495845 74.0592266,500.147045 73.9286266,498.538245 C73.3356266,491.233644 72.1652265,476.342843 71.0574264,473.326642 C68.7992262,467.178442 58.9522253,469.103442 56.6840251,473.333442 C53.4910248,479.288643 47.1470242,490.596644 41.5808237,496.935444 C40.0128236,498.721045 41.2824237,501.495845 43.6586239,501.495845 L71.1744264,501.495845 Z" id="Fill-80" fill="#E2A346"></path> <path d="M73.0369265,502.694085 L41.9031237,502.694085 C41.1117237,502.694085 40.4699236,502.007885 40.4699236,501.182685 C40.4699236,500.357485 41.1117237,499.671485 41.9031237,499.671485 L73.0369265,499.671485 C73.8283266,499.671485 74.4699236,500.357485 74.4699236,501.182685 C74.4699236,502.007885 73.8283266,502.694085 73.0369265,502.694085" id="Fill-82" fill="#172755"></path> <path d="M67.357626,490.260084 C67.153826,490.260084 66.949626,490.184884 66.790226,490.033484 C65.6284259,488.930484 63.0230256,488.154284 59.8210253,487.957484 C56.5600251,487.757284 53.1794248,488.198484 50.7784245,489.138284 C50.3544245,489.304084 49.8762245,489.094884 49.7104244,488.670884 C49.5444244,488.246884 49.7536244,487.768684 50.1776245,487.602684 C52.8298247,486.564884 56.381825,486.094483 59.9222254,486.312083 C63.5526257,486.535083 66.4696259,487.455884 67.9254261,488.837884 C68.2554261,489.151284 68.2690261,489.673084 67.9556261,490.003284 C67.7936261,490.173884 67.575826,490.260084 67.357626,490.260084" id="Fill-84" fill="#FFFFFF"></path> <path d="M67.357226,484.512443 C67.175826,484.512443 66.993226,484.452843 66.841026,484.330243 C64.7788258,482.670643 57.9752252,482.088043 54.5018249,483.273843 C54.0708248,483.421043 53.6024248,483.190843 53.4552248,482.759843 C53.3082248,482.329043 53.5382248,481.860643 53.9692248,481.713643 C55.810025,481.085043 58.5666252,480.851043 61.3436255,481.087843 C64.2566257,481.336243 66.637026,482.049843 67.8746261,483.046043 C68.2292261,483.331443 68.2854261,483.850243 67.9998261,484.204843 C67.8370261,484.407243 67.598226,484.512443 67.357226,484.512443" id="Fill-86" fill="#FFFFFF"></path> <path d="M68.3910261,466.530982 L68.0778261,478.379583 L57.3090251,478.379583 L53.2864248,467.560582 C52.5098247,465.472182 54.0544248,463.249781 56.282825,463.249781 L65.1952258,463.249781 C66.994026,463.249781 68.4384261,464.732982 68.3910261,466.530982" id="Fill-88" fill="#E2A346"></path> <path d="M160.053334,501.495845 C158.439334,501.495845 157.168534,500.147045 157.299134,498.538245 C157.892134,491.233644 159.062534,476.342843 160.170334,473.326642 C162.428535,467.178442 172.275535,469.103442 174.543736,473.333442 C177.736736,479.288643 184.080736,490.596644 189.647137,496.935444 C191.214937,498.721045 189.945337,501.495845 187.569137,501.495845 L160.053334,501.495845 Z" id="Fill-90" fill="#E2A346"></path> <g id="Group-94" transform="translate(157.000014, 499.894045)"> <mask id="mask-74" fill="white"> <use xlink:href="#path-73"></use> </mask> <g id="Clip-93"></g> <path d="M32.6435629,3.20004029 L1.50156013,3.20004029 C0.712360064,3.20004029 0.0725600065,2.51384022 0.0725600065,1.68864015 C0.0725600065,0.863440077 0.712360064,0.177440016 1.50156013,0.177440016 L32.6435629,0.177440016 C33.432763,0.177440016 34.07256,0.863440077 34.07256,1.68864015 C34.07256,2.51384022 33.432763,3.20004029 32.6435629,3.20004029" id="Fill-92" fill="#172755" mask="url(#mask-74)"></path> </g> <path d="M163.870135,490.260084 C163.651935,490.260084 163.434135,490.173884 163.272335,490.003284 C162.958735,489.673084 162.972335,489.151284 163.302535,488.837884 C164.758135,487.455884 167.675135,486.535083 171.305535,486.312083 C174.846136,486.094083 178.397936,486.564884 181.050136,487.602684 C181.474336,487.768684 181.683336,488.246884 181.517536,488.670884 C181.351536,489.094884 180.873536,489.303884 180.449336,489.138284 C178.048336,488.198484 174.667736,487.757484 171.406735,487.957484 C168.204735,488.154284 165.599335,488.930484 164.437535,490.033484 C164.278135,490.184884 164.073935,490.260084 163.870135,490.260084" id="Fill-95" fill="#FFFFFF"></path> <path d="M163.870515,484.512443 C163.629515,484.512443 163.390715,484.407243 163.227915,484.204843 C162.942315,483.850243 162.998515,483.331443 163.353115,483.046043 C166.119515,480.819243 172.736115,480.524843 176.369916,481.765443 C176.800716,481.912243 177.030916,482.380843 176.883716,482.811643 C176.736716,483.242443 176.268116,483.472843 175.837316,483.325243 C172.355915,482.136843 166.470115,482.653443 164.386915,484.330243 C164.234515,484.452843 164.051915,484.512443 163.870515,484.512443" id="Fill-97" fill="#FFFFFF"></path> <path d="M163.132435,466.530982 L163.445635,478.379583 L174.214436,478.379583 L178.237036,467.560582 C179.013636,465.472182 177.469036,463.249781 175.240636,463.249781 L166.328235,463.249781 C164.529435,463.249781 163.085035,464.732982 163.132435,466.530982" id="Fill-99" fill="#E2A346"></path> <path d="M25.3726623,243.641222 L34.8552631,245.278622 C35.7360632,245.430622 36.6086633,244.969822 36.9792633,244.156622 L41.8302637,232.393221 C42.3752638,231.198021 41.6174637,229.814621 40.3168636,229.630421 L25.6592623,227.55362 C24.4190622,227.37802 23.3330621,228.39082 23.4216621,229.640021 L23.7456621,241.842422 C23.8098621,242.745022 24.4810622,243.487222 25.3726623,243.641222" id="Fill-101" fill="#7EC2EE"></path> <path d="M26.1252023,241.416902 C25.9044023,241.416902 25.7252023,241.237702 25.7252023,241.016902 L25.7252023,230.399501 C25.7252023,230.178501 25.9044023,229.999501 26.1252023,229.999501 C26.3460024,229.999501 26.5252024,230.178501 26.5252024,230.399501 L26.5252024,241.016902 C26.5252024,241.237702 26.3460024,241.416902 26.1252023,241.416902" id="Fill-103" fill="#B4E8FF"></path> <path d="M28.5255826,241.816902 C28.5205825,241.816902 28.5151825,241.816902 28.5101825,241.816702 C28.2893825,241.808302 28.1171825,241.622502 28.1255825,241.401902 L28.5255826,230.784301 C28.5337826,230.563501 28.7217826,230.389301 28.9401826,230.399701 C29.1611826,230.408101 29.3331826,230.593701 29.3249826,230.814501 L28.9249826,241.431902 C28.9167826,241.647502 28.7393826,241.816902 28.5255826,241.816902" id="Fill-105" fill="#B4E8FF"></path> <path d="M30.9257828,242.216902 C30.9107828,242.216902 30.8955828,242.216102 30.8801828,242.214302 C30.6607827,242.189502 30.5029827,241.991502 30.5277827,241.771902 L31.7277828,231.154501 C31.7525828,230.935101 31.9519829,230.777301 32.1701829,230.801901 C32.3895829,230.826701 32.5473829,231.024901 32.5225829,231.244301 L31.3225828,241.861902 C31.2995828,242.066102 31.1265828,242.216902 30.9257828,242.216902" id="Fill-107" fill="#B4E8FF"></path> <path d="M33.125583,242.617002 C33.095983,242.617002 33.065583,242.613602 33.035383,242.606602 C32.8201829,242.557202 32.6859829,242.342402 32.7355829,242.127002 L35.1355831,231.709601 C35.1851831,231.494201 35.3999832,231.359201 35.6149832,231.409601 C35.8301832,231.459201 35.9645832,231.674001 35.9149832,231.889201 L33.514983,242.306802 C33.472383,242.491802 33.307783,242.617002 33.125583,242.617002" id="Fill-109" fill="#B4E8FF"></path> <path d="M35.3254032,243.217002 C35.2866032,243.217002 35.2468032,243.211402 35.2078031,243.199202 C34.9966031,243.134402 34.8780031,242.910602 34.9430031,242.699402 L38.1430034,232.282001 C38.2078034,232.071001 38.4316034,231.952001 38.6428035,232.017001 C38.8540035,232.082001 38.9724035,232.305601 38.9076035,232.517001 L35.7076032,242.934402 C35.6546032,243.106402 35.4964032,243.217002 35.3254032,243.217002" id="Fill-111" fill="#B4E8FF"></path> <path d="M205.789478,242.571882 L196.306878,244.209482 C195.426277,244.361482 194.553477,243.900482 194.182877,243.087282 L189.332077,231.323881 C188.787077,230.128681 189.544677,228.74548 190.845477,228.56108 L205.502878,226.48448 C206.743078,226.30888 207.829079,227.32148 207.740479,228.57068 L207.416679,240.773282 C207.352479,241.675682 206.681078,242.417882 205.789478,242.571882" id="Fill-113" fill="#7EC2EE"></path> <path d="M204.849438,239.960061 C204.628638,239.960061 204.449438,239.780861 204.449438,239.560061 L204.449438,228.94266 C204.449438,228.72166 204.628638,228.54266 204.849438,228.54266 C205.070238,228.54266 205.249438,228.72166 205.249438,228.94266 L205.249438,239.560061 C205.249438,239.780861 205.070238,239.960061 204.849438,239.960061" id="Fill-115" fill="#B4E8FF"></path> <path d="M202.449238,240.360061 C202.235238,240.360061 202.057838,240.190661 202.049838,239.975061 L201.649838,229.357661 C201.641438,229.13686 201.813638,228.95126 202.034438,228.94286 C202.254038,228.93546 202.440838,229.10666 202.449238,229.327461 L202.849238,239.945061 C202.857438,240.165661 202.685438,240.351461 202.464438,240.359861 C202.459438,240.360061 202.454238,240.360061 202.449238,240.360061" id="Fill-117" fill="#B4E8FF"></path> <path d="M200.049038,240.760062 C199.848238,240.760062 199.675038,240.609262 199.652038,240.405061 L198.452038,229.787461 C198.427238,229.568061 198.585038,229.369861 198.804438,229.345061 C199.023238,229.319661 199.222038,229.478061 199.246838,229.697661 L200.446838,240.315061 C200.471638,240.534662 200.313838,240.732662 200.094438,240.757462 C200.079038,240.759262 200.063838,240.760062 200.049038,240.760062" id="Fill-119" fill="#B4E8FF"></path> <path d="M197.849038,241.160162 C197.667038,241.160162 197.502438,241.034962 197.459838,240.849962 L195.059837,230.432361 C195.010237,230.217161 195.144437,230.002361 195.359637,229.952761 C195.575237,229.902961 195.789638,230.037361 195.839238,230.252761 L198.239238,240.670162 C198.288838,240.885562 198.154438,241.100362 197.939238,241.149762 C197.909038,241.156762 197.878838,241.160162 197.849038,241.160162" id="Fill-121" fill="#B4E8FF"></path> <path d="M195.649437,241.760162 C195.478437,241.760162 195.320037,241.649562 195.267237,241.477562 L192.067237,231.060161 C192.002237,230.848761 192.120837,230.625161 192.332037,230.560161 C192.544037,230.495361 192.767037,230.613961 192.831837,230.825161 L196.031838,241.242562 C196.096638,241.453762 195.978238,241.677562 195.767038,241.742362 C195.727837,241.754362 195.688237,241.760162 195.649437,241.760162" id="Fill-123" fill="#B4E8FF"></path> </g> </g> </g> </g> </g> </svg> 