<?xml version="1.0" encoding="UTF-8"?> <svg xmlns="http://www.w3.org/2000/svg" xmlns:xlink="http://www.w3.org/1999/xlink" width="334px" height="416px" viewBox="0 0 334 416"> <!-- Generator: Sketch 57.1 (83088) - https://sketch.com --> <title>Group 26</title> <desc>Created with Sketch.</desc> <defs> <polygon id="path-1" points="0 0 334 0 334 185 0 185"></polygon> <polygon id="path-3" points="0 0.0453 33.8899636 0.0453 33.8899636 4.5 0 4.5"></polygon> </defs> <g id="Page-1" stroke="none" stroke-width="1" fill="none" fill-rule="evenodd"> <g id="mark" transform="translate(-394.000000, -3459.000000)"> <g id="Group-11-Copy-5" transform="translate(209.000000, 3375.000000)"> <g id="Group-26" transform="translate(185.000000, 84.000000)"> <g id="Group-3" transform="translate(0.000000, 231.000000)"> <mask id="mask-2" fill="white"> <use xlink:href="#path-1"></use> </mask> <g id="Clip-2"></g> <path d="M18.908139,185 L298.475767,185 C304.513217,185 314.415997,175.355587 318.400538,171.479017 C325.213118,164.85155 330.6509,156.627271 332.867401,147.295401 C336.78537,130.796216 330.172508,113.32169 318.671473,101.374272 C310.597112,92.9867474 298.594462,91.0577614 289.45133,84.296495 C270.301689,70.1349274 270.56127,46.2881349 261.222549,26.4026345 C244.029828,-10.2083214 193.143709,-4.48490526 168.791096,17.7841895 C150.34124,34.6553264 126.096484,44.5833535 101.772771,43.8265338 C84.4257461,43.287203 61.3447182,46.0298347 52.553543,61.4829034 C47.3180589,70.6856234 46.7545154,81.3792524 46.4562295,91.716427 C46.0356362,106.279393 44.1912182,123.543146 32.8878364,134.278103 C23.2771492,143.4054 10.3935749,149.40623 3.61041045,161.269959 C3.4199823,161.606266 3.23368267,161.944123 3.05254369,162.284562 C0.221924618,167.649975 -1.96774115,175.162378 2.76715949,180.156354 C6.752217,184.359932 13.468809,185 18.908139,185" id="Fill-1" fill="#F0F8FC" mask="url(#mask-2)"></path> </g> <g id="Group-20" opacity="0.656226749" transform="translate(32.000000, 192.000000)"> <path d="M0,223 L77,223 L77,0 L0,0 L0,223 Z M5.24150687,208.099305 L71.7597104,208.099305 L71.7597104,4.23286193 L5.24150687,4.23286193 L5.24150687,208.099305 Z" id="Fill-1" fill="#81A7EB"></path> <polygon id="Fill-2" fill="#B5CDFE" points="6 74 19 74 19 32 6 32"></polygon> <polygon id="Fill-3" fill="#FF3F7E" points="19 74 27 74 27 36 19 36"></polygon> <polygon id="Fill-4" fill="#81A7EB" points="26 74 33 74 33 23 26 23"></polygon> <polygon id="Fill-5" fill="#B5CDFE" points="32 74 40 74 40 40 32 40"></polygon> <polygon id="Fill-6" fill="#648ED9" points="55 73.5476221 48.8952483 75 40 37.4523779 46.1047517 36"></polygon> <polygon id="Fill-7" fill="#81A7EB" points="5 81 73 81 73 74 5 74"></polygon> <polygon id="Fill-8" fill="#81A7EB" points="5 157 73 157 73 150 5 150"></polygon> <g id="Group-19" transform="translate(13.000000, 85.000000)"> <path d="M31.9757092,46.4217424 C31.9757092,46.4217424 27.5977193,32.7421408 27.5977193,24.4663294 C27.5977193,16.190518 29.7873222,9.43547539 29.7873222,9.43547539 C29.7873222,9.43547539 34.5008648,18.386913 35.8479386,25.9870982 C37.1950125,33.5860638 35.8479386,46.4217424 35.8479386,46.4217424 L42.9188605,48.2791048 C42.9188605,48.2791048 41.4040103,42.8753146 42.0775472,30.5457459 C42.7510842,18.2186162 51.8426168,6.73419006 51.8426168,6.73419006 C51.8426168,6.73419006 53.5264591,21.7638246 51.8426168,31.3908884 C50.1587745,41.0167327 45.4452318,48.2791048 45.4452318,48.2791048 L33.99632,53.0072688 L31.9757092,46.4217424 Z" id="Fill-9" fill="#81A7EB"></path> <path d="M42.4123705,49.5313304 C42.4123705,49.5313304 44.0609554,32.991903 44.3320723,22.8184844 C44.6031891,12.6450658 42.0780335,0.147200292 42.0780335,0.147200292 C42.0780335,0.147200292 33.9968063,11.7999232 33.9968063,24.4660855 C33.9968063,37.1322478 36.8696723,51.8204106 36.8696723,51.8204106 L42.4123705,49.5313304 Z" id="Fill-11" fill="#B5CDFE"></path> <path d="M27.7335209,41.2613728 C27.7335209,41.2613728 26.6830951,64.7546282 40.6352786,64.7546282 C54.5862463,64.7546282 52.5680671,41.2613728 52.5680671,41.2613728 L27.7335209,41.2613728 Z" id="Fill-13" fill="#66CFFF"></path> <path d="M17.3899877,56.1703946 C17.3899877,60.9119736 13.5578787,64.7547501 8.83217835,64.7547501 C4.10647799,64.7547501 0.274369032,60.9119736 0.274369032,56.1703946 C0.274369032,51.4300352 4.10647799,47.5860391 8.83217835,47.5860391 C13.5578787,47.5860391 17.3899877,51.4300352 17.3899877,56.1703946" id="Fill-15" fill="#D7E5FF"></path> <polygon id="Fill-17" fill="#B0CDFF" points="2.59004731 57.5215251 2.4623914 56.6276009 8.12788244 55.815386 5.50789677 50.9640482 6.30057921 50.53355 9.5357448 56.5263789"></polygon> </g> </g> <g id="Group-116" transform="translate(139.000000, 0.000000)"> <path d="M93.3502654,88.9628905 C96.6018395,105.361107 105.270701,141.998483 109.671215,160.400471 C111.141557,166.554157 107.549056,172.777513 101.517499,174.532896 C95.1209841,176.394299 88.4721534,172.518522 86.8786568,165.999826 L69.2886173,94.0548647 C67.7717167,87.0802837 72.3945088,80.258674 79.3902742,79.1515256 C85.9009317,78.12162 92.0586471,82.4457088 93.3502654,88.9628905" id="Fill-1" fill="#007DDC"></path> <path d="M124.465751,91.4357544 L124.465751,91.4357544 C121.531551,90.2440502 118.154304,91.580712 116.922918,94.4203556 L111.450264,107.266653 C110.218878,110.10477 111.600049,113.373183 114.534249,114.564888 C117.468449,115.755066 120.845696,114.41993 122.075505,111.580286 L127.549736,98.7339893 C128.781122,95.8943457 127.399951,92.6259328 124.465751,91.4357544" id="Fill-3" fill="#F3A396"></path> <path d="M131.930945,97.6008894 C129.401841,99.2244224 127.660316,99.1579447 127.660316,99.1579447 C126.683475,101.552619 123.830793,102.663535 121.414637,101.589551 L119.703638,100.828751 C117.467587,99.8360172 116.422062,97.3246376 117.322587,95.1087144 L117.374482,94.9816681 C117.374482,94.9816681 118.061323,88.1728748 122.214426,80.9873745 C127.577895,71.7041336 134.545522,69.7969624 137.395151,71.6258377 C140.086044,73.3527805 134.344048,84.6008066 132.263681,88.8007197 L136.651836,86.0382021 C137.208941,85.6880863 137.936993,85.7279729 138.448308,86.13718 C138.999308,86.5788874 139.158044,87.3293467 138.831413,87.9438961 L136.241257,92.8174498 C135.226258,94.7275756 133.779312,96.4146318 131.930945,97.6008894" id="Fill-5" fill="#F3A396"></path> <path d="M86.9550033,158.27006 L109.438771,98 L132,105.891979 L108.946658,167.483757 C106.376738,173.900686 98.981381,176.804787 92.7904849,173.82862 C87.0279088,171.057918 84.4534317,164.197861 86.9550033,158.27006" id="Fill-7" fill="#007DDC"></path> <polygon id="Fill-9" fill="#007DDC" points="62.5340781 69 50.5992778 69.1719482 38.9820131 69 16 79.5786169 18.839675 172 50.5992778 172 82.6764162 172 83 79.3351505"></polygon> <path d="M55,84 L55,171" id="Stroke-11" stroke="#005F99" stroke-width="0.719"></path> <path d="M53,94.4991634 C53,95.3290574 52.3290574,96 51.5008366,96 C50.6709426,96 50,95.3290574 50,94.4991634 C50,93.6709426 50.6709426,93 51.5008366,93 C52.3290574,93 53,93.6709426 53,94.4991634" id="Fill-13" fill="#289DE5"></path> <path d="M53,110.499163 C53,111.327384 52.3290574,112 51.5008366,112 C50.6709426,112 50,111.327384 50,110.499163 C50,109.670943 50.6709426,109 51.5008366,109 C52.3290574,109 53,109.670943 53,110.499163" id="Fill-15" fill="#289DE5"></path> <path d="M53,126.499163 C53,127.329057 52.3290574,128 51.5008366,128 C50.6709426,128 50,127.329057 50,126.499163 C50,125.670943 50.6709426,125 51.5008366,125 C52.3290574,125 53,125.670943 53,126.499163" id="Fill-17" fill="#289DE5"></path> <path d="M53,143.499163 C53,144.329057 52.3290574,145 51.5008366,145 C50.6709426,145 50,144.329057 50,143.499163 C50,142.670943 50.6709426,142 51.5008366,142 C52.3290574,142 53,142.670943 53,143.499163" id="Fill-19" fill="#289DE5"></path> <path d="M53,158.500837 C53,159.329057 52.3290574,160 51.5008366,160 C50.6709426,160 50,159.329057 50,158.500837 C50,157.670943 50.6709426,157 51.5008366,157 C52.3290574,157 53,157.670943 53,158.500837" id="Fill-21" fill="#289DE5"></path> <path d="M83,151 L83,105" id="Stroke-23" stroke="#005F99" stroke-width="0.719"></path> <path d="M5.39795454,92.0381427 C9.51172882,107.667618 17.4802843,143.189153 21.4434812,161.05098 C22.7685622,167.02252 28.5492282,170.885392 34.5632891,169.825026 C40.9447588,168.698291 45.1112352,162.485417 43.7379694,156.142824 L28.5868725,86.1450371 C26.9546136,79.4404416 20.0190191,75.5021516 13.4357756,77.5369096 C7.30878162,79.4328998 3.7626841,85.8267762 5.39795454,92.0381427" id="Fill-25" fill="#007DDC"></path> <path d="M31,97 L41,140" id="Stroke-27" stroke="#005F99" stroke-width="0.719"></path> <path d="M91.4094464,108.680374 L91.4094464,108.680374 C93.5562096,110.893933 93.5258666,114.453472 91.3426919,116.628574 L81.4296527,126.38731 C79.246478,128.563951 75.7357996,128.533185 73.5905536,126.319626 C71.4437904,124.104529 71.4741334,120.546528 73.6573081,118.369887 L83.5703473,108.61269 C85.753522,106.436049 89.2626833,106.466815 91.4094464,108.680374" id="Fill-29" fill="#F3A396"></path> <path d="M96.2408902,95.6624913 C94.7465914,97.3283643 83.8714166,102.023512 83.404644,104.184891 C82.7671392,107.144248 83.4954924,108.729563 83.4954924,108.729563 C81.5093594,110.545912 81.4999613,113.607105 83.4766962,115.432574 L84.8754476,116.726058 C86.7049455,118.41625 89.5745005,118.42537 91.4133965,116.748857 L91.5199084,116.65158 C91.5199084,116.65158 97.9638763,113.420151 103.461768,106.840256 C110.56517,98.3391358 109.792959,91.166458 106.910873,89.2300326 C104.185422,87.3984842 95.2916815,96.9985336 91.9443895,100.523314" id="Fill-31" fill="#F3A396"></path> <path d="M43.4710231,168.514862 L91,125.192963 L75.2438186,107 L26.7022178,151.342479 C21.7080369,156.121001 21.775443,164.114276 26.8508177,168.807112 C31.5753742,173.174035 38.9057901,173.047036 43.4710231,168.514862" id="Fill-33" fill="#007DDC"></path> <polygon id="Fill-35" fill="#04162E" points="86 206 18 206 18.6559043 171 82.9620469 171"></polygon> <path d="M18.1223465,206.487667 L16.0076732,287.597533 C15.7548488,294.925391 21.7820578,301 29.3074854,301 C36.1181379,301 41.8300967,295.987003 42.5417506,289.38463 L50.9083656,208.697583 C51.9274665,199.237376 44.3162033,191 34.5559328,191 C25.6899115,191 18.4188689,197.851806 18.1223465,206.487667" id="Fill-37" fill="#04162E"></path> <polygon id="Fill-39" fill="#FFFFFF" points="15 394.989245 16.608953 368 29 368.058385 27.0370171 395"></polygon> <path d="M28.4817983,394 L14.2367646,394 L4.71675696,401.829711 C2.39758578,403.483294 1,406.300341 1,409.318933 L1,411 L33,410.812197 L33,406.547692 C33,404.970451 32.6182872,403.420693 31.8913601,402.055685 L28.4817983,394 Z" id="Fill-41" fill="#1A1A1A"></path> <g id="Group-45" transform="translate(0.000000, 411.000000)"> <mask id="mask-4" fill="white"> <use xlink:href="#path-3"></use> </mask> <g id="Clip-44"></g> <polygon id="Fill-43" fill="#FFFFFF" mask="url(#mask-4)" points="0.0182363636 4.5003 33.8899636 4.3263 33.8714182 0.0453 -0.000309090909 0.2193"></polygon> </g> <path d="M18,398 C18,398 20.650564,388.478027 24.6055521,389.02249 C30.2660786,389.799419 25.008271,396.082147 18,398 Z" id="Stroke-46" stroke="#FFFFFF" stroke-width="0.461" stroke-linecap="round" stroke-linejoin="round"></path> <path d="M18,398 C18,398 14.9884549,388.293208 11.2124408,389.0411 C5.80864785,390.113132 11.1691981,396.352423 18,398 Z" id="Stroke-48" stroke="#FFFFFF" stroke-width="0.461" stroke-linecap="round" stroke-linejoin="round"></path> <path d="M41.9157573,289.344762 L31.4866445,383 L13,383 L15.8360543,287.528569 C16.046759,280.309276 22.2294803,274.666645 29.5472386,275.01533 C37.0941574,275.376143 42.764728,281.945063 41.9157573,289.344762" id="Fill-50" fill="#04162E"></path> <path d="M85.5307538,205.487667 L88.992643,286.597533 C89.2351099,293.925391 83.453321,300 76.2391812,300 C69.7060442,300 64.2280874,294.987003 63.5455878,288.38463 L54.0878804,207.697583 C53.1105291,198.237376 60.4099814,190 69.7704027,190 C78.2732094,190 85.246379,196.851806 85.5307538,205.487667" id="Fill-52" fill="#04162E"></path> <polygon id="Fill-54" fill="#FFFFFF" points="89 394.943248 87.391047 368 75 368.058286 76.5848488 395"></polygon> <path d="M90.2753386,394 L105.737311,402.671218 L114.439844,404.420959 C118.44042,405.225314 121.44612,408.647306 121.822397,412.825609 L122,414.781476 L75.0918116,415 L75,394.071292 L90.2753386,394 Z" id="Fill-56" fill="#1A1A1A"></path> <path d="M97.1725425,398 C97.1725425,398 94.2281048,388.890205 97.6711117,387.37413 C102.594672,385.205343 101.743013,392.956309 97.1725425,398 Z" id="Stroke-58" stroke="#FFFFFF" stroke-width="0.461" stroke-linecap="round" stroke-linejoin="round"></path> <path d="M98,398.128026 C98,398.128026 90.0520225,392.116185 87.1381397,394.60259 C82.9685505,398.158543 91.0903951,400.296183 98,398.128026 Z" id="Stroke-60" stroke="#FFFFFF" stroke-width="0.461" stroke-linecap="round" stroke-linejoin="round"></path> <polygon id="Fill-62" fill="#FFFFFF" points="74.0198536 415 122 414.756516 121.981674 410 74 410.243484"></polygon> <path d="M63.0839711,289.344762 L73.5141651,383 L92,383 L89.162532,287.528569 C88.9533745,280.309276 82.7709239,274.666645 75.4519482,275.01533 C67.9053598,275.376143 62.2365755,281.945063 63.0839711,289.344762" id="Fill-64" fill="#04162E"></path> <polygon id="Fill-66" fill="#007DDC" points="70 71.3078198 64 69 64.2302081 75"></polygon> <path d="M49.2072463,81.1925349 L49.2072463,81.1925349 C42.6622221,78.7521145 39.3522006,71.5098214 41.8140482,65.0177261 L51.298592,40 L75,48.8413986 L65.5154562,73.8591247 C63.0536085,80.3512201 55.7522705,83.6344739 49.2072463,81.1925349" id="Fill-68" fill="#F3A396"></path> <path d="M51,42 C51,42 51.5645448,57.9878617 60.510525,61.2860138 C72.043368,65.5359713 75,49.4246988 75,49.4246988 C75,49.4246988 66.9989855,57.3276143 59.9718488,54.6573143 C52.1351763,51.6800301 51,42 51,42" id="Fill-70" fill="#1A1A1A"></path> <polygon id="Fill-72" fill="#007DDC" points="29 78.0316883 46.9711246 68 52.4148936 83.6857143 65.56231 74.3911688 73 95"></polygon> <path d="M52,83.3507074 L48.5166903,70.7271571 C48.1582992,68.7193895 47.3503474,66.7993175 46.147851,65.1007923 L43.9031912,61.9268271 C43.4284802,61.2544942 42.5922344,60.9021733 41.7654199,61.0237163 L38.0620455,61.5668136 C37.2069369,61.6914337 36.5263083,62.2976103 36.3361095,63.1022558 L34.0317178,72.839544 C33.8037936,73.79958 34.847529,74.6073026 35.7765164,74.1888254 L45.0255211,70.0178998 C45.5411012,69.7871219 46.1588543,70.0702094 46.3018963,70.6040756 L51.3665281,85 L52,83.3507074 Z" id="Fill-74" fill="#289DE5"></path> <path d="M51.6190817,82.8973282 L68.9303254,71.2252523 C69.4111506,70.9046239 69.4372657,70.8820445 69.8443541,71.4495416 L71.6616583,73.9829571 C72.0810362,74.5685178 72.1132961,75.4175055 71.743076,76.1370376 L68.6323059,85.3479523 C68.1898853,86.2074771 67.103804,86.2195195 66.8165379,85.3705318 L64.5122637,77.1485975 C64.3540369,76.6774394 63.82559,76.5374467 63.4246463,76.8595804 L51,84.511007 L51.6190817,82.8973282 Z" id="Fill-76" fill="#289DE5"></path> <path d="M94.9011725,21.0547098 C95.268164,17.2546679 94.9131559,11.565119 88.4945493,4.99840628 C77.8877456,-5.85048803 66.3372494,4.34053341 66.3372494,4.34053341 C63.0133548,2.65529744 59.6774769,2.79197879 56.7730012,5.51058584 C54.0527702,8.0579657 53.3592312,14.5180369 53.0581483,16.7439903 L51,30.8116553 L58.1121457,19.3754818 C63.5960475,12.1554022 68.5347047,10.2358553 68.5347047,10.2358553 L80.6424288,13.7099648 L84.2554228,42 L91.914311,28.9536902 C92.886464,27.298494 93.6908495,25.5426644 94.2675505,23.7102331 C94.6000897,22.6498262 94.8382597,21.7110807 94.9011725,21.0547098" id="Fill-78" fill="#1A1A1A"></path> <path d="M83.5880502,37.7600651 C83.5880502,37.7600651 86.2071079,35.7127329 89.1065551,38.3383439 C92.0044359,40.9655657 87.3881901,48.8166257 81.92451,47.9306833 C81.92451,47.9306833 79.9570839,47.6359062 79,45.8044217 C79,45.8044217 82.5260161,40.0506288 83.5880502,37.7600651" id="Fill-80" fill="#E88E85"></path> <path d="M52,27.099702 C52,27.099702 51.0069362,23.8889481 47.4669031,24.0029664 C43.7803033,24.1200251 42.2907076,32.5391325 46.7565035,35.4047911 C46.7565035,35.4047911 48.3492941,36.453759 50.1574479,35.766609 C50.1574479,35.766609 51.3613882,29.405911 52,27.099702" id="Fill-82" fill="#F3A396"></path> <path d="M47,27 C47,27 50.5131636,27.1195281 51,32" id="Stroke-84" stroke="#D26665" stroke-width="0.497" stroke-linecap="round" stroke-linejoin="round"></path> <path d="M51,29 C51,29 47.038192,29.5239295 48.2201956,33" id="Stroke-86" stroke="#D26665" stroke-width="0.497" stroke-linecap="round" stroke-linejoin="round"></path> <path d="M88.6654809,32.8716157 C86.8564747,37.6492126 82.5953279,47.4659648 77.3862436,52.2934544 C72.4956785,56.8261239 66.762333,58.1082132 60.6677958,56.0384252 C54.5732586,53.9686372 50.9567703,49.9893222 50.0987497,41.4183738 C49.2407291,32.8474253 54.2562634,20.1353889 54.2562634,20.1353889 C54.2562634,20.1353889 60.7257084,3.07059874 77.726099,9.41300988 C95.6332788,16.0940861 88.6654809,32.8716157 88.6654809,32.8716157" id="Fill-88" fill="#F3A396"></path> <path d="M93.4173173,17.382121 C92.9201847,17.3621819 80.1482853,7.96627554 80.1482853,7.96627554 L66.2057678,7.05828067 L66.2057678,7.07821974 C54.0860698,5.90794933 55.0164832,18.2563728 55.0164832,18.2563728 C62.9204357,18.193488 64.6018689,13.7286687 66.7485089,10.5951661 C67.7610175,14.0078157 74.988444,22.2702623 84.4902142,25.6660404 C94.2200268,29.1415748 93.9995858,24.72737 93.9995858,24.72737 C93.9995858,24.72737 93.9144499,17.4005263 93.4173173,17.382121" id="Fill-90" fill="#1A1A1A"></path> <path d="M76,32 L73.1807587,40.0981279 C73.1182742,40.2780863 73.0245475,40.4371567 72.9114803,40.5721255 C72.4651624,41.1007533 71.6989834,41.1296752 71.1604265,40.7135214 L70,39.8201565" id="Stroke-92" stroke="#D26665" stroke-width="0.497" stroke-linecap="round" stroke-linejoin="round"></path> <path d="M67.9033633,30.027916 C67.6113586,30.803907 66.7473448,31.1945692 65.9713324,30.9039059 C65.1966534,30.6119093 64.8046471,29.7479192 65.0966518,28.9719282 C65.3873231,28.1972705 66.2526703,27.805275 67.0273493,28.0959383 C67.8033617,28.3879349 68.195368,29.2519249 67.9033633,30.027916" id="Fill-94" fill="#1A1A1A"></path> <path d="M71.8164589,28 L73,25.113494 L67.4084788,23.1828617 C66.7037406,22.9402616 65.9316708,22.9388089 65.2254364,23.1799563 L61,24.622483 L65.9436409,25.6553495 L71.8164589,28 Z" id="Fill-96" fill="#1A1A1A"></path> <path d="M79.0964856,33.9726507 C78.8044657,34.7473297 79.1978258,35.6126769 79.9725452,35.9033482 C80.7472645,36.1953529 81.6126567,35.8033466 81.9033432,35.0286676 C82.1953631,34.2526552 81.8033364,33.3886414 81.028617,33.0966367 C80.2525642,32.804632 79.3885054,33.1966383 79.0964856,33.9726507" id="Fill-98" fill="#1A1A1A"></path> <path d="M80,30.201278 L81.0811204,27 L85.3255729,28.8051118 C85.8624955,29.0335463 86.2888323,29.5095847 86.5332848,30.1517572 L88,34 L84.6504183,31.827476 L80,30.201278 Z" id="Fill-100" fill="#1A1A1A"></path> <path d="M68.9532883,42.9151583 C68.1577416,43.0221873 67.5177816,43.0121979 66.8132384,42.9708134 C66.1263088,42.9237206 65.4452504,42.8138376 64.7818056,42.6468725 C63.4534482,42.3215045 62.2028841,41.6964555 61.1783609,40.8587757 C60.9669979,40.6861023 60.9391098,40.379286 61.1181812,40.1737905 C61.2752356,39.9925548 61.5379715,39.9497432 61.7434632,40.0610533 L61.7610768,40.0696156 C62.7914712,40.6275932 63.920208,40.94868 65.0694941,41.0128973 C65.6419354,41.0500007 66.2173123,41.0371572 66.7838824,40.9715128 C67.332839,40.9087225 67.9493143,40.785996 68.3808469,40.6390096 C69.0105324,40.4206706 69.7033332,40.7403303 69.9293741,41.3525358 C70.1539472,41.9647414 69.8251604,42.6383101 69.195475,42.8566492 C69.1191495,42.8837632 69.0310816,42.9037419 68.9532883,42.9151583" id="Fill-102" fill="#1A1A1A"></path> <path d="M74.1317692,42.6365631 C74.2966641,42.9845659 74.6004179,43.4356806 74.8969395,43.8008687 C75.2050326,44.1803779 75.5507333,44.5298128 75.9311487,44.8420128 C76.6876403,45.4721413 77.6003481,45.9032064 78.604182,46.0879486 L78.6215393,46.0908129 C78.873221,46.1366404 79.0395624,46.3758028 78.9918297,46.62499 C78.9513292,46.8412386 78.7618447,46.9944744 78.5463241,46.9987707 C77.3616844,47.0216845 76.1365442,46.7238056 75.0690666,46.1438009 C74.5324349,45.858811 74.0261786,45.5194009 73.5560835,45.131299 C73.0802026,44.7288761 72.6694118,44.3479348 72.2340314,43.7851155 C71.8565088,43.3010622 71.944742,42.6064888 72.433641,42.2312759 C72.9225399,41.8574952 73.6255129,41.946286 74.0030355,42.4289071 C74.0522147,42.49192 74.098501,42.5678218 74.1317692,42.6365631" id="Fill-104" fill="#1A1A1A"></path> <path d="M65,44 L73,47" id="Stroke-106" stroke="#D26665" stroke-width="0.497" stroke-linecap="round" stroke-linejoin="round"></path> <path d="M66,47.024 C66,47.024 67.4211946,48.594 70,48.976" id="Stroke-108" stroke="#D26665" stroke-width="0.373" stroke-linecap="round" stroke-linejoin="round"></path> <polygon id="Fill-110" fill="#1A1A1A" points="58 14.0954834 53.4546763 29 52 26.1085457 55.0028777 12"></polygon> <polygon id="Fill-112" fill="#04162E" points="127 99.32761 116.413052 95 115 98.6566015 125.583822 103"></polygon> <path d="M124,97.5 C124,99.9844822 121.985623,102 119.499265,102 C117.014377,102 115,99.9844822 115,97.5 C115,95.0155178 117.014377,93 119.499265,93 C121.985623,93 124,95.0155178 124,97.5" id="Fill-114" fill="#04162E"></path> </g> </g> </g> </g> </g> </svg> 