<?xml version="1.0" encoding="UTF-8"?> <svg xmlns="http://www.w3.org/2000/svg" xmlns:xlink="http://www.w3.org/1999/xlink" width="341px" height="305px" viewBox="0 0 341 305"> <!-- Generator: Sketch 57.1 (83088) - https://sketch.com --> <title>Group 20</title> <desc>Created with Sketch.</desc> <defs> <polygon id="path-1" points="0 192 93 192 93 0 0 0"></polygon> <polygon id="path-3" points="-0.000172179975 0.874944036 12.431222 0.874944036 12.431222 55.168885 -0.000172179975 55.168885"></polygon> <polygon id="path-5" points="0 0.575791533 124.528655 0.575791533 124.528655 39.2753358 0 39.2753358"></polygon> <polygon id="path-7" points="0.840066096 0.874944036 13.2714603 0.874944036 13.2714603 55.168885 0.840066096 55.168885"></polygon> <polygon id="path-9" points="0.903763105 0.299479312 26.0818226 0.299479312 26.0818226 37.0581457 0.903763105 37.0581457"></polygon> <polygon id="path-11" points="0.145016208 0.337318928 49.2660326 0.337318928 49.2660326 45.2282407 0.145016208 45.2282407"></polygon> <polygon id="path-13" points="0 304.214434 246.47219 304.214434 246.47219 0.337318928 0 0.337318928"></polygon> </defs> <g id="Page-1" stroke="none" stroke-width="1" fill="none" fill-rule="evenodd"> <g id="mark" transform="translate(-353.000000, -2184.000000)"> <g id="Group-11-Copy-3" transform="translate(170.000000, 1993.000000)"> <g id="Group-20" transform="translate(183.000000, 191.000000)"> <g id="Group-22" transform="translate(248.000000, 63.000000)"> <path d="M48.7826343,81 C48.6755368,80.6043392 46.1506324,71.1312763 45.2792483,58.6101602 C44.4695264,46.9764313 45.0309769,30.4889382 52.3054925,18.0248102 C57.4039819,9.28770887 65.119869,3.55958317 75.2373361,1 L76,4.03502737 C66.727954,6.38131195 59.6627653,11.6193393 55.0024019,19.6009403 C41.79858,42.2154764 51.692116,79.8065048 51.7943454,80.184255 L48.7826343,81 Z" id="Fill-1" fill="#83B069"></path> <path d="M47,50.6474389 C47,50.6474389 42.0703646,29.3151753 27,36.4660658 C27,36.4660658 30.7955724,57.4354334 47,50.6474389" id="Fill-3" fill="#83B069"></path> <path d="M71,37.748883 C71,37.748883 51.7268137,32.8530103 46,48.0974517 C46,48.0974517 64.2085437,53.5276822 71,37.748883" id="Fill-5" fill="#83B069"></path> <path d="M48.9796369,29 C48.9796369,29 56.628215,10.2054945 42.1617109,2 C42.1617109,2 34.1479749,19.6620879 48.9796369,29" id="Fill-7" fill="#83B069"></path> <path d="M51,24.4019165 C51,24.4019165 66.7261437,34.5736309 76,20.7123734 C76,20.7123734 61.4079532,10.275092 51,24.4019165" id="Fill-9" fill="#83B069"></path> <path d="M65,7.40143315 C65,7.40143315 80.7261437,17.5741536 90,3.712131 C90,3.712131 75.4079532,-6.72446887 65,7.40143315" id="Fill-11" fill="#83B069"></path> <path d="M70.4077642,69.7067358 L60.7310287,57 L47.1492104,57 L46.8516173,57 L33.2681457,57 L23.5930635,69.7067358 C21.6851611,72.2108989 21.4735393,75.6084659 23.052436,78.3281647 L29.8325988,90 L46.5870901,90 L47.4120843,90 L64.1698822,90 L70.9467383,78.3281647 C72.5272883,75.6084659 72.3140133,72.2108989 70.4077642,69.7067358" id="Fill-13" fill="#8A8A8A"></path> <mask id="mask-2" fill="white"> <use xlink:href="#path-1"></use> </mask> <g id="Clip-16"></g> <path d="M6.3629435,185.584441 L86.6370565,185.584441 L86.6370565,144.20778 L6.3629435,144.20778 L6.3629435,185.584441 Z M6.3629435,137.793863 L86.6370565,137.793863 L86.6370565,96.4155593 L6.3629435,96.4155593 L6.3629435,137.793863 Z M0,192 L93,192 L93,90 L0,90 L0,192 Z" id="Fill-15" fill="#EDF9FF" mask="url(#mask-2)"></path> <path d="M20.8423509,138 L15.1559516,138 C14.517717,138 14,137.499484 14,136.880814 L14,104.119186 C14,103.502157 14.517717,103 15.1559516,103 L20.8423509,103 C21.4805856,103 22,103.502157 22,104.119186 L22,136.880814 C22,137.499484 21.4805856,138 20.8423509,138" id="Fill-17" fill="#586066" mask="url(#mask-2)"></path> <path d="M29.8423509,138 L24.1559516,138 C23.517717,138 23,137.499484 23,136.880814 L23,104.119186 C23,103.502157 23.517717,103 24.1559516,103 L29.8423509,103 C30.4805856,103 31,103.502157 31,104.119186 L31,136.880814 C31,137.499484 30.4805856,138 29.8423509,138" id="Fill-18" fill="#CCC6AC" mask="url(#mask-2)"></path> <path d="M38.8423509,138 L33.1559516,138 C32.517717,138 32,137.499484 32,136.880814 L32,104.119186 C32,103.502157 32.517717,103 33.1559516,103 L38.8423509,103 C39.4805856,103 40,103.502157 40,104.119186 L40,136.880814 C40,137.499484 39.4805856,138 38.8423509,138" id="Fill-19" fill="#8A8A8A" mask="url(#mask-2)"></path> <path d="M64.4512687,134.189772 L59.6324661,136.859518 C59.1074668,137.149107 58.43764,136.976655 58.1348191,136.473943 L41.1472232,108.245568 C40.8444023,107.742855 41.0237908,107.100229 41.5471444,106.809014 L46.3675928,104.140895 C46.8925921,103.851306 47.5624188,104.022131 47.863594,104.524843 L64.8528356,132.753218 C65.1556565,133.255931 64.9762681,133.898557 64.4512687,134.189772" id="Fill-20" fill="#CCC6AC" mask="url(#mask-2)"></path> <path d="M75.4516306,134.189772 L70.6312099,136.859518 C70.1078594,137.149107 69.4380365,136.976655 69.1352173,136.473943 L52.1460735,108.245568 C51.8449001,107.742855 52.0242876,107.100229 52.5476381,106.809014 L57.3680587,104.140895 C57.8914093,103.851306 58.5612322,104.022131 58.8640513,104.524843 L75.8531951,132.753218 C76.1560143,133.255931 75.9749811,133.898557 75.4516306,134.189772" id="Fill-21" fill="#CCC6AC" mask="url(#mask-2)"></path> </g> <g id="Group-115"> <polygon id="Fill-1" fill="#04162E" points="164 238 86 238 88.5538671 199 160.596557 199"></polygon> <g id="Group-114"> <path d="M139.291533,209.262576 L230.672611,218.546465 C238.938972,219.31883 244.920504,226.792489 243.87365,235.03679 C242.924938,242.501829 236.500903,248.044578 228.986969,247.879072 L137.208156,245.50681 C126.443464,245.270618 118.252862,235.752261 119.611362,225.056394 C120.845893,215.339774 129.551312,208.354014 139.291533,209.262576" id="Fill-2" fill="#04162E"></path> <polygon id="Fill-4" fill="#FFFFFF" points="111.825212 263.695819 141.526257 257.696202 139.51003 243.659169 109.855473 249.622581"></polygon> <path d="M111.979829,264.768164 L104.879127,283.641095 L104.326429,293.783549 C104.073325,298.443596 100.781244,302.379551 96.2425795,303.448448 L94.1196004,303.948416 L86.4765314,250.765611 L109.490107,247.450306 L111.979829,264.768164 Z" id="Fill-6" fill="#1A1A1A"></path> <path d="M108.423624,272.787306 C108.423624,272.787306 118.434168,268.010025 120.715552,271.644276 C123.981807,276.845667 114.938914,277.128408 108.423624,272.787306 Z" id="Stroke-8" stroke="#FFFFFF" stroke-width="0.461" stroke-linecap="round" stroke-linejoin="round"></path> <path d="M108.511952,272.894196 C108.511952,272.894196 114.395342,263.481005 111.046442,260.79497 C106.258116,256.95556 104.947827,265.91878 108.511952,272.894196 Z" id="Stroke-10" stroke="#FFFFFF" stroke-width="0.461" stroke-linecap="round" stroke-linejoin="round"></path> <g id="Group-14" transform="translate(86.089987, 249.045549)"> <mask id="mask-4" fill="white"> <use xlink:href="#path-3"></use> </mask> <g id="Clip-13"></g> <polygon id="Fill-12" fill="#FFFFFF" mask="url(#mask-4)" points="-0.000172179975 1.55593496 7.70488169 55.1697471 12.431222 54.4887561 4.72788992 0.874944036"></polygon> </g> <path d="M225.333655,218.248898 L121.593498,244.519631 L124.448242,265.044181 L231.404721,246.917754 C239.493736,245.554048 244.884691,237.804544 243.36262,229.73437 C241.792338,221.410765 233.5277,216.145584 225.333655,218.248898" id="Fill-15" fill="#04162E"></path> <g id="Group-19" transform="translate(0.000000, 208.607347)"> <mask id="mask-6" fill="white"> <use xlink:href="#path-5"></use> </mask> <g id="Clip-18"></g> <path d="M104.700921,0.655229628 L13.3198428,9.93911857 C5.05348226,10.711483 -0.928050063,18.1851429 0.118804183,26.4294431 C1.06751584,33.8944829 7.4915507,39.4372318 15.0054848,39.2717251 L106.784298,36.8994631 C117.54899,36.6632713 125.739592,27.1449146 124.381092,16.449047 C123.146561,6.73242712 114.441142,-0.253332947 104.700921,0.655229628" id="Fill-17" fill="#04162E" mask="url(#mask-6)"></path> </g> <polygon id="Fill-20" fill="#FFFFFF" points="132.167243 263.695819 102.466197 257.696202 104.482424 243.659169 134.136981 249.622581"></polygon> <path d="M132.012625,264.768164 L139.113327,283.641095 L139.666025,293.783549 C139.919129,298.443596 143.21121,302.379551 147.749875,303.448448 L149.872854,303.948416 L157.515923,250.765611 L134.502347,247.450306 L132.012625,264.768164 Z" id="Fill-22" fill="#1A1A1A"></path> <path d="M135.56883,272.787306 C135.56883,272.787306 125.558286,268.010025 123.276902,271.644276 C120.010648,276.845667 129.055262,277.128408 135.56883,272.787306 Z" id="Stroke-24" stroke="#FFFFFF" stroke-width="0.461" stroke-linecap="round" stroke-linejoin="round"></path> <path d="M135.480502,272.894196 C135.480502,272.894196 129.598834,263.481005 132.946013,260.79497 C137.734338,256.95556 139.044627,265.91878 135.480502,272.894196 Z" id="Stroke-26" stroke="#FFFFFF" stroke-width="0.461" stroke-linecap="round" stroke-linejoin="round"></path> <g id="Group-30" transform="translate(144.631179, 249.045549)"> <mask id="mask-8" fill="white"> <use xlink:href="#path-7"></use> </mask> <g id="Clip-29"></g> <polygon id="Fill-28" fill="#FFFFFF" mask="url(#mask-8)" points="13.2714603 1.55593496 5.5664064 55.1697471 0.840066096 54.4887561 8.54339816 0.874944036"></polygon> </g> <path d="M18.6587995,218.248898 L122.398956,244.519631 L119.544212,265.044181 L12.5877336,246.917754 C4.49871838,245.554048 -0.892236629,237.804544 0.629834347,229.73437 C2.20011572,221.410765 10.4647545,216.145584 18.6587995,218.248898" id="Fill-31" fill="#04162E"></path> <path d="M73.1661584,105.776264 C69.438462,124.442312 59.5002338,166.148265 54.4553606,187.093477 C52.7697186,194.098201 56.8882636,201.182231 63.8030114,203.180379 C71.1361565,205.299209 78.758564,200.887422 80.5853935,193.467207 L100.751112,111.572445 C102.49013,103.633298 97.1904303,95.8682775 89.1702871,94.6080133 C81.7062852,93.4356745 74.6469062,98.3577734 73.1661584,105.776264" id="Fill-33" fill="#007DDC"></path> <path d="M176.101718,105.776264 C179.829414,124.442312 189.767643,166.148265 194.812516,187.093477 C196.498158,194.098201 192.379613,201.182231 185.464865,203.180379 C178.13172,205.299209 170.509312,200.887422 168.682483,193.467207 L148.516764,111.572445 C146.777746,103.633298 152.077446,95.8682775 160.097589,94.6080133 C167.559869,93.4356745 174.62097,98.3577734 176.101718,105.776264" id="Fill-35" fill="#007DDC"></path> <path d="M231.491844,116.73746 L231.491844,116.73746 C234.434399,118.587342 235.321126,122.476748 233.473635,125.423111 L225.055756,138.667092 C223.206543,141.613455 219.323885,142.503053 216.381329,140.653172 C213.438773,138.801566 212.552046,134.913883 214.399538,131.965796 L222.817416,118.721816 C224.664908,115.775452 228.549288,114.887578 231.491844,116.73746" id="Fill-37" fill="#F3A396"></path> <g id="Group-41" transform="translate(220.390368, 91.373466)"> <mask id="mask-10" fill="white"> <use xlink:href="#path-9"></use> </mask> <g id="Clip-40"></g> <path d="M0.908593726,22.8798426 C1.00157091,26.3072096 2.19477814,27.8709026 2.19477814,27.8709026 C0.547015779,30.3810869 1.33904366,33.7619051 3.93035228,35.2738774 L5.76579081,36.3462226 C8.16425786,37.744409 11.2359486,37.0237655 12.763185,34.7049483 L12.8527186,34.5721981 C12.8527186,34.5721981 18.8979575,29.3656346 23.0526603,20.7058437 C28.4229537,9.51690419 25.7197281,1.79843237 22.1280538,0.395073855 C18.7361083,-0.932427442 11.7369923,11.9253708 9.08197712,16.6664469 L8.86847395,10.7564801 C8.84092516,10.006528 8.33127243,9.3617417 7.60811654,9.16175449 C6.83158485,8.94969909 6.01028638,9.30657282 5.63665583,10.0220443 L2.67171667,15.6871992 C1.51122364,17.9060228 0.839721736,20.3748304 0.908593726,22.8798426" id="Fill-39" fill="#F3A396" mask="url(#mask-10)"></path> </g> <path d="M194.442157,194.968663 L235.142059,135.112147 L213.180503,119.268332 L171.636919,180.507519 C167.420231,187.045032 169.574203,195.791024 176.34432,199.613193 C182.647828,203.171586 190.62837,201.125166 194.442157,194.968663" id="Fill-42" fill="#007DDC"></path> <path d="M18.2653683,116.73746 L18.2653683,116.73746 C15.3228125,118.587342 14.4343638,122.476748 16.2835767,125.423111 L24.7014557,138.667092 C26.5506686,141.613455 30.4333271,142.503053 33.3758828,140.653172 C36.3184386,138.801566 37.2051655,134.913883 35.3576743,131.965796 L26.9397954,118.721816 C25.0923042,115.775452 21.207924,114.887578 18.2653683,116.73746" id="Fill-44" fill="#F3A396"></path> <path d="M28.4582506,114.253308 C28.3652734,117.680675 27.1703444,119.244368 27.1703444,119.244368 C28.8198285,121.754553 28.0278006,125.135371 25.436492,126.647343 L23.6010535,127.719688 C21.2025864,129.117875 18.1308957,128.397231 16.6036593,126.078414 L16.5141257,125.945664 C16.5141257,125.945664 10.4688868,120.7391 6.31418403,112.07931 C0.943890621,100.89037 3.64711622,93.1718982 7.23879049,91.7685397 C10.630736,90.4410384 17.6281302,103.298837 20.2848672,108.039913 L20.4983703,102.129946 C20.5259191,101.379994 21.0355719,100.735208 21.757006,100.53522 C22.5352594,100.323165 23.3565579,100.680039 23.7301885,101.39551 L26.6951276,107.060665 C27.8556207,109.279489 28.5271226,111.748296 28.4582506,114.253308" id="Fill-46" fill="#F3A396"></path> <path d="M55.3152274,194.968663 L14.615325,135.112147 L36.5768807,119.268332 L78.120465,180.507519 C82.3371526,187.045032 80.1831811,195.791024 73.4130645,199.613193 C67.1095556,203.171586 59.1290138,201.125166 55.3152274,194.968663" id="Fill-48" fill="#007DDC"></path> <polygon id="Fill-50" fill="#007DDC" points="138.062513 82.9077272 124.472347 83.1025423 111.242038 82.9077272 82.8994924 95.0362617 88.3076654 199.605435 124.472347 199.605435 160.996885 199.605435 166.405058 95.0362617"></polygon> <path d="M125.18259,101.432577 L125.18259,199.846972" id="Stroke-52" stroke="#005F99" stroke-width="0.719"></path> <path d="M122.552024,112.196888 C122.552024,113.052006 121.861582,113.743341 121.009291,113.743341 C120.155279,113.743341 119.464837,113.052006 119.464837,112.196888 C119.464837,111.343495 120.155279,110.652159 121.009291,110.652159 C121.861582,110.652159 122.552024,111.343495 122.552024,112.196888" id="Fill-54" fill="#289DE5"></path> <path d="M122.552024,130.505372 C122.552024,131.36049 121.861582,132.051825 121.009291,132.051825 C120.155279,132.051825 119.464837,131.36049 119.464837,130.505372 C119.464837,129.651979 120.155279,128.960644 121.009291,128.960644 C121.861582,128.960644 122.552024,129.651979 122.552024,130.505372" id="Fill-56" fill="#289DE5"></path> <path d="M122.552024,148.813856 C122.552024,149.668974 121.861582,150.360309 121.009291,150.360309 C120.155279,150.360309 119.464837,149.668974 119.464837,148.813856 C119.464837,147.960463 120.155279,147.269128 121.009291,147.269128 C121.861582,147.269128 122.552024,147.960463 122.552024,148.813856" id="Fill-58" fill="#289DE5"></path> <path d="M122.552024,167.122341 C122.552024,167.977458 121.861582,168.668793 121.009291,168.668793 C120.155279,168.668793 119.464837,167.977458 119.464837,167.122341 C119.464837,166.268947 120.155279,165.577612 121.009291,165.577612 C121.861582,165.577612 122.552024,166.268947 122.552024,167.122341" id="Fill-60" fill="#289DE5"></path> <path d="M122.552024,185.431859 C122.552024,186.285253 121.861582,186.976588 121.009291,186.976588 C120.155279,186.976588 119.464837,186.285253 119.464837,185.431859 C119.464837,184.576741 120.155279,183.885406 121.009291,183.885406 C121.861582,183.885406 122.552024,184.576741 122.552024,185.431859" id="Fill-62" fill="#289DE5"></path> <path d="M86.6926172,168.668793 L84.416398,124.361283" id="Stroke-64" stroke="#005F99" stroke-width="0.719"></path> <path d="M162.578703,168.668793 L164.854922,124.361283" id="Stroke-66" stroke="#005F99" stroke-width="0.719"></path> <path d="M125.060686,99.4509794 L125.060686,99.4509794 C117.197227,99.4509794 110.821402,93.068629 110.821402,85.1932706 L110.821402,54.8503839 L139.29997,54.8503839 L139.29997,85.1932706 C139.29997,93.068629 132.924146,99.4509794 125.060686,99.4509794" id="Fill-68" fill="#F3A396"></path> <path d="M110.822263,59.9347138 C110.822263,59.9347138 118.658174,74.5165397 127.611533,73.8010683 C141.453081,72.6994146 139.157922,55.522927 139.157922,55.522927 C139.157922,55.522927 133.78935,66.9790908 125.297434,66.989435 C115.827535,67.0015032 110.822263,59.9347138 110.822263,59.9347138" id="Fill-70" fill="#1A1A1A"></path> <polygon id="Fill-72" fill="#007DDC" points="101.082386 103.803115 115.645369 86.240445 125.666243 100.313683 135.003563 86.240445 152.252553 103.803115"></polygon> <path d="M125.18259,99.4568411 L118.39009,87.5558781 C117.267476,85.5870385 115.731631,83.8854232 113.887583,82.5682661 L110.445706,80.1063546 C109.717384,79.5856983 108.753176,79.5374255 107.976645,79.9839487 L104.505497,81.9838207 C103.703138,82.4441361 103.258913,83.3423545 103.375996,84.2612613 L104.803368,95.3622754 C104.944555,96.458757 106.289281,96.9018321 107.05376,96.1053313 L114.652062,88.1610118 C115.073903,87.7179367 115.797059,87.7765537 116.143141,88.2816938 L125.18259,101.432577 L125.18259,99.4568411 Z" id="Fill-74" fill="#289DE5"></path> <path d="M125.18259,99.4568411 L131.973368,87.5558781 C133.097703,85.5870385 134.633548,83.8854232 136.475874,82.5682661 L139.917752,80.1063546 C140.646073,79.5856983 141.612003,79.5374255 142.388535,79.9839487 L145.859683,81.9838207 C146.662042,82.4441361 147.106266,83.3423545 146.989183,84.2612613 L145.561811,95.3622754 C145.420624,96.458757 144.074176,96.9018321 143.311419,96.1053313 L135.713117,88.1610118 C135.289554,87.7179367 134.56812,87.7765537 134.222038,88.2816938 L125.18259,101.432577 L125.18259,99.4568411 Z" id="Fill-76" fill="#289DE5"></path> <g id="Group-80" transform="translate(99.864385, 0.000000)"> <mask id="mask-12" fill="white"> <use xlink:href="#path-11"></use> </mask> <g id="Clip-79"></g> <path d="M48.8273138,16.9610832 C47.6616553,12.7303193 44.9222719,6.76001156 35.1424494,2.30684812 C18.9850805,-5.05130192 8.08953175,10.5752848 8.08953175,10.5752848 C3.73682199,10.1115213 1.37623454,11.7821041 0.432688276,15.7077151 C-0.374835805,19.064397 0.713341635,25.6208741 1.30219715,28.1362305 L4.52368447,45.2282407 L7.63153302,30.0602454 C10.6877276,20.0832973 15.3314215,16.0197641 15.3314215,16.0197641 L30.0975761,14.8457013 L45.7539012,43.7766094 L48.8014868,26.6570148 C49.1871699,24.4847399 49.3490191,22.2728124 49.2250495,20.0712291 C49.1544557,18.7971727 49.0287643,17.6903469 48.8273138,16.9610832" id="Fill-78" fill="#1A1A1A" mask="url(#mask-12)"></path> </g> <path d="M145.219518,40.2742472 C145.219518,40.2742472 147.14449,37.208926 151.11496,38.7174502 C155.083708,40.2242504 153.287871,49.8788053 147.333888,51.108037 C147.333888,51.108037 145.198856,51.5752485 143.525267,50.111549 C143.525267,50.111549 144.988797,42.9809706 145.219518,40.2742472" id="Fill-81" fill="#F3A396"></path> <path d="M150.326892,42.1229221 C150.326892,42.1229221 147.000375,41.0109242 144.64151,45.9157829" id="Stroke-83" stroke="#D26665" stroke-width="0.497" stroke-linecap="round" stroke-linejoin="round"></path> <path d="M146.255352,43.5161088 C146.255352,43.5161088 149.874575,45.4539159 147.484717,48.3657986" id="Stroke-85" stroke="#D26665" stroke-width="0.497" stroke-linecap="round" stroke-linejoin="round"></path> <path d="M104.581428,40.2742472 C104.581428,40.2742472 102.656456,37.208926 98.6859856,38.7174502 C94.7172371,40.2242504 96.5113525,49.8788053 102.467058,51.108037 C102.467058,51.108037 104.602089,51.5752485 106.275679,50.111549 C106.275679,50.111549 104.812149,42.9809706 104.581428,40.2742472" id="Fill-87" fill="#F3A396"></path> <path d="M99.4740533,42.1229221 C99.4740533,42.1229221 102.798849,41.0109242 105.159436,45.9157829" id="Stroke-89" stroke="#D26665" stroke-width="0.497" stroke-linecap="round" stroke-linejoin="round"></path> <path d="M103.544904,43.5161088 C103.544904,43.5161088 99.9256814,45.4539159 102.317261,48.3657986" id="Stroke-91" stroke="#D26665" stroke-width="0.497" stroke-linecap="round" stroke-linejoin="round"></path> <path d="M145.617081,31.1144883 C145.619102,36.9330816 145.048887,49.109889 141.476153,56.3352889 C138.120365,63.1210617 132.571005,66.7725523 125.298122,66.9897798 C118.023519,67.2070073 112.603293,64.4002903 108.260914,55.593957 C103.916813,46.7876237 104.125151,31.221378 104.125151,31.221378 C104.125151,31.221378 104.125151,10.4313285 124.64556,10.4313285 C146.259313,10.4313285 145.617081,31.1144883 145.617081,31.1144883" id="Fill-93" fill="#F3A396"></path> <path d="M143.749101,13.032369 C143.213621,13.2116679 125.962909,8.42404306 125.962909,8.42404306 L110.821402,13.032369 C110.821402,13.032369 110.826568,13.0444372 110.830011,13.0547813 C97.5204993,16.6597232 103.386671,29.2813297 103.386671,29.2813297 C108.861994,26.4642685 108.459093,20.6922239 109.497338,16.5373172 C111.919911,19.7250444 121.195246,25.5315695 132.609056,25.312618 C144.298355,25.0850463 145.618975,20.5284412 145.618975,20.5284412 C145.618975,20.5284412 144.282859,12.8530701 143.749101,13.032369" id="Fill-95" fill="#1A1A1A"></path> <path d="M123.407758,36.8001591 L123.407758,46.082324 C123.407758,46.2892073 123.44736,46.4874705 123.519675,46.6702174 C123.803772,47.3822408 124.623349,47.7235983 125.363723,47.5253351 L126.95811,47.1012243" id="Stroke-97" stroke="#D26665" stroke-width="0.497" stroke-linecap="round" stroke-linejoin="round"></path> <path d="M119.336219,32.8831682 L119.406812,29.1971971 L112.579876,29.3196031 C111.717255,29.3351193 110.887347,29.6471683 110.226176,30.2005812 L106.276368,33.5193345 L112.032344,32.6607687 L119.336219,32.8831682 Z" id="Fill-99" fill="#1A1A1A"></path> <path d="M129.222276,32.8831682 L129.151682,29.1971971 L135.978618,29.3196031 C136.84124,29.3351193 137.671148,29.6471683 138.332319,30.2005812 L142.282127,33.5193345 L136.527873,32.6607687 L129.222276,32.8831682 Z" id="Fill-101" fill="#1A1A1A"></path> <path d="M123.280862,51.0056298 C122.452676,51.455601 121.746738,51.7090331 120.95471,51.953845 C120.179901,52.1848647 119.386151,52.3417512 118.585514,52.4262286 C116.989406,52.6106995 115.351974,52.4193325 113.871226,51.895228 C113.564746,51.7883383 113.404619,51.4521529 113.513092,51.145276 C113.607791,50.8746037 113.879835,50.7177172 114.15188,50.7590938 L114.174263,50.7625419 C115.543094,50.9677012 116.920534,50.8625355 118.20844,50.460837 C118.852393,50.2660219 119.479128,50.0125898 120.073149,49.7057129 C120.649952,49.4057321 121.273243,49.0143778 121.684753,48.6695723 C122.28394,48.1609841 123.180997,48.2351173 123.687207,48.835079 C124.195138,49.4350406 124.1211,50.331535 123.521914,50.8401231 C123.449598,50.9004641 123.360065,50.9608051 123.280862,51.0056298" id="Fill-103" fill="#1A1A1A"></path> <path d="M127.729992,48.6687103 C128.141503,49.0152398 128.766516,49.4065941 129.341597,49.7048509 C129.93734,50.0117278 130.562353,50.2651599 131.206306,50.459975 C132.495934,50.8633975 133.871652,50.9668392 135.240483,50.7616799 L135.262866,50.7599558 C135.583121,50.7116831 135.880992,50.9323586 135.929203,51.2547518 C135.972248,51.5374923 135.805233,51.8029926 135.545241,51.8960901 C134.062772,52.4184704 132.42534,52.6098375 130.829232,52.4253666 C130.028595,52.3408892 129.234845,52.1840027 128.460035,51.952983 C127.668008,51.7098951 126.96207,51.454739 126.133884,51.0047678 C125.445164,50.6306538 125.188616,49.7669159 125.562247,49.0755808 C125.935877,48.3859697 126.798499,48.1290896 127.48894,48.5032036 C127.571587,48.5497524 127.659399,48.6100933 127.729992,48.6687103" id="Fill-105" fill="#1A1A1A"></path> <path d="M119.094134,53.501677 L129.695255,53.501677" id="Stroke-107" stroke="#D26665" stroke-width="0.497" stroke-linecap="round" stroke-linejoin="round"></path> <path d="M121.863304,56.6963003 C121.863304,56.6963003 124.115418,57.4031516 126.925395,56.6963003" id="Stroke-109" stroke="#D26665" stroke-width="0.373" stroke-linecap="round" stroke-linejoin="round"></path> <mask id="mask-14" fill="white"> <use xlink:href="#path-13"></use> </mask> <g id="Clip-112"></g> <polygon id="Fill-111" fill="#1A1A1A" mask="url(#mask-14)" points="129.694566 37.5504559 136.094496 37.5504559 136.094496 36.8005039 129.694566 36.8005039"></polygon> <polygon id="Fill-113" fill="#1A1A1A" mask="url(#mask-14)" points="112.476568 37.5504559 118.876498 37.5504559 118.876498 36.8005039 112.476568 36.8005039"></polygon> </g> </g> </g> </g> </g> </g> </svg> 