<?xml version="1.0" encoding="UTF-8"?> <svg xmlns="http://www.w3.org/2000/svg" xmlns:xlink="http://www.w3.org/1999/xlink" width="432px" height="259px" viewBox="0 0 432 259"> <!-- Generator: Sketch 57.1 (83088) - https://sketch.com --> <title>Group 93</title> <desc>Created with Sketch.</desc> <g id="Page-1" stroke="none" stroke-width="1" fill="none" fill-rule="evenodd"> <g id="artem" transform="translate(-598.000000, -4573.000000)"> <g id="Group-11-Copy-11" transform="translate(134.000000, 4573.000000)"> <g id="Group-93" transform="translate(464.000000, 0.000000)"> <g id="Group-25" transform="translate(255.263163, 71.436041)" fill="#E8F4F6"> <polygon id="Fill-1" points="89.4356409 63.8373807 117.486321 63.8373807 117.486321 52.7210806 89.4356409 52.7210806"></polygon> <polygon id="Fill-2" points="59.9658006 64.1053007 88.0161409 64.1053007 88.0161409 52.9890006 59.9658006 52.9890006"></polygon> <polygon id="Fill-3" points="58.5457226 64.3731187 30.4953823 64.3731187 30.4953823 53.2568186 58.5457226 53.2568186"></polygon> <polygon id="Fill-4" points="1.02544001 64.6411407 29.0757803 64.6411407 29.0757803 53.5248406 1.02544001 53.5248406"></polygon> <polygon id="Fill-5" points="101.178561 51.0693605 129.229241 51.0693605 129.229241 39.9530604 101.178561 39.9530604"></polygon> <polygon id="Fill-6" points="71.7083808 51.3372805 99.759061 51.3372805 99.759061 40.2209804 71.7083808 40.2209804"></polygon> <polygon id="Fill-7" points="42.2382004 51.6048605 70.2885407 51.6048605 70.2885407 40.4885604 42.2382004 40.4885604"></polygon> <polygon id="Fill-8" points="12.7680201 51.8727805 40.8187004 51.8727805 40.8187004 40.7564804 12.7680201 40.7564804"></polygon> <polygon id="Fill-9" points="58.9403606 38.5689204 86.9907009 38.5689204 86.9907009 27.4526203 58.9403606 27.4526203"></polygon> <polygon id="Fill-10" points="29.4701803 38.8368404 57.5205206 38.8368404 57.5205206 27.7205403 29.4701803 27.7205403"></polygon> <polygon id="Fill-11" points="28.0503403 39.1046924 6.03961325e-14 39.1046924 6.03961325e-14 27.9883923 28.0503403 27.9883923"></polygon> <polygon id="Fill-12" points="132.211857 25.2636323 104.161517 25.2636323 104.161517 14.1473321 132.211857 14.1473321"></polygon> <polygon id="Fill-13" points="74.6912008 25.5316203 102.741881 25.5316203 102.741881 14.4153202 74.6912008 14.4153202"></polygon> <polygon id="Fill-14" points="73.2716668 25.7994043 45.2209865 25.7994043 45.2209865 14.6831042 73.2716668 14.6831042"></polygon> <polygon id="Fill-15" points="120.597321 11.1163001 148.647662 11.1163001 148.647662 -1.53654867e-13 120.597321 -1.53654867e-13"></polygon> <polygon id="Fill-16" points="119.177651 11.3841521 91.126971 11.3841521 91.126971 0.267852003 119.177651 0.267852003"></polygon> <polygon id="Fill-17" points="61.6569606 11.6518001 89.7073009 11.6518001 89.7073009 0.535500006 61.6569606 0.535500006"></polygon> </g> <g id="Group-3" transform="translate(75.000000, 59.000000)" fill="#E2F3F5"> <path d="M7.60489227,83.0659759 C2.21658871,90.7003932 -1.94095824,101.086723 0.943954729,110.673657 C3.82034614,120.231721 13.0182736,126.125176 17.0377713,135.203359 C19.3098624,140.334538 19.3704872,145.976408 19.4566767,151.484115 C19.5691613,158.693967 18.1555563,166.350704 23.0459574,172.443827 C25.9386615,176.048268 30.3034041,178.177646 34.7168413,179.576529 C43.5812105,182.386183 52.8677622,183.705005 60.7411958,189.01159 C73.6764356,197.729499 89.5615957,200.777394 104.976366,199.836072 C112.794044,199.358375 120.546715,197.891804 128.034487,195.614677 C136.734512,192.968541 144.467462,188.284976 153.227625,185.775915 C168.409391,181.427635 189.169126,181.368196 198.05346,166.062 C204.035108,155.756944 206.107064,143.019976 201.453806,131.792278 C199.241366,126.453669 195.018568,122.376141 192.613053,117.134818 C189.289889,109.893427 188.393664,101.636475 190.613896,93.9438318 C190.706172,93.6274697 190.802587,93.3123208 190.902898,92.9983848 C193.222467,85.8062436 197.892038,79.6221424 199.823023,72.3006906 C203.809895,57.1854276 195.000064,41.2035654 183.419022,31.4880489 C178.606775,27.450794 173.230159,24.0906605 167.3739,22.1752632 C151.221893,16.8919689 133.275246,23.0066839 117.074301,17.8961272 C104.645729,13.9758097 94.4417708,3.78575018 81.7782471,0.839022323 C72.0466266,-1.42548927 61.5300487,0.991623329 53.2631625,6.91006776 C44.9962763,12.8287548 38.9973421,22.0918057 36.2628956,32.29254 C33.7290708,41.7448259 33.8084431,52.1272743 29.3146597,60.713689 C25.4699757,68.0598869 18.344735,72.0236313 12.5593267,77.3530213 C10.758843,79.011981 9.09592165,80.9533375 7.60489227,83.0659759" id="Fill-1"></path> </g> <g id="Group-92" transform="translate(0.000000, 0.040800)"> <path d="M293.780437,105.456577 C280.673777,90.584637 242.338777,75.9772168 218.958336,77.6054768 C195.463996,75.9690568 157.180336,90.653317 144.136236,105.456577 C125.347155,126.779337 114.185635,164.378238 115.693875,167.143798 C117.600935,170.640698 142.948276,178.414118 160.045516,177.645718 C170.873836,214.951198 156.625116,244.687939 158.968056,247.616699 C163.106536,252.789459 262.473917,258.854719 278.948617,247.616699 C282.047037,245.502919 269.810437,217.256398 277.871157,177.645718 C294.968737,178.414118 275.994697,168.882898 277.901757,165.385998 C279.409997,162.620438 312.064277,126.203037 293.780437,105.456577" id="Fill-18" fill="#E2A346"></path> <path d="M160.148502,173.956072 C120.824441,169.861452 113.770461,160.608692 113.489621,160.216672 L115.762181,158.587052 L115.747561,158.566992 C115.764221,158.588412 117.489721,160.758632 123.851801,163.389212 C129.714421,165.813412 140.820861,169.131812 160.438182,171.174532 L160.148502,173.956072 Z" id="Fill-20" fill="#FFFFFF"></path> <path d="M422.918558,258.740003 L8.33683409,258.740003 C3.73255404,258.740003 3.40000004e-05,255.181903 3.40000004e-05,250.792503 C3.40000004e-05,246.403103 3.73255404,242.844663 8.33683409,242.844663 L422.918558,242.844663 C427.522838,242.844663 431.255359,246.403103 431.255359,250.792503 C431.255359,255.181903 427.522838,258.740003 422.918558,258.740003" id="Fill-24" fill="#9ED2F2"></path> <path d="M293.780437,105.456577 C280.673777,90.584637 242.338777,75.9772168 218.958336,77.6054768 C195.463996,75.9690568 157.180336,90.653317 144.136236,105.456577 C125.347155,126.779337 114.185635,164.378238 115.693875,167.143798 C117.600935,170.640698 142.948276,178.414118 160.045516,177.645718 C170.873836,214.951198 156.625116,244.687939 158.968056,247.616699 C163.106536,252.789459 262.473917,258.854719 278.948617,247.616699 C282.047037,245.502919 269.810437,217.256398 277.871157,177.645718 C294.968737,178.414118 275.994697,168.882898 277.901757,165.385998 C279.409997,162.620438 312.064277,126.203037 293.780437,105.456577" id="Fill-25" fill="#E2A346"></path> <path d="M160.148502,173.956072 C120.824441,169.861452 113.770461,160.608692 113.489621,160.216672 L115.762181,158.587052 L115.747561,158.566992 C115.764221,158.588412 117.489721,160.758632 123.851801,163.389212 C129.714421,165.813412 140.820861,169.131812 160.438182,171.174532 L160.148502,173.956072 Z" id="Fill-26" fill="#FFFFFF"></path> <path d="M234.97305,40.7219704 C234.31821,62.2647107 236.87433,72.5507308 237.782811,76.8928708 C238.552571,80.5723508 234.76667,87.3339309 217.61401,87.3339309 C203.95485,87.3339309 198.48663,81.2598309 199.49439,77.2318508 C201.17297,70.5233107 204.08439,61.4102906 200.58613,45.8651505 C197.08753,30.3200103 231.94093,41.1211304 234.97305,40.7219704" id="Fill-27" fill="#BC7551"></path> <path d="M194.908504,28.5295023 C185.285144,24.4654823 182.918404,6.39312207 202.010764,9.6003421 C192.290164,-0.282438003 213.675484,-3.81435804 220.285764,6.61922207 C234.766364,-1.15725801 243.356125,7.00818207 236.616304,12.3220421 C250.225485,14.1366221 248.555065,26.0903423 242.052905,27.4289223 L194.908504,28.5295023 Z" id="Fill-28" fill="#172755"></path> <path d="M242.410721,34.7082204 C240.102461,33.1724403 238.257281,35.1274404 238.257281,35.1274404 C236.9799,34.7554804 236.29208,34.8367404 235.54544,28.9792203 C235.09154,25.4221403 233.65606,22.7354602 230.20064,23.6952802 C223.20174,25.6394003 216.20284,27.5835203 208.62084,23.7275802 C203.971,21.3628802 201.4176,23.9105003 200.9025,27.4760803 C200.00422,33.6923004 199.16272,38.0538204 197.70718,37.9035404 C197.70718,37.9035404 196.86772,34.8666604 194.0022,35.8570804 C191.64362,36.6724004 194.80834,48.4789005 198.07472,47.8152205 C198.4545,49.5247405 198.15088,55.3846406 199.85836,59.4673606 C201.50906,63.4147607 210.45378,71.6179408 218.09154,71.6179408 C225.7293,71.6179408 234.67436,63.4144207 236.32472,59.4673606 C238.032201,55.3846406 237.728581,49.5247405 238.108021,47.8152205 C241.167681,47.8689405 244.487101,36.0896404 242.410721,34.7082204" id="Fill-29" fill="#BC7551"></path> <path d="M218.460474,73.4344928 C210.565674,73.4344928 204.565014,67.4236327 202.351614,64.8392927 C202.060914,64.4999727 202.100354,63.9892927 202.440014,63.6985927 C202.779334,63.4078927 203.290354,63.4473327 203.580714,63.7866527 C205.648594,66.2009927 211.237854,71.8160928 218.460474,71.8160928 C224.158534,71.8160928 229.840954,68.2131127 234.050834,61.9312727 C234.299714,61.5596526 234.802574,61.4607126 235.173514,61.7095926 C235.545134,61.9581327 235.644414,62.4609927 235.395534,62.8319327 C230.879994,69.5700527 224.707634,73.4344928 218.460474,73.4344928" id="Fill-30" fill="#804737"></path> <path d="M209.299072,44.7080965 L209.299072,44.7080965 C208.341632,44.7080965 207.565412,43.9318765 207.565412,42.9744365 L207.565412,41.6994364 C207.565412,40.7419964 208.341632,39.9657764 209.299072,39.9657764 C210.256512,39.9657764 211.032732,40.7419964 211.032732,41.6994364 L211.032732,42.9744365 C211.032732,43.9318765 210.256512,44.7080965 209.299072,44.7080965" id="Fill-31" fill="#804737"></path> <path d="M226.683238,44.7080965 L226.683238,44.7080965 C225.725798,44.7080965 224.949578,43.9318765 224.949578,42.9744365 L224.949578,41.6994364 C224.949578,40.7419964 225.725798,39.9657764 226.683238,39.9657764 C227.640678,39.9657764 228.416898,40.7419964 228.416898,41.6994364 L228.416898,42.9744365 C228.416898,43.9318765 227.640678,44.7080965 226.683238,44.7080965" id="Fill-32" fill="#804737"></path> <path d="M217.666812,54.4711966 C216.919832,54.4711966 215.948792,54.4402566 214.681952,54.3613766 C214.299452,54.3375766 214.008752,54.0081166 214.032552,53.6259566 C214.056692,53.2434566 214.387512,52.9524166 214.767972,52.9768966 C216.525432,53.0863766 218.627312,53.1224166 219.315472,53.0091966 C219.438892,52.3873366 219.417132,50.5465765 219.397752,48.9047165 C219.334852,43.5646765 219.248152,36.2516164 222.137472,34.6692564 C222.473732,34.4846364 222.895332,34.6083964 223.078932,34.9443164 C223.262872,35.2802364 223.139792,35.7018364 222.803872,35.8857764 C220.645552,37.0679564 220.732592,44.4673765 220.784952,48.8880565 C220.831532,52.8347766 220.788012,53.7204766 220.222592,54.1332366 C220.090332,54.2297966 219.759172,54.4711966 217.666812,54.4711966 L217.666812,54.4711966 Z" id="Fill-33" fill="#804737"></path> <path d="M210.950112,56.6226486 C210.950112,56.6226486 217.280232,65.6792287 224.114232,56.9051886 C224.114232,56.9051886 217.280232,58.6776086 210.950112,56.6226486" id="Fill-34" fill="#FFFFFF"></path> <path d="M203.471914,37.3619884 C203.471914,37.3619884 209.660934,35.2835684 214.245494,36.1638284 C215.151594,36.3375684 214.971054,33.4298884 212.603634,33.3057884 C210.058394,33.1725083 204.199854,33.8987484 203.471914,35.3019284 C202.902414,36.4001284 203.471914,37.3619884 203.471914,37.3619884" id="Fill-35" fill="#172755"></path> <path d="M232.710588,36.8826904 C232.710588,36.8826904 226.521568,35.2836704 221.937008,36.1635904 C221.030908,36.3376704 220.762308,33.7023304 223.099468,33.3058904 C225.481168,32.9016303 231.982648,33.4194504 232.710588,34.8226304 C233.280088,35.9208304 232.710588,36.8826904 232.710588,36.8826904" id="Fill-36" fill="#172755"></path> <path d="M195.138276,27.8401183 C198.020796,25.1078783 205.227776,18.5968782 218.091336,18.5852996 C231.408796,18.5734182 239.841817,24.2871183 241.822997,26.9693783 C243.803837,29.6516383 238.939797,36.2955784 237.499556,35.5183384 C236.059316,34.7414384 231.103816,28.5296383 218.844776,28.8655583 C200.653756,29.3643383 198.619536,39.5231984 197.596136,37.9724584 C196.572056,36.4213784 193.876196,29.0362383 195.138276,27.8401183" id="Fill-37" fill="#E2A346"></path> <path d="M219.557178,101.176555 C205.783778,101.176555 196.618058,97.891475 192.314678,91.412775 C187.240858,83.7746749 190.953998,74.7201348 191.114478,74.3383148 C191.400078,73.6593348 192.182418,73.3410948 192.861398,73.6260148 C193.540038,73.9112748 193.858958,74.6919148 193.574718,75.3708948 C193.541058,75.4514748 190.260398,83.5220549 194.549158,89.9545149 C198.333698,95.630475 206.747338,98.508575 219.557178,98.508575 C231.559518,98.508575 239.290439,95.769535 242.534719,90.367275 C246.827219,83.2197949 241.788079,73.5767148 241.736399,73.4801548 C241.390619,72.8297348 241.636779,72.0218948 242.287539,71.6754348 C242.938299,71.3299948 243.745799,71.5758148 244.091919,72.2262348 C244.330599,72.6753748 249.883139,83.3132949 244.821899,91.740875 C241.061839,98.001975 232.561498,101.176555 219.557178,101.176555" id="Fill-38" fill="#FFFFFF"></path> <path d="M158.094902,167.292412 C158.094902,167.292412 129.308461,145.478012 122.133441,137.684531 C107.725601,161.485892 95.636561,166.397192 95.636561,166.397192 C95.636561,166.397192 40.1142204,148.744392 37.4268604,153.126992 C37.4268604,153.126992 63.6820007,201.217272 106.357781,205.797412 C131.429381,208.488172 158.094902,167.292412 158.094902,167.292412" id="Fill-39" fill="#BC7551"></path> <path d="M102.764695,176.538814 C102.436935,176.627894 102.091835,176.448374 101.980315,176.122314 C101.133715,173.654254 98.558215,169.702094 95.873235,167.620274 C95.589675,167.400634 95.537995,166.992634 95.757975,166.709074 C95.977615,166.425174 96.385615,166.373494 96.669175,166.593814 C99.582295,168.852094 102.282235,172.997714 103.209415,175.701394 C103.325695,176.040374 103.144815,176.409954 102.805495,176.526234 C102.791895,176.530994 102.778295,176.535074 102.764695,176.538814" id="Fill-40" fill="#804737"></path> <path d="M188.85375,148.971784 C185.76179,155.428044 155.99785,182.336324 154.03367,182.176896 C138.162809,180.882144 112.380269,152.462564 113.124529,147.702224 C113.779029,143.516144 125.462449,122.724123 139.458209,109.612023 C152.78009,97.130963 170.04053,93.353563 182.57565,100.382723 C195.05093,108.520623 205.75481,125.142883 188.85375,148.971784" id="Fill-41" fill="#E2A346"></path> <path d="M160.76125,178.230042 C161.34911,178.230042 161.86693,177.804702 161.96519,177.206302 C162.07467,176.540242 161.62315,175.911922 160.95743,175.802782 C136.428129,171.777862 116.741449,140.411841 116.545269,140.095641 C116.190309,139.522401 115.436189,139.345941 114.863289,139.700561 C114.289709,140.055521 114.112569,140.808621 114.468209,141.382201 C114.673909,141.714381 119.601189,149.614962 127.738069,158.155762 C135.296609,166.089662 147.12657,176.009502 160.56201,178.213722 C160.62899,178.224602 160.69563,178.230042 160.76125,178.230042" id="Fill-42" fill="#FFFFFF"></path> <path d="M46.1304525,168.81245 L53.7903126,155.38925 C54.5019326,154.14247 55.9642726,153.53217 57.3507926,153.90379 L76.8834528,159.91193 C78.9214128,160.45797 79.8611728,162.81009 78.7605928,164.61005 L66.3577327,184.89445 C65.3084927,186.61043 62.9437927,186.92153 61.4865526,185.53535 L46.6968925,172.66635 C45.6442525,171.66505 45.4103325,170.07453 46.1304525,168.81245" id="Fill-43" fill="#7EC2EE"></path> <path d="M63.9791267,182.306166 C64.1906067,182.306166 64.4003867,182.215386 64.5452267,182.039266 C64.8029467,181.727146 64.7584067,181.265426 64.4459467,181.007706 L51.2893065,170.158986 C50.9771865,169.901946 50.5151265,169.945126 50.2577465,170.258266 C50.0000265,170.570386 50.0445665,171.032446 50.3570265,171.290166 L63.5133267,182.138546 C63.6500067,182.251426 63.8149067,182.306166 63.9791267,182.306166" id="Fill-44" fill="#B4E8FF"></path> <path d="M66.3443707,178.42765 C66.5650307,178.42765 66.7833107,178.32837 66.9274707,178.13933 C67.1732907,177.81769 67.1110707,177.35767 66.7897707,177.11185 L53.2244506,166.75919 C52.9021306,166.51337 52.4427906,166.57559 52.1969705,166.89723 C51.9511505,167.21887 52.0133705,167.67889 52.3346706,167.92471 L65.8999907,178.27737 C66.0329307,178.37835 66.1893307,178.42765 66.3443707,178.42765" id="Fill-45" fill="#B4E8FF"></path> <path d="M69.1179887,174.053754 C69.3580287,174.053754 69.5926287,173.936454 69.7330487,173.720554 C69.9537087,173.381234 69.8578287,172.926994 69.5188487,172.706674 L55.1358286,163.345454 C54.7961686,163.124114 54.3422686,163.221014 54.1216086,163.559994 C53.9009486,163.898974 53.9968286,164.353554 54.3361486,164.573874 L68.7188287,173.935094 C68.8422487,174.015674 68.9809687,174.053754 69.1179887,174.053754" id="Fill-46" fill="#B4E8FF"></path> <path d="M71.8484268,169.227998 C72.1173668,169.227998 72.3764468,169.079418 72.5046268,168.822378 C72.6855068,168.459938 72.5386268,168.019978 72.1761868,167.839098 L56.8156666,160.169038 C56.4545866,159.988838 56.0136066,160.134698 55.8323866,160.497478 C55.6515066,160.859578 55.7983866,161.299538 56.1608266,161.480418 L71.5216868,169.150818 C71.6267468,169.203178 71.7382668,169.227998 71.8484268,169.227998" id="Fill-47" fill="#B4E8FF"></path> <path d="M74.1704908,164.897554 C74.4584708,164.897554 74.7314908,164.727214 74.8484508,164.443994 C75.0028108,164.069994 74.8246508,163.641594 74.4503108,163.486894 L58.2724306,156.807934 C57.8980906,156.654594 57.4696906,156.831394 57.3149906,157.206074 C57.1606306,157.580074 57.3387906,158.008814 57.7131306,158.163174 L73.8910108,164.842134 C73.9824708,164.879874 74.0773308,164.897554 74.1704908,164.897554" id="Fill-48" fill="#B4E8FF"></path> <path d="M54.9540306,155.974254 C55.0060506,155.131054 53.7919106,150.714454 51.6682705,147.143094 C49.8196905,144.034474 47.3271505,141.431773 44.6567905,139.190833 C41.6233104,136.645253 40.8603504,133.755253 39.8767304,133.231653 C39.2514704,132.898793 37.1016504,134.886093 37.7313304,137.626493 C38.1148504,139.296233 39.4462904,141.234233 40.1269704,143.053234 C41.1258904,145.722574 40.6648504,145.697074 39.8539504,146.144174 C38.7492904,146.753114 33.2671303,143.972934 31.3702703,143.076694 C27.9889703,141.478353 14.7044902,134.623273 13.1653101,137.862113 C11.1113701,142.184533 25.1809103,145.622274 26.1638503,147.648674 C27.1467903,149.675414 6.81547007,141.088033 4.93969005,147.047214 C3.74425004,150.845694 23.5526502,152.418194 22.9328302,154.440514 C22.5581502,155.664514 6.19701007,151.846314 5.66049006,156.138474 C5.24909006,159.431374 23.5519702,160.148094 23.7209502,161.248334 C23.8899303,162.348234 11.3293101,163.608614 11.8610701,165.732254 C12.7467701,169.269274 27.8971703,168.007874 29.5380103,168.307074 C31.8489903,168.728334 43.7442305,172.178994 48.3440905,167.162634 C51.5778305,163.635814 54.7809706,158.782314 54.9540306,155.974254" id="Fill-49" fill="#BC7551"></path> <path d="M43.6963245,162.093302 C43.9669645,162.093302 44.2362445,161.981102 44.4297045,161.762142 C44.7867045,161.357882 44.7479445,160.740442 44.3436845,160.382762 C44.3008445,160.345022 40.0505044,156.542462 39.8373244,152.493402 C39.7557244,150.939262 40.2715044,149.577222 41.4145844,148.330442 C41.7790644,147.932302 41.7522044,147.313842 41.3540644,146.949022 C40.9562644,146.584542 40.3378044,146.611742 39.9733244,147.009202 C38.4766444,148.642902 37.7745444,150.524462 37.8857244,152.603562 C38.1468444,157.476442 42.8510845,161.673402 43.0513445,161.849522 C43.2366445,162.012722 43.4671645,162.093302 43.6963245,162.093302" id="Fill-50" fill="#804737"></path> <path d="M323.811175,250.828985 C321.096955,246.448765 328.178815,215.740984 325.126295,197.901184 C323.402155,187.828004 319.508135,181.969124 317.481055,176.206124 C315.453975,170.443124 314.172855,152.452704 306.758815,134.411963 C295.981495,137.916343 268.941295,155.398464 268.941295,155.398464 C268.941295,155.398464 279.916835,186.103524 280.787235,190.184204 C281.657635,194.264884 284.473175,204.713424 288.839455,213.414364 C293.932995,223.564724 312.381395,250.294845 312.117895,253.376605" id="Fill-51" fill="#BC7551"></path> <path d="M266.881779,169.256422 C282.949839,169.559362 316.251479,157.481882 317.938559,154.383122 C319.273059,151.932402 315.776499,126.118241 297.518159,107.879621 C297.291719,107.653521 297.063239,107.432521 296.832039,107.216281 C278.125919,89.7338209 246.341359,102.734741 252.915259,126.603421 C259.096119,149.044782 266.881779,169.256422 266.881779,169.256422" id="Fill-52" fill="#E2A346"></path> <path d="M263.150245,163.664272 C299.610825,159.273852 318.068405,149.137432 318.836465,148.708352 L317.560105,146.424912 C317.376165,146.527252 298.727505,156.745612 262.837785,161.067012 L263.150245,163.664272 Z" id="Fill-53" fill="#FFFFFF"></path> <path d="M323.656101,253.163289 L312.904621,255.189349 C311.906041,255.377369 310.895561,254.904429 310.444721,254.037429 L304.505601,241.484969 C303.842601,240.210989 304.658261,238.698329 306.134201,238.464069 L322.769041,235.822268 C324.175961,235.598888 325.449261,236.661048 325.391801,238.010849 L325.447901,251.179049 C325.406421,252.153829 324.666921,252.972889 323.656101,253.163289" id="Fill-54" fill="#7EC2EE"></path> <path d="M322.365019,250.737831 C322.382359,250.738394 322.400039,250.738394 322.417719,250.738171 C322.778459,250.726271 323.061339,250.423671 323.049099,250.062591 L322.686659,239.244471 C322.674759,238.883391 322.374199,238.600851 322.011079,238.612751 C321.649999,238.624651 321.367459,238.927251 321.379699,239.288331 L321.742139,250.106451 C321.753699,250.449851 322.027739,250.722191 322.365019,250.737831" id="Fill-55" fill="#B4E8FF"></path> <path d="M319.753921,251.205433 C319.780101,251.206793 319.806621,251.206156 319.832801,251.204413 C320.193201,251.177893 320.463501,250.864413 320.436981,250.503673 L319.636961,239.696093 C319.610441,239.336033 319.292881,239.067773 318.936561,239.092253 C318.576501,239.118773 318.305861,239.432253 318.332721,239.792993 L319.132741,250.600573 C319.157561,250.933773 319.428201,251.190473 319.753921,251.205433" id="Fill-56" fill="#B4E8FF"></path> <path d="M317.143163,251.673409 C317.186003,251.675449 317.229863,251.673069 317.274063,251.666269 C317.631063,251.611189 317.875523,251.276629 317.820103,250.919969 L316.145263,240.132449 C316.089843,239.775449 315.757323,239.529289 315.398963,239.586749 C315.041963,239.641829 314.797503,239.976389 314.852923,240.333049 L316.527763,251.120569 C316.576383,251.433369 316.838863,251.659469 317.143163,251.673409" id="Fill-57" fill="#B4E8FF"></path> <path d="M314.751875,252.136591 C314.820215,252.139651 314.890255,252.132171 314.959615,252.112451 C315.307095,252.014531 315.509395,251.653111 315.411135,251.305631 L312.430695,240.751691 C312.332775,240.404211 311.972375,240.200891 311.623535,240.300171 C311.276055,240.398091 311.073755,240.759511 311.172015,241.107331 L314.152455,251.660931 C314.230995,251.939051 314.478175,252.124011 314.751875,252.136591" id="Fill-58" fill="#B4E8FF"></path> <path d="M312.366571,252.802991 C312.450891,252.806731 312.536911,252.794491 312.621231,252.763891 C312.960551,252.639791 313.134631,252.264091 313.010531,251.924771 L309.155271,241.391231 C309.031171,241.052251 308.655471,240.878171 308.316491,241.001931 C307.977171,241.126031 307.803091,241.501391 307.927191,241.841051 L311.782451,252.374591 C311.875611,252.629591 312.111571,252.791091 312.366571,252.802991" id="Fill-59" fill="#B4E8FF"></path> <path d="M387.928104,169.813036 C382.117504,179.859016 375.920664,190.970896 377.848464,203.024236 C379.739544,214.844676 392.734344,224.776416 388.536024,237.443456 C388.248724,238.308757 389.613824,238.680037 389.899084,237.819157 C393.667304,226.450576 384.169064,217.350476 380.493324,207.472116 C375.655804,194.471196 382.772344,181.550516 389.149044,170.526696 C389.605324,169.737556 388.384044,169.024916 387.928104,169.813036" id="Fill-60" fill="#00B5BC"></path> <polygon id="Fill-61" fill="#FFBA6F" points="395.078542 243.033397 382.991542 243.033397 377.246902 216.293076 400.823182 216.293076"></polygon> <path d="M356.676494,196.662768 C354.373334,195.284068 352.585954,192.681368 352.995314,190.028348 C353.212574,188.621768 354.015314,187.305288 353.935074,185.884428 C353.803494,183.564948 351.503734,182.097168 349.978834,180.344468 C347.865734,177.915508 347.302354,173.793008 349.696294,171.640808 C351.350054,170.154328 353.827634,170.053008 356.023694,170.401508 C358.220094,170.750348 360.392354,171.467068 362.611194,171.320868 C365.646034,171.120948 368.478234,169.318268 371.512734,169.522948 C374.359554,169.715048 376.875894,171.738728 378.172654,174.280228 C379.469414,176.822068 379.681234,179.801828 379.332394,182.633688 C379.156274,184.061348 378.844494,185.488668 378.950234,186.923128 C379.102214,188.991688 380.102834,190.885148 380.824994,192.829608 C383.287614,199.460288 377.968654,202.991188 371.796634,201.416988 C369.822254,200.913448 368.069214,199.737728 366.087354,199.196448 C362.905634,198.327748 359.597434,198.411388 356.676494,196.662768" id="Fill-62" fill="#00B5BC"></path> <path d="M379.31553,198.622392 C373.39171,188.418652 364.18485,180.602392 353.16035,176.401352 C352.94751,176.320092 352.85571,176.661792 353.06651,176.742032 C364.00125,180.909072 373.13535,188.681132 379.01021,198.800892 C379.12445,198.997412 379.42977,198.819592 379.31553,198.622392" id="Fill-63" fill="#FFFFFF"></path> <path d="M370.933578,187.797778 C369.810898,182.967058 370.395358,178.165918 372.645818,173.746598 C372.748838,173.544298 372.443858,173.365458 372.340498,173.568438 C370.046858,178.072418 369.448458,182.968758 370.592898,187.891618 C370.644238,188.113298 370.984918,188.019458 370.933578,187.797778" id="Fill-64" fill="#FFFFFF"></path> <path d="M370.408618,187.62533 C364.593258,187.15001 359.078458,189.26957 355.073598,193.50903 C354.917538,193.67427 355.166758,193.92451 355.323498,193.75893 C359.267498,189.58373 364.689818,187.51143 370.408618,187.97893 C370.635398,187.99729 370.634038,187.64369 370.408618,187.62533" id="Fill-65" fill="#FFFFFF"></path> <path d="M366.38091,197.395196 C368.99619,194.646296 372.73415,193.600796 376.39527,194.599376 C376.61491,194.659216 376.70841,194.318536 376.48911,194.258696 C372.72021,193.230536 368.82381,194.315136 366.13101,197.145296 C365.97427,197.310196 366.22383,197.560436 366.38091,197.395196" id="Fill-66" fill="#FFFFFF"></path> <path d="M378.003334,185.432568 C376.487614,187.945168 375.694054,190.702228 375.637614,193.635068 C375.633534,193.862528 375.986794,193.862528 375.991214,193.635068 C376.046294,190.753908 376.820474,188.077428 378.308314,185.611068 C378.426294,185.415568 378.120634,185.237748 378.003334,185.432568" id="Fill-67" fill="#FFFFFF"></path> <path d="M355.454092,184.074676 C357.439352,182.167956 360.091692,181.370316 362.800812,181.880996 C363.023172,181.923156 363.118372,181.582476 362.894652,181.540316 C360.062792,181.006516 357.283632,181.827616 355.204192,183.824776 C355.039632,183.982536 355.289872,184.232436 355.454092,184.074676" id="Fill-68" fill="#FFFFFF"></path> <path d="M363.119698,181.52471 C362.243518,179.10357 362.438338,176.58927 363.689878,174.33813 C363.800718,174.13923 363.495398,173.96073 363.384898,174.15963 C362.090858,176.48727 361.872578,179.11343 362.779018,181.61855 C362.855518,181.83105 363.197558,181.73925 363.119698,181.52471" id="Fill-69" fill="#FFFFFF"></path> <path d="M374.545228,160.103078 C374.304508,158.002218 375.076988,155.637858 376.932368,154.623638 C377.916328,154.085758 379.124348,153.957578 379.974688,153.226918 C381.362568,152.033858 381.179648,149.892538 381.545488,148.099378 C382.053108,145.614658 384.361708,143.287698 386.854588,143.754858 C388.576348,144.077178 389.826188,145.578618 390.659868,147.119158 C391.493548,148.660038 392.085488,150.362418 393.239448,151.680258 C394.817728,153.482938 397.301768,154.391418 398.626748,156.387558 C399.869788,158.260278 399.808928,160.803138 398.840268,162.831578 C397.871268,164.859678 396.108708,166.419258 394.170028,167.556898 C393.192868,168.130478 392.150768,168.619058 391.304168,169.371818 C390.082888,170.457778 389.377728,171.990498 388.507328,173.373278 C385.538788,178.088738 380.783208,176.452318 378.812228,171.837838 C378.181528,170.361558 378.077488,168.702018 377.466848,167.203298 C376.486968,164.797118 374.850208,162.767658 374.545228,160.103078" id="Fill-70" fill="#54BECA"></path> <path d="M384.202384,175.197038 C387.727844,166.560698 388.203164,157.155618 385.577004,148.206478 C385.513084,147.988538 385.172064,148.081358 385.236324,148.300318 C387.845144,157.191658 387.362684,166.526018 383.861704,175.103198 C383.775684,175.313658 384.117384,175.405118 384.202384,175.197038" id="Fill-71" fill="#FFFFFF"></path> <path d="M386.932006,164.81711 C389.398026,161.79995 392.722886,159.84291 396.557066,159.15101 C396.780446,159.11055 396.685586,158.76987 396.462886,158.81033 C392.570566,159.51243 389.185186,161.50483 386.682106,164.56721 C386.539306,164.74197 386.787846,164.99323 386.932006,164.81711" id="Fill-72" fill="#FFFFFF"></path> <path d="M386.81644,164.360694 C384.31914,160.469734 380.3289,158.023774 375.7321,157.551514 C375.506,157.528394 375.5077,157.881994 375.7321,157.905114 C380.19324,158.363434 384.09032,160.767234 386.51146,164.539194 C386.63386,164.729934 386.93986,164.552794 386.81644,164.360694" id="Fill-73" fill="#FFFFFF"></path> <path d="M378.752728,166.562942 C381.663468,166.859422 384.147848,168.728062 385.237548,171.444322 C385.321188,171.652742 385.663228,171.561962 385.578568,171.350482 C384.424268,168.473742 381.837548,166.523842 378.752728,166.209342 C378.526628,166.186562 378.528328,166.540162 378.752728,166.562942" id="Fill-74" fill="#FFFFFF"></path> <path d="M391.800398,168.027356 C389.491798,168.280996 387.385158,169.092916 385.514818,170.472296 C385.333598,170.605576 385.510058,170.912596 385.693318,170.777276 C387.508578,169.438356 389.556058,168.627456 391.800398,168.380956 C392.024118,168.356136 392.026498,168.002536 391.800398,168.027356" id="Fill-75" fill="#FFFFFF"></path> <path d="M381.805452,153.342892 C383.946092,153.659432 385.736532,154.954152 386.700772,156.892492 C386.802092,157.096152 387.107072,156.917312 387.006092,156.714332 C386.005812,154.702892 384.122892,153.330652 381.899292,153.002212 C381.676932,152.969232 381.581052,153.309572 381.805452,153.342892" id="Fill-76" fill="#FFFFFF"></path> <path d="M387.141684,156.889636 C388.212684,155.192696 389.914384,154.109116 391.898284,153.832016 C392.122684,153.800736 392.027144,153.460056 391.804444,153.491336 C389.731804,153.780676 387.951904,154.944156 386.836704,156.711136 C386.714644,156.904256 387.020644,157.081736 387.141684,156.889636" id="Fill-77" fill="#FFFFFF"></path> <path d="M379.439052,177.785118 C380.577712,174.283458 383.510892,171.097318 387.183232,170.832798 C389.130752,170.692378 391.136412,171.363198 393.011852,170.820898 C396.072872,169.935198 397.331892,166.411098 399.208692,163.835598 C401.809692,160.266958 407.149392,158.251438 410.759852,160.793958 C413.253752,162.550058 414.147272,165.832078 414.353312,168.875078 C414.559012,171.918418 414.265592,175.042678 415.140072,177.964638 C416.336192,181.961338 419.613112,185.196778 420.267952,189.316898 C420.882332,193.182358 418.946372,197.165798 415.944852,199.677718 C412.943332,202.189638 409.023812,203.384738 405.130472,203.784918 C403.167652,203.986538 401.163692,204.006598 399.278392,204.586638 C396.558732,205.423378 394.333432,207.340638 391.954112,208.901578 C383.842052,214.223598 377.493232,208.191998 377.709472,199.457398 C377.778492,196.663618 378.814132,193.959598 378.931092,191.144058 C379.119112,186.624098 377.994732,182.226198 379.439052,177.785118" id="Fill-78" fill="#62DEEB"></path> <path d="M383.705814,208.60401 C395.502794,197.64071 403.185094,182.87451 405.382854,166.91899 C405.413454,166.69663 405.073114,166.60041 405.042174,166.82515 C402.852234,182.72525 395.213794,197.42719 383.455914,208.35411 C383.288974,208.50915 383.539214,208.75871 383.705814,208.60401" id="Fill-79" fill="#FFFFFF"></path> <path d="M395.629546,194.074586 C401.706706,191.070346 408.425446,190.374026 414.992546,192.063486 C415.213206,192.120266 415.307046,191.779246 415.086726,191.722806 C408.428166,190.009886 401.615586,190.721846 395.451386,193.769266 C395.247046,193.870246 395.426226,194.175226 395.629546,194.074586" id="Fill-80" fill="#FFFFFF"></path> <path d="M395.659432,193.387854 C394.581632,185.527734 389.989252,178.703254 383.125672,174.729674 C382.928472,174.615434 382.750312,174.920754 382.947172,175.034994 C389.734592,178.964374 394.253532,185.715414 395.318752,193.481694 C395.349352,193.706094 395.690032,193.610554 395.659432,193.387854" id="Fill-81" fill="#FFFFFF"></path> <path d="M381.46909,190.932578 C385.94587,193.570298 388.52783,198.345938 388.29765,203.530258 C388.28779,203.757718 388.64105,203.757378 388.65125,203.530258 C388.88687,198.215718 386.22773,193.326178 381.64759,190.627258 C381.45107,190.511658 381.27291,190.816978 381.46909,190.932578" id="Fill-82" fill="#FFFFFF"></path> <path d="M400.95585,202.925466 C397.12949,201.672566 393.23989,201.460066 389.29691,202.278106 C389.07455,202.324006 389.16873,202.665026 389.39075,202.618786 C393.27491,201.813326 397.09039,202.031606 400.86201,203.266146 C401.07859,203.337206 401.17141,202.995846 400.95585,202.925466" id="Fill-83" fill="#FFFFFF"></path> <path d="M395.936192,172.24543 C399.111452,174.31501 401.007972,177.67523 401.143292,181.46079 C401.151452,181.68757 401.504712,181.68859 401.496552,181.46079 C401.356812,177.54671 399.395012,174.07837 396.114352,171.94011 C395.923272,171.81567 395.746132,172.12167 395.936192,172.24543" id="Fill-84" fill="#FFFFFF"></path> <path d="M401.626194,181.706644 C404.604594,179.780884 408.054234,179.274284 411.461374,180.269804 C411.679994,180.333384 411.773494,179.992704 411.555214,179.928784 C408.071914,178.911504 404.495794,179.431024 401.447694,181.401324 C401.257294,181.524404 401.434434,181.830744 401.626194,181.706644" id="Fill-85" fill="#FFFFFF"></path> <path d="M422.918558,258.740003 L8.33683409,258.740003 C3.73255404,258.740003 3.40000004e-05,255.181903 3.40000004e-05,250.792503 C3.40000004e-05,246.403103 3.73255404,242.844663 8.33683409,242.844663 L422.918558,242.844663 C427.522838,242.844663 431.255359,246.403103 431.255359,250.792503 C431.255359,255.181903 427.522838,258.740003 422.918558,258.740003" id="Fill-86" fill="#9ED2F2"></path> <polygon id="Fill-87" fill="#B8D1CE" points="143.932576 145.38305 142.724216 148.24823 286.829477 148.24823 285.383457 145.02843"></polygon> <path d="M276.886857,239.310023 L152.613796,239.310023 L143.710216,146.790922 C143.550756,145.132062 144.834256,143.694542 146.475436,143.694542 L283.025557,143.694542 C284.666737,143.694542 285.950237,145.132062 285.790437,146.790922 L276.886857,239.310023 Z" id="Fill-88" fill="#B8D1CE"></path> <path d="M277.861875,241.926017 L151.638574,241.926017 L142.595593,149.406916 C142.433413,147.748056 143.736974,146.310536 145.403994,146.310536 L284.096795,146.310536 C285.763815,146.310536 287.067715,147.748056 286.905535,149.406916 L277.861875,241.926017 Z" id="Fill-89" fill="#FFFFFF"></path> <polygon id="Fill-90" fill="#B8D1CE" points="151.638642 247.540063 277.786463 247.540063 277.786463 241.925983 151.638642 241.925983"></polygon> <path d="M223.502368,194.118412 C223.502368,198.951852 219.584208,202.870352 214.750428,202.870352 C209.916648,202.870352 205.998488,198.951852 205.998488,194.118412 C205.998488,189.284632 209.916648,185.366472 214.750428,185.366472 C219.584208,185.366472 223.502368,189.284632 223.502368,194.118412" id="Fill-91" fill="#B8D1CE"></path> </g> </g> </g> </g> </g> </svg> 