<?xml version="1.0" encoding="UTF-8"?> <svg xmlns="http://www.w3.org/2000/svg" xmlns:xlink="http://www.w3.org/1999/xlink" width="248px" height="320px" viewBox="0 0 248 320"> <!-- Generator: Sketch 57.1 (83088) - https://sketch.com --> <title>Group 10</title> <desc>Created with Sketch.</desc> <defs> <path d="M24.8494188,112 C24.2749537,112 23.7780414,111.595396 23.7102545,111.044941 L17.0079701,57.2056401 C16.9338641,56.6130497 17.3848192,56.0766392 18.0155819,56.0074946 C18.6406,55.9378099 19.216214,56.3618605 19.29032,56.9549911 L25.9920299,110.794292 C26.0661359,111.386882 25.6151808,111.923293 24.9844181,111.992437 C24.9390353,111.997839 24.8942271,112 24.8494188,112" id="path-1"></path> <polygon id="path-2" points="0.0738078182 0.13264486 50.9253457 0.13264486 50.9253457 56.8662364 0.0738078182 56.8662364"></polygon> <polygon id="path-4" points="0 0.222332323 61.503288 0.222332323 61.503288 106 0 106"></polygon> <path d="M2.38829391,103.858746 L54.0558591,103.858746 L59.2897374,2.36374646 L22.4056678,2.36374646 L2.38829391,103.858746 Z M55.0807461,106.000161 L1.07820696,106.000161 C0.755806957,106.000161 0.45065913,105.856686 0.245789565,105.609888 C0.04092,105.36309 -0.0415669565,105.037595 0.019893913,104.723342 L20.459407,1.08746364 C20.558607,0.58530202 21.0023113,0.222332323 21.51772,0.222332323 L60.4251461,0.222332323 C60.7205896,0.222332323 61.0030939,0.343322222 61.2068852,0.555857576 C61.4101374,0.768928283 61.5174243,1.05480707 61.5017896,1.34818081 L56.1573896,104.98406 C56.1282765,105.55314 55.6543809,106.000161 55.0807461,106.000161 L55.0807461,106.000161 Z" id="path-6"></path> <polygon id="path-7" points="0.136662529 0.222332323 61.6400841 0.222332323 61.6400841 106 0.136662529 106"></polygon> <path d="M7.58346261,103.858746 L59.2521061,103.858746 L39.234193,2.36374646 L2.35012348,2.36374646 L7.58346261,103.858746 Z M60.562193,106.000161 L6.55911478,106.000161 C5.98494087,106.000161 5.51104522,105.55314 5.4824713,104.98406 L0.138071304,1.34818081 C0.122975652,1.05480707 0.229723478,0.768928283 0.432975652,0.555857576 C0.636766957,0.343322222 0.919810435,0.222332323 1.21471478,0.222332323 L40.1221409,0.222332323 C40.6375496,0.222332323 41.0812539,0.58530202 41.1799148,1.08746364 L61.619967,104.723342 C61.681967,105.037595 61.5989409,105.36309 61.3946104,105.609888 C61.1897409,105.856686 60.8840539,106.000161 60.562193,106.000161 L60.562193,106.000161 Z" id="path-9"></path> <path d="M101.924266,189 L7.07573388,189 C6.48192878,189 6,188.552 6,188 C6,187.448 6.48192878,187 7.07573388,187 L101.924266,187 C102.518071,187 103,187.448 103,188 C103,188.552 102.518071,189 101.924266,189" id="path-10"></path> <polygon id="path-11" points="0.525116528 0.000957849618 50.9634668 0.000957849618 50.9634668 4.53703692 0.525116528 4.53703692"></polygon> <polygon id="path-13" points="0 0.428208087 31.4386206 0.428208087 31.4386206 17.0597607 0 17.0597607"></polygon> <polygon id="path-15" points="0.0855788882 0.959957443 40.9240706 0.959957443 40.9240706 92.8129614 0.0855788882 92.8129614"></polygon> <path d="M2.53186083,198.61208 L160.468112,198.61208 L142.801342,60.3879198 L20.1992289,60.3879198 L2.53186083,198.61208 Z M1.19577882,201 C0.855033077,201 0.531025717,200.855531 0.304459685,200.602411 C0.0778936533,200.349292 -0.0303080664,200.011401 0.00735330561,199.673511 L17.94134,59.0614303 C18.0088913,58.4572866 18.5206078,58 19.1297655,58 L143.870806,58 C144.479366,58 144.99168,58.4572866 145.058633,59.0614303 L162.99262,199.673511 C163.030281,200.011401 162.922677,200.349292 162.695514,200.602411 C162.468948,200.855531 162.14494,201 161.804792,201 L1.19577882,201 Z" id="path-17"></path> <path d="M48.5135701,198.61208 L134.486403,198.61208 L116.947262,60.3879198 L66.0533053,60.3879198 L48.5135701,198.61208 Z M47.1871403,201 C46.8488561,201 46.5271895,200.855531 46.3022602,200.602411 C46.0773309,200.349292 45.9699109,200.011401 46.0073002,199.673511 L63.8117278,59.0614303 C63.8787912,58.4572866 64.3868108,58 64.9915679,58 L118.008999,58 C118.613163,58 119.121776,58.4572866 119.188246,59.0614303 L136.992673,199.673511 C137.030063,200.011401 136.923236,200.349292 136.697713,200.602411 C136.472784,200.855531 136.151117,201 135.813427,201 L47.1871403,201 Z" id="path-18"></path> <polygon id="path-19" points="6.93187423e-05 0.569231198 82.6020887 0.569231198 82.6020887 140 6.93187423e-05 140"></polygon> </defs> <g id="Page-1" stroke="none" stroke-width="1" fill="none" fill-rule="evenodd"> <g id="mark" transform="translate(-652.000000, -211.000000)"> <g id="Group-11" transform="translate(197.000000, 211.000000)"> <g id="Group-10" transform="translate(445.000000, 0.000000)"> <g id="Group-18" transform="translate(203.000000, 204.500000) scale(-1, 1) translate(-203.000000, -204.500000) translate(148.000000, 93.000000)"> <g id="Fill-1"> <use fill="#27242D" xlink:href="#path-1"></use> <use fill="#898E9E" xlink:href="#path-1"></use> </g> <g id="Group-5"> <mask id="mask-3" fill="white"> <use xlink:href="#path-2"></use> </mask> <g id="Clip-4"></g> <path d="M42.1416758,56.8662364 L17.4469389,56.8662364 C11.8138547,56.8662364 6.56085474,52.3344701 5.71425474,46.7447411 L0.189612632,10.2540869 C-0.656450526,4.66382523 3.22438105,0.132591589 8.85746526,0.132591589 L33.5522021,0.132591589 C39.1858232,0.132591589 44.4382863,4.66382523 45.2843495,10.2540869 L50.8095284,46.7447411 C51.6555916,52.3344701 47.7752968,56.8662364 42.1416758,56.8662364" id="Fill-3" fill="#EBCFA8" mask="url(#mask-3)"></path> </g> <path d="M94,118 L18,118 C15.7909333,118 14,116.2096 14,114 C14,111.7904 15.7909333,110 18,110 L94,110 L94,118 Z" id="Fill-6" fill="#EBCFA8"></path> <g id="Group-10" transform="translate(0.000000, 117.000000)"> <mask id="mask-5" fill="white"> <use xlink:href="#path-4"></use> </mask> <g id="Clip-9"></g> <g id="Fill-8" mask="url(#mask-5)"> <use fill="#27242D" xlink:href="#path-6"></use> <use fill="#898E9E" xlink:href="#path-6"></use> </g> </g> <g id="Group-13" transform="translate(48.000000, 117.000000)"> <mask id="mask-8" fill="white"> <use xlink:href="#path-7"></use> </mask> <g id="Clip-12"></g> <g id="Fill-11" mask="url(#mask-8)"> <use fill="#27242D" xlink:href="#path-9"></use> <use fill="#B4B9C6" xlink:href="#path-9"></use> </g> </g> <g id="Fill-14"> <use fill="#27242D" xlink:href="#path-10"></use> <use fill="#B4B9C6" xlink:href="#path-10"></use> </g> <path d="M75.7703171,28.383342 C63.972394,33.7524732 50.0114468,33.4722651 37.2972427,36.2383115 C37.0837299,30.7513961 36.8702171,25.2644807 36.6567043,19.7781031 C36.6164694,18.7433232 35.0070765,18.7379449 35.0473113,19.7781031 C35.2597512,25.2402785 35.4721911,30.7029917 35.6846309,36.1657048 C31.819942,34.2440474 27.6945315,33.2614367 23.3802855,33.2614367 C23.0417766,32.9387403 22.4259155,32.8666714 22.0965264,33.3797588 C22.0369789,33.4717273 21.9774314,33.5647714 21.9173474,33.6572777 C21.5890312,34.1682138 22.0176662,34.887289 22.6126051,34.8711542 C26.560446,34.7652022 30.3081856,35.4966475 33.8617252,37.0746332 C27.4144971,38.8295641 21.3830289,41.6106697 16.2420914,46.6269861 C15.4985519,47.3525153 16.6369292,48.4932473 17.3799322,47.7677181 C33.090826,32.4385608 57.8341694,38.3089471 76.582524,29.776315 C77.5240189,29.3476665 76.7069838,27.9568448 75.7703171,28.383342" id="Fill-16" fill="#59555E"></path> </g> <g id="Group-107" transform="translate(35.649999, 0.000000)"> <g id="Group-39" transform="translate(109.249998, 0.000000)"> <path d="M22.1253455,81.2140563 L22.1253455,81.2140563 C28.6748469,81.2140563 33.9839655,75.9866164 33.9839655,69.5378766 L33.9839655,44.6882171 L10.2667254,44.6882171 L10.2667254,69.5378766 C10.2667254,75.9866164 15.5758441,81.2140563 22.1253455,81.2140563" id="Fill-1" fill="#F3A396"></path> <path d="M33.9839655,46.716127 C33.9839655,46.716127 28.2557797,60.2290868 19.2843784,60.1324868 C7.72148796,60.0069068 10.3858582,45.2381471 10.3858582,45.2381471 C10.3858582,45.2381471 14.8568425,54.6207669 21.9277252,54.6290469 C29.8157188,54.6387069 33.9839655,46.716127 33.9839655,46.716127" id="Fill-3" fill="#1A1A1A"></path> <path d="M1.9944234,13.6573997 C2.94328119,10.1922198 5.17316708,5.30287989 13.1312388,1.65553997 C26.2820995,-4.36953991 33.2072196,8.42719983 33.2072196,8.42719983 C36.7503696,8.04907983 39.6936507,9.27451981 41.3825335,12.6306797 C42.963496,15.7743197 41.4147695,21.6889996 40.9354351,23.7479595 L38.0524211,36.8082792 L35.5226008,24.3855195 C33.036229,16.2145397 29.2548135,12.8859797 29.2548135,12.8859797 L17.2378168,11.9254998 L4.49481084,35.6187193 L2.01544683,21.5979196 C1.70149684,19.8190996 1.56974997,18.0071596 1.67066247,16.2048797 C1.72812653,15.1602197 1.83044059,14.2549397 1.9944234,13.6573997" id="Fill-5" fill="#1A1A1A"></path> <path d="M6.71096142,32.7503893 C6.71096142,32.7503893 5.10757396,30.2401694 1.80128809,31.4752693 C-1.50499778,32.7103693 -0.0095306248,40.6163892 4.95059896,41.6237891 C4.95059896,41.6237891 6.72778017,42.0060491 8.12233483,40.8068292 C8.12233483,40.8068292 6.90297548,34.9666693 6.71096142,32.7503893" id="Fill-7" fill="#E88E85"></path> <path d="M37.6205997,32.6606893 C37.6205997,32.6606893 39.5771809,30.2001494 42.7180824,31.4752693 C45.9865261,32.8028293 44.5274995,40.6163892 39.5687715,41.6237891 C39.5687715,41.6237891 37.7901887,42.0046691 36.3956341,40.8068292 C36.3956341,40.8068292 37.4285856,34.8769693 37.6205997,32.6606893" id="Fill-9" fill="#F3A396"></path> <path d="M42.0614504,34.2638353 C42.0614504,34.2638353 39.2919629,33.3544153 37.3269724,37.3702152" id="Stroke-11" stroke="#D26665" stroke-width="0.737149985" stroke-linecap="round" stroke-linejoin="round"></path> <path d="M38.6710708,35.4052333 C38.6710708,35.4052333 41.6844301,36.9922332 39.6942114,39.3768732" id="Stroke-13" stroke="#D26665" stroke-width="0.737149985" stroke-linecap="round" stroke-linejoin="round"></path> <path d="M3.63130821,25.2487095 C3.62963307,30.0152294 4.10503632,39.9857292 7.08055345,45.904549 C9.87526901,51.4618089 14.4962205,54.4522689 20.555175,54.6302889 C26.612728,54.8069289 31.1271608,52.5078489 34.7431919,45.2959691 C38.3606247,38.0840892 38.1882325,25.3370295 38.1882325,25.3370295 C38.1882325,25.3370295 38.1882325,8.31058983 21.0975797,8.31058983 C3.0973129,8.31058983 3.63130821,25.2487095 3.63130821,25.2487095" id="Fill-15" fill="#F3A396"></path> <path d="M5.18760317,10.4406198 C5.63330004,10.5868998 20.0007169,6.66631986 20.0007169,6.66631986 L32.6105745,10.4406198 C32.6105745,10.4406198 32.6063698,10.4502798 32.6035667,10.4585598 C43.6885243,13.4117597 38.804079,23.7479595 38.804079,23.7479595 C31.8453214,21.1093996 31.8313057,16.7127197 30.9665417,13.3096397 C28.9496933,15.9205997 19.8479466,20.6774596 10.3439515,20.4966796 C0.608698581,20.3117596 2.25553448,16.5788597 2.25553448,16.5788597 C2.25553448,16.5788597 4.74330787,10.2943398 5.18760317,10.4406198" id="Fill-17" fill="#1A1A1A"></path> <path d="M15.1600005,29.9055194 L15.1600005,37.5079392 C15.1600005,37.6762992 15.1922364,37.8391392 15.2539052,37.9867992 C15.4907692,38.5705392 16.1733301,38.8506792 16.7900176,38.6892192 L18.1158957,38.3414592" id="Stroke-19" stroke="#D26665" stroke-width="0.737149985" stroke-linecap="round" stroke-linejoin="round"></path> <path d="M22.5962705,30.5193434 C22.5962705,31.3970233 23.3180751,32.1077233 24.2094689,32.1077233 C25.099461,32.1077233 25.8212657,31.3970233 25.8212657,30.5193434 C25.8212657,29.6430434 25.099461,28.9309634 24.2094689,28.9309634 C23.3180751,28.9309634 22.5962705,29.6430434 22.5962705,30.5193434" id="Fill-21" fill="#1A1A1A"></path> <path d="M20.8258168,24.5424255 L21.2294667,21.5492056 L26.8357166,22.4903655 C27.5421041,22.6104255 28.1868229,22.9637055 28.6619525,23.4936255 L31.5001165,26.6676254 L26.8679526,25.2627855 L20.8258168,24.5424255 Z" id="Fill-23" fill="#1A1A1A"></path> <path d="M11.9551877,30.5193434 C11.9551877,31.3970233 11.233383,32.1077233 10.3419893,32.1077233 C9.45199715,32.1077233 8.72879091,31.3970233 8.72879091,30.5193434 C8.72879091,29.6430434 9.45199715,28.9309634 10.3419893,28.9309634 C11.233383,28.9309634 11.9551877,29.6430434 11.9551877,30.5193434" id="Fill-25" fill="#1A1A1A"></path> <path d="M13.1609519,24.5337315 L12.5961222,21.5681116 L8.19801921,22.4471715 C7.64300047,22.5575715 7.15665829,22.9025715 6.82168486,23.4228315 L4.8146474,26.5347314 L8.39704108,25.1892315 L13.1609519,24.5337315 Z" id="Fill-27" fill="#1A1A1A"></path> <path d="M19.2552259,40.1153112 C19.5523571,40.3871712 20.0639274,40.7225112 20.5194352,40.9722912 C20.9959664,41.2331111 21.4991274,41.4497711 22.0177055,41.6222711 C23.0576648,41.9755511 24.1747101,42.0914711 25.3029679,41.9576111 L25.3309992,41.9548511 C25.6701773,41.9148311 25.9771195,42.1535711 26.0177648,42.4861511 C26.0528038,42.7690511 25.8832148,43.0312511 25.6225242,43.1278511 C24.3765351,43.5915311 22.9847836,43.7778311 21.6210633,43.6508711 C20.9385024,43.5942911 20.2587446,43.4756111 19.594404,43.2948311 C18.911843,43.1002511 18.3147774,42.9056711 17.5803587,42.5275511 L17.5369103,42.5054711 C16.8038931,42.1273511 16.5207775,41.2344911 16.9048056,40.5113712 C17.2902353,39.7896312 18.1970462,39.5108712 18.9300634,39.8889912 C19.0491962,39.9497112 19.1613212,40.0297512 19.2552259,40.1153112" id="Fill-29" fill="#1A1A1A"></path> <path d="M15.565893,42.4003151 C14.9211742,42.7825751 14.3969899,42.9812951 13.7887117,43.1855351 C13.1972524,43.3759751 12.5875727,43.5056951 11.9722868,43.5746951 C10.7417149,43.7223551 9.46769465,43.5470951 8.36466498,43.0847951 C8.07033686,42.9619751 7.93298374,42.6280151 8.0577228,42.3382151 C8.16283999,42.0939551 8.41932592,41.9600951 8.67441029,41.9973551 L8.70244154,42.0001151 C9.68493683,42.1422551 10.6548181,42.0277151 11.5420071,41.6854751 C11.9863024,41.5184951 12.4123774,41.3073551 12.8118227,41.0561951 C13.1944493,40.8174552 13.6247289,40.4917752 13.8573883,40.2419952 C14.3815727,39.6775752 15.2729664,39.6375552 15.847607,40.1550552 C16.4208461,40.6725552 16.4614914,41.5488551 15.9359055,42.1132751 C15.8434023,42.2126351 15.7410883,42.2968151 15.6289633,42.3630551 L15.565893,42.4003151 Z" id="Fill-31" fill="#1A1A1A"></path> <path d="M20.1893672,44.5046771 L14.0743502,44.5046771" id="Stroke-33" stroke="#D26665" stroke-width="0.737149985" stroke-linecap="round" stroke-linejoin="round"></path> <path d="M19.1210963,47.121847 C19.1210963,47.121847 17.4854729,47.700067 15.1448636,47.121847" id="Stroke-35" stroke="#D26665" stroke-width="0.553149989" stroke-linecap="round" stroke-linejoin="round"></path> <polygon id="Fill-37" fill="#1A1A1A" points="36.9684527 19.5326116 36.3966152 33.6969313 38.6881698 31.7566513 40.4401229 18.7956916"></polygon> </g> <g id="Group-69" transform="translate(4.600000, 170.199996)"> <path d="M28.3913557,35.3541192 C19.6560443,35.2821377 12.8568317,27.5828879 14.0570188,18.7776149 C14.986956,11.9546011 20.8174264,6.83422625 27.684548,6.21961515 L110.392133,0.750406929 C121.252026,-0.22272731 130.684443,9.10302713 129.970706,19.9722306 C129.216778,31.4491239 117.248168,36.2262025 107.814364,36.1237673 L28.3913557,35.3541192 Z" id="Fill-40" fill="#03101E"></path> <polygon id="Fill-42" fill="#FFFFFF" points="33.8768762 126.878709 31.096766 99.8648905 43.7597106 99.9216452 46.564767 126.935464"></polygon> <path d="M32.9091041,126.873311 L17.091857,135.476482 L8.18885201,137.213727 C4.09768286,138.012445 1.02237652,141.408033 0.637097038,145.553889 L0.456930375,147.493236 L49.9154511,147.711949 L48.5350973,126.945292 L32.9091041,126.873311 Z" id="Fill-44" fill="#1A1A1A"></path> <path d="M26.2544405,131.005878 C26.2544405,131.005878 29.246593,121.562462 25.7485879,119.991328 C20.7454983,117.743291 21.6116842,125.777531 26.2544405,131.005878 Z" id="Stroke-46" stroke="#FFFFFF" stroke-width="0.5" stroke-linecap="round" stroke-linejoin="round"></path> <path d="M26.149528,130.940957 C26.149528,130.940957 33.7511753,124.578901 36.538215,127.210378 C40.5268277,130.972795 32.7588728,133.234674 26.149528,130.940957 Z" id="Stroke-48" stroke="#FFFFFF" stroke-width="0.5" stroke-linecap="round" stroke-linejoin="round"></path> <polygon id="Fill-50" fill="#FFFFFF" points="50.109061 148.033374 0.261103072 147.814661 0.280505635 143.549759 50.1284636 143.767087"></polygon> <path d="M42.6882733,19.8116565 L48.6531758,115.888937 L29.522248,115.865405 L14.1166124,23.0535917 C12.6614201,14.292615 19.4273713,6.32205033 28.319289,6.32205033 C35.925094,6.32205033 42.2170682,12.2300687 42.6882733,19.8116565" id="Fill-52" fill="#03101E"></path> <path d="M58.0812973,35.5278437 C49.2462013,35.454478 42.3693784,27.6680198 43.5820386,18.7616959 C44.5230629,11.8597794 50.4200564,6.6812656 57.3661742,6.05973321 L141.023099,0.526849063 C152.007722,-0.455974991 161.54824,8.97636741 160.826187,19.96877 C160.063944,31.5771679 147.95813,36.4096168 138.41484,36.3057974 L58.0812973,35.5278437 Z" id="Fill-54" fill="#04162E"></path> <polygon id="Fill-56" fill="#FFFFFF" points="63.6295989 128.102118 60.8176131 100.779609 73.6260769 100.837748 76.4630089 128.160257"></polygon> <path d="M62.6511554,128.098103 L46.6523557,136.799557 L37.6467943,138.556182 C33.5098906,139.364589 30.3985509,142.798936 30.0091137,146.991858 L29.8261753,148.953353 L79.8542999,149.174834 L78.4559294,128.170085 L62.6511554,128.098103 Z" id="Fill-58" fill="#1A1A1A"></path> <path d="M55.9198517,132.277874 C55.9198517,132.277874 58.9466516,122.726485 55.4084555,121.135972 C50.3485441,118.863018 51.2244312,126.98862 55.9198517,132.277874 Z" id="Stroke-60" stroke="#FFFFFF" stroke-width="0.5" stroke-linecap="round" stroke-linejoin="round"></path> <path d="M55.8136919,132.211707 C55.8136919,132.211707 63.5026507,125.77767 66.3215661,128.436832 C70.3559134,132.243544 62.499261,134.533109 55.8136919,132.211707 Z" id="Stroke-62" stroke="#FFFFFF" stroke-width="0.5" stroke-linecap="round" stroke-linejoin="round"></path> <g id="Group-66" transform="translate(29.103846, 144.962960)"> <mask id="mask-12" fill="white"> <use xlink:href="#path-11"></use> </mask> <g id="Clip-65"></g> <polygon id="Fill-64" fill="#FFFFFF" mask="url(#mask-12)" points="50.9440642 4.53717535 0.525116528 4.31569387 0.544519091 0.000957849618 50.9634668 0.222439327"></polygon> </g> <path d="M72.5425823,19.8075038 L78.5753938,116.988039 L59.2254942,116.963122 L43.6424637,23.0868139 C42.1720266,14.2247863 49.015588,6.16286052 58.0086762,6.16286052 C65.7004068,6.16286052 72.0658336,12.1387076 72.5425823,19.8075038" id="Fill-67" fill="#04162E"></path> </g> <g id="Group-106" transform="translate(0.000000, 66.699999)"> <path d="M89.6165878,21.1267833 C86.2765443,38.2977271 77.7765084,65.63328 73.257871,84.9027866 C71.7461057,91.3458888 75.4373674,97.862698 81.6315794,99.6998096 C88.2019975,101.649568 95.0320116,97.5915119 96.6701045,90.7645772 L114.333743,26.4587181 C115.891319,19.1561647 111.142238,12.0135416 103.958229,10.8536998 C97.269813,9.7745184 90.9451089,14.3026299 89.6165878,21.1267833" id="Fill-70" fill="#007DDC"></path> <path d="M21.5940892,91.3080618 L21.5940892,91.3080618 C21.4455503,88.5767317 23.5875649,86.2139364 26.3778756,86.0331457 L38.9745317,85.2905131 C41.7648424,85.1097224 44.1484063,87.1776898 44.2969452,89.9104107 C44.4454841,92.6417409 42.3034695,95.0031455 39.5131589,95.1839362 L26.9165027,95.9265687 C24.126192,96.1073594 21.7426282,94.039392 21.5940892,91.3080618" id="Fill-72" fill="#F3A396"></path> <g id="Group-76" transform="translate(0.000000, 84.832556)"> <mask id="mask-14" fill="white"> <use xlink:href="#path-13"></use> </mask> <g id="Clip-75"></g> <path d="M24.6856424,14.1264285 C26.892903,12.4840146 27.3662841,11.0015309 27.3662841,11.0015309 C29.7776123,10.8958379 31.6308783,8.82787051 31.4226462,6.4762008 L31.2754955,4.81014502 C31.0825337,2.6350939 29.1876212,1.00658696 26.9567609,1.10254509 L26.827657,1.10810788 C26.827657,1.10810788 20.6084571,-0.346561853 12.9968783,0.999633468 C3.16276854,2.73800552 -0.652044236,8.02543797 0.0892621767,10.9667635 C0.791698591,13.7439867 12.4749098,12.2740193 16.8186322,11.7803216 L13.0371366,14.6437681 C12.5582026,15.0067402 12.3707937,15.6311634 12.5748612,16.1832704 C12.7955873,16.778489 13.409178,17.1372889 14.0519212,17.0455029 L19.1452793,16.3223401 C21.1415314,16.0386378 23.0725374,15.3266006 24.6856424,14.1264285" id="Fill-74" fill="#F3A396" mask="url(#mask-14)"></path> </g> <path d="M90.1249519,78.8351728 L31.9657156,80.4956658 L31.7408249,101.824796 L91.1966533,100.061391 C97.4436174,99.7359677 102.185757,94.3233725 101.559673,88.2390703 C100.975235,82.5733681 95.9346285,78.4263077 90.1249519,78.8351728" id="Fill-77" fill="#007DDC"></path> <polygon id="Fill-79" fill="#007DDC" points="120.744238 0.0896999981 132.920266 0.267709297 144.775615 0.0896999981 168.223942 11.1151509 165.325351 107.440433 132.920266 107.440433 100.194503 107.440433 99.8641078 10.862044"></polygon> <path d="M127.96795,17.1304745 L127.96795,107.66211" id="Stroke-81" stroke="#005F99" stroke-width="0.826849983"></path> <path d="M130.32486,27.0330762 C130.32486,27.8188204 130.944004,28.4543692 131.70891,28.4543692 C132.472428,28.4543692 133.091571,27.8188204 133.091571,27.0330762 C133.091571,26.247332 132.472428,25.6117832 131.70891,25.6117832 C130.944004,25.6117832 130.32486,26.247332 130.32486,27.0330762" id="Fill-83" fill="#289DE5"></path> <path d="M130.32486,43.874981 C130.32486,44.6607251 130.944004,45.2976646 131.70891,45.2976646 C132.472428,45.2976646 133.091571,44.6607251 133.091571,43.874981 C133.091571,43.0906275 132.472428,42.453688 131.70891,42.453688 C130.944004,42.453688 130.32486,43.0906275 130.32486,43.874981" id="Fill-85" fill="#289DE5"></path> <path d="M130.32486,60.717442 C130.32486,61.5017955 130.944004,62.138735 131.70891,62.138735 C132.472428,62.138735 133.091571,61.5017955 133.091571,60.717442 C133.091571,59.9316978 132.472428,59.2947583 131.70891,59.2947583 C130.944004,59.2947583 130.32486,59.9316978 130.32486,60.717442" id="Fill-87" fill="#289DE5"></path> <path d="M130.32486,77.5593468 C130.32486,78.3450909 130.944004,78.9806398 131.70891,78.9806398 C132.472428,78.9806398 133.091571,78.3450909 133.091571,77.5593468 C133.091571,76.7736026 132.472428,76.1380538 131.70891,76.1380538 C130.944004,76.1380538 130.32486,76.7736026 130.32486,77.5593468" id="Fill-89" fill="#289DE5"></path> <path d="M130.32486,94.4018078 C130.32486,95.1861613 130.944004,95.8231008 131.70891,95.8231008 C132.472428,95.8231008 133.091571,95.1861613 133.091571,94.4018078 C133.091571,93.6160636 132.472428,92.9791241 131.70891,92.9791241 C130.944004,92.9791241 130.32486,93.6160636 130.32486,94.4018078" id="Fill-91" fill="#289DE5"></path> <path d="M99.986826,86.2762396 L99.986826,38.2234639" id="Stroke-93" stroke="#005F99" stroke-width="0.826849983"></path> <g id="Group-97" transform="translate(152.315354, 9.734884)"> <mask id="mask-16" fill="white"> <use xlink:href="#path-15"></use> </mask> <g id="Clip-96"></g> <path d="M25.0989833,11.3918998 C28.4390268,28.5628436 36.0672642,58.2584104 40.5859016,77.527917 C42.0976669,83.9696285 38.4064052,90.4864377 32.2121932,92.3235492 C25.6417751,94.2733073 18.8103727,90.2152516 17.1736681,83.3883169 L0.381828471,16.7238345 C-1.17574792,9.4212812 3.57333305,2.27865809 10.7573418,1.11881626 C17.4457581,0.0396348829 23.7704623,4.56774642 25.0989833,11.3918998" id="Fill-95" fill="#007DDC" mask="url(#mask-16)"></path> </g> <path d="M155.518728,38.2238811 L165.297309,75.6503361" id="Stroke-98" stroke="#005F99" stroke-width="0.826849983"></path> <path d="M103.502062,109.573902 L103.502062,109.573902 C104.146194,112.629265 107.20443,114.595711 110.334853,113.967116 L124.436333,111.046651 C127.565368,110.416665 129.581055,107.430837 128.936924,104.375474 C128.292792,101.320111 125.233168,99.3536649 122.104133,99.9822603 L108.002653,102.904116 C104.87223,103.532711 102.857931,106.518539 103.502062,109.573902" id="Fill-100" fill="#F3A396"></path> <path d="M104.646922,100.223964 C107.564949,101.378243 108.525593,102.871852 108.525593,102.871852 C111.214564,102.273852 113.86883,104.001098 114.33527,106.65594 L114.664276,108.534773 C115.096011,110.989354 113.488459,113.346586 111.000779,113.902866 L110.857793,113.934852 C110.857793,113.934852 104.433137,117.385172 95.6471294,118.161182 C84.2943132,119.163875 78.5262829,114.468879 78.4747787,111.007433 C78.4249433,107.737903 91.737918,105.889666 96.6702433,105.145642 L91.6560134,103.111052 C91.0202113,102.853773 90.6287348,102.222396 90.6912045,101.55208 C90.7578388,100.831698 91.329783,100.253168 92.0655366,100.164164 L97.8918718,99.4479542 C100.174096,99.168424 102.514625,99.37981 104.646922,100.223964" id="Fill-102" fill="#F3A396"></path> <path d="M182.718426,102.97824 L118.131758,118.410812 L111.573834,94.9719938 L177.622292,79.2654546 C184.602233,77.7718454 191.430859,82.3277709 192.540042,89.2200684 C193.571485,95.6367473 189.241645,101.704361 182.718426,102.97824" id="Fill-104" fill="#007DDC"></path> </g> </g> <g id="Group-19" transform="translate(91.500000, 215.500000) scale(-1, 1) translate(-91.500000, -215.500000) translate(10.000000, 115.000000)"> <path d="M157.505589,59 L5.4944113,59 C3.01229775,59 1,56.9852 1,54.5 C1,52.0142 3.01229775,50 5.4944113,50 L157.505589,50 C159.987702,50 162,52.0142 162,54.5 C162,56.9852 159.987702,59 157.505589,59" id="Fill-1" fill="#EBCFA8"></path> <g id="Fill-3"> <use fill="#27242D" xlink:href="#path-17"></use> <use fill="#B4B9C6" xlink:href="#path-17"></use> </g> <g id="Fill-5"> <use fill="#27242D" xlink:href="#path-18"></use> <use fill="#898E9E" xlink:href="#path-18"></use> </g> <g id="Group-9" transform="translate(0.000000, 58.000000)"> <mask id="mask-20" fill="white"> <use xlink:href="#path-19"></use> </mask> <g id="Clip-8"></g> </g> <g id="Group-23" transform="translate(27.000000, 0.000000)"> <path d="M104.231388,47 L0.75611898,47 C0.337903683,47 0,47.3303658 0,47.7379524 L0,48.2819818 C0,49.2306948 0.787648725,50 1.75971671,50 L103.140935,50 C104.167734,50 105,49.1877298 105,48.1856009 L105,47.7501452 C105,47.3355913 104.655552,47 104.231388,47" id="Fill-13" fill="#D3C2BE"></path> <path d="M58.4071082,0 L121.019177,0 C123.095906,0 124.535053,2.07417451 123.809856,4.0226774 L108.382981,45.0597962 C107.949047,46.2258154 106.836091,47 105.592895,47 L42.9802341,47 C40.9040974,47 39.4649504,44.9252327 40.1901478,42.9773226 L55.6170219,1.94020382 C56.0509564,0.773591807 57.1633205,0 58.4071082,0" id="Fill-15" fill="#E0D4D1"></path> </g> <path d="M117.589194,25.499708 C118.842404,22.4624861 117.132012,20 113.768779,20 C110.406193,20 106.663376,22.4624861 105.410813,25.499708 C104.157603,28.5375139 105.867995,31 109.230581,31 C112.593814,31 116.335984,28.5375139 117.589194,25.499708" id="Fill-17" fill="#FFFFFF"></path> </g> </g> </g> </g> </g> </svg> 