<?xml version="1.0" encoding="UTF-8"?> <svg xmlns="http://www.w3.org/2000/svg" xmlns:xlink="http://www.w3.org/1999/xlink" width="244px" height="376px" viewBox="0 0 244 376"> <!-- Generator: Sketch 57.1 (83088) - https://sketch.com --> <title>Group 10</title> <desc>Created with Sketch.</desc> <defs> <polygon id="path-1" points="0.0062278481 0.0162571429 19.7797468 0.0162571429 19.7797468 1.99997143 0.0062278481 1.99997143"></polygon> <polygon id="path-3" points="0.0457105263 0.185858311 24.9432964 0.185858311 24.9432964 94.7881526 0.0457105263 94.7881526"></polygon> <polygon id="path-5" points="0 0.127308652 29.9013255 0.127308652 29.9013255 2.934675 0 2.934675"></polygon> <polygon id="path-7" points="0.139787736 0.057288 24.8768868 0.057288 24.8768868 5.817768 0.139787736 5.817768"></polygon> <polygon id="path-9" points="0 0.061392 4.95273913 0.061392 4.95273913 5.813952 0 5.813952"></polygon> <polygon id="path-11" points="0 0.0913983333 47.7747879 0.0913983333 47.7747879 58 0 58"></polygon> </defs> <g id="Page-1" stroke="none" stroke-width="1" fill="none" fill-rule="evenodd"> <g id="artem" transform="translate(-688.000000, -1334.000000)"> <g id="Group-11" transform="translate(264.000000, 1334.000000)"> <g id="Group-10" transform="translate(424.000000, 0.000000)"> <g id="Group-114" transform="translate(50.000000, 0.000000)"> <path d="M77.2619618,287.128928 C76.9572054,287.881262 76.6367803,288.732118 76.3056482,289.671955 C75.9097522,291.574842 75.5976837,294.767296 75.6637534,300.116165 C75.7645555,308.321943 64.590676,340.414644 61.1135281,350.196532 C60.8388033,351.572243 60.6588743,352.547672 60.5904543,353.02507 C60.4342895,354.123524 52.2842099,354.851098 51.8603713,352.038035 C51.5752008,350.135149 45.5195055,308.312659 47.340993,296.171377 C48.4171723,289.000091 52.5756479,284.683133 52.8109397,282.174666 C56.5915383,241.895015 58.6767825,200.861998 59.5850454,197 C63.9174437,198.767998 93.6548275,200.695901 115.323609,197 C116.225866,200.506593 117.881787,240.706549 121.420043,280.889999 C121.637316,283.3572 126.633284,288.568859 127.353,294.965116 C130.35852,321.651948 121.918047,350.489264 121.90969,352.848658 C121.906034,354.152153 113.60449,354.290652 113.545472,352.848658 C113.534765,352.585328 113.484364,352.125726 113.39688,351.494095 C110.799269,343.69711 99.3182828,308.734605 99.4237854,300.116165 C99.4945558,294.409312 99.2678818,291.157796 98.9881953,289.307008 C98.3726761,287.614837 97.7741314,286.154788 97.1993509,284.982829 C93.0192002,276.454659 92.1239945,237.221621 87.5469032,237.221621 C83.1241486,237.221621 81.1914132,278.677616 77.8968058,285.670169 C77.7228831,286.040017 77.5426929,286.449841 77.3578021,286.897837 L77.2619618,287.128928 Z" id="Fill-1" fill="#BC7551"></path> <path d="M56.3818794,207.654106 L115.775216,198 C115.775216,198 128.107234,225.779135 125.684691,265.840201 C125.204522,273.778615 92.6933598,271.528599 92.6933598,271.528599 L88.2615285,246.626313 L83.5293624,271.716986 C83.5293624,271.716986 49.5201864,274.05666 47.3736692,265.281779 C44.7979531,254.75104 56.3818794,207.654106 56.3818794,207.654106" id="Fill-3" fill="#172755"></path> <path d="M121.361755,270 C121.012668,270 120.727887,269.717074 120.724059,269.364828 C120.579372,255.368706 119.420342,235.055523 114.721448,217.766725 C111.912421,207.431443 109.129933,203.034276 109.102373,202.990887 C108.911243,202.693327 108.995453,202.296152 109.290696,202.103598 C109.586451,201.910787 109.980704,201.99474 110.1726,202.292044 C110.289218,202.472788 113.06303,206.83735 115.923348,217.323337 C120.681189,234.763098 121.853998,255.242391 122,269.351478 C122.003789,269.705777 121.720794,269.996149 121.368645,270 L121.361755,270 Z" id="Fill-5" fill="#FFFFFF"></path> <path d="M52.5838593,270 C52.573826,270 52.5637928,270 52.5537595,269.999228 C52.2319954,269.981209 51.9844307,269.678757 52.0007639,269.323794 C52.1097297,266.964668 58.5634452,211.903719 58.8380764,209.560809 C58.8791427,209.208678 59.1719738,208.960024 59.4914046,209.005327 C59.8110687,209.050888 60.0362336,209.373418 59.9951672,209.726064 C59.9279678,210.299307 53.2724205,267.079729 53.1660213,269.389176 C53.1501548,269.732813 52.8923235,270 52.5838593,270" id="Fill-7" fill="#FFFFFF"></path> <path d="M48.6397156,269 C48.6287225,269 48.6177294,269 48.6067363,268.999222 C48.2541898,268.981062 47.9829412,268.676246 48.000837,268.318509 C48.1202273,265.939387 55.4168403,210.903609 55.7274596,208.561843 C55.7744999,208.2067 56.1009697,207.958956 56.4458466,208.005651 C56.7958365,208.053384 57.0412641,208.379732 56.9942238,208.734875 C56.9182947,209.30767 49.3941498,266.05846 49.2775717,268.384401 C49.2601872,268.730984 48.9776899,269 48.6397156,269" id="Fill-9" fill="#FFFFFF"></path> <path d="M49,335 L66,335 L60.2300361,353.027591 C60.0735172,354.123205 51.6500725,354.848898 51.2248234,352.043108 L49,335 Z" id="Fill-11" fill="#B4E8FF"></path> <path d="M126,335 L109,335 L114.387969,353.027591 C114.534377,354.123205 122.400513,354.848898 122.797627,352.043108 L126,335 Z" id="Fill-13" fill="#B4E8FF"></path> <path d="M60.3276199,369 C61.3044382,369 62.0736694,368.201282 61.9943753,367.248953 C61.6355764,362.924173 60.9271987,354.107599 60.2567557,352.322016 C58.8903166,348.681778 52.9314088,349.821221 51.5586472,352.325882 C49.6263489,355.851687 45.7873055,362.54685 42.4187576,366.299976 C41.4698634,367.356944 42.2380409,369 43.6761345,369 L60.3276199,369 Z" id="Fill-15" fill="#E2A346"></path> <path d="M61.1570322,370 L42.8429678,370 C42.3771846,370 42,369.546018 42,368.999856 C42,368.453982 42.3771846,368 42.8429678,368 L61.1570322,368 C61.6225594,368 62,368.453982 62,368.999856 C62,369.546018 61.6225594,370 61.1570322,370" id="Fill-17" fill="#172755"></path> <path d="M57.5104375,362 C57.389493,362 57.2682901,361.962345 57.1734469,361.8866 C56.4837017,361.335054 54.9372666,360.947187 53.0365262,360.848588 C51.1001227,360.748465 49.0934267,360.969171 47.667936,361.439095 C47.4159684,361.522023 47.1324725,361.417329 47.0337529,361.20533 C46.9352917,360.993331 47.0595957,360.754342 47.3110465,360.671414 C48.8859087,360.152517 50.9944255,359.917229 53.0962231,360.026058 C55.2515154,360.137499 56.9832437,360.597846 57.8476864,361.288911 C58.0435751,361.445625 58.0515864,361.706379 57.865518,361.871582 C57.7691242,361.956904 57.63991,362 57.5104375,362" id="Fill-19" fill="#FFFFFF"></path> <path d="M57.5531943,359 C57.4551182,359 57.3560991,358.966068 57.2735832,358.896471 C56.1567892,357.952079 52.471864,357.620687 50.5907368,358.295111 C50.3575704,358.379074 50.1036571,358.247805 50.0239703,358.002852 C49.9445192,357.757652 50.0690004,357.491152 50.3024026,357.407437 C51.2994306,357.050039 52.7924973,356.916789 54.2964088,357.051525 C55.8738774,357.192949 57.1632476,357.598891 57.8332769,358.165576 C58.0256569,358.328052 58.0558341,358.623283 57.9014115,358.824892 C57.8132373,358.940062 57.6838052,359 57.5531943,359" id="Fill-21" fill="#FFFFFF"></path> <path d="M57.9993321,347.951895 L57.8150752,355 L51.4843165,355 L49.1194309,348.564289 C48.6631392,347.321892 49.5708602,346 50.8811312,346 L56.1204239,346 C57.1778536,346 58.0272265,346.88247 57.9993321,347.951895" id="Fill-23" fill="#E2A346"></path> <path d="M113.672349,369 C112.695529,369 111.92656,368.201282 112.005591,367.248953 C112.36439,362.924173 113.072769,354.107599 113.743213,352.322016 C115.109655,348.681778 121.068573,349.821221 122.441337,352.325882 C124.373638,355.851687 128.212688,362.54685 131.581242,366.299976 C132.530137,367.356944 131.761959,369 130.323863,369 L113.672349,369 Z" id="Fill-25" fill="#E2A346"></path> <g id="Group-29" transform="translate(112.000000, 368.000000)"> <mask id="mask-2" fill="white"> <use xlink:href="#path-1"></use> </mask> <g id="Clip-28"></g> <path d="M18.9487595,1.99997143 L0.837367089,1.99997143 C0.378126582,1.99997143 0.0062278481,1.54968571 0.0062278481,1.00797143 C0.0062278481,0.466542857 0.378126582,0.0162571429 0.837367089,0.0162571429 L18.9487595,0.0162571429 C19.4074937,0.0162571429 19.7798987,0.466542857 19.7798987,1.00797143 C19.7798987,1.54968571 19.4074937,1.99997143 18.9487595,1.99997143" id="Fill-27" fill="#172755" mask="url(#mask-2)"></path> </g> <path d="M115.489563,362 C115.36009,362 115.230876,361.956906 115.134482,361.871587 C114.948414,361.706392 114.956425,361.445649 115.152314,361.288942 C116.016757,360.597908 117.748485,360.137581 119.903778,360.026145 C122.005577,359.917103 124.114094,360.152381 125.688698,360.671473 C125.940408,360.754397 126.064712,360.993375 125.96625,361.205365 C125.867531,361.417355 125.584035,361.521826 125.332067,361.439119 C123.906576,360.969216 121.899879,360.748738 119.963475,360.848639 C118.062734,360.947234 116.516299,361.335083 115.826553,361.886605 C115.73171,361.962347 115.610507,362 115.489563,362" id="Fill-30" fill="#FFFFFF"></path> <path d="M115.475402,359 C115.336432,359 115.198716,358.939367 115.104898,358.82286 C114.940592,358.618911 114.972701,358.320254 115.177394,358.155892 C116.771286,356.874322 120.584184,356.704699 122.678268,357.41877 C122.926358,357.503456 123.059057,357.7733 122.974521,358.021096 C122.889734,358.269142 122.619319,358.401683 122.37123,358.316746 C120.364943,357.632741 116.97347,357.929895 115.772908,358.89527 C115.685111,358.965674 115.580006,359 115.475402,359" id="Fill-32" fill="#FFFFFF"></path> <path d="M115.000668,347.951895 L115.184672,355 L121.515546,355 L123.880474,348.564289 C124.33703,347.321892 123.429037,346 122.118742,346 L116.879354,346 C115.821906,346 114.972773,346.88247 115.000668,347.951895" id="Fill-34" fill="#E2A346"></path> <g id="Group-38" transform="translate(72.000000, 0.000000)"> <mask id="mask-4" fill="white"> <use xlink:href="#path-3"></use> </mask> <g id="Clip-37"></g> <path d="M0.0457105263,85.0427575 C0.0457105263,85.0427575 1.40597368,72.8540245 1.26781579,70.1440654 C1.12913158,67.4343651 1.10176316,60.420673 2.20544737,54.321 C3.49307895,47.2055777 9.68913158,27.8219537 9.0715,25.8934796 C8.45386842,23.9650054 5.16465789,22.5775395 4.38728947,20.9094741 C3.61018421,19.2414087 4.45334211,16.0279755 4.09439474,14.6205777 C3.69413158,13.0526894 2.37439474,11.587049 2.8765,10.8656185 C3.53728947,9.91717166 5.66044737,10.7413678 6.31544737,12.6757956 C6.69228947,13.7880981 6.25518421,15.292049 7.25992105,15.537703 C9.85544737,16.1718992 5.97992105,1.75752589 8.59702632,0.332525886 C10.6872895,-0.805662125 17.1351842,4.96681744 17.7057105,7.6946376 C19.3193947,15.4090518 16.8193947,22.8806594 15.9759737,26.0174714 C15.1328158,29.1540245 23.7699211,47.7993924 24.7943947,59.5493651 C25.3725526,66.1840926 24.0978158,70.4135341 23.8486053,74.342703 C23.5996579,78.2718719 23.5509737,85.678248 20.1880789,94.7881526 C13.6478158,93.9375531 0.0457105263,85.0427575 0.0457105263,85.0427575" id="Fill-36" fill="#BC7551" mask="url(#mask-4)"></path> </g> <path d="M83.6924285,9.99178869 C83.6836324,9.99452244 83.6750023,9.99651063 83.6658744,9.99800176 C83.5229798,10.0196233 83.3951879,9.86330233 83.3807491,9.64932408 C83.3497139,9.18955664 83.3020824,8.6452914 83.2519614,8.06871818 C82.9452609,4.54938483 82.776476,1.79823589 83.6059615,1.05540082 C83.7291064,0.944808115 83.8894272,1.00495067 83.963115,1.18985173 C84.0368028,1.3747528 83.9966396,1.61408039 83.8733287,1.72442458 C83.2710472,2.26371936 83.5823947,5.83424843 83.7682738,7.96781787 C83.8192246,8.55010712 83.8670221,9.10008838 83.8987211,9.57079083 C83.9121642,9.77159737 83.8215481,9.95202502 83.6924285,9.99178869" id="Fill-39" fill="#804737"></path> <path d="M86.5416426,11.9916104 C86.5230622,11.9968427 86.503913,11.9997205 86.4840054,12 C86.3198152,12.002075 86.1855812,11.8202518 86.1838748,11.5936922 C86.1795141,10.9611042 86.1425429,10.0938465 86.1032965,9.17557362 C85.9597723,5.81354385 85.9047895,3.73186375 86.3531841,3.17305155 C86.4640978,3.03465658 86.6053469,2.97631617 86.7503878,3.00875658 C86.9123029,3.04512123 87.0224582,3.25572227 86.9961043,3.47940412 C86.9741112,3.66750617 86.8622495,3.80511629 86.731997,3.82238296 C86.4944332,4.38407294 86.6256336,7.4551855 86.6969217,9.12743624 C86.7367369,10.0559121 86.7742769,10.9328496 86.7788272,11.5855821 C86.7799648,11.7851952 86.6781517,11.9528912 86.5416426,11.9916104" id="Fill-41" fill="#804737"></path> <path d="M88.5199932,13.9921469 C88.4852794,14.000171 88.4488299,14.0023594 88.4115126,13.9972531 C88.2249261,13.9726945 88.0912781,13.7832772 88.1134081,13.5739213 C88.2299162,12.4597877 88.1494237,10.9977001 88.0784774,9.70776582 C87.9569792,7.50211198 87.8836464,6.17108463 88.5909394,6.00792801 C88.7751393,5.96537598 88.9550001,6.09838145 88.9929682,6.30457641 C89.0272481,6.49156217 88.933087,6.67465746 88.7781768,6.73909338 C88.6141542,7.04984474 88.6968164,8.55472751 88.7579994,9.66083702 C88.8308983,10.9826245 88.9133435,12.4809421 88.7892418,13.6629158 C88.771668,13.8306924 88.659933,13.9600505 88.5199932,13.9921469 L88.5199932,13.9921469 Z" id="Fill-43" fill="#804737"></path> <path d="M85.661138,18.9923842 C85.4736696,19.0263948 85.277287,18.9445791 85.1927371,18.7852288 C83.9809456,16.5105629 82.4414895,15.5297261 80.4863073,15.7868271 C80.254538,15.8172702 80.0392464,15.6767089 80.0046701,15.4728833 C79.9700938,15.2690576 80.1313599,15.0799778 80.3609682,15.0488212 C82.7037832,14.7408233 84.5871115,15.8912372 85.9596288,18.4684309 C86.0593058,18.6551324 85.9680028,18.8772714 85.7562229,18.9645573 C85.7248881,18.9774005 85.6932832,18.9866761 85.661138,18.9923842" id="Fill-45" fill="#804737"></path> <path d="M44.5730949,204.966274 C40.022093,203.946778 36.1948637,196.222997 31.5713308,191.679932 C29.2285528,189.378361 26.2086477,187.413428 26.0920342,186.950939 C25.2495978,183.607083 29.0506852,161 29.0506852,161 L4.82967764,162.337231 C3.81501208,174.61806 3.32702945,190.959008 5.7938534,196.502666 C9.9904015,205.93398 46.2828281,219.419198 49.7463771,213.584218 C51.3817853,213.122247 44.5730949,204.966274 44.5730949,204.966274" id="Fill-47" fill="#BC7551"></path> <path d="M116.961558,197.230407 C112.290008,206.348865 56.3897491,218.396531 53.4065924,216.867786 C51.7187196,216.004345 50.1738427,185.357247 30.5792299,166.148602 C29.4240822,166.463077 29.0985713,176.11518 27.7424491,176.344999 C17.4116376,178.086423 3.77085857,177.89296 2.45607529,176.896302 C1.12647242,175.890296 2.63027042,154.571739 7.94114211,142.057425 C12.851885,130.491209 26.7230176,117.698516 38.058441,112.522543 C40.4893732,110.64946 52.5059776,102.722421 58.0123638,100.247656 C59.9714091,99.3696727 66.2312543,90.9043137 71.8106985,81.3649118 C72.9804058,79.3645848 97.825832,86.1152665 97.859631,88.8289387 C98.0873847,106.374323 92.8724503,118.799047 98.8515033,142.337881 C103.883403,162.139898 117.825773,195.542217 116.961558,197.230407" id="Fill-49" fill="#E2A346"></path> <path d="M53.0265195,213.992387 C54.1186016,213.798851 58.9801281,208.233026 57.8233356,205.630638 C56.8734166,203.494659 48.1777352,196.504848 47.0274388,197.027852 C43.1428148,198.793938 41.3826413,210.729549 42.1936453,211.224508 C44.0999793,212.388255 52.2534923,214.129329 53.0265195,213.992387" id="Fill-51" fill="#BC7551"></path> <path d="M56.7651527,207.966454 C56.6034709,208.03643 56.4077241,207.99557 56.2918013,207.856597 C55.2845948,206.647682 49.0176455,202.727577 46.2593946,201.742045 C46.0534791,201.6684 45.9484876,201.447952 46.0250068,201.249769 C46.101526,201.051586 46.330321,200.950537 46.5364908,201.023939 C49.4472716,202.064276 55.8316691,206.080292 56.9123441,207.377533 C57.0498754,207.542441 57.0226742,207.783441 56.8510779,207.915808 C56.8238767,207.936605 56.7951503,207.953487 56.7651527,207.966454" id="Fill-53" fill="#804737"></path> <path d="M55.7721403,209.965397 C55.627937,210.031528 55.4528682,210.002753 55.3363202,209.880083 C53.808851,208.271491 48.2029453,205.555082 45.2887533,204.777162 C45.0823252,204.722137 44.9586165,204.506329 45.0126928,204.295317 C45.0665221,204.084304 45.2773948,203.957848 45.4840699,204.012873 C48.5516014,204.831682 54.258005,207.610183 55.8906636,209.329835 C56.0395586,209.48658 56.0358547,209.736463 55.8827621,209.888413 C55.8494274,209.921478 55.811895,209.946971 55.7721403,209.965397" id="Fill-55" fill="#804737"></path> <path d="M53.7711528,213.96207 C53.629417,214.032959 53.4569016,214.004548 53.3394918,213.876285 C51.9283401,212.33575 47.2046432,210.595787 44.3014189,209.852413 C44.0921663,209.798625 43.9618489,209.566924 44.0100043,209.334672 C44.0579114,209.102419 44.2666676,208.957606 44.4759201,209.011118 C47.2617346,209.724426 52.2795766,211.508798 53.8838463,213.260623 C54.0367521,213.427503 54.0389861,213.700854 53.8888108,213.870768 C53.8538112,213.910489 53.8138472,213.94083 53.7711528,213.96207" id="Fill-57" fill="#804737"></path> <path d="M48.7417479,213.967104 C48.6542719,214.000828 48.5533811,214.010156 48.4533287,213.987912 C45.5942891,213.356243 44.0471099,212.978102 43.2791098,212.723378 C43.0538521,212.648515 42.9423412,212.43182 43.0298172,212.239042 C43.1170137,212.046504 43.3699395,211.950593 43.5954766,212.025456 C44.3201579,212.26583 45.8855031,212.647558 48.6718789,213.263203 C48.9058003,213.314865 49.0463768,213.518884 48.98601,213.719076 C48.9513549,213.833642 48.8585689,213.922138 48.7417479,213.967104" id="Fill-59" fill="#804737"></path> <path d="M41.4987863,74.7806172 C46.2093729,69.0910958 38.8048494,66.733903 33.4638986,70.3930337 C34.4974896,64.3461383 23.4793936,66.7220432 21.7896566,74.8198862 C13.8161295,75.819005 8.84695176,82.5801214 17.695512,85.4159214 C13.1434832,89.7328734 11.4184252,98.5676027 28.0303912,95.2842945 L41.4987863,74.7806172 Z" id="Fill-61" fill="#172755"></path> <path d="M26,95.2836237 C32.1097831,105.468122 31.566525,111.831973 32.2830269,114.155992 C32.8901821,116.125527 39.8971968,120.537243 48.3853386,116.062681 C55.1450532,112.499392 56.0567217,107.080055 54.0817964,105.864418 C51.0615268,104.004995 45.3297786,97.7777442 42.8861862,89.3926794 C40.4425938,81.0076146 32.903015,97.5320717 26,95.2836237" id="Fill-63" fill="#BC7551"></path> <path d="M24.2356195,95.3484317 C26.1740162,94.0664201 27.7968599,94.6036093 28.2251103,94.4319276 C28.9053201,94.1596858 27.8242293,91.1327212 26.5121086,88.1052357 C25.6344099,86.0797043 26.6315143,83.7545766 28.7268825,82.9243041 C32.2435805,81.5310511 37.0640811,79.1970658 39.7916285,76.2487779 C40.1004732,75.9145327 40.605197,75.9272981 40.9510709,76.2258523 C44.0899641,78.9339422 51.4432064,91.7579656 50.9790001,97.0735853 C50.7954642,99.1738855 49.2254809,102.129207 47.2272473,103.182223 C40.5322119,106.709644 35.4382858,104.272754 33.5546279,102.801345 C31.6063031,101.279396 29.4132638,98.7768553 28.7639116,98.0518322 C26.4858126,99.2601171 23.0708106,96.1187849 24.2356195,95.3484317" id="Fill-65" fill="#BC7551"></path> <path d="M40.6052117,106 C38.5739367,106 36.7033304,105.503841 35.3654542,104.462756 C34.8893701,104.092137 32.8351791,101.875924 31.6039005,99.9513058 L30.5165542,100.107356 C30.2688566,100.144618 30.0415001,99.9775642 30.0049376,99.7384874 C29.9683752,99.4994105 30.1388282,99.2770891 30.384981,99.2418277 L32.0676255,99 L32.2215997,99.2530813 C33.386448,101.165196 35.567835,103.498446 35.9293396,103.779786 C38.9805007,106.1543 45.4528243,105.25376 49.2473356,101.926691 C49.4324652,101.764639 49.7172402,101.779143 49.883831,101.958451 C50.0506793,102.138009 50.0360028,102.414598 49.8513883,102.57665 C47.3175085,104.797864 43.7668325,106 40.6052117,106" id="Fill-67" fill="#804737"></path> <path d="M23.6281339,95.7734001 C21.818233,94.1938119 23.9161015,84.8496881 29.9672347,80.0425941 C36.2323738,75.0660528 39.3407978,75.8769965 41.2902346,76.3810832 C41.2902346,76.3810832 43.3156664,81.4872753 42.9575496,81.0955694 C42.7168564,80.832263 39.6290197,79.3718135 33.9855653,84.1035698 C25.6108662,91.125241 29.7237457,95.7203383 28.6125413,95.5604022 C27.1287327,95.3471541 24.414771,96.459949 23.6281339,95.7734001" id="Fill-69" fill="#E2A346"></path> <path d="M37.3588133,92.8348648 L37.2906501,92.8680241 C36.6958276,93.1547711 35.951841,92.9588047 35.6290596,92.4298856 L35.1485555,91.6424865 C34.8257741,91.1135675 35.0464637,90.4520109 35.6412862,90.1649921 L35.7094493,90.1321046 C36.3042718,89.8450858 37.0479528,90.041324 37.3707342,90.5699713 L37.8512383,91.3573703 C38.1743253,91.8862894 37.9536358,92.547846 37.3588133,92.8348648" id="Fill-71" fill="#804737"></path> <path d="M44.5725995,88.889988 L44.5271889,88.9118606 C44.1305555,89.1032459 43.6345864,88.9726412 43.419359,88.6199455 L43.0991195,88.0950031 C42.8838921,87.7423074 43.0307671,87.3014904 43.4274005,87.1101052 L43.4730476,87.0882326 C43.8694445,86.896637 44.3654136,87.027452 44.5804045,87.3801477 L44.9008805,87.9050901 C45.1161079,88.2575754 44.9692329,88.6986028 44.5725995,88.889988" id="Fill-73" fill="#804737"></path> <path d="M41.9168979,96 C41.7662837,96 41.62209,95.9195449 41.5536047,95.7817306 C41.4591699,95.5916333 41.5447765,95.3647346 41.7451496,95.2748889 C42.7020714,94.8464718 43.8154929,94.294961 44.1646075,94.0508039 C44.0273693,93.7269531 43.4974107,92.9373763 43.0236314,92.231808 C40.9693393,89.1719761 39.343348,86.5288865 40.2636195,85.1746013 C40.3837363,84.9977016 40.6325307,84.9469412 40.8181901,85.0606444 C41.0043845,85.1746013 41.0584237,85.4101291 40.9380394,85.5870288 C40.2218863,86.6415744 42.4848445,90.0120594 43.7007265,91.8226798 C44.8419701,93.5228966 45.1330327,93.9827851 44.9489784,94.3507973 C44.8903913,94.4677999 44.7349618,94.778453 42.0875762,95.9634526 C42.0324669,95.9883251 41.9741474,96 41.9168979,96 L41.9168979,96 Z" id="Fill-75" fill="#804737"></path> <path d="M31.5820511,91 C31.5820511,91 34.2161979,88.6593294 36.8512089,87.9670418 C37.3718152,87.8302525 36.4565046,86.6205962 35.1891294,87.1203301 C33.8269676,87.6577168 30.9827921,89.3389865 31.0000784,90.113014 C31.0139075,90.7190337 31.5820511,91 31.5820511,91" id="Fill-77" fill="#172755"></path> <path d="M45.9998663,83.9047472 C45.9998663,83.9047472 42.6337511,84.6085859 40.6747608,85.9558206 C40.2873988,86.2219465 39.477292,85.2262991 40.4893974,84.5603202 C41.5207785,83.8817213 44.7561887,82.6775127 45.4664844,83.0806868 C46.0228387,83.3964068 45.9998663,83.9047472 45.9998663,83.9047472" id="Fill-79" fill="#172755"></path> <path d="M42.7430882,99 C41.7464481,99 41.2026524,98.6836819 41.1600446,98.6578072 C40.9806002,98.5489179 40.9470056,98.3458015 41.0849347,98.2041376 C41.2220444,98.0637674 41.4765987,98.0363834 41.6554968,98.1424696 C41.7303336,98.1849472 43.2937121,99.0237185 46.331976,97.0727667 C46.5070503,96.9597806 46.7651552,96.9806959 46.9082738,97.1193412 C47.050846,97.2579864 47.0243527,97.4617496 46.8487321,97.5745201 C45.0867903,98.705891 43.7042219,99 42.7430882,99" id="Fill-81" fill="#804737"></path> <path d="M41.5617617,122 C39.1411582,122 36.9492014,121.502417 35.1387688,120.868968 C30.43143,119.221491 27.3329183,116.394294 27.2036016,116.274741 C26.938275,116.030029 26.9313139,115.627017 27.1883407,115.374148 C27.4450997,115.121788 27.8686585,115.114395 28.1347883,115.359108 C28.1647748,115.386638 31.1891236,118.138892 35.642113,119.686955 C41.530972,121.73413 47.0297393,120.812378 51.9852696,116.947447 C55.8928803,113.899753 57.7999657,110.840334 57.653514,107.854329 C57.453515,103.790823 53.4720091,101.191515 53.4321164,101.165769 C53.1252906,100.969234 53.0444343,100.573105 53.2508589,100.281234 C53.4572836,99.9893634 53.8736135,99.912126 54.1799038,100.108916 C54.3667837,100.228723 58.7598002,103.098745 58.9905888,107.79468 C59.1581917,111.205109 57.0864486,114.616303 52.8334581,117.933435 C48.9121929,120.99158 45.0059209,122 41.5617617,122" id="Fill-83" fill="#FFFFFF"></path> <path d="M98.3337806,94 C98.221689,94 98.1082661,93.9725357 98.004162,93.9144978 C84.5220159,86.417509 67.7908103,85.3046849 67.6233385,85.294321 C67.2564447,85.2715204 66.9779463,84.9637125 67.0013764,84.606676 C67.0248065,84.2498986 67.3336575,83.9778461 67.7082725,84.001424 C67.8784068,84.012047 84.9173985,85.1453399 98.6644642,92.7897552 C98.983699,92.967237 99.0944594,93.362879 98.9123438,93.673537 C98.7893359,93.8826288 98.5646201,94 98.3337806,94" id="Fill-85" fill="#FFFFFF"></path> <g id="Group-89" transform="translate(0.000000, 171.000000)"> <mask id="mask-6" fill="white"> <use xlink:href="#path-5"></use> </mask> <g id="Clip-88"></g> <path d="M13.8008761,2.934675 C5.45954867,2.934675 0.73839823,1.438425 0.446362832,1.342925 C0.100168142,1.229925 -0.0832831858,0.873675 0.0367168142,0.547675 C0.156982301,0.221675 0.535300885,0.048925 0.880964602,0.161925 C0.985831858,0.195925 11.5891062,3.536925 29.1037965,0.140425 C29.462469,0.071425 29.8134425,0.288425 29.8875133,0.626425 C29.9615841,0.964675 29.7303451,1.294925 29.3711416,1.364675 C23.3039735,2.541425 18.0765398,2.934675 13.8008761,2.934675" id="Fill-87" fill="#FFFFFF" mask="url(#mask-6)"></path> </g> <path d="M38.4634148,212.04529 L42.6335467,204.259269 C43.0439728,203.536254 43.1926889,202.643881 42.6383603,202.087281 L34.4574534,194.480176 C33.6431883,193.662066 32.2520465,193.923822 31.6794768,195.003443 L25.2253997,207.168979 C24.6794316,208.198112 25.1678893,209.435081 26.2317037,209.71718 L36.4475133,212.944526 C37.2159222,213.148441 38.0479217,212.777129 38.4634148,212.04529" id="Fill-90" fill="#7EC2EE"></path> <path d="M36.602362,212 C36.557832,212 36.5125068,211.992756 36.4679768,211.977234 L27.2635152,208.753738 C27.0567687,208.6813 26.9494195,208.45907 27.0233711,208.257537 C27.0975878,208.055486 27.3239488,207.950192 27.5320206,208.023148 L36.7367473,211.246385 C36.9432287,211.318823 37.0505779,211.541312 36.9766263,211.742845 C36.9183131,211.901432 36.7653737,212 36.602362,212" id="Fill-92" fill="#B4E8FF"></path> <path d="M37.5966465,209 C37.5464005,209 37.4950797,208.99147 37.4456397,208.973935 L28.2516917,205.684827 C28.0453336,205.611135 27.9459164,205.403804 28.0297493,205.221826 C28.1133136,205.040085 28.3481533,204.952413 28.5545113,205.026105 L37.7481907,208.314976 C37.9545487,208.388905 38.0539659,208.596237 37.9704017,208.777977 C37.9067209,208.91612 37.7559828,209 37.5966465,209" id="Fill-94" fill="#B4E8FF"></path> <path d="M38.6266966,207 C38.5700064,207 38.5130676,206.986817 38.4591125,206.959185 L30.205222,202.719958 C30.0212276,202.625398 29.9473812,202.39673 30.0398756,202.209131 C30.1326188,202.021532 30.3568931,201.946493 30.5408875,202.040545 L38.794778,206.280026 C38.9787724,206.374586 39.0526188,206.603254 38.9601244,206.790599 C38.8944831,206.923439 38.7632006,207 38.6266966,207" id="Fill-96" fill="#B4E8FF"></path> <path d="M39.646991,205 C39.579489,205 39.5112813,204.979285 39.4510705,204.936087 L32.1566181,199.693985 C31.9948014,199.577527 31.9512896,199.342339 32.0594811,199.168284 C32.1681428,198.99423 32.3875832,198.947748 32.5489295,199.063953 L39.8433819,204.306055 C40.0051986,204.422512 40.0487104,204.657954 39.9405189,204.831756 C39.8723113,204.94114 39.7605919,205 39.646991,205" id="Fill-98" fill="#B4E8FF"></path> <path d="M40.6360822,203 C40.557523,203 40.4782364,202.972361 40.4113156,202.915505 L33.1387687,196.705235 C32.9811654,196.570463 32.9535242,196.321979 33.0779096,196.150619 C33.2020526,195.97926 33.4304562,195.949778 33.588787,196.08455 L40.8613338,202.29482 C41.0189372,202.429591 41.0463359,202.677812 40.9221929,202.849172 C40.8504228,202.948408 40.7437374,203 40.6360822,203" id="Fill-100" fill="#B4E8FF"></path> <path d="M88.5605032,24.0002218 L81.3656404,24.1287146 C80.6976944,24.140686 80.1209702,24.6240638 79.9623457,25.3056345 L78.0428878,35.0897118 C77.8095122,36.0913174 78.5595577,37.0468997 79.5406984,36.9982161 L90.5982959,36.4491287 C91.5335723,36.4028394 92.1898622,35.4624208 91.950405,34.5121591 L90.0071282,25.1486763 C89.8338069,24.4620511 89.2370645,23.9882504 88.5605032,24.0002218" id="Fill-102" fill="#7EC2EE"></path> <path d="M89.6606887,35 C89.5012472,35 89.3591952,34.8813526 89.3282554,34.7110782 L88.005975,27.4217229 C87.971196,27.2289505 88.0917934,27.0428091 88.2753996,27.0063386 C88.459909,26.9696313 88.6365142,27.0960938 88.6715191,27.2888662 L89.9940253,34.5782215 C90.0288043,34.7709939 89.9082069,34.9568985 89.724375,34.9936058 C89.7029204,34.9978686 89.6816916,35 89.6606887,35" id="Fill-104" fill="#B4E8FF"></path> <path d="M87.6096476,35 C87.4202037,35 87.2541479,34.8748293 87.2247828,34.7000139 L86.0044419,27.4059995 C85.9722182,27.2133026 86.1187839,27.0333109 86.3316159,27.0041358 C86.5434085,26.9744901 86.7432471,27.1074251 86.7754707,27.3001221 L87.9955518,34.5941365 C88.0277755,34.7868334 87.8814697,34.9668251 87.6686377,34.9960002 C87.6486278,34.9988236 87.6291377,35 87.6096476,35" id="Fill-106" fill="#B4E8FF"></path> <path d="M84.7206287,36 C84.5763322,36 84.4537916,35.8434756 84.4428206,35.6375636 L84.0008193,27.4214682 C83.9891045,27.2056265 84.1043931,27.0174836 84.2579871,27.0010211 C84.4130687,26.9856038 84.5456505,27.1465705 84.5571794,27.3624122 L84.9991807,35.5785077 C85.0108955,35.7943494 84.8956069,35.9824923 84.7420129,35.9989548 C84.7347609,35.9997387 84.7276948,36 84.7206287,36" id="Fill-108" fill="#B4E8FF"></path> <path d="M82.3562832,36 C82.3515362,36 82.3470265,36 82.3422794,35.9997393 C82.1457518,35.9913972 81.9928969,35.8096946 82.0002549,35.5938414 L82.2881631,27.3757776 C82.2957584,27.1601851 82.4600061,26.9949062 82.6577206,27.00012 C82.8542482,27.0084622 83.0071031,27.1901647 82.9997451,27.4060179 L82.7118369,35.6240817 C82.704479,35.8347211 82.5466397,36 82.3562832,36" id="Fill-110" fill="#B4E8FF"></path> <path d="M80.2299681,36 C80.2215483,36 80.2131285,35.9992278 80.2044025,35.9976835 C80.0784119,35.9742608 79.9874783,35.7835332 80.0014092,35.5714421 L80.5419594,27.3441605 C80.5558903,27.1320694 80.6664191,26.9778915 80.7954714,27.0026012 C80.9216151,27.0260238 81.0123957,27.2167514 80.9986179,27.4288425 L80.4579146,35.6563815 C80.4449022,35.8538013 80.3455487,36 80.2299681,36" id="Fill-112" fill="#B4E8FF"></path> </g> <rect id="Rectangle" fill="#97C4DE" x="0" y="370" width="244" height="6"></rect> <g id="Group-43" transform="translate(2.000000, 344.000000)"> <path d="M72.0025438,15 L51,15 L51,11 L72.0025438,11 C73.1057148,11 74,11.8956067 74,13.0001176 C74,14.1043933 73.1057148,15 72.0025438,15" id="Fill-1" fill="#B4E8FF"></path> <g id="Group-5" transform="translate(50.000000, 10.000000)"> <mask id="mask-8" fill="white"> <use xlink:href="#path-7"></use> </mask> <g id="Clip-4"></g> <path d="M1.79073113,4.137768 L22.0466274,4.137768 C22.6970991,4.137768 23.2261085,3.599448 23.2261085,2.937528 C23.2261085,2.275608 22.6970991,1.737288 22.0466274,1.737288 L1.79073113,1.737288 L1.79073113,4.137768 Z M22.0466274,5.817768 L0.139787736,5.817768 L0.139787736,0.057288 L22.0466274,0.057288 C23.6072406,0.057288 24.8770519,1.349448 24.8770519,2.937528 C24.8770519,4.525608 23.6072406,5.817768 22.0466274,5.817768 L22.0466274,5.817768 Z" id="Fill-3" fill="#7EC2EE" mask="url(#mask-8)"></path> </g> <path d="M69,13.0001148 C69,19.6272495 64.2989937,25 58.4998853,25 C52.7010063,25 48,19.6272495 48,13.0001148 C48,6.3727505 52.7010063,1 58.4998853,1 C64.2989937,1 69,6.3727505 69,13.0001148" id="Fill-6" fill="#B4E8FF"></path> <path d="M58.5,1.63197963 C53.0597698,1.63197963 48.6340533,6.73168282 48.6340533,13.0001166 C48.6340533,19.2683172 53.0597698,24.3680204 58.5,24.3680204 C63.9402302,24.3680204 68.3659467,19.2683172 68.3659467,13.0001166 C68.3659467,6.73168282 63.9402302,1.63197963 58.5,1.63197963 M58.5,26 C52.1589396,26 47,20.1684705 47,13.0001166 C47,5.83176263 52.1589396,0 58.5,0 C64.8410604,0 70,5.83176263 70,13.0001166 C70,20.1684705 64.8410604,26 58.5,26" id="Fill-8" fill="#7EC2EE"></path> <path d="M66,13.0001148 C66,19.6272495 61.2989937,25 55.4998853,25 C49.7010063,25 45,19.6272495 45,13.0001148 C45,6.3727505 49.7010063,1 55.4998853,1 C61.2989937,1 66,6.3727505 66,13.0001148" id="Fill-10" fill="#B4E8FF"></path> <path d="M55.5,1.63197963 C50.0597698,1.63197963 45.6340533,6.73168282 45.6340533,13.0001166 C45.6340533,19.2683172 50.0597698,24.3680204 55.5,24.3680204 C60.9402302,24.3680204 65.3659467,19.2683172 65.3659467,13.0001166 C65.3659467,6.73168282 60.9402302,1.63197963 55.5,1.63197963 M55.5,26 C49.1589396,26 44,20.1684705 44,13.0001166 C44,5.83176263 49.1589396,0 55.5,0 C61.8410604,0 67,5.83176263 67,13.0001166 C67,20.1684705 61.8410604,26 55.5,26" id="Fill-12" fill="#7EC2EE"></path> <path d="M63,13.0001148 C63,19.6272495 58.2989937,25 52.4998853,25 C46.7010063,25 42,19.6272495 42,13.0001148 C42,6.3727505 46.7010063,1 52.4998853,1 C58.2989937,1 63,6.3727505 63,13.0001148" id="Fill-14" fill="#FFFFFF"></path> <path d="M52.5,1.63197963 C47.0597698,1.63197963 42.6340533,6.73168282 42.6340533,13.0001166 C42.6340533,19.2683172 47.0597698,24.3680204 52.5,24.3680204 C57.9402302,24.3680204 62.3659467,19.2683172 62.3659467,13.0001166 C62.3659467,6.73168282 57.9402302,1.63197963 52.5,1.63197963 M52.5,26 C46.1589396,26 41,20.1684705 41,13.0001166 C41,5.83176263 46.1589396,0 52.5,0 C58.8410604,0 64,5.83176263 64,13.0001166 C64,20.1684705 58.8410604,26 52.5,26" id="Fill-16" fill="#7EC2EE"></path> <path d="M51.0025438,15 L30,15 L30,11 L51.0025438,11 C52.1057148,11 53,11.8956067 53,13.0001176 C53,14.1043933 52.1057148,15 51.0025438,15" id="Fill-18" fill="#B4E8FF"></path> <path d="M30.6684622,14.2501458 L51.1393023,14.2501458 C51.7966764,14.2501458 52.3315378,13.6894425 52.3315378,13 C52.3315378,12.3105575 51.7966764,11.7498542 51.1393023,11.7498542 L30.6684622,11.7498542 L30.6684622,14.2501458 Z M51.1393023,16 L29,16 L29,10 L51.1393023,10 C52.7167142,10 54,11.3458878 54,13 C54,14.6541122 52.7167142,16 51.1393023,16 L51.1393023,16 Z" id="Fill-20" fill="#7EC2EE"></path> <path d="M32,13.0001148 C32,19.6272495 27.2990451,25 21.5,25 C15.7011843,25 11,19.6272495 11,13.0001148 C11,6.3727505 15.7011843,1 21.5,1 C27.2990451,1 32,6.3727505 32,13.0001148" id="Fill-22" fill="#B4E8FF"></path> <path d="M21.5,1.63197963 C16.0597698,1.63197963 11.6340533,6.73168282 11.6340533,13.0001166 C11.6340533,19.2683172 16.0597698,24.3680204 21.5,24.3680204 C26.9402302,24.3680204 31.3659467,19.2683172 31.3659467,13.0001166 C31.3659467,6.73168282 26.9402302,1.63197963 21.5,1.63197963 M21.5,26 C15.1589396,26 10,20.1684705 10,13.0001166 C10,5.83176263 15.1589396,0 21.5,0 C27.8410604,0 33,5.83176263 33,13.0001166 C33,20.1684705 27.8410604,26 21.5,26" id="Fill-24" fill="#7EC2EE"></path> <path d="M29,13.0001148 C29,19.6272495 24.2989937,25 18.4998853,25 C12.7010063,25 8,19.6272495 8,13.0001148 C8,6.3727505 12.7010063,1 18.4998853,1 C24.2989937,1 29,6.3727505 29,13.0001148" id="Fill-26" fill="#B4E8FF"></path> <path d="M18.5,1.63197963 C13.0597698,1.63197963 8.63405326,6.73168282 8.63405326,13.0001166 C8.63405326,19.2683172 13.0597698,24.3680204 18.5,24.3680204 C23.9402302,24.3680204 28.3659467,19.2683172 28.3659467,13.0001166 C28.3659467,6.73168282 23.9402302,1.63197963 18.5,1.63197963 M18.5,26 C12.1589396,26 7,20.1684705 7,13.0001166 C7,5.83176263 12.1589396,0 18.5,0 C24.8410604,0 30,5.83176263 30,13.0001166 C30,20.1684705 24.8410604,26 18.5,26" id="Fill-28" fill="#7EC2EE"></path> <path d="M26,13.0001148 C26,19.6272495 21.2989937,25 15.5001147,25 C9.70100626,25 5,19.6272495 5,13.0001148 C5,6.3727505 9.70100626,1 15.5001147,1 C21.2989937,1 26,6.3727505 26,13.0001148" id="Fill-30" fill="#FFFFFF"></path> <path d="M15.5,1.63197963 C10.0597698,1.63197963 5.63405326,6.73168282 5.63405326,13.0001166 C5.63405326,19.2683172 10.0597698,24.3680204 15.5,24.3680204 C20.9402302,24.3680204 25.3659467,19.2683172 25.3659467,13.0001166 C25.3659467,6.73168282 20.9402302,1.63197963 15.5,1.63197963 M15.5,26 C9.15893959,26 4,20.1684705 4,13.0001166 C4,5.83176263 9.15893959,0 15.5,0 C21.8410604,0 27,5.83176263 27,13.0001166 C27,20.1684705 21.8410604,26 15.5,26" id="Fill-32" fill="#7EC2EE"></path> <path d="M15,11.8678158 L15,14.1319489 C15,14.6112713 14.619046,15 14.1490259,15 L2.96130138,15 C2.91353792,15 2.86715891,14.9985882 2.82101065,14.9943526 C2.33576161,14.9597623 1.89827603,14.7444556 1.57385371,14.4147891 C1.21943501,14.0519442 1,13.5516795 1,13.0001177 C1,11.9435849 1.80274912,11.0790635 2.82101065,11.0054121 C2.86715891,11.0011765 2.91353792,11 2.96130138,11 L14.1490259,11 C14.619046,11 15,11.3884934 15,11.8678158" id="Fill-34" fill="#B4E8FF"></path> <path d="M2.83693644,11.75 C2.81400263,11.75 2.79154168,11.75025 2.76908073,11.7525 C2.13662761,11.79975 1.65501751,12.3475 1.65501751,13 C1.65501751,13.334 1.77796167,13.6485 2.00162546,13.88575 C2.20140972,14.09625 2.46857683,14.22475 2.7513484,14.24625 C2.78894094,14.24975 2.81258404,14.25 2.83693644,14.25 L14.3005334,14.25 C14.3251223,14.25 14.3449825,14.22875 14.3449825,14.203 L14.3449825,11.797 C14.3449825,11.77125 14.3251223,11.75 14.3005334,11.75 L2.83693644,11.75 Z M14.3005334,16 L2.83693644,16 C2.76364281,16 2.69247706,15.99725 2.62107487,15.9905 C1.95575784,15.94125 1.31526606,15.63275 0.831528084,15.12325 C0.294356686,14.553 0,13.79975 0,13 C0,11.433 1.1573301,10.119 2.63478788,10.00825 C2.68987632,10.00275 2.76246066,10 2.83693644,10 L14.3005334,10 C15.2375098,10 16,10.80625 16,11.797 L16,14.203 C16,15.1935 15.2375098,16 14.3005334,16 L14.3005334,16 Z" id="Fill-36" fill="#7EC2EE"></path> <path d="M5,13.000118 C5,13.5534124 4.75898118,14.0550345 4.36818095,14.4188639 C4.01336881,14.7491889 3.5328518,14.9650799 3.00012672,15 C2.4671482,14.9650799 1.98663119,14.7491889 1.63029842,14.4188639 C1.24101882,14.0550345 1,13.5534124 1,13.000118 C1,11.9409544 1.88170817,11.0740872 3.00012672,11 C4.11677121,11.0740872 5,11.9409544 5,13.000118" id="Fill-38" fill="#FFFFFF"></path> <g id="Group-42" transform="translate(0.000000, 10.000000)"> <mask id="mask-10" fill="white"> <use xlink:href="#path-9"></use> </mask> <g id="Clip-41"></g> <path d="M2.47621739,1.746912 C1.93686957,1.819152 1.52165217,2.331072 1.52165217,2.937552 C1.52165217,3.258192 1.63491304,3.560112 1.84034783,3.787872 C2.01165217,3.976032 2.23621739,4.096272 2.47621739,4.128432 C2.71621739,4.096272 2.94013043,3.976272 3.11208696,3.786672 C3.31752174,3.559392 3.431,3.257952 3.431,2.937552 C3.431,2.331072 3.01578261,1.819152 2.47621739,1.746912 L2.47621739,1.746912 Z M2.47621739,5.813952 L2.42273913,5.809872 C1.7983913,5.761152 1.20947826,5.464992 0.764478261,4.975872 C0.270565217,4.428432 -8.69565217e-05,3.705312 -8.69565217e-05,2.937552 C-8.69565217e-05,1.433232 1.06404348,0.171792 2.42252174,0.065472 L2.47621739,0.061392 L2.52991304,0.065472 C3.8883913,0.172032 4.95273913,1.433232 4.95273913,2.937552 C4.95273913,3.706752 4.68121739,4.430352 4.18795652,4.974432 C3.74426087,5.464272 3.15534783,5.761152 2.52969565,5.809872 L2.47621739,5.813952 Z" id="Fill-40" fill="#7EC2EE" mask="url(#mask-10)"></path> </g> </g> <g id="Group-12" transform="translate(196.000000, 313.000000)"> <path d="M24.3341015,13.4302946 C21.8043205,13.3951475 19.3655371,13.765637 17.0816432,14.482061 C16.3526945,14.7107582 15.608983,14.1787363 15.608983,13.4184987 C15.608983,9.78702788 18.5685823,6.84333382 22.2193759,6.84333382 L25.7811081,6.84333382 C29.4251253,6.84333382 32.3915011,9.79208329 32.3915011,13.4184987 L32.3915011,13.4276466 C32.3915011,14.1806622 31.6567441,14.7256837 30.9355399,14.4969865 C28.8464679,13.8337646 26.6298541,13.4618308 24.3341015,13.4302946 L24.3341015,13.4302946 Z M38.2656849,13.4184987 C38.2656849,6.55999003 32.6761105,1 25.7811081,1 L22.2174398,1 C15.3236475,1 9.7347991,6.55926783 9.7347991,13.4165728 L9.73794529,13.4644789 C9.90711366,16.1833275 8.91267474,18.8275486 7.05980923,20.8333434 C3.29720473,24.9055979 1,30.3389619 1,36.3057922 C1,36.4950091 1.00193612,36.685911 1.00580836,36.8746464 C1.28194727,48.1109009 10.6943879,57 21.9943021,57 L26.0023097,57 C37.4217792,57 46.8712481,47.9257766 46.9985479,36.5667478 C47.000484,36.3799383 47.000484,36.1909622 46.9985479,36.0022268 C46.9220712,30.0917282 44.6892424,24.7014556 40.9331723,20.6727739 C39.1538793,18.7642355 38.1821898,16.2478441 38.2589085,13.6459922 L38.2656849,13.4184987 Z" id="Fill-1" fill="#B4E8FF"></path> <g id="Group-5"> <mask id="mask-12" fill="white"> <use xlink:href="#path-11"></use> </mask> <g id="Clip-4"></g> <path d="M24.2338909,12.569615 C26.5694061,12.6019983 28.8768,12.9758567 31.0923152,13.6805567 C31.1963152,13.71294 31.2780121,13.677415 31.3281939,13.6406817 C31.3715879,13.6090233 31.4445576,13.5372483 31.4445576,13.41279 C31.4445576,10.2305233 28.8547394,7.64879833 25.6714667,7.64879833 L22.1037091,7.64879833 C18.9204364,7.64879833 16.3306182,10.2305233 16.3306182,13.4038483 C16.3306182,13.5183983 16.3909818,13.5865483 16.4418909,13.6232817 C16.4857697,13.655665 16.5769212,13.703515 16.7020121,13.6646067 C19.1267394,12.90239 21.6632242,12.5386817 24.2338909,12.569615 M31.1766788,15.3859983 C30.9764364,15.3859983 30.774497,15.3548233 30.5764364,15.29199 C28.5204364,14.63804 26.3786182,14.2910067 24.2101333,14.2612817 C21.8222545,14.2272067 19.4639515,14.56989 17.2123152,15.2779733 C16.6096485,15.46744 15.9463758,15.3591733 15.4387394,14.9879733 C14.9269818,14.614115 14.6336485,14.0367733 14.6336485,13.4038483 C14.6336485,9.29769 17.9849212,5.95713167 22.1037091,5.95713167 L25.6714667,5.95713167 C29.790497,5.95713167 33.1415273,9.29769 33.1415273,13.4038483 C33.1415273,14.0403983 32.8377697,14.6363483 32.3291636,15.0065817 C31.9856485,15.2567067 31.5849212,15.3859983 31.1766788,15.3859983 M10.4467394,13.377265 L10.4481939,13.400465 C10.6280727,16.2980483 9.56940606,19.2217317 7.54298182,21.4194483 C3.77328485,25.5091733 1.69692121,30.8219733 1.69692121,36.3798233 C1.69692121,36.56349 1.69886061,36.74909 1.70273939,36.9327567 C1.83049697,42.145265 4.00043636,47.0254817 7.8128,50.6722317 C11.6125576,54.3066567 16.6079515,56.3083817 21.8782545,56.3083817 L25.8930424,56.3083817 C36.9008,56.3083817 45.955103,47.4817483 46.0765576,36.632365 C46.0778303,36.451115 46.0778303,36.2674483 46.0765576,36.0832983 C46.0043152,30.503215 43.9269818,25.2385067 40.227103,21.2611567 C38.2707394,19.158415 37.2389818,16.4399067 37.3223758,13.6073317 L37.3289212,13.3915233 C37.3216485,6.98977333 32.0952242,1.783065 25.6717091,1.783065 L22.1017697,1.783065 C15.6833455,1.783065 10.4603152,6.98204 10.4467394,13.377265 M25.8930424,58.0000483 L21.8782545,58.0000483 C16.1679515,58.0000483 10.7553455,55.8313317 6.63801212,51.89289 C2.50031515,47.935115 0.145163636,42.6358483 0.00625454545,36.971665 C0.00189090909,36.773015 -4.84848485e-05,36.5753317 -4.84848485e-05,36.3798233 C-4.84848485e-05,30.3971233 2.23510303,24.6775983 6.29352727,20.274915 C8.00916364,18.4143233 8.90589091,15.9454567 8.75413333,13.501965 L8.7497697,13.4016733 C8.7497697,6.06249833 14.7393455,0.0913983333 22.1017697,0.0913983333 L25.6717091,0.0913983333 C33.035103,0.0913983333 39.0258909,6.06322333 39.0258909,13.4038483 L39.0183758,13.6575983 C38.9483152,16.04309 39.8195879,18.3352983 41.4712242,20.111065 C45.4576485,24.395815 47.6957091,30.0614483 47.7735273,36.063965 C47.7748,36.2616483 47.7748,36.456915 47.7735273,36.65049 C47.6416485,48.42304 37.8261333,58.0000483 25.8930424,58.0000483" id="Fill-3" fill="#7EC2EE" mask="url(#mask-12)"></path> </g> <path d="M33.3091873,42 L13.6908127,42 C12.7571059,42 12,41.2691608 12,40.3680841 L12,30.6321523 C12,29.7306027 12.7571059,29 13.6908127,29 L33.3091873,29 C34.2431391,29 35,29.7306027 35,30.6321523 L35,40.3680841 C35,41.2691608 34.2431391,42 33.3091873,42" id="Fill-6" fill="#7EC2EE"></path> <path d="M20.4908571,39.1360918 L20.4908571,34.2827075 C19.5516855,34.9760823 18.9190198,35.3228893 18.5936062,35.3228893 C18.438363,35.3228893 18.3002861,35.2633341 18.1803707,35.1442239 C18.0599577,35.0251136 18,34.8871083 18,34.7306864 C18,34.5493901 18.0592113,34.4161684 18.1773852,34.3305429 C18.2958079,34.2453958 18.5050379,34.1351351 18.8045777,34 C19.251897,33.7974169 19.6096529,33.5840708 19.8778455,33.3599617 C20.1460381,33.1360918 20.3836298,32.8851949 20.5908695,32.6079885 C20.7978604,32.3305429 20.9327031,32.1600096 20.9956462,32.0959101 C21.0585894,32.0320497 21.1770121,32 21.3509143,32 C21.5469586,32 21.7039433,32.0729491 21.8226148,32.218608 C21.9407887,32.3645061 22,32.5651758 22,32.8213346 L22,38.9282468 C22,39.6429084 21.7467347,40 21.2399552,40 C21.0143053,40 20.8329394,39.9275293 20.6961065,39.7816312 C20.5592735,39.6359723 20.4908571,39.4207127 20.4908571,39.1360918" id="Fill-8" fill="#B4E8FF"></path> <path d="M28.8871958,33.2710734 L26.1203361,33.2710734 L25.7883234,35.0238933 C26.3397623,34.7497878 26.8483608,34.6124924 27.3143803,34.6124924 C27.6871435,34.6124924 28.0358744,34.6775015 28.3600505,34.8075197 C28.6844878,34.9372953 28.9686969,35.1165555 29.2134616,35.3457853 C29.4582263,35.57453 29.6504854,35.8459673 29.790239,36.1596119 C29.9299926,36.4734991 30,36.8106731 30,37.171134 C30,37.6941176 29.8735687,38.1700424 29.6214898,38.5993936 C29.3688885,39.0282596 29.0047455,39.3693147 28.5290609,39.6215888 C28.0533763,39.8741055 27.5048108,40 26.8833645,40 C26.1882537,40 25.6242762,39.8813827 25.1914319,39.6434203 C24.7580652,39.4052153 24.4516522,39.1318375 24.2708868,38.823772 C24.0903827,38.5154639 24,38.2459673 24,38.015282 C24,37.8745907 24.0629544,37.7411765 24.1893857,37.6147968 C24.3155557,37.4886598 24.4735948,37.4255913 24.6640254,37.4255913 C24.9902913,37.4255913 25.2329662,37.6004851 25.3920502,37.9500303 C25.547477,38.2711947 25.757238,38.5210431 26.0213331,38.6993329 C26.2854282,38.8778654 26.5806086,38.966889 26.9068745,38.966889 C27.205712,38.966889 27.4677174,38.8950879 27.6931516,38.750758 C27.9183247,38.6064281 28.0920371,38.4082474 28.21455,38.1557307 C28.3368018,37.9034566 28.3979276,37.6167374 28.3979276,37.2955731 C28.3979276,36.9494239 28.3318386,36.653487 28.1999216,36.4087326 C28.0677435,36.163493 27.8911576,35.9803517 27.6699029,35.8595512 C27.448387,35.7387508 27.2017937,35.6783505 26.9301232,35.6783505 C26.5960207,35.6783505 26.3570029,35.7161916 26.2135922,35.7918739 C26.0699203,35.8675561 25.8630328,36.0002426 25.5931908,36.1894482 C25.3230876,36.3788963 25.1010492,36.4734991 24.926292,36.4734991 C24.7358614,36.4734991 24.566851,36.4094603 24.4192607,36.2813827 C24.2716705,36.153305 24.198006,36.0082474 24.198006,35.8459673 C24.198006,35.8277744 24.2194262,35.7052759 24.2622665,35.4782292 L24.7515347,32.8870831 C24.8058688,32.577077 24.9067003,32.3517283 25.0542906,32.211037 C25.2018808,32.0703457 25.4424659,32 25.7768296,32 L28.8521921,32 C29.4582263,32 29.7612434,32.2146756 29.7612434,32.6437841 C29.7612434,32.8312917 29.6873177,32.9828987 29.5397275,33.0978775 C29.3921372,33.213584 29.1748008,33.2710734 28.8871958,33.2710734" id="Fill-10" fill="#B4E8FF"></path> </g> </g> </g> </g> </g> </svg> 