<?xml version="1.0" encoding="UTF-8"?> <svg xmlns="http://www.w3.org/2000/svg" xmlns:xlink="http://www.w3.org/1999/xlink" width="382px" height="366px" viewBox="0 0 382 366"> <!-- Generator: Sketch 57.1 (83088) - https://sketch.com --> <title>Group 28</title> <desc>Created with Sketch.</desc> <defs> <polygon id="path-1" points="0 0.0925043479 381.033 0.0925043479 381.033 150.496625 0 150.496625"></polygon> <polygon id="path-3" points="0 150.6575 381.033 150.6575 381.033 0.25 0 0.25"></polygon> <polygon id="path-5" points="0.258744889 0.178340681 19.1577003 0.178340681 19.1577003 15.2701993 0.258744889 15.2701993"></polygon> <polygon id="path-7" points="0 0.0482600143 29.5506316 0.0482600143 29.5506316 31.1999805 0 31.1999805"></polygon> </defs> <g id="Page-1" stroke="none" stroke-width="1" fill="none" fill-rule="evenodd"> <g id="artem" transform="translate(-676.000000, -3002.000000)"> <g id="Group-11-Copy-2" transform="translate(190.000000, 3002.000000)"> <g id="Group-28" transform="translate(486.000000, 0.000000)"> <g id="Group-177" transform="translate(0.000000, 183.000000)"> <g id="Group-3" transform="translate(0.000000, 0.157500)"> <mask id="mask-2" fill="white"> <use xlink:href="#path-1"></use> </mask> <g id="Clip-2"></g> <path d="M22.69695,150.117125 C22.69695,150.117125 -29.9093,101.664125 25.05595,75.202875 C59.8952,58.430625 51.5607,54.252625 62.80345,31.085625 C76.58495,2.687125 145.07545,-18.611875 173.7002,24.927375 C194.7747,56.981375 206.73995,56.291625 222.11845,50.675625 C239.75445,44.235375 255.05595,30.350125 275.9957,39.944625 C306.07245,53.725625 310.4212,83.060375 329.62595,76.666625 C381.03695,59.550375 401.2902,134.636875 355.59645,150.496625 L22.69695,150.117125 Z" id="Fill-1" fill="#EAF1F8" mask="url(#mask-2)"></path> </g> <mask id="mask-4" fill="white"> <use xlink:href="#path-3"></use> </mask> <g id="Clip-5"></g> <polygon id="Fill-4" fill="#C4D9ED" mask="url(#mask-4)" points="242.93775 134.2125 266.64575 134.2125 266.64575 18.923 242.93775 18.923"></polygon> <polygon id="Fill-6" fill="#D5E7F7" mask="url(#mask-4)" points="248.2625 134.2125 271.9705 134.2125 271.9705 18.923 248.2625 18.923"></polygon> <polygon id="Fill-7" fill="#C4D9ED" mask="url(#mask-4)" points="248.2685 25.5545 271.97025 25.5545 271.97025 18.8925 248.2685 18.8925"></polygon> <polygon id="Fill-8" fill="#C4D9ED" mask="url(#mask-4)" points="248.2685 40.0035 271.97025 40.0035 271.97025 33.3415 248.2685 33.3415"></polygon> <polygon id="Fill-9" fill="#C4D9ED" mask="url(#mask-4)" points="248.2685 54.4525 271.97025 54.4525 271.97025 47.7905 248.2685 47.7905"></polygon> <polygon id="Fill-10" fill="#C4D9ED" mask="url(#mask-4)" points="248.2685 68.90175 271.97025 68.90175 271.97025 62.23975 248.2685 62.23975"></polygon> <polygon id="Fill-11" fill="#C4D9ED" mask="url(#mask-4)" points="248.2685 83.35075 271.97025 83.35075 271.97025 76.68875 248.2685 76.68875"></polygon> <polygon id="Fill-12" fill="#C4D9ED" mask="url(#mask-4)" points="248.2685 97.8 271.97025 97.8 271.97025 91.138 248.2685 91.138"></polygon> <polygon id="Fill-13" fill="#C4D9ED" mask="url(#mask-4)" points="248.2685 112.24875 271.97025 112.24875 271.97025 105.58675 248.2685 105.58675"></polygon> <polygon id="Fill-14" fill="#C4D9ED" mask="url(#mask-4)" points="248.2685 126.698 271.97025 126.698 271.97025 120.036 248.2685 120.036"></polygon> <polygon id="Fill-15" fill="#C4D9ED" mask="url(#mask-4)" points="280.83725 134.2125 304.54525 134.2125 304.54525 35.2365 280.83725 35.2365"></polygon> <polygon id="Fill-16" fill="#D5E7F7" mask="url(#mask-4)" points="286.16175 134.2125 309.86975 134.2125 309.86975 35.2365 286.16175 35.2365"></polygon> <polygon id="Fill-17" fill="#C4D9ED" mask="url(#mask-4)" points="286.168 40.92975 309.86975 40.92975 309.86975 35.2105 286.168 35.2105"></polygon> <polygon id="Fill-18" fill="#C4D9ED" mask="url(#mask-4)" points="286.168 53.33425 309.86975 53.33425 309.86975 47.615 286.168 47.615"></polygon> <polygon id="Fill-19" fill="#C4D9ED" mask="url(#mask-4)" points="286.168 65.73875 309.86975 65.73875 309.86975 60.0195 286.168 60.0195"></polygon> <polygon id="Fill-20" fill="#C4D9ED" mask="url(#mask-4)" points="286.168 78.14325 309.86975 78.14325 309.86975 72.424 286.168 72.424"></polygon> <polygon id="Fill-21" fill="#C4D9ED" mask="url(#mask-4)" points="286.168 90.54775 309.86975 90.54775 309.86975 84.8285 286.168 84.8285"></polygon> <polygon id="Fill-22" fill="#C4D9ED" mask="url(#mask-4)" points="286.168 102.95225 309.86975 102.95225 309.86975 97.233 286.168 97.233"></polygon> <polygon id="Fill-23" fill="#C4D9ED" mask="url(#mask-4)" points="286.168 115.35675 309.86975 115.35675 309.86975 109.6375 286.168 109.6375"></polygon> <polygon id="Fill-24" fill="#C4D9ED" mask="url(#mask-4)" points="286.168 127.76125 309.86975 127.76125 309.86975 122.042 286.168 122.042"></polygon> <polygon id="Fill-25" fill="#DCEAF9" mask="url(#mask-4)" points="230.1065 145.15325 240.03425 145.15325 240.03425 130.67625 230.1065 130.67625"></polygon> <polygon id="Fill-26" fill="#C4D9ED" mask="url(#mask-4)" points="133.02475 150.62175 192.01775 150.62175 192.01775 119.035 133.02475 119.035"></polygon> <polygon id="Fill-27" fill="#C4D9ED" mask="url(#mask-4)" points="177.75775 150.62175 236.75075 150.62175 236.75075 134.94775 177.75775 134.94775"></polygon> <polygon id="Fill-28" fill="#C4D9ED" mask="url(#mask-4)" points="69.3025 150.6575 128.2955 150.6575 128.2955 123.99425 69.3025 123.99425"></polygon> <polygon id="Fill-29" fill="#D5E7F7" mask="url(#mask-4)" points="177.08575 128.65625 188.077 128.65625 188.077 122.762 177.08575 122.762"></polygon> <polygon id="Fill-30" fill="#D5E7F7" mask="url(#mask-4)" points="162.97675 128.65625 173.968 128.65625 173.968 122.762 162.97675 122.762"></polygon> <polygon id="Fill-31" fill="#D5E7F7" mask="url(#mask-4)" points="149.13675 128.65625 160.128 128.65625 160.128 122.762 149.13675 122.762"></polygon> <polygon id="Fill-32" fill="#D5E7F7" mask="url(#mask-4)" points="135.5625 128.65625 146.55375 128.65625 146.55375 122.762 135.5625 122.762"></polygon> <polygon id="Fill-33" fill="#ADC9E0" mask="url(#mask-4)" points="127.9755 150.62175 133.63775 150.62175 133.63775 119.035 127.9755 119.035"></polygon> <polygon id="Fill-34" fill="#ADC9E0" mask="url(#mask-4)" points="57.7365 150.6025 63.39875 150.6025 63.39875 112.827 57.7365 112.827"></polygon> <polygon id="Fill-35" fill="#ADC9E0" mask="url(#mask-4)" points="63.224 150.6025 69.3025 150.6025 69.3025 123.99425 63.224 123.99425"></polygon> <polygon id="Fill-36" fill="#D5E7F7" mask="url(#mask-4)" points="63.224 150.6025 95.6925 150.6025 95.6925 112.734 63.224 112.734"></polygon> <polygon id="Fill-37" fill="#D5E7F7" mask="url(#mask-4)" points="55.187 150.6025 95.6925 150.6025 95.6925 123.36175 55.187 123.36175"></polygon> <polygon id="Fill-38" fill="#C4D9ED" mask="url(#mask-4)" points="55.187 128.65625 95.6925 128.65625 95.6925 119.8025 55.187 119.8025"></polygon> <polygon id="Fill-39" fill="#ADC9E0" mask="url(#mask-4)" points="90.85425 134.2125 92.9345 134.2125 92.9345 131.28025 90.85425 131.28025"></polygon> <polygon id="Fill-40" fill="#ADC9E0" mask="url(#mask-4)" points="86.964 134.2125 89.04425 134.2125 89.04425 131.28025 86.964 131.28025"></polygon> <polygon id="Fill-41" fill="#ADC9E0" mask="url(#mask-4)" points="83.161 134.2125 85.24125 134.2125 85.24125 131.28025 83.161 131.28025"></polygon> <polygon id="Fill-42" fill="#ADC9E0" mask="url(#mask-4)" points="79.555 134.2125 81.63525 134.2125 81.63525 131.28025 79.555 131.28025"></polygon> <polygon id="Fill-43" fill="#ADC9E0" mask="url(#mask-4)" points="75.88 134.2125 77.96025 134.2125 77.96025 131.28025 75.88 131.28025"></polygon> <polygon id="Fill-44" fill="#ADC9E0" mask="url(#mask-4)" points="72.163 134.2125 74.24325 134.2125 74.24325 131.28025 72.163 131.28025"></polygon> <polygon id="Fill-45" fill="#ADC9E0" mask="url(#mask-4)" points="68.27275 134.2125 70.353 134.2125 70.353 131.28025 68.27275 131.28025"></polygon> <polygon id="Fill-46" fill="#ADC9E0" mask="url(#mask-4)" points="64.4695 134.2125 66.54975 134.2125 66.54975 131.28025 64.4695 131.28025"></polygon> <polygon id="Fill-47" fill="#ADC9E0" mask="url(#mask-4)" points="60.86375 134.2125 62.944 134.2125 62.944 131.28025 60.86375 131.28025"></polygon> <polygon id="Fill-48" fill="#ADC9E0" mask="url(#mask-4)" points="57.1885 134.2125 59.26875 134.2125 59.26875 131.28025 57.1885 131.28025"></polygon> <polygon id="Fill-49" fill="#ADC9E0" mask="url(#mask-4)" points="90.85425 139.38675 92.9345 139.38675 92.9345 136.4545 90.85425 136.4545"></polygon> <polygon id="Fill-50" fill="#ADC9E0" mask="url(#mask-4)" points="86.964 139.38675 89.04425 139.38675 89.04425 136.4545 86.964 136.4545"></polygon> <polygon id="Fill-51" fill="#ADC9E0" mask="url(#mask-4)" points="83.161 139.38675 85.24125 139.38675 85.24125 136.4545 83.161 136.4545"></polygon> <polygon id="Fill-52" fill="#ADC9E0" mask="url(#mask-4)" points="79.555 139.38675 81.63525 139.38675 81.63525 136.4545 79.555 136.4545"></polygon> <polygon id="Fill-53" fill="#ADC9E0" mask="url(#mask-4)" points="75.88 139.38675 77.96025 139.38675 77.96025 136.4545 75.88 136.4545"></polygon> <polygon id="Fill-54" fill="#ADC9E0" mask="url(#mask-4)" points="72.163 139.38675 74.24325 139.38675 74.24325 136.4545 72.163 136.4545"></polygon> <polygon id="Fill-55" fill="#ADC9E0" mask="url(#mask-4)" points="68.27275 139.38675 70.353 139.38675 70.353 136.4545 68.27275 136.4545"></polygon> <polygon id="Fill-56" fill="#ADC9E0" mask="url(#mask-4)" points="64.4695 139.38675 66.54975 139.38675 66.54975 136.4545 64.4695 136.4545"></polygon> <polygon id="Fill-57" fill="#ADC9E0" mask="url(#mask-4)" points="60.86375 139.38675 62.944 139.38675 62.944 136.4545 60.86375 136.4545"></polygon> <polygon id="Fill-58" fill="#ADC9E0" mask="url(#mask-4)" points="57.1885 139.38675 59.26875 139.38675 59.26875 136.4545 57.1885 136.4545"></polygon> <polygon id="Fill-59" fill="#ADC9E0" mask="url(#mask-4)" points="90.85425 144.48175 92.9345 144.48175 92.9345 141.5495 90.85425 141.5495"></polygon> <polygon id="Fill-60" fill="#ADC9E0" mask="url(#mask-4)" points="86.964 144.48175 89.04425 144.48175 89.04425 141.5495 86.964 141.5495"></polygon> <polygon id="Fill-61" fill="#ADC9E0" mask="url(#mask-4)" points="83.161 144.48175 85.24125 144.48175 85.24125 141.5495 83.161 141.5495"></polygon> <polygon id="Fill-62" fill="#ADC9E0" mask="url(#mask-4)" points="79.555 144.48175 81.63525 144.48175 81.63525 141.5495 79.555 141.5495"></polygon> <polygon id="Fill-63" fill="#ADC9E0" mask="url(#mask-4)" points="75.88 144.48175 77.96025 144.48175 77.96025 141.5495 75.88 141.5495"></polygon> <polygon id="Fill-64" fill="#ADC9E0" mask="url(#mask-4)" points="72.163 144.48175 74.24325 144.48175 74.24325 141.5495 72.163 141.5495"></polygon> <polygon id="Fill-65" fill="#ADC9E0" mask="url(#mask-4)" points="68.27275 144.48175 70.353 144.48175 70.353 141.5495 68.27275 141.5495"></polygon> <polygon id="Fill-66" fill="#ADC9E0" mask="url(#mask-4)" points="64.4695 144.48175 66.54975 144.48175 66.54975 141.5495 64.4695 141.5495"></polygon> <polygon id="Fill-67" fill="#ADC9E0" mask="url(#mask-4)" points="60.86375 144.48175 62.944 144.48175 62.944 141.5495 60.86375 141.5495"></polygon> <polygon id="Fill-68" fill="#ADC9E0" mask="url(#mask-4)" points="57.1885 144.48175 59.26875 144.48175 59.26875 141.5495 57.1885 141.5495"></polygon> <polygon id="Fill-69" fill="#ADC9E0" mask="url(#mask-4)" points="90.8545 125.3145 92.6025 125.3145 92.6025 122.29 90.8545 122.29"></polygon> <polygon id="Fill-70" fill="#ADC9E0" mask="url(#mask-4)" points="73.49925 125.3145 75.24725 125.3145 75.24725 122.29 73.49925 122.29"></polygon> <polygon id="Fill-71" fill="#ADC9E0" mask="url(#mask-4)" points="59.69375 125.3145 61.44175 125.3145 61.44175 122.29 59.69375 122.29"></polygon> <polygon id="Fill-72" fill="#D5E7F7" mask="url(#mask-4)" points="225.5835 150.6025 266.089 150.6025 266.089 123.36175 225.5835 123.36175"></polygon> <polygon id="Fill-73" fill="#C4D9ED" mask="url(#mask-4)" points="225.5835 128.65625 266.089 128.65625 266.089 119.8025 225.5835 119.8025"></polygon> <polygon id="Fill-74" fill="#ADC9E0" mask="url(#mask-4)" points="261.25075 134.2125 263.331 134.2125 263.331 131.28025 261.25075 131.28025"></polygon> <polygon id="Fill-75" fill="#ADC9E0" mask="url(#mask-4)" points="257.3605 134.2125 259.44075 134.2125 259.44075 131.28025 257.3605 131.28025"></polygon> <polygon id="Fill-76" fill="#ADC9E0" mask="url(#mask-4)" points="253.5575 134.2125 255.63775 134.2125 255.63775 131.28025 253.5575 131.28025"></polygon> <polygon id="Fill-77" fill="#ADC9E0" mask="url(#mask-4)" points="249.95175 134.2125 252.032 134.2125 252.032 131.28025 249.95175 131.28025"></polygon> <polygon id="Fill-78" fill="#ADC9E0" mask="url(#mask-4)" points="246.2765 134.2125 248.35675 134.2125 248.35675 131.28025 246.2765 131.28025"></polygon> <polygon id="Fill-79" fill="#ADC9E0" mask="url(#mask-4)" points="242.5595 134.2125 244.63975 134.2125 244.63975 131.28025 242.5595 131.28025"></polygon> <polygon id="Fill-80" fill="#ADC9E0" mask="url(#mask-4)" points="238.669 134.2125 240.7495 134.2125 240.7495 131.28025 238.669 131.28025"></polygon> <polygon id="Fill-81" fill="#ADC9E0" mask="url(#mask-4)" points="234.866 134.2125 236.94625 134.2125 236.94625 131.28025 234.866 131.28025"></polygon> <polygon id="Fill-82" fill="#ADC9E0" mask="url(#mask-4)" points="231.26025 134.2125 233.3405 134.2125 233.3405 131.28025 231.26025 131.28025"></polygon> <polygon id="Fill-83" fill="#ADC9E0" mask="url(#mask-4)" points="227.585 134.2125 229.6655 134.2125 229.6655 131.28025 227.585 131.28025"></polygon> <polygon id="Fill-84" fill="#ADC9E0" mask="url(#mask-4)" points="261.25075 139.38675 263.331 139.38675 263.331 136.4545 261.25075 136.4545"></polygon> <polygon id="Fill-85" fill="#ADC9E0" mask="url(#mask-4)" points="257.3605 139.38675 259.44075 139.38675 259.44075 136.4545 257.3605 136.4545"></polygon> <polygon id="Fill-86" fill="#ADC9E0" mask="url(#mask-4)" points="253.5575 139.38675 255.63775 139.38675 255.63775 136.4545 253.5575 136.4545"></polygon> <polygon id="Fill-87" fill="#ADC9E0" mask="url(#mask-4)" points="249.95175 139.38675 252.032 139.38675 252.032 136.4545 249.95175 136.4545"></polygon> <polygon id="Fill-88" fill="#ADC9E0" mask="url(#mask-4)" points="246.2765 139.38675 248.35675 139.38675 248.35675 136.4545 246.2765 136.4545"></polygon> <polygon id="Fill-89" fill="#ADC9E0" mask="url(#mask-4)" points="242.5595 139.38675 244.63975 139.38675 244.63975 136.4545 242.5595 136.4545"></polygon> <polygon id="Fill-90" fill="#ADC9E0" mask="url(#mask-4)" points="238.669 139.38675 240.7495 139.38675 240.7495 136.4545 238.669 136.4545"></polygon> <polygon id="Fill-91" fill="#ADC9E0" mask="url(#mask-4)" points="234.866 139.38675 236.94625 139.38675 236.94625 136.4545 234.866 136.4545"></polygon> <polygon id="Fill-92" fill="#ADC9E0" mask="url(#mask-4)" points="231.26025 139.38675 233.3405 139.38675 233.3405 136.4545 231.26025 136.4545"></polygon> <polygon id="Fill-93" fill="#ADC9E0" mask="url(#mask-4)" points="227.585 139.38675 229.6655 139.38675 229.6655 136.4545 227.585 136.4545"></polygon> <polygon id="Fill-94" fill="#ADC9E0" mask="url(#mask-4)" points="261.25075 144.48175 263.331 144.48175 263.331 141.5495 261.25075 141.5495"></polygon> <polygon id="Fill-95" fill="#ADC9E0" mask="url(#mask-4)" points="257.3605 144.48175 259.44075 144.48175 259.44075 141.5495 257.3605 141.5495"></polygon> <polygon id="Fill-96" fill="#ADC9E0" mask="url(#mask-4)" points="253.5575 144.48175 255.63775 144.48175 255.63775 141.5495 253.5575 141.5495"></polygon> <polygon id="Fill-97" fill="#ADC9E0" mask="url(#mask-4)" points="249.95175 144.48175 252.032 144.48175 252.032 141.5495 249.95175 141.5495"></polygon> <polygon id="Fill-98" fill="#ADC9E0" mask="url(#mask-4)" points="246.2765 144.48175 248.35675 144.48175 248.35675 141.5495 246.2765 141.5495"></polygon> <polygon id="Fill-99" fill="#ADC9E0" mask="url(#mask-4)" points="242.5595 144.48175 244.63975 144.48175 244.63975 141.5495 242.5595 141.5495"></polygon> <polygon id="Fill-100" fill="#ADC9E0" mask="url(#mask-4)" points="238.669 144.48175 240.7495 144.48175 240.7495 141.5495 238.669 141.5495"></polygon> <polygon id="Fill-101" fill="#ADC9E0" mask="url(#mask-4)" points="234.866 144.48175 236.94625 144.48175 236.94625 141.5495 234.866 141.5495"></polygon> <polygon id="Fill-102" fill="#ADC9E0" mask="url(#mask-4)" points="231.26025 144.48175 233.3405 144.48175 233.3405 141.5495 231.26025 141.5495"></polygon> <polygon id="Fill-103" fill="#ADC9E0" mask="url(#mask-4)" points="227.585 144.48175 229.6655 144.48175 229.6655 141.5495 227.585 141.5495"></polygon> <polygon id="Fill-104" fill="#ADC9E0" mask="url(#mask-4)" points="261.2505 125.3145 262.99875 125.3145 262.99875 122.29 261.2505 122.29"></polygon> <polygon id="Fill-105" fill="#ADC9E0" mask="url(#mask-4)" points="243.89575 125.3145 245.64375 125.3145 245.64375 122.29 243.89575 122.29"></polygon> <polygon id="Fill-106" fill="#ADC9E0" mask="url(#mask-4)" points="230.09025 125.3145 231.83825 125.3145 231.83825 122.29 230.09025 122.29"></polygon> <polygon id="Fill-107" fill="#D5E7F7" mask="url(#mask-4)" points="268.63275 150.6025 309.13825 150.6025 309.13825 123.36175 268.63275 123.36175"></polygon> <polygon id="Fill-108" fill="#C4D9ED" mask="url(#mask-4)" points="268.63275 128.65625 309.13825 128.65625 309.13825 119.8025 268.63275 119.8025"></polygon> <polygon id="Fill-109" fill="#C4D9ED" mask="url(#mask-4)" points="304.30025 134.2125 306.3805 134.2125 306.3805 131.28025 304.30025 131.28025"></polygon> <polygon id="Fill-110" fill="#C4D9ED" mask="url(#mask-4)" points="300.41 134.2125 302.49025 134.2125 302.49025 131.28025 300.41 131.28025"></polygon> <polygon id="Fill-111" fill="#C4D9ED" mask="url(#mask-4)" points="296.607 134.2125 298.68725 134.2125 298.68725 131.28025 296.607 131.28025"></polygon> <polygon id="Fill-112" fill="#C4D9ED" mask="url(#mask-4)" points="293.001 134.2125 295.08125 134.2125 295.08125 131.28025 293.001 131.28025"></polygon> <polygon id="Fill-113" fill="#C4D9ED" mask="url(#mask-4)" points="289.32575 134.2125 291.406 134.2125 291.406 131.28025 289.32575 131.28025"></polygon> <polygon id="Fill-114" fill="#C4D9ED" mask="url(#mask-4)" points="285.60875 134.2125 287.689 134.2125 287.689 131.28025 285.60875 131.28025"></polygon> <polygon id="Fill-115" fill="#C4D9ED" mask="url(#mask-4)" points="281.7185 134.2125 283.79875 134.2125 283.79875 131.28025 281.7185 131.28025"></polygon> <polygon id="Fill-116" fill="#C4D9ED" mask="url(#mask-4)" points="277.9155 134.2125 279.99575 134.2125 279.99575 131.28025 277.9155 131.28025"></polygon> <polygon id="Fill-117" fill="#C4D9ED" mask="url(#mask-4)" points="274.3095 134.2125 276.39 134.2125 276.39 131.28025 274.3095 131.28025"></polygon> <polygon id="Fill-118" fill="#C4D9ED" mask="url(#mask-4)" points="270.6345 134.2125 272.71475 134.2125 272.71475 131.28025 270.6345 131.28025"></polygon> <polygon id="Fill-119" fill="#C4D9ED" mask="url(#mask-4)" points="304.30025 139.38675 306.3805 139.38675 306.3805 136.4545 304.30025 136.4545"></polygon> <polygon id="Fill-120" fill="#C4D9ED" mask="url(#mask-4)" points="300.41 139.38675 302.49025 139.38675 302.49025 136.4545 300.41 136.4545"></polygon> <polygon id="Fill-121" fill="#C4D9ED" mask="url(#mask-4)" points="296.607 139.38675 298.68725 139.38675 298.68725 136.4545 296.607 136.4545"></polygon> <polygon id="Fill-122" fill="#C4D9ED" mask="url(#mask-4)" points="293.001 139.38675 295.08125 139.38675 295.08125 136.4545 293.001 136.4545"></polygon> <polygon id="Fill-123" fill="#C4D9ED" mask="url(#mask-4)" points="289.32575 139.38675 291.406 139.38675 291.406 136.4545 289.32575 136.4545"></polygon> <polygon id="Fill-124" fill="#C4D9ED" mask="url(#mask-4)" points="285.60875 139.38675 287.689 139.38675 287.689 136.4545 285.60875 136.4545"></polygon> <polygon id="Fill-125" fill="#C4D9ED" mask="url(#mask-4)" points="281.7185 139.38675 283.79875 139.38675 283.79875 136.4545 281.7185 136.4545"></polygon> <polygon id="Fill-126" fill="#C4D9ED" mask="url(#mask-4)" points="277.9155 139.38675 279.99575 139.38675 279.99575 136.4545 277.9155 136.4545"></polygon> <polygon id="Fill-127" fill="#C4D9ED" mask="url(#mask-4)" points="274.3095 139.38675 276.39 139.38675 276.39 136.4545 274.3095 136.4545"></polygon> <polygon id="Fill-128" fill="#C4D9ED" mask="url(#mask-4)" points="270.6345 139.38675 272.71475 139.38675 272.71475 136.4545 270.6345 136.4545"></polygon> <polygon id="Fill-129" fill="#C4D9ED" mask="url(#mask-4)" points="304.30025 144.48175 306.3805 144.48175 306.3805 141.5495 304.30025 141.5495"></polygon> <polygon id="Fill-130" fill="#C4D9ED" mask="url(#mask-4)" points="300.41 144.48175 302.49025 144.48175 302.49025 141.5495 300.41 141.5495"></polygon> <polygon id="Fill-131" fill="#C4D9ED" mask="url(#mask-4)" points="296.607 144.48175 298.68725 144.48175 298.68725 141.5495 296.607 141.5495"></polygon> <polygon id="Fill-132" fill="#C4D9ED" mask="url(#mask-4)" points="293.001 144.48175 295.08125 144.48175 295.08125 141.5495 293.001 141.5495"></polygon> <polygon id="Fill-133" fill="#C4D9ED" mask="url(#mask-4)" points="289.32575 144.48175 291.406 144.48175 291.406 141.5495 289.32575 141.5495"></polygon> <polygon id="Fill-134" fill="#C4D9ED" mask="url(#mask-4)" points="285.60875 144.48175 287.689 144.48175 287.689 141.5495 285.60875 141.5495"></polygon> <polygon id="Fill-135" fill="#C4D9ED" mask="url(#mask-4)" points="281.7185 144.48175 283.79875 144.48175 283.79875 141.5495 281.7185 141.5495"></polygon> <polygon id="Fill-136" fill="#C4D9ED" mask="url(#mask-4)" points="277.9155 144.48175 279.99575 144.48175 279.99575 141.5495 277.9155 141.5495"></polygon> <polygon id="Fill-137" fill="#C4D9ED" mask="url(#mask-4)" points="274.3095 144.48175 276.39 144.48175 276.39 141.5495 274.3095 141.5495"></polygon> <polygon id="Fill-138" fill="#C4D9ED" mask="url(#mask-4)" points="270.6345 144.48175 272.71475 144.48175 272.71475 141.5495 270.6345 141.5495"></polygon> <polygon id="Fill-139" fill="#ADC9E0" mask="url(#mask-4)" points="304.30025 125.3145 306.0485 125.3145 306.0485 122.29 304.30025 122.29"></polygon> <polygon id="Fill-140" fill="#ADC9E0" mask="url(#mask-4)" points="286.94525 125.3145 288.69325 125.3145 288.69325 122.29 286.94525 122.29"></polygon> <polygon id="Fill-141" fill="#ADC9E0" mask="url(#mask-4)" points="273.1395 125.3145 274.88775 125.3145 274.88775 122.29 273.1395 122.29"></polygon> <polygon id="Fill-142" fill="#D5E7F7" mask="url(#mask-4)" points="311.7775 150.6025 352.283 150.6025 352.283 123.36175 311.7775 123.36175"></polygon> <polygon id="Fill-143" fill="#C4D9ED" mask="url(#mask-4)" points="311.7775 128.65625 352.283 128.65625 352.283 119.8025 311.7775 119.8025"></polygon> <polygon id="Fill-144" fill="#C4D9ED" mask="url(#mask-4)" points="347.44475 134.2125 349.525 134.2125 349.525 131.28025 347.44475 131.28025"></polygon> <polygon id="Fill-145" fill="#C4D9ED" mask="url(#mask-4)" points="343.55475 134.2125 345.635 134.2125 345.635 131.28025 343.55475 131.28025"></polygon> <polygon id="Fill-146" fill="#C4D9ED" mask="url(#mask-4)" points="339.7515 134.2125 341.83175 134.2125 341.83175 131.28025 339.7515 131.28025"></polygon> <polygon id="Fill-147" fill="#C4D9ED" mask="url(#mask-4)" points="336.14575 134.2125 338.226 134.2125 338.226 131.28025 336.14575 131.28025"></polygon> <polygon id="Fill-148" fill="#C4D9ED" mask="url(#mask-4)" points="332.4705 134.2125 334.55075 134.2125 334.55075 131.28025 332.4705 131.28025"></polygon> <polygon id="Fill-149" fill="#C4D9ED" mask="url(#mask-4)" points="328.7535 134.2125 330.83375 134.2125 330.83375 131.28025 328.7535 131.28025"></polygon> <polygon id="Fill-150" fill="#C4D9ED" mask="url(#mask-4)" points="324.86325 134.2125 326.9435 134.2125 326.9435 131.28025 324.86325 131.28025"></polygon> <polygon id="Fill-151" fill="#C4D9ED" mask="url(#mask-4)" points="321.06025 134.2125 323.1405 134.2125 323.1405 131.28025 321.06025 131.28025"></polygon> <polygon id="Fill-152" fill="#C4D9ED" mask="url(#mask-4)" points="317.45425 134.2125 319.5345 134.2125 319.5345 131.28025 317.45425 131.28025"></polygon> <polygon id="Fill-153" fill="#C4D9ED" mask="url(#mask-4)" points="313.77925 134.2125 315.8595 134.2125 315.8595 131.28025 313.77925 131.28025"></polygon> <polygon id="Fill-154" fill="#C4D9ED" mask="url(#mask-4)" points="347.44475 139.38675 349.525 139.38675 349.525 136.4545 347.44475 136.4545"></polygon> <polygon id="Fill-155" fill="#C4D9ED" mask="url(#mask-4)" points="343.55475 139.38675 345.635 139.38675 345.635 136.4545 343.55475 136.4545"></polygon> <polygon id="Fill-156" fill="#C4D9ED" mask="url(#mask-4)" points="339.7515 139.38675 341.83175 139.38675 341.83175 136.4545 339.7515 136.4545"></polygon> <polygon id="Fill-157" fill="#C4D9ED" mask="url(#mask-4)" points="336.14575 139.38675 338.226 139.38675 338.226 136.4545 336.14575 136.4545"></polygon> <polygon id="Fill-158" fill="#C4D9ED" mask="url(#mask-4)" points="332.4705 139.38675 334.55075 139.38675 334.55075 136.4545 332.4705 136.4545"></polygon> <polygon id="Fill-159" fill="#C4D9ED" mask="url(#mask-4)" points="328.7535 139.38675 330.83375 139.38675 330.83375 136.4545 328.7535 136.4545"></polygon> <polygon id="Fill-160" fill="#C4D9ED" mask="url(#mask-4)" points="324.86325 139.38675 326.9435 139.38675 326.9435 136.4545 324.86325 136.4545"></polygon> <polygon id="Fill-161" fill="#C4D9ED" mask="url(#mask-4)" points="321.06025 139.38675 323.1405 139.38675 323.1405 136.4545 321.06025 136.4545"></polygon> <polygon id="Fill-162" fill="#C4D9ED" mask="url(#mask-4)" points="317.45425 139.38675 319.5345 139.38675 319.5345 136.4545 317.45425 136.4545"></polygon> <polygon id="Fill-163" fill="#C4D9ED" mask="url(#mask-4)" points="313.77925 139.38675 315.8595 139.38675 315.8595 136.4545 313.77925 136.4545"></polygon> <polygon id="Fill-164" fill="#C4D9ED" mask="url(#mask-4)" points="347.44475 144.48175 349.525 144.48175 349.525 141.5495 347.44475 141.5495"></polygon> <polygon id="Fill-165" fill="#C4D9ED" mask="url(#mask-4)" points="343.55475 144.48175 345.635 144.48175 345.635 141.5495 343.55475 141.5495"></polygon> <polygon id="Fill-166" fill="#C4D9ED" mask="url(#mask-4)" points="339.7515 144.48175 341.83175 144.48175 341.83175 141.5495 339.7515 141.5495"></polygon> <polygon id="Fill-167" fill="#C4D9ED" mask="url(#mask-4)" points="336.14575 144.48175 338.226 144.48175 338.226 141.5495 336.14575 141.5495"></polygon> <polygon id="Fill-168" fill="#C4D9ED" mask="url(#mask-4)" points="332.4705 144.48175 334.55075 144.48175 334.55075 141.5495 332.4705 141.5495"></polygon> <polygon id="Fill-169" fill="#C4D9ED" mask="url(#mask-4)" points="328.7535 144.48175 330.83375 144.48175 330.83375 141.5495 328.7535 141.5495"></polygon> <polygon id="Fill-170" fill="#C4D9ED" mask="url(#mask-4)" points="324.86325 144.48175 326.9435 144.48175 326.9435 141.5495 324.86325 141.5495"></polygon> <polygon id="Fill-171" fill="#C4D9ED" mask="url(#mask-4)" points="321.06025 144.48175 323.1405 144.48175 323.1405 141.5495 321.06025 141.5495"></polygon> <polygon id="Fill-172" fill="#C4D9ED" mask="url(#mask-4)" points="317.45425 144.48175 319.5345 144.48175 319.5345 141.5495 317.45425 141.5495"></polygon> <polygon id="Fill-173" fill="#C4D9ED" mask="url(#mask-4)" points="313.77925 144.48175 315.8595 144.48175 315.8595 141.5495 313.77925 141.5495"></polygon> <polygon id="Fill-174" fill="#ADC9E0" mask="url(#mask-4)" points="347.44475 125.3145 349.19275 125.3145 349.19275 122.29 347.44475 122.29"></polygon> <polygon id="Fill-175" fill="#ADC9E0" mask="url(#mask-4)" points="330.08975 125.3145 331.83775 125.3145 331.83775 122.29 330.08975 122.29"></polygon> <polygon id="Fill-176" fill="#ADC9E0" mask="url(#mask-4)" points="316.28425 125.3145 318.03225 125.3145 318.03225 122.29 316.28425 122.29"></polygon> </g> <g id="Group-173"> <path d="M265.457164,297.273784 C199.430163,263.078584 177.161763,206.080683 170.106363,164.286482 L171.649863,164.026682 C178.644963,205.469283 200.723163,261.985684 266.175664,295.884484 L265.457164,297.273784 Z" id="Fill-1" fill="#54293A"></path> <path d="M274.447774,285.743974 C274.447774,285.743974 272.961574,280.347874 277.179274,274.090474 C277.615474,273.443074 278.621674,273.661474 278.735674,274.433674 L279.942574,282.582274 L274.447774,285.743974 Z" id="Fill-3" fill="#892517"></path> <path d="M295.750114,285.609514 C295.750114,285.609514 294.664414,296.764114 278.268514,295.677214 L295.750114,285.609514 Z" id="Fill-5" fill="#CD603F"></path> <path d="M279.837394,353.028665 C279.844294,353.756765 280.482694,354.340565 281.262994,354.333065 C282.043294,354.325265 282.669694,353.728865 282.662494,353.000765 C282.655594,352.272965 282.017194,351.689165 281.237194,351.696665 C280.456594,351.704465 279.830194,352.300865 279.837394,353.028665" id="Fill-7" fill="#892517"></path> <path d="M278.424694,353.042585 C278.431894,353.770685 279.069994,354.354485 279.850294,354.346985 C280.630594,354.339185 281.256994,353.742785 281.249794,353.014685 C281.242894,352.286885 280.604494,351.703085 279.824494,351.710585 C279.044194,351.718385 278.417494,352.314785 278.424694,353.042585" id="Fill-9" fill="#892517"></path> <path d="M277.149844,353.055155 C277.157044,353.782955 277.795444,354.367055 278.575444,354.359255 C279.355744,354.351755 279.982144,353.755355 279.975244,353.027255 C279.968044,352.299455 279.329644,351.715655 278.549644,351.723155 C277.769344,351.730655 277.142944,352.327355 277.149844,353.055155" id="Fill-11" fill="#892517"></path> <path d="M235.267894,314.849105 C235.267894,314.849105 245.298994,322.495805 235.137094,336.080105 C232.760793,339.256505 233.621793,349.071305 234.005193,352.438505 C234.025593,352.618205 233.517693,353.160005 233.453493,352.990805 L223.554993,325.130705 L235.267894,314.849105 Z" id="Fill-13" fill="#892517"></path> <path d="M273.306664,322.858295 L279.279664,353.635595 L277.904764,353.649095 L267.867064,336.265895 C267.867064,336.265895 261.871864,327.783095 265.446964,321.855395 L273.306664,322.858295 Z" id="Fill-15" fill="#892517"></path> <path d="M271.778824,294.958744 C274.270924,298.511944 279.171424,299.372044 282.724624,296.880244 C286.278124,294.388144 290.726224,289.007944 288.234124,285.454744 C285.742024,281.901544 277.253524,281.520844 273.700324,284.012944 C270.147124,286.505044 269.286724,291.405544 271.778824,294.958744" id="Fill-17" fill="#CD603F"></path> <g id="Group-21" transform="translate(276.900004, 281.421004)"> <mask id="mask-6" fill="white"> <use xlink:href="#path-5"></use> </mask> <g id="Clip-20"></g> <path d="M16.5589502,0.178500003 C17.1370503,0.174600003 17.7439503,0.240600004 18.2221503,0.564900008 C18.8461503,0.987600015 19.1317503,1.77870003 19.1557503,2.53230004 C19.2199503,4.55610007 17.7301503,6.27210009 16.2238502,7.62540011 C13.8415502,9.76590015 10.4524502,11.4729002 7.80885012,13.2807002 C6.9154501,13.8918002 6.7405501,14.6190002 5.70495009,14.9337002 C5.02395007,15.1407002 4.30905006,15.2091002 3.59835005,15.2538002 C3.26235005,15.2751002 2.91885004,15.2907002 2.59455004,15.2001002 C2.08875003,15.0588002 1.68525003,14.6748002 1.36845002,14.2560002 C-0.184650003,12.2037002 0.0118500002,9.22050014 1.22055002,6.9480001 C2.27145003,4.97190007 4.22265006,2.77680004 6.24795009,1.75140003 C6.9733501,1.38390002 7.74225012,1.37760002 8.53905013,1.35570002 C9.82725015,1.32060002 11.0512502,1.16940002 12.3088502,0.886500013 C13.7101502,0.571500009 15.1123502,0.187800003 16.5589502,0.178500003" id="Fill-19" fill="#CD603F" mask="url(#mask-6)"></path> </g> <path d="M292.557214,281.217034 L293.885314,280.992334 C294.517414,280.885534 295.137514,281.238034 295.368514,281.836234 L295.442014,282.026734 C294.455614,282.497734 292.892914,282.390934 292.557214,281.217034" id="Fill-22" fill="#162027"></path> <path d="M292.557214,281.217034 C292.892914,282.390934 294.455614,282.497734 295.442014,282.026734 L295.721914,282.751234 L287.163814,285.841234 C285.599914,286.405834 283.865614,285.660634 283.198714,284.136934 L282.653914,282.891934 L292.557214,281.217034 Z" id="Fill-24" fill="#B3482E"></path> <path d="M279.758134,286.113124 C280.264534,286.591924 281.063434,286.569424 281.542234,286.063024 C282.021034,285.556924 281.998834,284.758024 281.492434,284.279224 C280.986034,283.800424 280.187134,283.822624 279.708334,284.329024 C279.229534,284.835424 279.252034,285.634024 279.758134,286.113124" id="Fill-26" fill="#162027"></path> <path d="M281.127034,298.437874 C281.401834,302.270075 282.419434,328.624475 259.054534,334.193975 C259.054534,334.193975 241.638934,336.653075 226.538433,328.076975 C248.604034,335.900075 274.161334,319.767275 281.127034,298.437874" id="Fill-28" fill="#B3482E"></path> <path d="M224.341473,327.211655 C224.148573,327.128255 223.953273,327.058955 223.760673,326.971355 C223.953273,327.058955 224.148573,327.128255 224.341473,327.211655 L213.289173,327.320555 C213.289173,327.320555 209.103873,314.521355 221.250273,311.390255 L254.062474,305.960255 C254.062474,305.960255 266.624974,305.192855 271.176574,288.709654 L281.087974,297.968554 C281.087974,297.968554 281.105374,298.135054 281.126974,298.437754 C274.161274,319.767455 248.603974,335.899955 226.538373,328.076855 C226.047273,327.797855 225.558273,327.507455 225.072573,327.204755 L224.341473,327.211655 Z" id="Fill-30" fill="#CD603F"></path> <path d="M201.465603,280.666534 C204.105303,285.963634 208.579203,295.738234 211.560903,306.456935 C207.374403,299.791834 202.785603,293.662834 197.253303,288.210334 C197.591703,284.746834 198.249003,280.867234 199.302003,276.514834 C199.302003,276.514834 200.160303,278.046934 201.465603,280.666534" id="Fill-32" fill="#CD603F"></path> <path d="M213.211023,313.280405 C213.449823,314.465705 213.664923,315.653105 213.847923,316.838736 C213.847923,316.838736 194.437923,317.026805 197.253423,288.210604 C202.785723,293.662804 207.374523,299.791804 211.561023,306.456905 C212.185323,308.701505 212.748723,310.985105 213.211023,313.280405" id="Fill-34" fill="#B3482E"></path> <path d="M229.442373,322.210115 C229.442373,322.210115 232.991673,334.342715 216.745173,339.226115 C211.977573,340.659515 208.445673,349.743515 206.403873,353.009315 C205.761873,354.035915 204.970473,353.958815 205.278873,352.787615 L213.914073,323.541515 L229.442373,322.210115 Z" id="Fill-36" fill="#CD603F"></path> <path d="M265.149094,320.360585 L250.060294,353.334785 L248.773294,352.852085 L251.098894,331.822985 C251.098894,331.822985 251.214094,321.164585 258.513994,316.519685 L265.149094,320.360585 Z" id="Fill-38" fill="#CD603F"></path> <path d="M271.140004,289.955854 C271.140004,289.955854 267.581404,283.616554 270.945604,274.410154 C271.293604,273.457654 272.630104,273.418654 273.015604,274.356754 L277.080904,284.254354 L271.140004,289.955854 Z" id="Fill-40" fill="#CD603F"></path> <path d="M272.048794,287.909014 C272.048794,287.909014 269.381494,283.157314 271.902994,276.256714 C272.163994,275.543014 273.165694,275.513914 273.454594,276.216814 L275.449894,281.074714 C276.084394,282.619714 275.709394,284.395714 274.504294,285.552514 L272.048794,287.909014 Z" id="Fill-42" fill="#892517"></path> <path d="M251.130094,353.312825 C250.874494,353.994425 251.259694,354.769025 251.990194,355.042925 C252.720694,355.316825 253.520194,354.986225 253.775794,354.304625 C254.031094,353.623025 253.646194,352.848425 252.915694,352.574525 C252.185194,352.300625 251.385694,352.631225 251.130094,353.312825" id="Fill-44" fill="#CD603F"></path> <path d="M249.807214,352.816985 C249.551614,353.498585 249.936814,354.273185 250.667314,354.547085 C251.397814,354.820985 252.197314,354.490385 252.452914,353.808785 C252.708514,353.127185 252.323314,352.352585 251.592814,352.078685 C250.862314,351.804785 250.062814,352.135385 249.807214,352.816985" id="Fill-46" fill="#CD603F"></path> <path d="M248.613514,352.369325 C248.357914,353.050925 248.743114,353.825525 249.473614,354.099725 C250.204414,354.373625 251.003614,354.043025 251.259214,353.361425 C251.514814,352.679525 251.129614,351.904925 250.399114,351.631025 C249.668614,351.357125 248.869114,351.687725 248.613514,352.369325" id="Fill-48" fill="#CD603F"></path> <path d="M236.034754,352.385735 C236.305654,353.061335 237.112354,353.373635 237.836254,353.083235 C238.560454,352.792835 238.928254,352.009835 238.657054,351.333935 C238.386154,350.658335 237.579454,350.346035 236.855254,350.636435 C236.131054,350.926835 235.763854,351.710135 236.034754,352.385735" id="Fill-50" fill="#892517"></path> <path d="M234.723423,352.911455 C234.994324,353.587055 235.801024,353.899355 236.525224,353.608955 C237.249424,353.318555 237.616924,352.535555 237.345724,351.859655 C237.074824,351.184055 236.268124,350.871755 235.543924,351.162155 C234.820023,351.452555 234.452523,352.235855 234.723423,352.911455" id="Fill-52" fill="#892517"></path> <path d="M233.540103,353.385935 C233.811003,354.061535 234.617703,354.373835 235.341904,354.083735 C236.066104,353.793035 236.433604,353.010035 236.162404,352.334435 C235.891504,351.658835 235.084804,351.346235 234.360603,351.636635 C233.636703,351.927335 233.269203,352.710335 233.540103,353.385935" id="Fill-54" fill="#892517"></path> <path d="M207.684303,353.555705 C207.691503,354.283805 208.329603,354.867605 209.109903,354.859805 C209.890203,354.852005 210.516603,354.255905 210.509403,353.527805 C210.502503,352.800005 209.864103,352.216205 209.084103,352.224005 C208.303803,352.231505 207.677103,352.827605 207.684303,353.555705" id="Fill-56" fill="#CD603F"></path> <path d="M206.271603,353.569625 C206.278803,354.297725 206.917203,354.881525 207.697203,354.873725 C208.477503,354.865925 209.103903,354.269825 209.097003,353.541725 C209.089803,352.813625 208.451403,352.230125 207.671403,352.237925 C206.891103,352.245425 206.264403,352.841525 206.271603,353.569625" id="Fill-58" fill="#CD603F"></path> <path d="M204.996753,353.582225 C205.003953,354.310325 205.642053,354.894125 206.422353,354.886325 C207.202653,354.878525 207.829353,354.282425 207.821853,353.554325 C207.814953,352.826225 207.176853,352.242725 206.396553,352.250225 C205.616253,352.258025 204.989553,352.854125 204.996753,353.582225" id="Fill-60" fill="#CD603F"></path> <path d="M279.202804,303.408245 L268.457104,298.691944 C267.178804,298.130944 266.592004,296.626144 267.153004,295.347844 C267.714004,294.069544 269.218804,293.482744 270.497104,294.043744 L281.243104,298.760044 C282.521404,299.321044 283.108204,300.825844 282.546904,302.104145 C281.986204,303.382445 280.481104,303.969245 279.202804,303.408245" id="Fill-62" fill="#54293A"></path> <path d="M141.586742,351.796295 C141.586742,351.796295 124.347542,343.167995 114.380942,339.713795 C113.561642,339.429995 101.515442,338.785895 101.381942,339.796595 C101.185442,341.284595 99.8174415,349.863695 100.240741,354.470495 C100.383841,356.028995 101.735942,357.096995 103.298342,357.002495 L140.254442,354.771095 C141.935042,354.669395 143.155742,352.407095 141.586742,351.796295" id="Fill-64" fill="#E2A346"></path> <path d="M125.298272,350.007275 C125.594072,349.989275 125.819672,349.735175 125.801672,349.439075 C125.800172,349.413575 125.672072,346.768175 127.399472,345.418775 C127.633172,345.236075 127.674572,344.898875 127.492172,344.665175 C127.309772,344.431775 126.972572,344.389775 126.738572,344.572475 C124.561172,346.273175 124.722272,349.372775 124.730072,349.503875 C124.748072,349.799675 125.002472,350.025275 125.298272,350.007275" id="Fill-66" fill="#FFFFFF"></path> <path d="M119.435102,348.604535 C119.476202,348.602135 119.517602,348.594935 119.558702,348.582335 C119.842502,348.496535 120.003002,348.196835 119.916902,347.913035 C119.650502,347.033135 120.570602,344.285435 121.908902,343.234835 C122.142002,343.051535 122.182802,342.714035 121.999502,342.480935 C121.816802,342.247835 121.479302,342.207035 121.245902,342.390335 C119.593202,343.687535 118.481702,346.878335 118.889402,348.224135 C118.962902,348.466835 119.192702,348.619235 119.435102,348.604535" id="Fill-68" fill="#FFFFFF"></path> <path d="M101.392112,358.265045 L142.708412,355.770245 C143.240912,355.737845 143.636012,355.101545 143.603912,354.568745 C143.571512,354.035945 143.102912,353.451845 142.570112,353.483645 L101.254112,355.978745 C100.721312,356.010845 100.326511,356.647445 100.358611,357.180245 C100.390711,357.712745 100.859312,358.297145 101.392112,358.265045" id="Fill-70" fill="#172755"></path> <path d="M109.021142,171.670023 C109.539542,173.276223 117.916742,235.274824 114.604442,261.112924 C111.327242,286.681024 109.987142,304.571525 111.281942,320.782325 C111.806342,327.388625 112.769342,333.715025 114.215342,340.168925 C114.003242,340.663025 103.305542,341.906825 102.548642,341.069825 C101.822042,340.447325 97.0604414,332.852225 92.0276414,321.944825 C86.8736413,310.771325 81.4382412,296.120524 79.7690412,281.920024 C78.9227412,274.740724 83.0339412,262.090924 82.1663412,256.162924 C81.6956412,252.942124 65.638741,177.342423 65.080441,174.323523 L109.021142,171.670023 Z" id="Fill-72" fill="#BC7551"></path> <path d="M78.6930912,249.954034 C79.2744912,250.904134 120.772592,246.698134 120.739312,243.912334 C120.099692,190.712433 111.210692,167.562332 107.928092,169.369533 C93.4089914,170.213433 78.9471912,171.086733 62.6337909,172.729233 C62.6337909,172.729233 57.9894909,178.362633 60.0261909,192.763533 C61.7985909,205.297233 70.4670911,211.547133 70.4670911,211.547133 L78.6930912,249.954034 Z" id="Fill-74" fill="#172755"></path> <path d="M114.215492,340.168805 C114.003392,340.662905 103.305392,341.906705 102.548792,341.069705 C101.821892,340.447505 97.0602914,332.852405 92.0277914,321.944705 L111.282092,320.782205 C111.806192,327.388505 112.769192,333.714905 114.215492,340.168805" id="Fill-76" fill="#B4E8FF"></path> <path d="M109.904612,330.448685 C109.727312,331.397585 110.617112,342.245885 110.617112,342.245885 L117.088712,341.854985 C117.088712,341.854985 119.296712,329.881385 117.310712,330.001385 C115.324712,330.121385 109.904612,330.448685 109.904612,330.448685" id="Fill-78" fill="#E2A346"></path> <path d="M162.736022,160.163222 C165.349322,160.626122 170.950323,158.045222 173.366823,158.149322 C175.783023,158.253122 178.937823,161.307122 180.786423,161.756822 C182.845923,162.257522 185.377623,161.572022 185.885223,162.639422 C186.552423,164.043122 184.243323,166.111922 181.599423,165.691022 C180.078723,165.448922 177.367023,163.478222 177.066723,164.852222 C176.029023,169.597923 192.992823,169.566423 192.208923,172.152123 C191.259723,175.283823 185.232423,183.553023 173.808123,179.695623 C168.897123,178.037523 163.130522,172.063623 160.063922,169.057923 L162.736022,160.163222 Z" id="Fill-80" fill="#BC7551"></path> <path d="M145.706042,109.361732 C145.706042,109.361732 143.854142,120.172832 149.062442,127.014032 C155.825642,135.897032 166.586942,159.777332 166.586942,159.777332 C166.586942,159.777332 166.582142,167.077232 165.701942,169.388433 C164.822042,171.699933 134.509742,157.066532 123.812342,141.189632 C113.781842,126.302432 106.446242,104.588432 106.446242,104.588432 C105.406442,81.9936312 113.411642,78.3282312 125.617142,77.3742312 C140.824442,76.1856311 144.780842,89.0754313 145.706042,109.361732" id="Fill-82" fill="#BC7551"></path> <path d="M189.605043,174.563073 C182.714943,174.880173 177.545343,171.977073 177.319143,171.847773 C177.062643,171.701373 176.973843,171.374673 177.119943,171.118173 C177.266643,170.861373 177.593343,170.771973 177.849843,170.918373 C177.905043,170.949573 183.441243,174.048273 190.443543,173.434473 C190.733343,173.403573 190.997943,173.626473 191.023443,173.920773 C191.049243,174.215373 190.831443,174.475473 190.537143,174.500973 C190.223643,174.528273 189.911943,174.548973 189.605043,174.563073" id="Fill-84" fill="#804737"></path> <path d="M187.425963,177.242583 C180.774663,177.548883 176.527563,175.433283 176.340063,175.337883 C176.076663,175.203783 175.971963,174.882183 176.105763,174.618483 C176.238963,174.355683 176.561163,174.249783 176.824863,174.383583 C176.870763,174.406683 181.518963,176.710383 188.532363,176.095983 C188.823963,176.068983 189.086763,176.288283 189.112563,176.582583 C189.138363,176.877183 188.920263,177.136683 188.625963,177.162483 C188.218263,177.198183 187.817463,177.224583 187.425963,177.242583" id="Fill-86" fill="#804737"></path> <path d="M183.692223,179.704383 C177.265023,180.000183 175.491123,177.899883 175.414323,177.804783 C175.228923,177.574683 175.265223,177.237483 175.495323,177.052083 C175.722423,176.869083 176.055723,176.901783 176.242323,177.126483 C176.284323,177.172983 178.119423,179.145183 184.868523,178.552683 C185.160123,178.528383 185.422623,178.744983 185.448423,179.039283 C185.474223,179.333583 185.256423,179.593383 184.962123,179.619183 C184.519923,179.657583 184.096623,179.685783 183.692223,179.704383" id="Fill-88" fill="#804737"></path> <path d="M149.094092,109.144322 C139.431392,116.243222 113.681492,122.900822 111.256592,121.661822 C109.338692,120.681722 98.6583915,97.3831215 101.576792,77.9722212 C101.612792,77.7316212 101.652992,77.4931212 101.696492,77.2567212 C105.228992,58.1326209 133.490192,55.1230208 140.233592,73.0810211 C146.573792,89.9650213 149.094092,109.144322 149.094092,109.144322" id="Fill-90" fill="#E2A346"></path> <path d="M108.223022,117.526172 C108.114122,117.531272 108.043322,117.533372 108.010022,117.534272 L107.954822,115.394372 L107.982422,116.464172 L107.953922,115.394372 C108.114422,115.384472 124.083722,114.814472 147.857822,102.159572 L148.864022,104.049272 C125.811722,116.320472 110.288522,117.431072 108.223022,117.526172" id="Fill-92" fill="#FFFFFF"></path> <path d="M161.824442,168.627843 L168.823443,160.878542 C169.473543,160.158842 169.558143,159.101042 169.029843,158.303342 L161.089442,147.235442 C160.313042,146.063342 158.608742,145.976642 157.685642,147.062342 L147.282542,159.296642 C146.402642,160.331642 146.698442,161.895842 147.891842,162.518942 L159.236042,169.101843 C160.098242,169.552143 161.166542,169.356543 161.824442,168.627843" id="Fill-94" fill="#7EC2EE"></path> <path d="M159.805142,166.607822 C159.701342,166.612622 159.594842,166.587122 159.499442,166.528322 L150.334742,160.862522 C150.083342,160.707122 150.005642,160.377122 150.161042,160.125722 C150.316442,159.874322 150.646142,159.796322 150.897842,159.952022 L160.062542,165.617822 C160.313942,165.773222 160.391942,166.103222 160.236242,166.354622 C160.139642,166.510622 159.975542,166.600022 159.805142,166.607822" id="Fill-96" fill="#B4E8FF"></path> <path d="M161.484152,164.713922 C161.373152,164.719022 161.260052,164.689922 161.161052,164.623322 L152.218652,158.606522 C151.973252,158.441222 151.908452,158.108822 152.073452,157.863722 C152.238152,157.618022 152.571152,157.553222 152.815952,157.718222 L161.758652,163.735022 C162.003752,163.900322 162.068852,164.232722 161.903852,164.477822 C161.805452,164.624222 161.647352,164.706422 161.484152,164.713922" id="Fill-98" fill="#B4E8FF"></path> <path d="M163.163012,162.820322 C163.038812,162.826022 162.911912,162.788522 162.806612,162.705422 L154.308812,155.986022 C154.076912,155.802722 154.037612,155.465822 154.220612,155.233922 C154.404512,155.002022 154.741112,154.963322 154.972712,155.146022 L163.470512,161.865722 C163.702412,162.049022 163.741712,162.385922 163.558412,162.617522 C163.458212,162.744422 163.312712,162.813422 163.163012,162.820322" id="Fill-100" fill="#B4E8FF"></path> <path d="M164.731142,161.102042 C164.585942,161.108642 164.438342,161.056742 164.327642,160.945442 L156.668942,153.278942 C156.460142,153.069842 156.460442,152.731142 156.669242,152.522342 C156.878942,152.312942 157.217642,152.313242 157.426442,152.522642 L165.085142,160.189442 C165.293642,160.398242 165.293642,160.737242 165.084542,160.945742 C164.986442,161.044142 164.859542,161.096042 164.731142,161.102042" id="Fill-102" fill="#B4E8FF"></path> <path d="M166.471652,159.490562 C166.313252,159.497762 166.153052,159.434762 166.041152,159.305462 L158.827052,150.936362 C158.634152,150.712562 158.659052,150.374462 158.883152,150.181862 C159.107252,149.988662 159.445052,150.013562 159.637952,150.237662 L166.852352,158.606762 C167.044952,158.830562 167.020052,159.168662 166.796252,159.361262 C166.701752,159.442562 166.587152,159.485162 166.471652,159.490562" id="Fill-104" fill="#B4E8FF"></path> <path d="M13.4904902,325.495745 C13.4904902,325.495745 0.64539001,333.943145 2.17329003,335.558645 C3.73719006,337.212545 24.9726904,359.667245 28.3119904,363.198245 C35.4225905,365.674145 21.9312903,341.108345 22.0713903,330.267845 C20.4981903,328.445945 13.4904902,325.495745 13.4904902,325.495745" id="Fill-106" fill="#E2A346"></path> <path d="M17.9825103,341.608295 C18.1505103,341.785895 18.4241103,341.832695 18.6452103,341.705495 C19.6445103,341.131595 21.9290103,340.413995 24.1550104,341.363795 C24.4298104,341.481095 24.7481104,341.353295 24.8654104,341.078195 C24.9824104,340.803095 24.8546104,340.485395 24.5798104,340.367795 C21.9620103,339.250895 19.2788103,340.092695 18.1061103,340.766495 C17.8469103,340.915295 17.7572103,341.246195 17.9063103,341.505695 C17.9279103,341.543495 17.9537103,341.577695 17.9825103,341.608295" id="Fill-108" fill="#FFFFFF"></path> <path d="M19.2979203,346.300775 C19.4548203,346.466675 19.7065203,346.520975 19.9240203,346.417475 C20.6326203,346.079975 23.1274203,345.056675 25.4704204,346.056575 C25.7455204,346.173575 26.0635204,346.045775 26.1808204,345.770675 C26.2981204,345.495875 26.1703204,345.177875 25.8952204,345.060275 C23.1355203,343.882775 20.2708203,345.053075 19.4584203,345.439775 C19.1884203,345.568475 19.0738203,345.891275 19.2025203,346.161275 C19.2274203,346.213775 19.2598203,346.260575 19.2979203,346.300775" id="Fill-110" fill="#FFFFFF"></path> <g id="Group-114" transform="translate(0.000000, 334.521005)"> <mask id="mask-8" fill="white"> <use xlink:href="#path-7"></use> </mask> <g id="Clip-113"></g> <path d="M0.306750005,1.58547002 L27.9850504,30.8531705 C28.3549504,31.2440705 28.8928504,31.3358705 29.2840504,30.9659705 C29.6752504,30.5960705 29.6137504,30.0536704 29.2438504,29.6624704 L1.56555002,0.395070006 C1.19565002,0.00417000006 0.65745001,-0.0876300013 0.266550004,0.282270004 C-0.124650002,0.65217001 -0.0631500009,1.19457002 0.306750005,1.58547002" id="Fill-112" fill="#172755" mask="url(#mask-8)"></path> </g> <path d="M94.2600014,162.758942 C93.4386014,164.305442 106.120802,203.264643 75.7965011,265.337044 C72.5238011,272.036044 56.0196008,289.760344 46.0242007,300.919444 C34.7601005,313.494545 21.3918003,330.249245 19.8780003,332.680145 C17.8455003,335.944745 14.6604002,330.322145 12.3354002,327.259145 C12.3354002,327.259145 15.8541002,291.369244 26.7621004,273.548644 C31.4841005,265.834444 46.3569007,261.003244 46.4424007,259.599544 C49.8639007,203.414043 34.9269005,182.988843 50.2332007,165.417542 L94.2600014,162.758942 Z" id="Fill-115" fill="#BC7551"></path> <path d="M16.5060902,302.166515 L35.1840905,314.248715 L19.3713903,334.344815 C15.6528902,333.977015 12.3354902,327.259115 12.3354902,327.259115 C12.3354902,327.259115 12.7152902,316.033415 16.5060902,302.166515" id="Fill-117" fill="#B4E8FF"></path> <path d="M15.2050202,331.594625 C15.2050202,331.594625 21.2044203,321.868325 22.7677203,322.685525 C24.3310204,323.503025 28.7494204,327.175625 28.3729204,328.106825 C27.9961204,329.037725 23.6566204,332.814725 19.3711203,334.344725 C15.0859202,335.874725 15.2050202,331.594625 15.2050202,331.594625" id="Fill-119" fill="#E2A346"></path> <path d="M42.7527906,244.302964 C43.1649906,245.419264 87.2889913,249.556564 88.0662913,246.683464 C101.976692,195.277563 100.275691,159.447062 96.4614914,160.660862 C79.3341912,161.287862 65.774491,162.400562 48.1695907,162.713762 C48.1695907,162.713762 38.9214906,164.807162 38.0715906,180.320163 C37.3320906,193.821963 42.0903906,202.350363 42.0903906,202.350363 L42.7527906,244.302964 Z" id="Fill-121" fill="#172755"></path> <path d="M80.4648912,247.667854 C80.3544912,247.674454 80.2407912,247.658854 80.1303912,247.617754 C79.7049912,247.460254 79.4874912,246.987154 79.6449912,246.561454 C89.1108913,220.990953 87.7029913,161.376152 87.6876913,160.777052 C87.6762913,160.323152 88.0272913,159.948452 88.4886913,159.934374 C88.9422913,159.922952 89.3196913,160.281152 89.3310913,160.735052 C89.3466913,161.337152 90.7620914,221.266053 81.1866912,247.132354 C81.0699912,247.447654 80.7801912,247.648954 80.4648912,247.667854" id="Fill-123" fill="#FFFFFF"></path> <path d="M74.0645711,247.411954 C73.9541711,247.418554 73.8407711,247.402954 73.7300711,247.361854 C73.3046711,247.204354 73.0871711,246.731554 73.2446711,246.305554 C82.7117712,220.731453 81.4562712,161.722952 81.4424712,161.130152 C81.4319712,160.676252 81.7874712,160.297052 82.2449712,160.289028 C82.6988712,160.278752 83.0753712,160.638152 83.0858712,161.092052 C83.0996712,161.688152 84.3611713,221.010753 74.7863711,246.876454 C74.6696711,247.191754 74.3798711,247.393054 74.0645711,247.411954" id="Fill-125" fill="#FFFFFF"></path> <path d="M52.9012208,57.5936709 C62.9440209,53.1977708 72.6712211,52.4570708 84.5629213,53.4548708 C96.5197214,52.5425708 108.283922,52.7363708 119.709422,58.1312709 C131.712422,63.798871 135.938222,81.4919712 137.257922,84.1106713 C138.758522,87.0887713 140.907722,90.9422714 130.726322,95.1629714 C129.466622,95.6852714 122.945522,107.068472 119.538122,103.471472 C108.019322,138.689372 117.218822,162.274772 107.181122,173.988273 C104.782322,176.788173 42.9013206,176.495673 40.2751206,164.916272 C39.5677206,161.797172 50.5360208,100.609771 53.0455208,88.2659713 C55.6138208,75.6338711 35.1304205,65.372071 52.9012208,57.5936709" id="Fill-127" fill="#E2A346"></path> <path d="M88.1973613,62.5142709 C82.4499612,62.7788709 78.1185612,61.6376709 75.2784611,59.1011709 C71.6904611,55.8971708 71.9193611,51.6890708 71.9307611,51.5117708 C71.9574611,51.0983708 72.3132611,50.7851708 72.7278611,50.8115708 C73.1406611,50.8385708 73.4538611,51.1946708 73.4277611,51.6071708 C73.4184611,51.7727708 73.2567611,55.3022708 76.2987611,58.0013709 C79.6758612,60.9977709 85.8381613,61.7957709 94.1211614,60.3092709 C102.083462,58.8800709 103.707362,56.8178708 103.967162,55.7156708 C104.368862,54.0074708 102.203762,52.3724708 102.181862,52.3562708 C101.850062,52.1093708 101.780162,51.6398708 102.026462,51.3074708 C102.272462,50.9753708 102.740762,50.9045708 103.073762,51.1502708 C103.195262,51.2399708 106.050962,53.3825708 105.428762,56.0522708 C104.814662,58.6865709 101.202662,60.5621709 94.3860614,61.7858709 C92.1690614,62.1836709 90.1050613,62.4266709 88.1973613,62.5142709" id="Fill-129" fill="#FFFFFF"></path> <path d="M105.053342,17.7540303 C105.053342,17.7540303 106.815542,25.6839304 109.558742,31.0539305 C109.955642,31.8321305 108.069542,32.3049305 106.745042,32.5341305 C106.700042,37.6464306 105.836642,42.4197306 103.218842,43.8939307 C101.786642,44.6976307 100.268041,45.1065307 98.7215415,45.1779307 C99.2645415,48.9996307 100.915142,51.3495308 101.072042,52.9323308 C101.779142,60.0645309 71.4854411,60.5706309 75.6314411,50.9253308 C78.6704412,43.8558307 79.4708412,35.2704305 80.7197412,29.0664304 L81.1004412,29.1576304 C80.3348412,25.7790304 80.4728412,22.2153303 81.8921412,18.8352303 C86.0405413,8.95923013 100.347541,9.23133014 104.825942,17.3442303 L105.053342,17.7540303 Z" id="Fill-131" fill="#BC7551"></path> <path d="M94.4121914,10.4482802 C88.2552913,9.67368014 81.4656912,8.78748013 80.1816912,13.9435802 C72.8364911,13.8949802 74.5749911,25.5016804 76.0836911,30.2230805 C77.1045911,33.4180805 78.1992912,40.2814806 79.4058912,40.2259806 C82.1337912,40.1008806 87.5922913,35.3467805 85.7757913,32.1814805 C83.6907912,28.5481804 84.6702913,26.1250804 85.5144913,25.8463804 C90.9372914,24.0544804 88.8813913,31.7380805 89.2314913,32.2591805 C89.2314913,32.2591805 90.1956913,31.2220805 91.0122914,29.7430804 C91.3974914,29.0452804 92.9772914,25.6627804 91.7685914,19.5172803 L94.4121914,10.4482802 Z" id="Fill-133" fill="#172755"></path> <path d="M97.9884015,45.7371007 C97.9797015,45.7374007 97.9707015,45.7377007 97.9620015,45.7377007 C94.2081014,45.7242007 91.5519014,44.8035007 90.0681013,43.0008006 C88.4679013,41.0571006 88.8720013,38.8338006 88.8903013,38.7399006 C88.9449013,38.4555006 89.2206013,38.2692006 89.5047013,38.3235006 C89.7888013,38.3778006 89.9751013,38.6520006 89.9217013,38.9361006 C89.9178013,38.9580006 89.6001013,40.7931006 90.8898014,42.3471006 C92.1684014,43.8879007 94.5492014,44.6754007 97.9659015,44.6877007 C98.2557015,44.6889007 98.4900015,44.9247007 98.4891041,45.2145007 C98.4879015,45.4956007 98.2662015,45.7245007 97.9884015,45.7371007" id="Fill-135" fill="#804737"></path> <path d="M102.270362,28.3912804 L102.189662,28.3948804 C101.576762,28.4230804 101.056862,27.9490804 101.028662,27.3358804 L100.986062,26.4091804 C100.957862,25.7962804 101.431862,25.2763804 102.045062,25.2481804 L102.125462,25.2445804 C102.738662,25.2163804 103.258562,25.6903804 103.286762,26.3035804 L103.329362,27.2299804 C103.357562,27.8431804 102.883562,28.3630804 102.270362,28.3912804" id="Fill-137" fill="#804737"></path> <path d="M105.271742,37.7598306 C103.245842,37.8531306 102.351242,36.6951305 102.155642,35.9976305 C102.077342,35.7186305 102.240242,35.4288305 102.519242,35.3505305 C102.796742,35.2725305 103.083842,35.4327305 103.164842,35.7078305 C103.209842,35.8497305 103.653842,37.0278306 105.840542,36.6402305 C106.125542,36.5910305 106.398242,36.7797305 106.448942,37.0653306 C106.499642,37.3509306 106.309142,37.6233306 106.023542,37.6740306 C105.757442,37.7211306 105.506642,37.7490306 105.271742,37.7598306" id="Fill-139" fill="#804737"></path> <path d="M97.3460415,23.7922504 C97.3460415,23.7922504 101.228042,22.2865503 104.174642,22.7128503 C104.756942,22.7971503 104.556542,20.9497503 103.044842,20.9404503 C101.419442,20.9299503 97.7081415,21.5644503 97.2857414,22.4797503 C96.9551414,23.1961503 97.3460415,23.7922504 97.3460415,23.7922504" id="Fill-141" fill="#172755"></path> <path d="M105.543842,14.0141402 C113.311442,9.93114015 106.091042,4.01634006 98.5169415,5.59884008 C102.340142,-0.534060008 88.9988413,-2.91396004 83.5376412,5.16114008 C74.2013411,2.65254004 65.671741,7.78884012 74.2916411,14.8775402 C67.307041,17.5340403 58.3331409,25.6088404 78.3158412,29.5235404 L105.543842,14.0141402 Z" id="Fill-143" fill="#172755"></path> <path d="M75.3864311,29.6093104 C74.0727311,26.9654104 80.9139312,19.8539103 89.9970313,17.1002103 C99.4005315,14.2496102 102.997232,12.9782102 104.968832,14.4500102 C105.730532,19.3484103 105.432332,19.3646103 105.216632,18.7712103 C105.066632,18.3581103 100.899932,17.8769103 92.2515314,21.5759103 C78.6798312,27.3806104 77.8473312,36.6767105 77.0721311,35.5454105 C75.8853311,33.8132105 75.9573311,30.7583105 75.3864311,29.6093104" id="Fill-145" fill="#E2A346"></path> <path d="M18.5601003,164.026622 C19.8366003,166.553822 25.6215004,169.684323 27.0783004,171.813423 C28.5351004,173.942523 27.9459004,178.588923 28.7445004,180.454623 C29.6340004,182.533023 31.8381005,184.255623 31.2516005,185.371323 C30.4803005,186.838923 27.2373004,186.190923 25.9056004,183.664623 C25.1397004,182.211723 25.0878004,178.636623 23.7228004,179.258823 C19.0080003,181.408323 29.8845004,195.869223 27.1758004,196.853823 C23.8953004,198.046323 12.9816002,198.189723 8.96790013,185.970723 C7.24230011,180.717723 8.65380013,171.974823 9.25830014,167.434622 L18.5601003,164.026622 Z" id="Fill-147" fill="#BC7551"></path> <path d="M51.0345008,116.998382 C51.0345008,116.998382 40.6212006,122.331782 38.1126006,131.153282 C34.8552005,142.607882 21.3525003,167.067182 21.3525003,167.067182 C21.3525003,167.067182 15.1179002,171.731883 12.5820002,172.458783 C10.0461001,173.185983 3.15090005,137.951282 9.86250015,118.665182 C16.1556002,100.581181 30.0000004,80.4316812 30.0000004,80.4316812 C48.6228007,65.093281 56.8716008,69.582481 65.492101,79.3915812 C76.2327011,91.6126814 67.759801,103.234082 51.0345008,116.998382" id="Fill-149" fill="#BC7551"></path> <path d="M23.4523803,196.172913 C18.7750803,190.494213 17.9470803,184.224213 17.9125803,183.948513 C17.8735803,183.635913 18.0955803,183.351213 18.4081803,183.311913 C18.7210803,183.272913 19.0063803,183.494613 19.0456803,183.807213 C19.0540803,183.874413 19.9495803,190.581813 24.9520804,196.166913 C25.1635804,196.394613 25.1425804,196.762713 24.9076804,196.973013 C24.6727804,197.183613 24.3118804,197.163813 24.1012804,196.928913 C23.8774804,196.678713 23.6608804,196.426113 23.4523803,196.172913" id="Fill-151" fill="#804737"></path> <path d="M19.7712903,196.026423 C15.2559902,190.544223 14.3454902,185.565723 14.3070902,185.344923 C14.2530902,185.034423 14.4606902,184.739223 14.7711902,184.684623 C15.0810902,184.630623 15.3771902,184.837623 15.4317902,185.148123 C15.4413902,185.202423 16.4475902,190.643523 21.4578903,196.237923 C21.6672903,196.469223 21.6480903,196.833723 21.4134903,197.044023 C21.1785903,197.254323 20.8173903,197.234523 20.6070903,196.999623 C20.3157903,196.674123 20.0370903,196.349223 19.7712903,196.026423" id="Fill-153" fill="#804737"></path> <path d="M15.2818502,194.413623 C10.9189502,189.116223 11.5768502,186.258723 11.6092502,186.132423 C11.6869502,185.826723 11.9980502,185.642223 12.3034502,185.719923 C12.6049502,185.796723 12.7900502,186.102423 12.7177502,186.405723 C12.7048502,186.470823 12.1948502,189.298923 17.0176503,194.681223 C17.2246503,194.914323 17.2075503,195.277323 16.9729503,195.487623 C16.7380502,195.697623 16.3771502,195.677823 16.1668502,195.443223 C15.8512502,195.090123 15.5563502,194.746923 15.2818502,194.413623" id="Fill-155" fill="#804737"></path> <path d="M53.3869808,119.751572 C41.1472806,116.043272 18.9949803,98.3201715 18.5020803,95.4575714 C18.1120803,93.1937714 31.1695805,69.175471 49.6060807,59.2520709 C49.8346807,59.1293709 50.0638807,59.0108709 50.2933807,58.8968709 C68.877781,49.6811707 89.5219813,71.8811711 78.5053812,89.1227713 C68.147281,105.333572 53.3869808,119.751572 53.3869808,119.751572" id="Fill-157" fill="#E2A346"></path> <path d="M20.0921703,90.2230813 C20.0183703,90.1333813 19.9709703,90.0739813 19.9490703,90.0463813 L21.7403703,88.6303813 L20.8445703,89.3383813 L21.7397703,88.6297813 C21.8510703,88.7605813 32.5508705,102.028382 58.5587709,114.229082 L57.5891709,116.296382 C32.3702705,104.466482 21.4943703,91.9252814 20.0921703,90.2230813" id="Fill-159" fill="#FFFFFF"></path> <path d="M10.7513702,168.662253 L21.8426703,169.680753 C22.8728703,169.775253 23.8301704,169.171053 24.1730704,168.209853 L28.5425704,154.353152 C29.0465704,152.940452 28.0307704,151.430252 26.5136704,151.336652 L9.41637014,150.280952 C7.97007012,150.191552 6.8237701,151.444352 7.05537011,152.861852 L8.69127013,166.756052 C8.85837013,167.779953 9.70857014,168.566553 10.7513702,168.662253" id="Fill-161" fill="#7EC2EE"></path> <path d="M11.1843002,165.646592 C11.1138002,165.560792 11.0676002,165.453692 11.0568002,165.334892 L10.0317001,153.887792 C10.0038001,153.573692 10.2354002,153.296192 10.5495002,153.268292 C10.8633002,153.240092 11.1408002,153.471692 11.1690002,153.786092 L12.1941002,165.233192 C12.2220002,165.546992 11.9904002,165.824792 11.6763002,165.852692 C11.4813002,165.870092 11.3001002,165.787292 11.1843002,165.646592" id="Fill-163" fill="#B4E8FF"></path> <path d="M13.8748502,165.868502 C13.7995502,165.777002 13.7518502,165.662102 13.7455502,165.534902 L13.1623502,154.053002 C13.1467502,153.738002 13.3888502,153.469802 13.7038502,153.453902 C14.0188502,153.437702 14.2870502,153.680402 14.3029502,153.994802 L14.8858502,165.476702 C14.9017502,165.791702 14.6593502,166.059902 14.3446502,166.075802 C14.1571502,166.085402 13.9858502,166.003202 13.8748502,165.868502" id="Fill-165" fill="#B4E8FF"></path> <path d="M16.5650402,166.090562 C16.4807402,165.988262 16.4315402,165.855962 16.4351402,165.713162 L16.7363402,154.161062 C16.7444402,153.846062 17.0066403,153.597062 17.3216403,153.605162 C17.6372403,153.613562 17.8859403,153.876362 17.8775403,154.190762 L17.5766403,165.742562 C17.5682403,166.057862 17.3060403,166.306862 16.9910403,166.298462 C16.8188403,166.293962 16.6664402,166.213862 16.5650402,166.090562" id="Fill-167" fill="#B4E8FF"></path> <path d="M19.0346403,166.330232 C18.9362403,166.210832 18.8864403,166.051232 18.9101403,165.885932 L20.5565403,154.444832 C20.6015403,154.132832 20.8907403,153.916232 21.2027403,153.961232 C21.5156403,154.005932 21.7316403,154.295432 21.6863403,154.607732 L20.0402403,166.048532 C19.9952403,166.360532 19.7060403,166.577132 19.3940403,166.532132 C19.2473403,166.511432 19.1219403,166.436132 19.0346403,166.330232" id="Fill-169" fill="#B4E8FF"></path> <path d="M21.5234703,166.785512 C21.4157703,166.654712 21.3671703,166.477712 21.4064703,166.299512 L23.9363704,154.788812 C24.0041704,154.481012 24.3086704,154.286012 24.6164704,154.354112 C24.9248704,154.421912 25.1195704,154.726112 25.0514704,155.034212 L22.5212703,166.544912 C22.4537703,166.852712 22.1489703,167.047712 21.8414703,166.979912 C21.7115703,166.951412 21.6017703,166.880612 21.5234703,166.785512" id="Fill-171" fill="#B4E8FF"></path> </g> </g> </g> </g> </g> </svg> 