<?xml version="1.0" encoding="UTF-8"?> <svg xmlns="http://www.w3.org/2000/svg" xmlns:xlink="http://www.w3.org/1999/xlink" width="504px" height="332px" viewBox="0 0 504 332"> <!-- Generator: Sketch 57.1 (83088) - https://sketch.com --> <title>Group 61</title> <desc>Created with Sketch.</desc> <defs> <polygon id="path-1" points="0 332 503.53695 332 503.53695 0.88743128 0 0.88743128"></polygon> </defs> <g id="Page-1" stroke="none" stroke-width="1" fill="none" fill-rule="evenodd"> <g id="mark" transform="translate(-191.000000, -7184.000000)"> <g id="Group-11-Copy-11" transform="translate(191.000000, 7056.000000)"> <g id="Group-61" transform="translate(0.000000, 128.000000)"> <polygon id="Fill-1" fill="#C98C62" points="384 332 447 332 447 254 384 254"></polygon> <g id="Group-60"> <path d="M58.590945,124.972982 C31.998645,124.972982 26.41842,138.901247 26.41842,138.901247 L39.69567,138.901247 C39.69567,138.901247 47.531295,132.756887 63.520695,132.756887 C83.89332,132.756887 90.76347,140.042006 90.76347,140.042006 L90.76347,138.901247 C90.76347,138.901247 85.18167,124.972982 58.590945,124.972982" id="Fill-2" fill="#DBA276"></path> <path d="M63.5205375,132.756573 C47.5311375,132.756573 39.6955125,138.900933 39.6955125,138.900933 L39.6955125,253.61244 L90.7633125,253.61244 L90.7633125,140.041691 C90.7633125,140.041691 83.8931625,132.756573 63.5205375,132.756573" id="Fill-4" fill="#C98C62"></path> <path d="M422.479732,202.46666 L51.4333575,202.46666 C44.9506575,202.46666 39.6948825,207.715721 39.6948825,214.190508 L39.6948825,253.611968 L442.230232,253.611968 L442.230232,221.249048 C442.230232,202.46666 422.479732,202.46666 422.479732,202.46666" id="Fill-6" fill="#FCE3DC"></path> <path d="M422.479732,202.46666 L403.923082,202.46666 C387.429682,202.46666 383.755207,217.383058 383.755207,228.737143 L383.755207,253.611968 L442.230232,253.611968 L442.230232,221.249048 C442.230232,202.46666 422.479732,202.46666 422.479732,202.46666" id="Fill-8" fill="#FCD6C9"></path> <mask id="mask-2" fill="white"> <use xlink:href="#path-1"></use> </mask> <g id="Clip-11"></g> <polygon id="Fill-10" fill="#DBA276" mask="url(#mask-2)" points="26.41905 331.534256 39.6963 331.534256 39.6963 138.900303 26.41905 138.900303"></polygon> <polygon id="Fill-12" fill="#DBA276" mask="url(#mask-2)" points="39.6963 331.534256 383.756625 331.534256 383.756625 253.613384 39.6963 253.613384"></polygon> <polygon id="Fill-13" fill="#C18F68" mask="url(#mask-2)" points="40.92795 331.532682 98.00595 331.532682 98.00595 247.138597 40.92795 247.138597"></polygon> <polygon id="Fill-14" fill="#946F4F" mask="url(#mask-2)" points="40.92795 268.62891 98.00595 268.62891 98.00595 267.486578 40.92795 267.486578"></polygon> <polygon id="Fill-15" fill="#DBA276" mask="url(#mask-2)" points="5.230575 331.532682 40.929525 331.532682 40.929525 247.138597 5.230575 247.138597"></polygon> <polygon id="Fill-16" fill="#E9B488" mask="url(#mask-2)" points="0 247.140171 40.92795 247.140171 40.92795 239.257137 0 239.257137"></polygon> <polygon id="Fill-17" fill="#CF9970" mask="url(#mask-2)" points="40.929525 247.140171 102.861675 247.140171 102.861675 239.257137 40.929525 239.257137"></polygon> <polygon id="Fill-18" fill="#946F4F" mask="url(#mask-2)" points="40.92795 291.466104 98.00595 291.466104 98.00595 290.326919 40.92795 290.326919"></polygon> <path d="M78.5161125,257.491647 C78.5161125,258.692197 77.5396125,259.666169 76.3378875,259.666169 L62.5960125,259.666169 C61.3927125,259.666169 60.4177875,258.692197 60.4177875,257.491647 C60.4177875,256.291098 61.3927125,255.315553 62.5960125,255.315553 L76.3378875,255.315553 C77.5396125,255.315553 78.5161125,256.291098 78.5161125,257.491647" id="Fill-19" fill="#DBA276" mask="url(#mask-2)"></path> <path d="M78.5161125,280.329943 C78.5161125,281.530493 77.5396125,282.504464 76.3378875,282.504464 L62.5960125,282.504464 C61.3927125,282.504464 60.4177875,281.530493 60.4177875,280.329943 C60.4177875,279.12782 61.3927125,278.155422 62.5960125,278.155422 L76.3378875,278.155422 C77.5396125,278.155422 78.5161125,279.12782 78.5161125,280.329943" id="Fill-20" fill="#DBA276" mask="url(#mask-2)"></path> <polygon id="Fill-21" fill="#946F4F" mask="url(#mask-2)" points="68.8968 331.534256 70.0371 331.534256 70.0371 290.898085 68.8968 290.898085"></polygon> <path d="M65.1355425,313.516254 C63.9322425,313.516254 62.9588925,312.542282 62.9588925,311.340159 L62.9588925,311.089979 C62.9588925,309.887856 63.9322425,308.917031 65.1355425,308.917031 C66.3388425,308.917031 67.3137675,309.887856 67.3137675,311.089979 L67.3137675,311.340159 C67.3137675,312.542282 66.3388425,313.516254 65.1355425,313.516254" id="Fill-22" fill="#DBA276" mask="url(#mask-2)"></path> <path d="M73.797255,313.516254 C72.59553,313.516254 71.620605,312.542282 71.620605,311.340159 L71.620605,311.089979 C71.620605,309.887856 72.59553,308.917031 73.797255,308.917031 C75.000555,308.917031 75.97548,309.887856 75.97548,311.089979 L75.97548,311.340159 C75.97548,312.542282 75.000555,313.516254 73.797255,313.516254" id="Fill-23" fill="#DBA276" mask="url(#mask-2)"></path> <path d="M70.2719325,206.192927 C59.7934575,206.192927 54.8700075,193.644586 54.8700075,193.644586 C54.8700075,193.644586 68.0984325,177.456832 92.5629075,177.456832 C116.098132,177.456832 131.145682,201.881647 151.849057,197.595543 C162.363757,195.417875 168.551932,202.237249 168.551932,202.237249 C168.551932,202.237249 163.445782,206.192927 151.849057,206.192927 L70.2719325,206.192927 Z" id="Fill-24" fill="#FCDACD" mask="url(#mask-2)"></path> <path d="M382.987867,79.0438502 L382.987867,79.0438502 C377.006017,76.5389024 374.189917,69.6660303 376.695742,63.6900303 L389.018542,34.3151109 L410.679517,43.3829592 L398.356717,72.7578787 C395.850892,78.7338787 388.968142,81.5472246 382.987867,79.0438502" id="Fill-25" fill="#F3A396" mask="url(#mask-2)"></path> <path d="M396.474592,43.8084227 C396.474592,43.8084227 391.916542,57.7587166 401.101942,66.2129156 L405.126067,56.6226787 L395.698117,44.0271336" id="Fill-26" fill="#1A1A1A" mask="url(#mask-2)"></path> <path d="M436.016542,24.8823773 C436.547317,20.9329934 436.397692,14.9837422 429.932317,7.8858654 C419.249092,-3.8395564 406.762492,6.33758104 406.762492,6.33758104 C403.349467,4.4525763 399.852967,4.46516398 396.707692,7.18724929 C393.760867,9.73940095 392.782792,16.4502066 392.382742,18.7600455 L389.681617,33.3507374 L397.570792,21.7008417 C403.590442,14.384254 408.835192,12.5732019 408.835192,12.5732019 L421.376917,16.6673441 L420.469717,36.2065668 L431.877442,33.191818 C433.488667,32.6253725 434.575417,29.5162161 435.249517,27.6280645 C435.640117,26.53451 435.925192,25.5636853 436.016542,24.8823773" id="Fill-27" fill="#1A1A1A" mask="url(#mask-2)"></path> <path d="M406.402132,61.57829 L406.402132,61.57829 C397.504957,57.8523374 393.313882,47.6264227 397.043482,38.7379488 L409.252882,9.63366445 L424.766632,14.3320152 C430.294882,16.6465744 433.718932,29.2641479 431.403682,34.7869915 L423.013657,54.7856645 C420.304657,61.2431431 412.865932,64.2846408 406.402132,61.57829" id="Fill-28" fill="#F3A396" mask="url(#mask-2)"></path> <path d="M428.374485,39.2508967 L429.883335,50.4665175 C430.135335,51.6403185 428.96511,52.6111431 427.857885,52.1469725 L419.916735,48.8175318 L428.374485,39.2508967 Z" id="Fill-29" fill="#F3A396" mask="url(#mask-2)"></path> <path d="M435.642007,20.8519602 C435.273457,20.8739886 427.097632,12.7313346 427.097632,12.7313346 L416.823907,12.9736474 C416.823907,12.9736474 416.822332,12.9846616 416.820757,12.9941024 C407.945632,12.8336095 405.416182,26.1954294 405.416182,26.1954294 C414.861457,26.70051 418.602082,21.2705005 420.657457,18.0338938 C420.920482,21.2862351 426.347932,29.8741782 432.948757,32.420036 L435.016732,27.9797327 C435.016732,27.9797327 436.010557,20.8299318 435.642007,20.8519602" id="Fill-30" fill="#1A1A1A" mask="url(#mask-2)"></path> <polygon id="Fill-31" fill="#1A1A1A" mask="url(#mask-2)" points="411.526395 19.5612512 403.66872 35.4626351 398.69802 28.8163412 405.988695 18.496019"></polygon> <path d="M425.33442,40.7083924 C424.957995,41.6068379 423.92322,42.0300986 423.02547,41.6540417 C422.126145,41.2764114 421.70247,40.2442218 422.078895,39.3457763 C422.45532,38.4473308 423.490095,38.0240701 424.38942,38.4017005 C425.288745,38.7777573 425.710845,39.8099469 425.33442,40.7083924" id="Fill-32" fill="#1A1A1A" mask="url(#mask-2)"></path> <path d="M428.61987,37.482328 L429.975945,34.415655 L424.19412,32.1168303 C423.464895,31.8273137 422.65692,31.7958445 421.905645,32.0287166 L417.41847,33.419655 L422.557695,34.7256265 L428.61987,37.482328 Z" id="Fill-33" fill="#1A1A1A" mask="url(#mask-2)"></path> <path d="M422.638177,52.8459033 C421.784527,52.9308701 421.100977,52.896254 420.349702,52.8223014 C419.617327,52.7436284 418.895977,52.5957232 418.193527,52.3848796 C416.787052,51.9773536 415.476652,51.2409744 414.416677,50.281164 C414.197752,50.0829081 414.180427,49.7446142 414.378877,49.5259033 C414.553702,49.3323678 414.837202,49.2961782 415.052977,49.4267754 L415.070302,49.4377896 C416.149177,50.0907754 417.343027,50.4872872 418.566802,50.6037232 C419.177902,50.6666616 419.792152,50.6745289 420.400102,50.6257517 C420.989152,50.5785479 421.652227,50.4699791 422.118427,50.3236474 C422.801977,50.1096569 423.528052,50.4872872 423.743827,51.1685953 C423.959602,51.8499033 423.581602,52.5768417 422.899627,52.7924057 C422.817727,52.817581 422.721652,52.8364626 422.638177,52.8459033" id="Fill-34" fill="#1A1A1A" mask="url(#mask-2)"></path> <path d="M418.73076,53.6694521 L422.47926,55.2397649" id="Stroke-35" stroke="#D26665" stroke-width="0.495" stroke-linecap="round" stroke-linejoin="round" mask="url(#mask-2)"></path> <path d="M419.31981,57.0660796 C419.31981,57.0660796 420.014385,57.5837479 420.97041,57.7568284" id="Stroke-36" stroke="#D26665" stroke-width="0.371" stroke-linecap="round" stroke-linejoin="round" mask="url(#mask-2)"></path> <path d="M428.0031,6.01848341 C417.9294,-3.36877725 407.362725,2.99901422 407.362725,2.99901422 C403.2504,0.390218009 397.862325,2.47033175 397.862325,2.47033175 C376.911675,9.47694787 387.26415,33.5807773 387.26415,33.5807773 L381.709125,46.8182938 C392.576625,51.3687393 401.2281,41.2797156 401.2281,41.2797156 L409.057425,20.7570806 L409.177125,20.7177441 L414.658125,15.2940284 L421.3755,16.6676588 C421.3755,16.6676588 438.0768,15.4057441 428.0031,6.01848341" id="Fill-37" fill="#1A1A1A" mask="url(#mask-2)"></path> <path d="M403.730617,37.2411166 C403.403017,40.6712588 400.909792,43.2407185 398.161417,42.9795242 C395.411467,42.7183299 393.447442,39.7256095 393.773467,36.2954673 C394.099492,32.8653251 396.594292,30.2958654 399.342667,30.5570597 C402.092617,30.818254 404.056642,33.8109744 403.730617,37.2411166" id="Fill-38" fill="#F3A396" mask="url(#mask-2)"></path> <path d="M398.58021,34.0150521 C398.58021,34.0150521 401.766435,34.2526445 402.02631,39.196455" id="Stroke-39" stroke="#D26665" stroke-width="0.495" stroke-linecap="round" stroke-linejoin="round" mask="url(#mask-2)"></path> <path d="M401.511915,36.6164531 C401.511915,36.6164531 397.788615,36.9689081 398.77299,40.251145" id="Stroke-40" stroke="#D26665" stroke-width="0.495" stroke-linecap="round" stroke-linejoin="round" mask="url(#mask-2)"></path> <path d="M414.269572,211.892785 L410.769922,173.388652 L366.416347,173.388652 L369.155272,193.665827 C370.453072,203.271799 378.480847,210.550624 388.176547,210.914093 L414.269572,211.892785 Z" id="Fill-41" fill="#03101E" mask="url(#mask-2)"></path> <path d="M366.415875,173.388337 C366.415875,173.388337 365.05665,174.903579 363.801375,177.990707 C357.517125,193.443655 369.25245,210.31429 385.945875,210.493664 L402.946425,210.676186 L410.771025,173.388337 L366.415875,173.388337 Z" id="Fill-42" fill="#04162E" mask="url(#mask-2)"></path> <path d="M473.26356,210.711903 C482.664735,210.63323 489.982185,202.347391 488.690685,192.86887 C487.688985,185.52396 481.41576,180.013704 474.024285,179.351278 L385.01631,173.463391 C373.328235,172.417041 363.17736,182.455714 363.94596,194.154387 C364.75551,206.507619 377.637435,211.649685 387.789885,211.539543 L473.26356,210.711903 Z" id="Fill-43" fill="#04162E" mask="url(#mask-2)"></path> <polygon id="Fill-44" fill="#FFFFFF" mask="url(#mask-2)" points="467.36046 309.228419 470.35296 280.152457 456.724485 280.213822 453.706785 309.291357"></polygon> <path d="M468.401692,309.223699 L485.424292,318.483509 L495.005017,320.354353 C499.408717,321.213462 502.717792,324.868609 503.132017,329.33094 L503.325742,331.418921 L450.098617,331.653367 L451.585417,309.299225 L468.401692,309.223699 Z" id="Fill-45" fill="#1A1A1A" mask="url(#mask-2)"></path> <path d="M475.56306,313.672184 C475.56306,313.672184 472.34376,303.507634 476.10801,301.816165 C481.49136,299.39461 480.55896,308.043918 475.56306,313.672184 Z" id="Stroke-46" stroke="#FFFFFF" stroke-width="0.309" stroke-linecap="round" stroke-linejoin="round" mask="url(#mask-2)"></path> <path d="M475.675987,313.601536 C475.675987,313.601536 467.497012,306.753839 464.496637,309.586066 C460.204762,313.636152 468.563287,316.071867 475.675987,313.601536 Z" id="Stroke-47" stroke="#FFFFFF" stroke-width="0.309" stroke-linecap="round" stroke-linejoin="round" mask="url(#mask-2)"></path> <polygon id="Fill-48" fill="#FFFFFF" mask="url(#mask-2)" points="449.891505 331.999685 503.53758 331.76524 503.51553 327.172311 449.87103 327.40833"></polygon> <path d="M457.878015,193.981621 L451.458315,297.400408 L472.046715,297.373659 L488.625165,197.471555 C490.190715,188.04181 482.911065,179.461735 473.341365,179.461735 C465.157665,179.461735 458.38359,185.821659 457.878015,193.981621" id="Fill-49" fill="#04162E" mask="url(#mask-2)"></path> <path d="M378.2898,65.1999223 C378.2898,65.1999223 366.992325,67.2580076 361.193175,82.5457422 C349.950825,112.183429 366.415875,173.387865 366.415875,173.387865 L410.771025,173.387865 C410.771025,173.387865 413.864325,88.6995431 398.394675,66.2368322 L378.2898,65.1999223 Z" id="Fill-50" fill="#007DDC" mask="url(#mask-2)"></path> <path d="M403.50366,70.9751488 L401.56641,77.3224853 C400.88601,78.5151678 399.488985,79.0721725 398.181735,78.6740872 L367.87086,69.9272246 C366.851835,69.6156796 366.571485,68.2782389 367.37946,67.5859166 L372.58326,63.1408929 C372.862035,62.9033005 373.227435,62.7931583 373.592835,62.8387886 L401.17266,66.2516227 C403.38711,66.5254047 404.61876,69.0224853 403.50366,70.9751488" id="Fill-51" fill="#289DE5" mask="url(#mask-2)"></path> <path d="M451.292782,110.174121 L451.292782,110.174121 C453.700957,112.246368 453.970282,115.877913 451.896007,118.282159 L442.466482,129.07924 C440.392207,131.48506 436.757107,131.754121 434.350507,129.681875 C431.942332,127.608055 431.671432,123.978083 433.747282,121.572264 L443.176807,110.775183 C445.251082,108.370936 448.886182,108.101875 451.292782,110.174121" id="Fill-52" fill="#F3A396" mask="url(#mask-2)"></path> <path d="M442.415767,106.534866 C442.029892,109.640876 442.894567,111.215909 442.894567,111.215909 C441.059692,113.253539 441.313267,116.413046 443.450542,118.132838 L444.962542,119.352269 C446.940742,120.943037 449.816692,120.713312 451.516117,118.829881 L451.613767,118.722885 C451.613767,118.722885 457.795642,114.853748 462.741142,107.609539 C469.130917,98.2490275 467.744917,90.9151318 464.689417,89.1544303 C461.802442,87.4912834 453.710092,98.1341649 450.659317,102.047359 L451.275142,96.686582 C451.353892,96.0068474 450.980617,95.3554351 450.355342,95.0769327 C449.681242,94.7764019 448.890592,94.9872455 448.454317,95.5804398 L444.995617,100.285084 C443.641117,102.129179 442.696117,104.265937 442.415767,106.534866" id="Fill-53" fill="#F3A396" mask="url(#mask-2)"></path> <path d="M389.18565,158.127037 L434.414925,109.89735 L452.927475,126.324269 L406.635075,175.579852 C401.648625,180.644819 393.4224,180.467018 388.661175,175.191208 C384.2307,170.28044 384.459075,162.754582 389.18565,158.127037" id="Fill-54" fill="#007DDC" mask="url(#mask-2)"></path> <path d="M367.68312,95.2770768 C372.141945,112.067465 380.78397,150.234878 385.082145,169.426366 C386.518545,175.842935 392.755545,179.985854 399.235095,178.835655 C406.10997,177.616224 410.590845,170.930593 409.100895,164.115939 L392.66577,88.9077118 C390.893895,81.7044133 383.41422,77.4796739 376.32357,79.6777972 C369.722745,81.7248682 365.911245,88.6024607 367.68312,95.2770768" id="Fill-55" fill="#007DDC" mask="url(#mask-2)"></path> <path d="M396.244642,105.284753 L410.323567,169.434705" id="Stroke-56" stroke="#005F99" stroke-width="0.719" mask="url(#mask-2)"></path> <path d="M385.46109,172.968853 L367.68249,95.2777062" id="Stroke-57" stroke="#005F99" stroke-width="0.719" mask="url(#mask-2)"></path> <polygon id="Fill-58" fill="#03101E" mask="url(#mask-2)" points="451.61424 118.722256 442.89504 111.21528 440.74044 113.566028 449.102115 121.480531"></polygon> <path d="M447.2622,113.655244 C447.2622,115.595319 445.6872,117.167206 443.7468,117.167206 C441.804825,117.167206 440.229825,115.595319 440.229825,113.655244 C440.229825,111.715168 441.804825,110.143282 443.7468,110.143282 C445.6872,110.143282 447.2622,111.715168 447.2622,113.655244" id="Fill-59" fill="#03101E" mask="url(#mask-2)"></path> </g> </g> </g> </g> </g> </svg> 