<?xml version="1.0" encoding="UTF-8"?> <svg xmlns="http://www.w3.org/2000/svg" width="94" height="44" viewBox="0 0 94 44" fill="none"> <g clip-path="url(#clip0)"> <g filter="url(#filter0_d)"> <path fill-rule="evenodd" clip-rule="evenodd" d="M0 22C0 9.84974 9.84974 0 22 0H72C84.1503 0 94 9.84974 94 22C94 34.1503 84.1503 44 72 44H22C9.84973 44 0 34.1503 0 22Z" fill="white"></path> <path fill-rule="evenodd" clip-rule="evenodd" d="M0 22C0 9.84974 9.84974 0 22 0H72C84.1503 0 94 9.84974 94 22C94 34.1503 84.1503 44 72 44H22C9.84973 44 0 34.1503 0 22Z" fill="#0099FF"></path> </g> <path d="M13.8594 22.3477C13.8594 21.3242 13.9688 20.3359 14.1875 19.3828C14.4062 18.4297 14.7461 17.5898 15.207 16.8633C15.668 16.1367 16.2695 15.5547 17.0117 15.1172C17.7617 14.6719 18.6641 14.4492 19.7188 14.4492C20.7734 14.4492 21.6719 14.6719 22.4141 15.1172C23.1641 15.5547 23.7734 16.1367 24.2422 16.8633C24.7109 17.5898 25.0508 18.4297 25.2617 19.3828C25.4727 20.3359 25.5781 21.3242 25.5781 22.3477C25.5781 23.3711 25.4727 24.3594 25.2617 25.3125C25.0508 26.2578 24.7148 27.1016 24.2539 27.8438C23.793 28.5781 23.1875 29.168 22.4375 29.6133C21.6953 30.0508 20.7891 30.2695 19.7188 30.2695C18.6484 30.2695 17.7383 30.0508 16.9883 29.6133C16.2461 29.168 15.6406 28.5781 15.1719 27.8438C14.7109 27.1016 14.3789 26.2578 14.1758 25.3125C13.9648 24.3594 13.8594 23.3711 13.8594 22.3477ZM16.2852 22.3477C16.2852 23.0664 16.332 23.7617 16.4258 24.4336L22.4258 18.4102C22.1602 17.8789 21.8086 17.4492 21.3711 17.1211C20.9414 16.793 20.3906 16.6289 19.7188 16.6289C18.6016 16.6289 17.75 17.1328 17.1641 18.1406C16.5781 19.1484 16.2852 20.5508 16.2852 22.3477ZM19.7188 28.0781C20.4062 28.0781 20.9688 27.9102 21.4062 27.5742C21.8516 27.2383 22.1992 26.8008 22.4492 26.2617C22.707 25.7148 22.8867 25.0977 22.9883 24.4102C23.0977 23.7227 23.1523 23.0352 23.1523 22.3477C23.1523 21.6914 23.1055 21.0508 23.0117 20.4258L17.0586 26.4023C17.3242 26.9102 17.6641 27.3164 18.0781 27.6211C18.5 27.9258 19.0469 28.0781 19.7188 28.0781ZM38.2695 16.8984C37.3086 17.9375 36.5312 18.9219 35.9375 19.8516C35.3438 20.7734 34.8828 21.7344 34.5547 22.7344C34.2266 23.7344 34 24.8203 33.875 25.9922C33.75 27.1562 33.6797 28.4922 33.6641 30H31.1914C31.207 28.5781 31.3008 27.2812 31.4727 26.1094C31.6523 24.9297 31.9336 23.8203 32.3164 22.7812C32.6992 21.7344 33.2031 20.7383 33.8281 19.793C34.4531 18.8398 35.2227 17.875 36.1367 16.8984H30.0781V19.4648H27.9219V14.707H38.2695V16.8984ZM47.3867 22.0312H44.4336V19.0781H47.3867V22.0312ZM47.3867 30H44.4336V27.0469H47.3867V30ZM64.332 25.8516C64.332 26.5234 64.1953 27.1328 63.9219 27.6797C63.6484 28.2188 63.2812 28.6797 62.8203 29.0625C62.3672 29.4453 61.8398 29.7422 61.2383 29.9531C60.6445 30.1641 60.0195 30.2695 59.3633 30.2695C58.6211 30.2695 57.9297 30.168 57.2891 29.9648C56.6562 29.7617 56.0938 29.457 55.6016 29.0508C55.1172 28.6445 54.7227 28.1211 54.418 27.4805C54.1133 26.8398 53.9297 26.0781 53.8672 25.1953L56.1406 24.8203C56.2188 25.8281 56.5469 26.625 57.125 27.2109C57.7031 27.7891 58.4492 28.0781 59.3633 28.0781C60.1289 28.0781 60.7422 27.875 61.2031 27.4688C61.6719 27.0625 61.9062 26.5234 61.9062 25.8516C61.9062 24.9375 61.6094 24.2852 61.0156 23.8945C60.4219 23.5039 59.3828 23.3086 57.8984 23.3086V21.1172C58.4219 21.1172 58.9062 21.0664 59.3516 20.9648C59.8047 20.8633 60.1992 20.7109 60.5352 20.5078C60.8711 20.3047 61.1328 20.0625 61.3203 19.7812C61.5156 19.4922 61.6133 19.1562 61.6133 18.7734C61.6133 18.1328 61.4219 17.6172 61.0391 17.2266C60.6562 16.8281 60.0977 16.6289 59.3633 16.6289C58.4023 16.6289 57.6641 16.8906 57.1484 17.4141C56.6406 17.9297 56.3867 18.7578 56.3867 19.8984H54.0781C54.0781 19 54.207 18.2109 54.4648 17.5312C54.7227 16.8516 55.082 16.2852 55.543 15.832C56.0039 15.3711 56.5586 15.0273 57.207 14.8008C57.8555 14.5664 58.5742 14.4492 59.3633 14.4492C60.0195 14.4492 60.6289 14.5508 61.1914 14.7539C61.7617 14.9492 62.2578 15.2344 62.6797 15.6094C63.1094 15.9844 63.4414 16.4375 63.6758 16.9688C63.918 17.5 64.0391 18.1016 64.0391 18.7734C64.0391 19.2031 63.9688 19.6094 63.8281 19.9922C63.6953 20.375 63.5 20.7148 63.2422 21.0117C62.9922 21.3086 62.6758 21.5508 62.293 21.7383C61.918 21.918 61.5 22.0234 61.0391 22.0547C61.5703 22.1016 62.0391 22.2383 62.4453 22.4648C62.8516 22.6914 63.1953 22.9766 63.4766 23.3203C63.7578 23.6641 63.9688 24.0547 64.1094 24.4922C64.2578 24.9297 64.332 25.3828 64.332 25.8516ZM66.2656 22.3477C66.2656 21.3242 66.375 20.3359 66.5938 19.3828C66.8125 18.4297 67.1523 17.5898 67.6133 16.8633C68.0742 16.1367 68.6758 15.5547 69.418 15.1172C70.168 14.6719 71.0703 14.4492 72.125 14.4492C73.1797 14.4492 74.0781 14.6719 74.8203 15.1172C75.5703 15.5547 76.1797 16.1367 76.6484 16.8633C77.1172 17.5898 77.457 18.4297 77.668 19.3828C77.8789 20.3359 77.9844 21.3242 77.9844 22.3477C77.9844 23.3711 77.8789 24.3594 77.668 25.3125C77.457 26.2578 77.1211 27.1016 76.6602 27.8438C76.1992 28.5781 75.5938 29.168 74.8438 29.6133C74.1016 30.0508 73.1953 30.2695 72.125 30.2695C71.0547 30.2695 70.1445 30.0508 69.3945 29.6133C68.6523 29.168 68.0469 28.5781 67.5781 27.8438C67.1172 27.1016 66.7852 26.2578 66.582 25.3125C66.3711 24.3594 66.2656 23.3711 66.2656 22.3477ZM68.6914 22.3477C68.6914 23.0664 68.7383 23.7617 68.832 24.4336L74.832 18.4102C74.5664 17.8789 74.2148 17.4492 73.7773 17.1211C73.3477 16.793 72.7969 16.6289 72.125 16.6289C71.0078 16.6289 70.1562 17.1328 69.5703 18.1406C68.9844 19.1484 68.6914 20.5508 68.6914 22.3477ZM72.125 28.0781C72.8125 28.0781 73.375 27.9102 73.8125 27.5742C74.2578 27.2383 74.6055 26.8008 74.8555 26.2617C75.1133 25.7148 75.293 25.0977 75.3945 24.4102C75.5039 23.7227 75.5586 23.0352 75.5586 22.3477C75.5586 21.6914 75.5117 21.0508 75.418 20.4258L69.4648 26.4023C69.7305 26.9102 70.0703 27.3164 70.4844 27.6211C70.9062 27.9258 71.4531 28.0781 72.125 28.0781Z" fill="white"></path> </g> <defs> <filter id="filter0_d" x="-5" y="-3" width="104" height="54" filterUnits="userSpaceOnUse" color-interpolation-filters="sRGB"> <feFlood flood-opacity="0" result="BackgroundImageFix"></feFlood> <feColorMatrix in="SourceAlpha" type="matrix" values="0 0 0 0 0 0 0 0 0 0 0 0 0 0 0 0 0 0 127 0"></feColorMatrix> <feOffset dy="2"></feOffset> <feGaussianBlur stdDeviation="2.5"></feGaussianBlur> <feColorMatrix type="matrix" values="0 0 0 0 0 0 0 0 0 0 0 0 0 0 0 0 0 0 0.124945 0"></feColorMatrix> <feBlend mode="normal" in2="BackgroundImageFix" result="effect1_dropShadow"></feBlend> <feBlend mode="normal" in="SourceGraphic" in2="effect1_dropShadow" result="shape"></feBlend> </filter> <clipPath id="clip0"> <rect width="94" height="44" fill="white"></rect> </clipPath> </defs> </svg> 