<?xml version="1.0" encoding="UTF-8"?> <svg xmlns="http://www.w3.org/2000/svg" xmlns:xlink="http://www.w3.org/1999/xlink" width="57px" height="57px" viewBox="0 0 57 57"> <!-- Generator: Sketch 57.1 (83088) - https://sketch.com --> <title>Group 16</title> <desc>Created with Sketch.</desc> <defs> <circle id="path-1" cx="28.1250011" cy="28.1250011" r="28.1250011"></circle> </defs> <g id="Page-1" stroke="none" stroke-width="1" fill="none" fill-rule="evenodd"> <g id="mark" transform="translate(-338.000000, -21.000000)"> <g id="Group-8"> <g id="Group-7" transform="translate(197.000000, 21.000000)"> <g id="Group-6" transform="translate(141.300006, 0.000000)"> <g id="Group-16"> <g id="Group-15"> <g id="Group-2"> <mask id="mask-2" fill="white"> <use xlink:href="#path-1"></use> </mask> <use id="Oval" fill="#FBEFAA" xlink:href="#path-1"></use> <g id="Group-73" mask="url(#mask-2)"> <g transform="translate(-22.300006, 7.000000)"> <path d="M82.5645996,47.1136421 C76.8604214,40.6740788 60.176613,34.3490482 50.0010853,35.0542064 C39.7760619,34.3456173 23.1145672,40.7038472 17.4375711,47.1136421 C9.26043285,56.3463906 4.40265165,72.6267853 5.05907842,73.8241818 C5.88904446,75.3383344 16.9205031,78.7041831 24.3614941,78.3714832 C29.0742366,94.5246306 22.8728699,120.981584 23.8926033,122.249718 C25.6936185,124.489514 68.9396872,127.115794 76.1095674,122.249718 C77.4581227,121.334566 72.1325664,95.522831 75.6406766,78.3714832 C83.0816675,78.7041831 94.1131262,75.3383344 94.9430922,73.8241818 C95.599519,72.6267853 90.5219484,56.0967396 82.5645996,47.1136421" id="Fill-19" fill="#E2A346"></path> <path d="M57.718257,17.4474243 C57.4290698,26.9448078 58.5578133,33.482585 58.9590225,35.3968319 C59.2989444,37.0190184 57.6270362,40 50.052867,40 C44.0212327,40 41.6064684,37.322121 42.0516138,35.5462558 C42.7928464,32.5886755 44.0784613,26.5681583 42.5335926,19.7148181 C40.9888253,12.8614779 56.3792693,17.6234912 57.718257,17.4474243" id="Fill-21" fill="#BC7551"></path> <path d="M40.1954563,12 C35.9780478,10.2725818 34.940891,2.59028349 43.3080345,3.95365945 C39.0479272,-0.247234178 48.4202034,-1.7485301 51.3170723,2.68649536 C57.6633763,-0.619090624 61.4277148,2.8517649 58.4740485,5.11064385 C64.4382792,5.88190166 63.7062573,10.9631583 60.8566189,11.5322247 L40.1954563,12 Z" id="Fill-23" fill="#172755"></path> <path d="M60.7144451,15.3631476 C59.6962815,14.670951 58.8822574,15.5521733 58.8822574,15.5521733 C58.3189986,15.3843807 58.015526,15.42115 57.6861053,12.780901 C57.4859188,11.1773415 56.8527214,9.96643756 55.3285675,10.3990734 C52.2413374,11.2754277 49.1541074,12.151782 45.8095236,10.4136776 C43.7583979,9.34777969 42.6320829,10.4961239 42.4048333,12.103205 C42.0087175,14.9051357 41.6375363,16.8712103 40.9954192,16.8033682 C40.9954192,16.8033682 40.6251503,15.4345113 39.3610867,15.8810263 C38.3208266,16.248513 39.7168612,21.5702343 41.1575956,21.2711075 C41.3251441,22.0416074 41.1911458,24.6829958 41.9442524,26.5233295 C42.6724243,28.3024499 46.6181756,32 49.9870858,32 C53.3560973,32 57.3018486,28.3024499 58.0299192,26.5233295 C58.7830258,24.6829958 58.6491289,22.0416074 58.816576,21.2711075 C60.1661875,21.2952407 61.6304375,15.9858449 60.7144451,15.3631476" id="Fill-25" fill="#BC7551"></path> <path d="M50.3260065,32 C46.7746433,32 44.0721913,29.4267682 43.075051,28.3205089 C42.9629169,28.1960535 42.9782079,28.0088267 43.1090657,27.9023624 C43.2399234,27.7957993 43.4370423,27.8102318 43.5490723,27.9346872 C44.4900416,28.9786694 47.0338624,31.4068845 50.3260065,31.4068845 C52.9238139,31.4068845 55.5125716,29.8485722 57.4286288,27.1315099 C57.5246397,26.9954888 57.7185339,26.9590122 57.861562,27.0502531 C58.0047982,27.141494 58.0430778,27.3256564 57.9471709,27.4616776 C55.9132585,30.3458996 53.1354956,32 50.3260065,32" id="Fill-27" fill="#804737"></path> <path d="M46.5205461,19 L46.4794539,19 C46.2146739,19 46,18.686113 46,18.2989631 L46,17.7010369 C46,17.313887 46.2146739,17 46.4794539,17 L46.5205461,17 C46.7853261,17 47,17.313887 47,17.7010369 L47,18.2989631 C47,18.686113 46.7853261,19 46.5205461,19" id="Fill-29" fill="#804737"></path> <path d="M53.5205461,19 L53.4794539,19 C53.2146739,19 53,18.686113 53,18.2989631 L53,17.7010369 C53,17.313887 53.2146739,17 53.4794539,17 L53.5205461,17 C53.7853261,17 54,17.313887 54,17.7010369 L54,18.2989631 C54,18.686113 53.7853261,19 53.5205461,19" id="Fill-31" fill="#804737"></path> <path d="M49.5923241,24 C49.2648521,24 48.839068,23.9860594 48.2834435,23.9502715 C48.1168367,23.9395559 47.9902195,23.7913068 48.0005947,23.6192337 C48.0109699,23.4472646 48.1543081,23.3168053 48.3211163,23.3272088 C49.0925038,23.3768332 50.0154893,23.3932707 50.3161672,23.3415655 C50.3705612,23.0609844 50.3609918,22.2262114 50.3525306,21.4817404 C50.3179803,18.4633869 50.3837567,15.6993978 51.5526232,15.0383624 C51.6990841,14.955655 51.8826135,15.0111054 51.9627942,15.1621635 C52.042975,15.3134297 51.9892861,15.5030846 51.8428253,15.5858961 C50.8955639,16.1216739 50.9339419,19.4724177 50.9568075,21.474354 C50.9772557,23.2602105 50.9583185,23.6609515 50.711128,23.8472773 C50.6533092,23.8908678 50.5085607,24 49.5923241,24 L49.5923241,24 Z" id="Fill-33" fill="#804737"></path> <path d="M49.5046336,26 C48.7673716,26 48.0073019,25.8728833 47.3120601,25.5226039 C46.4094141,25.0676804 46.0498838,24.4492932 46.0350531,24.4232054 C45.9524735,24.2781106 46.0207843,24.1022381 46.1876288,24.0304235 C46.3545857,23.9587066 46.5567092,24.0181125 46.6391765,24.1631095 C46.6863649,24.2436201 47.8549509,26.1561357 51.5578891,25.1006076 C51.7348454,25.0501908 51.9251718,25.1341211 51.9831461,25.2879118 C52.0411204,25.4417026 51.9447213,25.6073158 51.7677649,25.6577326 C51.1238685,25.8412262 50.3285199,26 49.5046336,26" id="Fill-35" fill="#804737"></path> <path d="M44.1097747,16 C44.1097747,16 46.7932219,14.9791101 48.7811229,15.4115069 C49.1738808,15.496835 49.095668,14.0684921 48.0692367,14.0076563 C46.965589,13.9421929 44.4253161,14.2988554 44.1097747,14.9881395 C43.8627816,15.5275351 44.1097747,16 44.1097747,16" id="Fill-37" fill="#172755"></path> <path d="M55.8916706,16 C55.8916706,16 53.2435535,15.1379951 51.2818251,15.6125375 C50.8942382,15.7061826 50.779201,14.285652 51.7792381,14.071854 C52.7983497,13.8539683 55.5802835,14.1330453 55.8916706,14.8895138 C56.1354118,15.4814841 55.8916706,16 55.8916706,16" id="Fill-39" fill="#172755"></path> <path d="M40.1457086,12.2609395 C41.419679,11.0029201 44.604656,8.00529841 50.2895399,8 C56.1750905,7.99450723 59.9021524,10.6252287 60.7776326,11.8600787 C61.6531128,13.0950345 59.7041259,16.0504437 59.0676992,15.6927477 C58.4312725,15.3350516 56.040331,12.5783272 50.6226306,12.7330009 C42.5832625,12.9626838 41.6843237,17.6400275 41.2319093,16.925905 C40.7793934,16.2118883 39.5879847,12.8117131 40.1457086,12.2609395" id="Fill-41" fill="#E2A346"></path> <path d="M50.3268468,43 L50.3267421,43 C45.2824936,43 41.6774388,41.7889559 39.6120351,39.4004533 C38.0183317,37.5575645 38,35.6964405 38,35.6181425 C38,35.2768248 38.2814698,35 38.6285146,35 C38.9745118,35 39.2552484,35.2749704 39.2570291,35.6149487 C39.2575529,35.6437954 39.2965208,37.1675166 40.6240483,38.66167 C42.4270471,40.6911348 45.7821627,41.763715 50.3267421,41.763715 C54.6928233,41.763715 57.8700692,40.817648 59.5147871,39.0276104 C60.8833776,37.5381961 60.741019,35.9878947 60.7394477,35.9724411 C60.7044604,35.6327719 60.955971,35.329573 61.3013398,35.29506 C61.6462895,35.2608561 61.9549949,35.5080101 61.990087,35.8476794 C61.9988862,35.9331891 62.1861835,37.9641992 60.447398,39.8565394 C58.5308475,41.9422552 55.1253461,43 50.3268468,43 L50.3268468,43 Z" id="Fill-43" fill="#FFFFFF"></path> </g> </g> </g> </g> </g> </g> </g> </g> </g> </g> </svg> 