<?xml version="1.0" encoding="UTF-8"?> <svg xmlns="http://www.w3.org/2000/svg" xmlns:xlink="http://www.w3.org/1999/xlink" width="344px" height="493px" viewBox="0 0 344 493"> <!-- Generator: Sketch 57.1 (83088) - https://sketch.com --> <title>Group 20</title> <desc>Created with Sketch.</desc> <defs> <polygon id="path-1" points="0 0.27996 97.8042013 0.27996 97.8042013 257.59996 0 257.59996"></polygon> <polygon id="path-3" points="0 488.132 321.4996 488.132 321.4996 0.3992 0 0.3992"></polygon> </defs> <g id="Page-1" stroke="none" stroke-width="1" fill="none" fill-rule="evenodd"> <g id="masha-copy" transform="translate(-697.000000, -2180.000000)"> <g id="Group-18-Copy-3" transform="translate(223.000000, 2180.000000)"> <g id="Group-20" transform="translate(474.000000, 0.000000)"> <path d="M69.5195763,310.34924 C62.7747762,319.939641 57.5703761,332.987241 61.1815761,345.030841 C64.7819762,357.037641 76.2955764,364.441241 81.3275764,375.845241 C84.1715765,382.291241 84.2475765,389.378442 84.3551765,396.297642 C84.4959765,405.354842 82.7267765,414.973242 88.8479766,422.627642 C92.4687766,427.155242 97.9327767,429.830442 103.457577,431.587642 C114.553177,435.117242 126.177977,436.774042 136.033577,443.440442 C152.225177,454.392043 172.109978,458.220843 191.405578,457.038043 C201.191578,456.438043 210.895578,454.595643 220.268779,451.735243 C231.159179,448.411242 240.838779,442.527642 251.804379,439.375642 C270.808379,433.913242 296.79478,433.838442 307.91558,414.610442 C315.40318,401.665242 317.99678,385.664842 312.17238,371.560041 C309.40278,364.853641 304.11678,359.731641 301.10558,353.147241 C296.94598,344.050441 295.82398,333.678041 298.60318,324.014041 C298.71878,323.616841 298.83918,323.220841 298.96478,322.826841 C301.86838,313.79164 307.71358,306.02284 310.13078,296.82564 C315.12158,277.83764 304.09358,257.76084 289.59718,245.556039 C283.573179,240.484439 276.842779,236.263239 269.512379,233.857239 C249.293979,227.220439 226.828779,234.901239 206.549178,228.481639 C190.991578,223.556839 178.218778,210.755639 162.366778,207.054039 C150.185177,204.209239 137.021177,207.245639 126.672777,214.680839 C116.324777,222.116039 108.815577,233.752039 105.392377,246.566839 C102.220777,258.44084 102.320377,271.48364 96.6951767,282.27004 C91.8823766,291.49844 82.9631765,296.47764 75.7215764,303.17284 C73.4675763,305.25644 71.3859763,307.69524 69.5195763,310.34924" id="Fill-1" fill="#EAF1F8"></path> <polygon id="Rectangle" fill="#97C4DE" points="3.50344753e-14 487 344 487 344 493 3.50344753e-14 493"></polygon> <g id="Group-109" transform="translate(20.000000, 0.000000)"> <path d="M162.0188,486.79204 L69.578,486.79204 L7.344,113.85404 C6.8424,110.84724 9.1604,108.11004 12.2088,108.11004 L98.8264,108.11004 L162.0188,486.79204 Z" id="Fill-1" fill="#F5DFD4"></path> <polygon id="Fill-3" fill="#D3BDB4" points="169.83756 486.79204 162.01876 486.79204 98.82636 108.11004 106.64516 108.11004"></polygon> <g id="Group-7" transform="translate(0.000000, 230.532000)"> <mask id="mask-2" fill="white"> <use xlink:href="#path-1"></use> </mask> <g id="Clip-6"></g> <path d="M2.96136,254.92036 L95.11416,254.92036 L93.12576,2.95956 L51.34896,2.95956 L2.96136,254.92036 Z M96.46456,257.59996 L1.33976,257.59996 C0.94016,257.59996 0.56136,257.42156 0.30696,257.11316 C0.05256,256.80596 -0.05104,256.40036 0.02376,256.00756 L48.92616,1.36716 C49.04736,0.73596 49.59976,0.27996 50.24176,0.27996 L94.45456,0.27996 C95.19056,0.27996 95.78856,0.87316 95.79456,1.60916 L97.8042013,256.24956 C97.80696,256.60676 97.66736,256.95036 97.41576,257.20356 C97.16416,257.45756 96.82176,257.59996 96.46456,257.59996 L96.46456,257.59996 Z" id="Fill-5" fill="#27242D" mask="url(#mask-2)"></path> </g> <path d="M96.01292,430.88684 L12.33332,430.88684 C11.59332,430.88684 10.99332,430.28684 10.99332,429.54724 C10.99332,428.80724 11.59332,428.20724 12.33332,428.20724 L96.01292,428.20724 C96.75292,428.20724 97.35292,428.80724 97.35292,429.54724 C97.35292,430.28684 96.75292,430.88684 96.01292,430.88684" id="Fill-8" fill="#27242D"></path> <path d="M150.37428,309.2008 C100.70868,327.4956 115.64708,272.3968 102.59068,257.1636 C126.18428,261.9732 141.03588,283.3496 150.37428,309.2008" id="Fill-10" fill="#5E9B84"></path> <path d="M104.94108,258.74264 C107.96868,263.84064 109.16388,271.39344 110.41828,279.32504 C112.36068,291.60064 114.36828,304.29424 123.18148,309.46344 C129.13828,312.95744 137.61908,312.67544 149.08508,308.59864 C138.73788,280.48424 123.89748,263.72904 104.94108,258.74264 M133.09068,313.89184 C128.85068,313.89184 125.22708,312.99304 122.16468,311.19664 C112.53228,305.54704 110.44868,292.37584 108.43308,279.63904 C107.02548,270.73744 105.69508,262.32984 101.82788,257.81744 L99.92228,255.59384 L102.79148,256.17904 C123.92068,260.48624 140.24828,278.21024 151.31948,308.85904 L151.65868,309.79864 L150.72188,310.14304 C143.93588,312.64304 138.08588,313.89184 133.09068,313.89184" id="Fill-12" fill="#5E9B84"></path> <path d="M167.01412,422.04016 L165.00572,421.98136 C165.02412,421.34016 166.69892,357.32736 149.42932,309.54216 L151.31932,308.85896 C168.72092,357.00976 167.03332,421.39576 167.01412,422.04016" id="Fill-14" fill="#5E9B84"></path> <path d="M175.00628,308.85248 C175.66308,272.77888 179.84948,236.97288 192.05508,218.53088 C190.76868,247.42328 238.92748,288.42728 175.00628,308.85248" id="Fill-16" fill="#5E9B84"></path> <path d="M191.11256,221.99868 C181.94576,238.20628 176.87896,266.91628 176.03816,307.45988 C191.57096,302.29948 201.06216,295.60428 205.03696,287.01348 C210.54496,275.10788 204.65856,260.98468 198.96656,247.32628 C195.24856,238.40508 191.70976,229.91308 191.11256,221.99868 L191.11256,221.99868 Z M173.97616,310.23668 L174.00176,308.83428 C174.80656,264.58908 180.59896,234.01988 191.21696,217.97588 L193.22056,214.94908 L193.05896,218.57508 C192.68296,227.02428 196.63616,236.50988 200.82136,246.55308 C206.68096,260.61228 212.73936,275.15028 206.86056,287.85748 C202.52376,297.23148 192.20416,304.41188 175.31216,309.80948 L173.97616,310.23668 Z" id="Fill-18" fill="#5E9B84"></path> <path d="M179.69652,415.60296 C179.63012,415.06656 173.04692,361.31336 174.00172,308.83416 L176.01092,308.87096 C175.05852,361.20336 181.62412,414.81976 181.69092,415.35576 L179.69652,415.60296 Z" id="Fill-20" fill="#5E9B84"></path> <path d="M268.42272,369.59164 C259.92872,349.68244 215.66872,357.33284 205.33912,338.35444 C208.36672,333.34364 211.94432,328.42004 216.17112,323.70404 C251.00552,284.85004 275.79192,348.49004 268.42272,369.59164" id="Fill-22" fill="#5E9B84"></path> <path d="M206.50472,338.3716 C211.56552,346.888 224.49752,349.7256 237.01192,352.4728 C249.62152,355.2404 262.62712,358.0956 268.12512,366.8596 C271.00032,352.8164 262.81472,324.2072 247.41032,315.11 C237.92152,309.5068 227.37752,312.7108 216.91952,324.3744 C213.05992,328.6812 209.55792,333.388 206.50472,338.3716 L206.50472,338.3716 Z M268.51632,372.3712 L267.49872,369.986 C263.37312,360.3164 249.75272,357.3268 236.58072,354.436 C223.38592,351.54 209.74152,348.5448 204.45672,338.8348 L204.18072,338.3284 L204.47912,337.8352 C207.66792,332.5572 211.34992,327.5776 215.42312,323.0336 C229.54472,307.2824 241.16792,309.09 248.43192,313.3796 C256.09872,317.9072 262.89872,327.6364 267.08832,340.0724 C270.93672,351.4972 271.81192,362.9352 269.37152,369.9228 L268.51632,372.3712 Z" id="Fill-24" fill="#5E9B84"></path> <path d="M189.72584,415.65464 C189.65264,415.24264 182.67064,374.00824 204.47864,337.83584 L206.19984,338.87344 C184.79104,374.38304 191.63344,414.89904 191.70464,415.30424 L189.72584,415.65464 Z" id="Fill-26" fill="#5E9B84"></path> <polygon id="Fill-28" fill="#F4F2F2" points="225.9102 405.96508 127.431 405.96508 143.447 486.79188 220.3554 486.79188"></polygon> <path d="M266.02232,359.7844 C262.42192,350.0064 258.24232,339.2636 250.23472,332.3772 C253.36712,332.2964 256.44472,332.7228 259.49752,333.6756 C260.73512,334.0616 261.26432,332.122 260.03152,331.7376 C256.04592,330.4936 251.99752,330.0924 247.86272,330.532 C246.54512,329.6128 245.13632,328.7884 243.62032,328.0804 C236.24712,324.6368 228.05512,324.59 220.87512,327.3768 C222.47672,325.4528 225.12832,324.1272 227.16112,323.0476 C230.26272,321.4004 233.53392,320.208 236.92912,319.3332 C238.18072,319.0108 237.64992,317.072 236.39512,317.3952 C232.09912,318.502 227.98792,320.1372 224.17912,322.4244 C221.55992,323.9972 218.72232,325.7684 217.79712,328.7788 C214.17352,330.6868 210.90712,333.364 208.27272,336.732 C207.48432,337.7396 208.89712,339.1716 209.69352,338.1532 C211.92312,335.3028 214.62632,332.9752 217.61392,331.2184 C219.65352,335.7592 223.22352,339.3912 227.73992,341.5028 C228.90432,342.0472 229.92592,340.3152 228.75392,339.7676 C224.55272,337.8032 221.34632,334.5424 219.42032,330.3488 C219.44832,330.3052 219.47552,330.2608 219.49712,330.2092 C227.25912,326.4104 236.58432,326.3008 244.59592,330.8376 C245.08912,331.1172 245.55672,331.4236 246.02552,331.7292 C245.28352,337.0416 245.53072,342.2736 246.83432,347.4972 C247.14712,348.7512 249.08592,348.22 248.77232,346.9628 C247.62152,342.3512 247.31312,337.7212 247.86352,333.036 C256.34512,339.606 260.47752,350.5236 264.08432,360.3188 C264.52792,361.522 266.47072,361.002 266.02232,359.7844" id="Fill-30" fill="#51846F"></path> <path d="M197.99224,268.00356 C193.26304,276.29516 187.15864,283.56316 179.87064,289.68556 C180.24224,282.45436 180.88824,275.24476 181.78784,268.06476 C186.47064,264.50276 190.32304,260.16076 193.24304,255.04276 C193.88504,253.91756 192.14944,252.90396 191.50784,254.02836 C189.05984,258.31956 185.93104,262.08876 182.15624,265.23276 C183.12664,258.05316 184.35104,250.90476 185.85184,243.80156 C186.11824,242.53996 184.18184,242.00076 183.91424,243.26716 C179.82864,262.60636 177.66984,282.27916 177.478183,302.04436 C177.46584,303.33796 179.47544,303.33916 179.48784,302.04436 C179.51904,298.82356 179.60824,295.60556 179.74384,292.39076 C179.77184,292.37236 179.80064,292.35836 179.82784,292.33636 C187.90264,285.86756 194.60224,278.00356 199.72744,269.01796 C200.36904,267.89276 198.63384,266.87876 197.99224,268.00356" id="Fill-32" fill="#51846F"></path> <path d="M144.17036,302.19584 C138.94836,286.37224 128.42076,272.80944 114.34716,263.84944 C113.25316,263.15264 112.24396,264.89144 113.33276,265.58464 C119.95396,269.79984 125.76196,275.07744 130.57076,281.14224 C125.60676,280.56864 120.84436,279.23744 116.27796,277.13024 C115.11156,276.59224 114.08916,278.32384 115.26316,278.86584 C120.65996,281.35584 126.30356,282.83664 132.22196,283.31424 C136.42716,289.06264 139.77036,295.44904 142.07996,302.27904 C135.16476,302.34544 128.66836,299.63504 123.83236,294.55504 C122.93876,293.61624 121.51916,295.03904 122.41156,295.97584 C127.78716,301.62304 135.20996,304.61504 142.95636,304.26664 C143.35356,304.53544 143.91796,304.46584 144.26196,304.16424 C145.28796,303.87464 145.26396,302.21944 144.17036,302.19584" id="Fill-34" fill="#51846F"></path> <path d="M217.23248,414.38228 C216.17728,429.56068 215.12248,444.73868 214.06728,459.91668 C213.97728,461.20748 215.98808,461.20188 216.07688,459.91668 C217.13208,444.73868 218.18728,429.56068 219.24208,414.38228 C219.33208,413.09148 217.32208,413.09708 217.23248,414.38228" id="Fill-36" fill="#D1D3D4"></path> <path d="M213.55472,467.0598 C213.48312,469.665 213.41192,472.2702 213.34032,474.8754 C213.30472,476.169 215.31432,476.1682 215.34992,474.8754 C215.42152,472.2702 215.49312,469.665 215.56392,467.0598 C215.59952,465.7662 213.59032,465.767 213.55472,467.0598" id="Fill-38" fill="#D1D3D4"></path> <path d="M87.21216,113.26568 C64.66056,113.08048 42.10896,112.89488 19.55736,112.70968 C18.26376,112.69888 18.26256,114.70848 19.55736,114.71928 C42.10896,114.90448 64.66056,115.09008 87.21216,115.27528 C88.50536,115.28608 88.50656,113.27648 87.21216,113.26568" id="Fill-40" fill="#D3BDB4"></path> <path d="M111.761,210.93404 C106.5578,183.57164 101.355,156.20924 96.1526,128.84644 C95.9114,127.57764 93.9738,128.11484 94.2146,129.38084 C99.4174,156.74324 104.6198,184.10564 109.8226,211.46844 C110.0642,212.73764 112.0018,212.20004 111.761,210.93404" id="Fill-42" fill="#D3BDB4"></path> <path d="M250.41644,10.81084 C252.76684,8.22044 254.72284,5.13684 257.91564,4.11884 C261.10844,3.10084 264.50524,3.21684 267.81364,3.57204 C273.89524,4.22484 280.10804,5.75644 285.03964,9.73284 C292.49164,15.74084 295.80524,26.48964 295.71324,36.66484 C295.54164,55.78364 306.75724,95.56524 299.54324,99.38284 C292.32964,103.20084 249.68804,100.79204 242.27284,95.37364 C232.01364,87.87684 247.32564,41.80644 245.50444,28.38924 C245.50444,28.38924 246.70884,14.89684 250.41644,10.81084" id="Fill-44" fill="#A3262A"></path> <path d="M252.993,50.94128 C252.993,50.94128 249.9558,49.00248 249.3574,47.74688 C248.9842,46.96368 247.367,42.65328 247.367,39.87248 C247.367,37.09208 251.5566,38.58928 252.993,39.87248 L252.993,50.94128 Z" id="Fill-46" fill="#F29879"></path> <path d="M250.69928,46.39092 C250.72168,46.39092 250.74408,46.38452 250.76408,46.37212 C250.81808,46.33772 250.83248,46.26772 250.79648,46.21612 C249.71008,44.65452 249.09328,42.76132 249.05928,40.88492 C249.05448,40.58572 249.07448,40.28132 249.25528,40.07812 C249.49088,39.81332 249.93288,39.81172 250.24688,39.94732 C250.60288,40.10092 250.88248,40.40692 251.12888,40.67692 C251.17168,40.72372 251.24568,40.72852 251.29448,40.68732 C251.34288,40.64652 251.34808,40.57572 251.30568,40.52892 C251.04288,40.24132 250.74568,39.91572 250.34328,39.74212 C249.94928,39.57212 249.38808,39.58252 249.07688,39.93172 C248.84488,40.19212 248.81888,40.54572 248.82488,40.88892 C248.85968,42.80772 249.49088,44.74412 250.60168,46.34092 C250.62408,46.37332 250.66128,46.39092 250.69928,46.39092" id="Fill-48" fill="#BD6142"></path> <mask id="mask-4" fill="white"> <use xlink:href="#path-3"></use> </mask> <g id="Clip-51"></g> <polygon id="Fill-50" fill="#FFA07F" mask="url(#mask-4)" points="258.8824 99.2304 279.9908 99.2304 279.9908 60.2908 258.8824 60.2908"></polygon> <path d="M279.99068,60.06224 L258.88228,60.06224 L258.88228,74.19104 C261.64148,77.99544 265.37268,80.50704 269.50268,80.52344 C273.59788,80.49584 277.27028,78.02664 279.99068,74.27944 L279.99068,60.06224 Z" id="Fill-52" fill="#FA704E" mask="url(#mask-4)"></path> <path d="M251.75552,18.92752 C250.60232,21.28392 249.95352,23.77272 250.15792,26.44792 C250.53592,31.39832 251.29232,39.04792 251.29232,41.29952 C251.29232,43.55112 250.72552,48.17672 249.53192,53.46392 C249.21512,54.86712 248.61392,56.25272 248.82792,57.68032 C248.99592,58.80152 249.56392,59.78912 250.11952,60.74152 C250.34112,61.12072 250.56272,61.50032 250.78392,61.87952 C252.65712,64.65352 254.55992,67.46672 257.02672,69.58472 C259.48192,71.69232 262.60872,73.06192 265.66992,72.53752 C268.48392,72.05552 281.43592,63.96792 283.27872,57.53272 C285.23072,50.71592 285.46712,46.29792 285.46712,40.28512 C285.46712,34.27232 285.22792,21.05952 282.22712,17.70952 C279.22672,14.35952 255.14592,11.99992 251.75552,18.92752" id="Fill-53" fill="#FFA07F" mask="url(#mask-4)"></path> <path d="M284.1352,52.08172 C284.1352,52.08172 288.234,49.46492 289.0424,47.77052 C289.546,46.71332 291.7288,40.89572 291.7288,37.14292 C291.7288,33.39012 286.074,35.41092 284.1352,37.14292 L284.1352,52.08172 Z" id="Fill-54" fill="#FFA07F" mask="url(#mask-4)"></path> <path d="M287.23128,45.9404 C287.20128,45.9404 287.17048,45.932 287.14328,45.9148 C287.07088,45.8684 287.05128,45.774 287.09968,45.7044 C288.56568,43.5968 289.39848,41.0416 289.44408,38.5092 C289.45128,38.1056 289.42408,37.6944 289.18008,37.4204 C288.86128,37.0628 288.26528,37.0608 287.84128,37.244 C287.36128,37.4508 286.98408,37.864 286.65128,38.2288 C286.59328,38.292 286.49328,38.298 286.42768,38.2428 C286.36208,38.1876 286.35568,38.0916 286.41288,38.0284 C286.76728,37.6408 287.16888,37.2012 287.71168,36.9668 C288.24288,36.7376 289.00128,36.7516 289.42088,37.2232 C289.73368,37.5744 289.76888,38.0512 289.76048,38.5144 C289.71368,41.1044 288.86248,43.7176 287.36288,45.8728 C287.33248,45.9168 287.28248,45.9404 287.23128,45.9404" id="Fill-55" fill="#BD6142" mask="url(#mask-4)"></path> <path d="M272.6274,38.24548 C270.4386,36.39628 267.6918,36.04508 264.8982,35.93828 C264.4406,35.92308 264.5618,34.91148 265.0078,34.47748 C265.4534,34.04428 266.105,33.70308 266.4486,33.74468 C268.6474,33.98788 270.6618,34.95228 272.3082,36.54708 C272.5646,36.79828 272.8766,37.42548 273.0158,37.91908 C273.1542,38.41268 272.9866,38.54588 272.6274,38.24548" id="Fill-56" fill="#1A1A1A" mask="url(#mask-4)"></path> <path d="M250.9774,35.6816 C251.1806,35.2256 252.351,34.2232 253.4018,34.1352 C253.5962,34.1156 253.9618,34.4592 254.2106,34.8748 C254.4598,35.2908 254.5206,36.2132 254.2622,36.2028 C253.1746,36.1676 252.0994,36.2388 251.1266,36.7952 C250.6862,36.5764 250.7738,36.1376 250.9774,35.6816" id="Fill-57" fill="#1A1A1A" mask="url(#mask-4)"></path> <path d="M253.19496,45.56636 L253.12496,45.56636 C252.71136,45.56636 252.37296,45.22796 252.37296,44.81476 L252.37296,41.58796 C252.37296,41.17476 252.71136,40.83636 253.12496,40.83636 L253.19496,40.83636 C253.60816,40.83636 253.94656,41.17476 253.94656,41.58796 L253.94656,44.81476 C253.94656,45.22796 253.60816,45.56636 253.19496,45.56636" id="Fill-58" fill="#1A1A1A" mask="url(#mask-4)"></path> <path d="M267.23756,45.77256 L267.06756,45.77256 C266.39156,45.77256 265.83836,45.21936 265.83836,44.54336 L265.83836,41.82176 C265.83836,41.14576 266.39156,40.59256 267.06756,40.59256 L267.23756,40.59256 C267.91316,40.59256 268.46636,41.14576 268.46636,41.82176 L268.46636,44.54336 C268.46636,45.21936 267.91316,45.77256 267.23756,45.77256" id="Fill-59" fill="#1A1A1A" mask="url(#mask-4)"></path> <path d="M260.52308,53.639 C259.41548,54.103 257.22948,55.0198 257.22948,55.0198 C257.08388,55.0806 256.93148,55.1098 256.78068,55.1098 C256.40308,55.1098 256.03548,54.927 255.81308,54.601 L254.29988,52.385 C253.95868,51.885 254.04788,51.2158 254.50708,50.8282 C255.11788,50.313 256.28428,49.1074 257.23268,46.823 C258.83788,42.9566 256.62348,39.0542 256.60068,39.015 C256.49068,38.8246 256.55548,38.5806 256.74588,38.4702 C256.93628,38.3598 257.17988,38.4242 257.29068,38.6146 C257.34548,38.7086 258.82668,40.0466 259.24628,41.8454 C259.49548,42.9158 258.64828,47.3118 257.30828,50.677 C256.73548,52.1142 258.24068,53.1902 258.74348,53.1902 C259.24628,53.1902 260.52308,53.639 260.52308,53.639" id="Fill-60" fill="#DB7D63" mask="url(#mask-4)"></path> <path d="M256.78052,55.10996 C256.93172,55.10996 257.08412,55.08076 257.22932,55.01956 L261.15012,53.37636 C261.35292,53.29116 261.44852,53.05716 261.36332,52.85436 C261.27852,52.65116 261.04452,52.55516 260.84132,52.64076 L256.92092,54.28436 C256.75892,54.35196 256.57052,54.29596 256.47212,54.15156 L254.95852,51.93516 C254.84892,51.77436 254.87612,51.56036 255.02212,51.43756 C255.68772,50.87596 256.95612,49.56876 257.96932,47.12876 C259.72892,42.89036 257.39092,38.78716 257.29052,38.61436 C257.17972,38.42396 256.93652,38.35956 256.74572,38.46996 C256.55572,38.58036 256.49052,38.82436 256.60092,39.01516 C256.62332,39.05396 258.83812,42.95636 257.23292,46.82316 C256.28452,49.10756 255.11812,50.31276 254.50692,50.82796 C254.04772,51.21596 253.95852,51.88516 254.30012,52.38476 L255.81292,54.60116 C256.03572,54.92676 256.40332,55.10996 256.78052,55.10996" id="Fill-61" fill="#BD6142" mask="url(#mask-4)"></path> <path d="M271.59652,49.30344 C271.59652,49.89544 269.89092,50.37584 267.78732,50.37584 C265.68332,50.37584 263.97772,49.89544 263.97772,49.30344 C263.97772,48.71144 265.68332,48.23144 267.78732,48.23144 C269.89092,48.23144 271.59652,48.71144 271.59652,49.30344" id="Fill-62" fill="#ED766D" mask="url(#mask-4)"></path> <path d="M254.42192,49.3966 C254.42192,49.9374 253.61872,50.3758 252.62872,50.3758 C251.63792,50.3758 250.83512,49.9374 250.83512,49.3966 C250.83512,48.8558 251.63792,48.4174 252.62872,48.4174 C253.61872,48.4174 254.42192,48.8558 254.42192,49.3966" id="Fill-63" fill="#ED766D" mask="url(#mask-4)"></path> <path d="M254.30748,59.25832 C259.72828,61.84192 265.94828,60.14392 269.24108,55.11832 C269.53668,54.66792 268.81428,54.24912 268.52028,54.69712 C265.49228,59.31832 259.72308,60.91792 254.72908,58.53752 C254.24668,58.30752 253.82228,59.02712 254.30748,59.25832" id="Fill-64" fill="#C24848" mask="url(#mask-4)"></path> <path d="M234.92544,25.6606 C235.80264,32.3762 239.30864,38.603 244.24224,42.609 C242.85264,39.0706 243.53304,34.6178 245.69984,31.5334 C248.16704,28.0214 252.22384,26.1942 256.21824,26.0222 C259.42024,25.8842 262.63944,26.7046 265.81624,26.2326 C268.64704,25.8122 273.64544,21.6194 274.88984,18.1882 C274.22784,18.1406 273.55424,17.849 273.03184,17.3926 C271.97064,16.4662 271.36544,15.0534 270.74144,13.7202 C269.00104,10.0006 266.79024,6.4566 263.75504,3.9814 C258.07984,-0.647 249.86104,-0.7398 243.89624,3.4106 C237.93184,7.5606 234.41344,15.561 234.73184,23.3998 C234.76264,24.1578 234.82784,24.9122 234.92544,25.6606" id="Fill-65" fill="#A3262A" mask="url(#mask-4)"></path> <path d="M244.22428,29.87932 C243.49028,32.17452 243.21148,34.97612 243.55748,37.64532 C243.72988,35.44572 244.47828,33.27212 245.69948,31.53332 C248.16668,28.02132 252.22388,26.19412 256.21828,26.02212 C259.42028,25.88412 262.63948,26.70452 265.81588,26.23292 C266.78068,26.08932 267.99708,25.50772 269.23108,24.66772 C268.63988,24.59492 268.05428,24.47332 267.48428,24.31452 C259.50948,22.08812 247.54748,19.49132 244.22428,29.87932" id="Fill-66" fill="#7A1C20" mask="url(#mask-4)"></path> <path d="M290.10748,65.307 C290.10628,64.1978 290.02708,63.0902 289.87468,62.005 C289.12188,56.6434 286.81388,51.7214 284.32948,47.0566 C280.76588,40.3642 276.76508,33.9618 272.36948,27.9174 C270.90948,25.9094 269.37468,23.8798 268.62468,21.433 C267.87468,18.9858 268.09268,15.9742 269.79228,14.2166 C270.90428,13.067 273.17548,12.8322 274.84348,13.4846 C282.51348,22.405 287.99148,33.6534 290.52628,45.6918 C291.85948,52.021 292.38428,58.6762 291.10348,65.0186 C290.74468,66.7966 290.23148,68.5486 289.56948,70.225 C289.93588,68.6322 290.10948,66.9682 290.10748,65.307" id="Fill-67" fill="#A3262A" mask="url(#mask-4)"></path> <path d="M287.39652,44.2042 C287.39652,44.2042 289.76012,23.9822 288.90292,17.4718 C288.04532,10.9614 276.20052,1.3874 264.67812,1.3874 C253.15572,1.3874 246.57292,8.7402 247.15332,23.791 C247.15332,23.791 267.55052,6.3658 276.13172,18.8122 C284.71252,31.2586 287.39652,44.2042 287.39652,44.2042" id="Fill-68" fill="#A3262A" mask="url(#mask-4)"></path> <path d="M278.6696,12.15284 C278.5888,13.05444 278.2212,13.78004 277.7116,14.31644 C277.6332,14.24604 277.5544,14.17564 277.4756,14.10564 C276.1164,12.40244 274.5728,10.87644 273.0264,9.37684 C274.9092,8.59804 276.3848,6.96204 276.6644,4.49204 C276.9484,4.63644 277.228,4.78604 277.5064,4.93764 C277.3336,7.38324 278.8932,9.65724 278.6696,12.15284" id="Fill-69" fill="#B55155" mask="url(#mask-4)"></path> <path d="M237.17936,11.55176 C241.39016,12.36896 245.54376,14.99816 249.69736,16.37216 C252.97216,17.21576 255.23976,12.71536 256.75136,9.62136 C258.51496,5.68336 263.80536,7.08976 266.82896,9.05856 C267.90056,9.62176 269.09816,9.89896 270.27936,9.90176 C272.03256,11.90816 274.04616,13.57256 276.01136,15.30416 C275.23976,15.49056 274.45416,15.39056 273.88296,14.96576 C269.85216,12.15296 265.31736,9.90256 260.78256,10.74656 C258.51496,11.30896 257.50696,14.12176 255.99576,16.65336 C254.73616,18.90376 251.96456,19.18496 249.44536,18.90376 C244.85696,18.11536 241.13336,13.88016 236.97656,11.99216 C237.04336,11.84496 237.10936,11.69736 237.17936,11.55176" id="Fill-70" fill="#B55155" mask="url(#mask-4)"></path> <path d="M244.1102,90.87556 C244.1102,95.16636 253.3986,126.59196 263.3714,126.59196 C273.3446,126.59196 297.9466,95.34876 297.9466,91.05796 C297.9466,86.76716 287.9758,83.54676 271.5978,83.54676 C254.3798,83.54676 244.1102,86.58476 244.1102,90.87556" id="Fill-71" fill="#FFA07F" mask="url(#mask-4)"></path> <path d="M245.00316,90.07628 C241.71356,88.34068 236.83036,89.59628 231.63396,101.58508 C226.43716,113.57348 214.20636,153.34668 213.06196,159.15228 C211.91756,164.95828 222.14516,172.02428 226.03116,164.96708 C229.91756,157.90988 245.47116,116.77588 247.54156,111.06028 C249.61156,105.34508 250.58156,93.01988 245.00316,90.07628" id="Fill-72" fill="#FFA07F" mask="url(#mask-4)"></path> <path d="M245.5106,191.00356 C248.1246,172.17076 248.8898,153.08156 247.7914,134.09996 L303.045,115.33676 C301.947,134.31876 296.913,172.17036 299.527,191.00356 C299.527,191.00356 291.997,195.56236 272.519,195.56236 C253.0402,195.56236 245.5106,191.00356 245.5106,191.00356" id="Fill-73" fill="#E6E6E6" mask="url(#mask-4)"></path> <path d="M294.82504,142.73568 C286.94024,147.79248 263.15704,148.60648 248.20304,142.73008 C248.12624,139.28688 247.99064,137.53808 247.79144,134.10008 L303.04504,115.33688 C301.94704,134.31848 296.91304,172.17048 299.52704,191.00328 C299.52704,191.00328 298.32744,191.72888 295.65064,192.60088 C294.70744,189.86928 293.72664,187.16208 293.37384,184.34048 C291.43864,170.31088 294.09984,156.52328 294.82504,142.73568" id="Fill-74" fill="#CCCCCC" mask="url(#mask-4)"></path> <path d="M281.89068,144.61656 C292.46468,143.90216 304.73428,119.53296 305.14708,111.97576 C305.51788,105.18736 305.72268,98.24776 307.77548,91.80416 C306.43788,90.39536 304.41668,88.77896 303.01428,88.41816 C301.31468,87.98136 289.04748,84.92656 289.04748,84.92656 C289.04748,84.92656 273.10588,119.46376 263.37148,119.46376 C253.63708,119.46376 253.45468,84.72096 253.45468,84.72096 L240.31868,88.26416 C237.59508,89.04216 237.04908,90.39536 235.71148,91.80416 C237.76468,98.24776 241.08308,102.07336 241.45388,108.86176 C241.86628,116.41896 237.80148,127.33616 241.45388,133.96496 C245.10628,140.59376 250.68548,144.10736 261.59628,144.61656 C268.21348,144.92536 271.60348,145.31136 281.89068,144.61656" id="Fill-75" fill="#E6E6E6" mask="url(#mask-4)"></path> <path d="M301.20472,90.05428 C304.69072,88.76428 309.34792,90.49548 312.86752,102.46988 C316.38752,114.44428 321.14232,155.06308 321.49032,160.71108 C321.83832,166.35948 312.28752,172.82228 309.39832,165.68268 C306.50912,158.54268 297.14072,115.40028 295.86512,109.73588 C294.58992,104.07188 295.29352,92.24148 301.20472,90.05428" id="Fill-76" fill="#F59A7A" mask="url(#mask-4)"></path> <path d="M315.40748,155.5136 C309.94308,152.98 294.42268,152.946 285.64748,153.7728 C276.87188,154.6 259.50708,152.7508 247.24308,152.004 C240.79988,151.612 242.24908,159.9256 242.24908,159.9256 C242.24908,159.9256 262.96708,164.43 276.56948,166.456 C294.55708,169.1356 311.20308,170.6836 316.52188,168.1304 C319.03108,166.9256 323.99348,159.494 315.40748,155.5136" id="Fill-77" fill="#F59A7A" mask="url(#mask-4)"></path> <path d="M234.15044,141.61 C233.50044,143.2304 237.25524,143.8296 238.25724,144.912 C240.03444,146.8324 241.98484,148.5924 244.07644,150.164 C245.11284,150.9428 246.23004,151.6948 247.50804,151.9132 C248.54004,152.0896 250.71484,151.9792 250.43524,151.1192 C250.15524,150.2596 249.21564,147.74 247.78964,146.7332 C246.74484,145.9956 245.49044,145.2328 244.47364,144.458 C242.50844,142.9612 242.25244,142.7268 240.11404,141.3432 C239.61044,141.0172 235.17084,140.6004 234.65324,140.9036 C234.39444,141.0552 234.26364,141.3276 234.15044,141.61" id="Fill-78" fill="#ED9576" mask="url(#mask-4)"></path> <path d="M244.23404,145.95764 C240.23444,144.53124 239.29964,148.32444 237.87364,152.32444 C236.44684,156.32404 236.28164,158.14004 240.28124,159.56604 C244.28084,160.99244 251.50684,164.60404 253.84604,158.04324 C255.27284,154.04364 248.23364,147.38404 244.23404,145.95764" id="Fill-79" fill="#FFA07F" mask="url(#mask-4)"></path> <path d="M239.39848,159.21468 C237.75128,158.62708 233.57928,156.22948 232.83928,155.96548 C232.09888,155.70148 228.41848,151.65428 228.89568,150.31588 C229.37328,148.97708 229.19488,149.30108 229.99688,149.75508 C230.79928,150.20868 238.89768,154.64748 239.23248,154.76668 C239.56728,154.88628 240.91568,159.75588 239.39848,159.21468" id="Fill-80" fill="#FFA07F" mask="url(#mask-4)"></path> <path d="M244.97896,146.26692 C242.77176,145.35012 239.23016,143.86532 238.48296,143.59892 C237.73616,143.33252 231.70456,141.42932 231.22736,142.76772 C230.83936,143.85532 231.14976,144.61252 232.48816,145.09012 C233.82696,145.56732 239.84616,149.01852 242.01256,149.52372 C244.17896,150.02932 245.72336,146.57612 244.97896,146.26692" id="Fill-81" fill="#FFA07F" mask="url(#mask-4)"></path> <path d="M243.97192,149.31096 C241.76512,148.39416 231.51352,142.82496 230.47592,144.87536 C230.08792,145.96296 230.28632,147.03296 231.62512,147.51056 C232.96352,147.98776 238.98312,151.43896 241.14912,151.94416 C243.31552,152.44976 244.71632,149.62016 243.97192,149.31096" id="Fill-82" fill="#FFA07F" mask="url(#mask-4)"></path> <path d="M242.9774,152.09976 C240.7706,151.18296 230.5694,145.09656 229.8162,146.85336 C229.4286,147.94096 228.5638,149.07256 230.225,150.04056 C231.6862,150.89136 237.6086,155.29296 239.775,155.79856 C241.9414,156.30416 243.7218,152.40896 242.9774,152.09976" id="Fill-83" fill="#FFA07F" mask="url(#mask-4)"></path> <path d="M229.78872,149.47356 C231.87912,151.59436 234.11432,153.68876 236.80352,155.02836 C236.93432,155.09356 236.85152,155.30756 236.71912,155.24156 C234.58232,154.17716 232.72552,152.63796 231.00792,150.99796 C230.53352,150.54476 230.06872,150.08236 229.60832,149.61516 C229.50472,149.51036 229.68592,149.36916 229.78872,149.47356" id="Fill-84" fill="#C2826C" mask="url(#mask-4)"></path> <path d="M230.661,146.66832 C231.4454,147.17312 232.2294,147.67752 233.0138,148.18232 C233.9478,148.78352 234.8874,149.37672 235.8162,149.98592 C235.8322,149.99632 235.911,150.04192 235.8526,150.01112 C235.9686,150.07232 236.0902,150.12392 236.2086,150.18032 C236.8362,150.47872 237.4642,150.77712 238.0914,151.07552 C238.2242,151.13872 238.141,151.35232 238.007,151.28912 C237.4278,151.01352 236.8486,150.73792 236.269,150.46232 C236.0886,150.37672 235.8978,150.30112 235.7258,150.19992 C235.4254,150.02272 235.137,149.82112 234.8442,149.63232 C233.7058,148.89992 232.5678,148.16752 231.4294,147.43512 C231.1274,147.24072 230.825,147.04632 230.5226,146.85152 C230.399,146.77192 230.537,146.58872 230.661,146.66832" id="Fill-85" fill="#C2826C" mask="url(#mask-4)"></path> <path d="M231.50788,144.20308 C232.41668,144.62948 233.32908,145.04948 234.24388,145.46188 C234.83948,145.73068 235.43588,145.99908 236.04108,146.24668 C236.65068,146.49668 237.25348,146.73868 237.84188,147.04028 C238.39108,147.32188 238.93348,147.61788 239.46708,147.92828 C239.59468,148.00228 239.45548,148.18508 239.32908,148.11148 C238.28668,147.50508 237.22028,146.96468 236.10028,146.51828 C234.87908,146.03148 233.68628,145.46548 232.49308,144.91388 C232.13628,144.74908 231.77948,144.58348 231.42348,144.41628 C231.29068,144.35388 231.37388,144.14028 231.50788,144.20308" id="Fill-86" fill="#C2826C" mask="url(#mask-4)"></path> <path d="M255.6684,162.70248 C259.5876,159.85168 263.3436,156.76008 266.9004,153.42208 C274.1888,153.90848 281.0812,154.20328 285.6472,153.77288 C294.4228,152.94608 309.9432,152.98008 315.4076,155.51368 C315.9704,155.77448 316.4736,156.05048 316.9244,156.33848 C315.358,159.27288 312.13,160.88688 308.7092,161.34288 C303.3168,162.42128 298.194,159.72528 292.8016,160.53408 C287.0072,161.11368 281.4932,162.80688 276.6484,165.69928 C275.9164,165.86168 275.1824,166.00728 274.4456,166.12848 C268.5048,165.18648 261.576,163.87688 255.6684,162.70248" id="Fill-87" fill="#E69072" mask="url(#mask-4)"></path> <path d="M218.9016,154.59252 C224.3664,152.05932 239.8864,152.02492 248.6616,152.85172 C257.4376,153.67892 278.886,148.60572 291.15,147.85892 C297.5932,147.46652 291.2392,156.72572 291.2392,156.72572 C291.2392,156.72572 271.342,163.50892 257.74,165.53492 C239.7524,168.21452 223.106,169.76252 217.7876,167.20932 C215.2784,166.00452 210.3156,158.57292 218.9016,154.59252" id="Fill-88" fill="#FFA07F" mask="url(#mask-4)"></path> <path d="M295.10472,143.21624 C295.45192,140.76024 299.10432,138.99344 300.03352,138.90224 C301.56552,138.75224 305.86192,137.39344 307.04712,137.56104 C308.23312,137.72824 316.41112,137.93344 317.13792,138.90024 C317.86512,139.86664 315.00232,142.39944 308.31192,141.45384 C305.68592,141.08304 298.58952,145.237042 298.58952,145.237042 C298.58952,145.237042 294.81752,145.24904 295.10472,143.21624" id="Fill-89" fill="#FFA07F" mask="url(#mask-4)"></path> <path d="M296.62856,144.53704 C296.62856,144.53704 305.60776,145.30464 307.03696,146.19784 C308.46536,147.09064 319.40376,149.15424 320.27656,150.31424 C321.14936,151.47424 319.85696,152.67384 317.57016,152.35064 C315.28336,152.02784 305.48976,150.37904 305.48976,150.37904 C305.48976,150.37904 297.92176,150.17944 296.97656,148.92304 C296.03096,147.66624 295.52376,144.43464 296.62856,144.53704" id="Fill-90" fill="#FFA07F" mask="url(#mask-4)"></path> <path d="M297.97232,154.27056 C297.97232,154.27056 308.79152,154.56576 309.80792,154.70936 C310.82432,154.85296 317.81592,154.89056 319.16912,153.87256 C320.52232,152.85416 319.77112,151.85536 317.39952,151.52056 C315.02832,151.18536 306.10672,150.94696 305.30192,150.83336 C304.49712,150.71976 296.05032,148.44656 295.91312,149.42056 C295.77512,150.39456 296.20352,154.18856 297.97232,154.27056" id="Fill-91" fill="#FFA07F" mask="url(#mask-4)"></path> <path d="M299.0028,154.29944 C299.0028,154.29944 304.9128,154.91064 305.76,155.03024 C306.6072,155.14984 312.7136,155.83184 314.5284,156.08784 C316.344,156.34464 314.4276,157.56264 311.3712,158.46384 C308.3148,159.36504 302.6348,157.98704 302.0876,158.39904 C301.5404,158.81104 296.6812,159.52584 295.1176,159.99624 C293.5536,160.46624 295.0776,153.88704 299.0028,154.29944" id="Fill-92" fill="#FFA07F" mask="url(#mask-4)"></path> <path d="M300.3852,158.26692 C300.3852,158.26692 294.6764,160.51532 293.6208,160.11452 C290.4572,158.91372 291.1848,157.75012 290.1668,156.39692 C289.1484,155.04372 289.8984,148.34132 291.15,147.85892 C292.402,147.37652 294.8788,141.77252 296.0072,141.93172 C297.1356,142.09132 301.2804,157.27572 300.3852,158.26692" id="Fill-93" fill="#FFA07F" mask="url(#mask-4)"></path> <path d="M259.0188,456.4096 C259.842,454.3716 265.266,449.786 266.8988,443.154 C267.8292,439.3748 266.976,422.8964 268.1312,420.8796 C270.0576,417.5188 272.9796,417.638 277.5332,416.4088 C278.9232,420.3844 280.61,435.8592 281.408,440.0352 C277.4768,469.8308 258.3272,458.1224 259.0188,456.4096" id="Fill-94" fill="#E3815F" mask="url(#mask-4)"></path> <path d="M254.7516,461.83996 C255.1808,461.33996 255.61,460.81396 256.0368,460.27156 C257.382,458.49836 259.1708,455.90556 260.0552,454.60996 C264.0132,448.53636 267.0696,442.50356 267.0696,442.50356 C266.644,443.37836 266.8072,445.93196 261.8748,455.27756 C260.5768,457.73716 273.6408,459.84316 275.8916,451.00316 C276.9996,446.65076 279.9432,430.19196 279.9432,430.19196 C281.8164,430.19836 282.5644,452.54716 282.5644,452.54716 C282.5644,452.54716 281.8248,467.35556 277.0904,467.35956 C272.356,467.36356 255.6388,467.37756 255.6388,467.37756 C253.5864,464.55236 253.3692,463.24436 254.7516,461.83996" id="Fill-95" fill="#803936" mask="url(#mask-4)"></path> <path d="M276.46684,227.86148 C276.46684,227.86148 275.33324,299.47188 277.06924,311.14908 C278.80484,322.82628 259.27084,320.24188 252.23804,314.09828 C249.08604,309.40708 231.69604,237.44268 237.38964,216.40748 C239.30004,209.34908 272.53364,212.42028 276.46684,227.86148" id="Fill-96" fill="#456A97" mask="url(#mask-4)"></path> <path d="M277.11332,309.44748 L282.77932,428.48268 C282.77932,428.48268 274.14932,435.55828 265.41572,428.59948 C265.41572,428.59948 251.01612,321.22108 251.66972,309.97028 C252.26492,299.73028 272.05652,294.64588 277.11332,309.44748" id="Fill-97" fill="#456A97" mask="url(#mask-4)"></path> <path d="M268.2192,311.03908 C270.2044,291.09508 268.7028,284.69028 268.2192,265.58108 C267.76,246.05348 256.4828,228.73908 237.6396,221.85228 C237.402,219.13948 237.3068,217.23868 237.3896,216.40748 C238.1148,209.13108 272.5336,212.42028 276.4668,227.86148 L282.7792,428.48268 C282.7792,428.48268 274.1492,435.55828 265.4156,428.59948 C265.4156,428.59948 262.9012,409.84948 260.0216,387.19908 C260.9064,379.55628 263.8632,376.17988 263.8632,364.06348 C263.8632,357.60908 267.5244,318.01948 268.2192,311.03908" id="Fill-98" fill="#345071" mask="url(#mask-4)"></path> <path d="M283.80824,475.10512 C282.87104,472.93032 277.19064,468.03832 275.18664,460.96232 C274.04504,456.92992 273.97744,439.34832 272.70904,437.19672 C270.59504,433.61072 267.67944,433.73792 263.05704,432.42632 C261.88944,436.66832 261.06784,453.17912 260.50344,457.63472 C266.10064,489.42512 284.59544,476.93272 283.80824,475.10512" id="Fill-99" fill="#FFA07F" mask="url(#mask-4)"></path> <path d="M288.37896,480.89904 C287.92176,480.36584 287.46376,479.80424 287.00576,479.22544 C285.56176,477.33344 283.62776,474.56744 282.67096,473.18504 C278.37336,466.70504 274.97976,460.26824 274.97976,460.26824 C275.45416,461.20144 275.43416,463.92584 280.88896,473.89744 C282.32456,476.52184 269.37816,478.76864 266.63336,469.33664 C265.28176,464.69264 261.40776,446.79544 261.40776,446.79544 C259.53496,446.80224 260.04616,470.98384 260.04616,470.98384 C260.04616,470.98384 261.61456,486.78384 266.34936,486.78784 C271.08376,486.79224 287.80176,486.80744 287.80176,486.80744 C289.69576,483.79344 289.84016,482.39744 288.37896,480.89904" id="Fill-100" fill="#9A5350" mask="url(#mask-4)"></path> <path d="M270.98659,228.95972 C270.98659,228.95972 271.65556,305.97652 271.00276,318.44292 C270.34956,330.90932 289.66716,327.48892 296.13796,320.71932 C298.85796,315.62652 311.88236,221.87292 312.16836,216.41492 C312.58276,208.50052 273.48996,212.41812 270.98659,228.95972" id="Fill-101" fill="#456A97" mask="url(#mask-4)"></path> <path d="M271.0028,318.4428 L260.4208,442.3332 C260.4208,442.3332 272.5512,452.1744 280.6488,444.4796 C280.6488,444.4796 294.2024,331.6984 296.138,320.7192 C298.0736,309.7404 274.6904,302.5424 271.0028,318.4428" id="Fill-102" fill="#456A97" mask="url(#mask-4)"></path> <path d="M296.868,174.577 C302.4208,187.1482 305.2172,199.6454 311.602,212.0534 C312.9308,214.6394 313.1704,230.8274 306.5584,234.2054 C298.6036,238.419 277.7844,242.6678 277.7532,242.5906 C274.1792,242.6174 270.6056,242.6174 267.0316,242.5906 C267.0008,242.6678 246.1812,238.419 238.2264,234.2054 C231.6144,230.8274 242.3644,187.1482 247.9172,174.577 C264.2252,175.227 280.5596,175.227 296.868,174.577" id="Fill-103" fill="#456A97" mask="url(#mask-4)"></path> <path d="M287.59536,197.91832 C274.64456,187.55792 257.24656,185.41872 242.36216,191.48792 C244.28576,184.40752 246.31736,178.19992 247.91736,174.57712 C264.22496,175.22712 280.56016,175.22712 296.86816,174.57712 C302.42056,187.14832 305.21736,199.64552 311.60216,212.05352 C312.27376,213.36072 312.66576,218.14352 312.03656,222.99072 C305.57296,213.56992 296.77296,205.30512 287.59536,197.91832" id="Fill-104" fill="#345071" mask="url(#mask-4)"></path> <path d="M241.94264,205.8972 C246.78504,208.5056 251.09104,202.0972 253.30944,197.582 C255.53784,193.0464 256.74584,187.8764 256.88104,182.576 C256.89744,181.9376 257.69984,181.9348 257.68384,182.576 C257.52424,188.8264 255.91464,194.9464 252.95984,200.0336 C250.39704,204.446 246.24064,209.2888 241.53744,206.756 C241.06544,206.5012 241.47344,205.6444 241.94264,205.8972" id="Fill-105" fill="#CCCCCC" mask="url(#mask-4)"></path> <path d="M245.85788,203.1094 C245.86668,201.741 245.87588,200.3722 245.88508,199.0038 C245.88948,198.3642 246.69188,198.363 246.68748,199.0038 C246.67868,200.3722 246.66948,201.741 246.66028,203.1094 C246.65588,203.749 245.85348,203.7506 245.85788,203.1094" id="Fill-106" fill="#CCCCCC" mask="url(#mask-4)"></path> <path d="M302.7848,206.75592 C296.958,209.28912 291.808,204.44592 288.6324,200.03352 C284.9716,194.94632 282.9772,188.82672 282.7796,182.57592 C282.7596,181.93592 283.754,181.93672 283.7744,182.57592 C283.942,187.87672 285.438,193.04592 288.1992,197.58192 C290.9476,202.09672 296.2824,208.50592 302.2828,205.89752 C302.864,205.64472 303.3708,206.50112 302.7848,206.75592" id="Fill-107" fill="#CCCCCC" mask="url(#mask-4)"></path> <path d="M245.23792,178.252 C263.31312,179.6744 281.47192,179.6744 299.54672,178.252 C299.38032,176.1392 299.21432,172.186 299.04792,170.0732 C281.30512,171.4696 263.47952,171.4696 245.73672,170.0732 C245.57072,172.186 245.40432,176.1392 245.23792,178.252" id="Fill-108" fill="#AD4537" mask="url(#mask-4)"></path> </g> </g> </g> </g> </g> </svg> 