<?xml version="1.0" encoding="UTF-8"?> <svg xmlns="http://www.w3.org/2000/svg" xmlns:xlink="http://www.w3.org/1999/xlink" width="353px" height="302px" viewBox="0 0 353 302"> <!-- Generator: Sketch 57.1 (83088) - https://sketch.com --> <title>Group 13</title> <desc>Created with Sketch.</desc> <defs> <polygon id="path-1" points="0 297.524536 316.262537 297.524536 316.262537 0 0 0"></polygon> </defs> <g id="Page-1" stroke="none" stroke-width="1" fill="none" fill-rule="evenodd"> <g id="masha-copy" transform="translate(-705.000000, -3773.000000)"> <g id="Group-14" transform="translate(206.000000, 3770.000000)"> <g id="Group-13" transform="translate(499.000000, 0.000000)"> <polygon id="Rectangle" fill="#97C4DE" points="0 298.800012 352.715639 298.800012 352.715639 304.200012 0 304.200012"></polygon> <path d="M37.6099607,298.48663 C37.6099607,298.48663 -5.75535928,258.47534 39.5545736,236.624294 C68.273884,222.774185 61.4034406,219.324096 70.6712644,200.19336 C82.0318756,176.742581 138.491183,159.154393 162.087646,195.108029 C179.460153,221.57743 189.323561,221.007852 202.00064,216.370298 C216.538661,211.052098 229.152266,199.586002 246.413693,207.508903 C271.207095,218.888912 274.791934,243.112824 290.623135,237.833023 C333.003165,223.698847 349.698685,285.703422 312.0316,298.800012 L37.6099607,298.48663 Z" id="Fill-1" fill="#EAF1F8"></path> <g id="Group-74" transform="translate(166.599113, 152.601738) rotate(1.000000) translate(-166.599113, -152.601738) translate(8.099113, 3.601738)"> <path d="M180.103546,10.5679086 C177.303826,7.93846843 174.974266,4.80862826 171.170865,3.77542821 C167.367465,2.74186815 163.321425,2.85958816 159.380865,3.21994818 C152.136224,3.88306821 144.736424,5.4371883 138.861584,9.47350852 C129.985783,15.5719089 126.038383,26.4824294 126.147463,36.81047 C126.352303,56.2166311 112.992702,96.5960333 121.585543,100.471073 C130.178023,104.346114 180.971146,101.901354 189.804106,96.4016333 C202.024307,88.7923129 183.785266,42.0293903 185.954626,28.4105896 C185.954626,28.4105896 184.519666,14.7154688 180.103546,10.5679086" id="Fill-1" fill="#A3262A"></path> <path d="M174.199582,51.3013708 C174.199582,51.3013708 177.641542,49.3332507 178.319782,48.0588506 C178.743142,47.2636106 180.575902,42.8888903 180.575902,40.0664902 C180.575902,37.24409 175.827502,38.7640101 174.199582,40.0664902 L174.199582,51.3013708 Z" id="Fill-3" fill="#F29879"></path> <path d="M176.799214,46.6825346 C176.774014,46.6825346 176.748094,46.6764146 176.725774,46.6634545 C176.664574,46.6285345 176.648014,46.5576145 176.688694,46.5054145 C177.919894,44.9199745 178.619014,42.9986543 178.657534,41.0938942 C178.663654,40.7904142 178.640974,40.4808142 178.435774,40.2748942 C178.168294,40.0059742 177.667894,40.0045342 177.311494,40.1420542 C176.908654,40.2979342 176.591854,40.6086142 176.312134,40.8829342 C176.263894,40.9304542 176.179654,40.9351342 176.124574,40.8933742 C176.069494,40.8519742 176.064094,40.7799742 176.112334,40.7324542 C176.409694,40.4408542 176.746654,40.1100142 177.202774,39.9339742 C177.648814,39.7615342 178.285294,39.7723342 178.637734,40.1265742 C178.900534,40.3904542 178.930054,40.7497342 178.923214,41.0978542 C178.883974,43.0454544 178.169014,45.0106945 176.910094,46.6317745 C176.884534,46.6648945 176.842414,46.6825346 176.799214,46.6825346" id="Fill-5" fill="#BD6142"></path> <mask id="mask-2" fill="white"> <use xlink:href="#path-1"></use> </mask> <g id="Clip-8"></g> <polygon id="Fill-7" fill="#FFA07F" mask="url(#mask-2)" points="147.318488 100.348925 169.670889 100.348925 169.670889 59.1145232 147.318488 59.1145232"></polygon> <path d="M147.318416,58.8722432 L169.670817,58.8722432 L169.670817,73.834204 C166.749057,77.8626043 162.797697,80.5219244 158.424057,80.5399244 C154.088216,80.5100444 150.199136,77.8957243 147.318416,73.927444 L147.318416,58.8722432 Z" id="Fill-9" fill="#FA704E" mask="url(#mask-2)"></path> <path d="M175.602142,18.806437 C176.908942,21.1982772 177.644062,23.7243973 177.412582,26.4398774 C176.984182,31.4647577 176.127022,39.2292381 176.127022,41.5148783 C176.127022,43.8005184 176.769622,48.4952786 178.121782,53.8617989 C178.480702,55.286319 179.162542,56.6928391 178.920262,58.1418392 C178.729822,59.2797992 178.085782,60.2823993 177.455782,61.2489993 C177.205222,61.6341994 176.954302,62.0190394 176.703382,62.4038794 C174.580462,65.2197996 172.424061,68.0753197 169.628301,70.2248798 C166.845861,72.364 163.302381,73.75468 159.833421,73.22224 C156.644181,72.73264 141.96554,64.5239195 139.8779,57.9920792 C137.66606,51.0725188 137.39714,46.5883585 137.39714,40.4852782 C137.39714,34.3821979 137.66894,20.9707571 141.0695,17.570197 C144.4697,14.1699968 171.759861,11.7745566 175.602142,18.806437" id="Fill-10" fill="#FFA07F" mask="url(#mask-2)"></path> <path d="M138.906908,52.4590589 C138.906908,52.4590589 134.261467,49.8029787 133.345987,48.0828986 C132.775027,47.0097386 130.301107,41.1050182 130.301107,37.295858 C130.301107,33.4866978 136.709827,35.5376179 138.906908,37.295858 L138.906908,52.4590589 Z" id="Fill-11" fill="#FFA07F" mask="url(#mask-2)"></path> <path d="M135.398311,46.2254785 C135.432511,46.2254785 135.467071,46.2171985 135.497671,46.1995585 C135.580111,46.1523985 135.602431,46.0562785 135.547351,45.9857185 C133.885951,43.8469584 132.942391,41.2527983 132.890551,38.6823981 C132.882271,38.2727181 132.912871,37.8554781 133.189711,37.5771981 C133.550791,37.214678 134.226151,37.212158 134.706751,37.397918 C135.250711,37.6081581 135.678391,38.0279181 136.055671,38.3979981 C136.120831,38.4620781 136.234231,38.4681981 136.308751,38.4120381 C136.383271,38.3562381 136.390831,38.2586781 136.325671,38.1945981 C135.924271,37.8011181 135.469231,37.354718 134.853991,37.117118 C134.251351,36.884558 133.392751,36.898598 132.916831,37.377038 C132.562591,37.7334381 132.522271,38.2176381 132.531991,38.6881581 C132.584911,41.3165183 133.549711,43.9689984 135.248911,46.1567185 C135.283471,46.2013585 135.340351,46.2254785 135.398311,46.2254785" id="Fill-12" fill="#BD6142" mask="url(#mask-2)"></path> <path d="M150.540128,37.8762501 C152.457128,35.6888899 155.160728,34.9206499 157.948929,34.3903699 C158.405409,34.3061299 158.130729,33.3089298 157.617369,32.9413698 C157.104369,32.5738098 156.398769,32.3297298 156.060369,32.4236898 C153.890648,33.0007698 152.014328,34.2733699 150.603128,36.12305 C150.383888,36.41393 150.165728,37.09109 150.100928,37.6073301 C150.036488,38.1239301 150.224768,38.2319301 150.540128,37.8762501" id="Fill-13" fill="#1A1A1A" mask="url(#mask-2)"></path> <path d="M177.653674,37.5717981 C175.349674,35.796638 172.548513,35.5662379 169.710633,35.5853179 C169.246233,35.5907179 169.322913,34.5596779 169.755633,34.0992379 C170.187633,33.6395178 170.832393,33.2633178 171.183033,33.2899578 C173.423673,33.4368378 175.510234,34.3224379 177.252634,35.863958 C177.524074,36.107318 177.868954,36.729038 178.032394,37.222958 C178.195834,37.7172381 178.031674,37.8601581 177.653674,37.5717981" id="Fill-14" fill="#1A1A1A" mask="url(#mask-2)"></path> <path d="M171.534573,45.7153945 L171.534573,45.7153945 C172.268253,45.7153945 172.868373,45.1152745 172.868373,44.3815944 L172.868373,41.7913943 C172.868373,41.0577142 172.268253,40.4575942 171.534573,40.4575942 C170.800893,40.4575942 170.200773,41.0577142 170.200773,41.7913943 L170.200773,44.3815944 C170.200773,45.1152745 170.800893,45.7153945 171.534573,45.7153945" id="Fill-15" fill="#1A1A1A" mask="url(#mask-2)"></path> <path d="M156.050325,45.8827225 L156.050325,45.8827225 C156.784005,45.8827225 157.384125,45.2826025 157.384125,44.5489224 L157.384125,41.9590823 C157.384125,41.2250423 156.784005,40.6252822 156.050325,40.6252822 C155.316644,40.6252822 154.716524,41.2250423 154.716524,41.9590823 L154.716524,44.5489224 C154.716524,45.2826025 155.316644,45.8827225 156.050325,45.8827225" id="Fill-16" fill="#1A1A1A" mask="url(#mask-2)"></path> <path d="M162.779409,53.8674149 C163.903329,54.338655 166.122729,55.269255 166.122729,55.269255 C166.269969,55.330815 166.424769,55.360335 166.577769,55.360335 C166.961169,55.360335 167.334129,55.174935 167.560209,54.844095 L169.095969,52.5944549 C169.442289,52.0875748 169.351929,51.4078948 168.885369,51.0140548 C168.265449,50.4913348 167.081769,49.2680547 166.119129,46.9489346 C164.489769,43.0242144 166.737249,39.0634941 166.760289,39.0238941 C166.872249,38.8302141 166.806369,38.5828941 166.613049,38.4705741 C166.420089,38.3586141 166.172769,38.4241341 166.060089,38.6170941 C166.004649,38.7124941 164.501289,40.0707742 164.075769,41.8963343 C163.822329,42.9835343 164.682369,47.4453746 166.042449,50.8606948 C166.623849,52.3197749 165.096009,53.4116549 164.585889,53.4116549 C164.075769,53.4116549 162.779409,53.8674149 162.779409,53.8674149" id="Fill-17" fill="#DB7D63" mask="url(#mask-2)"></path> <path d="M166.577877,55.360479 C166.424877,55.360479 166.270077,55.330959 166.122477,55.269039 L162.143037,53.6004389 C161.937117,53.5143989 161.839917,53.2771589 161.926317,53.0708789 C162.012717,52.8645989 162.249957,52.7673989 162.456237,52.8541589 L166.435677,54.522399 C166.600197,54.591159 166.791357,54.534279 166.891797,54.387759 L168.427557,52.1381188 C168.538797,51.9750388 168.511437,51.7575988 168.363117,51.6330388 C167.687397,51.0627988 166.399677,49.7361987 165.371517,47.2593986 C163.585557,42.9573983 165.958317,38.7925581 166.060197,38.6168781 C166.172877,38.4239181 166.420197,38.3583981 166.613157,38.4707181 C166.806477,38.5830381 166.871997,38.8303581 166.760397,39.0236781 C166.737357,39.0632781 164.489877,43.0239984 166.119237,46.9490786 C167.081877,49.2678387 168.265557,50.4914788 168.885477,51.0141988 C169.352037,51.4080388 169.442397,52.0873588 169.096077,52.5942389 L167.560317,54.843879 C167.334237,55.174719 166.960917,55.360479 166.577877,55.360479" id="Fill-18" fill="#BD6142" mask="url(#mask-2)"></path> <path d="M151.539272,49.4668827 C151.539272,50.0677227 153.270512,50.5548028 155.406032,50.5548028 C157.541553,50.5548028 159.272433,50.0677227 159.272433,49.4668827 C159.272433,48.8656827 157.541553,48.3786026 155.406032,48.3786026 C153.270512,48.3786026 151.539272,48.8656827 151.539272,49.4668827" id="Fill-19" fill="#ED766D" mask="url(#mask-2)"></path> <path d="M169.998597,49.4668827 C169.998597,50.0677227 171.359757,50.5548028 173.038797,50.5548028 C174.718198,50.5548028 176.079358,50.0677227 176.079358,49.4668827 C176.079358,48.8656827 174.718198,48.3786026 173.038797,48.3786026 C171.359757,48.3786026 169.998597,48.8656827 169.998597,49.4668827" id="Fill-20" fill="#ED766D" mask="url(#mask-2)"></path> <path d="M169.088229,59.5711473 C163.585989,62.1937474 157.272669,60.4700673 153.930068,55.369227 C153.630548,54.912027 154.363868,54.486867 154.661588,54.941547 C157.735629,59.6323473 163.591029,61.2559473 168.660549,58.8396272 C169.150149,58.6059872 169.580709,59.3364272 169.088229,59.5711473" id="Fill-21" fill="#C24848" mask="url(#mask-2)"></path> <path d="M194.675123,25.6408214 C193.681163,32.4574218 189.707842,38.7775821 184.116682,42.8441423 C185.691682,39.2527821 184.920562,34.7326219 182.465002,31.6020617 C179.669242,28.0369815 175.071322,26.1826214 170.544681,26.0080214 C166.915521,25.8676214 163.267641,26.7003015 159.667641,26.2215014 C156.459321,25.7949014 150.79472,21.5386212 149.38424,18.056341 C150.13484,18.007741 150.89768,17.711821 151.49024,17.2485009 C152.69264,16.3078209 153.37916,14.8743008 154.08584,13.5210607 C156.057921,9.74574053 158.563521,6.14826034 162.003321,3.6358202 C168.435081,-1.06218006 177.749362,-1.15650006 184.509082,3.05622017 C191.268802,7.2689404 195.255803,15.3894608 194.894723,23.3461813 C194.859803,24.1155013 194.786003,24.8812214 194.675123,25.6408214" id="Fill-22" fill="#A3262A" mask="url(#mask-2)"></path> <path d="M184.137022,29.9228416 C184.968982,32.2524018 185.285062,35.0964019 184.893022,37.8054021 C184.697542,35.5726819 183.849382,33.3666018 182.464822,31.6018817 C179.669062,28.0371615 175.071502,26.1820814 170.544501,26.0078414 C166.915701,25.8674414 163.267821,26.7004815 159.667821,26.2216814 C158.574501,26.0758814 157.196061,25.4854814 155.797821,24.6330013 C156.467421,24.5595613 157.130901,24.4357213 157.776741,24.2744413 C166.814541,22.0147212 180.371422,19.3788011 184.137022,29.9228416" id="Fill-23" fill="#7A1C20" mask="url(#mask-2)"></path> <path d="M132.138655,65.8830996 C132.140095,64.7573795 132.230095,63.6327395 132.402535,62.5314994 C133.255735,57.0890191 135.871495,52.0932988 138.686696,47.3582186 C142.725896,40.5653782 147.259736,34.0670179 152.240696,27.9315375 C153.895616,25.8932174 155.635137,23.8332973 156.484737,21.3496572 C157.334697,18.865657 157.087737,15.8085369 155.161376,14.0247368 C153.901376,12.8579767 151.327736,12.6196567 149.437376,13.2816967 C140.744816,22.3364172 134.536975,33.7538178 131.664175,45.9729385 C130.153255,52.3971389 129.558535,59.1525392 131.010055,65.5907796 C131.416855,67.3947397 131.998255,69.1734998 132.748135,70.8748599 C132.333055,69.2580998 132.136495,67.5693397 132.138655,65.8830996" id="Fill-24" fill="#A3262A" mask="url(#mask-2)"></path> <path d="M135.211111,44.4630984 C135.211111,44.4630984 132.532351,23.9373373 133.503991,17.3291769 C134.475991,10.7206566 147.899312,1.00245605 160.957233,1.00245605 C174.015514,1.00245605 181.475434,8.46633646 180.818074,23.7429373 C180.818074,23.7429373 157.702113,6.05577633 147.977432,18.689617 C138.252752,31.3230977 135.211111,44.4630984 135.211111,44.4630984" id="Fill-25" fill="#A3262A" mask="url(#mask-2)"></path> <path d="M145.100924,11.9298607 C145.192364,12.8453407 145.609244,13.5819007 146.186324,14.1262208 C146.275604,14.0545808 146.364884,13.9829408 146.454524,13.9120208 C147.994244,12.1833007 149.743844,10.6342206 151.496684,9.1125005 C149.362604,8.32194045 147.690404,6.66126036 147.373244,4.15422023 C147.051764,4.30074023 146.734604,4.45230024 146.419604,4.60638025 C146.615084,7.08894039 144.847484,9.39726051 145.100924,11.9298607" id="Fill-26" fill="#B55155" mask="url(#mask-2)"></path> <path d="M192.121174,11.3199126 C187.349014,12.1497127 182.641654,14.8180328 177.934654,16.2126729 C174.223054,17.0694729 171.653733,12.5010727 169.940493,9.36043251 C167.941773,5.36335229 161.945973,6.79075237 158.519853,8.78947248 C157.305213,9.36115251 155.948373,9.64231253 154.609172,9.64519253 C152.622692,11.6817126 150.340292,13.3708327 148.113692,15.1283528 C148.987772,15.3177128 149.878772,15.2161928 150.525692,14.7852728 C155.093732,11.9297527 160.233093,9.64591253 165.372093,10.5023526 C167.941773,11.0733126 169.083693,13.9284728 170.796933,16.4981529 C172.224333,18.782353 175.365334,19.067473 178.220134,18.782353 C183.420334,17.982433 187.640254,13.6833127 192.350855,11.7666726 C192.274895,11.6172726 192.200015,11.4675126 192.121174,11.3199126" id="Fill-27" fill="#B55155" mask="url(#mask-2)"></path> <path d="M185.313718,91.501817 C185.313718,96.0453772 167.507757,127.618099 156.947157,127.618099 C146.386196,127.618099 128.304115,96.2386973 128.304115,91.695137 C128.304115,87.1515768 138.862556,83.7409366 156.205917,83.7409366 C174.438478,83.7409366 185.313718,86.9582568 185.313718,91.501817" id="Fill-28" fill="#FFA07F" mask="url(#mask-2)"></path> <path d="M183.830626,197.530967 C181.062586,177.588406 180.252226,157.374045 181.415026,137.273444 L129.046183,137.273444 C130.208983,157.374045 129.398623,177.588046 126.630583,197.530967 C126.630583,197.530967 134.604223,202.358207 155.230424,202.358207 C175.856986,202.358207 183.830626,197.530967 183.830626,197.530967" id="Fill-29" fill="#E6E6E6" mask="url(#mask-2)"></path> <path d="M145.306232,148.410296 C134.388151,148.410296 129.622471,144.150416 125.754991,137.130775 C121.887511,130.111495 121.116391,121.848055 120.678991,113.845614 C120.286591,106.657494 120.069871,99.3084534 117.89583,92.4850131 C119.312431,90.993533 121.452631,89.2813729 122.937991,88.8994129 C124.737631,88.4368128 137.728232,85.2022127 137.728232,85.2022127 C137.728232,85.2022127 145.766672,126.475135 156.074913,126.475135 C166.382793,126.475135 175.418074,84.9844126 175.418074,84.9844126 L189.328114,88.7363328 C192.212435,89.5603729 192.790595,90.993533 194.207195,92.4850131 C192.033154,99.3084534 191.816434,106.657494 191.423674,113.845614 C190.986994,121.848055 190.215514,130.111495 186.348034,137.130775 C182.480554,144.150416 178.362874,148.410296 166.796793,148.410296 C155.230352,148.410296 156.224673,148.410296 145.306232,148.410296" id="Fill-30" fill="#E6E6E6" mask="url(#mask-2)"></path> <path d="M122.642071,129.087007 C123.361711,131.883847 124.354591,134.588887 125.754991,137.130847 C128.770351,142.603568 132.332191,146.398328 138.929912,147.805208 C131.890111,143.637848 125.725471,136.908007 122.642071,129.087007" id="Fill-31" fill="#CCCCCC" mask="url(#mask-2)"></path> <path d="M172.980729,147.892112 C180.02161,146.562272 183.26629,142.724312 186.34789,137.130631 C186.86521,136.192111 187.32529,135.230911 187.73857,134.251351 C183.82501,139.685552 178.75585,144.521432 172.980729,147.892112" id="Fill-32" fill="#CCCCCC" mask="url(#mask-2)"></path> <path d="M248.884106,270.681639 C246.618625,270.816279 240.780865,274.638759 233.626225,274.047999 C229.549225,273.711399 212.791584,267.406719 210.479304,267.876519 C206.625503,268.659159 206.141663,271.576959 203.933783,275.654319 C207.731423,278.341719 223.284144,285.1342 227.410464,287.305 C258.847106,293.31196 250.787786,270.568599 248.884106,270.681639" id="Fill-33" fill="#FFA07F" mask="url(#mask-2)"></path> <path d="M255.35039,268.279071 C254.74775,268.536111 254.11811,268.784151 253.47155,269.024631 C251.37023,269.761911 248.33471,270.664071 246.819829,271.105791 C239.756629,272.990391 232.922389,274.000911 232.922389,274.000911 C233.909509,273.871311 236.500069,274.878591 247.12835,273.118911 C249.92519,272.655951 249.37871,286.222192 239.826469,285.507592 C235.123789,285.156232 217.544988,282.612471 217.544988,282.612471 C217.162668,284.459632 240.028789,292.592752 240.028789,292.592752 C240.028789,292.592752 255.40079,296.773792 256.38719,292.111792 C257.37395,287.450152 260.85695,270.988791 260.85695,270.988791 C258.38015,268.031031 257.08055,267.383031 255.35039,268.279071" id="Fill-34" fill="#9A5350" mask="url(#mask-2)"></path> <path d="M87.6983448,272.231331 C90.1013449,272.759451 95.7047452,277.841211 103.465626,278.420451 C107.888226,278.750571 126.899467,274.838451 129.295987,275.733051 C133.289827,277.223811 133.313947,280.429971 134.987227,285.170092 C130.465987,287.404252 112.661826,292.042492 107.875626,293.668612 C73.197184,294.775612 85.6791047,271.787811 87.6983448,272.231331" id="Fill-35" fill="#FFA07F" mask="url(#mask-2)"></path> <path d="M81.1814084,268.563471 C81.7833285,268.940751 82.4158485,269.312991 83.0667285,269.680551 C85.1921687,270.825351 88.2896088,272.306031 89.8368889,273.035391 C97.0808093,276.249831 104.22753,278.488671 104.22753,278.488671 C103.19217,278.183751 100.247729,278.822751 89.1654889,275.138871 C86.2491287,274.169031 84.5366086,288.787912 94.8851692,289.641112 C99.9806095,290.061232 119.23476,290.315032 119.23476,290.315032 C119.330971,292.357672 93.4689291,297.192832 93.4689291,297.192832 C93.4689291,297.192832 76.3005282,299.065912 76.0341282,293.907112 C75.7673681,288.748312 74.8259681,270.532311 74.8259681,270.532311 C77.9795683,267.784431 79.4804083,267.311031 81.1814084,268.563471" id="Fill-36" fill="#9A5350" mask="url(#mask-2)"></path> <path d="M204.785687,227.622612 C200.141327,215.276052 194.306807,203.344571 187.381846,192.03085 L158.071005,192.03085 L128.760523,192.03085 C121.835563,203.344571 116.001042,215.276052 111.356682,227.622612 C109.403322,232.815613 107.637882,238.235053 107.979882,243.748093 C108.427362,250.954934 110.465682,258.081494 115.749402,263.206814 C121.033123,268.331775 148.159124,273.427215 148.159124,273.427215 C170.837685,275.514855 179.051806,271.787775 184.843846,266.169615 C190.127566,261.044654 208.248887,248.832014 208.696367,241.625173 C209.038727,236.112133 206.739047,232.815613 204.785687,227.622612" id="Fill-37" fill="#456A97" mask="url(#mask-2)"></path> <path d="M152.05904,214.145832 C151.97876,217.281792 151.89884,220.418112 151.81892,223.554432 C151.69112,228.556272 151.56368,233.558833 151.43588,238.560673 C151.40636,239.713393 151.37684,240.866473 151.34732,242.019193 C151.3376,242.419873 151.77752,242.431753 151.7876,242.030353 C151.86752,238.894033 151.9478,235.757713 152.02772,232.621753 C152.15552,227.619552 152.28332,222.617352 152.41076,217.615152 C152.44028,216.462432 152.4698,215.309352 152.49896,214.156992 C152.50904,213.756312 152.06912,213.744432 152.05904,214.145832" id="Fill-38" fill="#273C55" mask="url(#mask-2)"></path> <path d="M149.747012,236.478145 C146.993732,234.038065 143.994572,231.892105 140.790572,230.083105 C140.388452,229.856305 140.009732,230.466145 140.412572,230.693665 C143.562572,232.471705 146.519252,234.573025 149.226812,236.972425 C149.570252,237.276985 150.093332,236.785225 149.747012,236.478145" id="Fill-39" fill="#273C55" mask="url(#mask-2)"></path> <path d="M155.922021,237.237133 C159.979581,235.955893 164.020581,234.603733 168.010461,233.125213 C169.391421,232.613293 170.767341,232.085173 172.119501,231.501253 C172.542861,231.318733 172.194741,230.690173 171.772821,230.872333 C167.030181,232.920733 162.066861,234.502933 157.154661,236.089813 C156.686661,236.241013 156.217941,236.391853 155.748861,236.540173 C155.3111,236.678413 155.47958,237.376453 155.922021,237.237133" id="Fill-40" fill="#273C55" mask="url(#mask-2)"></path> <path d="M154.103732,239.352853 C157.276053,239.864053 160.448373,240.375253 163.620693,240.886813 C164.070693,240.959173 164.283453,240.273013 163.829133,240.199933 C160.656813,239.688373 157.484493,239.177173 154.312172,238.665613 C153.862172,238.593253 153.649052,239.279413 154.103732,239.352853" id="Fill-41" fill="#273C55" mask="url(#mask-2)"></path> <path d="M121.652251,233.778145 C121.652251,233.778145 90.984929,234.428665 80.2961684,239.078425 C69.6074078,243.728185 60.3068073,256.118306 74.6686481,270.480147 C83.4886486,279.299787 121.332931,281.083587 121.332931,281.083587 L121.652251,233.778145 Z" id="Fill-42" fill="#456A97" mask="url(#mask-2)"></path> <path d="M237.496657,235.959925 C175.741894,245.547805 161.751933,256.051886 101.31189,279.368007 L110.30181,297.474928 C147.480452,285.787168 200.764055,283.262487 245.838577,268.338327 C255.079058,265.279046 243.457537,233.968045 237.496657,235.959925" id="Fill-43" fill="#456A97" mask="url(#mask-2)"></path> <path d="M166.291533,253.467734 C150.793172,259.162934 135.030211,266.073855 112.39881,275.033175 C125.303011,279.305295 138.311612,283.525575 151.201772,288.173896 C170.306613,284.786656 190.866574,281.770575 211.042056,277.498455 C195.830255,269.998215 180.603694,262.560974 166.291533,253.467734" id="Fill-44" fill="#345071" mask="url(#mask-2)"></path> <path d="M202.480859,228.973657 C202.480859,228.973657 233.148541,229.624537 243.836941,234.273937 C254.525702,238.923697 263.826302,251.741498 249.464462,266.103699 C240.644821,274.923339 201.873899,267.684819 201.873899,267.684819 L202.480859,228.973657 Z" id="Fill-45" fill="#456A97" mask="url(#mask-2)"></path> <path d="M92.6564091,242.474737 C155.048012,246.055657 169.986933,255.160058 232.395457,272.532939 L225.195816,291.42322 C187.062454,283.379019 133.783891,286.01026 87.4792488,275.507619 C77.9864083,273.354459 86.5310087,241.067857 92.6564091,242.474737" id="Fill-46" fill="#456A97" mask="url(#mask-2)"></path> <polygon id="Fill-47" fill="#345071" mask="url(#mask-2)" points="166.291533 253.467734 134.267371 242.936653 185.203774 243.278293"></polygon> <path d="M195.113495,234.134617 C189.720334,237.039457 184.925134,229.902457 182.454094,224.873976 C179.972254,219.822456 178.627294,214.064616 178.476814,208.162055 C178.458454,207.450695 177.564574,207.447815 177.582934,208.162055 C177.760414,215.122656 179.553214,221.938536 182.843614,227.604216 C185.698054,232.518577 190.326934,237.912097 195.564575,235.090777 C196.090895,234.807457 195.636215,233.853097 195.113495,234.134617" id="Fill-48" fill="#CCCCCC" mask="url(#mask-2)"></path> <path d="M190.753426,231.029977 C190.743346,229.506097 190.732906,227.981496 190.722826,226.457616 C190.718146,225.745176 189.824266,225.743376 189.828946,226.457616 C189.839026,227.981496 189.849466,229.506097 189.859546,231.029977 C189.864226,231.742417 190.758106,231.743857 190.753426,231.029977" id="Fill-49" fill="#CCCCCC" mask="url(#mask-2)"></path> <path d="M118.245606,235.090849 C124.734967,237.912169 130.470487,232.518289 134.007127,227.604288 C138.084128,221.938608 140.305328,215.123088 140.525288,208.161767 C140.547968,207.448967 139.440608,207.449687 139.417928,208.161767 C139.231448,214.065048 137.565008,219.822168 134.489527,224.874048 C131.428807,229.902169 125.487367,237.039889 118.804326,234.134689 C118.157406,233.853169 117.592926,234.807169 118.245606,235.090849" id="Fill-50" fill="#CCCCCC" mask="url(#mask-2)"></path> <path d="M192.902519,200.187011 C169.895277,202.347011 145.971836,202.347011 122.964595,200.187011 C123.176275,196.979411 124.538515,190.97785 124.750195,187.76989 C147.334796,189.88993 166.023837,189.33949 189.946198,187.90849 C190.157878,191.11609 192.902519,200.187011 192.902519,200.187011" id="Fill-51" fill="#AD4537" mask="url(#mask-2)"></path> <path d="M59.4110912,161.874441 C59.5356513,162.830601 66.0296916,166.638321 68.8160918,165.830481 C72.893092,164.648601 76.0931322,162.497241 79.1002123,159.500961 C90.3664129,148.27508 104.834814,136.756519 116.101014,125.529919 C126.185695,115.480518 136.835935,94.9691572 133.247095,88.4085168 C129.657895,81.8471565 116.302254,91.573277 110.769414,98.1537174 C104.813574,105.238158 96.9130133,114.277038 90.898853,121.312159 C84.9361726,128.287159 81.1756124,132.970399 74.6941721,139.4666 C68.2541317,145.92176 58.3314512,153.58832 59.4110912,161.874441" id="Fill-52" fill="#FFA07F" mask="url(#mask-2)"></path> <path d="M22.9431613,78.5488723 C21.8491212,79.5359923 21.2457612,81.1707524 21.0452411,82.3781925 C20.7061211,84.4150726 21.3242412,86.4929927 21.4218012,88.5467928 C21.5708412,91.686713 21.5438412,94.7863132 21.7314012,97.9244334 C21.9189612,101.062194 22.8780012,104.329554 25.3713614,106.480914 C26.0812814,107.093634 27.2872815,107.578194 27.9648015,106.922634 C28.5138016,104.845794 29.2284016,101.501034 29.0595616,99.3766734 C28.6808416,94.6196332 25.8534014,90.2276329 25.7184014,85.4576327 C25.6507214,83.0571525 26.2605614,80.5677524 25.6762814,78.2684323 C25.5672014,77.8389523 25.0956014,77.6524722 24.6438013,77.7190722 C23.9803213,77.8166323 23.4158413,78.1222723 22.9431613,78.5488723" id="Fill-53" fill="#FFA07F" mask="url(#mask-2)"></path> <path d="M21.0939492,92.093513 C20.4452291,89.8211929 11.5917486,74.048152 10.0437485,72.2517519 C8.34418846,70.2796718 7.2782284,72.308632 7.95142843,74.3257121 C8.62462847,76.3427922 16.8423489,92.196833 17.492509,93.4708731 C18.142309,94.7445532 21.6454692,94.0249131 21.0939492,92.093513" id="Fill-54" fill="#FFA07F" mask="url(#mask-2)"></path> <path d="M17.0785449,93.1197291 C16.6829049,91.918769 14.9822648,89.5859689 12.1847047,84.9286486 C9.75506453,80.8844084 6.53450436,74.5556081 5.73134431,73.650928 C4.09550422,71.8088079 2.97050416,73.818328 3.7236242,75.8066081 C4.05986422,76.6943682 6.56726436,83.0764485 8.68442447,86.8816487 C11.3099046,91.601249 13.1469847,93.9502491 13.5347047,94.6403692 C14.2352648,95.8870492 17.706745,95.0277292 17.0785449,93.1197291" id="Fill-55" fill="#FFA07F" mask="url(#mask-2)"></path> <path d="M14.2491968,95.6847292 C13.8035168,94.5860092 10.7460366,90.744809 7.91391643,86.6390087 C5.38851629,82.9774485 3.10143617,79.0217683 2.08011611,77.9313283 C0.391356021,76.1277282 -0.523404029,78.2654083 0.316476017,80.1003284 C0.680076037,80.8944884 2.35263613,84.4016086 4.51983625,87.7514088 C7.3595164,92.140169 10.8421566,96.5526893 11.2633566,97.1970893 C12.0060367,98.3332494 14.9655968,97.4512493 14.2491968,95.6847292" id="Fill-56" fill="#FFA07F" mask="url(#mask-2)"></path> <path d="M15.2101808,102.736014 C14.7007808,101.653854 11.0712606,97.6913333 7.87374043,93.7216131 C5.26842029,90.4873729 3.12750017,86.9485728 2.33874013,86.2199327 C0.691740038,84.6985726 0.618300034,86.4917327 1.52730008,88.2204528 C1.92438011,88.9753729 3.5728202,92.379173 5.68422031,95.6112532 C8.40582046,99.7768135 11.7113406,103.921494 12.1491007,104.517654 C12.9270607,105.576414 15.9960609,104.405334 15.2101808,102.736014" id="Fill-57" fill="#FFA07F" mask="url(#mask-2)"></path> <path d="M14.5281608,90.983957 C13.0280407,92.098517 11.6233206,93.3221571 10.7463606,94.8748372 C8.93916049,98.0741574 9.86400054,102.110838 12.3274807,104.787438 C14.7906008,107.464038 18.723601,110.981238 22.5190812,111.626718 C25.8116414,110.921118 28.8363616,108.640878 28.2006015,105.593118 C27.4460415,101.972598 26.4888014,93.0175971 23.7765613,90.3431569 C23.2952413,89.8683169 20.1240011,88.2976368 19.4050811,88.3210368 C18.831601,88.3390368 16.4001609,89.6472769 15.9382809,89.9719969 C15.4677608,90.3031969 14.9932808,90.638357 14.5281608,90.983957" id="Fill-58" fill="#FFA07F" mask="url(#mask-2)"></path> <path d="M12.2461567,94.1255331 C10.4778366,96.2941733 10.2107166,99.7462134 10.1102766,100.081013 C10.0717566,100.245893 10.0541165,100.410773 10.0537565,100.576373 C9.58467652,98.6672934 9.74739653,96.6433733 10.7463966,94.8746932 C11.6233566,93.3223731 13.0280767,92.098373 14.5281968,90.983813 C14.9933168,90.638213 15.4677968,90.3034129 15.9383169,89.9722129 C16.4001969,89.6474929 18.831277,88.3392528 19.4051171,88.3208928 C19.4569571,88.3190928 19.5246371,88.3280928 19.5998771,88.3421328 C18.169237,88.8803329 13.9957568,91.979573 12.2461567,94.1255331" id="Fill-59" fill="#C2826C" mask="url(#mask-2)"></path> <path d="M12.1853527,104.627418 C11.7681126,104.153658 11.3976726,103.640658 11.0812326,103.098858 C11.4300726,103.610418 11.8228326,104.120898 12.1853527,104.627418" id="Fill-60" fill="#FFA07F" mask="url(#mask-2)"></path> <path d="M21.5565852,91.486013 C21.5565852,91.486013 21.5252652,91.543253 21.4820652,91.635413 C21.4395852,91.727933 21.3812652,91.853933 21.3186252,91.990013 C21.2019852,92.265413 20.9085851,92.6135331 20.8531451,92.7737331 C20.0161451,95.1511732 19.8444251,97.7590133 20.3617451,100.225733 C20.3955851,100.392053 20.6461451,100.694454 20.7257051,100.982814 C20.7699851,101.125374 20.8110251,101.258574 20.8412651,101.355774 C20.8718651,101.452974 20.8952651,101.513454 20.8952651,101.513454 C20.8967051,101.513094 20.8934651,101.496894 20.8866251,101.468454 C20.8794251,101.440374 20.8689851,101.400414 20.8563851,101.350734 C20.8297451,101.252814 20.7933851,101.118894 20.7541451,100.974894 C20.6825051,100.685454 20.6061851,100.353533 20.5730651,100.187573 C20.0633051,97.7273333 20.2346651,95.1302932 21.0626652,92.7582531 C21.1177452,92.5984131 21.2369052,92.279453 21.3463452,92.001893 C21.4039452,91.864013 21.4575852,91.735853 21.4968252,91.642253 C21.5159052,91.595093 21.5313852,91.556213 21.5418252,91.529573 C21.5526252,91.502573 21.5576652,91.487093 21.5565852,91.486013" id="Fill-61" fill="#C2826C" mask="url(#mask-2)"></path> <path d="M20.3403611,108.603942 C20.3403611,108.603942 21.0607212,104.330382 26.4106814,103.518222 C26.4106814,103.518222 70.9966839,147.150944 74.1614441,152.045504 C77.3262042,156.940065 73.159204,169.420545 67.8376837,167.861385 C62.5161634,166.302585 57.9765632,160.342425 52.3425629,154.381544 C46.7085626,148.421024 20.3403611,108.603942 20.3403611,108.603942" id="Fill-62" fill="#FFA07F" mask="url(#mask-2)"></path> <path d="M256.85141,161.874441 C256.72685,162.830601 250.23317,166.638321 247.44641,165.830481 C243.369409,164.648601 240.169369,162.497241 237.162289,159.500961 C225.896448,148.27508 211.428048,136.756519 200.161847,125.529919 C190.076806,115.480518 179.426566,94.9691572 183.015406,88.4085168 C186.604606,81.8471565 199.960607,91.573277 205.493087,98.1537174 C211.448928,105.238158 219.349488,114.277038 225.363648,121.312159 C231.326689,128.287159 235.086889,132.970399 241.568329,139.4666 C248.00873,145.92176 257.93105,153.58832 256.85141,161.874441" id="Fill-63" fill="#FFA07F" mask="url(#mask-2)"></path> <path d="M293.31952,78.5488723 C294.41356,79.5359923 295.01656,81.1707524 295.21744,82.3781925 C295.5562,84.4150726 294.93808,86.4929927 294.84088,88.5467928 C294.69148,91.686713 294.71884,94.7863132 294.53128,97.9244334 C294.34336,101.062194 293.38432,104.329554 290.89132,106.480914 C290.1814,107.093634 288.9754,107.578194 288.29788,106.922634 C287.74852,104.845794 287.03428,101.501034 287.20312,99.3766734 C287.58184,94.6196332 290.40928,90.2276329 290.54428,85.4576327 C290.61196,83.0571525 290.00212,80.5677524 290.5864,78.2684323 C290.69548,77.8389523 291.16708,77.6524722 291.61888,77.7190722 C292.28236,77.8166323 292.84684,78.1222723 293.31952,78.5488723" id="Fill-64" fill="#FFA07F" mask="url(#mask-2)"></path> <path d="M295.168552,92.093513 C295.817272,89.8211929 304.671113,74.048152 306.219113,72.2517519 C307.918313,70.2796718 308.984273,72.308632 308.311073,74.3257121 C307.637873,76.3427922 299.420152,92.196833 298.770352,93.4708731 C298.120552,94.7445532 294.617032,94.0249131 295.168552,92.093513" id="Fill-65" fill="#FFA07F" mask="url(#mask-2)"></path> <path d="M299.1841,93.1197291 C299.57974,91.918769 301.28038,89.5859689 304.077941,84.9286486 C306.507221,80.8844084 309.727781,74.5556081 310.531301,73.650928 C312.167141,71.8088079 313.292141,73.818328 312.538661,75.8066081 C312.202421,76.6943682 309.695381,83.0764485 307.578221,86.8816487 C304.952741,91.601249 303.115301,93.9502491 302.727941,94.6403692 C302.027381,95.8870492 298.5559,95.0277292 299.1841,93.1197291" id="Fill-66" fill="#FFA07F" mask="url(#mask-2)"></path> <path d="M302.013485,95.6847292 C302.458805,94.5860092 305.516645,90.744809 308.348765,86.6390087 C310.874165,82.9774485 313.161245,79.0217683 314.182565,77.9313283 C315.871325,76.1277282 316.786085,78.2654083 315.946205,80.1003284 C315.582245,80.8944884 313.910045,84.4016086 311.742845,87.7514088 C308.903165,92.140169 305.420525,96.5526893 304.999325,97.1970893 C304.256645,98.3332494 301.297084,97.4512493 302.013485,95.6847292" id="Fill-67" fill="#FFA07F" mask="url(#mask-2)"></path> <path d="M301.052284,102.736014 C301.561684,101.653854 305.191205,97.6913333 308.389085,93.7216131 C310.994405,90.4873729 313.134965,86.9485728 313.923725,86.2199327 C315.570725,84.6985726 315.644165,86.4917327 314.735165,88.2204528 C314.338085,88.9753729 312.690005,92.379173 310.578245,95.6112532 C307.856645,99.7768135 304.551485,103.921494 304.113365,104.517654 C303.335765,105.576414 300.266404,104.405334 301.052284,102.736014" id="Fill-68" fill="#FFA07F" mask="url(#mask-2)"></path> <path d="M301.73452,90.983957 C303.234641,92.098517 304.639001,93.3221571 305.516321,94.8748372 C307.323521,98.0741574 306.398681,102.110838 303.935201,104.787438 C301.47208,107.464038 297.53908,110.981238 293.74324,111.626718 C290.45104,110.921118 287.42632,108.640878 288.06172,105.593118 C288.81664,101.972598 289.77388,93.0175971 292.48612,90.3431569 C292.96744,89.8683169 296.13868,88.2976368 296.8576,88.3210368 C297.43108,88.3390368 299.86252,89.6472769 300.3244,89.9719969 C300.79492,90.3031969 301.2694,90.638357 301.73452,90.983957" id="Fill-69" fill="#FFA07F" mask="url(#mask-2)"></path> <path d="M304.016489,94.1255331 C305.784809,96.2941733 306.051929,99.7462134 306.152009,100.081013 C306.190889,100.245893 306.208529,100.410773 306.208889,100.576373 C306.677969,98.6672934 306.514889,96.6433733 305.516249,94.8746932 C304.638929,93.3223731 303.234569,92.098373 301.734448,90.983813 C301.269328,90.638213 300.794848,90.3034129 300.324328,89.9722129 C299.862448,89.6474929 297.431008,88.3392528 296.857528,88.3208928 C296.805688,88.3190928 296.738008,88.3280928 296.662768,88.3421328 C298.093048,88.8803329 302.266889,91.979573 304.016489,94.1255331" id="Fill-70" fill="#C2826C" mask="url(#mask-2)"></path> <path d="M304.077329,104.627418 C304.494569,104.153658 304.865009,103.640658 305.181449,103.098858 C304.832609,103.610418 304.439849,104.120898 304.077329,104.627418" id="Fill-71" fill="#FFA07F" mask="url(#mask-2)"></path> <path d="M294.70588,91.486013 C294.70588,91.486013 294.7372,91.543253 294.7804,91.635413 C294.82288,91.727933 294.8812,91.853933 294.94384,91.990013 C295.06048,92.265413 295.35388,92.6135331 295.40932,92.7737331 C296.24632,95.1511732 296.4184,97.7590133 295.90072,100.225733 C295.86688,100.392053 295.61632,100.694454 295.53676,100.982814 C295.49284,101.125374 295.45144,101.258574 295.42156,101.355774 C295.3906,101.452974 295.3672,101.513454 295.3672,101.513454 C295.36576,101.513094 295.36936,101.496894 295.37584,101.468454 C295.38304,101.440374 295.39348,101.400414 295.40608,101.350734 C295.43272,101.252814 295.46908,101.118894 295.50832,100.974894 C295.57996,100.685454 295.65628,100.353533 295.68976,100.187573 C296.19916,97.7273333 296.02816,95.1302932 295.1998,92.7582531 C295.14508,92.5984131 295.02556,92.279453 294.91648,92.001893 C294.85852,91.864013 294.80488,91.735853 294.76564,91.642253 C294.74692,91.595093 294.73108,91.556213 294.72064,91.529573 C294.7102,91.502573 294.7048,91.487093 294.70588,91.486013" id="Fill-72" fill="#C2826C" mask="url(#mask-2)"></path> <path d="M295.92214,108.603942 C295.92214,108.603942 295.20178,104.330382 289.85182,103.518222 C289.85182,103.518222 245.265817,147.150944 242.101057,152.045504 C238.936297,156.940065 243.103297,169.420545 248.424818,167.861385 C253.746698,166.302585 258.285938,160.342425 263.919938,154.381544 C269.553939,148.421024 295.92214,108.603942 295.92214,108.603942" id="Fill-73" fill="#FFA07F" mask="url(#mask-2)"></path> </g> </g> </g> </g> </g> </svg> 