<?xml version="1.0" encoding="UTF-8"?> <svg xmlns="http://www.w3.org/2000/svg" xmlns:xlink="http://www.w3.org/1999/xlink" width="113px" height="28px" viewBox="0 0 113 28"> <!-- Generator: Sketch 57.1 (83088) - https://sketch.com --> <title>Group 8</title> <desc>Created with Sketch.</desc> <defs> <polygon id="path-1" points="0 0.221 113.026 0.221 113.026 2.3764 0 2.3764"></polygon> </defs> <g id="Page-1" stroke="none" stroke-width="1" fill="none" fill-rule="evenodd"> <g id="applewatch_01-copy-2" transform="translate(-1218.000000, -8.000000)"> <g id="bg-2"> <g id="Group-34"> <g id="Group-33"> <g id="Group-8" transform="translate(1218.000000, 7.000000)"> <g id="Group-3" transform="translate(0.000000, 0.779300)"> <mask id="mask-2" fill="white"> <use xlink:href="#path-1"></use> </mask> <g id="Clip-2"></g> <path d="M0,1.2984 C0,0.7014 0.48,0.2204 1.078,0.2204 C1.672,0.2204 2.156,0.7014 2.156,1.2984 C2.156,1.8934 1.672,2.3764 1.078,2.3764 C0.48,2.3764 0,1.8934 0,1.2984 M11.087,1.2984 C11.087,0.7014 11.567,0.2204 12.165,0.2204 C12.759,0.2204 13.243,0.7014 13.243,1.2984 C13.243,1.8934 12.759,2.3764 12.165,2.3764 C11.567,2.3764 11.087,1.8934 11.087,1.2984 M22.174,1.2984 C22.174,0.7014 22.654,0.2204 23.252,0.2204 C23.846,0.2204 24.33,0.7014 24.33,1.2984 C24.33,1.8934 23.846,2.3764 23.252,2.3764 C22.654,2.3764 22.174,1.8934 22.174,1.2984 M33.258,1.2984 C33.258,0.7014 33.742,0.2204 34.339,0.2204 C34.933,0.2204 35.417,0.7014 35.417,1.2984 C35.417,1.8934 34.933,2.3764 34.339,2.3764 C33.742,2.3764 33.258,1.8934 33.258,1.2984 M44.348,1.2984 C44.348,0.7014 44.829,0.2204 45.426,0.2204 C46.021,0.2204 46.504,0.7014 46.504,1.2984 C46.504,1.8934 46.021,2.3764 45.426,2.3764 C44.829,2.3764 44.348,1.8934 44.348,1.2984 M55.435,1.2984 C55.435,0.7014 55.916,0.2204 56.513,0.2204 C57.107,0.2204 57.591,0.7014 57.591,1.2984 C57.591,1.8934 57.107,2.3764 56.513,2.3764 C55.916,2.3764 55.435,1.8934 55.435,1.2984 M66.522,1.2984 C66.522,0.7014 67.002,0.2204 67.6,0.2204 C68.194,0.2204 68.675,0.7014 68.675,1.2984 C68.675,1.8934 68.194,2.3764 67.6,2.3764 C67.002,2.3764 66.522,1.8934 66.522,1.2984 M77.609,1.2984 C77.609,0.7014 78.09,0.2204 78.688,0.2204 C79.282,0.2204 79.765,0.7014 79.765,1.2984 C79.765,1.8934 79.282,2.3764 78.688,2.3764 C78.09,2.3764 77.609,1.8934 77.609,1.2984 M88.696,1.2984 C88.696,0.7014 89.177,0.2204 89.774,0.2204 C90.369,0.2204 90.853,0.7014 90.853,1.2984 C90.853,1.8934 90.369,2.3764 89.774,2.3764 C89.177,2.3764 88.696,1.8934 88.696,1.2984 M99.784,1.2984 C99.784,0.7014 100.264,0.2204 100.861,0.2204 C101.456,0.2204 101.939,0.7014 101.939,1.2984 C101.939,1.8934 101.456,2.3764 100.861,2.3764 C100.264,2.3764 99.784,1.8934 99.784,1.2984 M110.871,1.2984 C110.871,0.7014 111.351,0.2204 111.945,0.2204 C112.543,0.2204 113.026,0.7014 113.026,1.2984 C113.026,1.8934 112.543,2.3764 111.945,2.3764 C111.351,2.3764 110.871,1.8934 110.871,1.2984" id="Fill-1" fill="#181A40" mask="url(#mask-2)"></path> </g> <path d="M0,14.8897 C0,14.2947 0.48,13.8117 1.078,13.8117 C1.672,13.8117 2.156,14.2947 2.156,14.8897 C2.156,15.4837 1.672,15.9677 1.078,15.9677 C0.48,15.9677 0,15.4837 0,14.8897 M11.087,14.8897 C11.087,14.2947 11.567,13.8117 12.165,13.8117 C12.759,13.8117 13.243,14.2947 13.243,14.8897 C13.243,15.4837 12.759,15.9677 12.165,15.9677 C11.567,15.9677 11.087,15.4837 11.087,14.8897 M22.174,14.8897 C22.174,14.2947 22.654,13.8117 23.252,13.8117 C23.846,13.8117 24.33,14.2947 24.33,14.8897 C24.33,15.4837 23.846,15.9677 23.252,15.9677 C22.654,15.9677 22.174,15.4837 22.174,14.8897 M33.258,14.8897 C33.258,14.2947 33.742,13.8117 34.339,13.8117 C34.933,13.8117 35.417,14.2947 35.417,14.8897 C35.417,15.4837 34.933,15.9677 34.339,15.9677 C33.742,15.9677 33.258,15.4837 33.258,14.8897 M44.348,14.8897 C44.348,14.2947 44.829,13.8117 45.426,13.8117 C46.021,13.8117 46.504,14.2947 46.504,14.8897 C46.504,15.4837 46.021,15.9677 45.426,15.9677 C44.829,15.9677 44.348,15.4837 44.348,14.8897 M55.435,14.8897 C55.435,14.2947 55.916,13.8117 56.513,13.8117 C57.107,13.8117 57.591,14.2947 57.591,14.8897 C57.591,15.4837 57.107,15.9677 56.513,15.9677 C55.916,15.9677 55.435,15.4837 55.435,14.8897 M66.522,14.8897 C66.522,14.2947 67.002,13.8117 67.6,13.8117 C68.194,13.8117 68.675,14.2947 68.675,14.8897 C68.675,15.4837 68.194,15.9677 67.6,15.9677 C67.002,15.9677 66.522,15.4837 66.522,14.8897 M77.609,14.8897 C77.609,14.2947 78.09,13.8117 78.688,13.8117 C79.282,13.8117 79.765,14.2947 79.765,14.8897 C79.765,15.4837 79.282,15.9677 78.688,15.9677 C78.09,15.9677 77.609,15.4837 77.609,14.8897 M88.696,14.8897 C88.696,14.2947 89.177,13.8117 89.774,13.8117 C90.369,13.8117 90.853,14.2947 90.853,14.8897 C90.853,15.4837 90.369,15.9677 89.774,15.9677 C89.177,15.9677 88.696,15.4837 88.696,14.8897 M99.784,14.8897 C99.784,14.2947 100.264,13.8117 100.861,13.8117 C101.456,13.8117 101.939,14.2947 101.939,14.8897 C101.939,15.4837 101.456,15.9677 100.861,15.9677 C100.264,15.9677 99.784,15.4837 99.784,14.8897 M110.871,14.8897 C110.871,14.2947 111.351,13.8117 111.945,13.8117 C112.543,13.8117 113.026,14.2947 113.026,14.8897 C113.026,15.4837 112.543,15.9677 111.945,15.9677 C111.351,15.9677 110.871,15.4837 110.871,14.8897" id="Fill-4" fill="#181A40"></path> <path d="M0,27.7042 C0,27.1072 0.48,26.6262 1.078,26.6262 C1.672,26.6262 2.156,27.1072 2.156,27.7042 C2.156,28.2992 1.672,28.7792 1.078,28.7792 C0.48,28.7792 0,28.2992 0,27.7042 M11.087,27.7042 C11.087,27.1072 11.567,26.6262 12.165,26.6262 C12.759,26.6262 13.243,27.1072 13.243,27.7042 C13.243,28.2992 12.759,28.7792 12.165,28.7792 C11.567,28.7792 11.087,28.2992 11.087,27.7042 M22.174,27.7042 C22.174,27.1072 22.654,26.6262 23.252,26.6262 C23.846,26.6262 24.33,27.1072 24.33,27.7042 C24.33,28.2992 23.846,28.7792 23.252,28.7792 C22.654,28.7792 22.174,28.2992 22.174,27.7042 M33.258,27.7042 C33.258,27.1072 33.742,26.6262 34.339,26.6262 C34.933,26.6262 35.417,27.1072 35.417,27.7042 C35.417,28.2992 34.933,28.7792 34.339,28.7792 C33.742,28.7792 33.258,28.2992 33.258,27.7042 M44.348,27.7042 C44.348,27.1072 44.829,26.6262 45.426,26.6262 C46.021,26.6262 46.504,27.1072 46.504,27.7042 C46.504,28.2992 46.021,28.7792 45.426,28.7792 C44.829,28.7792 44.348,28.2992 44.348,27.7042 M55.435,27.7042 C55.435,27.1072 55.916,26.6262 56.513,26.6262 C57.107,26.6262 57.591,27.1072 57.591,27.7042 C57.591,28.2992 57.107,28.7792 56.513,28.7792 C55.916,28.7792 55.435,28.2992 55.435,27.7042 M66.522,27.7042 C66.522,27.1072 67.002,26.6262 67.6,26.6262 C68.194,26.6262 68.675,27.1072 68.675,27.7042 C68.675,28.2992 68.194,28.7792 67.6,28.7792 C67.002,28.7792 66.522,28.2992 66.522,27.7042 M77.609,27.7042 C77.609,27.1072 78.09,26.6262 78.688,26.6262 C79.282,26.6262 79.765,27.1072 79.765,27.7042 C79.765,28.2992 79.282,28.7792 78.688,28.7792 C78.09,28.7792 77.609,28.2992 77.609,27.7042 M88.696,27.7042 C88.696,27.1072 89.177,26.6262 89.774,26.6262 C90.369,26.6262 90.853,27.1072 90.853,27.7042 C90.853,28.2992 90.369,28.7792 89.774,28.7792 C89.177,28.7792 88.696,28.2992 88.696,27.7042 M99.784,27.7042 C99.784,27.1072 100.264,26.6262 100.861,26.6262 C101.456,26.6262 101.939,27.1072 101.939,27.7042 C101.939,28.2992 101.456,28.7792 100.861,28.7792 C100.264,28.7792 99.784,28.2992 99.784,27.7042 M110.871,27.7042 C110.871,27.1072 111.351,26.6262 111.945,26.6262 C112.543,26.6262 113.026,27.1072 113.026,27.7042 C113.026,28.2992 112.543,28.7792 111.945,28.7792 C111.351,28.7792 110.871,28.2992 110.871,27.7042" id="Fill-6" fill="#181A40"></path> </g> </g> </g> </g> </g> </g> </svg> 