<?xml version="1.0" encoding="UTF-8"?> <svg xmlns="http://www.w3.org/2000/svg" width="94" height="44" viewBox="0 0 94 44" fill="none"> <g clip-path="url(#clip0)"> <g filter="url(#filter0_d)"> <path fill-rule="evenodd" clip-rule="evenodd" d="M0 22C0 9.84974 9.84974 0 22 0H72C84.1503 0 94 9.84974 94 22C94 34.1503 84.1503 44 72 44H22C9.84973 44 0 34.1503 0 22Z" fill="white"></path> <path fill-rule="evenodd" clip-rule="evenodd" d="M0 22C0 9.84974 9.84974 0 22 0H72C84.1503 0 94 9.84974 94 22C94 34.1503 84.1503 44 72 44H22C9.84973 44 0 34.1503 0 22Z" fill="#0099FF"></path> </g> <path d="M23.3633 30H16.0273V27.8203H18.4883V19.125C18.3789 19.5078 18.1875 19.8477 17.9141 20.1445C17.6484 20.4414 17.3242 20.6914 16.9414 20.8945C16.5664 21.0898 16.1445 21.2422 15.6758 21.3516C15.2148 21.4531 14.7383 21.5039 14.2461 21.5039V19.0781C14.7773 19.0781 15.293 18.9922 15.793 18.8203C16.3008 18.6406 16.7539 18.3711 17.1523 18.0117C17.5508 17.6523 17.8711 17.2031 18.1133 16.6641C18.3633 16.1172 18.4883 15.4648 18.4883 14.707H20.9141V27.8203H23.3633V30ZM27.1602 19.9219C27.1602 19.0703 27.2969 18.3086 27.5703 17.6367C27.8516 16.9648 28.2344 16.3945 28.7188 15.9258C29.2109 15.4492 29.7891 15.0859 30.4531 14.8359C31.1172 14.5781 31.8242 14.4492 32.5742 14.4492C33.7305 14.4492 34.6797 14.6719 35.4219 15.1172C36.1641 15.5547 36.75 16.1406 37.1797 16.875C37.6172 17.6094 37.9219 18.4492 38.0938 19.3945C38.2734 20.3398 38.3633 21.3242 38.3633 22.3477C38.3633 23.3867 38.2344 24.3828 37.9766 25.3359C37.7188 26.2891 37.3242 27.1328 36.793 27.8672C36.2695 28.6016 35.6094 29.1875 34.8125 29.625C34.0156 30.0547 33.0781 30.2695 32 30.2695C31.2344 30.2695 30.5117 30.1523 29.832 29.918C29.1523 29.6836 28.5547 29.3438 28.0391 28.8984L29.3633 27.1172C29.7617 27.4688 30.1719 27.7188 30.5938 27.8672C31.0234 28.0078 31.4922 28.0781 32 28.0781C32.6562 28.0781 33.2383 27.9492 33.7461 27.6914C34.2617 27.4258 34.6914 27.0547 35.0352 26.5781C35.3789 26.0938 35.6367 25.5234 35.8086 24.8672C35.9883 24.2109 36.0781 23.4883 36.0781 22.6992C35.8438 23.5195 35.3906 24.1875 34.7188 24.7031C34.0469 25.2109 33.1562 25.4648 32.0469 25.4648C31.3906 25.4648 30.7656 25.3242 30.1719 25.043C29.5859 24.7617 29.0664 24.3789 28.6133 23.8945C28.168 23.4023 27.8125 22.8164 27.5469 22.1367C27.2891 21.457 27.1602 20.7188 27.1602 19.9219ZM29.5742 19.9219C29.5742 20.8828 29.8398 21.6875 30.3711 22.3359C30.9023 22.9844 31.6641 23.3086 32.6562 23.3086C33.6094 23.3086 34.375 23.0078 34.9531 22.4062C35.5312 21.8047 35.8203 21.0156 35.8203 20.0391C35.8203 19.5625 35.7539 19.1211 35.6211 18.7148C35.4961 18.3008 35.3008 17.9375 35.0352 17.625C34.7773 17.3125 34.4414 17.0703 34.0273 16.8984C33.6211 16.7188 33.1289 16.6289 32.5508 16.6289C31.6914 16.6289 30.9805 16.918 30.418 17.4961C29.8555 18.0742 29.5742 18.8828 29.5742 19.9219ZM47.3867 22.0312H44.4336V19.0781H47.3867V22.0312ZM47.3867 30H44.4336V27.0469H47.3867V30ZM53.1641 22.3477C53.1641 21.3242 53.2734 20.3359 53.4922 19.3828C53.7109 18.4297 54.0508 17.5898 54.5117 16.8633C54.9727 16.1367 55.5742 15.5547 56.3164 15.1172C57.0664 14.6719 57.9688 14.4492 59.0234 14.4492C60.0781 14.4492 60.9766 14.6719 61.7188 15.1172C62.4688 15.5547 63.0781 16.1367 63.5469 16.8633C64.0156 17.5898 64.3555 18.4297 64.5664 19.3828C64.7773 20.3359 64.8828 21.3242 64.8828 22.3477C64.8828 23.3711 64.7773 24.3594 64.5664 25.3125C64.3555 26.2578 64.0195 27.1016 63.5586 27.8438C63.0977 28.5781 62.4922 29.168 61.7422 29.6133C61 30.0508 60.0938 30.2695 59.0234 30.2695C57.9531 30.2695 57.043 30.0508 56.293 29.6133C55.5508 29.168 54.9453 28.5781 54.4766 27.8438C54.0156 27.1016 53.6836 26.2578 53.4805 25.3125C53.2695 24.3594 53.1641 23.3711 53.1641 22.3477ZM55.5898 22.3477C55.5898 23.0664 55.6367 23.7617 55.7305 24.4336L61.7305 18.4102C61.4648 17.8789 61.1133 17.4492 60.6758 17.1211C60.2461 16.793 59.6953 16.6289 59.0234 16.6289C57.9062 16.6289 57.0547 17.1328 56.4688 18.1406C55.8828 19.1484 55.5898 20.5508 55.5898 22.3477ZM59.0234 28.0781C59.7109 28.0781 60.2734 27.9102 60.7109 27.5742C61.1562 27.2383 61.5039 26.8008 61.7539 26.2617C62.0117 25.7148 62.1914 25.0977 62.293 24.4102C62.4023 23.7227 62.457 23.0352 62.457 22.3477C62.457 21.6914 62.4102 21.0508 62.3164 20.4258L56.3633 26.4023C56.6289 26.9102 56.9688 27.3164 57.3828 27.6211C57.8047 27.9258 58.3516 28.0781 59.0234 28.0781ZM66.2656 22.3477C66.2656 21.3242 66.375 20.3359 66.5938 19.3828C66.8125 18.4297 67.1523 17.5898 67.6133 16.8633C68.0742 16.1367 68.6758 15.5547 69.418 15.1172C70.168 14.6719 71.0703 14.4492 72.125 14.4492C73.1797 14.4492 74.0781 14.6719 74.8203 15.1172C75.5703 15.5547 76.1797 16.1367 76.6484 16.8633C77.1172 17.5898 77.457 18.4297 77.668 19.3828C77.8789 20.3359 77.9844 21.3242 77.9844 22.3477C77.9844 23.3711 77.8789 24.3594 77.668 25.3125C77.457 26.2578 77.1211 27.1016 76.6602 27.8438C76.1992 28.5781 75.5938 29.168 74.8438 29.6133C74.1016 30.0508 73.1953 30.2695 72.125 30.2695C71.0547 30.2695 70.1445 30.0508 69.3945 29.6133C68.6523 29.168 68.0469 28.5781 67.5781 27.8438C67.1172 27.1016 66.7852 26.2578 66.582 25.3125C66.3711 24.3594 66.2656 23.3711 66.2656 22.3477ZM68.6914 22.3477C68.6914 23.0664 68.7383 23.7617 68.832 24.4336L74.832 18.4102C74.5664 17.8789 74.2148 17.4492 73.7773 17.1211C73.3477 16.793 72.7969 16.6289 72.125 16.6289C71.0078 16.6289 70.1562 17.1328 69.5703 18.1406C68.9844 19.1484 68.6914 20.5508 68.6914 22.3477ZM72.125 28.0781C72.8125 28.0781 73.375 27.9102 73.8125 27.5742C74.2578 27.2383 74.6055 26.8008 74.8555 26.2617C75.1133 25.7148 75.293 25.0977 75.3945 24.4102C75.5039 23.7227 75.5586 23.0352 75.5586 22.3477C75.5586 21.6914 75.5117 21.0508 75.418 20.4258L69.4648 26.4023C69.7305 26.9102 70.0703 27.3164 70.4844 27.6211C70.9062 27.9258 71.4531 28.0781 72.125 28.0781Z" fill="white"></path> </g> <defs> <filter id="filter0_d" x="-5" y="-3" width="104" height="54" filterUnits="userSpaceOnUse" color-interpolation-filters="sRGB"> <feFlood flood-opacity="0" result="BackgroundImageFix"></feFlood> <feColorMatrix in="SourceAlpha" type="matrix" values="0 0 0 0 0 0 0 0 0 0 0 0 0 0 0 0 0 0 127 0"></feColorMatrix> <feOffset dy="2"></feOffset> <feGaussianBlur stdDeviation="2.5"></feGaussianBlur> <feColorMatrix type="matrix" values="0 0 0 0 0 0 0 0 0 0 0 0 0 0 0 0 0 0 0.124945 0"></feColorMatrix> <feBlend mode="normal" in2="BackgroundImageFix" result="effect1_dropShadow"></feBlend> <feBlend mode="normal" in="SourceGraphic" in2="effect1_dropShadow" result="shape"></feBlend> </filter> <clipPath id="clip0"> <rect width="94" height="44" fill="white"></rect> </clipPath> </defs> </svg> 