<?xml version="1.0" encoding="UTF-8"?> <svg xmlns="http://www.w3.org/2000/svg" xmlns:xlink="http://www.w3.org/1999/xlink" width="245px" height="412px" viewBox="0 0 245 412"> <!-- Generator: Sketch 57.1 (83088) - https://sketch.com --> <title>Group 292</title> <desc>Created with Sketch.</desc> <defs> <polygon id="path-1" points="0 411.480016 244.28665 411.480016 244.28665 0.0918000036 0 0.0918000036"></polygon> <path d="M0.382860015,0.0327600013 C-0.666900027,3.19050013 1.17018005,11.6773205 3.00744012,11.0851204 L3.00744012,11.0851204 C4.84452019,10.4931004 4.31964017,0.0327600013 4.31964017,0.0327600013 L4.31964017,0.0327600013 L0.382860015,0.0327600013 Z" id="path-3"></path> <path d="M0.382860015,0.0327600013 C-0.666900027,3.19050013 1.17018005,11.6773205 3.00744012,11.0851204 L3.00744012,11.0851204 C4.84452019,10.4931004 4.31964017,0.0327600013 4.31964017,0.0327600013 L4.31964017,0.0327600013 L0.382860015,0.0327600013 Z" id="path-5"></path> <path d="M0.382860015,0.0327600013 C-0.666900027,3.19050013 1.17018005,11.6773205 3.00744012,11.0851204 L3.00744012,11.0851204 C4.84452019,10.4931004 4.31964017,0.0327600013 4.31964017,0.0327600013 L4.31964017,0.0327600013 L0.382860015,0.0327600013 Z" id="path-7"></path> <path d="M0.382860015,0.0327600013 C-0.666900027,3.19050013 1.17018005,11.6773205 3.00744012,11.0851204 L3.00744012,11.0851204 C4.84452019,10.4931004 4.31964017,0.0327600013 4.31964017,0.0327600013 L4.31964017,0.0327600013 L0.382860015,0.0327600013 Z" id="path-9"></path> <path d="M0.382860015,0.0327600013 C-0.666900027,3.19050013 1.17018005,11.6773205 3.00744012,11.0851204 L3.00744012,11.0851204 C4.84452019,10.4931004 4.31964017,0.0327600013 4.31964017,0.0327600013 L4.31964017,0.0327600013 L0.382860015,0.0327600013 Z" id="path-11"></path> <path d="M0.382860015,0.0327600013 C-0.666900027,3.19050013 1.17018005,11.6773205 3.00744012,11.0851204 L3.00744012,11.0851204 C4.84452019,10.4931004 4.31964017,0.0327600013 4.31964017,0.0327600013 L4.31964017,0.0327600013 L0.382860015,0.0327600013 Z" id="path-13"></path> <path d="M0.382860015,0.0327600013 C-0.666900027,3.19050013 1.17018005,11.6773205 3.00744012,11.0851204 L3.00744012,11.0851204 C4.84452019,10.4931004 4.31964017,0.0327600013 4.31964017,0.0327600013 L4.31964017,0.0327600013 L0.382860015,0.0327600013 Z" id="path-15"></path> <path d="M0.382860015,0.0327600013 C-0.666900027,3.19050013 1.17018005,11.6773205 3.00744012,11.0851204 L3.00744012,11.0851204 C4.84452019,10.4931004 4.31964017,0.0327600013 4.31964017,0.0327600013 L4.31964017,0.0327600013 L0.382860015,0.0327600013 Z" id="path-17"></path> <path d="M0.382860015,0.0327600013 C-0.666900027,3.19050013 1.17018005,11.6773205 3.00744012,11.0851204 L3.00744012,11.0851204 C4.84452019,10.4931004 4.31964017,0.0327600013 4.31964017,0.0327600013 L4.31964017,0.0327600013 L0.382860015,0.0327600013 Z" id="path-19"></path> <path d="M0.382860015,0.0327600013 C-0.666900027,3.19050013 1.17018005,11.6773205 3.00744012,11.0851204 L3.00744012,11.0851204 C4.84452019,10.4931004 4.31964017,0.0327600013 4.31964017,0.0327600013 L4.31964017,0.0327600013 L0.382860015,0.0327600013 Z" id="path-21"></path> <path d="M0.382860015,0.0327600013 C-0.666900027,3.19050013 1.17018005,11.6773205 3.00744012,11.0851204 L3.00744012,11.0851204 C4.84452019,10.4931004 4.31964017,0.0327600013 4.31964017,0.0327600013 L4.31964017,0.0327600013 L0.382860015,0.0327600013 Z" id="path-23"></path> <path d="M0.382860015,0.0327600013 C-0.666900027,3.19050013 1.17018005,11.6773205 3.00744012,11.0851204 L3.00744012,11.0851204 C4.84452019,10.4931004 4.31964017,0.0327600013 4.31964017,0.0327600013 L4.31964017,0.0327600013 L0.382860015,0.0327600013 Z" id="path-25"></path> <path d="M0.382860015,0.0327600013 C-0.666900027,3.19050013 1.17018005,11.6773205 3.00744012,11.0851204 L3.00744012,11.0851204 C4.84452019,10.4931004 4.31964017,0.0327600013 4.31964017,0.0327600013 L4.31964017,0.0327600013 L0.382860015,0.0327600013 Z" id="path-27"></path> <path d="M0.382860015,0.0327600013 C-0.666900027,3.19050013 1.17018005,11.6773205 3.00744012,11.0851204 L3.00744012,11.0851204 C4.84452019,10.4931004 4.31964017,0.0327600013 4.31964017,0.0327600013 L4.31964017,0.0327600013 L0.382860015,0.0327600013 Z" id="path-29"></path> <path d="M0.382860015,0.0327600013 C-0.666900027,3.19050013 1.17018005,11.6773205 3.00744012,11.0851204 L3.00744012,11.0851204 C4.84452019,10.4931004 4.31964017,0.0327600013 4.31964017,0.0327600013 L4.31964017,0.0327600013 L0.382860015,0.0327600013 Z" id="path-31"></path> <path d="M0.382860015,0.0327600013 C-0.666900027,3.19050013 1.17018005,11.6773205 3.00744012,11.0851204 L3.00744012,11.0851204 C4.84452019,10.4931004 4.31964017,0.0327600013 4.31964017,0.0327600013 L4.31964017,0.0327600013 L0.382860015,0.0327600013 Z" id="path-33"></path> <path d="M0.382860015,0.0327600013 C-0.666900027,3.19050013 1.17018005,11.6773205 3.00744012,11.0851204 L3.00744012,11.0851204 C4.84452019,10.4931004 4.31964017,0.0327600013 4.31964017,0.0327600013 L4.31964017,0.0327600013 L0.382860015,0.0327600013 Z" id="path-35"></path> <path d="M0.382860015,0.0327600013 C-0.666900027,3.19050013 1.17018005,11.6773205 3.00744012,11.0851204 L3.00744012,11.0851204 C4.84452019,10.4931004 4.31964017,0.0327600013 4.31964017,0.0327600013 L4.31964017,0.0327600013 L0.382860015,0.0327600013 Z" id="path-37"></path> <path d="M0.382860015,0.0327600013 C-0.666900027,3.19050013 1.17018005,11.6773205 3.00744012,11.0851204 L3.00744012,11.0851204 C4.84452019,10.4931004 4.31964017,0.0327600013 4.31964017,0.0327600013 L4.31964017,0.0327600013 L0.382860015,0.0327600013 Z" id="path-39"></path> <path d="M0.382860015,0.0327600013 C-0.666900027,3.19050013 1.17018005,11.6773205 3.00744012,11.0851204 L3.00744012,11.0851204 C4.84452019,10.4931004 4.31964017,0.0327600013 4.31964017,0.0327600013 L4.31964017,0.0327600013 L0.382860015,0.0327600013 Z" id="path-41"></path> <path d="M0.382860015,0.0327600013 C-0.666900027,3.19050013 1.17018005,11.6773205 3.00744012,11.0851204 L3.00744012,11.0851204 C4.84452019,10.4931004 4.31964017,0.0327600013 4.31964017,0.0327600013 L4.31964017,0.0327600013 L0.382860015,0.0327600013 Z" id="path-43"></path> <path d="M0.382860015,0.0327600013 C-0.666900027,3.19050013 1.17018005,11.6773205 3.00744012,11.0851204 L3.00744012,11.0851204 C4.84452019,10.4931004 4.31964017,0.0327600013 4.31964017,0.0327600013 L4.31964017,0.0327600013 L0.382860015,0.0327600013 Z" id="path-45"></path> <path d="M0.382860015,0.0327600013 C-0.666900027,3.19050013 1.17018005,11.6773205 3.00744012,11.0851204 L3.00744012,11.0851204 C4.84452019,10.4931004 4.31964017,0.0327600013 4.31964017,0.0327600013 L4.31964017,0.0327600013 L0.382860015,0.0327600013 Z" id="path-47"></path> <path d="M0.382860015,0.0327600013 C-0.666900027,3.19050013 1.17018005,11.6773205 3.00744012,11.0851204 L3.00744012,11.0851204 C4.84452019,10.4931004 4.31964017,0.0327600013 4.31964017,0.0327600013 L4.31964017,0.0327600013 L0.382860015,0.0327600013 Z" id="path-49"></path> <path d="M0.382860015,0.0327600013 C-0.666900027,3.19050013 1.17018005,11.6773205 3.00744012,11.0851204 L3.00744012,11.0851204 C4.84452019,10.4931004 4.31964017,0.0327600013 4.31964017,0.0327600013 L4.31964017,0.0327600013 L0.382860015,0.0327600013 Z" id="path-51"></path> <path d="M0.382860015,0.0327600013 C-0.666900027,3.19050013 1.17018005,11.6773205 3.00744012,11.0851204 L3.00744012,11.0851204 C4.84452019,10.4931004 4.31964017,0.0327600013 4.31964017,0.0327600013 L4.31964017,0.0327600013 L0.382860015,0.0327600013 Z" id="path-53"></path> <path d="M0.382860015,0.0327600013 C-0.666900027,3.19050013 1.17018005,11.6773205 3.00744012,11.0851204 L3.00744012,11.0851204 C4.84452019,10.4931004 4.31964017,0.0327600013 4.31964017,0.0327600013 L4.31964017,0.0327600013 L0.382860015,0.0327600013 Z" id="path-55"></path> <path d="M0.382860015,0.0327600013 C-0.666900027,3.19050013 1.17018005,11.6773205 3.00744012,11.0851204 L3.00744012,11.0851204 C4.84452019,10.4931004 4.31964017,0.0327600013 4.31964017,0.0327600013 L4.31964017,0.0327600013 L0.382860015,0.0327600013 Z" id="path-57"></path> <path d="M0.382860015,0.0327600013 C-0.666900027,3.19050013 1.17018005,11.6773205 3.00744012,11.0851204 L3.00744012,11.0851204 C4.84452019,10.4931004 4.31964017,0.0327600013 4.31964017,0.0327600013 L4.31964017,0.0327600013 L0.382860015,0.0327600013 Z" id="path-59"></path> <path d="M0.382860015,0.0327600013 C-0.666900027,3.19050013 1.17018005,11.6773205 3.00744012,11.0851204 L3.00744012,11.0851204 C4.84452019,10.4931004 4.31964017,0.0327600013 4.31964017,0.0327600013 L4.31964017,0.0327600013 L0.382860015,0.0327600013 Z" id="path-61"></path> <path d="M0.382860015,0.0327600013 C-0.666900027,3.19050013 1.17018005,11.6773205 3.00744012,11.0851204 L3.00744012,11.0851204 C4.84452019,10.4931004 4.31964017,0.0327600013 4.31964017,0.0327600013 L4.31964017,0.0327600013 L0.382860015,0.0327600013 Z" id="path-63"></path> <path d="M0.382860015,0.0327600013 C-0.666900027,3.19050013 1.17018005,11.6773205 3.00744012,11.0851204 L3.00744012,11.0851204 C4.84452019,10.4931004 4.31964017,0.0327600013 4.31964017,0.0327600013 L4.31964017,0.0327600013 L0.382860015,0.0327600013 Z" id="path-65"></path> <path d="M0.382860015,0.0327600013 C-0.666900027,3.19050013 1.17018005,11.6773205 3.00744012,11.0851204 L3.00744012,11.0851204 C4.84452019,10.4931004 4.31964017,0.0327600013 4.31964017,0.0327600013 L4.31964017,0.0327600013 L0.382860015,0.0327600013 Z" id="path-67"></path> <path d="M0.382860015,0.0327600013 C-0.666900027,3.19050013 1.17018005,11.6773205 3.00744012,11.0851204 L3.00744012,11.0851204 C4.84452019,10.4931004 4.31964017,0.0327600013 4.31964017,0.0327600013 L4.31964017,0.0327600013 L0.382860015,0.0327600013 Z" id="path-69"></path> <path d="M0.382860015,0.0327600013 C-0.666900027,3.19050013 1.17018005,11.6773205 3.00744012,11.0851204 L3.00744012,11.0851204 C4.84452019,10.4931004 4.31964017,0.0327600013 4.31964017,0.0327600013 L4.31964017,0.0327600013 L0.382860015,0.0327600013 Z" id="path-71"></path> <path d="M0.382860015,0.0327600013 C-0.666900027,3.19050013 1.17018005,11.6773205 3.00744012,11.0851204 L3.00744012,11.0851204 C4.84452019,10.4931004 4.31964017,0.0327600013 4.31964017,0.0327600013 L4.31964017,0.0327600013 L0.382860015,0.0327600013 Z" id="path-73"></path> <path d="M0.382860015,0.0327600013 C-0.666900027,3.19050013 1.17018005,11.6773205 3.00744012,11.0851204 L3.00744012,11.0851204 C4.84452019,10.4931004 4.31964017,0.0327600013 4.31964017,0.0327600013 L4.31964017,0.0327600013 L0.382860015,0.0327600013 Z" id="path-75"></path> <path d="M0.382860015,0.0327600013 C-0.666900027,3.19050013 1.17018005,11.6773205 3.00744012,11.0851204 L3.00744012,11.0851204 C4.84452019,10.4931004 4.31964017,0.0327600013 4.31964017,0.0327600013 L4.31964017,0.0327600013 L0.382860015,0.0327600013 Z" id="path-77"></path> <path d="M0.382860015,0.0327600013 C-0.666900027,3.19050013 1.17018005,11.6773205 3.00744012,11.0851204 L3.00744012,11.0851204 C4.84452019,10.4931004 4.31964017,0.0327600013 4.31964017,0.0327600013 L4.31964017,0.0327600013 L0.382860015,0.0327600013 Z" id="path-79"></path> <path d="M0.382860015,0.0327600013 C-0.666900027,3.19050013 1.17018005,11.6773205 3.00744012,11.0851204 L3.00744012,11.0851204 C4.84452019,10.4931004 4.31964017,0.0327600013 4.31964017,0.0327600013 L4.31964017,0.0327600013 L0.382860015,0.0327600013 Z" id="path-81"></path> <path d="M0.382860015,0.0327600013 C-0.666900027,3.19050013 1.17018005,11.6773205 3.00744012,11.0851204 L3.00744012,11.0851204 C4.84452019,10.4931004 4.31964017,0.0327600013 4.31964017,0.0327600013 L4.31964017,0.0327600013 L0.382860015,0.0327600013 Z" id="path-83"></path> <path d="M0.382860015,0.0327600013 C-0.666900027,3.19050013 1.17018005,11.6773205 3.00744012,11.0851204 L3.00744012,11.0851204 C4.84452019,10.4931004 4.31964017,0.0327600013 4.31964017,0.0327600013 L4.31964017,0.0327600013 L0.382860015,0.0327600013 Z" id="path-85"></path> <path d="M0.382860015,0.0327600013 C-0.666900027,3.19050013 1.17018005,11.6773205 3.00744012,11.0851204 L3.00744012,11.0851204 C4.84452019,10.4931004 4.31964017,0.0327600013 4.31964017,0.0327600013 L4.31964017,0.0327600013 L0.382860015,0.0327600013 Z" id="path-87"></path> <path d="M0.382860015,0.0327600013 C-0.666900027,3.19050013 1.17018005,11.6773205 3.00744012,11.0851204 L3.00744012,11.0851204 C4.84452019,10.4931004 4.31964017,0.0327600013 4.31964017,0.0327600013 L4.31964017,0.0327600013 L0.382860015,0.0327600013 Z" id="path-89"></path> <path d="M0.382860015,0.0327600013 C-0.666900027,3.19050013 1.17018005,11.6773205 3.00744012,11.0851204 L3.00744012,11.0851204 C4.84452019,10.4931004 4.31964017,0.0327600013 4.31964017,0.0327600013 L4.31964017,0.0327600013 L0.382860015,0.0327600013 Z" id="path-91"></path> <path d="M0.382860015,0.0327600013 C-0.666900027,3.19050013 1.17018005,11.6773205 3.00744012,11.0851204 L3.00744012,11.0851204 C4.84452019,10.4931004 4.31964017,0.0327600013 4.31964017,0.0327600013 L4.31964017,0.0327600013 L0.382860015,0.0327600013 Z" id="path-93"></path> <path d="M0.382860015,0.0327600013 C-0.666900027,3.19050013 1.17018005,11.6773205 3.00744012,11.0851204 L3.00744012,11.0851204 C4.84452019,10.4931004 4.31964017,0.0327600013 4.31964017,0.0327600013 L4.31964017,0.0327600013 L0.382860015,0.0327600013 Z" id="path-95"></path> <path d="M0.382860015,0.0327600013 C-0.666900027,3.19050013 1.17018005,11.6773205 3.00744012,11.0851204 L3.00744012,11.0851204 C4.84452019,10.4931004 4.31964017,0.0327600013 4.31964017,0.0327600013 L4.31964017,0.0327600013 L0.382860015,0.0327600013 Z" id="path-97"></path> <path d="M0.382860015,0.0327600013 C-0.666900027,3.19050013 1.17018005,11.6773205 3.00744012,11.0851204 L3.00744012,11.0851204 C4.84452019,10.4931004 4.31964017,0.0327600013 4.31964017,0.0327600013 L4.31964017,0.0327600013 L0.382860015,0.0327600013 Z" id="path-99"></path> <path d="M0.382860015,0.0327600013 C-0.666900027,3.19050013 1.17018005,11.6773205 3.00744012,11.0851204 L3.00744012,11.0851204 C4.84452019,10.4931004 4.31964017,0.0327600013 4.31964017,0.0327600013 L4.31964017,0.0327600013 L0.382860015,0.0327600013 Z" id="path-101"></path> <path d="M0.382860015,0.0327600013 C-0.666900027,3.19050013 1.17018005,11.6773205 3.00744012,11.0851204 L3.00744012,11.0851204 C4.84452019,10.4931004 4.31964017,0.0327600013 4.31964017,0.0327600013 L4.31964017,0.0327600013 L0.382860015,0.0327600013 Z" id="path-103"></path> <path d="M0.382860015,0.0327600013 C-0.666900027,3.19050013 1.17018005,11.6773205 3.00744012,11.0851204 L3.00744012,11.0851204 C4.84452019,10.4931004 4.31964017,0.0327600013 4.31964017,0.0327600013 L4.31964017,0.0327600013 L0.382860015,0.0327600013 Z" id="path-105"></path> <path d="M0.382860015,0.0327600013 C-0.666900027,3.19050013 1.17018005,11.6773205 3.00744012,11.0851204 L3.00744012,11.0851204 C4.84452019,10.4931004 4.31964017,0.0327600013 4.31964017,0.0327600013 L4.31964017,0.0327600013 L0.382860015,0.0327600013 Z" id="path-107"></path> <path d="M0.382860015,0.0327600013 C-0.666900027,3.19050013 1.17018005,11.6773205 3.00744012,11.0851204 L3.00744012,11.0851204 C4.84452019,10.4931004 4.31964017,0.0327600013 4.31964017,0.0327600013 L4.31964017,0.0327600013 L0.382860015,0.0327600013 Z" id="path-109"></path> <path d="M0.382860015,0.0327600013 C-0.666900027,3.19050013 1.17018005,11.6773205 3.00744012,11.0851204 L3.00744012,11.0851204 C4.84452019,10.4931004 4.31964017,0.0327600013 4.31964017,0.0327600013 L4.31964017,0.0327600013 L0.382860015,0.0327600013 Z" id="path-111"></path> <path d="M0.382860015,0.0327600013 C-0.666900027,3.19050013 1.17018005,11.6773205 3.00744012,11.0851204 L3.00744012,11.0851204 C4.84452019,10.4931004 4.31964017,0.0327600013 4.31964017,0.0327600013 L4.31964017,0.0327600013 L0.382860015,0.0327600013 Z" id="path-113"></path> <path d="M0.382860015,0.0327600013 C-0.666900027,3.19050013 1.17018005,11.6773205 3.00744012,11.0851204 L3.00744012,11.0851204 C4.84452019,10.4931004 4.31964017,0.0327600013 4.31964017,0.0327600013 L4.31964017,0.0327600013 L0.382860015,0.0327600013 Z" id="path-115"></path> <polygon id="path-117" points="0 411.480016 244.28665 411.480016 244.28665 0.0918000036 0 0.0918000036"></polygon> </defs> <g id="Page-1" stroke="none" stroke-width="1" fill="none" fill-rule="evenodd"> <g id="masha-copy" transform="translate(-770.000000, -257.000000)"> <g id="Group-11-Copy-3" transform="translate(223.000000, 257.000000)"> <g id="Group-292" transform="translate(547.000000, 0.000000)"> <g id="Group-67" transform="translate(0.000000, 0.088200)"> <path d="M156.170742,8.51212834 C153.940002,6.41710825 152.083842,3.92320816 149.053362,3.09988812 C146.023062,2.27656809 142.799082,2.37016809 139.659342,2.65762811 C133.886921,3.18574813 127.991021,4.42414818 123.310121,7.6402083 C116.237921,12.4993085 113.09278,21.1924088 113.17972,29.4218292 C113.342981,44.8841898 102.69832,77.0573911 109.5448,80.1451112 C116.391101,83.2326513 156.862122,81.2846912 163.899763,76.9024111 C173.636503,70.8394708 159.104202,33.5798293 160.832922,22.7287089 C160.832922,22.7287089 159.689382,11.8165685 156.170742,8.51212834" id="Fill-1" fill="#A3262A"></path> <path d="M151.466532,40.9676596 C151.466532,40.9676596 154.209012,39.3996796 154.749552,38.3841195 C155.086692,37.7505195 156.547032,34.2646394 156.547032,32.0158993 C156.547032,29.7669792 152.763792,30.9778392 151.466532,32.0158993 L151.466532,40.9676596 Z" id="Fill-3" fill="#F29879"></path> <path d="M153.537936,37.2875055 C153.517776,37.2875055 153.497256,37.2826455 153.479256,37.2723855 C153.430656,37.2443055 153.417516,37.1877855 153.449916,37.1460255 C154.430736,35.8833254 154.987836,34.3520654 155.018436,32.8344853 C155.023296,32.5925653 155.005296,32.3463253 154.841856,32.1819853 C154.628736,31.9677853 154.229856,31.9665253 153.946176,32.0763253 C153.625056,32.2003453 153.372516,32.4478453 153.149856,32.6663653 C153.111336,32.7043453 153.044376,32.7079453 153.000276,32.6748253 C152.956356,32.6417053 152.952036,32.5842853 152.990556,32.5464853 C153.227436,32.3141053 153.495996,32.0505853 153.859416,31.9103653 C154.214916,31.7728453 154.721976,31.7813053 155.002776,32.0637253 C155.212116,32.2741453 155.235876,32.5601653 155.230296,32.8377253 C155.198976,34.3896854 154.629276,35.9556854 153.626136,37.2470055 C153.605796,37.2732855 153.572136,37.2875055 153.537936,37.2875055" id="Fill-5" fill="#BD6142"></path> <mask id="mask-2" fill="white"> <use xlink:href="#path-1"></use> </mask> <g id="Clip-8"></g> <polygon id="Fill-7" fill="#FFA07F" mask="url(#mask-2)" points="130.048205 80.0476232 147.858126 80.0476232 147.858126 47.1929419 130.048205 47.1929419"></polygon> <path d="M130.048241,47.0000719 L147.858162,47.0000719 L147.858162,58.9212923 C145.530042,62.1310525 142.381842,64.2500126 138.897042,64.2640526 C135.442301,64.2406526 132.343421,62.1575125 130.048241,58.9958123 L130.048241,47.0000719 Z" id="Fill-9" fill="#FA704E" mask="url(#mask-2)"></path> <path d="M152.584116,15.0764046 C153.625416,16.9820647 154.211136,18.9950048 154.026636,21.1586048 C153.685176,25.162345 153.002436,31.3489452 153.002436,33.1700053 C153.002436,34.9908854 153.514356,38.7318255 154.591656,43.0077257 C154.877676,44.1428058 155.420736,45.2634858 155.227776,46.4180058 C155.076216,47.3244859 154.562856,48.1235059 154.061196,48.8937259 L153.461436,49.814066 C151.769976,52.0574061 150.052056,54.3327862 147.824376,56.0454862 C145.607316,57.7500863 142.784016,58.8579863 140.019756,58.4337263 C137.478875,58.0436663 125.783375,51.503006 124.119635,46.2986658 C122.357255,40.7852656 122.143415,37.2122655 122.143415,32.3493853 C122.143415,27.4866851 122.359775,16.8008047 125.069135,14.0914446 C127.778495,11.3820845 149.522676,9.47372438 152.584116,15.0764046" id="Fill-10" fill="#FFA07F" mask="url(#mask-2)"></path> <path d="M123.346229,41.8899977 C123.346229,41.8899977 119.644889,39.7737376 118.915349,38.4032175 C118.460309,37.5480375 116.489309,32.8433773 116.489309,29.8082172 C116.489309,26.7734171 121.595549,28.4076371 123.346229,29.8082172 L123.346229,41.8899977 Z" id="Fill-11" fill="#FFA07F" mask="url(#mask-2)"></path> <path d="M120.550559,36.9232035 C120.577739,36.9232035 120.605459,36.9163635 120.629759,36.9025035 C120.695459,36.8648835 120.713099,36.7885635 120.669359,36.7322235 C119.345459,35.0279834 118.593779,32.9614033 118.552379,30.9131832 C118.545899,30.5868432 118.570199,30.2543832 118.790879,30.0324432 C119.078519,29.7435432 119.616719,29.7417432 119.999579,29.8898832 C120.433019,30.0572832 120.773759,30.3913632 121.074359,30.6863832 C121.126379,30.7375032 121.216739,30.7425432 121.276139,30.6977232 C121.335359,30.6532632 121.341479,30.5755032 121.289279,30.5245632 C120.969599,30.2108232 120.607079,29.8553232 120.116759,29.6659632 C119.636879,29.4803832 118.952519,29.4919032 118.573439,29.8731432 C118.291019,30.1570032 118.259159,30.5429232 118.266539,30.9175032 C118.308839,33.0119833 119.077619,35.1255434 120.431579,36.8684835 C120.458939,36.9041235 120.504299,36.9232035 120.550559,36.9232035" id="Fill-12" fill="#BD6142" mask="url(#mask-2)"></path> <path d="M132.615275,30.2706732 C134.142575,28.5279131 136.296995,27.9157331 138.518196,27.4934531 C138.881976,27.4263131 138.663276,26.6317931 138.254135,26.338573 C137.845355,26.045893 137.283395,25.851493 137.013575,25.926373 C135.284675,26.386093 133.789955,27.4002131 132.665495,28.8738731 C132.490895,29.1057132 132.317015,29.6451732 132.265175,30.0564732 C132.214055,30.4681332 132.363995,30.5543532 132.615275,30.2706732" id="Fill-13" fill="#1A1A1A" mask="url(#mask-2)"></path> <path d="M154.21866,30.0281772 C152.38302,28.6137371 150.15102,28.4301371 147.88986,28.4454371 C147.51996,28.4497571 147.5808,27.6280571 147.9255,27.2612171 C148.27002,26.8950971 148.78374,26.5953971 149.06292,26.6166371 C150.84816,26.7332771 152.51082,27.4392371 153.89916,28.6673771 C154.11534,28.8612371 154.39038,29.3567772 154.52052,29.7502572 C154.65066,30.1442772 154.51998,30.2578572 154.21866,30.0281772" id="Fill-14" fill="#1A1A1A" mask="url(#mask-2)"></path> <path d="M149.274366,36.5167995 L149.411886,36.5167995 C149.958726,36.5167995 150.405846,36.0694994 150.405846,35.5228394 L150.405846,33.3214393 C150.405846,32.7747793 149.958726,32.3274793 149.411886,32.3274793 L149.274366,32.3274793 C148.727706,32.3274793 148.280406,32.7747793 148.280406,33.3214393 L148.280406,35.5228394 C148.280406,36.0694994 148.727706,36.5167995 149.274366,36.5167995" id="Fill-15" fill="#1A1A1A" mask="url(#mask-2)"></path> <path d="M136.936805,36.6503055 L137.074325,36.6503055 C137.620985,36.6503055 138.068285,36.2030054 138.068285,35.6563454 L138.068285,33.4549453 C138.068285,32.9081053 137.620985,32.4609853 137.074325,32.4609853 L136.936805,32.4609853 C136.390145,32.4609853 135.942845,32.9081053 135.942845,33.4549453 L135.942845,35.6563454 C135.942845,36.2030054 136.390145,36.6503055 136.936805,36.6503055" id="Fill-16" fill="#1A1A1A" mask="url(#mask-2)"></path> <path d="M142.367172,43.0122977 C143.262672,43.3875977 145.030992,44.1290178 145.030992,44.1290178 C145.148532,44.1783378 145.271832,44.2019178 145.393872,44.2019178 C145.699152,44.2019178 145.996512,44.0539578 146.176512,43.7904377 L147.400152,41.9979977 C147.676092,41.5938977 147.604092,41.0526376 147.232572,40.7388976 C146.738472,40.3221976 145.795272,39.3473176 145.028292,37.4997975 C143.730132,34.3726574 145.520952,31.2167172 145.539132,31.1850372 C145.628232,31.0309572 145.575852,30.8336772 145.421952,30.7443972 C145.268052,30.6551172 145.070952,30.7071372 144.981312,30.8612172 C144.937032,30.9369972 143.738952,32.0193373 143.400012,33.4739173 C143.198232,34.3398974 143.883312,37.8952575 144.967272,40.6166776 C145.430232,41.7791177 144.213072,42.6492377 143.806452,42.6492377 C143.400012,42.6492377 142.367172,43.0122977 142.367172,43.0122977" id="Fill-17" fill="#DB7D63" mask="url(#mask-2)"></path> <path d="M145.393818,44.2019718 C145.271778,44.2019718 145.148478,44.1783918 145.030938,44.1288918 L141.860238,42.7997717 C141.696078,42.7308317 141.618678,42.5418317 141.687438,42.3774917 C141.756378,42.2133317 141.945378,42.1357517 142.109718,42.2048717 L145.280418,43.5341717 C145.411278,43.5888917 145.563738,43.5435317 145.643658,43.4267117 L146.867478,41.6340917 C146.956038,41.5041316 146.934258,41.3313316 146.816358,41.2317916 C146.277798,40.7774716 145.251798,39.7205116 144.432438,37.7471715 C143.009538,34.3192514 144.900078,31.0005912 144.981258,30.8610912 C145.070898,30.7070112 145.267998,30.6551712 145.421898,30.7442712 C145.575798,30.8337312 145.628178,31.0310112 145.539078,31.1850912 C145.520898,31.2165912 143.730078,34.3725314 145.028238,37.4998515 C145.795218,39.3473716 146.738418,40.3222516 147.232518,40.7389516 C147.604038,41.0525116 147.676038,41.5939517 147.400098,41.9980517 L146.176458,43.7903117 C145.996458,44.0538318 145.699098,44.2019718 145.393818,44.2019718" id="Fill-18" fill="#BD6142" mask="url(#mask-2)"></path> <path d="M133.411343,39.5058796 C133.411343,39.9848596 134.790683,40.3729396 136.492223,40.3729396 C138.193763,40.3729396 139.573104,39.9848596 139.573104,39.5058796 C139.573104,39.0268996 138.193763,38.6388195 136.492223,38.6388195 C134.790683,38.6388195 133.411343,39.0268996 133.411343,39.5058796" id="Fill-19" fill="#ED766D" mask="url(#mask-2)"></path> <path d="M148.11936,39.5058796 C148.11936,39.9848596 149.20386,40.3729396 150.5418,40.3729396 C151.87974,40.3729396 152.96424,39.9848596 152.96424,39.5058796 C152.96424,39.0268996 151.87974,38.6388195 150.5418,38.6388195 C149.20386,38.6388195 148.11936,39.0268996 148.11936,39.5058796" id="Fill-20" fill="#ED766D" mask="url(#mask-2)"></path> <path d="M147.393942,47.5568479 C143.010042,49.646468 137.979581,48.2730679 135.316301,44.2086678 C135.077441,43.8443477 135.661721,43.5057677 135.899321,43.8679277 C138.348401,47.6056279 143.014002,48.8992879 147.053202,46.9740079 C147.443442,46.7880679 147.786342,47.3698279 147.393942,47.5568479" id="Fill-21" fill="#C24848" mask="url(#mask-2)"></path> <path d="M167.781049,20.5218548 C166.988869,25.952995 163.823209,30.9890352 159.368208,34.2290354 C160.623168,31.3672152 160.008828,27.7661351 158.052228,25.271515 C155.824548,22.4311149 152.161368,20.9533148 148.554348,20.8141748 C145.662828,20.7025748 142.756188,21.3662348 139.887888,20.9846348 C137.331527,20.6444348 132.818027,17.2534147 131.694287,14.4785346 C132.292247,14.4398346 132.900287,14.2040346 133.372247,13.8350345 C134.330387,13.0856945 134.877047,11.9432345 135.440267,10.8650344 C137.011667,7.85687431 139.008048,4.9903742 141.748728,2.98877412 C146.873328,-0.75450603 154.294908,-0.829386033 159.680868,2.5270741 C165.066649,5.88335423 168.243649,12.3538145 167.956009,18.6934147 C167.928109,19.3064948 167.869249,19.9166948 167.781049,20.5218548" id="Fill-22" fill="#A3262A" mask="url(#mask-2)"></path> <path d="M159.384552,23.933755 C160.047492,25.789915 160.299312,28.0557551 159.986652,30.2144952 C159.831132,28.4355551 159.155232,26.6776751 158.052192,25.271515 C155.824692,22.4311149 152.161332,20.9533148 148.554312,20.8141748 C145.662792,20.7025748 142.756332,21.3662348 139.888032,20.9846348 C139.016832,20.8687148 137.918471,20.3980148 136.804451,19.7186948 C137.337791,19.6600148 137.866631,19.5615548 138.381251,19.4330348 C145.582332,17.6328547 156.384132,15.5324346 159.384552,23.933755" id="Fill-23" fill="#7A1C20" mask="url(#mask-2)"></path> <path d="M117.953393,52.5859581 C117.954473,51.6890181 118.026293,50.792978 118.163813,49.915658 C118.843493,45.5792778 120.927533,41.5985777 123.170873,37.8257775 C126.388913,32.4135373 130.001513,27.2356571 133.970333,22.3470369 C135.288653,20.7230768 136.674653,19.0818368 137.351813,17.1025567 C138.028973,15.1234566 137.832053,12.6878765 136.297373,11.2665964 C135.293333,10.3368964 133.242593,10.1469964 131.736533,10.6743964 C124.810673,17.8889767 119.864273,26.9861771 117.575033,36.7221975 C116.371553,41.8408577 115.897433,47.2233979 117.053933,52.3528581 C117.378113,53.7906981 117.841433,55.2076582 118.439033,56.5634182 C118.108193,55.2753382 117.951593,53.9296581 117.953393,52.5859581" id="Fill-24" fill="#A3262A" mask="url(#mask-2)"></path> <path d="M120.401465,35.5190594 C120.401465,35.5190594 118.267025,19.1646188 119.041205,13.8992586 C119.815565,8.63389834 130.511165,0.890838035 140.915526,0.890838035 C151.319706,0.890838035 157.263846,6.83749827 156.739866,19.0096388 C156.739866,19.0096388 138.321545,4.9170782 130.573265,14.9832186 C122.824985,25.049359 120.401465,35.5190594 120.401465,35.5190594" id="Fill-25" fill="#A3262A" mask="url(#mask-2)"></path> <path d="M128.281433,9.59738438 C128.354333,10.3267444 128.686433,10.9135444 129.146153,11.3471645 C129.217433,11.2902844 129.288353,11.2332244 129.359813,11.1765244 C130.586873,9.79934439 131.980793,8.56508434 133.377233,7.35242429 C131.676953,6.72224427 130.344593,5.39942421 130.092053,3.40178414 C129.835733,3.51860414 129.583013,3.63938414 129.331913,3.76214415 C129.487793,5.73998423 128.079653,7.5792243 128.281433,9.59738438" id="Fill-26" fill="#B55155" mask="url(#mask-2)"></path> <path d="M165.746041,9.11136636 C161.94372,9.77232639 158.19324,11.8984865 154.44258,13.0098065 C151.48536,13.6921865 149.43786,10.0524064 148.07292,7.5500463 C146.48046,4.36512617 141.70326,5.50254622 138.97338,7.09500628 C138.005519,7.5504063 136.924439,7.77450631 135.857399,7.77684631 C134.274479,9.39936637 132.456119,10.7454064 130.681859,12.1459865 C131.378459,12.2968265 132.088199,12.2160065 132.603719,11.8722065 C136.243499,9.59736638 140.33832,7.77756631 144.43314,8.45994634 C146.48046,8.91498635 147.39054,11.1898264 148.75548,13.2371465 C149.8929,15.0571266 152.39526,15.2846466 154.6701,15.0571266 C158.81334,14.4197466 162.17574,10.9943464 165.929101,9.46740638 C165.868621,9.34842637 165.809041,9.22890637 165.746041,9.11136636" id="Fill-27" fill="#B55155" mask="url(#mask-2)"></path> <path d="M160.321992,72.9984629 C160.321992,76.618623 146.134752,101.775424 137.720111,101.775424 C129.305471,101.775424 114.898091,76.7727031 114.898091,73.1523629 C114.898091,69.5322028 123.310751,66.8149227 137.129531,66.8149227 C151.656972,66.8149227 160.321992,69.3781228 160.321992,72.9984629" id="Fill-28" fill="#FFA07F" mask="url(#mask-2)"></path> <path d="M160.014156,71.2111168 C162.789576,69.7466368 166.909777,70.8062968 171.294397,80.9213972 C175.679017,91.0366776 185.998597,124.594619 186.964117,129.493319 C187.929457,134.391839 179.300257,140.35362 176.021377,134.399219 C172.742497,128.444819 159.619416,93.7386577 157.872696,88.9162775 C156.125976,84.0938973 155.307516,73.6947569 160.014156,71.2111168" id="Fill-29" fill="#FFA07F" mask="url(#mask-2)"></path> <path d="M113.518265,71.5870288 C110.577064,70.4987488 106.647304,71.9592689 103.677664,82.0626693 C100.708024,92.1658897 96.6961838,126.437351 96.4026038,131.203031 C96.1090238,135.968711 104.167084,141.421452 106.605004,135.397391 C109.042924,129.373331 116.947265,92.9722897 118.023485,88.1932895 C119.099525,83.4142893 118.505705,73.4325689 113.518265,71.5870288" id="Fill-30" fill="#F59A7A" mask="url(#mask-2)"></path> <path d="M159.140346,157.48017 C156.934806,141.59013 156.289146,125.484089 157.215786,109.468408 L115.489265,109.468408 C116.415905,125.483909 115.770245,141.59013 113.564705,157.48017 C113.564705,157.48017 119.917985,161.32641 136.352525,161.32641 C152.787066,161.32641 159.140346,157.48017 159.140346,157.48017" id="Fill-31" fill="#E6E6E6" mask="url(#mask-2)"></path> <path d="M128.445035,118.341761 C119.745635,118.341761 115.948535,114.947681 112.867114,109.35454 C109.785514,103.76176 109.170994,97.1777199 108.822694,90.8015796 C108.509854,85.0739794 108.337234,79.2187591 106.605094,73.7818589 C107.733694,72.5933189 109.439014,71.2294588 110.622514,70.9250788 C112.056394,70.5564388 122.406935,67.9790187 122.406935,67.9790187 C122.406935,67.9790187 128.811875,100.86448 137.025095,100.86448 C145.238316,100.86448 152.437416,67.8056787 152.437416,67.8056787 L163.520736,70.7952988 C165.818977,71.4517588 166.279417,72.5933189 167.408197,73.7818589 C165.676057,79.2187591 165.503257,85.0739794 165.190417,90.8015796 C164.842297,97.1777199 164.227597,103.76176 161.146176,109.35454 C158.064576,114.947681 154.783896,118.341761 145.568076,118.341761 L128.445035,118.341761 Z" id="Fill-32" fill="#E6E6E6" mask="url(#mask-2)"></path> <path d="M110.386624,102.945532 C110.959924,105.173752 111.751204,107.329252 112.867024,109.354612 C115.269485,113.715293 118.107725,116.738753 123.364445,117.859613 C117.755465,114.539333 112.843624,109.176952 110.386624,102.945532" id="Fill-33" fill="#CCCCCC" mask="url(#mask-2)"></path> <path d="M150.495378,117.929039 C156.105438,116.869379 158.690778,113.811179 161.146158,109.354558 C161.558178,108.606838 161.924838,107.840758 162.253878,107.060278 C159.135738,111.390358 155.096898,115.243259 150.495378,117.929039" id="Fill-34" fill="#CCCCCC" mask="url(#mask-2)"></path> <path d="M101.534764,126.817493 C106.145464,124.679993 119.240285,124.651013 126.644585,125.348873 C134.048705,126.046553 148.700166,124.486493 159.047646,123.856493 C164.483827,123.525473 163.261086,130.540073 163.261086,130.540073 C163.261086,130.540073 145.780566,134.340593 134.303945,136.050053 C119.127245,138.311033 105.082204,139.616934 100.594624,137.462693 C98.4776439,136.446233 94.2904837,130.175933 101.534764,126.817493" id="Fill-35" fill="#F59A7A" mask="url(#mask-2)"></path> <path d="M170.094373,115.086569 C170.642833,116.453669 167.474833,116.959289 166.629553,117.872609 C165.129973,119.492789 163.484412,120.977789 161.719332,122.304029 C160.844892,122.961029 159.902412,123.595349 158.824212,123.779849 C157.953732,123.928709 156.118452,123.835289 156.354432,123.109889 C156.590592,122.384489 157.383312,120.258509 158.586792,119.409089 C159.468072,118.787009 160.526472,118.143329 161.384532,117.489569 C163.042512,116.226509 163.258512,116.028869 165.062833,114.861389 C165.487633,114.586349 169.233613,114.234809 169.670293,114.490589 C169.888453,114.618389 169.998793,114.848069 170.094373,115.086569" id="Fill-36" fill="#ED9576" mask="url(#mask-2)"></path> <path d="M161.586438,118.754771 C164.961079,117.551291 165.749839,120.751871 166.953319,124.126511 C168.156619,127.501151 168.296299,129.033491 164.921659,130.236791 C161.547018,131.440271 155.450418,134.487491 153.476358,128.951951 C152.272878,125.577311 158.211798,119.958251 161.586438,118.754771" id="Fill-37" fill="#FFA07F" mask="url(#mask-2)"></path> <path d="M165.666499,129.940259 C167.056459,129.444539 170.576179,127.421519 171.200779,127.198859 C171.825379,126.976199 174.930739,123.561419 174.527899,122.431919 C174.125239,121.302419 174.275719,121.575839 173.598919,121.958699 C172.922119,122.341559 166.088959,126.086639 165.806539,126.187439 C165.524119,126.288059 164.386339,130.396739 165.666499,129.940259" id="Fill-38" fill="#FFA07F" mask="url(#mask-2)"></path> <path d="M160.958148,119.015807 C162.820068,118.242347 165.808789,116.989547 166.438969,116.764727 C167.069329,116.539907 172.157749,114.933947 172.560589,116.063447 C172.887829,116.981087 172.626289,117.620087 171.496789,118.022747 C170.367469,118.425587 165.288589,121.337267 163.460868,121.763867 C161.633148,122.190287 160.329948,119.276807 160.958148,119.015807" id="Fill-39" fill="#FFA07F" mask="url(#mask-2)"></path> <path d="M161.807658,121.584137 C163.669579,120.810677 172.319299,116.111597 173.194819,117.841577 C173.522059,118.759217 173.354659,119.662277 172.225159,120.065117 C171.095659,120.467777 166.016959,123.379457 164.189059,123.806057 C162.361338,124.232477 161.179458,121.845137 161.807658,121.584137" id="Fill-40" fill="#FFA07F" mask="url(#mask-2)"></path> <path d="M162.6468,123.937151 C164.508721,123.163691 173.115781,118.028111 173.751361,119.510591 C174.078601,120.428231 174.808141,121.382951 173.406301,122.199611 C172.173481,122.917631 167.176681,126.631391 165.348781,127.057811 C163.52106,127.484411 162.01842,124.198151 162.6468,123.937151" id="Fill-41" fill="#FFA07F" mask="url(#mask-2)"></path> <path d="M173.774491,121.721333 C172.010851,123.510893 170.124991,125.277773 167.856091,126.407993 C167.745391,126.463253 167.815591,126.643793 167.927191,126.588173 C169.729891,125.689973 171.296791,124.391273 172.745971,123.007433 C173.146111,122.625113 173.538511,122.235053 173.926771,121.840853 C174.014071,121.752293 173.861251,121.633313 173.774491,121.721333" id="Fill-42" fill="#C2826C" mask="url(#mask-2)"></path> <path d="M173.038633,119.354441 C172.376953,119.780141 171.715273,120.206021 171.053593,120.631901 C170.265553,121.138961 169.472473,121.639361 168.688933,122.153621 C168.675613,122.162261 168.608833,122.200961 168.658153,122.174681 C168.560593,122.226701 168.457633,122.270081 168.357913,122.317601 L166.769233,123.073061 C166.657273,123.126161 166.727473,123.306701 166.840333,123.253061 C167.329213,123.020501 167.818093,122.788121 168.306973,122.555741 C168.459073,122.483381 168.620173,122.419661 168.765433,122.333981 C169.018693,122.184761 169.261873,122.014481 169.509193,121.855361 C170.469493,121.237241 171.429973,120.619301 172.390273,120.001361 C172.645153,119.837201 172.900213,119.673221 173.155093,119.509061 C173.259853,119.441741 173.143213,119.287121 173.038633,119.354441" id="Fill-43" fill="#C2826C" mask="url(#mask-2)"></path> <path d="M172.324033,117.274325 C171.557233,117.634145 170.787733,117.988565 170.015533,118.336685 C169.512973,118.563305 169.009693,118.789565 168.499393,118.998725 C167.984593,119.209505 167.476273,119.413805 166.980013,119.668145 C166.516513,119.905745 166.058593,120.155585 165.608593,120.417485 C165.501133,120.479945 165.618313,120.634385 165.725053,120.572105 C166.604713,120.060545 167.504173,119.604425 168.449173,119.227865 C169.479853,118.817105 170.486053,118.339385 171.492793,117.874085 C171.793933,117.734945 172.094893,117.595265 172.395313,117.454325 C172.507453,117.401765 172.437073,117.221405 172.324033,117.274325" id="Fill-44" fill="#C2826C" mask="url(#mask-2)"></path> <path d="M151.938816,132.883007 C148.632036,130.477487 145.462776,127.869107 142.461996,125.052827 C136.312475,125.463227 130.497035,125.711807 126.644495,125.348747 C119.240375,124.651067 106.145374,124.679867 101.534674,126.817547 C101.059834,127.037687 100.635394,127.270607 100.255054,127.513427 C101.576614,129.989327 104.300014,131.351027 107.186314,131.735867 C111.736174,132.645947 116.058515,130.370927 120.608195,131.053487 C125.497355,131.542367 130.149635,132.971027 134.237075,135.411467 C134.855015,135.548627 135.474215,135.671387 136.095935,135.773807 C141.108576,134.979107 146.954616,133.873907 151.938816,132.883007" id="Fill-45" fill="#E69072" mask="url(#mask-2)"></path> <path d="M182.960377,126.040361 C178.349677,123.902861 165.254857,123.873881 157.850556,124.571741 C150.446436,125.269421 132.349235,120.989021 122.001755,120.359021 C116.565575,120.028001 121.926515,127.840001 121.926515,127.840001 C121.926515,127.840001 138.714576,133.563461 150.191196,135.272921 C165.367897,137.533901 179.412937,138.839802 183.900517,136.685381 C186.017497,135.669101 190.204658,129.398801 182.960377,126.040361" id="Fill-46" fill="#FFA07F" mask="url(#mask-2)"></path> <path d="M118.664969,116.441825 C118.372109,114.369485 115.290329,112.878724 114.506429,112.801864 C113.213488,112.675324 109.588828,111.528724 108.588568,111.670024 C107.587948,111.811324 100.688368,111.984484 100.074748,112.800064 C99.461128,113.615645 101.876548,115.752425 107.521888,114.954845 C109.737148,114.641825 115.724849,118.146606 115.724849,118.146606 C115.724849,118.146606 118.907249,118.156865 118.664969,116.441825" id="Fill-47" fill="#FFA07F" mask="url(#mask-2)"></path> <path d="M117.379337,117.556205 C117.379337,117.556205 109.803136,118.204025 108.597676,118.957505 C107.392216,119.710805 98.1628959,121.452125 97.4265159,122.430785 C96.6901358,123.409445 97.7807559,124.421585 99.710176,124.148885 C101.639596,123.876365 109.902676,122.485505 109.902676,122.485505 C109.902676,122.485505 116.287997,122.317025 117.085757,121.256825 C117.883517,120.196445 118.311557,117.469805 117.379337,117.556205" id="Fill-48" fill="#FFA07F" mask="url(#mask-2)"></path> <path d="M116.245427,125.768705 C116.245427,125.768705 107.117086,126.017825 106.259566,126.139145 C105.402046,126.260105 99.502726,126.291965 98.3609859,125.432825 C97.2190659,124.573685 97.8532059,123.730925 99.854086,123.448325 C101.854966,123.165725 109.382386,122.964665 110.061346,122.868725 C110.740126,122.772785 117.867227,120.854885 117.983327,121.676585 C118.099427,122.498465 117.737987,125.699585 116.245427,125.768705" id="Fill-49" fill="#FFA07F" mask="url(#mask-2)"></path> <path d="M115.376045,125.793041 C115.376045,125.793041 110.389324,126.308741 109.674724,126.409721 C108.960124,126.510701 103.807624,127.085801 102.276364,127.302161 C100.744924,127.518521 102.361864,128.546501 104.940544,129.306821 C107.519044,130.066961 112.311724,128.904521 112.773424,129.252101 C113.235304,129.599501 117.334805,130.202861 118.654205,130.599581 C119.973605,130.996301 118.688045,125.444921 115.376045,125.793041" id="Fill-50" fill="#FFA07F" mask="url(#mask-2)"></path> <path d="M114.209735,129.140627 C114.209735,129.140627 119.026535,131.037647 119.917175,130.699607 C122.586215,129.686387 121.972235,128.704487 122.831375,127.562747 C123.690515,126.421007 123.057815,120.765947 122.001755,120.358967 C120.945515,119.951987 118.855535,115.223567 117.903515,115.358027 C116.951675,115.492487 113.454275,128.304167 114.209735,129.140627" id="Fill-51" fill="#FFA07F" mask="url(#mask-2)"></path> <path d="M134.150459,192.138776 C134.150459,192.138776 132.858959,256.299418 132.858959,266.817719 C132.858959,277.336199 116.711159,274.450619 111.550918,268.738679 C109.480918,264.441539 102.634798,185.338195 102.634798,180.732895 C102.634798,174.055435 132.769319,178.182115 134.150459,192.138776" id="Fill-52" fill="#456A97" mask="url(#mask-2)"></path> <path d="M138.554484,192.311486 C138.554484,192.311486 148.486164,256.472128 148.486164,266.990609 C148.486164,277.508909 164.633965,274.623149 169.794385,268.911389 C171.864385,264.614249 170.070145,185.510905 170.070145,180.905785 C170.070145,174.228145 139.935624,178.354825 138.554484,192.311486" id="Fill-53" fill="#456A97" mask="url(#mask-2)"></path> <path d="M181.038031,400.920406 C180.151351,399.085666 175.142311,394.957726 173.139091,388.987485 C171.997351,385.585305 171.163411,370.751145 169.997911,368.935665 C168.055891,365.910045 165.601411,366.017325 161.64357,364.910865 C160.84599,368.489985 160.88253,382.420545 160.60299,386.179845 C166.730371,413.002546 181.783051,402.462286 181.038031,400.920406" id="Fill-54" fill="#FFA07F" mask="url(#mask-2)"></path> <path d="M185.150833,405.808882 C184.741513,405.358882 184.330033,404.885302 183.918373,404.396782 C182.616073,402.800542 180.862333,400.466662 179.993833,399.300442 C176.081353,393.832942 172.933513,388.401801 172.933513,388.401801 C173.375053,389.189481 173.478733,391.488082 178.521793,399.901642 C179.849113,402.115462 169.024993,404.011402 166.292053,396.053422 C164.946553,392.135002 160.880892,377.277081 160.880892,377.277081 C159.300852,377.282661 160.807272,397.443202 160.807272,397.443202 C160.807272,397.443202 162.828672,410.774182 166.823593,410.777602 C170.818513,410.781202 184.924573,410.793802 184.924573,410.793802 C186.389773,408.250762 186.449713,407.073202 185.150833,405.808882" id="Fill-55" fill="#9A5350" mask="url(#mask-2)"></path> <path d="M114.177623,400.920406 C115.064123,399.085666 120.073343,394.957726 122.076563,388.987485 C123.218303,385.585305 124.052243,370.751145 125.217743,368.935665 C127.159763,365.910045 129.614243,366.017325 133.572083,364.910865 C134.369663,368.489985 134.333123,382.420545 134.612663,386.179845 C128.485283,413.002546 113.432603,402.462286 114.177623,400.920406" id="Fill-56" fill="#FFA07F" mask="url(#mask-2)"></path> <path d="M110.06482,405.808882 C110.47414,405.358882 110.88562,404.885302 111.29728,404.396782 C112.59958,402.800542 114.353321,400.466662 115.221821,399.300442 C119.134121,393.832942 122.282141,388.401801 122.282141,388.401801 C121.840601,389.189481 121.736921,391.488082 116.693861,399.901642 C115.366541,402.115462 126.190661,404.011402 128.923601,396.053422 C130.269101,392.135002 134.404061,377.122641 134.404061,377.122641 C135.983921,377.128221 134.408381,397.443202 134.408381,397.443202 C134.408381,397.443202 132.386981,410.774182 128.392061,410.777602 C124.397141,410.781202 110.29108,410.793802 110.29108,410.793802 C108.82588,408.250762 108.76594,407.073202 110.06482,405.808882" id="Fill-57" fill="#9A5350" mask="url(#mask-2)"></path> <path d="M132.859031,266.817773 L136.312511,371.348637 C136.312511,371.348637 128.148431,377.440197 121.656011,370.947777 C121.656011,370.947777 112.69867,278.002073 111.55081,268.738733 C110.40295,259.475212 130.450271,253.402012 132.859031,266.817773" id="Fill-58" fill="#456A97" mask="url(#mask-2)"></path> <path d="M148.235622,265.466531 L158.377902,372.337935 C158.377902,372.337935 166.541983,378.429675 173.034403,371.937255 C173.034403,371.937255 171.717523,275.260511 169.756063,265.194011 C167.970823,256.03219 150.644382,252.05059 148.235622,265.466531" id="Fill-59" fill="#456A97" mask="url(#mask-2)"></path> <path d="M115.701737,143.620512 C111.016516,154.227372 108.657076,164.771593 103.270036,175.240753 C102.148636,177.422533 101.946676,191.081114 107.525596,193.931234 C114.237437,197.486414 131.803277,201.071114 131.829377,201.005954 C134.844737,201.028814 137.860277,201.028814 140.875638,201.005954 C140.901558,201.071114 158.467758,197.486414 165.179599,193.931234 C170.758519,191.081114 170.556199,177.422533 169.435159,175.240753 C164.048299,164.771593 161.688318,154.227192 157.003278,143.620512 C143.243718,144.168792 129.461297,144.168792 115.701737,143.620512" id="Fill-60" fill="#456A97" mask="url(#mask-2)"></path> <path d="M107.930308,169.333441 C118.134869,159.94536 131.400689,153.2103 145.07475,154.23072 C152.07009,154.6971 158.47251,158.2431 164.103451,162.70206 C161.80125,156.36588 159.82305,150.0045 157.00335,143.62044 C143.24379,144.1689 129.461369,144.1689 115.701809,143.62044 C111.396388,153.36744 109.052968,163.0617 104.521288,172.693321 C105.638728,171.537541 106.781908,170.417941 107.930308,169.333441" id="Fill-61" fill="#345071" mask="url(#mask-2)"></path> <path d="M161.920122,170.046511 C156.857802,172.247371 152.356362,166.840171 150.037242,163.03065 C147.707502,159.20367 146.444802,154.84155 146.303502,150.36963 C146.286402,149.83089 145.447422,149.82855 145.464522,150.36963 C145.631202,155.64327 147.313842,160.80675 150.402822,165.099211 C153.081942,168.822151 157.427142,172.908331 162.343662,170.771011 C162.837402,170.556271 162.410802,169.833211 161.920122,170.046511" id="Fill-62" fill="#CCCCCC" mask="url(#mask-2)"></path> <path d="M157.827354,167.694379 C157.817814,166.539679 157.808274,165.384979 157.798734,164.230279 C157.794234,163.690819 156.955254,163.689379 156.959754,164.230279 C156.969294,165.384979 156.978834,166.539679 156.988374,167.694379 C156.992874,168.234019 157.831854,168.235279 157.827354,167.694379" id="Fill-63" fill="#CCCCCC" mask="url(#mask-2)"></path> <path d="M108.70699,170.770993 C113.623331,172.908313 117.968711,168.822133 120.647831,165.099193 C123.736811,160.806732 125.419271,155.643432 125.585951,150.369612 C125.603051,149.829432 124.764071,149.830152 124.746971,150.369612 C124.605671,154.841892 123.343331,159.203292 121.013411,163.030632 C118.694471,166.839973 114.193391,172.247533 109.13053,170.046493 C108.64021,169.833553 108.21253,170.556073 108.70699,170.770993" id="Fill-64" fill="#CCCCCC" mask="url(#mask-2)"></path> <path d="M159.2637,146.72121 C144.0132,147.92145 128.691779,147.92145 113.441279,146.72121 C113.581679,144.93849 113.721899,141.60309 113.862299,139.82055 C128.832539,140.99865 143.87244,140.99865 158.84286,139.82055 C158.98308,141.60309 159.12348,144.93849 159.2637,146.72121" id="Fill-65" fill="#AD4537" mask="url(#mask-2)"></path> <path d="M101.362936,208.28798 C101.362936,208.28798 95.5890758,222.300981 104.249956,230.985081 L107.136796,208.88018 L101.362936,208.28798 Z" id="Fill-66" fill="#FFB884" mask="url(#mask-2)"></path> </g> <g id="Group-239" transform="translate(100.980004, 212.488208)"> <g id="Group-70"> <mask id="mask-4" fill="white"> <use xlink:href="#path-3"></use> </mask> <g id="Clip-69"></g> <polygon id="Fill-68" fill="#FFB985" mask="url(#mask-4)" points="-0.666828026 0.139500006 4.84459219 0.050580002 4.84459219 0.0327600013 -0.666828026 0.0327600013"></polygon> </g> <g id="Group-73"> <mask id="mask-6" fill="white"> <use xlink:href="#path-5"></use> </mask> <g id="Clip-72"></g> <polygon id="Fill-71" fill="#FFB987" mask="url(#mask-6)" points="-0.666828026 0.349830014 4.84459219 0.26091001 4.84459219 0.050490002 -0.666828026 0.139590006"></polygon> </g> <g id="Group-76"> <mask id="mask-8" fill="white"> <use xlink:href="#path-7"></use> </mask> <g id="Clip-75"></g> <polygon id="Fill-74" fill="#FFBA88" mask="url(#mask-8)" points="-0.666828026 0.560070022 4.84459219 0.471150019 4.84459219 0.26091001 -0.666828026 0.349830014"></polygon> </g> <g id="Group-79"> <mask id="mask-10" fill="white"> <use xlink:href="#path-9"></use> </mask> <g id="Clip-78"></g> <polygon id="Fill-77" fill="#FFBB89" mask="url(#mask-10)" points="-0.666828026 0.770292031 4.84459219 0.681372027 4.84459219 0.471132019 -0.666828026 0.560052022"></polygon> </g> <g id="Group-82"> <mask id="mask-12" fill="white"> <use xlink:href="#path-11"></use> </mask> <g id="Clip-81"></g> <polygon id="Fill-80" fill="#FFBC8A" mask="url(#mask-12)" points="-0.666828026 0.980622039 4.84459219 0.891702035 4.84459219 0.681282027 -0.666828026 0.770382031"></polygon> </g> <g id="Group-85"> <mask id="mask-14" fill="white"> <use xlink:href="#path-13"></use> </mask> <g id="Clip-84"></g> <polygon id="Fill-83" fill="#FFBC8B" mask="url(#mask-14)" points="-0.666828026 1.19084405 4.84459219 1.10192404 4.84459219 0.891684035 -0.666828026 0.980604039"></polygon> </g> <g id="Group-88"> <mask id="mask-16" fill="white"> <use xlink:href="#path-15"></use> </mask> <g id="Clip-87"></g> <polygon id="Fill-86" fill="#FFBD8D" mask="url(#mask-16)" points="-0.666828026 1.40108406 4.84459219 1.31216405 4.84459219 1.10192404 -0.666828026 1.19084405"></polygon> </g> <g id="Group-91"> <mask id="mask-18" fill="white"> <use xlink:href="#path-17"></use> </mask> <g id="Clip-90"></g> <polygon id="Fill-89" fill="#FFBE8E" mask="url(#mask-18)" points="-0.666828026 1.61141406 4.84459219 1.52231406 4.84459219 1.31207405 -0.666828026 1.40117406"></polygon> </g> <g id="Group-94"> <mask id="mask-20" fill="white"> <use xlink:href="#path-19"></use> </mask> <g id="Clip-93"></g> <polygon id="Fill-92" fill="#FFBE8F" mask="url(#mask-20)" points="-0.666828026 1.82163607 4.84459219 1.73271607 4.84459219 1.52229606 -0.666828026 1.61139606"></polygon> </g> <g id="Group-97"> <mask id="mask-22" fill="white"> <use xlink:href="#path-21"></use> </mask> <g id="Clip-96"></g> <polygon id="Fill-95" fill="#FFBF90" mask="url(#mask-22)" points="-0.666828026 2.03187608 4.84459219 1.94295608 4.84459219 1.73271607 -0.666828026 1.82163607"></polygon> </g> <g id="Group-100"> <mask id="mask-24" fill="white"> <use xlink:href="#path-23"></use> </mask> <g id="Clip-99"></g> <polygon id="Fill-98" fill="#FFC092" mask="url(#mask-24)" points="-0.666828026 2.24211609 4.84459219 2.15319609 4.84459219 1.94295608 -0.666828026 2.03187608"></polygon> </g> <g id="Group-103"> <mask id="mask-26" fill="white"> <use xlink:href="#path-25"></use> </mask> <g id="Clip-102"></g> <polygon id="Fill-101" fill="#FFC193" mask="url(#mask-26)" points="-0.666828026 2.4524281 4.84459219 2.36350809 4.84459219 2.15308809 -0.666828026 2.24218809"></polygon> </g> <g id="Group-106"> <mask id="mask-28" fill="white"> <use xlink:href="#path-27"></use> </mask> <g id="Clip-105"></g> <polygon id="Fill-104" fill="#FFC194" mask="url(#mask-28)" points="-0.666828026 2.66266811 4.84459219 2.5737481 4.84459219 2.36350809 -0.666828026 2.4524281"></polygon> </g> <g id="Group-109"> <mask id="mask-30" fill="white"> <use xlink:href="#path-29"></use> </mask> <g id="Clip-108"></g> <polygon id="Fill-107" fill="#FFC295" mask="url(#mask-30)" points="-0.666828026 2.87290811 4.84459219 2.78398811 4.84459219 2.5737481 -0.666828026 2.66266811"></polygon> </g> <g id="Group-112"> <mask id="mask-32" fill="white"> <use xlink:href="#path-31"></use> </mask> <g id="Clip-111"></g> <polygon id="Fill-110" fill="#FFC396" mask="url(#mask-32)" points="-0.666828026 3.08322012 4.84459219 2.99430012 4.84459219 2.78388011 -0.666828026 2.87298011"></polygon> </g> <g id="Group-115"> <mask id="mask-34" fill="white"> <use xlink:href="#path-33"></use> </mask> <g id="Clip-114"></g> <polygon id="Fill-113" fill="#FFC397" mask="url(#mask-34)" points="-0.666828026 3.29346013 4.84459219 3.20454013 4.84459219 2.99430012 -0.666828026 3.08322012"></polygon> </g> <g id="Group-118"> <mask id="mask-36" fill="white"> <use xlink:href="#path-35"></use> </mask> <g id="Clip-117"></g> <polygon id="Fill-116" fill="#FFC499" mask="url(#mask-36)" points="-0.666828026 3.50370014 4.84459219 3.41478014 4.84459219 3.20454013 -0.666828026 3.29346013"></polygon> </g> <g id="Group-121"> <mask id="mask-38" fill="white"> <use xlink:href="#path-37"></use> </mask> <g id="Clip-120"></g> <polygon id="Fill-119" fill="#FFC59A" mask="url(#mask-38)" points="-0.666828026 3.71392215 4.84459219 3.62500214 4.84459219 3.41476214 -0.666828026 3.50368214"></polygon> </g> <g id="Group-124"> <mask id="mask-40" fill="white"> <use xlink:href="#path-39"></use> </mask> <g id="Clip-123"></g> <polygon id="Fill-122" fill="#FFC59B" mask="url(#mask-40)" points="-0.666828026 3.92425216 4.84459219 3.83515215 4.84459219 3.62491214 -0.666828026 3.71401215"></polygon> </g> <g id="Group-127"> <mask id="mask-42" fill="white"> <use xlink:href="#path-41"></use> </mask> <g id="Clip-126"></g> <polygon id="Fill-125" fill="#FFC69C" mask="url(#mask-42)" points="-0.666828026 4.13449216 4.84459219 4.04557216 4.84459219 3.83515215 -0.666828026 3.92425216"></polygon> </g> <g id="Group-130"> <mask id="mask-44" fill="white"> <use xlink:href="#path-43"></use> </mask> <g id="Clip-129"></g> <polygon id="Fill-128" fill="#FFC79D" mask="url(#mask-44)" points="-0.666828026 4.34471417 4.84459219 4.25579417 4.84459219 4.04555416 -0.666828026 4.13447416"></polygon> </g> <g id="Group-133"> <mask id="mask-46" fill="white"> <use xlink:href="#path-45"></use> </mask> <g id="Clip-132"></g> <polygon id="Fill-131" fill="#FFC79E" mask="url(#mask-46)" points="-0.666828026 4.55504418 4.84459219 4.46594418 4.84459219 4.25570417 -0.666828026 4.34480417"></polygon> </g> <g id="Group-136"> <mask id="mask-48" fill="white"> <use xlink:href="#path-47"></use> </mask> <g id="Clip-135"></g> <polygon id="Fill-134" fill="#FFC89F" mask="url(#mask-48)" points="-0.666828026 4.76528419 4.84459219 4.67636419 4.84459219 4.46594418 -0.666828026 4.55504418"></polygon> </g> <g id="Group-139"> <mask id="mask-50" fill="white"> <use xlink:href="#path-49"></use> </mask> <g id="Clip-138"></g> <polygon id="Fill-137" fill="#FFC9A1" mask="url(#mask-50)" points="-0.666828026 4.9755062 4.84459219 4.88658619 4.84459219 4.67634619 -0.666828026 4.76526619"></polygon> </g> <g id="Group-142"> <mask id="mask-52" fill="white"> <use xlink:href="#path-51"></use> </mask> <g id="Clip-141"></g> <polygon id="Fill-140" fill="#FFC9A2" mask="url(#mask-52)" points="-0.666828026 5.18574621 4.84459219 5.0968262 4.84459219 4.88658619 -0.666828026 4.9755062"></polygon> </g> <g id="Group-145"> <mask id="mask-54" fill="white"> <use xlink:href="#path-53"></use> </mask> <g id="Clip-144"></g> <polygon id="Fill-143" fill="#FFCAA3" mask="url(#mask-54)" points="-0.666828026 5.39605821 4.84459219 5.30713821 4.84459219 5.0967182 -0.666828026 5.18581821"></polygon> </g> <g id="Group-148"> <mask id="mask-56" fill="white"> <use xlink:href="#path-55"></use> </mask> <g id="Clip-147"></g> <polygon id="Fill-146" fill="#FFCAA4" mask="url(#mask-56)" points="-0.666828026 5.60629822 4.84459219 5.51737822 4.84459219 5.30713821 -0.666828026 5.39605821"></polygon> </g> <g id="Group-151"> <mask id="mask-58" fill="white"> <use xlink:href="#path-57"></use> </mask> <g id="Clip-150"></g> <polygon id="Fill-149" fill="#FFCBA5" mask="url(#mask-58)" points="-0.666828026 5.81653823 4.84459219 5.72761823 4.84459219 5.51737822 -0.666828026 5.60629822"></polygon> </g> <g id="Group-154"> <mask id="mask-60" fill="white"> <use xlink:href="#path-59"></use> </mask> <g id="Clip-153"></g> <polygon id="Fill-152" fill="#FFCCA6" mask="url(#mask-60)" points="-0.666828026 6.02685024 4.84459219 5.93793024 4.84459219 5.72751023 -0.666828026 5.81661023"></polygon> </g> <g id="Group-157"> <mask id="mask-62" fill="white"> <use xlink:href="#path-61"></use> </mask> <g id="Clip-156"></g> <polygon id="Fill-155" fill="#FFCCA7" mask="url(#mask-62)" points="-0.666828026 6.23709025 4.84459219 6.14817024 4.84459219 5.93793024 -0.666828026 6.02685024"></polygon> </g> <g id="Group-160"> <mask id="mask-64" fill="white"> <use xlink:href="#path-63"></use> </mask> <g id="Clip-159"></g> <polygon id="Fill-158" fill="#FFCDA8" mask="url(#mask-64)" points="-0.666828026 6.44733026 4.84459219 6.35841025 4.84459219 6.14817024 -0.666828026 6.23709025"></polygon> </g> <g id="Group-163"> <mask id="mask-66" fill="white"> <use xlink:href="#path-65"></use> </mask> <g id="Clip-162"></g> <polygon id="Fill-161" fill="#FFCDA9" mask="url(#mask-66)" points="-0.666828026 6.65764226 4.84459219 6.56854226 4.84459219 6.35830225 -0.666828026 6.44740226"></polygon> </g> <g id="Group-166"> <mask id="mask-68" fill="white"> <use xlink:href="#path-67"></use> </mask> <g id="Clip-165"></g> <polygon id="Fill-164" fill="#FFCEAA" mask="url(#mask-68)" points="-0.666828026 6.86788227 4.84459219 6.77896227 4.84459219 6.56854226 -0.666828026 6.65764226"></polygon> </g> <g id="Group-169"> <mask id="mask-70" fill="white"> <use xlink:href="#path-69"></use> </mask> <g id="Clip-168"></g> <polygon id="Fill-167" fill="#FFCFAB" mask="url(#mask-70)" points="-0.666828026 7.07812228 4.84459219 6.98920228 4.84459219 6.77896227 -0.666828026 6.86788227"></polygon> </g> <g id="Group-172"> <mask id="mask-72" fill="white"> <use xlink:href="#path-71"></use> </mask> <g id="Clip-171"></g> <polygon id="Fill-170" fill="#FFCFAC" mask="url(#mask-72)" points="-0.666828026 7.28843429 4.84459219 7.19933429 4.84459219 6.98909428 -0.666828026 7.07819428"></polygon> </g> <g id="Group-175"> <mask id="mask-74" fill="white"> <use xlink:href="#path-73"></use> </mask> <g id="Clip-174"></g> <polygon id="Fill-173" fill="#FFD0AD" mask="url(#mask-74)" points="-0.666828026 7.4986743 4.84459219 7.40975429 4.84459219 7.19933429 -0.666828026 7.28843429"></polygon> </g> <g id="Group-178"> <mask id="mask-76" fill="white"> <use xlink:href="#path-75"></use> </mask> <g id="Clip-177"></g> <polygon id="Fill-176" fill="#FFD0AE" mask="url(#mask-76)" points="-0.666828026 7.70891431 4.84459219 7.6199943 4.84459219 7.40975429 -0.666828026 7.4986743"></polygon> </g> <g id="Group-181"> <mask id="mask-78" fill="white"> <use xlink:href="#path-77"></use> </mask> <g id="Clip-180"></g> <polygon id="Fill-179" fill="#FFD1AF" mask="url(#mask-78)" points="-0.666828026 7.91913631 4.84459219 7.83021631 4.84459219 7.6199763 -0.666828026 7.70889631"></polygon> </g> <g id="Group-184"> <mask id="mask-80" fill="white"> <use xlink:href="#path-79"></use> </mask> <g id="Clip-183"></g> <polygon id="Fill-182" fill="#FFD1B0" mask="url(#mask-80)" points="-0.666828026 8.12937632 4.84459219 8.04045632 4.84459219 7.83021631 -0.666828026 7.91913631"></polygon> </g> <g id="Group-187"> <mask id="mask-82" fill="white"> <use xlink:href="#path-81"></use> </mask> <g id="Clip-186"></g> <polygon id="Fill-185" fill="#FFD2B1" mask="url(#mask-82)" points="-0.666828026 8.33970633 4.84459219 8.25078633 4.84459219 8.04036632 -0.666828026 8.12946632"></polygon> </g> <g id="Group-190"> <mask id="mask-84" fill="white"> <use xlink:href="#path-83"></use> </mask> <g id="Clip-189"></g> <polygon id="Fill-188" fill="#FFD3B2" mask="url(#mask-84)" points="-0.666828026 8.54992834 4.84459219 8.46100834 4.84459219 8.25076833 -0.666828026 8.33968833"></polygon> </g> <g id="Group-193"> <mask id="mask-86" fill="white"> <use xlink:href="#path-85"></use> </mask> <g id="Clip-192"></g> <polygon id="Fill-191" fill="#FFD3B3" mask="url(#mask-86)" points="-0.666828026 8.76016835 4.84459219 8.67124834 4.84459219 8.46100834 -0.666828026 8.54992834"></polygon> </g> <g id="Group-196"> <mask id="mask-88" fill="white"> <use xlink:href="#path-87"></use> </mask> <g id="Clip-195"></g> <polygon id="Fill-194" fill="#FFD4B4" mask="url(#mask-88)" points="-0.666828026 8.97049836 4.84459219 8.88157835 4.84459219 8.67115834 -0.666828026 8.76025835"></polygon> </g> <g id="Group-199"> <mask id="mask-90" fill="white"> <use xlink:href="#path-89"></use> </mask> <g id="Clip-198"></g> <polygon id="Fill-197" fill="#FFD4B5" mask="url(#mask-90)" points="-0.666828026 9.18072036 4.84459219 9.09180036 4.84459219 8.88156035 -0.666828026 8.97048036"></polygon> </g> <g id="Group-202"> <mask id="mask-92" fill="white"> <use xlink:href="#path-91"></use> </mask> <g id="Clip-201"></g> <polygon id="Fill-200" fill="#FFD5B5" mask="url(#mask-92)" points="-0.666828026 9.39096037 4.84459219 9.30204037 4.84459219 9.09180036 -0.666828026 9.18072036"></polygon> </g> <g id="Group-205"> <mask id="mask-94" fill="white"> <use xlink:href="#path-93"></use> </mask> <g id="Clip-204"></g> <polygon id="Fill-203" fill="#FFD5B6" mask="url(#mask-94)" points="-0.666828026 9.60129038 4.84459219 9.51219038 4.84459219 9.30195037 -0.666828026 9.39105037"></polygon> </g> <g id="Group-208"> <mask id="mask-96" fill="white"> <use xlink:href="#path-95"></use> </mask> <g id="Clip-207"></g> <polygon id="Fill-206" fill="#FFD6B7" mask="url(#mask-96)" points="-0.666828026 9.81151239 4.84459219 9.72259239 4.84459219 9.51217238 -0.666828026 9.60127238"></polygon> </g> <g id="Group-211"> <mask id="mask-98" fill="white"> <use xlink:href="#path-97"></use> </mask> <g id="Clip-210"></g> <polygon id="Fill-209" fill="#FFD6B8" mask="url(#mask-98)" points="-0.666828026 10.0217524 4.84459219 9.93283239 4.84459219 9.72259239 -0.666828026 9.81151239"></polygon> </g> <g id="Group-214"> <mask id="mask-100" fill="white"> <use xlink:href="#path-99"></use> </mask> <g id="Clip-213"></g> <polygon id="Fill-212" fill="#FFD6B9" mask="url(#mask-100)" points="-0.666828026 10.2319924 4.84459219 10.1430724 4.84459219 9.93283239 -0.666828026 10.0217524"></polygon> </g> <g id="Group-217"> <mask id="mask-102" fill="white"> <use xlink:href="#path-101"></use> </mask> <g id="Clip-216"></g> <polygon id="Fill-215" fill="#FFD7B9" mask="url(#mask-102)" points="-0.666828026 10.4423044 4.84459219 10.3533844 4.84459219 10.1429644 -0.666828026 10.2320644"></polygon> </g> <g id="Group-220"> <mask id="mask-104" fill="white"> <use xlink:href="#path-103"></use> </mask> <g id="Clip-219"></g> <polygon id="Fill-218" fill="#FFD7BA" mask="url(#mask-104)" points="-0.666828026 10.6525444 4.84459219 10.5636244 4.84459219 10.3533844 -0.666828026 10.4423044"></polygon> </g> <g id="Group-223"> <mask id="mask-106" fill="white"> <use xlink:href="#path-105"></use> </mask> <g id="Clip-222"></g> <polygon id="Fill-221" fill="#FFD8BB" mask="url(#mask-106)" points="-0.666828026 10.8627844 4.84459219 10.7738644 4.84459219 10.5636244 -0.666828026 10.6525444"></polygon> </g> <g id="Group-226"> <mask id="mask-108" fill="white"> <use xlink:href="#path-107"></use> </mask> <g id="Clip-225"></g> <polygon id="Fill-224" fill="#FFD8BB" mask="url(#mask-108)" points="-0.666828026 11.0730964 4.84459219 10.9841764 4.84459219 10.7737564 -0.666828026 10.8628564"></polygon> </g> <g id="Group-229"> <mask id="mask-110" fill="white"> <use xlink:href="#path-109"></use> </mask> <g id="Clip-228"></g> <polygon id="Fill-227" fill="#FFD8BC" mask="url(#mask-110)" points="-0.666828026 11.2833364 4.84459219 11.1944164 4.84459219 10.9841764 -0.666828026 11.0730964"></polygon> </g> <g id="Group-232"> <mask id="mask-112" fill="white"> <use xlink:href="#path-111"></use> </mask> <g id="Clip-231"></g> <polygon id="Fill-230" fill="#FFD9BD" mask="url(#mask-112)" points="-0.666828026 11.4935585 4.84459219 11.4046385 4.84459219 11.1943984 -0.666828026 11.2833184"></polygon> </g> <g id="Group-235"> <mask id="mask-114" fill="white"> <use xlink:href="#path-113"></use> </mask> <g id="Clip-234"></g> <polygon id="Fill-233" fill="#FFD9BD" mask="url(#mask-114)" points="0.979146039 11.6772665 4.84464619 11.6149865 4.84464619 11.4045665 -0.666774026 11.4934865 -0.666774026 11.6772665"></polygon> </g> <g id="Group-238"> <mask id="mask-116" fill="white"> <use xlink:href="#path-115"></use> </mask> <g id="Clip-237"></g> <polygon id="Fill-236" fill="#FFD9BD" mask="url(#mask-116)" points="4.84457419 11.6149505 0.979074039 11.6772305 4.84457419 11.6772305"></polygon> </g> </g> <g id="Group-291" transform="translate(0.000000, 0.088200)"> <path d="M105.355732,196.721576 C105.355732,196.721576 101.087212,253.138978 100.949872,294.87378 C107.036212,302.44566 113.992493,305.81796 122.842193,300.05058 C122.842193,300.05058 134.367413,266.269979 140.527374,254.347498 C146.687334,242.424838 151.853874,214.605477 143.905434,204.272576 L105.355732,196.721576 Z" id="Fill-240" fill="#3C5EAB"></path> <path d="M100.949944,294.873852 C100.949944,294.873852 101.493004,347.238554 103.861264,371.472315 L113.140264,375.041175 C116.734145,348.470114 124.647665,322.296313 122.842265,300.050652 C117.159305,289.609752 109.677244,288.880571 100.949944,294.873852" id="Fill-242" fill="#3C5EAB"></path> <path d="M116.697137,197.535788 C116.697137,197.535788 133.220057,262.63855 146.881518,302.074392 C155.127858,307.209792 162.309318,308.029872 168.756199,299.662212 C168.756199,299.662212 168.207019,261.93385 168.731179,248.52421 C169.646479,225.109449 170.037079,207.707588 159.120798,200.581568 L116.697137,197.535788 Z" id="Fill-244" fill="#4066B0"></path> <path d="M146.106924,297.838938 C146.106924,297.838938 154.758444,350.01932 161.470104,373.425261 L171.241405,375.257481 C169.971145,348.47438 174.372865,320.523799 168.574345,298.971498 C161.096964,289.730118 153.606444,290.366058 146.106924,297.838938" id="Fill-246" fill="#4066B0"></path> <mask id="mask-118" fill="white"> <use xlink:href="#path-117"></use> </mask> <g id="Clip-249"></g> <polygon id="Fill-248" fill="#FFFFFF" mask="url(#mask-118)" points="9.74394039 411.480016 234.769689 411.480016 234.769689 233.172189 9.74394039 233.172189"></polygon> <polygon id="Fill-250" fill="#FFFFFF" mask="url(#mask-118)" points="9.74394039 411.479836 234.769689 411.479836 234.769689 242.48521 9.74394039 242.48521"></polygon> <polygon id="Fill-251" fill="#1372B7" mask="url(#mask-118)" points="9.74394039 411.479836 234.769689 411.479836 234.769689 242.48521 9.74394039 242.48521"></polygon> <polygon id="Fill-252" fill="#C5E7F9" mask="url(#mask-118)" points="5.18760021 267.084011 239.32621 267.084011 239.32621 242.48521 5.18760021 242.48521"></polygon> <polygon id="Fill-253" fill="#C5E7F9" mask="url(#mask-118)" points="5.18760021 401.410636 239.32621 401.410636 239.32621 276.037211 5.18760021 276.037211"></polygon> <polygon id="Fill-254" fill="#1372B7" mask="url(#mask-118)" points="0.227160009 244.38979 244.28665 244.38979 244.28665 234.791289 0.227160009 234.791289"></polygon> <polygon id="Fill-255" fill="#1372B7" mask="url(#mask-118)" points="244.05949 234.470241 0 234.470241 16.6966207 207.46016 227.471769 207.46016"></polygon> <path d="M230.310675,256.549852 L13.1482265,256.549852 C11.9719265,256.549852 11.0184664,255.596392 11.0184664,254.420092 C11.0184664,253.243972 11.9719265,252.290512 13.1482265,252.290512 L230.310675,252.290512 C231.486795,252.290512 232.440435,253.243972 232.440435,254.420092 C232.440435,255.596392 231.486795,256.549852 230.310675,256.549852" id="Fill-256" fill="#1372B7" mask="url(#mask-118)"></path> <polygon id="Fill-257" fill="#FFFFFF" mask="url(#mask-118)" points="44.2024218 338.434393 94.7322038 338.434393 94.7322038 251.09155 44.2024218 251.09155"></polygon> <path d="M44.3277018,338.309293 L94.6069238,338.309293 L94.6069238,251.21683 L44.3277018,251.21683 L44.3277018,338.309293 Z M44.0769618,338.559853 L94.8573038,338.559853 L94.8573038,250.96627 L44.0769618,250.96627 L44.0769618,338.559853 Z" id="Fill-258" fill="#1372B7" mask="url(#mask-118)"></path> <polygon id="Fill-259" fill="#1372B7" mask="url(#mask-118)" points="44.2024218 330.903913 94.7322038 330.903913 94.7322038 328.142533 44.2024218 328.142533"></polygon> <polygon id="Fill-260" fill="#1372B7" mask="url(#mask-118)" points="44.2024218 326.197273 94.7322038 326.197273 94.7322038 323.436073 44.2024218 323.436073"></polygon> <polygon id="Fill-261" fill="#FFFFFF" mask="url(#mask-118)" points="72.2682029 317.924653 122.797985 317.924653 122.797985 251.39341 72.2682029 251.39341"></polygon> <path d="M72.3936629,317.799373 L122.672885,317.799373 L122.672885,251.51833 L72.3936629,251.51833 L72.3936629,317.799373 Z M72.1431029,318.049933 L122.923445,318.049933 L122.923445,251.26795 L72.1431029,251.26795 L72.1431029,318.049933 Z" id="Fill-262" fill="#1372B7" mask="url(#mask-118)"></path> <polygon id="Fill-263" fill="#1372B7" mask="url(#mask-118)" points="72.2682029 312.188232 122.797985 312.188232 122.797985 310.084932 72.2682029 310.084932"></polygon> <polygon id="Fill-264" fill="#1372B7" mask="url(#mask-118)" points="72.2682029 308.603172 122.797985 308.603172 122.797985 306.499692 72.2682029 306.499692"></polygon> <path d="M162.407724,219.777489 C162.407724,225.124569 142.377864,229.459149 117.669983,229.459149 C92.9619217,229.459149 72.9322409,225.124569 72.9322409,219.777489 C72.9322409,214.430409 92.9619217,210.095828 117.669983,210.095828 C142.377864,210.095828 162.407724,214.430409 162.407724,219.777489" id="Fill-265" fill="#F4D345" mask="url(#mask-118)"></path> <path d="M162.407724,218.077245 C162.407724,222.485265 142.377864,226.058625 117.669983,226.058625 C92.9619217,226.058625 72.9322409,222.485265 72.9322409,218.077245 C72.9322409,213.669224 92.9619217,210.095864 117.669983,210.095864 C142.377864,210.095864 162.407724,213.669224 162.407724,218.077245" id="Fill-266" fill="#F9E791" mask="url(#mask-118)"></path> <path d="M94.4454638,152.06145 C92.5164037,149.62767 90.0999036,147.62355 88.0729235,145.27077 C81.9111633,138.119189 79.7925632,128.179769 80.3259032,118.754789 C80.8592432,109.329988 83.7842433,100.225768 86.6858434,91.2428676 C84.2247033,102.116128 83.6782233,114.200429 89.4479436,123.739709 C92.5691437,128.899949 97.3521039,132.978929 99.981904,138.406109 C104.965204,148.68933 101.631244,161.34873 100.992784,172.214071 C99.503284,165.074911 99.2010639,158.06175 94.4454638,152.06145" id="Fill-267" fill="#FFFFFF" mask="url(#mask-118)"></path> <path d="M92.6714017,103.791028 C93.5438617,99.741028 96.0212018,96.2393078 97.5114219,92.3736277 C101.568082,81.8502873 97.9700619,70.0928668 94.3668217,59.4057264 C97.0830219,68.4150867 104.497582,76.295307 103.807102,85.6797874 C103.299682,92.5750477 98.4623619,98.3276679 96.3340418,104.906128 C94.6829018,110.009128 94.6301618,115.893689 96.5585018,120.927389 C96.4353818,114.659969 91.1939616,110.650468 92.6714017,103.791028" id="Fill-268" fill="#FFFFFF" mask="url(#mask-118)"></path> <path d="M92.7255817,34.9909214 C86.8964615,41.9904017 88.4711015,56.4231622 90.0990216,64.4743826 C86.6862214,54.7315222 85.6843414,43.4460617 92.7255817,34.9909214" id="Fill-269" fill="#FFFFFF" mask="url(#mask-118)"></path> <path d="M163.120884,176.886241 L150.531864,176.886241 C150.437724,176.886241 150.361404,176.809921 150.361404,176.715961 L150.361404,171.306601 C150.361404,171.212461 150.437724,171.136321 150.531864,171.136321 L163.120884,171.136321 C163.369464,171.136321 163.570884,171.337741 163.570884,171.586321 L163.570884,176.436241 C163.570884,176.684821 163.369464,176.886241 163.120884,176.886241" id="Fill-270" fill="#3687C2" mask="url(#mask-118)"></path> <path d="M73.3821329,176.886241 L85.9713334,176.886241 C86.0652934,176.886241 86.1416134,176.809921 86.1416134,176.715961 L86.1416134,171.306601 C86.1416134,171.212461 86.0652934,171.136321 85.9713334,171.136321 L73.3821329,171.136321 C73.1335529,171.136321 72.9321329,171.337741 72.9321329,171.586321 L72.9321329,176.436241 C72.9321329,176.684821 73.1335529,176.886241 73.3821329,176.886241" id="Fill-271" fill="#3687C2" mask="url(#mask-118)"></path> <path d="M151.719666,159.54585 L84.7834234,159.54585 C84.6892834,159.54585 84.6129634,159.62217 84.6129634,159.71613 L84.6129634,217.812933 C84.6129634,218.182833 84.9128434,218.482533 85.2827434,218.482533 L151.220346,218.482533 C151.590246,218.482533 151.890126,218.182833 151.890126,217.812933 L151.890126,159.71613 C151.890126,159.62217 151.813806,159.54585 151.719666,159.54585" id="Fill-272" fill="#B1D1E7" mask="url(#mask-118)"></path> <path d="M151.798722,159.54585 L148.300062,162.93543 C137.782481,173.124871 129.681221,185.541271 124.591541,199.272572 L117.470741,218.482533 L151.531242,218.482533 C151.729422,218.482533 151.889982,218.321973 151.889982,218.123793 L151.889982,159.63711 C151.889982,159.58671 151.849122,159.54585 151.798722,159.54585" id="Fill-273" fill="#92BEDE" mask="url(#mask-118)"></path> <path d="M158.248842,161.692944 L78.2541391,161.692944 C78.0768391,161.692944 77.9330191,161.549124 77.9330191,161.371824 L77.9330191,158.912844 C77.9330191,158.735364 78.0768391,158.591544 78.2541391,158.591544 L158.248842,158.591544 C158.426322,158.591544 158.569962,158.735364 158.569962,158.912844 L158.569962,161.371824 C158.569962,161.549124 158.426322,161.692944 158.248842,161.692944" id="Fill-274" fill="#3687C2" mask="url(#mask-118)"></path> <path d="M91.8167976,167.998129 C91.8167976,167.998129 85.8373774,209.46887 91.8167976,208.89017 C97.7962179,208.31147 92.9740177,170.312749 91.8167976,167.998129" id="Fill-275" fill="#FFFFFF" mask="url(#mask-118)"></path> <path d="M116.697137,151.576818 C116.697137,152.538918 115.917197,153.318678 114.955277,153.318678 C113.993177,153.318678 113.213416,152.538918 113.213416,151.576818 C113.213416,150.614898 113.993177,149.834958 114.955277,149.834958 C115.917197,149.834958 116.697137,150.614898 116.697137,151.576818" id="Fill-276" fill="#FFFFFF" mask="url(#mask-118)"></path> <path d="M107.76073,127.300361 C107.76073,128.791121 106.55221,129.999641 105.06145,129.999641 C103.57069,129.999641 102.36217,128.791121 102.36217,127.300361 C102.36217,125.809601 103.57069,124.601081 105.06145,124.601081 C106.55221,124.601081 107.76073,125.809601 107.76073,127.300361" id="Fill-277" fill="#FFFFFF" mask="url(#mask-118)"></path> <path d="M71.7793589,146.640174 C71.7793589,148.865874 69.9750388,150.670194 67.7493387,150.670194 C65.5236386,150.670194 63.7194985,148.865874 63.7194985,146.640174 C63.7194985,144.414474 65.5236386,142.610154 67.7493387,142.610154 C69.9750388,142.610154 71.7793589,144.414474 71.7793589,146.640174" id="Fill-278" fill="#FFFFFF" mask="url(#mask-118)"></path> <path d="M87.9167015,79.9633472 C87.9167015,82.0814073 86.1996814,83.7982473 84.0818013,83.7982473 C81.9637413,83.7982473 80.2469012,82.0814073 80.2469012,79.9633472 C80.2469012,77.8452871 81.9637413,76.128447 84.0818013,76.128447 C86.1996814,76.128447 87.9167015,77.8452871 87.9167015,79.9633472" id="Fill-279" fill="#FFFFFF" mask="url(#mask-118)"></path> <path d="M114.727685,65.2417586 C114.727685,67.3378587 113.028484,69.0372387 110.932204,69.0372387 C108.836104,69.0372387 107.136724,67.3378587 107.136724,65.2417586 C107.136724,63.1454785 108.836104,61.4462784 110.932204,61.4462784 C113.028484,61.4462784 114.727685,63.1454785 114.727685,65.2417586" id="Fill-280" fill="#FFFFFF" mask="url(#mask-118)"></path> <path d="M146.704398,123.930725 C146.704398,125.900825 145.107258,127.497965 143.137158,127.497965 C141.167058,127.497965 139.569918,125.900825 139.569918,123.930725 C139.569918,121.960625 141.167058,120.363485 143.137158,120.363485 C145.107258,120.363485 146.704398,121.960625 146.704398,123.930725" id="Fill-281" fill="#FFFFFF" mask="url(#mask-118)"></path> <path d="M130.917929,172.442221 C130.917929,174.896521 128.928209,176.886241 126.473909,176.886241 C124.019429,176.886241 122.029709,174.896521 122.029709,172.442221 C122.029709,169.987741 124.019429,167.998201 126.473909,167.998201 C128.928209,167.998201 130.917929,169.987741 130.917929,172.442221" id="Fill-282" fill="#FFFFFF" mask="url(#mask-118)"></path> <path d="M194.709122,225.010935 C199.112282,208.947194 198.068642,182.500333 197.739962,176.250373 C197.699282,175.478533 197.278622,174.893353 196.779482,174.890293 L195.426422,174.890653 L195.430562,169.184293 L185.958421,169.167733 L185.954461,174.874813 L185.954461,174.874813 L185.952841,174.879313 L184.601401,174.870313 C184.098841,174.876433 183.682321,175.456393 183.637501,176.230393 C183.523741,178.379953 183.323041,182.935933 183.282541,188.629873 C183.267601,191.094254 183.277141,193.777694 183.342841,196.564994 C183.374701,197.916614 183.418441,199.301354 183.474061,200.695634 C183.591601,203.489414 183.768721,206.354654 184.025581,209.190194 C184.527781,214.828515 185.332921,220.346955 186.601381,224.994735 C186.748621,225.547335 187.105921,225.893835 187.498501,225.893475 L193.806962,225.903735 C194.199722,225.903735 194.557922,225.557955 194.709122,225.010935" id="Fill-283" fill="#76B6DD" mask="url(#mask-118)"></path> <path d="M215.979273,225.010935 C220.382433,208.947194 219.338793,182.500333 219.010113,176.250373 C218.969613,175.478533 218.548773,174.893353 218.049633,174.890293 L216.696573,174.890653 L216.700713,169.184293 L207.228752,169.167733 L207.224612,174.874813 L207.224612,174.874813 L207.222992,174.879313 L205.871552,174.870313 C205.368992,174.876433 204.952472,175.456393 204.907652,176.230393 C204.793892,178.379953 204.593192,182.935933 204.552692,188.629873 C204.537752,191.094254 204.547292,193.777694 204.612992,196.564994 C204.645032,197.916614 204.688592,199.301354 204.744212,200.695634 C204.861752,203.489414 205.039052,206.354654 205.295732,209.190194 C205.797932,214.828515 206.603072,220.346955 207.871532,224.994735 C208.018772,225.547335 208.376072,225.893835 208.768832,225.893475 L215.077113,225.903735 C215.469873,225.903735 215.828073,225.557955 215.979273,225.010935" id="Fill-284" fill="#76B6DD" mask="url(#mask-118)"></path> <path d="M36.8414295,173.685535 L36.8414295,161.999214 L37.8938895,161.999214 L37.8938895,158.196174 L31.5793093,158.196174 L31.5793093,161.999214 L32.6317693,161.999214 L32.6317693,173.685535 C29.6072292,174.624955 27.3694691,177.923095 27.3694691,181.859695 L27.3694691,225.383697 L42.1035497,225.383697 L42.1035497,181.859695 C42.1035497,177.923095 39.8659696,174.624955 36.8414295,173.685535" id="Fill-285" fill="#76B6DD" mask="url(#mask-118)"></path> <polygon id="Fill-286" fill="#F9E791" mask="url(#mask-118)" points="30.4088412 203.374088 39.0641416 203.374088 39.0641416 199.898828 30.4088412 199.898828"></polygon> <polygon id="Fill-287" fill="#F9E791" mask="url(#mask-118)" points="30.4088412 196.423568 39.0641416 196.423568 39.0641416 184.839487 30.4088412 184.839487"></polygon> <path d="M53.6742021,173.685535 L53.6742021,161.999214 L54.7266622,161.999214 L54.7266622,158.196174 L48.4120819,158.196174 L48.4120819,161.999214 L49.464542,161.999214 L49.464542,173.685535 C46.4400018,174.624955 44.2024218,177.923095 44.2024218,181.859695 L44.2024218,225.383697 L58.9363223,225.383697 L58.9363223,181.859695 C58.9363223,177.923095 56.6987423,174.624955 53.6742021,173.685535" id="Fill-288" fill="#76B6DD" mask="url(#mask-118)"></path> <polygon id="Fill-289" fill="#1372B7" mask="url(#mask-118)" points="46.7607619 196.423568 56.3778022 196.423568 56.3778022 184.839487 46.7607619 184.839487"></polygon> <polygon id="Fill-290" fill="#1372B7" mask="url(#mask-118)" points="46.7607619 203.374088 56.3778022 203.374088 56.3778022 199.898828 46.7607619 199.898828"></polygon> </g> </g> </g> </g> </g> </svg> 