<?xml version="1.0" encoding="UTF-8"?> <svg xmlns="http://www.w3.org/2000/svg" xmlns:xlink="http://www.w3.org/1999/xlink" width="244px" height="339px" viewBox="0 0 244 339"> <!-- Generator: Sketch 57.1 (83088) - https://sketch.com --> <title>Group 20</title> <desc>Created with Sketch.</desc> <defs> <polygon id="path-1" points="0 0.216324017 83.807644 0.216324017 83.807644 183.397162 0 183.397162"></polygon> </defs> <g id="Page-1" stroke="none" stroke-width="1" fill="none" fill-rule="evenodd"> <g id="artem" transform="translate(-696.000000, -2475.000000)"> <g id="Group-11-Copy" transform="translate(198.000000, 2465.000000)"> <g id="Group-20" transform="translate(498.000000, 10.000000)"> <g id="Group-126" transform="translate(20.000000, 0.000000)"> <path d="M106.658918,329.307362 C106.658918,329.307362 84.6684967,319.480711 78.1625762,315.569221 C77.4173762,315.121021 65.3408152,313.862821 65.1461452,314.866411 C64.8596752,316.344121 62.972105,324.848042 63.117095,329.484752 C63.166235,331.053722 64.4549451,332.204192 66.0244552,332.204192 L106.000658,332.204192 C107.688969,332.204192 108.192519,330.013682 106.658918,329.307362" id="Fill-1" fill="#E2A346"></path> <path d="M88.467937,326.532221 C88.7652071,326.532221 89.0063171,326.291111 89.0063171,325.993841 C89.0063171,325.968191 89.0376371,323.312471 90.8485272,322.066421 C91.0934172,321.897671 91.1555172,321.562601 90.9867672,321.317711 C90.8185572,321.072821 90.4834872,321.010721 90.2383272,321.179471 C87.956017,322.750061 87.929557,325.862351 87.929557,325.993841 C87.929557,326.291111 88.170667,326.532221 88.467937,326.532221" id="Fill-3" fill="#FFFFFF"></path> <path d="M82.6840236,324.773792 C82.7253336,324.773792 82.7671836,324.768932 82.8090336,324.758942 C83.0984736,324.690092 83.2769436,324.399842 83.2080936,324.110672 C82.9945236,323.214002 84.0815437,320.519131 85.4847338,319.548211 C85.7293538,319.379461 85.7901038,319.043851 85.6210838,318.799501 C85.4520638,318.554881 85.1169938,318.493861 84.8721037,318.663151 C83.1395136,319.861951 81.8340635,322.988282 82.1607635,324.360152 C82.2196235,324.607472 82.4404836,324.773792 82.6840236,324.773792" id="Fill-5" fill="#FFFFFF"></path> <path d="M64.0402521,333.352637 L108.396396,333.352637 C108.931536,333.352637 109.365426,332.739467 109.365426,332.204327 C109.365426,331.669457 108.931536,331.056017 108.396396,331.056017 L64.0402521,331.056017 C63.505112,331.056017 63.071222,331.669457 63.071222,332.204327 C63.071222,332.739467 63.505112,333.352637 64.0402521,333.352637" id="Fill-7" fill="#172755"></path> <path d="M37.0232399,329.299991 C27.2716492,323.178821 22.3225488,319.80409 18.1596884,315.85642 C17.2273784,314.97244 6.60341752,314.2591 5.52746744,315.61153 C5.0514574,316.21012 4.02113732,324.322001 2.97704724,329.069411 C2.61227721,330.728021 3.87479731,332.204381 5.57309744,332.204381 L36.2731799,332.204381 C37.93989,332.204381 38.4350701,330.186131 37.0232399,329.299991" id="Fill-9" fill="#E2A346"></path> <path d="M3.53486728,333.352637 L38.20152,333.352637 C38.7366601,333.352637 39.1705501,332.739467 39.1705501,332.204327 C39.1705501,331.669457 38.7366601,331.056017 38.20152,331.056017 L3.53486728,331.056017 C2.99972724,331.056017 2.5658372,331.669457 2.5658372,332.204327 C2.5658372,332.739467 2.99972724,333.352637 3.53486728,333.352637" id="Fill-11" fill="#172755"></path> <path d="M29.5387853,326.529332 C29.7631554,326.529332 29.9713254,326.388932 30.0461154,326.164292 C30.2383554,325.589192 30.1130754,323.789102 29.3322353,323.276372 C29.0835653,323.113022 28.7501153,323.182412 28.5870353,323.430812 C28.4244953,323.678402 28.4925353,324.010232 28.7382353,324.174122 C28.9585553,324.363122 29.1278453,325.501172 29.0249753,325.823822 C28.9350653,326.105702 29.0884253,326.410532 29.3697653,326.502062 C29.4259253,326.520692 29.4826253,326.529332 29.5387853,326.529332" id="Fill-13" fill="#FFFFFF"></path> <path d="M24.708512,323.987525 C24.950432,323.987525 25.169942,323.823635 25.230692,323.578205 C25.471802,322.601885 25.3303349,320.599294 24.1898419,320.084404 C23.9190319,319.961824 23.5998919,320.082514 23.4775819,320.353324 C23.3552719,320.624404 23.4756919,320.943275 23.7467719,321.065585 C24.1706719,321.257015 24.3702019,322.572725 24.1855219,323.319815 C24.1142419,323.608715 24.2902819,323.900315 24.578912,323.971595 C24.622382,323.982125 24.665852,323.987525 24.708512,323.987525" id="Fill-15" fill="#FFFFFF"></path> <g id="Group-19" transform="translate(0.000000, 134.478911)"> <mask id="mask-2" fill="white"> <use xlink:href="#path-1"></use> </mask> <g id="Clip-18"></g> <path d="M81.7466105,108.165843 C77.2551601,131.800024 75.00039,148.390986 75.29469,163.565257 C75.4116,169.749067 75.95268,175.696628 76.9368301,181.790258 C76.7113801,182.238728 66.6757493,182.795739 66.0177592,181.973318 C65.3759692,181.352588 61.3672789,174.009668 57.2927086,163.565257 C53.1198582,152.866236 48.8805879,138.912365 48.1243178,125.589754 C47.7398378,118.854063 52.2815082,107.301033 51.8065781,101.730122 C51.5492681,98.7031518 49.2704679,86.9484309 48.9202779,84.1045207 C45.9597277,93.8272215 44.5271075,104.698772 41.3861973,109.434033 C30.4881864,125.871094 24.3602659,147.616356 20.8929257,163.565257 C18.9510855,172.507928 17.8448954,179.631068 17.2055354,182.973399 C15.4837452,183.795819 8.8568647,183.230979 6.2359745,182.867289 C5.72648446,182.795739 3.7741143,174.465968 2.19029417,163.565257 C0.12371401,149.359206 -1.32213611,130.784014 1.84550415,120.422224 C3.11612425,116.265033 11.5814349,103.990292 12.470275,99.7323919 C19.1182155,67.8213594 22.8612258,44.1580175 22.8852558,39.7940072 C22.9011858,36.8863769 21.7577357,29.6468664 22.9754358,23.6382859 C24.5168659,16.0377853 29.7508164,10.4536448 35.9027669,0.216324017 C35.9027669,0.216324017 71.6099997,4.42103435 75.02415,1.90598415 C78.3243602,-0.521316041 80.1997804,21.8422457 81.5767805,27.1825762 C81.9693605,28.7078063 86.2855809,84.2821807 81.7466105,108.165843" id="Fill-17" fill="#BC7551" mask="url(#mask-2)"></path> </g> <path d="M15.7503973,93.4106654 C14.9846772,101.339216 14.0520971,122.701888 15.2706072,127.575118 C16.2752773,131.594338 23.3419879,155.67537 33.3992187,160.350421 C49.3000599,167.741671 40.6724792,141.446369 40.6724792,141.446369 C40.6724792,141.446369 40.2933992,123.788638 43.9537895,98.7847459 C44.2869695,96.5091857 16.4580673,86.0812448 15.7503973,93.4106654" id="Fill-20" fill="#BC7551"></path> <path d="M40.2661292,49.3779819 C32.6658986,51.5514821 23.7720979,58.4999326 19.4186175,65.0957632 C13.208347,74.5047239 13.8817271,87.595675 13.8825371,96.7303157 C13.8828071,98.8616959 38.8561891,101.796326 40.0509392,98.0813958 C43.9608095,85.9262648 40.2661292,49.3779819 40.2661292,49.3779819" id="Fill-22" fill="#E2A346"></path> <path d="M84.5612527,106.670474 C81.2769725,143.364557 81.9217325,152.408208 83.3408526,164.762599 C83.6248926,167.245519 68.6201815,166.884799 53.3214402,166.476289 C39.5927491,166.110169 25.628348,165.566389 22.2565878,162.661459 C21.6409877,162.133609 21.3785477,161.525839 21.5321777,160.828429 C28.7560283,127.986166 21.4392977,99.7333639 21.5321777,75.778152 C21.5958977,59.9140308 39.3486691,45.7743996 50.63926,45.7743996 C54.2710303,45.7743996 73.7191319,53.1440502 82.4204226,68.1325614 C87.919783,77.6006522 85.8877628,91.8704233 84.5612527,106.670474" id="Fill-24" fill="#E2A346"></path> <path d="M40.045735,50.012239 C40.0646822,48.5766489 42.4620124,44.4267485 42.4620124,39.0599581 C42.4620124,32.5524176 59.0824037,37.225038 59.0824037,37.225038 C59.4309737,40.4364182 59.0478437,46.4217787 59.9269638,49.914769 C60.3638238,51.6516791 55.1333834,54.2479993 48.5224329,53.7952093 C43.6535225,53.4617592 40.0306622,51.1508291 40.045735,50.012239" id="Fill-26" fill="#BC7551"></path> <path d="M44.5926095,13.2872411 C50.66761,7.71444061 63.479651,9.70002077 66.1712813,17.4930314 C69.5200915,27.1895422 68.3623314,40.5286232 65.9031712,42.5058334 C62.286521,45.4140036 50.48752,42.8957134 46.2911797,39.9097832 C42.2819494,37.0569629 34.3596087,22.6746018 44.5926095,13.2872411" id="Fill-28" fill="#BC7551"></path> <path d="M41.8876683,13.7423261 C34.7953078,15.8186263 38.3819881,26.4174771 39.1790281,29.6831274 C40.0457282,33.2338976 40.8165782,39.7967882 42.9441784,39.7967882 C52.1797991,39.7967882 56.6342595,32.6558276 56.3383395,32.0874776 C54.3713893,28.3085572 57.1132395,23.5589869 58.7899397,27.9313672 C58.9962197,31.7677975 61.1637799,31.7532175 61.3319899,31.4159875 C61.5466399,30.9864175 60.7463598,20.1934366 60.8800098,18.9692565 L41.8876683,13.7423261 Z" id="Fill-30" fill="#172755"></path> <path d="M58.9739177,46.4286907 C58.9982177,46.4286907 59.0230577,46.4265307 59.0478977,46.4219407 C59.2660577,46.3811707 59.4099677,46.1713807 59.3694677,45.9532207 C58.9242377,43.5612905 58.9668977,41.8894503 59.0514077,41.3394603 C59.0851577,41.1199503 58.9347677,40.9150203 58.7152577,40.8812702 C58.4962876,40.8467102 58.2908176,40.9979103 58.2570676,41.2171503 C58.1585176,41.8578603 58.1153176,43.6071905 58.5791777,46.1003707 C58.6153577,46.2936907 58.7841077,46.4286907 58.9739177,46.4286907" id="Fill-32" fill="#804737"></path> <path d="M66.2284673,16.2690943 C73.7061179,13.3584941 68.9227975,4.01163332 61.7721169,7.5632136 C65.8769272,2.38407319 53.9998963,-1.15130709 48.2070458,5.62407345 C39.9820352,2.38407319 31.7035645,6.17298349 38.8061851,13.5010541 C32.1865946,15.1961142 25.9817241,22.6500048 43.7353055,28.2630352 L66.2284673,16.2690943 Z" id="Fill-34" fill="#172755"></path> <path d="M37.974369,25.9624731 C37.974369,25.9624731 45.0281196,25.015313 53.9086903,21.9054527 C62.389121,18.9357225 66.2285213,16.2692023 66.2285213,16.2692023 C66.2285213,16.2692023 67.4351514,21.9400127 67.2955613,21.3592427 C67.2016013,20.9682827 64.8847312,25.401683 57.1138605,28.2434332 C45.5756796,32.4624536 39.7982192,32.4621836 39.7982192,32.4621836 C38.4579391,31.4596735 38.375049,27.0651532 37.974369,25.9624731" id="Fill-36" fill="#E2A346"></path> <path d="M91.08226,226.701171 C91.2094092,229.298301 49.4082759,231.147261 48.9201159,230.229531 C48.4295258,229.308831 48.3895658,226.542141 48.3895658,226.542141 C48.3895658,226.542141 47.8538858,227.714481 47.4054158,229.611231 C46.9572157,231.508251 8.56510268,219.8834 6.45343251,218.43242 C4.56991236,217.1402 19.0915935,172.344227 22.2565338,162.661486 C25.628294,165.566416 39.5926951,166.110196 53.3213862,166.476316 C68.6203975,166.884826 83.6248386,167.245546 83.3410686,164.762626 C86.5003389,163.263586 90.9545292,224.106741 91.08226,226.701171" id="Fill-38" fill="#172755"></path> <path d="M58.4713666,127.431478 C63.136697,141.427469 74.1926579,149.82501 82.8091686,158.358091 C87.833329,163.333651 91.7534593,162.680521 91.0166292,160.376341 C90.1550592,157.682551 82.6398786,129.728098 81.6154985,121.402378 C80.6019184,113.163597 81.5261285,101.450726 81.6991985,97.2867857 C81.7810085,95.3184856 52.6069662,97.2716657 52.6228897,98.8490059 C52.7082162,107.428527 56.6183565,121.872448 58.4713666,127.431478" id="Fill-40" fill="#BC7551"></path> <path d="M91.0165752,160.376233 C93.3434354,166.611073 93.7902855,176.406944 93.2365154,178.622294 C92.6824754,180.837914 89.5383251,185.502975 88.7231951,185.069625 C87.2006649,184.260435 90.3996252,180.345164 90.0613152,179.551634 C87.978805,182.044004 86.0774648,185.207595 84.7960447,185.100135 C84.0489547,185.037495 84.6110947,183.428565 84.4679947,183.425595 C84.0332947,183.416145 83.8785847,183.387795 83.5329846,183.103215 C82.9848846,182.651775 83.5883346,181.770764 82.8560946,181.201064 C81.1151344,179.847284 83.8769647,176.442044 83.9520247,174.826904 C84.1391347,170.810384 79.4389743,163.922143 82.3398545,158.824003 C83.4295746,156.908622 90.2484252,158.317753 91.0165752,160.376233" id="Fill-42" fill="#BC7551"></path> <path d="M83.5006116,181.825412 C83.6696316,181.825412 83.8302817,181.725242 83.8988617,181.559192 C84.0195517,181.266782 84.8365717,179.905982 85.5574718,178.705292 C86.5030119,177.130382 87.0875619,176.150822 87.1920519,175.872182 C87.4463919,175.194212 87.453682,174.096122 87.2158119,172.311422 C87.1844919,172.075712 86.9671419,171.908852 86.7322419,171.941522 C86.4962619,171.972842 86.3307519,172.189382 86.3620719,172.425092 C86.5742919,174.017552 86.5821219,175.046252 86.3858319,175.569782 C86.3032119,175.789562 85.4802518,177.160352 84.8187517,178.261952 C83.8416217,179.890052 83.2384416,180.902012 83.1029016,181.230062 C83.0119116,181.449842 83.1166716,181.701752 83.3361816,181.792472 C83.3901816,181.814882 83.4458016,181.825412 83.5006116,181.825412" id="Fill-44" fill="#804737"></path> <path d="M84.7901047,183.501708 C84.9569648,183.501708 85.1159948,183.403968 85.1859248,183.240888 C85.3365848,182.889888 86.5037949,181.357367 87.4415049,180.125897 C89.0912051,177.959417 89.5823351,177.284417 89.6568551,176.986067 C89.7878051,176.461457 89.9222651,175.367957 89.9911152,174.264737 C90.0059652,174.027677 89.8256051,173.823017 89.5882751,173.808167 C89.3544551,173.794127 89.1465551,173.973677 89.1317051,174.211277 C89.0671751,175.239977 88.9413551,176.284067 88.8247151,176.762507 C88.698625,177.053567 87.577045,178.526147 86.7562449,179.603987 C85.4067848,181.376537 84.5743747,182.482728 84.3945547,182.900958 C84.3008647,183.119388 84.4018447,183.372648 84.6205447,183.466608 C84.6758947,183.490368 84.7334047,183.501708 84.7901047,183.501708" id="Fill-46" fill="#804737"></path> <path d="M90.4639392,179.725244 C90.5759892,179.725244 90.6880392,179.681774 90.7725492,179.595104 C91.8914293,178.445714 92.0307493,177.277964 92.1427993,176.339174 C92.1552193,176.236034 92.1670993,176.134784 92.1803293,176.035694 C92.2119193,175.799984 92.0461393,175.583444 91.8104293,175.551854 C91.5739093,175.520804 91.3581793,175.686314 91.3265893,175.922024 C91.3130893,176.024894 91.3003993,176.129924 91.2874393,176.237384 C91.1810592,177.130544 91.0708992,178.054214 90.1553292,178.994084 C89.9895492,179.164454 89.9930592,179.437424 90.1636992,179.603204 C90.2473992,179.684744 90.3556692,179.725244 90.4639392,179.725244" id="Fill-48" fill="#804737"></path> <path d="M49.714105,230.24268 C49.3334049,230.24268 48.9940149,229.97322 48.9194949,229.5855 L43.7290145,202.601428 C42.3074644,201.108868 33.2554436,191.187177 32.6125736,179.927906 C32.5871936,179.481326 32.9284736,179.098466 33.3750537,179.073086 C33.8197437,179.043926 34.2042237,179.388986 34.2298737,179.835566 C34.8776038,191.179617 44.9542746,201.540058 45.0560646,201.643468 L45.2277846,201.818158 L45.2744946,202.058728 L50.510335,229.27959 C50.594845,229.71888 50.307025,230.14332 49.867735,230.22783 C49.816165,230.23782 49.764595,230.24268 49.714105,230.24268" id="Fill-50" fill="#999999"></path> <path d="M76.5187081,229.20156 C76.4703781,229.20156 76.4206981,229.19616 76.3710181,229.18509 C76.007058,229.10409 75.778098,228.7431 75.859638,228.37941 C81.0538984,205.112968 75.902568,168.030895 75.849648,167.659105 C75.797538,167.290015 76.054308,166.948465 76.4233981,166.896085 C76.7954581,166.843435 77.1343081,167.101015 77.1866881,167.469835 C77.2396081,167.844055 82.4244186,205.169938 77.1769681,228.67344 C77.1067681,228.98772 76.8281281,229.20156 76.5187081,229.20156" id="Fill-52" fill="#FFFFFF"></path> <path d="M70.9478516,229.20156 C70.8992516,229.20156 70.8498416,229.19616 70.8001616,229.18509 C70.4362016,229.10409 70.2072416,228.7431 70.2887816,228.37941 C75.481962,205.116748 70.3317116,168.030895 70.2787916,167.659105 C70.2266816,167.290015 70.4834516,166.948465 70.8525416,166.896085 C71.2243317,166.843435 71.5634517,167.101015 71.6158317,167.469835 C71.6687517,167.844055 76.8532921,205.169938 71.6061117,228.67344 C71.5359117,228.98772 71.2572717,229.20156 70.9478516,229.20156" id="Fill-54" fill="#FFFFFF"></path> <path d="M2.19040217,298.044195 L20.8930337,298.044195 C18.9509235,306.986865 17.8447334,314.109736 17.2053734,317.452336 C15.4838532,318.274756 8.8569727,317.709646 6.2360825,317.346226 C5.72659246,317.274676 3.7742223,308.944906 2.19040217,298.044195" id="Fill-56" fill="#B4E8FF"></path> <path d="M76.9369111,316.269196 C76.7114611,316.717666 66.6758303,317.274676 66.0178402,316.452256 C65.3757802,315.831526 61.3673599,308.488606 57.2925196,298.044195 L75.294771,298.044195 C75.411681,304.228005 75.952761,310.175566 76.9369111,316.269196" id="Fill-58" fill="#B4E8FF"></path> <path d="M74.2419869,306.024882 C74.0073569,306.963672 74.2419869,317.876263 74.2419869,317.876263 L80.7433174,317.876263 C80.7433174,317.876263 83.6774077,306.024882 81.6821075,306.024882 L74.2419869,306.024882 Z" id="Fill-60" fill="#E2A346"></path> <path d="M14.0223431,306.024882 C13.7877131,306.963672 14.0223431,317.876263 14.0223431,317.876263 L20.5236736,317.876263 C20.5236736,317.876263 23.4577639,306.024882 21.4624637,306.024882 L14.0223431,306.024882 Z" id="Fill-62" fill="#E2A346"></path> <path d="M49.5566949,57.7237366 C38.238564,57.7237366 35.3452438,50.558476 35.2229338,50.240416 C35.0890138,49.892386 35.2623538,49.5016959 35.6101138,49.3677759 C35.9570639,49.2346659 36.3472139,49.4066559 36.4819439,49.753336 C36.5993939,50.051956 39.4541041,56.9609865 51.0249551,56.3329665 C62.459726,55.7103464 63.147416,50.171566 63.171176,49.936126 C63.208166,49.5675759 63.537296,49.2940659 63.9047661,49.3286259 C64.2738561,49.3623759 64.5468261,49.6844859 64.5157761,50.053846 C64.4925561,50.336806 63.7932561,56.9898765 51.0983951,57.6808066 C50.568655,57.7096966 50.053765,57.7237366 49.5566949,57.7237366" id="Fill-64" fill="#FFFFFF"></path> <path d="M51.0610001,95.2110256 C50.7262,95.2110256 50.43568,94.9623555 50.39221,94.6216155 C50.34469,94.2517155 50.60632,93.9136755 50.9759501,93.8664255 C51.8080901,93.7597755 71.4719217,91.2730753 82.0507925,92.4616153 C82.4212326,92.5034654 82.6877226,92.8374554 82.6461426,93.2078954 C82.6045626,93.5783354 82.2727325,93.8456355 81.9001325,93.8032455 C71.4816417,92.6317154 51.3493601,95.1794356 51.1474001,95.2053556 C51.1185101,95.2091356 51.0893501,95.2110256 51.0610001,95.2110256" id="Fill-66" fill="#FFFFFF"></path> <path d="M22.5994068,96.2721797 C22.5297468,96.2721797 22.4587368,96.2613797 22.3888068,96.2384296 C19.2457365,95.2070296 12.203056,93.8086995 12.132316,93.7946595 C11.7664659,93.7222994 11.5288659,93.3672494 11.6012259,93.0013994 C11.6735859,92.6358194 12.028636,92.3982193 12.394486,92.4703093 C12.686626,92.5280894 19.5886366,93.8986095 22.8097368,94.9556595 C23.1639768,95.0720296 23.3567569,95.4532696 23.2406568,95.8075096 C23.1472368,96.0918196 22.8831768,96.2721797 22.5994068,96.2721797" id="Fill-68" fill="#FFFFFF"></path> <path d="M82.2676295,158.945152 L89.5533101,154.723431 C90.2299302,154.331391 90.5569002,153.532191 90.3495402,152.778081 L87.0055899,142.1579 C86.7007599,141.04955 85.4158298,140.546 84.4392397,141.15242 L73.4326888,147.982881 C72.5014588,148.560951 72.3405387,149.850201 73.1011288,150.639411 L80.1659494,158.650582 C80.7151294,159.220552 81.5826395,159.342052 82.2676295,158.945152" id="Fill-70" fill="#7EC2EE"></path> <path d="M81.2089055,156.800433 C81.0930754,156.800433 80.9780554,156.751023 80.8978654,156.655173 L74.939775,149.526633 C74.7964049,149.354913 74.8193549,149.099493 74.991075,148.956123 C75.162525,148.812213 75.418215,148.835703 75.561585,149.007153 L81.5194055,156.135693 C81.6630455,156.307413 81.6400955,156.562833 81.4683755,156.706203 C81.3927755,156.769653 81.3004355,156.800433 81.2089055,156.800433" id="Fill-72" fill="#B4E8FF"></path> <path d="M83.0448516,155.722269 C82.9238916,155.722269 82.8040116,155.668269 82.7243616,155.565129 L77.0346511,148.211949 C76.8977611,148.035099 76.9304311,147.780759 77.1072811,147.643869 C77.2844011,147.506979 77.5384712,147.539379 77.6753612,147.716229 L83.3650716,155.069409 C83.5016916,155.246259 83.4692916,155.500599 83.2924416,155.637759 C83.2187316,155.694729 83.1312516,155.722269 83.0448516,155.722269" id="Fill-74" fill="#B4E8FF"></path> <path d="M84.8808247,154.644132 C84.7496047,154.644132 84.6205447,154.580142 84.5425147,154.462422 L79.3901043,146.660232 C79.2669843,146.473392 79.3182843,146.222292 79.5051243,146.099172 C79.6906143,145.975782 79.9425244,146.026812 80.0661844,146.213652 L85.2185948,154.015842 C85.3417148,154.202682 85.2904148,154.453782 85.1035748,154.576902 C85.0349948,154.622532 84.9575048,154.644132 84.8808247,154.644132" id="Fill-76" fill="#B4E8FF"></path> <path d="M86.5822839,153.678288 C86.4345939,153.678288 86.2923039,153.597288 86.2207539,153.456618 L81.9866135,145.115238 C81.8853635,144.915708 81.9647435,144.672167 82.1645435,144.570917 C82.3629935,144.469667 82.6073436,144.548777 82.7088636,144.748578 L86.9432739,153.089688 C87.0445239,153.289218 86.9648739,153.533028 86.7653439,153.634278 C86.7067539,153.663978 86.6441139,153.678288 86.5822839,153.678288" id="Fill-78" fill="#B4E8FF"></path> <path d="M88.39609,152.846553 C88.23787,152.846553 88.08748,152.753403 88.02241,152.598423 L84.3252997,143.808302 C84.2386297,143.602292 84.3355597,143.364692 84.5415697,143.278022 C84.7489297,143.191622 84.9854498,143.288282 85.0718498,143.494292 L88.7692301,152.284413 C88.8559001,152.490693 88.7589701,152.728023 88.55296,152.814693 C88.50166,152.836293 88.4482,152.846553 88.39609,152.846553" id="Fill-80" fill="#B4E8FF"></path> <path d="M158.66662,309.898357 C158.66662,323.512298 147.630369,334.548819 134.016158,334.548819 C120.401947,334.548819 109.365426,323.512298 109.365426,309.898357 C109.365426,296.284146 120.401947,285.247625 134.016158,285.247625 C147.630369,285.247625 158.66662,296.284146 158.66662,309.898357" id="Fill-82" fill="#E27627"></path> <path d="M131.638672,334.508049 L131.242582,334.508049 C130.720942,334.508049 130.296772,334.084959 130.296772,333.563049 C130.296772,333.290618 130.411792,333.045188 130.596202,332.872658 C131.566042,331.882838 132.459473,330.788258 133.251653,329.618078 C136.215983,325.235978 137.554643,320.144587 137.020853,315.281887 C136.493273,310.476697 134.194763,306.472056 130.548412,304.005606 C130.017322,303.646236 129.458152,303.320886 128.886022,303.037926 C123.512482,300.384366 116.696331,301.305336 111.097881,305.441466 C110.678031,305.751696 110.086461,305.662866 109.775961,305.243016 C109.466001,304.823166 109.554831,304.231596 109.974681,303.921096 C116.144991,299.362956 123.712012,298.374216 129.723022,301.343406 C130.372102,301.664166 131.005792,302.032986 131.607352,302.439876 C135.720803,305.222496 138.310643,309.709897 138.899783,315.075607 C139.482173,320.383537 138.032273,325.924208 134.816843,330.677288 C133.952843,331.953308 132.977063,333.147248 131.916232,334.225629 L131.638672,334.508049 Z" id="Fill-84" fill="#4D4D4D"></path> <path d="M156.247689,301.689195 C156.172089,301.689195 156.095409,301.680015 156.018729,301.661115 C151.585329,300.558435 148.034559,298.022325 146.019549,294.520424 C145.867269,294.259334 145.717689,293.978534 145.565949,293.667494 C144.789969,292.066664 144.332588,290.345414 144.206228,288.549644 C144.169778,288.028814 144.562088,287.577104 145.082379,287.540654 C145.606719,287.508254 146.054919,287.895974 146.091639,288.416804 C146.200989,289.971464 146.596269,291.459974 147.265869,292.841024 C147.395739,293.107514 147.523179,293.347274 147.654939,293.572454 C149.413719,296.630205 152.545179,298.849335 156.475029,299.827005 C156.981549,299.952825 157.28989,300.465555 157.164069,300.972075 C157.056879,301.401915 156.671319,301.689195 156.247689,301.689195" id="Fill-86" fill="#4D4D4D"></path> <path d="M146.302779,331.271477 C146.167779,331.271477 146.030889,331.242587 145.900749,331.181027 C145.428519,330.958817 145.226019,330.395867 145.448499,329.923637 C147.167589,326.272697 148.039419,322.360937 148.039419,318.296896 C148.039419,309.993586 144.328538,302.239185 137.857718,297.022245 C133.025798,293.127224 126.941077,290.982074 120.724597,290.982074 C120.202687,290.982074 119.779597,290.558714 119.779597,290.037074 C119.779597,289.515164 120.202687,289.092074 120.724597,289.092074 C127.371187,289.092074 133.877108,291.385724 139.043828,295.551014 C145.961769,301.128675 149.929419,309.419026 149.929419,318.296896 C149.929419,322.641467 148.997109,326.824307 147.158139,330.728777 C146.997219,331.070867 146.657019,331.271477 146.302779,331.271477" id="Fill-88" fill="#4D4D4D"></path> <path d="M119.331261,329.66306 C118.853631,329.66306 118.443771,329.30261 118.392471,328.81715 C118.272861,327.68396 118.212111,326.52728 118.212111,325.37924 C118.212111,316.338559 122.021542,307.633758 128.663272,301.496658 C131.439682,298.928958 134.608943,296.883168 138.083303,295.415987 C140.842433,294.250937 143.749523,293.475497 146.723844,293.111537 C148.453464,292.898237 150.227094,292.821827 152.008014,292.894187 C152.529654,292.915517 152.935194,293.355617 152.913864,293.876717 C152.892534,294.398627 152.446224,294.805787 151.931064,294.782567 C150.251124,294.714257 148.582794,294.787157 146.954154,294.987227 C144.153173,295.330127 141.416183,296.060208 138.818513,297.157218 C135.546653,298.538808 132.561533,300.466068 129.946042,302.884458 C123.690142,308.665159 120.102112,316.863979 120.102112,325.37924 C120.102112,326.46113 120.159352,327.55112 120.271942,328.61897 C120.327022,329.13791 119.950642,329.60285 119.431431,329.65766 C119.397681,329.66144 119.364201,329.66306 119.331261,329.66306" id="Fill-90" fill="#4D4D4D"></path> <path d="M198.109033,1.05286508 L198.109033,332.875061 L196.004383,332.875061 L196.004383,1.05286508 C196.004383,0.474525038 196.478233,0.000675000054 197.056843,0.000675000054 C197.644633,0.000675000054 198.109033,0.474525038 198.109033,1.05286508" id="Fill-92" fill="#1C42BA"></path> <path d="M196.676629,22.5133848 L162.497326,22.5133848 C161.704876,22.5133848 161.062546,21.8713247 161.062546,21.0786047 C161.062546,20.2858846 161.704876,19.6438246 162.497326,19.6438246 L196.676629,19.6438246 C197.469349,19.6438246 198.111409,20.2858846 198.111409,21.0786047 C198.111409,21.8713247 197.469349,22.5133848 196.676629,22.5133848" id="Fill-94" fill="#1C42BA"></path> <path d="M161.102155,22.9914198 L119.219751,22.9914198 C118.163511,22.9914198 117.306531,22.1349798 117.306531,21.0784697 C117.306531,20.0219596 118.163511,19.1655195 119.219751,19.1655195 L161.102155,19.1655195 C162.158935,19.1655195 163.015375,20.0219596 163.015375,21.0784697 C163.015375,22.1349798 162.158935,22.9914198 161.102155,22.9914198" id="Fill-96" fill="#1C42BA"></path> <path d="M148.185138,63.8127231 C148.037178,63.8127231 147.891108,63.7438731 147.797418,63.6150831 L117.180495,21.3592697 C117.025515,21.1451597 117.073305,20.8462697 117.286875,20.6912896 C117.501795,20.5363096 117.799605,20.5840996 117.955125,20.7976697 L148.571778,63.053483 C148.727028,63.267593 148.679238,63.5662131 148.465668,63.7217331 C148.380618,63.7832931 148.282338,63.8127231 148.185138,63.8127231" id="Fill-98" fill="#1C42BA"></path> <path d="M154.72605,58.7471717 C154.57809,58.7471717 154.43175,58.6785917 154.33833,58.5495317 L127.391518,21.3591887 C127.236538,21.1450787 127.284328,20.8461887 127.497898,20.6914786 C127.712008,20.5362286 128.011168,20.5842886 128.165878,20.7975887 L155.11269,57.9882016 C155.26767,58.2023116 155.22015,58.5012016 155.00631,58.6561817 C154.92099,58.7177417 154.82298,58.7471717 154.72605,58.7471717" id="Fill-100" fill="#1C42BA"></path> <path d="M156.340515,46.8791587 C156.191475,46.8791587 156.044865,46.8094987 155.951715,46.6793587 L155.409555,45.9228186 C155.371485,45.8604486 137.605214,21.3544367 137.605214,21.3544367 C137.449694,21.1411367 137.496674,20.8422467 137.710784,20.6867266 C137.923544,20.5317466 138.223244,20.5781866 138.378764,20.7922967 L156.185535,45.3539286 C156.226035,45.4206186 156.728775,46.1223487 156.728775,46.1223487 C156.882675,46.3369987 156.833265,46.6356187 156.618345,46.7892487 C156.534375,46.8499987 156.436635,46.8791587 156.340515,46.8791587" id="Fill-102" fill="#1C42BA"></path> <path d="M158.29564,35.4719278 C158.14768,35.4719278 158.00188,35.4038878 157.90846,35.2750978 L147.815859,21.3544367 C147.660069,21.1411367 147.707319,20.8422467 147.921429,20.6867266 C148.134729,20.5317466 148.434159,20.5781866 148.589139,20.7922967 L158.68228,34.7126878 C158.83753,34.9265278 158.78974,35.2251478 158.57644,35.3809378 C158.49139,35.4424978 158.39284,35.4719278 158.29564,35.4719278" id="Fill-104" fill="#1C42BA"></path> <path d="M160.791952,24.821021 C160.645612,24.821021 160.500622,24.753791 160.406932,24.626891 L158.025802,21.3542207 C157.870552,21.1406507 157.918342,20.8412207 158.132182,20.6862406 C158.345482,20.5301806 158.644912,20.5779706 158.800162,20.7926207 L161.176432,24.0590809 C161.333302,24.2713009 161.287942,24.571001 161.075722,24.727601 C160.990132,24.790781 160.890502,24.821021 160.791952,24.821021" id="Fill-106" fill="#1C42BA"></path> <path d="M137.756387,63.8127231 C137.608427,63.8127231 137.462357,63.7438731 137.368667,63.6150831 L122.647186,43.2940714 C122.588596,43.2122614 122.557006,43.1145214 122.557006,43.0143514 C122.557006,42.7500214 122.770846,42.5305114 123.035176,42.5305114 C123.221746,42.5305114 123.382666,42.6344614 123.461776,42.7880914 L138.143297,63.053483 C138.298547,63.267593 138.250757,63.5670231 138.036917,63.7217331 C137.951867,63.7832931 137.853857,63.8127231 137.756387,63.8127231" id="Fill-108" fill="#1C42BA"></path> <path d="M132.526838,63.8127231 C132.429908,63.8127231 132.331088,63.7832931 132.246578,63.7217331 C132.032467,63.5662131 131.985217,63.267053 132.139928,63.053483 L162.77143,20.7925397 C162.9256,20.5786996 163.22422,20.5298296 163.43941,20.6861596 C163.65325,20.8405997 163.70104,21.1397597 163.54606,21.3541397 L132.914558,63.6150831 C132.820598,63.7438731 132.674798,63.8127231 132.526838,63.8127231" id="Fill-110" fill="#1C42BA"></path> <path d="M142.737293,64.1386131 C142.640363,64.1386131 142.542083,64.1091831 142.457033,64.0476231 C142.242923,63.8929131 142.195673,63.5934831 142.350383,63.379373 L155.374104,45.4149216 C155.410284,45.3547116 156.253224,44.1845315 156.253224,44.1845315 C156.338274,44.0487215 156.487584,43.9577315 156.658224,43.9577315 C156.922824,43.9577315 157.136394,44.1664415 157.136394,44.4307715 C157.136394,44.5309415 157.104804,44.6392115 157.046214,44.7207516 L156.222984,45.8628516 C156.185724,45.9257616 143.125013,63.9409731 143.125013,63.9409731 C143.031593,64.0697631 142.885523,64.1386131 142.737293,64.1386131" id="Fill-112" fill="#1C42BA"></path> <path d="M125.594776,59.3029937 C125.497576,59.3029937 125.399296,59.2735637 125.314516,59.2120037 C125.100406,59.0570237 125.052886,58.7578637 125.208136,58.5440237 L152.557788,20.7977507 C152.711688,20.5841806 153.010308,20.5358506 153.225498,20.6913706 C153.439608,20.8463507 153.487128,21.1452407 153.332148,21.3593507 L125.982496,59.1053537 C125.888806,59.2344137 125.742736,59.3029937 125.594776,59.3029937" id="Fill-114" fill="#1C42BA"></path> <path d="M123.729832,47.7847388 C123.632362,47.7847388 123.534352,47.7553088 123.449842,47.6940188 C123.236002,47.5395788 123.187942,47.2401488 123.342382,47.0260387 L129.735712,38.215938 C129.772972,38.153298 142.350383,20.7925667 142.350383,20.7925667 C142.504823,20.5787266 142.803713,20.5298566 143.018363,20.6861866 C143.232473,20.8406267 143.280263,21.1397867 143.124743,21.3541667 L130.585402,38.6627881 C130.547332,38.7259681 124.117822,47.5868288 124.117822,47.5868288 C124.024402,47.7161588 123.878062,47.7847388 123.729832,47.7847388" id="Fill-116" fill="#1C42BA"></path> <path d="M121.798441,36.3670859 C121.701511,36.3670859 121.602961,36.3373859 121.518721,36.2763659 C121.304881,36.1213859 121.256551,35.8222258 121.410991,35.6083858 L129.735091,24.1247449 C129.773161,24.0621049 132.139982,20.7926747 132.139982,20.7926747 C132.294422,20.5788346 132.593042,20.5296946 132.807962,20.6860246 C133.022072,20.8407347 133.069862,21.1398947 132.914342,21.3540047 L130.585321,24.571325 C130.547251,24.634775 122.186431,36.1689059 122.186431,36.1689059 C122.093281,36.2982359 121.946941,36.3670859 121.798441,36.3670859" id="Fill-118" fill="#1C42BA"></path> <path d="M119.689984,25.172912 C119.589004,25.172912 119.487483,25.141052 119.401083,25.075172 C119.190753,24.915602 119.150253,24.615092 119.309823,24.4050319 L119.529063,24.1169419 C119.562544,24.0621319 121.929634,20.7927017 121.929634,20.7927017 C122.083804,20.5788616 122.383234,20.5297216 122.597614,20.6860516 C122.811724,20.8407617 122.858974,21.1396517 122.703994,21.3540317 L120.374164,24.572162 C120.330424,24.643442 120.071494,24.984182 120.071494,24.984182 C119.977534,25.107842 119.834434,25.172912 119.689984,25.172912" id="Fill-120" fill="#1C42BA"></path> <path d="M125.990677,63.276395 C125.744977,63.276395 125.535997,63.088205 125.514667,62.838725 C125.275987,60.0480048 124.483537,55.0835144 123.783967,50.703304 C123.594697,49.5196239 123.414877,48.3915638 123.257197,47.3796038 C123.069817,46.1986237 122.873257,44.9930736 122.675077,43.7778035 L122.563027,43.0914634 C122.163697,40.7089832 121.739527,38.302743 121.327777,35.9718329 C120.654937,32.2604126 119.926477,28.3918523 119.220966,24.786542 L119.131596,24.3491419 C119.096496,24.1744519 119.061666,24.0013819 119.023326,23.8283119 C118.966626,23.5707319 119.129706,23.3153119 119.387286,23.2583418 C119.646757,23.1994818 119.899477,23.3639119 119.957797,23.6223019 C119.997487,23.8010419 120.032857,23.9805919 120.069307,24.1609519 L120.157867,24.594572 C120.865807,28.2125722 121.595077,32.0854525 122.269537,35.8030828 C122.682367,38.139393 123.106267,40.5475232 123.506947,42.9240634 L123.618997,43.6241735 C123.817447,44.8402536 124.014007,46.0471537 124.202467,47.2313738 C124.359607,48.2436038 124.539427,49.3705839 124.728697,50.552374 C125.430697,54.9485144 126.226117,59.9316348 126.467767,62.757455 C126.489907,63.020165 126.295507,63.252095 126.031717,63.274505 C126.018487,63.275855 126.004177,63.276395 125.990677,63.276395" id="Fill-122" fill="#1C42BA"></path> <path d="M154.409124,64.1386131 C154.114554,64.1207931 153.914484,63.8931831 153.931224,63.6299331 C154.197714,59.4516827 154.948584,52.1668121 155.867394,46.3264417 L156.185994,44.3640815 C156.717084,41.1230013 157.287325,37.905411 157.824355,34.9092208 C158.508805,31.1732305 159.127375,27.8957002 159.662785,25.16735 C159.757015,24.6773 159.851515,24.2072299 159.945745,23.7374299 C159.998125,23.4787699 160.248955,23.3083999 160.508965,23.3629399 C160.768165,23.4150499 160.935835,23.6674999 160.883725,23.9261599 C160.789495,24.3932599 160.695805,24.86117 160.602115,25.3496 C160.024855,28.2885502 159.400615,31.6098205 158.765575,35.0798608 C158.229355,38.070921 157.660195,41.2841913 157.129914,44.5082615 L156.812394,46.4779117 C155.897904,52.2866922 155.151084,59.5348427 154.885944,63.6906831 C154.870014,63.9439431 154.659684,64.1386131 154.409124,64.1386131" id="Fill-124" fill="#1C42BA"></path> </g> <rect id="Rectangle" fill="#97C4DE" x="0" y="333" width="244" height="6"></rect> </g> </g> </g> </g> </svg> 