<?xml version="1.0" encoding="UTF-8"?> <svg xmlns="http://www.w3.org/2000/svg" xmlns:xlink="http://www.w3.org/1999/xlink" width="283px" height="409px" viewBox="0 0 283 409"> <!-- Generator: Sketch 57.1 (83088) - https://sketch.com --> <title>Group 10</title> <desc>Created with Sketch.</desc> <defs> <polygon id="path-1" points="0.0421032867 0.206821053 58.7501281 0.206821053 58.7501281 127.045142 0.0421032867 127.045142"></polygon> <polygon id="path-3" points="0.122997096 0.0548563435 96.3780851 0.0548563435 96.3780851 117.969365 0.122997096 117.969365"></polygon> <polygon id="path-5" points="0 0.221628636 61.2077326 0.221628636 61.2077326 102.602913 0 102.602913"></polygon> <polygon id="path-7" points="0.209746069 0.0300138896 6.38572525 0.0300138896 6.38572525 5.48784022 0.209746069 5.48784022"></polygon> <polygon id="path-9" points="0 408.818266 190.885733 408.818266 190.885733 0.000225000009 0 0.000225000009"></polygon> </defs> <g id="Page-1" stroke="none" stroke-width="1" fill="none" fill-rule="evenodd"> <g id="masha-copy" transform="translate(-729.000000, -1545.000000)"> <g id="Group-11" transform="translate(222.000000, 1545.000000)"> <g id="Group-3-Copy"> <g id="Group-10" transform="translate(507.000000, 0.000000)"> <g id="Group-26" transform="translate(0.000000, 233.000000)"> <g id="Group-3" transform="translate(20.000000, 0.000000)"> <mask id="mask-2" fill="white"> <use xlink:href="#path-1"></use> </mask> <g id="Clip-2"></g> <path d="M26.9925445,127.045142 C28.8028426,121.668693 38.9463898,125.752342 43.0757219,114.518658 C43.9226502,112.214658 35.1225219,108.229816 35.2990766,105.493086 C35.3816766,104.211065 44.5872351,104.296399 44.6306502,102.960707 C45.1384955,87.2869951 37.5836011,76.5363425 40.5569785,67.2960898 C41.5976049,64.0621811 34.826854,63.9287916 35.6089936,61.4065179 C35.877054,60.5415074 42.6607181,62.2915144 43.2649672,61.5991916 C46.7916087,57.5566372 54.3863558,49.9062793 55.7159709,45.3113039 C56.6898049,41.9460267 56.087337,36.5561039 55.3568502,31.4655214 C55.1978842,30.3573109 48.2779634,30.6083705 48.1216691,29.5524828 C47.6033596,26.0473039 55.0883445,28.5064758 55.3123219,26.7187425 C55.9297068,21.7896196 62.9633974,3.48898807 54.9289332,0.36893193 C48.9296351,-1.96066807 33.4255483,21.4716407 31.525303,27.7135495 C31.3071143,28.4307986 37.1349785,34.7535495 36.3822275,35.3106863 C35.7216502,35.7997811 28.1496125,30.2838793 27.3875106,30.8219284 C21.4899596,34.9843986 13.1342238,40.5227565 11.3041106,46.0849179 C8.96704264,53.1880196 13.9539898,66.6502512 13.1878804,71.1230653 C11.9929634,78.0990653 2.03354075,90.9433039 0.197861509,103.994588 C0.0854275472,104.796272 9.74072189,102.892216 9.6930766,103.694574 C9.61003132,105.094939 -0.104930943,109.200371 0.0437935849,110.590855 C0.151552075,111.600707 17.801903,103.243879 18.0512615,104.241606 C18.3818842,105.566069 1.36828792,116.239697 1.98055208,117.532272 C6.64734075,127.387374 15.176737,123.762279 19.1909634,123.607107 C23.2051898,123.45216 26.9925445,127.045142 26.9925445,127.045142" id="Fill-1" fill="#97C4DE" mask="url(#mask-2)"></path> </g> <path d="M47.2225025,110.352332 C46.6094493,110.218334 45.9953853,110.104469 45.3803105,110 C44.5115237,128.132217 45.2110007,144.591362 46.6700976,155.099569 C46.8588654,156.457444 49.1773992,156.203542 48.9891368,154.847009 C47.3867583,143.288294 46.6167776,127.391314 47.2225025,110.352332" id="Fill-4" fill="#97C4DE"></path> <path d="M68.8823367,19.0948949 C68.5436756,18.7962014 68.3470196,19.2007524 67.3920525,20.3352931 C53.5098031,38.2755554 47.6208761,74.6132225 46,106.677483 C46.5234651,106.771878 47.0451743,106.879983 47.5655666,107 C48.8385633,75.2207233 54.26987,40.2971865 66.8108636,22.2692715 C67.7498085,20.9783044 68.2148913,20.4328348 68.9099914,19.5922678 C69.0506795,19.4223564 69.0149039,19.2119899 68.8823367,19.0948949" id="Fill-6" fill="#F7F6F1"></path> <path d="M56.5628347,136 C60.2763354,131.326808 68.2802807,138.407722 77.0451194,129.365808 C77.6704591,128.720518 67.6130425,123.021503 68.1200808,122.255053 C68.9210803,121.043451 80.203858,124.678929 80.7608607,123.216481 C84.460246,113.501904 83.4690231,98.9647037 87.0644465,89.0549242 C87.3848463,88.1709037 80.6418871,83.547746 81.0420507,82.7442746 C81.5360938,81.7523319 89.1858068,84.611263 89.780899,83.7586544 C94.973168,76.3214397 103.667877,73.8022058 109.827843,69.4929427 C110.831165,68.7911112 102.171185,58.6574098 103.013634,57.8315013 C103.595507,57.2613755 113.729103,66.0394293 114.213511,65.3869594 C118.475053,59.644192 118.64175,51.2751659 119.568669,45.4453427 C119.801239,43.9826703 114.295964,41.751304 114.701057,40.6900307 C115.018992,39.856718 121.199571,40.1006089 121.708402,39.6047497 C125.447221,35.9593994 134.723579,26.2623233 129.380969,20.6146891 C128.703424,19.8984979 124.194525,26.376528 123.425117,26.0967378 C122.417314,25.7303405 125.117859,18.7512907 123.973158,19.0068489 C117.478901,20.4576296 108.975759,30.7596091 100.613101,36.6948865 C99.936452,37.1754885 102.828116,45.1563533 102.154156,45.5727853 C101.402225,46.0370082 97.085342,38.9275991 96.3401324,39.293772 C90.2061569,42.3059483 74.9461647,44.411667 69.6573276,50.2300473 C69.2739681,50.6518642 83.825944,61.8506532 83.5057683,62.358404 C83.0993311,63.0027966 67.8388908,52.9801587 67.5198353,53.7374097 C64.6227938,60.6130246 64.9996557,71.5385301 62.6481901,75.6916313 C58.9806208,82.1692126 44.4916046,91.3136637 38.0287151,103.575072 C37.6316882,104.328509 47.9344459,105.905386 47.6023953,106.682382 C47.0225388,108.039151 35.8788997,108.620271 35.5336298,110.049961 C35.2826873,111.088124 55.8476486,109.143279 55.7418942,110.220707 C55.6014113,111.650173 34.8493634,116.11672 35,117.61574 C36.1560568,129.044734 45.947071,128.514097 50.0044974,129.799741 C54.0621479,131.085385 56.5628347,136 56.5628347,136" id="Fill-8" fill="#F7F6F1"></path> <g id="Group-12" transform="translate(34.000000, 18.000000)"> <mask id="mask-4" fill="white"> <use xlink:href="#path-3"></use> </mask> <g id="Clip-11"></g> <path d="M28.5548154,115.520359 C32.3273349,115.680614 37.0145533,115.879978 41.9399234,110.852279 C41.5126775,110.31847 39.3804614,108.870104 37.7947901,107.793045 C33.7283717,105.031395 32.7405326,104.263609 33.1443648,103.648885 C33.6104108,102.939536 35.4623303,103.21487 39.5764683,104.011651 C41.0241097,104.292154 42.5214775,104.582321 43.6908292,104.720999 C45.3763993,104.920813 45.6566959,104.712009 45.692151,104.675148 C47.5373809,99.793544 48.2137051,93.5492088 48.8681763,87.5100811 C49.5110522,81.5774907 50.1755579,75.443064 51.9460867,70.506843 C51.8205441,70.0663097 50.1418867,68.618843 49.0242683,67.6555135 C46.5332637,65.5079135 45.6881372,64.7032659 45.983151,64.1067478 C46.3263303,63.4131326 47.6622545,63.6540773 50.8587947,64.4153459 C52.1612706,64.7255173 54.3313947,65.242245 54.7231855,65.0550183 C58.3012591,59.9099935 63.4288798,57.1357573 68.3874752,54.4534488 C70.6392131,53.2352392 72.7676384,52.083784 74.6741901,50.7498221 C74.656128,50.5990069 74.5118545,50.1425154 73.6852361,48.8433916 C73.0316568,47.8157802 72.1298913,46.537784 71.2580062,45.3015935 C68.1352752,40.8751326 67.3681947,39.5989345 67.9191993,39.0552354 C68.3551418,38.6252659 69.2042821,39.1541307 73.9746752,42.8305611 C75.8705234,44.2917383 78.4284246,46.2626754 79.1290545,46.5287935 C82.4014108,41.9897269 83.1448545,35.9067707 83.8020016,30.5338373 C83.9616614,29.2270716 84.1124016,27.992904 84.2939143,26.8457192 C84.3797648,26.3020202 82.8103717,25.2400202 81.7714683,24.5371897 C80.2647349,23.5176697 79.176328,22.781125 79.46822,22.0110907 C79.7050338,21.3867021 80.9923464,21.2451021 83.8735809,21.0704621 C84.8910775,21.0091021 86.2809648,20.9250411 86.5376246,20.7838907 C89.7424154,17.6376735 92.1440016,14.719365 93.6754867,12.1103288 C96.1294752,7.92953257 96.3118798,4.64441257 94.2189097,2.34487352 C93.7441671,2.537944 92.3478131,4.14701448 91.4984499,5.12585257 C89.6072844,7.305144 88.8977349,8.05022971 88.3596637,7.85356305 C87.6008338,7.57575733 87.888489,6.14717067 88.4622384,3.64579543 C88.68322,2.6824659 89.0069993,1.27141067 88.9612867,0.796938286 C85.0447166,1.75374971 80.3296246,6.02647352 75.3411487,10.5466602 C72.3020384,13.3008926 69.1599074,16.1484011 66.0324936,18.3890526 C65.9288039,18.860603 66.5076821,21.0767554 66.8941211,22.5556888 C67.8188545,26.0956888 67.9860959,27.0268773 67.4959671,27.3316545 C67.4119005,27.3837992 67.324489,27.4105459 67.2306108,27.4105459 C66.6535166,27.4105459 65.8329189,26.3964202 64.0614982,24.0397916 C63.2417924,22.9492469 62.0187005,21.3219707 61.600151,21.0972088 C59.4371625,22.150443 56.1641372,23.1027592 52.7017947,24.1101421 C46.1949901,26.0035364 38.8343625,28.1450678 35.3998936,31.7502488 C36.0657372,32.5067973 39.3017464,35.1821383 41.9399234,37.3632278 C43.7042085,38.821483 45.5280315,40.3296354 46.8630637,41.4822145 C47.5864384,42.1063783 48.1109074,42.578603 48.467243,42.9256354 C48.9604936,43.4059516 49.2456959,43.7203935 49.04902,44.0339364 C48.8135441,44.4101878 48.273689,44.1611516 47.8397533,43.9608888 C47.4149602,43.7648964 46.8262706,43.4545002 46.0402361,43.011944 C44.5899189,42.1958335 42.6505878,41.0311173 40.7754775,39.9046107 C37.9042775,38.1802373 34.0365418,35.857323 33.0803671,35.555243 C31.6842361,39.0109573 31.0683418,43.5486754 30.5240269,47.5617992 C29.9850637,51.5333421 29.4762039,55.2846183 28.2994936,57.3760278 C26.7695694,60.0958716 23.4254108,63.2346716 19.5532154,66.8692964 C14.2554545,71.8414792 7.67372575,78.0183859 3.90165218,85.1107478 C4.49435563,85.4285611 6.75456713,85.964843 8.29318782,86.3298564 C11.9858775,87.2055288 13.0950223,87.5307592 13.3282683,87.9962411 C13.390928,88.1216583 13.3962798,88.2596621 13.3427625,88.3850792 C13.0187602,89.1485954 11.2129993,89.5315897 7.17044069,90.2231821 C5.75870046,90.4648011 4.2990177,90.7147364 3.18675103,90.9853497 C2.30483149,91.2002221 1.8450292,91.3818297 1.60576253,91.5088202 C2.95751885,91.6863821 7.44939931,91.4897154 10.830128,91.3415973 C18.4434016,91.0078259 20.8873556,90.9824278 21.346712,91.471285 C21.4390292,91.5695059 21.4827349,91.6951478 21.4702476,91.8243859 C21.4332315,92.2051326 21.152266,92.6034107 18.0761395,93.6276507 C16.1994683,94.252264 13.6529395,94.9849878 11.1900315,95.6932126 C8.71909586,96.4039097 6.16409356,97.1391059 4.2098223,97.7846221 C1.49560621,98.6816469 0.944824598,99.0884659 0.834222299,99.2206259 C1.77612575,108.335845 8.19707977,109.567315 12.888312,110.467262 C13.9058085,110.662131 14.7843832,110.830702 15.5155625,111.064005 C18.959843,112.162641 21.2695579,115.725567 22.0031901,117.000641 C23.2436752,115.721746 24.856774,115.466866 26.7055717,115.466866 C27.2991671,115.466866 27.9172913,115.493163 28.5548154,115.520359 M21.9012844,117.967792 C21.7817625,117.955654 21.6767349,117.883281 21.6221028,117.77562 C21.59802,117.727746 19.1498292,112.968862 15.3028315,111.741887 C14.6115671,111.521395 13.7517234,111.356645 12.7563028,111.165597 C8.11457402,110.275315 1.09980161,108.929666 0.126233793,99.2334373 C0.0742774713,98.7171592 0.621937241,98.2433611 3.6588177,97.2195707 C5.66794414,96.5421383 8.37703149,95.7631135 10.9967005,95.0094869 C13.3412016,94.3349764 15.7659786,93.6375402 17.5971602,93.0374259 C19.3694729,92.4566411 20.1601901,92.1006183 20.5129579,91.897883 C20.103774,91.8405688 19.2492821,91.7879745 17.4671579,91.8156202 C15.5991832,91.8443897 13.1904614,91.9500278 10.8606775,92.0520697 C8.52085908,92.1543364 6.10165678,92.260424 4.28073264,92.2853726 C1.32992575,92.3262792 0.937465977,92.141525 0.752831494,91.9154145 C0.664528046,91.8070792 0.632417701,91.6686259 0.664528046,91.5351173 C0.872576322,90.6666373 2.77087747,90.2548735 7.05225678,89.5221497 C8.41850736,89.2883973 9.83113954,89.0467783 10.9034913,88.7892011 C11.897351,88.5507288 12.3419901,88.3558602 12.5397809,88.2353878 C11.8572131,87.9056621 9.64940391,87.3819669 8.13152115,87.0218983 C4.47339471,86.1543173 3.37829816,85.831784 3.16846598,85.3676507 C3.10982,85.2372888 3.11338782,85.0911935 3.17850046,84.9669002 C6.98937402,77.6895592 13.6890637,71.4013954 19.0724522,66.3489726 C22.9018338,62.7543554 26.2094223,59.6501688 27.6860522,57.0251745 C28.79542,55.0528888 29.2955832,51.367243 29.8249579,47.4653764 C30.386666,43.327285 31.0228522,38.6371783 32.5164292,35.0697573 C32.5630338,34.9580507 32.6535671,34.8753383 32.7713051,34.8362297 C33.0266269,34.751944 33.4148499,34.7962221 35.8425257,36.1674945 C37.3349878,37.0105764 39.2676292,38.1712469 41.1364959,39.2939326 C43.2778545,40.5800202 45.9956384,42.2122411 47.5347051,43.0198107 C46.1791579,41.7874411 43.5561441,39.619163 41.4928315,37.9129954 C39.8313441,36.5397002 38.1136637,35.1196545 36.8490959,34.0324811 C34.6372729,32.1307707 34.6243395,31.9527592 34.6093993,31.7464278 C34.6015947,31.637643 34.6363809,31.5342526 34.7077372,31.4553611 C38.1983993,27.5899059 45.7996315,25.3782488 52.5062338,23.4270907 C55.9806177,22.4161116 59.2625625,21.461323 61.368912,20.4200011 C61.9448913,20.1352278 62.6361556,20.9659478 64.6238752,23.6102716 C65.403443,24.6475478 66.5317648,26.1485078 67.0640384,26.5818488 C67.032374,25.8769954 66.547374,24.0206869 66.2119993,22.7366221 C65.2857051,19.1907783 65.1017395,18.1827211 65.5729143,17.8460278 C68.6838269,15.6235821 71.8284108,12.7738259 74.869528,10.0180202 C79.9886752,5.37915924 84.8241809,0.997425905 88.9490223,0.0700582857 C89.1416844,0.0264544762 89.3269878,0.0777001905 89.4576591,0.210309714 C89.8387464,0.597574476 89.6663763,1.55348686 89.149489,3.80605067 C88.9195878,4.80893829 88.5054982,6.6142259 88.6156545,7.12600876 C89.0651993,6.85000114 90.196866,5.54548305 90.9675143,4.65767352 C92.7940131,2.55277829 93.6574246,1.6287821 94.2588246,1.61686971 C94.4144706,1.61484686 94.5598591,1.67283543 94.6637717,1.78319352 C97.0709326,4.34435543 96.9424913,7.94077067 94.2826844,12.4724202 C92.7173051,15.1387707 90.273128,18.1105726 87.0177189,21.3053383 C86.7325166,21.5851669 85.9406844,21.6579897 83.9159487,21.780485 C82.8012292,21.8476888 80.5102453,21.9865916 80.1331717,22.2763097 C80.1492269,22.3331745 80.2335166,22.5111859 80.6721349,22.8759745 C81.0652637,23.203003 81.5993211,23.5644202 82.16482,23.946965 C83.6985349,24.9846907 85.1472913,25.9648773 84.9905303,26.9576507 C84.8110246,28.0924735 84.6609533,29.3203478 84.5019625,30.6208202 C83.8610936,35.8624926 83.0634637,42.3859821 79.5955464,47.090024 C79.525751,47.184424 79.4205005,47.245784 79.2989717,47.2630907 C78.7635763,47.3386107 77.4597625,46.4114678 73.5463143,43.3953878 C71.7713257,42.0277116 69.4216959,40.2170297 68.52662,39.7501992 C68.6254039,40.0120469 68.8664545,40.5002297 69.4399809,41.4001764 C70.0833028,42.4095821 70.9728039,43.6702716 71.8328706,44.889605 C74.3330177,48.4338754 75.4972407,50.1845459 75.3708062,50.9204164 C75.3373579,51.1146107 75.2321074,51.2245192 75.1498246,51.2825078 C73.1910936,52.6616469 71.0198545,53.8364773 68.721066,55.080085 C63.8278062,57.7271059 58.767751,60.4644811 55.2851166,65.4854373 C54.8984545,66.0430716 53.6550706,65.8117916 50.6966821,65.107163 C49.748089,64.8812773 48.7673855,64.6477497 47.9849189,64.5169383 C47.1652131,64.3796088 46.8155671,64.4011859 46.6739694,64.4306297 C46.9469074,64.9289269 48.4581005,66.2316469 49.4827326,67.1151859 C51.939174,69.2328926 52.8467372,70.0912583 52.6239717,70.7084545 C50.8712821,75.571403 50.2094522,81.6797573 49.5692522,87.5873992 C48.9098752,93.6737269 48.2279763,99.9675097 46.3486292,104.934973 C45.9936315,105.873803 43.9720177,105.587456 39.4431211,104.709986 C38.0931487,104.448363 36.6974637,104.178199 35.6166384,104.042218 C34.5150752,103.90354 34.0467993,103.948268 33.8532453,103.997041 C34.3476108,104.594458 36.633689,106.147114 38.1888108,107.203494 C41.6333143,109.542816 42.6434522,110.304759 42.6991993,110.844413 C42.7134706,110.985114 42.6693189,111.117049 42.5741028,111.215944 C37.3818154,116.607533 32.4709395,116.398504 28.5249349,116.230832 C25.7975625,116.114854 23.6432706,116.022927 22.2125763,117.835632 C22.1452338,117.920816 22.043328,117.969365 21.9365166,117.969365 C21.9249211,117.969365 21.9131028,117.969365 21.9012844,117.967792" id="Fill-10" fill="#F7BF9C" mask="url(#mask-4)"></path> </g> <path d="M39.3957199,136 C37.3089293,131.750426 29.324697,136.243725 24.6761541,127.402687 C23.7228763,125.589239 30.601548,121.325513 30.1581162,119.080548 C29.9505999,118.028824 22.3120789,119.110649 22.131173,118.01018 C20.0097219,105.097701 25.1200331,95.3725144 21.6481611,88.0538029 C20.4330282,85.4923325 26.0433463,84.6380598 25.1200331,82.6368198 C24.8036156,81.9507959 19.3578794,84.143871 18.7809484,83.6375521 C15.4123873,80.6800568 8.2734258,75.184902 6.67054168,71.5288034 C5.4967779,68.8511987 5.41292165,64.3255524 5.46748412,60.0330735 C5.47955941,59.098832 11.2555774,58.5462391 11.271007,57.6553515 C11.3215443,54.69853 5.36976364,57.5556152 4.99006257,56.1011277 C3.9426422,52.0903364 -3.88550576,37.7211232 2.45134278,34.2568597 C7.1826238,31.6702306 22.6038986,49.3547767 24.8590725,54.3108165 C25.1182442,54.8802567 20.9623288,60.7518936 21.6481611,61.1301726 C22.2499135,61.4624023 27.9422988,56.0665345 28.6339451,56.4281908 C33.9846443,59.2241763 41.5270102,62.8885862 43.6504738,67.2895621 C46.3622729,72.9100611 43.6788731,84.596503 44.8005342,88.2132911 C46.5496637,93.854007 56.2163877,103.387133 59.1564994,113.983889 C59.3371816,114.635095 51.1092071,114.12069 51.2357741,114.778859 C51.4567074,115.928522 59.9727001,118.258398 60,119.424908 C60.0196596,120.272217 44.4503506,115.296859 44.3512884,116.150233 C44.220249,117.28215 59.5118262,124.244372 59.1435296,125.381231 C56.3351281,134.048179 48.8560458,131.985615 45.5042558,132.298301 C42.1524659,132.610988 39.3957199,136 39.3957199,136" id="Fill-13" fill="#F7F6F1"></path> <g id="Group-17" transform="translate(0.000000, 34.000000)"> <mask id="mask-6" fill="white"> <use xlink:href="#path-5"></use> </mask> <g id="Clip-16"></g> <path d="M48.3704385,98.1889148 C52.1664167,98.286317 57.3588604,98.4188735 59.6231004,91.6316213 C59.5263804,91.4918996 59.0977913,91.071167 57.2161476,89.9775757 C55.8029985,89.1560387 53.9486349,88.1694778 52.1553695,87.2153843 C50.3460967,86.2525583 48.474824,85.2570409 47.1094713,84.4574474 C45.0305549,83.2395843 44.6736604,82.8163887 44.720104,82.4211822 C44.7343076,82.2975822 44.8012676,82.18988 44.9081331,82.1175561 C45.3779804,81.7989278 47.2005549,82.2086887 53.2253767,83.7830213 C55.6546495,84.4175909 58.8306276,85.2476365 60.1335295,85.4352757 C59.9344531,85.3042865 59.6278349,85.1300822 59.1546058,84.9052735 C58.340264,84.5179039 57.2691295,84.0906778 56.2331658,83.6773343 C53.1581913,82.4505148 51.7966713,81.8419191 51.6647804,81.162567 C51.6402058,81.0351604 51.6728967,80.9079778 51.7572167,80.8047539 C52.0392604,80.4590322 52.9228167,80.3954409 56.0372458,80.3421496 C57.2450058,80.3213257 59.0028749,80.2910974 59.590184,80.163243 C57.8246495,74.0925126 53.7367076,68.24883 50.4434931,63.5415061 C48.0212095,60.078467 45.9289913,57.0876604 45.186344,54.71978 C44.7167222,53.2226974 44.8754422,50.5005865 45.0591876,47.3490104 C45.3229695,42.8275343 45.6512313,37.2005996 44.0464458,33.9122126 C42.1084385,29.940667 35.524264,26.562267 30.2341985,23.8475452 C29.8527295,23.6520691 29.4791513,23.4603996 29.1152676,23.2725365 C28.6562422,23.3652365 26.9150567,24.7367039 25.7535149,25.6516126 C23.1704822,27.6863104 22.4654858,28.1757843 22.0125476,27.9288083 C21.8957622,27.865217 21.8109913,27.7559474 21.7735658,27.6215996 C21.6256676,27.0893583 22.2258276,25.9899452 23.6308604,23.6079583 C24.2147876,22.6175909 25.0081622,21.2725452 25.0730931,20.9156278 C24.0502058,18.7427757 20.5741476,14.2799648 16.7714058,10.2611735 C12.150264,5.37740609 7.96109309,2.06685174 5.27795855,1.1785887 C4.31301309,0.85884087 3.54669309,0.846749565 3.00019127,1.14209087 C-1.75622327,3.71283652 2.05328218,13.1216626 4.32902036,18.7429996 C4.95984218,20.3009865 5.50454036,21.6467039 5.73427855,22.5152626 C5.81431491,22.8188887 7.071224,22.6617017 7.90315127,22.55803 C9.32779855,22.380243 10.8009185,22.1964104 11.5861767,22.8963626 C11.922104,23.1957343 12.0875876,23.6211691 12.0781185,24.1607996 C12.0666204,24.8388083 10.9925549,25.1390757 8.93550764,25.6536278 C7.99987127,25.887617 6.44423491,26.2767778 6.22689673,26.5611474 C6.17143491,30.9135691 6.27830036,35.2883822 7.41008218,37.840767 C8.69427127,40.7366343 13.6750131,44.8873104 17.3118204,47.9181974 C18.1180458,48.5901604 18.8803076,49.2251778 19.5061695,49.7677191 C19.8362349,49.8588517 21.3309985,49.4578235 22.3250276,49.191367 C24.7863149,48.5310474 25.7415658,48.3355713 26.0082785,48.9072213 C26.571464,50.1138887 25.3341695,50.9519952 24.2425185,51.6913561 C22.8798713,52.6147735 22.0226931,53.2952452 22.5060676,54.3033017 C24.3771149,58.2025235 23.8387295,62.7369865 23.2155731,67.9875235 C22.6508095,72.7436604 22.0109695,78.1339191 23.017624,84.2256974 C23.072184,84.2671213 23.3143222,84.3985583 24.2436458,84.4641648 C24.9646495,84.515217 25.8847295,84.5147691 26.7745985,84.5138735 C29.5228895,84.510067 30.9606131,84.546117 31.1141476,85.3141387 C31.3725185,86.6083561 29.7826131,88.2088865 28.099144,89.9034604 C26.8030058,91.2079778 25.190104,92.8317952 25.5526349,93.5131626 C28.2328385,98.5529974 32.0863076,99.1145713 35.1831513,99.5657561 C37.2812313,99.8718452 39.1175585,100.139197 40.1379658,101.645684 C40.9937913,100.728984 43.3705331,98.4674626 46.2035949,98.2061561 C46.5093113,98.177943 46.8400531,98.1680909 47.197624,98.1680909 C47.5606058,98.1680909 47.9513185,98.178167 48.3704385,98.1889148 M40.0374131,102.60045 C39.9170204,102.587015 39.8117331,102.513123 39.7580749,102.405197 C38.9780022,100.834895 37.2575585,100.584113 35.0794422,100.266604 C31.8232022,99.7921322 27.7711076,99.2016735 24.9218131,93.8441061 C24.3155658,92.703717 25.8335513,91.1755104 27.5914204,89.4059257 C28.9836022,88.0046778 30.559304,86.4184778 30.4206495,85.4872235 C30.0824676,85.2194235 27.9365913,85.2212148 26.7750495,85.2223343 C23.9415367,85.2227822 22.454664,85.1876278 22.3193913,84.3741517 C21.2883876,78.1697452 21.9358931,72.7161191 22.5069695,67.9046757 C23.1175004,62.7629604 23.6446131,58.3225409 21.8623949,54.6080474 C21.0796167,52.976617 22.6104531,51.9394517 23.8407585,51.1062713 C24.9333113,50.3660148 25.5947949,49.8637778 25.3912095,49.278693 C24.9856167,49.211743 23.4471149,49.623967 22.5110276,49.8751974 C20.3126204,50.4647604 19.4455222,50.6559822 19.0586422,50.3203365 C18.4343585,49.778243 17.6664604,49.1382996 16.8534713,48.4607387 C13.1627804,45.385517 8.10854036,41.1732648 6.75739127,38.12648 C5.56766764,35.4437778 5.456744,30.9630539 5.51400945,26.5203952 C5.52325309,25.8110387 6.69381309,25.4839017 8.76123127,24.9664387 C9.65335491,24.7434213 11.1330131,24.373293 11.3652313,24.1086278 C11.3638785,23.7996278 11.2800095,23.575267 11.1097913,23.4234539 C10.5668967,22.9395778 9.13909309,23.1175887 7.99198036,23.260893 C6.53824945,23.4424865 5.28291855,23.5992257 5.04416218,22.6950648 C4.82614764,21.8694974 4.28934036,20.5430365 3.66731127,19.0074409 C2.50734764,16.1422496 0.918794909,12.2186213 0.286845818,8.74304304 C-0.0673432727,6.79656696 -0.0932705455,5.21171043 0.207260364,3.89756478 C0.562576727,2.34360826 1.38728945,1.20724957 2.65907855,0.519836522 C3.38639491,0.12686913 4.34344945,0.122166957 5.50363855,0.506401739 C12.0034931,2.65865391 23.8100967,16.4675952 25.7460749,20.6733539 C25.9208022,21.0531104 25.5970495,21.6755887 24.2461258,23.9659952 C23.6727949,24.9382257 22.7736822,26.4628496 22.5272604,27.1551887 C23.1407222,26.8054365 24.4152167,25.8016343 25.3102713,25.0965322 C28.0784022,22.916067 28.8983804,22.3616583 29.3919004,22.6169191 C29.7717913,22.813067 30.162504,23.013693 30.5615585,23.2183496 C35.945864,25.9812126 42.6465985,29.4196213 44.6883149,33.6034365 C46.374264,37.0575191 46.0538931,42.5469713 45.771624,47.3899865 C45.5917113,50.4725974 45.4363731,53.1349235 45.8672167,54.5093017 C46.5773985,56.7730626 48.6405331,59.7222213 51.0294495,63.1371191 C54.3957113,67.9490104 58.5848822,73.9375648 60.3443295,80.2078017 C60.3806276,80.3369996 60.3544749,80.4735865 60.2726349,80.5824083 C60.009304,80.93328 59.1361185,80.9973191 56.0496458,81.0503865 C54.895544,81.0703148 53.2483731,81.0985278 52.5564531,81.2116039 C52.7300531,81.342593 53.0560604,81.5441148 53.6688458,81.8334104 C54.4552313,82.2046583 55.4943513,82.6193452 56.4992022,83.0201496 C59.8311949,84.3492974 61.1900095,84.96573 61.2077326,85.7183017 C61.2109767,85.8501865 61.1519076,85.9728909 61.0463949,86.0559626 C60.6464385,86.3696648 59.3002495,86.1027604 53.0438858,84.4679713 C50.4624313,83.7935452 47.0731731,82.9079691 45.7576458,82.7404822 C46.0615585,82.9767104 46.6319585,83.3625126 47.703544,83.98208 C49.0292167,84.7485343 50.7895658,85.6851626 52.4921985,86.5908909 C54.4171295,87.6150691 56.4074422,88.6741778 57.8681622,89.5369148 C60.1285695,90.8723322 60.4696822,91.3378474 60.3269695,91.7733583 C57.9116749,99.1418887 52.1589767,98.99433 48.3521767,98.8971517 C47.5427949,98.8763278 46.8438858,98.8584148 46.2696531,98.9114822 C43.0819513,99.20548 40.3807804,102.440128 40.3537258,102.472819 C40.285864,102.555667 40.1839585,102.602913 40.0779949,102.602913 C40.0644676,102.602913 40.0511658,102.602913 40.0374131,102.60045" id="Fill-15" fill="#97C4DE" mask="url(#mask-6)"></path> </g> <path d="M42,159.071726 C42,159.071726 41.9913472,158.616674 41.9754334,157.763003 C41.9623929,157.332137 41.9464791,156.800944 41.9274709,156.176143 C41.9038212,155.554029 41.8770772,154.838979 41.8364085,154.03883 C41.7577236,152.438981 41.6396961,150.498515 41.4646442,148.277224 C41.2898133,146.056157 41.058621,143.554041 40.7620052,140.83067 C40.4667156,138.10685 40.1035712,135.161999 39.6690357,132.055014 C39.2356054,128.947804 38.7336572,125.678236 38.1541292,122.306325 C37.8687857,120.61981 37.5558141,118.908885 37.2342225,117.178477 C36.905116,115.449189 36.5665054,113.69997 36.2013718,111.942017 C35.4790616,108.423872 34.6780664,104.863849 33.8081113,101.321294 C32.9421347,97.7776197 31.9908424,94.2549957 30.9849568,90.8082883 C29.9713354,87.3635964 28.8938377,83.9970607 27.7560001,80.7720569 C27.4660151,79.9678775 27.1866393,79.1672811 26.8895814,78.3819128 C26.7428207,77.9884449 26.5969441,77.5967685 26.4515096,77.2071076 C26.3018755,76.8194622 26.1526835,76.4333844 26.0043756,76.0495461 C25.9301112,75.8578508 25.8560677,75.6666035 25.7824664,75.475804 C25.7059917,75.2856763 25.63018,75.0966684 25.5541474,74.9078844 C25.4023031,74.5300925 25.2517849,74.1549879 25.1017088,73.7818988 C24.9467702,73.4106012 24.7929367,73.0417671 24.6399873,72.6751723 C24.4863748,72.3090254 24.3367407,71.9439983 24.1776026,71.5859133 C22.933673,68.7084692 21.6574736,66.0303343 20.3631502,63.6193635 C19.0690479,61.2083928 17.7678727,59.0596593 16.5186384,57.2199672 C15.2707303,55.3789314 14.073437,53.8494004 13.0282089,52.6421235 C12.897141,52.4914098 12.7693885,52.345175 12.6451723,52.2027472 C12.5832853,52.1315334 12.5222823,52.0612152 12.4619425,51.9924647 C12.3991713,51.9252818 12.3375053,51.8594426 12.2767234,51.7944991 C12.0333747,51.535173 11.8052767,51.2919709 11.5928715,51.0657884 C11.4885476,50.9509056 11.3798032,50.8483397 11.2781317,50.7473414 C11.175797,50.646791 11.0778829,50.5502715 10.9841682,50.458007 C10.7960758,50.2739258 10.6276546,50.1046249 10.4727159,49.9570464 C9.8374896,49.3830804 9.49887904,49.0769503 9.49887904,49.0769503 C9.375547,48.9654266 9.18612843,48.9763998 9.07583687,49.101584 C8.96665043,49.2256484 8.97659656,49.416 9.09771836,49.5277476 C9.10788552,49.5371532 9.43654994,49.840596 10.0532102,50.4096353 C10.2037283,50.556318 10.367508,50.7242753 10.5500747,50.9067889 C10.6411371,50.9981576 10.736399,51.0940052 10.8356393,51.1936599 C10.9344375,51.2939864 11.0403086,51.3954326 11.1415381,51.5094196 C11.3477546,51.7340345 11.5694428,51.9754451 11.8063818,52.2327556 C11.8651745,52.2972512 11.9252934,52.3626426 11.9860753,52.4289297 C12.044868,52.4976802 12.1041027,52.5673265 12.1646636,52.6380925 C12.2853434,52.7794006 12.4093385,52.9249636 12.53687,53.0743336 C13.5531437,54.2731007 14.7177253,55.7930021 15.9315956,57.6246322 C17.146792,59.4549187 18.4121611,61.5940227 19.6700153,63.9958118 C20.9274275,66.3980488 22.1662736,69.0681217 23.3719659,71.93728 C23.5260204,72.2944691 23.6707919,72.6586005 23.8197629,73.0238516 C23.9678497,73.3895506 24.1168207,73.7572651 24.2668968,74.1274429 C24.4118893,74.4996363 24.5579869,74.8738451 24.7047476,75.2505173 C24.778128,75.4388534 24.8519504,75.6278613 24.9255518,75.8168692 C24.9969429,76.0074448 25.0685551,76.1984682 25.1403882,76.3897155 C25.2836126,76.7726581 25.427721,77.1576162 25.5729345,77.5443659 C25.7130645,77.933131 25.8542995,78.3239116 25.9961977,78.7164837 C26.2833094,79.5000605 26.5529601,80.2988653 26.832778,81.1012532 C27.9312731,84.3188668 28.9683232,87.6789082 29.941497,91.1166579 C30.907156,94.556647 31.8177796,98.0721048 32.6435297,101.608613 C33.4732582,105.144002 34.2342478,108.696411 34.9169946,112.206494 C35.2626779,113.96064 35.5820593,115.705604 35.8917156,117.430413 C36.194078,119.15679 36.4882625,120.862788 36.7550399,122.544824 C37.2974357,125.907105 37.7635777,129.166596 38.1629702,132.262609 C38.5634678,135.358397 38.8943425,138.291156 39.1600148,141.001314 C39.4270132,143.711249 39.6312404,146.198808 39.7819796,148.404199 C39.9329398,150.609814 40.0301909,152.533709 40.0914148,154.117434 C40.1239055,154.909297 40.1429137,155.616061 40.1599326,156.231009 C40.172089,156.843941 40.1824772,157.365056 40.1910972,157.787637 C40.198391,158.641308 40.2021484,159.09636 40.2021484,159.09636 C40.2063479,159.59956 40.6121501,160.004001 41.1085727,160 C41.6049952,159.995715 42.0041666,159.584556 42,159.081356 L42,159.071726 Z" id="Fill-18" fill="#97C4DE"></path> <path d="M51.8229919,161.191226 C51.8229919,161.191226 51.8758152,160.720054 51.9751682,159.8363 C52.0246199,159.394647 52.094077,158.858401 52.1711767,158.223091 C52.2091646,157.906219 52.2577171,157.564077 52.3053706,157.199797 C52.3545975,156.835517 52.4029253,156.44798 52.4633912,156.039646 C52.6892955,154.404075 52.9972446,152.421666 53.3897112,150.153916 C53.7835264,147.885942 54.2681529,145.333297 54.8550545,142.559713 C55.4446535,139.786577 56.1369771,136.79295 56.9349474,133.64234 C57.7342665,130.49173 58.6455262,127.18615 59.659061,123.786872 C60.6793391,120.38983 61.7980711,116.897973 63.0291933,113.381741 C64.252673,109.863049 65.5889924,106.320877 67.0060079,102.81113 C68.4317899,99.3049613 69.9398416,95.8314411 71.5301628,92.4614579 C71.921955,91.6163905 72.3321792,90.7840695 72.7318388,89.9519721 C72.9368385,89.5382714 73.1411638,89.1254653 73.3450397,88.7142244 C73.44709,88.5087158 73.5489155,88.3032072 73.650741,88.0981459 C73.7548143,87.8942026 73.8586628,87.690483 73.9622866,87.486987 C74.1699837,87.0806659 74.3770064,86.6750156 74.5833548,86.2711543 C74.7941988,85.8695293 75.0043685,85.4692459 75.2138638,85.0703043 C75.3186115,84.8710571 75.4235839,84.6718099 75.5281068,84.4734572 C75.6348775,84.275999 75.7411986,84.0787645 75.8475197,83.8822007 C76.0603867,83.4888497 76.2725794,83.097064 76.4836482,82.7068436 C76.9170248,81.932888 77.3366898,81.1593795 77.7741124,80.4057735 C77.9910255,80.0278523 78.2070394,79.6517202 78.4217047,79.2776006 C78.6410904,78.9059409 78.8591274,78.5362937 79.0760404,78.1686592 C79.1850589,77.9848419 79.2934031,77.8016955 79.4015224,77.6189964 C79.5118896,77.437639 79.6218072,77.2567288 79.7315,77.0764895 C79.9511105,76.7157872 80.1693722,76.3573212 80.3862853,76.0006441 C80.6081435,75.6473214 80.8284283,75.2962349 81.0475892,74.9469374 C81.1568325,74.7725122 81.2660757,74.5983107 81.3748695,74.4252273 C81.485911,74.253262 81.5967277,74.0819676 81.7068701,73.9111204 C83.470497,71.1782362 85.2271557,68.6510842 86.9474,66.3929495 C88.6635983,64.1319076 90.3262988,62.1282547 91.862448,60.4083781 C93.3990467,58.6887251 94.8036994,57.2490468 95.9950354,56.0994062 C96.291296,55.8107102 96.5808131,55.5468363 96.8485266,55.293249 C97.1178135,55.0414506 97.3673197,54.8026223 97.6094082,54.5910759 C97.8492489,54.3770697 98.0708823,54.178717 98.2740838,53.997136 C98.3759093,53.9063454 98.4727897,53.8198037 98.5649496,53.7372872 C98.6575591,53.6554416 98.7483704,53.5807518 98.8324383,53.5087456 C99.5083529,52.9349316 99.8689006,52.6285695 99.8689006,52.6285695 C100.025123,52.4959616 100.043105,52.2727869 99.9154302,52.1240783 C99.7888788,51.9762642 99.5661215,51.9581508 99.4166425,52.0824846 C99.4166425,52.0824846 99.0495761,52.3886231 98.3606242,52.9628843 C98.2747581,53.0348906 98.1825982,53.1095803 98.0881904,53.191426 C97.9942322,53.2739425 97.8953288,53.3607078 97.7919299,53.4512747 C97.5846823,53.6330794 97.3587781,53.8312085 97.1144418,54.0454383 C96.8678577,54.257432 96.6134063,54.4962602 96.3389494,54.7482822 C96.0662908,55.0018695 95.7711542,55.2657435 95.4690493,55.5548867 C94.2550105,56.7051981 92.8227098,58.1462182 91.2562153,59.8676601 C89.6899456,61.5893257 87.9939775,63.5952149 86.2427135,65.8591638 C84.4874035,68.1202056 82.6938808,70.6500411 80.892266,73.3869504 C80.7794262,73.5580213 80.6663617,73.7295393 80.5528476,73.9017282 C80.4415813,74.0754825 80.3300902,74.2494604 80.2181496,74.4241092 C79.9944931,74.773854 79.7692631,75.1256113 79.5426845,75.4793813 C79.321051,75.8365056 79.0978441,76.1954189 78.8735133,76.5565684 C78.7613479,76.7372549 78.6489577,76.9183887 78.5361179,77.0999698 C78.425526,77.2828925 78.3144845,77.4662626 78.2032182,77.6503035 C77.9815847,78.0183852 77.7583778,78.3887032 77.5342717,78.7608102 C77.3144365,79.1356006 77.093927,79.51218 76.8720687,79.8907721 C76.4243062,80.6454962 75.9947509,81.4196755 75.5514839,82.1951965 C75.33547,82.5858641 75.1183321,82.9780971 74.9005199,83.3718954 C74.7917262,83.56913 74.682483,83.7663646 74.5734645,83.9640464 C74.4662442,84.1630699 74.3592488,84.3623171 74.251579,84.5617879 C74.0371385,84.9614004 73.8220236,85.3623546 73.6060097,85.7646505 C73.3947161,86.1694063 73.1825234,86.5752802 72.9698812,86.9822722 C72.8635601,87.1862155 72.7574637,87.3901587 72.650693,87.5943256 C72.5463949,87.7998342 72.4418721,88.0055664 72.337574,88.2112986 C72.1285282,88.6234339 71.9188081,89.036911 71.7088632,89.4510589 C71.2993133,90.2847216 70.8787492,91.1183843 70.4768419,91.9650171 C68.8456106,95.3403673 67.2968738,98.8201489 65.8304065,102.33325 C64.3729305,105.849929 62.9961506,109.399928 61.7331096,112.927565 C60.4626508,116.452518 59.3050318,119.954215 58.2472153,123.36199 C57.1959175,126.771778 56.2486929,130.089434 55.4152072,133.25279 C54.5828455,136.416818 53.8579287,139.424533 53.238434,142.212652 C52.6214118,145.001442 52.1089125,147.569964 51.690821,149.853815 C51.2738534,152.13789 50.9447749,154.136176 50.7011129,155.78673 C50.6363762,156.198641 50.5837776,156.58998 50.5305046,156.957614 C50.4790299,157.32592 50.4268809,157.669403 50.3852965,157.991866 C50.3010038,158.635674 50.2250281,159.186455 50.1713056,159.627661 C50.0640853,160.510297 50.0067663,160.981021 50.0067663,160.981021 C49.9458508,161.479698 50.3030269,161.932756 50.8045119,161.993358 C51.3057722,162.053512 51.761402,161.6984 51.8218679,161.1995 L51.8229919,161.191226 Z" id="Fill-20" fill="#F7BF9C"></path> <path d="M30,153.818192 L31.0487413,155.742337 C31.0487413,155.742337 31.7557579,176 36.9831486,176 L56.0145853,176 C61.1780726,176 61.9512587,155.997386 61.9512587,155.997386 L63,153.818192 C63,153.365335 62.6229245,153 62.1610976,153 L30.8389024,153 C30.3745828,153 30,153.365335 30,153.818192" id="Fill-22" fill="#8F6969"></path> <path d="M40,153.818192 L41.0232639,155.742337 C41.0232639,155.742337 41.7131047,176 46.8135046,176 L56.1842844,176 C61.2223333,176 61.9767361,155.997386 61.9767361,155.997386 L63,153.818192 C63,153.365335 62.6320849,153 62.1814774,153 L40.8185226,153 C40.365483,153 40,153.365335 40,153.818192" id="Fill-24" fill="#BF8A8A"></path> </g> <g id="Group-6" transform="translate(30.000000, 31.000000)"> <path d="M1.99830008,82.2759033 L66.8685027,82.2759033 L66.8685027,1.99860008 L1.99830008,1.99860008 L1.99830008,82.2759033 Z M0.99900004,0 L67.8678027,0 C68.4195027,0 68.8668027,0.447300018 68.8668027,0.99930004 L68.8668027,83.2752033 C68.8668027,83.8269033 68.4195027,84.2742033 67.8678027,84.2742033 L0.99900004,84.2742033 C0.447300018,84.2742033 0,83.8269033 0,83.2752033 L0,0.99930004 C0,0.447300018 0.447300018,0 0.99900004,0 L0.99900004,0 Z" id="Fill-1" fill="#97C4DE"></path> <polygon id="Fill-3" fill="#97C4DE" points="12.8658005 74.0505029 56.0016022 74.0505029 56.0016022 10.2264004 12.8658005 10.2264004"></polygon> <polygon id="Fill-4" fill="#FFFFFF" points="12.8658905 74.0503829 12.8658905 68.8561827 56.0016922 29.3944812 56.0016922 52.7674821 28.3800911 74.0503829"></polygon> <polygon id="Fill-5" fill="#FFFFFF" points="12.8658905 53.0149221 12.8658905 37.8622215 37.4862915 10.2262204 56.0016922 10.2262204 56.0016922 12.8752205"></polygon> </g> <g id="Group-67" transform="translate(92.000000, 0.000000)"> <path d="M105.437007,64.3237901 C104.713182,64.2076901 101.816307,64.7994401 101.593782,66.9931902 C101.268207,70.2028153 101.875032,73.0697654 103.132332,76.0406655 C107.843157,87.172091 111.850182,100.643741 116.561232,111.775167 C120.778407,121.739517 132.208633,135.075718 137.853208,134.410618 C143.498008,133.745518 140.438458,121.567617 137.372383,115.797492 C134.071858,109.586367 129.945808,101.448792 126.696358,95.2102163 C123.474807,89.024966 121.242582,85.0435909 118.505682,78.6290656 C115.786332,72.2550404 112.266207,65.4186401 105.437007,64.3237901" id="Fill-1" fill="#FFA07F"></path> <path d="M181.024477,92.6761987 C181.024477,92.6761987 184.445602,93.3167737 184.642927,97.4979489 C184.642927,97.4979489 145.198176,131.408375 140.933076,133.7819 C136.667975,136.155425 126.855725,132.67895 128.588675,128.563925 C130.321625,124.448675 135.575375,121.0244 140.924076,116.7476 C146.273226,112.471024 181.024477,92.6761987 181.024477,92.6761987" id="Fill-3" fill="#FFA07F"></path> <path d="M174.350054,99.0895764 C174.350054,99.0895764 173.637029,94.8472013 173.624654,92.7319762 C173.690129,92.1145762 173.826029,91.4890761 173.826029,91.4890761 L176.393505,93.6823762 C175.830779,96.8227013 174.982754,100.478501 174.350054,99.0895764" id="Fill-5" fill="#FFA07F"></path> <path d="M178.68549,89.108486 C176.887515,90.1911861 174.638414,92.4040612 173.917964,95.0529863 C173.488439,96.6318113 172.745489,98.8262364 173.645264,100.320461 C175.256264,102.995712 177.606615,103.738437 179.69484,103.768812 C182.237115,103.805712 185.91564,101.767212 187.38714,100.880937 C190.06779,99.2665614 187.595265,96.2900363 185.62224,93.0140362 C183.64944,89.7380361 181.36614,87.494111 178.68549,89.108486" id="Fill-7" fill="#FFA07F"></path> <path d="M179.844757,88.6376285 C179.844757,88.6376285 186.004807,86.5532284 187.292482,86.8090534 C188.197207,86.9888285 188.670157,88.3966535 188.268307,89.1481535 C187.983682,89.6800536 183.635107,92.0139787 183.136282,91.9147537 C182.637682,91.8157536 178.732357,89.3814786 179.844757,88.6376285" id="Fill-9" fill="#FFA07F"></path> <path d="M182.252077,92.2477312 C182.252077,92.2477312 187.043002,89.4552561 188.355877,89.45728 C189.278378,89.4586311 190.014353,90.7481061 189.765503,91.5632811 C189.589103,92.1399562 185.774227,95.2710563 185.265952,95.2703814 C184.757452,95.2697063 181.304602,93.1925062 182.252077,92.2477312" id="Fill-11" fill="#FFA07F"></path> <path d="M183.721395,95.1096638 C183.721395,95.1096638 188.245695,91.9184887 189.558345,91.9205127 C190.48107,91.9218637 190.852995,93.4547887 190.60437,94.2699637 C190.428195,94.8466388 186.916395,98.0382639 186.407895,98.037589 C185.89962,98.0369139 182.773695,96.0544388 183.721395,95.1096638" id="Fill-13" fill="#FFA07F"></path> <g id="Group-17" transform="translate(184.500007, 95.393254)"> <mask id="mask-8" fill="white"> <use xlink:href="#path-7"></use> </mask> <g id="Clip-16"></g> <path d="M0.397147516,2.79324011 C0.397147516,2.79324011 3.81872265,0.0279900011 5.1313727,0.0300138896 C6.05409774,0.0313650012 6.57249776,0.322740013 6.32364775,1.13769005 C6.14747274,1.71459007 3.39549763,5.48851522 2.88699761,5.48784022 C2.37872259,5.48716522 -0.550552522,3.73801515 0.397147516,2.79324011" id="Fill-15" fill="#FFA07F" mask="url(#mask-8)"></path> </g> <path d="M187.79358,89.4565386 C186.580155,90.0075636 185.366955,90.5588136 184.15353,91.1102886 C184.04058,91.1613636 184.101105,91.3463136 184.214955,91.2947886 C185.428155,90.7435386 186.64158,90.1922886 187.85478,89.6410386 C187.96773,89.5897386 187.90743,89.4047886 187.79358,89.4565386" id="Fill-18" fill="#C2826B"></path> <path d="M189.40395,91.8651862 L185.377575,93.7439362 C185.2653,93.7961362 185.325825,93.9813112 185.439,93.9284362 L189.46515,92.0496862 C189.577425,91.9974862 189.517125,91.8125361 189.40395,91.8651862" id="Fill-20" fill="#C2826B"></path> <path d="M189.499328,95.3849963 C188.521027,96.2762213 187.494127,97.1114214 186.423577,97.8890214 C186.322552,97.9623714 186.430102,98.1243714 186.531802,98.0507964 C187.616302,97.2628464 188.655352,96.4150463 189.646478,95.5121213 C189.738503,95.4281963 189.590903,95.3015213 189.499328,95.3849963" id="Fill-22" fill="#C2826B"></path> <path d="M106.797109,8.05729532 C104.885284,6.05277024 103.294534,3.66642015 100.697584,2.87847011 C98.1004089,2.09074508 95.3374088,2.18052009 92.6466337,2.4554701 C87.6997835,2.96082012 82.6469583,4.14567016 78.6354331,7.22299529 C72.5746079,11.8723955 69.8793328,20.1904208 69.9538078,28.0642961 C70.0937578,42.8591717 60.9711324,73.6438979 66.8386827,76.598148 C72.7060079,79.5526232 93.0579337,79.0681981 99.0892839,74.875098 C107.433634,69.0741477 104.542159,31.2091212 106.023559,20.8264958 C106.023559,20.8264958 109.812334,11.2192204 106.797109,8.05729532" id="Fill-24" fill="#A3262A"></path> <mask id="mask-10" fill="white"> <use xlink:href="#path-9"></use> </mask> <g id="Clip-27"></g> <polygon id="Fill-26" fill="#FFA07F" mask="url(#mask-10)" points="82.3698033 74.0742779 99.410854 74.0742779 99.410854 42.6377267 82.3698033 42.6377267"></polygon> <path d="M82.3698708,42.4535192 L99.4109215,42.4535192 L99.4109215,58.9721198 C99.4109215,58.9721198 94.4188463,61.3532949 88.563671,58.3562948 C84.8120209,56.4359197 82.3698708,51.5491445 82.3698708,51.5491445 L82.3698708,42.4535192 Z" id="Fill-28" fill="#FA704E" mask="url(#mask-10)"></path> <path d="M109.253637,67.9494852 C109.546137,71.4012103 106.516737,96.8021363 98.4653364,96.8021363 C90.4139361,96.8021363 67.8736602,71.5411603 67.8736602,68.0770602 C67.8736602,64.6131851 75.9230355,61.4130099 89.145611,61.4130099 C103.045887,61.4130099 109.064637,65.7195101 109.253637,67.9494852" id="Fill-29" fill="#FFA07F" mask="url(#mask-10)"></path> <path d="M77.1797281,26.9239061 L77.1842281,26.9241311 C76.7580781,25.451056 76.525428,23.8958559 76.525428,22.2857559 C76.525428,13.0778555 83.9898033,5.61348022 93.1974787,5.61348022 C102.405154,5.61348022 109.869529,13.0778555 109.869529,22.2857559 C109.869529,24.427756 109.461154,26.4732311 108.725179,28.3544561 L108.730129,28.3546811 C108.730129,28.3546811 108.723829,28.3652561 108.714829,28.3812311 C108.276079,29.4972312 107.723479,30.5556312 107.066029,31.5388813 C106.100779,33.5461063 105.019654,36.1255064 104.728954,38.1241815 C104.728954,41.7365567 109.896754,43.0705817 108.730129,44.2372068 C107.563054,45.4042818 104.658979,45.9044568 104.658979,45.9044568 C104.658979,45.9044568 100.566454,56.4358072 97.3710039,56.4358072 C94.1755537,56.4358072 81.2490782,48.5443819 80.6933282,41.8753817 C80.2716782,36.8146815 78.4669531,30.8254062 77.6209531,28.2309311 C77.4652531,27.8234561 77.3255281,27.4083311 77.2020031,26.9862311 C77.1876031,26.9457311 77.1797281,26.9239061 77.1797281,26.9239061" id="Fill-30" fill="#FFA07F" mask="url(#mask-10)"></path> <path d="M80.7759932,37.6619415 C78.5077681,35.8176164 77.1829681,35.5208414 74.914743,33.6767413 C73.9353179,32.8800163 72.9111179,32.0225413 72.4572929,30.7969662 C72.0824429,29.7846912 72.2514179,28.1370161 73.2767429,27.6447161 C74.730243,26.9465411 76.093068,27.9493661 77.2531681,28.7935661 C78.4735681,29.6816412 79.5776432,30.8730162 79.9788182,32.4349663 C79.9790432,32.4356413 80.7759932,37.6619415 80.7759932,37.6619415" id="Fill-31" fill="#FFA07F" mask="url(#mask-10)"></path> <path d="M96.0950963,30.3345012 C97.7888964,28.9035011 99.9146965,28.6319261 102.076497,28.5491261 C102.430197,28.5374261 102.336597,27.7544261 101.991447,27.4187261 C101.646297,27.0837011 101.142522,26.8193261 100.876347,26.8517261 C99.1748964,27.0398261 97.6160964,27.7863761 96.3421463,29.0200512 C96.1436963,29.2144512 95.9022713,29.7002262 95.7944963,30.0818262 C95.6873963,30.4641012 95.8169963,30.5671512 96.0950963,30.3345012" id="Fill-32" fill="#1A1A1A" mask="url(#mask-10)"></path> <path d="M99.977449,36.1594364 L100.685974,36.1594364 C101.050474,36.1594364 101.348824,35.8610864 101.348824,35.4968114 L101.348824,32.8134613 C101.348824,32.4491863 101.050474,32.1508363 100.685974,32.1508363 L99.977449,32.1508363 C99.613174,32.1508363 99.3150489,32.4491863 99.3150489,32.8134613 L99.3150489,35.4968114 C99.3150489,35.8610864 99.613174,36.1594364 99.977449,36.1594364" id="Fill-33" fill="#1A1A1A" mask="url(#mask-10)"></path> <path d="M96.8926989,38.8917465 C96.8926989,39.3498466 98.2123239,39.7215466 99.840649,39.7215466 C101.468749,39.7215466 102.788374,39.3498466 102.788374,38.8917465 C102.788374,38.4334215 101.468749,38.0619465 99.840649,38.0619465 C98.2123239,38.0619465 96.8926989,38.4334215 96.8926989,38.8917465" id="Fill-34" fill="#ED766D" mask="url(#mask-10)"></path> <path d="M102.758742,47.7643069 C99.6112165,49.763657 95.9997413,48.4496569 94.0876912,44.5607568 C93.9160162,44.2120068 94.3356412,43.8877817 94.5059663,44.2345068 C96.2645663,47.8108819 99.6141415,49.0486069 102.513942,47.2065319 C102.794067,47.0283319 103.040442,47.5852069 102.758742,47.7643069" id="Fill-35" fill="#C24848" mask="url(#mask-10)"></path> <path d="M116.74697,19.5485633 C116.068145,24.7453885 113.355095,29.5642137 109.537294,32.6640388 C110.612569,29.9260137 110.086294,26.4803636 108.409369,24.0931135 C106.500469,21.3755633 103.361044,19.9614383 100.269769,19.8282383 C97.7918439,19.7215883 95.3008688,20.3565383 92.8427437,19.9913633 C90.6519186,19.6657883 86.7837184,16.4212882 85.8207184,13.766288 C86.3332684,13.729163 86.8543685,13.503713 87.2586935,13.150238 C88.0799435,12.433388 88.5483935,11.340338 89.0310185,10.3087129 C90.3776436,7.4305128 92.0885437,4.68753769 94.4373188,2.77211261 C98.8290939,-0.809212532 105.189394,-0.880987535 109.805044,2.33066259 C114.42092,5.54208772 117.14342,11.733188 116.89682,17.7991882 C116.873195,18.3857632 116.82257,18.9696383 116.74697,19.5485633" id="Fill-36" fill="#A3262A" mask="url(#mask-10)"></path> <path d="M77.6160931,33.3548563 C77.6160931,33.3548563 74.313543,18.2499307 74.977068,13.2119555 C75.640818,8.17375532 84.8068684,0.76473003 93.7231687,0.76473003 C102.639694,0.76473003 107.733694,6.45475526 107.284819,18.1016557 C107.284819,18.1016557 91.5003936,4.61740518 84.8599684,14.2492056 C78.2197681,23.8807809 77.6160931,33.3548563 77.6160931,33.3548563" id="Fill-37" fill="#A3262A" mask="url(#mask-10)"></path> <path d="M82.8958983,9.09571536 C82.9582233,9.79366539 83.2428483,10.3550404 83.6370483,10.7699404 C83.6980233,10.7154904 83.7589983,10.6608154 83.8199733,10.6068154 C84.8716234,9.28876537 86.0661484,8.10774032 87.2631485,6.94764028 C85.8060484,6.34464025 84.6639484,5.0787902 84.4474984,3.16741513 C84.2278983,3.27924013 84.0112233,3.39489013 83.7961233,3.51234014 C83.9297733,5.40481521 82.7228733,7.16454028 82.8958983,9.09571536" id="Fill-38" fill="#B55155" mask="url(#mask-10)"></path> <path d="M78.9094156,51.6804996 C78.8038906,50.8286495 78.7586656,49.9702745 78.7717156,49.1226995 C78.8353906,44.9334243 80.1356657,40.9324741 81.5956907,37.112199 C83.6906658,31.6316488 86.1487909,26.3317735 88.944191,21.2685983 C89.8727661,19.5867233 90.8566911,17.8809982 91.1977911,15.9300231 C91.5391161,13.9790481 91.0828161,11.687423 89.6090661,10.5009979 C88.644941,9.72474789 86.878691,9.76232289 85.6603159,10.4231479 C80.6261657,18.0087982 77.4984406,27.1714736 76.7064405,36.658374 C76.2899655,41.6463992 76.5248655,46.8072244 78.1169656,51.5544995 C78.5631406,52.8851496 79.1249656,54.1813747 79.7938907,55.4051497 C79.3598657,54.2171497 79.0671406,52.9562496 78.9094156,51.6804996" id="Fill-39" fill="#A3262A" mask="url(#mask-10)"></path> <path d="M115.003017,8.63057284 C111.744567,9.26304787 108.530217,11.2974979 105.315867,12.360623 C102.781692,13.013573 101.026917,9.53102288 99.8573665,7.13657278 C98.4925164,4.08917266 94.3984163,5.17749771 92.0588662,6.70142277 C91.2295161,7.13702278 90.3029661,7.35144779 89.3885661,7.35369779 C88.032041,8.90642285 86.4736909,10.1940979 84.9531409,11.534198 C85.5500659,11.678648 86.1584659,11.601248 86.6001409,11.2722979 C89.7195411,9.09564786 93.2286412,7.35437279 96.7377413,8.00732282 C98.4925164,8.44269784 99.2723664,10.6193479 100.442141,12.578423 C101.416842,14.3196981 103.561317,14.5374981 105.510942,14.3196981 C109.061667,13.709723 111.943242,10.4325979 115.159842,8.97122286 C115.108092,8.85737285 115.057017,8.74307285 115.003017,8.63057284" id="Fill-40" fill="#B55155" mask="url(#mask-10)"></path> <path d="M109.551154,22.8132459 C110.119279,24.589396 110.335054,26.7572711 110.067304,28.8227711 C109.933879,27.1208711 109.354729,25.438771 108.409504,24.093046 C106.500379,21.3754958 103.360729,19.9613708 100.269679,19.8281708 C97.7917539,19.7215208 95.3007788,20.3564708 92.8426537,19.9912958 C92.0963287,19.8805958 91.1549286,19.4301458 90.2002536,18.7801207 C90.6572286,18.7240957 91.1103786,18.6298207 91.5513786,18.5067457 C97.7229039,16.7841457 106.979854,14.7744456 109.551154,22.8132459" id="Fill-41" fill="#7A1C20" mask="url(#mask-10)"></path> <path d="M106.721734,144.505086 C104.906884,129.30116 107.860009,117.549635 108.622309,102.225334 L70.2584578,87.0776585 C71.0209828,102.401959 78.4225831,118.27031 72.7012829,148.164711 C72.7012829,148.164711 77.9293831,151.845036 91.4539086,151.845036 C104.977984,151.845036 106.721734,144.505086 106.721734,144.505086" id="Fill-42" fill="#E6E6E6" mask="url(#mask-10)"></path> <path d="M80.6397557,127.190413 C77.5151806,115.397937 75.1567305,108.301212 78.0347056,108.953937 C96.6656063,113.180562 106.542882,110.425212 108.349407,106.530237 C108.456282,105.123762 108.549432,103.691187 108.622332,102.225537 L70.2584803,87.077636 C71.0210053,102.401937 78.4226056,118.270287 72.7013054,148.164688 C72.7013054,148.164688 74.3996055,149.358988 78.3607306,150.387238 C77.6974306,141.681538 83.1185808,136.545688 80.6397557,127.190413" id="Fill-43" fill="#CCCCCC" mask="url(#mask-10)"></path> <path d="M78.7248481,106.931614 C72.1096229,103.791739 67.1798727,89.8604136 66.8950227,83.7595383 C66.6389726,78.2789881 66.4976726,72.6767129 65.0803976,67.4744877 C66.0040226,66.3371126 67.3992477,65.0321126 68.3676477,64.7409626 C69.5410228,64.3883876 78.0100231,61.9219375 78.0100231,61.9219375 C78.0100231,61.9219375 92.9421487,84.6827134 99.662899,84.6827134 C106.383199,84.6827134 102.631774,62.4059125 102.631774,62.4059125 L108.943699,65.1731876 C110.302024,66.5315126 111.123499,75.765063 110.867449,81.2456132 C110.582599,87.3464885 113.3888,96.1601888 110.867449,101.511814 C108.346099,106.863214 104.493874,109.699789 96.9617739,110.110864 C92.3933737,110.360164 86.4666484,110.606314 78.7248481,106.931614" id="Fill-44" fill="#E6E6E6" mask="url(#mask-10)"></path> <path d="M56.5950622,145.990873 C57.1411373,146.497798 60.0296874,147.229273 61.4568624,145.501273 C63.5453125,142.973173 64.6520876,140.207923 65.2679126,136.987048 C67.5752877,124.920072 71.7994379,111.273147 74.1070379,99.2059464 C76.172538,88.403921 74.0474129,70.6779703 68.9021127,68.0513202 C63.7568125,65.4246701 59.4626874,77.4432706 58.7939873,84.0508458 C58.0742123,91.1637711 56.9638373,100.370771 56.1853372,107.477622 C55.4135872,114.523947 55.0506622,119.149272 53.7398121,126.115723 C52.4370621,133.037848 51.443237,141.207823 56.5950622,145.990873" id="Fill-45" fill="#FFA07F" mask="url(#mask-10)"></path> <path d="M45.7471818,197.500058 C45.7471818,197.500058 43.7224067,200.484683 43.6913567,201.593483 C43.6605317,202.702508 45.4081068,206.173358 45.7271568,206.878733 C46.0464318,207.583883 48.2239819,210.900383 49.322207,210.495158 C50.235032,210.158333 49.362932,208.525058 48.4323319,206.467658 C47.5015069,204.410258 46.8364069,202.263308 47.0389069,201.907808 C47.2414069,201.552308 48.9025819,196.300583 49.0362319,195.222383 C49.169882,194.144408 46.4680818,196.235108 45.7471818,197.500058" id="Fill-46" fill="#C2826B" mask="url(#mask-10)"></path> <path d="M43.8865217,200.762333 C43.8865217,200.762333 42.3477467,203.974658 42.4901717,205.076483 C42.6325967,206.178308 44.9041968,209.391983 45.3303468,210.049658 C45.7564968,210.707333 48.4297219,213.713558 49.453697,213.172433 C50.304872,212.722658 49.186847,211.216958 47.9441719,209.298383 C46.7017219,207.380258 45.7081218,205.339283 45.8530218,204.961508 C45.9983718,204.583733 46.8234469,199.172933 46.7874469,198.088658 C46.7512219,197.004383 44.4026718,199.418183 43.8865217,200.762333" id="Fill-47" fill="#C2826B" mask="url(#mask-10)"></path> <path d="M44.2356768,202.345681 C44.2356768,202.345681 41.7600017,207.302431 41.3901016,208.579306 C41.0197516,209.855956 44.3290518,216.351481 45.5683518,218.264431 C46.8074269,220.177606 48.1392019,218.506756 47.2952269,216.541156 C45.8475768,212.560906 44.4264768,210.264781 44.6577768,209.466706 C44.8890768,208.669081 47.7753769,202.340731 46.9278019,201.03168 C46.0797768,199.722855 45.3532518,200.056305 44.2356768,202.345681" id="Fill-48" fill="#FFA07F" mask="url(#mask-10)"></path> <path d="M53.6210796,195.600743 C53.9869296,190.199168 52.7933046,185.932717 48.0860794,187.616392 C44.9594793,188.734642 41.2985041,197.629118 41.1446041,201.367718 C40.9904791,205.106543 53.3681796,199.335068 53.6210796,195.600743" id="Fill-49" fill="#FFA07F" mask="url(#mask-10)"></path> <path d="M42.1770617,199.360268 C40.5208366,200.974868 39.6102616,206.349218 39.3011116,207.415493 C38.9919615,208.481768 38.7246615,216.448569 38.1504615,218.429019 C37.7974365,219.647619 40.5869866,219.764844 41.2788616,217.378044 C41.9707367,214.991694 42.5514617,209.395268 42.8849117,208.244618 C43.2185867,207.093968 48.2693869,201.491918 48.7605619,199.797443 C49.251737,198.103418 44.1032868,197.482643 42.1770617,199.360268" id="Fill-50" fill="#FFA07F" mask="url(#mask-10)"></path> <path d="M49.1654495,196.184123 C49.1654495,196.184123 49.8642995,203.097698 49.5699995,204.112898 C49.2754745,205.128548 50.8549745,211.729148 53.2064496,208.450223 C54.8406247,206.171198 53.6636496,202.149098 53.5727496,200.391173 C53.4816246,198.633473 55.3493497,196.019423 53.6458746,192.659273 C51.9423996,189.298898 49.5630245,194.812973 49.1654495,196.184123" id="Fill-51" fill="#FFA07F" mask="url(#mask-10)"></path> <path d="M46.9741294,191.020755 C46.9741294,191.020755 49.2090545,193.513305 53.0367546,191.83458 C53.0367546,191.83458 64.131505,144.939628 64.1767301,140.437603 C64.2221801,135.935578 56.3487547,129.507553 53.5180296,132.722353 C50.6873045,135.937603 50.1846545,141.703003 48.9671794,147.920653 C47.7499294,154.138529 46.9741294,191.020755 46.9741294,191.020755" id="Fill-52" fill="#FFA07F" mask="url(#mask-10)"></path> <polygon id="Fill-53" fill="#333333" mask="url(#mask-10)" points="173.399069 97.0527189 177.65247 103.482994 174.029294 106.572694 169.353794 99.3927189"></polygon> <path d="M176.780235,100.881004 C176.780235,103.170604 174.924209,105.026629 172.634609,105.026629 C170.345009,105.026629 168.488984,103.170604 168.488984,100.881004 C168.488984,98.5914039 170.345009,96.7353788 172.634609,96.7353788 C174.924209,96.7353788 176.780235,98.5914039 176.780235,100.881004" id="Fill-54" fill="#3F3F3F" mask="url(#mask-10)"></path> <path d="M170.429699,407.223579 C172.301024,406.982154 176.735325,401.536703 173.154449,399.583028 C172.308674,399.121328 171.255224,399.122678 170.260499,399.137528 C167.171924,399.183653 164.083799,399.229553 160.995224,399.275453 C157.531799,398.434403 154.438949,396.346853 151.968899,393.942728 C148.793698,390.851678 146.368648,387.187778 143.307298,384.003803 C140.211973,380.784728 139.691548,377.697053 134.962723,377.262127 C131.540248,378.035453 131.212423,386.193278 132.170698,390.610703 C132.863473,393.803453 134.742223,399.215603 134.742223,399.215603 C137.071198,399.523628 139.328623,400.128653 141.368698,401.162303 C144.194473,402.594428 146.538523,404.957829 147.499048,407.724879 C155.114174,408.372204 162.829199,408.203904 170.429699,407.223579" id="Fill-55" fill="#9A5350" mask="url(#mask-10)"></path> <path d="M162.221136,399.647401 C157.832286,399.558076 154.150836,394.022401 152.039886,390.567301 C149.928936,387.112425 145.085811,374.92575 142.482111,371.762025 C139.680411,368.35845 133.869335,373.23375 133.869335,373.23375 C133.869335,373.23375 133.63061,387.765825 135.50351,389.211 C137.376635,390.656176 149.028261,401.412301 155.106636,400.938451 C161.184786,400.465051 162.221136,399.647401 162.221136,399.647401" id="Fill-56" fill="#FFA07F" mask="url(#mask-10)"></path> <path d="M139.279506,408.593559 L136.39658,408.818334 C136.39658,408.818334 134.387105,399.870758 134.21363,397.646183 C134.04038,395.421608 137.890805,394.193108 138.748506,397.292708 L139.279506,408.593559 Z" id="Fill-57" fill="#9A5350" mask="url(#mask-10)"></path> <path d="M29.1644112,407.962726 C30.8471862,408.814801 37.3532865,407.153176 35.3804864,403.698076 C34.9145114,402.882001 34.0365614,402.300601 33.2004613,401.761726 C30.6050862,400.089526 28.0094861,398.416876 25.414111,396.744451 C22.9643109,394.194751 21.4671609,390.908176 20.6524358,387.7269 C19.6050608,383.637075 19.4786108,379.52925 18.5741107,375.432 C17.6594857,371.28975 18.8211607,368.669625 15.1082106,365.7273 C11.8587605,364.419599 7.37136029,370.399875 5.88726023,374.265825 C4.81468519,377.060325 3.58326014,382.186725 3.58326014,382.186725 C5.36368521,383.706825 6.93103528,385.41165 8.09563532,387.3201 C9.70911039,389.96385 10.4399104,393.044776 9.81013539,395.665576 C15.8171856,400.364251 22.3284609,404.501551 29.1644112,407.962726" id="Fill-58" fill="#9A5350" mask="url(#mask-10)"></path> <path d="M26.242696,397.703078 C22.6341459,395.209366 22.4282709,388.993065 22.4552709,385.216665 C22.4822709,381.440265 24.745096,369.558465 24.211171,365.72964 C23.6365209,361.610114 16.2787956,362.080364 16.2787956,362.080364 C16.2787956,362.080364 8.57254534,372.92424 9.38569537,375.051165 C10.1986204,377.17809 14.3449206,391.743016 19.6510958,394.745191 C24.957271,397.747591 26.242696,397.703078 26.242696,397.703078" id="Fill-59" fill="#FFA07F" mask="url(#mask-10)"></path> <path d="M2.5168501,391.778116 L0,390.354091 C0,390.354091 2.94907512,382.485165 3.95392516,380.70924 C4.9587752,378.93309 8.79997535,380.13369 7.91257531,382.949115 L2.5168501,391.778116 Z" id="Fill-60" fill="#9A5350" mask="url(#mask-10)"></path> <path d="M78.6406756,283.425019 C93.3478012,254.410818 95.6599013,220.245016 103.367952,192.77499 C103.367952,192.77499 94.4905763,173.509139 80.4679007,171.296939 C66.4452251,169.084964 69.0833502,173.901314 67.0867002,182.91864 C65.5632251,189.80049 60.9504999,252.608343 61.1421999,277.468819 C61.1775249,282.067594 72.4691504,295.599994 78.6406756,283.425019" id="Fill-61" fill="#40628C" mask="url(#mask-10)"></path> <path d="M106.156602,149.563626 C109.131777,172.158802 102.154302,207.827153 98.0138514,226.494504 C87.577226,223.505604 75.3300255,219.641004 69.5232253,210.154103 C64.6130501,202.132403 62.41165,192.456728 63.2842,183.074002 C65.7592001,170.773027 69.5059003,158.737776 74.4482505,147.232401 L106.156602,149.563626 Z" id="Fill-62" fill="#456A97" mask="url(#mask-10)"></path> <path d="M118.312745,282.380434 C110.312194,250.481282 107.814694,217.021756 103.578844,188.48568 C103.578844,188.48568 87.6040685,174.529154 73.9013429,178.239855 C60.1988424,181.95078 64.5748676,185.268855 66.4371926,194.31498 C67.9145427,201.490906 92.7682687,264.466158 100.610869,285.627409 C109.200244,327.127985 114.77372,334.692936 132.498095,377.344387 L145.331871,373.868812 C136.20452,348.019911 125.89952,312.62876 118.312745,282.380434" id="Fill-63" fill="#456A97" mask="url(#mask-10)"></path> <path d="M80.5367057,279.684596 C78.3348556,286.007096 72.5026304,290.118297 68.1419052,296.881347 C53.0617296,320.268523 36.4173539,348.638549 25.3811035,370.487175 L14.0577531,363.518024 C30.4040037,325.589998 39.2190541,301.762047 61.1819799,270.956621 C63.16018,266.866121 83.9567058,269.863346 80.5367057,279.684596" id="Fill-64" fill="#40628C" mask="url(#mask-10)"></path> <path d="M72.9436079,145.392778 C72.9436079,145.392778 102.113509,146.153278 106.964284,145.775278 C106.964284,145.775278 106.942234,151.634954 107.070034,156.343079 C107.070034,156.343079 96.8248838,158.410379 71.7598829,153.576704 L72.9436079,145.392778 Z" id="Fill-65" fill="#AD4537" mask="url(#mask-10)"></path> <path d="M88.7801885,174.607184 C92.4929137,175.888334 95.4341138,172.656659 97.1789889,169.784759 C99.1909389,166.474109 100.126039,162.606809 99.947614,158.745359 C99.929389,158.349809 99.3164889,158.397959 99.3347139,158.793059 C99.486139,162.067709 98.8122639,165.325034 97.3283889,168.253184 C95.8514888,171.167609 92.8715887,175.373309 89.0481635,174.053909 C88.6782635,173.926334 88.4069135,174.478259 88.7801885,174.607184" id="Fill-66" fill="#CCCCCC" mask="url(#mask-10)"></path> </g> </g> </g> </g> </g> </g> </svg> 