<?xml version="1.0" encoding="UTF-8"?> <svg xmlns="http://www.w3.org/2000/svg" xmlns:xlink="http://www.w3.org/1999/xlink" width="359px" height="236px" viewBox="0 0 359 236"> <!-- Generator: Sketch 57.1 (83088) - https://sketch.com --> <title>Group 129</title> <desc>Created with Sketch.</desc> <defs> <polygon id="path-1" points="0.604282107 0.350159091 57.2291154 0.350159091 57.2291154 212.784095 0.604282107 212.784095"></polygon> </defs> <g id="Page-1" stroke="none" stroke-width="1" fill="none" fill-rule="evenodd"> <g id="mark" transform="translate(-686.000000, -5491.000000)"> <g id="Group-11-Copy-8" transform="translate(197.000000, 5490.000000)"> <g id="Group-129" transform="translate(489.000000, 1.000000)"> <path d="M46.7248866,229.157228 C46.7248866,229.157228 -37.3888097,176.423548 20.0964711,119.893366 C77.5817518,63.3631835 154.509183,5.56642601 206.077217,27.9264731 C257.643637,50.2849087 253.006712,78.5508056 309.64598,119.472786 C366.285248,160.393154 353.181736,192.876134 343.037654,209.32872 C332.893573,225.781306 331.203162,230 331.203162,230 L46.7248866,229.157228 Z" id="Fill-1" fill="#E7F3FE"></path> <path d="M235.65501,228 L169.927712,228 C168.317631,228 167,226.656349 167,225.012469 L167,215.989172 C167,214.345291 168.317631,213 169.927712,213 L235.65501,213 C239.694674,213 243,216.374713 243,220.50082 C243,224.625287 239.694674,228 235.65501,228" id="Fill-3" fill="#F37168"></path> <path d="M235.495999,213 L183.796064,213 C182.807659,213 182,212.192767 182,211.20651 L182,205.791863 C182,204.807233 182.807659,204 183.796064,204 L235.495999,204 C237.972711,204 240,206.024593 240,208.5 C240,210.975407 237.972711,213 235.495999,213" id="Fill-5" fill="#7BCEE8"></path> <path d="M113.709857,124.453039 C109.663862,144.95073 98.8809422,190.749928 93.4094901,213.750857 C91.5792734,221.442152 96.0476259,229.222617 103.549275,231.416192 C111.506878,233.742712 119.77645,228.898363 121.760251,220.74987 L143.64126,130.818137 C145.527471,122.100579 139.776047,113.574331 131.076118,112.189768 L131.074518,112.189768 C122.976129,110.90086 115.317696,116.307789 113.709857,124.453039" id="Fill-7" fill="#007DDC"></path> <path d="M74.1578946,129.544917 L74.1578946,129.544917 C77.60974,128.055261 81.5826185,129.72459 83.0297567,133.275589 L89.4711891,149.331856 C90.9183273,152.882856 89.2932754,156.966342 85.84143,158.455998 C82.3895847,159.94402 78.4167061,158.274691 76.969568,154.725325 L70.529724,138.667424 C69.0809974,135.118058 70.7060493,131.032939 74.1578946,129.544917" id="Fill-9" fill="#F3A396"></path> <path d="M65.6749243,137.325085 C68.7804879,139.419409 70.917167,139.332894 70.917167,139.332894 C72.1154397,142.422961 75.6156152,143.856177 78.5816209,142.470299 L80.6814054,141.49088 C83.4260435,140.209474 84.7093342,136.96923 83.6041001,134.109326 L83.5399356,133.94609 C83.5399356,133.94609 82.6961719,125.159069 77.6015076,115.887237 C71.0182261,103.908943 62.4666974,101.447337 58.9697301,103.807736 C55.6668606,106.035915 62.715335,120.550903 65.2674795,125.970355 L59.8824707,122.40527 C59.1975142,121.953105 58.3056272,122.00534 57.6768147,122.532594 C57.001483,123.100657 56.8057811,124.071914 57.2068095,124.865244 L60.3861623,131.153113 C61.6309543,133.616352 63.4067079,135.795559 65.6749243,137.325085" id="Fill-11" fill="#F3A396"></path> <path d="M120.816114,212.359605 L92.9556032,138 L65,147.73641 L93.5648404,223.727391 C96.7496355,231.642882 105.91398,235.226399 113.584244,231.5554 C120.725857,228.137126 123.917099,219.672443 120.816114,212.359605" id="Fill-13" fill="#007DDC"></path> <polygon id="Fill-15" fill="#007DDC" points="150.658459 100 165.620077 100.213754 180.187198 100 209 113.147513 205.439797 228 165.620077 228 125.40586 228 125 112.844694"></polygon> <path d="M160,120 L160,228" id="Stroke-17" stroke="#005F99" stroke-width="0.719"></path> <path d="M163,132.499284 C163,133.328401 163.67192,134 164.5,134 C165.32808,134 166,133.328401 166,132.499284 C166,131.671599 165.32808,131 164.5,131 C163.67192,131 163,131.671599 163,132.499284" id="Fill-19" fill="#289DE5"></path> <path d="M163,152.5 C163,153.32808 163.67192,154 164.5,154 C165.32808,154 166,153.32808 166,152.5 C166,151.67192 165.32808,151 164.5,151 C163.67192,151 163,151.67192 163,152.5" id="Fill-21" fill="#289DE5"></path> <path d="M163,172.500716 C163,173.328401 163.67192,174 164.5,174 C165.32808,174 166,173.328401 166,172.500716 C166,171.671599 165.32808,171 164.5,171 C163.67192,171 163,171.671599 163,172.500716" id="Fill-23" fill="#289DE5"></path> <path d="M163,192.5 C163,193.32808 163.67192,194 164.5,194 C165.32808,194 166,193.32808 166,192.5 C166,191.67192 165.32808,191 164.5,191 C163.67192,191 163,191.67192 163,192.5" id="Fill-25" fill="#289DE5"></path> <path d="M163,212.5 C163,213.32808 163.67192,214 164.5,214 C165.32808,214 166,213.32808 166,212.5 C166,211.67192 165.32808,211 164.5,211 C163.67192,211 163,211.67192 163,212.5" id="Fill-27" fill="#289DE5"></path> <path d="M126,202 L126,145" id="Stroke-29" stroke="#005F99" stroke-width="0.719"></path> <polygon id="Fill-31" fill="#007DDC" points="142 102.691671 149 100 148.731143 107"></polygon> <path d="M166.86099,116.000778 L166.86099,116.000778 C174.945678,112.978569 179.034989,104.011771 175.995133,95.9740162 L164.277842,65 L135,75.9456445 L146.717291,106.919661 C149.757147,114.959026 158.776303,119.022987 166.86099,116.000778" id="Fill-33" fill="#F3A396"></path> <path d="M166,68 C166,68 165.294712,87.1867751 154.111087,91.1433341 C139.69747,96.2427934 136,76.9101836 136,76.9101836 C136,76.9101836 146.001086,86.39261 154.785427,83.1890019 C164.581279,79.6176367 166,68 166,68" id="Fill-35" fill="#1A1A1A"></path> <polygon id="Fill-37" fill="#007DDC" points="194 111.259799 171.535051 99 164.730005 118.171025 148.297356 106.808363 139 132"></polygon> <path d="M164,117.006904 L168.257704,101.754628 C168.69532,99.3285277 169.684068,97.0074945 171.151561,94.9539055 L173.895708,91.1205394 C174.476453,90.3086554 175.498105,89.8820183 176.509886,90.0284758 L181.034108,90.6843507 C182.078792,90.8371759 182.911249,91.5694635 183.144863,92.5421324 L185.961397,104.304899 C186.239431,105.467008 184.962778,106.441268 183.827609,105.936627 L172.523635,100.89817 C171.893534,100.617991 171.1384,100.960255 170.962367,101.604987 L164.774876,119 L164,117.006904 Z" id="Fill-39" fill="#289DE5"></path> <path d="M164.232899,118.070591 L142.799676,103.284849 C142.205214,102.879894 142.172641,102.850502 141.669383,103.567337 L139.418569,106.779215 C138.899025,107.51891 138.859937,108.596612 139.319221,109.50776 L143.167755,121.174698 C143.716614,122.262197 145.061891,122.278526 145.418569,121.202457 L148.27036,110.787939 C148.467428,110.191937 149.120523,110.013953 149.617265,110.422174 L165,120.114958 L164.232899,118.070591 Z" id="Fill-41" fill="#289DE5"></path> <path d="M111.123547,41.570341 C110.66496,36.7755726 111.107512,29.593159 119.132777,21.3086303 C132.390096,7.61740796 146.829159,20.4759573 146.829159,20.4759573 C150.982093,18.3496382 155.152665,18.5233147 158.782874,21.9546418 C162.182187,25.1700907 163.049653,33.3198983 163.426464,36.1295612 L166,53.8818907 L157.108873,39.4488913 C150.254127,30.3398054 144.080846,27.9164509 144.080846,27.9164509 L128.945887,32.3005637 L124.430573,68 L114.856377,51.5380703 C113.640962,49.4490835 112.635599,47.2334915 111.915651,44.9205108 C111.498754,43.5830399 111.202116,42.3965214 111.123547,41.570341" id="Fill-43" fill="#1A1A1A"></path> <path d="M125.577068,62.8971045 C125.577068,62.8971045 122.481193,60.4795277 119.055599,63.5817857 C115.63159,66.6856739 121.086226,75.9647347 127.544287,74.9181505 C127.544287,74.9181505 129.868175,74.567659 131,72.4043923 C131,72.4043923 126.832537,65.6048557 125.577068,62.8971045" id="Fill-45" fill="#E88E85"></path> <path d="M164,48.8748226 C164,48.8748226 165.240707,44.8620913 169.667231,45.0036597 C174.274658,45.1517369 176.136519,55.6749865 170.554137,59.2565037 C170.554137,59.2565037 168.564202,60.5680453 166.303713,59.7072444 C166.303713,59.7072444 164.798855,51.7566341 164,48.8748226" id="Fill-47" fill="#F3A396"></path> <path d="M170,49 C170,49 166.486506,49.1419458 166,55" id="Stroke-49" stroke="#D26665" stroke-width="0.497" stroke-linecap="round" stroke-linejoin="round"></path> <path d="M166,52 C166,52 169.961625,52.5248023 168.779886,56" id="Stroke-51" stroke="#D26665" stroke-width="0.497" stroke-linecap="round" stroke-linejoin="round"></path> <path d="M118.634334,54.9618209 C120.85021,60.9092455 126.071748,73.1296718 132.452385,79.141567 C138.442925,84.7827556 145.466261,86.3800179 152.932454,83.8028006 C160.398646,81.2255833 164.8288,76.2726197 165.879183,65.6027144 C166.929565,54.9328091 160.785545,39.1068574 160.785545,39.1068574 C160.785545,39.1068574 152.862108,17.8621411 132.035109,25.7598052 C110.100172,34.0765289 118.634334,54.9618209 118.634334,54.9618209" id="Fill-53" fill="#F3A396"></path> <path d="M113.716735,35.9774379 C114.328813,35.9528114 130.047372,24.2092463 130.047372,24.2092463 L147.207999,23.073143 L147.207999,23.0977695 C162.123805,21.6349544 160.979764,37.0708553 160.979764,37.0708553 C151.250601,36.9904087 149.182032,31.4116817 146.538238,27.4927819 C145.293251,31.7613782 136.397285,42.0880977 124.703703,46.3320675 C112.729718,50.6778268 113.000507,45.1582035 113.000507,45.1582035 C113.000507,45.1582035 113.104657,36.0020644 113.716735,35.9774379" id="Fill-55" fill="#1A1A1A"></path> <path d="M134,55 L137.759609,64.8979234 C137.842854,65.1182511 137.966872,65.3133503 138.118072,65.4764937 C138.712678,66.1223395 139.7354,66.159341 140.454024,65.6497283 L142,64.5598635" id="Stroke-57" stroke="#D26665" stroke-width="0.497" stroke-linecap="round" stroke-linejoin="round"></path> <path d="M144.128337,52.7038403 C144.516596,53.7376753 145.670715,54.2599218 146.70455,53.8716628 C147.738385,53.4834037 148.260632,52.3292845 147.87085,51.2954496 C147.482591,50.2616146 146.329995,49.7393681 145.29616,50.1291497 C144.262325,50.5158862 143.740078,51.6700054 144.128337,52.7038403" id="Fill-59" fill="#1A1A1A"></path> <path d="M140.479821,49 L139,45.5371014 L145.98911,43.2205416 C146.871557,42.9279864 147.834081,42.9264938 148.718129,43.2160637 L154,44.9475131 L147.821268,46.1863949 L140.479821,49 Z" id="Fill-61" fill="#1A1A1A"></path> <path d="M130.871686,58.2959296 C131.259876,59.3311034 130.737722,60.4834954 129.70407,60.8716855 C128.670419,61.2598757 127.516505,60.7377219 127.128314,59.7040704 C126.740124,58.6704189 127.262278,57.5165046 128.29593,57.1283145 C129.329581,56.7401243 130.483495,57.2622781 130.871686,58.2959296" id="Fill-63" fill="#1A1A1A"></path> <path d="M130,52.6591087 L128.649533,49 L123.342679,51.0625489 C122.672897,51.3236904 122.140187,51.8678655 121.833333,52.6028147 L120,57 L124.186916,54.5152463 L130,52.6591087 Z" id="Fill-65" fill="#1A1A1A"></path> <path d="M143.733387,66.0617276 C144.30957,66.268945 145.086784,66.4305044 145.792766,66.5112841 C146.517743,66.5920638 147.250635,66.5990881 147.980361,66.5323571 C149.442979,66.4129436 150.877104,65.9212412 152.175098,65.0906152 L152.190927,65.0800787 C152.448943,64.9150072 152.77819,65.0133477 152.928568,65.2995888 C153.061533,65.5577326 153.002965,65.8790952 152.801934,66.0617276 C151.511854,67.2365452 149.94793,68.1040488 148.290613,68.5413128 C147.462746,68.7696032 146.615884,68.9136018 145.761107,68.9697964 C144.887336,69.0207227 144.084796,69.0207227 143.114466,68.8626755 C142.402152,68.7450181 141.908281,68.0092205 142.014337,67.2189844 C142.117226,66.4287483 142.78047,65.8790952 143.494367,65.9967526 C143.565598,66.0090452 143.635246,66.0248499 143.701729,66.049435 L143.733387,66.0617276 Z" id="Fill-67" fill="#1A1A1A"></path> <path d="M139.743975,69.9179788 C139.191211,70.6075922 138.656543,71.0972952 138.041263,71.6024952 C137.432565,72.0906485 136.774512,72.5214632 136.076976,72.8840914 C135.384375,73.2513686 134.634195,73.5303134 133.869209,73.7224753 C133.107513,73.9332336 132.307978,73.9828238 131.534766,73.9998704 C131.245223,74.0060692 131.006679,73.7891121 131.000099,73.5163662 C130.995163,73.274614 131.176128,73.0685049 131.419607,73.0235638 L131.468961,73.0127159 C132.140175,72.8871908 132.798228,72.7415196 133.401991,72.4610252 C134.009045,72.1975773 134.581551,71.8721418 135.096477,71.4738707 C135.616339,71.083348 136.091782,70.6432352 136.516226,70.1612806 C136.927509,69.694823 137.342082,69.1322844 137.585562,68.6735752 L137.593787,68.659628 C137.908008,68.0691949 138.672994,67.8305422 139.298144,68.1280833 C139.926585,68.4240747 140.179935,69.1431323 139.86407,69.735115 C139.831167,69.7971027 139.786748,69.8621898 139.743975,69.9179788" id="Fill-69" fill="#1A1A1A"></path> <path d="M148,70 L138,74" id="Stroke-71" stroke="#D26665" stroke-width="0.497" stroke-linecap="round" stroke-linejoin="round"></path> <path d="M147,74 C147,74 145.222772,75.6087719 142,76" id="Stroke-73" stroke="#D26665" stroke-width="0.373" stroke-linecap="round" stroke-linejoin="round"></path> <polygon id="Fill-75" fill="#1A1A1A" points="156 32.4657318 162.058316 50 164 46.5983929 159.995072 30"></polygon> <polygon id="Fill-77" fill="#04162E" points="71 139.408146 83.3524819 134 85 138.569883 72.652203 144"></polygon> <path d="M75,136.99916 C75,140.315237 77.686066,143 81,143 C84.313934,143 87,140.315237 87,136.99916 C87,133.684763 84.313934,131 81,131 C77.686066,131 75,133.684763 75,136.99916" id="Fill-79" fill="#04162E"></path> <path d="M212.557981,115.060574 C227.080756,126.730575 260.744829,151.803585 277.692937,164.365078 C283.35854,168.562989 284.686466,176.44294 280.712427,182.251341 C276.498127,188.412792 267.968878,189.857234 261.934768,185.433629 L195.338768,136.606307 C189.04654,131.737761 188.184524,122.613268 193.455645,116.666227 C198.363129,111.133495 206.786858,110.422559 212.557981,115.060574" id="Fill-81" fill="#007DDC"></path> <path d="M194.709087,221.788316 L194.709087,221.788316 C196.295221,224.718138 200.036287,225.851045 203.063918,224.313754 L216.682568,217.300747 C219.710198,215.765029 220.878672,212.142875 219.290913,209.213052 C217.704779,206.281657 213.963713,205.150323 210.936082,206.684468 L197.317432,213.697475 C194.289802,215.234766 193.121328,218.85692 194.709087,221.788316" id="Fill-83" fill="#F3A396"></path> <path d="M193.684912,211.070982 C197.03233,211.428944 198.470649,212.732714 198.470649,212.732714 C201.05183,211.292655 204.298598,212.338627 205.581071,215.023342 L206.488543,216.92481 C207.673613,219.41084 206.733674,222.397688 204.347299,223.734299 L204.209312,223.811474 C204.209312,223.811474 198.652468,229.399294 189.861843,232.847553 C178.501401,237.304016 171.158835,234.026528 170.05818,230.359881 C169.020838,226.895202 182.136158,220.954346 186.978713,218.68999 L181.212452,218.020043 C180.48193,217.936299 179.889394,217.381294 179.751407,216.64895 C179.600432,215.862418 180.014395,215.075887 180.741671,214.76226 L186.511178,212.263094 C188.772552,211.282803 191.240096,210.809899 193.684912,211.070982" id="Fill-85" fill="#F3A396"></path> <path d="M273.887383,191.904749 L212.70708,227 L199,204.401641 L261.585951,168.591314 C268.25191,164.977191 276.573089,167.742261 279.769207,174.628304 C282.743126,181.039781 280.152419,188.657042 273.887383,191.904749" id="Fill-87" fill="#007DDC"></path> <g id="Group-91" transform="translate(16.000000, 228.000000)" fill="#2E5B9A"> <path d="M3.5028,7.33366667 C1.56756923,7.33366667 0.000646153846,5.71533333 0.000646153846,3.72033333 C0.000646153846,1.72533333 1.56756923,0.107 3.5028,0.107 L323.335338,0.107 C325.268954,0.107 326.837492,1.72533333 326.837492,3.72033333 C326.837492,5.71533333 325.268954,7.33366667 323.335338,7.33366667 L3.5028,7.33366667 Z" id="Fill-89"></path> </g> <path d="M232.738745,217 L166.733534,217 C166.271858,217.790213 166,218.70772 166,219.691354 L166,224.308646 C166,225.29228 166.271858,226.21144 166.733534,227 L232.738745,227 C235.082516,227 237,225.029426 237,222.620764 L237,221.377583 C237,218.96892 235.082516,217 232.738745,217" id="Fill-92" fill="#F2E5DE"></path> <path d="M231.760455,207 L181.558878,207 C181.20633,207.4739 181,208.02487 181,208.613556 L181,211.386444 C181,211.97513 181.20633,212.5261 181.558878,213 L231.760455,213 C233.542692,213 235,211.81771 235,210.373053 L235,209.628587 C235,208.18229 233.542692,207 231.760455,207" id="Fill-94" fill="#F2E5DE"></path> <path d="M311.971964,219 C319.310927,178.94 317.704105,164.611805 298.046168,131.913465 C278.386604,99.2151254 276.509536,38.3656398 269.100569,56.2127278 C261.689975,74.0598159 262.686303,118.877528 285.911157,140.62892 C309.136012,162.377073 312.261746,172.11597 313.640651,180.970691 C315.021183,189.822173 310.324442,217.030845 310.324442,217.030845 L311.971964,219 Z" id="Fill-96" fill="#9CD499"></path> <path d="M314.966274,193 C314.977516,192.846323 314.988758,192.695881 315,192.542203 C314.574404,189.258363 312.272972,172.373274 309.088228,165.711768 C305.553371,158.317465 290.052034,145.442544 285.701316,129.280548 C281.348993,113.120169 274.452729,100.594662 269.928561,90.3856375 C263.954155,76.9057138 267.220806,58.9885609 272.159328,53.1682362 C272.038876,53.0873534 271.918424,53.0339708 271.797973,53 L270.156617,53.9980935 C269.798473,54.5189786 269.429088,55.2356 269.045249,56.1738402 C261.73463,74.0020221 262.717517,118.772257 285.629045,140.500607 C308.540574,162.227338 311.624139,171.954301 312.986047,180.799642 C313.35222,183.184066 313.283161,186.904674 312.986047,191.066902 L314.966274,193 Z" id="Fill-98" fill="#74B570"></path> <g id="Group-102" transform="translate(293.000000, 0.000000)"> <mask id="mask-2" fill="white"> <use xlink:href="#path-1"></use> </mask> <g id="Clip-101"></g> <path d="M8.54082222,210.981664 C13.9444889,164.071641 12.1432667,147.832005 1.69521111,110.303664 C-8.75284444,72.7769364 59.3407667,-12.7425636 57.1786556,2.04964091 C55.0165444,16.8450727 47.8116556,53.6521182 29.0776556,76.7464818 C10.3420444,99.8408455 8.9001,118.604209 12.5041556,138.451936 C16.1066,158.29805 11.7823778,204.486777 11.7823778,204.486777 L9.62026667,212.784095 L8.54082222,210.981664 Z" id="Fill-100" fill="#9CD499" mask="url(#mask-2)"></path> </g> <path d="M304.130162,192 L304.112384,192 C303.861882,191.990312 303.666329,191.780407 303.676026,191.530135 C303.682491,191.384816 304.220666,176.915878 303.949154,165.038464 C303.679258,153.148132 300.455057,132.777624 298.493061,125.779702 C296.707225,119.408267 294.460789,98.0382867 305.364894,75.9707745 C310.796744,64.9781921 315.131235,58.02871 321.131967,48.4102005 C327.061589,38.9047169 334.44089,27.0725131 346.149833,6.23052528 C346.27266,6.01254663 346.54902,5.93504312 346.767199,6.05937168 C346.986994,6.18047092 347.064569,6.45657721 346.941742,6.67617051 C335.221486,27.5359195 327.835721,39.3761966 321.90125,48.8897535 C315.915063,58.4872725 311.59027,65.4189934 306.177813,76.372824 C295.399767,98.1836058 297.607416,119.256489 299.367394,125.535889 C301.339086,132.575792 304.584298,153.065785 304.857425,165.017473 C305.127321,176.922336 304.58753,191.420338 304.582681,191.564043 C304.572985,191.809471 304.372583,192 304.130162,192" id="Fill-103" fill="#74B570"></path> <path d="M303.452395,228.637064 C306.712051,197.115114 307.257756,212.661406 293.722008,169.831735 C278.231763,120.811092 333.508265,77.2928157 342.560164,95.0475078 C351.613683,112.80058 362.114858,168.598726 358.131375,166.787287 C354.14951,164.975848 327.714401,113.161895 326.990573,115.33627 C326.265126,117.510644 291.14084,135.628272 292.590116,154.105595 C294.037772,172.584539 307.435879,201.933735 307.435879,201.933735 L307.073155,229 L303.452395,228.637064 Z" id="Fill-105" fill="#9CD499"></path> <path d="M303.426174,226.777462 L306.10539,227.044639 L306.460564,201.413444 C305.623715,199.564254 292.993126,171.373016 291.593511,153.556347 C290.451763,139.02191 311.251365,124.934387 321.248149,118.165899 C323.622466,116.557978 325.865417,115.039116 326.073008,114.619729 C326.139502,114.420561 326.314656,114.276447 326.527112,114.257016 C327.40775,114.174434 329.1447,117.035658 338.971194,134.653158 C346.022786,147.296305 355.661152,164.578619 357.831122,165.755818 C357.996546,165.485403 358.491195,163.998926 357.531089,156.354421 C356.836958,150.826282 355.565465,143.552587 353.948529,135.872458 C350.099995,117.582967 345.516784,102.195182 341.690955,94.7045057 C339.582613,90.5818812 334.54692,89.781969 327.876451,92.513653 C309.798231,99.9104122 282.099486,132.73596 293.615897,169.099581 C297.250354,180.576864 299.819288,187.657868 301.695712,192.828151 C305.926991,204.485171 305.926991,204.485171 304.383037,218.072344 C304.102465,220.553044 303.784592,223.349498 303.426174,226.777462 M306.553007,228 C306.538411,228 306.523814,228 306.507596,227.998381 L302.881248,227.635668 C302.761235,227.622713 302.649331,227.56442 302.574728,227.472123 C302.496882,227.376587 302.461202,227.256762 302.474176,227.136937 C302.852056,223.49847 303.199122,220.433219 303.479693,217.970331 C304.997699,204.595281 304.997699,204.595281 300.839401,193.137429 C298.961355,187.95905 296.387556,180.86833 292.748234,169.373235 C290.025229,160.776608 289.321367,151.867464 290.65611,142.89355 C291.835159,134.981867 294.553299,127.181913 298.74079,119.710669 C305.922126,106.8975 317.222838,95.89142 327.531007,91.6716401 C334.694504,88.7407877 340.151865,89.6945292 342.500234,94.2915956 C346.348768,101.822753 350.951441,117.242923 354.809706,135.54213 C357.036439,146.102914 360.309234,164.492799 358.45065,166.434286 C358.197649,166.696606 357.844096,166.762995 357.501896,166.607547 C355.325439,165.619801 348.119775,152.924838 338.176511,135.095215 C333.191094,126.156925 328.048362,116.933645 326.658478,115.343536 C326.098957,115.962092 324.686368,116.935265 321.759016,118.918853 C311.904951,125.591805 291.400517,139.476921 292.500098,153.4851 C293.928905,171.659624 307.196862,200.836989 307.32985,201.128455 C307.35742,201.189987 307.372016,201.256376 307.372016,201.324385 L307.008733,227.553085 C307.007111,227.679387 306.95197,227.800832 306.856284,227.885033 C306.77195,227.959519 306.664911,228 306.553007,228" id="Fill-107" fill="#74B570"></path> <path d="M314.207519,229 L297.791247,229 C296.66372,229 295.654284,228.365385 295.547517,227.572115 L290.032827,186.491987 C289.777233,184.596154 291.042263,183 292.849218,183 L319.149548,183 C320.956503,183 322.221533,184.596154 321.967556,186.491987 L316.451249,227.572115 C316.344482,228.365385 315.336663,229 314.207519,229" id="Fill-109" fill="#7BCEE8"></path> <path d="M312.204116,228 L309.961741,228 C308.864474,228 307.983265,227.328538 308.000241,226.490437 L308.793483,190.314831 C308.832065,188.514464 310.227184,187 311.889289,187 L315.290662,187 C316.95431,187 318.162693,188.514464 317.98213,190.314831 L314.349266,226.490437 C314.265929,227.328538 313.301383,228 312.204116,228" id="Fill-111" fill="#A2DFF2"></path> <path d="M295.655106,170 L296,169.484226 C294.734104,165.559719 293.676301,161.651743 293,158 C293.697495,164.906736 295.655106,170 295.655106,170" id="Fill-113" fill="#74B570"></path> <path d="M295.080374,139.727233 C294.009355,142.421642 293.358629,145.227161 293,148 C297.860157,131.931584 324.929362,117.428506 326.688431,114.980826 L327,114.366455 C316.833429,111.507015 300.575029,125.892447 295.080374,139.727233" id="Fill-115" fill="#74B570"></path> <path d="M357.543252,166 C357.338577,166 357.15177,165.860815 357.101414,165.655275 L352.177844,145.696812 C348.332879,130.059554 343.547383,110.596331 338.177102,101.932883 C337.291801,100.50381 333.424094,98.5730246 327.944978,98.9582106 C320.540943,99.4793446 306.268925,104.577395 293.874719,132.843252 C293.772382,133.07145 293.504355,133.176648 293.27369,133.076305 C293.043024,132.977581 292.937438,132.708922 293.038151,132.479105 C305.625661,103.774654 320.271292,98.5892089 327.881626,98.0518906 C333.800956,97.6375728 337.920446,99.7900829 338.953567,101.455446 C344.400195,110.241895 349.002133,128.96226 353.063144,145.481561 L357.986714,165.436787 C358.046817,165.68117 357.897372,165.927171 357.652087,165.987053 C357.61635,165.996763 357.578989,166 357.543252,166" id="Fill-117" fill="#74B570"></path> <path d="M343.090111,140 C343.071282,140 343.052452,140 343.033623,139.996753 C342.770015,139.96753 342.581723,139.741861 342.612535,139.49184 C342.631364,139.327865 344.575903,122.871932 340.01411,105.566902 C339.950775,105.323375 340.106544,105.074977 340.363305,105.013284 C340.62349,104.953214 340.881963,105.102577 340.947009,105.346104 C345.551596,122.818357 343.586516,139.430147 343.565975,139.597369 C343.536875,139.829531 343.329755,140 343.090111,140" id="Fill-119" fill="#74B570"></path> <path d="M338.481599,130 C338.462742,130 338.443885,129.998358 338.425027,129.996716 C338.161023,129.965523 337.972449,129.737317 338.003306,129.486125 C338.022164,129.331799 339.868478,114.094515 338.582744,101.507051 C338.557029,101.252576 338.750746,101.027653 339.01475,101.003027 C339.27704,100.973475 339.51533,101.16392 339.541044,101.416753 C340.837064,114.106007 338.97875,129.438514 338.958178,129.592841 C338.930749,129.827614 338.723317,130 338.481599,130" id="Fill-121" fill="#74B570"></path> <path d="M320.459748,49 C320.289383,49 320.123932,48.9065701 320.045302,48.7482142 C319.935547,48.5265161 320.032197,48.2604782 320.259897,48.1543798 C320.392585,48.0942046 333.535293,41.8803216 341.13621,28.2347993 C341.255794,28.0178518 341.535914,27.9370903 341.758699,28.0526901 C341.981485,28.1698734 342.065029,28.4406619 341.945446,28.6544422 C334.197097,42.5660024 320.793927,48.8939016 320.6596,48.9572439 C320.595713,48.985748 320.526912,49 320.459748,49" id="Fill-123" fill="#74B570"></path> <path d="M311.444447,65 C311.238139,65 311.052462,64.8583198 311.009613,64.6512488 C310.95883,64.4145963 311.114354,64.1857283 311.355576,64.1343498 C311.460317,64.1156667 321.888382,61.9219596 334.274785,52.097764 C334.46681,51.9451853 334.746119,51.9747669 334.901643,52.1615979 C335.05558,52.3499858 335.025428,52.6255615 334.83499,52.7750263 C322.266084,62.7455729 311.641233,64.9688615 311.534905,64.9906585 C311.504752,64.9968862 311.474599,65 311.444447,65" id="Fill-125" fill="#74B570"></path> <path d="M303.737025,81 C303.554247,81 303.444581,80.99381 303.412794,80.990715 C303.168031,80.972145 302.983664,80.7663275 303.001147,80.5249176 C303.02022,80.2866026 303.236374,80.1070927 303.479547,80.1256627 C303.551069,80.1303052 310.749314,80.5125376 322.286533,72.0864017 C322.483615,71.9424843 322.763343,71.9827193 322.911155,72.1746092 C323.058966,72.3664992 323.017642,72.6388591 322.82215,72.7812291 C312.227426,80.5171801 305.294605,81 303.737025,81" id="Fill-127" fill="#74B570"></path> </g> </g> </g> </g> </svg> 