<?xml version="1.0" encoding="UTF-8"?> <svg xmlns="http://www.w3.org/2000/svg" xmlns:xlink="http://www.w3.org/1999/xlink" width="211px" height="344px" viewBox="0 0 211 344"> <!-- Generator: Sketch 57.1 (83088) - https://sketch.com --> <title>Group 28</title> <desc>Created with Sketch.</desc> <defs> <polygon id="path-1" points="0.854320496 0.400405498 51.3977803 0.400405498 51.3977803 4.94999998 0.854320496 4.94999998"></polygon> <polygon id="path-3" points="0.873773996 0.258290999 57.5972097 0.258290999 57.5972097 5.36372097 0.873773996 5.36372097"></polygon> <polygon id="path-5" points="0 0.164438437 72.8522396 0.164438437 72.8522396 60.1158173 0 60.1158173"></polygon> </defs> <g id="Page-1" stroke="none" stroke-width="1" fill="none" fill-rule="evenodd"> <g id="mark" transform="translate(-707.000000, -4138.000000)"> <g id="Group-11-Copy-6" transform="translate(197.000000, 4138.000000)"> <g id="Group-28" transform="translate(510.000000, 0.000000)"> <g id="Group-9" transform="translate(32.000000, 193.000000)"> <polygon id="Fill-1" fill="#D0D0D0" points="32 12.4340009 44.136749 145 48 144.703575 37.6458314 12"></polygon> <polygon id="Fill-2" fill="#D0D0D0" points="0 144.703575 3.86361096 145 16 12.4340009 10.3536426 12"></polygon> <polygon id="Fill-3" fill="#D0D0D0" points="8 53 75 53 75 48 8 48"></polygon> <polygon id="Fill-4" fill="#D0D0D0" points="8 96 76 96 76 91 8 91"></polygon> <polygon id="Fill-5" fill="#B3B3B3" points="67 12.4340009 79.136389 145 83 144.703575 72.647848 12"></polygon> <polygon id="Fill-6" fill="#B3B3B3" points="34 144.703575 37.8621204 145 50 12.4340009 44.352152 12"></polygon> <path d="M5,10.3209586 L5,4.68045113 C5,2.09915414 7.13636628,0 9.76165934,0 L74.2397745,0 C76.8636337,0 79,2.09915414 79,4.68045113 L79,10.3209586 C79,12.9008459 76.8636337,15 74.2397745,15 L9.76165934,15 C7.13636628,15 5,12.9008459 5,10.3209586" id="Fill-7" fill="#FF5F5F"></path> </g> <g id="Group-116"> <path d="M154.562363,228.822906 C162.931823,231.711231 172.037843,226.651836 173.877758,217.823511 C175.303358,210.982116 171.469088,204.111022 165.117743,201.195967 L87.9615986,167.949787 C77.9170586,163.340347 65.7430287,169.066507 62.7388737,179.702077 C59.5669137,190.934617 69.3812787,199.558012 78.4278986,202.655722 L154.562363,228.822906 Z" id="Fill-1" fill="#04162E"></path> <polygon id="Fill-3" fill="#FFFFFF" points="153.946088 322.390974 156.764618 294.979359 143.928278 295.037274 141.084503 322.450374"></polygon> <path d="M154.926337,322.386519 L170.958397,331.116834 L179.982742,332.879529 C184.130347,333.688854 187.247362,337.137024 187.636432,341.344029 L187.819087,343.311654 L137.688457,343.531434 L139.087327,322.459284 L154.926337,322.386519 Z" id="Fill-5" fill="#1A1A1A"></path> <path d="M161.671207,326.580604 C161.671207,326.580604 158.638837,316.997899 162.183532,315.403009 C167.254807,313.122049 166.377172,321.274699 161.671207,326.580604 Z" id="Stroke-7" stroke="#FFFFFF" stroke-width="0.5" stroke-linecap="round" stroke-linejoin="round"></path> <path d="M161.77783,326.513779 C161.77783,326.513779 154.07365,320.058484 151.24918,322.728514 C147.205525,326.546449 155.078995,328.842259 161.77783,326.513779 Z" id="Stroke-9" stroke="#FFFFFF" stroke-width="0.5" stroke-linecap="round" stroke-linejoin="round"></path> <g id="Group-13" transform="translate(136.619999, 338.909173)"> <mask id="mask-2" fill="white"> <use xlink:href="#path-1"></use> </mask> <g id="Clip-12"></g> <polygon id="Fill-11" fill="#FFFFFF" mask="url(#mask-2)" points="0.873625496 4.95044548 51.3977803 4.72918048 51.3784753 0.400405498 0.854320496 0.621670497"></polygon> </g> <path d="M145.015001,213.742286 L138.969566,311.239961 L158.359211,311.216201 L173.973986,217.033046 C175.448591,208.142351 168.590861,200.053556 159.578396,200.053556 C151.871246,200.053556 145.491686,206.048501 145.015001,213.742286" id="Fill-14" fill="#04162E"></path> <path d="M133.884035,86.7312761 C137.09906,102.807886 145.67048,138.731521 150.020045,156.774271 C151.475345,162.806341 147.923225,168.909691 141.959465,170.629321 C135.63485,172.455871 129.060755,168.654271 127.483685,162.262831 L110.09285,91.7223611 C108.593,84.8854211 113.16383,78.1969811 120.079475,77.1099611 C126.51695,76.1001611 132.60545,80.3413211 133.884035,86.7312761" id="Fill-16" fill="#007DDC"></path> <path d="M164.451275,90.1001471 L164.451275,90.1001471 C161.68769,88.9418471 158.508305,90.2427071 157.34852,93.0048071 L152.1926,105.507022 C151.0343,108.269122 152.333675,111.449992 155.09726,112.609777 C157.86233,113.768077 161.041715,112.468702 162.200015,109.705117 L167.355935,97.202902 C168.51572,94.440802 167.21486,91.2599321 164.451275,90.1001471" id="Fill-18" fill="#F3A396"></path> <path d="M171.258515,96.060343 C168.79787,97.692358 167.103485,97.625533 167.103485,97.625533 C166.153085,100.032718 163.37762,101.149438 161.026865,100.068358 L159.360695,99.305068 C157.18517,98.307148 156.16943,95.782648 157.04558,93.555148 L157.094585,93.4274381 C157.094585,93.4274381 157.76432,86.5815881 161.80352,79.3585481 C167.023295,70.0282932 173.80232,68.1111582 176.574815,69.9495882 C179.19287,71.6855532 173.604815,82.9923431 171.582245,87.2141981 L175.85162,84.4387331 C176.393645,84.0853031 177.10199,84.1253981 177.599465,84.5367431 C178.13555,84.9792731 178.28999,85.7351381 177.9722,86.3543831 L175.452155,91.2519131 C174.46463,93.1720181 173.05685,94.867888 171.258515,96.060343" id="Fill-20" fill="#F3A396"></path> <path d="M127.712078,155.000735 L149.694533,96.6283555 L171.752723,104.273135 L149.213393,163.9241 C146.700773,170.13734 139.470308,172.951415 133.417448,170.067545 C127.783358,167.385635 125.266283,160.74026 127.712078,155.000735" id="Fill-22" fill="#007DDC"></path> <polygon id="Fill-24" fill="#007DDC" points="103.921636 67.0318602 92.2005311 67.1996652 80.7897911 67.0318602 58.2207612 77.3555801 61.0095912 167.550025 92.2005311 167.550025 123.703321 167.550025 124.021111 77.1179801"></polygon> <path d="M96.968569,82.9883336 L96.968569,167.758073" id="Stroke-26" stroke="#005F99" stroke-width="1.06771499"></path> <path d="M94.699786,92.2608221 C94.699786,92.9958971 94.104301,93.591382 93.3692261,93.591382 C92.6326661,93.591382 92.0371811,92.9958971 92.0371811,92.2608221 C92.0371811,91.5257471 92.6326661,90.9302621 93.3692261,90.9302621 C94.104301,90.9302621 94.699786,91.5257471 94.699786,92.2608221" id="Fill-28" fill="#289DE5"></path> <path d="M94.699786,108.031819 C94.699786,108.766894 94.104301,109.362379 93.3692261,109.362379 C92.6326661,109.362379 92.0371811,108.766894 92.0371811,108.031819 C92.0371811,107.295259 92.6326661,106.699774 93.3692261,106.699774 C94.104301,106.699774 94.699786,107.295259 94.699786,108.031819" id="Fill-30" fill="#289DE5"></path> <path d="M94.699786,123.801182 C94.699786,124.536257 94.104301,125.131742 93.3692261,125.131742 C92.6326661,125.131742 92.0371811,124.536257 92.0371811,123.801182 C92.0371811,123.066107 92.6326661,122.470622 93.3692261,122.470622 C94.104301,122.470622 94.699786,123.066107 94.699786,123.801182" id="Fill-32" fill="#289DE5"></path> <path d="M94.699786,139.572031 C94.699786,140.307106 94.104301,140.902591 93.3692261,140.902591 C92.6326661,140.902591 92.0371811,140.307106 92.0371811,139.572031 C92.0371811,138.835471 92.6326661,138.239986 93.3692261,138.239986 C94.104301,138.239986 94.699786,138.835471 94.699786,139.572031" id="Fill-34" fill="#289DE5"></path> <path d="M94.699786,155.341543 C94.699786,156.076618 94.104301,156.672103 93.3692261,156.672103 C92.6326661,156.672103 92.0371811,156.076618 92.0371811,155.341543 C92.0371811,154.606468 92.6326661,154.010983 93.3692261,154.010983 C94.104301,154.010983 94.699786,154.606468 94.699786,155.341543" id="Fill-36" fill="#289DE5"></path> <path d="M123.902311,147.733739 L123.902311,102.739725" id="Stroke-38" stroke="#005F99" stroke-width="1.06771499"></path> <path d="M126.419831,201.83912 L89.4700616,201.83912 C73.4884916,201.83912 60.6165117,188.72657 60.9135117,172.74797 L61.0100367,167.55047 L123.469136,167.55047 L126.419831,201.83912 Z" id="Fill-40" fill="#04162E"></path> <polygon id="Fill-42" fill="#007DDC" points="110.975386 69.1889712 105.479401 67.1218512 105.690271 72.4960662"></polygon> <path d="M91.2982451,79.9843271 L91.2982451,79.9843271 C84.9498701,77.5979321 81.7393001,70.5159672 84.1256951,64.1675922 L93.3267551,39.7037023 L116.31604,48.3493723 L107.11498,72.8117771 C104.728585,79.1616371 97.64662,82.3722071 91.2982451,79.9843271" id="Fill-44" fill="#F3A396"></path> <path d="M92.5759391,41.6998393 C92.5759391,41.6998393 93.1268741,57.0918642 101.857189,60.2653092 C113.112004,64.3579692 115.997359,48.8471443 115.997359,48.8471443 C115.997359,48.8471443 108.189229,56.4547992 101.331499,53.8857492 C93.683749,51.0196993 92.5759391,41.6998393 92.5759391,41.6998393" id="Fill-46" fill="#1A1A1A"></path> <polygon id="Fill-48" fill="#007DDC" points="70.5496767 76.1861426 88.1098016 66.6271977 93.4290715 81.5737226 106.274321 72.7156976 113.543396 92.3548226"></polygon> <path d="M93.6889465,80.8840886 L90.3981866,68.6996637 C90.0596066,66.7602537 89.2963166,64.9069737 88.1602916,63.2675337 L86.0397116,60.2039787 C85.5912416,59.5565187 84.8012216,59.2149687 84.0186266,59.3322837 L80.5214516,59.8564887 C79.7136116,59.9767737 79.0706066,60.5618637 78.8909216,61.3400037 L76.7124266,70.7370837 C76.4985866,71.6652087 77.4846266,72.4433487 78.3622616,72.0394287 L87.1000016,68.0150787 C87.5870816,67.7908437 88.1706866,68.0640837 88.3058216,68.5793787 L93.0904916,82.4760086 L93.6889465,80.8840886 Z" id="Fill-50" fill="#289DE5"></path> <path d="M93.686719,80.8883951 L110.422669,69.3737052 C110.885989,69.0574002 110.912719,69.0351252 111.304759,69.5934852 L113.062999,72.0942252 C113.468404,72.6704051 113.498104,73.5094301 113.140219,74.2192601 L110.134579,83.3059751 C109.706899,84.1524251 108.655519,84.1657901 108.377824,83.3282501 L106.151809,75.2171801 C105.997369,74.7523751 105.488014,74.6142701 105.098944,74.9320601 L93.0882641,82.4803151 L93.686719,80.8883951 Z" id="Fill-52" fill="#289DE5"></path> <path d="M135.822257,20.8170269 C136.186082,17.0599769 135.835622,11.4333119 129.470912,4.94237698 C118.955627,-5.78377797 107.504792,4.29194698 107.504792,4.29194698 C104.209577,2.62577699 100.902483,2.76091199 98.0245525,5.44876197 C95.3277925,7.96732196 94.6402375,14.3543069 94.3417525,16.5550769 L92.2998776,30.4635869 L99.3506575,19.1553119 C104.787242,12.0184019 109.683287,10.120572 109.683287,10.120572 L121.688027,13.5553769 L125.268362,41.5253518 L132.862652,28.6266419 C133.824932,26.9901719 134.622377,25.2542069 135.194102,23.4425069 C135.523772,22.3940969 135.759887,21.4659719 135.822257,20.8170269" id="Fill-54" fill="#1A1A1A"></path> <path d="M124.182233,37.8937843 C124.182233,37.8937843 126.665153,36.0063493 129.412403,38.4268993 C132.161138,40.8489343 127.783358,48.0868243 122.603678,47.2700743 C122.603678,47.2700743 120.740003,46.9983193 119.831183,45.3098743 C119.831183,45.3098743 123.175403,40.0054543 124.182233,37.8937843" id="Fill-56" fill="#E88E85"></path> <path d="M94.2553255,26.5379894 C94.2553255,26.5379894 93.2692856,23.4016694 89.7528056,23.5130444 C86.0937656,23.6273894 84.6147056,31.8513193 89.0489156,34.6505443 C89.0489156,34.6505443 90.6304406,35.6751943 92.4258056,35.0039743 C92.4258056,35.0039743 93.6212305,28.7892494 94.2553255,26.5379894" id="Fill-58" fill="#F3A396"></path> <path d="M89.3564591,26.4974489 C89.3564591,26.4974489 92.3784341,26.6117939 92.7957191,31.2806338" id="Stroke-60" stroke="#D26665" stroke-width="0.738044996" stroke-linecap="round" stroke-linejoin="round"></path> <path d="M92.2205786,28.8569654 C92.2205786,28.8569654 88.7115236,29.3202854 89.7584486,32.3942353" id="Stroke-62" stroke="#D26665" stroke-width="0.738044996" stroke-linecap="round" stroke-linejoin="round"></path> <path d="M129.944627,31.6303513 C128.181932,36.3229513 124.029872,45.9665413 118.954142,50.7081463 C114.188777,55.1601762 108.600722,56.4194562 102.663693,54.3864912 C96.7251775,52.3535262 93.2012726,48.4435213 92.3652176,40.0250563 C91.5291626,31.6080763 96.4162975,19.1207114 96.4162975,19.1207114 C96.4162975,19.1207114 102.720123,2.35951649 119.285297,8.58909146 C136.732562,15.1513064 129.944627,31.6303513 129.944627,31.6303513" id="Fill-64" fill="#F3A396"></path> <path d="M133.91819,16.4860244 C133.432595,16.4667194 120.95711,7.36960946 120.95711,7.36960946 L107.338175,6.49048947 L107.338175,6.50979447 C95.4982705,5.37673947 96.4070905,17.3324744 96.4070905,17.3324744 C104.12909,17.2715894 105.770015,12.9487544 107.86832,9.91341445 C108.85733,13.2190244 115.91702,21.2187194 125.19827,24.5050244 C134.70227,27.8715194 134.486945,23.5976894 134.486945,23.5976894 C134.486945,23.5976894 134.403785,16.5038444 133.91819,16.4860244" id="Fill-66" fill="#1A1A1A"></path> <path d="M117.045769,32.0125903 L114.230209,39.4969903 C114.169324,39.6633103 114.075769,39.8103253 113.962909,39.9350653 C113.517409,40.4236303 112.752634,40.4503603 112.215064,40.0657453 L111.056764,39.2400853" id="Stroke-68" stroke="#D26665" stroke-width="0.738044996" stroke-linecap="round" stroke-linejoin="round"></path> <path d="M109.610671,29.9068604 C109.285456,30.7696454 108.323176,31.2062353 107.458906,30.8825054 C106.596121,30.5572904 106.159531,29.5950104 106.484746,28.7307404 C106.808476,27.8664704 107.772241,27.4313654 108.635026,27.7550954 C109.497811,28.0803104 109.934401,29.0425904 109.610671,29.9068604" id="Fill-70" fill="#1A1A1A"></path> <path d="M112.603094,26.7374249 L113.777729,23.7867299 L108.229769,21.8131649 C107.528849,21.5651699 106.764074,21.5636849 106.063154,21.8101949 L101.86803,23.2847999 L106.774469,24.3406349 L112.603094,26.7374249 Z" id="Fill-72" fill="#1A1A1A"></path> <path d="M119.925184,33.7853833 C119.599969,34.6496533 120.036559,35.6119333 120.900829,35.9371483 C121.763614,36.2608783 122.727379,35.8257733 123.051109,34.9615033 C123.376324,34.0972333 122.939734,33.1349533 122.076949,32.8097383 C121.212679,32.4860083 120.250399,32.9225983 119.925184,33.7853833" id="Fill-74" fill="#1A1A1A"></path> <path d="M120.355834,29.6501039 L121.457704,26.6756489 L125.790934,28.3536989 C126.337414,28.5660539 126.772519,29.0070989 127.023484,29.6055539 L128.520364,33.1814338 L125.101894,31.1618338 L120.355834,29.6501039 Z" id="Fill-76" fill="#1A1A1A"></path> <path d="M110.225609,42.5198563 C109.420739,42.6312313 108.773279,42.6208363 108.060479,42.5792563 C107.365499,42.5287663 106.676459,42.4159063 106.005239,42.2406763 C104.661314,41.9035813 103.396095,41.2531513 102.359565,40.3814563 C102.145725,40.2002863 102.11751,39.8810113 102.297195,39.6671713 C102.45609,39.4785763 102.72339,39.4340263 102.93129,39.5498563 L102.947625,39.5602513 C103.991579,40.1408863 105.133544,40.4750113 106.296299,40.5403513 C106.875449,40.5789613 107.457569,40.5655963 108.030779,40.4972863 C108.586169,40.4319463 109.208384,40.3057213 109.646459,40.1512813 C110.283524,39.9240763 110.984444,40.2567163 111.213134,40.8937813 C111.440339,41.5308463 111.107699,42.2332513 110.470634,42.4604563 C110.393414,42.4886713 110.302829,42.5079763 110.225609,42.5198563" id="Fill-78" fill="#1A1A1A"></path> <path d="M114.501518,42.0914338 C114.670808,42.4508038 114.982658,42.9185788 115.287083,43.2987388 C115.603388,43.6922638 115.959788,44.0546038 116.348858,44.3783338 C117.125513,45.0302488 118.064033,45.4787188 119.093138,45.6702838 L119.112443,45.6732538 C119.369348,45.7207738 119.540123,45.9687688 119.491118,46.2271588 C119.451023,46.4513938 119.255003,46.6088038 119.035223,46.6132588 C117.819008,46.6385038 116.561213,46.3296238 115.463798,45.7281988 C114.912863,45.4326838 114.393113,45.0807388 113.911973,44.6783038 C113.421923,44.2610188 113.001668,43.8660088 112.553198,43.2824038 C112.165613,42.7804738 112.257683,42.0602488 112.759613,41.6711788 C113.260058,41.2835938 113.981768,41.3741788 114.370838,41.8761088 C114.419843,41.9414488 114.467363,42.0201538 114.501518,42.0914338" id="Fill-80" fill="#1A1A1A"></path> <path d="M106.657303,43.4748598 L114.217438,46.3186348" id="Stroke-82" stroke="#D26665" stroke-width="0.738044996" stroke-linecap="round" stroke-linejoin="round"></path> <path d="M107.541917,46.7479483 C107.541917,46.7479483 108.911087,47.9136733 111.395492,48.1973083" id="Stroke-84" stroke="#D26665" stroke-width="0.553904997" stroke-linecap="round" stroke-linejoin="round"></path> <polygon id="Fill-86" fill="#1A1A1A" points="99.7471525 13.8517829 95.0575225 28.0038329 93.5547025 25.2580679 96.6538975 11.8618829"></polygon> <polygon id="Fill-88" fill="#04162E" points="167.103634 97.625236 157.045729 93.556336 155.703289 96.994111 165.758224 101.079346"></polygon> <path d="M163.901677,95.780569 C163.901677,98.290219 161.865742,100.326154 159.356092,100.326154 C156.846442,100.326154 154.810507,98.290219 154.810507,95.780569 C154.810507,93.2709191 156.846442,91.2349841 159.356092,91.2349841 C161.865742,91.2349841 163.901677,93.2709191 163.901677,95.780569" id="Fill-90" fill="#04162E"></path> <path d="M178.554469,204.068105 C188.490604,203.98643 196.224484,195.21899 194.859769,185.190785 C193.802449,177.41978 187.170439,171.58967 179.359339,170.88875 L85.2786491,164.66066 C72.9249341,163.55285 62.1972942,174.17357 63.0081042,186.551045 C63.8649492,199.622015 77.4794291,205.06157 88.2115241,204.94574 L178.554469,204.068105 Z" id="Fill-92" fill="#04162E"></path> <polygon id="Fill-94" fill="#FFFFFF" points="172.314944 308.300849 175.477994 277.537589 161.073494 277.602929 157.882229 308.366189"></polygon> <path d="M173.415626,308.296542 L191.407886,318.094572 L201.535586,320.072592 C206.188091,320.979927 209.686751,324.848352 210.124826,329.570652 L210.329756,331.778847 L154.070531,332.025357 L155.640176,308.376732 L173.415626,308.296542 Z" id="Fill-96" fill="#1A1A1A"></path> <path d="M180.984968,313.002358 C180.984968,313.002358 177.581348,302.247989 181.559663,300.458564 C187.251668,297.896939 186.265628,307.047509 180.984968,313.002358 Z" id="Stroke-98" stroke="#FFFFFF" stroke-width="0.5" stroke-linecap="round" stroke-linejoin="round"></path> <path d="M181.104511,312.928405 C181.104511,312.928405 172.457356,305.683091 169.286881,308.679821 C164.751691,312.964045 173.587441,315.542005 181.104511,312.928405 Z" id="Stroke-100" stroke="#FFFFFF" stroke-width="0.5" stroke-linecap="round" stroke-linejoin="round"></path> <g id="Group-104" transform="translate(152.954999, 327.029173)"> <mask id="mask-4" fill="white"> <use xlink:href="#path-3"></use> </mask> <g id="Clip-103"></g> <polygon id="Fill-102" fill="#FFFFFF" mask="url(#mask-4)" points="0.896048996 5.36372097 57.5978037 5.11572598 57.5755287 0.258290999 0.873773996 0.506285998"></polygon> </g> <path d="M162.291937,186.36839 L155.506972,295.78616 L177.266677,295.75943 L194.792647,190.0601 C196.445452,180.08387 188.750182,171.006065 178.635847,171.006065 C169.985722,171.006065 162.826537,177.7346 162.291937,186.36839" id="Fill-105" fill="#04162E"></path> <g id="Group-109" transform="translate(0.000000, 76.559175)"> <mask id="mask-6" fill="white"> <use xlink:href="#path-5"></use> </mask> <g id="Clip-108"></g> <path d="M55.1812632,2.57885099 C43.8046783,11.7843659 17.4340484,31.5630808 4.15814848,41.4710008 C-0.280516499,44.7840358 -1.32150149,50.9987608 1.79105849,55.5799857 C5.09369848,60.4418757 11.7747134,61.5808707 16.5029534,58.0911207 L68.6695182,19.5731909 C73.5997181,15.7329809 74.2739081,8.53518596 70.1456082,3.84555598 C66.3009432,-0.518858998 59.7016032,-1.08018899 55.1812632,2.57885099" id="Fill-107" fill="#007DDC" mask="url(#mask-6)"></path> </g> <path d="M69.4633992,162.878215 L69.4633992,162.878215 C68.2219392,165.248275 65.2935192,166.16155 62.9249442,164.92009 L52.2685842,159.25333 C49.8985243,158.01187 48.9852493,155.08345 50.2267093,152.714875 C51.4681693,150.3463 54.3951042,149.43154 56.7651642,150.673 L67.4215242,156.341245 C69.7900992,157.582705 70.7048592,160.508155 69.4633992,162.878215" id="Fill-110" fill="#F3A396"></path> <path d="M70.7556462,154.906438 C68.1346212,155.184133 67.0075062,156.193933 67.0075062,156.193933 C64.9849362,155.077213 62.4411312,155.889508 61.4372712,157.969993 L60.7274412,159.441628 C59.7978312,161.366188 60.5343912,163.679818 62.4025212,164.713378 L62.5109262,164.774263 C62.5109262,164.774263 66.8634612,169.101553 73.7508911,171.771583 C82.6490111,175.224208 88.4019011,172.686343 89.2632011,169.847023 C90.0769811,167.162143 79.8022661,162.561613 76.0095761,160.807828 L80.5254611,160.289563 C81.0986711,160.224223 81.5619911,159.793573 81.6718811,159.227788 C81.7891961,158.617453 81.4654661,158.010088 80.8952261,157.765063 L76.3748861,155.828623 C74.6047661,155.069788 72.6712961,154.704478 70.7556462,154.906438" id="Fill-112" fill="#F3A396"></path> <path d="M7.27828196,139.131134 L55.5986967,166.780349 L66.4243467,148.976684 L16.9931519,120.763169 C11.7303119,117.917909 5.15621698,120.096404 2.63320199,125.521109 C0.283931999,130.570109 2.33026199,136.572479 7.27828196,139.131134" id="Fill-114" fill="#007DDC"></path> </g> </g> </g> </g> </g> </svg> 