<?xml version="1.0" encoding="UTF-8"?> <svg xmlns="http://www.w3.org/2000/svg" width="94" height="44" viewBox="0 0 94 44" fill="none"> <g clip-path="url(#clip0)"> <g filter="url(#filter0_d)"> <path fill-rule="evenodd" clip-rule="evenodd" d="M0 22C0 9.84974 9.84974 0 22 0H72C84.1503 0 94 9.84974 94 22C94 34.1503 84.1503 44 72 44H22C9.84973 44 0 34.1503 0 22Z" fill="white"></path> <path fill-rule="evenodd" clip-rule="evenodd" d="M0 22C0 9.84974 9.84974 0 22 0H72C84.1503 0 94 9.84974 94 22C94 34.1503 84.1503 44 72 44H22C9.84973 44 0 34.1503 0 22Z" fill="#0099FF"></path> </g> <path d="M23.3633 30H16.0273V27.8203H18.4883V19.125C18.3789 19.5078 18.1875 19.8477 17.9141 20.1445C17.6484 20.4414 17.3242 20.6914 16.9414 20.8945C16.5664 21.0898 16.1445 21.2422 15.6758 21.3516C15.2148 21.4531 14.7383 21.5039 14.2461 21.5039V19.0781C14.7773 19.0781 15.293 18.9922 15.793 18.8203C16.3008 18.6406 16.7539 18.3711 17.1523 18.0117C17.5508 17.6523 17.8711 17.2031 18.1133 16.6641C18.3633 16.1172 18.4883 15.4648 18.4883 14.707H20.9141V27.8203H23.3633V30ZM38.3633 25.6992C38.3633 26.5039 38.2188 27.1914 37.9297 27.7617C37.6406 28.3242 37.2422 28.793 36.7344 29.168C36.2344 29.543 35.6445 29.8203 34.9648 30C34.2852 30.1797 33.5625 30.2695 32.7969 30.2695C32.0156 30.2695 31.2891 30.1797 30.6172 30C29.9453 29.8203 29.3555 29.543 28.8477 29.168C28.3398 28.793 27.9414 28.3242 27.6523 27.7617C27.3711 27.1914 27.2305 26.5039 27.2305 25.6992C27.2305 25.2852 27.3047 24.8672 27.4531 24.4453C27.6094 24.0234 27.8281 23.6328 28.1094 23.2734C28.3984 22.9062 28.7461 22.6055 29.1523 22.3711C29.5664 22.1289 30.0195 21.9766 30.5117 21.9141C30.082 21.8672 29.6992 21.7305 29.3633 21.5039C29.0273 21.2773 28.7422 21.0078 28.5078 20.6953C28.2812 20.3828 28.1016 20.0469 27.9688 19.6875C27.8438 19.3281 27.7812 18.9805 27.7812 18.6445C27.7812 17.957 27.9141 17.3516 28.1797 16.8281C28.4531 16.2969 28.8203 15.8555 29.2812 15.5039C29.75 15.1523 30.2891 14.8906 30.8984 14.7188C31.5078 14.5391 32.1406 14.4492 32.7969 14.4492C33.4531 14.4492 34.0859 14.5391 34.6953 14.7188C35.3047 14.8906 35.8398 15.1523 36.3008 15.5039C36.7617 15.8555 37.1289 16.2969 37.4023 16.8281C37.6758 17.3516 37.8125 17.957 37.8125 18.6445C37.8125 18.9805 37.7461 19.3281 37.6133 19.6875C37.4883 20.0469 37.3086 20.3828 37.0742 20.6953C36.8477 21.0078 36.5625 21.2773 36.2188 21.5039C35.875 21.7305 35.4844 21.8672 35.0469 21.9141C35.5469 21.9766 36 22.1289 36.4062 22.3711C36.8125 22.6055 37.1602 22.9062 37.4492 23.2734C37.7383 23.6328 37.9609 24.0234 38.1172 24.4453C38.2812 24.8672 38.3633 25.2852 38.3633 25.6992ZM35.3867 18.7969C35.3867 18.125 35.1562 17.5977 34.6953 17.2148C34.2422 16.8242 33.6094 16.6289 32.7969 16.6289C31.9766 16.6289 31.3398 16.8242 30.8867 17.2148C30.4336 17.5977 30.207 18.125 30.207 18.7969C30.207 19.4375 30.418 19.9414 30.8398 20.3086C31.2617 20.6758 31.9141 20.8594 32.7969 20.8594C33.6797 20.8594 34.332 20.6758 34.7539 20.3086C35.1758 19.9414 35.3867 19.4375 35.3867 18.7969ZM35.9375 25.5586C35.9375 25.0977 35.8516 24.707 35.6797 24.3867C35.5156 24.0664 35.2891 23.8086 35 23.6133C34.7109 23.4102 34.3789 23.2656 34.0039 23.1797C33.6289 23.0859 33.2266 23.0391 32.7969 23.0391C32.3672 23.0391 31.9609 23.0859 31.5781 23.1797C31.2031 23.2656 30.8711 23.4102 30.582 23.6133C30.3008 23.8086 30.0742 24.0664 29.9023 24.3867C29.7383 24.707 29.6562 25.0977 29.6562 25.5586C29.6562 25.9883 29.7383 26.3633 29.9023 26.6836C30.0742 27.0039 30.3008 27.2695 30.582 27.4805C30.8711 27.6914 31.2031 27.8438 31.5781 27.9375C31.9609 28.0312 32.3672 28.0781 32.7969 28.0781C33.2266 28.0781 33.6289 28.0312 34.0039 27.9375C34.3789 27.8438 34.7109 27.6914 35 27.4805C35.2891 27.2695 35.5156 27.0039 35.6797 26.6836C35.8516 26.3633 35.9375 25.9883 35.9375 25.5586ZM47.3867 22.0312H44.4336V19.0781H47.3867V22.0312ZM47.3867 30H44.4336V27.0469H47.3867V30ZM53.1641 22.3477C53.1641 21.3242 53.2734 20.3359 53.4922 19.3828C53.7109 18.4297 54.0508 17.5898 54.5117 16.8633C54.9727 16.1367 55.5742 15.5547 56.3164 15.1172C57.0664 14.6719 57.9688 14.4492 59.0234 14.4492C60.0781 14.4492 60.9766 14.6719 61.7188 15.1172C62.4688 15.5547 63.0781 16.1367 63.5469 16.8633C64.0156 17.5898 64.3555 18.4297 64.5664 19.3828C64.7773 20.3359 64.8828 21.3242 64.8828 22.3477C64.8828 23.3711 64.7773 24.3594 64.5664 25.3125C64.3555 26.2578 64.0195 27.1016 63.5586 27.8438C63.0977 28.5781 62.4922 29.168 61.7422 29.6133C61 30.0508 60.0938 30.2695 59.0234 30.2695C57.9531 30.2695 57.043 30.0508 56.293 29.6133C55.5508 29.168 54.9453 28.5781 54.4766 27.8438C54.0156 27.1016 53.6836 26.2578 53.4805 25.3125C53.2695 24.3594 53.1641 23.3711 53.1641 22.3477ZM55.5898 22.3477C55.5898 23.0664 55.6367 23.7617 55.7305 24.4336L61.7305 18.4102C61.4648 17.8789 61.1133 17.4492 60.6758 17.1211C60.2461 16.793 59.6953 16.6289 59.0234 16.6289C57.9062 16.6289 57.0547 17.1328 56.4688 18.1406C55.8828 19.1484 55.5898 20.5508 55.5898 22.3477ZM59.0234 28.0781C59.7109 28.0781 60.2734 27.9102 60.7109 27.5742C61.1562 27.2383 61.5039 26.8008 61.7539 26.2617C62.0117 25.7148 62.1914 25.0977 62.293 24.4102C62.4023 23.7227 62.457 23.0352 62.457 22.3477C62.457 21.6914 62.4102 21.0508 62.3164 20.4258L56.3633 26.4023C56.6289 26.9102 56.9688 27.3164 57.3828 27.6211C57.8047 27.9258 58.3516 28.0781 59.0234 28.0781ZM66.2656 22.3477C66.2656 21.3242 66.375 20.3359 66.5938 19.3828C66.8125 18.4297 67.1523 17.5898 67.6133 16.8633C68.0742 16.1367 68.6758 15.5547 69.418 15.1172C70.168 14.6719 71.0703 14.4492 72.125 14.4492C73.1797 14.4492 74.0781 14.6719 74.8203 15.1172C75.5703 15.5547 76.1797 16.1367 76.6484 16.8633C77.1172 17.5898 77.457 18.4297 77.668 19.3828C77.8789 20.3359 77.9844 21.3242 77.9844 22.3477C77.9844 23.3711 77.8789 24.3594 77.668 25.3125C77.457 26.2578 77.1211 27.1016 76.6602 27.8438C76.1992 28.5781 75.5938 29.168 74.8438 29.6133C74.1016 30.0508 73.1953 30.2695 72.125 30.2695C71.0547 30.2695 70.1445 30.0508 69.3945 29.6133C68.6523 29.168 68.0469 28.5781 67.5781 27.8438C67.1172 27.1016 66.7852 26.2578 66.582 25.3125C66.3711 24.3594 66.2656 23.3711 66.2656 22.3477ZM68.6914 22.3477C68.6914 23.0664 68.7383 23.7617 68.832 24.4336L74.832 18.4102C74.5664 17.8789 74.2148 17.4492 73.7773 17.1211C73.3477 16.793 72.7969 16.6289 72.125 16.6289C71.0078 16.6289 70.1562 17.1328 69.5703 18.1406C68.9844 19.1484 68.6914 20.5508 68.6914 22.3477ZM72.125 28.0781C72.8125 28.0781 73.375 27.9102 73.8125 27.5742C74.2578 27.2383 74.6055 26.8008 74.8555 26.2617C75.1133 25.7148 75.293 25.0977 75.3945 24.4102C75.5039 23.7227 75.5586 23.0352 75.5586 22.3477C75.5586 21.6914 75.5117 21.0508 75.418 20.4258L69.4648 26.4023C69.7305 26.9102 70.0703 27.3164 70.4844 27.6211C70.9062 27.9258 71.4531 28.0781 72.125 28.0781Z" fill="white"></path> </g> <defs> <filter id="filter0_d" x="-5" y="-3" width="104" height="54" filterUnits="userSpaceOnUse" color-interpolation-filters="sRGB"> <feFlood flood-opacity="0" result="BackgroundImageFix"></feFlood> <feColorMatrix in="SourceAlpha" type="matrix" values="0 0 0 0 0 0 0 0 0 0 0 0 0 0 0 0 0 0 127 0"></feColorMatrix> <feOffset dy="2"></feOffset> <feGaussianBlur stdDeviation="2.5"></feGaussianBlur> <feColorMatrix type="matrix" values="0 0 0 0 0 0 0 0 0 0 0 0 0 0 0 0 0 0 0.124945 0"></feColorMatrix> <feBlend mode="normal" in2="BackgroundImageFix" result="effect1_dropShadow"></feBlend> <feBlend mode="normal" in="SourceGraphic" in2="effect1_dropShadow" result="shape"></feBlend> </filter> <clipPath id="clip0"> <rect width="94" height="44" fill="white"></rect> </clipPath> </defs> </svg> 