<?xml version="1.0" encoding="UTF-8"?> <svg xmlns="http://www.w3.org/2000/svg" xmlns:xlink="http://www.w3.org/1999/xlink" width="387px" height="290px" viewBox="0 0 387 290"> <!-- Generator: Sketch 57.1 (83088) - https://sketch.com --> <title>Group 282</title> <desc>Created with Sketch.</desc> <defs> <polygon id="path-1" points="0.217560009 0.265590011 55.4640622 0.265590011 55.4640622 159.600006 0.217560009 159.600006"></polygon> <polygon id="path-3" points="0.0438000017 0.265590011 55.4958022 0.265590011 55.4958022 159.600006 0.0438000017 159.600006"></polygon> <polygon id="path-5" points="0.0385898685 0.294900012 53.1285906 0.294900012 53.1285906 25.557391 0.0385898685 25.557391"></polygon> <polygon id="path-7" points="0 0.0879300035 386.546415 0.0879300035 386.546415 36.9000015 0 36.9000015"></polygon> <polygon id="path-9" points="0 289.200011 386.546415 289.200011 386.546415 0.294900012 0 0.294900012"></polygon> <path d="M0.0315000013,0.919500037 C0.0315000013,1.41240006 0.50400002,1.81140007 0.50400002,1.81140007 L0.50400002,1.81140007 C0.50400002,1.81140007 0.976800039,1.41240006 0.976800039,0.919500037 L0.976800039,0.919500037 C0.976800039,0.428400017 0.76590003,0.0294000012 0.50400002,0.0294000012 L0.50400002,0.0294000012 C0.24240001,0.0294000012 0.0315000013,0.428400017 0.0315000013,0.919500037" id="path-11"></path> <linearGradient x1="99.9955379%" y1="49.9975724%" x2="0.0145826722%" y2="49.9975724%" id="linearGradient-13"> <stop stop-color="#956757" offset="0%"></stop> <stop stop-color="#5D3121" offset="100%"></stop> </linearGradient> <path d="M0.458700018,0.0192000008 C0.213600008,0.108600004 0.150900006,0.556200022 0.319500013,1.01880004 L0.319500013,1.01880004 C0.487500019,1.48050006 1.06920004,1.69440007 1.06920004,1.69440007 L1.06920004,1.69440007 C1.06920004,1.69440007 1.37610005,1.15650005 1.20810005,0.694800028 L1.20810005,0.694800028 C1.05930004,0.287100011 0.781200031,0.00390000015 0.548700022,0.00390000015 L0.548700022,0.00390000015 C0.517800021,0.00390000015 0.487500019,0.00900000036 0.458700018,0.0192000008" id="path-14"></path> <linearGradient x1="66.8726699%" y1="40.8873345%" x2="34.7291667%" y2="60.0214783%" id="linearGradient-16"> <stop stop-color="#956757" offset="0%"></stop> <stop stop-color="#5D3121" offset="100%"></stop> </linearGradient> <path d="M0.217500009,0.217500009 C0.0174000007,0.385200015 0.111600004,0.827400033 0.428400017,1.20510005 L0.428400017,1.20510005 C0.74430003,1.58130006 1.36350005,1.58250006 1.36350005,1.58250006 L1.36350005,1.58250006 C1.36350005,1.58250006 1.46940006,0.973500039 1.15200005,0.596100024 L1.15200005,0.596100024 C0.918600037,0.317700013 0.629400025,0.152700006 0.413700016,0.152700006 L0.413700016,0.152700006 C0.337200013,0.152700006 0.269700011,0.173700007 0.217500009,0.217500009" id="path-17"></path> <linearGradient x1="75.1647649%" y1="31.0494188%" x2="30.2393026%" y2="73.5595258%" id="linearGradient-19"> <stop stop-color="#956757" offset="0%"></stop> <stop stop-color="#5D3121" offset="100%"></stop> </linearGradient> <path d="M0.134700005,0.417900017 C0.00390000015,0.646200026 0.24330001,1.02870004 0.668700027,1.27470005 L0.668700027,1.27470005 C1.09590004,1.52010006 1.67760007,1.31070005 1.67760007,1.31070005 L1.67760007,1.31070005 C1.67760007,1.31070005 1.56810006,0.701400028 1.14150005,0.455400018 L1.14150005,0.455400018 C0.916800036,0.325500013 0.684600027,0.25980001 0.49620002,0.25980001 L0.49620002,0.25980001 C0.328500013,0.25980001 0.195600008,0.312300012 0.134700005,0.417900017" id="path-20"></path> <linearGradient x1="66.0700436%" y1="33.109085%" x2="36.1103965%" y2="70.3885617%" id="linearGradient-22"> <stop stop-color="#956757" offset="0%"></stop> <stop stop-color="#5D3121" offset="100%"></stop> </linearGradient> <path d="M0.172500007,0.612000024 C0.127200005,0.868200034 0.483600019,1.14690005 0.967500038,1.23240005 L0.967500038,1.23240005 C1.45230006,1.31670005 1.92720008,0.921900037 1.92720008,0.921900037 L1.92720008,0.921900037 C1.92720008,0.921900037 1.61640006,0.386400015 1.13160004,0.300600012 L1.13160004,0.300600012 C1.03500004,0.283500011 0.940500037,0.275400011 0.850500034,0.275400011 L0.850500034,0.275400011 C0.49080002,0.275400011 0.208200008,0.405600016 0.172500007,0.612000024" id="path-23"></path> <linearGradient x1="54.7720742%" y1="35.6147873%" x2="45.433328%" y2="64.7998702%" id="linearGradient-25"> <stop stop-color="#956757" offset="0%"></stop> <stop stop-color="#5D3121" offset="100%"></stop> </linearGradient> <path d="M0.967500038,0.0873000035 C0.483600019,0.173700007 0.127200005,0.450900018 0.172500007,0.709200028 L0.172500007,0.709200028 C0.217200009,0.965100038 0.647100026,1.10520004 1.13160004,1.01880004 L1.13160004,1.01880004 C1.61640006,0.933000037 1.92720008,0.399000016 1.92720008,0.399000016 L1.92720008,0.399000016 C1.92720008,0.399000016 1.53990006,0.075300003 1.10790004,0.075300003 L1.10790004,0.075300003 C1.06170004,0.075300003 1.01460004,0.0792000031 0.967500038,0.0873000035" id="path-26"></path> <linearGradient x1="45.4220007%" y1="35.2036158%" x2="54.7578485%" y2="64.3868715%" id="linearGradient-28"> <stop stop-color="#956757" offset="0%"></stop> <stop stop-color="#5D3121" offset="100%"></stop> </linearGradient> <path d="M0.668700027,0.345300014 C0.24330001,0.590700023 0.00390000015,0.974100039 0.134700005,1.20000005 L0.134700005,1.20000005 C0.26370001,1.42620006 0.716100028,1.41030006 1.14150005,1.16370005 L1.14150005,1.16370005 C1.56810006,0.917400036 1.67760007,0.309600012 1.67760007,0.309600012 L1.67760007,0.309600012 C1.67760007,0.309600012 1.44600006,0.225600009 1.16760005,0.225600009 L1.16760005,0.225600009 C1.00500004,0.225600009 0.826500033,0.25440001 0.668700027,0.345300014" id="path-29"></path> <linearGradient x1="36.138594%" y1="29.6282137%" x2="66.0744619%" y2="66.8760829%" id="linearGradient-31"> <stop stop-color="#956757" offset="0%"></stop> <stop stop-color="#5D3121" offset="100%"></stop> </linearGradient> <path d="M0.428400017,0.416100017 C0.111600004,0.792300031 0.0174000007,1.23480005 0.217500009,1.40250006 L0.217500009,1.40250006 C0.416700017,1.56990006 0.836700033,1.40100006 1.15200005,1.02360004 L1.15200005,1.02360004 C1.46940006,0.647100026 1.36350005,0.0372000015 1.36350005,0.0372000015 L1.36350005,0.0372000015 C1.36350005,0.0372000015 0.74430003,0.0399000016 0.428400017,0.416100017" id="path-32"></path> <linearGradient x1="30.2705667%" y1="26.4930465%" x2="75.1530036%" y2="68.9660053%" id="linearGradient-34"> <stop stop-color="#956757" offset="0%"></stop> <stop stop-color="#5D3121" offset="100%"></stop> </linearGradient> <path d="M0.319500013,0.901500036 C0.150900006,1.36380005 0.213600008,1.81080007 0.458700018,1.90110008 L0.458700018,1.90110008 C0.704400028,1.98990008 1.03950004,1.68750007 1.20810005,1.22520005 L1.20810005,1.22520005 C1.37610005,0.76230003 1.06920004,0.225600009 1.06920004,0.225600009 L1.06920004,0.225600009 C1.06920004,0.225600009 0.487500019,0.439800017 0.319500013,0.901500036" id="path-35"></path> <linearGradient x1="34.7406856%" y1="39.9762713%" x2="66.8630418%" y2="59.1031933%" id="linearGradient-37"> <stop stop-color="#956757" offset="0%"></stop> <stop stop-color="#5D3121" offset="100%"></stop> </linearGradient> <path d="M0.0315000013,0.99930004 C0.0315000013,1.49220006 0.24240001,1.88970008 0.50400002,1.88970008 L0.50400002,1.88970008 C0.76590003,1.88970008 0.976800039,1.49220006 0.976800039,0.99930004 L0.976800039,0.99930004 C0.976800039,0.50700002 0.50400002,0.108900004 0.50400002,0.108900004 L0.50400002,0.108900004 C0.50400002,0.108900004 0.0315000013,0.50700002 0.0315000013,0.99930004" id="path-38"></path> <linearGradient x1="0.014874643%" y1="50.0009215%" x2="99.9958299%" y2="50.0009215%" id="linearGradient-40"> <stop stop-color="#956757" offset="0%"></stop> <stop stop-color="#5D3121" offset="100%"></stop> </linearGradient> <path d="M0.100500004,1.22520005 C0.269100011,1.68750007 0.603600024,1.98990008 0.849000034,1.90110008 L0.849000034,1.90110008 C1.09500004,1.81080007 1.15770005,1.36380005 0.989100039,0.901500036 L0.989100039,0.901500036 C0.820200033,0.439800017 0.23940001,0.225600009 0.23940001,0.225600009 L0.23940001,0.225600009 C0.23940001,0.225600009 -0.0684000027,0.76230003 0.100500004,1.22520005" id="path-41"></path> <linearGradient x1="33.130504%" y1="59.097062%" x2="65.2634106%" y2="39.9695687%" id="linearGradient-43"> <stop stop-color="#956757" offset="0%"></stop> <stop stop-color="#5D3121" offset="100%"></stop> </linearGradient> <path d="M0.456600018,1.02360004 C0.772500031,1.40100006 1.19070005,1.56990006 1.39110006,1.40250006 L1.39110006,1.40250006 C1.59120006,1.23480005 1.49700006,0.792300031 1.18020005,0.416100017 L1.18020005,0.416100017 C0.864000034,0.0399000016 0.24570001,0.0372000015 0.24570001,0.0372000015 L0.24570001,0.0372000015 C0.24570001,0.0372000015 0.139800006,0.647100026 0.456600018,1.02360004" id="path-44"></path> <linearGradient x1="24.8399973%" y1="68.9819776%" x2="69.7035182%" y2="26.5081145%" id="linearGradient-46"> <stop stop-color="#956757" offset="0%"></stop> <stop stop-color="#5D3121" offset="100%"></stop> </linearGradient> <path d="M0.231900009,0.309600012 C0.231900009,0.309600012 0.340200014,0.918300036 0.76680003,1.16370005 L0.76680003,1.16370005 C1.19340005,1.41030006 1.64460007,1.42620006 1.77450007,1.20000005 L1.77450007,1.20000005 C1.90500008,0.974100039 1.66530007,0.590700023 1.23960005,0.345300014 L1.23960005,0.345300014 C1.08240004,0.25440001 0.904200036,0.225600009 0.741600029,0.225600009 L0.741600029,0.225600009 C0.463500018,0.225600009 0.231900009,0.309600012 0.231900009,0.309600012" id="path-47"></path> <linearGradient x1="33.9119544%" y1="66.9052559%" x2="63.8570831%" y2="29.6348534%" id="linearGradient-49"> <stop stop-color="#956757" offset="0%"></stop> <stop stop-color="#5D3121" offset="100%"></stop> </linearGradient> <path d="M0.281400011,0.398700016 C0.281400011,0.398700016 0.591900024,0.933000037 1.07670004,1.01880004 L1.07670004,1.01880004 C1.56120006,1.10520004 1.99140008,0.965100038 2.03610008,0.709200028 L2.03610008,0.709200028 C2.08080008,0.451200018 1.72650007,0.173700007 1.23990005,0.0873000035 L1.23990005,0.0873000035 C1.19280005,0.0792000031 1.14600005,0.075300003 1.09950004,0.075300003 L1.09950004,0.075300003 C0.668400027,0.075300003 0.281400011,0.398700016 0.281400011,0.398700016" id="path-50"></path> <linearGradient x1="45.2325259%" y1="64.3880974%" x2="54.5673477%" y2="35.2067523%" id="linearGradient-52"> <stop stop-color="#956757" offset="0%"></stop> <stop stop-color="#5D3121" offset="100%"></stop> </linearGradient> <path d="M1.07670004,0.300600012 C0.591900024,0.386400015 0.281400011,0.921900037 0.281400011,0.921900037 L0.281400011,0.921900037 C0.281400011,0.921900037 0.75600003,1.31670005 1.23990005,1.23240005 L1.23990005,1.23240005 C1.72650007,1.14690005 2.08080008,0.868200034 2.03610008,0.612000024 L2.03610008,0.612000024 C2.00040008,0.405600016 1.71750007,0.275400011 1.35780005,0.275400011 L1.35780005,0.275400011 C1.26810005,0.275400011 1.17360005,0.283500011 1.07670004,0.300600012" id="path-53"></path> <linearGradient x1="54.5575024%" y1="64.7966627%" x2="45.2197736%" y2="35.6134647%" id="linearGradient-55"> <stop stop-color="#956757" offset="0%"></stop> <stop stop-color="#5D3121" offset="100%"></stop> </linearGradient> <path d="M0.76680003,0.455400018 C0.340200014,0.701400028 0.231900009,1.31070005 0.231900009,1.31070005 L0.231900009,1.31070005 C0.231900009,1.31070005 0.813300032,1.52010006 1.23960005,1.27470005 L1.23960005,1.27470005 C1.66530007,1.02870004 1.90500008,0.646200026 1.77450007,0.417900017 L1.77450007,0.417900017 C1.71330007,0.312300012 1.58070006,0.25980001 1.41270006,0.25980001 L1.41270006,0.25980001 C1.22430005,0.25980001 0.992100039,0.325500013 0.76680003,0.455400018" id="path-56"></path> <linearGradient x1="63.8853155%" y1="70.3818681%" x2="33.9163531%" y2="33.0797765%" id="linearGradient-58"> <stop stop-color="#956757" offset="0%"></stop> <stop stop-color="#5D3121" offset="100%"></stop> </linearGradient> <path d="M0.456600018,0.597600024 C0.139800006,0.973500039 0.24570001,1.58250006 0.24570001,1.58250006 L0.24570001,1.58250006 C0.24570001,1.58250006 0.864000034,1.58130006 1.18110005,1.20510005 L1.18110005,1.20510005 C1.49700006,0.827400033 1.59120006,0.385200015 1.39110006,0.217500009 L1.39110006,0.217500009 C1.33860005,0.173700007 1.27110005,0.152700006 1.19430005,0.152700006 L1.19430005,0.152700006 C0.978600039,0.153000006 0.689700027,0.318000013 0.456600018,0.597600024" id="path-59"></path> <linearGradient x1="69.7655686%" y1="73.5745699%" x2="24.8612903%" y2="31.0670394%" id="linearGradient-61"> <stop stop-color="#956757" offset="0%"></stop> <stop stop-color="#5D3121" offset="100%"></stop> </linearGradient> <path d="M0.100500004,0.694800028 C-0.0684000027,1.15770005 0.23940001,1.69440007 0.23940001,1.69440007 L0.23940001,1.69440007 C0.23940001,1.69440007 0.821100033,1.48050006 0.989100039,1.01880004 L0.989100039,1.01880004 C1.15680005,0.556200022 1.09500004,0.108600004 0.849000034,0.0192000008 L0.849000034,0.0192000008 C0.819900033,0.00900000036 0.789900031,0.00390000015 0.75900003,0.00390000015 L0.75900003,0.00390000015 C0.527400021,0.00390000015 0.24930001,0.287100011 0.100500004,0.694800028" id="path-62"></path> <linearGradient x1="65.2764587%" y1="60.0283833%" x2="33.1346712%" y2="40.8936681%" id="linearGradient-64"> <stop stop-color="#956757" offset="0%"></stop> <stop stop-color="#5D3121" offset="100%"></stop> </linearGradient> <path d="M0.0447000018,0.919500037 C0.0447000018,1.41240006 0.51570002,1.81140007 0.51570002,1.81140007 L0.51570002,1.81140007 C0.51570002,1.81140007 0.989700039,1.41240006 0.989700039,0.919500037 L0.989700039,0.919500037 C0.989700039,0.428400017 0.778200031,0.0294000012 0.51570002,0.0294000012 L0.51570002,0.0294000012 C0.25560001,0.0294000012 0.0447000018,0.428400017 0.0447000018,0.919500037" id="path-65"></path> <linearGradient x1="100.011013%" y1="49.9975724%" x2="-0.00168253968%" y2="49.9975724%" id="linearGradient-67"> <stop stop-color="#956757" offset="0%"></stop> <stop stop-color="#5D3121" offset="100%"></stop> </linearGradient> <path d="M0.471000019,0.0192000008 C0.226500009,0.108600004 0.163800007,0.556200022 0.332400013,1.01880004 L0.332400013,1.01880004 C0.50130002,1.48050006 1.08120004,1.69440007 1.08120004,1.69440007 L1.08120004,1.69440007 C1.08120004,1.69440007 1.38900006,1.15650005 1.22010005,0.694800028 L1.22010005,0.694800028 C1.07130004,0.287100011 0.793200032,0.00390000015 0.561000022,0.00390000015 L0.561000022,0.00390000015 C0.530100021,0.00390000015 0.49980002,0.00900000036 0.471000019,0.0192000008" id="path-68"></path> <linearGradient x1="66.8482657%" y1="40.8854392%" x2="34.7483509%" y2="60.0030594%" id="linearGradient-70"> <stop stop-color="#956757" offset="0%"></stop> <stop stop-color="#5D3121" offset="100%"></stop> </linearGradient> <path d="M0.229500009,0.217500009 C0.0291000012,0.385200015 0.124500005,0.827400033 0.440400017,1.20510005 L0.440400017,1.20510005 C0.75630003,1.58130006 1.37580005,1.58250006 1.37580005,1.58250006 L1.37580005,1.58250006 C1.37580005,1.58250006 1.48170006,0.973500039 1.16490005,0.596100024 L1.16490005,0.596100024 C0.931800037,0.317700013 0.642900026,0.152700006 0.426600017,0.152700006 L0.426600017,0.152700006 C0.349800014,0.152700006 0.282300011,0.173700007 0.229500009,0.217500009" id="path-71"></path> <linearGradient x1="75.1913827%" y1="31.0209253%" x2="30.2296395%" y2="73.5569157%" id="linearGradient-73"> <stop stop-color="#956757" offset="0%"></stop> <stop stop-color="#5D3121" offset="100%"></stop> </linearGradient> <path d="M0.147000006,0.417900017 C0.0156000006,0.646200026 0.25530001,1.02870004 0.681600027,1.27470005 L0.681600027,1.27470005 C1.10820004,1.52010006 1.68960007,1.31070005 1.68960007,1.31070005 L1.68960007,1.31070005 C1.68960007,1.31070005 1.58010006,0.701400028 1.15440005,0.455400018 L1.15440005,0.455400018 C0.929400037,0.325500013 0.697200028,0.25980001 0.50910002,0.25980001 L0.50910002,0.25980001 C0.341100014,0.25980001 0.208200008,0.312300012 0.147000006,0.417900017" id="path-74"></path> <linearGradient x1="66.0869561%" y1="33.0916107%" x2="36.125764%" y2="70.3743615%" id="linearGradient-76"> <stop stop-color="#956757" offset="0%"></stop> <stop stop-color="#5D3121" offset="100%"></stop> </linearGradient> <path d="M0.185400007,0.612000024 C0.139800006,0.868200034 0.49590002,1.14690005 0.980400039,1.23240005 L0.980400039,1.23240005 C1.46520006,1.31670005 1.94010008,0.921900037 1.94010008,0.921900037 L1.94010008,0.921900037 C1.94010008,0.921900037 1.62960006,0.386400015 1.14480005,0.300600012 L1.14480005,0.300600012 C1.04820004,0.283500011 0.953400038,0.275400011 0.863700034,0.275400011 L0.863700034,0.275400011 C0.50370002,0.275400011 0.221100009,0.405600016 0.185400007,0.612000024" id="path-77"></path> <linearGradient x1="54.7812012%" y1="35.6156341%" x2="45.4426771%" y2="64.7991653%" id="linearGradient-79"> <stop stop-color="#956757" offset="0%"></stop> <stop stop-color="#5D3121" offset="100%"></stop> </linearGradient> <path d="M0.980400039,0.0873000035 C0.49590002,0.173700007 0.139800006,0.450900018 0.185400007,0.709200028 L0.185400007,0.709200028 C0.230100009,0.965100038 0.660000026,1.10520004 1.14480005,1.01880004 L1.14480005,1.01880004 C1.62960006,0.933000037 1.94010008,0.399000016 1.94010008,0.399000016 L1.94010008,0.399000016 C1.94010008,0.399000016 1.55280006,0.075300003 1.12080004,0.075300003 L1.12080004,0.075300003 C1.07460004,0.075300003 1.02750004,0.0792000031 0.980400039,0.0873000035" id="path-80"></path> <linearGradient x1="45.431403%" y1="35.204343%" x2="54.7670254%" y2="64.3860377%" id="linearGradient-82"> <stop stop-color="#956757" offset="0%"></stop> <stop stop-color="#5D3121" offset="100%"></stop> </linearGradient> <path d="M0.681600027,0.345300014 C0.25530001,0.590700023 0.0156000006,0.974100039 0.147000006,1.20000005 L0.147000006,1.20000005 C0.276900011,1.42620006 0.728400029,1.41030006 1.15440005,1.16370005 L1.15440005,1.16370005 C1.58010006,0.917400036 1.68960007,0.309600012 1.68960007,0.309600012 L1.68960007,0.309600012 C1.68960007,0.309600012 1.45800006,0.225600009 1.17990005,0.225600009 L1.17990005,0.225600009 C1.01730004,0.225600009 0.839100033,0.25440001 0.681600027,0.345300014" id="path-83"></path> <linearGradient x1="36.1532632%" y1="29.6423625%" x2="66.0906848%" y2="66.8935116%" id="linearGradient-85"> <stop stop-color="#956757" offset="0%"></stop> <stop stop-color="#5D3121" offset="100%"></stop> </linearGradient> <path d="M0.440400017,0.416100017 C0.124500005,0.792300031 0.0291000012,1.23480005 0.229500009,1.40250006 L0.229500009,1.40250006 C0.430500017,1.56990006 0.849600034,1.40100006 1.16490005,1.02360004 L1.16490005,1.02360004 C1.48170006,0.647100026 1.37580005,0.0372000015 1.37580005,0.0372000015 L1.37580005,0.0372000015 C1.37580005,0.0372000015 0.75630003,0.0399000016 0.440400017,0.416100017" id="path-86"></path> <linearGradient x1="30.261002%" y1="26.4956082%" x2="75.1796807%" y2="68.994423%" id="linearGradient-88"> <stop stop-color="#956757" offset="0%"></stop> <stop stop-color="#5D3121" offset="100%"></stop> </linearGradient> <path d="M0.332400013,0.901500036 C0.163800007,1.36380005 0.226500009,1.81080007 0.471000019,1.90110008 L0.471000019,1.90110008 C0.716700028,1.98990008 1.05150004,1.68750007 1.22010005,1.22520005 L1.22010005,1.22520005 C1.38900006,0.76230003 1.08120004,0.225600009 1.08120004,0.225600009 L1.08120004,0.225600009 C1.08120004,0.225600009 0.50130002,0.439800017 0.332400013,0.901500036" id="path-89"></path> <linearGradient x1="34.7599096%" y1="39.9946796%" x2="66.8386828%" y2="59.1050668%" id="linearGradient-91"> <stop stop-color="#956757" offset="0%"></stop> <stop stop-color="#5D3121" offset="100%"></stop> </linearGradient> <path d="M0.0446971441,0.99930004 C0.0438000017,1.49220006 0.25560001,1.88970008 0.51570002,1.88970008 L0.51570002,1.88970008 C0.778200031,1.88970008 0.989700039,1.49220006 0.989700039,0.99930004 L0.989700039,0.99930004 C0.989700039,0.50700002 0.51570002,0.108900004 0.51570002,0.108900004 L0.51570002,0.108900004 C0.51570002,0.108900004 0.0438000017,0.50700002 0.0446971441,0.99930004" id="path-92"></path> <linearGradient x1="-0.00108489681%" y1="50.0009215%" x2="100.011587%" y2="50.0009215%" id="linearGradient-94"> <stop stop-color="#956757" offset="0%"></stop> <stop stop-color="#5D3121" offset="100%"></stop> </linearGradient> <path d="M0.112200004,1.22520005 C0.281100011,1.68750007 0.616800025,1.98990008 0.861000034,1.90110008 L0.861000034,1.90110008 C1.10700004,1.81080007 1.16970005,1.36380005 1.00080004,0.901500036 L1.00080004,0.901500036 C0.833100033,0.439800017 0.25230001,0.225600009 0.25230001,0.225600009 L0.25230001,0.225600009 C0.25230001,0.225600009 -0.0555000022,0.76230003 0.112200004,1.22520005" id="path-95"></path> <linearGradient x1="33.1351477%" y1="59.1049125%" x2="65.2549579%" y2="39.9779904%" id="linearGradient-97"> <stop stop-color="#956757" offset="0%"></stop> <stop stop-color="#5D3121" offset="100%"></stop> </linearGradient> <path d="M0.468600019,1.02360004 C0.785700031,1.40100006 1.20390005,1.56990006 1.40400006,1.40250006 L1.40400006,1.40250006 C1.60320006,1.23480005 1.50900006,0.792300031 1.19190005,0.416100017 L1.19190005,0.416100017 C0.877200035,0.0399000016 0.25770001,0.0372000015 0.25770001,0.0372000015 L0.25770001,0.0372000015 C0.25770001,0.0372000015 0.152100006,0.647100026 0.468600019,1.02360004" id="path-98"></path> <linearGradient x1="24.8474556%" y1="68.993823%" x2="69.709444%" y2="26.5261512%" id="linearGradient-100"> <stop stop-color="#956757" offset="0%"></stop> <stop stop-color="#5D3121" offset="100%"></stop> </linearGradient> <path d="M0.24480001,0.309600012 C0.24480001,0.309600012 0.352500014,0.918300036 0.778800031,1.16370005 L0.778800031,1.16370005 C1.20510005,1.41030006 1.65750007,1.42620006 1.78680007,1.20000005 L1.78680007,1.20000005 C1.91670008,0.974100039 1.67730007,0.590700023 1.25190005,0.345300014 L1.25190005,0.345300014 C1.09440004,0.25440001 0.916200036,0.225600009 0.75390003,0.225600009 L0.75390003,0.225600009 C0.476100019,0.225600009 0.24480001,0.309600012 0.24480001,0.309600012" id="path-101"></path> <linearGradient x1="33.901105%" y1="66.9302773%" x2="63.8618186%" y2="29.6204814%" id="linearGradient-103"> <stop stop-color="#956757" offset="0%"></stop> <stop stop-color="#5D3121" offset="100%"></stop> </linearGradient> <path d="M0.294600012,0.398700016 C0.294600012,0.398700016 0.604200024,0.933000037 1.08870004,1.01880004 L1.08870004,1.01880004 C1.57350006,1.10520004 2.00430008,0.965100038 2.04900008,0.709200028 L2.04900008,0.709200028 C2.09400008,0.451200018 1.73850007,0.173700007 1.25400005,0.0873000035 L1.25400005,0.0873000035 C1.20660005,0.0792000031 1.15980005,0.075300003 1.11330004,0.075300003 L1.11330004,0.075300003 C0.681000027,0.075300003 0.294600012,0.398700016 0.294600012,0.398700016" id="path-104"></path> <linearGradient x1="45.2242822%" y1="64.397414%" x2="54.563737%" y2="35.1972302%" id="linearGradient-106"> <stop stop-color="#956757" offset="0%"></stop> <stop stop-color="#5D3121" offset="100%"></stop> </linearGradient> <path d="M1.08870004,0.300600012 C0.604200024,0.386400015 0.294600012,0.921900037 0.294600012,0.921900037 L0.294600012,0.921900037 C0.294600012,0.921900037 0.768300031,1.31670005 1.25400005,1.23240005 L1.25400005,1.23240005 C1.73850007,1.14690005 2.09400008,0.868200034 2.04900008,0.612000024 L2.04900008,0.612000024 C2.01330008,0.405600016 1.73010007,0.275400011 1.37010005,0.275400011 L1.37010005,0.275400011 C1.28010005,0.275400011 1.18560005,0.283500011 1.08870004,0.300600012" id="path-107"></path> <linearGradient x1="54.5537759%" y1="64.8061%" x2="45.2114188%" y2="35.6040811%" id="linearGradient-109"> <stop stop-color="#956757" offset="0%"></stop> <stop stop-color="#5D3121" offset="100%"></stop> </linearGradient> <path d="M0.778800031,0.455400018 C0.352500014,0.701400028 0.24480001,1.31070005 0.24480001,1.31070005 L0.24480001,1.31070005 C0.24480001,1.31070005 0.825600033,1.52010006 1.25190005,1.27470005 L1.25190005,1.27470005 C1.67730007,1.02870004 1.91670008,0.646200026 1.78680007,0.417900017 L1.78680007,0.417900017 C1.72590007,0.312300012 1.59300006,0.25980001 1.42500006,0.25980001 L1.42500006,0.25980001 C1.23660005,0.25980001 1.00410004,0.325500013 0.778800031,0.455400018" id="path-110"></path> <linearGradient x1="63.8899597%" y1="70.3964313%" x2="33.9053996%" y2="33.0549124%" id="linearGradient-112"> <stop stop-color="#956757" offset="0%"></stop> <stop stop-color="#5D3121" offset="100%"></stop> </linearGradient> <path d="M0.468600019,0.597600024 C0.152100006,0.973500039 0.25770001,1.58250006 0.25770001,1.58250006 L0.25770001,1.58250006 C0.25770001,1.58250006 0.877200035,1.58130006 1.19310005,1.20510005 L1.19310005,1.20510005 C1.50900006,0.827400033 1.60320006,0.385200015 1.40400006,0.217500009 L1.40400006,0.217500009 C1.35150005,0.173700007 1.28430005,0.152700006 1.20750005,0.152700006 L1.20750005,0.152700006 C0.991800039,0.153000006 0.702600028,0.318000013 0.468600019,0.597600024" id="path-113"></path> <linearGradient x1="69.771601%" y1="73.5563198%" x2="24.8685689%" y2="31.0551574%" id="linearGradient-115"> <stop stop-color="#956757" offset="0%"></stop> <stop stop-color="#5D3121" offset="100%"></stop> </linearGradient> <path d="M0.112200004,0.694800028 C-0.0555000022,1.15770005 0.25230001,1.69440007 0.25230001,1.69440007 L0.25230001,1.69440007 C0.25230001,1.69440007 0.834000033,1.48050006 1.00080004,1.01880004 L1.00080004,1.01880004 C1.16970005,0.556200022 1.10700004,0.108600004 0.861000034,0.0192000008 L0.861000034,0.0192000008 C0.832200033,0.00900000036 0.802200032,0.00390000015 0.771300031,0.00390000015 L0.771300031,0.00390000015 C0.540300021,0.00390000015 0.26130001,0.287100011 0.112200004,0.694800028" id="path-116"></path> <linearGradient x1="65.2666639%" y1="60.0197178%" x2="33.1256521%" y2="40.8855368%" id="linearGradient-118"> <stop stop-color="#956757" offset="0%"></stop> <stop stop-color="#5D3121" offset="100%"></stop> </linearGradient> </defs> <g id="Page-1" stroke="none" stroke-width="1" fill="none" fill-rule="evenodd"> <g id="artem" transform="translate(-671.000000, -873.000000)"> <g id="Group-11-Copy-5" transform="translate(198.000000, 873.000000)"> <g id="Group-282" transform="translate(473.000000, 0.000000)"> <g id="Group-125" transform="translate(0.000000, 0.005100)"> <g id="Group-86" transform="translate(154.800006, 0.000000)"> <path d="M53.1746121,218.015739 C60.5999124,221.083839 111.565714,224.429439 148.702716,218.015739" id="Fill-1" fill="#BC7551"></path> <path d="M47.6155219,248.94283 L153.480726,248.94283" id="Fill-3" fill="#172755"></path> <g id="Group-7" transform="translate(145.200006, 129.600005)"> <mask id="mask-2" fill="white"> <use xlink:href="#path-1"></use> </mask> <g id="Clip-6"></g> <path d="M0.217560009,20.5500908 C0.217560009,20.5500908 9.56166038,51.7653921 10.2507604,55.9002922 C10.9398604,60.0351924 13.2558605,70.6359928 17.0838607,79.5108932 C21.5490609,89.8638936 38.0388615,117.244595 37.6941615,120.345995 C37.3497615,123.447095 32.5254613,126.548495 31.8363613,129.304895 C31.1472612,132.061595 33.5850613,136.656995 33.4809613,138.892596 C33.3651613,141.382596 31.7346613,143.999796 32.7855613,144.935496 C34.1676614,146.166396 37.3059615,144.272196 37.7085615,141.150996 C37.9404615,139.355796 36.7950615,136.566995 38.2650615,135.759995 C41.1534616,134.174195 42.5106617,159.600096 45.7299618,159.600096 C49.628762,159.600096 55.4640622,150.523896 55.4640622,137.564495 C55.4640622,131.462195 51.172262,122.527895 48.7602619,118.048295 C46.3479618,113.568695 53.9685621,82.7691933 51.6624621,64.7100926 C50.360462,54.5130922 46.8864619,48.5148919 45.1635618,42.6567917 C43.4409617,36.7989915 42.8040617,18.6285907 36.4071614,0.265590011 C26.171761,3.54939014 0.217560009,20.5500908 0.217560009,20.5500908" id="Fill-5" fill="#BC7551" mask="url(#mask-2)"></path> </g> <path d="M193.186568,288.126521 C193.163168,288.126521 193.139768,288.125321 193.116068,288.122921 C192.743468,288.084221 192.472868,287.751221 192.511268,287.378621 C192.855068,284.056721 191.745968,274.078121 191.381768,270.798821 C191.340368,270.426821 191.608568,270.091421 191.980568,270.050021 C192.352868,270.008921 192.688268,270.276821 192.729668,270.649121 C193.097768,273.964121 194.218568,284.051621 193.860068,287.518121 C193.824068,287.867021 193.529768,288.126521 193.186568,288.126521" id="Fill-8" fill="#804737"></path> <path d="M196.661018,283.477421 L196.657718,283.477421 C196.283318,283.477421 195.980918,283.122221 195.983018,282.747821 C195.996218,280.021421 195.927518,273.188021 195.008618,268.854821 C194.930618,268.488521 195.164618,268.116521 195.530918,268.038821 C195.897518,267.961121 196.257218,268.189121 196.334918,268.555421 C197.247518,272.856521 197.355518,279.316421 197.339018,282.757421 C197.336918,283.130621 197.033918,283.477421 196.661018,283.477421" id="Fill-10" fill="#804737"></path> <path d="M199.119038,275.470121 C199.102838,275.470121 199.086638,275.469521 199.070138,275.468321 C198.696638,275.441621 198.415238,275.117321 198.441938,274.743821 C198.635738,272.030921 197.908538,268.451621 197.634938,267.104021 C197.597438,266.920121 197.567438,266.772521 197.547938,266.667821 C197.478938,266.299721 197.721338,265.945421 198.089438,265.876421 C198.457238,265.807721 198.811838,266.049821 198.880838,266.417921 C198.899438,266.517821 198.927938,266.658521 198.963638,266.834321 C199.247438,268.231421 200.001338,271.942721 199.794638,274.840421 C199.769138,275.197421 199.471538,275.470121 199.119038,275.470121" id="Fill-12" fill="#804737"></path> <g id="Group-16" transform="translate(0.000000, 129.600005)"> <mask id="mask-4" fill="white"> <use xlink:href="#path-3"></use> </mask> <g id="Clip-15"></g> <path d="M55.4958022,20.5500908 C55.4958022,20.5500908 46.1520018,51.7653921 45.4626018,55.9002922 C44.7735018,60.0351924 42.4575017,70.6359928 38.6298015,79.5108932 C34.1643014,89.8638936 17.6745007,117.244595 18.0192007,120.345995 C18.3636007,123.447095 23.1879009,126.548495 23.8770009,129.304895 C24.566101,132.061595 22.1283009,136.656995 22.2324009,138.892596 C22.3482009,141.382596 23.978701,143.999796 22.9278009,144.935496 C21.5457009,146.166396 18.4077007,144.272196 18.0048007,141.150996 C17.7732007,139.355796 18.9183008,136.566995 17.4483007,135.759995 C14.5599006,134.174195 13.2027005,159.600096 9.9834004,159.600096 C6.08490024,159.600096 0.0438000017,150.523896 0.0438000017,137.564495 C0.0438000017,131.462195 4.54110018,122.527895 6.95340028,118.048295 C9.36540037,113.568695 1.74480007,82.7691933 4.05090016,64.7100926 C5.35290021,54.5130922 8.82690035,48.5148919 10.5498004,42.6567917 C12.2727005,36.7989915 12.9093005,18.6285907 19.3062008,0.265590011 C29.5416012,3.54939014 55.4958022,20.5500908 55.4958022,20.5500908" id="Fill-14" fill="#BC7551" mask="url(#mask-4)"></path> </g> <path d="M7.72695031,288.126521 C7.38375029,288.126521 7.08945028,287.867021 7.05315028,287.518121 C6.69465027,284.051621 7.81545031,273.964121 8.18385033,270.649121 C8.22525033,270.277121 8.56035034,270.009821 8.93265035,270.050021 C9.30495037,270.091421 9.57285038,270.426821 9.53175038,270.798821 C9.16725036,274.078121 8.05845032,284.056721 8.40225033,287.378621 C8.44065034,287.751221 8.17005032,288.084221 7.79745031,288.122921 C7.77375031,288.125321 7.75035031,288.126521 7.72695031,288.126521" id="Fill-17" fill="#804737"></path> <path d="M4.25247017,283.477421 C3.87957015,283.477421 3.57627014,283.127621 3.57447014,282.754421 C3.55797014,279.313421 3.66597015,272.874521 4.57827018,268.573421 C4.65597019,268.207121 5.0159702,267.961121 5.38227021,268.038821 C5.74857023,268.116521 5.98257024,268.470521 5.90487023,268.836821 C4.9856702,273.169721 4.9172702,280.024421 4.9304702,282.750821 C4.9322702,283.125221 4.63017018,283.477421 4.25577017,283.477421 L4.25247017,283.477421 Z" id="Fill-19" fill="#804737"></path> <path d="M1.79433007,275.470121 C1.44183006,275.470121 1.14423005,275.197421 1.11873004,274.840421 C0.912030036,271.942721 1.66593007,268.231421 1.94973008,266.834321 C1.98543008,266.658521 2.01393008,266.517821 2.03253008,266.417921 C2.10153008,266.049821 2.4561301,265.807721 2.82423011,265.876421 C3.19203013,265.945421 3.43443014,266.299721 3.36543013,266.667821 C3.34593013,266.772521 3.31593013,266.920121 3.27843013,267.104321 C3.00483012,268.451621 2.27763009,272.031221 2.4714301,274.743821 C2.4981301,275.117321 2.21703009,275.441621 1.84323007,275.468321 C1.82703007,275.469521 1.81053007,275.470121 1.79433007,275.470121" id="Fill-21" fill="#804737"></path> <path d="M166.567567,95.8327538 C155.002866,82.7104533 121.177865,69.8215528 100.548064,71.2582528 C79.8177632,69.8143528 46.0380618,82.7710533 34.5285614,95.8327538 C17.9499607,114.646955 8.10156032,147.822456 9.43236037,150.262656 C11.1150604,153.348156 33.4800613,160.207056 48.5661619,159.529056 C58.1205623,192.445658 45.5481618,246.35866 47.6154619,248.94286 C51.266762,253.50706 138.944166,258.85876 153.480666,248.94286 C156.214566,247.07806 145.417566,194.479358 152.529966,159.529056 C167.616067,160.207056 189.981068,153.348156 191.663768,150.262656 C192.994568,147.822456 182.700367,114.138455 166.567567,95.8327538" id="Fill-23" fill="#E2A346"></path> <path d="M116.816645,36.4682114 C116.230445,55.7462122 118.517945,69.0170127 119.330945,72.9026129 C120.019745,76.195413 116.631845,82.2461133 101.282344,82.2461133 C89.0591435,82.2461133 84.1655433,76.8107131 85.0673434,73.2059129 C86.5697434,67.2026127 89.1749435,54.9818122 86.0444434,41.0708116 C82.9136433,27.1595111 114.103145,36.8255115 116.816645,36.4682114" id="Fill-25" fill="#BC7551"></path> <g id="Group-29" transform="translate(74.400003, 0.000000)"> <mask id="mask-6" fill="white"> <use xlink:href="#path-5"></use> </mask> <g id="Clip-28"></g> <path d="M6.56355026,25.557391 C-2.04825008,21.9207909 -4.16595017,5.74809023 12.9193505,8.61819034 C4.22025017,-0.225810009 23.3578509,-3.38631013 29.2729512,5.95059024 C42.2317517,-1.00851004 49.918352,6.29859025 43.8871517,11.0538904 C56.0653522,12.6774905 54.5707522,23.3748909 48.7519519,24.572791 L6.56355026,25.557391 Z" id="Fill-27" fill="#172755" mask="url(#mask-6)"></path> </g> <path d="M123.472295,31.0866612 C121.406795,29.7123612 119.755295,31.4619613 119.755295,31.4619613 C118.612595,31.1289612 117.996995,31.2018612 117.328595,25.959961 C116.922695,22.7766609 115.638095,20.3724608 112.545994,21.2313608 C106.282894,22.9710609 100.019494,24.711061 93.2346937,21.2604608 C89.0733935,19.1442608 86.7882934,21.4242609 86.3274934,24.614761 C85.5234934,30.1773612 84.7707934,34.0803614 83.4678933,33.9459613 C83.4678933,33.9459613 82.7166933,31.2282612 80.1525932,32.1147613 C78.0417931,32.8443613 80.8740932,43.4097617 83.7969933,42.8157617 C84.1368933,44.3457618 83.8650933,49.589762 85.3929934,53.2431621 C86.8701935,56.7753623 94.8747938,64.1163625 101.709694,64.1163625 C108.544294,64.1163625 116.548895,56.7753623 118.026095,53.2431621 C119.553995,49.589762 119.282195,44.3457618 119.622095,42.8157617 C122.359895,42.8637617 125.330495,32.3229613 123.472295,31.0866612" id="Fill-30" fill="#BC7551"></path> <path d="M102.039724,65.6347826 C95.0194238,65.6347826 89.6770236,60.2818824 87.7060235,57.9808823 C87.4843235,57.7219823 87.5143235,57.3325823 87.7732235,57.1108823 C88.0318235,56.8894823 88.4212235,56.9191823 88.6429235,57.1780823 C90.5029236,59.3497824 95.5318238,64.4008826 102.039724,64.4008826 C107.175124,64.4008826 112.292824,61.1593824 116.080625,55.5076822 C116.270225,55.2244822 116.653625,55.1485822 116.936225,55.3384822 C117.219425,55.5280822 117.295325,55.9114822 117.105425,56.1943822 C113.084824,62.1937825 107.593624,65.6347826 102.039724,65.6347826" id="Fill-32" fill="#804737"></path> <path d="M93.8414437,40.0353016 L93.8414437,40.0353016 C92.9846437,40.0353016 92.2901437,39.3408016 92.2901437,38.4840015 L92.2901437,37.3428015 C92.2901437,36.4860014 92.9846437,35.7915014 93.8414437,35.7915014 C94.6982438,35.7915014 95.3927438,36.4860014 95.3927438,37.3428015 L95.3927438,38.4840015 C95.3927438,39.3408016 94.6982438,40.0353016 93.8414437,40.0353016" id="Fill-34" fill="#804737"></path> <path d="M109.398094,40.0353016 L109.398094,40.0353016 C108.541294,40.0353016 107.846794,39.3408016 107.846794,38.4840015 L107.846794,37.3428015 C107.846794,36.4860014 108.541294,35.7915014 109.398094,35.7915014 C110.254894,35.7915014 110.949394,36.4860014 110.949394,37.3428015 L110.949394,38.4840015 C110.949394,39.3408016 110.254894,40.0353016 109.398094,40.0353016" id="Fill-36" fill="#804737"></path> <path d="M101.330404,48.7682419 C100.662004,48.7682419 99.792604,48.7409419 98.6583039,48.6701419 C98.3184039,48.6488419 98.0601039,48.3560419 98.0811039,48.0158419 C98.1024039,47.6759419 98.3949039,47.4179419 98.7354039,47.4386419 C100.310104,47.5367419 102.194404,47.5691419 102.808204,47.4671419 C102.919204,46.9124419 102.899704,45.2624418 102.882304,43.7909417 C102.811804,37.8251415 102.946204,32.3618413 105.332404,31.0550412 C105.631204,30.8915412 106.006204,31.0013412 106.169704,31.2998412 C106.333204,31.5986413 106.223704,31.9736413 105.924904,32.1374413 C103.990804,33.1961413 104.069404,39.8192416 104.115904,43.7762417 C104.157604,47.3060419 104.119204,48.0983419 103.614304,48.4667419 C103.496404,48.5528419 103.200904,48.7682419 101.330404,48.7682419 L101.330404,48.7682419 Z" id="Fill-38" fill="#804737"></path> <path d="M99.896374,53.4764421 C98.5469739,53.4764421 97.1558739,53.2088421 95.8835738,52.4717421 C94.2314737,51.514442 93.5735737,50.212742 93.5462737,50.157842 C93.3950737,49.852742 93.5201737,49.482542 93.8255737,49.331342 C94.1312737,49.180442 94.5011738,49.305242 94.6520738,49.610642 C94.7381738,49.780142 96.8771738,53.8049421 103.654174,51.583742 C103.978174,51.477542 104.326474,51.6542421 104.432674,51.9779421 C104.538574,52.3013421 104.362174,52.6499421 104.038474,52.7561421 C102.859774,53.1422421 101.404174,53.4764421 99.896374,53.4764421" id="Fill-40" fill="#804737"></path> <path d="M88.6269035,33.4614613 C88.6269035,33.4614613 94.1652037,31.6014613 98.2680039,32.3892613 C99.0786039,32.5449613 98.9172039,29.9427612 96.7989038,29.8317612 C94.5210038,29.7123612 89.2782035,30.3621612 88.6269035,31.6179613 C88.1172035,32.6007613 88.6269035,33.4614613 88.6269035,33.4614613" id="Fill-42" fill="#172755"></path> <path d="M114.791945,33.0325513 C114.791945,33.0325513 109.253644,31.6015513 105.150844,32.3890513 C104.340244,32.5447513 104.099644,30.1864512 106.191244,29.8315512 C108.322744,29.4700512 114.140645,29.9332512 114.791945,31.1890512 C115.301645,32.1718513 114.791945,33.0325513 114.791945,33.0325513" id="Fill-44" fill="#172755"></path> <path d="M81.1692332,24.940531 C83.7489333,22.4955309 90.1980336,16.6689307 101.709334,16.6587136 C113.626835,16.6479307 121.173635,21.7611309 122.946335,24.161431 C124.719335,26.5617311 120.772835,32.3061313 119.484035,31.6107313 C118.195235,30.9156312 113.353835,25.557331 102.383734,25.858231 C86.1051334,26.304331 84.2847333,35.3955314 83.3685333,34.0077314 C82.4523333,32.6196313 80.0397332,26.010931 81.1692332,24.940531" id="Fill-46" fill="#E2A346"></path> <path d="M146.310846,252.77809 C146.252046,252.27049 146.615946,251.81119 147.123246,251.75239 C147.630246,251.69389 148.090446,252.05719 148.149246,252.56479" id="Fill-48" fill="#FFFFFF"></path> <path d="M150.834846,251.33917 C150.775746,250.83157 151.139046,250.37197 151.646946,250.31287 C152.153646,250.25347 152.613846,250.61737 152.672946,251.12497" id="Fill-50" fill="#FFFFFF"></path> <path d="M53.3623821,251.93587 C53.4280821,251.42917 53.8924821,251.07217 54.3988822,251.13697 C54.9058822,251.20237 55.2634822,251.66647 55.1977822,252.17317" id="Fill-52" fill="#FFFFFF"></path> <path d="M48.8391019,251.10862 C48.9075019,250.60222 49.374002,250.24702 49.879802,250.31482 C50.386202,250.38322 50.741402,250.84912 50.673302,251.35552" id="Fill-54" fill="#FFFFFF"></path> <path d="M102.384094,88.1726435 L102.383794,88.1726435 C92.4816937,88.1726435 85.4049934,85.7555434 81.3504932,80.9882432 C78.2220931,77.3099431 78.1860931,73.5950429 78.1860931,73.4387429 C78.1860931,72.7574429 78.7383931,72.2048429 79.4199932,72.2048429 C80.0991932,72.2048429 80.6499932,72.7538429 80.6535932,73.4324429 C80.6544932,73.4897429 80.7312932,76.531143 83.3370933,79.5137432 C86.8764935,83.5640433 93.4623937,85.7051434 102.383794,85.7051434 C110.954494,85.7051434 117.191195,83.8166433 120.420095,80.2439432 C123.106595,77.2709431 122.827295,74.1767429 122.823995,74.1458429 C122.755295,73.4678429 123.249095,72.8627429 123.927095,72.7940429 C124.604195,72.7256429 125.210195,73.2188429 125.278895,73.8968429 C125.296295,74.0675429 125.664095,78.1214431 122.250695,81.8984433 C118.488695,86.0615434 111.803494,88.1726435 102.384094,88.1726435 L102.384094,88.1726435 Z" id="Fill-56" fill="#FFFFFF"></path> <path d="M48.6570319,156.273516 C13.9593306,152.660616 7.73523031,144.496416 7.4874303,144.150516 L9.49263038,142.712616 L9.47973038,142.694916 C9.49443038,142.713816 11.0169304,144.628716 16.6305307,146.949816 C21.8034309,149.088816 31.6032313,152.016816 48.9126319,153.819216 L48.6570319,156.273516 Z" id="Fill-58" fill="#FFFFFF"></path> <path d="M152.901156,155.023776 L152.557056,152.580276 C152.845056,152.539776 181.461157,148.453176 190.701458,142.399476 L192.053558,144.463476 C182.353657,150.818676 154.099356,154.855176 152.901156,155.023776" id="Fill-60" fill="#FFFFFF"></path> <path d="M7.4858403,250.591 L17.2355407,252.2746 C18.1412407,252.4309 19.0382408,251.9569 19.4192408,251.1208 L24.406741,239.026299 C24.967141,237.797199 24.188041,236.375199 22.8506409,236.185599 L7.78044031,234.050499 C6.50544026,233.869899 5.38884021,234.911199 5.48004022,236.195499 L5.81304023,248.7415 C5.87904023,249.6694 6.56934026,250.4326 7.4858403,250.591" id="Fill-62" fill="#7EC2EE"></path> <path d="M8.25969033,248.3041 C8.03259032,248.3041 7.84839031,248.1199 7.84839031,247.8928 L7.84839031,236.976399 C7.84839031,236.749299 8.03259032,236.565099 8.25969033,236.565099 C8.48679034,236.565099 8.67099034,236.749299 8.67099034,236.976399 L8.67099034,247.8928 C8.67099034,248.1199 8.48679034,248.3041 8.25969033,248.3041" id="Fill-64" fill="#B4E8FF"></path> <path d="M10.7275204,248.71534 C10.7221204,248.71534 10.7170204,248.71534 10.7116204,248.71504 C10.4848204,248.70664 10.3078204,248.51554 10.3162204,248.28874 L10.7275204,237.372339 C10.7359204,237.145239 10.9294204,236.966139 11.1538204,236.976639 C11.3809205,236.985339 11.5579205,237.176139 11.5495205,237.403239 L11.1382204,248.31964 C11.1298204,248.54134 10.9474204,248.71534 10.7275204,248.71534" id="Fill-66" fill="#B4E8FF"></path> <path d="M13.1953505,249.12661 C13.1797505,249.12661 13.1641505,249.12601 13.1485505,249.12391 C12.9229505,249.09841 12.7606505,248.89501 12.7861505,248.66911 L14.0200506,237.752709 C14.0452506,237.527109 14.2504506,237.364809 14.4748506,237.390309 C14.7004506,237.415809 14.8627506,237.619509 14.8372506,237.845109 L13.6033505,248.76151 C13.5796505,248.97151 13.4017505,249.12661 13.1953505,249.12661" id="Fill-68" fill="#B4E8FF"></path> <path d="M15.4572006,249.538 C15.4263006,249.538 15.3954006,249.5347 15.3642006,249.5275 C15.1431006,249.4765 15.0051006,249.2557 15.0561006,249.0343 L17.5236007,238.323399 C17.5746007,238.101999 17.7954007,237.963099 18.0168007,238.014999 C18.2379007,238.065999 18.3759007,238.286799 18.3252007,238.508199 L15.8574006,249.2191 C15.8136006,249.4093 15.6444006,249.538 15.4572006,249.538" id="Fill-70" fill="#B4E8FF"></path> <path d="M17.7187807,250.15492 C17.6788807,250.15492 17.6380807,250.14892 17.5978807,250.13662 C17.3809807,250.07002 17.2588807,249.83992 17.3254807,249.62272 L20.6155808,238.911819 C20.6821808,238.695219 20.9125808,238.572819 21.1294808,238.639719 C21.3466808,238.706319 21.4687809,238.936419 21.4018809,239.15362 L18.1117807,249.86422 C18.0574807,250.04122 17.8945807,250.15492 17.7187807,250.15492" id="Fill-72" fill="#B4E8FF"></path> <path d="M192.982508,249.49165 L183.232807,251.17525 C182.327407,251.33155 181.430107,250.85755 181.049107,250.02145 L176.061607,237.926949 C175.501207,236.697849 176.280307,235.275849 177.617707,235.086249 L192.687908,232.951149 C193.962908,232.770549 195.079508,233.811849 194.988308,235.096149 L194.655308,247.64215 C194.589308,248.57005 193.899008,249.33325 192.982508,249.49165" id="Fill-74" fill="#7EC2EE"></path> <path d="M192.015998,246.80629 C191.788898,246.80629 191.604698,246.62209 191.604698,246.39499 L191.604698,235.478589 C191.604698,235.251489 191.788898,235.067289 192.015998,235.067289 C192.243098,235.067289 192.427298,235.251489 192.427298,235.478589 L192.427298,246.39499 C192.427298,246.62209 192.243098,246.80629 192.015998,246.80629" id="Fill-76" fill="#B4E8FF"></path> <path d="M189.548048,247.21756 C189.328148,247.21756 189.145748,247.04326 189.137348,246.82186 L188.726047,235.905159 C188.717647,235.678359 188.894648,235.487559 189.121748,235.478859 C189.347648,235.471359 189.539648,235.647459 189.548048,235.874259 L189.959348,246.79066 C189.967748,247.01776 189.791048,247.20856 189.563948,247.21726 C189.558548,247.21756 189.553448,247.21756 189.548048,247.21756" id="Fill-78" fill="#B4E8FF"></path> <path d="M187.080367,247.6288 C186.873967,247.6288 186.695767,247.4737 186.672067,247.2637 L185.438467,236.347299 C185.412967,236.121699 185.574967,235.917999 185.800867,235.892499 C186.025867,235.866399 186.230167,236.028999 186.255667,236.254899 L187.489567,247.1713 C187.515067,247.3972 187.352767,247.6006 187.126867,247.6261 C187.111267,247.6279 187.095667,247.6288 187.080367,247.6288" id="Fill-80" fill="#B4E8FF"></path> <path d="M184.818487,248.04013 C184.630987,248.04013 184.462087,247.91143 184.418287,247.72123 L181.950487,237.010329 C181.899487,236.788929 182.037487,236.568129 182.258887,236.517429 C182.480587,236.466129 182.701087,236.604129 182.752087,236.825529 L185.219587,247.53643 C185.270587,247.75783 185.132587,247.97863 184.911187,248.02963 C184.880287,248.03683 184.849087,248.04013 184.818487,248.04013" id="Fill-82" fill="#B4E8FF"></path> <path d="M182.556787,248.65705 C182.380987,248.65705 182.218087,248.54335 182.163787,248.36635 L178.873687,237.655749 C178.806787,237.438549 178.928887,237.208449 179.146087,237.141849 C179.363887,237.074949 179.593387,237.197049 179.659987,237.413949 L182.950087,248.12485 C183.016687,248.34205 182.894887,248.57215 182.677687,248.63875 C182.637487,248.65105 182.596687,248.65705 182.556787,248.65705" id="Fill-84" fill="#B4E8FF"></path> </g> <g id="Group-89" transform="translate(0.000000, 252.300010)"> <mask id="mask-8" fill="white"> <use xlink:href="#path-7"></use> </mask> <g id="Clip-88"></g> <path d="M375.803385,36.9000315 L10.7429704,36.9000315 C4.80987019,36.9000315 -3.00000012e-05,32.0901313 -3.00000012e-05,26.157031 L-3.00000012e-05,0.0879300035 L386.546685,0.0879300035 L386.546685,26.157031 C386.546685,32.0901313 381.736485,36.9000315 375.803385,36.9000315" id="Fill-87" fill="#F1F2F2" mask="url(#mask-8)"></path> </g> <mask id="mask-10" fill="white"> <use xlink:href="#path-9"></use> </mask> <g id="Clip-91"></g> <polygon id="Fill-90" fill="#D1D3D4" mask="url(#mask-10)" points="0 260.93791 386.546415 260.93791 386.546415 252.38791 0 252.38791"></polygon> <polygon id="Fill-92" fill="#C49A6C" mask="url(#mask-10)" points="0 252.38791 386.546415 252.38791 386.546415 232.325109 0 232.325109"></polygon> <polygon id="Fill-93" fill="#937451" mask="url(#mask-10)" points="0 252.38791 386.546415 252.38791 386.546415 242.35651 0 242.35651"></polygon> <path d="M16.624256,235.122999 C16.6386607,238.101099 56.1579622,240.3199 104.891764,240.0826 C153.624666,239.8456 193.119668,237.242199 193.105571,234.264699 C193.091468,231.288999 153.572466,229.069899 104.839564,229.306899 C56.1057622,229.543599 16.6086607,232.147899 16.624256,235.122999" id="Fill-94" fill="#B5B6B6" mask="url(#mask-10)"></path> <path d="M31.1997581,234.369489 C31.2120612,236.852589 64.2015626,238.706289 104.883064,238.509189 C145.566666,238.311189 178.536967,236.136189 178.52497,233.652789 C178.513867,231.169389 145.523166,229.314189 104.840464,229.512489 C64.1577625,229.709589 31.1880612,231.886389 31.1997581,234.369489" id="Fill-95" fill="#EDEDEE" mask="url(#mask-10)"></path> <path d="M110.890054,201.533528 L110.890054,229.588629 C110.890054,230.583429 110.851654,231.480429 110.752654,232.291029 C110.323654,236.017029 108.900154,237.752829 106.470754,238.533729 C104.714254,239.10973 102.442654,239.18743 99.642154,239.16883 L99.1342539,239.16883 C97.9549539,239.15803 96.6769538,239.12833 95.3107538,239.12833 C95.0962538,239.11903 94.8817538,239.11903 94.6573538,239.11903 C83.8492533,239.11903 78.4246531,240.39673 78.4246531,229.588629 L78.4246531,201.533528 C78.4246531,200.460128 78.4837531,199.192028 78.5914531,197.777528 C78.6883531,196.538828 78.8347531,195.193328 79.0105531,193.778528 C79.9081532,186.793627 81.8398533,178.092427 84.8050534,171.537727 C84.8158534,170.932327 84.8347534,170.317927 84.8545534,169.703527 C85.0483534,164.230927 85.6531534,158.465226 85.8292534,156.953826 L85.8292534,156.944226 C85.8391534,156.690426 85.8586534,156.564426 85.8586534,156.564426 L103.455754,156.564426 C103.455754,156.564426 103.476454,156.690426 103.495354,156.944226 C103.661254,158.446626 104.266354,164.221627 104.460154,169.703527 C104.480854,170.317927 104.499754,170.932327 104.510254,171.537727 C107.474854,178.072327 109.416454,186.793627 110.313154,193.778528 C110.479954,195.193328 110.626354,196.538828 110.723254,197.777528 C110.840554,199.192028 110.890054,200.460128 110.890054,201.533528" id="Fill-96" fill="#D1D3D4" mask="url(#mask-10)"></path> <path d="M110.890054,201.533528 L110.890054,229.588629 C110.890054,230.583429 110.851654,231.480429 110.752654,232.291029 C110.323654,236.017029 108.900154,237.752829 106.470754,238.533729 C104.714254,239.10973 102.442654,239.18743 99.642154,239.16883 L99.1342539,239.16883 C97.9549539,239.15803 96.6769538,239.12833 95.3107538,239.12833 C95.0962538,239.11903 94.8817538,239.11903 94.6573538,239.11903 C83.8492533,239.11903 78.4246531,240.39673 78.4246531,229.588629 L78.4246531,201.533528 C78.4246531,200.460128 78.4837531,199.192028 78.5914531,197.777528 C78.6883531,196.538828 78.8347531,195.193328 79.0105531,193.778528 C79.9081532,186.793627 81.8398533,178.092427 84.8050534,171.537727 C84.8158534,170.932327 84.8347534,170.317927 84.8545534,169.703527 L104.460154,169.703527 C104.480854,170.317927 104.499754,170.932327 104.510254,171.537727 C107.474854,178.072327 109.416454,186.793627 110.313154,193.778528 C110.479954,195.193328 110.626354,196.538828 110.723254,197.777528 C110.840554,199.192028 110.890054,200.460128 110.890054,201.533528" id="Fill-97" fill="#EB7E22" mask="url(#mask-10)"></path> <path d="M89.1230435,174.241147 C89.1230435,174.241147 83.7092433,188.602747 83.7074433,194.717048 C81.7157432,187.389247 85.0814434,178.018147 89.1230435,174.241147" id="Fill-98" fill="#D5EFF9" mask="url(#mask-10)"></path> <path d="M110.892814,201.536378 L110.892814,229.583379 C110.892814,230.584779 110.847814,231.481179 110.752714,232.288779 C110.323714,236.015679 108.894814,237.750579 106.471414,238.536579 C104.719414,239.10748 102.438814,239.18248 99.645814,239.16868 C99.478114,239.16868 99.3083139,239.16388 99.1397139,239.16388 C97.9541139,239.15308 96.6749138,239.13268 95.3108138,239.12608 C111.644014,225.785679 102.619414,171.428977 102.619414,171.428977 L102.036814,156.559176 L103.454914,156.559176 C103.454914,156.559176 103.474714,156.688176 103.499614,156.942276 C103.679314,158.615676 104.401714,165.580177 104.510314,171.537877 C107.477614,178.073677 109.412614,186.797077 110.311114,193.776578 C110.484514,195.194678 110.628814,196.543778 110.722414,197.780078 C110.837914,199.187378 110.892814,200.457578 110.892814,201.536378" id="Fill-99" fill="#6D6E71" mask="url(#mask-10)"></path> <path d="M85.8274534,156.938706 C85.8427534,156.688206 85.8613534,156.559206 85.8613534,156.559206 L103.454854,156.559206 C103.454854,156.559206 103.474654,156.685806 103.497154,156.932706 C104.332654,156.240306 104.864854,155.196906 104.864854,154.031406 C104.864854,151.949706 103.179454,150.263106 101.100754,150.263106 L88.2175535,150.263106 C86.1379534,150.263106 84.4531534,151.949706 84.4531534,154.031406 C84.4531534,155.200506 84.9883534,156.247506 85.8274534,156.938706" id="Fill-100" fill="#EF984E" mask="url(#mask-10)"></path> <path d="M105.585694,203.327078 C105.585694,206.391278 100.693294,208.876178 94.6590938,208.876178 C88.6239935,208.876178 83.7333933,206.391278 83.7333933,203.327078 C83.7333933,200.261678 88.6239935,197.776478 94.6590938,197.776478 C100.693294,197.776478 105.585694,200.261678 105.585694,203.327078" id="Fill-101" fill="#EF984E" mask="url(#mask-10)"></path> <path d="M169.069237,216.379449 C168.608737,222.034449 166.224037,229.306749 162.026436,234.064749 C158.850936,237.658749 154.641336,239.81485 149.446536,238.747449 C145.344036,239.91775 141.723336,238.567749 138.738936,235.896849 C138.349535,235.547349 137.969735,235.175349 137.605535,234.784749 C133.103435,229.992849 130.292435,222.219549 129.823835,216.369549 C129.201635,208.599548 133.424735,202.261448 139.658136,199.044548 C142.576836,197.539748 145.937136,199.247048 149.446536,199.281848 C151.869936,199.306448 154.240236,197.206448 156.446436,197.986148 C156.745236,198.092048 157.043436,198.205148 157.335936,198.323048 C164.526037,201.232448 169.755037,207.931448 169.069237,216.379449" id="Fill-102" fill="#B03829" mask="url(#mask-10)"></path> <path d="M169.069237,216.379449 C168.608737,222.034449 166.224037,229.306749 162.026436,234.064749 C158.850936,237.658749 154.641336,239.81485 149.446536,238.747449 C145.344036,239.91775 141.723336,238.567749 138.738936,235.896849 C138.349535,235.547349 137.969735,235.175349 137.605535,234.784749 C165.321037,236.758749 160.664736,210.024848 157.335936,198.323048 C164.526037,201.232448 169.755037,207.931448 169.069237,216.379449" id="Fill-103" fill="#842A1F" mask="url(#mask-10)"></path> <path d="M169.069237,216.379449 C168.608737,222.034449 166.224037,229.306749 162.026436,234.064749 C172.611937,216.845049 158.508036,200.260748 156.446436,197.986148 C164.088037,200.687648 169.782937,207.588548 169.069237,216.379449" id="Fill-104" fill="#842A1F" mask="url(#mask-10)"></path> <path d="M138.738906,235.896729 C133.577105,231.274029 130.329905,222.697629 129.823805,216.369429 C129.201605,208.599728 133.424705,202.261628 139.658106,199.044428 C134.333705,205.090628 127.734305,217.510929 138.738906,235.896729" id="Fill-105" fill="#842A1F" mask="url(#mask-10)"></path> <path d="M136.558805,225.434229 C136.558805,225.434229 132.328805,212.392028 138.673506,204.638828 C137.615105,210.419828 136.558805,225.434229 136.558805,225.434229" id="Fill-106" fill="#C06054" mask="url(#mask-10)"></path> <path d="M149.963586,197.811068 L149.570286,198.446768 L147.063486,195.869168 C146.962986,195.878168 146.863386,195.885068 146.763786,195.894068 C133.068485,197.029568 132.415685,190.946768 121.423685,185.367967 C142.087686,178.064167 146.953986,191.628368 147.832086,195.029468 L149.963586,197.811068 Z" id="Fill-107" fill="#476320" mask="url(#mask-10)"></path> <path d="M146.763786,195.894098 C133.068485,197.029298 132.415685,190.946798 121.423685,185.367997 C121.423685,185.367997 144.019986,184.759597 146.763786,195.894098" id="Fill-108" fill="#6C824D" mask="url(#mask-10)"></path> <path d="M153.277206,192.988808 L153.277206,193.923008 L153.277206,195.063308 C153.277206,195.063308 151.138506,194.217008 151.138506,201.196508 C150.852906,201.120008 150.498306,201.099908 150.162006,201.104408 C149.555106,201.110408 149.000406,201.196508 149.000406,201.196508 C149.000406,201.196508 148.873806,192.819608 153.277206,192.988808" id="Fill-109" fill="#865A4A" mask="url(#mask-10)"></path> <path d="M153.277206,193.923068 L153.277206,195.063368 C153.277206,195.063368 151.138506,194.216768 151.138506,201.196568 C150.852906,201.119768 150.498306,201.099968 150.162006,201.104168 C150.783006,195.443768 152.248506,194.114768 153.277206,193.923068" id="Fill-110" fill="#654438" mask="url(#mask-10)"></path> <path d="M145.863636,200.208428 C145.863636,200.208428 149.650236,200.774828 153.276336,200.208428 C152.631036,201.760028 149.458236,203.100128 145.863636,200.208428" id="Fill-111" fill="#842A1F" mask="url(#mask-10)"></path> <path d="M140.595036,216.379449 C140.135436,222.034449 137.749835,229.306749 133.553135,234.064749 C130.377635,237.658749 126.168935,239.81485 120.973235,238.747449 C116.871335,239.91775 113.249135,238.567749 110.265634,235.896849 C109.876234,235.547349 109.497334,235.175349 109.132234,234.784749 C104.630134,229.992849 101.819134,222.219549 101.351434,216.369549 C100.728334,208.599548 104.951134,202.261448 111.184534,199.044548 C114.103535,197.539748 117.463835,199.247048 120.973235,199.281848 C123.396635,199.306448 125.766935,197.206448 127.974035,197.986148 C128.272835,198.092048 128.570135,198.205148 128.863535,198.323048 C136.052735,201.232448 141.281736,207.931448 140.595036,216.379449" id="Fill-112" fill="#B03829" mask="url(#mask-10)"></path> <path d="M140.595036,216.379449 C140.135436,222.034449 137.749835,229.306749 133.553135,234.064749 C130.377635,237.658749 126.168935,239.81485 120.973235,238.747449 C116.871335,239.91775 113.249135,238.567749 110.265634,235.896849 C109.876234,235.547349 109.497334,235.175349 109.132234,234.784749 C136.847735,236.758749 132.192335,210.024848 128.863535,198.323048 C136.052735,201.232448 141.281736,207.931448 140.595036,216.379449" id="Fill-113" fill="#842A1F" mask="url(#mask-10)"></path> <path d="M140.595036,216.379449 C140.135436,222.034449 137.749835,229.306749 133.553135,234.064749 C144.138636,216.845049 130.034735,200.260748 127.974035,197.986148 C135.615635,200.687648 141.310536,207.588548 140.595036,216.379449" id="Fill-114" fill="#842A1F" mask="url(#mask-10)"></path> <path d="M110.265574,235.896729 C105.103774,231.274029 101.856574,222.697629 101.351374,216.369429 C100.728274,208.599728 104.951374,202.261628 111.184474,199.044428 C105.861274,205.090628 99.2618739,217.510929 110.265574,235.896729" id="Fill-115" fill="#842A1F" mask="url(#mask-10)"></path> <path d="M108.085444,225.434229 C108.085444,225.434229 103.856344,212.392028 110.200144,204.638828 C109.142644,210.419828 108.085444,225.434229 108.085444,225.434229" id="Fill-116" fill="#C06054" mask="url(#mask-10)"></path> <path d="M121.490225,197.811068 L121.096925,198.446768 L118.590125,195.869168 C118.489625,195.878168 118.390025,195.885068 118.291325,195.894068 C104.595124,197.029568 103.942324,190.946768 92.9503237,185.367967 C113.614325,178.064167 118.481525,191.628368 119.359325,195.029468 L121.490225,197.811068 Z" id="Fill-117" fill="#476320" mask="url(#mask-10)"></path> <path d="M118.291325,195.894098 C104.595124,197.029298 103.942324,190.946798 92.9503237,185.367997 C92.9503237,185.367997 115.547525,184.759597 118.291325,195.894098" id="Fill-118" fill="#6C824D" mask="url(#mask-10)"></path> <path d="M124.804745,192.988808 L124.804745,193.923008 L124.804745,195.063308 C124.804745,195.063308 122.665145,194.217008 122.665145,201.196508 C122.380445,201.120008 122.024945,201.099908 121.687445,201.104408 C121.080845,201.110408 120.527045,201.196508 120.527045,201.196508 C120.527045,201.196508 120.400445,192.819608 124.804745,192.988808" id="Fill-119" fill="#865A4A" mask="url(#mask-10)"></path> <path d="M124.804745,193.923068 L124.804745,195.063368 C124.804745,195.063368 122.665145,194.216768 122.665145,201.196568 C122.380445,201.119768 122.024945,201.099968 121.687445,201.104168 C122.309645,195.443768 123.775145,194.114768 124.804745,193.923068" id="Fill-120" fill="#654438" mask="url(#mask-10)"></path> <path d="M117.391175,200.208428 C117.391175,200.208428 121.177775,200.774828 124.803875,200.208428 C124.158575,201.760028 120.985775,203.100128 117.391175,200.208428" id="Fill-121" fill="#842A1F" mask="url(#mask-10)"></path> <path d="M136.564955,224.010039 C136.564955,232.383639 129.776855,239.17114 121.404755,239.17114 C113.030854,239.17114 106.242754,232.383639 106.242754,224.010039 C106.242754,215.636739 113.030854,208.848638 121.404755,208.848638 C129.776855,208.848638 136.564955,215.636739 136.564955,224.010039" id="Fill-122" fill="#476320" mask="url(#mask-10)"></path> <path d="M135.817295,224.009229 C135.817295,231.970029 129.363095,238.423629 121.404695,238.423629 C117.858695,238.423629 114.612095,237.142929 112.101694,235.018329 C108.975694,232.375029 106.991194,228.424929 106.991194,224.009229 C106.991194,216.049629 113.444495,209.597228 121.404695,209.597228 C126.646295,209.597228 131.232695,212.394428 133.755695,216.577629 C135.064295,218.747229 135.817295,221.290929 135.817295,224.009229" id="Fill-123" fill="#C0D455" mask="url(#mask-10)"></path> <path d="M127.089755,224.009229 C127.089755,227.149929 124.543355,229.695129 121.404755,229.695129 C118.264355,229.695129 115.718855,227.149929 115.718855,224.009229 C115.718855,220.870029 118.264355,218.323929 121.404755,218.323929 C124.543355,218.323929 127.089755,220.870029 127.089755,224.009229" id="Fill-124" fill="#D9E599" mask="url(#mask-10)"></path> </g> <g id="Group-128" transform="translate(120.900005, 214.205109)"> <mask id="mask-12" fill="white"> <use xlink:href="#path-11"></use> </mask> <g id="Clip-127"></g> <path d="M0.0315000013,0.919500037 C0.0315000013,1.41240006 0.50400002,1.81140007 0.50400002,1.81140007 L0.50400002,1.81140007 C0.50400002,1.81140007 0.976800039,1.41240006 0.976800039,0.919500037 L0.976800039,0.919500037 C0.976800039,0.428400017 0.76590003,0.0294000012 0.50400002,0.0294000012 L0.50400002,0.0294000012 C0.24240001,0.0294000012 0.0315000013,0.428400017 0.0315000013,0.919500037" id="Fill-126" fill="url(#linearGradient-13)" mask="url(#mask-12)"></path> </g> <g id="Group-131" transform="translate(117.600005, 214.805109)"> <mask id="mask-15" fill="white"> <use xlink:href="#path-14"></use> </mask> <g id="Clip-130"></g> <path d="M0.458700018,0.0192000008 C0.213600008,0.108600004 0.150900006,0.556200022 0.319500013,1.01880004 L0.319500013,1.01880004 C0.487500019,1.48050006 1.06920004,1.69440007 1.06920004,1.69440007 L1.06920004,1.69440007 C1.06920004,1.69440007 1.37610005,1.15650005 1.20810005,0.694800028 L1.20810005,0.694800028 C1.05930004,0.287100011 0.781200031,0.00390000015 0.548700022,0.00390000015 L0.548700022,0.00390000015 C0.517800021,0.00390000015 0.487500019,0.00900000036 0.458700018,0.0192000008" id="Fill-129" fill="url(#linearGradient-16)" mask="url(#mask-15)"></path> </g> <g id="Group-134" transform="translate(114.900005, 216.305109)"> <mask id="mask-18" fill="white"> <use xlink:href="#path-17"></use> </mask> <g id="Clip-133"></g> <path d="M0.217500009,0.217500009 C0.0174000007,0.385200015 0.111600004,0.827400033 0.428400017,1.20510005 L0.428400017,1.20510005 C0.74430003,1.58130006 1.36350005,1.58250006 1.36350005,1.58250006 L1.36350005,1.58250006 C1.36350005,1.58250006 1.46940006,0.973500039 1.15200005,0.596100024 L1.15200005,0.596100024 C0.918600037,0.317700013 0.629400025,0.152700006 0.413700016,0.152700006 L0.413700016,0.152700006 C0.337200013,0.152700006 0.269700011,0.173700007 0.217500009,0.217500009" id="Fill-132" fill="url(#linearGradient-19)" mask="url(#mask-18)"></path> </g> <g id="Group-137" transform="translate(112.800004, 218.705109)"> <mask id="mask-21" fill="white"> <use xlink:href="#path-20"></use> </mask> <g id="Clip-136"></g> <path d="M0.134700005,0.417900017 C0.00390000015,0.646200026 0.24330001,1.02870004 0.668700027,1.27470005 L0.668700027,1.27470005 C1.09590004,1.52010006 1.67760007,1.31070005 1.67760007,1.31070005 L1.67760007,1.31070005 C1.67760007,1.31070005 1.56810006,0.701400028 1.14150005,0.455400018 L1.14150005,0.455400018 C0.916800036,0.325500013 0.684600027,0.25980001 0.49620002,0.25980001 L0.49620002,0.25980001 C0.328500013,0.25980001 0.195600008,0.312300012 0.134700005,0.417900017" id="Fill-135" fill="url(#linearGradient-22)" mask="url(#mask-21)"></path> </g> <g id="Group-140" transform="translate(111.600004, 221.705109)"> <mask id="mask-24" fill="white"> <use xlink:href="#path-23"></use> </mask> <g id="Clip-139"></g> <path d="M0.172500007,0.612000024 C0.127200005,0.868200034 0.483600019,1.14690005 0.967500038,1.23240005 L0.967500038,1.23240005 C1.45230006,1.31670005 1.92720008,0.921900037 1.92720008,0.921900037 L1.92720008,0.921900037 C1.92720008,0.921900037 1.61640006,0.386400015 1.13160004,0.300600012 L1.13160004,0.300600012 C1.03500004,0.283500011 0.940500037,0.275400011 0.850500034,0.275400011 L0.850500034,0.275400011 C0.49080002,0.275400011 0.208200008,0.405600016 0.172500007,0.612000024" id="Fill-138" fill="url(#linearGradient-25)" mask="url(#mask-24)"></path> </g> <g id="Group-143" transform="translate(111.600004, 225.005109)"> <mask id="mask-27" fill="white"> <use xlink:href="#path-26"></use> </mask> <g id="Clip-142"></g> <path d="M0.967500038,0.0873000035 C0.483600019,0.173700007 0.127200005,0.450900018 0.172500007,0.709200028 L0.172500007,0.709200028 C0.217200009,0.965100038 0.647100026,1.10520004 1.13160004,1.01880004 L1.13160004,1.01880004 C1.61640006,0.933000037 1.92720008,0.399000016 1.92720008,0.399000016 L1.92720008,0.399000016 C1.92720008,0.399000016 1.53990006,0.075300003 1.10790004,0.075300003 L1.10790004,0.075300003 C1.06170004,0.075300003 1.01460004,0.0792000031 0.967500038,0.0873000035" id="Fill-141" fill="url(#linearGradient-28)" mask="url(#mask-27)"></path> </g> <g id="Group-146" transform="translate(112.800004, 227.705109)"> <mask id="mask-30" fill="white"> <use xlink:href="#path-29"></use> </mask> <g id="Clip-145"></g> <path d="M0.668700027,0.345300014 C0.24330001,0.590700023 0.00390000015,0.974100039 0.134700005,1.20000005 L0.134700005,1.20000005 C0.26370001,1.42620006 0.716100028,1.41030006 1.14150005,1.16370005 L1.14150005,1.16370005 C1.56810006,0.917400036 1.67760007,0.309600012 1.67760007,0.309600012 L1.67760007,0.309600012 C1.67760007,0.309600012 1.44600006,0.225600009 1.16760005,0.225600009 L1.16760005,0.225600009 C1.00500004,0.225600009 0.826500033,0.25440001 0.668700027,0.345300014" id="Fill-144" fill="url(#linearGradient-31)" mask="url(#mask-30)"></path> </g> <g id="Group-149" transform="translate(114.900005, 230.105109)"> <mask id="mask-33" fill="white"> <use xlink:href="#path-32"></use> </mask> <g id="Clip-148"></g> <path d="M0.428400017,0.416100017 C0.111600004,0.792300031 0.0174000007,1.23480005 0.217500009,1.40250006 L0.217500009,1.40250006 C0.416700017,1.56990006 0.836700033,1.40100006 1.15200005,1.02360004 L1.15200005,1.02360004 C1.46940006,0.647100026 1.36350005,0.0372000015 1.36350005,0.0372000015 L1.36350005,0.0372000015 C1.36350005,0.0372000015 0.74430003,0.0399000016 0.428400017,0.416100017" id="Fill-147" fill="url(#linearGradient-34)" mask="url(#mask-33)"></path> </g> <g id="Group-152" transform="translate(117.600005, 231.305109)"> <mask id="mask-36" fill="white"> <use xlink:href="#path-35"></use> </mask> <g id="Clip-151"></g> <path d="M0.319500013,0.901500036 C0.150900006,1.36380005 0.213600008,1.81080007 0.458700018,1.90110008 L0.458700018,1.90110008 C0.704400028,1.98990008 1.03950004,1.68750007 1.20810005,1.22520005 L1.20810005,1.22520005 C1.37610005,0.76230003 1.06920004,0.225600009 1.06920004,0.225600009 L1.06920004,0.225600009 C1.06920004,0.225600009 0.487500019,0.439800017 0.319500013,0.901500036" id="Fill-150" fill="url(#linearGradient-37)" mask="url(#mask-36)"></path> </g> <g id="Group-155" transform="translate(120.900005, 231.905109)"> <mask id="mask-39" fill="white"> <use xlink:href="#path-38"></use> </mask> <g id="Clip-154"></g> <path d="M0.0315000013,0.99930004 C0.0315000013,1.49220006 0.24240001,1.88970008 0.50400002,1.88970008 L0.50400002,1.88970008 C0.76590003,1.88970008 0.976800039,1.49220006 0.976800039,0.99930004 L0.976800039,0.99930004 C0.976800039,0.50700002 0.50400002,0.108900004 0.50400002,0.108900004 L0.50400002,0.108900004 C0.50400002,0.108900004 0.0315000013,0.50700002 0.0315000013,0.99930004" id="Fill-153" fill="url(#linearGradient-40)" mask="url(#mask-39)"></path> </g> <g id="Group-158" transform="translate(123.900005, 231.305109)"> <mask id="mask-42" fill="white"> <use xlink:href="#path-41"></use> </mask> <g id="Clip-157"></g> <path d="M0.100500004,1.22520005 C0.269100011,1.68750007 0.603600024,1.98990008 0.849000034,1.90110008 L0.849000034,1.90110008 C1.09500004,1.81080007 1.15770005,1.36380005 0.989100039,0.901500036 L0.989100039,0.901500036 C0.820200033,0.439800017 0.23940001,0.225600009 0.23940001,0.225600009 L0.23940001,0.225600009 C0.23940001,0.225600009 -0.0684000027,0.76230003 0.100500004,1.22520005" id="Fill-156" fill="url(#linearGradient-43)" mask="url(#mask-42)"></path> </g> <g id="Group-161" transform="translate(126.300005, 230.105109)"> <mask id="mask-45" fill="white"> <use xlink:href="#path-44"></use> </mask> <g id="Clip-160"></g> <path d="M0.456600018,1.02360004 C0.772500031,1.40100006 1.19070005,1.56990006 1.39110006,1.40250006 L1.39110006,1.40250006 C1.59120006,1.23480005 1.49700006,0.792300031 1.18020005,0.416100017 L1.18020005,0.416100017 C0.864000034,0.0399000016 0.24570001,0.0372000015 0.24570001,0.0372000015 L0.24570001,0.0372000015 C0.24570001,0.0372000015 0.139800006,0.647100026 0.456600018,1.02360004" id="Fill-159" fill="url(#linearGradient-46)" mask="url(#mask-45)"></path> </g> <g id="Group-164" transform="translate(128.100005, 227.705109)"> <mask id="mask-48" fill="white"> <use xlink:href="#path-47"></use> </mask> <g id="Clip-163"></g> <path d="M0.231900009,0.309600012 C0.231900009,0.309600012 0.340200014,0.918300036 0.76680003,1.16370005 L0.76680003,1.16370005 C1.19340005,1.41030006 1.64460007,1.42620006 1.77450007,1.20000005 L1.77450007,1.20000005 C1.90500008,0.974100039 1.66530007,0.590700023 1.23960005,0.345300014 L1.23960005,0.345300014 C1.08240004,0.25440001 0.904200036,0.225600009 0.741600029,0.225600009 L0.741600029,0.225600009 C0.463500018,0.225600009 0.231900009,0.309600012 0.231900009,0.309600012" id="Fill-162" fill="url(#linearGradient-49)" mask="url(#mask-48)"></path> </g> <g id="Group-167" transform="translate(129.000005, 225.005109)"> <mask id="mask-51" fill="white"> <use xlink:href="#path-50"></use> </mask> <g id="Clip-166"></g> <path d="M0.281400011,0.398700016 C0.281400011,0.398700016 0.591900024,0.933000037 1.07670004,1.01880004 L1.07670004,1.01880004 C1.56120006,1.10520004 1.99140008,0.965100038 2.03610008,0.709200028 L2.03610008,0.709200028 C2.08080008,0.451200018 1.72650007,0.173700007 1.23990005,0.0873000035 L1.23990005,0.0873000035 C1.19280005,0.0792000031 1.14600005,0.075300003 1.09950004,0.075300003 L1.09950004,0.075300003 C0.668400027,0.075300003 0.281400011,0.398700016 0.281400011,0.398700016" id="Fill-165" fill="url(#linearGradient-52)" mask="url(#mask-51)"></path> </g> <g id="Group-170" transform="translate(129.000005, 221.705109)"> <mask id="mask-54" fill="white"> <use xlink:href="#path-53"></use> </mask> <g id="Clip-169"></g> <path d="M1.07670004,0.300600012 C0.591900024,0.386400015 0.281400011,0.921900037 0.281400011,0.921900037 L0.281400011,0.921900037 C0.281400011,0.921900037 0.75600003,1.31670005 1.23990005,1.23240005 L1.23990005,1.23240005 C1.72650007,1.14690005 2.08080008,0.868200034 2.03610008,0.612000024 L2.03610008,0.612000024 C2.00040008,0.405600016 1.71750007,0.275400011 1.35780005,0.275400011 L1.35780005,0.275400011 C1.26810005,0.275400011 1.17360005,0.283500011 1.07670004,0.300600012" id="Fill-168" fill="url(#linearGradient-55)" mask="url(#mask-54)"></path> </g> <g id="Group-173" transform="translate(128.100005, 218.705109)"> <mask id="mask-57" fill="white"> <use xlink:href="#path-56"></use> </mask> <g id="Clip-172"></g> <path d="M0.76680003,0.455400018 C0.340200014,0.701400028 0.231900009,1.31070005 0.231900009,1.31070005 L0.231900009,1.31070005 C0.231900009,1.31070005 0.813300032,1.52010006 1.23960005,1.27470005 L1.23960005,1.27470005 C1.66530007,1.02870004 1.90500008,0.646200026 1.77450007,0.417900017 L1.77450007,0.417900017 C1.71330007,0.312300012 1.58070006,0.25980001 1.41270006,0.25980001 L1.41270006,0.25980001 C1.22430005,0.25980001 0.992100039,0.325500013 0.76680003,0.455400018" id="Fill-171" fill="url(#linearGradient-58)" mask="url(#mask-57)"></path> </g> <g id="Group-176" transform="translate(126.300005, 216.305109)"> <mask id="mask-60" fill="white"> <use xlink:href="#path-59"></use> </mask> <g id="Clip-175"></g> <path d="M0.456600018,0.597600024 C0.139800006,0.973500039 0.24570001,1.58250006 0.24570001,1.58250006 L0.24570001,1.58250006 C0.24570001,1.58250006 0.864000034,1.58130006 1.18110005,1.20510005 L1.18110005,1.20510005 C1.49700006,0.827400033 1.59120006,0.385200015 1.39110006,0.217500009 L1.39110006,0.217500009 C1.33860005,0.173700007 1.27110005,0.152700006 1.19430005,0.152700006 L1.19430005,0.152700006 C0.978600039,0.153000006 0.689700027,0.318000013 0.456600018,0.597600024" id="Fill-174" fill="url(#linearGradient-61)" mask="url(#mask-60)"></path> </g> <g id="Group-179" transform="translate(123.900005, 214.805109)"> <mask id="mask-63" fill="white"> <use xlink:href="#path-62"></use> </mask> <g id="Clip-178"></g> <path d="M0.100500004,0.694800028 C-0.0684000027,1.15770005 0.23940001,1.69440007 0.23940001,1.69440007 L0.23940001,1.69440007 C0.23940001,1.69440007 0.821100033,1.48050006 0.989100039,1.01880004 L0.989100039,1.01880004 C1.15680005,0.556200022 1.09500004,0.108600004 0.849000034,0.0192000008 L0.849000034,0.0192000008 C0.819900033,0.00900000036 0.789900031,0.00390000015 0.75900003,0.00390000015 L0.75900003,0.00390000015 C0.527400021,0.00390000015 0.24930001,0.287100011 0.100500004,0.694800028" id="Fill-177" fill="url(#linearGradient-64)" mask="url(#mask-63)"></path> </g> <g id="Group-188" transform="translate(85.200003, 208.805108)"> <path d="M50.617292,15.2092206 C50.617292,23.1700209 44.1630918,29.6236212 36.2046914,29.6236212 C32.6586913,29.6236212 29.4120912,28.3429211 26.9016911,26.218321 C39.4590916,23.6806209 45.5775918,15.1810206 48.5556919,7.77762031 C49.864292,9.9472204 50.617292,12.4909205 50.617292,15.2092206" id="Fill-180" fill="#909F40"></path> <path d="M30.3779712,15.2100306 C30.3779712,23.5836309 23.5898709,30.3711312 15.2168706,30.3711312 C6.84447027,30.3711312 0.0566700023,23.5836309 0.0566700023,15.2100306 C0.0566700023,6.83673027 6.84447027,0.0486300019 15.2168706,0.0486300019 C23.5898709,0.0486300019 30.3779712,6.83673027 30.3779712,15.2100306" id="Fill-182" fill="#476320"></path> <path d="M29.6294412,15.2092206 C29.6294412,23.1700209 23.1761409,29.6236212 15.2168406,29.6236212 C11.6714405,29.6236212 8.42514033,28.3429211 5.91474024,26.218321 C2.78874011,23.5750209 0.804240032,19.6249208 0.804240032,15.2092206 C0.804240032,7.24962029 7.25754029,0.797220032 15.2168406,0.797220032 C20.4584408,0.797220032 25.044841,3.59442014 27.5687411,7.77762031 C28.8764411,9.9472204 29.6294412,12.4909205 29.6294412,15.2092206" id="Fill-184" fill="#C0D455"></path> <path d="M20.9017508,15.2092206 C20.9017508,18.3499207 18.3574507,20.8951208 15.2167506,20.8951208 C12.0772505,20.8951208 9.53085038,18.3499207 9.53085038,15.2092206 C9.53085038,12.0700205 12.0772505,9.52392038 15.2167506,9.52392038 C18.3574507,9.52392038 20.9017508,12.0700205 20.9017508,15.2092206" id="Fill-186" fill="#D9E599"></path> </g> <g id="Group-191" transform="translate(99.900004, 214.205109)"> <mask id="mask-66" fill="white"> <use xlink:href="#path-65"></use> </mask> <g id="Clip-190"></g> <path d="M0.0447000018,0.919500037 C0.0447000018,1.41240006 0.51570002,1.81140007 0.51570002,1.81140007 L0.51570002,1.81140007 C0.51570002,1.81140007 0.989700039,1.41240006 0.989700039,0.919500037 L0.989700039,0.919500037 C0.989700039,0.428400017 0.778200031,0.0294000012 0.51570002,0.0294000012 L0.51570002,0.0294000012 C0.25560001,0.0294000012 0.0447000018,0.428400017 0.0447000018,0.919500037" id="Fill-189" fill="url(#linearGradient-67)" mask="url(#mask-66)"></path> </g> <g id="Group-194" transform="translate(96.600004, 214.805109)"> <mask id="mask-69" fill="white"> <use xlink:href="#path-68"></use> </mask> <g id="Clip-193"></g> <path d="M0.471000019,0.0192000008 C0.226500009,0.108600004 0.163800007,0.556200022 0.332400013,1.01880004 L0.332400013,1.01880004 C0.50130002,1.48050006 1.08120004,1.69440007 1.08120004,1.69440007 L1.08120004,1.69440007 C1.08120004,1.69440007 1.38900006,1.15650005 1.22010005,0.694800028 L1.22010005,0.694800028 C1.07130004,0.287100011 0.793200032,0.00390000015 0.561000022,0.00390000015 L0.561000022,0.00390000015 C0.530100021,0.00390000015 0.49980002,0.00900000036 0.471000019,0.0192000008" id="Fill-192" fill="url(#linearGradient-70)" mask="url(#mask-69)"></path> </g> <g id="Group-197" transform="translate(93.900004, 216.305109)"> <mask id="mask-72" fill="white"> <use xlink:href="#path-71"></use> </mask> <g id="Clip-196"></g> <path d="M0.229500009,0.217500009 C0.0291000012,0.385200015 0.124500005,0.827400033 0.440400017,1.20510005 L0.440400017,1.20510005 C0.75630003,1.58130006 1.37580005,1.58250006 1.37580005,1.58250006 L1.37580005,1.58250006 C1.37580005,1.58250006 1.48170006,0.973500039 1.16490005,0.596100024 L1.16490005,0.596100024 C0.931800037,0.317700013 0.642900026,0.152700006 0.426600017,0.152700006 L0.426600017,0.152700006 C0.349800014,0.152700006 0.282300011,0.173700007 0.229500009,0.217500009" id="Fill-195" fill="url(#linearGradient-73)" mask="url(#mask-72)"></path> </g> <g id="Group-200" transform="translate(91.800004, 218.705109)"> <mask id="mask-75" fill="white"> <use xlink:href="#path-74"></use> </mask> <g id="Clip-199"></g> <path d="M0.147000006,0.417900017 C0.0156000006,0.646200026 0.25530001,1.02870004 0.681600027,1.27470005 L0.681600027,1.27470005 C1.10820004,1.52010006 1.68960007,1.31070005 1.68960007,1.31070005 L1.68960007,1.31070005 C1.68960007,1.31070005 1.58010006,0.701400028 1.15440005,0.455400018 L1.15440005,0.455400018 C0.929400037,0.325500013 0.697200028,0.25980001 0.50910002,0.25980001 L0.50910002,0.25980001 C0.341100014,0.25980001 0.208200008,0.312300012 0.147000006,0.417900017" id="Fill-198" fill="url(#linearGradient-76)" mask="url(#mask-75)"></path> </g> <g id="Group-203" transform="translate(90.600004, 221.705109)"> <mask id="mask-78" fill="white"> <use xlink:href="#path-77"></use> </mask> <g id="Clip-202"></g> <path d="M0.185400007,0.612000024 C0.139800006,0.868200034 0.49590002,1.14690005 0.980400039,1.23240005 L0.980400039,1.23240005 C1.46520006,1.31670005 1.94010008,0.921900037 1.94010008,0.921900037 L1.94010008,0.921900037 C1.94010008,0.921900037 1.62960006,0.386400015 1.14480005,0.300600012 L1.14480005,0.300600012 C1.04820004,0.283500011 0.953400038,0.275400011 0.863700034,0.275400011 L0.863700034,0.275400011 C0.50370002,0.275400011 0.221100009,0.405600016 0.185400007,0.612000024" id="Fill-201" fill="url(#linearGradient-79)" mask="url(#mask-78)"></path> </g> <g id="Group-206" transform="translate(90.600004, 225.005109)"> <mask id="mask-81" fill="white"> <use xlink:href="#path-80"></use> </mask> <g id="Clip-205"></g> <path d="M0.980400039,0.0873000035 C0.49590002,0.173700007 0.139800006,0.450900018 0.185400007,0.709200028 L0.185400007,0.709200028 C0.230100009,0.965100038 0.660000026,1.10520004 1.14480005,1.01880004 L1.14480005,1.01880004 C1.62960006,0.933000037 1.94010008,0.399000016 1.94010008,0.399000016 L1.94010008,0.399000016 C1.94010008,0.399000016 1.55280006,0.075300003 1.12080004,0.075300003 L1.12080004,0.075300003 C1.07460004,0.075300003 1.02750004,0.0792000031 0.980400039,0.0873000035" id="Fill-204" fill="url(#linearGradient-82)" mask="url(#mask-81)"></path> </g> <g id="Group-209" transform="translate(91.800004, 227.705109)"> <mask id="mask-84" fill="white"> <use xlink:href="#path-83"></use> </mask> <g id="Clip-208"></g> <path d="M0.681600027,0.345300014 C0.25530001,0.590700023 0.0156000006,0.974100039 0.147000006,1.20000005 L0.147000006,1.20000005 C0.276900011,1.42620006 0.728400029,1.41030006 1.15440005,1.16370005 L1.15440005,1.16370005 C1.58010006,0.917400036 1.68960007,0.309600012 1.68960007,0.309600012 L1.68960007,0.309600012 C1.68960007,0.309600012 1.45800006,0.225600009 1.17990005,0.225600009 L1.17990005,0.225600009 C1.01730004,0.225600009 0.839100033,0.25440001 0.681600027,0.345300014" id="Fill-207" fill="url(#linearGradient-85)" mask="url(#mask-84)"></path> </g> <g id="Group-212" transform="translate(93.900004, 230.105109)"> <mask id="mask-87" fill="white"> <use xlink:href="#path-86"></use> </mask> <g id="Clip-211"></g> <path d="M0.440400017,0.416100017 C0.124500005,0.792300031 0.0291000012,1.23480005 0.229500009,1.40250006 L0.229500009,1.40250006 C0.430500017,1.56990006 0.849600034,1.40100006 1.16490005,1.02360004 L1.16490005,1.02360004 C1.48170006,0.647100026 1.37580005,0.0372000015 1.37580005,0.0372000015 L1.37580005,0.0372000015 C1.37580005,0.0372000015 0.75630003,0.0399000016 0.440400017,0.416100017" id="Fill-210" fill="url(#linearGradient-88)" mask="url(#mask-87)"></path> </g> <g id="Group-215" transform="translate(96.600004, 231.305109)"> <mask id="mask-90" fill="white"> <use xlink:href="#path-89"></use> </mask> <g id="Clip-214"></g> <path d="M0.332400013,0.901500036 C0.163800007,1.36380005 0.226500009,1.81080007 0.471000019,1.90110008 L0.471000019,1.90110008 C0.716700028,1.98990008 1.05150004,1.68750007 1.22010005,1.22520005 L1.22010005,1.22520005 C1.38900006,0.76230003 1.08120004,0.225600009 1.08120004,0.225600009 L1.08120004,0.225600009 C1.08120004,0.225600009 0.50130002,0.439800017 0.332400013,0.901500036" id="Fill-213" fill="url(#linearGradient-91)" mask="url(#mask-90)"></path> </g> <g id="Group-218" transform="translate(99.900004, 231.905109)"> <mask id="mask-93" fill="white"> <use xlink:href="#path-92"></use> </mask> <g id="Clip-217"></g> <path d="M0.0446971441,0.99930004 C0.0438000017,1.49220006 0.25560001,1.88970008 0.51570002,1.88970008 L0.51570002,1.88970008 C0.778200031,1.88970008 0.989700039,1.49220006 0.989700039,0.99930004 L0.989700039,0.99930004 C0.989700039,0.50700002 0.51570002,0.108900004 0.51570002,0.108900004 L0.51570002,0.108900004 C0.51570002,0.108900004 0.0438000017,0.50700002 0.0446971441,0.99930004" id="Fill-216" fill="url(#linearGradient-94)" mask="url(#mask-93)"></path> </g> <g id="Group-221" transform="translate(102.900004, 231.305109)"> <mask id="mask-96" fill="white"> <use xlink:href="#path-95"></use> </mask> <g id="Clip-220"></g> <path d="M0.112200004,1.22520005 C0.281100011,1.68750007 0.616800025,1.98990008 0.861000034,1.90110008 L0.861000034,1.90110008 C1.10700004,1.81080007 1.16970005,1.36380005 1.00080004,0.901500036 L1.00080004,0.901500036 C0.833100033,0.439800017 0.25230001,0.225600009 0.25230001,0.225600009 L0.25230001,0.225600009 C0.25230001,0.225600009 -0.0555000022,0.76230003 0.112200004,1.22520005" id="Fill-219" fill="url(#linearGradient-97)" mask="url(#mask-96)"></path> </g> <g id="Group-224" transform="translate(105.300004, 230.105109)"> <mask id="mask-99" fill="white"> <use xlink:href="#path-98"></use> </mask> <g id="Clip-223"></g> <path d="M0.468600019,1.02360004 C0.785700031,1.40100006 1.20390005,1.56990006 1.40400006,1.40250006 L1.40400006,1.40250006 C1.60320006,1.23480005 1.50900006,0.792300031 1.19190005,0.416100017 L1.19190005,0.416100017 C0.877200035,0.0399000016 0.25770001,0.0372000015 0.25770001,0.0372000015 L0.25770001,0.0372000015 C0.25770001,0.0372000015 0.152100006,0.647100026 0.468600019,1.02360004" id="Fill-222" fill="url(#linearGradient-100)" mask="url(#mask-99)"></path> </g> <g id="Group-227" transform="translate(107.100004, 227.705109)"> <mask id="mask-102" fill="white"> <use xlink:href="#path-101"></use> </mask> <g id="Clip-226"></g> <path d="M0.24480001,0.309600012 C0.24480001,0.309600012 0.352500014,0.918300036 0.778800031,1.16370005 L0.778800031,1.16370005 C1.20510005,1.41030006 1.65750007,1.42620006 1.78680007,1.20000005 L1.78680007,1.20000005 C1.91670008,0.974100039 1.67730007,0.590700023 1.25190005,0.345300014 L1.25190005,0.345300014 C1.09440004,0.25440001 0.916200036,0.225600009 0.75390003,0.225600009 L0.75390003,0.225600009 C0.476100019,0.225600009 0.24480001,0.309600012 0.24480001,0.309600012" id="Fill-225" fill="url(#linearGradient-103)" mask="url(#mask-102)"></path> </g> <g id="Group-230" transform="translate(108.000004, 225.005109)"> <mask id="mask-105" fill="white"> <use xlink:href="#path-104"></use> </mask> <g id="Clip-229"></g> <path d="M0.294600012,0.398700016 C0.294600012,0.398700016 0.604200024,0.933000037 1.08870004,1.01880004 L1.08870004,1.01880004 C1.57350006,1.10520004 2.00430008,0.965100038 2.04900008,0.709200028 L2.04900008,0.709200028 C2.09400008,0.451200018 1.73850007,0.173700007 1.25400005,0.0873000035 L1.25400005,0.0873000035 C1.20660005,0.0792000031 1.15980005,0.075300003 1.11330004,0.075300003 L1.11330004,0.075300003 C0.681000027,0.075300003 0.294600012,0.398700016 0.294600012,0.398700016" id="Fill-228" fill="url(#linearGradient-106)" mask="url(#mask-105)"></path> </g> <g id="Group-233" transform="translate(108.000004, 221.705109)"> <mask id="mask-108" fill="white"> <use xlink:href="#path-107"></use> </mask> <g id="Clip-232"></g> <path d="M1.08870004,0.300600012 C0.604200024,0.386400015 0.294600012,0.921900037 0.294600012,0.921900037 L0.294600012,0.921900037 C0.294600012,0.921900037 0.768300031,1.31670005 1.25400005,1.23240005 L1.25400005,1.23240005 C1.73850007,1.14690005 2.09400008,0.868200034 2.04900008,0.612000024 L2.04900008,0.612000024 C2.01330008,0.405600016 1.73010007,0.275400011 1.37010005,0.275400011 L1.37010005,0.275400011 C1.28010005,0.275400011 1.18560005,0.283500011 1.08870004,0.300600012" id="Fill-231" fill="url(#linearGradient-109)" mask="url(#mask-108)"></path> </g> <g id="Group-236" transform="translate(107.100004, 218.705109)"> <mask id="mask-111" fill="white"> <use xlink:href="#path-110"></use> </mask> <g id="Clip-235"></g> <path d="M0.778800031,0.455400018 C0.352500014,0.701400028 0.24480001,1.31070005 0.24480001,1.31070005 L0.24480001,1.31070005 C0.24480001,1.31070005 0.825600033,1.52010006 1.25190005,1.27470005 L1.25190005,1.27470005 C1.67730007,1.02870004 1.91670008,0.646200026 1.78680007,0.417900017 L1.78680007,0.417900017 C1.72590007,0.312300012 1.59300006,0.25980001 1.42500006,0.25980001 L1.42500006,0.25980001 C1.23660005,0.25980001 1.00410004,0.325500013 0.778800031,0.455400018" id="Fill-234" fill="url(#linearGradient-112)" mask="url(#mask-111)"></path> </g> <g id="Group-239" transform="translate(105.300004, 216.305109)"> <mask id="mask-114" fill="white"> <use xlink:href="#path-113"></use> </mask> <g id="Clip-238"></g> <path d="M0.468600019,0.597600024 C0.152100006,0.973500039 0.25770001,1.58250006 0.25770001,1.58250006 L0.25770001,1.58250006 C0.25770001,1.58250006 0.877200035,1.58130006 1.19310005,1.20510005 L1.19310005,1.20510005 C1.50900006,0.827400033 1.60320006,0.385200015 1.40400006,0.217500009 L1.40400006,0.217500009 C1.35150005,0.173700007 1.28430005,0.152700006 1.20750005,0.152700006 L1.20750005,0.152700006 C0.991800039,0.153000006 0.702600028,0.318000013 0.468600019,0.597600024" id="Fill-237" fill="url(#linearGradient-115)" mask="url(#mask-114)"></path> </g> <g id="Group-242" transform="translate(102.900004, 214.805109)"> <mask id="mask-117" fill="white"> <use xlink:href="#path-116"></use> </mask> <g id="Clip-241"></g> <path d="M0.112200004,0.694800028 C-0.0555000022,1.15770005 0.25230001,1.69440007 0.25230001,1.69440007 L0.25230001,1.69440007 C0.25230001,1.69440007 0.834000033,1.48050006 1.00080004,1.01880004 L1.00080004,1.01880004 C1.16970005,0.556200022 1.10700004,0.108600004 0.861000034,0.0192000008 L0.861000034,0.0192000008 C0.832200033,0.00900000036 0.802200032,0.00390000015 0.771300031,0.00390000015 L0.771300031,0.00390000015 C0.540300021,0.00390000015 0.26130001,0.287100011 0.112200004,0.694800028" id="Fill-240" fill="url(#linearGradient-118)" mask="url(#mask-117)"></path> </g> <g id="Group-281" transform="translate(49.200002, 209.105108)"> <path d="M65.6294426,14.9092206 C65.6294426,22.8700209 59.1761424,29.3236212 51.216842,29.3236212 C47.6714419,29.3236212 44.4251418,28.0429211 41.9147417,25.918321 C54.4712422,23.3806209 60.5897424,14.8810206 63.5687425,7.4776203 C64.8764426,9.64722038 65.6294426,12.1909205 65.6294426,14.9092206" id="Fill-243" fill="#909F40"></path> <path d="M16.1033706,19.5612608 L15.8000706,19.5450608 C16.0172706,15.4800606 14.5388706,6.20106025 11.9432705,4.02276016 C8.60637034,4.9686602 6.71697027,7.6539603 6.32547025,12.0057605 C6.02847024,15.3024606 6.75207027,18.3663607 6.75927027,18.3960607 L6.46377026,18.4677607 C6.45657026,18.4356607 5.72247023,15.3300606 6.02217024,11.9856605 C6.19917025,10.0119604 6.69537027,8.34006033 7.4987703,7.01556028 C8.50767034,5.35326021 10.0001704,4.23996017 11.9378705,3.70896015 L12.0122705,3.68946015 L12.0734705,3.73626015 C13.7354705,5.0526602 14.7569706,8.86266035 15.2192706,11.0163604 C15.8609706,14.0169606 16.2173706,17.4507607 16.1033706,19.5612608" id="Fill-245" fill="#A2746E"></path> <polygon id="Fill-247" fill="#A2746E" points="11.7089705 3.95481016 11.7089705 0.00201000008 12.6218705 0.00201000008 12.1649705 3.95481016"></polygon> <path d="M11.9873105,3.23901013 C11.9873105,3.26751013 11.9648105,3.29061013 11.9369105,3.29061013 C11.9093105,3.29061013 11.8859105,3.26751013 11.8859105,3.23901013 L11.8859105,0.299910012 C11.8859105,0.271410011 11.9093105,0.24891001 11.9369105,0.24891001 C11.9648105,0.24891001 11.9873105,0.271410011 11.9873105,0.299910012 L11.9873105,3.23901013 Z" id="Fill-249" fill="#EFD7D4"></path> <path d="M9.63666038,23.7571509 C9.63666038,27.2449511 12.4638605,30.0712512 15.9516606,30.0712512 C17.2206607,30.0712512 18.4017607,29.6974512 19.3929608,29.0524512 C21.1224608,27.9265511 22.2657609,25.975951 22.2657609,23.7571509 C22.2657609,23.6557509 22.2621609,23.5528509 22.2585609,23.4517509 C22.2576609,23.4421509 22.2576609,23.4331509 22.2567609,23.4232509 C22.2513609,23.3248509 22.2441609,23.2258509 22.2333609,23.1274509 C22.2324609,23.1244509 22.2324609,23.1202509 22.2324609,23.1172509 C21.9012609,19.8475508 19.0911608,16.7497507 15.9516606,18.1282507 C15.1233606,17.7910507 14.3442606,17.7208507 13.6341605,17.8558507 C11.2431604,18.3079507 9.63666038,21.0685508 9.63666038,23.7571509" id="Fill-251" fill="#B03829"></path> <path d="M19.7527208,20.4078608 C19.7527208,20.4078608 21.5755209,23.0295609 19.7527208,25.195861 C20.8924208,24.285061 22.6300209,22.9698609 19.7527208,20.4078608" id="Fill-253" fill="#D0887F"></path> <path d="M9.63666038,23.7571509 C9.63666038,27.2449511 12.4638605,30.0712512 15.9516606,30.0712512 C17.2206607,30.0712512 18.4017607,29.6974512 19.3929608,29.0524512 C10.7691604,28.0297511 13.1502605,19.3639508 13.6341605,17.8558507 C11.2431604,18.3079507 9.63666038,21.0685508 9.63666038,23.7571509" id="Fill-255" fill="#842A1F"></path> <path d="M12.9261305,23.7571509 C12.9261305,27.2449511 10.0980304,30.0712512 6.61113026,30.0712512 C5.34183021,30.0712512 4.16073017,29.6974512 3.16983013,29.0524512 C1.44033006,27.9265511 0.295830012,25.975951 0.295830012,23.7571509 C0.295830012,23.6557509 0.299730012,23.5528509 0.303930012,23.4517509 C0.304830012,23.4421509 0.304830012,23.4331509 0.306030012,23.4232509 C0.312030012,23.3248509 0.318330013,23.2258509 0.329130013,23.1274509 L0.329130013,23.1172509 C0.661230026,19.8475508 3.47133014,16.7497507 6.61113026,18.1282507 C7.4385303,17.7910507 8.21853033,17.7208507 8.92923035,17.8558507 C11.3187304,18.3079507 12.9261305,21.0685508 12.9261305,23.7571509" id="Fill-257" fill="#B03829"></path> <path d="M2.81094011,20.4078608 C2.81094011,20.4078608 0.985440039,23.0295609 2.81094011,25.195861 C1.67004007,24.285061 -0.0675600027,22.9698609 2.81094011,20.4078608" id="Fill-259" fill="#D0887F"></path> <path d="M12.9261305,23.7571509 C12.9261305,27.2449511 10.0980304,30.0712512 6.61113026,30.0712512 C5.34183021,30.0712512 4.16073017,29.6974512 3.16983013,29.0524512 C11.7933305,28.0297511 9.41223037,19.3639508 8.92923035,17.8558507 C11.3187304,18.3079507 12.9261305,21.0685508 12.9261305,23.7571509" id="Fill-261" fill="#842A1F"></path> <path d="M31.7823313,19.5612608 L31.4781313,19.5450608 C31.6953313,15.4800606 30.2169312,6.20106025 27.6213311,4.02276016 C24.285331,4.9686602 22.3950309,7.6539603 22.0029309,12.0057605 C21.7068309,15.3024606 22.4301309,18.3663607 22.4373309,18.3960607 L22.1418309,18.4677607 C22.1337309,18.4356607 21.4005309,15.3300606 21.6996309,11.9856605 C21.8763309,10.0119604 22.3734309,8.34006033 23.1759309,7.01556028 C24.184831,5.35326021 25.679131,4.23996017 27.6150311,3.70896015 L27.6903311,3.68946015 L27.7506311,3.73626015 C29.4129312,5.0526602 30.4350312,8.86266035 30.8964312,11.0163604 C31.5390313,14.0169606 31.8945313,17.4507607 31.7823313,19.5612608" id="Fill-263" fill="#A2746E"></path> <polygon id="Fill-265" fill="#A2746E" points="27.3861911 3.95481016 27.3861911 0.00201000008 28.2990911 0.00201000008 27.8430911 3.95481016"></polygon> <path d="M27.6653711,3.23901013 C27.6653711,3.26751013 27.6428711,3.29061013 27.6152711,3.29061013 C27.5873711,3.29061013 27.5639711,3.26751013 27.5639711,3.23901013 L27.5639711,0.299910012 C27.5639711,0.271410011 27.5873711,0.24891001 27.6152711,0.24891001 C27.6428711,0.24891001 27.6653711,0.271410011 27.6653711,0.299910012 L27.6653711,3.23901013 Z" id="Fill-267" fill="#EFD7D4"></path> <path d="M25.313851,23.7571509 C25.313851,27.2449511 28.1419511,30.0712512 31.6297513,30.0712512 C32.8978513,30.0712512 34.0801514,29.6974512 35.0707514,29.0524512 C36.7996515,27.9265511 37.9438515,25.975951 37.9438515,23.7571509 C37.9438515,23.6557509 37.9402515,23.5528509 37.9357515,23.4517509 C37.9357515,23.4421509 37.9357515,23.4331509 37.9348515,23.4232509 C37.9294515,23.3248509 37.9213515,23.2258509 37.9105515,23.1274509 L37.9105515,23.1172509 C37.5784515,19.8475508 34.7683514,16.7497507 31.6297513,18.1282507 C30.8005512,17.7910507 30.0223512,17.7208507 29.3122512,17.8558507 C26.9203511,18.3079507 25.313851,21.0685508 25.313851,23.7571509" id="Fill-269" fill="#B03829"></path> <path d="M35.4299414,20.4078608 C35.4299414,20.4078608 37.2536415,23.0295609 35.4299414,25.195861 C36.5708415,24.285061 38.3093415,22.9698609 35.4299414,20.4078608" id="Fill-271" fill="#D0887F"></path> <path d="M25.313851,23.7571509 C25.313851,27.2449511 28.1419511,30.0712512 31.6297513,30.0712512 C32.8978513,30.0712512 34.0801514,29.6974512 35.0707514,29.0524512 C26.4472511,28.0297511 28.8286511,19.3639508 29.3122512,17.8558507 C26.9203511,18.3079507 25.313851,21.0685508 25.313851,23.7571509" id="Fill-273" fill="#842A1F"></path> <path d="M28.6041911,23.7571509 C28.6041911,27.2449511 25.776091,30.0712512 22.2891909,30.0712512 C21.0198908,30.0712512 19.8378908,29.6974512 18.8478907,29.0524512 C17.1183907,27.9265511 15.9750906,25.975951 15.9750906,23.7571509 C15.9750906,23.6557509 15.9777906,23.5528509 15.9822906,23.4517509 C15.9822906,23.4421509 15.9822906,23.4331509 15.9831906,23.4232509 C15.9903906,23.3248509 15.9966906,23.2258509 16.0062906,23.1274509 C16.0071906,23.1244509 16.0071906,23.1202509 16.0071906,23.1172509 C16.3392906,19.8475508 19.1493908,16.7497507 22.2891909,18.1282507 C23.1165909,17.7910507 23.8956909,17.7208507 24.606391,17.8558507 C26.9967911,18.3079507 28.6041911,21.0685508 28.6041911,23.7571509" id="Fill-275" fill="#B03829"></path> <path d="M18.4890007,20.4078608 C18.4890007,20.4078608 16.6635007,23.0295609 18.4890007,25.195861 C17.3481007,24.285061 15.6096006,22.9698609 18.4890007,20.4078608" id="Fill-277" fill="#D0887F"></path> <path d="M28.6041911,23.7571509 C28.6041911,27.2449511 25.776091,30.0712512 22.2891909,30.0712512 C21.0198908,30.0712512 19.8378908,29.6974512 18.8478907,29.0524512 C27.4713911,28.0297511 25.090291,19.3639508 24.606391,17.8558507 C26.9967911,18.3079507 28.6041911,21.0685508 28.6041911,23.7571509" id="Fill-279" fill="#842A1F"></path> </g> </g> </g> </g> </g> </svg> 