<?xml version="1.0" encoding="UTF-8"?> <svg xmlns="http://www.w3.org/2000/svg" xmlns:xlink="http://www.w3.org/1999/xlink" width="461px" height="358px" viewBox="0 0 461 358"> <!-- Generator: Sketch 57.1 (83088) - https://sketch.com --> <title>Group 20</title> <desc>Created with Sketch.</desc> <defs> <polygon id="path-1" points="0 0.0627070168 460.937351 0.0627070168 460.937351 31 0 31"></polygon> <polygon id="path-3" points="0.0480623913 0.0703404255 42.9863582 0.0703404255 42.9863582 86.9604911 0.0480623913 86.9604911"></polygon> <polygon id="path-5" points="0 0.202560714 29.43585 0.202560714 29.43585 42.6067036 0 42.6067036"></polygon> <polygon id="path-7" points="0.511027871 0.0963529412 37.4078992 0.0963529412 37.4078992 51.2291765 0.511027871 51.2291765"></polygon> </defs> <g id="Page-1" stroke="none" stroke-width="1" fill="none" fill-rule="evenodd"> <g id="mark" transform="translate(-246.000000, -808.000000)"> <g id="Group-11-Copy" transform="translate(165.000000, 664.000000)"> <g id="Group-20" transform="translate(81.000000, 144.000000)"> <g id="Group-79" transform="translate(0.000000, 132.000000)"> <g id="Group-3" transform="translate(0.000000, 97.000000)"> <mask id="mask-2" fill="white"> <use xlink:href="#path-1"></use> </mask> <g id="Clip-2"></g> <path d="M-1.93901157e-05,31.0000196 L460.937351,31.0000196 C460.937351,31.0000196 432.626618,17.6756915 420.81988,17.6756915 C409.012948,17.6756915 347.608523,23.5409502 336.746277,21.940783 C325.884032,20.3406158 287.551712,-0.319172871 272.639259,0.0680826498 C242.874365,0.841126814 206.535349,22.9186032 162.614119,21.9584833 C118.692793,20.9984612 98.8595158,5.47606688 87.2270946,5.47606688 C78.5484666,5.47606688 52.9242349,17.6499722 44.8956605,20.5302341 C36.8669892,23.4105937 27.6025859,16.8639218 -1.93901157e-05,31.0000196" id="Fill-1" fill="#E6E5E0" mask="url(#mask-2)"></path> </g> <path d="M26.6620508,48.4168808 C21.7437781,50.2910637 26.0835501,57.0188849 26.3685888,60.147791 C26.6537243,63.276697 16.5465664,67.3217207 17.0158539,70.6892408 C17.4852383,74.0567608 24.5435279,79.0311693 23.5399865,84.6928368 C21.4409245,96.5361277 28.7500753,101.775587 30.4122846,101.989618 C32.074397,102.203648 41.5354736,99.0982524 41.9318555,93.6264226 C42.3282375,88.1544952 40.9191162,76.9682219 39.6778812,68.4021171 C39.1259092,64.5932686 40.7883121,58.0155811 39.2641685,54.6588894 C37.739928,51.3022952 31.5295897,46.5620133 26.6620508,48.4168808" id="Fill-4" fill="#E6E5E0"></path> <path d="M29.5956761,126 C29.5823349,125.908745 28.2773377,116.700052 29.5728457,101.756091 C29.8470925,98.5930683 30.1615508,95.7399633 30.4657683,92.9807373 C31.346383,84.9912075 32.1069268,78.0911988 31.1362118,69.1629763 L32.5366646,69 C33.5252305,78.092365 32.756325,85.068371 31.8659392,93.1458516 C31.5627552,95.8965254 31.2492364,98.7407868 30.9764929,101.886316 C29.6959232,116.657583 30.9760231,125.692609 30.9891765,125.782212 L29.5956761,126 Z" id="Fill-6" fill="#E6E5E0"></path> <path d="M264.93657,38.054234 C255.96068,37.0401106 252.94664,50.4011789 253.000713,65.3105073 C253.049645,78.8254038 261.120235,78.0267175 261.816559,78.931185 C267.105216,85.8006625 272.44854,73.7538182 272.743914,69.0606036 C273.936679,50.1047593 270.900495,38.728056 264.93657,38.054234" id="Fill-8" fill="#E6E5E0"></path> <path d="M262.062653,103 C262.055323,102.861902 261.322746,89.0749048 261.074178,79.0985207 C260.871888,70.9856391 261.01499,65.6095337 262.374568,57 L264,57.198065 C262.655848,65.7104402 262.514606,71.0321522 262.714818,79.0669033 C262.962948,89.0252204 263.694541,102.794631 263.701871,102.932537 L262.062653,103 Z" id="Fill-10" fill="#E6E5E0"></path> <path d="M121.092157,57.5547813 C124.765132,59.4024313 128.232902,65.6810783 127.739922,68.0375767 C127.246941,70.394075 123.721322,73.4046972 123.06408,75.9270325 C122.40674,78.4493677 129.144111,84.086862 127.82943,88.2966791 C126.514847,92.5064963 114.847864,97.9795949 113.533184,98 C112.218601,98.0204296 103.838026,89.2687371 104.002385,85.0709302 C104.166745,80.8730272 107.504943,78.0591802 109.21391,71.6471718 C109.973853,68.7961413 109.246547,63.648279 110.72549,61.2246196 C112.204432,58.8010563 117.456998,55.7261555 121.092157,57.5547813" id="Fill-12" fill="#E6E5E0"></path> <path d="M112.384076,116 L111,115.626634 C111.017765,115.559379 112.785707,108.751489 113.032895,97.3614537 C113.085713,94.9297064 113.080842,92.724195 113.076257,90.5912372 C113.062504,84.3152132 113.05066,78.8949932 114.602839,72 L116,72.3200834 C114.483639,79.0555166 114.495387,84.3999072 114.508854,90.5880575 C114.513534,92.7295908 114.518405,94.9439666 114.4653,97.3930574 C114.21391,108.974834 112.458672,115.71865 112.384076,116" id="Fill-14" fill="#E6E5E0"></path> <path d="M386.367164,69.2258809 C389.185413,70.6323149 393,75.9003035 392.167041,80.9427347 C391.86844,82.7506881 389.727391,85.9945803 389.222924,87.914536 C388.718656,89.8343945 395.587367,98.5298077 391.914907,103.572239 C389.924701,106.304939 383.661152,105.035548 382.652417,105.051076 C381.643682,105.066605 376.642594,107.334894 374.641243,104.802129 C372.245672,101.770303 377.238701,94.4324077 378.550016,89.5517684 C379.132989,87.3816032 376.028279,81.8036187 378.297783,75.2853587 C379.007022,73.2481598 383.578069,67.8339082 386.367164,69.2258809" id="Fill-16" fill="#E6E5E0"></path> <path d="M381.346904,119 L380,118.62934 C380.01292,118.579409 381.304148,113.502375 381.484838,105.007429 C381.523411,103.190479 381.519972,101.541689 381.516533,99.9472308 C381.506495,95.2415266 381.497851,91.1775659 382.640362,86 L384,86.3178586 C382.892343,91.33683 382.900895,95.3256066 382.910747,99.9440742 C382.914186,101.547046 382.917718,103.204636 382.87868,105.038804 C382.693993,113.72391 381.401836,118.7887 381.346904,119" id="Fill-18" fill="#E6E5E0"></path> <path d="M243.473284,50.0733527 C247.812758,49.1085094 250.14451,57.9387426 249.645964,60.3018089 C249.147418,62.6648752 247.363523,66.4902369 246.698861,69.0196023 C246.0341,71.5489677 248.948593,75.4513126 249.645964,79.8146896 C250.931214,87.8574588 249.147418,96.9814615 237.060373,91.1541512 C230.001774,94.651154 234.484932,83.0394089 233.360264,77.8005046 C232.475135,73.6771341 228.720872,72.3677452 230.44923,65.9377692 C231.217554,63.0787924 235.303753,60.1177815 236.79939,57.6874633 C238.295028,55.2570487 239.447267,50.9684389 243.473284,50.0733527" id="Fill-20" fill="#E6E5E0"></path> <path d="M236.384103,110 L235,109.626634 C235.017766,109.559379 236.785742,102.751489 237.032933,91.3613573 C237.085753,88.9297064 237.080882,86.7240987 237.076202,84.5911408 C237.062543,78.3152132 237.050699,72.8949932 238.602812,66 L240,66.3200834 C238.483705,73.0555166 238.495358,78.3998108 238.508921,84.5880575 C238.513601,86.7294944 238.518473,88.9438702 238.465271,91.392961 C238.213972,102.974834 236.458699,109.71865 236.384103,110" id="Fill-22" fill="#E6E5E0"></path> <path d="M345.243531,59.8691823 C346.701111,56.0734932 358.950167,65.6258077 359.893573,70.8653106 C360.666406,75.1580519 356.952586,81.4711722 357.66915,84.1073929 C358.352818,86.6224234 360.27125,92.6734773 358.950167,96.8810399 C357.629085,101.088602 351.769205,105.979612 350.448123,106 C349.686779,106.011782 338.805647,102.51926 336.330324,99.2564425 C334.510484,96.8578006 340.800184,94.8554752 340.870201,93.0777644 C341.035275,88.8822057 336.119685,84.9901023 337.837102,78.5814319 C338.600704,75.7320243 344.775314,75.3869879 346.261569,72.9646265 C347.747824,70.5423611 344.001794,63.1028067 345.243531,59.8691823" id="Fill-24" fill="#E6E5E0"></path> <path d="M348.384103,124 L347,123.626634 C347.01767,123.559379 348.785646,116.751489 349.032933,105.361357 C349.085658,102.929706 349.080882,100.724099 349.076202,98.5911408 C349.062543,92.3151168 349.050699,86.8949932 350.602812,80 L352,80.3200834 C350.48361,87.0554203 350.495358,92.3998108 350.508921,98.5879612 C350.513601,100.729494 350.518473,102.94387 350.465271,105.392961 C350.213876,116.974834 348.458604,123.71865 348.384103,124" id="Fill-26" fill="#E6E5E0"></path> <path d="M285.517528,32.071883 C273.848977,30.7276658 269.930792,48.4387658 270.000922,68.2022387 C270.064511,86.1174129 280.556232,85.0585919 281.461583,86.2576598 C288.336902,95.3636164 295.283217,79.3945965 295.667061,73.1733623 C297.21773,48.0458053 293.270685,32.96508 285.517528,32.071883" id="Fill-28" fill="#F1D2B6"></path> <path d="M282.574319,108 C282.55248,107.918781 280.389266,99.7171904 280.088921,86.0554827 C279.846421,75.0206195 280.017892,67.7085236 281.648689,56 L283.110278,56.2018238 C281.493352,67.811395 281.323356,75.0681363 281.564183,86.0233477 C281.860298,99.4907755 283.978554,107.540802 284,107.620552 L282.574319,108 Z" id="Fill-30" fill="#E6E5E0"></path> <path d="M280.546318,73 L280.041587,72.5036319 C277.254962,69.7634522 276.410559,61.6184622 276.176915,58.2437673 C275.733222,51.8368998 276.140522,45.4608407 277.214366,42 L278.579547,42.4470159 C277.57209,45.6934734 277.181029,51.9997721 277.606096,58.139372 C278.024763,64.1851731 279.115514,68.8349818 280.568479,70.8869769 C288.173358,62.6805664 288.56719,52.422259 288.56719,50.4102952 L290,50.4102952 C290,52.5709045 289.568055,63.7899624 281.041975,72.4940165 L280.546318,73 Z" id="Fill-32" fill="#E6E5E0"></path> <path d="M131.517499,41.0718916 C119.848995,39.7275883 115.930715,57.4387911 116.000924,77.2022011 C116.064566,95.1173991 126.556224,94.0586312 127.461505,95.2576096 C134.336868,104.36367 141.283213,88.3946283 141.667093,82.1733537 C143.217678,57.0457578 139.270619,41.9650702 131.517499,41.0718916" id="Fill-34" fill="#BEC9CD"></path> <path d="M129.585834,118 C129.56377,117.919371 127.376735,109.778928 127.073229,96.2193321 C126.837713,85.7022751 126.974191,65.5828066 130.534389,49 L132,49.3007495 C128.470652,65.740356 128.336271,85.7330236 128.570389,96.1873147 C128.870101,109.572766 131.011012,117.542775 131.032577,117.621745 L129.585834,118 Z" id="Fill-36" fill="#E6E5E0"></path> <path d="M127.792386,74 L127.431532,73.6256338 C125.525314,71.6479235 121.922399,66.0755597 119,59.6440186 L120.352834,59.049637 C122.933049,64.7280745 126.219759,70.0069874 128.142375,72.2229749 C132.794959,69.6504944 138.636398,59.109862 138.696854,59 L140,59.6935585 C139.734866,60.1752611 133.448113,71.5165942 128.271385,73.7896983 L127.792386,74 Z" id="Fill-38" fill="#E6E5E0"></path> <path d="M128.165337,86 C128.110191,86 128.055244,85.9993325 128,85.9979976 L128.036072,84.5682078 C128.079852,84.5692567 128.12383,84.5697334 128.167511,84.5697334 C133.474392,84.5697334 138.713873,77.0763762 138.766646,77 L140,77.7934165 C139.766572,78.1313408 134.258777,86 128.165337,86" id="Fill-40" fill="#E6E5E0"></path> <path d="M136.515746,88 C134.918016,87.2638055 133.191569,84.1221416 133,83.7663191 L134.099804,83 C134.738828,84.1851294 136.091421,86.2215723 137,86.6402848 L136.515746,88 Z" id="Fill-42" fill="#E6E5E0"></path> <path d="M406.361793,32.8389801 C400.852423,35.6330341 395.650685,45.1274766 396.390053,48.6908812 C397.129616,52.2544787 402.418012,56.8071448 403.403933,60.6214079 C404.389951,64.4355746 394.283896,72.9605196 396.255835,79.3266551 C398.227677,85.6925979 415.728287,93.9689983 417.700226,94 C419.672165,94.0308934 432.242975,80.7967126 431.996422,74.4486057 C431.749966,68.1006916 426.742553,63.8456427 424.178983,54.1494144 C423.039294,49.8380621 424.130061,42.0534483 421.911763,38.3885241 C419.693368,34.7235035 411.814461,30.0736562 406.361793,32.8389801" id="Fill-44" fill="#F1D2B6"></path> <path d="M419.581499,122 C419.553405,121.896727 416.766816,111.475994 416.379667,94.1017575 C416.297637,90.4227881 416.305076,87.0946958 416.312418,83.8760302 C416.33317,74.5467753 416.35128,66.4897746 414,56.3194338 L415.431912,56 C417.819997,66.3295769 417.801692,74.4623494 417.780744,83.8792996 C417.773402,87.0892148 417.765963,90.4085568 417.847602,94.070218 C418.230933,111.273006 420.972298,121.525849 421,121.627391 L419.581499,122 Z" id="Fill-46" fill="#E6E5E0"></path> <path d="M415.428231,72 L415.389562,71.1624569 C415.356683,70.4505649 414.389105,68.8644041 413.268718,67.0278225 C411.619753,64.324905 409.361325,60.6230469 407.621384,55.9512371 C405.563962,50.4269002 404.710898,44.7236354 405.086011,39 L406.48381,39.1006775 C405.650455,51.8141543 411.158241,60.8422262 414.448978,66.2363091 C415.434956,67.852634 416.181726,69.07663 416.545536,70.0460919 C417.134826,69.4622993 418.005076,67.9577186 418.760999,64.0974991 C419.380552,60.9335998 419.600333,57.7964369 419.602481,57.7650976 L421,57.8702802 C420.991033,58.0015135 420.772747,61.1230068 420.136008,64.3799446 C419.217654,69.0772176 417.935116,71.5206065 416.214978,71.8495713 L415.428231,72 Z" id="Fill-48" fill="#E6E5E0"></path> <path d="M59.6148187,9.48225549 C53.830022,12.4850968 46,23.7329386 47.7097842,34.4993398 C48.3227587,38.3595372 52.7176793,45.2857157 53.752908,49.3850258 C54.7881367,53.4843358 40.6890511,72.050154 48.2273026,82.8164577 C52.3125188,88.6510393 65.1693299,85.9407066 67.2397874,85.9739329 C69.3102448,86.0071593 79.5759111,90.8501154 83.6836949,85.4424092 C88.6010314,78.9689272 78.3523629,63.3017892 75.6606721,52.8808054 C74.463917,48.2473408 80.8368158,36.3374084 76.1783825,22.4199629 C74.7224361,18.0705298 65.3399794,6.510302 59.6148187,9.48225549" id="Fill-50" fill="#F1D2B6"></path> <path d="M70.6031425,116 C70.573742,115.889412 67.6571236,104.725276 67.2517833,86.1080428 C67.1792944,82.778099 67.2284558,79.0605647 67.2804126,75.1245685 C67.4765761,60.2801156 67.7206478,41.8057457 62,23.4344037 L63.379892,23 C69.1694621,41.5929053 68.9237517,60.1959874 68.7262387,75.143856 C68.6743783,79.0666708 68.6254097,82.771896 68.6973202,86.0762525 C69.0985155,104.501386 71.9709852,115.515488 72,115.624525 L70.6031425,116 Z" id="Fill-52" fill="#E6E5E0"></path> <path d="M67.5932071,53 L67.0643361,52.2531543 C67.0155011,52.1842424 62.1095396,45.3092271 56,41.2338345 L56.7712303,39.971148 C61.9593073,43.4317261 66.18521,48.6648394 67.6606778,50.6093547 C69.3954204,48.3576319 74.5664864,41.130167 74.5664864,35 L76,35 C76,42.8946124 68.4987098,51.9212784 68.1794186,52.3016923 L67.5932071,53 Z" id="Fill-54" fill="#E6E5E0"></path> <path d="M67.7932944,76 L67.287483,75.7911451 C66.5697525,75.4946884 65.4748863,75.0752645 64.2071824,74.5895302 C58.6500961,72.4605634 53.5349232,70.4373323 52,69.0832488 L53.0125021,68.1048334 C54.4764925,69.3963958 60.9193594,71.8647631 64.7687825,73.3395584 C65.7828479,73.7281277 66.6872899,74.0745653 67.3851866,74.3529783 C70.8147775,70.7831382 76.0685918,68.1156596 76.2982929,68 L77,69.1880822 C76.9442113,69.2162302 71.3756937,72.0452895 68.14874,75.6075513 L67.7932944,76 Z" id="Fill-56" fill="#E6E5E0"></path> <path d="M167.433611,8.30045179 C159.471425,5.57921752 153.281479,22.1153363 153.735702,26.7640346 C154.189925,31.4127329 156.761749,39.1325926 157.494402,44.1345201 C158.227054,49.1364477 151.949065,56.0693356 149.745756,64.3311307 C145.684403,79.5594175 147.172862,97.4803851 171.091329,88.6670397 C183.648476,96.8047141 177.593269,73.5569491 180.779058,63.6946965 C183.286576,55.9324921 190.613394,54.1586735 188.678495,41.4355266 C187.818204,35.7783234 180.74063,29.2644156 178.425444,24.2877396 C176.110258,19.3109664 174.820552,10.825016 167.433611,8.30045179" id="Fill-58" fill="#F1D2B6"></path> <path d="M170.9866,125 C170.965932,124.86439 168.939142,111.174689 170.755487,88.9020297 C171.140329,84.1832722 171.58821,79.9242866 172.02137,75.8056708 C173.27857,63.8518931 174.3643,53.5283482 172.830217,40.1710666 L174.236051,40 C175.788914,53.5211598 174.695162,63.9207666 173.428713,75.9624576 C172.996498,80.0725249 172.549466,84.3226706 172.166134,89.0239426 C170.36536,111.10465 172.364689,124.64009 172.385073,124.774243 L170.9866,125 Z" id="Fill-60" fill="#E6E5E0"></path> <path d="M174.464948,52 L173.780148,51.2115475 C173.330776,50.6941193 172.571677,50.0356913 171.610669,49.2021504 C169.655134,47.5058997 166.976904,45.1829608 164.543749,41.9718015 C161.658139,38.1633207 159.792916,33.9361908 159,29.407681 L160.469759,29.153367 C162.20777,39.0778426 168.707852,44.7159604 172.59157,48.0845333 C173.205751,48.6173864 173.741159,49.0817171 174.182972,49.4984875 C179.990894,38.869309 177.180079,30.7935539 173.731511,25.8446152 L174.958084,25 C177.494182,28.6397951 178.850157,32.6245752 178.98841,36.8439926 C179.140488,41.489475 177.795355,46.2854496 174.99031,51.0986289 L174.464948,52 Z" id="Fill-62" fill="#E6E5E0"></path> <path d="M172.02637,72 C171.401118,71.3765744 170.470976,70.6785679 169.394144,69.8701775 C166.357504,67.5908956 161.76849,64.1464842 158,57.7865715 L159.201072,57 C162.820324,63.1081027 167.095108,66.3166716 170.216366,68.6594268 C171.336216,69.5000496 172.303337,70.2259248 173,70.9204602 L172.02637,72 Z" id="Fill-64" fill="#E6E5E0"></path> <path d="M155.149769,74 L155,72.6742835 C157.351229,72.4691247 161.867032,70.4542167 165.948586,67 L167,67.959628 C163.116622,71.2461652 158.243576,73.7300075 155.149769,74" id="Fill-66" fill="#E6E5E0"></path> <path d="M77.8890775,42.3783041 C73.3641726,44.0789583 77.3567759,50.1837938 77.6190708,53.0229386 C77.8813658,55.8621803 68.5828297,59.5325901 69.0145865,62.5883546 C69.4463433,65.6441191 75.9399733,70.1579198 75.0168161,75.2953875 C73.0856733,86.0420748 79.8100682,90.7963593 81.3392272,90.9905701 C82.8684837,91.184878 91.5726343,88.366978 91.9373287,83.4017972 C92.3019255,78.4365194 91.0055813,68.2859488 89.8635685,60.5130539 C89.3558663,57.0568387 90.8853181,51.0882031 89.4830603,48.0423334 C88.0807048,44.9965608 82.3672242,40.6951114 77.8890775,42.3783041" id="Fill-68" fill="#BEC9CD"></path> <path d="M81.5768524,113 C81.5640043,112.916664 80.3004083,104.510852 81.5543433,90.8746591 C81.8196715,87.9892561 82.1239425,85.3868861 82.4181541,82.8700866 C83.2696147,75.587569 84.0049445,69.2981927 83.0667342,61.1628849 L84.5513374,61 C85.5084712,69.2993582 84.7641777,75.6646892 83.902558,83.0351083 C83.6092428,85.5432634 83.3060675,88.1368917 83.0423328,91.0047145 C81.8042339,104.468504 83.0414364,112.700746 83.0540853,112.782335 L81.5768524,113 Z" id="Fill-70" fill="#E6E5E0"></path> <g id="Group-74" transform="translate(348.000000, 0.000000)"> <mask id="mask-4" fill="white"> <use xlink:href="#path-3"></use> </mask> <g id="Clip-73"></g> <path d="M26.4487504,1.67724894 C23.8409836,-5.34003662 1.9261204,12.3196969 0.238515022,22.006119 C-1.14433027,29.9421168 5.50003744,41.6133665 4.21803969,46.4870227 C2.99475717,51.1367002 -0.437336996,62.3234583 1.9261204,70.1020183 C4.28977063,77.8805782 14.7734791,86.9227327 17.1371294,86.9604911 C18.499246,86.982259 37.9666765,80.5255535 42.3953872,74.4935211 C45.6512392,70.0590541 34.3982549,66.3572187 34.273015,63.0708984 C33.977607,55.3143564 42.7722639,48.1189791 39.6994993,36.2711963 C38.3333334,31.0032635 27.2863827,30.3654259 24.627228,25.8872153 C21.9681697,21.4090048 28.6701922,7.65530829 26.4487504,1.67724894" id="Fill-72" fill="#BEC9CD" mask="url(#mask-4)"></path> </g> <path d="M368.610343,120 C368.577066,119.874962 365.280765,107.249934 364.822565,86.1890204 C364.72542,81.7274187 364.734243,77.69052 364.742874,73.7864738 C364.767711,62.4589027 364.789096,52.6760662 362,40.3205052 L363.402795,40 C366.227949,52.5154277 366.206372,62.3741936 366.181343,73.7897541 C366.172808,77.6851172 366.16389,81.7132362 366.260651,86.1573751 C366.715207,107.046169 369.967107,119.502744 370,119.626142 L368.610343,120 Z" id="Fill-75" fill="#E6E5E0"></path> <path d="M366.633472,69 L365.75741,68.5261109 C365.456674,68.3635229 358.377289,64.4662002 357,57.7655057 L358.384935,57.4604579 C359.359354,62.2012056 363.717198,65.4991807 365.572683,66.7125323 C365.918633,64.9412618 366.785161,61.1653914 368.521144,57.063075 C369.906551,53.7894294 371.560223,50.9963171 373.436473,48.7613192 C375.809609,45.9344973 378.546253,43.9961442 381.5707,43 L382,44.3966538 C375.687559,46.475708 371.891259,52.7520519 369.818105,57.651186 C367.544931,63.0229391 366.792146,67.9397586 366.784878,67.9888086 L366.633472,69 Z" id="Fill-77" fill="#E6E5E0"></path> </g> <g id="Group-89" transform="translate(67.000000, 0.000000)"> <path d="M102.55924,260.598473 C98.7307622,268.042847 102.208991,277.262594 110.185872,280.18853 C116.367537,282.457655 123.290639,279.806025 126.868939,274.252842 L168.322638,206.526563 C173.979689,197.745707 170.298285,185.564974 160.794562,181.299508 C150.758642,176.796309 141.389864,184.812155 137.274818,192.863051 L102.55924,260.598473 Z" id="Fill-1" fill="#04162E"></path> <polygon id="Fill-3" fill="#FFFFFF" points="25.7731075 320 49 308.037264 42.2391349 298 19 309.944586"></polygon> <path d="M25.5841258,320.384233 L27.0320261,337.472297 L30.3254682,345.459734 C31.840148,349.132049 30.7443576,353.357934 27.6360768,355.838411 L26.1821056,357 L0,317.797883 L17.31106,308 L25.5841258,320.384233 Z" id="Fill-5" fill="#1A1A1A"></path> <path d="M26,327.839345 C26,327.839345 31.7030736,320.339122 34.6582894,322.339078 C38.8881052,325.200578 32.3222478,328.807614 26,327.839345 Z" id="Stroke-7" stroke="#FFFFFF" stroke-width="0.309" stroke-linecap="round" stroke-linejoin="round"></path> <path d="M26.8310835,328 C26.8310835,328 28.0134158,318.932528 24.121986,318.125491 C18.5531015,316.96903 21.0386488,324.0847 26.8310835,328 Z" id="Stroke-9" stroke="#FFFFFF" stroke-width="0.309" stroke-linecap="round" stroke-linejoin="round"></path> <g id="Group-13" transform="translate(0.000000, 315.000000)"> <mask id="mask-6" fill="white"> <use xlink:href="#path-5"></use> </mask> <g id="Clip-12"></g> <polygon id="Fill-11" fill="#FFFFFF" mask="url(#mask-6)" points="-0.00015 2.48923929 26.07885 42.6067036 29.43585 40.320025 3.35685 0.202560714"></polygon> </g> <path d="M106.287413,255.828395 L26,301.726481 L36.1309038,317 L118.787789,280.367575 C126.590415,276.907584 129.413032,267.299876 124.713757,260.19595 L124.713757,260.19595 C120.693436,254.119683 112.622279,252.207262 106.287413,255.828395" id="Fill-14" fill="#04162E"></path> <path d="M142.222537,76.6311572 C129.249874,81.4024831 99.6514303,91.0668138 84.7656634,95.8883322 C79.7885577,97.500575 76.9659709,102.747969 78.3522118,107.800677 C79.8234794,113.160623 85.4489146,116.220843 90.7372792,114.537114 L149.103636,95.9659024 C154.680485,94.0312111 157.475741,87.7906148 155.213421,82.3318042 C153.10597,77.2501976 147.378807,74.7344905 142.222537,76.6311572" id="Fill-16" fill="#0071B7"></path> <path d="M110.16375,163.615446 L110.16375,163.615446 C107.77978,164.637526 105.011753,163.552049 103.979793,161.190903 L99.3882716,150.510854 C98.3563112,148.149708 99.4522813,145.406635 101.83625,144.384554 C104.22022,143.362474 106.988247,144.447951 108.020207,146.809097 L112.611728,157.490692 C113.643689,159.850292 112.547719,162.593365 110.16375,163.615446" id="Fill-18" fill="#F3A396"></path> <path d="M116.146885,157.625023 C114.073049,156.280377 112.65633,156.352816 112.65633,156.352816 C111.837948,154.345655 109.504883,153.437151 107.548604,154.363765 L106.162028,155.020242 C104.351943,155.877435 103.524518,158.0008 104.278093,159.858555 L104.3218,159.965704 C104.3218,159.965704 104.947266,165.692903 108.395622,171.706838 C112.850752,179.474398 118.540237,181.016743 120.841652,179.450252 C123.016467,177.969782 118.234286,168.55122 116.501065,165.031898 L120.100135,167.31825 C120.556801,167.608005 121.147603,167.567259 121.560562,167.218646 C122.005171,166.84287 122.128757,166.207521 121.855963,165.692903 L119.700741,161.613689 C118.856738,160.013997 117.663076,158.607475 116.146885,157.625023" id="Fill-20" fill="#F3A396"></path> <path d="M78.8217132,108.814947 L97.690054,158 L116,151.318516 L96.6543217,101.05723 C94.5002987,95.8224094 88.4495205,93.5114055 83.4329736,96.0083873 C78.7646729,98.3331109 76.7292337,103.981046 78.8217132,108.814947" id="Fill-22" fill="#0071B7"></path> <path d="M156.50076,78 L156.50076,78 C150.70147,78 146,73.2992632 146,67.5008771 L146,39 L167,39 L167,67.5008771 C167,73.2992632 162.29853,78 156.50076,78" id="Fill-24" fill="#F3A396"></path> <path d="M155.559469,44 C155.559469,44 156.61524,57.1719017 167,61 L167,51.6347763 L155,44.4513545" id="Fill-26" fill="#1A1A1A"></path> <path d="M181.605285,14.7017783 C180.668587,11.2155143 178.465042,6.29409222 170.599848,2.62304394 C157.607382,-3.44096115 150.764878,9.44004509 150.764878,9.44004509 C147.26224,9.05661765 144.353869,10.2915928 142.686239,13.668526 C141.123028,16.8329573 142.653992,22.784552 143.126948,24.857216 L145.975432,38 L148.475341,25.4978016 C150.932255,17.2748998 154.668299,13.9256842 154.668299,13.9256842 L166.542869,12.9586463 L172.616053,29.6107923 L181.061693,23.0971454 C182.205693,22.0592736 182.024496,19.0796266 181.926219,17.2656606 C181.867868,16.2154698 181.76652,15.3038672 181.605285,14.7017783" id="Fill-28" fill="#1A1A1A"></path> <path d="M169.637348,55 L169.637348,55 C161.001184,55 154,48.0605573 154,39.5005533 L154,11.47118 L168.436231,10 C173.802436,10 181,19.1605472 181,24.4794286 L181,43.7375516 C181,49.9572478 175.912382,55 169.637348,55" id="Fill-30" fill="#F3A396"></path> <path d="M179.652175,29 L184.760675,37.8784942 C185.371391,38.7731423 184.74249,40 183.674115,40 L176,39.9953645 L179.652175,29 Z" id="Fill-32" fill="#F3A396"></path> <path d="M179.083623,10.8301193 C178.792357,10.9791633 169.403155,7 169.403155,7 L161.162584,10.8301193 C161.162584,10.8301193 161.164078,10.8394345 161.167065,10.8487498 C153.921278,13.8451544 156.414211,26 156.414211,26 C164.238048,23.0920902 165.422528,17.1955385 165.987135,13.7411342 C167.306044,16.3913221 174.622034,21.7134336 180.832709,21.5302337 L181,17.0589149 C181,17.0589149 179.374888,10.6826279 179.083623,10.8301193" id="Fill-34" fill="#1A1A1A"></path> <polygon id="Fill-36" fill="#1A1A1A" points="159 18 158.070899 34 152 30.1942791 154.316983 19.0443463"></polygon> <path d="M178,31.5 C178,32.3280347 177.329157,33 176.499277,33 C175.670843,33 175,32.3280347 175,31.5 C175,30.6719653 175.670843,30 176.499277,30 C177.329157,30 178,30.6719653 178,31.5" id="Fill-38" fill="#1A1A1A"></path> <path d="M179.940608,27.412019 L180,24 L174.281188,24.1141375 C173.559108,24.1297017 172.863598,24.4167748 172.310315,24.9303934 L169,28 L173.821682,27.2062257 L179.940608,27.412019 Z" id="Fill-40" fill="#1A1A1A"></path> <path d="M180.314116,42.6552316 C179.604614,43.0714558 179.009447,43.2992658 178.337534,43.5219372 C177.681284,43.7291929 177.009371,43.8713601 176.33276,43.9433001 C174.98267,44.1043086 173.598122,43.9193201 172.351403,43.4277301 C172.075747,43.3181072 171.931654,42.9841001 172.031893,42.6826373 C172.119601,42.4171445 172.362367,42.2647002 172.606699,42.302383 L172.62706,42.3058088 C173.77354,42.482233 174.92002,42.3760359 175.989755,41.9992074 C176.526972,41.8159317 177.045394,41.5812703 177.538757,41.2952231 C178.014891,41.0194532 178.536445,40.6563275 178.868486,40.3428746 C179.405703,39.8341561 180.220142,39.8992447 180.685313,40.4867546 C181.152049,41.0776903 181.092532,41.9666631 180.553749,42.4770945 C180.481703,42.5438959 180.393994,42.6089845 180.314116,42.6552316" id="Fill-42" fill="#1A1A1A"></path> <path d="M177,44 L181,44" id="Stroke-44" stroke="#D26665" stroke-width="0.495" stroke-linecap="round" stroke-linejoin="round"></path> <path d="M178,46.9453333 C178,46.9453333 178.940171,47.1913333 180,46.9453333" id="Stroke-46" stroke="#D26665" stroke-width="0.371" stroke-linecap="round" stroke-linejoin="round"></path> <g id="Group-50" transform="translate(135.000000, 0.000000)"> <mask id="mask-8" fill="white"> <use xlink:href="#path-7"></use> </mask> <g id="Clip-49"></g> <path d="M32.698392,1.26023529 C21.147912,-3.03282353 14.637752,5.928 14.637752,5.928 C10.346792,5.19235294 6.624312,8.79258824 6.624312,8.79258824 C-8.224568,21.892 8.645912,38.3071765 8.645912,38.3071765 L8.645912,51.2291765 C19.176472,51.2291765 22.819912,39.8442353 22.819912,39.8442353 L22.176952,20.0842353 L22.262072,20.0092941 L24.905352,13.5995294 L30.918472,12.4050588 C30.918472,12.4050588 44.248872,5.55329412 32.698392,1.26023529" id="Fill-48" fill="#1A1A1A" mask="url(#mask-8)"></path> </g> <path d="M158.692285,36.1688457 C159.594184,39.1147698 158.445905,42.0987352 156.131426,42.8352162 C153.815455,43.5701755 151.208307,41.777666 150.3079,38.8317419 C149.406,35.8842962 150.552787,32.9003308 152.868758,32.1653715 C155.183237,31.4288905 157.790385,33.2214 158.692285,36.1688457" id="Fill-51" fill="#F3A396"></path> <path d="M153,35.0831831 C153,35.0831831 155.925829,34.228254 158,38" id="Stroke-53" stroke="#D26665" stroke-width="0.495" stroke-linecap="round" stroke-linejoin="round"></path> <path d="M157,36 C157,36 153.460471,37.5993837 155.79886,40" id="Stroke-55" stroke="#D26665" stroke-width="0.495" stroke-linecap="round" stroke-linejoin="round"></path> <path d="M149.336864,65 C149.336864,65 138.408865,66.9974403 132.799372,81.8346956 C121.924694,110.59753 137.851267,170 137.851267,170 L180.755815,170 C180.755815,170 183.747951,87.8056372 168.784224,66.0063556 L149.336864,65 Z" id="Fill-57" fill="#007DDC"></path> <path d="M174.593537,70.6509953 L172.709274,76.6111301 C172.047485,77.7310563 170.688671,78.2540825 169.417177,77.8802813 L139.935366,69.6655194 C138.944214,69.3744567 138.67,68.1186029 139.457407,67.4685138 L144.518873,63.2946465 C144.790022,63.0700702 145.145428,62.966647 145.500834,63.0094938 L172.326294,66.2156149 C174.480175,66.4726955 175.678136,68.8174486 174.593537,70.6509953" id="Fill-59" fill="#289DE5"></path> <path d="M146.386156,101.383665 C153.359129,113.366101 168.052782,140.912174 175.404205,154.771853 C177.861829,159.406439 183.558493,161.295843 188.334313,159.064432 C193.401248,156.697737 195.468166,150.626718 192.886434,145.697244 L164.39086,91.2951935 C161.510353,86.1255546 154.833091,84.4337557 149.80446,87.5969485 C145.123635,90.5427762 143.614433,96.6213959 146.386156,101.383665" id="Fill-61" fill="#007DDC"></path> <path d="M237.239913,118.021437 L237.239913,118.021437 C238.645412,120.086733 238.045917,122.860259 235.902223,124.214357 L226.188557,130.26771 C224.043322,131.621809 221.164514,131.044238 219.760555,128.978942 C218.355056,126.913645 218.95301,124.140119 221.096704,122.786021 L230.811911,116.732668 C232.957147,115.37857 235.834413,115.954655 237.239913,118.021437" id="Fill-63" fill="#F3A396"></path> <path d="M231.420651,112.874171 C230.455891,115.193105 230.766959,116.604763 230.766959,116.604763 C228.938123,117.776531 228.443722,120.279995 229.686488,122.085318 L230.565592,123.36473 C231.715188,125.036269 233.939245,125.497595 235.634336,124.416554 L235.732014,124.353506 C235.732014,124.353506 241.244067,122.729637 246.556256,118.216329 C253.419273,112.385166 253.961762,106.395613 252.033746,104.355014 C250.210921,102.42667 241.783551,108.872935 238.627796,111.227237 L240.258269,107.212161 C240.465648,106.703164 240.32439,106.115742 239.911136,105.762059 C239.466325,105.379158 238.823152,105.366856 238.364816,105.729766 L234.728183,108.606904 C233.303585,109.734077 232.125436,111.178029 231.420651,112.874171" id="Fill-65" fill="#F3A396"></path> <path d="M189.173123,158.361408 L234,131.141052 L224.32025,114 L178.522524,141.880446 C173.77565,144.922336 172.55831,151.357455 175.862521,155.940063 C178.936873,160.204793 184.80733,161.274018 189.173123,158.361408" id="Fill-67" fill="#007DDC"></path> <polygon id="Fill-69" fill="#03101E" points="185 205 181.635882 168 139 168 143.791824 203.454742"></polygon> <path d="M138.496732,167 C138.496732,167 128.282183,178.467803 138.643128,202.62174 L173.502087,203 L181,167 L138.496732,167 Z" id="Fill-71" fill="#04162E"></path> <path d="M234.402638,234.195162 C243.298425,237.151081 252.877803,231.688992 254.719409,222.329087 C256.145705,215.075578 252.004746,207.853869 245.244615,204.847978 L163.156009,170.612626 C152.464088,165.85923 139.645606,172.061813 136.594453,183.34791 C133.370507,195.266986 143.865383,204.269515 153.481139,207.437436 L234.402638,234.195162 Z" id="Fill-73" fill="#04162E"></path> <polygon id="Fill-75" fill="#FFFFFF" points="263 331.514406 258.404815 303 245 306.481096 249.570421 335"></polygon> <path d="M264.339194,331 L283.271377,335.567871 L293.070001,334.947432 C297.572567,334.661191 301.729606,337.321287 303.275309,341.47703 L304,343.420774 L252.282407,357 L248,335.292121 L264.339194,331 Z" id="Fill-77" fill="#1A1A1A"></path> <path d="M272.223152,334 C272.223152,334 266.93147,324.626523 269.908746,321.930562 C274.168043,318.072196 275.375313,327.017668 272.223152,334 Z" id="Stroke-79" stroke="#FFFFFF" stroke-width="0.309" stroke-linecap="round" stroke-linejoin="round"></path> <path d="M272,333.226471 C272,333.226471 262.721717,328.953608 260.628882,332.24647 C257.632024,336.959334 265.996061,337.175048 272,333.226471 Z" id="Stroke-81" stroke="#FFFFFF" stroke-width="0.309" stroke-linecap="round" stroke-linejoin="round"></path> <polygon id="Fill-83" fill="#FFFFFF" points="252.189935 358 304 344.362233 302.810065 340 251 353.637767"></polygon> <path d="M224.294562,222.468294 L244.264093,324 L264,318.747314 L254.662598,218.030131 C253.780858,208.522815 244.631861,202.085506 235.455735,204.515423 C227.607493,206.593442 222.719488,214.456545 224.294562,222.468294" id="Fill-85" fill="#04162E"></path> <path d="M142,102 L171,158" id="Stroke-87" stroke="#005F99" stroke-width="0.719"></path> </g> </g> </g> </g> </g> </svg> 