<?xml version="1.0" encoding="UTF-8"?> <svg xmlns="http://www.w3.org/2000/svg" xmlns:xlink="http://www.w3.org/1999/xlink" width="589px" height="380px" viewBox="0 0 589 380"> <!-- Generator: Sketch 57.1 (83088) - https://sketch.com --> <title>Group 9</title> <desc>Created with Sketch.</desc> <defs> <polygon id="path-1" points="0 0.237335999 108.301819 0.237335999 108.301819 42.0236958 0 42.0236958"></polygon> <polygon id="path-3" points="0 379.081558 588.324437 379.081558 588.324437 0 0 0"></polygon> </defs> <g id="Page-1" stroke="none" stroke-width="1" fill="none" fill-rule="evenodd"> <g id="masha-copy" transform="translate(-589.000000, -6337.000000)"> <g id="Group-18-Copy-4" transform="translate(206.000000, 6337.000000)"> <g id="Group-9" transform="translate(383.000000, 0.000000)"> <path d="M172.01042,161.45825 C162.792291,174.551125 155.679429,192.363792 160.614862,208.805792 C165.535535,225.197552 181.27119,235.304995 188.148433,250.873808 C192.035332,259.673929 192.139202,269.34942 192.286259,278.795556 C192.47869,291.160504 190.060722,304.291605 198.426576,314.741441 C203.375129,320.922549 210.842787,324.574749 218.39354,326.97369 C233.557914,331.792323 249.445547,334.054197 262.915212,343.155209 C285.044298,358.106403 312.220886,363.333506 338.592214,361.718739 C351.966756,360.899616 365.229228,358.384359 378.039596,354.479323 C392.923523,349.941377 406.152648,341.909048 421.139352,337.605918 C447.112149,330.148614 482.627804,330.046497 497.826619,303.796308 C508.059935,286.123438 511.604612,264.279589 503.644395,245.023626 C499.859178,235.868006 492.634793,228.875419 488.519381,219.886353 C482.834449,207.467344 481.30101,193.306877 485.099347,180.113522 C485.257338,179.571262 485.421889,179.03064 485.593547,178.492749 C489.561901,166.157836 497.550546,155.551821 500.854137,142.995744 C507.675071,117.073205 492.603086,89.6642289 472.790833,73.0021577 C464.557822,66.0783769 455.359373,60.3155676 445.340904,57.030881 C417.708384,47.9702791 387.005159,58.4561565 359.288996,49.6920774 C338.026399,42.9687089 320.569793,25.4924286 298.904839,20.4389806 C282.256226,16.5552414 264.264966,20.7005541 250.121791,30.8511368 C235.979163,41.0017195 225.716327,56.8872613 221.037834,74.3821084 C216.703203,90.5925693 216.839327,108.398683 209.151357,123.124346 C202.573695,135.723017 190.38381,142.520652 180.486704,151.660982 C177.406158,154.505526 174.561232,157.834992 172.01042,161.45825" id="Fill-1" fill="#EAF1F8"></path> <g id="Group-141"> <g id="Group-3" transform="translate(0.000000, 307.801558)"> <mask id="mask-2" fill="white"> <use xlink:href="#path-1"></use> </mask> <g id="Clip-2"></g> <path d="M0.775939996,30.0724158 C1.50237999,27.8534958 2.82765998,26.3165759 4.96473997,25.6336959 C5.30617997,24.3532959 5.90457997,23.1151359 7.18673996,21.8347359 C8.59693995,20.4262959 10.9051799,19.0605359 14.7512199,17.7374559 L29.0679398,4.37773598 L29.1532998,4.29237598 C31.6322598,2.32865599 33.8969398,1.30433599 36.7600198,0.792615996 C39.5386198,0.280015998 42.7008998,0.237335999 47.0599797,0.237335999 L47.1026597,0.237335999 L107.105019,0.536535997 L108.301819,0.536535997 L108.301819,1.73157599 L108.301819,40.8286558 L108.301819,42.0236958 L107.105019,42.0236958 L93.8992995,42.0236958 L92.6598195,42.0236958 L92.7029395,40.7855358 L92.7029395,40.7428558 C92.7029395,38.7795758 91.8906995,36.9870158 90.6085395,35.7066158 C89.3263795,34.4262158 87.5316195,33.6152958 85.5652595,33.6152958 C83.5997795,33.6152958 81.8045796,34.4262158 80.5224196,35.7066158 C79.2406996,36.9870158 78.4284596,38.7795758 78.4284596,40.7428558 L78.4284596,40.7855358 L78.4711396,42.0236958 L77.2320996,42.0236958 L30.1789398,42.0236958 L28.9821398,42.0236958 L28.9821398,40.8286558 L28.9821398,40.7428558 C28.9821398,38.7795758 28.1707798,36.9870158 26.8886199,35.7066158 C25.6064599,34.4262158 23.8116999,33.6152958 21.8453399,33.6152958 C19.8794199,33.6152958 18.1273399,34.4262158 16.8024999,35.7066158 C15.5207799,36.9870158 14.7512199,38.7795758 14.7512199,40.7428558 L14.7512199,40.8286558 L14.7512199,42.0236958 L13.5544199,42.0236958 L3.55409998,42.0236958 L2.82765998,41.7671758 C2.31461999,41.3408158 1.80201999,40.9566958 1.33209999,40.4440958 C0.819059996,39.9323758 0.391379998,39.2917358 0.177979999,38.5666158 L0.0921799995,38.2678558 C-0.120779999,35.1090958 0.00681999996,32.2495358 0.775939996,30.0724158" id="Fill-1" fill="#E95233" mask="url(#mask-2)"></path> </g> <path d="M4.96456397,333.435122 C5.30600397,332.154722 5.90484397,330.916562 7.18700396,329.636602 C8.59720395,328.227722 10.9050039,326.861962 14.7510439,325.538882 L29.0677638,312.179162 L29.1535638,312.094242 C31.6320838,310.130522 33.8972038,309.106202 36.7602838,308.594042 C39.5384438,308.081442 42.7011638,308.038762 47.0602437,308.038762 L47.1029237,308.038762 L85.0670035,308.227962 C82.1273636,319.919642 67.5022036,339.871442 1.27868399,336.707842 C2.05704399,335.125602 3.23404398,333.988202 4.96456397,333.435122" id="Fill-4" fill="#E87034"></path> <path d="M18.8967239,328.270578 C27.4441639,319.777258 30.9056438,311.496018 44.1967238,312.307378 L44.1967238,328.270578 L18.8967239,328.270578 Z" id="Fill-6" fill="#FFFFFF"></path> <mask id="mask-4" fill="white"> <use xlink:href="#path-3"></use> </mask> <g id="Clip-9"></g> <polygon id="Fill-8" fill="#FFFFFF" mask="url(#mask-4)" points="46.8032397 328.313478 63.7700797 328.313478 63.7700797 312.221798 46.8032397 312.221798"></polygon> <path d="M6.36490797,333.02645 C7.92470796,333.40045 10.0424279,333.23237 11.3188679,332.59833 C12.4580279,332.03381 12.9627079,331.04865 13.1162679,329.94909 C8.84210795,329.61337 6.63990796,330.09385 6.36490797,333.02645" id="Fill-10" fill="#FEFEFE" mask="url(#mask-4)"></path> <path d="M21.8186319,337.976802 C27.5571119,337.976802 32.2087918,342.628922 32.2087918,348.367402 C32.2087918,348.866802 32.1304718,349.344642 32.0622718,349.825122 L30.1790718,349.825122 L28.9822718,349.825122 L28.9822718,348.630082 L28.9822718,348.544722 C28.9822718,346.581442 28.1709118,344.788442 26.8883119,343.508482 C25.6061519,342.228082 23.8113919,341.416722 21.8454719,341.416722 C19.8795519,341.416722 18.1270319,342.228082 16.8026319,343.508482 C15.5209119,344.788442 14.7513519,346.581442 14.7513519,348.544722 L14.7513519,348.630082 L14.7513519,349.825122 L13.5545519,349.825122 L11.5749919,349.825122 C11.5072319,349.344642 11.4280319,348.866802 11.4280319,348.367402 C11.4280319,342.628922 16.0801519,337.976802 21.8186319,337.976802" id="Fill-11" fill="#D1422A" mask="url(#mask-4)"></path> <path d="M85.5541715,337.976802 C91.2926515,337.976802 95.9443315,342.628922 95.9443315,348.367402 C95.9443315,348.866802 95.8655715,349.344642 95.7969315,349.825122 L93.8992115,349.825122 L92.6597315,349.825122 L92.7028515,348.587402 L92.7028515,348.544722 C92.7028515,346.581442 91.8906115,344.788442 90.6084515,343.508482 C89.3262915,342.228082 87.5315315,341.416722 85.5651715,341.416722 C83.6001315,341.416722 81.8049316,342.228082 80.5223316,343.508482 C79.2406116,344.788442 78.4288116,346.581442 78.4288116,348.544722 L78.4288116,348.587402 L78.4710516,349.825122 L77.2320116,349.825122 L75.3105316,349.825122 C75.2418916,349.344642 75.1635716,348.866802 75.1635716,348.367402 C75.1635716,342.628922 79.8156916,337.976802 85.5541715,337.976802" id="Fill-12" fill="#D1422A" mask="url(#mask-4)"></path> <path d="M0.389223998,339.345466 L13.6231039,339.345466 C11.4239839,341.344826 9.98694395,344.118146 9.69654395,347.243026 L0.577543997,347.243026 C0.416503998,346.966706 0.269983999,346.679386 0.178023999,346.367866 L0.0922239995,346.069546 C-0.0762959996,343.572986 -0.0168959999,341.278826 0.389223998,339.345466" id="Fill-13" fill="#414042" mask="url(#mask-4)"></path> <path d="M85.5541715,356.070922 C81.3064116,356.070922 77.8458116,352.604162 77.8458116,348.373122 C77.8458116,344.130642 81.3064116,340.674882 85.5541715,340.674882 C89.7900515,340.674882 93.2502115,344.130642 93.2502115,348.373122 C93.2502115,352.604162 89.7900515,356.070922 85.5541715,356.070922" id="Fill-14" fill="#E5E6E7" mask="url(#mask-4)"></path> <path d="M81.0402996,352.870098 C79.8866196,351.718178 79.1768996,350.134178 79.1768996,348.373298 C79.1768996,346.611538 79.8866196,345.016538 81.0402996,343.876058 C82.1930996,342.724138 83.7907395,342.004298 85.5542595,342.004298 C87.3058995,342.004298 88.9030995,342.724138 90.0567795,343.876058 C91.2095795,345.016538 91.9197395,346.611538 91.9197395,348.373298 C91.9197395,350.134178 91.2095795,351.718178 90.0567795,352.870098 C88.9030995,354.021578 87.3058995,354.730418 85.5542595,354.730418 C83.7907395,354.730418 82.1930996,354.021578 81.0402996,352.870098 M85.5542595,357.400338 C88.0494995,357.400338 90.3115395,356.392298 91.9417395,354.752858 C93.5719395,353.113418 94.5927395,350.854018 94.5927395,348.373298 C94.5927395,345.880698 93.5719395,343.620858 91.9417395,341.981858 C90.3115395,340.353418 88.0494995,339.345378 85.5542595,339.345378 C83.0585795,339.345378 80.7960996,340.353418 79.1548996,341.981858 L79.1658996,341.993298 C77.5242596,343.620858 76.5153396,345.880698 76.5153396,348.373298 C76.5153396,350.854018 77.5242596,353.113418 79.1548996,354.752858 L79.1658996,354.752858 C80.7960996,356.392298 83.0585795,357.400338 85.5542595,357.400338" id="Fill-15" fill="#221F20" mask="url(#mask-4)"></path> <path d="M85.5541715,349.491558 C84.9324515,349.491558 84.4224915,348.993038 84.4224915,348.373078 C84.4224915,347.752678 84.9324515,347.243158 85.5541715,347.243158 C86.1750115,347.243158 86.6739715,347.752678 86.6739715,348.373078 C86.6739715,348.993038 86.1750115,349.491558 85.5541715,349.491558" id="Fill-16" fill="#A6A9AB" mask="url(#mask-4)"></path> <path d="M21.8242199,356.070922 C17.5764599,356.070922 14.1162999,352.604162 14.1162999,348.373122 C14.1162999,344.130642 17.5764599,340.674882 21.8242199,340.674882 C26.0605399,340.674882 29.5211398,344.130642 29.5211398,348.373122 C29.5211398,352.604162 26.0605399,356.070922 21.8242199,356.070922" id="Fill-17" fill="#E5E6E7" mask="url(#mask-4)"></path> <path d="M17.3103479,352.870098 C16.1571079,351.718178 15.4473879,350.134178 15.4473879,348.373298 C15.4473879,346.611538 16.1571079,345.016538 17.3103479,343.876058 C18.4635879,342.724138 20.0607879,342.004298 21.8243079,342.004298 C23.5763879,342.004298 25.1735879,342.724138 26.3268279,343.876058 C27.4800679,345.016538 28.1902278,346.611538 28.1902278,348.373298 C28.1902278,350.134178 27.4800679,351.718178 26.3268279,352.870098 C25.1735879,354.021578 23.5763879,354.730418 21.8243079,354.730418 C20.0607879,354.730418 18.4635879,354.021578 17.3103479,352.870098 M21.8243079,357.400338 C24.3199879,357.400338 26.5820279,356.392298 28.2122278,354.752858 C29.8424278,353.113418 30.8632278,350.854018 30.8632278,348.373298 C30.8632278,345.880698 29.8424278,343.620858 28.2122278,341.981858 C26.5820279,340.353418 24.3199879,339.345378 21.8243079,339.345378 C19.3290679,339.345378 17.0665879,340.353418 15.4249479,341.981858 L15.4359479,341.993298 C13.7947479,343.620858 12.7858279,345.880698 12.7858279,348.373298 C12.7858279,350.854018 13.7947479,353.113418 15.4249479,354.752858 L15.4359479,354.752858 C17.0665879,356.392298 19.3290679,357.400338 21.8243079,357.400338" id="Fill-18" fill="#221F20" mask="url(#mask-4)"></path> <path d="M21.8242199,349.491558 C21.2033799,349.491558 20.6929799,348.993038 20.6929799,348.373078 C20.6929799,347.752678 21.2033799,347.243158 21.8242199,347.243158 C22.4450599,347.243158 22.9444599,347.752678 22.9444599,348.373078 C22.9444599,348.993038 22.4450599,349.491558 21.8242199,349.491558" id="Fill-19" fill="#A6A9AB" mask="url(#mask-4)"></path> <polygon id="Fill-20" fill="#D1D3D4" mask="url(#mask-4)" points="47.7734397 312.221886 53.4173197 312.221886 63.6851597 328.313566 58.0403997 328.313566"></polygon> <polygon id="Fill-21" fill="#D1D3D4" mask="url(#mask-4)" points="63.7702997 324.135678 63.7702997 326.945518 54.3749797 312.221798 56.1679797 312.221798"></polygon> <polygon id="Fill-22" fill="#D1D3D4" mask="url(#mask-4)" points="46.8036357 315.013422 46.8036357 312.222062 46.8155157 312.222062 57.0829157 328.313302 55.2899157 328.313302"></polygon> <path d="M30.4171118,316.291446 C31.6649518,315.309366 32.9955118,314.465886 34.4791918,313.811606 L43.7051118,328.270446 L38.0607918,328.270446 L30.4171118,316.291446 Z" id="Fill-23" fill="#D1D3D4" mask="url(#mask-4)"></path> <path d="M44.1967238,324.730294 L44.1967238,327.540134 L35.2409638,313.505014 C35.7170438,313.321974 36.2124838,313.160934 36.7220038,313.015734 L44.1967238,324.730294 Z" id="Fill-24" fill="#D1D3D4" mask="url(#mask-4)"></path> <path d="M28.6381918,317.813802 C29.0135118,317.462242 29.3914718,317.116842 29.7786718,316.791242 L37.1029118,328.270402 L35.3103518,328.270402 L28.6381918,317.813802 Z" id="Fill-25" fill="#D1D3D4" mask="url(#mask-4)"></path> <path d="M64.7100076,311.240246 L64.7100076,312.221886 L64.7100076,328.313126 L64.7100076,329.294766 L63.7701677,329.294766 L46.8037677,329.294766 L45.8203678,329.294766 L45.8203678,328.313126 L45.8203678,312.221886 L45.8203678,311.240246 L46.8037677,311.240246 L63.7701677,311.240246 L64.7100076,311.240246 Z M47.7436077,327.331926 L62.7867677,327.331926 L62.7867677,313.161286 L47.7436077,313.161286 L47.7436077,327.331926 Z" id="Fill-26" fill="#D1422A" mask="url(#mask-4)"></path> <path d="M23.0849079,322.294938 C28.8115078,315.807138 33.3417478,310.685538 44.2396678,311.325738 L45.1368278,311.411098 L45.1368278,312.307378 L45.1368278,328.270578 L45.1368278,329.252218 L44.1965478,329.252218 L18.8965479,329.252218 L16.5887479,329.252218 L18.2127879,327.587698 C20.0506679,325.752018 21.6315879,324.002138 23.0849079,322.294938 L23.0849079,322.294938 Z M43.2135878,327.288938 L43.2135878,313.204098 C33.8970278,312.947578 29.7513478,317.685498 24.5377879,323.575778 C23.4694679,324.770378 22.3584679,326.050778 21.2043479,327.288938 L43.2135878,327.288938 Z" id="Fill-27" fill="#D1422A" mask="url(#mask-4)"></path> <path d="M512.985393,322.709682 C512.985393,301.905162 529.850593,285.039962 550.654673,285.039962 C571.459633,285.039962 588.324393,301.905162 588.324393,322.709682 C588.324393,343.513762 571.459633,360.378962 550.654673,360.378962 C529.850593,360.378962 512.985393,343.513762 512.985393,322.709682" id="Fill-28" fill="#FFFFFF" mask="url(#mask-4)"></path> <path d="M585.447453,337.144366 L585.447453,337.144366 C585.210293,336.504606 575.568133,292.053166 525.872333,298.918046 C525.872333,298.918046 517.830893,341.099966 571.119733,354.307886 C577.472013,350.185086 582.509133,344.218246 585.447453,337.144366" id="Fill-29" fill="#C52032" mask="url(#mask-4)"></path> <path d="M558.915937,285.977514 C556.254377,285.380874 553.496897,285.039874 550.654937,285.039874 C541.447937,285.039874 533.020617,288.353074 526.476937,293.838554 C525.990297,296.014354 525.671737,297.985554 525.871937,298.918354 C525.871937,298.918354 536.512897,286.915154 558.915937,285.977514" id="Fill-30" fill="#C52032" mask="url(#mask-4)"></path> <path d="M512.985393,322.709682 C512.985393,329.889602 515.030073,336.576282 518.516193,342.285722 C518.516193,342.285722 511.399633,312.796042 525.872113,298.918002 C525.872113,298.918002 522.884953,301.078842 518.940793,302.434042 C515.188033,308.291322 512.985393,315.237162 512.985393,322.709682" id="Fill-31" fill="#C52032" mask="url(#mask-4)"></path> <path d="M571.119513,354.308018 C520.938393,340.432618 525.872113,298.918178 525.872113,298.918178 C515.426073,309.822698 515.479313,326.969058 518.516193,342.285898 C525.131153,353.121338 537.030513,360.379138 550.654673,360.379138 C558.206393,360.379138 565.223953,358.134698 571.119513,354.308018" id="Fill-32" fill="#FFFFFF" mask="url(#mask-4)"></path> <path d="M585.447453,337.144366 C587.294133,332.698166 588.324173,327.825166 588.324173,322.709726 C588.324173,304.747166 575.740613,289.747566 558.915893,285.977646 C545.637573,286.923646 533.429333,290.508326 525.872333,298.918046 C525.872333,298.918046 572.395733,290.375446 585.447453,337.144366" id="Fill-33" fill="#FFFFFF" mask="url(#mask-4)"></path> <path d="M566.598337,288.617294 C569.480777,293.942614 571.119337,300.039694 571.119337,306.520014 C571.119337,327.324094 554.254137,344.189734 533.449617,344.189734 C527.742817,344.189734 522.353257,342.884254 517.506217,340.612534 C523.877417,352.382974 536.331617,360.379094 550.654937,360.379094 C571.459017,360.379094 588.324217,343.513894 588.324217,322.708934 C588.324217,307.612094 579.421697,294.625494 566.598337,288.617294" id="Fill-34" fill="#E6E7E8" mask="url(#mask-4)"></path> <path d="M385.745446,12.9163759 C382.323566,9.70261595 379.475886,5.87725597 374.827726,4.61445597 C370.179126,3.35121598 365.233966,3.49509598 360.417726,3.93553598 C351.562726,4.74601597 342.518966,6.64549596 335.338166,11.5787759 C324.489966,19.0328159 319.665366,32.3674558 319.798686,44.9906158 C320.049046,68.7092556 303.720646,118.061855 314.223006,122.798015 C324.724926,127.534615 386.805406,124.546135 397.601246,117.824255 C412.537486,108.523975 390.245326,51.3692957 392.896766,34.7240958 C392.896766,34.7240958 391.142926,17.9856159 385.745446,12.9163759" id="Fill-35" fill="#A3262A" mask="url(#mask-4)"></path> <path d="M378.52927,62.7018037 C378.52927,62.7018037 382.73611,60.2963237 383.56507,58.7387237 C384.08251,57.7667637 386.32255,52.4194437 386.32255,48.9702837 C386.32255,45.5206838 380.51895,47.3779237 378.52927,48.9702837 L378.52927,62.7018037 Z" id="Fill-36" fill="#F29879" mask="url(#mask-4)"></path> <path d="M381.706818,57.0566477 C381.676018,57.0566477 381.644338,57.0491677 381.616618,57.0333277 C381.541818,56.9902077 381.521578,56.9039677 381.571298,56.8397277 C383.076098,54.9024077 383.931018,52.5536877 383.977658,50.2256477 C383.985138,49.8551677 383.957418,49.4767677 383.706618,49.2250877 C383.379698,48.8964077 382.768098,48.8946477 382.332938,49.0627277 C381.840138,49.2532477 381.452938,49.6329677 381.111058,49.9678077 C381.052538,50.0263277 380.949138,50.0316077 380.882258,49.9810077 C380.814938,49.9304077 380.807898,49.8419677 380.866858,49.7838877 C381.230298,49.4274877 381.642578,49.0235677 382.199618,48.8084077 C382.745218,48.5972077 383.523138,48.6104077 383.953458,49.0438077 C384.274658,49.3663277 384.311178,49.8050077 384.302378,50.2309277 C384.254418,52.6113277 383.381018,55.0132877 381.841898,56.9946077 C381.810658,57.0346477 381.759178,57.0566477 381.706818,57.0566477" id="Fill-37" fill="#BD6142" mask="url(#mask-4)"></path> <polygon id="Fill-38" fill="#FFA07F" mask="url(#mask-4)" points="345.674558 122.648679 372.994158 122.648679 372.994158 72.2510796 345.674558 72.2510796"></polygon> <path d="M345.674514,71.9552236 L372.994114,71.9552236 L372.994114,90.2416235 C369.423074,95.1652235 364.593634,98.4159435 359.248074,98.4375035 C353.948714,98.4014235 349.195394,95.2061435 345.674514,90.3560235 L345.674514,71.9552236 Z" id="Fill-39" fill="#FA704E" mask="url(#mask-4)"></path> <path d="M380.24373,22.9857759 C381.84093,25.9091359 382.73941,28.9966158 382.45605,32.3155358 C381.93289,38.4570558 380.88525,47.9469757 380.88525,50.7405357 C380.88525,53.5336557 381.67021,59.2721357 383.32329,65.8312156 C383.76197,67.5722956 384.59489,69.2913756 384.29877,71.0623756 C384.06645,72.4532156 383.27885,73.6786156 382.50929,74.8600156 C382.20261,75.3303756 381.89593,75.8011756 381.58969,76.2719756 C378.99457,79.7132156 376.35941,83.2032955 372.94193,85.8305355 C369.54161,88.4450155 365.21069,90.1447355 360.97041,89.4939755 C357.07289,88.8955755 339.13189,78.8626956 336.58033,70.8793356 C333.87697,62.4220957 333.54873,56.9410157 333.54873,49.4821357 C333.54873,42.0223758 333.88093,25.6310559 338.03673,21.4748159 C342.19297,17.3185759 375.54717,14.3912559 380.24373,22.9857759" id="Fill-40" fill="#FFA07F" mask="url(#mask-4)"></path> <path d="M335.393826,64.1166677 C335.393826,64.1166677 329.716506,60.8703477 328.597146,58.7680277 C327.899306,57.4563877 324.875626,50.2395077 324.875626,45.5838678 C324.875626,40.9282278 332.708066,43.4349078 335.393826,45.5838678 L335.393826,64.1166677 Z" id="Fill-41" fill="#FFA07F" mask="url(#mask-4)"></path> <path d="M331.105542,56.4977597 C331.147342,56.4977597 331.189582,56.4876397 331.226542,56.4660797 C331.327742,56.4084397 331.354582,56.2913997 331.287702,56.2051597 C329.257102,53.5906797 328.103862,50.4204797 328.040502,47.2784397 C328.030382,46.7781597 328.067782,46.2677597 328.406142,45.9276398 C328.847462,45.4841198 329.672902,45.4819198 330.260302,45.7089598 C330.925142,45.9659198 331.447862,46.4785197 331.908982,46.9308397 C331.988622,47.0091597 332.127222,47.0166397 332.218302,46.9479997 C332.309382,46.8797997 332.318622,46.7609997 332.238542,46.6822397 C331.748382,46.2013197 331.192222,45.6561598 330.439822,45.3653198 C329.703702,45.0806398 328.654302,45.0982398 328.072622,45.6829998 C327.639222,46.1185998 327.590382,46.7103997 327.601822,47.2854797 C327.666942,50.4983597 328.846142,53.7402797 330.922942,56.4137197 C330.965182,56.4682797 331.034702,56.4977597 331.105542,56.4977597" id="Fill-42" fill="#BD6142" mask="url(#mask-4)"></path> <path d="M349.612162,46.2931037 C351.954722,43.6196638 355.259562,42.6807038 358.666922,42.0330238 C359.225282,41.9296238 358.889562,40.7112638 358.262122,40.2615838 C357.634682,39.8127838 356.772722,39.5140238 356.359122,39.6288638 C353.707242,40.3341838 351.413962,41.8900238 349.689162,44.1503038 C349.421202,44.5062638 349.154562,45.3334638 349.075362,45.9644238 C348.996602,46.5958237 349.226722,46.7282637 349.612162,46.2931037" id="Fill-43" fill="#1A1A1A" mask="url(#mask-4)"></path> <path d="M382.750938,45.9210838 C379.935378,43.7514438 376.510858,43.4694038 373.043218,43.4931638 C372.475178,43.4997638 372.568458,42.2396038 373.097778,41.6768438 C373.625778,41.1149638 374.414258,40.6556038 374.841938,40.6881638 C377.580498,40.8668038 380.131178,41.9496438 382.260778,43.8337238 C382.592538,44.1311638 383.014498,44.8910438 383.214258,45.4947238 C383.413578,46.0992838 383.213378,46.2735237 382.750938,45.9210838" id="Fill-44" fill="#1A1A1A" mask="url(#mask-4)"></path> <path d="M375.272258,55.8743677 L375.272258,55.8743677 C376.168538,55.8743677 376.902018,55.1408877 376.902018,54.2441677 L376.902018,51.0783677 C376.902018,50.1816477 376.168538,49.4481677 375.272258,49.4481677 L375.271818,49.4481677 C374.375538,49.4481677 373.642058,50.1816477 373.642058,51.0783677 L373.642058,54.2441677 C373.642058,55.1408877 374.375538,55.8743677 375.272258,55.8743677" id="Fill-45" fill="#1A1A1A" mask="url(#mask-4)"></path> <path d="M356.34667,56.0791437 L356.34667,56.0791437 C357.24339,56.0791437 357.97687,55.3456637 357.97687,54.4489437 L357.97687,51.2831437 C357.97687,50.3864237 357.24339,49.6529437 356.34667,49.6529437 C355.45039,49.6529437 354.71647,50.3864237 354.71647,51.2831437 L354.71647,54.4489437 C354.71647,55.3456637 355.45039,56.0791437 356.34667,56.0791437" id="Fill-46" fill="#1A1A1A" mask="url(#mask-4)"></path> <path d="M364.571326,65.8380796 C365.945006,66.4140396 368.657166,67.5509996 368.657166,67.5509996 C368.837566,67.6266796 369.026766,67.6627596 369.214206,67.6627596 C369.682366,67.6627596 370.138206,67.4357196 370.414526,67.0317996 L372.291566,64.2822397 C372.714846,63.6622797 372.604406,62.8319997 372.034606,62.3506397 C371.276486,61.7117597 369.829766,60.2161997 368.653206,57.3821597 C366.661766,52.5852797 369.408686,47.7439597 369.436846,47.6959997 C369.573686,47.4592797 369.493606,47.1565597 369.256886,47.0197197 C369.021046,46.8828797 368.718766,46.9625197 368.581046,47.1987997 C368.513286,47.3153997 366.675406,48.9755197 366.155766,51.2067597 C365.845566,52.5351197 366.896726,57.9889197 368.559486,62.1631997 C369.270086,63.9465197 367.402726,65.2810396 366.779246,65.2810396 C366.155766,65.2810396 364.571326,65.8380796 364.571326,65.8380796" id="Fill-47" fill="#DB7D63" mask="url(#mask-4)"></path> <path d="M369.214074,67.6629796 C369.026634,67.6629796 368.837874,67.6268996 368.657034,67.5512196 L363.793714,65.5122596 C363.541594,65.4066596 363.422794,65.1166996 363.528394,64.8645796 C363.633994,64.6124596 363.924394,64.4936597 364.176514,64.5996996 L369.039834,66.6386596 C369.240914,66.7226996 369.474554,66.6531796 369.597314,66.4736596 L371.474354,63.7240997 C371.610314,63.5247797 371.576874,63.2594597 371.396034,63.1072197 C370.569714,62.4102597 368.995834,60.7888597 367.739194,57.7616597 C365.556354,52.5036597 368.456394,47.4128597 368.581354,47.1985797 C368.718634,46.9627397 369.021354,46.8826597 369.257194,47.0194997 C369.493474,47.1567797 369.573554,47.4594997 369.436714,47.6957797 C369.408554,47.7441797 366.661634,52.5854997 368.653514,57.3823797 C369.829634,60.2159797 371.276354,61.7115397 372.034474,62.3508597 C372.604274,62.8322197 372.714714,63.6624997 372.291434,64.2824597 L370.414834,67.0315796 C370.138514,67.4359396 369.682234,67.6629796 369.214074,67.6629796" id="Fill-48" fill="#BD6142" mask="url(#mask-4)"></path> <path d="M350.833338,60.4594757 C350.833338,61.1938357 352.949298,61.7895957 355.559378,61.7895957 C358.169458,61.7895957 360.284978,61.1938357 360.284978,60.4594757 C360.284978,59.7246757 358.169458,59.1293557 355.559378,59.1293557 C352.949298,59.1293557 350.833338,59.7246757 350.833338,60.4594757" id="Fill-49" fill="#ED766D" mask="url(#mask-4)"></path> <path d="M373.394954,60.4594757 C373.394954,61.1938357 375.058154,61.7895957 377.110754,61.7895957 C379.162914,61.7895957 380.826994,61.1938357 380.826994,60.4594757 C380.826994,59.7246757 379.162914,59.1293557 377.110754,59.1293557 C375.058154,59.1293557 373.394954,59.7246757 373.394954,60.4594757" id="Fill-50" fill="#ED766D" mask="url(#mask-4)"></path> <path d="M372.282062,72.8093516 C365.557102,76.0147516 357.841262,73.9080316 353.755862,67.6736716 C353.389342,67.1144316 354.285622,66.5947916 354.649942,67.1509516 C358.406662,72.8841516 365.563262,74.8685516 371.759782,71.9152716 C372.358182,71.6297116 372.883982,72.5224716 372.282062,72.8093516" id="Fill-51" fill="#C24848" mask="url(#mask-4)"></path> <path d="M403.55515,31.3387798 C402.33987,39.6701798 397.48359,47.3952597 390.64995,52.3650597 C392.57495,47.9751797 391.63247,42.4509798 388.63167,38.6247398 C385.21419,34.2674198 379.59495,32.0009798 374.06195,31.7871398 C369.62675,31.6159798 365.16823,32.6341398 360.76823,32.0484998 C356.84695,31.5270998 349.92311,26.3249799 348.19919,22.0688599 C349.11659,22.0094599 350.04939,21.6477799 350.77319,21.0814999 C352.24323,19.9322199 353.08187,18.1796999 353.94559,16.5257399 C356.35591,11.9114599 359.41831,7.51409996 363.62251,4.44377998 C371.48355,-1.29821999 382.86767,-1.41305999 391.12955,3.73537998 C399.39143,8.88425995 404.26443,18.8093399 403.82311,28.5342198 C403.78087,29.4744998 403.69067,30.4103798 403.55515,31.3387798" id="Fill-52" fill="#A3262A" mask="url(#mask-4)"></path> <path d="M390.67525,36.5724918 C391.69209,39.4197318 392.07797,42.8957318 391.59881,46.2067317 C391.36033,43.4782918 390.32325,40.7815318 388.63145,38.6246518 C385.21441,34.2677718 379.59473,32.0008918 374.06173,31.7870518 C369.62653,31.6158918 365.16801,32.6340518 360.76801,32.0488518 C359.43217,31.8706518 357.74697,31.1490518 356.03801,30.1071318 C356.85641,30.0169318 357.66733,29.8660118 358.45669,29.6684518 C369.50333,26.9070119 386.07241,23.6853319 390.67525,36.5724918" id="Fill-53" fill="#7A1C20" mask="url(#mask-4)"></path> <path d="M327.121474,80.5237396 C327.123234,79.1478596 327.233234,77.7732996 327.443994,76.4273396 C328.487234,69.7758596 331.683834,63.6695397 335.124634,57.8822197 C340.060994,49.5798597 345.602794,41.6374198 351.690634,34.1384998 C353.713314,31.6476598 355.839394,29.1299798 356.877794,26.0939799 C357.916634,23.0579799 357.614794,19.3219399 355.260354,17.1417399 C353.719914,15.7152599 350.574794,15.4244199 348.264354,16.2331399 C337.640114,27.3000199 330.052754,41.2546198 326.541554,56.1890997 C324.694874,64.0413397 323.967554,72.2974996 325.741634,80.1660196 C326.239274,82.3717396 326.949874,84.5453395 327.866394,86.6247795 C327.359074,84.6491795 327.118834,82.5846996 327.121474,80.5237396" id="Fill-54" fill="#A3262A" mask="url(#mask-4)"></path> <path d="M330.876522,54.3438277 C330.876522,54.3438277 327.602482,29.2567878 328.790482,21.1801479 C329.978042,13.1030679 346.384322,1.22570799 362.344442,1.22570799 C378.304122,1.22570799 387.422242,10.3477879 386.618802,29.0191878 C386.618802,29.0191878 358.365522,7.40198796 346.479802,22.8429079 C334.594082,38.2838278 330.876522,54.3438277 330.876522,54.3438277" id="Fill-55" fill="#A3262A" mask="url(#mask-4)"></path> <path d="M342.964026,14.5812039 C343.076226,15.6996839 343.585306,16.5999239 344.291066,17.2652039 C344.400186,17.1780839 344.508866,17.0905239 344.618426,17.0034039 C346.500746,14.8909639 348.638706,12.9976439 350.781066,11.1373239 C348.173186,10.1710839 346.128946,8.14180396 345.741746,5.07764397 C345.348386,5.25628397 344.960746,5.44196397 344.575746,5.63028397 C344.814666,8.66408395 342.654706,11.4853639 342.964026,14.5812039" id="Fill-56" fill="#B55155" mask="url(#mask-4)"></path> <path d="M400.433438,13.8355799 C394.600798,14.8493399 388.847358,18.1110599 383.094358,19.8156199 C378.557958,20.8623799 375.417678,15.2792199 373.323718,11.4406599 C370.880838,6.55489996 363.553078,8.29993996 359.365158,10.7428199 C357.880598,11.4410999 356.222238,11.7851799 354.585438,11.7886999 C352.157078,14.2773399 349.367918,16.3422599 346.646518,18.4903399 C347.714838,18.7222199 348.803838,18.5976999 349.594518,18.0705799 C355.177678,14.5813799 361.459118,11.7895799 367.740118,12.8363399 C370.880838,13.5341799 372.276958,17.0238199 374.370478,20.1645399 C376.115078,22.9563399 379.953638,23.3052599 383.443278,22.9563399 C389.798638,21.9782199 394.956758,16.7241799 400.714158,14.3816199 C400.621318,14.1990199 400.529798,14.0159799 400.433438,13.8355799" id="Fill-57" fill="#B55155" mask="url(#mask-4)"></path> <path d="M392.112994,111.835591 C392.112994,117.388831 370.350594,155.978151 357.442754,155.978151 C344.534914,155.978151 322.435034,117.625111 322.435034,112.071871 C322.435034,106.518631 335.339794,102.350511 356.537234,102.350511 C378.821474,102.350511 392.112994,106.282351 392.112994,111.835591" id="Fill-58" fill="#FFA07F" mask="url(#mask-4)"></path> <path d="M390.30059,241.426855 C386.91743,217.052175 385.92699,192.346175 387.34819,167.778775 L323.34139,167.778775 C324.76303,192.346175 323.77259,217.052175 320.38943,241.426855 C320.38943,241.426855 330.13499,247.326815 355.34523,247.326815 C380.55503,247.326815 390.30059,241.426855 390.30059,241.426855" id="Fill-59" fill="#E6E6E6" mask="url(#mask-4)"></path> <path d="M343.215398,181.390175 C329.870638,181.390175 324.046358,176.183655 319.318998,167.604535 C314.592078,159.024975 313.649598,148.925655 313.115438,139.144895 C312.635838,130.358975 312.370518,121.377255 309.713358,113.037495 C311.445198,111.214135 314.060558,109.121935 315.875998,108.655095 C318.075558,108.089695 333.952958,104.135855 333.952958,104.135855 C333.952958,104.135855 343.777718,154.580975 356.376678,154.580975 C368.975638,154.580975 380.018758,103.870095 380.018758,103.870095 L397.019478,108.455775 C400.545198,109.462935 401.251398,111.214135 402.983238,113.037495 C400.326078,121.377255 400.060758,130.358975 399.581158,139.144895 C399.046998,148.925655 398.104078,159.024975 393.377598,167.604535 C388.650678,176.183655 383.617518,181.390175 369.481198,181.390175 C355.344878,181.390175 356.559718,181.390175 343.215398,181.390175" id="Fill-60" fill="#E6E6E6" mask="url(#mask-4)"></path> <path d="M315.514318,157.773043 C316.393878,161.190963 317.607838,164.497563 319.318998,167.604403 C323.004438,174.293283 327.358238,178.931323 335.421678,180.650843 C326.817478,175.557403 319.283358,167.331603 315.514318,157.773043" id="Fill-61" fill="#CCCCCC" mask="url(#mask-4)"></path> <path d="M377.039562,180.757235 C385.645082,179.131435 389.610802,174.440595 393.377642,167.604315 C394.009042,166.457235 394.571802,165.281995 395.076482,164.085195 C390.293682,170.726995 384.098042,176.637075 377.039562,180.757235" id="Fill-62" fill="#CCCCCC" mask="url(#mask-4)"></path> <path d="M465.410393,330.833138 C462.641473,330.998138 455.506434,335.669618 446.761874,334.947578 C441.778874,334.536178 421.297314,326.830458 418.470754,327.404658 C413.760994,328.361218 413.169634,331.927418 410.471114,336.910858 C415.112674,340.195458 434.121994,348.496938 439.164834,351.150578 C477.587393,358.492858 467.737113,330.694978 465.410393,330.833138" id="Fill-63" fill="#FFA07F" mask="url(#mask-4)"></path> <path d="M473.313629,327.896534 C472.576629,328.210694 471.807069,328.513854 471.017269,328.808214 C468.448989,329.708894 464.738909,330.811974 462.887389,331.351414 C454.25459,333.655254 445.90163,334.889894 445.90163,334.889894 C447.10811,334.731934 450.27479,335.962614 463.264469,333.812334 C466.683269,333.246494 466.014469,349.827014 454.34039,348.954054 C448.59179,348.524174 427.10659,345.415134 427.10659,345.415134 C426.63975,347.672774 454.58679,357.613694 454.58679,357.613694 C454.58679,357.613694 473.375229,362.723854 474.580829,357.025854 C475.786429,351.327854 480.044309,331.208854 480.044309,331.208854 C477.016229,327.593374 475.428269,326.801374 473.313629,327.896534" id="Fill-64" fill="#9A5350" mask="url(#mask-4)"></path> <path d="M268.405543,332.727294 C271.342543,333.372774 278.191142,339.583814 287.676662,340.291774 C293.082062,340.695254 316.318462,335.913774 319.247542,337.007174 C324.128462,338.829214 324.157942,342.748294 326.203062,348.541334 C320.677102,351.271974 298.916462,356.940934 293.067102,358.927974 C250.681903,360.281414 265.937583,332.185214 268.405543,332.727294" id="Fill-65" fill="#FFA07F" mask="url(#mask-4)"></path> <path d="M260.440399,328.244266 C261.176079,328.705386 261.949159,329.160346 262.744679,329.609586 C265.342439,331.008786 269.128199,332.818506 271.019319,333.709946 C279.872558,337.638706 288.607878,340.375506 288.607878,340.375506 C287.342438,340.001946 283.743678,340.783826 270.198719,336.280866 C266.633839,335.095506 264.540759,352.963026 277.189438,354.005826 C283.417198,354.519306 306.94961,354.829506 306.94961,354.829506 C307.067638,357.326066 275.458479,363.236146 275.458479,363.236146 C275.458479,363.236146 254.474879,365.525466 254.149279,359.219826 C253.823239,352.914626 252.672639,330.650626 252.672639,330.650626 C256.527039,327.292106 258.361399,326.713506 260.440399,328.244266" id="Fill-66" fill="#9A5350" mask="url(#mask-4)"></path> <path d="M411.51211,278.205354 C405.83611,263.115115 398.70503,248.532195 390.24075,234.704315 L354.41683,234.704315 L318.59247,234.704315 C310.12863,248.532195 302.99755,263.115115 297.32155,278.205354 C294.93367,284.552354 292.77635,291.176114 293.19435,297.914274 C293.74127,306.722634 296.23211,315.433314 302.69043,321.697154 C309.14787,327.961434 342.30187,334.189194 342.30187,334.189194 C370.02011,336.740314 380.05959,332.184994 387.13875,325.318354 C393.59663,319.054514 415.74535,304.127954 416.29183,295.319594 C416.71027,288.581434 413.89999,284.552354 411.51211,278.205354" id="Fill-67" fill="#456A97" mask="url(#mask-4)"></path> <path d="M347.068434,261.733691 C346.970314,265.566971 346.873074,269.399811 346.774954,273.233091 L346.307234,291.57449 C346.271154,292.98337 346.234634,294.39225 346.198994,295.80113 C346.186674,296.29085 346.724354,296.30537 346.736674,295.81477 C346.834794,291.98193 346.932474,288.14865 347.030154,284.31537 C347.186794,278.20157 347.342554,272.087771 347.498754,265.973971 C347.534834,264.565091 347.570474,263.156211 347.606554,261.747331 C347.618874,261.257611 347.080754,261.243091 347.068434,261.733691" id="Fill-68" fill="#273C55" mask="url(#mask-4)"></path> <path d="M344.242798,289.028738 C340.877678,286.046418 337.212038,283.423578 333.296038,281.213018 C332.804558,280.935378 332.341678,281.680738 332.834038,281.958818 C336.684038,284.132418 340.297758,286.700698 343.606998,289.632858 C344.026758,290.005098 344.666078,289.403618 344.242798,289.028738" id="Fill-69" fill="#273C55" mask="url(#mask-4)"></path> <path d="M351.78981,289.956302 C356.74905,288.390782 361.68805,286.737702 366.56457,284.931062 C368.25241,284.305382 369.93409,283.659902 371.58673,282.946222 C372.10461,282.722702 371.67869,281.954902 371.16301,282.177542 C365.36645,284.681142 359.30017,286.614942 353.29681,288.554462 C352.72437,288.739262 352.15193,288.923622 351.57861,289.104902 C351.04357,289.273422 351.24949,290.127022 351.78981,289.956302" id="Fill-70" fill="#273C55" mask="url(#mask-4)"></path> <path d="M349.567502,292.542182 C353.445222,293.166982 357.322062,293.792222 361.199342,294.417022 C361.749342,294.505902 362.009382,293.666822 361.454102,293.577502 C357.576822,292.952262 353.699982,292.327462 349.822262,291.702662 C349.272262,291.613782 349.011782,292.452862 349.567502,292.542182" id="Fill-71" fill="#273C55" mask="url(#mask-4)"></path> <path d="M309.904758,285.728826 C309.904758,285.728826 272.422039,286.523906 259.358439,292.206946 C246.294399,297.889546 234.926999,313.033466 252.480359,330.586826 C263.259919,341.366386 309.514478,343.547026 309.514478,343.547026 L309.904758,285.728826 Z" id="Fill-72" fill="#456A97" mask="url(#mask-4)"></path> <path d="M451.492358,288.39571 C376.014318,300.11379 358.915478,312.95211 285.044318,341.45003 L296.031998,363.58071 C341.472558,349.29523 406.596958,346.20951 461.688037,327.96931 C472.981957,324.23019 458.777878,285.96119 451.492358,288.39571" id="Fill-73" fill="#456A97" mask="url(#mask-4)"></path> <path d="M364.463878,309.79401 C345.520998,316.75481 326.255598,325.20149 298.595438,336.15177 C314.366798,341.37281 330.266198,346.53137 346.021278,352.21265 C369.371198,348.07269 394.500038,344.38637 419.158958,339.16489 C400.566758,329.99793 381.956518,320.90797 364.463878,309.79401" id="Fill-74" fill="#345071" mask="url(#mask-4)"></path> <path d="M408.695054,279.85685 C408.695054,279.85685 446.177774,280.65193 459.241814,286.33497 C472.305413,292.01801 483.672813,307.68421 466.119453,325.23757 C455.339894,336.01713 407.953214,327.17049 407.953214,327.17049 L408.695054,279.85685 Z" id="Fill-75" fill="#456A97" mask="url(#mask-4)"></path> <path d="M274.465399,296.358214 C350.722238,300.734894 368.980478,311.862494 445.257558,333.095574 L436.457998,356.183694 C389.850558,346.352334 324.732318,349.567854 268.137759,336.731294 C256.535399,334.099654 266.978799,294.638254 274.465399,296.358214" id="Fill-76" fill="#456A97" mask="url(#mask-4)"></path> <polygon id="Fill-77" fill="#345071" mask="url(#mask-4)" points="364.463878 309.79401 325.323678 296.92269 387.578838 297.34025"></polygon> <path d="M399.690542,286.164646 C393.099342,289.715006 387.238102,280.992006 384.218382,274.846087 C381.184582,268.672007 379.541182,261.634647 379.356822,254.419967 C379.334822,253.550967 378.242302,253.547447 378.264742,254.419967 C378.481662,262.927807 380.672422,271.258327 384.694462,278.183046 C388.182782,284.189486 393.840302,290.781566 400.242302,287.333286 C400.885142,286.987006 400.329422,285.820566 399.690542,286.164646" id="Fill-78" fill="#CCCCCC" mask="url(#mask-4)"></path> <path d="M394.361526,282.369954 C394.349206,280.506994 394.336886,278.644474 394.324566,276.781515 C394.318406,275.911195 393.226326,275.908995 393.232046,276.781515 L393.269446,282.369954 C393.275166,283.240714 394.367686,283.242474 394.361526,282.369954" id="Fill-79" fill="#CCCCCC" mask="url(#mask-4)"></path> <path d="M305.741082,287.333418 C313.672522,290.781258 320.682602,284.189178 325.004722,278.183178 C329.988162,271.258459 332.702962,262.928379 332.971802,254.420099 C332.999082,253.548899 331.645642,253.549779 331.618362,254.420099 C331.390442,261.635219 329.353682,268.671699 325.594762,274.846219 C321.853442,280.991698 314.592122,289.715578 306.424402,286.164778 C305.633282,285.820698 304.943362,286.986698 305.741082,287.333418" id="Fill-80" fill="#CCCCCC" mask="url(#mask-4)"></path> <path d="M396.988634,244.673175 C368.868234,247.313175 339.628474,247.313175 311.508514,244.673175 C311.767234,240.752775 313.432634,233.417095 313.691354,229.496695 C341.294754,232.087855 364.136914,231.415095 393.374914,229.666095 C393.633634,233.586495 396.988634,244.673175 396.988634,244.673175" id="Fill-81" fill="#AD4537" mask="url(#mask-4)"></path> <path d="M444.01579,212.604303 C443.46931,213.490463 439.85119,215.550983 437.28555,213.755343 C433.53191,211.128103 431.01115,207.815783 428.98275,203.707503 C421.38219,188.314543 410.61099,171.508303 403.01043,156.115343 C396.20627,142.336303 392.46803,117.671663 398.41947,112.218303 C404.37091,106.764943 414.62995,121.352263 417.99067,130.002663 C421.60835,139.314383 426.53283,151.300423 430.22707,160.582223 C433.89007,169.784823 436.10151,175.879263 440.46103,184.773423 C444.79327,193.610823 449.17347,204.244303 444.01579,212.604303" id="Fill-82" fill="#FFA07F" mask="url(#mask-4)"></path> <path d="M477.805589,277.937658 C477.805589,277.937658 481.643709,281.202898 482.098669,282.685258 C482.553189,284.167178 481.491469,289.492058 481.324269,290.561258 C481.157069,291.630018 479.459549,296.907378 477.829789,296.770538 C476.474589,296.656578 477.040869,294.132298 477.528389,291.014898 C478.015909,287.897498 478.112269,284.758098 477.707029,284.354618 C477.301789,283.951578 473.108589,277.496778 472.527789,276.094939 C471.946549,274.692659 476.363709,276.502379 477.805589,277.937658" id="Fill-83" fill="#C2826B" mask="url(#mask-4)"></path> <path d="M481.525789,281.638234 C481.525789,281.638234 484.794989,285.391874 485.013229,286.928794 C485.231909,288.465714 483.368069,293.639674 483.039389,294.684234 C482.710709,295.728354 480.229989,300.772514 478.649509,300.425354 C477.335669,300.136714 478.280349,297.692074 479.239989,294.645514 C480.198749,291.599394 480.776909,288.480674 480.440749,288.026154 C480.105029,287.571194 476.978829,280.591034 476.623309,279.117474 C476.268229,277.643914 480.330309,280.020354 481.525789,281.638234" id="Fill-84" fill="#C2826B" mask="url(#mask-4)"></path> <path d="M481.645689,283.900714 C481.645689,283.900714 486.824929,289.655034 487.799089,291.236394 C488.772809,292.818194 486.734289,302.798274 485.778169,305.836034 C484.821609,308.874234 482.406009,307.119954 482.810369,304.158314 C483.278089,298.258794 484.337169,294.637154 483.728209,293.648474 C483.120129,292.660234 476.876089,285.211914 477.530369,283.133794 C478.185089,281.054794 479.287729,281.233434 481.645689,283.900714" id="Fill-85" fill="#FFA07F" mask="url(#mask-4)"></path> <path d="M466.493629,278.311262 C463.990029,271.172703 464.008949,264.982343 470.975469,265.497143 C475.602509,265.839023 483.845029,276.454463 485.444429,281.432622 C487.043829,286.410782 468.225029,283.246742 466.493629,278.311262" id="Fill-86" fill="#FFA07F" mask="url(#mask-4)"></path> <path d="M483.306425,279.113382 C486.138265,280.670982 489.365665,287.570182 490.179225,288.891062 C490.992345,290.212382 494.318745,300.842782 495.829265,303.295782 C496.758985,304.805422 493.045825,306.001782 491.225105,303.045422 C489.404385,300.089062 486.538665,292.767902 485.661305,291.342302 C484.783065,289.917142 475.894625,284.252582 474.602785,282.153782 C473.310065,280.054982 480.013465,277.301902 483.306425,279.113382" id="Fill-87" fill="#FFA07F" mask="url(#mask-4)"></path> <path d="M472.711621,277.437818 C472.711621,277.437818 474.344461,287.009138 475.119301,288.267098 C475.893701,289.525058 476.224581,299.003098 471.836901,295.462418 C468.786821,293.001498 468.874381,287.146418 468.342421,284.745338 C467.810901,282.343818 464.322141,279.518578 465.364941,274.358699 C466.408181,269.199259 471.665741,275.739419 472.711621,277.437818" id="Fill-88" fill="#FFA07F" mask="url(#mask-4)"></path> <path d="M473.740297,269.668079 C473.740297,269.668079 471.659097,273.857319 465.878377,273.021759 C465.878377,273.021759 433.474578,213.994439 431.737018,207.948399 C429.999458,201.901919 438.209858,190.313199 443.219698,193.588999 C448.229538,196.864359 451.052578,204.442479 455.007738,212.363359 C458.962458,220.283799 473.740297,269.668079 473.740297,269.668079" id="Fill-89" fill="#FFA07F" mask="url(#mask-4)"></path> <path d="M271.623439,227.821351 C272.308959,228.777471 276.548359,230.817751 279.300118,228.593111 C283.326998,225.337551 285.908918,221.407031 287.874838,216.616751 C295.240438,198.670031 306.068398,178.881471 313.433998,160.934751 C320.027398,144.869471 322.313638,116.772391 315.177718,111.089791 C308.042678,105.407191 297.617758,122.654311 294.505198,132.668271 C291.154598,143.448271 286.540318,157.345671 283.101278,168.097951 C279.690838,178.758711 277.674758,185.801791 273.455159,196.169071 C269.262399,206.470351 265.155439,218.800031 271.623439,227.821351" id="Fill-90" fill="#FFA07F" mask="url(#mask-4)"></path> <path d="M164.754611,239.176475 C165.456411,240.830875 167.100691,242.178155 168.412331,242.890515 C170.625531,244.093035 173.267731,244.208315 175.674091,244.914515 C179.353371,245.993835 182.915611,247.260155 186.608091,248.294595 C190.300131,249.328595 194.448451,249.525275 197.922251,247.508315 C198.911811,246.934115 199.950651,245.736875 199.465331,244.694515 C197.289531,243.233715 193.718051,241.077275 191.202131,240.425635 C185.567491,238.966155 179.377571,240.475795 173.824771,238.730315 C171.031211,237.852075 168.403971,236.156755 165.519771,235.913875 C164.981651,235.868995 164.579051,236.337595 164.475211,236.885395 C164.323851,237.688835 164.451451,238.461475 164.754611,239.176475" id="Fill-91" fill="#FFA07F" mask="url(#mask-4)"></path> <path d="M179.631671,246.705799 C176.754071,246.548279 155.042271,250.469119 152.354751,251.537879 C149.404111,252.710919 151.318111,254.748559 153.911911,254.776279 C156.504831,254.803999 178.056911,251.648319 179.784351,251.406759 C181.511791,251.165199 182.078511,246.839559 179.631671,246.705799" id="Fill-92" fill="#FFA07F" mask="url(#mask-4)"></path> <path d="M179.214859,251.743887 C177.672659,251.721007 174.305779,252.751927 167.821499,254.121207 C162.191699,255.310527 153.612139,256.500727 152.249019,257.066567 C149.473499,258.218487 151.341739,260.315967 153.934659,260.239847 C155.091859,260.205967 163.447899,259.858807 168.678619,258.934807 C175.165539,257.789047 178.605019,256.606767 179.555419,256.435167 C181.272299,256.124527 181.664779,251.779967 179.214859,251.743887" id="Fill-93" fill="#FFA07F" mask="url(#mask-4)"></path> <path d="M181.044027,256.027639 C179.600387,256.103319 173.953427,258.097839 168.091747,259.726279 C162.864547,261.178719 157.392267,262.238679 155.728187,262.981399 C152.976427,264.209439 155.076107,266.115959 157.526467,265.878799 C158.586867,265.776279 163.296187,265.246079 168.021347,264.082279 C174.212587,262.557679 180.687187,260.301359 181.597987,260.072559 C183.203547,259.669079 183.365907,255.905759 181.044027,256.027639" id="Fill-94" fill="#FFA07F" mask="url(#mask-4)"></path> <path d="M189.555739,257.729647 C188.105499,257.885407 182.091139,260.490647 176.240459,262.595167 C171.473499,264.309847 166.540659,265.367607 165.386979,265.986247 C162.976659,267.278967 165.014739,268.077567 167.369619,267.718967 C168.398779,267.562327 172.979179,267.018487 177.546379,265.871847 C183.433139,264.394767 189.528459,262.235687 190.389979,261.968607 C191.920299,261.493847 191.793579,257.488967 189.555739,257.729647" id="Fill-95" fill="#FFA07F" mask="url(#mask-4)"></path> <path d="M175.736527,253.832831 C176.423367,256.005991 177.274327,258.113151 178.714887,259.742911 C181.682687,263.100991 186.704847,263.643951 190.772207,261.870751 C194.839127,260.097551 200.461007,256.965191 202.717767,252.846791 C203.216287,248.770191 201.793327,244.374591 198.026047,243.892791 C193.552127,243.320351 182.847367,240.855031 178.682767,242.915991 C177.944447,243.281631 174.869287,246.311471 174.609687,247.149231 C174.402447,247.818031 174.941007,251.142231 175.131967,251.803991 C175.326007,252.478511 175.523567,253.158751 175.736527,253.832831" id="Fill-96" fill="#FFA07F" mask="url(#mask-4)"></path> <path d="M178.448731,257.715479 C180.243931,260.618159 184.117251,262.302039 184.463091,262.550639 C184.637331,262.661079 184.820811,262.747319 185.011771,262.813759 C182.623891,262.593759 180.355251,261.599359 178.714491,259.742999 C177.274371,258.113239 176.422971,256.006079 175.736131,253.832919 C175.523611,253.158839 175.326051,252.478599 175.132011,251.804079 C174.941051,251.142319 174.402491,247.818119 174.609731,247.149319 C174.628211,247.089039 174.665611,247.014239 174.711811,246.933279 C174.761971,248.796679 176.672011,254.843159 178.448731,257.715479" id="Fill-97" fill="#C2826B" mask="url(#mask-4)"></path> <path d="M190.531131,261.970675 C189.818771,262.262835 189.079571,262.485035 188.328931,262.634635 C189.057571,262.435755 189.802491,262.186715 190.531131,261.970675" id="Fill-98" fill="#FFA07F" mask="url(#mask-4)"></path> <path d="M179.116035,245.930387 C179.116035,245.930387 179.169715,245.989391 179.258595,246.076071 C179.347915,246.161871 179.470675,246.278911 179.602235,246.405631 C179.873275,246.649831 180.157075,247.126791 180.319875,247.254391 C182.727555,249.166631 185.665435,250.403911 188.715075,250.790671 C188.920115,250.817951 189.368915,250.649431 189.732795,250.672751 C189.914955,250.678911 190.084795,250.684191 190.208875,250.688151 C190.332515,250.691671 190.412155,250.688591 190.412155,250.688591 C190.412155,250.686831 190.392355,250.684191 190.357155,250.680671 C190.321955,250.678031 190.271355,250.673631 190.209315,250.668791 C190.085675,250.660431 189.916715,250.648991 189.734995,250.636671 C189.372875,250.604111 188.959275,250.559671 188.755115,250.531951 C185.715595,250.139031 182.790475,248.906591 180.385875,247.006671 C180.223515,246.879511 179.903195,246.615071 179.626435,246.378351 C179.490915,246.256911 179.364195,246.144271 179.271795,246.061551 C179.225155,246.021071 179.186875,245.987631 179.160475,245.964311 C179.133195,245.941871 179.117795,245.929551 179.116035,245.930387" id="Fill-99" fill="#C2826B" mask="url(#mask-4)"></path> <path d="M198.364759,254.153899 C198.364759,254.153899 193.725399,251.620379 194.921319,245.129499 C194.921319,245.129499 262.988879,211.117939 269.892039,209.419979 C276.795639,207.722019 289.523078,217.499259 285.604878,223.012899 C281.687558,228.526539 273.007679,231.384339 263.890879,235.504059 C254.774079,239.623779 198.364759,254.153899 198.364759,254.153899" id="Fill-100" fill="#FFA07F" mask="url(#mask-4)"></path> <path d="M203.425595,334.40761 C201.266515,335.72981 196.852435,336.08533 194.658595,337.01593 C186.335115,324.96213 179.552075,312.96025 175.440715,298.85913 C180.135515,297.98441 183.249835,297.11321 187.907235,296.04533 C191.268395,308.64869 197.676555,322.49109 203.425595,334.40761" id="Fill-101" fill="#FFD5C7" mask="url(#mask-4)"></path> <path d="M197.579271,308.960738 C196.470031,307.754258 192.281231,295.355938 187.384471,295.355938 C185.476631,299.193178 183.274871,306.425018 181.460311,310.491498 C186.317031,313.831978 192.050671,311.129498 197.579271,308.960738" id="Fill-102" fill="#7DAAEA" mask="url(#mask-4)"></path> <path d="M222.017751,347.636474 C224.580751,354.842354 226.919351,361.451154 228.522271,365.839714 L221.894991,368.737554 C219.708631,364.531154 216.369911,358.362354 212.790511,351.743874 C211.424311,349.216954 212.519031,346.053794 215.160351,344.922994 L215.492551,344.780434 C218.082831,343.671634 221.073511,344.981514 222.017751,347.636474" id="Fill-103" fill="#FFD5C7" mask="url(#mask-4)"></path> <path d="M226.593487,357.441214 C223.842607,358.579054 219.273647,360.135774 216.537287,361.308374 C211.644487,349.635174 207.244047,345.361454 201.091527,344.586614 C195.463047,343.877774 190.149607,349.337294 178.087887,348.257094 C168.771327,347.422854 172.982127,331.072454 174.996007,330.747734 C204.430247,326.004094 216.959247,330.133934 226.593487,357.441214" id="Fill-104" fill="#A03732" mask="url(#mask-4)"></path> <path d="M229.745691,358.562598 C229.373891,358.137118 225.699451,359.383638 225.987211,360.620918 C226.061571,360.942118 226.143851,361.220638 226.233171,361.469678 C225.320611,361.694078 224.366251,361.910558 223.444451,362.100638 C221.285371,362.545918 219.324731,362.840718 217.926851,362.955118 C218.316251,364.928078 219.312851,368.265478 219.763851,370.454038 C219.763851,370.454038 242.525931,370.443038 245.064291,365.167438 C246.147131,362.916398 232.637811,361.873158 229.745691,358.562598" id="Fill-105" fill="#785CC6" mask="url(#mask-4)"></path> <path d="M237.670003,361.138666 C236.837083,361.168586 234.903723,362.611786 233.969603,363.897466 C233.865323,364.041786 233.897003,364.243306 234.041323,364.348466 C234.117883,364.403906 234.210283,364.421066 234.296083,364.403466 C234.372643,364.387626 234.443043,364.344946 234.491883,364.277186 C235.389043,363.042546 237.165323,361.799986 237.692883,361.784146 C237.869763,361.775346 238.010123,361.628386 238.003963,361.449746 C237.997363,361.271546 237.847763,361.132506 237.670003,361.138666 M236.209203,360.749266 C236.173563,360.574586 236.002403,360.461946 235.827723,360.498466 C234.866323,360.696466 233.036803,361.942986 232.271643,363.115586 C232.174843,363.264306 232.216203,363.464946 232.365803,363.562186 C232.440603,363.610586 232.527283,363.624666 232.607803,363.607946 C232.688763,363.591226 232.764003,363.543266 232.812843,363.468026 C233.468003,362.463066 235.140443,361.299266 235.957963,361.130306 C236.133083,361.094666 236.245283,360.923946 236.209203,360.749266 M234.146923,360.578106 C234.321163,360.542026 234.442163,360.370866 234.407403,360.197066 C234.372643,360.021946 234.202363,359.907986 234.027683,359.943626 C232.832643,360.185186 231.295723,361.285626 230.683243,362.341186 C230.593923,362.495626 230.646283,362.692746 230.800723,362.782506 C230.872003,362.823866 230.952523,362.834866 231.027763,362.819466 C231.114883,362.801426 231.194083,362.748186 231.242043,362.665466 C231.766083,361.761706 233.124803,360.788866 234.146923,360.578106" id="Fill-106" fill="#D3DAE5" mask="url(#mask-4)"></path> <path d="M219.372603,368.765098 C219.522203,369.368338 219.658603,369.943858 219.764203,370.453818 C219.764203,370.453818 242.525843,370.443258 245.064643,365.167218 C245.262203,364.756258 245.012283,364.384898 244.460083,364.032018 C240.528243,367.877618 226.006043,368.626498 219.372603,368.765098" id="Fill-107" fill="#48319B" mask="url(#mask-4)"></path> <path d="M215.701771,361.600358 C215.411371,360.858958 214.133611,357.980918 213.917131,357.389118 L225.966091,352.443518 C225.966091,352.443518 227.608171,356.066478 227.847531,356.680278 C226.936291,357.609118 216.488931,361.730158 215.701771,361.600358" id="Fill-108" fill="#CE5D5D" mask="url(#mask-4)"></path> <path d="M148.210347,340.40635 C176.760187,351.09571 190.814667,337.46143 195.055827,331.68555 C191.993867,324.03043 187.854347,304.90891 187.384427,295.35607 C181.003987,294.33527 168.333747,293.54195 160.556747,294.06907 C154.666467,313.12987 150.261627,336.89119 148.210347,340.40635" id="Fill-109" fill="#7DAAEA" mask="url(#mask-4)"></path> <path d="M181.716919,287.92315 L181.260199,297.24015 C181.162079,299.24303 178.340799,300.73331 174.959399,300.56787 C171.577119,300.40199 168.915119,298.64287 169.013679,296.63955 L169.470399,287.32299 L181.716919,287.92315 Z" id="Fill-110" fill="#E4A78E" mask="url(#mask-4)"></path> <path d="M199.340151,356.26417 C201.903151,363.47005 204.241751,370.07885 205.844671,374.46741 L199.216951,377.36569 C197.031031,373.15885 193.692311,366.99005 190.112911,360.37157 C188.746271,357.84465 189.841431,354.68149 192.482311,353.55069 L192.814951,353.40857 C195.405231,352.29933 198.395911,353.60965 199.340151,356.26417" id="Fill-111" fill="#FFD5C7" mask="url(#mask-4)"></path> <path d="M203.915887,366.069218 C201.164567,367.207058 196.596047,368.763338 193.859687,369.936378 C188.966887,358.262738 184.566447,353.989458 178.413927,353.214618 C172.785007,352.505778 167.472007,357.964858 155.409847,356.884658 C146.093727,356.050858 150.304087,339.700018 152.318407,339.375738 C181.752207,334.632098 194.281647,338.761498 203.915887,366.069218" id="Fill-112" fill="#A03732" mask="url(#mask-4)"></path> <path d="M207.067651,367.190602 C206.695851,366.765122 203.021851,368.011642 203.309611,369.248922 C203.383971,369.569682 203.465811,369.848642 203.555571,370.097242 C202.643011,370.321642 201.688651,370.538562 200.766851,370.728642 C198.607771,371.173482 196.646691,371.468282 195.248811,371.583122 C195.638211,373.555642 196.634811,376.893042 197.085811,379.081602 C197.085811,379.081602 219.847891,379.071042 222.386691,373.795442 C223.469531,371.544402 209.959771,370.501162 207.067651,367.190602" id="Fill-113" fill="#785CC6" mask="url(#mask-4)"></path> <path d="M214.991919,369.76645 C214.159439,369.79637 212.226079,371.23957 211.291959,372.52525 C211.187239,372.66913 211.219359,372.87153 211.363239,372.97625 C211.439799,373.03169 211.532639,373.04885 211.618439,373.03125 C211.694999,373.01541 211.765399,372.97273 211.814239,372.90497 C212.711399,371.66989 214.487679,370.42777 215.015239,370.41193 C215.192119,370.40313 215.332479,370.25617 215.326319,370.07797 C215.319719,369.89933 215.170119,369.76029 214.991919,369.76645 M213.531559,369.37705 C213.495479,369.20237 213.324759,369.09017 213.149639,369.12581 C212.188679,369.32425 210.359159,370.57077 209.593999,371.74293 C209.497199,371.89253 209.538559,372.09273 209.688159,372.18997 C209.762519,372.23837 209.849199,372.25245 209.929719,372.23573 C210.011119,372.21901 210.086359,372.17105 210.135199,372.09581 C210.790359,371.09085 212.462799,369.92705 213.280319,369.75853 C213.454999,369.72245 213.567639,369.55173 213.531559,369.37705 M211.469719,369.20589 C211.643519,369.17025 211.764079,368.99909 211.729759,368.82485 C211.694999,368.64973 211.524719,368.53577 211.350039,368.57097 C210.154999,368.81341 208.617639,369.91341 208.005599,370.96897 C207.916279,371.12341 207.968639,371.32097 208.122639,371.41073 C208.193919,371.45165 208.274439,371.46265 208.349679,371.44769 C208.436799,371.42965 208.515999,371.37597 208.564399,371.29281 C209.088439,370.38905 210.446719,369.41665 211.469719,369.20589" id="Fill-114" fill="#D3DAE5" mask="url(#mask-4)"></path> <path d="M196.694563,377.393102 C196.844603,377.995902 196.980563,378.571422 197.086163,379.081382 C197.086163,379.081382 219.847803,379.070822 222.387043,373.795222 C222.584603,373.384262 222.334243,373.012902 221.782043,372.660022 C217.850203,376.505622 203.328443,377.254502 196.694563,377.393102" id="Fill-115" fill="#48319B" mask="url(#mask-4)"></path> <path d="M193.024171,370.228186 C192.733331,369.486786 191.456011,366.608746 191.239531,366.016946 L203.288491,361.071346 C203.288491,361.071346 204.930571,364.694746 205.169931,365.308106 C204.258251,366.236506 193.811331,370.357986 193.024171,370.228186" id="Fill-116" fill="#CE5D5D" mask="url(#mask-4)"></path> <path d="M131.599027,341.01575 C133.409187,342.39075 135.132667,343.80183 136.803787,345.34359 C145.501267,334.59747 153.804947,324.28255 158.916427,311.35183 C154.779987,310.23423 152.064747,309.22047 147.980667,307.92379 C143.693307,319.50107 137.966267,330.23399 131.599027,341.01575" id="Fill-117" fill="#FFD5C7" mask="url(#mask-4)"></path> <path d="M146.420691,307.280026 C148.054851,305.129306 151.735891,294.999186 160.556571,294.069026 C161.525451,298.243306 162.086891,309.660426 162.911891,314.036666 C161.462091,314.036666 149.001731,310.318226 146.420691,307.280026" id="Fill-118" fill="#7DAAEA" mask="url(#mask-4)"></path> <path d="M124.695691,342.754278 C126.708251,340.050918 128.817611,338.984798 132.034451,337.809998 C134.630451,336.861798 137.154291,335.870038 140.195131,337.723758 C140.912331,338.161558 141.752291,339.553278 141.872851,342.025198 C141.604011,344.027638 140.658011,347.382198 139.700571,348.921758 C139.190611,349.741038 137.370771,351.517318 137.370771,351.517318 C135.146131,351.220758 138.631371,346.721758 136.855091,345.948238 C135.467331,347.313558 134.647171,348.135478 134.355011,349.224478 C134.144251,350.009878 133.632091,353.636798 131.365211,353.356958 C131.267091,350.171358 131.481371,347.871038 133.094411,345.098598 C130.524371,347.724518 130.631291,352.897598 127.987331,351.701678 C128.144411,349.317318 128.471771,346.585798 130.337811,343.854278 C129.720051,344.274478 128.367051,346.318278 128.239891,346.612198 C127.603211,348.080478 127.680651,350.040238 125.566891,349.558438 C125.678211,346.814598 126.553371,344.496678 127.449211,343.180638 C126.098411,343.644398 125.357011,347.401558 123.082651,346.462158 C123.674011,345.206838 123.959571,343.742958 124.695691,342.754278" id="Fill-119" fill="#FFD5C7" mask="url(#mask-4)"></path> <path d="M209.025739,270.457219 C208.389939,277.125418 203.923499,282.011618 200.181739,282.011618 C196.440859,282.011178 195.184659,276.842938 195.184659,270.521459 C195.184659,264.200419 198.218459,259.060339 201.959339,259.076142 C207.073899,259.099059 209.622819,264.187659 209.025739,270.457219" id="Fill-120" fill="#FCC8B4" mask="url(#mask-4)"></path> <path d="M204.217507,273.840027 C203.172067,276.450987 200.803107,277.960186 198.926507,277.209546 C197.048147,276.458467 196.374067,273.731787 197.419947,271.120387 C198.465387,268.508107 200.833027,267.000227 202.709627,267.751307 C204.587107,268.501947 205.261627,271.227307 204.217507,273.840027" id="Fill-121" fill="#E4A78E" mask="url(#mask-4)"></path> <path d="M158.310591,212.453559 C157.397591,212.687639 156.576551,213.071319 155.872111,213.553559 C154.497551,211.472799 153.733271,208.760639 150.092271,207.616199 C147.226991,206.715959 145.789951,208.985039 144.761671,208.993399 C143.653311,205.927039 140.534591,203.961999 137.487151,204.532679 C134.378111,205.114799 132.472031,208.125719 133.044031,211.387879 C131.767151,211.557279 130.699271,211.950639 130.070511,212.562239 C128.829711,213.768719 129.678031,215.433239 131.936111,216.639719 C130.383351,217.289599 129.111311,218.190279 128.352311,219.278399 C126.657871,221.708079 128.065871,224.288239 131.482911,225.606039 C129.359031,227.411359 128.194791,229.708159 128.541071,232.021239 C128.724551,233.247959 133.133351,238.614639 142.369831,234.526599 C143.247191,234.138079 143.908951,236.643439 144.568511,239.346799 C144.872111,239.249559 145.183631,239.178719 145.498231,239.119759 C145.689631,237.845959 153.812031,241.192159 154.677071,240.160359 C157.223351,237.122159 154.326391,232.130359 157.364591,234.676639 C157.798431,235.040519 158.172871,235.453679 158.498471,235.896759 C159.710671,235.207719 160.947511,234.642759 162.239351,234.242359 C163.140031,231.710599 156.824711,228.480559 155.743631,227.377039 C158.553031,226.276599 163.629311,218.761399 163.020351,216.386279 C162.347151,213.758159 161.662511,211.594679 158.310591,212.453559" id="Fill-122" fill="#C14B21" mask="url(#mask-4)"></path> <path d="M205.406035,254.860187 C205.545075,275.572747 192.669795,284.976426 174.550155,285.098306 C156.430955,285.220626 143.080035,275.993827 142.940115,255.281267 C142.800635,234.568707 156.056955,229.668867 174.175275,229.546547 C192.295355,229.424667 205.266555,234.147627 205.406035,254.860187" id="Fill-123" fill="#E25A24" mask="url(#mask-4)"></path> <path d="M202.347111,243.606131 C204.484631,245.508691 202.872031,250.165651 202.588231,253.844491 C201.560831,267.114011 202.492751,271.877891 203.325231,277.15525 C205.094911,288.37085 189.626271,289.82813 186.000671,290.13437 C182.048591,290.46877 163.931591,290.17177 158.326431,282.54305 C152.882311,275.133011 149.541831,249.932451 150.765471,246.646971 C154.899711,235.551051 160.699791,236.626411 174.865591,236.530931 C188.116631,236.441611 194.661631,236.766331 202.347111,243.606131" id="Fill-124" fill="#FFD5C7" mask="url(#mask-4)"></path> <path d="M157.430591,258.587075 C158.555231,264.774355 158.993911,269.897275 154.687191,273.405835 C149.663711,277.498274 144.820631,263.509355 144.753751,253.662155 C144.687751,243.813635 151.613351,236.470035 164.156431,237.244435 C170.622671,237.643515 154.412631,241.981475 157.430591,258.587075" id="Fill-125" fill="#E25A24" mask="url(#mask-4)"></path> <path d="M140.943439,274.599731 C143.311519,281.15221 150.216879,284.75801 155.051159,283.63997 C159.886759,282.52237 160.312679,276.92205 158.846159,270.531491 C157.378759,264.140931 152.265959,259.850051 147.436079,260.984371 C140.832559,262.534491 138.717039,268.440611 140.943439,274.599731" id="Fill-126" fill="#FFD5C7" mask="url(#mask-4)"></path> <path d="M148.940791,276.087635 C150.290271,278.985034 153.648351,280.012874 155.016751,279.142994 C156.554991,278.164434 156.450711,276.416755 155.673671,273.545755 C154.763751,270.193395 153.142351,268.400835 150.864471,269.275995 C148.496391,270.185475 147.351071,272.678955 148.940791,276.087635" id="Fill-127" fill="#E4A78E" mask="url(#mask-4)"></path> <path d="M175.994367,278.87499 C176.017687,282.29379 173.264167,285.08427 169.845367,285.10715 C166.427007,285.13003 163.636527,282.37695 163.613647,278.95815 C163.590767,275.539351 166.343407,272.749311 169.762207,272.725991 C173.181007,272.703111 175.971487,275.456191 175.994367,278.87499" id="Fill-128" fill="#FFC6C5" mask="url(#mask-4)"></path> <path d="M201.787211,277.94439 C201.807891,281.00459 199.780811,283.49983 197.260491,283.516639 C194.740171,283.53371 192.680531,281.06619 192.659851,278.00599 C192.639171,274.945351 194.665371,272.450551 197.185691,272.433306 C199.706451,272.416671 201.766531,274.883751 201.787211,277.94439" id="Fill-129" fill="#FFC6C5" mask="url(#mask-4)"></path> <path d="M177.952455,271.221939 C177.952455,271.221939 172.076695,273.238459 168.301495,271.611339 C166.699895,270.920979 165.476255,269.574579 165.239535,267.140059 C164.890615,263.544379 168.588375,261.270459 171.015415,261.351859 C173.701175,261.441619 176.249215,263.648659 177.391455,266.671459 C177.915055,268.058339 178.143415,269.616819 177.952455,271.221939" id="Fill-130" fill="#FFFFFF" mask="url(#mask-4)"></path> <path d="M170.057359,265.781867 C169.316839,267.679147 170.254479,269.817107 172.152199,270.557627 C174.049039,271.297707 176.187439,270.360067 176.927519,268.462787 C177.668039,266.565947 176.729959,264.427987 174.833119,263.687467 C172.935839,262.946947 170.797879,263.884587 170.057359,265.781867" id="Fill-131" fill="#461D14" mask="url(#mask-4)"></path> <path d="M170.351719,265.193631 C170.146239,265.719871 170.406279,266.312991 170.932519,266.518471 C171.459639,266.723951 172.052319,266.463911 172.257799,265.937231 C172.463279,265.410991 172.202799,264.817871 171.676999,264.612391 C171.150319,264.406911 170.557199,264.667391 170.351719,265.193631" id="Fill-132" fill="#FEFFFE" mask="url(#mask-4)"></path> <path d="M190.241083,271.139219 C190.241083,271.139219 195.567283,273.080059 198.952203,271.404979 C200.388363,270.693939 201.474723,269.332139 201.656443,266.894539 C201.925723,263.294899 198.561043,261.068939 196.372483,261.180699 C193.950723,261.305219 191.680323,263.544379 190.689003,266.581699 C190.233603,267.975179 190.048803,269.536739 190.241083,271.139219" id="Fill-133" fill="#FFFFFF" mask="url(#mask-4)"></path> <path d="M195.083239,264.918851 C194.416639,266.815691 195.264079,268.954531 196.976559,269.695931 C198.688159,270.437331 200.616679,269.501011 201.283279,267.604611 C201.949879,265.707771 201.102879,263.569371 199.390399,262.827531 C197.678359,262.086131 195.750279,263.022451 195.083239,264.918851" id="Fill-134" fill="#461D14" mask="url(#mask-4)"></path> <path d="M195.348339,264.330703 C195.163539,264.856943 195.398499,265.450503 195.873259,265.655983 C196.348459,265.861903 196.883499,265.601863 197.068739,265.076063 C197.253539,264.549823 197.018579,263.956263 196.543379,263.750343 C196.068619,263.544863 195.533579,263.804463 195.348339,264.330703" id="Fill-135" fill="#FEFFFE" mask="url(#mask-4)"></path> <path d="M203.194859,255.4307 C203.019739,255.431571 202.843739,255.370851 202.702939,255.245891 C200.901579,253.656611 197.494659,253.236411 194.774579,254.269971 C194.399699,254.417371 193.969379,254.223331 193.824179,253.842731 C193.679419,253.462571 193.870379,253.036211 194.251419,252.891891 C197.493339,251.659891 201.460819,252.183051 203.677979,254.141931 C203.982899,254.411211 204.011499,254.876291 203.742219,255.181211 C203.598339,255.345331 203.397699,255.429371 203.194859,255.4307" id="Fill-136" fill="#AD3E17" mask="url(#mask-4)"></path> <path d="M169.434319,256.068706 C169.231919,256.070011 169.029959,255.989051 168.883879,255.826691 C168.610639,255.525291 168.633519,255.058891 168.934479,254.786531 C171.126119,252.799051 175.084799,252.220451 178.344319,253.409331 C178.727119,253.548811 178.923359,253.972971 178.784319,254.354451 C178.644839,254.737251 178.220239,254.936131 177.839199,254.794451 C175.106799,253.796971 171.705599,254.262931 169.924039,255.877291 C169.784999,256.004011 169.609879,256.067811 169.434319,256.068706" id="Fill-137" fill="#AD3E17" mask="url(#mask-4)"></path> <path d="M184.827015,279.721374 C186.311575,279.721374 187.734975,278.422494 188.332935,276.497935 C188.397175,276.290255 188.281455,276.069815 188.073775,276.004695 C187.870495,275.939575 187.646975,276.056175 187.582735,276.263415 C187.069695,277.915614 185.881255,278.992294 184.706455,278.930694 C183.685215,278.859854 182.948215,277.898454 182.684655,276.292455 C182.648135,276.077735 182.439135,275.935615 182.233655,275.968175 C182.018935,276.002495 181.874175,276.205775 181.909815,276.419175 C182.232335,278.385974 183.257975,279.617974 184.652775,279.715654 C184.710855,279.719614 184.768495,279.721374 184.827015,279.721374" id="Fill-138" fill="#7F5246" mask="url(#mask-4)"></path> <path d="M187.619123,271.903015 C187.494163,271.903895 187.383723,271.814575 187.361283,271.687415 C187.205523,270.784095 186.487003,270.204615 185.530443,270.211215 C184.568603,270.217375 183.841283,270.818415 183.720283,271.705895 C183.700483,271.848015 183.568923,271.948335 183.427683,271.928535 C183.284683,271.909175 183.185683,271.778055 183.205043,271.635495 C183.359483,270.498975 184.314723,269.698615 185.526923,269.690695 C186.732083,269.682775 187.675443,270.449255 187.874323,271.598535 C187.898523,271.740215 187.803483,271.874855 187.662243,271.899055 L187.619123,271.903015 Z" id="Fill-139" fill="#C68C75" mask="url(#mask-4)"></path> <path d="M149.140199,255.524367 C149.401559,255.522607 149.656319,255.497527 149.907559,255.462327 C148.888519,256.626127 148.673359,258.170087 149.498359,259.287687 C150.531479,260.685127 152.797919,260.884007 154.560559,259.731647 C156.323199,258.579287 156.915439,256.512167 155.882759,255.114287 C155.260599,254.272567 154.190959,253.869087 153.052679,253.930687 C153.997799,253.000087 154.576839,251.739047 154.568039,250.351287 C154.566719,250.191127 154.555719,250.032727 154.538999,249.875647 C156.787839,249.522327 158.853199,247.910167 159.742879,245.541207 C160.442039,243.679127 160.265599,241.750167 159.422119,240.233047 C160.314879,240.638287 161.271879,240.846847 162.220959,240.835407 C162.357799,241.679767 162.664479,242.527207 163.162119,243.325807 C165.051919,246.357407 168.906759,247.533527 171.772039,245.953047 C173.472199,245.015407 174.434479,243.316567 174.547559,241.457567 C174.759199,242.007127 175.026279,242.549647 175.354519,243.076767 C177.912239,247.179767 183.094559,248.790607 186.929599,246.675527 C187.142999,246.557607 187.344959,246.427367 187.540759,246.292287 C187.798599,248.098927 189.520759,249.489327 191.600199,249.475247 C192.752119,249.467327 193.787439,249.029087 194.523119,248.333447 C194.520479,248.437727 194.510799,248.540247 194.511679,248.645847 C194.536319,252.325567 196.624999,255.427127 199.488519,256.482247 C199.375879,257.797847 200.093959,259.307047 201.492719,260.387687 C203.520239,261.953647 206.206879,262.028447 207.495199,260.554887 C207.784279,260.223567 207.973919,259.841207 208.077759,259.431567 C208.569239,259.634847 209.109999,259.746167 209.677159,259.742207 C211.925119,259.727247 213.736599,257.917087 213.721199,255.699927 C213.706239,253.482327 211.870999,251.697247 209.623039,251.712207 C209.084919,251.715727 208.573199,251.824407 208.104159,252.014927 C208.329439,251.435007 208.504559,250.822967 208.610599,250.181007 C209.116599,250.027447 209.610719,249.823727 210.083719,249.562367 C214.005439,247.399327 215.094439,242.293567 212.516919,238.158007 C211.189879,236.029727 209.149599,234.579927 206.947839,233.962167 C207.437119,233.354087 207.727079,232.607847 207.722239,231.800007 C207.708159,229.780407 205.874679,228.155487 203.626279,228.170887 C202.868159,228.175727 202.162839,228.369767 201.557399,228.698007 C201.221239,227.720767 200.764959,226.753207 200.181519,225.817327 C196.501799,219.913847 189.207919,217.505727 183.890959,220.438767 C182.040759,221.459127 180.675879,222.992527 179.834599,224.806207 C178.243119,223.309327 175.999559,222.377847 173.511359,222.395007 C171.404199,222.409087 169.477879,223.098127 167.981879,224.231127 C166.408439,222.297327 163.668999,221.022647 160.551599,221.043767 C155.697079,221.076327 151.783279,224.229807 151.808799,228.087727 C151.816279,229.155167 152.133519,230.161007 152.678679,231.062127 C151.295319,231.903847 150.381879,233.367287 150.393319,235.030487 C150.395519,235.349927 150.432479,235.661887 150.498919,235.962847 C148.819879,235.468287 146.916879,235.771447 145.485559,236.931287 C143.282479,238.716367 143.033439,241.841247 144.930279,243.911007 C145.650999,244.698167 146.578959,245.217807 147.572479,245.463327 C145.290199,246.092087 143.627439,248.078247 143.643167,250.425207 C143.662199,253.261887 146.123559,255.544607 149.140199,255.524367" id="Fill-140" fill="#E25A24" mask="url(#mask-4)"></path> </g> </g> </g> </g> </g> </svg> 