<?xml version="1.0" encoding="UTF-8"?> <svg xmlns="http://www.w3.org/2000/svg" width="94" height="44" viewBox="0 0 94 44" fill="none"> <g clip-path="url(#clip0)"> <g filter="url(#filter0_d)"> <path fill-rule="evenodd" clip-rule="evenodd" d="M0 22C0 9.84974 9.84974 0 22 0H72C84.1503 0 94 9.84974 94 22C94 34.1503 84.1503 44 72 44H22C9.84973 44 0 34.1503 0 22Z" fill="white"></path> <path fill-rule="evenodd" clip-rule="evenodd" d="M0 22C0 9.84974 9.84974 0 22 0H72C84.1503 0 94 9.84974 94 22C94 34.1503 84.1503 44 72 44H22C9.84973 44 0 34.1503 0 22Z" fill="#0099FF"></path> </g> <path d="M23.3633 30H16.0273V27.8203H18.4883V19.125C18.3789 19.5078 18.1875 19.8477 17.9141 20.1445C17.6484 20.4414 17.3242 20.6914 16.9414 20.8945C16.5664 21.0898 16.1445 21.2422 15.6758 21.3516C15.2148 21.4531 14.7383 21.5039 14.2461 21.5039V19.0781C14.7773 19.0781 15.293 18.9922 15.793 18.8203C16.3008 18.6406 16.7539 18.3711 17.1523 18.0117C17.5508 17.6523 17.8711 17.2031 18.1133 16.6641C18.3633 16.1172 18.4883 15.4648 18.4883 14.707H20.9141V27.8203H23.3633V30ZM38.3867 24.8672C38.3867 25.6172 38.2344 26.3203 37.9297 26.9766C37.625 27.6328 37.2109 28.207 36.6875 28.6992C36.1719 29.1836 35.5742 29.5664 34.8945 29.8477C34.2148 30.1289 33.5 30.2695 32.75 30.2695C32.0156 30.2695 31.3359 30.1602 30.7109 29.9414C30.0859 29.7227 29.5352 29.4102 29.0586 29.0039C28.5898 28.5977 28.2109 28.0977 27.9219 27.5039C27.6328 26.9102 27.457 26.2305 27.3945 25.4648L29.7031 25.125C29.7812 26.0078 30.0664 26.7227 30.5586 27.2695C31.0586 27.8086 31.7891 28.0781 32.75 28.0781C33.2422 28.0781 33.6797 27.9961 34.0625 27.832C34.4531 27.6602 34.7812 27.4297 35.0469 27.1406C35.3203 26.8516 35.5273 26.5117 35.668 26.1211C35.8164 25.7305 35.8906 25.3125 35.8906 24.8672C35.8906 23.8438 35.625 23.0469 35.0938 22.4766C34.5703 21.9062 33.875 21.6211 33.0078 21.6211C32.4531 21.6211 31.9375 21.7383 31.4609 21.9727C30.9922 22.207 30.6211 22.5859 30.3477 23.1094H27.9219V14.707H37.4961V16.8984H30.3477V20.8594C31.0664 19.9141 32.1133 19.4414 33.4883 19.4414C34.1445 19.4414 34.7695 19.5703 35.3633 19.8281C35.957 20.0781 36.4766 20.4375 36.9219 20.9062C37.3672 21.3672 37.7227 21.9336 37.9883 22.6055C38.2539 23.2773 38.3867 24.0312 38.3867 24.8672ZM47.3867 22.0312H44.4336V19.0781H47.3867V22.0312ZM47.3867 30H44.4336V27.0469H47.3867V30ZM53.1641 22.3477C53.1641 21.3242 53.2734 20.3359 53.4922 19.3828C53.7109 18.4297 54.0508 17.5898 54.5117 16.8633C54.9727 16.1367 55.5742 15.5547 56.3164 15.1172C57.0664 14.6719 57.9688 14.4492 59.0234 14.4492C60.0781 14.4492 60.9766 14.6719 61.7188 15.1172C62.4688 15.5547 63.0781 16.1367 63.5469 16.8633C64.0156 17.5898 64.3555 18.4297 64.5664 19.3828C64.7773 20.3359 64.8828 21.3242 64.8828 22.3477C64.8828 23.3711 64.7773 24.3594 64.5664 25.3125C64.3555 26.2578 64.0195 27.1016 63.5586 27.8438C63.0977 28.5781 62.4922 29.168 61.7422 29.6133C61 30.0508 60.0938 30.2695 59.0234 30.2695C57.9531 30.2695 57.043 30.0508 56.293 29.6133C55.5508 29.168 54.9453 28.5781 54.4766 27.8438C54.0156 27.1016 53.6836 26.2578 53.4805 25.3125C53.2695 24.3594 53.1641 23.3711 53.1641 22.3477ZM55.5898 22.3477C55.5898 23.0664 55.6367 23.7617 55.7305 24.4336L61.7305 18.4102C61.4648 17.8789 61.1133 17.4492 60.6758 17.1211C60.2461 16.793 59.6953 16.6289 59.0234 16.6289C57.9062 16.6289 57.0547 17.1328 56.4688 18.1406C55.8828 19.1484 55.5898 20.5508 55.5898 22.3477ZM59.0234 28.0781C59.7109 28.0781 60.2734 27.9102 60.7109 27.5742C61.1562 27.2383 61.5039 26.8008 61.7539 26.2617C62.0117 25.7148 62.1914 25.0977 62.293 24.4102C62.4023 23.7227 62.457 23.0352 62.457 22.3477C62.457 21.6914 62.4102 21.0508 62.3164 20.4258L56.3633 26.4023C56.6289 26.9102 56.9688 27.3164 57.3828 27.6211C57.8047 27.9258 58.3516 28.0781 59.0234 28.0781ZM66.2656 22.3477C66.2656 21.3242 66.375 20.3359 66.5938 19.3828C66.8125 18.4297 67.1523 17.5898 67.6133 16.8633C68.0742 16.1367 68.6758 15.5547 69.418 15.1172C70.168 14.6719 71.0703 14.4492 72.125 14.4492C73.1797 14.4492 74.0781 14.6719 74.8203 15.1172C75.5703 15.5547 76.1797 16.1367 76.6484 16.8633C77.1172 17.5898 77.457 18.4297 77.668 19.3828C77.8789 20.3359 77.9844 21.3242 77.9844 22.3477C77.9844 23.3711 77.8789 24.3594 77.668 25.3125C77.457 26.2578 77.1211 27.1016 76.6602 27.8438C76.1992 28.5781 75.5938 29.168 74.8438 29.6133C74.1016 30.0508 73.1953 30.2695 72.125 30.2695C71.0547 30.2695 70.1445 30.0508 69.3945 29.6133C68.6523 29.168 68.0469 28.5781 67.5781 27.8438C67.1172 27.1016 66.7852 26.2578 66.582 25.3125C66.3711 24.3594 66.2656 23.3711 66.2656 22.3477ZM68.6914 22.3477C68.6914 23.0664 68.7383 23.7617 68.832 24.4336L74.832 18.4102C74.5664 17.8789 74.2148 17.4492 73.7773 17.1211C73.3477 16.793 72.7969 16.6289 72.125 16.6289C71.0078 16.6289 70.1562 17.1328 69.5703 18.1406C68.9844 19.1484 68.6914 20.5508 68.6914 22.3477ZM72.125 28.0781C72.8125 28.0781 73.375 27.9102 73.8125 27.5742C74.2578 27.2383 74.6055 26.8008 74.8555 26.2617C75.1133 25.7148 75.293 25.0977 75.3945 24.4102C75.5039 23.7227 75.5586 23.0352 75.5586 22.3477C75.5586 21.6914 75.5117 21.0508 75.418 20.4258L69.4648 26.4023C69.7305 26.9102 70.0703 27.3164 70.4844 27.6211C70.9062 27.9258 71.4531 28.0781 72.125 28.0781Z" fill="white"></path> </g> <defs> <filter id="filter0_d" x="-5" y="-3" width="104" height="54" filterUnits="userSpaceOnUse" color-interpolation-filters="sRGB"> <feFlood flood-opacity="0" result="BackgroundImageFix"></feFlood> <feColorMatrix in="SourceAlpha" type="matrix" values="0 0 0 0 0 0 0 0 0 0 0 0 0 0 0 0 0 0 127 0"></feColorMatrix> <feOffset dy="2"></feOffset> <feGaussianBlur stdDeviation="2.5"></feGaussianBlur> <feColorMatrix type="matrix" values="0 0 0 0 0 0 0 0 0 0 0 0 0 0 0 0 0 0 0.124945 0"></feColorMatrix> <feBlend mode="normal" in2="BackgroundImageFix" result="effect1_dropShadow"></feBlend> <feBlend mode="normal" in="SourceGraphic" in2="effect1_dropShadow" result="shape"></feBlend> </filter> <clipPath id="clip0"> <rect width="94" height="44" fill="white"></rect> </clipPath> </defs> </svg> 