<?xml version="1.0" encoding="UTF-8"?> <svg xmlns="http://www.w3.org/2000/svg" xmlns:xlink="http://www.w3.org/1999/xlink" width="456px" height="438px" viewBox="0 0 456 438"> <!-- Generator: Sketch 57.1 (83088) - https://sketch.com --> <title>Group 23</title> <desc>Created with Sketch.</desc> <defs> <polygon id="path-1" points="0 0.193590304 92.8530833 0.193590304 92.8530833 205.691112 0 205.691112"></polygon> <polygon id="path-3" points="0 437.886 455.29272 437.886 455.29272 0.00108 0 0.00108"></polygon> </defs> <g id="Page-1" stroke="none" stroke-width="1" fill="none" fill-rule="evenodd"> <g id="masha-copy" transform="translate(-633.000000, -6937.000000)"> <g id="Group-18-Copy-6" transform="translate(206.000000, 6937.000000)"> <g id="Group-23" transform="translate(427.000000, 0.000000)"> <polygon id="Rectangle" fill="#97C4DE" points="3.50344753e-14 415 449.422248 415 449.422248 421 3.50344753e-14 421"></polygon> <g id="Group-92"> <path d="M113.501844,274.577112 C113.501844,274.577112 115.723404,235.031472 122.388444,215.036712 C129.053124,195.041952 116.612244,177.268752 126.831564,159.495552 C137.051244,141.722352 144.160524,134.613072 144.604764,102.621672 C145.049364,70.629552 166.377204,59.521392 159.711804,35.527752 C153.047124,11.533752 113.501844,25.308072 97.061724,66.186432 C80.621604,107.064432 76.178124,210.148992 85.064724,274.577112 L113.501844,274.577112 Z" id="Fill-1" fill="#51846F"></path> <path d="M136.064052,91.621872 C127.932372,97.705152 119.204892,102.848472 109.956852,107.032032 C111.075732,102.478392 112.318092,97.957872 113.757732,93.494952 C115.763292,87.277392 118.173492,81.185472 121.096332,75.373632 C121.344012,75.205512 121.509612,74.934432 121.486932,74.590272 C125.446212,66.875832 130.338612,59.677632 136.453212,53.380512 C137.349972,52.457112 135.938052,51.041592 135.039492,51.967152 C129.244212,57.934512 124.567812,64.618632 120.722292,71.762832 C119.453292,66.730752 119.043252,61.624872 119.492892,56.398032 C119.603052,55.116072 117.603252,55.123632 117.493452,56.398032 C116.967492,62.512632 117.602532,68.496192 119.366892,74.359512 C111.465252,90.064512 107.324892,107.795952 104.125572,125.003592 C102.954132,131.305392 101.892132,137.628072 100.932012,143.965872 C96.549012,138.642912 93.780612,132.363072 92.740572,125.485992 C92.549052,124.218072 90.621972,124.756992 90.812412,126.017712 C91.983492,133.758792 95.336532,140.766192 100.546452,146.578392 C96.880212,171.552312 94.848732,196.768512 94.481892,222.005952 C94.211892,240.607872 94.863492,259.211592 96.378372,277.753032 C96.482412,279.026712 98.482572,279.037872 98.377812,277.753032 C97.387452,265.630752 96.775452,253.481112 96.542892,241.325352 C96.783012,241.419312 97.065972,241.410312 97.356492,241.226712 C102.446892,238.011192 106.980732,234.100872 110.888532,229.518072 C111.719052,228.543912 110.311452,227.123352 109.475172,228.103992 C105.717852,232.510032 101.398212,236.281752 96.514092,239.390712 C96.210612,220.190112 96.850332,200.976912 98.467812,181.833912 C98.580852,180.498672 98.715852,179.165592 98.837892,177.831432 C98.859852,177.826392 98.880732,177.826392 98.903052,177.819912 C105.068412,176.123232 110.497932,172.852992 114.869412,168.184152 C115.748172,167.244912 114.336972,165.828312 113.455692,166.770072 C109.470492,171.025992 104.601492,174.028392 99.036252,175.684752 C99.969732,165.898512 101.141532,156.135672 102.577572,146.410272 C102.584052,146.374632 102.590892,146.338632 102.593052,146.301912 C103.208292,142.140672 103.867092,137.985912 104.574492,133.839432 C105.974532,125.631792 107.494452,117.415152 109.406772,109.298592 C109.584972,109.321992 109.776132,109.302192 109.971972,109.215432 C119.591532,104.953752 128.648772,99.650952 137.073492,93.348072 C138.091572,92.586672 137.095812,90.849672 136.064052,91.621872" id="Fill-3" fill="#5E9B84"></path> <path d="M105.837084,274.577112 C105.837084,274.577112 96.504084,239.946912 110.169324,224.589672 C123.834564,209.232792 129.497724,183.600432 149.825484,173.936232 C170.153604,164.272392 183.817044,169.603992 185.483124,180.934632 C187.149564,192.264912 179.508204,207.261072 161.000964,209.926872 C142.494444,212.593032 152.158644,230.921352 136.829124,239.586192 C121.499964,248.250312 120.785724,274.577112 120.785724,274.577112 L105.837084,274.577112 Z" id="Fill-5" fill="#5E9B84"></path> <path d="M167.944464,191.820708 C163.624104,191.862468 159.386184,191.414988 155.189664,190.471788 C158.973624,188.290908 162.923184,186.386868 167.012424,184.810428 C168.200784,184.352508 167.684544,182.418588 166.481064,182.882628 C162.617544,184.371948 158.878584,186.146388 155.277144,188.155188 C155.778624,186.233148 156.280464,184.310748 156.781944,182.388348 C157.107024,181.142388 155.178864,180.610668 154.853784,181.856628 L152.844624,189.557388 C140.814144,196.777908 130.546584,206.825508 123.251544,218.916468 C119.132424,225.743148 116.063784,233.110188 114.030144,240.745788 C113.483304,239.654628 113.115744,238.476708 112.958784,237.253428 C112.797144,235.994508 110.795544,235.978308 110.959344,237.253428 C111.241224,239.448708 111.982104,241.418988 113.199264,243.206028 C113.154624,243.398268 113.180544,243.604548 113.268384,243.795348 C110.566224,255.659148 110.351664,268.083468 112.683024,280.103508 C112.927824,281.364948 114.855264,280.831068 114.611544,279.571788 C112.344264,267.884388 112.571064,255.788748 115.208064,244.239588 C115.261704,244.188828 115.312104,244.133028 115.356024,244.071828 C119.744784,242.063028 123.737544,239.420268 127.318464,236.171628 C128.273904,235.305468 126.856584,233.894988 125.905104,234.758268 C122.858784,237.520548 119.494944,239.802228 115.843824,241.631748 C117.835704,234.029988 120.884184,226.700748 124.977744,219.925548 C126.980064,216.611748 129.218904,213.458148 131.654304,210.470868 C131.814864,210.669588 132.061824,210.803148 132.400944,210.793068 C136.696824,210.669588 140.992704,210.546828 145.288584,210.423348 C146.572344,210.386268 146.577384,208.386828 145.288584,208.423908 C141.218064,208.540548 137.147544,208.657548 133.076664,208.774188 C138.740904,202.191948 145.407024,196.497828 152.785584,191.918268 C152.854344,191.953908 152.930304,191.984868 153.015984,192.007188 C157.920984,193.264668 162.880344,193.869108 167.944464,193.820148 C169.230384,193.807548 169.233624,191.808108 167.944464,191.820708" id="Fill-7" fill="#51846F"></path> <g id="Group-11" transform="translate(0.000000, 68.886000)"> <mask id="mask-2" fill="white"> <use xlink:href="#path-1"></use> </mask> <g id="Clip-10"></g> <path d="M91.507392,205.691112 C91.507392,205.691112 88.841592,193.027392 91.507392,177.364872 C94.173552,161.702352 92.840472,148.372272 87.841512,134.375832 C82.843272,120.379392 87.508872,95.386392 79.177392,76.057632 C70.845912,56.729592 59.182632,54.730152 56.516832,40.400352 C53.850312,26.070912 33.189192,-4.254768 10.861632,0.743832 C-11.465928,5.742792 6.529392,28.069992 12.861072,33.402312 C19.192752,38.733912 22.192272,47.065392 20.859192,71.725752 C19.526112,96.385752 42.001632,103.050792 46.426392,118.046952 C50.851152,133.043112 47.851992,147.039552 52.850952,159.036192 C57.849552,171.033192 78.177672,183.363192 75.511512,205.691112 L91.507392,205.691112 Z" id="Fill-9" fill="#5E9B84" mask="url(#mask-2)"></path> </g> <path d="M77.981364,213.35814 C78.478884,212.9373 78.616044,212.12766 77.869404,211.80222 C77.816124,211.77882 77.765004,211.75218 77.711724,211.72878 C75.672324,199.70046 73.092924,187.79634 69.752124,176.1399 C69.833484,176.04882 69.904404,175.94154 69.955164,175.81014 C73.217484,167.3487 74.014884,158.3901 72.401724,149.47146 C72.173124,148.20714 70.246044,148.74318 70.473924,150.00318 C71.879004,157.77126 71.289324,165.56526 68.833764,173.00322 C63.226764,154.29582 55.594044,136.2591 44.991324,119.41794 C43.580844,117.17766 42.103764,114.98166 40.594284,112.80906 C40.513644,104.23962 38.472084,95.99886 34.564284,88.3719 C33.978204,87.22638 32.252364,88.23654 32.838444,89.38098 C36.130644,95.80734 38.019924,102.6783 38.483604,109.82322 C32.344164,101.37582 25.444044,93.49542 17.778564,86.3793 C16.836084,85.50486 15.418764,86.9157 16.364124,87.79302 C32.423004,102.6999 44.589204,120.41298 53.826444,139.67442 C45.403164,138.53574 37.271124,136.10898 29.597004,132.42582 C28.442484,131.87142 27.426564,133.5951 28.587564,134.15202 C36.903204,138.14298 45.681444,140.69538 54.831564,141.81498 C64.922364,163.48374 71.381484,187.03422 75.548484,210.72078 C69.356124,207.69066 63.840924,203.6295 59.096484,198.56358 C58.214844,197.62218 56.802924,199.03842 57.682404,199.9773 C62.893044,205.54074 69.040044,209.95146 75.961764,213.10974 C77.027364,219.40074 77.942844,225.69678 78.714684,231.96654 C80.735004,248.37318 81.978084,264.86118 83.055564,281.35242 C83.138724,282.63006 85.138884,282.63906 85.054644,281.35242 C83.582244,258.81606 81.707364,235.88082 77.981364,213.35814" id="Fill-12" fill="#51846F"></path> <mask id="mask-4" fill="white"> <use xlink:href="#path-3"></use> </mask> <g id="Clip-15"></g> <polygon id="Fill-14" fill="#F4F2F2" mask="url(#mask-4)" points="56.19492 413.72784 139.7286 413.72784 139.7286 268.35588 56.19492 268.35588"></polygon> <path d="M131.839704,274.133808 C108.848304,274.765608 85.845744,274.794048 62.852904,274.219848 C61.565904,274.187808 61.566624,276.187248 62.852904,276.219288 C85.845744,276.793848 108.848304,276.765048 131.839704,276.133608 C133.123464,276.097968 133.128864,274.098528 131.839704,274.133808" id="Fill-16" fill="#D1D3D4" mask="url(#mask-4)"></path> <path d="M130.845816,280.60992 C108.319896,282.24144 85.718016,282.23064 63.193896,280.57716 C61.910136,280.48248 61.915896,282.48264 63.193896,282.5766 C85.718016,284.23044 108.319896,284.24124 130.845816,282.60936 C132.121296,282.51684 132.131376,280.51668 130.845816,280.60992" id="Fill-17" fill="#D1D3D4" mask="url(#mask-4)"></path> <path d="M131.836896,287.979732 C109.404576,288.474732 86.971896,288.969372 64.539576,289.464372 C63.254376,289.492812 63.249696,291.492612 64.539576,291.464172 C86.971896,290.969172 109.404576,290.474172 131.836896,289.979172 C133.121736,289.950732 133.126416,287.951292 131.836896,287.979732" id="Fill-18" fill="#D1D3D4" mask="url(#mask-4)"></path> <path d="M229.595868,412.960212 L332.467668,412.960212 L334.548468,309.889692 C334.620828,307.431972 333.708228,305.097732 331.979508,303.317532 C330.201468,301.485852 327.802068,300.477132 325.224108,300.477132 L269.781948,300.477132 C266.002668,300.477132 262.621548,302.688972 261.168948,306.112572 L229.595868,412.960212 Z M333.762588,415.626372 L227.582748,415.626372 C227.135628,415.626372 226.718388,415.402092 226.471068,415.029132 C226.224468,414.656532 226.180908,414.184572 226.355868,413.773092 L258.715548,305.071812 C260.585748,300.661092 264.930228,297.811332 269.781948,297.811332 L325.224108,297.811332 C328.528908,297.811332 331.607268,299.106972 333.892548,301.459932 C336.127428,303.762132 337.306788,306.783612 337.213188,309.968172 L335.094588,414.332892 C335.073708,415.052892 334.483308,415.626372 333.762588,415.626372 L333.762588,415.626372 Z" id="Fill-19" fill="#27242D" mask="url(#mask-4)"></path> <path d="M319.725576,412.960212 L422.597376,412.960212 L391.024296,306.112212 C389.571336,302.688972 386.190576,300.477132 382.411296,300.477132 L326.969136,300.477132 C324.390816,300.477132 321.991776,301.485852 320.213376,303.317532 C318.485016,305.097732 317.572776,307.431972 317.644776,309.889692 L319.725576,412.960212 Z M424.610496,415.626372 L318.430656,415.626372 C317.709576,415.626372 317.119536,415.052892 317.098656,414.332892 L314.979696,309.968532 C314.886456,306.783612 316.065456,303.762132 318.300696,301.459932 C320.585976,299.106972 323.663616,297.811332 326.969136,297.811332 L382.411296,297.811332 C387.263016,297.811332 391.607496,300.661092 393.477696,305.071452 L425.837376,413.773092 C426.012336,414.184572 425.968776,414.656532 425.722176,415.029132 C425.474856,415.402092 425.057616,415.626372 424.610496,415.626372 L424.610496,415.626372 Z" id="Fill-20" fill="#27242D" mask="url(#mask-4)"></path> <path d="M234.23472,209.058516 L272.18232,209.058516 L431.63964,209.058516 C445.13568,209.058516 454.50792,222.496596 449.84484,235.161396 L432.48276,282.317796 C429.07392,291.576636 420.25392,297.727956 410.38776,297.727956 L242.41212,297.727956 L234.23472,209.058516 Z" id="Fill-21" fill="#CEB291" mask="url(#mask-4)"></path> <path d="M412.1064,110.901564 C412.1064,110.901564 452.13552,119.829204 454.80168,137.075004 C457.46784,154.320444 448.72812,181.494684 441.76752,211.896324 C411.70176,237.410244 393.92856,211.896324 393.92856,211.896324 L412.1064,110.901564 Z" id="Fill-22" fill="#CEB291" mask="url(#mask-4)"></path> <path d="M390.04056,229.232232 L390.04056,242.741952 C390.04056,266.735952 377.04384,297.727992 355.716,297.727992 L242.41212,297.727992 C223.75044,297.727992 210.08736,268.735392 210.08736,244.408392 L210.08736,229.232232 C210.08736,218.090232 219.11976,209.057472 230.26212,209.057472 L234.23436,209.057472 C238.75092,209.057472 242.41212,212.719032 242.41212,217.235592 L242.41212,259.071552 L339.83028,259.071552 C345.41244,259.071552 349.93764,254.545992 349.93764,248.964192 L349.93764,217.235592 C349.93764,212.719032 353.59884,209.057472 358.1154,209.057472 L369.8658,209.057472 C381.00816,209.057472 390.04056,218.090232 390.04056,229.232232" id="Fill-23" fill="#EBCFA8" mask="url(#mask-4)"></path> <path d="M272.182392,209.058516 L295.159392,127.331316 C298.059912,117.015516 307.468152,109.887516 318.183912,109.887516 L405.168912,109.887516 C420.695712,109.887516 432.106272,124.451676 428.391432,139.527396 L411.257232,209.058516 L272.182392,209.058516 Z" id="Fill-24" fill="#EBCFA8" mask="url(#mask-4)"></path> <path d="M437.017068,210.317112 C432.725868,208.638432 428.291748,208.027152 423.705708,208.480032 C422.437068,208.605672 422.424108,210.606552 423.705708,210.479472 C428.118228,210.043512 432.357588,210.630312 436.485348,212.244912 C437.684508,212.714352 438.203988,210.781512 437.017068,210.317112" id="Fill-26" fill="#CEB291" mask="url(#mask-4)"></path> <path d="M374.869944,234.697608 C373.587264,233.256888 372.178584,231.981768 370.667304,230.852448 C371.757024,229.853808 372.846384,228.855168 373.936464,227.856168 C374.887224,226.984968 373.469904,225.573768 372.522384,226.442448 C371.342304,227.523888 370.162224,228.605688 368.982504,229.687488 C367.354944,228.646368 365.623704,227.757888 363.785544,227.041128 C362.585664,226.574208 362.066184,228.506688 363.253824,228.969648 C364.736304,229.547088 366.144624,230.250168 367.473744,231.069888 C366.105024,232.324488 364.736304,233.579448 363.367224,234.834048 C362.416464,235.705608 363.833784,237.116448 364.781304,236.248128 C366.244704,234.906408 367.708464,233.565048 369.172224,232.223328 C370.722384,233.355888 372.156624,234.651888 373.455864,236.111688 C374.313384,237.074688 375.723504,235.656288 374.869944,234.697608" id="Fill-27" fill="#CEB291" mask="url(#mask-4)"></path> <path d="M324.980064,11.007576 C327.091104,8.361216 328.729104,5.337576 331.916904,3.956976 C335.104344,2.576376 338.648904,2.169216 342.131904,1.987056 C348.535224,1.652976 355.185864,2.076696 360.819504,4.857696 C369.330264,9.059256 374.148144,18.079776 375.354144,27.103176 C377.619984,44.057736 394.361064,77.599296 387.353664,82.061856 C380.345904,86.524416 335.728944,90.790416 327.330864,87.105456 C315.712224,82.007136 325.732104,38.916216 322.123464,27.309456 C322.123464,27.309456 321.650424,15.182136 324.980064,11.007576" id="Fill-28" fill="#A3262A" mask="url(#mask-4)"></path> <polygon id="Fill-29" fill="#FFA07F" mask="url(#mask-4)" points="364.890132 85.196736 345.391092 88.012656 340.196652 52.042176 359.695332 49.226616"></polygon> <path d="M359.6652,49.015332 L340.16616,51.831252 L342.05076,64.882692 C345.10752,68.028732 348.88896,69.851052 352.70676,69.315732 C356.48532,68.743692 359.54856,65.972772 361.56168,62.148492 L359.6652,49.015332 Z" id="Fill-30" fill="#FA704E" mask="url(#mask-4)"></path> <path d="M329.944824,17.627472 C329.106024,19.878552 328.782744,22.174632 329.327064,24.514632 C330.333984,28.843992 332.059464,35.509032 332.347464,37.502712 C332.635464,39.496392 332.666784,43.673112 332.162784,48.524832 C332.029224,49.812912 331.611984,51.125472 332.005824,52.359192 C332.315064,53.327592 333.003384,54.121032 333.674064,54.884952 C333.941904,55.189512 334.209024,55.493712 334.476504,55.797912 C336.683304,57.986352 338.923584,60.206112 341.633664,61.729272 C344.330064,63.244872 347.596344,64.011312 350.555544,63.109872 C353.276064,62.281152 365.046624,53.271072 366.044904,47.309832 C367.102944,40.995072 366.772104,37.049472 366.003144,31.725432 C365.234544,26.401752 363.308184,14.736672 359.913384,12.198672 C356.518584,9.660672 332.410824,11.009232 329.944824,17.627472" id="Fill-31" fill="#FFA07F" mask="url(#mask-4)"></path> <path d="M366.194772,42.360948 C366.194772,42.360948 369.912492,39.458628 370.494252,37.842948 C370.857492,36.834948 372.271572,31.372668 371.791692,28.049508 C371.311812,24.726708 365.979852,27.323388 364.284612,29.133828 L366.194772,42.360948 Z" id="Fill-32" fill="#FFA07F" mask="url(#mask-4)"></path> <path d="M368.47008,36.481068 C368.44056,36.485748 368.40924,36.482508 368.38044,36.471348 C368.30232,36.440388 368.271,36.359748 368.31024,36.291348 C369.48996,34.215588 369.9864,31.834548 369.70776,29.585628 C369.66348,29.227068 369.58428,28.867068 369.30744,28.658628 C368.94672,28.388268 368.3574,28.471068 367.9614,28.693908 C367.51356,28.945548 367.19316,29.365308 366.91056,29.735748 C366.86196,29.799828 366.76368,29.819628 366.69168,29.780388 C366.61968,29.740428 366.60096,29.656908 366.64956,29.592468 C366.95016,29.198628 367.29108,28.751868 367.79796,28.467108 C368.29404,28.188468 369.045,28.092348 369.5202,28.449828 C369.87408,28.716228 369.9702,29.133468 370.02132,29.544948 C370.30644,31.844628 369.79848,34.280388 368.59212,36.402588 C368.56764,36.445788 368.52084,36.473868 368.47008,36.481068" id="Fill-33" fill="#BD6142" mask="url(#mask-4)"></path> <path d="M354.209652,31.105332 C352.262052,29.438892 349.806852,29.109132 347.307732,28.997892 C346.898772,28.982052 347.012892,28.077732 347.414292,27.692172 C347.815332,27.306972 348.399972,27.004932 348.707412,27.044532 C350.673012,27.274212 352.469772,28.148292 353.933532,29.583972 C354.161772,29.810052 354.437532,30.373452 354.559212,30.815172 C354.680532,31.258332 354.529692,31.376412 354.209652,31.105332" id="Fill-34" fill="#1A1A1A" mask="url(#mask-4)"></path> <path d="M330.519276,34.255332 C332.305236,32.416812 334.720116,31.862772 337.197996,31.521852 C337.603716,31.468572 337.407156,30.578292 336.971556,30.231252 C336.536676,29.884572 335.926836,29.637972 335.624436,29.705292 C333.688356,30.115332 331.979796,31.151052 330.653916,32.715252 C330.447996,32.961492 330.225156,33.547572 330.144876,33.999012 C330.064596,34.450812 330.225876,34.554492 330.519276,34.255332" id="Fill-35" fill="#1A1A1A" mask="url(#mask-4)"></path> <path d="M337.08996,40.55886 L336.67596,40.61862 C336.15,40.69458 335.65752,40.3263 335.58156,39.80034 L335.19492,37.12662 C335.11896,36.60066 335.4876,36.10782 336.01356,36.03186 L336.42756,35.9721 C336.95352,35.89614 337.44636,36.26442 337.52232,36.79038 L337.90824,39.4641 C337.9842,39.99006 337.61592,40.4829 337.08996,40.55886" id="Fill-36" fill="#1A1A1A" mask="url(#mask-4)"></path> <path d="M350.618796,38.754288 L350.204796,38.814048 C349.678476,38.890008 349.185996,38.521728 349.110036,37.995768 L348.723756,35.322048 C348.647796,34.796088 349.016076,34.303608 349.542396,34.227288 L349.956036,34.167528 C350.482356,34.091568 350.974836,34.459848 351.050796,34.985808 L351.436716,37.659528 C351.513036,38.185488 351.144756,38.678328 350.618796,38.754288" id="Fill-37" fill="#1A1A1A" mask="url(#mask-4)"></path> <path d="M345.547512,46.596924 C344.626272,47.149524 342.807912,48.240684 342.807912,48.240684 C342.686592,48.313764 342.555192,48.359124 342.421632,48.377844 C342.087912,48.426444 341.738712,48.311244 341.500032,48.051324 L339.876792,46.282284 C339.510672,45.883764 339.504192,45.279684 339.861312,44.877564 C340.336152,44.342964 341.214912,43.126524 341.762472,40.982364 C342.689472,37.353564 340.229952,34.181604 340.204752,34.149924 C340.082712,33.995124 340.108992,33.770844 340.263072,33.648804 C340.417872,33.526764 340.641792,33.552684 340.764192,33.706764 C340.824672,33.783084 342.307512,34.778484 342.908712,36.317484 C343.266552,37.233684 343.078632,41.234364 342.321912,44.385084 C341.998992,45.731484 343.469232,46.491444 343.914192,46.427004 C344.359152,46.362924 345.547512,46.596924 345.547512,46.596924" id="Fill-38" fill="#DB7D63" mask="url(#mask-4)"></path> <path d="M342.421776,48.377952 C342.555336,48.358872 342.686376,48.313512 342.807696,48.240792 L346.068936,46.284552 C346.237776,46.182672 346.292496,45.963792 346.191336,45.794592 C346.089816,45.625752 345.870576,45.570672 345.701736,45.672192 L342.440496,47.629152 C342.305856,47.709792 342.131616,47.684232 342.025416,47.568672 L340.402536,45.799992 C340.284816,45.671472 340.281576,45.478512 340.394616,45.351432 C340.913016,44.768952 341.868816,43.449552 342.453816,41.159232 C343.469736,37.181232 340.875216,33.846912 340.764336,33.706872 C340.641936,33.552432 340.418016,33.526872 340.263216,33.648912 C340.108776,33.770952 340.082856,33.995232 340.204896,34.150032 C340.229736,34.181352 342.689256,37.353672 341.762616,40.982472 C341.214696,43.126632 340.336296,44.343072 339.861456,44.877312 C339.504336,45.279792 339.510816,45.883512 339.876936,46.282392 L341.499816,48.051432 C341.738856,48.310992 342.087696,48.426552 342.421776,48.377952" id="Fill-39" fill="#BD6142" mask="url(#mask-4)"></path> <path d="M354.79818,41.342148 C354.87378,41.866668 353.42514,42.509628 351.5625,42.778548 C349.6995,43.047468 348.12774,42.840828 348.05214,42.316308 C347.97654,41.792148 349.42518,41.149188 351.28818,40.879908 C353.15082,40.610988 354.72258,40.817988 354.79818,41.342148" id="Fill-40" fill="#ED766D" mask="url(#mask-4)"></path> <path d="M338.69556,43.667712 C338.77116,44.191872 337.64508,44.788392 336.1806,45.000072 C334.7154,45.211392 333.46692,44.957952 333.39132,44.433792 C333.31536,43.909272 334.44144,43.312752 335.90628,43.101432 C337.37076,42.889752 338.6196,43.143192 338.69556,43.667712" id="Fill-41" fill="#ED766D" mask="url(#mask-4)"></path> <path d="M350.39484,48.316068 L341.3844,49.617468 C340.39512,49.760388 339.76908,50.546628 340.09128,51.231348 C341.20332,53.595828 343.57788,56.490588 346.91004,56.009268 C350.2422,55.528308 351.69408,52.080588 352.09188,49.498308 C352.20708,48.750588 351.38412,48.173508 350.39484,48.316068" id="Fill-42" fill="#BF3939" mask="url(#mask-4)"></path> <path d="M350.39484,48.316068 C350.39484,48.316068 350.16192,50.749308 346.22928,51.317028 C342.29628,51.885108 341.76492,49.562388 341.76492,49.562388 L350.39484,48.316068 Z" id="Fill-43" fill="#FFFFFF" mask="url(#mask-4)"></path> <path d="M343.354104,54.651924 C343.500264,55.664244 345.050424,56.278044 346.816584,56.023164 C348.582384,55.767924 349.895664,54.740484 349.749864,53.728524 C349.603344,52.715844 348.053184,52.102044 346.287024,52.357284 C344.520864,52.612164 343.207944,53.639244 343.354104,54.651924" id="Fill-44" fill="#E36C6C" mask="url(#mask-4)"></path> <path d="M314.167752,25.991856 C315.893592,31.813056 320.155992,36.826056 325.545192,39.668976 C323.718912,36.734256 323.822232,32.694336 325.570032,29.653776 C327.559752,26.192016 331.336872,23.994936 335.264112,23.272056 C338.411952,22.692816 341.699112,22.959936 344.778912,22.088376 C347.523912,21.311856 351.929592,16.885656 352.721232,13.669776 C352.060272,13.722336 351.357552,13.560336 350.782272,13.230936 C349.614792,12.561696 348.835752,11.397456 348.048432,10.306296 C345.852792,7.261416 343.213632,4.438656 339.896592,2.680056 C333.694152,-0.607824 325.557072,0.483696 320.190912,5.009976 C314.824752,9.536256 312.369912,17.122176 313.687152,24.017976 C313.814592,24.684696 313.975512,25.343136 314.167752,25.991856" id="Fill-45" fill="#A3262A" mask="url(#mask-4)"></path> <path d="M323.899704,28.399716 C323.467704,30.537036 323.550144,33.057396 324.233784,35.371116 C324.122544,33.399396 324.584784,31.367916 325.570104,29.653596 C327.559824,26.191836 331.336944,23.995116 335.263824,23.272236 C338.412024,22.692636 341.698824,22.960116 344.778984,22.088556 C345.714624,21.823956 346.842504,21.134916 347.954544,20.215476 C347.361624,20.235276 346.767264,20.211156 346.183344,20.151756 C338.014584,19.319076 325.856664,18.727596 323.899704,28.399716" id="Fill-46" fill="#7A1C20" mask="url(#mask-4)"></path> <path d="M373.789944,53.21862 C373.647024,52.2369 373.426704,51.26706 373.137624,50.32854 C371.708064,45.68814 368.796744,41.65974 365.743944,37.8837 C361.365264,32.46678 356.591664,27.36918 351.473544,22.64454 C349.773264,21.0753 347.996304,19.49706 346.941864,17.4375 C345.887784,15.37794 345.717864,12.6801 347.173704,10.88118 C348.125904,9.7047 350.340984,9.17226 352.073304,9.51174 C360.796824,16.31538 367.650504,25.49322 371.696184,35.79066 C373.823064,41.2047 375.192864,47.0223 374.737824,52.82118 C374.610024,54.44658 374.327064,56.07126 373.887504,57.65022 C374.045904,56.18754 374.004504,54.68958 373.789944,53.21862" id="Fill-47" fill="#A3262A" mask="url(#mask-4)"></path> <path d="M368.411364,34.920504 C368.411364,34.920504 368.162964,16.677504 366.482484,11.035224 C364.802364,5.392944 351.868284,-1.393416 340.477164,0.251424 C329.086404,1.896624 323.518644,9.347184 326.016684,22.590864 C326.016684,22.590864 343.953684,4.249944 354.028284,14.045544 C364.102884,23.841144 368.411364,34.920504 368.411364,34.920504" id="Fill-48" fill="#A3262A" mask="url(#mask-4)"></path> <path d="M355.685868,7.786548 C355.721508,8.596548 355.450788,9.291348 355.015908,9.838908 C354.928788,9.788148 354.842028,9.736668 354.754908,9.685908 C353.193588,8.371908 351.472428,7.240788 349.751988,6.134148 C351.513828,5.175468 352.763388,3.516588 352.723788,1.289628 C353.023308,1.376748 353.318868,1.469268 353.612988,1.563948 C353.755548,3.753828 355.587948,5.544828 355.685868,7.786548" id="Fill-49" fill="#B55155" mask="url(#mask-4)"></path> <path d="M314.591724,13.177404 C318.859164,13.300164 323.301204,15.035004 327.583404,15.658884 C330.928884,15.938244 332.595324,11.629404 333.694044,8.673804 C334.933884,4.935204 340.343964,5.425524 343.584324,6.737004 C344.716164,7.082604 345.935124,7.157124 347.103684,6.990804 C349.093404,8.517204 351.296964,9.703404 353.460924,10.956204 C352.722204,11.231604 351.932364,11.255004 351.313524,10.960524 C346.969044,9.044964 342.197964,7.700004 337.822524,9.094644 C335.653164,9.916524 335.016324,12.551004 333.845604,15.008364 C332.888004,17.180604 330.184404,17.825364 327.657924,17.936244 C323.021124,17.893404 318.798324,14.674644 314.447724,13.596084 C314.494884,13.456404 314.541324,13.316364 314.591724,13.177404" id="Fill-50" fill="#B55155" mask="url(#mask-4)"></path> <path d="M331.424892,74.252232 C329.662692,77.848272 331.511292,109.743192 339.870492,113.838912 C348.229332,117.934272 374.709852,100.109952 376.472052,96.513912 C378.233892,92.917872 371.199852,86.124312 357.472692,79.398072 C343.042092,72.327312 333.187092,70.656192 331.424892,74.252232" id="Fill-51" fill="#FFA07F" mask="url(#mask-4)"></path> <path d="M270.510696,167.071068 C270.940176,167.968188 273.837456,170.743788 276.457536,169.298388 C280.290816,167.183388 283.021416,164.291868 285.365736,160.594668 C294.149736,146.741148 306.088776,131.866668 314.872776,118.013508 C322.735536,105.612588 328.791096,82.558188 323.689896,76.772988 C318.588696,70.987788 307.361376,83.805948 303.290496,91.683468 C298.907856,100.163268 293.013216,111.051828 288.560736,119.494908 C284.146416,127.867068 281.426976,133.432308 276.382296,141.440148 C271.369656,149.396868 266.458896,158.604228 270.510696,167.071068" id="Fill-52" fill="#FFA07F" mask="url(#mask-4)"></path> <path d="M304.777512,176.14242 C312.377112,158.20182 318.215952,139.51602 322.182072,120.43998 L381.853512,116.58078 C375.714072,135.07182 360.656712,171.18882 358.229952,190.52082 C358.229952,190.52082 349.565112,193.0275 330.290352,187.84278 C311.015232,182.65806 304.777512,176.14242 304.777512,176.14242" id="Fill-53" fill="#E6E6E6" mask="url(#mask-4)"></path> <path d="M366.425748,141.505416 C357.277068,144.410256 333.525348,138.885336 320.292108,129.089736 C321.132708,125.661816 321.463548,123.895296 322.182108,120.439656 L381.853548,116.580816 C375.714108,135.071856 360.656748,171.188856 358.229988,190.520856 C358.229988,190.520856 356.849748,190.919736 353.969028,191.069856 C353.762748,188.115696 353.512908,185.175576 353.914668,182.289456 C355.734468,167.891616 362.037708,154.955736 366.425748,141.505416" id="Fill-54" fill="#CCCCCC" mask="url(#mask-4)"></path> <path d="M353.1258,139.923756 C363.77928,142.031196 382.4082,121.182516 384.82812,113.814396 C387.00216,107.195436 389.05164,100.382796 392.79852,94.552956 C391.84956,92.802636 390.28032,90.664956 388.98792,89.934876 C387.423,89.050356 376.09668,82.761516 376.09668,82.761516 C376.09668,82.761516 351.1278,112.694796 341.49528,110.103876 C331.86276,107.512596 340.93044,73.083996 340.93044,73.083996 L326.98836,73.093356 C324.08604,73.138356 323.18532,74.332116 321.48648,75.369996 C321.80292,82.292796 324.06876,86.961996 322.62876,93.777876 C321.02532,101.366316 314.09676,111.087396 315.94644,118.619316 C317.79576,126.151236 322.38216,131.113116 333.0432,134.521596 C339.5088,136.588356 342.76104,137.873196 353.1258,139.923756" id="Fill-55" fill="#E6E6E6" mask="url(#mask-4)"></path> <path d="M307.902204,163.451376 C325.410084,169.670376 343.379484,174.504096 361.644084,177.907896 C362.042244,175.773096 362.929644,171.816696 363.327804,169.681896 C345.398364,166.340376 327.758724,161.595936 310.573044,155.491056 C309.845844,157.537296 308.629404,161.404776 307.902204,163.451376" id="Fill-56" fill="#AD4537" mask="url(#mask-4)"></path> <path d="M449.505972,170.460468 C449.257572,171.423468 446.949252,174.705588 444.099852,173.791908 C439.930692,172.454868 436.694292,170.144388 433.681452,166.968108 C422.392572,155.067228 407.810772,142.772148 396.521532,130.870908 C386.416332,120.218148 376.031772,98.762868 379.922652,92.102868 C383.813172,85.442868 397.299852,95.857668 402.812892,102.802788 C408.747492,110.278908 416.630052,119.827548 422.625852,127.254348 C428.571252,134.618508 432.311652,139.555908 438.804972,146.441268 C445.257252,153.283068 451.850292,161.371908 449.505972,170.460468" id="Fill-57" fill="#FFA07F" mask="url(#mask-4)"></path> <path d="M287.561124,420.781752 C288.626364,418.288752 295.279164,413.265312 297.500724,404.981712 C298.766844,400.261032 298.436004,378.873792 299.896884,376.462872 C302.330844,372.444552 305.808084,373.077432 311.283684,372.238992 C312.773724,377.593272 314.138484,397.823112 314.915724,403.338672 C308.991564,441.113472 286.666164,422.876952 287.561124,420.781752" id="Fill-58" fill="#FFA07F" mask="url(#mask-4)"></path> <path d="M282.251124,427.084596 C282.783564,426.510036 283.316364,425.901996 283.848084,425.272716 C285.524244,423.207036 287.763444,420.157116 288.870804,418.631796 C293.838804,411.448716 297.731484,404.170956 297.731484,404.170956 C297.187884,405.229356 297.275364,408.548556 291.010284,419.790636 C289.361484,422.749116 304.837524,427.605876 307.887084,416.576556 C309.388284,411.145956 313.618284,390.351996 313.618284,390.351996 C315.849564,390.666996 315.773201,419.661396 315.773201,419.661396 C315.773201,419.661396 314.274204,438.634116 308.634084,437.862996 C302.993604,437.092236 283.077684,434.369916 283.077684,434.369916 C280.750284,430.391196 280.545804,428.668596 282.251124,427.084596" id="Fill-59" fill="#9A5350" mask="url(#mask-4)"></path> <path d="M218.56806,319.45302 C220.7025,317.78082 228.95226,316.58274 234.88866,310.3929 C238.27158,306.86562 248.2821,287.96274 250.72326,286.55334 C254.79198,284.2047 257.5341,286.43346 262.73646,288.33606 C261.46386,293.74614 252.91746,312.13242 250.94214,317.34054 C227.55762,347.59206 216.77454,320.8581 218.56806,319.45302" id="Fill-60" fill="#FFA07F" mask="url(#mask-4)"></path> <path d="M210.879036,322.419168 C211.621716,322.171848 212.382036,321.896088 213.150996,321.600168 C215.614836,320.596848 219.046356,319.002768 220.751676,318.198888 C228.564756,314.297208 235.481076,309.793608 235.481076,309.793608 C234.495396,310.459248 232.973316,313.410528 222.068196,320.245488 C219.198276,322.044048 230.422356,333.754128 238.406796,325.556568 C242.337996,321.520608 256.059396,305.333928 256.059396,305.333928 C257.863356,306.685008 243.831996,332.057808 243.831996,332.057808 C243.831996,332.057808 233.381196,347.963688 228.809556,344.571768 C224.237196,341.179488 208.094796,329.201928 208.094796,329.201928 C207.971316,324.594288 208.621476,322.986168 210.879036,322.419168" id="Fill-61" fill="#9A5350" mask="url(#mask-4)"></path> <path d="M358.278984,181.124424 C362.621664,196.271424 369.464184,210.889224 373.797864,234.518184 C375.473664,243.654984 368.005104,247.565304 359.966664,250.368624 C350.272584,253.911384 325.961064,255.483504 325.937664,255.390984 C321.873984,254.862864 320.212224,236.880864 316.156824,236.291544 C316.109664,236.374704 293.125824,228.294864 284.748624,222.265224 C277.766424,217.395144 294.405984,186.885144 302.678064,173.473704 C321.099984,176.760864 339.654024,179.313984 358.278984,181.124424" id="Fill-62" fill="#456A97" mask="url(#mask-4)"></path> <path d="M362.314224,235.038636 C362.264904,233.300196 359.518104,208.270116 353.850624,199.121076 C351.486144,195.332076 309.935664,185.238036 298.638864,180.273636 C300.003984,177.519276 301.598064,175.224636 302.678064,173.473596 C321.099984,176.760756 339.654024,179.313876 358.278984,181.124316 C362.621664,196.271316 369.464184,210.889116 373.797864,234.518436 C375.473664,243.655236 368.005104,247.565196 359.966664,250.368516 C350.272584,253.911276 325.961064,255.483396 325.937664,255.390876 C321.873984,254.862756 317.814624,254.304396 313.759584,253.715076 C313.756344,253.720836 313.650504,253.689516 313.457904,253.626516 C322.885224,252.153756 332.401104,248.987196 341.349984,246.705876 C348.176304,245.336076 362.600424,243.447156 362.314224,235.038636" id="Fill-63" fill="#345071" mask="url(#mask-4)"></path> <path d="M299.2383,178.364988 C319.45086,182.599308 339.95466,185.420628 360.55962,186.802308 C360.6633,184.658508 361.02114,180.669708 361.12446,178.525908 C340.89822,177.169428 320.77098,174.399948 300.92958,170.243388 C300.45078,172.335708 299.71746,176.272668 299.2383,178.364988" id="Fill-64" fill="#AD4537" mask="url(#mask-4)"></path> <path d="M295.977888,198.881136 C299.724048,201.617136 304.058448,196.757856 306.431208,193.240296 C308.814408,189.706896 310.417848,185.525856 311.140368,181.113336 C311.227128,180.581616 311.898168,180.671616 311.810688,181.205136 C310.958928,186.409296 308.910528,191.337696 305.857008,195.248376 C303.208488,198.640656 299.179368,202.208976 295.540848,199.551816 C295.175448,199.285056 295.615008,198.616176 295.977888,198.881136" id="Fill-65" fill="#CCCCCC" mask="url(#mask-4)"></path> <path d="M299.569464,197.001684 C299.734344,195.859404 299.899584,194.71712 300.064464,193.574484 C300.141504,193.040964 300.812184,193.132044 300.734784,193.667004 C300.569904,194.809284 300.405024,195.951924 300.240144,197.094204 C300.162744,197.628084 299.492064,197.537004 299.569464,197.001684" id="Fill-66" fill="#CCCCCC" mask="url(#mask-4)"></path> <path d="M359.29818,208.3248 C354.13866,209.77128 350.3925,205.13304 348.24654,201.08124 C345.77298,196.40952 344.80998,191.06712 345.36366,185.82192 C345.42018,185.28516 346.25106,185.4 346.19454,185.93676 C345.7251,190.38456 346.38066,194.87556 348.16626,198.98316 C349.94394,203.07096 353.66418,209.03904 358.97742,207.54972 C359.49222,207.40536 359.81694,208.17936 359.29818,208.3248" id="Fill-67" fill="#CCCCCC" mask="url(#mask-4)"></path> <path d="M297.376776,184.643208 C299.061216,185.574528 300.745296,186.505488 302.429736,187.436808 C302.567976,187.513128 302.667336,187.676568 302.589216,187.835688 L296.548776,200.141928 C296.377776,200.491128 295.817616,200.254248 295.990416,199.902168 L302.030856,187.595928 C302.083776,187.728768 302.137056,187.861968 302.189976,187.995168 C300.505536,187.063848 298.821456,186.132888 297.137016,185.201568 C296.798616,185.014368 297.033696,184.453848 297.376776,184.643208" id="Fill-68" fill="#1A1A1A" mask="url(#mask-4)"></path> <path d="M368.417016,220.943448 C368.417016,220.943448 312.110136,180.569808 300.771216,176.482728 C288.817056,172.173888 279.610776,190.286568 281.634696,199.577088 C284.494896,204.599088 321.729696,266.948928 358.711776,258.112008 C368.972496,255.660408 383.580216,234.270648 368.417016,220.943448" id="Fill-69" fill="#456A97" mask="url(#mask-4)"></path> <path d="M315.975816,196.149852 C315.975816,196.149852 309.091896,221.332572 294.262416,240.687972 C274.715136,266.200452 255.727296,312.131052 255.727296,312.131052 C255.727296,312.131052 244.127376,314.188452 237.881376,304.075692 C237.881376,304.075692 263.890296,199.822932 285.684696,178.281252 C293.862816,170.198172 317.430936,179.432172 315.975816,196.149852" id="Fill-70" fill="#456A97" mask="url(#mask-4)"></path> <path d="M296.91234,229.064184 C295.74882,232.471584 301.80366,252.243864 301.62582,258.054264 C290.1915,312.325344 295.4511,324.611784 296.35722,385.199424 L314.95446,387.758304 C316.70226,351.912384 322.2135,304.019064 328.66074,263.745864 C330.04134,255.122064 335.4021,246.452904 333.76842,238.045464 C332.13438,229.638384 305.6427,222.299424 296.91234,229.064184" id="Fill-71" fill="#456A97" mask="url(#mask-4)"></path> <path d="M329.197392,250.187472 C329.257512,250.195392 329.320872,250.180992 329.373072,250.141392 C329.477472,250.061832 329.497992,249.913152 329.418792,249.808752 C323.417592,241.892712 307.324152,219.611952 307.162512,219.387312 L306.946152,219.088152 L297.322632,236.027592 C297.257832,236.141712 297.297792,236.286792 297.411552,236.350872 C297.524952,236.415672 297.670392,236.376072 297.734832,236.261952 L306.993672,219.965472 C308.940192,222.658632 323.416512,242.677512 329.040432,250.095672 C329.080032,250.147872 329.136912,250.179192 329.197392,250.187472" id="Fill-72" fill="#23354C" mask="url(#mask-4)"></path> <path d="M371.539944,204.624612 C371.539944,204.624612 370.403784,209.209572 375.454944,211.807692 C375.454944,211.807692 439.538904,182.203812 444.871584,178.274412 C450.204264,174.345012 451.437984,160.271892 445.380984,160.094052 C439.323984,159.916212 432.137304,164.474172 423.844344,168.669972 C415.551744,172.865412 371.539944,204.624612 371.539944,204.624612" id="Fill-73" fill="#FFA07F" mask="url(#mask-4)"></path> <path d="M384.12414,197.905536 C384.12414,197.905536 379.28754,194.636016 376.68294,193.429296 C375.88374,193.162536 375.03522,192.977856 375.03522,192.977856 L376.29702,197.383176 C380.49138,198.457056 385.48278,199.468656 384.12414,197.905536" id="Fill-74" fill="#FFA07F" mask="url(#mask-4)"></path> <path d="M369.358848,197.6373 C371.708568,196.02666 375.707448,194.49594 379.383768,195.09822 C381.574728,195.45714 384.702768,195.77574 386.040888,197.72838 C388.436688,201.22434 388.030248,204.54462 386.891568,207.13986 C385.505568,210.29958 380.916648,213.69366 378.993888,215.01126 C375.491088,217.41174 373.208328,212.68242 370.274328,208.4013 C367.340328,204.12054 365.856048,200.03778 369.358848,197.6373" id="Fill-75" fill="#FFA07F" mask="url(#mask-4)"></path> <path d="M368.12484,198.803448 C368.12484,198.803448 362.08188,205.235208 361.67256,206.969328 C361.38492,208.187208 362.8566,209.564208 364.01076,209.490768 C364.82796,209.439648 370.15848,205.384608 370.31724,204.713208 C370.47564,204.041808 369.6696,197.849088 368.12484,198.803448" id="Fill-76" fill="#FFA07F" mask="url(#mask-4)"></path> <path d="M371.226348,203.808996 C371.226348,203.808996 365.080428,208.151676 364.343508,209.773476 C363.825468,210.913236 365.003388,212.548356 366.149628,212.699916 C366.961068,212.807556 372.975588,209.860596 373.261068,209.232036 C373.546188,208.603836 372.926628,203.171436 371.226348,203.808996" id="Fill-77" fill="#FFA07F" mask="url(#mask-4)"></path> <path d="M373.932684,207.234612 C373.932684,207.234612 367.444404,211.023612 366.707484,212.645772 C366.189444,213.785532 367.872444,215.108172 369.019404,215.260092 C369.830484,215.367372 375.748884,212.829012 376.034364,212.200812 C376.319844,211.572972 375.632964,206.597052 373.932684,207.234612" id="Fill-78" fill="#FFA07F" mask="url(#mask-4)"></path> <path d="M377.069328,210.419424 C377.069328,210.419424 371.728008,213.086664 370.991088,214.708464 C370.473408,215.848224 370.540728,216.652464 371.687688,216.804024 C372.499128,216.911664 378.708408,215.639424 378.993888,215.011224 C379.279368,214.383024 378.769608,209.781504 377.069328,210.419424" id="Fill-79" fill="#FFA07F" mask="url(#mask-4)"></path> <path d="M364.659156,209.078892 C366.022836,207.891252 367.386876,206.703612 368.750556,205.516332 C368.877636,205.405452 369.072036,205.584012 368.943876,205.695612 C367.580196,206.883252 366.216156,208.070892 364.852476,209.258532 C364.725756,209.369412 364.531356,209.190492 364.659156,209.078892" id="Fill-80" fill="#C2826B" mask="url(#mask-4)"></path> <path d="M366.725988,212.423688 C368.255268,211.119408 369.784188,209.815128 371.313108,208.510848 C371.441268,208.401408 371.635668,208.579968 371.506428,208.690128 C369.977508,209.994768 368.448588,211.299048 366.919308,212.603328 C366.791868,212.712408 366.597108,212.533848 366.725988,212.423688" id="Fill-81" fill="#C2826B" mask="url(#mask-4)"></path> <path d="M371.018592,214.523892 C372.669552,213.817932 374.279472,213.020172 375.842232,212.136372 C375.989832,212.053212 376.129152,212.277132 375.980832,212.360652 C374.397552,213.256332 372.765672,214.062012 371.092392,214.776972 C370.936872,214.843932 370.863792,214.590132 371.018592,214.523892" id="Fill-82" fill="#C2826B" mask="url(#mask-4)"></path> <path d="M253.208916,83.422728 C253.208916,83.422728 253.922436,78.635808 253.315476,77.276808 C252.707796,75.917088 248.576076,72.735408 247.780116,72.067968 C246.983796,71.400168 242.421876,68.655888 241.329276,69.784128 C240.421356,70.722648 242.425476,72.190728 244.747116,74.137968 C247.069116,76.084848 249.122196,78.295248 249.084036,78.842808 C249.045876,79.390728 250.089876,86.708808 250.555356,88.090128 C251.020476,89.471808 253.072836,85.371768 253.208916,83.422728" id="Fill-83" fill="#C2826B" mask="url(#mask-4)"></path> <path d="M253.56258,78.3954 C253.56258,78.3954 253.55574,73.61532 252.74322,72.3654 C251.93034,71.11548 247.31406,68.54976 246.41586,68.0022 C245.51838,67.45392 240.53706,65.37276 239.6133,66.62268 C238.84542,67.66164 241.07346,68.83272 243.69138,70.4304 C246.31002,72.02808 248.6979,73.91844 248.74218,74.45988 C248.78646,75.00096 250.93458,82.02528 251.6085,83.31588 C252.28242,84.60648 253.7199,80.3214 253.56258,78.3954" id="Fill-84" fill="#C2826B" mask="url(#mask-4)"></path> <path d="M252.2196,76.683276 C252.2196,76.683276 252.33192,69.248916 252.03708,67.489236 C251.74224,65.729916 243.963,59.798196 241.35228,58.204836 C238.7412,56.611476 238.10148,59.406516 240.26544,61.292916 C244.33056,65.265516 247.38444,67.216356 247.5684,68.315796 C247.75272,69.415596 247.941,78.747516 249.72768,79.837956 C251.514,80.928036 252.19908,80.102196 252.2196,76.683276" id="Fill-85" fill="#FFA07F" mask="url(#mask-4)"></path> <path d="M244.790064,90.298584 C247.488264,97.043904 251.412624,101.510424 256.126824,96.737184 C259.258464,93.566304 258.514704,80.680464 256.527144,76.068864 C254.539224,71.457264 242.924544,85.634784 244.790064,90.298584" id="Fill-86" fill="#FFA07F" mask="url(#mask-4)"></path> <path d="M256.445388,79.097112 C257.509908,76.181472 255.486348,69.151752 255.240108,67.682232 C254.994228,66.213072 250.685028,56.421792 250.227828,53.692992 C249.946308,52.013592 246.504708,53.493912 247.055508,56.782872 C247.605948,60.071112 250.157628,67.177872 250.423308,68.763312 C250.688988,70.348752 247.837428,80.061912 248.228748,82.396152 C248.619708,84.730752 255.207708,82.487952 256.445388,79.097112" id="Fill-87" fill="#FFA07F" mask="url(#mask-4)"></path> <path d="M249.839892,87.002352 C249.839892,87.002352 244.974492,79.046712 244.740492,77.647752 C244.506132,76.248072 238.758012,69.183072 237.820212,74.516112 C237.168972,78.222672 240.930972,82.403352 242.063172,84.476232 C243.195732,86.549112 242.456292,90.797112 246.470652,93.870432 C250.484652,96.944112 250.156332,88.891272 249.839892,87.002352" id="Fill-88" fill="#FFA07F" mask="url(#mask-4)"></path> <path d="M255.492648,91.972728 C255.492648,91.972728 251.340408,90.257328 247.686408,94.513968 C247.686408,94.513968 261.534888,157.683168 264.097728,163.154808 C266.660568,168.626448 279.920448,171.822528 281.475288,166.288248 C283.029768,160.754328 280.285128,153.488448 278.142408,145.260288 C275.999328,137.032128 255.492648,91.972728 255.492648,91.972728" id="Fill-89" fill="#FFA07F" mask="url(#mask-4)"></path> <polygon id="Fill-90" fill="#303030" mask="url(#mask-4)" points="259.70508 101.31444 249.77304 103.94388 248.72796 99.23544 257.51232 96.43644"></polygon> <path d="M257.12496,105.127164 C254.8764,105.587604 252.50508,103.282164 251.82828,99.977724 C251.15148,96.673644 252.42588,93.621564 254.67444,93.161124 C256.923,92.700324 259.29468,95.006124 259.97148,98.310204 C260.64828,101.614644 259.37388,104.666724 257.12496,105.127164" id="Fill-91" fill="#444444" mask="url(#mask-4)"></path> </g> </g> </g> </g> </g> </svg> 