<?xml version="1.0" encoding="UTF-8"?> <svg xmlns="http://www.w3.org/2000/svg" xmlns:xlink="http://www.w3.org/1999/xlink" width="495px" height="370px" viewBox="0 0 495 370"> <!-- Generator: Sketch 57.1 (83088) - https://sketch.com --> <title>Group 93</title> <desc>Created with Sketch.</desc> <g id="Page-1" stroke="none" stroke-width="1" fill="none" fill-rule="evenodd"> <g id="artem" transform="translate(-639.000000, -268.000000)"> <g id="Group-11-Copy-9" transform="translate(198.000000, 268.000000)"> <g id="Group-93" transform="translate(441.000000, 0.000000)"> <polygon id="Fill-1" fill="#AB4458" points="0 333.4017 474.4038 333.4017 474.4038 311.55 0 311.55"></polygon> <polygon id="Fill-2" fill="#B84F68" points="0 333.4017 61.4292 333.4017 61.4292 311.55 0 311.55"></polygon> <g id="Group-92" transform="translate(0.000000, 0.018000)"> <path d="M478.38513,320.59638 L414.29793,320.59638 L414.29793,211.26588 C414.29793,207.06768 417.70113,203.66418 421.89933,203.66418 L470.78373,203.66418 C474.98193,203.66418 478.38513,207.06768 478.38513,211.26588 L478.38513,320.59638 Z" id="Fill-3" fill="#99374E"></path> <path d="M475.04703,320.59638 L410.95983,320.59638 L410.95983,211.26588 C410.95983,207.06768 414.36303,203.66418 418.56123,203.66418 L467.44563,203.66418 C471.64383,203.66418 475.04703,207.06768 475.04703,211.26588 L475.04703,320.59638 Z" id="Fill-5" fill="#AB4458"></path> <path d="M415.9479,299.7213 L468.0534,299.7213 L468.0534,213.6381 L415.9479,213.6381 L415.9479,299.7213 Z M415.3371,300.3315 L468.6642,300.3315 L468.6642,213.0276 L415.3371,213.0276 L415.3371,300.3315 Z" id="Fill-7" fill="#99374E"></path> <path d="M422.1615,284.5611 L459.7857,284.5611 L459.7857,222.2934 L422.1615,222.2934 L422.1615,284.5611 Z M421.5507,285.1716 L460.3965,285.1716 L460.3965,221.6832 L421.5507,221.6832 L421.5507,285.1716 Z" id="Fill-9" fill="#99374E"></path> <path d="M457.29693,311.53206 L11.06283,311.53206 C4.95303,311.53206 3e-05,306.57906 3e-05,300.46956 L3e-05,278.25516 C3e-05,272.14536 4.95303,267.19236 11.06283,267.19236 L457.29693,267.19236 C463.40673,267.19236 468.35973,272.14536 468.35973,278.25516 L468.35973,300.46956 C468.35973,306.57906 463.40673,311.53206 457.29693,311.53206" id="Fill-10" fill="#E1F8FF"></path> <path d="M57.25308,311.53206 L4.17648,311.53206 C1.87008,311.53206 -0.00012,309.66216 -0.00012,307.35576 L-0.00012,271.36896 C-0.00012,269.06226 1.87008,267.19236 4.17648,267.19236 L57.25308,267.19236 C59.55948,267.19236 61.42938,269.06226 61.42938,271.36896 L61.42938,307.35576 C61.42938,309.66216 59.55948,311.53206 57.25308,311.53206" id="Fill-11" fill="#ECFBFF"></path> <path d="M5.50221,267.57555 C23.89431,258.08175 455.21451,257.64165 464.09841,268.09695 L5.50221,267.57555 Z" id="Fill-12" fill="#CDE6ED"></path> <path d="M434.17116,214.15854 C423.22206,211.29264 415.48596,211.72074 408.19986,212.61024 C406.01826,212.46714 402.65046,209.64624 398.96076,210.13824 C397.88256,211.55394 397.99806,214.36884 398.94846,216.16854 C368.93496,227.90214 371.26896,250.57884 376.57056,259.06434 C378.85416,269.02104 400.53246,274.78644 414.14526,271.56444 C416.15826,273.29994 418.97226,274.69074 422.17446,275.91504 C425.49786,273.45864 427.52706,270.94734 428.13336,268.37544 C436.32906,266.81274 444.14886,252.72384 441.55866,226.92774 C442.45386,221.66904 443.11326,216.56484 442.42746,212.33904 C439.31856,211.35234 436.52766,211.78734 434.17116,214.15854" id="Fill-13" fill="#E1F8FF"></path> <path d="M462.56628,209.73024 C451.45308,207.58734 443.76108,208.52094 436.54878,209.88564 C434.36268,209.88564 430.81758,207.29124 427.16778,208.02384 C426.18498,209.50704 426.48438,212.30844 427.55058,214.04214 C398.36958,227.71524 402.18348,250.19064 408.02898,258.31104 C410.95998,268.09674 432.96918,272.43054 446.34138,268.32414 C448.46388,269.92404 451.36278,271.12764 454.63818,272.13954 C457.79358,269.47104 459.65418,266.83224 460.09098,264.22614 C468.16698,262.13034 475.04718,247.55934 470.77368,221.98824 C471.32298,216.68244 471.64668,211.54584 470.68578,207.37404 C467.51868,206.59314 464.76258,207.20994 462.56628,209.73024" id="Fill-14" fill="#F2FBFF"></path> <path d="M407.89155,258.40971 C404.95755,254.33391 402.34545,246.44121 404.64075,237.61131 C406.39275,230.87151 411.75045,221.30961 427.31025,213.96801 C426.33945,212.25441 425.99475,209.48781 427.02675,207.93021 L427.06575,207.87171 L427.13475,207.85761 C429.43065,207.39711 431.62545,208.20381 433.56165,208.91571 C434.73075,209.34531 435.74055,209.71641 436.54875,209.71641 C443.08305,208.47711 451.05375,207.33801 462.59805,209.56401 L462.53415,209.89641 C451.04775,207.68151 443.11455,208.81551 436.58025,210.05181 L436.57005,210.05181 C435.67215,210.05181 434.63985,209.67261 433.44525,209.23341 C431.57085,208.54431 429.44895,207.76401 427.27155,208.17591 C426.42915,209.53161 426.61965,212.20611 427.69485,213.95331 L427.79445,214.11501 L427.62255,214.19511 C412.05105,221.49141 406.70835,231.00261 404.96835,237.69651 C402.70245,246.41271 405.27495,254.19561 408.16665,258.21201 L407.89155,258.40971 Z" id="Fill-15" fill="#B0DEED"></path> <path d="M428.24292,217.88517 C437.98662,220.92477 449.06772,220.54467 461.04012,217.88517 C458.17482,221.50917 456.49692,224.87607 457.60242,227.64057 L429.45072,222.76287 L415.23582,224.85327 L428.24292,217.88517 Z" id="Fill-16" fill="#E1F8FF"></path> <polygon id="Fill-17" fill="#99374E" points="474.4038 364.0791 478.3851 364.0791 478.3851 316.6581 474.4038 316.6581"></polygon> <polygon id="Fill-18" fill="#99374E" points="14.232 364.0791 28.4637 364.0791 28.4637 333.384 14.232 333.384"></polygon> <polygon id="Fill-19" fill="#AB4458" points="54.3135 364.0791 68.5452 364.0791 68.5452 333.384 54.3135 333.384"></polygon> <polygon id="Fill-20" fill="#AB4458" points="463.7397 364.0791 474.4038 364.0791 474.4038 333.384 463.7397 333.384"></polygon> <polygon id="Fill-21" fill="#AB4458" points="410.9601 364.0791 425.1915 364.0791 425.1915 333.384 410.9601 333.384"></polygon> <polygon id="Fill-22" fill="#99374E" points="0 333.7224 474.4038 333.7224 474.4038 333.0456 0 333.0456"></polygon> <polygon id="Fill-23" fill="#99374E" points="0 322.7964 478.3851 322.7964 478.3851 322.1196 0 322.1196"></polygon> <polygon id="Fill-24" fill="#B84F68" points="402.2154 365.2926 490.4673 365.2926 490.4673 260.3874 402.2154 260.3874"></polygon> <polygon id="Fill-25" fill="#99374E" points="437.6046 365.2926 490.4673 365.2926 490.4673 260.3874 437.6046 260.3874"></polygon> <polygon id="Fill-26" fill="#99374E" points="398.1498 264.5736 494.5332 264.5736 494.5332 259.2615 398.1498 259.2615"></polygon> <polygon id="Fill-27" fill="#B84F68" points="398.1498 264.5736 440.5137 264.5736 440.5137 259.2615 398.1498 259.2615"></polygon> <polygon id="Fill-28" fill="#B87067" points="397.7946 264.5736 398.5047 264.5736 398.5047 259.2615 397.7946 259.2615"></polygon> <polygon id="Fill-29" fill="#AB4458" points="402.2157 288.6255 440.5137 288.6255 440.5137 287.9487 402.2157 287.9487"></polygon> <polygon id="Fill-30" fill="#AB4458" points="402.2157 312.7074 440.5137 312.7074 440.5137 312.0306 402.2157 312.0306"></polygon> <polygon id="Fill-31" fill="#99374E" points="455.07447 268.22001 402.21567 266.95071 402.21567 264.57351 455.07447 264.57351"></polygon> <polygon id="Fill-32" fill="#8B3149" points="490.46745 264.57357 437.60475 264.57357 437.60475 267.80037 490.46745 269.69697"></polygon> <polygon id="Fill-33" fill="#8B3149" points="398.1498 264.912 457.9833 264.912 457.9833 264.2352 398.1498 264.2352"></polygon> <polygon id="Fill-34" fill="#8B3149" points="440.175 365.2926 440.8521 365.2926 440.8521 264.7581 440.175 264.7581"></polygon> <polygon id="Fill-35" fill="#8B3149" points="437.6049 288.6255 440.5137 288.6255 440.5137 287.9487 437.6049 287.9487"></polygon> <polygon id="Fill-36" fill="#8B3149" points="437.6049 312.7074 440.5137 312.7074 440.5137 312.0306 437.6049 312.0306"></polygon> <polygon id="Fill-37" fill="#782840" points="440.5137 264.912 494.5332 264.912 494.5332 264.2352 440.5137 264.2352"></polygon> <path d="M421.13991,270.26439 C421.13991,271.49259 420.14421,272.48829 418.91571,272.48829 C417.68751,272.48829 416.69181,271.49259 416.69181,270.26439 C416.69181,269.03619 417.68751,268.04049 418.91571,268.04049 C420.14421,268.04049 421.13991,269.03619 421.13991,270.26439" id="Fill-38" fill="#99374E"></path> <path d="M421.13991,293.51955 C421.13991,294.74775 420.14421,295.74345 418.91571,295.74345 C417.68751,295.74345 416.69181,294.74775 416.69181,293.51955 C416.69181,292.29135 417.68751,291.29565 418.91571,291.29565 C420.14421,291.29565 421.13991,292.29135 421.13991,293.51955" id="Fill-39" fill="#99374E"></path> <path d="M421.13991,317.23917 C421.13991,318.46737 420.14421,319.46307 418.91571,319.46307 C417.68751,319.46307 416.69181,318.46737 416.69181,317.23917 C416.69181,316.01097 417.68751,315.01527 418.91571,315.01527 C420.14421,315.01527 421.13991,316.01097 421.13991,317.23917" id="Fill-40" fill="#99374E"></path> <polygon id="Fill-41" fill="#CFCFCF" points="459.6138 237.801 460.4178 237.801 460.4178 222.1878 459.6138 222.1878"></polygon> <polygon id="Fill-42" fill="#CFCFCF" points="463.4679 259.2615 465.879 259.2615 465.879 218.5932 463.4679 218.5932"></polygon> <path d="M439.98072,228.7092 L489.36642,228.7092 C486.25932,215.9376 484.84182,203.4996 485.34792,191.4411 L443.99952,191.4411 C445.27272,204.7299 443.93412,217.1529 439.98072,228.7092" id="Fill-43" fill="#7BBFCF"></path> <path d="M457.39479,228.7092 L489.36639,228.7092 C486.46899,216.2868 485.12919,203.8641 485.34789,191.4411 L458.44479,191.4411 C459.42159,204.3492 459.14589,216.7989 457.39479,228.7092" id="Fill-44" fill="#74BACA"></path> <path d="M452.07156,257.05341 L477.27576,257.05341 C478.49496,257.05341 479.48376,258.04191 479.48376,259.26141 L449.86356,259.26141 C449.86356,258.04191 450.85236,257.05341 452.07156,257.05341" id="Fill-45" fill="#CFCFCF"></path> <path d="M459.3609,238.78944 C459.9066,239.15124 460.6425,239.00184 461.0046,238.45584 C461.3664,237.91014 461.217,237.17424 460.671,236.81244 C460.125,236.45064 459.3894,236.60004 459.0276,237.14604 C458.6658,237.69174 458.8152,238.42764 459.3609,238.78944" id="Fill-46" fill="#CFCFCF"></path> <path d="M477.93717,191.44125 C477.59157,203.87115 478.53417,216.29355 480.76617,228.70935 L476.05137,228.70935 C475.02657,216.28665 474.71247,203.86395 475.10847,191.44125 L477.93717,191.44125 Z" id="Fill-47" fill="#70B2C2"></path> <path d="M176.0487,368.62216 C174.9171,368.62216 174,367.70506 174,366.57346 C174,365.44216 174.9171,364.52506 176.0487,364.52506 L228.1066,364.52506 C229.2379,364.52506 230.155,365.44216 230.155,366.57346 C230.155,367.70506 229.2379,368.62216 228.1066,368.62216 L176.0487,368.62216 Z" id="Fill-48" fill="#C4607D"></path> <path d="M228.1066,364.525 C229.2892,360.0382 221.4202,357.9493 213.2542,354.958 C207.2758,352.768 201.7168,348.982 196.5418,348.982 C192.6979,352.7464 191.6113,361.7311 193.5781,364.525 L228.1066,364.525 Z" id="Fill-49" fill="#BFD8E0"></path> <path d="M112.79556,369 C111.66396,369 110.74686,368.0829 110.74686,366.9513 C110.74686,365.82 111.66396,364.9029 112.79556,364.9029 L164.1066,364.9029 C165.2379,364.9029 166.155,365.82 166.155,366.9513 C166.155,368.0829 165.2379,369 164.1066,369 L112.79556,369 Z" id="Fill-50" fill="#D06A83"></path> <path d="M164.1066,364.90284 C165.2721,360.32064 157.0302,358.86744 148.6395,355.87824 C142.7997,353.79774 137.5662,349.35984 132.5418,349.35984 C128.6976,353.12424 127.6113,362.10894 129.5781,364.90284 L164.1066,364.90284 Z" id="Fill-51" fill="#CDE6ED"></path> <path d="M208.65933,360.9999 C208.98993,360.9999 209.25753,360.732 209.25753,360.4017 C209.25753,360.3732 209.29233,357.4224 211.30443,356.0376 C211.57683,355.8504 211.64553,355.4781 211.45803,355.206 C211.27113,354.9342 210.89883,354.8649 210.62643,355.0524 C208.09053,356.7975 208.06143,360.2553 208.06143,360.4017 C208.06143,360.732 208.32903,360.9999 208.65933,360.9999" id="Fill-53" fill="#FFFFFF"></path> <path d="M202.23279,359.04609 C202.27869,359.04609 202.32549,359.04069 202.37199,359.02959 C202.69329,358.95309 202.89159,358.63059 202.81509,358.30929 C202.57779,357.31269 203.78589,354.31869 205.34469,353.23989 C205.61649,353.05209 205.68429,352.67949 205.49619,352.40799 C205.30869,352.13619 204.93639,352.06809 204.66399,352.25649 C202.73889,353.58819 201.28869,357.06189 201.65169,358.58649 C201.71679,358.86129 201.96219,359.04609 202.23279,359.04609" id="Fill-54" fill="#FFFFFF"></path> <path d="M143.18256,360.99675 C143.43186,360.99675 143.66316,360.84075 143.74656,360.59115 C143.95986,359.95185 143.82066,357.95175 142.95306,357.38235 C142.67676,357.20085 142.30626,357.27765 142.12506,357.55395 C141.94446,357.82905 142.01976,358.19775 142.29306,358.37985 C142.53816,358.58955 142.72626,359.85435 142.61196,360.21255 C142.51176,360.52575 142.68216,360.86475 142.99476,360.96645 C143.05716,360.98715 143.12046,360.99675 143.18256,360.99675" id="Fill-58" fill="#FFFFFF"></path> <path d="M137.81568,358.1724 C138.08448,358.1724 138.32838,357.9903 138.39588,357.7176 C138.66378,356.6328 138.506589,354.408 137.23908,353.8356 C136.93848,353.6994 136.58388,353.8335 136.44798,354.1347 C136.31208,354.4356 136.44588,354.7899 136.74678,354.9258 C137.21808,355.1385 137.43948,356.6004 137.23458,357.4308 C137.15538,357.7512 137.35098,358.0755 137.67168,358.155 C137.71998,358.1667 137.76798,358.1724 137.81568,358.1724" id="Fill-59" fill="#FFFFFF"></path> <path d="M201.19128,267.79161 C196.20078,294.05181 193.69548,312.48621 194.02248,329.34651 C194.15238,336.21741 194.75358,342.82581 195.84738,349.59651 C195.59688,350.09481 184.44588,350.71371 183.71478,349.79991 C183.00168,349.11021 178.54758,340.95111 174.02028,329.34651 C169.38378,317.45871 164.67318,301.95441 163.83348,287.15151 C163.40598,279.66741 168.45198,266.83071 167.92428,260.64081 C167.63868,257.27751 165.10668,244.21671 164.71758,241.05681 C161.42808,251.85981 159.83628,263.93901 156.34638,269.20071 C144.23748,287.46381 137.42868,311.62551 133.57608,329.34651 C131.41848,339.28281 130.18908,347.19741 129.47898,350.91111 C127.56588,351.82491 120.20268,351.19701 117.29058,350.79321 C116.72448,350.71371 114.55518,341.45811 112.79568,329.34651 C110.49918,313.56201 108.89298,292.92291 112.41228,281.40951 C113.82408,276.79071 123.22998,263.15211 124.21758,258.42111 C131.60418,222.96441 135.76308,196.67181 135.78978,191.82291 C135.80748,188.59221 134.53698,180.54831 135.88998,173.87211 C137.60238,165.42711 143.41818,159.22251 150.25368,147.84771 C150.25368,147.84771 189.92838,152.51961 193.72218,149.72511 C197.38878,147.02811 199.47258,171.87651 201.00258,177.80991 C201.43878,179.50491 206.23488,241.25421 201.19128,267.79161" id="Fill-60" fill="#BC7551"></path> <path d="M127.86207,101.97597 C127.01127,110.78547 125.97537,134.52177 127.32897,139.93647 C128.44527,144.40227 136.29717,171.15897 147.47187,176.35347 C165.13977,184.56597 155.55327,155.34897 155.55327,155.34897 C155.55327,155.34897 155.13177,135.72927 159.19917,107.94717 C159.56937,105.41847 128.64837,93.83187 127.86207,101.97597" id="Fill-61" fill="#BC7551"></path> <path d="M155.10171,53.05077 C146.65731,55.46577 136.77501,63.18627 131.93781,70.51497 C125.03781,80.96937 125.78571,95.51487 125.78691,105.66447 C125.78721,108.03267 153.53511,111.29337 154.86291,107.16567 C159.20721,93.65997 155.10171,53.05077 155.10171,53.05077" id="Fill-62" fill="#E2A346"></path> <path d="M204.31872,116.70909 C200.66952,157.48029 201.38592,167.52879 202.96272,181.25589 C203.27802,184.01469 186.60642,183.61389 169.60752,183.15999 C154.35372,182.75319 138.83742,182.14899 135.09102,178.92129 C134.40732,178.33479 134.11542,177.65949 134.28672,176.88459 C142.31262,140.39319 134.18322,109.00119 134.28672,82.38429 C134.35722,64.75749 154.08252,49.04679 166.62762,49.04679 C170.66262,49.04679 192.27192,57.23529 201.93972,73.88919 C208.05012,84.40929 205.79262,100.26429 204.31872,116.70909" id="Fill-63" fill="#E2A346"></path> <path d="M154.857038,53.75547 C154.87809,52.16037 157.54179,47.54907 157.54179,41.58627 C157.54179,34.35567 176.00889,39.54717 176.00889,39.54717 C176.39619,43.11567 175.97049,49.76607 176.94729,53.64717 C177.43269,55.57707 171.62109,58.46187 164.27589,57.95877 C158.86539,57.58827 154.84029,55.02057 154.857038,53.75547" id="Fill-64" fill="#BC7551"></path> <path d="M159.90906,12.94995 C166.65906,6.75765 180.89466,8.96415 183.88536,17.62305 C187.60626,28.39695 186.31956,43.21815 183.58776,45.41505 C179.56896,48.64635 166.45896,45.84795 161.79636,42.53025 C157.34166,39.36075 148.53906,23.38035 159.90906,12.94995" id="Fill-65" fill="#BC7551"></path> <path d="M156.90348,13.45563 C149.02308,15.76263 153.00828,27.53883 153.89418,31.16763 C154.85718,35.11293 155.71338,42.40503 158.07768,42.40503 C168.33918,42.40503 173.28858,34.47033 172.95978,33.83913 C170.77428,29.64033 173.82108,24.36303 175.68378,29.22123 C175.91298,33.48393 178.32168,33.46743 178.50858,33.09303 C178.74678,32.61573 177.85788,20.62323 178.00608,19.26333 L156.90348,13.45563 Z" id="Fill-66" fill="#172755"></path> <path d="M175.88814,49.77378 C175.91544,49.77378 175.94304,49.77138 175.97034,49.76628 C176.21304,49.72098 176.37294,49.48788 176.32794,49.24548 C175.83294,46.58778 175.88064,44.72988 175.97424,44.11908 C176.01174,43.87518 175.84464,43.64718 175.60104,43.60968 C175.35744,43.57158 175.12944,43.73928 175.09194,43.98318 C174.98214,44.69508 174.93414,46.63878 175.44984,49.40868 C175.48974,49.62378 175.67754,49.77378 175.88814,49.77378" id="Fill-67" fill="#804737"></path> <path d="M183.9489,16.26309 C192.2574,13.02879 186.9426,2.64369 178.9971,6.58989 C183.558,0.83529 170.3616,-3.09261 163.9251,4.43529 C154.7859,0.83529 145.5882,5.04519 153.4797,13.18749 C146.1246,15.07089 139.23,23.35299 158.9562,29.58969 L183.9489,16.26309 Z" id="Fill-68" fill="#172755"></path> <path d="M152.55552,27.03357 C152.55552,27.03357 160.39302,25.98087 170.26032,22.52547 C179.68272,19.22577 183.94902,16.26297 183.94902,16.26297 C183.94902,16.26297 185.28942,22.56417 185.13462,21.91887 C185.03022,21.48447 182.45592,26.41047 173.82162,29.56797 C161.00142,34.25577 154.58202,34.25547 154.58202,34.25547 C153.09252,33.14157 153.00042,28.25877 152.55552,27.03357" id="Fill-69" fill="#E2A346"></path> <path d="M211.564163,250.07652 C211.70544,252.96222 165.25974,255.01662 164.71764,253.99692 C164.17224,252.97392 164.12814,249.89952 164.12814,249.89952 C164.12814,249.89952 163.53264,251.20242 163.03434,253.30992 C162.53634,255.41742 119.87844,242.50122 117.53214,240.88872 C115.43964,239.45322 131.57454,189.67992 135.09114,178.92132 C138.83754,182.14902 154.35384,182.75322 169.60764,183.16002 C186.60654,183.61392 203.27814,184.01472 202.96284,181.25562 C206.47314,179.59032 211.42224,247.19382 211.564163,250.07652" id="Fill-70" fill="#172755"></path> <path d="M175.32975,139.77687 C180.51345,155.32797 192.79815,164.65857 202.37205,174.13977 C207.95445,179.66817 212.31015,178.94247 211.49115,176.38197 C210.53415,173.38887 202.18395,142.32867 201.04575,133.07787 C199.91955,123.92367 200.94615,110.90937 201.13845,106.28277 C201.22965,104.09577 168.81405,106.26597 168.831443,108.01827 C168.92655,117.55107 173.27115,133.60017 175.32975,139.77687" id="Fill-71" fill="#BC7551"></path> <path d="M211.49118,176.38206 C214.07658,183.30996 214.57308,194.19396 213.95778,196.65546 C213.34218,199.11726 209.84868,204.30066 208.94298,203.81916 C207.25128,202.92006 210.80568,198.56976 210.42978,197.68806 C208.11588,200.45766 206.00328,203.97246 204.57948,203.85306 C203.74938,203.78346 204.37398,201.99576 204.21498,201.99246 C203.73228,201.98196 203.56008,201.95046 203.17608,201.63426 C202.56738,201.13296 203.23758,200.15376 202.42398,199.52106 C200.48988,198.01656 203.55828,194.23296 203.64198,192.43836 C203.84958,187.97556 198.62718,180.32226 201.85038,174.65736 C203.06118,172.52916 210.63768,174.09516 211.49118,176.38206" id="Fill-72" fill="#BC7551"></path> <path d="M203.14011,200.21448 C203.32821,200.21448 203.50641,200.10318 203.58261,199.91868 C203.71701,199.59378 204.62451,198.08178 205.42551,196.74768 C206.47611,194.99778 207.12561,193.90938 207.24201,193.59978 C207.52431,192.84648 207.53271,191.62638 207.26841,189.64338 C207.23361,189.38148 206.99211,189.19608 206.73081,189.23238 C206.46891,189.26718 206.28471,189.50778 206.31981,189.76968 C206.55561,191.53908 206.56401,192.68208 206.34591,193.26378 C206.25441,193.50798 205.33971,195.03108 204.60501,196.25508 C203.51901,198.06408 202.84881,199.18848 202.69821,199.55298 C202.59711,199.79748 202.71351,200.07708 202.95771,200.17788 C203.01741,200.20278 203.07951,200.21448 203.14011,200.21448" id="Fill-73" fill="#804737"></path> <path d="M204.573,202.07709 C204.7584,202.07709 204.9351,201.96849 205.0128,201.78729 C205.1802,201.39729 206.4771,199.69449 207.5187,198.32619 C209.352,195.91899 209.8974,195.16899 209.9802,194.83749 C210.126,194.25459 210.2754,193.03959 210.3519,191.81379 C210.3681,191.55009 210.1677,191.32299 209.9043,191.30649 C209.6445,191.29089 209.4135,191.49039 209.3967,191.75439 C209.3253,192.89739 209.1855,194.05749 209.0559,194.58909 C208.9158,194.91249 207.6696,196.54869 206.7576,197.74629 C205.2579,199.71579 204.333,200.94489 204.1335,201.40959 C204.0294,201.65229 204.1416,201.93369 204.3843,202.03809 C204.4458,202.06449 204.51,202.07709 204.573,202.07709" id="Fill-74" fill="#804737"></path> <path d="M210.87711,197.88105 C211.00161,197.88105 211.12641,197.83275 211.22031,197.73615 C212.46321,196.45935 212.61831,195.16185 212.74251,194.11875 C212.75631,194.00415 212.76981,193.89165 212.78421,193.78155 C212.81931,193.51965 212.63511,193.27905 212.37321,193.24395 C212.11041,193.20915 211.87071,193.39335 211.83561,193.65525 C211.82061,193.76955 211.80651,193.88625 211.79241,194.00565 C211.67391,194.99805 211.55151,196.02435 210.53421,197.06865 C210.35001,197.25795 210.35421,197.56095 210.54351,197.74545 C210.63651,197.83575 210.75711,197.88105 210.87711,197.88105" id="Fill-75" fill="#804737"></path> <path d="M165.59967,254.01144 C165.17667,254.01144 164.79957,253.71204 164.71677,253.28124 L158.94957,223.29894 C157.36977,221.64054 147.31197,210.61644 146.59797,198.10614 C146.56947,197.60994 146.94897,197.18454 147.44517,197.15634 C147.93927,197.12394 148.36647,197.50734 148.39497,198.00354 C149.11467,210.60804 160.31097,222.11964 160.42407,222.23454 L160.61487,222.42864 L160.66677,222.69594 L166.48437,252.94134 C166.57827,253.42944 166.25847,253.90104 165.77037,253.99494 C165.71307,254.00604 165.65577,254.01144 165.59967,254.01144" id="Fill-76" fill="#999999"></path> <path d="M195.38259,252.85467 C195.32859,252.85467 195.27369,252.84867 195.21849,252.83637 C194.81409,252.74637 194.55969,252.34527 194.65029,251.94117 C200.42169,226.08957 194.69799,184.88727 194.63919,184.47417 C194.58129,184.06407 194.86659,183.68457 195.27669,183.62637 C195.69009,183.56787 196.06659,183.85407 196.12479,184.26387 C196.18359,184.67967 201.94449,226.15287 196.11399,252.26787 C196.03599,252.61707 195.72639,252.85467 195.38259,252.85467" id="Fill-77" fill="#FFFFFF"></path> <path d="M189.19275,252.85467 C189.13875,252.85467 189.08385,252.84867 189.02865,252.83637 C188.62425,252.74637 188.36985,252.34527 188.46045,251.94117 C194.23065,226.09377 188.50815,184.88727 188.44935,184.47417 C188.39145,184.06407 188.67675,183.68457 189.08685,183.62637 C189.49995,183.56787 189.87675,183.85407 189.93495,184.26387 C189.99375,184.67967 195.75435,226.15287 189.92415,252.26787 C189.84615,252.61707 189.53655,252.85467 189.19275,252.85467" id="Fill-78" fill="#FFFFFF"></path> <path d="M133.57626,329.34654 C131.41836,339.28284 130.18926,361.18884 129.47886,364.90284 C127.56576,365.81664 120.20256,365.18874 117.29046,364.78494 C116.72466,364.70544 114.55506,341.45814 112.79556,329.34654 L133.57626,329.34654 Z" id="Fill-79" fill="#B4E8FF"></path> <path d="M186.588967,364.433447 C160.991211,369 178.54773,340.95114 174.02013,329.34654 L194.02263,329.34654 C194.15253,336.21744 197.627467,357.459347 198.721267,364.230047 C198.470767,364.728347 187.319767,365.347247 186.588967,364.433447 Z" id="Fill-80" fill="#B4E8FF"></path> <path d="M165.42477,62.32374 C152.84877,62.32374 149.63427,54.36234 149.49807,54.00894 C149.34927,53.62224 149.54217,53.18814 149.92857,53.03934 C150.31407,52.89144 150.74757,53.08254 150.89697,53.46774 C151.02777,53.79954 154.19967,61.47624 167.05617,60.77844 C179.76147,60.08664 180.52557,53.93244 180.55197,53.67084 C180.59307,53.26134 180.95877,52.95744 181.36707,52.99584 C181.77717,53.03334 182.08047,53.39124 182.04597,53.80164 C182.01987,54.11604 181.24317,61.50834 167.13777,62.27604 C166.54917,62.30814 165.97707,62.32374 165.42477,62.32374" id="Fill-83" fill="#FFFFFF"></path> <path d="M167.09616,103.97628 C166.72446,103.97628 166.40166,103.69998 166.35306,103.32138 C166.30056,102.91038 166.59096,102.53478 167.00196,102.48228 C167.92626,102.36378 189.77496,99.60078 201.52926,100.92138 C201.94086,100.96788 202.23726,101.33898 202.19076,101.75058 C202.14456,102.16218 201.77616,102.45918 201.36186,102.41208 C189.78576,101.11038 167.41656,103.94118 167.19216,103.96998 C167.16006,103.97418 167.12766,103.97628 167.09616,103.97628" id="Fill-84" fill="#FFFFFF"></path> <path d="M135.47223,105.15534 C135.39453,105.15534 135.31593,105.14334 135.23823,105.11784 C131.74593,103.97184 123.92073,102.41814 123.84183,102.40254 C123.43563,102.32214 123.17133,101.92764 123.25203,101.52114 C123.33243,101.11494 123.72693,100.85094 124.13313,100.93104 C124.45803,100.99524 132.12693,102.51804 135.70563,103.69254 C136.09953,103.82184 136.31373,104.24544 136.18473,104.63904 C136.08093,104.95494 135.78753,105.15534 135.47223,105.15534" id="Fill-85" fill="#FFFFFF"></path> <path d="M201.77019,174.79197 L209.86509,170.10117 C210.61719,169.66557 210.98049,168.77757 210.75039,167.93967 L207.03459,156.13947 C206.69589,154.90797 205.26819,154.34877 204.18309,155.02227 L191.95329,162.61197 C190.91889,163.25397 190.73979,164.68647 191.58519,165.56337 L199.43499,174.46467 C200.04549,175.09797 201.00909,175.23297 201.77019,174.79197" id="Fill-86" fill="#7EC2EE"></path> <path d="M200.59392,172.40895 C200.46492,172.40895 200.33742,172.35405 200.24832,172.24755 L193.62822,164.32695 C193.46892,164.13615 193.49442,163.85235 193.68522,163.69305 C193.87572,163.53315 194.15982,163.55925 194.31912,163.74975 L200.93892,171.67035 C201.09852,171.86115 201.07302,172.14495 200.88222,172.30425 C200.79822,172.37475 200.69562,172.40895 200.59392,172.40895" id="Fill-87" fill="#B4E8FF"></path> <path d="M202.63386,171.21102 C202.49946,171.21102 202.36626,171.15102 202.27776,171.03642 L195.95586,162.86622 C195.80376,162.66972 195.84006,162.38712 196.03656,162.23502 C196.23336,162.08292 196.51566,162.11892 196.66776,162.31542 L202.98966,170.48562 C203.14146,170.68212 203.10546,170.96472 202.90896,171.11712 C202.82706,171.18042 202.72986,171.21102 202.63386,171.21102" id="Fill-88" fill="#B4E8FF"></path> <path d="M204.6738,170.01306 C204.528,170.01306 204.3846,169.94196 204.2979,169.81116 L198.573,161.14206 C198.4362,160.93446 198.4932,160.65546 198.7008,160.51866 C198.9069,160.38156 199.1868,160.43826 199.3242,160.64586 L205.0491,169.31496 C205.1859,169.52256 205.1289,169.80156 204.9213,169.93836 C204.8451,169.98906 204.759,170.01306 204.6738,170.01306" id="Fill-89" fill="#B4E8FF"></path> <path d="M206.56431,168.93993 C206.40021,168.93993 206.24211,168.84993 206.16261,168.69363 L201.45801,159.42543 C201.34551,159.20373 201.43371,158.93313 201.65571,158.82063 C201.87621,158.70813 202.14771,158.79603 202.26051,159.01803 L206.96541,168.28593 C207.07791,168.50763 206.98941,168.77853 206.76771,168.89103 C206.70261,168.92403 206.63301,168.93993 206.56431,168.93993" id="Fill-90" fill="#B4E8FF"></path> <path d="M208.57965,168.01575 C208.40385,168.01575 208.23675,167.91225 208.16445,167.74005 L204.05655,157.97325 C203.96025,157.74435 204.06795,157.48035 204.29685,157.38405 C204.52725,157.28805 204.79005,157.39545 204.88605,157.62435 L208.99425,167.39115 C209.09055,167.62035 208.98285,167.88405 208.75395,167.98035 C208.69695,168.00435 208.63755,168.01575 208.57965,168.01575" id="Fill-91" fill="#B4E8FF"></path> </g> </g> </g> </g> </g> </svg> 