<?xml version="1.0" encoding="UTF-8"?> <svg xmlns="http://www.w3.org/2000/svg" xmlns:xlink="http://www.w3.org/1999/xlink" width="441px" height="294px" viewBox="0 0 441 294"> <!-- Generator: Sketch 57.1 (83088) - https://sketch.com --> <title>Group 350</title> <desc>Created with Sketch.</desc> <defs> <polygon id="path-1" points="0 294.745763 440.204446 294.745763 440.204446 0.734983051 0 0.734983051"></polygon> <path d="M34.855,1.85317647 C7.4,1.85317647 4.525,-0.862147059 1.78125,1.29417647 L1.78125,1.29417647 C-0.9625,3.4505 3.3775,11.1007059 3.3775,20.6252059 L3.3775,20.6252059 C3.3775,30.1484412 -0.7675,37.9542059 1.78125,39.9562353 L1.78125,39.9562353 C4.33,41.9595294 6.585,39.3972353 34.855,39.3972353 L34.855,39.3972353 C63.12375,39.3972353 65.07,42.2036176 67.92875,39.9562353 L67.92875,39.9562353 C70.78875,37.7088529 66.33125,31.6445882 66.33125,20.6252059 L66.33125,20.6252059 C66.33125,9.60455882 71.41875,4.03732353 67.92875,1.29417647 L67.92875,1.29417647 C66.905,0.488558824 65.9975,0.205264706 64.53375,0.205264706 L64.53375,0.205264706 C61.00875,0.205264706 54.255,1.85317647 34.855,1.85317647 L34.855,1.85317647 Z" id="path-3"></path> <path d="M34.1275,1.85317647 C6.67,1.85317647 3.7975,-0.862147059 1.05375,1.29417647 L1.05375,1.29417647 C-1.69125,3.4505 2.65,11.1007059 2.65,20.6252059 L2.65,20.6252059 C2.65,30.1484412 -1.49625,37.9542059 1.05375,39.9562353 L1.05375,39.9562353 C3.6,41.9595294 5.8575,39.3972353 34.1275,39.3972353 L34.1275,39.3972353 C62.39625,39.3972353 64.34125,42.2036176 67.2025,39.9562353 L67.2025,39.9562353 C70.06125,37.7088529 65.60375,31.6445882 65.60375,20.6252059 L65.60375,20.6252059 C65.60375,9.60455882 70.69125,4.03732353 67.2025,1.29417647 L67.2025,1.29417647 C66.1775,0.488558824 65.27,0.205264706 63.805,0.205264706 L63.805,0.205264706 C60.28,0.205264706 53.52625,1.85317647 34.1275,1.85317647 L34.1275,1.85317647 Z" id="path-5"></path> <polygon id="path-7" points="0.235657917 0.169869787 42.9224746 0.169869787 42.9224746 4.00425532 0.235657917 4.00425532"></polygon> <polygon id="path-9" points="0.512327083 0.733123404 40.8700719 0.733123404 40.8700719 40.4632826 0.512327083 40.4632826"></polygon> </defs> <g id="Page-1" stroke="none" stroke-width="1" fill="none" fill-rule="evenodd"> <g id="mark" transform="translate(-660.000000, -6660.000000)"> <g id="Group-11-Copy-10" transform="translate(197.000000, 6638.000000)"> <g id="Group-350" transform="translate(683.500000, 169.000000) scale(-1, 1) translate(-683.500000, -169.000000) translate(463.000000, 21.000000)"> <polygon id="Fill-1" fill="#D6D2CE" points="201 233 402 233 402 185 201 185"></polygon> <polygon id="Fill-2" fill="#D6D2CE" points="38 233 201 233 201 185 38 185"></polygon> <polygon id="Fill-3" fill="#F2EFEB" points="38 186 402 186 402 166 38 166"></polygon> <g id="Group-25"> <path d="M11.3942122,243.870261 C11.3942122,243.870261 11.3428457,257.980431 12.0093571,266.589515 C12.9164139,278.289041 13.8071838,280.170397 15.7941895,280.182966 C18.2773202,280.19799 20.8168287,274.032159 22.6071384,268.844634 C25.6164622,260.117651 26.6513088,243.870261 26.6513088,243.870261 L11.3942122,243.870261 Z" id="Fill-4" fill="#FFFFFF"></path> <path d="M428.811612,243.870261 C428.811612,243.870261 428.861726,257.980431 428.196467,266.589515 C427.288157,278.289041 426.39864,280.170397 424.411635,280.182966 C421.927251,280.19799 419.388995,274.032159 417.598686,268.844634 C414.589362,260.117651 413.553263,243.870261 413.553263,243.870261 L428.811612,243.870261 Z" id="Fill-6" fill="#FFFFFF"></path> <mask id="mask-2" fill="white"> <use xlink:href="#path-1"></use> </mask> <g id="Clip-9"></g> <polygon id="Fill-8" fill="#FFFFFF" mask="url(#mask-2)" points="0 243.870136 440.204446 243.870136 440.204446 232.83661 0 232.83661"></polygon> <path d="M11.5391659,247.341488 L25.5897767,247.341488 C26.3439869,244.965963 26.650933,243.869759 26.650933,243.869759 L11.3938364,243.869759 C11.3938364,243.869759 11.3737909,244.542031 11.5391659,247.341488" id="Fill-10" fill="#4F6266" mask="url(#mask-2)"></path> <path d="M413.553638,243.870261 C413.553638,243.870261 413.859332,244.966464 414.614795,247.34199 L428.665405,247.34199 C428.832033,244.542532 428.811988,243.870261 428.811988,243.870261 L413.553638,243.870261 Z" id="Fill-11" fill="#4F6266" mask="url(#mask-2)"></path> <path d="M174.603551,61.2159356 L64.750702,61.2159356 C50.063648,61.2159356 38.0451452,72.0312237 38.0451452,85.252139 L38.0451452,135.459258 L38.0451452,149.880478 L38.0451452,165.287529 L201.310361,165.287529 L201.310361,149.880478 L201.310361,135.459258 L201.310361,85.252139 C201.310361,72.0312237 189.293111,61.2159356 174.603551,61.2159356" id="Fill-12" fill="#E2E1E0" mask="url(#mask-2)"></path> <path d="M59.5416401,65.8892237 L179.814367,65.8892237 C185.219123,65.8892237 190.286864,67.1660373 194.610418,69.3810203 C189.706799,64.3828847 182.549319,61.2159356 174.603802,61.2159356 L64.7509526,61.2159356 C56.8066884,61.2159356 49.6492082,64.3828847 44.7455889,69.3810203 C49.0691429,67.1660373 54.1368844,65.8892237 59.5416401,65.8892237" id="Fill-13" fill="#F2EFEB" mask="url(#mask-2)"></path> <path d="M375.453869,61.2159356 L228.015793,61.2159356 C213.328739,61.2159356 201.310236,72.0312237 201.310236,85.252139 L201.310236,135.459258 L201.310236,149.880478 L201.310236,165.287529 L402.160679,165.287529 L402.160679,149.880478 L402.160679,135.459258 L402.160679,85.252139 C402.160679,72.0312237 390.142176,61.2159356 375.453869,61.2159356" id="Fill-14" fill="#E2E1E0" mask="url(#mask-2)"></path> <path d="M222.806104,65.8892237 L380.664059,65.8892237 C386.067562,65.8892237 391.136556,67.1660373 395.46011,69.3810203 C390.556491,64.3828847 383.399011,61.2159356 375.453493,61.2159356 L228.015417,61.2159356 C220.0699,61.2159356 212.913672,64.3828847 208.010053,69.3810203 C212.332354,67.1660373 217.401349,65.8892237 222.806104,65.8892237" id="Fill-15" fill="#F2EFEB" mask="url(#mask-2)"></path> <path d="M27.3293463,120.452936 L10.7166759,120.452936 C4.82331222,120.452936 -0.000125284091,124.606969 -0.000125284091,129.682868 L-0.000125284091,143.920969 L38.0461474,143.920969 L38.0461474,129.682868 C38.0461474,124.606969 33.2239628,120.452936 27.3293463,120.452936" id="Fill-16" fill="#F2EFEB" mask="url(#mask-2)"></path> <path d="M22.0383486,126.839763 L16.0059196,126.839763 C7.20220653,126.839763 -0.000375852273,134.050373 -0.000375852273,142.863898 L-0.000375852273,197.202475 L-0.000375852273,216.812475 L-0.000375852273,232.83661 L16.0059196,232.83661 L22.0383486,232.83661 L38.044644,232.83661 L38.044644,216.812475 L38.044644,197.202475 L38.044644,142.863898 C38.044644,134.050373 30.8420616,126.839763 22.0383486,126.839763" id="Fill-17" fill="#D6D2CE" mask="url(#mask-2)"></path> <path d="M429.489399,120.452936 L412.876728,120.452936 C406.982112,120.452936 402.159927,124.606969 402.159927,129.682868 L402.159927,143.920969 L440.204947,143.920969 L440.204947,129.682868 C440.204947,124.606969 435.384015,120.452936 429.489399,120.452936" id="Fill-18" fill="#F2EFEB" mask="url(#mask-2)"></path> <path d="M424.197274,126.839763 L418.166097,126.839763 C409.362384,126.839763 402.159802,134.050373 402.159802,142.863898 L402.159802,197.202475 L402.159802,216.812475 L402.159802,232.83661 L418.166097,232.83661 L424.197274,232.83661 L440.204822,232.83661 L440.204822,216.812475 L440.204822,197.202475 L440.204822,142.863898 C440.204822,134.050373 433.002239,126.839763 424.197274,126.839763" id="Fill-19" fill="#D6D2CE" mask="url(#mask-2)"></path> <path d="M250.117786,139.914936 C162.386348,155.22541 91.7824986,157.679953 38.0456463,131.625681 L38.0456463,135.459885 L38.0456463,149.879851 L38.0456463,165.286902 L201.309609,165.286902 L402.160053,165.286902 L402.160053,149.879851 L402.160053,135.459885 L402.160053,85.2515119 C402.160053,85.0458169 402.148777,84.8426305 402.143766,84.6369356 C376.246291,112.13358 323.147135,127.170631 250.117786,139.914936" id="Fill-20" fill="#D6D2CE" mask="url(#mask-2)"></path> <path d="M382.752545,140.006244 C382.752545,122.312719 389.164584,113.373769 384.764607,108.968888 C380.365883,104.565261 377.684803,109.865668 343.08259,109.865668 C308.482883,109.865668 304.86092,105.507193 301.403079,108.968888 C297.945238,112.430583 303.416394,124.717092 303.416394,140.006244 C303.416394,155.295397 298.192047,167.82899 301.403079,171.0436 C304.61411,174.259464 307.456806,170.14682 343.08259,170.14682 C378.709627,170.14682 381.160184,174.650786 384.764607,171.0436 C388.36903,167.436414 382.752545,157.699769 382.752545,140.006244" id="Fill-21" fill="#D6D2CE" mask="url(#mask-2)"></path> <path d="M380.700141,138.160383 C380.700141,120.468112 387.113433,111.527908 382.713456,107.124281 C378.314732,102.7194 375.634905,108.019807 341.032692,108.019807 C306.430479,108.019807 302.808516,103.661332 299.351928,107.124281 C295.894087,110.585976 301.36399,122.871231 301.36399,138.160383 C301.36399,153.449536 296.139643,165.983129 299.351928,169.198993 C302.562959,172.413603 305.405655,168.300959 341.032692,168.300959 C376.658476,168.300959 379.109033,172.80618 382.713456,169.198993 C386.317879,165.590553 380.700141,155.853908 380.700141,138.160383" id="Fill-22" fill="#E4F1F2" mask="url(#mask-2)"></path> <path d="M382.713456,107.124156 C382.333845,106.742868 381.966763,106.43558 381.589658,106.191003 C377.663254,132.498631 353.866794,152.734495 325.081521,152.734495 C316.385553,152.734495 308.149376,150.880732 300.775155,147.57958 C299.504774,158.411173 296.831212,166.674088 299.351928,169.198868 C302.562959,172.413478 305.405655,168.300834 341.032692,168.300834 C376.658476,168.300834 379.110286,172.806054 382.713456,169.198868 C386.317879,165.590427 380.700141,155.853783 380.700141,138.160258 C380.700141,120.467986 387.113433,111.527783 382.713456,107.124156" id="Fill-23" fill="#AFAFAF" mask="url(#mask-2)"></path> <path d="M332.463385,153.026356 C332.463385,142.098186 337.562448,136.574525 334.063263,133.855339 C330.565331,131.134898 328.434249,134.409712 300.914345,134.409712 C273.396948,134.409712 270.516666,131.716864 267.765428,133.855339 C265.016695,135.993814 269.366559,143.581949 269.366559,153.026356 C269.366559,162.470763 265.210885,170.211915 267.765428,172.198627 C270.318718,174.184085 272.581348,171.644254 300.914345,171.644254 C329.248595,171.644254 331.198016,174.426153 334.063263,172.198627 C336.929763,169.969847 332.463385,163.95578 332.463385,153.026356" id="Fill-24" fill="#D6D2CE" mask="url(#mask-2)"></path> </g> <g id="Group-123" transform="translate(264.000000, 132.000000)"> <mask id="mask-4" fill="white"> <use xlink:href="#path-3"></use> </mask> <g id="Clip-27"></g> <polygon id="Fill-26" fill="#F5F7F7" mask="url(#mask-4)" points="58.26 31.6762059 91.50375 31.6762059 91.50375 -1.95738235 58.26 -1.95738235"></polygon> <polygon id="Fill-28" fill="#364149" mask="url(#mask-4)" points="66.57525 3.91325588 58.26025 -4.49956765 49.94775 3.91325588 48.3015 2.24890294 58.26025 -7.82953824 68.22025 2.24890294"></polygon> <polygon id="Fill-29" fill="#364149" mask="url(#mask-4)" points="83.196875 3.91325588 74.881875 -4.49956765 66.568125 3.91325588 64.921875 2.24890294 74.881875 -7.82953824 84.841875 2.24890294"></polygon> <polygon id="Fill-30" fill="#364149" mask="url(#mask-4)" points="99.818 3.91325588 91.50425 -4.49956765 83.1905 3.91325588 81.543 2.24890294 91.50425 -7.82953824 101.463 2.24890294"></polygon> <polygon id="Fill-31" fill="#364149" mask="url(#mask-4)" points="66.57525 12.3215265 58.26025 3.90870294 49.94775 12.3215265 48.3015 10.6571735 58.26025 0.578732353 68.22025 10.6571735"></polygon> <polygon id="Fill-32" fill="#364149" mask="url(#mask-4)" points="83.196875 12.3215265 74.881875 3.90870294 66.568125 12.3215265 64.921875 10.6571735 74.881875 0.578732353 84.841875 10.6571735"></polygon> <polygon id="Fill-33" fill="#364149" mask="url(#mask-4)" points="99.818 12.3215265 91.50425 3.90870294 83.1905 12.3215265 81.543 10.6571735 91.50425 0.578732353 101.463 10.6571735"></polygon> <polygon id="Fill-34" fill="#364149" mask="url(#mask-4)" points="66.57525 20.7299235 58.26025 12.3171 49.94775 20.7299235 48.3015 19.0643059 58.26025 8.98712941 68.22025 19.0643059"></polygon> <polygon id="Fill-35" fill="#364149" mask="url(#mask-4)" points="83.196875 20.7299235 74.881875 12.3171 66.568125 20.7299235 64.921875 19.0643059 74.881875 8.98712941 84.841875 19.0643059"></polygon> <polygon id="Fill-36" fill="#364149" mask="url(#mask-4)" points="99.818 20.7299235 91.50425 12.3171 83.1905 20.7299235 81.543 19.0643059 91.50425 8.98712941 101.463 19.0643059"></polygon> <polygon id="Fill-37" fill="#364149" mask="url(#mask-4)" points="66.57525 29.1381941 58.26025 20.7266353 49.94775 29.1381941 48.3015 27.4725765 58.26025 17.3954 68.22025 27.4725765"></polygon> <polygon id="Fill-38" fill="#364149" mask="url(#mask-4)" points="83.196875 29.1381941 74.881875 20.7266353 66.568125 29.1381941 64.921875 27.4725765 74.881875 17.3954 84.841875 27.4725765"></polygon> <polygon id="Fill-39" fill="#364149" mask="url(#mask-4)" points="99.818 29.1381941 91.50425 20.7266353 83.1905 29.1381941 81.543 27.4725765 91.50425 17.3954 101.463 27.4725765"></polygon> <polygon id="Fill-40" fill="#364149" mask="url(#mask-4)" points="66.57525 37.5465912 58.26025 29.1350324 49.94775 37.5465912 48.3015 35.8809735 58.26025 25.8037971 68.22025 35.8809735"></polygon> <polygon id="Fill-41" fill="#364149" mask="url(#mask-4)" points="83.196875 37.5465912 74.881875 29.1350324 66.568125 37.5465912 64.921875 35.8809735 74.881875 25.8037971 84.841875 35.8809735"></polygon> <polygon id="Fill-42" fill="#364149" mask="url(#mask-4)" points="99.818 37.5465912 91.50425 29.1350324 83.1905 37.5465912 81.543 35.8809735 91.50425 25.8037971 101.463 35.8809735"></polygon> <polygon id="Fill-43" fill="#F5F7F7" mask="url(#mask-4)" points="58.26 65.3085294 91.50375 65.3085294 91.50375 31.6749412 58.26 31.6749412"></polygon> <polygon id="Fill-44" fill="#364149" mask="url(#mask-4)" points="66.57525 37.5465912 58.26025 29.1350324 49.94775 37.5465912 48.3015 35.8822382 58.26025 25.8037971 68.22025 35.8822382"></polygon> <polygon id="Fill-45" fill="#364149" mask="url(#mask-4)" points="83.196875 37.5465912 74.881875 29.1350324 66.568125 37.5465912 64.921875 35.8822382 74.881875 25.8037971 84.841875 35.8822382"></polygon> <polygon id="Fill-46" fill="#364149" mask="url(#mask-4)" points="99.818 37.5465912 91.50425 29.1350324 83.1905 37.5465912 81.543 35.8822382 91.50425 25.8037971 101.463 35.8822382"></polygon> <polygon id="Fill-47" fill="#364149" mask="url(#mask-4)" points="66.57525 45.9554941 58.26025 37.5426706 49.94775 45.9554941 48.3015 44.2911412 58.26025 34.2127 68.22025 44.2911412"></polygon> <polygon id="Fill-48" fill="#364149" mask="url(#mask-4)" points="83.196875 45.9554941 74.881875 37.5426706 66.568125 45.9554941 64.921875 44.2911412 74.881875 34.2127 84.841875 44.2911412"></polygon> <polygon id="Fill-49" fill="#364149" mask="url(#mask-4)" points="99.818 45.9554941 91.50425 37.5426706 83.1905 45.9554941 81.543 44.2911412 91.50425 34.2127 101.463 44.2911412"></polygon> <polygon id="Fill-50" fill="#364149" mask="url(#mask-4)" points="66.57525 54.3637647 58.26025 45.9509412 49.94775 54.3637647 48.3015 52.6981471 58.26025 42.6209706 68.22025 52.6981471"></polygon> <polygon id="Fill-51" fill="#364149" mask="url(#mask-4)" points="83.196875 54.3637647 74.881875 45.9509412 66.568125 54.3637647 64.921875 52.6981471 74.881875 42.6209706 84.841875 52.6981471"></polygon> <polygon id="Fill-52" fill="#364149" mask="url(#mask-4)" points="99.818 54.3637647 91.50425 45.9509412 83.1905 54.3637647 81.543 52.6981471 91.50425 42.6209706 101.463 52.6981471"></polygon> <polygon id="Fill-53" fill="#364149" mask="url(#mask-4)" points="66.57525 62.7721618 58.26025 54.3593382 49.94775 62.7721618 48.3015 61.1065441 58.26025 51.0293676 68.22025 61.1065441"></polygon> <polygon id="Fill-54" fill="#364149" mask="url(#mask-4)" points="83.196875 62.7721618 74.881875 54.3593382 66.568125 62.7721618 64.921875 61.1065441 74.881875 51.0293676 84.841875 61.1065441"></polygon> <polygon id="Fill-55" fill="#364149" mask="url(#mask-4)" points="99.818 62.7721618 91.50425 54.3593382 83.1905 62.7721618 81.543 61.1065441 91.50425 51.0293676 101.463 61.1065441"></polygon> <polygon id="Fill-56" fill="#364149" mask="url(#mask-4)" points="66.57525 71.1804324 58.26025 62.7688735 49.94775 71.1804324 48.3015 69.5148147 58.26025 59.4376382 68.22025 69.5148147"></polygon> <polygon id="Fill-57" fill="#364149" mask="url(#mask-4)" points="83.196875 71.1804324 74.881875 62.7688735 66.568125 71.1804324 64.921875 69.5148147 74.881875 59.4376382 84.841875 69.5148147"></polygon> <polygon id="Fill-58" fill="#364149" mask="url(#mask-4)" points="99.818 71.1804324 91.50425 62.7688735 83.1905 71.1804324 81.543 69.5148147 91.50425 59.4376382 101.463 69.5148147"></polygon> <polygon id="Fill-59" fill="#F5F7F7" mask="url(#mask-4)" points="25.01625 31.6762059 58.26 31.6762059 58.26 -1.95738235 25.01625 -1.95738235"></polygon> <polygon id="Fill-60" fill="#364149" mask="url(#mask-4)" points="33.331875 3.91325588 25.016875 -4.49956765 16.704375 3.91325588 15.058125 2.24890294 25.016875 -7.82953824 34.976875 2.24890294"></polygon> <polygon id="Fill-61" fill="#364149" mask="url(#mask-4)" points="49.9535 3.91325588 41.6385 -4.49956765 33.32475 3.91325588 31.6785 2.24890294 41.6385 -7.82953824 51.5985 2.24890294"></polygon> <polygon id="Fill-62" fill="#364149" mask="url(#mask-4)" points="66.57525 3.91325588 58.26025 -4.49956765 49.94775 3.91325588 48.30025 2.24890294 58.26025 -7.82953824 68.22025 2.24890294"></polygon> <polygon id="Fill-63" fill="#364149" mask="url(#mask-4)" points="33.331875 12.3215265 25.016875 3.90870294 16.704375 12.3215265 15.058125 10.6571735 25.016875 0.578732353 34.976875 10.6571735"></polygon> <polygon id="Fill-64" fill="#364149" mask="url(#mask-4)" points="49.9535 12.3215265 41.6385 3.90870294 33.32475 12.3215265 31.6785 10.6571735 41.6385 0.578732353 51.5985 10.6571735"></polygon> <polygon id="Fill-65" fill="#364149" mask="url(#mask-4)" points="66.57525 12.3215265 58.26025 3.90870294 49.94775 12.3215265 48.30025 10.6571735 58.26025 0.578732353 68.22025 10.6571735"></polygon> <polygon id="Fill-66" fill="#364149" mask="url(#mask-4)" points="33.331875 20.7299235 25.016875 12.3171 16.704375 20.7299235 15.058125 19.0643059 25.016875 8.98712941 34.976875 19.0643059"></polygon> <polygon id="Fill-67" fill="#364149" mask="url(#mask-4)" points="49.9535 20.7299235 41.6385 12.3171 33.32475 20.7299235 31.6785 19.0643059 41.6385 8.98712941 51.5985 19.0643059"></polygon> <polygon id="Fill-68" fill="#364149" mask="url(#mask-4)" points="66.57525 20.7299235 58.26025 12.3171 49.94775 20.7299235 48.30025 19.0643059 58.26025 8.98712941 68.22025 19.0643059"></polygon> <polygon id="Fill-69" fill="#364149" mask="url(#mask-4)" points="33.331875 29.1381941 25.016875 20.7266353 16.704375 29.1381941 15.058125 27.4725765 25.016875 17.3954 34.976875 27.4725765"></polygon> <polygon id="Fill-70" fill="#364149" mask="url(#mask-4)" points="49.9535 29.1381941 41.6385 20.7266353 33.32475 29.1381941 31.6785 27.4725765 41.6385 17.3954 51.5985 27.4725765"></polygon> <polygon id="Fill-71" fill="#364149" mask="url(#mask-4)" points="66.57525 29.1381941 58.26025 20.7266353 49.94775 29.1381941 48.30025 27.4725765 58.26025 17.3954 68.22025 27.4725765"></polygon> <polygon id="Fill-72" fill="#364149" mask="url(#mask-4)" points="33.331875 37.5465912 25.016875 29.1350324 16.704375 37.5465912 15.058125 35.8809735 25.016875 25.8037971 34.976875 35.8809735"></polygon> <polygon id="Fill-73" fill="#364149" mask="url(#mask-4)" points="49.9535 37.5465912 41.6385 29.1350324 33.32475 37.5465912 31.6785 35.8809735 41.6385 25.8037971 51.5985 35.8809735"></polygon> <polygon id="Fill-74" fill="#364149" mask="url(#mask-4)" points="66.57525 37.5465912 58.26025 29.1350324 49.94775 37.5465912 48.30025 35.8809735 58.26025 25.8037971 68.22025 35.8809735"></polygon> <polygon id="Fill-75" fill="#F5F7F7" mask="url(#mask-4)" points="25.01625 65.3085294 58.26 65.3085294 58.26 31.6749412 25.01625 31.6749412"></polygon> <polygon id="Fill-76" fill="#364149" mask="url(#mask-4)" points="33.331875 37.5465912 25.016875 29.1350324 16.704375 37.5465912 15.058125 35.8822382 25.016875 25.8037971 34.976875 35.8822382"></polygon> <polygon id="Fill-77" fill="#364149" mask="url(#mask-4)" points="49.9535 37.5465912 41.6385 29.1350324 33.32475 37.5465912 31.6785 35.8822382 41.6385 25.8037971 51.5985 35.8822382"></polygon> <polygon id="Fill-78" fill="#364149" mask="url(#mask-4)" points="66.57525 37.5465912 58.26025 29.1350324 49.94775 37.5465912 48.30025 35.8822382 58.26025 25.8037971 68.22025 35.8822382"></polygon> <polygon id="Fill-79" fill="#364149" mask="url(#mask-4)" points="33.331875 45.9554941 25.016875 37.5426706 16.704375 45.9554941 15.058125 44.2911412 25.016875 34.2127 34.976875 44.2911412"></polygon> <polygon id="Fill-80" fill="#364149" mask="url(#mask-4)" points="49.9535 45.9554941 41.6385 37.5426706 33.32475 45.9554941 31.6785 44.2911412 41.6385 34.2127 51.5985 44.2911412"></polygon> <polygon id="Fill-81" fill="#364149" mask="url(#mask-4)" points="66.57525 45.9554941 58.26025 37.5426706 49.94775 45.9554941 48.30025 44.2911412 58.26025 34.2127 68.22025 44.2911412"></polygon> <polygon id="Fill-82" fill="#364149" mask="url(#mask-4)" points="33.331875 54.3637647 25.016875 45.9509412 16.704375 54.3637647 15.058125 52.6981471 25.016875 42.6209706 34.976875 52.6981471"></polygon> <polygon id="Fill-83" fill="#364149" mask="url(#mask-4)" points="49.9535 54.3637647 41.6385 45.9509412 33.32475 54.3637647 31.6785 52.6981471 41.6385 42.6209706 51.5985 52.6981471"></polygon> <polygon id="Fill-84" fill="#364149" mask="url(#mask-4)" points="66.57525 54.3637647 58.26025 45.9509412 49.94775 54.3637647 48.30025 52.6981471 58.26025 42.6209706 68.22025 52.6981471"></polygon> <polygon id="Fill-85" fill="#364149" mask="url(#mask-4)" points="33.331875 62.7721618 25.016875 54.3593382 16.704375 62.7721618 15.058125 61.1065441 25.016875 51.0293676 34.976875 61.1065441"></polygon> <polygon id="Fill-86" fill="#364149" mask="url(#mask-4)" points="49.9535 62.7721618 41.6385 54.3593382 33.32475 62.7721618 31.6785 61.1065441 41.6385 51.0293676 51.5985 61.1065441"></polygon> <polygon id="Fill-87" fill="#364149" mask="url(#mask-4)" points="66.57525 62.7721618 58.26025 54.3593382 49.94775 62.7721618 48.30025 61.1065441 58.26025 51.0293676 68.22025 61.1065441"></polygon> <polygon id="Fill-88" fill="#364149" mask="url(#mask-4)" points="33.331875 71.1804324 25.016875 62.7688735 16.704375 71.1804324 15.058125 69.5148147 25.016875 59.4376382 34.976875 69.5148147"></polygon> <polygon id="Fill-89" fill="#364149" mask="url(#mask-4)" points="49.9535 71.1804324 41.6385 62.7688735 33.32475 71.1804324 31.6785 69.5148147 41.6385 59.4376382 51.5985 69.5148147"></polygon> <polygon id="Fill-90" fill="#364149" mask="url(#mask-4)" points="66.57525 71.1804324 58.26025 62.7688735 49.94775 71.1804324 48.30025 69.5148147 58.26025 59.4376382 68.22025 69.5148147"></polygon> <polygon id="Fill-91" fill="#F5F7F7" mask="url(#mask-4)" points="-8.22625 31.6762059 25.0175 31.6762059 25.0175 -1.95738235 -8.22625 -1.95738235"></polygon> <polygon id="Fill-92" fill="#364149" mask="url(#mask-4)" points="0.088375 3.91325588 -8.226625 -4.49956765 -16.539125 3.91325588 -18.185375 2.24890294 -8.226625 -7.82953824 1.733375 2.24890294"></polygon> <polygon id="Fill-93" fill="#364149" mask="url(#mask-4)" points="16.710125 3.91325588 8.395125 -4.49956765 0.081375 3.91325588 -1.564875 2.24890294 8.395125 -7.82953824 18.355125 2.24890294"></polygon> <polygon id="Fill-94" fill="#364149" mask="url(#mask-4)" points="33.331875 3.91325588 25.016875 -4.49956765 16.704375 3.91325588 15.056875 2.24890294 25.016875 -7.82953824 34.976875 2.24890294"></polygon> <polygon id="Fill-95" fill="#364149" mask="url(#mask-4)" points="0.088375 12.3215265 -8.226625 3.90870294 -16.539125 12.3215265 -18.185375 10.6571735 -8.226625 0.578732353 1.733375 10.6571735"></polygon> <polygon id="Fill-96" fill="#364149" mask="url(#mask-4)" points="16.710125 12.3215265 8.395125 3.90870294 0.081375 12.3215265 -1.564875 10.6571735 8.395125 0.578732353 18.355125 10.6571735"></polygon> <polygon id="Fill-97" fill="#364149" mask="url(#mask-4)" points="33.331875 12.3215265 25.016875 3.90870294 16.704375 12.3215265 15.056875 10.6571735 25.016875 0.578732353 34.976875 10.6571735"></polygon> <polygon id="Fill-98" fill="#364149" mask="url(#mask-4)" points="0.088375 20.7299235 -8.226625 12.3171 -16.539125 20.7299235 -18.185375 19.0643059 -8.226625 8.98712941 1.733375 19.0643059"></polygon> <polygon id="Fill-99" fill="#364149" mask="url(#mask-4)" points="16.710125 20.7299235 8.395125 12.3171 0.081375 20.7299235 -1.564875 19.0643059 8.395125 8.98712941 18.355125 19.0643059"></polygon> <polygon id="Fill-100" fill="#364149" mask="url(#mask-4)" points="33.331875 20.7299235 25.016875 12.3171 16.704375 20.7299235 15.056875 19.0643059 25.016875 8.98712941 34.976875 19.0643059"></polygon> <polygon id="Fill-101" fill="#364149" mask="url(#mask-4)" points="0.088375 29.1381941 -8.226625 20.7266353 -16.539125 29.1381941 -18.185375 27.4725765 -8.226625 17.3954 1.733375 27.4725765"></polygon> <polygon id="Fill-102" fill="#364149" mask="url(#mask-4)" points="16.710125 29.1381941 8.395125 20.7266353 0.081375 29.1381941 -1.564875 27.4725765 8.395125 17.3954 18.355125 27.4725765"></polygon> <polygon id="Fill-103" fill="#364149" mask="url(#mask-4)" points="33.331875 29.1381941 25.016875 20.7266353 16.704375 29.1381941 15.056875 27.4725765 25.016875 17.3954 34.976875 27.4725765"></polygon> <polygon id="Fill-104" fill="#364149" mask="url(#mask-4)" points="0.088375 37.5465912 -8.226625 29.1350324 -16.539125 37.5465912 -18.185375 35.8809735 -8.226625 25.8037971 1.733375 35.8809735"></polygon> <polygon id="Fill-105" fill="#364149" mask="url(#mask-4)" points="16.710125 37.5465912 8.395125 29.1350324 0.081375 37.5465912 -1.564875 35.8809735 8.395125 25.8037971 18.355125 35.8809735"></polygon> <polygon id="Fill-106" fill="#364149" mask="url(#mask-4)" points="33.331875 37.5465912 25.016875 29.1350324 16.704375 37.5465912 15.056875 35.8809735 25.016875 25.8037971 34.976875 35.8809735"></polygon> <polygon id="Fill-107" fill="#F5F7F7" mask="url(#mask-4)" points="-8.22625 65.3085294 25.0175 65.3085294 25.0175 31.6749412 -8.22625 31.6749412"></polygon> <polygon id="Fill-108" fill="#364149" mask="url(#mask-4)" points="0.088375 37.5465912 -8.226625 29.1350324 -16.539125 37.5465912 -18.185375 35.8822382 -8.226625 25.8037971 1.733375 35.8822382"></polygon> <polygon id="Fill-109" fill="#364149" mask="url(#mask-4)" points="16.710125 37.5465912 8.395125 29.1350324 0.081375 37.5465912 -1.564875 35.8822382 8.395125 25.8037971 18.355125 35.8822382"></polygon> <polygon id="Fill-110" fill="#364149" mask="url(#mask-4)" points="33.331875 37.5465912 25.016875 29.1350324 16.704375 37.5465912 15.056875 35.8822382 25.016875 25.8037971 34.976875 35.8822382"></polygon> <polygon id="Fill-111" fill="#364149" mask="url(#mask-4)" points="0.088375 45.9554941 -8.226625 37.5426706 -16.539125 45.9554941 -18.185375 44.2911412 -8.226625 34.2127 1.733375 44.2911412"></polygon> <polygon id="Fill-112" fill="#364149" mask="url(#mask-4)" points="16.710125 45.9554941 8.395125 37.5426706 0.081375 45.9554941 -1.564875 44.2911412 8.395125 34.2127 18.355125 44.2911412"></polygon> <polygon id="Fill-113" fill="#364149" mask="url(#mask-4)" points="33.331875 45.9554941 25.016875 37.5426706 16.704375 45.9554941 15.056875 44.2911412 25.016875 34.2127 34.976875 44.2911412"></polygon> <polygon id="Fill-114" fill="#364149" mask="url(#mask-4)" points="0.088375 54.3637647 -8.226625 45.9509412 -16.539125 54.3637647 -18.185375 52.6981471 -8.226625 42.6209706 1.733375 52.6981471"></polygon> <polygon id="Fill-115" fill="#364149" mask="url(#mask-4)" points="16.710125 54.3637647 8.395125 45.9509412 0.081375 54.3637647 -1.564875 52.6981471 8.395125 42.6209706 18.355125 52.6981471"></polygon> <polygon id="Fill-116" fill="#364149" mask="url(#mask-4)" points="33.331875 54.3637647 25.016875 45.9509412 16.704375 54.3637647 15.056875 52.6981471 25.016875 42.6209706 34.976875 52.6981471"></polygon> <polygon id="Fill-117" fill="#364149" mask="url(#mask-4)" points="0.088375 62.7721618 -8.226625 54.3593382 -16.539125 62.7721618 -18.185375 61.1065441 -8.226625 51.0293676 1.733375 61.1065441"></polygon> <polygon id="Fill-118" fill="#364149" mask="url(#mask-4)" points="16.710125 62.7721618 8.395125 54.3593382 0.081375 62.7721618 -1.564875 61.1065441 8.395125 51.0293676 18.355125 61.1065441"></polygon> <polygon id="Fill-119" fill="#364149" mask="url(#mask-4)" points="33.331875 62.7721618 25.016875 54.3593382 16.704375 62.7721618 15.056875 61.1065441 25.016875 51.0293676 34.976875 61.1065441"></polygon> <polygon id="Fill-120" fill="#364149" mask="url(#mask-4)" points="0.088375 71.1804324 -8.226625 62.7688735 -16.539125 71.1804324 -18.185375 69.5148147 -8.226625 59.4376382 1.733375 69.5148147"></polygon> <polygon id="Fill-121" fill="#364149" mask="url(#mask-4)" points="16.710125 71.1804324 8.395125 62.7688735 0.081375 71.1804324 -1.564875 69.5148147 8.395125 59.4376382 18.355125 69.5148147"></polygon> <polygon id="Fill-122" fill="#364149" mask="url(#mask-4)" points="33.331875 71.1804324 25.016875 62.7688735 16.704375 71.1804324 15.056875 69.5148147 25.016875 59.4376382 34.976875 69.5148147"></polygon> </g> <g id="Group-134" transform="translate(51.000000, 106.000000)"> <path d="M280.925961,27.4689778 C280.622925,27.2334963 280.33116,27.0433481 280.030629,26.8909778 C276.910115,43.2059407 257.995447,55.7544593 235.112518,55.7544593 C228.201558,55.7544593 221.654992,54.6060148 215.790881,52.5572 C214.78285,59.2753481 212.656593,64.4005333 214.661385,65.9657926 C217.213394,67.9592 219.472385,65.4092 247.793673,65.4092 C276.111204,65.4092 278.060899,68.202237 280.925961,65.9657926 C283.78977,63.7268296 279.325633,57.6899407 279.325633,46.7167556 C279.325633,35.7435704 284.422138,30.2003111 280.925961,27.4689778" id="Fill-124" fill="#AFAFAF"></path> <path d="M85.0604084,34.7890519 C85.0604084,17.0246815 91.4692314,8.04994074 87.0714615,3.62742222 C82.676196,-0.793837037 79.9964615,4.52779259 45.4116075,4.52779259 C10.8280058,4.52779259 7.20911195,0.151866667 3.75175354,3.62742222 C0.295647345,7.10297778 5.76405885,19.4386815 5.76405885,34.7890519 C5.76405885,50.1394222 0.542333186,62.7232 3.75175354,65.9506815 C6.96117389,69.1794222 9.80369602,65.0503111 45.4116075,65.0503111 C81.0207712,65.0503111 83.4700987,69.5723111 87.0714615,65.9506815 C90.6740765,62.3290519 85.0604084,52.5534222 85.0604084,34.7890519" id="Fill-126" fill="#D6D2CE"></path> <path d="M83.0102863,32.9358 C83.0102863,15.1726889 89.4191093,6.19668889 85.0225916,1.77542963 C80.6248217,-2.64708889 77.9475916,2.67454074 43.3614854,2.67454074 C8.77788363,2.67454074 5.15773761,-1.70138519 1.70163142,1.77542963 C-1.75447478,5.25098519 3.71393673,17.5854296 3.71393673,32.9358 C3.71393673,48.2861704 -1.50778894,60.8699481 1.70163142,64.0986889 C4.91105177,67.3261704 7.75357389,63.1970593 43.3614854,63.1970593 C78.9706491,63.1970593 81.4199765,67.7203185 85.0225916,64.0986889 C88.6239544,60.4758 83.0102863,50.7001704 83.0102863,32.9358" id="Fill-128" fill="#E4F1F2"></path> <path d="M85.0225916,1.7753037 C84.641919,1.39248889 84.2750208,1.08397037 83.8993571,0.838414815 C79.9736712,27.2513778 56.1891491,47.5682667 27.4183173,47.5682667 C18.7279633,47.5682667 10.495919,45.7070815 3.12414469,42.3927111 C1.85565354,53.2676741 -0.816567699,61.5636741 1.70163142,64.098563 C4.91105177,67.3260444 7.75357389,63.1969333 43.3614854,63.1969333 C78.9706491,63.1969333 81.4212288,67.7201926 85.0225916,64.098563 C88.6239544,60.4756741 83.0102863,50.7000444 83.0102863,32.9356741 C83.0102863,15.172563 89.4191093,6.19656296 85.0225916,1.7753037" id="Fill-130" fill="#AFAFAF"></path> <path d="M117.188797,47.8612963 C117.188797,36.8893704 122.285302,31.3435926 118.787873,28.6135185 C115.291696,25.8821852 113.161682,29.1701111 85.655585,29.1701111 C58.1507398,29.1701111 55.2719035,26.4664815 52.5232973,28.6135185 C49.7746912,30.7605556 54.1236248,38.3790741 54.1236248,47.8612963 C54.1236248,57.3435185 49.9700363,65.1156667 52.5232973,67.1103333 C55.0753062,69.1037407 57.3368018,66.5537407 85.655585,66.5537407 C113.97562,66.5537407 115.924063,69.3467778 118.787873,67.1103333 C121.652935,64.8726296 117.188797,58.8344815 117.188797,47.8612963" id="Fill-132" fill="#D6D2CE"></path> </g> <g id="Group-232" transform="translate(101.000000, 132.000000)"> <mask id="mask-6" fill="white"> <use xlink:href="#path-5"></use> </mask> <g id="Clip-136"></g> <polygon id="Fill-135" fill="#F5F7F7" mask="url(#mask-6)" points="54.79375 31.6762059 59.05 31.6762059 59.05 -1.95738235 54.79375 -1.95738235"></polygon> <polygon id="Fill-137" fill="#364149" mask="url(#mask-6)" points="67.365375 3.91325588 59.050375 -4.49956765 50.737875 3.91325588 49.091625 2.24890294 59.050375 -7.82953824 69.010375 2.24890294"></polygon> <polygon id="Fill-138" fill="#364149" mask="url(#mask-6)" points="83.987125 3.91325588 75.672125 -4.49956765 67.358375 3.91325588 65.712125 2.24890294 75.672125 -7.82953824 85.632125 2.24890294"></polygon> <polygon id="Fill-139" fill="#364149" mask="url(#mask-6)" points="63.10875 3.91325588 54.79375 -4.49956765 83.98125 3.91325588 82.33375 2.24890294 54.79375 -7.82953824 64.75375 2.24890294"></polygon> <polygon id="Fill-140" fill="#364149" mask="url(#mask-6)" points="67.365375 12.3215265 59.050375 3.90870294 50.737875 12.3215265 49.091625 10.6571735 59.050375 0.578732353 69.010375 10.6571735"></polygon> <polygon id="Fill-141" fill="#364149" mask="url(#mask-6)" points="83.987125 12.3215265 75.672125 3.90870294 67.358375 12.3215265 65.712125 10.6571735 75.672125 0.578732353 85.632125 10.6571735"></polygon> <polygon id="Fill-142" fill="#364149" mask="url(#mask-6)" points="63.10875 12.3215265 54.79375 3.90870294 83.98125 12.3215265 82.33375 10.6571735 54.79375 0.578732353 64.75375 10.6571735"></polygon> <polygon id="Fill-143" fill="#364149" mask="url(#mask-6)" points="67.365375 20.7299235 59.050375 12.3171 50.737875 20.7299235 49.091625 19.0643059 59.050375 8.98712941 69.010375 19.0643059"></polygon> <polygon id="Fill-144" fill="#364149" mask="url(#mask-6)" points="83.987125 20.7299235 75.672125 12.3171 67.358375 20.7299235 65.712125 19.0643059 75.672125 8.98712941 85.632125 19.0643059"></polygon> <polygon id="Fill-145" fill="#364149" mask="url(#mask-6)" points="63.10875 20.7299235 54.79375 12.3171 83.98125 20.7299235 82.33375 19.0643059 54.79375 8.98712941 64.75375 19.0643059"></polygon> <polygon id="Fill-146" fill="#364149" mask="url(#mask-6)" points="67.365375 29.1381941 59.050375 20.7266353 50.737875 29.1381941 49.091625 27.4725765 59.050375 17.3954 69.010375 27.4725765"></polygon> <polygon id="Fill-147" fill="#364149" mask="url(#mask-6)" points="83.987125 29.1381941 75.672125 20.7266353 67.358375 29.1381941 65.712125 27.4725765 75.672125 17.3954 85.632125 27.4725765"></polygon> <polygon id="Fill-148" fill="#364149" mask="url(#mask-6)" points="63.10875 29.1381941 54.79375 20.7266353 83.98125 29.1381941 82.33375 27.4725765 54.79375 17.3954 64.75375 27.4725765"></polygon> <polygon id="Fill-149" fill="#364149" mask="url(#mask-6)" points="67.365375 37.5465912 59.050375 29.1350324 50.737875 37.5465912 49.091625 35.8809735 59.050375 25.8037971 69.010375 35.8809735"></polygon> <polygon id="Fill-150" fill="#364149" mask="url(#mask-6)" points="83.987125 37.5465912 75.672125 29.1350324 67.358375 37.5465912 65.712125 35.8809735 75.672125 25.8037971 85.632125 35.8809735"></polygon> <polygon id="Fill-151" fill="#364149" mask="url(#mask-6)" points="63.10875 37.5465912 54.79375 29.1350324 83.98125 37.5465912 82.33375 35.8809735 54.79375 25.8037971 64.75375 35.8809735"></polygon> <polygon id="Fill-152" fill="#F5F7F7" mask="url(#mask-6)" points="54.79375 65.3085294 59.05 65.3085294 59.05 31.6749412 54.79375 31.6749412"></polygon> <polygon id="Fill-153" fill="#364149" mask="url(#mask-6)" points="67.365375 37.5465912 59.050375 29.1350324 50.737875 37.5465912 49.091625 35.8822382 59.050375 25.8037971 69.010375 35.8822382"></polygon> <polygon id="Fill-154" fill="#364149" mask="url(#mask-6)" points="83.987125 37.5465912 75.672125 29.1350324 67.358375 37.5465912 65.712125 35.8822382 75.672125 25.8037971 85.632125 35.8822382"></polygon> <polygon id="Fill-155" fill="#364149" mask="url(#mask-6)" points="63.10875 37.5465912 54.79375 29.1350324 83.98125 37.5465912 82.33375 35.8822382 54.79375 25.8037971 64.75375 35.8822382"></polygon> <polygon id="Fill-156" fill="#364149" mask="url(#mask-6)" points="67.365375 45.9554941 59.050375 37.5426706 50.737875 45.9554941 49.091625 44.2911412 59.050375 34.2127 69.010375 44.2911412"></polygon> <polygon id="Fill-157" fill="#364149" mask="url(#mask-6)" points="83.987125 45.9554941 75.672125 37.5426706 67.358375 45.9554941 65.712125 44.2911412 75.672125 34.2127 85.632125 44.2911412"></polygon> <polygon id="Fill-158" fill="#364149" mask="url(#mask-6)" points="63.10875 45.9554941 54.79375 37.5426706 83.98125 45.9554941 82.33375 44.2911412 54.79375 34.2127 64.75375 44.2911412"></polygon> <polygon id="Fill-159" fill="#364149" mask="url(#mask-6)" points="67.365375 54.3637647 59.050375 45.9509412 50.737875 54.3637647 49.091625 52.6981471 59.050375 42.6209706 69.010375 52.6981471"></polygon> <polygon id="Fill-160" fill="#364149" mask="url(#mask-6)" points="83.987125 54.3637647 75.672125 45.9509412 67.358375 54.3637647 65.712125 52.6981471 75.672125 42.6209706 85.632125 52.6981471"></polygon> <polygon id="Fill-161" fill="#364149" mask="url(#mask-6)" points="63.10875 54.3637647 54.79375 45.9509412 83.98125 54.3637647 82.33375 52.6981471 54.79375 42.6209706 64.75375 52.6981471"></polygon> <polygon id="Fill-162" fill="#364149" mask="url(#mask-6)" points="67.365375 62.7721618 59.050375 54.3593382 50.737875 62.7721618 49.091625 61.1065441 59.050375 51.0293676 69.010375 61.1065441"></polygon> <polygon id="Fill-163" fill="#364149" mask="url(#mask-6)" points="83.987125 62.7721618 75.672125 54.3593382 67.358375 62.7721618 65.712125 61.1065441 75.672125 51.0293676 85.632125 61.1065441"></polygon> <polygon id="Fill-164" fill="#364149" mask="url(#mask-6)" points="63.10875 62.7721618 54.79375 54.3593382 83.98125 62.7721618 82.33375 61.1065441 54.79375 51.0293676 64.75375 61.1065441"></polygon> <polygon id="Fill-165" fill="#364149" mask="url(#mask-6)" points="67.365375 71.1804324 59.050375 62.7688735 50.737875 71.1804324 49.091625 69.5148147 59.050375 59.4376382 69.010375 69.5148147"></polygon> <polygon id="Fill-166" fill="#364149" mask="url(#mask-6)" points="83.987125 71.1804324 75.672125 62.7688735 67.358375 71.1804324 65.712125 69.5148147 75.672125 59.4376382 85.632125 69.5148147"></polygon> <polygon id="Fill-167" fill="#364149" mask="url(#mask-6)" points="63.10875 71.1804324 54.79375 62.7688735 83.98125 71.1804324 82.33375 69.5148147 54.79375 59.4376382 64.75375 69.5148147"></polygon> <polygon id="Fill-168" fill="#F5F7F7" mask="url(#mask-6)" points="25.80625 31.6762059 59.05 31.6762059 59.05 -1.95738235 25.80625 -1.95738235"></polygon> <polygon id="Fill-169" fill="#364149" mask="url(#mask-6)" points="34.121375 3.91325588 25.807625 -4.49956765 17.493875 3.91325588 15.847625 2.24890294 25.807625 -7.82953824 35.766375 2.24890294"></polygon> <polygon id="Fill-170" fill="#364149" mask="url(#mask-6)" points="50.743125 3.91325588 42.428125 -4.49956765 34.115625 3.91325588 32.468125 2.24890294 42.428125 -7.82953824 52.388125 2.24890294"></polygon> <polygon id="Fill-171" fill="#364149" mask="url(#mask-6)" points="67.36475 3.91325588 59.051 -4.49956765 50.73725 3.91325588 49.08975 2.24890294 59.051 -7.82953824 69.00975 2.24890294"></polygon> <polygon id="Fill-172" fill="#364149" mask="url(#mask-6)" points="34.121375 12.3215265 25.807625 3.90870294 17.493875 12.3215265 15.847625 10.6571735 25.807625 0.578732353 35.766375 10.6571735"></polygon> <polygon id="Fill-173" fill="#364149" mask="url(#mask-6)" points="50.743125 12.3215265 42.428125 3.90870294 34.115625 12.3215265 32.468125 10.6571735 42.428125 0.578732353 52.388125 10.6571735"></polygon> <polygon id="Fill-174" fill="#364149" mask="url(#mask-6)" points="67.36475 12.3215265 59.051 3.90870294 50.73725 12.3215265 49.08975 10.6571735 59.051 0.578732353 69.00975 10.6571735"></polygon> <polygon id="Fill-175" fill="#364149" mask="url(#mask-6)" points="34.121375 20.7299235 25.807625 12.3171 17.493875 20.7299235 15.847625 19.0643059 25.807625 8.98712941 35.766375 19.0643059"></polygon> <polygon id="Fill-176" fill="#364149" mask="url(#mask-6)" points="50.743125 20.7299235 42.428125 12.3171 34.115625 20.7299235 32.468125 19.0643059 42.428125 8.98712941 52.388125 19.0643059"></polygon> <polygon id="Fill-177" fill="#364149" mask="url(#mask-6)" points="67.36475 20.7299235 59.051 12.3171 50.73725 20.7299235 49.08975 19.0643059 59.051 8.98712941 69.00975 19.0643059"></polygon> <polygon id="Fill-178" fill="#364149" mask="url(#mask-6)" points="34.121375 29.1381941 25.807625 20.7266353 17.493875 29.1381941 15.847625 27.4725765 25.807625 17.3954 35.766375 27.4725765"></polygon> <polygon id="Fill-179" fill="#364149" mask="url(#mask-6)" points="50.743125 29.1381941 42.428125 20.7266353 34.115625 29.1381941 32.468125 27.4725765 42.428125 17.3954 52.388125 27.4725765"></polygon> <polygon id="Fill-180" fill="#364149" mask="url(#mask-6)" points="67.36475 29.1381941 59.051 20.7266353 50.73725 29.1381941 49.08975 27.4725765 59.051 17.3954 69.00975 27.4725765"></polygon> <polygon id="Fill-181" fill="#364149" mask="url(#mask-6)" points="34.121375 37.5465912 25.807625 29.1350324 17.493875 37.5465912 15.847625 35.8809735 25.807625 25.8037971 35.766375 35.8809735"></polygon> <polygon id="Fill-182" fill="#364149" mask="url(#mask-6)" points="50.743125 37.5465912 42.428125 29.1350324 34.115625 37.5465912 32.468125 35.8809735 42.428125 25.8037971 52.388125 35.8809735"></polygon> <polygon id="Fill-183" fill="#364149" mask="url(#mask-6)" points="67.36475 37.5465912 59.051 29.1350324 50.73725 37.5465912 49.08975 35.8809735 59.051 25.8037971 69.00975 35.8809735"></polygon> <polygon id="Fill-184" fill="#F5F7F7" mask="url(#mask-6)" points="25.80625 65.3085294 59.05 65.3085294 59.05 31.6749412 25.80625 31.6749412"></polygon> <polygon id="Fill-185" fill="#364149" mask="url(#mask-6)" points="34.121375 37.5465912 25.807625 29.1350324 17.493875 37.5465912 15.847625 35.8822382 25.807625 25.8037971 35.766375 35.8822382"></polygon> <polygon id="Fill-186" fill="#364149" mask="url(#mask-6)" points="50.743125 37.5465912 42.428125 29.1350324 34.115625 37.5465912 32.468125 35.8822382 42.428125 25.8037971 52.388125 35.8822382"></polygon> <polygon id="Fill-187" fill="#364149" mask="url(#mask-6)" points="67.36475 37.5465912 59.051 29.1350324 50.73725 37.5465912 49.08975 35.8822382 59.051 25.8037971 69.00975 35.8822382"></polygon> <polygon id="Fill-188" fill="#364149" mask="url(#mask-6)" points="34.121375 45.9554941 25.807625 37.5426706 17.493875 45.9554941 15.847625 44.2911412 25.807625 34.2127 35.766375 44.2911412"></polygon> <polygon id="Fill-189" fill="#364149" mask="url(#mask-6)" points="50.743125 45.9554941 42.428125 37.5426706 34.115625 45.9554941 32.468125 44.2911412 42.428125 34.2127 52.388125 44.2911412"></polygon> <polygon id="Fill-190" fill="#364149" mask="url(#mask-6)" points="67.36475 45.9554941 59.051 37.5426706 50.73725 45.9554941 49.08975 44.2911412 59.051 34.2127 69.00975 44.2911412"></polygon> <polygon id="Fill-191" fill="#364149" mask="url(#mask-6)" points="34.121375 54.3637647 25.807625 45.9509412 17.493875 54.3637647 15.847625 52.6981471 25.807625 42.6209706 35.766375 52.6981471"></polygon> <polygon id="Fill-192" fill="#364149" mask="url(#mask-6)" points="50.743125 54.3637647 42.428125 45.9509412 34.115625 54.3637647 32.468125 52.6981471 42.428125 42.6209706 52.388125 52.6981471"></polygon> <polygon id="Fill-193" fill="#364149" mask="url(#mask-6)" points="67.36475 54.3637647 59.051 45.9509412 50.73725 54.3637647 49.08975 52.6981471 59.051 42.6209706 69.00975 52.6981471"></polygon> <polygon id="Fill-194" fill="#364149" mask="url(#mask-6)" points="34.121375 62.7721618 25.807625 54.3593382 17.493875 62.7721618 15.847625 61.1065441 25.807625 51.0293676 35.766375 61.1065441"></polygon> <polygon id="Fill-195" fill="#364149" mask="url(#mask-6)" points="50.743125 62.7721618 42.428125 54.3593382 34.115625 62.7721618 32.468125 61.1065441 42.428125 51.0293676 52.388125 61.1065441"></polygon> <polygon id="Fill-196" fill="#364149" mask="url(#mask-6)" points="67.36475 62.7721618 59.051 54.3593382 50.73725 62.7721618 49.08975 61.1065441 59.051 51.0293676 69.00975 61.1065441"></polygon> <polygon id="Fill-197" fill="#364149" mask="url(#mask-6)" points="34.121375 71.1804324 25.807625 62.7688735 17.493875 71.1804324 15.847625 69.5148147 25.807625 59.4376382 35.766375 69.5148147"></polygon> <polygon id="Fill-198" fill="#364149" mask="url(#mask-6)" points="50.743125 71.1804324 42.428125 62.7688735 34.115625 71.1804324 32.468125 69.5148147 42.428125 59.4376382 52.388125 69.5148147"></polygon> <polygon id="Fill-199" fill="#364149" mask="url(#mask-6)" points="67.36475 71.1804324 59.051 62.7688735 50.73725 71.1804324 49.08975 69.5148147 59.051 59.4376382 69.00975 69.5148147"></polygon> <polygon id="Fill-200" fill="#F5F7F7" mask="url(#mask-6)" points="-7.43625 31.6762059 25.8075 31.6762059 25.8075 -1.95738235 -7.43625 -1.95738235"></polygon> <polygon id="Fill-201" fill="#364149" mask="url(#mask-6)" points="0.878625 3.91325588 -7.436375 -4.49956765 -15.748875 3.91325588 -17.395125 2.24890294 -7.436375 -7.82953824 2.523625 2.24890294"></polygon> <polygon id="Fill-202" fill="#364149" mask="url(#mask-6)" points="17.50025 3.91325588 9.18525 -4.49956765 0.8715 3.91325588 -0.77475 2.24890294 9.18525 -7.82953824 19.14525 2.24890294"></polygon> <polygon id="Fill-203" fill="#364149" mask="url(#mask-6)" points="34.121375 3.91325588 25.807625 -4.49956765 17.493875 3.91325588 15.846375 2.24890294 25.807625 -7.82953824 35.766375 2.24890294"></polygon> <polygon id="Fill-204" fill="#364149" mask="url(#mask-6)" points="0.878625 12.3215265 -7.436375 3.90870294 -15.748875 12.3215265 -17.395125 10.6571735 -7.436375 0.578732353 2.523625 10.6571735"></polygon> <polygon id="Fill-205" fill="#364149" mask="url(#mask-6)" points="17.50025 12.3215265 9.18525 3.90870294 0.8715 12.3215265 -0.77475 10.6571735 9.18525 0.578732353 19.14525 10.6571735"></polygon> <polygon id="Fill-206" fill="#364149" mask="url(#mask-6)" points="34.121375 12.3215265 25.807625 3.90870294 17.493875 12.3215265 15.846375 10.6571735 25.807625 0.578732353 35.766375 10.6571735"></polygon> <polygon id="Fill-207" fill="#364149" mask="url(#mask-6)" points="0.878625 20.7299235 -7.436375 12.3171 -15.748875 20.7299235 -17.395125 19.0643059 -7.436375 8.98712941 2.523625 19.0643059"></polygon> <polygon id="Fill-208" fill="#364149" mask="url(#mask-6)" points="17.50025 20.7299235 9.18525 12.3171 0.8715 20.7299235 -0.77475 19.0643059 9.18525 8.98712941 19.14525 19.0643059"></polygon> <polygon id="Fill-209" fill="#364149" mask="url(#mask-6)" points="34.121375 20.7299235 25.807625 12.3171 17.493875 20.7299235 15.846375 19.0643059 25.807625 8.98712941 35.766375 19.0643059"></polygon> <polygon id="Fill-210" fill="#364149" mask="url(#mask-6)" points="0.878625 29.1381941 -7.436375 20.7266353 -15.748875 29.1381941 -17.395125 27.4725765 -7.436375 17.3954 2.523625 27.4725765"></polygon> <polygon id="Fill-211" fill="#364149" mask="url(#mask-6)" points="17.50025 29.1381941 9.18525 20.7266353 0.8715 29.1381941 -0.77475 27.4725765 9.18525 17.3954 19.14525 27.4725765"></polygon> <polygon id="Fill-212" fill="#364149" mask="url(#mask-6)" points="34.121375 29.1381941 25.807625 20.7266353 17.493875 29.1381941 15.846375 27.4725765 25.807625 17.3954 35.766375 27.4725765"></polygon> <polygon id="Fill-213" fill="#364149" mask="url(#mask-6)" points="0.878625 37.5465912 -7.436375 29.1350324 -15.748875 37.5465912 -17.395125 35.8809735 -7.436375 25.8037971 2.523625 35.8809735"></polygon> <polygon id="Fill-214" fill="#364149" mask="url(#mask-6)" points="17.50025 37.5465912 9.18525 29.1350324 0.8715 37.5465912 -0.77475 35.8809735 9.18525 25.8037971 19.14525 35.8809735"></polygon> <polygon id="Fill-215" fill="#364149" mask="url(#mask-6)" points="34.121375 37.5465912 25.807625 29.1350324 17.493875 37.5465912 15.846375 35.8809735 25.807625 25.8037971 35.766375 35.8809735"></polygon> <polygon id="Fill-216" fill="#F5F7F7" mask="url(#mask-6)" points="-7.43625 65.3085294 25.8075 65.3085294 25.8075 31.6749412 -7.43625 31.6749412"></polygon> <polygon id="Fill-217" fill="#364149" mask="url(#mask-6)" points="0.878625 37.5465912 -7.436375 29.1350324 -15.748875 37.5465912 -17.395125 35.8822382 -7.436375 25.8037971 2.523625 35.8822382"></polygon> <polygon id="Fill-218" fill="#364149" mask="url(#mask-6)" points="17.50025 37.5465912 9.18525 29.1350324 0.8715 37.5465912 -0.77475 35.8822382 9.18525 25.8037971 19.14525 35.8822382"></polygon> <polygon id="Fill-219" fill="#364149" mask="url(#mask-6)" points="34.121375 37.5465912 25.807625 29.1350324 17.493875 37.5465912 15.846375 35.8822382 25.807625 25.8037971 35.766375 35.8822382"></polygon> <polygon id="Fill-220" fill="#364149" mask="url(#mask-6)" points="0.878625 45.9554941 -7.436375 37.5426706 -15.748875 45.9554941 -17.395125 44.2911412 -7.436375 34.2127 2.523625 44.2911412"></polygon> <polygon id="Fill-221" fill="#364149" mask="url(#mask-6)" points="17.50025 45.9554941 9.18525 37.5426706 0.8715 45.9554941 -0.77475 44.2911412 9.18525 34.2127 19.14525 44.2911412"></polygon> <polygon id="Fill-222" fill="#364149" mask="url(#mask-6)" points="34.121375 45.9554941 25.807625 37.5426706 17.493875 45.9554941 15.846375 44.2911412 25.807625 34.2127 35.766375 44.2911412"></polygon> <polygon id="Fill-223" fill="#364149" mask="url(#mask-6)" points="0.878625 54.3637647 -7.436375 45.9509412 -15.748875 54.3637647 -17.395125 52.6981471 -7.436375 42.6209706 2.523625 52.6981471"></polygon> <polygon id="Fill-224" fill="#364149" mask="url(#mask-6)" points="17.50025 54.3637647 9.18525 45.9509412 0.8715 54.3637647 -0.77475 52.6981471 9.18525 42.6209706 19.14525 52.6981471"></polygon> <polygon id="Fill-225" fill="#364149" mask="url(#mask-6)" points="34.121375 54.3637647 25.807625 45.9509412 17.493875 54.3637647 15.846375 52.6981471 25.807625 42.6209706 35.766375 52.6981471"></polygon> <polygon id="Fill-226" fill="#364149" mask="url(#mask-6)" points="0.878625 62.7721618 -7.436375 54.3593382 -15.748875 62.7721618 -17.395125 61.1065441 -7.436375 51.0293676 2.523625 61.1065441"></polygon> <polygon id="Fill-227" fill="#364149" mask="url(#mask-6)" points="17.50025 62.7721618 9.18525 54.3593382 0.8715 62.7721618 -0.77475 61.1065441 9.18525 51.0293676 19.14525 61.1065441"></polygon> <polygon id="Fill-228" fill="#364149" mask="url(#mask-6)" points="34.121375 62.7721618 25.807625 54.3593382 17.493875 62.7721618 15.846375 61.1065441 25.807625 51.0293676 35.766375 61.1065441"></polygon> <polygon id="Fill-229" fill="#364149" mask="url(#mask-6)" points="0.878625 71.1804324 -7.436375 62.7688735 -15.748875 71.1804324 -17.395125 69.5148147 -7.436375 59.4376382 2.523625 69.5148147"></polygon> <polygon id="Fill-230" fill="#364149" mask="url(#mask-6)" points="17.50025 71.1804324 9.18525 62.7688735 0.8715 71.1804324 -0.77475 69.5148147 9.18525 59.4376382 19.14525 69.5148147"></polygon> <polygon id="Fill-231" fill="#364149" mask="url(#mask-6)" points="34.121375 71.1804324 25.807625 62.7688735 17.493875 71.1804324 15.846375 69.5148147 25.807625 59.4376382 35.766375 69.5148147"></polygon> </g> <g id="Group-349" transform="translate(48.000000, 1.000000)"> <path d="M120.104089,132.379568 C119.800581,132.145619 119.507106,131.956708 119.208614,131.805329 C116.081977,148.014112 97.1352808,160.480963 74.2191475,160.480963 C67.2974017,160.480963 60.7406183,159.339993 54.8673558,157.304512 C53.8577517,163.978938 51.7281767,169.070768 53.7348433,170.62584 C56.290835,172.606274 58.55586,170.07287 86.9188392,170.07287 C115.281818,170.07287 117.233302,172.847729 120.104089,170.62584 C122.973622,168.401449 118.50001,162.403849 118.50001,151.502078 C118.50001,140.600308 123.604468,135.093125 120.104089,132.379568" id="Fill-233" fill="#AFAFAF"></path> <path d="M149.144695,197.084839 C142.076211,199.519409 134.384407,195.257035 132.831749,187.81946 C131.627749,182.055809 134.864753,176.267137 140.230078,173.811299 L205.392815,145.802482 C213.875999,141.91918 224.156403,146.742031 226.693582,155.703401 C229.373736,165.166448 221.084949,172.430124 213.444565,175.041094 L149.144695,197.084839 Z" id="Fill-235" fill="#04162E"></path> <polygon id="Fill-237" fill="#FFFFFF" points="149.664672 275.914121 147.284264 252.820734 158.12528 252.869525 160.52701 275.964163"></polygon> <path d="M148.836671,275.910493 L135.296688,283.265497 L127.675117,284.749259 C124.17223,285.43234 121.539734,288.336059 121.211142,291.880323 L121.05688,293.539233 L163.395038,293.724391 L162.213613,275.970544 L148.836671,275.910493 Z" id="Fill-239" fill="#1A1A1A"></path> <path d="M143.140246,279.443122 C143.140246,279.443122 145.701255,271.370007 142.707559,270.026364 C138.42458,268.10473 139.165792,274.973071 143.140246,279.443122 Z" id="Stroke-241" stroke="#FFFFFF" stroke-width="0.309" stroke-linecap="round" stroke-linejoin="round"></path> <path d="M143.050197,279.387574 C143.050197,279.387574 149.556814,273.9492 151.943493,276.198613 C155.357335,279.415098 148.707743,281.349243 143.050197,279.387574 Z" id="Stroke-243" stroke="#FFFFFF" stroke-width="0.309" stroke-linecap="round" stroke-linejoin="round"></path> <g id="Group-247" transform="translate(120.654167, 289.995745)"> <mask id="mask-8" fill="white"> <use xlink:href="#path-7"></use> </mask> <g id="Clip-246"></g> <polygon id="Fill-245" fill="#FFFFFF" mask="url(#mask-8)" points="42.9061704 4.00438043 0.235657917 3.81797191 0.251962083 0.169869787 42.9224746 0.357529362"></polygon> </g> <path d="M157.207356,184.381162 L162.313068,266.519757 L145.937414,266.49974 L132.749852,187.152268 C131.504464,179.6634 137.296206,172.848855 144.907743,172.848855 C151.416868,172.848855 156.804768,177.8994 157.207356,184.381162" id="Fill-248" fill="#04162E"></path> <path d="M128.8815,176.230981 C120.489871,176.162173 113.958171,168.775892 115.11075,160.327458 C116.003717,153.780641 121.604825,148.868964 128.201742,148.278462 L207.659471,143.030249 C218.091629,142.098207 227.151729,151.045815 226.466954,161.472181 C225.7433,172.484045 214.2451,177.067943 205.181238,176.97036 L128.8815,176.230981 Z" id="Fill-250" fill="#04162E"></path> <polygon id="Fill-252" fill="#FFFFFF" points="21.4089483 172.143005 47.2798983 168.563711 47.6548942 180.692775 21.7851983 184.29709"></polygon> <path d="M21.3802279,171.216342 L12.5734696,156.359959 L10.6019196,147.892759 C9.69515708,144.001951 6.32646542,141.170793 2.32818208,140.9431 L0.456965417,140.836759 L1.92935708,188.210793 L21.8430154,186.18407 L21.3802279,171.216342 Z" id="Fill-254" fill="#1A1A1A"></path> <path d="M17.1816542,164.983542 C17.1816542,164.983542 26.3609,167.528206 27.753025,164.125312 C29.7446417,159.257423 22.0503292,160.35961 17.1816542,164.983542 Z" id="Stroke-256" stroke="#FFFFFF" stroke-width="0.309" stroke-linecap="round" stroke-linejoin="round"></path> <path d="M17.2411017,164.880955 C17.2411017,164.880955 23.6147767,171.944461 21.1804392,174.704308 C17.6988725,178.650163 15.2595183,171.288904 17.2411017,164.880955 Z" id="Stroke-258" stroke="#FFFFFF" stroke-width="0.309" stroke-linecap="round" stroke-linejoin="round"></path> <polygon id="Fill-260" fill="#FFFFFF" points="1.62584875 188.406835 0.142169583 140.659984 4.24329458 140.533626 5.72697375 188.280477"></polygon> <path d="M124.622977,176.948717 L32.4743354,185.921346 L31.8459979,167.599517 L120.535648,149.695542 C128.908465,148.005355 136.798427,154.214385 137.100681,162.729125 C137.35904,170.012819 131.894635,176.240614 124.622977,176.948717" id="Fill-262" fill="#04162E"></path> <path d="M209.620235,63.6944119 C198.478218,55.4924374 198.890839,62.3958077 186.652681,52.6262502 C182.560335,49.3597226 176.620602,49.8876715 173.167881,53.8197651 C169.50446,57.992063 170.053785,64.3662332 174.375643,67.8541991 L197.272964,80.0583268 C201.964802,83.6463779 208.718489,82.550446 212.026981,77.6637906 C215.108468,73.1149226 214.047443,66.9534332 209.620235,63.6944119" id="Fill-264" fill="#007DDC"></path> <polygon id="Fill-266" fill="#007DDC" points="222.887688 64.1526766 232.404305 66.8749915 241.741575 69.255766 257.855109 82.6296383 235.63253 155.347723 210.209317 148.466872 182.904855 147.583621 204.2746 67.9196298"></polygon> <path d="M225.026042,78.6601379 L206.277505,147.583746" id="Stroke-268" stroke="#005F99" stroke-width="0.719"></path> <path d="M224.823996,86.6992238 C224.662208,87.2972323 225.015883,87.9140068 225.615375,88.0766451 C226.214867,88.2380323 226.831917,87.8852323 226.994958,87.2872238 C227.158,86.6892153 226.803071,86.0736919 226.204833,85.9110536 C225.605342,85.7484153 224.987038,86.1012153 224.823996,86.6992238" id="Fill-270" fill="#289DE5"></path> <path d="M221.336409,99.5215021 C221.173367,100.119511 221.527042,100.736285 222.126534,100.898923 C222.726026,101.060311 223.34433,100.707511 223.506117,100.109502 C223.669159,99.5114936 223.315484,98.8947191 222.715992,98.7333319 C222.116501,98.5706936 221.498197,98.9234936 221.336409,99.5215021" id="Fill-272" fill="#289DE5"></path> <path d="M217.848321,112.343655 C217.685279,112.941664 218.038954,113.558438 218.638446,113.721077 C219.237938,113.882464 219.856242,113.529664 220.019283,112.931655 C220.181071,112.333647 219.827396,111.718123 219.227904,111.555485 C218.628413,111.392847 218.011363,111.745647 217.848321,112.343655" id="Fill-274" fill="#289DE5"></path> <path d="M214.360107,125.165809 C214.19832,125.763817 214.551995,126.380591 215.151486,126.54323 C215.750978,126.704617 216.368028,126.351817 216.53107,125.753809 C216.694111,125.1558 216.340436,124.540277 215.740945,124.377638 C215.141453,124.215 214.523149,124.5678 214.360107,125.165809" id="Fill-276" fill="#289DE5"></path> <path d="M210.872646,137.988587 C210.709604,138.586596 211.063279,139.202119 211.662771,139.364757 C212.262262,139.527396 212.880567,139.173345 213.042354,138.575336 C213.205396,137.977328 212.851721,137.361804 212.252229,137.199166 C211.652737,137.036528 211.034433,137.390579 210.872646,137.988587" id="Fill-278" fill="#289DE5"></path> <path d="M188.752658,125.360099 L198.70447,88.7764902" id="Stroke-280" stroke="#005F99" stroke-width="0.719"></path> <path d="M179.859612,180.326839 L211.065787,180.326839 C224.564383,180.326839 235.434246,169.279946 235.183413,155.818499 L235.101892,151.439775 L182.351642,151.439775 L179.859612,180.326839 Z" id="Fill-282" fill="#04162E"></path> <polygon id="Fill-284" fill="#007DDC" points="213.630182 58.6180953 218.452453 59.7728272 215.759757 63.4209294"></polygon> <path d="M222.672724,77.5728383 L222.672724,77.5728383 C228.701503,79.3430936 235.02752,75.9026681 236.802165,69.8888043 L243.64239,46.7128468 L221.809857,40.3011447 L214.969632,63.4771021 C213.194986,69.492217 216.643945,75.8013319 222.672724,77.5728383" id="Fill-286" fill="#F3A396"></path> <path d="M243.083534,48.6047055 C243.083534,48.6047055 234.091159,59.6578545 225.860063,57.1432162 C215.249813,53.9004587 221.766463,40.8468587 221.766463,40.8468587 C221.766463,40.8468587 223.300309,50.8065779 229.80818,52.7257098 C237.066042,54.86628 243.083534,48.6047055 243.083534,48.6047055" id="Fill-288" fill="#1A1A1A"></path> <g id="Group-292" transform="translate(218.479167, 0.000000)"> <mask id="mask-10" fill="white"> <use xlink:href="#path-9"></use> </mask> <g id="Clip-291"></g> <path d="M4.25476042,9.12663574 C6.08208125,6.15160596 9.47961875,2.19324 17.8097938,0.943427234 C31.5730188,-1.12082809 34.4262479,12.6859123 34.4262479,12.6859123 C37.7924313,13.2901762 40.1640604,15.2305762 40.7949063,18.8161251 C41.3856188,22.1752315 38.3317229,27.2720655 37.3246271,29.0635889 L31.0763688,40.4632826 L32.1662396,28.1953506 C32.1261063,19.9020485 29.5613354,15.77604 29.5613354,15.77604 L18.7642146,11.6325166 L0.512327083,30.2846272 L2.08881458,16.5379379 C2.28822708,14.7939549 2.66698542,13.0687379 3.25518958,11.4148315 C3.59506875,10.4565166 3.93996458,9.64082298 4.25476042,9.12663574" id="Fill-290" fill="#1A1A1A" mask="url(#mask-10)"></path> </g> <path d="M221.820267,28.2077362 C221.820267,28.2077362 221.036413,25.4328766 217.652671,25.6905957 C214.268929,25.949566 213.470025,33.7261787 217.758021,36.0068681 C217.758021,36.0068681 219.289358,36.8438298 220.902217,36.1032 C220.902217,36.1032 221.387579,30.3270383 221.820267,28.2077362" id="Fill-293" fill="#E88E85"></path> <path d="M250.298629,36.4788945 C250.298629,36.4788945 252.778117,34.7136434 255.31655,36.7516264 C257.961588,38.8734306 254.468733,45.7655413 249.625142,45.3652009 C249.625142,45.3652009 247.884358,45.2400945 246.929938,43.7463243 C246.929938,43.7463243 249.512267,38.4943583 250.298629,36.4788945" id="Fill-295" fill="#F3A396"></path> <path d="M253.945997,39.1753123 C253.945997,39.1753123 251.647109,37.5777038 248.732426,40.7916868" id="Stroke-297" stroke="#D26665" stroke-width="0.641" stroke-linecap="round" stroke-linejoin="round"></path> <path d="M250.510583,39.3225626 C250.510583,39.3225626 252.84835,41.6170136 250.358829,43.3046987" id="Stroke-299" stroke="#D26665" stroke-width="0.641" stroke-linecap="round" stroke-linejoin="round"></path> <path d="M221.051086,20.3788289 C219.737974,24.8238587 217.430307,34.2506247 218.541499,40.5760034 C219.584965,46.5135523 223.015111,50.5507353 228.543478,52.3547694 C234.07059,54.1588034 238.858999,53.2342672 244.174157,47.4856289 C249.488061,41.7382417 252.836686,29.8030928 252.836686,29.8030928 C252.836686,29.8030928 257.523507,13.9233396 241.79124,9.30316085 C225.219936,4.43777362 221.051086,20.3788289 221.051086,20.3788289" id="Fill-301" fill="#F3A396"></path> <path d="M226.558885,6.98981872 C226.928864,7.24628681 241.233889,7.47398043 241.233889,7.47398043 L251.802751,14.4023719 C251.802751,14.4023719 251.79648,14.4098783 251.791464,14.4173847 C261.182664,20.1685251 253.840772,28.4868485 253.840772,28.4868485 C248.161905,24.144406 249.35838,20.0421677 249.498847,16.6342698 C246.924043,18.5233762 237.238114,20.498806 228.536705,17.7614783 C219.627105,14.9578443 222.170555,11.9215123 222.170555,11.9215123 C222.170555,11.9215123 226.188905,6.73209957 226.558885,6.98981872" id="Fill-303" fill="#1A1A1A"></path> <polygon id="Fill-305" fill="#1A1A1A" points="253.311639 24.0599591 248.886939 37.1148102 251.530723 35.9237974 256.710431 24.311423"></polygon> <path d="M230.381459,27.8381719 L228.289509,34.9279506 C228.243105,35.0855847 228.229309,35.2457209 228.243105,35.4008528 C228.300797,36.0101209 228.85263,36.4542485 229.464663,36.4705123 L230.781538,36.5055421" id="Stroke-307" stroke="#D26665" stroke-width="0.641" stroke-linecap="round" stroke-linejoin="round"></path> <path d="M237.058266,30.4209932 C236.816212,31.2391889 237.28527,32.0974187 238.105495,32.337623 C238.92572,32.5790783 239.786079,32.1111804 240.026879,31.2929847 C240.268933,30.4747889 239.799875,29.6165591 238.97965,29.3763549 C238.159425,29.1348996 237.299066,29.6027974 237.058266,30.4209932" id="Fill-309" fill="#1A1A1A"></path> <path d="M237.163616,24.5456221 L237.939945,21.7144647 L243.147245,23.3458519 C243.803175,23.5510264 244.371312,23.975137 244.751325,24.5481243 L247.033908,27.9710349 L242.813637,26.0206264 L237.163616,24.5456221 Z" id="Fill-311" fill="#1A1A1A"></path> <path d="M227.26197,27.5449226 C227.02117,28.3631183 226.160812,28.8297651 225.340587,28.5895609 C224.520362,28.3493566 224.051304,27.4911268 224.293358,26.6729311 C224.534158,25.8547353 225.394516,25.3868374 226.214741,25.6270417 C227.034966,25.868497 227.504025,26.7267268 227.26197,27.5449226" id="Fill-313" fill="#1A1A1A"></path> <path d="M229.802034,22.3819072 L230.646088,19.5720179 L226.503576,18.3997711 C225.980588,18.2521455 225.412451,18.3372179 224.893226,18.6387243 L221.790417,20.4452604 L225.447567,20.8568604 L229.802034,22.3819072 Z" id="Fill-315" fill="#1A1A1A"></path> <path d="M231.520493,37.6676553 C231.731193,38.0079447 232.114968,38.4558255 232.472406,38.8136298 C232.846147,39.1839447 233.255006,39.5204809 233.69271,39.8194851 C234.56561,40.4262511 235.572706,40.8290936 236.655052,41.0004894 L236.677627,41.0042426 C236.979881,41.051783 237.185564,41.3345234 237.137906,41.6347787 C237.095264,41.8924979 236.879547,42.0814085 236.628714,42.0989234 C235.362006,42.1839957 234.03886,41.9750681 232.831097,41.4834 C232.225335,41.2431957 231.638385,40.9479447 231.082789,40.5988979 C230.515906,40.2335872 230.023018,39.8870426 229.46366,39.3428298 L229.446102,39.3253149 C228.916843,38.8098766 228.90681,37.9641574 229.423527,37.4362085 C229.940243,36.9082596 230.78806,36.8982511 231.317318,37.4136894 C231.395077,37.4900043 231.46531,37.5788298 231.520493,37.6676553" id="Fill-317" fill="#1A1A1A"></path> <path d="M227.537511,38.6573719 C226.852736,38.8400272 226.315953,38.8875677 225.707682,38.9175932 C225.116969,38.9376102 224.523748,38.8988272 223.943069,38.8012443 C223.361136,38.7099166 222.79049,38.5347677 222.253707,38.3008187 C221.710653,38.0806315 221.224036,37.7453464 220.772536,37.4025549 C220.546786,37.228657 220.50289,36.9071336 220.675965,36.6806911 C220.826465,36.484274 221.091094,36.425474 221.305557,36.5268102 L221.340673,36.5443251 C222.207303,36.9521719 223.137894,37.1198145 224.058453,37.051006 C224.517478,37.0197294 224.973994,36.9409123 225.415461,36.8195591 C225.839369,36.7032102 226.32724,36.5205549 226.623223,36.3504102 C227.225223,36.0038655 227.994028,36.20904 228.341432,36.8082996 C228.687582,37.4075591 228.481898,38.1744613 227.879898,38.521006 C227.784582,38.5773038 227.684248,38.6173379 227.582661,38.6461123 L227.537511,38.6573719 Z" id="Fill-319" fill="#1A1A1A"></path> <path d="M228.730474,45.1826706 C228.730474,45.1826706 226.95332,45.3165345 225.100916,44.0054196" id="Stroke-321" stroke="#D26665" stroke-width="0.481" stroke-linecap="round" stroke-linejoin="round"></path> <path d="M232.447573,41.8802374 L224.417144,39.5219821 C224.417144,39.5219821 224.309286,42.7634885 227.57639,43.5328928 C230.844748,44.3035481 232.447573,41.8802374 232.447573,41.8802374" id="Fill-323" fill="#FFFFFF"></path> <polygon id="Fill-325" fill="#007DDC" points="238.587346 82.5936077 230.832834 67.6321353 220.035713 75.545114 215.247305 63.2984502 200.864521 73.56468"></polygon> <path d="M220.181447,74.9412255 L228.25201,67.9965702 C229.407097,66.8030553 230.818035,65.8710128 232.388251,65.2642468 L235.321747,64.1282809 C235.94256,63.8880766 236.657435,64.0231915 237.147814,64.4748255 L239.346368,66.4927915 C239.854305,66.9581872 240.026126,67.6700426 239.784072,68.2968255 L236.856847,75.8820255 C236.568389,76.6301617 235.509872,76.7077277 235.087218,76.0108851 L230.881997,69.0762383 C230.647468,68.6896596 230.110685,68.6045872 229.770805,68.8998383 L219.84533,76.3349106 L220.181447,74.9412255 Z" id="Fill-327" fill="#289DE5"></path> <path d="M220.180318,74.9448536 L213.929552,59.0075515 C213.753968,58.5684281 213.747698,58.5396536 213.207152,58.7448281 L210.795389,59.6581047 C210.237285,59.8695345 209.819648,60.4400196 209.73311,61.1043345 L207.533302,68.8634323 C207.431714,69.6553557 208.160385,70.1620366 208.751098,69.7079004 L214.149031,65.1014834 C214.477623,64.8500196 214.899023,64.9938919 215.020677,65.4004877 L219.845456,76.3385387 L220.180318,74.9448536 Z" id="Fill-329" fill="#289DE5"></path> <path d="M114.79169,62.1367123 L114.79169,62.1367123 C114.697627,59.6133166 116.671686,57.4915123 119.20134,57.3976826 L130.616765,57.0436315 C133.145165,56.9498017 135.272232,58.9189762 135.366294,61.4423719 C135.460357,63.9645166 133.486298,66.0863209 130.956644,66.1801506 L119.542473,66.5354528 C117.012819,66.6280315 114.885752,64.6601081 114.79169,62.1367123" id="Fill-331" fill="#F3A396"></path> <path d="M117.477613,69.27228 C119.49933,67.8160417 119.95083,66.4598885 119.95083,66.4598885 C122.135588,66.4261098 123.843763,64.5695311 123.690755,62.3939311 L123.581643,60.8538715 C123.439922,58.8434119 121.748051,57.2920928 119.726334,57.3221183 L119.609697,57.3233694 C119.609697,57.3233694 114.001063,55.8195906 107.089351,56.8617268 C98.1609383,58.2066204 94.6279508,62.9831821 95.2562883,65.7142545 C95.8495092,68.2939481 106.45098,67.2443055 110.389063,66.9027651 L106.923801,69.4436757 C106.484843,69.7664502 106.305497,70.3369353 106.482334,70.8523736 C106.672968,71.4053438 107.224801,71.7518885 107.807988,71.6855821 L112.429593,71.1513779 C114.239355,70.9424502 115.998951,70.3369353 117.477613,69.27228" id="Fill-333" fill="#F3A396"></path> <path d="M177.020555,52.4299583 L124.343047,52.4387157 L123.821314,72.0991838 L177.676485,72.0316264 C183.336539,71.8940094 187.709818,67.0286221 187.233235,61.400086 C186.78926,56.1618817 182.285547,52.2047668 177.020555,52.4299583" id="Fill-335" fill="#007DDC"></path> <polygon id="Fill-337" fill="#04162E" points="119.951081 66.460514 119.726585 57.3214928 122.844443 57.2852119 123.081481 66.4254843"></polygon> <path d="M119.445275,63.3884017 C121.429367,64.1340357 123.642971,63.1331847 124.3892,61.1540017 C125.136684,59.1748187 124.13335,56.9666911 122.149259,56.221057 C120.165167,55.476674 117.951563,56.4775251 117.20408,58.4567081 C116.45785,60.43464 117.461184,62.6440187 119.445275,63.3884017" id="Fill-339" fill="#04162E"></path> <path d="M253.239901,78.5251481 C262.848072,86.2804928 285.119563,102.943412 296.331813,111.29051 C300.080517,114.081633 300.959688,119.317335 298.330955,123.176867 C295.541688,127.271599 289.899192,128.232416 285.905926,125.292416 L241.848305,92.8435736 C237.684472,89.6083226 237.11508,83.5431651 240.601663,79.5923055 C243.848701,75.9154289 249.422218,75.4425268 253.239901,78.5251481" id="Fill-341" fill="#007DDC"></path> <path d="M241.177828,149.073513 L241.177828,149.073513 C242.226311,151.070211 244.699527,151.839615 246.699923,150.793726 L255.699823,146.019666 C257.701473,144.973777 258.472786,142.506679 257.424302,140.511232 C256.375819,138.515786 253.903857,137.74513 251.902207,138.79102 L242.902307,143.565079 C240.901911,144.61222 240.129344,147.078066 241.177828,149.073513" id="Fill-343" fill="#F3A396"></path> <path d="M240.086452,142.358178 C242.300056,142.592127 243.251968,143.441599 243.251968,143.441599 C244.960143,142.50205 247.108531,143.185131 247.956347,144.937871 L248.555839,146.178927 C249.340947,147.799054 248.718881,149.749463 247.141139,150.620203 L247.049585,150.670246 C247.049585,150.670246 243.373622,154.317097 237.556797,156.56651 C230.041831,159.473982 225.183189,157.335914 224.455772,154.94388 C223.768489,152.681957 232.446068,148.806161 235.64921,147.328654 L231.835289,146.893284 C231.351181,146.838237 230.959881,146.475429 230.867072,145.997523 C230.767993,145.484586 231.041402,144.97165 231.523002,144.766476 L235.340685,143.135089 C236.835652,142.495795 238.468577,142.186782 240.086452,142.358178" id="Fill-345" fill="#F3A396"></path> <path d="M293.696558,129.067501 L252.887229,152.361059 L243.744354,137.362054 L285.4918,113.593093 C289.936567,111.196054 295.487508,113.030114 297.619592,117.60025 C299.603683,121.855118 297.875442,126.913169 293.696558,129.067501" id="Fill-347" fill="#007DDC"></path> </g> </g> </g> </g> </g> </svg> 