<?xml version="1.0" encoding="UTF-8"?> <svg xmlns="http://www.w3.org/2000/svg" xmlns:xlink="http://www.w3.org/1999/xlink" width="508px" height="284px" viewBox="0 0 508 284"> <!-- Generator: Sketch 57.1 (83088) - https://sketch.com --> <title>Group 115</title> <desc>Created with Sketch.</desc> <defs> <polygon id="path-1" points="8.00000013e-05 0.0996000015 507.359208 0.0996000015 507.359208 18.8000003 8.00000013e-05 18.8000003"></polygon> <polygon id="path-3" points="0 283.600004 507.359208 283.600004 507.359208 0.201200003 0 0.201200003"></polygon> <path d="M6.9504001,1.50640002 C4.89000007,3.25920005 6.4392001,6.8648001 4.66600007,8.59920013 L4.66600007,8.59920013 C3.09800005,10.1328002 1.10400002,9.87960015 0.301600004,12.4252002 L0.301600004,12.4252002 C-0.878000013,16.1704002 2.84040004,19.4520003 4.03400006,22.6904003 L4.03400006,22.6904003 C5.03560008,25.4080004 2.78280004,26.4436004 1.77040003,28.5616004 L1.77040003,28.5616004 C0.990400015,30.1944004 1.39160002,31.9428005 2.24160003,33.5036005 L2.24160003,33.5036005 C3.74120006,36.2560005 7.06560011,38.4716006 6.29560009,42.0356006 L6.29560009,42.0356006 C5.65280008,45.0100007 5.05480008,47.6608007 7.67920011,49.9152007 L7.67920011,49.9152007 C9.47800014,51.4600008 12.8164002,52.8684008 12.5620002,55.7288008 L12.5620002,55.7288008 C12.4720002,56.7408008 11.7712002,57.6036009 11.5796002,58.6012009 L11.5796002,58.6012009 C11.2756002,60.1804009 12.2984002,61.7172009 13.4864002,62.8012009 L13.4864002,62.8012009 C16.1892002,65.267201 18.5632003,67.592801 20.5876003,70.6956011 L20.5876003,70.6956011 C21.4528003,72.0216011 24.9164004,75.0152011 23.5320004,76.8280011 L23.5320004,76.8280011 C26.0484004,73.5328011 28.7076004,70.338001 30.9940005,66.874401 L30.9940005,66.874401 C32.8740005,64.025201 35.7084005,59.8588009 33.7792005,56.3500008 L33.7792005,56.3500008 C33.1792005,55.2588008 32.0632005,54.4456008 31.7572005,53.2380008 L31.7572005,53.2380008 C31.2048005,51.0576008 33.3472005,49.0364007 34.1436005,47.1812007 L34.1436005,47.1812007 C35.3940005,44.2692007 34.4760005,40.8868006 32.2736005,38.7004006 L32.2736005,38.7004006 C31.2316005,37.6660006 30.1008004,36.5288005 29.9476004,35.0684005 L29.9476004,35.0684005 C29.7808004,33.4740005 30.7804005,31.9872005 31.2340005,30.5164005 L31.2340005,30.5164005 C31.6520005,29.1604004 31.9128005,27.7188004 32.0652005,26.3104004 L32.0652005,26.3104004 C32.1728005,25.3160004 32.2148005,24.2980004 31.9808005,23.3256003 L31.9808005,23.3256003 C31.5360005,21.4756003 29.8700004,20.4476003 28.6368004,19.1352003 L28.6368004,19.1352003 C25.7020004,16.0104002 27.2448004,12.3364002 25.9624004,8.70480013 L25.9624004,8.70480013 C24.9364004,5.80080009 22.8392003,5.83240009 20.7012003,5.86400009 L20.7012003,5.86400009 C20.4396003,5.86800009 20.1772003,5.87200009 19.9168003,5.87000009 L19.9168003,5.87000009 C18.3644003,5.86080009 16.8576003,5.66120008 15.7948002,4.13840006 L15.7948002,4.13840006 C14.3580002,2.08120003 12.4000002,0.168000003 10.1540002,0.168000003 L10.1540002,0.168000003 C9.13800014,0.168000003 8.06320012,0.559600008 6.9504001,1.50640002" id="path-5"></path> <path d="M6.9504001,1.50640002 C4.89000007,3.25920005 6.4392001,6.8648001 4.66600007,8.59920013 L4.66600007,8.59920013 C3.09800005,10.1328002 1.10400002,9.87960015 0.301600004,12.4252002 L0.301600004,12.4252002 C-0.878000013,16.1704002 2.84040004,19.4520003 4.03400006,22.6904003 L4.03400006,22.6904003 C5.03560008,25.4080004 2.78280004,26.4436004 1.77040003,28.5616004 L1.77040003,28.5616004 C0.990400015,30.1944004 1.39160002,31.9428005 2.24160003,33.5036005 L2.24160003,33.5036005 C3.74120006,36.2560005 7.06560011,38.4716006 6.29560009,42.0356006 L6.29560009,42.0356006 C5.65280008,45.0100007 5.05480008,47.6608007 7.67920011,49.9152007 L7.67920011,49.9152007 C9.47800014,51.4600008 12.8164002,52.8684008 12.5620002,55.7288008 L12.5620002,55.7288008 C12.4720002,56.7408008 11.7712002,57.6036009 11.5796002,58.6012009 L11.5796002,58.6012009 C11.2756002,60.1804009 12.2984002,61.7172009 13.4864002,62.8012009 L13.4864002,62.8012009 C16.1892002,65.267201 18.5632003,67.592801 20.5876003,70.6956011 L20.5876003,70.6956011 C21.4528003,72.0216011 24.9164004,75.0152011 23.5320004,76.8280011 L23.5320004,76.8280011 C26.0484004,73.5328011 28.7076004,70.338001 30.9940005,66.874401 L30.9940005,66.874401 C32.8740005,64.025201 35.7084005,59.8588009 33.7792005,56.3500008 L33.7792005,56.3500008 C33.1792005,55.2588008 32.0632005,54.4456008 31.7572005,53.2380008 L31.7572005,53.2380008 C31.2048005,51.0576008 33.3472005,49.0364007 34.1436005,47.1812007 L34.1436005,47.1812007 C35.3940005,44.2692007 34.4760005,40.8868006 32.2736005,38.7004006 L32.2736005,38.7004006 C31.2316005,37.6660006 30.1008004,36.5288005 29.9476004,35.0684005 L29.9476004,35.0684005 C29.7808004,33.4740005 30.7804005,31.9872005 31.2340005,30.5164005 L31.2340005,30.5164005 C31.6520005,29.1604004 31.9128005,27.7188004 32.0652005,26.3104004 L32.0652005,26.3104004 C32.1728005,25.3160004 32.2148005,24.2980004 31.9808005,23.3256003 L31.9808005,23.3256003 C31.5360005,21.4756003 29.8700004,20.4476003 28.6368004,19.1352003 L28.6368004,19.1352003 C25.7020004,16.0104002 27.2448004,12.3364002 25.9624004,8.70480013 L25.9624004,8.70480013 C24.9364004,5.80080009 22.8392003,5.83240009 20.7012003,5.86400009 L20.7012003,5.86400009 C20.4396003,5.86800009 20.1772003,5.87200009 19.9168003,5.87000009 L19.9168003,5.87000009 C18.3644003,5.86080009 16.8576003,5.66120008 15.7948002,4.13840006 L15.7948002,4.13840006 C14.3580002,2.08120003 12.4000002,0.168000003 10.1540002,0.168000003 L10.1540002,0.168000003 C9.13800014,0.168000003 8.06320012,0.559600008 6.9504001,1.50640002" id="path-7"></path> <path d="M6.9504001,1.50640002 C4.89000007,3.25920005 6.4392001,6.8648001 4.66600007,8.59920013 L4.66600007,8.59920013 C3.09800005,10.1328002 1.10400002,9.87960015 0.301600004,12.4252002 L0.301600004,12.4252002 C-0.878000013,16.1704002 2.84040004,19.4520003 4.03400006,22.6904003 L4.03400006,22.6904003 C5.03560008,25.4080004 2.78280004,26.4436004 1.77040003,28.5616004 L1.77040003,28.5616004 C0.990400015,30.1944004 1.39160002,31.9428005 2.24160003,33.5036005 L2.24160003,33.5036005 C3.74120006,36.2560005 7.06560011,38.4716006 6.29560009,42.0356006 L6.29560009,42.0356006 C5.65280008,45.0100007 5.05480008,47.6608007 7.67920011,49.9152007 L7.67920011,49.9152007 C9.47800014,51.4600008 12.8164002,52.8684008 12.5620002,55.7288008 L12.5620002,55.7288008 C12.4720002,56.7408008 11.7712002,57.6036009 11.5796002,58.6012009 L11.5796002,58.6012009 C11.2756002,60.1804009 12.2984002,61.7172009 13.4864002,62.8012009 L13.4864002,62.8012009 C16.1892002,65.267201 18.5632003,67.592801 20.5876003,70.6956011 L20.5876003,70.6956011 C21.4528003,72.0216011 24.9164004,75.0152011 23.5320004,76.8280011 L23.5320004,76.8280011 C26.0484004,73.5328011 28.7076004,70.338001 30.9940005,66.874401 L30.9940005,66.874401 C32.8740005,64.025201 35.7084005,59.8588009 33.7792005,56.3500008 L33.7792005,56.3500008 C33.1792005,55.2588008 32.0632005,54.4456008 31.7572005,53.2380008 L31.7572005,53.2380008 C31.2048005,51.0576008 33.3472005,49.0364007 34.1436005,47.1812007 L34.1436005,47.1812007 C35.3940005,44.2692007 34.4760005,40.8868006 32.2736005,38.7004006 L32.2736005,38.7004006 C31.2316005,37.6660006 30.1008004,36.5288005 29.9476004,35.0684005 L29.9476004,35.0684005 C29.7808004,33.4740005 30.7804005,31.9872005 31.2340005,30.5164005 L31.2340005,30.5164005 C31.6520005,29.1604004 31.9128005,27.7188004 32.0652005,26.3104004 L32.0652005,26.3104004 C32.1728005,25.3160004 32.2148005,24.2980004 31.9808005,23.3256003 L31.9808005,23.3256003 C31.5360005,21.4756003 29.8700004,20.4476003 28.6368004,19.1352003 L28.6368004,19.1352003 C25.7020004,16.0104002 27.2448004,12.3364002 25.9624004,8.70480013 L25.9624004,8.70480013 C24.9364004,5.80080009 22.8392003,5.83240009 20.7012003,5.86400009 L20.7012003,5.86400009 C20.4396003,5.86800009 20.1772003,5.87200009 19.9168003,5.87000009 L19.9168003,5.87000009 C18.3644003,5.86080009 16.8576003,5.66120008 15.7948002,4.13840006 L15.7948002,4.13840006 C14.3580002,2.08120003 12.4000002,0.168000003 10.1540002,0.168000003 L10.1540002,0.168000003 C9.13800014,0.168000003 8.06320012,0.559600008 6.9504001,1.50640002" id="path-9"></path> <path d="M6.9504001,1.50640002 C4.89000007,3.25920005 6.4392001,6.8648001 4.66600007,8.59920013 L4.66600007,8.59920013 C3.09800005,10.1328002 1.10400002,9.87960015 0.301600004,12.4252002 L0.301600004,12.4252002 C-0.878000013,16.1704002 2.84040004,19.4520003 4.03400006,22.6904003 L4.03400006,22.6904003 C5.03560008,25.4080004 2.78280004,26.4436004 1.77040003,28.5616004 L1.77040003,28.5616004 C0.990400015,30.1944004 1.39160002,31.9428005 2.24160003,33.5036005 L2.24160003,33.5036005 C3.74120006,36.2560005 7.06560011,38.4716006 6.29560009,42.0356006 L6.29560009,42.0356006 C5.65280008,45.0100007 5.05480008,47.6608007 7.67920011,49.9152007 L7.67920011,49.9152007 C9.47800014,51.4600008 12.8164002,52.8684008 12.5620002,55.7288008 L12.5620002,55.7288008 C12.4720002,56.7408008 11.7712002,57.6036009 11.5796002,58.6012009 L11.5796002,58.6012009 C11.2756002,60.1804009 12.2984002,61.7172009 13.4864002,62.8012009 L13.4864002,62.8012009 C16.1892002,65.267201 18.5632003,67.592801 20.5876003,70.6956011 L20.5876003,70.6956011 C21.4528003,72.0216011 24.9164004,75.0152011 23.5320004,76.8280011 L23.5320004,76.8280011 C26.0484004,73.5328011 28.7076004,70.338001 30.9940005,66.874401 L30.9940005,66.874401 C32.8740005,64.025201 35.7084005,59.8588009 33.7792005,56.3500008 L33.7792005,56.3500008 C33.1792005,55.2588008 32.0632005,54.4456008 31.7572005,53.2380008 L31.7572005,53.2380008 C31.2048005,51.0576008 33.3472005,49.0364007 34.1436005,47.1812007 L34.1436005,47.1812007 C35.3940005,44.2692007 34.4760005,40.8868006 32.2736005,38.7004006 L32.2736005,38.7004006 C31.2316005,37.6660006 30.1008004,36.5288005 29.9476004,35.0684005 L29.9476004,35.0684005 C29.7808004,33.4740005 30.7804005,31.9872005 31.2340005,30.5164005 L31.2340005,30.5164005 C31.6520005,29.1604004 31.9128005,27.7188004 32.0652005,26.3104004 L32.0652005,26.3104004 C32.1728005,25.3160004 32.2148005,24.2980004 31.9808005,23.3256003 L31.9808005,23.3256003 C31.5360005,21.4756003 29.8700004,20.4476003 28.6368004,19.1352003 L28.6368004,19.1352003 C25.7020004,16.0104002 27.2448004,12.3364002 25.9624004,8.70480013 L25.9624004,8.70480013 C24.9364004,5.80080009 22.8392003,5.83240009 20.7012003,5.86400009 L20.7012003,5.86400009 C20.4396003,5.86800009 20.1772003,5.87200009 19.9168003,5.87000009 L19.9168003,5.87000009 C18.3644003,5.86080009 16.8576003,5.66120008 15.7948002,4.13840006 L15.7948002,4.13840006 C14.3580002,2.08120003 12.4000002,0.168000003 10.1540002,0.168000003 L10.1540002,0.168000003 C9.13800014,0.168000003 8.06320012,0.559600008 6.9504001,1.50640002" id="path-11"></path> <path d="M6.9504001,1.50640002 C4.89000007,3.25920005 6.4392001,6.8648001 4.66600007,8.59920013 L4.66600007,8.59920013 C3.09800005,10.1328002 1.10400002,9.87960015 0.301600004,12.4252002 L0.301600004,12.4252002 C-0.878000013,16.1704002 2.84040004,19.4520003 4.03400006,22.6904003 L4.03400006,22.6904003 C5.03560008,25.4080004 2.78280004,26.4436004 1.77040003,28.5616004 L1.77040003,28.5616004 C0.990400015,30.1944004 1.39160002,31.9428005 2.24160003,33.5036005 L2.24160003,33.5036005 C3.74120006,36.2560005 7.06560011,38.4716006 6.29560009,42.0356006 L6.29560009,42.0356006 C5.65280008,45.0100007 5.05480008,47.6608007 7.67920011,49.9152007 L7.67920011,49.9152007 C9.47800014,51.4600008 12.8164002,52.8684008 12.5620002,55.7288008 L12.5620002,55.7288008 C12.4720002,56.7408008 11.7712002,57.6036009 11.5796002,58.6012009 L11.5796002,58.6012009 C11.2756002,60.1804009 12.2984002,61.7172009 13.4864002,62.8012009 L13.4864002,62.8012009 C16.1892002,65.267201 18.5632003,67.592801 20.5876003,70.6956011 L20.5876003,70.6956011 C21.4528003,72.0216011 24.9164004,75.0152011 23.5320004,76.8280011 L23.5320004,76.8280011 C26.0484004,73.5328011 28.7076004,70.338001 30.9940005,66.874401 L30.9940005,66.874401 C32.8740005,64.025201 35.7084005,59.8588009 33.7792005,56.3500008 L33.7792005,56.3500008 C33.1792005,55.2588008 32.0632005,54.4456008 31.7572005,53.2380008 L31.7572005,53.2380008 C31.2048005,51.0576008 33.3472005,49.0364007 34.1436005,47.1812007 L34.1436005,47.1812007 C35.3940005,44.2692007 34.4760005,40.8868006 32.2736005,38.7004006 L32.2736005,38.7004006 C31.2316005,37.6660006 30.1008004,36.5288005 29.9476004,35.0684005 L29.9476004,35.0684005 C29.7808004,33.4740005 30.7804005,31.9872005 31.2340005,30.5164005 L31.2340005,30.5164005 C31.6520005,29.1604004 31.9128005,27.7188004 32.0652005,26.3104004 L32.0652005,26.3104004 C32.1728005,25.3160004 32.2148005,24.2980004 31.9808005,23.3256003 L31.9808005,23.3256003 C31.5360005,21.4756003 29.8700004,20.4476003 28.6368004,19.1352003 L28.6368004,19.1352003 C25.7020004,16.0104002 27.2448004,12.3364002 25.9624004,8.70480013 L25.9624004,8.70480013 C24.9364004,5.80080009 22.8392003,5.83240009 20.7012003,5.86400009 L20.7012003,5.86400009 C20.4396003,5.86800009 20.1772003,5.87200009 19.9168003,5.87000009 L19.9168003,5.87000009 C18.3644003,5.86080009 16.8576003,5.66120008 15.7948002,4.13840006 L15.7948002,4.13840006 C14.3580002,2.08120003 12.4000002,0.168000003 10.1540002,0.168000003 L10.1540002,0.168000003 C9.13800014,0.168000003 8.06320012,0.559600008 6.9504001,1.50640002" id="path-13"></path> <path d="M6.9504001,1.50640002 C4.89000007,3.25920005 6.4392001,6.8648001 4.66600007,8.59920013 L4.66600007,8.59920013 C3.09800005,10.1328002 1.10400002,9.87960015 0.301600004,12.4252002 L0.301600004,12.4252002 C-0.878000013,16.1704002 2.84040004,19.4520003 4.03400006,22.6904003 L4.03400006,22.6904003 C5.03560008,25.4080004 2.78280004,26.4436004 1.77040003,28.5616004 L1.77040003,28.5616004 C0.990400015,30.1944004 1.39160002,31.9428005 2.24160003,33.5036005 L2.24160003,33.5036005 C3.74120006,36.2560005 7.06560011,38.4716006 6.29560009,42.0356006 L6.29560009,42.0356006 C5.65280008,45.0100007 5.05480008,47.6608007 7.67920011,49.9152007 L7.67920011,49.9152007 C9.47800014,51.4600008 12.8164002,52.8684008 12.5620002,55.7288008 L12.5620002,55.7288008 C12.4720002,56.7408008 11.7712002,57.6036009 11.5796002,58.6012009 L11.5796002,58.6012009 C11.2756002,60.1804009 12.2984002,61.7172009 13.4864002,62.8012009 L13.4864002,62.8012009 C16.1892002,65.267201 18.5632003,67.592801 20.5876003,70.6956011 L20.5876003,70.6956011 C21.4528003,72.0216011 24.9164004,75.0152011 23.5320004,76.8280011 L23.5320004,76.8280011 C26.0484004,73.5328011 28.7076004,70.338001 30.9940005,66.874401 L30.9940005,66.874401 C32.8740005,64.025201 35.7084005,59.8588009 33.7792005,56.3500008 L33.7792005,56.3500008 C33.1792005,55.2588008 32.0632005,54.4456008 31.7572005,53.2380008 L31.7572005,53.2380008 C31.2048005,51.0576008 33.3472005,49.0364007 34.1436005,47.1812007 L34.1436005,47.1812007 C35.3940005,44.2692007 34.4760005,40.8868006 32.2736005,38.7004006 L32.2736005,38.7004006 C31.2316005,37.6660006 30.1008004,36.5288005 29.9476004,35.0684005 L29.9476004,35.0684005 C29.7808004,33.4740005 30.7804005,31.9872005 31.2340005,30.5164005 L31.2340005,30.5164005 C31.6520005,29.1604004 31.9128005,27.7188004 32.0652005,26.3104004 L32.0652005,26.3104004 C32.1728005,25.3160004 32.2148005,24.2980004 31.9808005,23.3256003 L31.9808005,23.3256003 C31.5360005,21.4756003 29.8700004,20.4476003 28.6368004,19.1352003 L28.6368004,19.1352003 C25.7020004,16.0104002 27.2448004,12.3364002 25.9624004,8.70480013 L25.9624004,8.70480013 C24.9364004,5.80080009 22.8392003,5.83240009 20.7012003,5.86400009 L20.7012003,5.86400009 C20.4396003,5.86800009 20.1772003,5.87200009 19.9168003,5.87000009 L19.9168003,5.87000009 C18.3644003,5.86080009 16.8576003,5.66120008 15.7948002,4.13840006 L15.7948002,4.13840006 C14.3580002,2.08120003 12.4000002,0.168000003 10.1540002,0.168000003 L10.1540002,0.168000003 C9.13800014,0.168000003 8.06320012,0.559600008 6.9504001,1.50640002" id="path-15"></path> <path d="M6.9504001,1.50640002 C4.89000007,3.25920005 6.4392001,6.8648001 4.66600007,8.59920013 L4.66600007,8.59920013 C3.09800005,10.1328002 1.10400002,9.87960015 0.301600004,12.4252002 L0.301600004,12.4252002 C-0.878000013,16.1704002 2.84040004,19.4520003 4.03400006,22.6904003 L4.03400006,22.6904003 C5.03560008,25.4080004 2.78280004,26.4436004 1.77040003,28.5616004 L1.77040003,28.5616004 C0.990400015,30.1944004 1.39160002,31.9428005 2.24160003,33.5036005 L2.24160003,33.5036005 C3.74120006,36.2560005 7.06560011,38.4716006 6.29560009,42.0356006 L6.29560009,42.0356006 C5.65280008,45.0100007 5.05480008,47.6608007 7.67920011,49.9152007 L7.67920011,49.9152007 C9.47800014,51.4600008 12.8164002,52.8684008 12.5620002,55.7288008 L12.5620002,55.7288008 C12.4720002,56.7408008 11.7712002,57.6036009 11.5796002,58.6012009 L11.5796002,58.6012009 C11.2756002,60.1804009 12.2984002,61.7172009 13.4864002,62.8012009 L13.4864002,62.8012009 C16.1892002,65.267201 18.5632003,67.592801 20.5876003,70.6956011 L20.5876003,70.6956011 C21.4528003,72.0216011 24.9164004,75.0152011 23.5320004,76.8280011 L23.5320004,76.8280011 C26.0484004,73.5328011 28.7076004,70.338001 30.9940005,66.874401 L30.9940005,66.874401 C32.8740005,64.025201 35.7084005,59.8588009 33.7792005,56.3500008 L33.7792005,56.3500008 C33.1792005,55.2588008 32.0632005,54.4456008 31.7572005,53.2380008 L31.7572005,53.2380008 C31.2048005,51.0576008 33.3472005,49.0364007 34.1436005,47.1812007 L34.1436005,47.1812007 C35.3940005,44.2692007 34.4760005,40.8868006 32.2736005,38.7004006 L32.2736005,38.7004006 C31.2316005,37.6660006 30.1008004,36.5288005 29.9476004,35.0684005 L29.9476004,35.0684005 C29.7808004,33.4740005 30.7804005,31.9872005 31.2340005,30.5164005 L31.2340005,30.5164005 C31.6520005,29.1604004 31.9128005,27.7188004 32.0652005,26.3104004 L32.0652005,26.3104004 C32.1728005,25.3160004 32.2148005,24.2980004 31.9808005,23.3256003 L31.9808005,23.3256003 C31.5360005,21.4756003 29.8700004,20.4476003 28.6368004,19.1352003 L28.6368004,19.1352003 C25.7020004,16.0104002 27.2448004,12.3364002 25.9624004,8.70480013 L25.9624004,8.70480013 C24.9364004,5.80080009 22.8392003,5.83240009 20.7012003,5.86400009 L20.7012003,5.86400009 C20.4396003,5.86800009 20.1772003,5.87200009 19.9168003,5.87000009 L19.9168003,5.87000009 C18.3644003,5.86080009 16.8576003,5.66120008 15.7948002,4.13840006 L15.7948002,4.13840006 C14.3580002,2.08120003 12.4000002,0.168000003 10.1540002,0.168000003 L10.1540002,0.168000003 C9.13800014,0.168000003 8.06320012,0.559600008 6.9504001,1.50640002" id="path-17"></path> <path d="M21.4076003,2.35440004 C20.4256003,3.31160005 19.3052003,3.24800005 18.1780003,3.03920005 L18.1780003,3.03920005 C16.4400002,2.71840004 14.6864002,2.05360003 13.4000002,4.25920006 L13.4000002,4.25920006 C11.9672002,6.7156001 12.5780002,9.59440014 10.0164001,11.4548002 L10.0164001,11.4548002 C8.94040013,12.2360002 7.58960011,12.7516002 7.0108001,14.0316002 L7.0108001,14.0316002 C6.7064001,14.7048002 6.5956001,15.4488002 6.5364001,16.1848002 L6.5364001,16.1848002 C6.4520001,17.2276003 6.4416001,18.3096003 6.5572001,19.3512003 L6.5572001,19.3512003 C6.6828001,20.4808003 7.20200011,21.6976003 6.8604001,22.8308003 L6.8604001,22.8308003 C6.5472001,23.8692004 5.56920008,24.5376004 4.67000007,25.1436004 L4.67000007,25.1436004 C2.77000004,26.4244004 1.63640002,28.7508004 2.14000003,31.0368005 L2.14000003,31.0368005 C2.46120004,32.4924005 3.73520006,34.2548005 3.03280005,35.7600005 L3.03280005,35.7600005 C2.64400004,36.5936005 1.72160003,37.0292006 1.13520002,37.7376006 L1.13520002,37.7376006 C-0.750000011,40.0156006 0.729600011,43.4304006 1.69880003,45.7572007 L1.69880003,45.7572007 C2.87800004,48.5864007 4.36480007,51.2720008 5.73360009,54.0100008 L5.73360009,54.0100008 C4.98040007,52.5036008 7.90720012,50.8116008 8.71840013,49.9692007 L8.71840013,49.9692007 C10.6164002,47.9992007 12.6604002,46.6404007 14.9620002,45.2260007 L14.9620002,45.2260007 C15.9740002,44.6044007 16.9284003,43.6308007 16.9268003,42.4436006 L16.9268003,42.4436006 C16.9256003,41.6928006 16.5368002,40.9704006 16.6116002,40.2240006 L16.6116002,40.2240006 C16.8228003,38.1140006 19.4392003,37.5544006 20.9580003,36.6824005 L20.9580003,36.6824005 C23.1736003,35.4108005 23.1072003,33.4052005 23.0524003,31.1588005 L23.0524003,31.1588005 C22.9872003,28.4668004 25.7052004,27.3196004 27.1736004,25.5308004 L27.1736004,25.5308004 C28.0068004,24.5164004 28.5400004,23.3036003 28.1996004,22.0112003 L28.1996004,22.0112003 C27.7588004,20.3348003 26.2680004,19.2720003 27.3708004,17.4392003 L27.3708004,17.4392003 C28.6844004,15.2552002 31.8360005,13.3892002 31.4988005,10.5092002 L31.4988005,10.5092002 C31.2692005,8.55160013 29.7880004,8.46000013 28.8628004,7.13000011 L28.8628004,7.13000011 C27.8168004,5.62680008 29.4396004,3.22560005 28.1876004,1.66880002 L28.1876004,1.66880002 C27.3400004,0.615200009 26.4148004,0.202400003 25.4868004,0.202400003 L25.4868004,0.202400003 C24.0380004,0.202400003 22.5824003,1.20880002 21.4076003,2.35440004" id="path-19"></path> <path d="M21.4076003,2.35440004 C20.4256003,3.31160005 19.3052003,3.24800005 18.1780003,3.03920005 L18.1780003,3.03920005 C16.4400002,2.71840004 14.6864002,2.05360003 13.4000002,4.25920006 L13.4000002,4.25920006 C11.9672002,6.7156001 12.5780002,9.59440014 10.0164001,11.4548002 L10.0164001,11.4548002 C8.94040013,12.2360002 7.58960011,12.7516002 7.0108001,14.0316002 L7.0108001,14.0316002 C6.7064001,14.7048002 6.5956001,15.4488002 6.5364001,16.1848002 L6.5364001,16.1848002 C6.4520001,17.2276003 6.4416001,18.3096003 6.5572001,19.3512003 L6.5572001,19.3512003 C6.6828001,20.4808003 7.20200011,21.6976003 6.8604001,22.8308003 L6.8604001,22.8308003 C6.5472001,23.8692004 5.56920008,24.5376004 4.67000007,25.1436004 L4.67000007,25.1436004 C2.77000004,26.4244004 1.63640002,28.7508004 2.14000003,31.0368005 L2.14000003,31.0368005 C2.46120004,32.4924005 3.73520006,34.2548005 3.03280005,35.7600005 L3.03280005,35.7600005 C2.64400004,36.5936005 1.72160003,37.0292006 1.13520002,37.7376006 L1.13520002,37.7376006 C-0.750000011,40.0156006 0.729600011,43.4304006 1.69880003,45.7572007 L1.69880003,45.7572007 C2.87800004,48.5864007 4.36480007,51.2720008 5.73360009,54.0100008 L5.73360009,54.0100008 C4.98040007,52.5036008 7.90720012,50.8116008 8.71840013,49.9692007 L8.71840013,49.9692007 C10.6164002,47.9992007 12.6604002,46.6404007 14.9620002,45.2260007 L14.9620002,45.2260007 C15.9740002,44.6044007 16.9284003,43.6308007 16.9268003,42.4436006 L16.9268003,42.4436006 C16.9256003,41.6928006 16.5368002,40.9704006 16.6116002,40.2240006 L16.6116002,40.2240006 C16.8228003,38.1140006 19.4392003,37.5544006 20.9580003,36.6824005 L20.9580003,36.6824005 C23.1736003,35.4108005 23.1072003,33.4052005 23.0524003,31.1588005 L23.0524003,31.1588005 C22.9872003,28.4668004 25.7052004,27.3196004 27.1736004,25.5308004 L27.1736004,25.5308004 C28.0068004,24.5164004 28.5400004,23.3036003 28.1996004,22.0112003 L28.1996004,22.0112003 C27.7588004,20.3348003 26.2680004,19.2720003 27.3708004,17.4392003 L27.3708004,17.4392003 C28.6844004,15.2552002 31.8360005,13.3892002 31.4988005,10.5092002 L31.4988005,10.5092002 C31.2692005,8.55160013 29.7880004,8.46000013 28.8628004,7.13000011 L28.8628004,7.13000011 C27.8168004,5.62680008 29.4396004,3.22560005 28.1876004,1.66880002 L28.1876004,1.66880002 C27.3400004,0.615200009 26.4148004,0.202400003 25.4868004,0.202400003 L25.4868004,0.202400003 C24.0380004,0.202400003 22.5824003,1.20880002 21.4076003,2.35440004" id="path-21"></path> <path d="M21.4076003,2.35440004 C20.4256003,3.31160005 19.3052003,3.24800005 18.1780003,3.03920005 L18.1780003,3.03920005 C16.4400002,2.71840004 14.6864002,2.05360003 13.4000002,4.25920006 L13.4000002,4.25920006 C11.9672002,6.7156001 12.5780002,9.59440014 10.0164001,11.4548002 L10.0164001,11.4548002 C8.94040013,12.2360002 7.58960011,12.7516002 7.0108001,14.0316002 L7.0108001,14.0316002 C6.7064001,14.7048002 6.5956001,15.4488002 6.5364001,16.1848002 L6.5364001,16.1848002 C6.4520001,17.2276003 6.4416001,18.3096003 6.5572001,19.3512003 L6.5572001,19.3512003 C6.6828001,20.4808003 7.20200011,21.6976003 6.8604001,22.8308003 L6.8604001,22.8308003 C6.5472001,23.8692004 5.56920008,24.5376004 4.67000007,25.1436004 L4.67000007,25.1436004 C2.77000004,26.4244004 1.63640002,28.7508004 2.14000003,31.0368005 L2.14000003,31.0368005 C2.46120004,32.4924005 3.73520006,34.2548005 3.03280005,35.7600005 L3.03280005,35.7600005 C2.64400004,36.5936005 1.72160003,37.0292006 1.13520002,37.7376006 L1.13520002,37.7376006 C-0.750000011,40.0156006 0.729600011,43.4304006 1.69880003,45.7572007 L1.69880003,45.7572007 C2.87800004,48.5864007 4.36480007,51.2720008 5.73360009,54.0100008 L5.73360009,54.0100008 C4.98040007,52.5036008 7.90720012,50.8116008 8.71840013,49.9692007 L8.71840013,49.9692007 C10.6164002,47.9992007 12.6604002,46.6404007 14.9620002,45.2260007 L14.9620002,45.2260007 C15.9740002,44.6044007 16.9284003,43.6308007 16.9268003,42.4436006 L16.9268003,42.4436006 C16.9256003,41.6928006 16.5368002,40.9704006 16.6116002,40.2240006 L16.6116002,40.2240006 C16.8228003,38.1140006 19.4392003,37.5544006 20.9580003,36.6824005 L20.9580003,36.6824005 C23.1736003,35.4108005 23.1072003,33.4052005 23.0524003,31.1588005 L23.0524003,31.1588005 C22.9872003,28.4668004 25.7052004,27.3196004 27.1736004,25.5308004 L27.1736004,25.5308004 C28.0068004,24.5164004 28.5400004,23.3036003 28.1996004,22.0112003 L28.1996004,22.0112003 C27.7588004,20.3348003 26.2680004,19.2720003 27.3708004,17.4392003 L27.3708004,17.4392003 C28.6844004,15.2552002 31.8360005,13.3892002 31.4988005,10.5092002 L31.4988005,10.5092002 C31.2692005,8.55160013 29.7880004,8.46000013 28.8628004,7.13000011 L28.8628004,7.13000011 C27.8168004,5.62680008 29.4396004,3.22560005 28.1876004,1.66880002 L28.1876004,1.66880002 C27.3400004,0.615200009 26.4148004,0.202400003 25.4868004,0.202400003 L25.4868004,0.202400003 C24.0380004,0.202400003 22.5824003,1.20880002 21.4076003,2.35440004" id="path-23"></path> <path d="M21.4076003,2.35440004 C20.4256003,3.31160005 19.3052003,3.24800005 18.1780003,3.03920005 L18.1780003,3.03920005 C16.4400002,2.71840004 14.6864002,2.05360003 13.4000002,4.25920006 L13.4000002,4.25920006 C11.9672002,6.7156001 12.5780002,9.59440014 10.0164001,11.4548002 L10.0164001,11.4548002 C8.94040013,12.2360002 7.58960011,12.7516002 7.0108001,14.0316002 L7.0108001,14.0316002 C6.7064001,14.7048002 6.5956001,15.4488002 6.5364001,16.1848002 L6.5364001,16.1848002 C6.4520001,17.2276003 6.4416001,18.3096003 6.5572001,19.3512003 L6.5572001,19.3512003 C6.6828001,20.4808003 7.20200011,21.6976003 6.8604001,22.8308003 L6.8604001,22.8308003 C6.5472001,23.8692004 5.56920008,24.5376004 4.67000007,25.1436004 L4.67000007,25.1436004 C2.77000004,26.4244004 1.63640002,28.7508004 2.14000003,31.0368005 L2.14000003,31.0368005 C2.46120004,32.4924005 3.73520006,34.2548005 3.03280005,35.7600005 L3.03280005,35.7600005 C2.64400004,36.5936005 1.72160003,37.0292006 1.13520002,37.7376006 L1.13520002,37.7376006 C-0.750000011,40.0156006 0.729600011,43.4304006 1.69880003,45.7572007 L1.69880003,45.7572007 C2.87800004,48.5864007 4.36480007,51.2720008 5.73360009,54.0100008 L5.73360009,54.0100008 C4.98040007,52.5036008 7.90720012,50.8116008 8.71840013,49.9692007 L8.71840013,49.9692007 C10.6164002,47.9992007 12.6604002,46.6404007 14.9620002,45.2260007 L14.9620002,45.2260007 C15.9740002,44.6044007 16.9284003,43.6308007 16.9268003,42.4436006 L16.9268003,42.4436006 C16.9256003,41.6928006 16.5368002,40.9704006 16.6116002,40.2240006 L16.6116002,40.2240006 C16.8228003,38.1140006 19.4392003,37.5544006 20.9580003,36.6824005 L20.9580003,36.6824005 C23.1736003,35.4108005 23.1072003,33.4052005 23.0524003,31.1588005 L23.0524003,31.1588005 C22.9872003,28.4668004 25.7052004,27.3196004 27.1736004,25.5308004 L27.1736004,25.5308004 C28.0068004,24.5164004 28.5400004,23.3036003 28.1996004,22.0112003 L28.1996004,22.0112003 C27.7588004,20.3348003 26.2680004,19.2720003 27.3708004,17.4392003 L27.3708004,17.4392003 C28.6844004,15.2552002 31.8360005,13.3892002 31.4988005,10.5092002 L31.4988005,10.5092002 C31.2692005,8.55160013 29.7880004,8.46000013 28.8628004,7.13000011 L28.8628004,7.13000011 C27.8168004,5.62680008 29.4396004,3.22560005 28.1876004,1.66880002 L28.1876004,1.66880002 C27.3400004,0.615200009 26.4148004,0.202400003 25.4868004,0.202400003 L25.4868004,0.202400003 C24.0380004,0.202400003 22.5824003,1.20880002 21.4076003,2.35440004" id="path-25"></path> <path d="M21.4076003,2.35440004 C20.4256003,3.31160005 19.3052003,3.24800005 18.1780003,3.03920005 L18.1780003,3.03920005 C16.4400002,2.71840004 14.6864002,2.05360003 13.4000002,4.25920006 L13.4000002,4.25920006 C11.9672002,6.7156001 12.5780002,9.59440014 10.0164001,11.4548002 L10.0164001,11.4548002 C8.94040013,12.2360002 7.58960011,12.7516002 7.0108001,14.0316002 L7.0108001,14.0316002 C6.7064001,14.7048002 6.5956001,15.4488002 6.5364001,16.1848002 L6.5364001,16.1848002 C6.4520001,17.2276003 6.4416001,18.3096003 6.5572001,19.3512003 L6.5572001,19.3512003 C6.6828001,20.4808003 7.20200011,21.6976003 6.8604001,22.8308003 L6.8604001,22.8308003 C6.5472001,23.8692004 5.56920008,24.5376004 4.67000007,25.1436004 L4.67000007,25.1436004 C2.77000004,26.4244004 1.63640002,28.7508004 2.14000003,31.0368005 L2.14000003,31.0368005 C2.46120004,32.4924005 3.73520006,34.2548005 3.03280005,35.7600005 L3.03280005,35.7600005 C2.64400004,36.5936005 1.72160003,37.0292006 1.13520002,37.7376006 L1.13520002,37.7376006 C-0.750000011,40.0156006 0.729600011,43.4304006 1.69880003,45.7572007 L1.69880003,45.7572007 C2.87800004,48.5864007 4.36480007,51.2720008 5.73360009,54.0100008 L5.73360009,54.0100008 C4.98040007,52.5036008 7.90720012,50.8116008 8.71840013,49.9692007 L8.71840013,49.9692007 C10.6164002,47.9992007 12.6604002,46.6404007 14.9620002,45.2260007 L14.9620002,45.2260007 C15.9740002,44.6044007 16.9284003,43.6308007 16.9268003,42.4436006 L16.9268003,42.4436006 C16.9256003,41.6928006 16.5368002,40.9704006 16.6116002,40.2240006 L16.6116002,40.2240006 C16.8228003,38.1140006 19.4392003,37.5544006 20.9580003,36.6824005 L20.9580003,36.6824005 C23.1736003,35.4108005 23.1072003,33.4052005 23.0524003,31.1588005 L23.0524003,31.1588005 C22.9872003,28.4668004 25.7052004,27.3196004 27.1736004,25.5308004 L27.1736004,25.5308004 C28.0068004,24.5164004 28.5400004,23.3036003 28.1996004,22.0112003 L28.1996004,22.0112003 C27.7588004,20.3348003 26.2680004,19.2720003 27.3708004,17.4392003 L27.3708004,17.4392003 C28.6844004,15.2552002 31.8360005,13.3892002 31.4988005,10.5092002 L31.4988005,10.5092002 C31.2692005,8.55160013 29.7880004,8.46000013 28.8628004,7.13000011 L28.8628004,7.13000011 C27.8168004,5.62680008 29.4396004,3.22560005 28.1876004,1.66880002 L28.1876004,1.66880002 C27.3400004,0.615200009 26.4148004,0.202400003 25.4868004,0.202400003 L25.4868004,0.202400003 C24.0380004,0.202400003 22.5824003,1.20880002 21.4076003,2.35440004" id="path-27"></path> <path d="M21.4076003,2.35440004 C20.4256003,3.31160005 19.3052003,3.24800005 18.1780003,3.03920005 L18.1780003,3.03920005 C16.4400002,2.71840004 14.6864002,2.05360003 13.4000002,4.25920006 L13.4000002,4.25920006 C11.9672002,6.7156001 12.5780002,9.59440014 10.0164001,11.4548002 L10.0164001,11.4548002 C8.94040013,12.2360002 7.58960011,12.7516002 7.0108001,14.0316002 L7.0108001,14.0316002 C6.7064001,14.7048002 6.5956001,15.4488002 6.5364001,16.1848002 L6.5364001,16.1848002 C6.4520001,17.2276003 6.4416001,18.3096003 6.5572001,19.3512003 L6.5572001,19.3512003 C6.6828001,20.4808003 7.20200011,21.6976003 6.8604001,22.8308003 L6.8604001,22.8308003 C6.5472001,23.8692004 5.56920008,24.5376004 4.67000007,25.1436004 L4.67000007,25.1436004 C2.77000004,26.4244004 1.63640002,28.7508004 2.14000003,31.0368005 L2.14000003,31.0368005 C2.46120004,32.4924005 3.73520006,34.2548005 3.03280005,35.7600005 L3.03280005,35.7600005 C2.64400004,36.5936005 1.72160003,37.0292006 1.13520002,37.7376006 L1.13520002,37.7376006 C-0.750000011,40.0156006 0.729600011,43.4304006 1.69880003,45.7572007 L1.69880003,45.7572007 C2.87800004,48.5864007 4.36480007,51.2720008 5.73360009,54.0100008 L5.73360009,54.0100008 C4.98040007,52.5036008 7.90720012,50.8116008 8.71840013,49.9692007 L8.71840013,49.9692007 C10.6164002,47.9992007 12.6604002,46.6404007 14.9620002,45.2260007 L14.9620002,45.2260007 C15.9740002,44.6044007 16.9284003,43.6308007 16.9268003,42.4436006 L16.9268003,42.4436006 C16.9256003,41.6928006 16.5368002,40.9704006 16.6116002,40.2240006 L16.6116002,40.2240006 C16.8228003,38.1140006 19.4392003,37.5544006 20.9580003,36.6824005 L20.9580003,36.6824005 C23.1736003,35.4108005 23.1072003,33.4052005 23.0524003,31.1588005 L23.0524003,31.1588005 C22.9872003,28.4668004 25.7052004,27.3196004 27.1736004,25.5308004 L27.1736004,25.5308004 C28.0068004,24.5164004 28.5400004,23.3036003 28.1996004,22.0112003 L28.1996004,22.0112003 C27.7588004,20.3348003 26.2680004,19.2720003 27.3708004,17.4392003 L27.3708004,17.4392003 C28.6844004,15.2552002 31.8360005,13.3892002 31.4988005,10.5092002 L31.4988005,10.5092002 C31.2692005,8.55160013 29.7880004,8.46000013 28.8628004,7.13000011 L28.8628004,7.13000011 C27.8168004,5.62680008 29.4396004,3.22560005 28.1876004,1.66880002 L28.1876004,1.66880002 C27.3400004,0.615200009 26.4148004,0.202400003 25.4868004,0.202400003 L25.4868004,0.202400003 C24.0380004,0.202400003 22.5824003,1.20880002 21.4076003,2.35440004" id="path-29"></path> <path d="M21.4076003,2.35440004 C20.4256003,3.31160005 19.3052003,3.24800005 18.1780003,3.03920005 L18.1780003,3.03920005 C16.4400002,2.71840004 14.6864002,2.05360003 13.4000002,4.25920006 L13.4000002,4.25920006 C11.9672002,6.7156001 12.5780002,9.59440014 10.0164001,11.4548002 L10.0164001,11.4548002 C8.94040013,12.2360002 7.58960011,12.7516002 7.0108001,14.0316002 L7.0108001,14.0316002 C6.7064001,14.7048002 6.5956001,15.4488002 6.5364001,16.1848002 L6.5364001,16.1848002 C6.4520001,17.2276003 6.4416001,18.3096003 6.5572001,19.3512003 L6.5572001,19.3512003 C6.6828001,20.4808003 7.20200011,21.6976003 6.8604001,22.8308003 L6.8604001,22.8308003 C6.5472001,23.8692004 5.56920008,24.5376004 4.67000007,25.1436004 L4.67000007,25.1436004 C2.77000004,26.4244004 1.63640002,28.7508004 2.14000003,31.0368005 L2.14000003,31.0368005 C2.46120004,32.4924005 3.73520006,34.2548005 3.03280005,35.7600005 L3.03280005,35.7600005 C2.64400004,36.5936005 1.72160003,37.0292006 1.13520002,37.7376006 L1.13520002,37.7376006 C-0.750000011,40.0156006 0.729600011,43.4304006 1.69880003,45.7572007 L1.69880003,45.7572007 C2.87800004,48.5864007 4.36480007,51.2720008 5.73360009,54.0100008 L5.73360009,54.0100008 C4.98040007,52.5036008 7.90720012,50.8116008 8.71840013,49.9692007 L8.71840013,49.9692007 C10.6164002,47.9992007 12.6604002,46.6404007 14.9620002,45.2260007 L14.9620002,45.2260007 C15.9740002,44.6044007 16.9284003,43.6308007 16.9268003,42.4436006 L16.9268003,42.4436006 C16.9256003,41.6928006 16.5368002,40.9704006 16.6116002,40.2240006 L16.6116002,40.2240006 C16.8228003,38.1140006 19.4392003,37.5544006 20.9580003,36.6824005 L20.9580003,36.6824005 C23.1736003,35.4108005 23.1072003,33.4052005 23.0524003,31.1588005 L23.0524003,31.1588005 C22.9872003,28.4668004 25.7052004,27.3196004 27.1736004,25.5308004 L27.1736004,25.5308004 C28.0068004,24.5164004 28.5400004,23.3036003 28.1996004,22.0112003 L28.1996004,22.0112003 C27.7588004,20.3348003 26.2680004,19.2720003 27.3708004,17.4392003 L27.3708004,17.4392003 C28.6844004,15.2552002 31.8360005,13.3892002 31.4988005,10.5092002 L31.4988005,10.5092002 C31.2692005,8.55160013 29.7880004,8.46000013 28.8628004,7.13000011 L28.8628004,7.13000011 C27.8168004,5.62680008 29.4396004,3.22560005 28.1876004,1.66880002 L28.1876004,1.66880002 C27.3400004,0.615200009 26.4148004,0.202400003 25.4868004,0.202400003 L25.4868004,0.202400003 C24.0380004,0.202400003 22.5824003,1.20880002 21.4076003,2.35440004" id="path-31"></path> </defs> <g id="Page-1" stroke="none" stroke-width="1" fill="none" fill-rule="evenodd"> <g id="artem" transform="translate(-664.000000, -1901.000000)"> <g id="Group-11-Copy-8" transform="translate(198.000000, 1901.000000)"> <g id="Group-115" transform="translate(466.000000, 0.000000)"> <g id="Group-62" transform="translate(0.000000, 0.198800)"> <path d="M45.2840807,134.070802 C38.5392806,143.661202 33.3348805,156.708802 36.9460806,168.752403 C40.5464806,180.759203 52.0600808,188.162803 57.0920809,199.566803 C59.9360809,206.012803 60.0120809,213.100003 60.1196809,220.019203 C60.2604809,229.076403 58.4912809,238.694804 64.612481,246.349204 C68.233281,250.876804 73.6972811,253.552004 79.2220812,255.309204 C90.3176813,258.838804 101.942482,260.495604 111.798082,267.162004 C127.989682,278.113604 147.874482,281.942404 167.170082,280.759604 C176.956083,280.159604 186.660083,278.317204 196.033283,275.456804 C206.923683,272.132804 216.603283,266.249204 227.568883,263.097204 C246.572884,257.634804 272.559284,257.560004 283.680084,238.332004 C291.167684,225.386803 293.761284,209.386403 287.936884,195.281603 C285.167284,188.575203 279.881284,183.453203 276.870084,176.868803 C272.710484,167.772002 271.588484,157.399602 274.367684,147.735602 C274.483284,147.338402 274.603684,146.942402 274.729284,146.548402 C277.632884,137.513202 283.478084,129.744402 285.895284,120.547202 C290.886084,101.559202 279.858084,81.4824012 265.361684,69.277601 C259.337684,64.206001 252.607284,59.9848009 245.276884,57.5788009 C225.058483,50.9420008 202.593283,58.6228009 182.313683,52.2032008 C166.756082,47.2784007 153.983282,34.4772005 138.131282,30.7756005 C125.949682,27.9308004 112.785682,30.9672005 102.437282,38.4024006 C92.0892814,45.8376007 84.5800813,57.4736009 81.1568812,70.288401 C77.9852812,82.1624012 78.0848812,95.2052014 72.4596811,105.991602 C67.646881,115.220002 58.7276809,120.199202 51.4860808,126.894402 C49.2320807,128.978002 47.1504807,131.416802 45.2840807,134.070802" id="Fill-1" fill="#E2F3F5"></path> <path d="M146.160962,274.527444 L287.314564,274.527444" id="Fill-3" fill="#172755"></path> <path d="M356.064365,272.718084 C352.848365,266.745284 348.231965,282.967284 345.157165,258.888484 C343.421165,245.292484 338.789165,237.294884 336.491965,229.484083 C334.194765,221.673683 333.345565,197.446483 324.816765,172.962483 C311.169565,177.340883 276.563964,200.008483 276.563964,200.008483 C276.563964,200.008483 289.022364,241.628884 289.941564,247.142084 C290.860364,252.655284 293.948364,266.789684 299.051964,278.622884 C305.005965,292.426884 341.769565,271.646884 341.309965,275.781684" id="Fill-5" fill="#BC7551"></path> <path d="M114.700682,268.430284 C117.916682,262.457484 84.9998813,282.967484 88.0746813,258.888684 C89.8106813,245.292284 94.4426814,237.294684 96.7398814,229.484283 C99.0370815,221.673883 99.8862815,197.446683 108.415082,172.962683 C122.062282,177.340683 156.668282,200.008683 156.668282,200.008683 C156.668282,200.008683 144.209482,241.628684 143.290282,247.142284 C142.371482,252.655484 139.283482,266.789884 134.179882,278.622684 C128.225882,292.427084 128.995482,267.358684 129.455082,271.493884" id="Fill-7" fill="#BC7551"></path> <path d="M304.763765,127.585322 C289.344164,110.088922 244.244164,92.9037214 216.737763,94.8193214 C189.097363,92.8941214 144.057762,110.169722 128.711762,127.585322 C106.607362,152.670922 93.4757614,196.904923 95.2501614,200.158523 C97.4937615,204.272523 127.313762,213.417723 147.428562,212.513723 C160.167762,256.402524 143.404162,271.081724 146.160962,274.527324 C151.029362,280.612924 267.932564,287.748524 287.314564,274.527324 C290.959764,272.040924 276.563764,259.114524 286.046964,212.513723 C306.161365,213.417723 335.981765,204.272523 338.225365,200.158523 C339.999765,196.904923 326.274165,151.992922 304.763765,127.585322" id="Fill-9" fill="#E2A346"></path> <path d="M238.429124,48.4326007 C237.647524,74.1366011 240.697924,91.8310014 241.781524,97.0118014 C242.700324,101.402202 238.182724,109.469802 217.717123,109.469802 C201.419123,109.469802 194.894323,102.222602 196.097123,97.4162015 C198.099923,89.4118013 201.573523,73.1174011 197.399523,54.5694008 C193.225123,36.0210005 234.811123,48.9090007 238.429124,48.4326007" id="Fill-11" fill="#BC7551"></path> <path d="M190.625083,33.8848805 C179.143083,29.0360804 176.319083,7.47248011 199.099483,11.2992802 C187.501083,-0.492720007 213.017483,-4.70672007 220.904283,7.74248012 C238.182684,-1.53632002 248.431484,8.20608012 240.389884,14.5468802 C256.627884,16.7116802 254.634684,30.9744805 246.876284,32.5720805 L190.625083,33.8848805 Z" id="Fill-13" fill="#172755"></path> <path d="M247.303404,41.2572406 C244.549404,39.4248406 242.347404,41.7576406 242.347404,41.7576406 C240.823804,41.3136406 240.003004,41.4108406 239.111804,34.4216405 C238.570604,30.1772404 236.857804,26.9716404 232.735003,28.1168404 C224.383803,30.4364405 216.033003,32.7564405 206.986203,28.1556404 C201.438203,25.3340404 198.391403,28.3740404 197.776603,32.6280405 C196.705403,40.0448406 195.701403,45.2488407 193.964203,45.0696407 C193.964203,45.0696407 192.962603,41.4460406 189.543403,42.6280406 C186.729403,43.6008406 190.505803,57.6880409 194.403003,56.8960408 C194.856203,58.9360409 194.493803,65.928041 196.531003,70.7992411 C198.500603,75.5088411 209.173403,85.2968413 218.286603,85.2968413 C227.399403,85.2968413 238.072204,75.5088411 240.041804,70.7992411 C242.079004,65.928041 241.716604,58.9360409 242.169804,56.8960408 C245.820204,56.9600408 249.781004,42.9056406 247.303404,41.2572406" id="Fill-15" fill="#BC7551"></path> <path d="M218.726723,87.3213613 C209.366323,87.3213613 202.243123,80.1841612 199.615123,77.1161611 C199.319523,76.7709611 199.359523,76.2517611 199.704323,75.9561611 C200.049523,75.6605611 200.568723,75.7009611 200.864323,76.0457611 C203.344323,78.9413612 210.049523,85.6761613 218.726723,85.6761613 C225.573923,85.6761613 232.397523,81.3541612 237.447524,73.8185611 C237.700724,73.4409611 238.211924,73.3397611 238.588724,73.5929611 C238.966324,73.8457611 239.067124,74.3569611 238.814324,74.7341611 C233.453523,82.7333612 226.131923,87.3213613 218.726723,87.3213613" id="Fill-17" fill="#804737"></path> <path d="M207.795603,53.1887608 L207.795603,53.1887608 C206.653203,53.1887608 205.727203,52.2627608 205.727203,51.1203608 L205.727203,49.5987607 C205.727203,48.4563607 206.653203,47.5303607 207.795603,47.5303607 C208.938003,47.5303607 209.864003,48.4563607 209.864003,49.5987607 L209.864003,51.1203608 C209.864003,52.2627608 208.938003,53.1887608 207.795603,53.1887608" id="Fill-19" fill="#804737"></path> <path d="M228.537803,53.1887608 L228.537803,53.1887608 C227.395403,53.1887608 226.469403,52.2627608 226.469403,51.1203608 L226.469403,49.5987607 C226.469403,48.4563607 227.395403,47.5303607 228.537803,47.5303607 C229.680203,47.5303607 230.606203,48.4563607 230.606203,49.5987607 L230.606203,51.1203608 C230.606203,52.2627608 229.680203,53.1887608 228.537803,53.1887608" id="Fill-21" fill="#804737"></path> <path d="M217.780843,64.832641 C216.889643,64.832641 215.730443,64.796241 214.218043,64.701841 C213.764843,64.673441 213.420443,64.283041 213.448443,63.829441 C213.476843,63.3762409 213.866843,63.0322409 214.320843,63.0598409 C216.420443,63.1906409 218.932843,63.2338409 219.751243,63.0974409 C219.899243,62.3582409 219.873243,60.1582409 219.850043,58.1962409 C219.756043,50.2418407 219.935243,42.9574406 223.116443,41.2150406 C223.515243,40.9970406 224.014843,41.1434406 224.233243,41.5414406 C224.451243,41.9398406 224.305243,42.4398406 223.906843,42.6582406 C221.328443,44.0698407 221.432843,52.9006408 221.494843,58.1766409 C221.550843,62.8830409 221.499243,63.939441 220.826443,64.430641 C220.668843,64.545441 220.274843,64.832641 217.780843,64.832641 L217.780843,64.832641 Z" id="Fill-23" fill="#804737"></path> <path d="M215.868883,71.1102411 C214.069683,71.1102411 212.214883,70.7534411 210.518483,69.770641 C208.315683,68.494241 207.438483,66.758641 207.402083,66.685441 C207.200483,66.278641 207.367283,65.785041 207.774483,65.583441 C208.182083,65.382241 208.674883,65.548641 208.876483,65.955841 C208.991283,66.181441 211.843283,71.5482411 220.879283,68.586641 C221.311283,68.445041 221.775683,68.680641 221.917283,69.112241 C222.058483,69.543441 221.823283,70.008241 221.391683,70.149841 C219.820083,70.6646411 217.879283,71.1102411 215.868883,71.1102411" id="Fill-25" fill="#804737"></path> <path d="M200.842883,44.4236407 C200.842883,44.4236407 208.227283,41.9436406 213.697683,42.9940406 C214.778483,43.2016406 214.563283,39.7320406 211.738883,39.5840406 C208.701683,39.4248406 201.711283,40.2912406 200.842883,41.9656406 C200.163283,43.2760406 200.842883,44.4236407 200.842883,44.4236407" id="Fill-27" fill="#172755"></path> <path d="M235.729484,43.8517607 C235.729484,43.8517607 228.345083,41.9437606 222.874683,42.9937606 C221.793883,43.2013606 221.473083,40.0569606 224.261883,39.5837606 C227.103883,39.1017606 234.861083,39.7193606 235.729484,41.3937606 C236.409084,42.7041606 235.729484,43.8517607 235.729484,43.8517607" id="Fill-29" fill="#172755"></path> <path d="M190.899243,33.0624005 C194.338843,29.8024004 202.937643,22.0336003 218.286043,22.0199776 C234.176043,22.0056003 244.238444,28.8232004 246.602444,32.0236005 C248.966044,35.2240005 243.704044,42.8832006 241.985644,41.9560006 C240.267244,41.0292006 233.812443,33.8848005 219.185243,34.2860005 C197.480443,34.8808005 195.053243,47.0024007 193.831643,45.1520007 C192.610043,43.3012006 189.393243,34.4896005 190.899243,33.0624005" id="Fill-31" fill="#E2A346"></path> <path d="M219.185483,117.371842 L219.185083,117.371842 C205.982683,117.371842 196.547083,114.149042 191.141083,107.792642 C186.969883,102.888242 186.921883,97.9350415 186.921883,97.7266415 C186.921883,96.8182414 187.658283,96.0814414 188.566683,96.0814414 C189.472283,96.0814414 190.207083,96.8134414 190.211883,97.7182415 C190.213083,97.7946415 190.315483,101.849842 193.789883,105.826642 C198.509083,111.227042 207.290283,114.081842 219.185083,114.081842 C230.613083,114.081842 238.928684,111.563842 243.233484,106.800242 C246.815884,102.836242 246.443084,98.7106415 246.439084,98.6694415 C246.347484,97.7654415 247.005884,96.9586414 247.909884,96.8670414 C248.812684,96.7758414 249.620684,97.4334415 249.712284,98.3374415 C249.735484,98.5650415 250.225484,103.970242 245.674684,109.006242 C240.658284,114.557042 231.745083,117.371842 219.185483,117.371842 L219.185483,117.371842 Z" id="Fill-33" fill="#FFFFFF"></path> <path d="M147.549722,208.173043 C101.286122,203.355843 92.9873214,192.470243 92.6569214,192.009043 L95.3305214,190.091843 L95.3129214,190.068243 C95.3329214,190.093443 97.3629215,192.646643 104.847722,195.741443 C111.744922,198.593443 124.811322,202.497443 147.890522,204.900643 L147.549722,208.173043 Z" id="Fill-35" fill="#FFFFFF"></path> <path d="M286.541884,206.506723 L286.083084,203.248723 C286.467084,203.194723 324.621885,197.745923 336.942285,189.674323 L338.745485,192.426323 C325.811885,200.899923 288.139084,206.281923 286.541884,206.506723" id="Fill-37" fill="#FFFFFF"></path> <path d="M389.394326,209.338083 C390.761126,206.512483 390.516726,203.542083 389.654726,200.848083 C388.826326,198.094083 387.347526,195.722083 385.746326,193.129283 C384.128326,190.572883 382.476326,187.785683 381.465126,184.429683 C380.439126,181.036483 380.731926,177.232083 381.675126,174.014483 C383.712726,167.450882 387.885126,162.613682 390.759126,157.665282 C392.199126,155.161282 393.377526,152.618482 393.843526,149.804082 C394.367126,147.016882 394.187126,144.047682 392.817926,141.248882 C395.192326,143.326082 396.342726,146.693282 396.497926,149.953282 C396.646326,153.247282 395.814726,156.589682 394.551526,159.528082 C392.056726,165.488082 388.317126,170.326883 386.861926,175.558483 C386.036326,178.148483 385.833526,180.657683 386.419526,183.169283 C386.909126,185.743683 388.255926,188.342883 389.466726,191.160483 C390.751526,193.912483 391.981526,197.092483 392.253926,200.363283 C392.531926,203.585283 391.794726,207.226883 389.394326,209.338083" id="Fill-39" fill="#FFFFFF"></path> <path d="M394.296966,265.739244 L387.040166,265.739244 C378.866166,265.739244 372.240166,259.113244 372.240166,250.939244 L372.240166,212.946043 L409.096966,212.946043 L409.096966,250.939244 C409.096966,259.113244 402.470966,265.739244 394.296966,265.739244" id="Fill-41" fill="#EA394A"></path> <path d="M411.670806,251.571684 C405.984006,251.571684 401.374406,246.894084 401.374406,241.124484 C401.374406,235.354484 405.984006,230.676883 411.670806,230.676883 C417.357206,230.676883 421.966806,235.354484 421.966806,241.124484 C421.966806,246.894084 417.357206,251.571684 411.670806,251.571684 M411.670806,224.886483 C402.832806,224.886483 395.667606,232.156483 395.667606,241.124484 C395.667606,250.092484 402.832806,257.362484 411.670806,257.362484 C420.508806,257.362484 427.673606,250.092484 427.673606,241.124484 C427.673606,232.156483 420.508806,224.886483 411.670806,224.886483" id="Fill-43" fill="#EA394A"></path> <path d="M377.751166,245.700564 L377.751166,245.700564 C376.655166,245.700564 375.758366,244.804164 375.758366,243.708164 L375.758366,218.015363 C375.758366,216.919363 376.655166,216.022963 377.751166,216.022963 C378.847166,216.022963 379.743566,216.919363 379.743566,218.015363 L379.743566,243.708164 C379.743566,244.804164 378.847166,245.700564 377.751166,245.700564" id="Fill-45" fill="#FFFFFF"></path> <path d="M400.585366,212.945883 L400.585366,256.405084 C400.585366,261.559884 396.406166,265.739084 391.250966,265.739084 L399.762966,265.739084 C404.918166,265.739084 409.096966,261.559884 409.096966,256.405084 L409.096966,212.945883 L400.585366,212.945883 Z" id="Fill-47" fill="#EA394A"></path> <g id="Group-51" transform="translate(0.000000, 264.800004)"> <mask id="mask-2" fill="white"> <use xlink:href="#path-1"></use> </mask> <g id="Clip-50"></g> <path d="M497.551287,18.8000003 L9.80808015,18.8000003 C4.39128007,18.8000003 8.00000013e-05,14.6140002 8.00000013e-05,9.45000014 C8.00000013e-05,4.28600006 4.39128007,0.0996000015 9.80808015,0.0996000015 L497.551287,0.0996000015 C502.968087,0.0996000015 507.359288,4.28600006 507.359288,9.45000014 C507.359288,14.6140002 502.968087,18.8000003 497.551287,18.8000003" id="Fill-49" fill="#9ED2F2" mask="url(#mask-2)"></path> </g> <polygon id="Fill-52" fill="#B8D1CE" points="133.419602 144.767362 131.998402 148.138162 301.533604 148.138162 299.832404 144.350162"></polygon> <path d="M289.836324,255.269724 L143.632722,255.269724 L133.158322,146.423722 C132.970322,144.472122 134.480322,142.780922 136.411122,142.780922 L297.058324,142.780922 C298.989124,142.780922 300.499124,144.472122 300.311524,146.423722 L289.836324,255.269724 Z" id="Fill-54" fill="#B8D1CE"></path> <path d="M290.983484,258.347364 L142.485482,258.347364 L131.846682,149.501362 C131.655882,147.549762 133.189482,145.858962 135.150682,145.858962 L298.319084,145.858962 C300.279884,145.858962 301.813884,147.549762 301.623084,149.501362 L290.983484,258.347364 Z" id="Fill-56" fill="#FFFFFF"></path> <mask id="mask-4" fill="white"> <use xlink:href="#path-3"></use> </mask> <g id="Clip-59"></g> <polygon id="Fill-58" fill="#B8D1CE" mask="url(#mask-4)" points="142.485602 264.952404 290.894804 264.952404 290.894804 258.347604 142.485602 258.347604"></polygon> <path d="M227.031203,202.103123 C227.031203,207.789523 222.421203,212.399523 216.734803,212.399523 C211.048403,212.399523 206.438403,207.789523 206.438403,202.103123 C206.438403,196.416323 211.048403,191.806723 216.734803,191.806723 C222.421203,191.806723 227.031203,196.416323 227.031203,202.103123" id="Fill-60" fill="#B8D1CE" mask="url(#mask-4)"></path> <path d="M447.516607,167.470002 C445.964607,167.460802 444.457807,167.261202 443.394607,165.738802 C441.307807,162.750002 438.122207,160.067202 434.550206,163.106002 C432.489806,164.858802 434.039006,168.464803 432.265806,170.199203 C430.697806,171.732803 428.703806,171.479603 427.901806,174.025203 C426.722206,177.770403 430.440206,181.052003 431.633806,184.290403 C432.635806,187.008003 430.383006,188.043603 429.370606,190.161603 C428.590206,191.794003 428.991406,193.542803 429.841806,195.103603 C431.341406,197.856003 434.665806,200.071603 433.895406,203.635603 C433.252606,206.610003 432.655006,209.260803 435.279406,211.515203 C437.078207,213.060403 440.416607,214.468403 440.162207,217.328803 C440.071807,218.340803 439.371407,219.203603 439.179407,220.201203 C438.875407,221.780403 439.898607,223.317203 441.086607,224.401203 C443.789407,226.867203 446.163007,229.192803 448.187807,232.295603 C449.053007,233.621603 452.516607,236.615204 451.132207,238.428004 C453.648607,235.132804 456.307807,231.938003 458.593807,228.474403 C460.474207,225.625203 463.308607,221.458803 461.379007,217.950003 C460.779007,216.858803 459.663007,216.045603 459.357007,214.838003 C458.805007,212.657603 460.947007,210.636403 461.743407,208.781203 C462.993807,205.869203 462.076207,202.486803 459.873807,200.300403 C458.831807,199.266003 457.701007,198.128803 457.547807,196.668403 C457.380607,195.074003 458.380207,193.587203 458.833807,192.116403 C459.252207,190.760403 459.512607,189.318803 459.665407,187.910403 C459.773007,186.916003 459.814607,185.898403 459.580607,184.925603 C459.135807,183.076003 457.470207,182.047603 456.237007,180.735203 C453.301807,177.610403 454.844607,173.936403 453.562607,170.304803 C452.411407,167.045202 449.909807,167.484002 447.516607,167.470002" id="Fill-61" fill="#1D7E8E" mask="url(#mask-4)"></path> </g> <g id="Group-84" transform="translate(427.600006, 161.798802)"> <g id="Group-65"> <mask id="mask-6" fill="white"> <use xlink:href="#path-5"></use> </mask> <g id="Clip-64"></g> <path d="M23.8445204,80.5420812 C24.9345204,68.049681 23.9333204,55.4576808 21.6257203,43.1548806 C19.4241203,31.4180805 16.5349202,19.6412803 12.1537202,8.51528013 C10.7065202,4.83928007 9.08132014,1.23128002 7.23452011,-2.26192003" id="Stroke-63" stroke="#00A09D" stroke-width="2.00000003" mask="url(#mask-6)"></path> </g> <g id="Group-68"> <mask id="mask-8" fill="white"> <use xlink:href="#path-7"></use> </mask> <g id="Clip-67"></g> <path d="M-2.62804004,14.4898402 C3.52076005,16.6602402 9.38596014,19.6338403 14.7707602,23.3110403 C16.1367602,24.2442404 16.8975603,24.5294404 18.0363603,25.7294404" id="Stroke-66" stroke="#00A09D" stroke-width="2.00000003" mask="url(#mask-8)"></path> </g> <g id="Group-71"> <mask id="mask-10" fill="white"> <use xlink:href="#path-9"></use> </mask> <g id="Clip-70"></g> <path d="M20.9524403,39.1132806 C15.0508402,35.2992805 8.35764012,32.7156805 1.42404002,31.5752805" id="Stroke-69" stroke="#00A09D" stroke-width="2.00000003" mask="url(#mask-10)"></path> </g> <g id="Group-74"> <mask id="mask-12" fill="white"> <use xlink:href="#path-11"></use> </mask> <g id="Clip-73"></g> <path d="M23.2865203,55.2287208 C17.7941203,50.4691208 11.0989202,47.1083207 4.00052006,45.5483207" id="Stroke-72" stroke="#00A09D" stroke-width="2.00000003" mask="url(#mask-12)"></path> </g> <g id="Group-77"> <mask id="mask-14" fill="white"> <use xlink:href="#path-13"></use> </mask> <g id="Clip-76"></g> <path d="M17.7312403,25.3177604 C18.1604403,18.7085603 19.8056403,12.1797602 22.5592403,6.15576009" id="Stroke-75" stroke="#00A09D" stroke-width="2.00000003" mask="url(#mask-14)"></path> </g> <g id="Group-80"> <mask id="mask-16" fill="white"> <use xlink:href="#path-15"></use> </mask> <g id="Clip-79"></g> <path d="M20.8772403,38.5684406 C23.6680404,32.5980405 27.6992404,27.2108404 32.6404405,22.8496403" id="Stroke-78" stroke="#00A09D" stroke-width="2.00000003" mask="url(#mask-16)"></path> </g> <g id="Group-83"> <mask id="mask-18" fill="white"> <use xlink:href="#path-17"></use> </mask> <g id="Clip-82"></g> <path d="M23.6521604,55.6870008 C24.0377604,53.8422008 24.7141604,52.0586008 25.6485604,50.4222008 C26.7357604,48.5186007 28.1585604,46.8302007 29.6065604,45.1846007 C30.6497605,43.9994007 31.7105605,42.8302006 32.7889605,41.6770006" id="Stroke-81" stroke="#00A09D" stroke-width="2.00000003" mask="url(#mask-18)"></path> </g> </g> <path d="M466.578047,190.438363 C467.705247,190.646763 468.825647,190.710363 469.807647,189.753163 C471.734847,187.873963 474.416847,186.368763 476.587647,189.067563 C477.839247,190.624363 476.216447,193.025563 477.262847,194.529163 C478.188047,195.858763 479.669247,195.950763 479.898847,197.908363 C480.236047,200.788363 477.084847,202.653963 475.770447,204.837963 C474.668047,206.670363 476.158847,207.733563 476.599647,209.409963 C476.939647,210.701963 476.406847,211.915163 475.574047,212.929563 C474.105247,214.718363 471.387247,215.865563 471.452447,218.557163 C471.507247,220.803963 471.574047,222.809163 469.358047,224.081163 C467.839247,224.953163 465.222847,225.512763 465.011647,227.622363 C464.936847,228.369163 465.325647,229.091963 465.326847,229.842363 C465.328447,231.029963 464.374047,232.003163 463.362047,232.624763 C461.060447,234.039563 459.016447,235.397964 457.118447,237.368364 C456.307247,238.210364 453.380447,239.902364 454.133647,241.408764 C452.764847,238.670764 451.278047,235.984764 450.098847,233.155963 C449.129247,230.829163 447.650047,227.414363 449.535247,225.136363 C450.121647,224.427963 451.044047,223.992363 451.432847,223.159163 C452.135247,221.653963 450.861247,219.891163 450.540047,218.435163 C450.036447,216.149963 451.170047,213.823163 453.070047,212.542363 C453.969247,211.936363 454.946847,211.267563 455.260047,210.229563 C455.602047,209.096363 455.082847,207.879563 454.957247,206.749563 C454.841647,205.708363 454.852447,204.626363 454.936447,203.583963 C454.996047,202.847563 455.106847,202.103563 455.410847,201.430363 C455.989647,200.150363 457.340447,199.634763 458.416447,198.853563 C460.978047,196.993163 460.367247,194.114763 461.800047,191.657963 C463.086447,189.452763 464.840047,190.117163 466.578047,190.438363" id="Fill-85" fill="#00A09D"></path> <g id="Group-108" transform="translate(448.400007, 187.398803)"> <g id="Group-89"> <mask id="mask-20" fill="white"> <use xlink:href="#path-19"></use> </mask> <g id="Clip-88"></g> <path d="M4.99308007,56.6610408 C5.93148009,47.4486407 8.40068013,38.4534406 11.7774802,29.8482404 C14.9990802,21.6398403 18.7250803,13.4970402 23.4426803,6.03264009 C25.0014804,3.56664005 26.6798804,1.17464002 28.5030804,-1.10376002" id="Stroke-87" stroke="#1D7E8E" stroke-width="2.00000003" mask="url(#mask-20)"></path> </g> <g id="Group-92"> <mask id="mask-22" fill="white"> <use xlink:href="#path-21"></use> </mask> <g id="Clip-91"></g> <path d="M33.3382005,12.4126802 C28.5774004,13.1358802 23.9118004,14.4810802 19.4966003,16.4030802 C18.3766003,16.8906803 17.7850003,16.9926803 16.7930003,17.7050803" id="Stroke-90" stroke="#1D7E8E" stroke-width="2.00000003" mask="url(#mask-22)"></path> </g> <g id="Group-95"> <mask id="mask-24" fill="white"> <use xlink:href="#path-23"></use> </mask> <g id="Clip-94"></g> <path d="M12.8252802,27.0099604 C17.6340803,25.0603604 22.8464803,24.1127604 28.0340804,24.2451604" id="Stroke-93" stroke="#1D7E8E" stroke-width="2.00000003" mask="url(#mask-24)"></path> </g> <g id="Group-98"> <mask id="mask-26" fill="white"> <use xlink:href="#path-25"></use> </mask> <g id="Clip-97"></g> <path d="M8.90156013,38.3765606 C13.5443602,35.6841605 18.8659603,34.1733605 24.2311604,34.0241605" id="Stroke-96" stroke="#1D7E8E" stroke-width="2.00000003" mask="url(#mask-26)"></path> </g> <g id="Group-101"> <mask id="mask-28" fill="white"> <use xlink:href="#path-27"></use> </mask> <g id="Clip-100"></g> <path d="M17.0712803,17.4490003 C17.6748803,12.5950002 17.3852803,7.63180011 16.2216802,2.88100004" id="Stroke-99" stroke="#1D7E8E" stroke-width="2.00000003" mask="url(#mask-28)"></path> </g> <g id="Group-104"> <mask id="mask-30" fill="white"> <use xlink:href="#path-29"></use> </mask> <g id="Clip-103"></g> <path d="M12.9552802,26.6252004 C11.7572802,21.9080003 9.57888014,17.4424003 6.5980801,13.5952002" id="Stroke-102" stroke="#1D7E8E" stroke-width="2.00000003" mask="url(#mask-30)"></path> </g> <g id="Group-107"> <mask id="mask-32" fill="white"> <use xlink:href="#path-31"></use> </mask> <g id="Clip-106"></g> <path d="M8.57296013,38.6584006 C8.54856013,37.2668006 8.30456012,35.8796005 7.85336012,34.5632005 C7.32816011,33.0320005 6.5301601,31.6104005 5.70736009,30.2160005 C5.11496008,29.2120004 4.50696007,28.2172004 3.88456006,27.2316004" id="Stroke-105" stroke="#1D7E8E" stroke-width="2.00000003" mask="url(#mask-32)"></path> </g> </g> <g id="Group-114" transform="translate(439.000000, 234.198800)"> <polygon id="Fill-109" fill="#9D786A" points="3.43428659 6.67032359 26.4662869 6.67032359 22.4254869 29.7195239 7.47508665 29.7195239"></polygon> <polygon id="Fill-111" fill="#94624F" points="0.614406551 6.67040359 29.286007 6.67040359 29.286007 0.20080349 0.614406551 0.20080349"></polygon> <polygon id="Fill-113" fill="#CABEC1" points="25.9304869 9.72696363 3.9700866 9.72696363 3.43448659 6.67016359 26.4664869 6.67016359"></polygon> </g> </g> </g> </g> </g> </svg> 