<?xml version="1.0" encoding="UTF-8"?> <svg xmlns="http://www.w3.org/2000/svg" xmlns:xlink="http://www.w3.org/1999/xlink" width="374px" height="294px" viewBox="0 0 374 294"> <!-- Generator: Sketch 57.1 (83088) - https://sketch.com --> <title>Group 12</title> <desc>Created with Sketch.</desc> <defs> <polygon id="path-1" points="0.820148611 0.564473679 70.7120556 0.564473679 70.7120556 83.9069082 0.820148611 83.9069082"></polygon> <polygon id="path-3" points="0.32914241 0.949975 52.5583738 0.949975 52.5583738 157.994766 0.32914241 157.994766"></polygon> <polygon id="path-5" points="0.7358 0.5611 9.3678 0.5611 9.3678 25 0.7358 25"></polygon> <polygon id="path-7" points="0.0972 0.5611 8.7292 0.5611 8.7292 25 0.0972 25"></polygon> <polygon id="path-9" points="0.5763 0.5611 9.2083 0.5611 9.2083 25 0.5763 25"></polygon> <polygon id="path-11" points="0.0973 0.5611 8.7293 0.5611 8.7293 25 0.0973 25"></polygon> <polygon id="path-13" points="0.482715814 0.000881221649 46.8484042 0.000881221649 46.8484042 4.17407397 0.482715814 4.17407397"></polygon> <polygon id="path-15" points="0 0.392224214 28.8457446 0.392224214 28.8457446 15.6261674 0 15.6261674"></polygon> <polygon id="path-17" points="0.0785208356 0.87928875 37.5488895 0.87928875 37.5488895 85.0135529 0.0785208356 85.0135529"></polygon> </defs> <g id="Page-1" stroke="none" stroke-width="1" fill="none" fill-rule="evenodd"> <g id="mark" transform="translate(-679.000000, -2874.000000)"> <g id="Group-11-Copy-4" transform="translate(197.000000, 2781.000000)"> <g id="Group-12" transform="translate(482.000000, 44.000000)"> <g id="Group-69"> <path d="M67.063429,243 C66.4860622,226.362023 65.5593144,208.643632 55.9424555,195.108612 C51.4340594,188.762423 45.1935627,183.801075 38.525716,179.918151 C31.8331954,176.021299 24.1053624,175.000576 17.0496435,171.493708 C14.5960812,170.274014 12.1296885,168.81257 10.6147174,166.498534 C2.46644282,154.053876 27.2162346,151.187695 38.9086533,153.982247 C61.7467193,159.442018 70.0242846,170.755524 77.2408766,188.642046 C82.9158498,202.707324 83.6827114,218.323584 82.5585732,233.464302" id="Fill-5" fill="#A0D9F2"></path> <path d="M9,160 C22.5220773,160.723136 36.3598796,163.999043 47.081742,172.32997 C61.4388675,183.485091 68.0661411,201.742797 74,219" id="Stroke-7" stroke="#FFFFFF" stroke-linejoin="round"></path> <path d="M90,130.291189 C91.0166631,106.792976 100.155805,70.5021025 127.308486,66.2288819 C129.087893,65.9488675 130.954892,65.8288613 132.649658,66.4458931 C136.489948,67.8449653 138.179794,72.5612088 137.984925,76.7024226 C137.549916,85.9839017 130.58287,93.3432817 124.935616,100.651659 C114.954996,113.566326 107.946614,129.610154 108.932767,146" id="Fill-9" fill="#A0D9F2"></path> <path d="M88.4539593,196 C89.6482754,163.213261 70.9644131,132.285432 46.3763671,110.46942 C42.4663445,107.00051 38.3422369,103.645188 35.4312771,99.3080614 C32.5193262,94.9709352 30.9642373,89.3625993 32.7760298,84.467405 C34.5947602,79.5504808 39.4681649,76.283067 44.5417785,74.9041947 C56.3630307,71.6901184 69.2388493,77.4011784 77.5267097,86.3954557 C85.8135789,95.3897331 90.3153084,107.162497 93.9488048,118.823648 C99.6666553,137.1747 103.705525,156.044311 106,175.12332" id="Fill-11" fill="#D4EEF9"></path> <path d="M111.392091,167 C109.494977,131.099924 104.694811,85.8717692 137.70219,61.7847594 C141.116195,59.2938505 144.851543,57.0476902 149.020003,56.2650869 C153.187465,55.4834705 157.879852,56.3963432 160.780909,59.4566873 C164.760755,63.6529411 167.844438,71.5934532 160.780909,83.57133 C148.719618,104.024613 129.880214,115.636354 129.625736,162.175098" id="Fill-13" fill="#D4EEF9"></path> <path d="M77.7249126,206.769787 C81.5064589,189.951175 80.5848973,170.534452 74.8777,154.277619 C70.3818944,141.473003 48.962957,114.978841 34.9233893,133.200413 C32.7177329,136.064002 32.5733091,140.130695 33.6618914,143.589871 C34.7494912,147.050041 36.9020939,150.048854 39.02031,152.979061 C43.401166,159.040324 70.6864617,176.634492 67.5474541,235" id="Fill-15" fill="#D4EEF9"></path> <path d="M162,59 C147.773436,68.2153954 134.779761,82.130861 128.478332,98.7678381 C122.175896,115.405808 119.816889,133.258526 119,151" id="Stroke-17" stroke="#FFFFFF" stroke-linejoin="round"></path> <g id="Group-21" transform="translate(315.000000, 103.000000)"> <mask id="mask-2" fill="white"> <use xlink:href="#path-1"></use> </mask> <g id="Clip-20"></g> </g> <path d="M35,80 C81.5062249,92.7394209 90.6944816,156.107894 93,176" id="Stroke-24" stroke="#FFFFFF" stroke-linejoin="round"></path> <path d="M35,132 C52.7354094,138.664607 59.5507931,149.496837 66.4012925,163.60256 C73.2517919,177.708282 75.8864493,200.817106 74.7412854,213" id="Stroke-26" stroke="#FFFFFF" stroke-linejoin="round"></path> <g id="Group-38" transform="translate(222.000000, 0.000000)"> <mask id="mask-4" fill="white"> <use xlink:href="#path-3"></use> </mask> <g id="Clip-37"></g> </g> <g id="Group-47" transform="translate(339.000000, 297.000000)"> <mask id="mask-6" fill="white"> <use xlink:href="#path-5"></use> </mask> <g id="Clip-46"></g> <polygon id="Fill-45" fill="#5B293C" mask="url(#mask-6)" points="9.3678 0.5611 0.7358 0.5611 4.5718 25.0001 9.3678 25.0001"></polygon> </g> <g id="Group-50" transform="translate(266.000000, 297.000000)"> <mask id="mask-8" fill="white"> <use xlink:href="#path-7"></use> </mask> <g id="Clip-49"></g> <polygon id="Fill-48" fill="#5B293C" mask="url(#mask-8)" points="8.7292 0.5611 0.0972 0.5611 3.9332 25.0001 8.7292 25.0001"></polygon> </g> <g id="Group-53" transform="translate(4.000000, 297.000000)"> <mask id="mask-10" fill="white"> <use xlink:href="#path-9"></use> </mask> <g id="Clip-52"></g> <polygon id="Fill-51" fill="#5B293C" mask="url(#mask-10)" points="0.5763 0.5611 9.2083 0.5611 5.3723 25.0001 0.5763 25.0001"></polygon> </g> <g id="Group-56" transform="translate(93.000000, 297.000000)"> <mask id="mask-12" fill="white"> <use xlink:href="#path-11"></use> </mask> <g id="Clip-55"></g> <polygon id="Fill-54" fill="#5B293C" mask="url(#mask-12)" points="0.0973 0.5611 8.7293 0.5611 4.8923 25.0001 0.0973 25.0001"></polygon> </g> <path d="M361,108 L85.8603774,108 C85.8603774,111.394546 67,284 67,284 L344.090287,284" id="Fill-57" fill="#FFC7C8"></path> <path d="M79.052136,301 L97.9479844,117.935187 C98.5072463,112.631001 94.485363,108 89.3199442,108 L80.1316415,108 C75.8906556,108 72.320984,111.276698 71.8217502,115.626131 L51,301" id="Fill-59" fill="#FFC7C8"></path> <polygon id="Fill-61" fill="#F7B2B2" points="10 300 69 300 69 218 10 218"></polygon> <path d="M69.0004962,218 L69.0004962,218 C74.5232472,218 79,222.658798 79,228.405277 L79,300 L59,300 L59,228.405277 C59,222.658798 63.4777452,218 69.0004962,218" id="Fill-63" fill="#F7B2B2"></path> <path d="M32,301 L298,301 L298,234 L36.9836437,234 C34.2313492,234 32,236.256199 32,239.039145 L32,301 Z" id="Fill-64" fill="#FFC7C8"></path> <path d="M355.051644,301 L373.948161,117.935187 C374.506413,112.631001 370.4846,108 365.319272,108 L356.131131,108 C351.891219,108 348.32061,111.276698 347.821385,115.626131 L327,301" id="Fill-65" fill="#FFD2D4"></path> <path d="M9.9995038,218 L9.9995038,218 C15.5222548,218 20,222.658798 20,228.405277 L20,300 L0,300 L0,228.405277 C0,222.658798 4.47675284,218 9.9995038,218" id="Fill-66" fill="#FFE9E9"></path> <polygon id="Fill-67" fill="#FFD2D4" points="272 300 354 300 354 218 272 218"></polygon> <path d="M273,218 L273,218 C278.523025,218 283,222.658798 283,228.405277 L283,300 L263,300 L263,228.405277 C263,222.658798 267.477967,218 273,218" id="Fill-68" fill="#FFE9E9"></path> </g> <g id="Group-107" transform="translate(84.000000, 49.000000)"> <g id="Group-39" transform="translate(100.000000, 0.000000)"> <path d="M20.1586481,74.2811491 L20.1586481,74.2811491 C26.1259716,74.2811491 30.9631686,69.499954 30.9631686,63.6017164 L30.9631686,40.8733693 L9.3541276,40.8733693 L9.3541276,63.6017164 C9.3541276,69.499954 14.1913246,74.2811491 20.1586481,74.2811491" id="Fill-1" fill="#F3A396"></path> <path d="M30.9631686,42.728165 C30.9631686,42.728165 25.7441549,55.0875793 17.5702114,54.9992257 C7.03513348,54.8843659 9.46267082,41.376354 9.46267082,41.376354 C9.46267082,41.376354 13.5362343,49.9580185 19.978594,49.9655916 C27.1654326,49.974427 30.9631686,42.728165 30.9631686,42.728165" id="Fill-3" fill="#1A1A1A"></path> <path d="M1.81714132,12.4915241 C2.68165619,9.32215225 4.71333001,4.85019502 11.9640176,1.51421338 C23.9459128,-3.9965304 30.2554668,7.70780472 30.2554668,7.70780472 C33.48367,7.36196326 36.1653262,8.48279251 37.7040861,11.552451 C39.1445186,14.4277314 37.7334566,19.8374996 37.2967297,21.7206947 L34.6699837,33.6661091 L32.3650363,22.3038288 C30.0996753,14.8303716 26.6543856,11.7859571 26.6543856,11.7859571 L15.7055664,10.9074693 L4.0952721,32.5780969 L1.836296,19.7541947 C1.55025268,18.1272252 1.43021664,16.4699631 1.52215914,14.8215363 C1.57451528,13.8660546 1.66773476,13.0380546 1.81714132,12.4915241" id="Fill-5" fill="#1A1A1A"></path> <path d="M6.11443152,29.9546244 C6.11443152,29.9546244 4.65356738,27.6586915 1.64117359,28.7883561 C-1.3712202,29.9180207 -0.00868345815,37.1491364 4.51054572,38.0705388 C4.51054572,38.0705388 6.12975527,38.4201669 7.40034951,37.3233193 C7.40034951,37.3233193 6.28937766,31.9817097 6.11443152,29.9546244" id="Fill-7" fill="#E88E85"></path> <path d="M34.2765464,29.8725817 C34.2765464,29.8725817 36.0592093,27.6220878 38.9209195,28.7883561 C41.8988349,30.0025878 40.5694996,37.1491364 36.0515474,38.0705388 C36.0515474,38.0705388 34.4310609,38.4189047 33.1604666,37.3233193 C33.1604666,37.3233193 34.1016002,31.899667 34.2765464,29.8725817" id="Fill-9" fill="#F3A396"></path> <path d="M38.3226548,31.3388737 C38.3226548,31.3388737 35.799344,30.5070872 34.0090193,34.1800749" id="Stroke-11" stroke="#D26665" stroke-width="0.737149985" stroke-linecap="round" stroke-linejoin="round"></path> <path d="M35.2336422,32.3828353 C35.2336422,32.3828353 37.9791474,33.8343597 36.165837,36.0154328" id="Stroke-13" stroke="#D26665" stroke-width="0.737149985" stroke-linecap="round" stroke-linejoin="round"></path> <path d="M3.30852525,23.0933318 C3.30699902,27.4529537 3.7401442,36.5723133 6.45117092,41.985868 C8.99746732,47.0687277 13.2076675,49.8039045 18.7280484,49.9667276 C24.2471522,50.1282886 28.360302,48.0254716 31.6549082,41.42924 C34.9507914,34.8330084 34.7937229,23.1741123 34.7937229,23.1741123 C34.7937229,23.1741123 34.7937229,7.60114923 19.2222393,7.60114923 C2.8219962,7.60114923 3.30852525,23.0933318 3.30852525,23.0933318" id="Fill-15" fill="#F3A396"></path> <path d="M4.72648289,9.54934736 C5.13256226,9.68314004 18.2228754,6.09724378 18.2228754,6.09724378 L29.7118567,9.54934736 C29.7118567,9.54934736 29.7080258,9.55818273 29.7054719,9.5657559 C39.8050999,12.2668534 35.3548276,21.7206947 35.3548276,21.7206947 C29.0146261,19.3073776 29.0018563,15.2860241 28.2139602,12.173451 C26.3763872,14.5615241 18.0836847,18.9123106 9.42448915,18.746963 C0.554592041,18.5778289 2.05504253,15.1635911 2.05504253,15.1635911 C2.05504253,15.1635911 4.3216805,9.41555468 4.72648289,9.54934736" id="Fill-17" fill="#1A1A1A"></path> <path d="M13.8124449,27.3526092 L13.8124449,34.306042 C13.8124449,34.4600298 13.8418154,34.6089688 13.8980025,34.7440237 C14.1138119,35.2779322 14.7357008,35.5341578 15.2975716,35.386481 L16.5055939,35.0684078" id="Stroke-19" stroke="#D26665" stroke-width="0.737149985" stroke-linecap="round" stroke-linejoin="round"></path> <path d="M20.5877131,27.9140336 C20.5877131,28.7167896 21.2453574,29.3668201 22.0575161,29.3668201 C22.8683978,29.3668201 23.5260421,28.7167896 23.5260421,27.9140336 C23.5260421,27.1125397 22.8683978,26.461247 22.0575161,26.461247 C21.2453574,26.461247 20.5877131,27.1125397 20.5877131,27.9140336" id="Fill-21" fill="#1A1A1A"></path> <path d="M18.974633,22.4473404 L19.342403,19.7096392 L24.4503196,20.5704563 C25.0939171,20.6802673 25.6813275,21.0033892 26.1142234,21.4880721 L28.7001062,24.3911208 L24.4796901,23.1062062 L18.974633,22.4473404 Z" id="Fill-23" fill="#1A1A1A"></path> <path d="M10.8925044,27.9140336 C10.8925044,28.7167896 10.2348601,29.3668201 9.42270138,29.3668201 C8.61181962,29.3668201 7.95289839,28.7167896 7.95289839,27.9140336 C7.95289839,27.1125397 8.61181962,26.461247 9.42270138,26.461247 C10.2348601,26.461247 10.8925044,27.1125397 10.8925044,27.9140336" id="Fill-25" fill="#1A1A1A"></path> <path d="M11.9910895,22.4393886 L11.4764669,19.7269313 L7.46930639,20.5309496 C6.96362265,20.6319252 6.52051089,20.947474 6.21531287,21.4233215 L4.38667874,24.2695714 L7.65063742,23.0389312 L11.9910895,22.4393886 Z" id="Fill-27" fill="#1A1A1A"></path> <path d="M17.5436502,36.6908334 C17.8143698,36.9394858 18.2804672,37.2461992 18.6954854,37.4746565 C19.1296583,37.7132114 19.5880938,37.911376 20.0605761,38.0691504 C21.0080946,38.3922724 22.025847,38.4982968 23.0538152,38.3758638 L23.0793548,38.3733394 C23.3883837,38.3367358 23.6680422,38.5550955 23.7050746,38.8592846 C23.736999,39.1180346 23.5824846,39.3578516 23.3449665,39.4462053 C22.209732,39.8703028 20.9416917,40.0406992 19.699191,39.9245772 C19.0773022,39.8728272 18.4579673,39.7642784 17.8526792,39.5989309 C17.2307903,39.4209614 16.6867972,39.2429919 16.0176601,38.8971504 L15.9780738,38.8769553 C15.3102137,38.5311138 15.0522639,37.7144736 15.4021562,37.0530834 C15.7533255,36.3929553 16.579531,36.1379919 17.2473911,36.4838334 C17.3559343,36.53937 17.4580926,36.6125773 17.5436502,36.6908334" id="Fill-29" fill="#1A1A1A"></path> <path d="M14.182258,38.780776 C13.5948476,39.1304041 13.1172574,39.3121602 12.5630485,39.498965 C12.0241633,39.673148 11.4686774,39.7917943 10.9080835,39.8549041 C9.78689583,39.9899589 8.62612179,39.8296601 7.62113921,39.4068248 C7.35297359,39.2944894 7.22782963,38.9890382 7.34148077,38.7239772 C7.43725421,38.5005687 7.67094139,38.3781358 7.9033516,38.4122151 L7.92889118,38.4147394 C8.82405356,38.5447455 9.70772312,38.4399833 10.5160509,38.126959 C10.9208533,37.9742334 11.309055,37.7811175 11.672994,37.551398 C12.0216093,37.3330383 12.4136419,37.0351602 12.6256205,36.8067029 C13.1032107,36.2904651 13.9153694,36.2538614 14.4389308,36.7271846 C14.9612153,37.2005078 14.9982477,38.0020017 14.5193805,38.5182394 C14.4350999,38.6091175 14.3418804,38.6861114 14.2397221,38.7466968 L14.182258,38.780776 Z" id="Fill-31" fill="#1A1A1A"></path> <path d="M18.3947568,40.7054973 L12.8232968,40.7054973" id="Stroke-33" stroke="#D26665" stroke-width="0.737149985" stroke-linecap="round" stroke-linejoin="round"></path> <path d="M17.4214433,43.0992503 C17.4214433,43.0992503 15.9312087,43.6281101 13.7986535,43.0992503" id="Stroke-35" stroke="#D26665" stroke-width="0.553149989" stroke-linecap="round" stroke-linejoin="round"></path> <polygon id="Fill-37" fill="#1A1A1A" points="33.682368 17.8651935 33.1613605 30.820364 35.2492214 29.0457177 36.8454453 17.1911814"></polygon> </g> <g id="Group-69" transform="translate(4.000000, 156.000000)"> <path d="M26.098886,32.5257896 C18.0689103,32.4595667 11.8187024,25.3762568 12.92198,17.2754057 C13.7768291,10.998233 19.1365162,6.28748815 25.4491497,5.72204594 L101.478483,0.690374375 C111.461489,-0.204909125 120.132283,8.37478496 119.476177,18.3744522 C118.783125,28.933194 107.780925,33.3281063 99.1088566,33.2338659 L26.098886,32.5257896 Z" id="Fill-40" fill="#03101E"></path> <polygon id="Fill-42" fill="#FFFFFF" points="31.1414763 116.728413 28.585847 91.8756993 40.2263178 91.9279135 42.804879 116.780627"></polygon> <path d="M30.2518472,116.723446 L15.7117691,124.638363 L7.52764036,126.236629 C3.76681406,126.971449 0.939824376,130.09539 0.58565442,133.909578 L0.420035376,135.693777 L45.885011,135.894993 L44.6161143,116.789669 L30.2518472,116.723446 Z" id="Fill-44" fill="#1A1A1A"></path> <path d="M24.1345167,120.525408 C24.1345167,120.525408 26.8850668,111.837465 23.6695094,110.392021 C19.0703959,108.323827 19.8666413,115.715329 24.1345167,120.525408 Z" id="Stroke-46" stroke="#FFFFFF" stroke-width="0.5" stroke-linecap="round" stroke-linejoin="round"></path> <path d="M24.0380755,120.46568 C24.0380755,120.46568 31.0259251,114.612589 33.5879244,117.033548 C37.2544752,120.494971 30.1137464,122.5759 24.0380755,120.46568 Z" id="Stroke-48" stroke="#FFFFFF" stroke-width="0.5" stroke-linecap="round" stroke-linejoin="round"></path> <polygon id="Fill-50" fill="#FFFFFF" points="46.0629878 136.190704 0.240020215 135.989488 0.257856112 132.065778 46.0808237 132.26572"></polygon> <path d="M39.2413941,18.226724 L44.7246585,106.617822 L27.138464,106.596172 L12.9767617,21.2093043 C11.6390694,13.1492058 17.8587015,5.81628631 26.0326384,5.81628631 C33.02431,5.81628631 38.8082366,11.2516632 39.2413941,18.226724" id="Fill-52" fill="#03101E"></path> <path d="M53.3915031,32.6856162 C45.2697999,32.6181197 38.9482484,25.4545782 40.062992,17.2607602 C40.928033,10.910997 46.3488717,6.14676435 52.7341229,5.57495455 L129.636141,0.484701138 C139.733807,-0.419496991 148.503972,8.25825801 147.840222,18.3712684 C147.139526,29.0509944 136.0112,33.4968475 127.238487,33.4013336 L53.3915031,32.6856162 Z" id="Fill-54" fill="#04162E"></path> <polygon id="Fill-56" fill="#FFFFFF" points="58.4918052 117.853948 55.9068742 92.7172403 67.6811142 92.7707281 70.2889772 117.907436"></polygon> <path d="M57.5923664,117.850255 L42.8853953,125.855592 L34.6069911,127.471687 C30.804123,128.215422 27.9440095,131.375021 27.5860176,135.232509 L27.4178506,137.037085 L73.4064372,137.240848 L72.1209786,117.916478 L57.5923664,117.850255 Z" id="Fill-58" fill="#1A1A1A"></path> <path d="M51.4045841,121.695644 C51.4045841,121.695644 54.1869841,112.908367 50.9344808,111.445094 C46.2831337,109.353976 47.088297,116.82953 51.4045841,121.695644 Z" id="Stroke-60" stroke="#FFFFFF" stroke-width="0.5" stroke-linecap="round" stroke-linejoin="round"></path> <path d="M51.3069963,121.63477 C51.3069963,121.63477 58.3751075,115.715456 60.9664086,118.161885 C64.6750011,121.664061 57.4527368,123.770461 51.3069963,121.63477 Z" id="Stroke-62" stroke="#FFFFFF" stroke-width="0.5" stroke-linecap="round" stroke-linejoin="round"></path> <g id="Group-66" transform="translate(26.753846, 133.365923)"> <mask id="mask-14" fill="white"> <use xlink:href="#path-13"></use> </mask> <g id="Clip-65"></g> <polygon id="Fill-64" fill="#FFFFFF" mask="url(#mask-14)" points="46.8305683 4.17420132 0.482715814 3.97043836 0.500551711 0.000881221649 46.8484042 0.20464418"></polygon> </g> <path d="M66.6851067,18.2229035 L72.2307967,107.628996 L54.4433114,107.606072 L40.1185381,21.2398688 C38.7668319,13.0868034 45.0578076,5.66983168 53.3247459,5.66983168 C60.395405,5.66983168 66.2468533,11.167611 66.6851067,18.2229035" id="Fill-67" fill="#04162E"></path> </g> <g id="Group-106" transform="translate(0.000000, 61.000000)"> <path d="M82.225529,19.3514233 C79.160953,35.0794307 71.361951,60.1178784 67.2159847,77.7680987 C65.8289011,83.6697637 69.2157289,89.6389418 74.899078,91.3216743 C80.9276059,93.1075872 87.19432,89.3905445 88.6973123,83.1373018 L104.904156,24.2352964 C106.333272,17.546403 101.975868,11.0040003 95.3843547,9.94162416 C89.2475604,8.9531303 83.4444813,13.1007283 82.225529,19.3514233" id="Fill-70" fill="#007DDC"></path> <path d="M19.8131334,83.6351155 L19.8131334,83.6351155 C19.6768451,81.1333088 21.6421987,78.9690678 24.2023807,78.8034696 L35.7601374,78.1232431 C38.3203193,77.9576449 40.5073006,79.8518335 40.6435889,82.354914 C40.7798772,84.8567206 38.8145236,87.0196879 36.2543416,87.1852861 L24.6965849,87.8655125 C22.136403,88.0311107 19.9494217,86.1369221 19.8131334,83.6351155" id="Fill-72" fill="#F3A396"></path> <g id="Group-76" transform="translate(0.000000, 77.703770)"> <mask id="mask-16" fill="white"> <use xlink:href="#path-15"></use> </mask> <g id="Clip-75"></g> <path d="M22.6497131,12.9393337 C24.6749317,11.4349378 25.109271,10.0770325 25.109271,10.0770325 C27.3217267,9.98022128 29.0221461,8.08603266 28.8310877,5.93198224 L28.6960732,4.40593115 C28.5190257,2.41365744 26.7803947,0.921999817 24.7335229,1.00989425 L24.6150667,1.01498957 C24.6150667,1.01498957 18.9087905,-0.317439008 11.9249708,0.915630655 C2.90192165,2.50792103 -0.598267392,7.35103142 0.0819003477,10.0451867 C0.726403862,12.5890298 11.4460512,11.2425891 15.4315285,10.7903786 L11.9619088,13.4131993 C11.5224746,13.7456696 11.3505221,14.3176203 11.5377592,14.8233317 C11.7402811,15.3685319 12.3032664,15.6971806 12.8929998,15.6131077 L17.5662872,14.9507149 C19.3978999,14.6908531 21.1696477,14.038651 22.6497131,12.9393337" id="Fill-74" fill="#F3A396" mask="url(#mask-16)"></path> </g> <path d="M82.6919662,72.2103683 L29.3293679,73.7313241 L29.1230249,93.2680901 L83.6752798,91.6528707 C89.4070304,91.3547939 93.758066,86.3970386 93.1836172,80.8240223 C92.6473801,75.6344296 88.0224942,71.8358617 82.6919662,72.2103683" id="Fill-77" fill="#007DDC"></path> <polygon id="Fill-79" fill="#007DDC" points="110.785951 0.0821621832 121.95777 0.245212717 132.835359 0.0821621832 154.349803 10.1811046 151.690271 98.4118249 121.95777 98.4118249 91.9310387 98.4118249 91.6278927 9.94926716"></polygon> <path d="M117.413892,15.6909389 L117.413892,98.6148737" id="Stroke-81" stroke="#005F99" stroke-width="0.826849983"></path> <path d="M119.576418,24.7613891 C119.576418,25.4811044 120.144498,26.0632457 120.846319,26.0632457 C121.546867,26.0632457 122.114947,25.4811044 122.114947,24.7613891 C122.114947,24.0416739 121.546867,23.4595325 120.846319,23.4595325 C120.144498,23.4595325 119.576418,24.0416739 119.576418,24.7613891" id="Fill-83" fill="#289DE5"></path> <path d="M119.576418,40.1880078 C119.576418,40.907723 120.144498,41.4911382 120.846319,41.4911382 C121.546867,41.4911382 122.114947,40.907723 122.114947,40.1880078 C122.114947,39.4695663 121.546867,38.8861512 120.846319,38.8861512 C120.144498,38.8861512 119.576418,39.4695663 119.576418,40.1880078" id="Fill-85" fill="#289DE5"></path> <path d="M119.576418,55.6151359 C119.576418,56.3335774 120.144498,56.9169926 120.846319,56.9169926 C121.546867,56.9169926 122.114947,56.3335774 122.114947,55.6151359 C122.114947,54.8954207 121.546867,54.3120055 120.846319,54.3120055 C120.144498,54.3120055 119.576418,54.8954207 119.576418,55.6151359" id="Fill-87" fill="#289DE5"></path> <path d="M119.576418,71.0417546 C119.576418,71.7614698 120.144498,72.3436112 120.846319,72.3436112 C121.546867,72.3436112 122.114947,71.7614698 122.114947,71.0417546 C122.114947,70.3220394 121.546867,69.739898 120.846319,69.739898 C120.144498,69.739898 119.576418,70.3220394 119.576418,71.0417546" id="Fill-89" fill="#289DE5"></path> <path d="M119.576418,86.4688828 C119.576418,87.1873242 120.144498,87.7707394 120.846319,87.7707394 C121.546867,87.7707394 122.114947,87.1873242 122.114947,86.4688828 C122.114947,85.7491675 121.546867,85.1657523 120.846319,85.1657523 C120.144498,85.1657523 119.576418,85.7491675 119.576418,86.4688828" id="Fill-91" fill="#289DE5"></path> <path d="M91.7404898,79.0261354 L91.7404898,35.0114081" id="Stroke-93" stroke="#005F99" stroke-width="0.826849983"></path> <g id="Group-97" transform="translate(139.753263, 8.916826)"> <mask id="mask-18" fill="white"> <use xlink:href="#path-17"></use> </mask> <g id="Clip-96"></g> <path d="M23.0289641,10.4345973 C26.0935401,26.1626046 33.0926444,53.3627457 37.2386107,71.012966 C38.6256944,76.9133572 35.2388666,82.8825353 29.5555174,84.5652678 C23.5269895,86.3511807 17.2590018,82.634138 15.7572831,76.3808953 L0.350337463,15.3184703 C-1.07877902,8.6295769 3.27862517,2.08717422 9.87013838,1.02479808 C16.0069327,0.0363042205 21.8100118,4.18390218 23.0289641,10.4345973" id="Fill-95" fill="#007DDC" mask="url(#mask-18)"></path> </g> <path d="M142.692441,35.0117902 L151.664541,69.293165" id="Stroke-98" stroke="#005F99" stroke-width="0.826849983"></path> <path d="M94.9658096,100.366011 L94.9658096,100.366011 C95.5568167,103.164621 98.3628271,104.965819 101.235071,104.390047 L114.173543,101.714999 C117.044513,101.137953 118.893958,98.4030354 118.302951,95.6044259 C117.711943,92.8058163 114.904659,91.0046174 112.033689,91.5803896 L99.0952174,94.2567113 C96.2229735,94.8324835 94.3748024,97.5674014 94.9658096,100.366011" id="Fill-100" fill="#F3A396"></path> <path d="M96.0162484,91.8017817 C98.6936128,92.8590625 99.5750287,94.2271584 99.5750287,94.2271584 C102.042229,93.6794105 104.477586,95.2615102 104.905557,97.6932561 L105.207429,99.4142035 C105.603557,101.662518 104.128586,103.821663 101.846076,104.331196 L101.714882,104.360494 C101.714882,104.360494 95.8200951,107.520872 87.7587063,108.231671 C77.3422049,109.150104 72.0498885,104.849646 72.002632,101.679077 C71.9569067,98.6842976 84.1719042,96.9913745 88.6974397,96.3098742 L84.0967545,94.4462575 C83.5133897,94.2105986 83.1542,93.6322787 83.2115175,93.0182915 C83.2726562,92.3584464 83.7974298,91.8285322 84.4725026,91.7470069 L89.8183154,91.0909833 C91.9123149,90.834943 94.0598108,91.0285655 96.0162484,91.8017817" id="Fill-102" fill="#F3A396"></path> <path d="M167.648865,94.3246066 L108.388933,108.460324 L102.371868,86.991154 L162.973031,72.6044921 C169.377307,71.2363962 175.642747,75.4094708 176.660451,81.7225836 C177.606827,87.6000459 173.634087,93.1577762 167.648865,94.3246066" id="Fill-104" fill="#007DDC"></path> </g> </g> <g id="Group-23" transform="translate(106.000000, 184.000000) scale(-1, 1) translate(-106.000000, -184.000000) translate(44.000000, 159.000000)"> <path d="M104.231388,47 L0.75611898,47 C0.337903683,47 0,47.3303658 0,47.7379524 L0,48.2819818 C0,49.2306948 0.787648725,50 1.75971671,50 L103.140935,50 C104.167734,50 105,49.1877298 105,48.1856009 L105,47.7501452 C105,47.3355913 104.655552,47 104.231388,47" id="Fill-13" fill="#D3C2BE"></path> <path d="M58.4071082,0 L121.019177,0 C123.095906,0 124.535053,2.07417451 123.809856,4.0226774 L108.382981,45.0597962 C107.949047,46.2258154 106.836091,47 105.592895,47 L42.9802341,47 C40.9040974,47 39.4649504,44.9252327 40.1901478,42.9773226 L55.6170219,1.94020382 C56.0509564,0.773591807 57.1633205,0 58.4071082,0" id="Fill-15" fill="#E0D4D1"></path> </g> </g> </g> </g> </g> </svg> 