<?xml version="1.0" encoding="UTF-8"?> <svg xmlns="http://www.w3.org/2000/svg" width="94" height="44" viewBox="0 0 94 44" fill="none"> <g clip-path="url(#clip0)"> <g filter="url(#filter0_d)"> <path fill-rule="evenodd" clip-rule="evenodd" d="M0 22C0 9.84974 9.84974 0 22 0H72C84.1503 0 94 9.84974 94 22C94 34.1503 84.1503 44 72 44H22C9.84973 44 0 34.1503 0 22Z" fill="white"></path> <path fill-rule="evenodd" clip-rule="evenodd" d="M0 22C0 9.84974 9.84974 0 22 0H72C84.1503 0 94 9.84974 94 22C94 34.1503 84.1503 44 72 44H22C9.84973 44 0 34.1503 0 22Z" fill="#0099FF"></path> </g> <path d="M23.3633 30H16.0273V27.8203H18.4883V19.125C18.3789 19.5078 18.1875 19.8477 17.9141 20.1445C17.6484 20.4414 17.3242 20.6914 16.9414 20.8945C16.5664 21.0898 16.1445 21.2422 15.6758 21.3516C15.2148 21.4531 14.7383 21.5039 14.2461 21.5039V19.0781C14.7773 19.0781 15.293 18.9922 15.793 18.8203C16.3008 18.6406 16.7539 18.3711 17.1523 18.0117C17.5508 17.6523 17.8711 17.2031 18.1133 16.6641C18.3633 16.1172 18.4883 15.4648 18.4883 14.707H20.9141V27.8203H23.3633V30ZM38.457 24.7969C38.457 25.6406 38.3164 26.3984 38.0352 27.0703C37.7617 27.7422 37.3789 28.3164 36.8867 28.793C36.4023 29.2617 35.8281 29.625 35.1641 29.8828C34.5 30.1406 33.7891 30.2695 33.0312 30.2695C31.8828 30.2695 30.9336 30.0508 30.1836 29.6133C29.4414 29.168 28.8555 28.582 28.4258 27.8555C27.9961 27.1289 27.6914 26.2891 27.5117 25.3359C27.3398 24.3828 27.2539 23.3945 27.2539 22.3711C27.2539 21.332 27.3789 20.3359 27.6289 19.3828C27.8867 18.4297 28.2812 17.5859 28.8125 16.8516C29.3438 16.1094 30.0039 15.5234 30.793 15.0938C31.582 14.6641 32.5234 14.4492 33.6172 14.4492C34.3828 14.4492 35.1055 14.5664 35.7852 14.8008C36.4648 15.0273 37.0586 15.3672 37.5664 15.8203L36.2539 17.5898C35.8555 17.2383 35.4414 16.9922 35.0117 16.8516C34.5898 16.7031 34.125 16.6289 33.6172 16.6289C32.9609 16.6289 32.375 16.7617 31.8594 17.0273C31.3438 17.293 30.9141 17.668 30.5703 18.1523C30.2266 18.6289 29.9648 19.1953 29.7852 19.8516C29.6133 20.5078 29.5273 21.2266 29.5273 22.0078C29.7695 21.1953 30.2266 20.5312 30.8984 20.0156C31.5703 19.5 32.457 19.2422 33.5586 19.2422C34.2148 19.2422 34.8398 19.3828 35.4336 19.6641C36.0273 19.9453 36.5469 20.332 36.9922 20.8242C37.4453 21.3086 37.8008 21.8906 38.0586 22.5703C38.3242 23.25 38.457 23.9922 38.457 24.7969ZM36.0312 24.7969C36.0312 23.8359 35.7656 23.0312 35.2344 22.3828C34.7109 21.7344 33.9531 21.4102 32.9609 21.4102C32 21.4102 31.2305 21.7109 30.6523 22.3125C30.082 22.9062 29.7969 23.6914 29.7969 24.668C29.7969 25.1523 29.8594 25.5977 29.9844 26.0039C30.1172 26.4102 30.3125 26.7695 30.5703 27.082C30.8359 27.3945 31.1719 27.6406 31.5781 27.8203C31.9922 27.9922 32.4844 28.0781 33.0547 28.0781C33.9219 28.0781 34.6328 27.793 35.1875 27.2227C35.75 26.6445 36.0312 25.8359 36.0312 24.7969ZM47.3867 22.0312H44.4336V19.0781H47.3867V22.0312ZM47.3867 30H44.4336V27.0469H47.3867V30ZM53.1641 22.3477C53.1641 21.3242 53.2734 20.3359 53.4922 19.3828C53.7109 18.4297 54.0508 17.5898 54.5117 16.8633C54.9727 16.1367 55.5742 15.5547 56.3164 15.1172C57.0664 14.6719 57.9688 14.4492 59.0234 14.4492C60.0781 14.4492 60.9766 14.6719 61.7188 15.1172C62.4688 15.5547 63.0781 16.1367 63.5469 16.8633C64.0156 17.5898 64.3555 18.4297 64.5664 19.3828C64.7773 20.3359 64.8828 21.3242 64.8828 22.3477C64.8828 23.3711 64.7773 24.3594 64.5664 25.3125C64.3555 26.2578 64.0195 27.1016 63.5586 27.8438C63.0977 28.5781 62.4922 29.168 61.7422 29.6133C61 30.0508 60.0938 30.2695 59.0234 30.2695C57.9531 30.2695 57.043 30.0508 56.293 29.6133C55.5508 29.168 54.9453 28.5781 54.4766 27.8438C54.0156 27.1016 53.6836 26.2578 53.4805 25.3125C53.2695 24.3594 53.1641 23.3711 53.1641 22.3477ZM55.5898 22.3477C55.5898 23.0664 55.6367 23.7617 55.7305 24.4336L61.7305 18.4102C61.4648 17.8789 61.1133 17.4492 60.6758 17.1211C60.2461 16.793 59.6953 16.6289 59.0234 16.6289C57.9062 16.6289 57.0547 17.1328 56.4688 18.1406C55.8828 19.1484 55.5898 20.5508 55.5898 22.3477ZM59.0234 28.0781C59.7109 28.0781 60.2734 27.9102 60.7109 27.5742C61.1562 27.2383 61.5039 26.8008 61.7539 26.2617C62.0117 25.7148 62.1914 25.0977 62.293 24.4102C62.4023 23.7227 62.457 23.0352 62.457 22.3477C62.457 21.6914 62.4102 21.0508 62.3164 20.4258L56.3633 26.4023C56.6289 26.9102 56.9688 27.3164 57.3828 27.6211C57.8047 27.9258 58.3516 28.0781 59.0234 28.0781ZM66.2656 22.3477C66.2656 21.3242 66.375 20.3359 66.5938 19.3828C66.8125 18.4297 67.1523 17.5898 67.6133 16.8633C68.0742 16.1367 68.6758 15.5547 69.418 15.1172C70.168 14.6719 71.0703 14.4492 72.125 14.4492C73.1797 14.4492 74.0781 14.6719 74.8203 15.1172C75.5703 15.5547 76.1797 16.1367 76.6484 16.8633C77.1172 17.5898 77.457 18.4297 77.668 19.3828C77.8789 20.3359 77.9844 21.3242 77.9844 22.3477C77.9844 23.3711 77.8789 24.3594 77.668 25.3125C77.457 26.2578 77.1211 27.1016 76.6602 27.8438C76.1992 28.5781 75.5938 29.168 74.8438 29.6133C74.1016 30.0508 73.1953 30.2695 72.125 30.2695C71.0547 30.2695 70.1445 30.0508 69.3945 29.6133C68.6523 29.168 68.0469 28.5781 67.5781 27.8438C67.1172 27.1016 66.7852 26.2578 66.582 25.3125C66.3711 24.3594 66.2656 23.3711 66.2656 22.3477ZM68.6914 22.3477C68.6914 23.0664 68.7383 23.7617 68.832 24.4336L74.832 18.4102C74.5664 17.8789 74.2148 17.4492 73.7773 17.1211C73.3477 16.793 72.7969 16.6289 72.125 16.6289C71.0078 16.6289 70.1562 17.1328 69.5703 18.1406C68.9844 19.1484 68.6914 20.5508 68.6914 22.3477ZM72.125 28.0781C72.8125 28.0781 73.375 27.9102 73.8125 27.5742C74.2578 27.2383 74.6055 26.8008 74.8555 26.2617C75.1133 25.7148 75.293 25.0977 75.3945 24.4102C75.5039 23.7227 75.5586 23.0352 75.5586 22.3477C75.5586 21.6914 75.5117 21.0508 75.418 20.4258L69.4648 26.4023C69.7305 26.9102 70.0703 27.3164 70.4844 27.6211C70.9062 27.9258 71.4531 28.0781 72.125 28.0781Z" fill="white"></path> </g> <defs> <filter id="filter0_d" x="-5" y="-3" width="104" height="54" filterUnits="userSpaceOnUse" color-interpolation-filters="sRGB"> <feFlood flood-opacity="0" result="BackgroundImageFix"></feFlood> <feColorMatrix in="SourceAlpha" type="matrix" values="0 0 0 0 0 0 0 0 0 0 0 0 0 0 0 0 0 0 127 0"></feColorMatrix> <feOffset dy="2"></feOffset> <feGaussianBlur stdDeviation="2.5"></feGaussianBlur> <feColorMatrix type="matrix" values="0 0 0 0 0 0 0 0 0 0 0 0 0 0 0 0 0 0 0.124945 0"></feColorMatrix> <feBlend mode="normal" in2="BackgroundImageFix" result="effect1_dropShadow"></feBlend> <feBlend mode="normal" in="SourceGraphic" in2="effect1_dropShadow" result="shape"></feBlend> </filter> <clipPath id="clip0"> <rect width="94" height="44" fill="white"></rect> </clipPath> </defs> </svg> 