<?xml version="1.0" encoding="UTF-8"?> <svg xmlns="http://www.w3.org/2000/svg" xmlns:xlink="http://www.w3.org/1999/xlink" width="322px" height="358px" viewBox="0 0 322 358"> <!-- Generator: Sketch 57.1 (83088) - https://sketch.com --> <title>Group 132</title> <desc>Created with Sketch.</desc> <defs> <polygon id="path-1" points="2.3999999e-05 0.156167993 321.215506 0.156167993 321.215506 11.3764075 2.3999999e-05 11.3764075"></polygon> <polygon id="path-3" points="0.237479989 0.22113599 47.0653179 0.22113599 47.0653179 65.0399971 0.237479989 65.0399971"></polygon> <polygon id="path-5" points="0 357.028784 321.215506 357.028784 321.215506 0.238799989 0 0.238799989"></polygon> </defs> <g id="Page-1" stroke="none" stroke-width="1" fill="none" fill-rule="evenodd"> <g id="artem" transform="translate(-697.000000, -5065.000000)"> <g id="Group-11-Copy-10" transform="translate(146.000000, 5063.000000)"> <g id="Group-132" transform="translate(551.000000, 2.000000)"> <path d="M103.396435,316.81129 L214.34291,316.81129 C245.120989,316.81129 269.944428,332.632569 269.495868,301.857851 L269.561628,147.645377 C269.122188,117.498499 244.558429,93.2904198 214.40867,93.2904198 L105.644275,93.2904198 C75.4945166,93.2904198 50.9307577,117.498499 50.4915577,147.645377 L48.2432378,301.857851 C47.7946779,332.632569 72.6185968,316.81129 103.396435,316.81129" id="Fill-1" fill="#66BBC4"></path> <path d="M103.396435,317.579098 L214.34291,317.579098 C245.120989,317.579098 269.944428,333.400137 269.495868,302.625418 C269.495868,302.625418 269.908188,214.689902 269.542188,194.251983 C219.52619,263.34534 99.9862755,264.04182 49.8116378,195.027423 C49.3757978,221.867822 48.2432378,302.625418 48.2432378,302.625418 C47.7946779,333.400137 72.6185968,317.579098 103.396435,317.579098" id="Fill-3" fill="#66A5AF"></path> <path d="M76.9917566,265.65918 L242.290069,265.65918 C243.284149,265.65918 244.090069,266.4651 244.090069,267.45918 L244.090069,306.662218 C244.090069,307.656298 243.284149,308.462218 242.290069,308.462218 L76.9917566,308.462218 C75.9974366,308.462218 75.1917566,307.656298 75.1917566,306.662218 L75.1917566,267.45918 C75.1917566,266.4651 75.9974366,265.65918 76.9917566,265.65918" id="Fill-5" fill="#66BBC4"></path> <path d="M81.1687884,265.65918 L238.498621,265.65918 C241.693261,265.65918 244.283101,268.24902 244.283101,271.44366 L75.3845486,271.44366 C75.3845486,268.24902 77.9741485,265.65918 81.1687884,265.65918" id="Fill-7" fill="#8ED2CC"></path> <path d="M80.9759004,308.462146 L238.305973,308.462146 C241.500373,308.462146 244.090213,305.872786 244.090213,302.677906 L75.1916606,302.677906 C75.1916606,305.872786 77.7812605,308.462146 80.9759004,308.462146" id="Fill-9" fill="#66A5AF"></path> <path d="M54.9312215,197.239719 C55.5667415,200.127399 67.772421,253.954837 68.3457809,258.184356 C68.9191409,262.413396 68.151621,275.751156 68.177781,273.376836 C68.203941,271.002516 67.991061,278.406276 72.6446608,277.674516 C74.9678606,277.308996 92.6762599,271.595076 110.655859,268.758756 C128.685858,265.914516 146.986097,265.947636 148.755857,265.629636 C152.289857,264.994356 153.545777,263.068116 154.735937,257.593236 C155.926097,252.118357 147.956177,229.983878 146.713217,222.819398 C145.470257,215.654678 144.836178,188.75884 144.011538,185.24164 C142.920738,180.58876 138.442098,179.12788 134.608098,179.64772 C132.415458,179.94508 109.889299,184.67284 92.3013799,187.05772 C74.9486606,189.41044 62.5291412,189.42124 60.7113813,189.66748 C57.0513814,190.164039 54.2957016,194.351799 54.9312215,197.239719" id="Fill-11" fill="#00A09D"></path> <path d="M55.2471575,197.196831 C55.8826775,200.084511 68.088117,253.912189 68.6617169,258.141468 C69.2348369,262.370748 68.4673169,275.708508 68.4934769,273.334188 C68.5201169,270.959868 68.3069969,278.363628 72.9605967,277.631868 C75.2837966,277.266348 92.9921958,271.552188 110.971555,268.716108 C129.001554,265.871628 147.302033,265.904748 149.071793,265.586748 C152.606033,264.951468 153.861473,263.024988 155.051873,257.550588 C155.592353,255.063469 154.243313,249.140029 152.492993,242.743069 C114.691795,262.045788 65.9497171,257.438988 65.4293971,189.394432 C63.0965972,189.497392 61.5771572,189.550432 61.0270773,189.624592 C57.3673174,190.121152 54.6116376,194.309151 55.2471575,197.196831" id="Fill-13" fill="#1D7E8E"></path> <path d="M33.3527745,225.555494 L58.4176534,225.555494 C67.681653,225.555494 75.1917326,233.065574 75.1917326,242.329813 L75.1917326,309.23341 L244.090045,309.23341 L244.090045,242.329813 C244.090045,233.065574 251.600125,225.555494 260.864364,225.555494 L285.929003,225.555494 C295.193243,225.555494 302.703322,233.065574 302.703322,242.329813 L302.703322,309.23341 L298.847243,316.81117 L244.090045,316.81117 L75.1917326,316.81117 L20.4347751,316.81117 L16.5784553,309.23341 L16.5784553,242.329813 C16.5784553,233.065574 24.0885349,225.555494 33.3527745,225.555494" id="Fill-15" fill="#66BBC4"></path> <polyline id="Fill-17" fill="#66A5AF" points="298.847123 316.81129 298.847123 316.81129 20.8203351 316.81129"></polyline> <path d="M269.175948,147.645281 C268.736508,117.498643 239.192509,78.6371245 178.546672,78.6371245 L139.192434,78.6371245 C79.9345164,78.6371245 50.4915577,117.160723 50.4915577,147.645281 C108.156115,132.577602 91.1305159,171.18424 159.641153,171.18424 C228.15155,171.18424 217.61147,136.993122 269.175948,147.645281" id="Fill-19" fill="#8ED2CC"></path> <path d="M243.962845,244.905733 C243.962845,265.633812 260.766684,282.437651 281.494763,282.437651 C302.222842,282.437651 319.026442,265.633812 319.026442,244.905733 C319.026442,224.177654 302.222842,207.374055 281.494763,207.374055 C260.766684,207.374055 243.962845,224.177654 243.962845,244.905733" id="Fill-21" fill="#66BBC4"></path> <path d="M262.72854,244.905733 C262.72854,255.269893 271.13046,263.671572 281.494619,263.671572 C291.858779,263.671572 300.260459,255.269893 300.260459,244.905733 C300.260459,234.541574 291.858779,226.139894 281.494619,226.139894 C271.13046,226.139894 262.72854,234.541574 262.72854,244.905733" id="Fill-23" fill="#8ED2CC"></path> <path d="M0.255503989,244.905733 C0.255503989,265.633812 17.0593432,282.437651 37.7874223,282.437651 C58.5155014,282.437651 75.3191006,265.633812 75.3191006,244.905733 C75.3191006,224.177654 58.5155014,207.374055 37.7874223,207.374055 C17.0593432,207.374055 0.255503989,224.177654 0.255503989,244.905733" id="Fill-25" fill="#66BBC4"></path> <path d="M19.0214391,244.905733 C19.0214391,255.269893 27.4231188,263.671572 37.7872783,263.671572 C48.1514378,263.671572 56.5531175,255.269893 56.5531175,244.905733 C56.5531175,234.541574 48.1514378,226.139894 37.7872783,226.139894 C27.4231188,226.139894 19.0214391,234.541574 19.0214391,244.905733" id="Fill-27" fill="#8ED2CC"></path> <path d="M153.274265,124.910658 C153.274265,128.533458 156.211145,131.469858 159.833705,131.469858 C163.456265,131.469858 166.393145,128.533458 166.393145,124.910658 C166.393145,121.287859 163.456265,118.351459 159.833705,118.351459 C156.211145,118.351459 153.274265,121.287859 153.274265,124.910658" id="Fill-29" fill="#66A5AF"></path> <path d="M112.183867,209.407767 C119.317627,212.355207 168.281224,215.569526 203.959383,209.407767" id="Fill-31" fill="#BC7551"></path> <path d="M106.842931,239.119957 L208.549887,239.119957" id="Fill-33" fill="#172755"></path> <path d="M200.803383,144.20793 C200.803383,144.20793 209.780343,174.196888 210.442503,178.169608 C211.104663,182.142088 213.329702,192.326487 217.007222,200.852727 C221.297222,210.799047 237.139141,237.104245 236.808181,240.083605 C236.477221,243.062965 231.842582,246.042565 231.180422,248.690965 C230.518502,251.339365 232.860182,255.754165 232.760342,257.901924 C232.648982,260.294004 231.082502,262.808484 232.092182,263.707524 C233.419862,264.889764 236.434981,263.070324 236.821861,260.071764 C237.044581,258.346884 235.944181,255.667525 237.356581,254.892325 C240.131221,253.368805 241.435141,277.795764 244.528261,277.795764 C248.273701,277.795764 253.879861,269.076084 253.879861,256.625845 C253.879861,250.763125 249.756661,242.180005 247.439221,237.876325 C245.121781,233.572886 252.443221,203.982807 250.227781,186.633208 C248.976901,176.836648 245.639221,171.074008 243.984181,165.446249 C242.328901,159.818489 241.717141,142.36209 235.571701,124.72017 C225.738422,127.87473 200.803383,144.20793 200.803383,144.20793" id="Fill-35" fill="#BC7551"></path> <path d="M246.696109,276.764556 C246.673549,276.764556 246.651229,276.763356 246.628189,276.760956 C246.270589,276.723996 246.010429,276.403836 246.047389,276.046236 C246.377389,272.854716 245.312029,263.267916 244.962109,260.117676 C244.922509,259.759836 245.180269,259.437996 245.537629,259.398396 C245.894989,259.358796 246.217309,259.616076 246.257149,259.973676 C246.610909,263.158476 247.687789,272.849676 247.343149,276.180156 C247.308589,276.515196 247.025629,276.764556 246.696109,276.764556" id="Fill-37" fill="#804737"></path> <path d="M250.034077,272.298084 L250.030717,272.298084 C249.670957,272.298084 249.380797,271.956804 249.382477,271.597044 C249.395437,268.977684 249.329437,262.412724 248.446477,258.249924 C248.371837,257.897844 248.596717,257.540484 248.948557,257.465844 C249.300397,257.391444 249.646237,257.610324 249.720877,257.962164 C250.597597,262.094244 250.701277,268.300644 250.685437,271.606164 C250.683517,271.964724 250.392157,272.298084 250.034077,272.298084" id="Fill-39" fill="#804737"></path> <path d="M252.395653,264.605196 C252.380053,264.605196 252.364213,264.604716 252.348613,264.603516 C251.989813,264.578076 251.719573,264.266316 251.745253,263.907516 C251.931013,261.301116 251.232613,257.862396 250.969813,256.568077 C250.933813,256.390957 250.905013,256.249357 250.886053,256.148797 C250.820053,255.795277 251.052613,255.454717 251.406373,255.388477 C251.759893,255.322477 252.100453,255.555037 252.166693,255.908797 C252.184453,256.004557 252.212053,256.139917 252.246373,256.308637 C252.519013,257.650716 253.243333,261.216396 253.044613,264.000156 C253.020373,264.343356 252.734293,264.605196 252.395653,264.605196" id="Fill-41" fill="#804737"></path> <path d="M114.413947,144.20793 C114.413947,144.20793 105.436987,174.196888 104.774827,178.169608 C104.112667,182.142088 101.887867,192.326487 98.2101076,200.852727 C93.9201078,210.799047 78.0781885,237.104245 78.4091485,240.083605 C78.7401085,243.062965 83.3749883,246.042565 84.0371482,248.690965 C84.6990682,251.339365 82.3571483,255.754165 82.4572283,257.901924 C82.5683483,260.294004 84.1348282,262.808484 83.1251483,263.707524 C81.7974683,264.889764 78.7823485,263.070324 78.3954685,260.071764 C78.1729885,258.346884 79.2731485,255.667525 77.8609885,254.892325 C75.0861086,253.368805 73.7821887,277.795764 70.6890688,277.795764 C66.943629,277.795764 61.1399493,269.076084 61.1399493,256.625845 C61.1399493,250.763125 65.4606691,242.180005 67.778349,237.876325 C70.0955489,233.572886 62.7741092,203.982807 64.9895491,186.633208 C66.240429,176.836648 69.5781089,171.074008 71.2331488,165.446249 C72.8886687,159.818489 73.5001887,142.36209 79.6458684,124.72017 C89.478908,127.87473 114.413947,144.20793 114.413947,144.20793" id="Fill-43" fill="#BC7551"></path> <path d="M68.5214369,276.764556 C68.191677,276.764556 67.908717,276.515196 67.874157,276.180156 C67.529517,272.849676 68.6063969,263.158476 68.9603969,259.973676 C68.9999969,259.616316 69.3220769,259.359516 69.6796769,259.398396 C70.0370369,259.437996 70.2950369,259.759836 70.2551969,260.117676 C69.9052769,263.267916 68.8399169,272.854716 69.1699169,276.046236 C69.2068769,276.403836 68.9469569,276.723996 68.5891169,276.760956 C68.5663169,276.763356 68.5437569,276.764556 68.5214369,276.764556" id="Fill-45" fill="#804737"></path> <path d="M65.1832531,272.298084 C64.8251731,272.298084 64.5338131,271.962084 64.5318931,271.603284 C64.5160531,268.297524 64.6199731,262.111764 65.4966931,257.979444 C65.5710931,257.627604 65.9169331,257.391204 66.268773,257.465844 C66.620853,257.540484 66.845493,257.880564 66.770853,258.232644 C65.8878931,262.395204 65.8221331,268.980564 65.8348531,271.599924 C65.8365331,271.959684 65.5463731,272.298084 65.1866131,272.298084 L65.1832531,272.298084 Z" id="Fill-47" fill="#804737"></path> <path d="M62.8219172,264.605196 C62.4832772,264.605196 62.1971972,264.343356 62.1727172,264.000156 C61.9742372,261.216396 62.6983172,257.650956 62.9709572,256.308877 C63.0052772,256.139917 63.0328772,256.004557 63.0506372,255.908797 C63.1168772,255.555037 63.4574372,255.322477 63.8109571,255.388477 C64.1647171,255.454717 64.3975171,255.795277 64.3312771,256.148797 C64.3123171,256.249357 64.2837571,256.390957 64.2475171,256.568077 C63.9847171,257.862636 63.2863172,261.301356 63.4723172,263.907516 C63.4977572,264.266316 63.2275172,264.578076 62.8687172,264.603516 C62.8531172,264.604716 62.8372772,264.605196 62.8219172,264.605196" id="Fill-49" fill="#804737"></path> <path d="M221.122766,92.0240839 C210.012207,79.4171244 177.515968,67.034565 157.696529,68.4150449 C137.78037,67.027845 105.327811,79.4754444 94.2700518,92.0240839 C78.3429325,110.099203 68.8811729,141.971682 70.1596529,144.316002 C71.7765328,147.280241 93.2630118,153.869681 107.756371,153.218321 C116.935651,184.84192 104.856931,236.637277 106.842931,239.119837 C110.351011,243.504877 194.584527,248.646397 208.549887,239.119837 C211.176447,237.328477 200.803407,186.796 207.636687,153.218321 C222.129806,153.869681 243.616525,147.280241 245.233165,144.316002 C246.511645,141.971682 236.621725,109.610563 221.122766,92.0240839" id="Fill-51" fill="#E2A346"></path> <path d="M173.325976,34.9912784 C172.762936,53.5123176 174.960616,66.261597 175.741576,69.9945569 C176.403256,73.1577567 173.148376,78.9712765 158.401817,78.9712765 C146.658857,78.9712765 141.957498,73.7491167 142.823898,70.2859169 C144.267258,64.5184771 146.770217,52.7776776 143.762298,39.4132782 C140.754618,26.0483988 170.719096,35.3347184 173.325976,34.9912784" id="Fill-53" fill="#BC7551"></path> <path d="M138.881298,24.5090869 C130.607778,21.0151671 128.573298,5.47780776 144.987138,8.23516763 C136.630098,-0.261311988 155.016017,-3.29755185 160.698737,5.67244775 C173.148256,-1.01347195 180.533056,6.00652773 174.738736,10.5751675 C186.438736,12.1351675 185.002816,22.412207 179.412736,23.5632469 L138.881298,24.5090869 Z" id="Fill-55" fill="#172755"></path> <path d="M179.7202,29.8211987 C177.73564,28.5009587 176.14924,30.1816787 176.14924,30.1816787 C175.05148,29.8617587 174.45988,29.9318387 173.81788,24.8959189 C173.42788,21.837359 172.1938,19.5278391 169.22308,20.3531991 C163.205801,22.024559 157.188761,23.6961589 150.670121,20.3810391 C146.672681,18.3477592 144.477162,20.5379991 144.034362,23.6035189 C143.262282,28.9475987 142.538922,32.6973585 141.287322,32.5679985 C141.287322,32.5679985 140.565642,29.9572787 138.102042,30.8087986 C136.074522,31.5098386 138.795162,41.6601581 141.603642,41.0894382 C141.930042,42.5591981 141.668682,47.5972779 143.136522,51.1072777 C144.555642,54.5008776 152.246201,61.5535172 158.812361,61.5535172 C165.378761,61.5535172 173.06884,54.5008776 174.48796,51.1072777 C175.9558,47.5972779 175.69492,42.5591981 176.02132,41.0894382 C178.65172,41.1359982 181.50532,31.0089586 179.7202,29.8211987" id="Fill-57" fill="#BC7551"></path> <path d="M159.129641,63.0122132 C152.384921,63.0122132 147.252521,57.8697334 145.358682,55.6588535 C145.145802,55.4102135 145.174602,55.0362935 145.423481,54.8231735 C145.671881,54.6102936 146.046041,54.6390936 146.258921,54.8877335 C148.045961,56.9742935 152.877161,61.8270932 159.129641,61.8270932 C164.063321,61.8270932 168.97996,58.7128534 172.61884,53.2828536 C172.801,53.0109336 173.1694,52.9379736 173.44108,53.1203736 C173.713,53.3025336 173.78572,53.6706936 173.60356,53.9426136 C169.74076,59.7066933 164.465081,63.0122132 159.129641,63.0122132" id="Fill-59" fill="#804737"></path> <path d="M151.502609,38.4183103 L151.003889,38.4183103 C150.318449,38.4183103 149.762849,37.8627103 149.762849,37.1772703 L149.762849,35.5824704 C149.762849,34.8967904 150.318449,34.3411905 151.003889,34.3411905 L151.502609,34.3411905 C152.188049,34.3411905 152.743649,34.8967904 152.743649,35.5824704 L152.743649,37.1772703 C152.743649,37.8627103 152.188049,38.4183103 151.502609,38.4183103" id="Fill-61" fill="#804737"></path> <path d="M166.448249,38.4183103 L165.949529,38.4183103 C165.264089,38.4183103 164.708489,37.8627103 164.708489,37.1772703 L164.708489,35.5824704 C164.708489,34.8967904 165.264089,34.3411905 165.949529,34.3411905 L166.448249,34.3411905 C167.133449,34.3411905 167.689289,34.8967904 167.689289,35.5824704 L167.689289,37.1772703 C167.689289,37.8627103 167.133449,38.4183103 166.448249,38.4183103" id="Fill-63" fill="#804737"></path> <path d="M158.448161,46.8083019 C157.805921,46.8083019 156.970721,46.7819019 155.880881,46.7137419 C155.554481,46.6935819 155.306081,46.4120619 155.326481,46.0854219 C155.346881,45.758782 155.627921,45.510862 155.955041,45.530782 C157.468001,45.625102 159.278321,45.656302 159.868001,45.558142 C159.974321,45.025342 159.955601,43.4401421 159.939041,42.0265421 C159.871121,36.2948624 160.000241,31.0463026 162.292721,29.7908627 C162.580241,29.6336627 162.940241,29.7392627 163.097201,30.0260627 C163.254401,30.3131026 163.149281,30.6733426 162.862001,30.8305426 C161.004161,31.8479026 161.079521,38.2105423 161.124161,42.0123821 C161.164481,45.403582 161.127281,46.1646219 160.642241,46.5186219 C160.529201,46.6011819 160.245281,46.8083019 158.448161,46.8083019 L158.448161,46.8083019 Z" id="Fill-65" fill="#804737"></path> <path d="M157.070417,51.3314377 C155.773937,51.3314377 154.437617,51.0746377 153.215297,50.3663977 C151.627937,49.4464778 150.995777,48.1963178 150.969857,48.1435178 C150.824657,47.8499979 150.944657,47.4945579 151.237937,47.3491179 C151.531697,47.2041579 151.886897,47.3243979 152.032097,47.6174379 C152.114897,47.7801579 154.169777,51.6470377 160.680737,49.5129578 C160.991777,49.4111978 161.326337,49.5806378 161.428337,49.8916778 C161.530337,50.2027178 161.360897,50.5375177 161.049857,50.6395177 C159.917537,51.0105577 158.519057,51.3314377 157.070417,51.3314377" id="Fill-67" fill="#804737"></path> <path d="M146.243705,32.1026146 C146.243705,32.1026146 151.564265,30.3160546 155.506025,31.0725346 C156.284825,31.2220546 156.129545,28.7219747 154.094585,28.6156547 C151.906025,28.5009347 146.869145,29.1251747 146.243705,30.3316546 C145.753865,31.2758146 146.243705,32.1026146 146.243705,32.1026146" id="Fill-69" fill="#172755"></path> <path d="M171.380656,31.6905826 C171.380656,31.6905826 166.060097,30.3158626 162.118337,31.0725826 C161.339537,31.2221026 161.108417,28.9562627 163.117697,28.6154627 C165.165617,28.2679427 170.755216,28.7131427 171.380656,29.9196227 C171.870496,30.8637826 171.380656,31.6905826 171.380656,31.6905826" id="Fill-71" fill="#172755"></path> <path d="M139.078866,23.9163589 C141.557106,21.567479 147.753185,15.9699593 158.812145,15.9601031 C170.261584,15.9497993 177.511984,20.8618791 179.215024,23.168039 C180.918064,25.4739589 177.126544,30.9925186 175.888624,30.3245986 C174.650464,29.6566787 169.999264,24.5091589 159.460145,24.7981189 C143.820786,25.2267589 142.071906,33.9608385 141.191826,32.6273985 C140.311746,31.2939586 137.993826,24.9447589 139.078866,23.9163589" id="Fill-73" fill="#E2A346"></path> <path d="M201.661671,242.804557 C201.605271,242.316877 201.954711,241.875757 202.442391,241.819117 C202.929111,241.762957 203.371191,242.111917 203.427831,242.599597" id="Fill-75" fill="#FFFFFF"></path> <path d="M206.007927,241.422229 C205.951287,240.934549 206.300487,240.493189 206.788167,240.436309 C207.274887,240.378949 207.716967,240.728629 207.773847,241.216549" id="Fill-77" fill="#FFFFFF"></path> <path d="M112.364347,241.995493 C112.427467,241.508773 112.873627,241.165573 113.359867,241.227973 C113.847067,241.290613 114.190507,241.736533 114.127627,242.223493" id="Fill-79" fill="#FFFFFF"></path> <path d="M108.018787,241.200733 C108.084067,240.714253 108.532627,240.372973 109.018387,240.438253 C109.504867,240.503773 109.846147,240.951373 109.780867,241.437853" id="Fill-81" fill="#FFFFFF"></path> <path d="M159.460265,84.6648442 L159.459785,84.6648442 C149.946905,84.6648442 143.148426,82.3426043 139.252986,77.7626845 C136.247466,74.2286847 136.212906,70.6598848 136.212906,70.5096448 C136.212906,69.8549249 136.743546,69.3245249 137.398266,69.3245249 C138.050586,69.3245249 138.580026,69.8518049 138.583386,70.5036448 C138.584586,70.5588448 138.658266,73.4806047 141.161706,76.3457246 C144.561786,80.2373244 150.889145,82.2943643 159.459785,82.2943643 C167.694185,82.2943643 173.686024,80.4799644 176.788024,77.0474846 C179.368744,74.1914847 179.100424,71.2188448 179.097544,71.1890848 C179.031304,70.5377248 179.505784,69.9562049 180.157144,69.8902049 C180.807784,69.8246849 181.389784,70.2984449 181.456024,70.9498048 C181.472584,71.1139648 181.825864,75.0084446 178.546744,78.6370045 C174.932344,82.6366043 168.509704,84.6648442 159.460265,84.6648442 L159.460265,84.6648442 Z" id="Fill-83" fill="#FFFFFF"></path> <path d="M107.843707,150.090737 C74.5089087,146.619857 68.5293089,138.775938 68.2909889,138.444018 L70.2177089,137.062338 L70.2052289,137.045538 C70.2191489,137.063778 71.6819488,138.903378 77.0752286,141.133218 C82.0449083,143.188098 91.4598679,146.001377 108.089227,147.732977 L107.843707,150.090737 Z" id="Fill-85" fill="#FFFFFF"></path> <path d="M207.993087,148.890041 L207.662367,146.542601 C207.939087,146.503721 235.431325,142.577562 244.308445,136.761642 L245.607805,138.744762 C236.288605,144.850122 209.144127,148.728041 207.993087,148.890041" id="Fill-87" fill="#FFFFFF"></path> <path d="M68.2896449,240.703405 L77.6563645,242.320765 C78.5263645,242.471005 79.3882045,242.015725 79.7546844,241.212445 L84.5460442,229.593086 C85.0843642,228.412286 84.3358042,227.045966 83.0510843,226.864046 L68.5728449,224.812766 C67.347885,224.639006 66.275085,225.639326 66.362685,226.873406 L66.682845,238.926925 C66.745725,239.818285 67.409085,240.551245 68.2896449,240.703405" id="Fill-89" fill="#7EC2EE"></path> <path d="M69.0330929,238.506373 C68.8149329,238.506373 68.6380529,238.329493 68.6380529,238.111333 L68.6380529,227.623574 C68.6380529,227.405414 68.8149329,227.228534 69.0330929,227.228534 C69.2512529,227.228534 69.4281329,227.405414 69.4281329,227.623574 L69.4281329,238.111333 C69.4281329,238.329493 69.2512529,238.506373 69.0330929,238.506373" id="Fill-91" fill="#B4E8FF"></path> <path d="M71.4040288,238.901509 C71.3989888,238.901509 71.3939488,238.901269 71.3891488,238.901269 C71.1707488,238.893109 71.0005888,238.709509 71.0089888,238.491589 L71.4040288,228.00383 C71.4121888,227.78591 71.5981888,227.61383 71.8137088,227.62391 C72.0318688,227.63207 72.2017888,227.81567 72.1936288,228.03359 L71.7988288,238.521109 C71.7904288,238.734229 71.6154688,238.901509 71.4040288,238.901509" id="Fill-93" fill="#B4E8FF"></path> <path d="M73.7749647,239.296669 C73.7600847,239.296669 73.7452047,239.295709 73.7300847,239.294029 C73.5131247,239.269549 73.3573647,239.073949 73.3818447,238.856989 L74.5672047,228.36947 C74.5916847,228.15251 74.7887247,227.99675 75.0040046,228.02123 C75.2209646,228.04571 75.3769646,228.24155 75.3522446,228.45827 L74.1671247,238.945789 C74.1443247,239.147629 73.9732047,239.296669 73.7749647,239.296669" id="Fill-95" fill="#B4E8FF"></path> <path d="M75.9478526,239.691829 C75.9185726,239.691829 75.8888126,239.688469 75.8588126,239.681509 C75.6461726,239.632549 75.5134526,239.420389 75.5626526,239.207749 L77.9331325,228.91775 C77.9823325,228.70511 78.1942525,228.57167 78.4068925,228.62159 C78.6195325,228.67031 78.7522525,228.88247 78.7030525,229.09535 L76.3325726,239.385349 C76.2905726,239.567989 76.1278526,239.691829 75.9478526,239.691829" id="Fill-97" fill="#B4E8FF"></path> <path d="M78.1207405,240.284341 C78.0823405,240.284341 78.0432205,240.279061 78.0045805,240.267061 C77.7960205,240.202741 77.6789005,239.981701 77.7429805,239.773141 L80.9040204,229.483142 C80.9678604,229.274822 81.1889004,229.157462 81.3974604,229.221542 C81.6060204,229.285622 81.7233803,229.506662 81.6590603,229.715222 L78.4982605,240.005221 C78.4459405,240.175141 78.2897005,240.284341 78.1207405,240.284341" id="Fill-99" fill="#B4E8FF"></path> <path d="M246.500173,239.647309 L237.133453,241.264669 C236.263453,241.414909 235.401613,240.959629 235.035373,240.156109 L230.243774,228.53675 C229.705694,227.35619 230.454014,225.98987 231.738734,225.80771 L246.216973,223.75643 C247.441933,223.58291 248.514733,224.58323 248.427133,225.81731 L248.107213,237.870589 C248.044093,238.761949 247.380733,239.495149 246.500173,239.647309" id="Fill-101" fill="#7EC2EE"></path> <path d="M245.571589,237.067309 C245.353429,237.067309 245.176549,236.890429 245.176549,236.672269 L245.176549,226.18451 C245.176549,225.96635 245.353429,225.78947 245.571589,225.78947 C245.789749,225.78947 245.966389,225.96635 245.966389,226.18451 L245.966389,236.672269 C245.966389,236.890429 245.789749,237.067309 245.571589,237.067309" id="Fill-103" fill="#B4E8FF"></path> <path d="M243.200653,237.462445 C242.989213,237.462445 242.814013,237.295165 242.805853,237.082285 L242.411053,226.594526 C242.402893,226.376606 242.572813,226.193006 242.790973,226.184846 C243.007933,226.177406 243.192493,226.346846 243.200653,226.565006 L243.595693,237.052525 C243.603853,237.270445 243.433933,237.454045 243.215533,237.462205 C243.210733,237.462445 243.205693,237.462445 243.200653,237.462445" id="Fill-105" fill="#B4E8FF"></path> <path d="M240.829717,237.857605 C240.631477,237.857605 240.460357,237.708565 240.437557,237.506725 L239.252437,227.019206 C239.227717,226.802486 239.383717,226.606646 239.600437,226.582406 C239.816437,226.556966 240.012997,226.713446 240.037477,226.930406 L241.222837,237.418165 C241.247317,237.634885 241.091557,237.830725 240.874597,237.854965 C240.859477,237.856645 240.844597,237.857605 240.829717,237.857605" id="Fill-107" fill="#B4E8FF"></path> <path d="M238.656829,238.252765 C238.476829,238.252765 238.314109,238.128925 238.272109,237.946285 L235.901629,227.656286 C235.852429,227.443646 235.985149,227.231486 236.197789,227.182526 C236.410669,227.133326 236.622349,227.266046 236.671549,227.478686 L239.042029,237.768685 C239.091229,237.981565 238.958509,238.193725 238.745869,238.242445 C238.715869,238.249405 238.686109,238.252765 238.656829,238.252765" id="Fill-109" fill="#B4E8FF"></path> <path d="M236.483941,238.845493 C236.314981,238.845493 236.158741,238.736293 236.106421,238.566373 L232.945622,228.276134 C232.881302,228.067574 232.998662,227.846534 233.207222,227.782454 C233.416502,227.718374 233.636822,227.835494 233.700662,228.044054 L236.861701,238.334053 C236.925781,238.542853 236.808661,238.763653 236.599861,238.827973 C236.561221,238.839733 236.522341,238.845493 236.483941,238.845493" id="Fill-111" fill="#B4E8FF"></path> <g id="Group-115" transform="translate(0.000000, 311.428786)"> <mask id="mask-2" fill="white"> <use xlink:href="#path-1"></use> </mask> <g id="Clip-114"></g> <path d="M315.33073,11.3764075 L5.88482374,11.3764075 C2.63474388,11.3764075 2.3999999e-05,8.8645676 2.3999999e-05,5.76640774 C2.3999999e-05,2.66800788 2.63474388,0.156167993 5.88482374,0.156167993 L315.33073,0.156167993 C318.58081,0.156167993 321.21553,2.66800788 321.21553,5.76640774 C321.21553,8.8645676 318.58081,11.3764075 315.33073,11.3764075" id="Fill-113" fill="#9ED2F2" mask="url(#mask-2)"></path> </g> <path d="M248.561269,295.205411 L6.87143969,295.205411 C3.21743986,295.205411 0.255599989,292.243331 0.255599989,288.589811 L0.255599989,165.559577 C0.255599989,161.905817 3.21743986,158.943737 6.87143969,158.943737 L248.561269,158.943737 C252.215269,158.943737 255.176869,161.905817 255.176869,165.559577 L255.176869,288.589811 C255.176869,292.243331 252.215269,295.205411 248.561269,295.205411" id="Fill-116" fill="#005081"></path> <g id="Group-120" transform="translate(23.759999, 291.988787)"> <mask id="mask-4" fill="white"> <use xlink:href="#path-3"></use> </mask> <g id="Clip-119"></g> <path d="M4.4768398,61.5392132 L42.8261981,61.5392132 L31.6988386,3.72201583 L15.6037193,3.72201583 L4.4768398,61.5392132 Z M47.0653179,65.0400931 L0.237479989,65.0400931 L12.7119594,0.22113599 L34.5908385,0.22113599 L47.0653179,65.0400931 Z" id="Fill-118" fill="#005081" mask="url(#mask-4)"></path> </g> <path d="M199.429479,352.594016 L237.779077,352.594016 L226.651478,294.777059 L210.556599,294.777059 L199.429479,352.594016 Z M242.018197,356.094896 L195.190359,356.094896 L207.664599,291.276179 L229.543478,291.276179 L242.018197,356.094896 Z" id="Fill-121" fill="#005081"></path> <mask id="mask-6" fill="white"> <use xlink:href="#path-5"></use> </mask> <g id="Clip-124"></g> <polygon id="Fill-123" fill="#004469" mask="url(#mask-6)" points="49.4347178 204.940311 108.885355 204.940311 108.885355 196.535991 49.4347178 196.535991"></polygon> <polygon id="Fill-125" fill="#004469" mask="url(#mask-6)" points="160.242953 203.072631 219.69359 203.072631 219.69359 194.668551 160.242953 194.668551"></polygon> <polygon id="Fill-126" fill="#004469" mask="url(#mask-6)" points="49.4347178 237.311269 108.885355 237.311269 108.885355 228.90719 49.4347178 228.90719"></polygon> <polygon id="Fill-127" fill="#004469" mask="url(#mask-6)" points="160.242953 235.132309 219.69359 235.132309 219.69359 226.72823 160.242953 226.72823"></polygon> <path d="M145.613705,169.456672 C145.613705,173.926192 138.785466,177.549472 130.361946,177.549472 C121.938667,177.549472 115.110187,173.926192 115.110187,169.456672 C115.110187,164.987153 121.938667,161.363873 130.361946,161.363873 C138.785466,161.363873 145.613705,164.987153 145.613705,169.456672" id="Fill-128" fill="#004469" mask="url(#mask-6)"></path> <polygon id="Fill-129" fill="#004469" mask="url(#mask-6)" points="130.56801 188.081056 126.36657 188.026576 126.39369 185.926096 130.59513 185.980576"></polygon> <path d="M130.454562,196.870359 L126.253122,196.816119 L126.309762,192.421479 L130.511202,192.475719 L130.454562,196.870359 Z M130.341042,205.659879 L126.139602,205.605399 L126.196482,201.210999 L130.397922,201.265239 L130.341042,205.659879 Z M130.227762,214.449398 L126.026322,214.395158 L126.082962,210.000519 L130.284402,210.054759 L130.227762,214.449398 Z M130.114242,223.238918 L125.913042,223.184678 L125.969682,218.789798 L130.170882,218.844278 L130.114242,223.238918 Z M130.000722,232.028438 L125.799522,231.974198 L125.856162,227.579318 L130.057602,227.633558 L130.000722,232.028438 Z M129.887442,240.817717 L125.686242,240.763477 L125.742882,236.368837 L129.944082,236.423077 L129.887442,240.817717 Z M129.773922,249.607477 L125.572722,249.553237 L125.629602,245.158357 L129.830562,245.212597 L129.773922,249.607477 Z M129.660402,258.396756 L125.459442,258.342516 L125.516082,253.947637 L129.717282,254.001877 L129.660402,258.396756 Z M129.547362,267.186036 L125.345922,267.131796 L125.402562,262.737156 L129.604002,262.791636 L129.547362,267.186036 Z M129.433842,275.975556 L125.232402,275.921556 L125.289282,271.526436 L129.490482,271.580916 L129.433842,275.975556 Z" id="Fill-130" fill="#004469" mask="url(#mask-6)"></path> <polygon id="Fill-131" fill="#004469" mask="url(#mask-6)" points="129.350202 282.470651 125.149002 282.416891 125.175642 280.316411 129.377082 280.370171"></polygon> </g> </g> </g> </g> </svg> 