<?xml version="1.0" encoding="UTF-8"?> <svg xmlns="http://www.w3.org/2000/svg" xmlns:xlink="http://www.w3.org/1999/xlink" width="572px" height="407px" viewBox="0 0 572 407"> <!-- Generator: Sketch 57.1 (83088) - https://sketch.com --> <title>Group 19</title> <desc>Created with Sketch.</desc> <defs> <polygon id="path-1" points="0.136489796 0.0638399989 36.8709174 0.0638399989 36.8709174 30.8200405 0.136489796 30.8200405"></polygon> <path d="M9.54890984,1.97357997 C6.73112989,4.37051993 8.85002985,9.30173984 6.42494989,11.6736898 L6.42494989,11.6736898 C4.28042993,13.7713798 1.55336997,13.4246698 0.456749992,16.9062597 L0.456749992,16.9062597 C-1.15688998,22.0279496 3.92825993,26.5158595 5.56058991,30.9447595 L5.56058991,30.9447595 C6.93062988,34.6611294 3.84992993,36.0775794 2.46539996,38.9736893 L2.46539996,38.9736893 C1.39838998,41.2066193 1.94690997,43.5980993 3.10988995,45.7325392 L3.10988995,45.7325392 C5.16032991,49.4965792 9.70661983,52.5268791 8.65346985,57.400769 L8.65346985,57.400769 C7.77440987,61.468259 6.95687988,65.0934889 10.5459898,68.1762888 L10.5459898,68.1762888 C13.0063498,70.2895188 17.5713297,72.2154288 17.2233597,76.1270987 L17.2233597,76.1270987 C17.1002997,77.5109987 16.1422797,78.6909887 15.8797797,80.0553586 L15.8797797,80.0553586 C15.4641897,82.2149986 16.8629997,84.3166786 18.4877697,85.7990685 L18.4877697,85.7990685 C22.1839796,89.1716685 25.4305796,92.3521184 28.1992195,96.5955884 L28.1992195,96.5955884 C29.3825695,98.4085183 34.1193294,102.502678 32.2261795,104.981518 L32.2261795,104.981518 C35.6670294,100.475758 39.3035993,96.1062884 42.4302893,91.3693184 L42.4302893,91.3693184 C45.0017392,87.4731885 48.8781292,81.7750486 46.2394792,76.9767587 L46.2394792,76.9767587 C45.4185892,75.4844987 43.8925193,74.3721287 43.4739893,72.7208988 L43.4739893,72.7208988 C42.7190393,69.7391088 45.6485392,66.9744589 46.7378092,64.4376589 L46.7378092,64.4376589 C48.4478392,60.455009 47.1928792,55.829129 44.1806392,52.8395691 L44.1806392,52.8395691 C42.7553693,51.4250091 41.2091393,49.8695392 40.9995593,47.8724392 L40.9995593,47.8724392 C40.7710793,45.6917992 42.1383893,43.6585793 42.7587293,41.6471993 L42.7587293,41.6471993 C43.3305593,39.7928993 43.6869293,37.8212094 43.8954593,35.8950894 L43.8954593,35.8950894 C44.0428792,34.5351294 44.0997892,33.1434594 43.7797493,31.8133195 L43.7797493,31.8133195 C43.1715893,29.2834495 40.8935093,27.8774995 39.2076293,26.0822096 L39.2076293,26.0822096 C35.1932694,21.8091296 37.3031394,16.7846697 35.5494294,11.8183798 L35.5494294,11.8183798 C34.1468394,7.84685987 31.2786595,7.88990987 28.3550395,7.93316986 L28.3550395,7.93316986 C27.9969895,7.93820986 27.6383095,7.94366986 27.2813095,7.94156986 L27.2813095,7.94156986 C25.1588396,7.92896986 23.0983196,7.65617987 21.6442796,5.57381991 L21.6442796,5.57381991 C19.6793097,2.75981995 17.0018097,0.143849936 13.9303498,0.143849936 L13.9303498,0.143849936 C12.5405698,0.143849936 11.0707798,0.678929988 9.54890984,1.97357997" id="path-3"></path> <path d="M9.54890984,1.97357997 C6.73112989,4.37051993 8.85002985,9.30173984 6.42494989,11.6736898 L6.42494989,11.6736898 C4.28042993,13.7713798 1.55336997,13.4246698 0.456749992,16.9062597 L0.456749992,16.9062597 C-1.15688998,22.0279496 3.92825993,26.5158595 5.56058991,30.9447595 L5.56058991,30.9447595 C6.93062988,34.6611294 3.84992993,36.0775794 2.46539996,38.9736893 L2.46539996,38.9736893 C1.39838998,41.2066193 1.94690997,43.5980993 3.10988995,45.7325392 L3.10988995,45.7325392 C5.16032991,49.4965792 9.70661983,52.5268791 8.65346985,57.400769 L8.65346985,57.400769 C7.77440987,61.468259 6.95687988,65.0934889 10.5459898,68.1762888 L10.5459898,68.1762888 C13.0063498,70.2895188 17.5713297,72.2154288 17.2233597,76.1270987 L17.2233597,76.1270987 C17.1002997,77.5109987 16.1422797,78.6909887 15.8797797,80.0553586 L15.8797797,80.0553586 C15.4641897,82.2149986 16.8629997,84.3166786 18.4877697,85.7990685 L18.4877697,85.7990685 C22.1839796,89.1716685 25.4305796,92.3521184 28.1992195,96.5955884 L28.1992195,96.5955884 C29.3825695,98.4085183 34.1193294,102.502678 32.2261795,104.981518 L32.2261795,104.981518 C35.6670294,100.475758 39.3035993,96.1062884 42.4302893,91.3693184 L42.4302893,91.3693184 C45.0017392,87.4731885 48.8781292,81.7750486 46.2394792,76.9767587 L46.2394792,76.9767587 C45.4185892,75.4844987 43.8925193,74.3721287 43.4739893,72.7208988 L43.4739893,72.7208988 C42.7190393,69.7391088 45.6485392,66.9744589 46.7378092,64.4376589 L46.7378092,64.4376589 C48.4478392,60.455009 47.1928792,55.829129 44.1806392,52.8395691 L44.1806392,52.8395691 C42.7553693,51.4250091 41.2091393,49.8695392 40.9995593,47.8724392 L40.9995593,47.8724392 C40.7710793,45.6917992 42.1383893,43.6585793 42.7587293,41.6471993 L42.7587293,41.6471993 C43.3305593,39.7928993 43.6869293,37.8212094 43.8954593,35.8950894 L43.8954593,35.8950894 C44.0428792,34.5351294 44.0997892,33.1434594 43.7797493,31.8133195 L43.7797493,31.8133195 C43.1715893,29.2834495 40.8935093,27.8774995 39.2076293,26.0822096 L39.2076293,26.0822096 C35.1932694,21.8091296 37.3031394,16.7846697 35.5494294,11.8183798 L35.5494294,11.8183798 C34.1468394,7.84685987 31.2786595,7.88990987 28.3550395,7.93316986 L28.3550395,7.93316986 C27.9969895,7.93820986 27.6383095,7.94366986 27.2813095,7.94156986 L27.2813095,7.94156986 C25.1588396,7.92896986 23.0983196,7.65617987 21.6442796,5.57381991 L21.6442796,5.57381991 C19.6793097,2.75981995 17.0018097,0.143849936 13.9303498,0.143849936 L13.9303498,0.143849936 C12.5405698,0.143849936 11.0707798,0.678929988 9.54890984,1.97357997" id="path-5"></path> <path d="M9.54890984,1.97357997 C6.73112989,4.37051993 8.85002985,9.30173984 6.42494989,11.6736898 L6.42494989,11.6736898 C4.28042993,13.7713798 1.55336997,13.4246698 0.456749992,16.9062597 L0.456749992,16.9062597 C-1.15688998,22.0279496 3.92825993,26.5158595 5.56058991,30.9447595 L5.56058991,30.9447595 C6.93062988,34.6611294 3.84992993,36.0775794 2.46539996,38.9736893 L2.46539996,38.9736893 C1.39838998,41.2066193 1.94690997,43.5980993 3.10988995,45.7325392 L3.10988995,45.7325392 C5.16032991,49.4965792 9.70661983,52.5268791 8.65346985,57.400769 L8.65346985,57.400769 C7.77440987,61.468259 6.95687988,65.0934889 10.5459898,68.1762888 L10.5459898,68.1762888 C13.0063498,70.2895188 17.5713297,72.2154288 17.2233597,76.1270987 L17.2233597,76.1270987 C17.1002997,77.5109987 16.1422797,78.6909887 15.8797797,80.0553586 L15.8797797,80.0553586 C15.4641897,82.2149986 16.8629997,84.3166786 18.4877697,85.7990685 L18.4877697,85.7990685 C22.1839796,89.1716685 25.4305796,92.3521184 28.1992195,96.5955884 L28.1992195,96.5955884 C29.3825695,98.4085183 34.1193294,102.502678 32.2261795,104.981518 L32.2261795,104.981518 C35.6670294,100.475758 39.3035993,96.1062884 42.4302893,91.3693184 L42.4302893,91.3693184 C45.0017392,87.4731885 48.8781292,81.7750486 46.2394792,76.9767587 L46.2394792,76.9767587 C45.4185892,75.4844987 43.8925193,74.3721287 43.4739893,72.7208988 L43.4739893,72.7208988 C42.7190393,69.7391088 45.6485392,66.9744589 46.7378092,64.4376589 L46.7378092,64.4376589 C48.4478392,60.455009 47.1928792,55.829129 44.1806392,52.8395691 L44.1806392,52.8395691 C42.7553693,51.4250091 41.2091393,49.8695392 40.9995593,47.8724392 L40.9995593,47.8724392 C40.7710793,45.6917992 42.1383893,43.6585793 42.7587293,41.6471993 L42.7587293,41.6471993 C43.3305593,39.7928993 43.6869293,37.8212094 43.8954593,35.8950894 L43.8954593,35.8950894 C44.0428792,34.5351294 44.0997892,33.1434594 43.7797493,31.8133195 L43.7797493,31.8133195 C43.1715893,29.2834495 40.8935093,27.8774995 39.2076293,26.0822096 L39.2076293,26.0822096 C35.1932694,21.8091296 37.3031394,16.7846697 35.5494294,11.8183798 L35.5494294,11.8183798 C34.1468394,7.84685987 31.2786595,7.88990987 28.3550395,7.93316986 L28.3550395,7.93316986 C27.9969895,7.93820986 27.6383095,7.94366986 27.2813095,7.94156986 L27.2813095,7.94156986 C25.1588396,7.92896986 23.0983196,7.65617987 21.6442796,5.57381991 L21.6442796,5.57381991 C19.6793097,2.75981995 17.0018097,0.143849936 13.9303498,0.143849936 L13.9303498,0.143849936 C12.5405698,0.143849936 11.0707798,0.678929988 9.54890984,1.97357997" id="path-7"></path> <path d="M9.54890984,1.97357997 C6.73112989,4.37051993 8.85002985,9.30173984 6.42494989,11.6736898 L6.42494989,11.6736898 C4.28042993,13.7713798 1.55336997,13.4246698 0.456749992,16.9062597 L0.456749992,16.9062597 C-1.15688998,22.0279496 3.92825993,26.5158595 5.56058991,30.9447595 L5.56058991,30.9447595 C6.93062988,34.6611294 3.84992993,36.0775794 2.46539996,38.9736893 L2.46539996,38.9736893 C1.39838998,41.2066193 1.94690997,43.5980993 3.10988995,45.7325392 L3.10988995,45.7325392 C5.16032991,49.4965792 9.70661983,52.5268791 8.65346985,57.400769 L8.65346985,57.400769 C7.77440987,61.468259 6.95687988,65.0934889 10.5459898,68.1762888 L10.5459898,68.1762888 C13.0063498,70.2895188 17.5713297,72.2154288 17.2233597,76.1270987 L17.2233597,76.1270987 C17.1002997,77.5109987 16.1422797,78.6909887 15.8797797,80.0553586 L15.8797797,80.0553586 C15.4641897,82.2149986 16.8629997,84.3166786 18.4877697,85.7990685 L18.4877697,85.7990685 C22.1839796,89.1716685 25.4305796,92.3521184 28.1992195,96.5955884 L28.1992195,96.5955884 C29.3825695,98.4085183 34.1193294,102.502678 32.2261795,104.981518 L32.2261795,104.981518 C35.6670294,100.475758 39.3035993,96.1062884 42.4302893,91.3693184 L42.4302893,91.3693184 C45.0017392,87.4731885 48.8781292,81.7750486 46.2394792,76.9767587 L46.2394792,76.9767587 C45.4185892,75.4844987 43.8925193,74.3721287 43.4739893,72.7208988 L43.4739893,72.7208988 C42.7190393,69.7391088 45.6485392,66.9744589 46.7378092,64.4376589 L46.7378092,64.4376589 C48.4478392,60.455009 47.1928792,55.829129 44.1806392,52.8395691 L44.1806392,52.8395691 C42.7553693,51.4250091 41.2091393,49.8695392 40.9995593,47.8724392 L40.9995593,47.8724392 C40.7710793,45.6917992 42.1383893,43.6585793 42.7587293,41.6471993 L42.7587293,41.6471993 C43.3305593,39.7928993 43.6869293,37.8212094 43.8954593,35.8950894 L43.8954593,35.8950894 C44.0428792,34.5351294 44.0997892,33.1434594 43.7797493,31.8133195 L43.7797493,31.8133195 C43.1715893,29.2834495 40.8935093,27.8774995 39.2076293,26.0822096 L39.2076293,26.0822096 C35.1932694,21.8091296 37.3031394,16.7846697 35.5494294,11.8183798 L35.5494294,11.8183798 C34.1468394,7.84685987 31.2786595,7.88990987 28.3550395,7.93316986 L28.3550395,7.93316986 C27.9969895,7.93820986 27.6383095,7.94366986 27.2813095,7.94156986 L27.2813095,7.94156986 C25.1588396,7.92896986 23.0983196,7.65617987 21.6442796,5.57381991 L21.6442796,5.57381991 C19.6793097,2.75981995 17.0018097,0.143849936 13.9303498,0.143849936 L13.9303498,0.143849936 C12.5405698,0.143849936 11.0707798,0.678929988 9.54890984,1.97357997" id="path-9"></path> <path d="M9.54890984,1.97357997 C6.73112989,4.37051993 8.85002985,9.30173984 6.42494989,11.6736898 L6.42494989,11.6736898 C4.28042993,13.7713798 1.55336997,13.4246698 0.456749992,16.9062597 L0.456749992,16.9062597 C-1.15688998,22.0279496 3.92825993,26.5158595 5.56058991,30.9447595 L5.56058991,30.9447595 C6.93062988,34.6611294 3.84992993,36.0775794 2.46539996,38.9736893 L2.46539996,38.9736893 C1.39838998,41.2066193 1.94690997,43.5980993 3.10988995,45.7325392 L3.10988995,45.7325392 C5.16032991,49.4965792 9.70661983,52.5268791 8.65346985,57.400769 L8.65346985,57.400769 C7.77440987,61.468259 6.95687988,65.0934889 10.5459898,68.1762888 L10.5459898,68.1762888 C13.0063498,70.2895188 17.5713297,72.2154288 17.2233597,76.1270987 L17.2233597,76.1270987 C17.1002997,77.5109987 16.1422797,78.6909887 15.8797797,80.0553586 L15.8797797,80.0553586 C15.4641897,82.2149986 16.8629997,84.3166786 18.4877697,85.7990685 L18.4877697,85.7990685 C22.1839796,89.1716685 25.4305796,92.3521184 28.1992195,96.5955884 L28.1992195,96.5955884 C29.3825695,98.4085183 34.1193294,102.502678 32.2261795,104.981518 L32.2261795,104.981518 C35.6670294,100.475758 39.3035993,96.1062884 42.4302893,91.3693184 L42.4302893,91.3693184 C45.0017392,87.4731885 48.8781292,81.7750486 46.2394792,76.9767587 L46.2394792,76.9767587 C45.4185892,75.4844987 43.8925193,74.3721287 43.4739893,72.7208988 L43.4739893,72.7208988 C42.7190393,69.7391088 45.6485392,66.9744589 46.7378092,64.4376589 L46.7378092,64.4376589 C48.4478392,60.455009 47.1928792,55.829129 44.1806392,52.8395691 L44.1806392,52.8395691 C42.7553693,51.4250091 41.2091393,49.8695392 40.9995593,47.8724392 L40.9995593,47.8724392 C40.7710793,45.6917992 42.1383893,43.6585793 42.7587293,41.6471993 L42.7587293,41.6471993 C43.3305593,39.7928993 43.6869293,37.8212094 43.8954593,35.8950894 L43.8954593,35.8950894 C44.0428792,34.5351294 44.0997892,33.1434594 43.7797493,31.8133195 L43.7797493,31.8133195 C43.1715893,29.2834495 40.8935093,27.8774995 39.2076293,26.0822096 L39.2076293,26.0822096 C35.1932694,21.8091296 37.3031394,16.7846697 35.5494294,11.8183798 L35.5494294,11.8183798 C34.1468394,7.84685987 31.2786595,7.88990987 28.3550395,7.93316986 L28.3550395,7.93316986 C27.9969895,7.93820986 27.6383095,7.94366986 27.2813095,7.94156986 L27.2813095,7.94156986 C25.1588396,7.92896986 23.0983196,7.65617987 21.6442796,5.57381991 L21.6442796,5.57381991 C19.6793097,2.75981995 17.0018097,0.143849936 13.9303498,0.143849936 L13.9303498,0.143849936 C12.5405698,0.143849936 11.0707798,0.678929988 9.54890984,1.97357997" id="path-11"></path> <path d="M9.54890984,1.97357997 C6.73112989,4.37051993 8.85002985,9.30173984 6.42494989,11.6736898 L6.42494989,11.6736898 C4.28042993,13.7713798 1.55336997,13.4246698 0.456749992,16.9062597 L0.456749992,16.9062597 C-1.15688998,22.0279496 3.92825993,26.5158595 5.56058991,30.9447595 L5.56058991,30.9447595 C6.93062988,34.6611294 3.84992993,36.0775794 2.46539996,38.9736893 L2.46539996,38.9736893 C1.39838998,41.2066193 1.94690997,43.5980993 3.10988995,45.7325392 L3.10988995,45.7325392 C5.16032991,49.4965792 9.70661983,52.5268791 8.65346985,57.400769 L8.65346985,57.400769 C7.77440987,61.468259 6.95687988,65.0934889 10.5459898,68.1762888 L10.5459898,68.1762888 C13.0063498,70.2895188 17.5713297,72.2154288 17.2233597,76.1270987 L17.2233597,76.1270987 C17.1002997,77.5109987 16.1422797,78.6909887 15.8797797,80.0553586 L15.8797797,80.0553586 C15.4641897,82.2149986 16.8629997,84.3166786 18.4877697,85.7990685 L18.4877697,85.7990685 C22.1839796,89.1716685 25.4305796,92.3521184 28.1992195,96.5955884 L28.1992195,96.5955884 C29.3825695,98.4085183 34.1193294,102.502678 32.2261795,104.981518 L32.2261795,104.981518 C35.6670294,100.475758 39.3035993,96.1062884 42.4302893,91.3693184 L42.4302893,91.3693184 C45.0017392,87.4731885 48.8781292,81.7750486 46.2394792,76.9767587 L46.2394792,76.9767587 C45.4185892,75.4844987 43.8925193,74.3721287 43.4739893,72.7208988 L43.4739893,72.7208988 C42.7190393,69.7391088 45.6485392,66.9744589 46.7378092,64.4376589 L46.7378092,64.4376589 C48.4478392,60.455009 47.1928792,55.829129 44.1806392,52.8395691 L44.1806392,52.8395691 C42.7553693,51.4250091 41.2091393,49.8695392 40.9995593,47.8724392 L40.9995593,47.8724392 C40.7710793,45.6917992 42.1383893,43.6585793 42.7587293,41.6471993 L42.7587293,41.6471993 C43.3305593,39.7928993 43.6869293,37.8212094 43.8954593,35.8950894 L43.8954593,35.8950894 C44.0428792,34.5351294 44.0997892,33.1434594 43.7797493,31.8133195 L43.7797493,31.8133195 C43.1715893,29.2834495 40.8935093,27.8774995 39.2076293,26.0822096 L39.2076293,26.0822096 C35.1932694,21.8091296 37.3031394,16.7846697 35.5494294,11.8183798 L35.5494294,11.8183798 C34.1468394,7.84685987 31.2786595,7.88990987 28.3550395,7.93316986 L28.3550395,7.93316986 C27.9969895,7.93820986 27.6383095,7.94366986 27.2813095,7.94156986 L27.2813095,7.94156986 C25.1588396,7.92896986 23.0983196,7.65617987 21.6442796,5.57381991 L21.6442796,5.57381991 C19.6793097,2.75981995 17.0018097,0.143849936 13.9303498,0.143849936 L13.9303498,0.143849936 C12.5405698,0.143849936 11.0707798,0.678929988 9.54890984,1.97357997" id="path-13"></path> <path d="M9.54890984,1.97357997 C6.73112989,4.37051993 8.85002985,9.30173984 6.42494989,11.6736898 L6.42494989,11.6736898 C4.28042993,13.7713798 1.55336997,13.4246698 0.456749992,16.9062597 L0.456749992,16.9062597 C-1.15688998,22.0279496 3.92825993,26.5158595 5.56058991,30.9447595 L5.56058991,30.9447595 C6.93062988,34.6611294 3.84992993,36.0775794 2.46539996,38.9736893 L2.46539996,38.9736893 C1.39838998,41.2066193 1.94690997,43.5980993 3.10988995,45.7325392 L3.10988995,45.7325392 C5.16032991,49.4965792 9.70661983,52.5268791 8.65346985,57.400769 L8.65346985,57.400769 C7.77440987,61.468259 6.95687988,65.0934889 10.5459898,68.1762888 L10.5459898,68.1762888 C13.0063498,70.2895188 17.5713297,72.2154288 17.2233597,76.1270987 L17.2233597,76.1270987 C17.1002997,77.5109987 16.1422797,78.6909887 15.8797797,80.0553586 L15.8797797,80.0553586 C15.4641897,82.2149986 16.8629997,84.3166786 18.4877697,85.7990685 L18.4877697,85.7990685 C22.1839796,89.1716685 25.4305796,92.3521184 28.1992195,96.5955884 L28.1992195,96.5955884 C29.3825695,98.4085183 34.1193294,102.502678 32.2261795,104.981518 L32.2261795,104.981518 C35.6670294,100.475758 39.3035993,96.1062884 42.4302893,91.3693184 L42.4302893,91.3693184 C45.0017392,87.4731885 48.8781292,81.7750486 46.2394792,76.9767587 L46.2394792,76.9767587 C45.4185892,75.4844987 43.8925193,74.3721287 43.4739893,72.7208988 L43.4739893,72.7208988 C42.7190393,69.7391088 45.6485392,66.9744589 46.7378092,64.4376589 L46.7378092,64.4376589 C48.4478392,60.455009 47.1928792,55.829129 44.1806392,52.8395691 L44.1806392,52.8395691 C42.7553693,51.4250091 41.2091393,49.8695392 40.9995593,47.8724392 L40.9995593,47.8724392 C40.7710793,45.6917992 42.1383893,43.6585793 42.7587293,41.6471993 L42.7587293,41.6471993 C43.3305593,39.7928993 43.6869293,37.8212094 43.8954593,35.8950894 L43.8954593,35.8950894 C44.0428792,34.5351294 44.0997892,33.1434594 43.7797493,31.8133195 L43.7797493,31.8133195 C43.1715893,29.2834495 40.8935093,27.8774995 39.2076293,26.0822096 L39.2076293,26.0822096 C35.1932694,21.8091296 37.3031394,16.7846697 35.5494294,11.8183798 L35.5494294,11.8183798 C34.1468394,7.84685987 31.2786595,7.88990987 28.3550395,7.93316986 L28.3550395,7.93316986 C27.9969895,7.93820986 27.6383095,7.94366986 27.2813095,7.94156986 L27.2813095,7.94156986 C25.1588396,7.92896986 23.0983196,7.65617987 21.6442796,5.57381991 L21.6442796,5.57381991 C19.6793097,2.75981995 17.0018097,0.143849936 13.9303498,0.143849936 L13.9303498,0.143849936 C12.5405698,0.143849936 11.0707798,0.678929988 9.54890984,1.97357997" id="path-15"></path> <path d="M28.9959595,3.07334995 C27.6530095,4.38248993 26.1206396,4.29533993 24.5792396,4.01057993 L24.5792396,4.01057993 C22.2026696,3.57125994 19.8042597,2.66237995 18.0448797,5.6781899 L18.0448797,5.6781899 C16.0857897,9.03797985 16.9207497,12.9748498 13.4175298,15.5187897 L13.4175298,15.5187897 C11.9458498,16.5872697 10.0988998,17.2922397 9.30761984,19.0427997 L9.30761984,19.0427997 C8.89139985,19.9634397 8.73977985,20.9808896 8.65871985,21.9878396 L8.65871985,21.9878396 C8.54342985,23.4139496 8.52914985,24.8933996 8.68727985,26.3174096 L8.68727985,26.3174096 C8.85863985,27.8623795 9.56885984,29.5264195 9.10139985,31.0766395 L9.10139985,31.0766395 C8.67299985,32.4962394 7.33613988,33.4105794 6.1063799,34.2394494 L6.1063799,34.2394494 C3.50762994,35.9910594 1.95740997,39.1727693 2.64641995,42.2986193 L2.64641995,42.2986193 C3.08531995,44.2892092 4.82768992,46.7000092 3.86714993,48.7584292 L3.86714993,48.7584292 C3.33521994,49.8985192 2.07395996,50.4940791 1.27217998,51.4628091 L1.27217998,51.4628091 C-1.30619998,54.5783691 0.716939988,59.248139 2.04287997,62.4300589 L2.04287997,62.4300589 C3.65525994,66.2988889 5.6884799,69.9717888 7.56062987,73.7165087 L7.56062987,73.7165087 C6.53078989,71.6564088 10.5331798,69.3422088 11.6423998,68.1907788 L11.6423998,68.1907788 C14.2382098,65.4960589 17.0335197,63.6383989 20.1812097,61.7036689 L20.1812097,61.7036689 C21.5648996,60.853169 22.8704696,59.522399 22.8681596,57.898259 L22.8681596,57.898259 C22.8662696,56.871989 22.3349696,55.883729 22.4372396,54.8627091 L22.4372396,54.8627091 C22.7261996,51.9773091 26.3041796,51.2120691 28.3812895,50.0196891 L28.3812895,50.0196891 C31.4113795,48.2802592 31.3202395,45.5376592 31.2456895,42.4653593 L31.2456895,42.4653593 C31.1562295,38.7842693 34.8734394,37.2153594 36.8818794,34.7690694 L36.8818794,34.7690694 C38.0209194,33.3815994 38.7498293,31.7225995 38.2848893,29.9554495 L38.2848893,29.9554495 C37.6815594,27.6630895 35.6428794,26.2092596 37.1508894,23.7029096 L37.1508894,23.7029096 C38.9480693,20.7162896 43.2578993,18.1647897 42.7963193,14.2264498 L42.7963193,14.2264498 C42.4825793,11.5489498 40.4567093,11.4229498 39.1914593,9.60476984 L39.1914593,9.60476984 C37.7607294,7.54844987 39.9800093,4.26467993 38.2680893,2.13611996 L38.2680893,2.13611996 C37.1090994,0.694889988 35.8436394,0.130409998 34.5746094,0.130409998 L34.5746094,0.130409998 C32.5930494,0.130409998 30.6026695,1.50695997 28.9959595,3.07334995" id="path-17"></path> <path d="M28.9959595,3.07334995 C27.6530095,4.38248993 26.1206396,4.29533993 24.5792396,4.01057993 L24.5792396,4.01057993 C22.2026696,3.57125994 19.8042597,2.66237995 18.0448797,5.6781899 L18.0448797,5.6781899 C16.0857897,9.03797985 16.9207497,12.9748498 13.4175298,15.5187897 L13.4175298,15.5187897 C11.9458498,16.5872697 10.0988998,17.2922397 9.30761984,19.0427997 L9.30761984,19.0427997 C8.89139985,19.9634397 8.73977985,20.9808896 8.65871985,21.9878396 L8.65871985,21.9878396 C8.54342985,23.4139496 8.52914985,24.8933996 8.68727985,26.3174096 L8.68727985,26.3174096 C8.85863985,27.8623795 9.56885984,29.5264195 9.10139985,31.0766395 L9.10139985,31.0766395 C8.67299985,32.4962394 7.33613988,33.4105794 6.1063799,34.2394494 L6.1063799,34.2394494 C3.50762994,35.9910594 1.95740997,39.1727693 2.64641995,42.2986193 L2.64641995,42.2986193 C3.08531995,44.2892092 4.82768992,46.7000092 3.86714993,48.7584292 L3.86714993,48.7584292 C3.33521994,49.8985192 2.07395996,50.4940791 1.27217998,51.4628091 L1.27217998,51.4628091 C-1.30619998,54.5783691 0.716939988,59.248139 2.04287997,62.4300589 L2.04287997,62.4300589 C3.65525994,66.2988889 5.6884799,69.9717888 7.56062987,73.7165087 L7.56062987,73.7165087 C6.53078989,71.6564088 10.5331798,69.3422088 11.6423998,68.1907788 L11.6423998,68.1907788 C14.2382098,65.4960589 17.0335197,63.6383989 20.1812097,61.7036689 L20.1812097,61.7036689 C21.5648996,60.853169 22.8704696,59.522399 22.8681596,57.898259 L22.8681596,57.898259 C22.8662696,56.871989 22.3349696,55.883729 22.4372396,54.8627091 L22.4372396,54.8627091 C22.7261996,51.9773091 26.3041796,51.2120691 28.3812895,50.0196891 L28.3812895,50.0196891 C31.4113795,48.2802592 31.3202395,45.5376592 31.2456895,42.4653593 L31.2456895,42.4653593 C31.1562295,38.7842693 34.8734394,37.2153594 36.8818794,34.7690694 L36.8818794,34.7690694 C38.0209194,33.3815994 38.7498293,31.7225995 38.2848893,29.9554495 L38.2848893,29.9554495 C37.6815594,27.6630895 35.6428794,26.2092596 37.1508894,23.7029096 L37.1508894,23.7029096 C38.9480693,20.7162896 43.2578993,18.1647897 42.7963193,14.2264498 L42.7963193,14.2264498 C42.4825793,11.5489498 40.4567093,11.4229498 39.1914593,9.60476984 L39.1914593,9.60476984 C37.7607294,7.54844987 39.9800093,4.26467993 38.2680893,2.13611996 L38.2680893,2.13611996 C37.1090994,0.694889988 35.8436394,0.130409998 34.5746094,0.130409998 L34.5746094,0.130409998 C32.5930494,0.130409998 30.6026695,1.50695997 28.9959595,3.07334995" id="path-19"></path> <path d="M28.9959595,3.07334995 C27.6530095,4.38248993 26.1206396,4.29533993 24.5792396,4.01057993 L24.5792396,4.01057993 C22.2026696,3.57125994 19.8042597,2.66237995 18.0448797,5.6781899 L18.0448797,5.6781899 C16.0857897,9.03797985 16.9207497,12.9748498 13.4175298,15.5187897 L13.4175298,15.5187897 C11.9458498,16.5872697 10.0988998,17.2922397 9.30761984,19.0427997 L9.30761984,19.0427997 C8.89139985,19.9634397 8.73977985,20.9808896 8.65871985,21.9878396 L8.65871985,21.9878396 C8.54342985,23.4139496 8.52914985,24.8933996 8.68727985,26.3174096 L8.68727985,26.3174096 C8.85863985,27.8623795 9.56885984,29.5264195 9.10139985,31.0766395 L9.10139985,31.0766395 C8.67299985,32.4962394 7.33613988,33.4105794 6.1063799,34.2394494 L6.1063799,34.2394494 C3.50762994,35.9910594 1.95740997,39.1727693 2.64641995,42.2986193 L2.64641995,42.2986193 C3.08531995,44.2892092 4.82768992,46.7000092 3.86714993,48.7584292 L3.86714993,48.7584292 C3.33521994,49.8985192 2.07395996,50.4940791 1.27217998,51.4628091 L1.27217998,51.4628091 C-1.30619998,54.5783691 0.716939988,59.248139 2.04287997,62.4300589 L2.04287997,62.4300589 C3.65525994,66.2988889 5.6884799,69.9717888 7.56062987,73.7165087 L7.56062987,73.7165087 C6.53078989,71.6564088 10.5331798,69.3422088 11.6423998,68.1907788 L11.6423998,68.1907788 C14.2382098,65.4960589 17.0335197,63.6383989 20.1812097,61.7036689 L20.1812097,61.7036689 C21.5648996,60.853169 22.8704696,59.522399 22.8681596,57.898259 L22.8681596,57.898259 C22.8662696,56.871989 22.3349696,55.883729 22.4372396,54.8627091 L22.4372396,54.8627091 C22.7261996,51.9773091 26.3041796,51.2120691 28.3812895,50.0196891 L28.3812895,50.0196891 C31.4113795,48.2802592 31.3202395,45.5376592 31.2456895,42.4653593 L31.2456895,42.4653593 C31.1562295,38.7842693 34.8734394,37.2153594 36.8818794,34.7690694 L36.8818794,34.7690694 C38.0209194,33.3815994 38.7498293,31.7225995 38.2848893,29.9554495 L38.2848893,29.9554495 C37.6815594,27.6630895 35.6428794,26.2092596 37.1508894,23.7029096 L37.1508894,23.7029096 C38.9480693,20.7162896 43.2578993,18.1647897 42.7963193,14.2264498 L42.7963193,14.2264498 C42.4825793,11.5489498 40.4567093,11.4229498 39.1914593,9.60476984 L39.1914593,9.60476984 C37.7607294,7.54844987 39.9800093,4.26467993 38.2680893,2.13611996 L38.2680893,2.13611996 C37.1090994,0.694889988 35.8436394,0.130409998 34.5746094,0.130409998 L34.5746094,0.130409998 C32.5930494,0.130409998 30.6026695,1.50695997 28.9959595,3.07334995" id="path-21"></path> <path d="M28.9959595,3.07334995 C27.6530095,4.38248993 26.1206396,4.29533993 24.5792396,4.01057993 L24.5792396,4.01057993 C22.2026696,3.57125994 19.8042597,2.66237995 18.0448797,5.6781899 L18.0448797,5.6781899 C16.0857897,9.03797985 16.9207497,12.9748498 13.4175298,15.5187897 L13.4175298,15.5187897 C11.9458498,16.5872697 10.0988998,17.2922397 9.30761984,19.0427997 L9.30761984,19.0427997 C8.89139985,19.9634397 8.73977985,20.9808896 8.65871985,21.9878396 L8.65871985,21.9878396 C8.54342985,23.4139496 8.52914985,24.8933996 8.68727985,26.3174096 L8.68727985,26.3174096 C8.85863985,27.8623795 9.56885984,29.5264195 9.10139985,31.0766395 L9.10139985,31.0766395 C8.67299985,32.4962394 7.33613988,33.4105794 6.1063799,34.2394494 L6.1063799,34.2394494 C3.50762994,35.9910594 1.95740997,39.1727693 2.64641995,42.2986193 L2.64641995,42.2986193 C3.08531995,44.2892092 4.82768992,46.7000092 3.86714993,48.7584292 L3.86714993,48.7584292 C3.33521994,49.8985192 2.07395996,50.4940791 1.27217998,51.4628091 L1.27217998,51.4628091 C-1.30619998,54.5783691 0.716939988,59.248139 2.04287997,62.4300589 L2.04287997,62.4300589 C3.65525994,66.2988889 5.6884799,69.9717888 7.56062987,73.7165087 L7.56062987,73.7165087 C6.53078989,71.6564088 10.5331798,69.3422088 11.6423998,68.1907788 L11.6423998,68.1907788 C14.2382098,65.4960589 17.0335197,63.6383989 20.1812097,61.7036689 L20.1812097,61.7036689 C21.5648996,60.853169 22.8704696,59.522399 22.8681596,57.898259 L22.8681596,57.898259 C22.8662696,56.871989 22.3349696,55.883729 22.4372396,54.8627091 L22.4372396,54.8627091 C22.7261996,51.9773091 26.3041796,51.2120691 28.3812895,50.0196891 L28.3812895,50.0196891 C31.4113795,48.2802592 31.3202395,45.5376592 31.2456895,42.4653593 L31.2456895,42.4653593 C31.1562295,38.7842693 34.8734394,37.2153594 36.8818794,34.7690694 L36.8818794,34.7690694 C38.0209194,33.3815994 38.7498293,31.7225995 38.2848893,29.9554495 L38.2848893,29.9554495 C37.6815594,27.6630895 35.6428794,26.2092596 37.1508894,23.7029096 L37.1508894,23.7029096 C38.9480693,20.7162896 43.2578993,18.1647897 42.7963193,14.2264498 L42.7963193,14.2264498 C42.4825793,11.5489498 40.4567093,11.4229498 39.1914593,9.60476984 L39.1914593,9.60476984 C37.7607294,7.54844987 39.9800093,4.26467993 38.2680893,2.13611996 L38.2680893,2.13611996 C37.1090994,0.694889988 35.8436394,0.130409998 34.5746094,0.130409998 L34.5746094,0.130409998 C32.5930494,0.130409998 30.6026695,1.50695997 28.9959595,3.07334995" id="path-23"></path> <path d="M28.9959595,3.07334995 C27.6530095,4.38248993 26.1206396,4.29533993 24.5792396,4.01057993 L24.5792396,4.01057993 C22.2026696,3.57125994 19.8042597,2.66237995 18.0448797,5.6781899 L18.0448797,5.6781899 C16.0857897,9.03797985 16.9207497,12.9748498 13.4175298,15.5187897 L13.4175298,15.5187897 C11.9458498,16.5872697 10.0988998,17.2922397 9.30761984,19.0427997 L9.30761984,19.0427997 C8.89139985,19.9634397 8.73977985,20.9808896 8.65871985,21.9878396 L8.65871985,21.9878396 C8.54342985,23.4139496 8.52914985,24.8933996 8.68727985,26.3174096 L8.68727985,26.3174096 C8.85863985,27.8623795 9.56885984,29.5264195 9.10139985,31.0766395 L9.10139985,31.0766395 C8.67299985,32.4962394 7.33613988,33.4105794 6.1063799,34.2394494 L6.1063799,34.2394494 C3.50762994,35.9910594 1.95740997,39.1727693 2.64641995,42.2986193 L2.64641995,42.2986193 C3.08531995,44.2892092 4.82768992,46.7000092 3.86714993,48.7584292 L3.86714993,48.7584292 C3.33521994,49.8985192 2.07395996,50.4940791 1.27217998,51.4628091 L1.27217998,51.4628091 C-1.30619998,54.5783691 0.716939988,59.248139 2.04287997,62.4300589 L2.04287997,62.4300589 C3.65525994,66.2988889 5.6884799,69.9717888 7.56062987,73.7165087 L7.56062987,73.7165087 C6.53078989,71.6564088 10.5331798,69.3422088 11.6423998,68.1907788 L11.6423998,68.1907788 C14.2382098,65.4960589 17.0335197,63.6383989 20.1812097,61.7036689 L20.1812097,61.7036689 C21.5648996,60.853169 22.8704696,59.522399 22.8681596,57.898259 L22.8681596,57.898259 C22.8662696,56.871989 22.3349696,55.883729 22.4372396,54.8627091 L22.4372396,54.8627091 C22.7261996,51.9773091 26.3041796,51.2120691 28.3812895,50.0196891 L28.3812895,50.0196891 C31.4113795,48.2802592 31.3202395,45.5376592 31.2456895,42.4653593 L31.2456895,42.4653593 C31.1562295,38.7842693 34.8734394,37.2153594 36.8818794,34.7690694 L36.8818794,34.7690694 C38.0209194,33.3815994 38.7498293,31.7225995 38.2848893,29.9554495 L38.2848893,29.9554495 C37.6815594,27.6630895 35.6428794,26.2092596 37.1508894,23.7029096 L37.1508894,23.7029096 C38.9480693,20.7162896 43.2578993,18.1647897 42.7963193,14.2264498 L42.7963193,14.2264498 C42.4825793,11.5489498 40.4567093,11.4229498 39.1914593,9.60476984 L39.1914593,9.60476984 C37.7607294,7.54844987 39.9800093,4.26467993 38.2680893,2.13611996 L38.2680893,2.13611996 C37.1090994,0.694889988 35.8436394,0.130409998 34.5746094,0.130409998 L34.5746094,0.130409998 C32.5930494,0.130409998 30.6026695,1.50695997 28.9959595,3.07334995" id="path-25"></path> <path d="M28.9959595,3.07334995 C27.6530095,4.38248993 26.1206396,4.29533993 24.5792396,4.01057993 L24.5792396,4.01057993 C22.2026696,3.57125994 19.8042597,2.66237995 18.0448797,5.6781899 L18.0448797,5.6781899 C16.0857897,9.03797985 16.9207497,12.9748498 13.4175298,15.5187897 L13.4175298,15.5187897 C11.9458498,16.5872697 10.0988998,17.2922397 9.30761984,19.0427997 L9.30761984,19.0427997 C8.89139985,19.9634397 8.73977985,20.9808896 8.65871985,21.9878396 L8.65871985,21.9878396 C8.54342985,23.4139496 8.52914985,24.8933996 8.68727985,26.3174096 L8.68727985,26.3174096 C8.85863985,27.8623795 9.56885984,29.5264195 9.10139985,31.0766395 L9.10139985,31.0766395 C8.67299985,32.4962394 7.33613988,33.4105794 6.1063799,34.2394494 L6.1063799,34.2394494 C3.50762994,35.9910594 1.95740997,39.1727693 2.64641995,42.2986193 L2.64641995,42.2986193 C3.08531995,44.2892092 4.82768992,46.7000092 3.86714993,48.7584292 L3.86714993,48.7584292 C3.33521994,49.8985192 2.07395996,50.4940791 1.27217998,51.4628091 L1.27217998,51.4628091 C-1.30619998,54.5783691 0.716939988,59.248139 2.04287997,62.4300589 L2.04287997,62.4300589 C3.65525994,66.2988889 5.6884799,69.9717888 7.56062987,73.7165087 L7.56062987,73.7165087 C6.53078989,71.6564088 10.5331798,69.3422088 11.6423998,68.1907788 L11.6423998,68.1907788 C14.2382098,65.4960589 17.0335197,63.6383989 20.1812097,61.7036689 L20.1812097,61.7036689 C21.5648996,60.853169 22.8704696,59.522399 22.8681596,57.898259 L22.8681596,57.898259 C22.8662696,56.871989 22.3349696,55.883729 22.4372396,54.8627091 L22.4372396,54.8627091 C22.7261996,51.9773091 26.3041796,51.2120691 28.3812895,50.0196891 L28.3812895,50.0196891 C31.4113795,48.2802592 31.3202395,45.5376592 31.2456895,42.4653593 L31.2456895,42.4653593 C31.1562295,38.7842693 34.8734394,37.2153594 36.8818794,34.7690694 L36.8818794,34.7690694 C38.0209194,33.3815994 38.7498293,31.7225995 38.2848893,29.9554495 L38.2848893,29.9554495 C37.6815594,27.6630895 35.6428794,26.2092596 37.1508894,23.7029096 L37.1508894,23.7029096 C38.9480693,20.7162896 43.2578993,18.1647897 42.7963193,14.2264498 L42.7963193,14.2264498 C42.4825793,11.5489498 40.4567093,11.4229498 39.1914593,9.60476984 L39.1914593,9.60476984 C37.7607294,7.54844987 39.9800093,4.26467993 38.2680893,2.13611996 L38.2680893,2.13611996 C37.1090994,0.694889988 35.8436394,0.130409998 34.5746094,0.130409998 L34.5746094,0.130409998 C32.5930494,0.130409998 30.6026695,1.50695997 28.9959595,3.07334995" id="path-27"></path> <path d="M28.9959595,3.07334995 C27.6530095,4.38248993 26.1206396,4.29533993 24.5792396,4.01057993 L24.5792396,4.01057993 C22.2026696,3.57125994 19.8042597,2.66237995 18.0448797,5.6781899 L18.0448797,5.6781899 C16.0857897,9.03797985 16.9207497,12.9748498 13.4175298,15.5187897 L13.4175298,15.5187897 C11.9458498,16.5872697 10.0988998,17.2922397 9.30761984,19.0427997 L9.30761984,19.0427997 C8.89139985,19.9634397 8.73977985,20.9808896 8.65871985,21.9878396 L8.65871985,21.9878396 C8.54342985,23.4139496 8.52914985,24.8933996 8.68727985,26.3174096 L8.68727985,26.3174096 C8.85863985,27.8623795 9.56885984,29.5264195 9.10139985,31.0766395 L9.10139985,31.0766395 C8.67299985,32.4962394 7.33613988,33.4105794 6.1063799,34.2394494 L6.1063799,34.2394494 C3.50762994,35.9910594 1.95740997,39.1727693 2.64641995,42.2986193 L2.64641995,42.2986193 C3.08531995,44.2892092 4.82768992,46.7000092 3.86714993,48.7584292 L3.86714993,48.7584292 C3.33521994,49.8985192 2.07395996,50.4940791 1.27217998,51.4628091 L1.27217998,51.4628091 C-1.30619998,54.5783691 0.716939988,59.248139 2.04287997,62.4300589 L2.04287997,62.4300589 C3.65525994,66.2988889 5.6884799,69.9717888 7.56062987,73.7165087 L7.56062987,73.7165087 C6.53078989,71.6564088 10.5331798,69.3422088 11.6423998,68.1907788 L11.6423998,68.1907788 C14.2382098,65.4960589 17.0335197,63.6383989 20.1812097,61.7036689 L20.1812097,61.7036689 C21.5648996,60.853169 22.8704696,59.522399 22.8681596,57.898259 L22.8681596,57.898259 C22.8662696,56.871989 22.3349696,55.883729 22.4372396,54.8627091 L22.4372396,54.8627091 C22.7261996,51.9773091 26.3041796,51.2120691 28.3812895,50.0196891 L28.3812895,50.0196891 C31.4113795,48.2802592 31.3202395,45.5376592 31.2456895,42.4653593 L31.2456895,42.4653593 C31.1562295,38.7842693 34.8734394,37.2153594 36.8818794,34.7690694 L36.8818794,34.7690694 C38.0209194,33.3815994 38.7498293,31.7225995 38.2848893,29.9554495 L38.2848893,29.9554495 C37.6815594,27.6630895 35.6428794,26.2092596 37.1508894,23.7029096 L37.1508894,23.7029096 C38.9480693,20.7162896 43.2578993,18.1647897 42.7963193,14.2264498 L42.7963193,14.2264498 C42.4825793,11.5489498 40.4567093,11.4229498 39.1914593,9.60476984 L39.1914593,9.60476984 C37.7607294,7.54844987 39.9800093,4.26467993 38.2680893,2.13611996 L38.2680893,2.13611996 C37.1090994,0.694889988 35.8436394,0.130409998 34.5746094,0.130409998 L34.5746094,0.130409998 C32.5930494,0.130409998 30.6026695,1.50695997 28.9959595,3.07334995" id="path-29"></path> <polygon id="path-31" points="0 406.559993 574.17086 406.559993 574.17086 0.0638399989 0 0.0638399989"></polygon> </defs> <g id="Page-1" stroke="none" stroke-width="1" fill="none" fill-rule="evenodd"> <g id="masha-copy" transform="translate(-623.000000, -5784.000000)"> <g id="Group-18-Copy-2" transform="translate(206.000000, 5784.000000)"> <g id="Group-19" transform="translate(417.000000, 0.000000)"> <path d="M169.519576,148.34924 C162.774776,157.939641 157.570376,170.987241 161.181576,183.030841 C164.781976,195.037641 176.295576,202.441241 181.327576,213.845241 C184.171576,220.291241 184.247576,227.378442 184.355176,234.297642 C184.495976,243.354842 182.726776,252.973242 188.847977,260.627642 C192.468777,265.155242 197.932777,267.830442 203.457577,269.587642 C214.553177,273.117242 226.177977,274.774042 236.033577,281.440442 C252.225177,292.392043 272.109978,296.220843 291.405578,295.038043 C301.191578,294.438043 310.895578,292.595643 320.268779,289.735243 C331.159179,286.411242 340.838779,280.527642 351.804379,277.375642 C370.808379,271.913242 396.79478,271.838442 407.91558,252.610442 C415.40318,239.665242 417.99678,223.664842 412.17238,209.560041 C409.40278,202.853641 404.11678,197.731641 401.10558,191.147241 C396.94598,182.050441 395.82398,171.678041 398.60318,162.014041 C398.71878,161.616841 398.83918,161.220841 398.96478,160.826841 C401.86838,151.79164 407.71358,144.02284 410.13078,134.82564 C415.12158,115.83764 404.09358,95.7608396 389.59718,83.5560394 C383.573179,78.4844394 376.842779,74.2632393 369.512379,71.8572393 C349.293979,65.2204392 326.828779,72.9012393 306.549178,66.4816392 C290.991578,61.5568391 278.218778,48.7556389 262.366778,45.0540389 C250.185177,42.2092388 237.021177,45.2456389 226.672777,52.680839 C216.324777,60.1160391 208.815577,71.7520393 205.392377,84.5668395 C202.220777,96.4408396 202.320377,109.48364 196.695177,120.27004 C191.882377,129.49844 182.963176,134.47764 175.721576,141.17284 C173.467576,143.25644 171.385976,145.69524 169.519576,148.34924" id="Fill-1" fill="#EAF1F8"></path> <g id="Group-238"> <polygon id="Fill-1" fill="#DB4E43" points="118.337098 302.301925 457.073812 302.301925 457.073812 277.310245 118.337098 277.310245"></polygon> <g id="Group-167" transform="translate(88.829998, 0.147000)"> <path d="M362.547606,334.752783 L364.398336,379.449603 C364.398336,380.049783 364.885116,380.536143 365.484876,380.536143 L377.437446,380.536143 C378.037626,380.536143 378.524196,380.049783 378.524196,379.449603 L384.279245,334.752783 L362.547606,334.752783 Z" id="Fill-2" fill="#D09578"></path> <polygon id="Fill-4" fill="#E3C5B8" points="383.328785 339.099111 384.279455 334.752741 362.547816 334.752741 363.498486 339.099111"></polygon> <path d="M386.995805,209.794679 L359.831256,209.794679 C356.234586,209.794679 353.311596,212.717249 353.311596,216.314129 L353.311596,330.406287 C353.311596,334.002957 356.234586,336.925947 359.831256,336.925947 L386.995805,336.925947 C390.592475,336.925947 393.515465,334.002957 393.515465,330.406287 L393.515465,216.314129 C393.515465,212.717249 390.592475,209.794679 386.995805,209.794679" id="Fill-6" fill="#FF8170"></path> <path d="M386.995805,214.141007 L359.831256,214.141007 C356.230596,214.141007 353.311596,217.059797 353.311596,220.660667 L353.311596,330.406455 C353.311596,334.007115 356.230596,336.925905 359.831256,336.925905 L386.995805,336.925905 C390.596465,336.925905 393.515465,334.007115 393.515465,330.406455 L393.515465,220.660667 C393.515465,217.059797 390.596465,214.141007 386.995805,214.141007" id="Fill-8" fill="#F46255"></path> <path d="M393.515444,330.40635 L393.515444,302.155051 C389.975684,324.56583 381.101925,327.81621 373.413615,329.35572 C367.215045,330.59682 357.715275,330.31836 353.311575,327.81579 L353.311575,330.40635 C353.311575,334.00701 356.230785,336.92601 359.831235,336.92601 L386.995784,336.92601 C390.596444,336.92601 393.515444,334.00701 393.515444,330.40635" id="Fill-10" fill="#EB4F44"></path> <path d="M9.40491284,334.752783 L11.2556428,379.449603 C11.2556428,380.049783 11.7424228,380.536143 12.3423928,380.536143 L24.2949626,380.536143 C24.8949326,380.536143 25.3815026,380.049783 25.3815026,379.449603 L31.1367625,334.752783 L9.40491284,334.752783 Z" id="Fill-12" fill="#D09578"></path> <polygon id="Fill-14" fill="#E3C5B8" points="30.1863025 339.099111 31.1369725 334.752741 9.40512284 334.752741 10.3557928 339.099111"></polygon> <path d="M33.8533014,209.794679 L6.68854189,209.794679 C3.09187195,209.794679 0.168881997,212.717249 0.168881997,216.314129 L0.168881997,330.406287 C0.168881997,334.002957 3.09187195,336.925947 6.68854189,336.925947 L33.8533014,336.925947 C37.4499714,336.925947 40.3727513,334.002957 40.3727513,330.406287 L40.3727513,216.314129 C40.3727513,212.717249 37.4499714,209.794679 33.8533014,209.794679" id="Fill-16" fill="#FF8170"></path> <path d="M33.8533014,214.141007 L6.68854189,214.141007 C3.08788195,214.141007 0.168881997,217.059797 0.168881997,220.660667 L0.168881997,330.406455 C0.168881997,334.007115 3.08788195,336.925905 6.68854189,336.925905 L33.8533014,336.925905 C37.4539614,336.925905 40.3727513,334.007115 40.3727513,330.406455 L40.3727513,220.660667 C40.3727513,217.059797 37.4539614,214.141007 33.8533014,214.141007" id="Fill-18" fill="#F46255"></path> <path d="M40.3729403,321.212719 C34.6521204,329.492808 26.2405706,331.276968 20.8057706,331.528758 C11.0267008,331.981518 4.57277092,329.775468 0.169280997,327.272898 L0.169280997,330.406308 C0.169280997,334.007178 3.08828095,336.925968 6.68873089,336.925968 L33.8534904,336.925968 C34.3035204,336.925968 34.7426304,336.880188 35.1672504,336.793458 C35.5914504,336.706518 36.0009504,336.578418 36.3907104,336.413778 C37.1706504,336.083658 37.8737304,335.606538 38.4629903,335.016438 C38.7582503,334.721808 39.0253703,334.398408 39.2595203,334.051698 C39.9626003,333.010938 40.3729403,331.756608 40.3729403,330.406308 L40.3729403,321.212719 Z" id="Fill-20" fill="#EB4F44"></path> <path d="M346.791873,140.252803 L203.361876,140.252803 C199.761216,140.252803 196.842216,143.171593 196.842216,146.772253 L196.842216,264.124241 L353.311533,264.124241 L353.311533,146.772253 C353.311533,143.171593 350.392533,140.252803 346.791873,140.252803" id="Fill-22" fill="#FF8170"></path> <path d="M346.791873,144.599215 L203.361876,144.599215 C199.761216,144.599215 196.842216,147.518004 196.842216,151.118664 L196.842216,259.777913 L353.311533,259.777913 L353.311533,151.118664 C353.311533,147.518004 350.392533,144.599215 346.791873,144.599215" id="Fill-24" fill="#F46255"></path> <path d="M196.842216,207.259202 L196.842216,257.975042 L353.311533,257.975042 L353.311533,196.614723 C338.498553,214.461362 310.382914,223.920392 274.391014,224.494322 C246.186965,224.943932 211.231415,219.574022 196.842216,207.259202" id="Fill-26" fill="#EE5448"></path> <path d="M335.92599,234.786338 L214.227632,234.786338 C204.626013,234.786338 196.842153,242.569988 196.842153,252.171818 L196.842153,281.509867 C196.842153,285.110527 199.761363,288.029317 203.361813,288.029317 L346.79181,288.029317 C350.39268,288.029317 353.31147,285.110527 353.31147,281.509867 L353.31147,252.171818 C353.31147,242.569988 345.52782,234.786338 335.92599,234.786338" id="Fill-28" fill="#FF7869"></path> <path d="M346.791873,245.652179 L203.361876,245.652179 C199.761216,245.652179 196.842216,248.570969 196.842216,252.171839 L196.842216,281.509678 C196.842216,285.110548 199.761216,288.029338 203.361876,288.029338 L346.791873,288.029338 C350.392533,288.029338 353.311533,285.110548 353.311533,281.509678 L353.311533,252.171839 C353.311533,248.570969 350.392533,245.652179 346.791873,245.652179" id="Fill-30" fill="#F46255"></path> <path d="M353.311911,281.509783 L353.311911,272.360503 C342.165741,284.805313 327.496611,284.377123 292.906672,284.377123 C241.022393,284.377123 205.934753,284.497873 196.842594,280.487083 L196.842594,281.509783 C196.842594,285.110443 199.761384,288.029233 203.362254,288.029233 L346.792461,288.029233 C350.392701,288.029233 353.311911,285.110443 353.311911,281.509783" id="Fill-32" fill="#EB4F44"></path> <path d="M190.322787,140.252803 L46.8925792,140.252803 C43.2921293,140.252803 40.3729193,143.171593 40.3729193,146.772253 L40.3729193,264.124241 L196.842237,264.124241 L196.842237,146.772253 C196.842237,143.171593 193.923447,140.252803 190.322787,140.252803" id="Fill-34" fill="#FF8170"></path> <path d="M190.322787,144.599215 L46.8925792,144.599215 C43.2921293,144.599215 40.3729193,147.518004 40.3729193,151.118664 L40.3729193,259.777913 L196.842237,259.777913 L196.842237,151.118664 C196.842237,147.518004 193.923447,144.599215 190.322787,144.599215" id="Fill-36" fill="#F46255"></path> <path d="M40.3729403,207.259202 L40.3729403,257.975042 L196.842258,257.975042 L196.842258,196.614723 C184.609968,214.141112 151.740348,224.494322 115.339789,224.494322 C87.1321695,224.494322 54.7621401,219.574022 40.3729403,207.259202" id="Fill-38" fill="#EE5448"></path> <path d="M179.456715,234.786338 L57.758357,234.786338 C48.1567372,234.786338 40.3728773,242.569988 40.3728773,252.171818 L40.3728773,281.509867 C40.3728773,285.110527 43.2920873,288.029317 46.8925372,288.029317 L190.322745,288.029317 C193.923615,288.029317 196.842195,285.110527 196.842195,281.509867 L196.842195,252.171818 C196.842195,242.569988 189.058545,234.786338 179.456715,234.786338" id="Fill-40" fill="#FF7869"></path> <path d="M190.322787,245.652179 L46.8925792,245.652179 C43.2921293,245.652179 40.3729193,248.570969 40.3729193,252.171839 L40.3729193,281.509678 C40.3729193,285.110548 43.2921293,288.029338 46.8925792,288.029338 L190.322787,288.029338 C193.923447,288.029338 196.842237,285.110548 196.842237,281.509678 L196.842237,252.171839 C196.842237,248.570969 193.923447,245.652179 190.322787,245.652179" id="Fill-42" fill="#F46255"></path> <path d="M196.842615,281.509783 L196.842615,272.360503 C185.696445,284.805313 171.027315,284.377123 136.437376,284.377123 C84.5530966,284.377123 49.4656672,284.497873 40.3735073,280.487083 L40.3735073,281.509783 C40.3735073,285.110443 43.2920873,288.029233 46.8929572,288.029233 L190.323165,288.029233 C193.923615,288.029233 196.842615,285.110443 196.842615,281.509783" id="Fill-44" fill="#EB4F44"></path> <path d="M346.791873,288.029317 L46.8925582,288.029317 C43.3068083,288.029317 40.3728983,290.963017 40.3728983,294.548767 L40.3728983,330.406266 C40.3728983,333.992226 43.3068083,336.925926 46.8925582,336.925926 L346.791873,336.925926 C350.377623,336.925926 353.311533,333.992226 353.311533,330.406266 L353.311533,294.548767 C353.311533,290.963017 350.377623,288.029317 346.791873,288.029317" id="Fill-46" fill="#F46255"></path> <path d="M353.290806,330.610008 L353.290806,316.910449 C342.144846,329.355678 240.196568,331.100568 203.080119,331.100568 C166.319619,331.100568 53.8196811,329.392218 40.3937513,326.474478 C40.3969013,326.523618 40.3794713,326.574858 40.3729613,326.625048 L40.3729613,330.406308 C40.3729613,333.992058 43.3066613,336.925968 46.8926212,336.925968 L346.791936,336.925968 C350.307546,336.925968 353.180136,334.100418 353.290806,330.610008" id="Fill-48" fill="#EB4F44"></path> <path d="M229.033724,7.32526188 C231.845834,6.0543419 234.430934,4.28047193 237.591224,4.48396192 C240.751304,4.68724192 243.796934,5.8288019 246.698924,7.12765188 C252.034394,9.51535184 257.256044,12.6212518 260.672744,17.2175217 C265.834963,24.1618016 265.998973,33.4830714 263.230544,41.3066213 C258.028424,56.007041 257.685494,90.1797105 250.145024,90.8914005 C242.604764,91.6033004 204.624795,76.5366407 199.339725,70.0585608 C192.027525,61.095971 218.053874,30.2866615 219.945764,19.3689717 C219.945764,19.3689717 224.597894,9.33013184 229.033724,7.32526188" id="Fill-50" fill="#A3262A"></path> <path d="M222.93041,39.8284943 C222.93041,39.8284943 220.82537,37.4372244 220.6412,36.2918844 C220.52612,35.5774644 220.27034,31.7745745 221.00408,29.6290045 C221.73803,27.4832245 224.95292,29.8732345 225.85172,31.2869545 L222.93041,39.8284943 Z" id="Fill-52" fill="#F29879"></path> <path d="M222.155006,35.6410104 C222.174116,35.6475204 222.195326,35.6496204 222.215906,35.6456304 C222.271556,35.6349204 222.302426,35.5851504 222.284996,35.5347504 C221.761256,34.0097304 221.729546,32.3669004 222.195536,30.9088705 C222.269876,30.6766105 222.367526,30.4475005 222.577106,30.3439705 C222.850316,30.2091505 223.231256,30.3380905 223.466036,30.5354905 C223.732106,30.7585105 223.892126,31.0772905 224.033246,31.3582705 C224.057816,31.4072005 224.120396,31.4324005 224.173106,31.4151805 C224.225816,31.3979605 224.248916,31.3446205 224.224346,31.2959005 C224.074406,30.9968605 223.903886,30.6579205 223.603166,30.4052905 C223.308536,30.1583305 222.822176,30.0008305 222.462026,30.1787005 C222.193646,30.3112105 222.077726,30.5762305 221.992466,30.8427205 C221.515766,32.3339304 221.548106,34.0139304 222.084026,35.5736004 C222.094946,35.6053104 222.122246,35.6298804 222.155006,35.6410104" id="Fill-54" fill="#BD6142"></path> <polygon id="Fill-56" fill="#FFA07F" points="230.613029 84.1070146 213.619409 78.2948447 224.341799 46.9458352 241.335419 52.7582151"></polygon> <path d="M241.398293,52.5742131 L224.404673,46.7620432 L220.514213,58.136693 C221.688113,61.9591129 224.000423,65.0083129 227.320943,66.1591129 C230.624873,67.2643429 234.261653,66.2878429 237.483263,64.0200529 L241.398293,52.5742131 Z" id="Fill-58" fill="#FA704E"></path> <path d="M230.313632,14.7592407 C228.698312,16.2378507 227.482412,17.9669907 226.952162,20.0917707 C225.971252,24.0236006 224.604152,30.1493005 224.009642,31.8868405 C223.415342,33.6243804 221.706152,37.0268004 219.282752,40.7551403 C218.639312,41.7448703 217.755422,42.6367403 217.562642,43.8014003 C217.411652,44.7159502 217.640552,45.6458302 217.867982,46.5444202 C217.958492,46.9022602 218.049212,47.2603102 218.139722,47.6183602 C219.021722,50.3107701 219.918212,53.0426601 221.485022,55.4039001 C223.044062,57.7538 225.376322,59.73221 228.152312,60.22949 C230.704022,60.68666 243.998072,58.26263 247.284152,53.8398201 C250.764902,49.1543002 252.135152,45.8148802 253.722122,41.1749303 C255.309092,36.5349804 258.589922,26.2682906 256.888922,22.7988806 C255.187922,19.3296807 235.063202,10.4122408 230.313632,14.7592407" id="Fill-60" fill="#FFA07F"></path> <path d="M249.460739,49.8856462 C249.460739,49.8856462 253.682999,49.0744162 254.826449,48.0046762 C255.539609,47.3372962 258.955889,43.4913563 259.946459,40.5954563 C260.936609,37.6995564 255.531209,37.5924564 253.403489,38.3576963 L249.460739,49.8856462 Z" id="Fill-62" fill="#FFA07F"></path> <path d="M253.749128,46.0588792 C253.723298,46.0500592 253.699148,46.0345192 253.680458,46.0133092 C253.630058,45.9559792 253.638038,45.8774392 253.698308,45.8379592 C255.517538,44.6436892 256.909418,42.9172793 257.617118,40.9764593 C257.729888,40.6671293 257.815148,40.3418393 257.677178,40.0583393 C257.496998,39.6887393 256.983968,39.5112893 256.570478,39.5276693 C256.101968,39.5459393 255.667898,39.7536293 255.284648,39.9369593 C255.218498,39.9688793 255.130718,39.9438893 255.088718,39.8819393 C255.046718,39.8201993 255.066038,39.7441793 255.132608,39.7122593 C255.540008,39.5175893 256.002008,39.2964593 256.531628,39.2758793 C257.050118,39.2555093 257.699438,39.4896593 257.936318,39.9770693 C258.113348,40.3403693 258.018008,40.7187893 257.888438,41.0738993 C257.164568,43.0586093 255.741188,44.8242892 253.880588,46.0456492 C253.842788,46.0704292 253.793228,46.0739992 253.749128,46.0588792" id="Fill-64" fill="#BD6142"></path> <path d="M244.408643,35.7740034 C243.520133,33.6126834 241.664153,32.3255934 239.682383,31.1976835 C239.357303,31.0147735 239.825183,30.3280735 240.311333,30.1819135 C240.796853,30.0359635 241.396613,30.0338635 241.629713,30.1932535 C243.129113,31.1962135 244.224473,32.6517234 244.816463,34.4247534 C244.907393,34.7030034 244.897313,35.2744134 244.812473,35.6837034 C244.727213,36.0934134 244.555643,36.1265934 244.408643,35.7740034" id="Fill-66" fill="#1A1A1A"></path> <path d="M223.874591,28.4922955 C226.087571,27.7417555 228.277451,28.2948955 230.429741,29.0475355 C230.781281,29.1722755 230.991491,28.3683955 230.782331,27.9059755 C230.572961,27.4439755 230.180471,26.9905855 229.907261,26.9198155 C228.165941,26.4483655 226.348811,26.5791955 224.623451,27.2982355 C224.353811,27.4124755 223.929821,27.7955155 223.677191,28.1285755 C223.424351,28.4620555 223.511921,28.6130455 223.874591,28.4922955" id="Fill-68" fill="#1A1A1A"></path> <path d="M226.889645,36.4389684 L225.928265,36.1103184 C225.634895,36.0099384 225.476975,35.6877984 225.577355,35.3942184 L226.579475,32.4638784 C226.680065,32.1705085 227.002205,32.0125885 227.295575,32.1127585 L228.256745,32.4416184 C228.550115,32.5419984 228.708035,32.8641384 228.607865,33.1575084 L227.605325,36.0880584 C227.505155,36.3814284 227.182805,36.5393484 226.889645,36.4389684" id="Fill-70" fill="#1A1A1A"></path> <path d="M238.618061,40.5927263 L237.656891,40.2638663 C237.363311,40.1636963 237.205391,39.8413463 237.305981,39.5479763 L238.308101,36.6176364 C238.408481,36.3242664 238.730621,36.1661364 239.024201,36.2665164 L239.985371,36.5953764 C240.278741,36.6957564 240.436661,37.0178964 240.336281,37.3112664 L239.333951,40.2418163 C239.233781,40.5351863 238.911431,40.6931063 238.618061,40.5927263" id="Fill-72" fill="#1A1A1A"></path> <path d="M230.94548,44.7489412 C229.96856,44.8148812 228.03929,44.9450812 228.03929,44.9450812 C227.91098,44.9539012 227.78561,44.9362612 227.66906,44.8963612 C227.378,44.7968212 227.14259,44.5584712 227.0567,44.2483012 L226.47416,42.1386413 C226.3427,41.6629913 226.58798,41.1701213 227.04515,40.9920413 C227.65226,40.7555813 228.87047,40.1331413 230.20544,38.6207213 C232.46441,36.0604014 231.7859,32.4647814 231.77876,32.4286614 C231.7439,32.2526815 231.85835,32.0815315 232.03433,32.0464615 C232.2101,32.0113915 232.38146,32.1254215 232.41674,32.3016114 C232.43396,32.3885514 233.22419,33.8121414 233.07278,35.3107014 C232.98269,36.2029914 231.1685,39.3716813 229.24616,41.6146913 C228.42506,42.5727113 229.30265,43.8001613 229.69031,43.9328813 C230.07839,44.0656012 230.94548,44.7489412 230.94548,44.7489412" id="Fill-74" fill="#DB7D63"></path> <path d="M227.669144,44.8962982 C227.785694,44.9361982 227.910854,44.9538382 228.039374,44.9450182 L231.498494,44.7117082 C231.677624,44.6995282 231.813074,44.5443382 231.801104,44.3652082 C231.788924,44.1860782 231.633944,44.0502082 231.454394,44.0625982 L227.995484,44.2961182 C227.852684,44.3055682 227.721854,44.2127482 227.683844,44.0749882 L227.101094,41.9653283 C227.058884,41.8124483 227.136374,41.6545283 227.281064,41.5980383 C227.943404,41.3403683 229.267244,40.6666883 230.692934,39.0511583 C233.169464,36.2449284 232.448534,32.4613584 232.416614,32.3015484 C232.381334,32.1253585 232.210184,32.0115385 232.034204,32.0463985 C231.858224,32.0814685 231.743774,32.2526185 231.778634,32.4285984 C231.785984,32.4647184 232.464494,36.0605484 230.205314,38.6206583 C228.870554,40.1330783 227.652344,40.7555183 227.045024,40.9919783 C226.588064,41.1700583 226.342784,41.6629283 226.474244,42.1385783 L227.056784,44.2482382 C227.142464,44.5584082 227.377874,44.7967582 227.669144,44.8962982" id="Fill-76" fill="#BD6142"></path> <path d="M240.635006,44.3259592 C240.478766,44.7829192 239.036066,44.7031192 237.412346,44.1478792 C235.788836,43.5926393 234.599396,42.7721693 234.755636,42.3149993 C234.911876,41.8582493 236.354786,41.9378393 237.978506,42.4930793 C239.601806,43.0485293 240.791246,43.8689993 240.635006,44.3259592" id="Fill-78" fill="#ED766D"></path> <path d="M226.601105,39.5260103 C226.444865,39.9829703 225.283355,39.9993503 224.006765,39.5627603 C222.730175,39.1261703 221.821925,38.4018803 221.978165,37.9449204 C222.134615,37.4879604 223.296335,37.4713704 224.572715,37.9079604 C225.849305,38.3447603 226.757555,39.0690503 226.601105,39.5260103" id="Fill-80" fill="#ED766D"></path> <path d="M234.16541,48.1571362 L226.31246,45.4712362 C225.45041,45.1763962 224.61587,45.5546062 224.59277,46.2440362 C224.51339,48.6245962 225.23852,51.9600261 228.1424,52.9533261 C231.04628,53.9466261 233.65658,51.7519161 235.05182,49.8211762 C235.45586,49.2621562 235.02746,48.4519762 234.16541,48.1571362" id="Fill-82" fill="#BF3939"></path> <path d="M234.16541,48.1571362 C234.16541,48.1571362 232.96589,50.0347461 229.53848,48.8625262 C226.11107,47.6903062 226.64447,45.5846362 226.64447,45.5846362 L234.16541,48.1571362 Z" id="Fill-84" fill="#FFFFFF"></path> <path d="M225.820367,50.3749461 C225.518597,51.2571561 226.521767,52.3991361 228.060857,52.9256061 C229.600157,53.4518661 231.092417,53.1635361 231.394187,52.2813261 C231.695957,51.3991161 230.692787,50.2571361 229.153697,49.7306662 C227.614397,49.2041962 226.122137,49.4927362 225.820367,50.3749461" id="Fill-86" fill="#E36C6C"></path> <g id="Group-90" transform="translate(213.569996, 0.000000)"> <mask id="mask-2" fill="white"> <use xlink:href="#path-1"></use> </mask> <g id="Clip-89"></g> <path d="M0.466157992,14.9954907 C-0.550661991,20.4363807 0.826517986,26.2745906 4.01998793,30.8200405 C3.75664794,27.6799105 5.51812791,24.4442306 8.19877786,22.7024906 C11.2513378,20.7192506 15.2291577,20.5048407 18.7162077,21.5491706 C21.5117276,22.3862306 24.0684776,23.9681606 26.9299375,24.5399906 C29.4799675,25.0496606 34.8931374,23.2871306 36.8709174,21.0063206 C36.3131574,20.7742706 35.8099974,20.3507007 35.4798774,19.8446007 C34.8103974,18.8168607 34.6615074,17.5484607 34.4760774,16.3357107 C33.9584274,12.9526108 32.9890674,9.56615084 31.0272475,6.76181088 C27.3591775,1.51769097 20.3021277,-0.975848983 14.0678578,0.468950992 C7.83337787,1.91396097 2.69047795,7.05077088 0.896027985,13.1936908 C0.722357988,13.7879908 0.57934799,14.3892208 0.466157992,14.9954907" id="Fill-88" fill="#A3262A" mask="url(#mask-2)"></path> </g> <path d="M220.934381,20.9912636 C219.696221,22.5458936 218.716151,24.6259436 218.310011,26.7874735 C219.039131,25.1408636 220.257551,23.6843036 221.768921,22.7025536 C224.821481,20.7193136 228.799091,20.5049037 232.286351,21.5490236 C235.081451,22.3862936 237.638411,23.9680136 240.499661,24.5400536 C241.368851,24.7137236 242.570261,24.6230036 243.855041,24.3384536 C243.365111,24.1085036 242.892821,23.8420136 242.443841,23.5511636 C236.160221,19.4834637 226.538861,13.9541638 220.934381,20.9912636" id="Fill-91" fill="#7A1C20"></path> <path d="M251.115728,61.8513409 C251.407418,60.995171 251.631488,60.116741 251.786468,59.234741 C252.553178,54.8753511 251.863748,50.3968911 250.954448,46.0650112 C249.650138,39.8504813 247.893068,33.7310814 245.701508,27.7712815 C244.973438,25.7916116 244.186778,23.7730916 244.186568,21.6636416 C244.186358,19.5541917 245.169158,17.2945917 247.097168,16.4392617 C248.358848,15.8796117 250.377158,16.3678617 251.642408,17.3626317 C255.896378,26.5068715 257.647148,36.8012814 256.653848,46.8380212 C256.131788,52.1149011 254.827688,57.405431 252.050018,61.9223209 C251.271338,63.1886209 250.367078,64.3894009 249.354458,65.4879109 C250.090298,64.3669309 250.678928,63.1338109 251.115728,61.8513409" id="Fill-93" fill="#A3262A"></path> <path d="M254.349812,44.7677152 C254.349812,44.7677152 261.723752,29.8593955 262.703192,24.5827256 C263.682842,19.3060557 256.004402,8.42721586 246.076862,5.03172591 C236.149532,1.63644597 228.537242,5.37066591 225.064682,17.1560757 C225.064682,17.1560757 247.237952,9.72018583 251.345972,21.8535656 C255.454202,33.9871554 254.349812,44.7677152 254.349812,44.7677152" id="Fill-95" fill="#A3262A"></path> <path d="M255.290507,17.4625917 C254.982857,18.1345917 254.474657,18.5863017 253.894427,18.8498517 C253.844867,18.7723617 253.795937,18.6948717 253.746167,18.6175917 C253.025027,16.9027317 252.097667,15.2701917 251.160857,13.6573918 C252.988907,13.6111918 254.691797,12.7837918 255.584717,10.9601518 C255.791357,11.1550318 255.993167,11.3528518 256.192457,11.5519318 C255.398447,13.3881718 256.141847,15.6028317 255.290507,17.4625917" id="Fill-97" fill="#B55155"></path> <path d="M219.70166,4.77203992 C223.11395,6.64355989 225.99872,9.89645983 229.21487,12.1806298 C231.81404,13.7969998 234.95543,10.9922398 237.07433,9.04994985 C239.63318,6.53078989 243.82037,9.17510984 245.90525,11.5854898 C246.68015,12.3360298 247.63859,12.9026098 248.65583,13.2530998 C249.63695,15.3178197 250.93265,17.1956397 252.1685,19.1108397 C251.4545,19.0276797 250.8035,18.7187697 250.42403,18.2225397 C247.6934,14.8642197 244.38023,11.7912898 240.25037,11.1060598 C238.14827,10.8721198 236.53778,12.7457398 234.56714,14.2537498 C232.88777,15.6191697 230.42594,15.0194097 228.32951,14.0601298 C224.58437,12.0997798 222.49382,7.73408987 219.41102,5.05196991 C219.50741,4.95830992 219.60317,4.86380992 219.70166,4.77203992" id="Fill-99" fill="#B55155"></path> <path d="M204.501672,71.7178338 C203.320212,75.1721237 208.647281,103.805833 216.676211,106.552003 C224.705141,109.298173 246.611711,90.1432335 247.793381,86.6889435 C248.974841,83.2346536 241.834421,77.8964537 228.648941,73.3867038 C214.787471,68.6457438 205.683131,68.2635438 204.501672,71.7178338" id="Fill-101" fill="#FFA07F"></path> <path d="M133.344496,142.779775 C133.507456,143.671855 135.392836,146.806314 138.043246,146.160985 C141.921106,145.216825 145.014616,143.326615 147.961125,140.634415 C159.000825,130.547695 173.060535,120.317125 184.100235,110.230405 C193.982625,101.201455 204.821775,82.3682356 201.717765,76.0589957 C198.613545,69.7497558 185.671875,78.3419057 180.206835,84.2981356 C174.324105,90.7100655 166.534785,98.8792753 160.598925,105.242485 C154.713885,111.551725 150.990795,115.797715 144.638086,121.635715 C138.325906,127.436965 131.804356,134.362765 133.344496,142.779775" id="Fill-103" fill="#FFA07F"></path> <path d="M192.07824,166.920744 C196.89543,149.824434 200.03472,132.255835 201.43542,114.549055 L254.959799,104.220625 C251.526299,121.647685 242.047319,156.037074 242.068529,173.799084 C242.068529,173.799084 234.519239,177.059124 216.492839,174.578814 C198.46644,172.098504 192.07824,166.920744 192.07824,166.920744" id="Fill-105" fill="#E6E6E6"></path> <path d="M243.863546,128.530435 C235.922396,132.206065 213.808346,129.931135 200.717157,122.588485 C201.084657,119.392075 201.181677,117.756385 201.435357,114.549055 L254.959736,104.220625 C251.526236,121.647685 242.047466,156.037074 242.068466,173.799084 C242.068466,173.799084 240.865796,174.317784 238.277756,174.783984 C237.752546,172.135674 237.189536,169.505424 237.222296,166.849344 C237.217886,153.619134 241.436156,141.197845 243.863546,128.530435" id="Fill-107" fill="#CCCCCC"></path> <path d="M231.6536,128.624053 C241.53032,129.309493 255.98882,108.319153 257.33303,101.377813 C258.54053,95.1424934 259.61384,88.7463135 262.33439,83.0443936 C261.27578,81.5704036 259.61111,79.8169036 258.35888,79.3045036 C256.84163,78.6837437 245.87753,74.2945337 245.87753,74.2945337 C245.87753,74.2945337 226.72658,104.227513 217.71779,102.987883 C208.709,101.748253 212.96465,69.5718438 212.96465,69.5718438 L200.356671,71.1783438 C197.736501,71.5515138 197.059251,72.7342338 195.641751,73.8676037 C196.720941,80.0924236 199.305411,84.0555436 198.784191,90.3851535 C198.203541,97.4314933 193.051611,107.017363 195.587361,113.617243 C198.123111,120.217123 202.839501,124.179193 212.87183,126.039793 C218.95637,127.168123 222.04484,127.957303 231.6536,128.624053" id="Fill-109" fill="#E6E6E6"></path> <path d="M193.450023,155.084976 C209.996552,158.703066 226.801802,161.015586 243.710792,162.000696 C243.825872,160.024176 244.175522,156.344766 244.290602,154.368036 C227.692412,153.400986 211.195652,151.131096 194.952993,147.579366 C194.530263,149.513676 193.872963,153.150876 193.450023,155.084976" id="Fill-111" fill="#AD4537"></path> <path d="M322.319062,145.196308 C322.204822,146.095948 320.493322,149.328687 317.811622,148.828887 C313.888192,148.097457 310.695982,146.378818 307.607092,143.851468 C296.033572,134.381938 281.436892,124.933408 269.863372,115.463878 C259.503443,106.987228 247.652933,88.7732985 250.408343,82.3042486 C253.163753,75.8349887 266.554822,83.7085186 272.336542,89.3579385 C278.560522,95.4393284 286.783702,103.171528 293.057662,109.201468 C299.278072,115.180168 303.227122,119.216788 309.888952,124.699888 C316.508152,130.148128 323.397831,136.708108 322.319062,145.196308" id="Fill-113" fill="#FFA07F"></path> <path d="M177.471753,390.967472 C178.442793,388.694642 184.507803,384.115172 186.532833,376.563363 C187.687203,372.260043 187.385223,352.762803 188.717043,350.564733 C190.936323,346.902123 194.105853,347.478783 199.097553,346.714593 C200.456043,351.595623 201.700503,370.037403 202.408833,375.065643 C197.008263,409.502072 176.655693,392.877422 177.471753,390.967472" id="Fill-115" fill="#FFA07F"></path> <path d="M172.630896,396.712946 C173.116206,396.189626 173.601936,395.635016 174.086616,395.061296 C175.614786,393.178016 177.655986,390.397826 178.665456,389.006996 C183.194736,382.459196 186.743106,375.824247 186.743106,375.824247 C186.247926,376.789197 186.327726,379.815087 180.615936,390.063716 C179.112966,392.760956 193.221396,397.188386 196.001376,387.133586 C197.369946,382.183046 201.225966,363.226557 201.225966,363.226557 C203.260236,363.513837 203.190595,389.945696 203.190595,389.945696 C203.190595,389.945696 201.824256,407.241926 196.682196,406.539056 C191.540346,405.836186 173.384376,403.354616 173.384376,403.354616 C171.262536,399.727286 171.076266,398.157116 172.630896,396.712946" id="Fill-117" fill="#9A5350"></path> <path d="M114.575536,298.593094 C116.521396,297.068914 124.041916,295.976704 129.453826,290.333794 C132.537886,287.118064 141.663646,269.885674 143.889436,268.600894 C147.598245,266.459734 150.098085,268.491484 154.840935,270.225874 C153.680895,275.157934 145.889476,291.919294 144.088516,296.667394 C122.770576,324.245643 112.940476,299.874094 114.575536,298.593094" id="Fill-119" fill="#FFA07F"></path> <path d="M107.566156,301.297054 C108.243406,301.071934 108.935986,300.820144 109.637176,300.550504 C111.883546,299.635954 115.011286,298.182544 116.565916,297.450064 C123.688696,293.893084 129.994156,289.787164 129.994156,289.787164 C129.095356,290.394274 127.707886,293.084584 117.766486,299.315494 C115.150096,300.955384 125.382136,311.630524 132.660946,304.157254 C136.244596,300.477844 148.753875,285.721774 148.753875,285.721774 C150.398175,286.953214 137.606866,310.084084 137.606866,310.084084 C137.606866,310.084084 128.079796,324.584373 123.911716,321.492124 C119.743846,318.399664 105.027466,307.480504 105.027466,307.480504 C104.915116,303.279874 105.507946,301.813864 107.566156,301.297054" id="Fill-121" fill="#9A5350"></path> <path d="M241.940114,172.488726 C245.899034,186.297276 252.136874,199.623036 256.087394,221.164205 C257.615144,229.493435 250.806734,233.058185 243.478574,235.613885 C234.641144,238.843475 212.477744,240.276515 212.456954,240.192095 C208.752344,239.710985 207.236984,223.317965 203.540355,222.780785 C203.497305,222.856385 182.544555,215.490635 174.907905,209.994305 C168.542175,205.554275 183.711735,177.740406 191.252415,165.514206 C208.046534,168.510906 224.960774,170.838336 241.940114,172.488726" id="Fill-123" fill="#456A97"></path> <path d="M245.6186,221.638574 C245.57366,220.053704 243.06962,197.235315 237.90299,188.894955 C235.74734,185.441085 197.868801,176.238885 187.570401,171.713385 C188.814861,169.201995 190.268061,167.110185 191.252331,165.514185 C208.04645,168.510885 224.9609,170.838315 241.94003,172.488705 C245.89895,186.297255 252.13679,199.623225 256.08752,221.164184 C257.61506,229.493414 250.80665,233.058164 243.4787,235.613864 C234.64127,238.843454 212.47787,240.276494 212.45687,240.192284 C208.75226,239.710964 205.051431,239.201714 201.354801,238.664534 C201.351861,238.669574 201.255261,238.641224 201.079911,238.583894 C209.67374,237.241364 218.34905,234.354284 226.50692,232.274654 C232.72985,231.026414 245.87942,229.303994 245.6186,221.638574" id="Fill-125" fill="#345071"></path> <path d="M188.116947,169.973241 C206.543396,173.833251 225.235076,176.405331 244.019156,177.665121 C244.113656,175.710861 244.439786,172.074501 244.534076,170.120241 C226.095236,168.883341 207.746906,166.358721 189.658977,162.569481 C189.222177,164.476911 188.553747,168.065811 188.116947,169.973241" id="Fill-127" fill="#AD4537"></path> <path d="M185.144754,188.676366 C188.559774,191.170536 192.511134,186.740586 194.673924,183.534096 C196.846794,180.312906 198.308604,176.501616 198.966954,172.478646 C199.046334,171.994176 199.657854,172.076076 199.578264,172.562856 C198.801684,177.306756 196.934574,181.799496 194.150814,185.364666 C191.736234,188.457126 188.062914,191.710236 184.746384,189.287886 C184.413114,189.044496 184.813794,188.434656 185.144754,188.676366" id="Fill-129" fill="#CCCCCC"></path> <path d="M188.418822,186.963144 C188.569182,185.921964 188.719752,184.880364 188.869902,183.838974 C188.940252,183.352404 189.551772,183.435354 189.481422,183.922974 C189.330852,184.964574 189.180492,186.005964 189.030132,187.047354 C188.959782,187.534134 188.348262,187.450974 188.418822,186.963144" id="Fill-131" fill="#CCCCCC"></path> <path d="M242.869133,197.285337 C238.165553,198.604137 234.750323,194.375577 232.794173,190.681887 C230.538983,186.423297 229.661183,181.552977 230.166023,176.771487 C230.217683,176.281767 230.974733,176.386557 230.923283,176.875647 C230.495303,180.930747 231.093173,185.024697 232.721093,188.769207 C234.341453,192.496077 237.732953,197.936967 242.576813,196.578897 C243.045953,196.447227 243.342263,197.152827 242.869133,197.285337" id="Fill-133" fill="#CCCCCC"></path> <path d="M186.419727,175.696665 C187.955247,176.545485 189.490767,177.394305 191.026497,178.243335 C191.152077,178.312845 191.242797,178.461735 191.171607,178.607055 C189.336207,182.346735 187.500387,186.086205 185.664987,189.825675 C185.508747,190.144245 184.998237,189.928365 185.155947,189.607065 C186.991557,185.867595 188.827167,182.127915 190.662567,178.388445 C190.710867,178.509825 190.759377,178.630995 190.807887,178.752375 C189.272157,177.903555 187.736637,177.054525 186.201117,176.205705 C185.892417,176.034975 186.107247,175.523835 186.419727,175.696665" id="Fill-135" fill="#1A1A1A"></path> <path d="M251.182172,208.788884 C251.182172,208.788884 199.851033,171.983235 189.514203,168.257205 C178.616253,164.329365 170.223813,180.841245 172.069083,189.310965 C174.676443,193.888755 208.620632,250.728824 242.334452,242.673014 C251.688692,240.437984 265.005211,220.938434 251.182172,208.788884" id="Fill-137" fill="#456A97"></path> <path d="M203.375379,186.186396 C203.375379,186.186396 197.099739,209.143595 183.580569,226.788635 C165.760809,250.046555 148.450719,291.918244 148.450719,291.918244 C148.450719,291.918244 137.87617,293.793754 132.18202,284.574754 C132.18202,284.574754 155.892699,189.535056 175.761219,169.896906 C183.216639,162.528006 204.701739,170.946066 203.375379,186.186396" id="Fill-139" fill="#456A97"></path> <path d="M185.996451,216.192098 C184.935531,219.298208 190.455381,237.323348 190.293471,242.620388 C179.869491,292.095337 184.664421,303.295897 185.490351,358.529466 L202.444071,360.862146 C204.037341,328.184046 209.06159,284.523157 214.93928,247.808858 C216.19802,239.947298 221.08472,232.044158 219.5954,224.379788 C218.10587,216.715628 193.955241,210.025238 185.996451,216.192098" id="Fill-141" fill="#456A97"></path> <path d="M215.428244,235.448636 C215.483264,235.456196 215.540804,235.442756 215.588684,235.406636 C215.683814,235.334396 215.702504,235.198736 215.630264,235.103396 C210.159344,227.886956 195.488325,207.575336 195.340695,207.370586 L195.143505,207.097796 L186.370545,222.540146 C186.311535,222.644306 186.347655,222.776396 186.451605,222.834986 C186.555345,222.894206 186.687435,222.857666 186.746445,222.754136 L195.186975,207.897476 C196.961475,210.352796 210.158504,228.602216 215.285234,235.365056 C215.321354,235.412516 215.373434,235.441076 215.428244,235.448636" id="Fill-143" fill="#23354C"></path> <path d="M255.721994,185.029149 C255.721994,185.029149 255.219674,189.306009 260.086004,191.076939 C260.086004,191.076939 314.650513,156.959079 319.023343,152.794359 C323.395752,148.629639 322.898893,135.76042 317.400673,136.29361 C311.902243,136.82701 305.925013,141.77293 298.905763,146.51767 C291.886513,151.262619 255.721994,185.029149 255.721994,185.029149" id="Fill-145" fill="#FFA07F"></path> <path d="M266.333146,177.510267 C266.333146,177.510267 261.584417,175.107447 259.090667,174.314907 C258.336977,174.165177 257.548217,174.095457 257.548217,174.095457 L259.194407,177.934677 C263.110907,178.425447 267.740986,178.768377 266.333146,177.510267" id="Fill-147" fill="#FFA07F"></path> <path d="M252.948713,178.95975 C254.889113,177.23418 258.330383,175.39143 261.724193,175.51491 C263.746913,175.58841 266.612362,175.51785 268.046452,177.13065 C270.613702,180.01752 270.626932,183.06714 269.894242,185.54493 C269.002582,188.56116 265.241692,192.15636 263.653673,193.56861 C260.760713,196.14111 258.154193,192.12549 255.010283,188.58993 C251.866583,185.05458 250.055963,181.53225 252.948713,178.95975" id="Fill-149" fill="#FFA07F"></path> <path d="M251.966186,180.155973 C251.966186,180.155973 247.238246,186.665343 247.066676,188.280243 C246.946346,189.415083 248.435036,190.491333 249.470546,190.293093 C250.203236,190.152813 254.560106,185.874903 254.626466,185.249313 C254.692616,184.623723 253.253906,179.115423 251.966186,180.155973" id="Fill-151" fill="#FFA07F"></path> <path d="M255.345044,184.327476 C255.345044,184.327476 250.284044,188.959236 249.803354,190.510506 C249.465674,191.600616 250.718324,192.944616 251.772524,192.95029 C252.518864,192.954486 257.620394,189.599736 257.806664,188.998926 C257.992724,188.398116 256.809584,183.555726 255.345044,184.327476" id="Fill-153" fill="#FFA07F"></path> <path d="M258.184979,187.115604 C258.184979,187.115604 252.751229,191.285784 252.270749,192.837264 C251.933069,193.927374 253.606559,194.930754 254.660969,194.936638 C255.407099,194.940834 260.468939,191.967024 260.654999,191.366214 C260.841059,190.765194 259.649729,186.343854 258.184979,187.115604" id="Fill-155" fill="#FFA07F"></path> <path d="M261.386849,189.636234 C261.386849,189.636234 256.861769,192.660654 256.381289,194.211924 C256.043609,195.302034 256.196909,196.021704 257.251319,196.02759 C257.997239,196.031574 263.467319,194.169504 263.653589,193.568694 C263.839649,192.967884 262.851599,188.864484 261.386849,189.636234" id="Fill-157" fill="#FFA07F"></path> <path d="M250.009322,189.846234 C251.106992,188.615844 252.204242,187.385454 253.301702,186.155064 C253.403762,186.040404 253.600112,186.179844 253.497002,186.295134 C252.399752,187.525734 251.302292,188.756124 250.204832,189.986514 C250.102562,190.100964 249.906422,189.961734 250.009322,189.846234" id="Fill-159" fill="#C2826B"></path> <path d="M252.262118,192.634362 C253.495658,191.279442 254.728988,189.924522 255.962318,188.569602 C256.065428,188.456202 256.261988,188.595642 256.157828,188.709882 C254.924498,190.064802 253.691168,191.419722 252.457838,192.774642 C252.354518,192.888042 252.158168,192.748602 252.262118,192.634362" id="Fill-161" fill="#C2826B"></path> <path d="M256.384796,194.041824 C257.797256,193.214214 259.161626,192.308274 260.473916,191.329674 C260.597816,191.237484 260.749436,191.424174 260.624906,191.516994 C259.295396,192.508404 257.911706,193.424004 256.480766,194.262324 C256.347626,194.340444 256.252496,194.119314 256.384796,194.041824" id="Fill-163" fill="#C2826B"></path> <path d="M438.461387,245.451419 C436.338917,245.439029 434.278397,245.166029 432.824357,243.083879 C429.970247,238.996649 425.614007,235.327529 420.728987,239.483639 C417.911207,241.880579 420.029897,246.811799 417.605027,249.183749 C415.460507,251.281439 412.733447,250.934729 411.636827,254.416319 C410.023187,259.538009 415.108337,264.025709 416.740667,268.454608 C418.110707,272.171188 415.029797,273.587428 413.645477,276.483748 C412.578467,278.716468 413.126987,281.107948 414.289757,283.242598 C416.340407,287.006428 420.886697,290.036938 419.833547,294.910618 C418.954277,298.978318 418.136957,302.603338 421.726067,305.686348 C424.186217,307.799578 428.751407,309.725488 428.403437,313.636948 C428.280377,315.021058 427.322357,316.200838 427.059857,317.565418 C426.644267,319.725058 428.043077,321.826738 429.667637,323.309127 C433.364057,326.681727 436.610657,329.862177 439.379297,334.105437 C440.562646,335.918577 445.299406,340.012737 443.406256,342.491577 C446.847106,337.985817 450.483676,333.616347 453.610366,328.879377 C456.181816,324.983247 460.058206,319.285108 457.419346,314.486818 C456.598666,312.994348 455.072596,311.881978 454.654066,310.230748 C453.899116,307.248958 456.828616,304.484518 457.917676,301.947718 C459.627706,297.964858 458.372746,293.339188 455.360716,290.349628 C453.935656,288.935068 452.389006,287.379598 452.179636,285.382288 C451.951156,283.201858 453.318466,281.168638 453.938596,279.157048 C454.510636,277.302748 454.866796,275.331268 455.075536,273.405148 C455.222956,272.045188 455.279866,270.653518 454.959826,269.323168 C454.351666,266.793508 452.073586,265.387348 450.387496,263.592269 C446.373346,259.319189 448.483216,254.294729 446.729506,249.328439 C445.155346,244.870139 441.734446,245.470529 438.461387,245.451419" id="Fill-165" fill="#A6D277"></path> </g> <g id="Group-189" transform="translate(500.009991, 237.656996)"> <g id="Group-170"> <mask id="mask-4" fill="white"> <use xlink:href="#path-3"></use> </mask> <g id="Clip-169"></g> <path d="M32.6532144,110.061103 C34.1440044,92.9767634 32.7745944,75.7565537 29.6187145,58.931144 C26.6079445,42.8804243 22.6563746,26.7744745 16.6652847,11.5591348 C14.6858247,6.53194489 12.4631848,1.59778497 9.93751483,-3.17950495" id="Stroke-168" stroke="#56BC7B" stroke-width="1.04999998" mask="url(#mask-4)"></path> </g> <g id="Group-173"> <mask id="mask-6" fill="white"> <use xlink:href="#path-5"></use> </mask> <g id="Clip-172"></g> <path d="M-3.55004994,19.7297097 C4.85897992,22.6978496 12.8797198,26.7644995 20.2439997,31.7933695 C22.1123696,33.0693294 23.1527096,33.4597194 24.7102796,35.1004494" id="Stroke-171" stroke="#56BC7B" stroke-width="1.04999998" mask="url(#mask-6)"></path> </g> <g id="Group-176"> <mask id="mask-8" fill="white"> <use xlink:href="#path-7"></use> </mask> <g id="Clip-175"></g> <path d="M28.6980745,53.4040701 C20.6269346,48.1883002 11.4736648,44.6550502 1.99132497,43.0953803" id="Stroke-174" stroke="#56BC7B" stroke-width="1.04999998" mask="url(#mask-8)"></path> </g> <g id="Group-179"> <mask id="mask-10" fill="white"> <use xlink:href="#path-9"></use> </mask> <g id="Clip-178"></g> <path d="M31.8901165,75.4430867 C24.3786266,68.9339268 15.2226267,64.3380769 5.51495691,62.2044769" id="Stroke-177" stroke="#56BC7B" stroke-width="1.04999998" mask="url(#mask-10)"></path> </g> <g id="Group-182"> <mask id="mask-12" fill="white"> <use xlink:href="#path-11"></use> </mask> <g id="Clip-181"></g> <path d="M24.2927786,34.5377964 C24.8799386,25.4989766 27.1294585,16.5704067 30.8951785,8.33231686" id="Stroke-180" stroke="#56BC7B" stroke-width="1.04999998" mask="url(#mask-12)"></path> </g> <g id="Group-185"> <mask id="mask-14" fill="white"> <use xlink:href="#path-13"></use> </mask> <g id="Clip-184"></g> <path d="M28.5951115,52.6591161 C32.4116514,44.4941062 37.9249914,37.1268864 44.6823712,31.1624665" id="Stroke-183" stroke="#56BC7B" stroke-width="1.04999998" mask="url(#mask-14)"></path> </g> <g id="Group-188"> <mask id="mask-16" fill="white"> <use xlink:href="#path-15"></use> </mask> <g id="Clip-187"></g> <path d="M32.3900844,76.0699157 C32.9176044,73.5471857 33.8426544,71.1082458 35.1205044,68.8700658 C36.6073044,66.2664859 38.5527443,63.9577459 40.5332543,61.7071759 C41.9595743,60.086396 43.4106743,58.487246 44.8852942,56.910356" id="Stroke-186" stroke="#56BC7B" stroke-width="1.04999998" mask="url(#mask-16)"></path> </g> </g> <path d="M553.359273,276.73747 C554.900673,277.02223 556.433043,277.10938 557.775993,275.80045 C560.411912,273.23068 564.079772,271.17205 567.048122,274.86301 C568.760042,276.99178 566.540762,280.27555 567.971492,282.33166 C569.236532,284.15005 571.262612,284.27605 571.576352,286.95334 C572.037722,290.89168 567.728102,293.44318 565.930922,296.4298 C564.422912,298.93615 566.461592,300.38998 567.064922,302.68234 C567.529862,304.4497 566.800952,306.10849 565.661912,307.49596 C563.653472,309.94246 559.936262,311.51116 560.025722,315.19225 C560.100272,318.26455 560.191412,321.00715 557.161113,322.74679 C555.084213,323.939169 551.506233,324.704199 551.217273,327.589599 C551.114793,328.610619 551.646513,329.599089 551.648193,330.625149 C551.650503,332.249289 550.344933,333.580269 548.961453,334.430559 C545.813343,336.365289 543.018243,338.223159 540.422433,340.917669 C539.313213,342.069099 535.310823,344.383299 536.340663,346.443399 C534.468513,342.698679 532.435293,339.025779 530.823123,335.156949 C529.496973,331.975029 527.473833,327.305259 530.052213,324.189699 C530.853993,323.220969 532.115253,322.62541 532.647183,321.48532 C533.607513,319.42711 531.865143,317.01631 531.426453,315.02551 C530.737233,311.89966 532.287663,308.71816 534.886413,306.96634 C536.116173,306.13747 537.453033,305.22313 537.881433,303.80353 C538.348893,302.25352 537.638673,300.58927 537.467103,299.04451 C537.308973,297.62029 537.323463,296.14084 537.438543,294.71473 C537.519813,293.70778 537.671433,292.69054 538.087443,291.7699 C538.878933,290.01913 540.726093,289.31437 542.197563,288.24568 C545.700783,285.70174 544.865823,281.76487 546.825123,278.40529 C548.584293,275.38948 550.982703,276.29836 553.359273,276.73747" id="Fill-190" fill="#56BC7B"></path> <g id="Group-213" transform="translate(528.779991, 272.726995)"> <g id="Group-194"> <mask id="mask-18" fill="white"> <use xlink:href="#path-17"></use> </mask> <g id="Clip-193"></g> <path d="M6.54798889,77.3419067 C7.83129887,64.7429569 11.2078888,52.4413671 15.8262087,40.6735973 C20.2317987,29.4476275 25.3274486,18.3117477 31.7790685,8.10406786 C33.9109884,4.73146792 36.2060784,1.46008798 38.6994083,-1.65568197" id="Stroke-192" stroke="#A6D277" stroke-width="1.04999998" mask="url(#mask-18)"></path> </g> <g id="Group-197"> <mask id="mask-20" fill="white"> <use xlink:href="#path-19"></use> </mask> <g id="Clip-196"></g> <path d="M45.3120562,16.8290007 C38.8014263,17.8181007 32.4203664,19.6577007 26.3824466,22.2862706 C24.8504966,22.9532306 24.0422066,23.0922506 22.6851866,24.0668606" id="Stroke-195" stroke="#A6D277" stroke-width="1.04999998" mask="url(#mask-20)"></path> </g> <g id="Group-200"> <mask id="mask-22" fill="white"> <use xlink:href="#path-21"></use> </mask> <g id="Clip-199"></g> <path d="M17.2590177,36.7919154 C23.8355876,34.1255454 30.9642475,32.8296354 38.0582574,33.0108654" id="Stroke-198" stroke="#A6D277" stroke-width="1.04999998" mask="url(#mask-22)"></path> </g> <g id="Group-203"> <mask id="mask-24" fill="white"> <use xlink:href="#path-23"></use> </mask> <g id="Clip-202"></g> <path d="M11.8931398,52.3365351 C18.2424897,48.6546052 25.5204596,46.5882052 32.8572294,46.3842952" id="Stroke-201" stroke="#A6D277" stroke-width="1.04999998" mask="url(#mask-24)"></path> </g> <g id="Group-206"> <mask id="mask-26" fill="white"> <use xlink:href="#path-25"></use> </mask> <g id="Clip-205"></g> <path d="M23.0658116,23.7164336 C23.8913216,17.0787537 23.4952616,10.2907138 21.9038816,3.79373394" id="Stroke-204" stroke="#A6D277" stroke-width="1.04999998" mask="url(#mask-26)"></path> </g> <g id="Group-209"> <mask id="mask-28" fill="white"> <use xlink:href="#path-27"></use> </mask> <g id="Clip-208"></g> <path d="M17.4368247,36.2656764 C15.7986147,29.8146865 12.8191348,23.7076766 8.74303485,18.4459167" id="Stroke-207" stroke="#A6D277" stroke-width="1.04999998" mask="url(#mask-28)"></path> </g> <g id="Group-212"> <mask id="mask-30" fill="white"> <use xlink:href="#path-29"></use> </mask> <g id="Clip-211"></g> <path d="M11.4436138,52.7219691 C11.4102238,50.8189491 11.0767438,48.9218092 10.4595538,47.1214792 C9.74156383,45.0271492 8.64998385,43.0831793 7.52480387,41.1763793 C6.71441389,39.8033993 5.8832339,38.4425993 5.03210391,37.0946094" id="Stroke-210" stroke="#A6D277" stroke-width="1.04999998" mask="url(#mask-30)"></path> </g> </g> <g id="Group-237" transform="translate(0.000000, 0.147000)"> <polygon id="Fill-214" fill="#FFC73C" points="520.341078 345.558354 551.838978 345.558354 546.313038 377.079774 525.867018 377.079774"></polygon> <mask id="mask-32" fill="white"> <use xlink:href="#path-31"></use> </mask> <g id="Clip-217"></g> <polygon id="Fill-216" fill="#FFC73C" mask="url(#mask-32)" points="516.484701 345.558354 555.695061 345.558354 555.695061 336.710634 516.484701 336.710634"></polygon> <polygon id="Fill-218" fill="#231F20" mask="url(#mask-32)" points="551.106078 349.738467 521.073768 349.738467 520.341078 345.558417 551.838978 345.558417"></polygon> <path d="M153.430659,141.394783 C153.430659,141.394783 149.286099,139.881943 147.960999,140.175733 C146.63611,140.469523 143.03881,143.577733 142.29688,144.166573 C141.55516,144.755413 138.2695,148.327722 139.07737,149.510022 C139.74958,150.492822 141.42727,148.971372 143.59111,147.253572 C145.75453,145.535983 148.103799,144.106933 148.585959,144.241123 C149.068329,144.375523 155.794839,144.781243 157.113639,144.618493 C158.432649,144.455533 155.146569,141.872953 153.430659,141.394783" id="Fill-219" fill="#C2826B" mask="url(#mask-32)"></path> <path d="M149.005476,140.159479 C149.005476,140.159479 144.735337,139.291129 143.470507,139.788409 C142.205467,140.285899 139.069747,143.939479 138.416227,144.640879 C137.762707,145.342489 134.992807,149.410398 135.939907,150.464178 C136.727407,151.340088 138.180817,149.564538 140.086567,147.518298 C141.992317,145.472269 144.117727,143.685169 144.609127,143.744599 C145.100527,143.804029 151.766766,143.170249 153.042726,142.804429 C154.318476,142.438609 150.754146,140.371159 149.005476,140.159479" id="Fill-220" fill="#C2826B" mask="url(#mask-32)"></path> <path d="M147.230745,141.045637 C147.230745,141.045637 140.611336,139.585927 138.986146,139.527337 C137.361166,139.468747 130.640746,145.331317 128.740036,147.371886 C126.839536,149.412246 129.218836,150.494586 131.299516,148.907196 C135.590656,146.003107 137.891416,143.632417 138.907186,143.669167 C139.922956,143.705707 148.292085,145.244377 149.592195,143.848297 C150.892515,142.452007 150.280365,141.689287 147.230745,141.045637" id="Fill-221" fill="#FFA07F" mask="url(#mask-32)"></path> <path d="M158.031591,150.171207 C164.549571,148.994997 169.256091,146.307208 165.855351,141.223738 C163.596381,137.847148 151.951881,136.154758 147.469851,137.086318 C142.987612,138.018088 153.525201,150.984327 158.031591,150.171207" id="Fill-222" fill="#FFA07F" mask="url(#mask-32)"></path> <path d="M150.159447,137.71321 C147.750117,136.22935 141.101728,136.75078 139.744498,136.70185 C138.387058,136.65292 128.854738,138.71071 126.333898,138.61978 C124.782628,138.56371 125.475208,141.90859 128.513068,142.01821 C131.550928,142.12762 138.364378,141.1486 139.829128,141.20131 C141.293668,141.25423 149.446287,145.57729 151.602987,145.65499 C153.759687,145.73269 152.961477,139.43878 150.159447,137.71321" id="Fill-223" fill="#FFA07F" mask="url(#mask-32)"></path> <path d="M156.01137,145.058191 C156.01137,145.058191 148.01667,147.94842 146.723911,147.9018 C145.431361,147.85518 138.070231,151.6965 142.661881,153.50922 C145.853041,154.76901 150.27459,152.17362 152.33301,151.54173 C154.39143,150.90942 158.05005,152.34666 161.52912,149.32371 C165.0084,146.300971 157.75647,145.121191 156.01137,145.058191" id="Fill-224" fill="#FFA07F" mask="url(#mask-32)"></path> <path d="M161.484285,140.919091 C161.484285,140.919091 159.193185,144.313741 162.325965,148.3554 C162.325965,148.3554 221.275064,147.54081 226.630274,146.252461 C231.985694,144.964531 237.265304,133.706641 232.607294,131.306131 C227.948864,128.905411 220.957964,130.027651 213.217784,130.436731 C205.477185,130.845601 161.484285,140.919091 161.484285,140.919091" id="Fill-225" fill="#FFA07F" mask="url(#mask-32)"></path> <polygon id="Fill-226" fill="#303030" mask="url(#mask-32)" points="170.597739 138.865333 171.129459 148.216422 166.733319 148.288872 165.840189 139.931503"></polygon> <path d="M173.530977,141.866863 C173.530977,143.959303 171.038277,145.655683 167.963457,145.655683 C164.888637,145.655683 162.396147,143.959303 162.396147,141.866863 C162.396147,139.774423 164.888637,138.078043 167.963457,138.078043 C171.038277,138.078043 173.530977,139.774423 173.530977,141.866863" id="Fill-227" fill="#444444" mask="url(#mask-32)"></path> <polygon id="Fill-228" fill="#404040" mask="url(#mask-32)" points="96.8223254 39.4127153 90.5366055 99.2652343 164.044374 56.825495 108.925675 32.2794355"></polygon> <polygon id="Fill-229" fill="#FFFFFF" mask="url(#mask-32)" points="105.663262 34.5971634 103.169512 36.3605334 140.302762 70.5325728 147.397401 66.4365229"></polygon> <polygon id="Fill-230" fill="#303030" mask="url(#mask-32)" points="100.561942 37.3276884 100.585462 37.1947584 96.8220524 39.4125683 90.5365425 99.2648773 104.898022 90.9736575"></polygon> <polygon id="Fill-231" fill="#A2A5A6" mask="url(#mask-32)" points="37.7329674 368.650857 5.23819791 101.084191 10.6354078 97.9272613 44.9800672 368.650857"></polygon> <polygon id="Fill-232" fill="#A2A5A6" mask="url(#mask-32)" points="12.1185118 96.4307804 8.60689185 91.2561704 92.5804304 25.3392716 96.0920504 30.5138815"></polygon> <path d="M72.2353158,367.489704 L8.82623685,367.489704 C8.82623685,367.489704 7.43582687,369.261054 7.43582687,372.002814 C7.43582687,374.744574 8.82623685,376.515714 8.82623685,376.515714 L72.2353158,376.515714 C72.2353158,376.515714 73.6259357,374.744574 73.6259357,372.002814 C73.6259357,369.261054 72.2353158,367.489704 72.2353158,367.489704" id="Fill-233" fill="#B7BABA" mask="url(#mask-32)"></path> <path d="M5.41982691,103.035007 C10.5404668,104.190007 15.0466467,99.6892873 13.8968968,94.5669674 C13.3177168,91.9854374 11.2345168,89.9016075 8.65298685,89.3220075 C3.53507694,88.1730975 -0.964592984,92.6685674 0.179696997,97.7864773 C0.757616987,100.368007 2.83913695,102.452677 5.41982691,103.035007" id="Fill-234" fill="#404040" mask="url(#mask-32)"></path> <path d="M109.775482,32.6466624 L96.7475024,40.1682323 L96.0257324,38.9185223 C93.9488324,35.3210124 95.1817424,30.7209625 98.7790423,28.6440625 C102.376762,26.5669525 106.976812,27.7994425 109.053922,31.3969525 L109.775482,32.6466624 Z" id="Fill-235" fill="#B7BABA" mask="url(#mask-32)"></path> <path d="M90.4868565,30.7353475 C97.9651663,36.5044674 106.539046,27.9257575 100.761526,20.4491277 L100.761316,20.4489177 C93.2767064,14.6560678 84.6879166,23.2624976 90.4868565,30.7353475" id="Fill-236" fill="#404040" mask="url(#mask-32)"></path> </g> </g> </g> </g> </g> </g> </svg> 