<?xml version="1.0" encoding="UTF-8"?> <svg xmlns="http://www.w3.org/2000/svg" width="78" height="78" viewBox="0 0 78 78" fill="none"> <circle cx="39" cy="39" r="39" fill="#FFF4F6"></circle> <path d="M60.2363 27.5137L60.8373 28.7158V45.5445L59.0342 46.1456V57.5651H20.5685V46.1456L18.7654 45.5445V28.1147L19.3664 27.5137H29.5839L30.452 26.7123L30.9863 22.4384L32.589 21.3699H47.0137L48.6164 22.9726L49.1507 27.5137H60.2363Z" fill="white"></path> <path d="M60.4959 44.7053C60.4964 45.3152 60.0423 45.8238 59.4437 45.9068L59.4425 45.907L42.7538 48.18L42.1863 48.2573V47.6845V46.6574C42.1863 45.7593 41.4472 45.0204 40.5226 45.0204H39.0801C38.1555 45.0204 37.4164 45.7593 37.4164 46.6574V47.6845V48.2573L36.849 48.18L20.3598 45.9341L20.3596 45.9341L20.1598 45.907L20.1578 45.9067L19.6068 44.7055H19.1068V44.705V28.8492C19.1068 28.1739 19.6595 27.6369 20.3281 27.6369H59.2747C59.9432 27.6369 60.4959 28.1739 60.4959 28.8492V44.7053ZM60.4959 44.7053C60.4959 44.7052 60.4959 44.7051 60.4959 44.705L59.9959 44.7055H60.4959V44.7053ZM30.2041 26.7122V27.2122H29.7041H20.3281C19.4035 27.2122 18.6644 27.9511 18.6644 28.8492L18.6644 44.7031C18.6644 44.7034 18.6644 44.7037 18.6644 44.7039C18.6679 45.3928 19.1081 46.011 19.7732 46.2458L20.1068 46.3635V46.7173V56.63C20.1068 57.5282 20.8459 58.267 21.7705 58.267H57.8322C58.7568 58.267 59.4959 57.5282 59.4959 56.63V46.7166V46.3627L59.8297 46.245C60.4944 46.0107 60.9344 45.3931 60.9384 44.7041V28.8492C60.9384 27.9511 60.1993 27.2122 59.2747 27.2122H49.8986H49.3986V26.7122V23.8635C49.3965 22.1789 48.013 20.8035 46.2922 20.8013H33.3106C31.5897 20.8035 30.2062 22.1789 30.2041 23.8635V26.7122ZM31.1466 27.2122H30.6466V26.7122V23.8629C30.6466 22.4008 31.8451 21.2259 33.3103 21.2259H46.2925C47.7576 21.2259 48.9562 22.4008 48.9562 23.8629V26.7122V27.2122H48.4562H47.0137H46.5137V26.7122V23.8629C46.5137 23.7515 46.4205 23.6506 46.2925 23.6506H33.3103C33.1822 23.6506 33.089 23.7515 33.089 23.8629V26.7122V27.2122H32.589H31.1466ZM34.0315 27.2122H33.5315V26.7122V24.5752V24.0752H34.0315H45.5712H46.0712V24.5752V26.7122V27.2122H45.5712H34.0315ZM58.4859 46.466L59.0534 46.3887V46.9614V56.63C59.0534 57.3054 58.5008 57.8424 57.8322 57.8424H21.7705C21.102 57.8424 20.5493 57.3054 20.5493 56.63V46.9614V46.3887L21.1168 46.466L36.9839 48.6273L37.4164 48.6863V49.1228V50.9314C37.4164 51.8296 38.1555 52.5684 39.0801 52.5684H40.5226C41.4472 52.5684 42.1863 51.8296 42.1863 50.9314V49.1228V48.6863L42.6188 48.6273L58.4859 46.466ZM39.0801 52.1437C38.4116 52.1437 37.8589 51.6068 37.8589 50.9314V46.6574C37.8589 45.9821 38.4116 45.4451 39.0801 45.4451H40.5226C41.1912 45.4451 41.7438 45.9821 41.7438 46.6574V50.9314C41.7438 51.6068 41.1912 52.1437 40.5226 52.1437H39.0801Z" fill="#FFE4E8" stroke="#D36374"></path> </svg> 