<?xml version="1.0" encoding="UTF-8"?> <svg xmlns="http://www.w3.org/2000/svg" width="448" height="51" viewBox="0 0 448 51" fill="none"> <path d="M31.004 39.402C30.5747 39.8313 29.992 40.0307 29.256 40C28.52 40 27.9373 39.7547 27.508 39.264L12.42 21.692L26.496 4.856C26.9253 4.33467 27.4773 4.074 28.152 4.074C28.8573 4.04333 29.4247 4.27333 29.854 4.764C30.2833 5.25466 30.4827 5.776 30.452 6.328C30.452 6.84933 30.2373 7.35533 29.808 7.846L18.17 21.37L31.004 36.274C31.4333 36.7647 31.6633 37.286 31.694 37.838C31.7553 38.3593 31.5253 38.8807 31.004 39.402ZM6.992 40C6.31733 40 5.75 39.77 5.29 39.31C4.83 38.85 4.6 38.2827 4.6 37.608V6.466C4.6 5.76067 4.83 5.19333 5.29 4.764C5.75 4.304 6.31733 4.074 6.992 4.074C7.69733 4.074 8.26467 4.304 8.694 4.764C9.154 5.19333 9.384 5.76067 9.384 6.466V19.668H16.928V23.9H9.384V37.608C9.384 38.2827 9.154 38.85 8.694 39.31C8.26467 39.77 7.69733 40 6.992 40ZM46.9739 40.23C44.8579 40.23 42.9566 39.7853 41.2699 38.896C39.6139 37.976 38.2952 36.642 37.3139 34.894C36.3632 33.146 35.8879 30.9993 35.8879 28.454V17.138C35.8879 16.4633 36.1026 15.9113 36.5319 15.482C36.9919 15.022 37.5592 14.792 38.2339 14.792C38.9086 14.792 39.4606 15.022 39.8899 15.482C40.3499 15.9113 40.5799 16.4633 40.5799 17.138V28.454C40.5799 30.1713 40.9019 31.5973 41.5459 32.732C42.1899 33.836 43.0639 34.664 44.1679 35.216C45.2719 35.7373 46.5139 35.998 47.8939 35.998C49.2126 35.998 50.3779 35.7373 51.3899 35.216C52.4326 34.6947 53.2606 33.9893 53.8739 33.1C54.4872 32.2107 54.7939 31.214 54.7939 30.11H57.6919C57.6919 32.0113 57.2166 33.7287 56.2659 35.262C55.3459 36.7953 54.0732 38.0067 52.4479 38.896C50.8532 39.7853 49.0286 40.23 46.9739 40.23ZM57.1399 40C56.4652 40 55.8979 39.7853 55.4379 39.356C55.0086 38.896 54.7939 38.3287 54.7939 37.654V17.138C54.7939 16.4327 55.0086 15.8653 55.4379 15.436C55.8979 15.0067 56.4652 14.792 57.1399 14.792C57.8452 14.792 58.4126 15.0067 58.8419 15.436C59.2712 15.8653 59.4859 16.4327 59.4859 17.138V37.654C59.4859 38.3287 59.2712 38.896 58.8419 39.356C58.4126 39.7853 57.8452 40 57.1399 40ZM88.9094 40C88.2347 40 87.6674 39.7853 87.2074 39.356C86.778 38.896 86.5634 38.3287 86.5634 37.654V17.184C86.5634 16.4787 86.778 15.9113 87.2074 15.482C87.6674 15.0527 88.2347 14.838 88.9094 14.838C89.6147 14.838 90.1667 15.0527 90.5654 15.482C90.964 15.9113 91.1634 16.4787 91.1634 17.184V37.654C91.1634 38.3287 90.964 38.896 90.5654 39.356C90.1667 39.7853 89.6147 40 88.9094 40ZM70.0034 40C69.3287 40 68.7767 39.7853 68.3474 39.356C67.9487 38.896 67.7494 38.3287 67.7494 37.654V17.184C67.7494 16.4787 67.9487 15.9113 68.3474 15.482C68.7767 15.0527 69.3287 14.838 70.0034 14.838C70.7087 14.838 71.276 15.0527 71.7054 15.482C72.1347 15.9113 72.3494 16.4787 72.3494 17.184V37.654C72.3494 38.3287 72.1347 38.896 71.7054 39.356C71.276 39.7853 70.7087 40 70.0034 40ZM71.7514 29.006V24.866H87.8974V29.006H71.7514ZM110.872 40.184C108.388 40.184 106.196 39.6473 104.294 38.574C102.393 37.47 100.89 35.9673 99.7862 34.066C98.7129 32.134 98.1762 29.926 98.1762 27.442C98.1762 24.9273 98.7129 22.7193 99.7862 20.818C100.89 18.886 102.393 17.3833 104.294 16.31C106.196 15.206 108.388 14.654 110.872 14.654C113.326 14.654 115.503 15.206 117.404 16.31C119.306 17.3833 120.793 18.886 121.866 20.818C122.97 22.7193 123.522 24.9273 123.522 27.442C123.522 29.926 122.986 32.134 121.912 34.066C120.839 35.9673 119.352 37.47 117.45 38.574C115.549 39.6473 113.356 40.184 110.872 40.184ZM110.872 36.044C112.467 36.044 113.878 35.676 115.104 34.94C116.331 34.204 117.282 33.192 117.956 31.904C118.662 30.616 119.014 29.1287 119.014 27.442C119.014 25.7553 118.662 24.268 117.956 22.98C117.282 21.6613 116.331 20.634 115.104 19.898C113.878 19.162 112.467 18.794 110.872 18.794C109.278 18.794 107.867 19.162 106.64 19.898C105.414 20.634 104.448 21.6613 103.742 22.98C103.037 24.268 102.684 25.7553 102.684 27.442C102.684 29.1287 103.037 30.616 103.742 31.904C104.448 33.192 105.414 34.204 106.64 34.94C107.867 35.676 109.278 36.044 110.872 36.044ZM163.533 40.046C162.859 40.046 162.291 39.8313 161.831 39.402C161.402 38.942 161.187 38.3747 161.187 37.7V24.544C161.187 22.612 160.712 21.186 159.761 20.266C158.811 19.3153 157.569 18.84 156.035 18.84C154.441 18.84 153.122 19.392 152.079 20.496C151.067 21.6 150.561 23.0107 150.561 24.728H146.743C146.743 22.7347 147.173 20.9867 148.031 19.484C148.89 17.9507 150.086 16.7547 151.619 15.896C153.183 15.0373 154.962 14.608 156.955 14.608C158.703 14.608 160.252 14.9913 161.601 15.758C162.951 16.5247 163.993 17.6593 164.729 19.162C165.496 20.634 165.879 22.428 165.879 24.544V37.7C165.879 38.3747 165.665 38.942 165.235 39.402C164.806 39.8313 164.239 40.046 163.533 40.046ZM132.851 40.046C132.177 40.046 131.609 39.8313 131.149 39.402C130.72 38.942 130.505 38.3747 130.505 37.7V17.23C130.505 16.5247 130.72 15.9573 131.149 15.528C131.609 15.0987 132.177 14.884 132.851 14.884C133.557 14.884 134.124 15.0987 134.553 15.528C134.983 15.9573 135.197 16.5247 135.197 17.23V37.7C135.197 38.3747 134.983 38.942 134.553 39.402C134.124 39.8313 133.557 40.046 132.851 40.046ZM148.215 40.046C147.541 40.046 146.973 39.8313 146.513 39.402C146.084 38.942 145.869 38.3747 145.869 37.7V24.544C145.869 22.612 145.394 21.186 144.443 20.266C143.493 19.3153 142.251 18.84 140.717 18.84C139.123 18.84 137.804 19.392 136.761 20.496C135.719 21.6 135.197 23.0107 135.197 24.728H132.299C132.299 22.7347 132.698 20.9867 133.495 19.484C134.293 17.9507 135.397 16.7547 136.807 15.896C138.218 15.0373 139.828 14.608 141.637 14.608C143.385 14.608 144.934 14.9913 146.283 15.758C147.633 16.5247 148.675 17.6593 149.411 19.162C150.178 20.634 150.561 22.428 150.561 24.544V37.7C150.561 38.3747 150.347 38.942 149.917 39.402C149.488 39.8313 148.921 40.046 148.215 40.046ZM185.497 40.184C182.952 40.184 180.682 39.6473 178.689 38.574C176.726 37.47 175.178 35.9673 174.043 34.066C172.939 32.134 172.387 29.926 172.387 27.442C172.387 24.9273 172.908 22.7193 173.951 20.818C175.024 18.886 176.496 17.3833 178.367 16.31C180.238 15.206 182.384 14.654 184.807 14.654C187.199 14.654 189.254 15.1907 190.971 16.264C192.688 17.3067 193.992 18.7633 194.881 20.634C195.801 22.474 196.261 24.6053 196.261 27.028C196.261 27.6107 196.062 28.1013 195.663 28.5C195.264 28.868 194.758 29.052 194.145 29.052H175.607V25.372H194.007L192.121 26.66C192.09 25.1267 191.784 23.762 191.201 22.566C190.618 21.3393 189.79 20.3733 188.717 19.668C187.644 18.9627 186.34 18.61 184.807 18.61C183.059 18.61 181.556 18.9933 180.299 19.76C179.072 20.5267 178.137 21.5847 177.493 22.934C176.849 24.2527 176.527 25.7553 176.527 27.442C176.527 29.1287 176.91 30.6313 177.677 31.95C178.444 33.2687 179.502 34.3113 180.851 35.078C182.2 35.8447 183.749 36.228 185.497 36.228C186.448 36.228 187.414 36.0593 188.395 35.722C189.407 35.354 190.22 34.94 190.833 34.48C191.293 34.1427 191.784 33.974 192.305 33.974C192.857 33.9433 193.332 34.0967 193.731 34.434C194.252 34.894 194.528 35.4 194.559 35.952C194.59 36.504 194.344 36.9793 193.823 37.378C192.78 38.206 191.477 38.8807 189.913 39.402C188.38 39.9233 186.908 40.184 185.497 40.184ZM211.835 40.184C209.596 40.184 207.588 39.632 205.809 38.528C204.03 37.3933 202.62 35.8753 201.577 33.974C200.565 32.042 200.059 29.8647 200.059 27.442C200.059 25.0193 200.611 22.842 201.715 20.91C202.85 18.978 204.368 17.46 206.269 16.356C208.201 15.2213 210.363 14.654 212.755 14.654C215.147 14.654 217.294 15.2213 219.195 16.356C221.096 17.46 222.599 18.978 223.703 20.91C224.838 22.842 225.405 25.0193 225.405 27.442H223.611C223.611 29.8647 223.09 32.042 222.047 33.974C221.035 35.8753 219.64 37.3933 217.861 38.528C216.082 39.632 214.074 40.184 211.835 40.184ZM212.755 36.044C214.319 36.044 215.714 35.676 216.941 34.94C218.168 34.1733 219.134 33.146 219.839 31.858C220.544 30.5393 220.897 29.0673 220.897 27.442C220.897 25.786 220.544 24.314 219.839 23.026C219.134 21.7073 218.168 20.68 216.941 19.944C215.714 19.1773 214.319 18.794 212.755 18.794C211.222 18.794 209.826 19.1773 208.569 19.944C207.342 20.68 206.361 21.7073 205.625 23.026C204.92 24.314 204.567 25.786 204.567 27.442C204.567 29.0673 204.92 30.5393 205.625 31.858C206.361 33.146 207.342 34.1733 208.569 34.94C209.826 35.676 211.222 36.044 212.755 36.044ZM223.059 40.046C222.384 40.046 221.817 39.8313 221.357 39.402C220.928 38.942 220.713 38.3747 220.713 37.7V30.662L221.587 25.786L225.405 27.442V37.7C225.405 38.3747 225.175 38.942 224.715 39.402C224.286 39.8313 223.734 40.046 223.059 40.046ZM265.416 40.046C264.741 40.046 264.174 39.8313 263.714 39.402C263.285 38.942 263.07 38.3747 263.07 37.7V24.544C263.07 22.612 262.595 21.186 261.644 20.266C260.693 19.3153 259.451 18.84 257.918 18.84C256.323 18.84 255.005 19.392 253.962 20.496C252.95 21.6 252.444 23.0107 252.444 24.728H248.626C248.626 22.7347 249.055 20.9867 249.914 19.484C250.773 17.9507 251.969 16.7547 253.502 15.896C255.066 15.0373 256.845 14.608 258.838 14.608C260.586 14.608 262.135 14.9913 263.484 15.758C264.833 16.5247 265.876 17.6593 266.612 19.162C267.379 20.634 267.762 22.428 267.762 24.544V37.7C267.762 38.3747 267.547 38.942 267.118 39.402C266.689 39.8313 266.121 40.046 265.416 40.046ZM234.734 40.046C234.059 40.046 233.492 39.8313 233.032 39.402C232.603 38.942 232.388 38.3747 232.388 37.7V17.23C232.388 16.5247 232.603 15.9573 233.032 15.528C233.492 15.0987 234.059 14.884 234.734 14.884C235.439 14.884 236.007 15.0987 236.436 15.528C236.865 15.9573 237.08 16.5247 237.08 17.23V37.7C237.08 38.3747 236.865 38.942 236.436 39.402C236.007 39.8313 235.439 40.046 234.734 40.046ZM250.098 40.046C249.423 40.046 248.856 39.8313 248.396 39.402C247.967 38.942 247.752 38.3747 247.752 37.7V24.544C247.752 22.612 247.277 21.186 246.326 20.266C245.375 19.3153 244.133 18.84 242.6 18.84C241.005 18.84 239.687 19.392 238.644 20.496C237.601 21.6 237.08 23.0107 237.08 24.728H234.182C234.182 22.7347 234.581 20.9867 235.378 19.484C236.175 17.9507 237.279 16.7547 238.69 15.896C240.101 15.0373 241.711 14.608 243.52 14.608C245.268 14.608 246.817 14.9913 248.166 15.758C249.515 16.5247 250.558 17.6593 251.294 19.162C252.061 20.634 252.444 22.428 252.444 24.544V37.7C252.444 38.3747 252.229 38.942 251.8 39.402C251.371 39.8313 250.803 40.046 250.098 40.046ZM277.904 50.764C277.229 50.764 276.662 50.534 276.202 50.074C275.773 49.6447 275.558 49.0927 275.558 48.418V27.442C275.589 25.0193 276.156 22.842 277.26 20.91C278.364 18.978 279.867 17.46 281.768 16.356C283.669 15.2213 285.816 14.654 288.208 14.654C290.631 14.654 292.793 15.2213 294.694 16.356C296.595 17.46 298.098 18.978 299.202 20.91C300.337 22.842 300.904 25.0193 300.904 27.442C300.904 29.8647 300.383 32.042 299.34 33.974C298.328 35.8753 296.933 37.3933 295.154 38.528C293.375 39.632 291.367 40.184 289.128 40.184C287.319 40.184 285.647 39.816 284.114 39.08C282.611 38.3133 281.323 37.286 280.25 35.998V48.418C280.25 49.0927 280.035 49.6447 279.606 50.074C279.177 50.534 278.609 50.764 277.904 50.764ZM288.208 36.044C289.772 36.044 291.167 35.676 292.394 34.94C293.621 34.1733 294.587 33.146 295.292 31.858C296.028 30.5393 296.396 29.0673 296.396 27.442C296.396 25.786 296.028 24.314 295.292 23.026C294.587 21.7073 293.621 20.68 292.394 19.944C291.167 19.1773 289.772 18.794 288.208 18.794C286.675 18.794 285.279 19.1773 284.022 19.944C282.795 20.68 281.829 21.7073 281.124 23.026C280.419 24.314 280.066 25.786 280.066 27.442C280.066 29.0673 280.419 30.5393 281.124 31.858C281.829 33.146 282.795 34.1733 284.022 34.94C285.279 35.676 286.675 36.044 288.208 36.044ZM331.866 40.184C329.566 40.184 327.527 39.6473 325.748 38.574C324 37.47 322.62 35.9673 321.608 34.066C320.596 32.134 320.09 29.926 320.09 27.442C320.09 24.9273 320.627 22.7193 321.7 20.818C322.804 18.886 324.307 17.3833 326.208 16.31C328.11 15.206 330.302 14.654 332.786 14.654C335.24 14.654 337.417 15.206 339.318 16.31C341.22 17.3833 342.707 18.886 343.78 20.818C344.884 22.7193 345.436 24.9273 345.436 27.442H342.722C342.722 29.926 342.247 32.134 341.296 34.066C340.376 35.9673 339.104 37.47 337.478 38.574C335.853 39.6473 333.982 40.184 331.866 40.184ZM332.694 50.442C330.517 50.442 328.478 50.0127 326.576 49.154C324.675 48.2953 323.065 47.038 321.746 45.382C321.348 44.8607 321.194 44.324 321.286 43.772C321.409 43.22 321.716 42.7753 322.206 42.438C322.758 42.07 323.326 41.9473 323.908 42.07C324.522 42.1927 325.012 42.4993 325.38 42.99C326.208 44.0327 327.251 44.8453 328.508 45.428C329.766 46.0107 331.192 46.302 332.786 46.302C334.258 46.302 335.608 45.9493 336.834 45.244C338.092 44.5387 339.088 43.496 339.824 42.116C340.56 40.736 340.928 39.0493 340.928 37.056V30.524L342.446 26.476L345.436 27.442V37.378C345.436 39.8007 344.9 41.9933 343.826 43.956C342.753 45.9493 341.25 47.5287 339.318 48.694C337.417 49.8593 335.209 50.442 332.694 50.442ZM332.786 36.044C334.381 36.044 335.792 35.676 337.018 34.94C338.245 34.204 339.196 33.192 339.87 31.904C340.576 30.616 340.928 29.1287 340.928 27.442C340.928 25.7553 340.576 24.268 339.87 22.98C339.196 21.6613 338.245 20.634 337.018 19.898C335.792 19.162 334.381 18.794 332.786 18.794C331.192 18.794 329.781 19.162 328.554 19.898C327.328 20.634 326.362 21.6613 325.656 22.98C324.951 24.268 324.598 25.7553 324.598 27.442C324.598 29.1287 324.951 30.616 325.656 31.904C326.362 33.192 327.328 34.204 328.554 34.94C329.781 35.676 331.192 36.044 332.786 36.044ZM363.827 40.184C361.343 40.184 359.151 39.6473 357.249 38.574C355.348 37.47 353.845 35.9673 352.741 34.066C351.668 32.134 351.131 29.926 351.131 27.442C351.131 24.9273 351.668 22.7193 352.741 20.818C353.845 18.886 355.348 17.3833 357.249 16.31C359.151 15.206 361.343 14.654 363.827 14.654C366.281 14.654 368.458 15.206 370.359 16.31C372.261 17.3833 373.748 18.886 374.821 20.818C375.925 22.7193 376.477 24.9273 376.477 27.442C376.477 29.926 375.941 32.134 374.867 34.066C373.794 35.9673 372.307 37.47 370.405 38.574C368.504 39.6473 366.311 40.184 363.827 40.184ZM363.827 36.044C365.422 36.044 366.833 35.676 368.059 34.94C369.286 34.204 370.237 33.192 370.911 31.904C371.617 30.616 371.969 29.1287 371.969 27.442C371.969 25.7553 371.617 24.268 370.911 22.98C370.237 21.6613 369.286 20.634 368.059 19.898C366.833 19.162 365.422 18.794 363.827 18.794C362.233 18.794 360.822 19.162 359.595 19.898C358.369 20.634 357.403 21.6613 356.697 22.98C355.992 24.268 355.639 25.7553 355.639 27.442C355.639 29.1287 355.992 30.616 356.697 31.904C357.403 33.192 358.369 34.204 359.595 34.94C360.822 35.676 362.233 36.044 363.827 36.044ZM385.806 40C385.132 40 384.564 39.7853 384.104 39.356C383.675 38.896 383.46 38.3287 383.46 37.654V17.184C383.46 16.4787 383.675 15.9113 384.104 15.482C384.564 15.0527 385.132 14.838 385.806 14.838C386.788 14.838 387.616 15.3133 388.29 16.264L397.812 30.018L407.334 16.264C408.009 15.3133 408.837 14.838 409.818 14.838C410.524 14.838 411.091 15.0527 411.52 15.482C411.95 15.9113 412.164 16.4787 412.164 17.184V37.654C412.164 38.3287 411.95 38.896 411.52 39.356C411.091 39.7853 410.524 40 409.818 40C409.144 40 408.576 39.7853 408.116 39.356C407.687 38.896 407.472 38.3287 407.472 37.654V20.91L408.668 21.278L400.204 33.238C399.438 34.3113 398.61 34.848 397.72 34.848C396.831 34.8173 396.018 34.2807 395.282 33.238L386.956 21.278L388.152 20.91V37.654C388.152 38.3287 387.938 38.896 387.508 39.356C387.079 39.7853 386.512 40 385.806 40ZM430.919 40.184C428.68 40.184 426.672 39.632 424.893 38.528C423.114 37.3933 421.704 35.8753 420.661 33.974C419.649 32.042 419.143 29.8647 419.143 27.442C419.143 25.0193 419.695 22.842 420.799 20.91C421.934 18.978 423.452 17.46 425.353 16.356C427.285 15.2213 429.447 14.654 431.839 14.654C434.231 14.654 436.378 15.2213 438.279 16.356C440.18 17.46 441.683 18.978 442.787 20.91C443.922 22.842 444.489 25.0193 444.489 27.442H442.695C442.695 29.8647 442.174 32.042 441.131 33.974C440.119 35.8753 438.724 37.3933 436.945 38.528C435.166 39.632 433.158 40.184 430.919 40.184ZM431.839 36.044C433.403 36.044 434.798 35.676 436.025 34.94C437.252 34.1733 438.218 33.146 438.923 31.858C439.628 30.5393 439.981 29.0673 439.981 27.442C439.981 25.786 439.628 24.314 438.923 23.026C438.218 21.7073 437.252 20.68 436.025 19.944C434.798 19.1773 433.403 18.794 431.839 18.794C430.306 18.794 428.91 19.1773 427.653 19.944C426.426 20.68 425.445 21.7073 424.709 23.026C424.004 24.314 423.651 25.786 423.651 27.442C423.651 29.0673 424.004 30.5393 424.709 31.858C425.445 33.146 426.426 34.1733 427.653 34.94C428.91 35.676 430.306 36.044 431.839 36.044ZM442.143 40.046C441.468 40.046 440.901 39.8313 440.441 39.402C440.012 38.942 439.797 38.3747 439.797 37.7V30.662L440.671 25.786L444.489 27.442V37.7C444.489 38.3747 444.259 38.942 443.799 39.402C443.37 39.8313 442.818 40.046 442.143 40.046Z" fill="black"></path> <path d="M345.334 9.39173L333.355 2.18262C332.944 1.93387 332.437 1.93951 332.03 2.19789L320.642 9.40759C320.017 9.80285 319.814 10.6587 320.186 11.3198C320.559 11.9813 321.368 12.1977 321.991 11.802L332.722 5.00949L344.034 11.8175C344.239 11.9409 344.462 12 344.682 12C345.14 12 345.586 11.7457 345.828 11.2933C346.187 10.6237 345.966 9.7724 345.334 9.39173Z" fill="#B267D4"></path> </svg> 