<?xml version="1.0" encoding="UTF-8"?> <svg xmlns="http://www.w3.org/2000/svg" width="442" height="51" viewBox="0 0 442 51" fill="none"> <path d="M6.992 40C6.31733 40 5.75 39.77 5.29 39.31C4.83 38.85 4.6 38.2827 4.6 37.608V6.466C4.6 5.76067 4.83 5.19333 5.29 4.764C5.75 4.304 6.31733 4.074 6.992 4.074H16.192C18.492 4.074 20.5313 4.58 22.31 5.592C24.0887 6.604 25.4687 8.01467 26.45 9.824C27.462 11.6027 27.968 13.6573 27.968 15.988C27.968 18.2267 27.462 20.22 26.45 21.968C25.4687 23.716 24.0887 25.0807 22.31 26.062C20.5313 27.0433 18.492 27.534 16.192 27.534H9.384V37.608C9.384 38.2827 9.154 38.85 8.694 39.31C8.26467 39.77 7.69733 40 6.992 40ZM9.384 23.118H16.192C17.6027 23.118 18.8447 22.8113 19.918 22.198C20.9913 21.5847 21.8347 20.7413 22.448 19.668C23.0613 18.5947 23.368 17.368 23.368 15.988C23.368 14.516 23.0613 13.228 22.448 12.124C21.8347 10.9893 20.9913 10.1 19.918 9.456C18.8447 8.812 17.6027 8.49 16.192 8.49H9.384V23.118ZM42.3897 40.184C40.1511 40.184 38.1424 39.632 36.3637 38.528C34.5851 37.3933 33.1744 35.8753 32.1317 33.974C31.1197 32.042 30.6137 29.8647 30.6137 27.442C30.6137 25.0193 31.1657 22.842 32.2697 20.91C33.4044 18.978 34.9224 17.46 36.8237 16.356C38.7557 15.2213 40.9177 14.654 43.3097 14.654C45.7017 14.654 47.8484 15.2213 49.7497 16.356C51.6511 17.46 53.1537 18.978 54.2577 20.91C55.3924 22.842 55.9597 25.0193 55.9597 27.442H54.1657C54.1657 29.8647 53.6444 32.042 52.6017 33.974C51.5897 35.8753 50.1944 37.3933 48.4157 38.528C46.6371 39.632 44.6284 40.184 42.3897 40.184ZM43.3097 36.044C44.8737 36.044 46.2691 35.676 47.4957 34.94C48.7224 34.1733 49.6884 33.146 50.3937 31.858C51.0991 30.5393 51.4517 29.0673 51.4517 27.442C51.4517 25.786 51.0991 24.314 50.3937 23.026C49.6884 21.7073 48.7224 20.68 47.4957 19.944C46.2691 19.1773 44.8737 18.794 43.3097 18.794C41.7764 18.794 40.3811 19.1773 39.1237 19.944C37.8971 20.68 36.9157 21.7073 36.1797 23.026C35.4744 24.314 35.1217 25.786 35.1217 27.442C35.1217 29.0673 35.4744 30.5393 36.1797 31.858C36.9157 33.146 37.8971 34.1733 39.1237 34.94C40.3811 35.676 41.7764 36.044 43.3097 36.044ZM53.6137 40.046C52.9391 40.046 52.3717 39.8313 51.9117 39.402C51.4824 38.942 51.2677 38.3747 51.2677 37.7V30.662L52.1417 25.786L55.9597 27.442V37.7C55.9597 38.3747 55.7297 38.942 55.2697 39.402C54.8404 39.8313 54.2884 40.046 53.6137 40.046ZM74.4427 40.184C71.9894 40.184 69.8121 39.678 67.9107 38.666C66.0094 37.654 64.5221 36.2587 63.4487 34.48C62.3754 32.6707 61.8234 30.616 61.7927 28.316H64.0467C64.0467 25.9853 64.5221 23.946 65.4727 22.198C66.4541 20.4193 67.7881 19.024 69.4747 18.012C71.1921 17 73.1547 16.494 75.3627 16.494C77.5707 16.494 79.5181 17 81.2047 18.012C82.9221 19.024 84.2561 20.4193 85.2067 22.198C86.1881 23.946 86.6787 25.9853 86.6787 28.316C86.6787 30.616 86.1574 32.6707 85.1147 34.48C84.0721 36.2587 82.6307 37.654 80.7907 38.666C78.9507 39.678 76.8347 40.184 74.4427 40.184ZM74.4427 36.044C75.9761 36.044 77.3101 35.722 78.4447 35.078C79.6101 34.4033 80.5147 33.4833 81.1587 32.318C81.8334 31.1527 82.1707 29.8187 82.1707 28.316C82.1707 26.8133 81.8334 25.4947 81.1587 24.36C80.5147 23.1947 79.6101 22.29 78.4447 21.646C77.3101 20.9713 75.9761 20.634 74.4427 20.634C72.8481 20.634 71.4374 20.9713 70.2107 21.646C68.9841 22.29 68.0181 23.1947 67.3127 24.36C66.6381 25.4947 66.3007 26.8133 66.3007 28.316C66.3007 29.8187 66.6381 31.1527 67.3127 32.318C68.0181 33.4833 68.9841 34.4033 70.2107 35.078C71.4374 35.722 72.8481 36.044 74.4427 36.044ZM61.7927 28.316L61.8387 23.118C61.8694 19.4993 62.8661 16.1873 64.8287 13.182C66.8221 10.1767 69.9041 7.73866 74.0747 5.868L82.6767 2.05C83.2901 1.80466 83.8421 1.774 84.3327 1.958C84.8234 2.11133 85.1761 2.464 85.3907 3.016C85.6054 3.59867 85.6514 4.13533 85.5287 4.626C85.4367 5.086 84.9921 5.5 84.1947 5.868L74.8567 10.146C72.7101 11.1273 70.9467 12.2927 69.5667 13.642C68.1867 14.9913 67.1594 16.5093 66.4847 18.196C65.8407 19.852 65.4881 21.646 65.4267 23.578L65.3347 28.316H61.7927ZM105.077 40.184C102.593 40.184 100.401 39.6473 98.4993 38.574C96.598 37.47 95.0953 35.9673 93.9913 34.066C92.918 32.134 92.3813 29.926 92.3813 27.442C92.3813 24.9273 92.918 22.7193 93.9913 20.818C95.0953 18.886 96.598 17.3833 98.4993 16.31C100.401 15.206 102.593 14.654 105.077 14.654C107.531 14.654 109.708 15.206 111.609 16.31C113.511 17.3833 114.998 18.886 116.071 20.818C117.175 22.7193 117.727 24.9273 117.727 27.442C117.727 29.926 117.191 32.134 116.117 34.066C115.044 35.9673 113.557 37.47 111.655 38.574C109.754 39.6473 107.561 40.184 105.077 40.184ZM105.077 36.044C106.672 36.044 108.083 35.676 109.309 34.94C110.536 34.204 111.487 33.192 112.161 31.904C112.867 30.616 113.219 29.1287 113.219 27.442C113.219 25.7553 112.867 24.268 112.161 22.98C111.487 21.6613 110.536 20.634 109.309 19.898C108.083 19.162 106.672 18.794 105.077 18.794C103.483 18.794 102.072 19.162 100.845 19.898C99.6186 20.634 98.6526 21.6613 97.9473 22.98C97.242 24.268 96.8893 25.7553 96.8893 27.442C96.8893 29.1287 97.242 30.616 97.9473 31.904C98.6526 33.192 99.6186 34.204 100.845 34.94C102.072 35.676 103.483 36.044 105.077 36.044ZM157.738 40.046C157.064 40.046 156.496 39.8313 156.036 39.402C155.607 38.942 155.392 38.3747 155.392 37.7V24.544C155.392 22.612 154.917 21.186 153.966 20.266C153.016 19.3153 151.774 18.84 150.24 18.84C148.646 18.84 147.327 19.392 146.284 20.496C145.272 21.6 144.766 23.0107 144.766 24.728H140.948C140.948 22.7347 141.378 20.9867 142.236 19.484C143.095 17.9507 144.291 16.7547 145.824 15.896C147.388 15.0373 149.167 14.608 151.16 14.608C152.908 14.608 154.457 14.9913 155.806 15.758C157.156 16.5247 158.198 17.6593 158.934 19.162C159.701 20.634 160.084 22.428 160.084 24.544V37.7C160.084 38.3747 159.87 38.942 159.44 39.402C159.011 39.8313 158.444 40.046 157.738 40.046ZM127.056 40.046C126.382 40.046 125.814 39.8313 125.354 39.402C124.925 38.942 124.71 38.3747 124.71 37.7V17.23C124.71 16.5247 124.925 15.9573 125.354 15.528C125.814 15.0987 126.382 14.884 127.056 14.884C127.762 14.884 128.329 15.0987 128.758 15.528C129.188 15.9573 129.402 16.5247 129.402 17.23V37.7C129.402 38.3747 129.188 38.942 128.758 39.402C128.329 39.8313 127.762 40.046 127.056 40.046ZM142.42 40.046C141.746 40.046 141.178 39.8313 140.718 39.402C140.289 38.942 140.074 38.3747 140.074 37.7V24.544C140.074 22.612 139.599 21.186 138.648 20.266C137.698 19.3153 136.456 18.84 134.922 18.84C133.328 18.84 132.009 19.392 130.966 20.496C129.924 21.6 129.402 23.0107 129.402 24.728H126.504C126.504 22.7347 126.903 20.9867 127.7 19.484C128.498 17.9507 129.602 16.7547 131.012 15.896C132.423 15.0373 134.033 14.608 135.842 14.608C137.59 14.608 139.139 14.9913 140.488 15.758C141.838 16.5247 142.88 17.6593 143.616 19.162C144.383 20.634 144.766 22.428 144.766 24.544V37.7C144.766 38.3747 144.552 38.942 144.122 39.402C143.693 39.8313 143.126 40.046 142.42 40.046ZM178.368 40.184C176.13 40.184 174.121 39.632 172.342 38.528C170.564 37.3933 169.153 35.8753 168.11 33.974C167.098 32.042 166.592 29.8647 166.592 27.442C166.592 25.0193 167.144 22.842 168.248 20.91C169.383 18.978 170.901 17.46 172.802 16.356C174.734 15.2213 176.896 14.654 179.288 14.654C181.68 14.654 183.827 15.2213 185.728 16.356C187.63 17.46 189.132 18.978 190.236 20.91C191.371 22.842 191.938 25.0193 191.938 27.442H190.144C190.144 29.8647 189.623 32.042 188.58 33.974C187.568 35.8753 186.173 37.3933 184.394 38.528C182.616 39.632 180.607 40.184 178.368 40.184ZM179.288 36.044C180.852 36.044 182.248 35.676 183.474 34.94C184.701 34.1733 185.667 33.146 186.372 31.858C187.078 30.5393 187.43 29.0673 187.43 27.442C187.43 25.786 187.078 24.314 186.372 23.026C185.667 21.7073 184.701 20.68 183.474 19.944C182.248 19.1773 180.852 18.794 179.288 18.794C177.755 18.794 176.36 19.1773 175.102 19.944C173.876 20.68 172.894 21.7073 172.158 23.026C171.453 24.314 171.1 25.786 171.1 27.442C171.1 29.0673 171.453 30.5393 172.158 31.858C172.894 33.146 173.876 34.1733 175.102 34.94C176.36 35.676 177.755 36.044 179.288 36.044ZM189.592 40.046C188.918 40.046 188.35 39.8313 187.89 39.402C187.461 38.942 187.246 38.3747 187.246 37.7V30.662L188.12 25.786L191.938 27.442V37.7C191.938 38.3747 191.708 38.942 191.248 39.402C190.819 39.8313 190.267 40.046 189.592 40.046ZM209.501 40.23C207.385 40.23 205.484 39.7853 203.797 38.896C202.141 37.976 200.823 36.642 199.841 34.894C198.891 33.146 198.415 30.9993 198.415 28.454V17.138C198.415 16.4633 198.63 15.9113 199.059 15.482C199.519 15.022 200.087 14.792 200.761 14.792C201.436 14.792 201.988 15.022 202.417 15.482C202.877 15.9113 203.107 16.4633 203.107 17.138V28.454C203.107 30.1713 203.429 31.5973 204.073 32.732C204.717 33.836 205.591 34.664 206.695 35.216C207.799 35.7373 209.041 35.998 210.421 35.998C211.74 35.998 212.905 35.7373 213.917 35.216C214.96 34.6947 215.788 33.9893 216.401 33.1C217.015 32.2107 217.321 31.214 217.321 30.11H220.219C220.219 32.0113 219.744 33.7287 218.793 35.262C217.873 36.7953 216.601 38.0067 214.975 38.896C213.381 39.7853 211.556 40.23 209.501 40.23ZM219.667 40C218.993 40 218.425 39.7853 217.965 39.356C217.536 38.896 217.321 38.3287 217.321 37.654V17.138C217.321 16.4327 217.536 15.8653 217.965 15.436C218.425 15.0067 218.993 14.792 219.667 14.792C220.373 14.792 220.94 15.0067 221.369 15.436C221.799 15.8653 222.013 16.4327 222.013 17.138V37.654C222.013 38.3287 221.799 38.896 221.369 39.356C220.94 39.7853 220.373 40 219.667 40ZM210.467 11.526C208.903 11.526 207.493 11.2653 206.235 10.744C204.978 10.192 203.981 9.456 203.245 8.536C202.509 7.58533 202.141 6.52733 202.141 5.362C202.141 4.718 202.341 4.18133 202.739 3.752C203.138 3.32266 203.629 3.108 204.211 3.108C204.825 3.108 205.315 3.32266 205.683 3.752C206.082 4.18133 206.281 4.718 206.281 5.362C206.281 6.12866 206.68 6.788 207.477 7.34C208.275 7.86133 209.271 8.122 210.467 8.122C211.663 8.122 212.66 7.86133 213.457 7.34C214.255 6.788 214.653 6.12866 214.653 5.362C214.653 4.718 214.853 4.18133 215.251 3.752C215.65 3.32266 216.141 3.108 216.723 3.108C217.337 3.108 217.827 3.32266 218.195 3.752C218.594 4.18133 218.793 4.718 218.793 5.362C218.793 6.52733 218.425 7.58533 217.689 8.536C216.953 9.456 215.957 10.192 214.699 10.744C213.473 11.2653 212.062 11.526 210.467 11.526ZM263.305 40.046C262.63 40.046 262.063 39.8313 261.603 39.402C261.173 38.942 260.959 38.3747 260.959 37.7V24.544C260.959 22.612 260.483 21.186 259.533 20.266C258.582 19.3153 257.34 18.84 255.807 18.84C254.212 18.84 252.893 19.392 251.851 20.496C250.839 21.6 250.333 23.0107 250.333 24.728H246.515C246.515 22.7347 246.944 20.9867 247.803 19.484C248.661 17.9507 249.857 16.7547 251.391 15.896C252.955 15.0373 254.733 14.608 256.727 14.608C258.475 14.608 260.023 14.9913 261.373 15.758C262.722 16.5247 263.765 17.6593 264.501 19.162C265.267 20.634 265.651 22.428 265.651 24.544V37.7C265.651 38.3747 265.436 38.942 265.007 39.402C264.577 39.8313 264.01 40.046 263.305 40.046ZM232.623 40.046C231.948 40.046 231.381 39.8313 230.921 39.402C230.491 38.942 230.277 38.3747 230.277 37.7V17.23C230.277 16.5247 230.491 15.9573 230.921 15.528C231.381 15.0987 231.948 14.884 232.623 14.884C233.328 14.884 233.895 15.0987 234.325 15.528C234.754 15.9573 234.969 16.5247 234.969 17.23V37.7C234.969 38.3747 234.754 38.942 234.325 39.402C233.895 39.8313 233.328 40.046 232.623 40.046ZM247.987 40.046C247.312 40.046 246.745 39.8313 246.285 39.402C245.855 38.942 245.641 38.3747 245.641 37.7V24.544C245.641 22.612 245.165 21.186 244.215 20.266C243.264 19.3153 242.022 18.84 240.489 18.84C238.894 18.84 237.575 19.392 236.533 20.496C235.49 21.6 234.969 23.0107 234.969 24.728H232.071C232.071 22.7347 232.469 20.9867 233.267 19.484C234.064 17.9507 235.168 16.7547 236.579 15.896C237.989 15.0373 239.599 14.608 241.409 14.608C243.157 14.608 244.705 14.9913 246.055 15.758C247.404 16.5247 248.447 17.6593 249.183 19.162C249.949 20.634 250.333 22.428 250.333 24.544V37.7C250.333 38.3747 250.118 38.942 249.689 39.402C249.259 39.8313 248.692 40.046 247.987 40.046ZM285.269 40.184C282.723 40.184 280.454 39.6473 278.461 38.574C276.498 37.47 274.949 35.9673 273.815 34.066C272.711 32.134 272.159 29.926 272.159 27.442C272.159 24.9273 272.68 22.7193 273.723 20.818C274.796 18.886 276.268 17.3833 278.139 16.31C280.009 15.206 282.156 14.654 284.579 14.654C286.971 14.654 289.025 15.1907 290.743 16.264C292.46 17.3067 293.763 18.7633 294.653 20.634C295.573 22.474 296.033 24.6053 296.033 27.028C296.033 27.6107 295.833 28.1013 295.435 28.5C295.036 28.868 294.53 29.052 293.917 29.052H275.379V25.372H293.779L291.893 26.66C291.862 25.1267 291.555 23.762 290.973 22.566C290.39 21.3393 289.562 20.3733 288.489 19.668C287.415 18.9627 286.112 18.61 284.579 18.61C282.831 18.61 281.328 18.9933 280.071 19.76C278.844 20.5267 277.909 21.5847 277.265 22.934C276.621 24.2527 276.299 25.7553 276.299 27.442C276.299 29.1287 276.682 30.6313 277.449 31.95C278.215 33.2687 279.273 34.3113 280.623 35.078C281.972 35.8447 283.521 36.228 285.269 36.228C286.219 36.228 287.185 36.0593 288.167 35.722C289.179 35.354 289.991 34.94 290.605 34.48C291.065 34.1427 291.555 33.974 292.077 33.974C292.629 33.9433 293.104 34.0967 293.503 34.434C294.024 34.894 294.3 35.4 294.331 35.952C294.361 36.504 294.116 36.9793 293.595 37.378C292.552 38.206 291.249 38.8807 289.685 39.402C288.151 39.9233 286.679 40.184 285.269 40.184ZM325.982 40.184C323.682 40.184 321.642 39.6473 319.864 38.574C318.116 37.47 316.736 35.9673 315.724 34.066C314.712 32.134 314.206 29.926 314.206 27.442C314.206 24.9273 314.742 22.7193 315.816 20.818C316.92 18.886 318.422 17.3833 320.324 16.31C322.225 15.206 324.418 14.654 326.902 14.654C329.355 14.654 331.532 15.206 333.434 16.31C335.335 17.3833 336.822 18.886 337.896 20.818C339 22.7193 339.552 24.9273 339.552 27.442H336.838C336.838 29.926 336.362 32.134 335.412 34.066C334.492 35.9673 333.219 37.47 331.594 38.574C329.968 39.6473 328.098 40.184 325.982 40.184ZM326.81 50.442C324.632 50.442 322.593 50.0127 320.692 49.154C318.79 48.2953 317.18 47.038 315.862 45.382C315.463 44.8607 315.31 44.324 315.402 43.772C315.524 43.22 315.831 42.7753 316.322 42.438C316.874 42.07 317.441 41.9473 318.024 42.07C318.637 42.1927 319.128 42.4993 319.496 42.99C320.324 44.0327 321.366 44.8453 322.624 45.428C323.881 46.0107 325.307 46.302 326.902 46.302C328.374 46.302 329.723 45.9493 330.95 45.244C332.207 44.5387 333.204 43.496 333.94 42.116C334.676 40.736 335.044 39.0493 335.044 37.056V30.524L336.562 26.476L339.552 27.442V37.378C339.552 39.8007 339.015 41.9933 337.942 43.956C336.868 45.9493 335.366 47.5287 333.434 48.694C331.532 49.8593 329.324 50.442 326.81 50.442ZM326.902 36.044C328.496 36.044 329.907 35.676 331.134 34.94C332.36 34.204 333.311 33.192 333.986 31.904C334.691 30.616 335.044 29.1287 335.044 27.442C335.044 25.7553 334.691 24.268 333.986 22.98C333.311 21.6613 332.36 20.634 331.134 19.898C329.907 19.162 328.496 18.794 326.902 18.794C325.307 18.794 323.896 19.162 322.67 19.898C321.443 20.634 320.477 21.6613 319.772 22.98C319.066 24.268 318.714 25.7553 318.714 27.442C318.714 29.1287 319.066 30.616 319.772 31.904C320.477 33.192 321.443 34.204 322.67 34.94C323.896 35.676 325.307 36.044 326.902 36.044ZM357.943 40.184C355.459 40.184 353.266 39.6473 351.365 38.574C349.463 37.47 347.961 35.9673 346.857 34.066C345.783 32.134 345.247 29.926 345.247 27.442C345.247 24.9273 345.783 22.7193 346.857 20.818C347.961 18.886 349.463 17.3833 351.365 16.31C353.266 15.206 355.459 14.654 357.943 14.654C360.396 14.654 362.573 15.206 364.475 16.31C366.376 17.3833 367.863 18.886 368.937 20.818C370.041 22.7193 370.593 24.9273 370.593 27.442C370.593 29.926 370.056 32.134 368.983 34.066C367.909 35.9673 366.422 37.47 364.521 38.574C362.619 39.6473 360.427 40.184 357.943 40.184ZM357.943 36.044C359.537 36.044 360.948 35.676 362.175 34.94C363.401 34.204 364.352 33.192 365.027 31.904C365.732 30.616 366.085 29.1287 366.085 27.442C366.085 25.7553 365.732 24.268 365.027 22.98C364.352 21.6613 363.401 20.634 362.175 19.898C360.948 19.162 359.537 18.794 357.943 18.794C356.348 18.794 354.937 19.162 353.711 19.898C352.484 20.634 351.518 21.6613 350.813 22.98C350.107 24.268 349.755 25.7553 349.755 27.442C349.755 29.1287 350.107 30.616 350.813 31.904C351.518 33.192 352.484 34.204 353.711 34.94C354.937 35.676 356.348 36.044 357.943 36.044ZM379.922 40C379.247 40 378.68 39.7853 378.22 39.356C377.79 38.896 377.576 38.3287 377.576 37.654V17.184C377.576 16.4787 377.79 15.9113 378.22 15.482C378.68 15.0527 379.247 14.838 379.922 14.838C380.903 14.838 381.731 15.3133 382.406 16.264L391.928 30.018L401.45 16.264C402.124 15.3133 402.952 14.838 403.934 14.838C404.639 14.838 405.206 15.0527 405.636 15.482C406.065 15.9113 406.28 16.4787 406.28 17.184V37.654C406.28 38.3287 406.065 38.896 405.636 39.356C405.206 39.7853 404.639 40 403.934 40C403.259 40 402.692 39.7853 402.232 39.356C401.802 38.896 401.588 38.3287 401.588 37.654V20.91L402.784 21.278L394.32 33.238C393.553 34.3113 392.725 34.848 391.836 34.848C390.946 34.8173 390.134 34.2807 389.398 33.238L381.072 21.278L382.268 20.91V37.654C382.268 38.3287 382.053 38.896 381.624 39.356C381.194 39.7853 380.627 40 379.922 40ZM425.034 40.184C422.796 40.184 420.787 39.632 419.008 38.528C417.23 37.3933 415.819 35.8753 414.776 33.974C413.764 32.042 413.258 29.8647 413.258 27.442C413.258 25.0193 413.81 22.842 414.914 20.91C416.049 18.978 417.567 17.46 419.468 16.356C421.4 15.2213 423.562 14.654 425.954 14.654C428.346 14.654 430.493 15.2213 432.394 16.356C434.296 17.46 435.798 18.978 436.902 20.91C438.037 22.842 438.604 25.0193 438.604 27.442H436.81C436.81 29.8647 436.289 32.042 435.246 33.974C434.234 35.8753 432.839 37.3933 431.06 38.528C429.282 39.632 427.273 40.184 425.034 40.184ZM425.954 36.044C427.518 36.044 428.914 35.676 430.14 34.94C431.367 34.1733 432.333 33.146 433.038 31.858C433.744 30.5393 434.096 29.0673 434.096 27.442C434.096 25.786 433.744 24.314 433.038 23.026C432.333 21.7073 431.367 20.68 430.14 19.944C428.914 19.1773 427.518 18.794 425.954 18.794C424.421 18.794 423.026 19.1773 421.768 19.944C420.542 20.68 419.56 21.7073 418.824 23.026C418.119 24.314 417.766 25.786 417.766 27.442C417.766 29.0673 418.119 30.5393 418.824 31.858C419.56 33.146 420.542 34.1733 421.768 34.94C423.026 35.676 424.421 36.044 425.954 36.044ZM436.258 40.046C435.584 40.046 435.016 39.8313 434.556 39.402C434.127 38.942 433.912 38.3747 433.912 37.7V30.662L434.786 25.786L438.604 27.442V37.7C438.604 38.3747 438.374 38.942 437.914 39.402C437.485 39.8313 436.933 40.046 436.258 40.046Z" fill="black"></path> <path d="M339.334 9.39173L327.355 2.18262C326.944 1.93387 326.437 1.93951 326.03 2.19789L314.642 9.40759C314.017 9.80285 313.814 10.6587 314.186 11.3198C314.559 11.9813 315.368 12.1977 315.991 11.802L326.722 5.00949L338.034 11.8175C338.239 11.9409 338.462 12 338.682 12C339.14 12 339.586 11.7457 339.828 11.2933C340.187 10.6237 339.966 9.7724 339.334 9.39173Z" fill="#E3B12A"></path> </svg> 