<?xml version="1.0" encoding="UTF-8"?> <svg xmlns="http://www.w3.org/2000/svg" width="73" height="73" viewBox="0 0 73 73" fill="none"> <circle cx="36.5" cy="36.5" r="36.5" fill="#FFF9E8"></circle> <path d="M41.5 41V54H32.5V48.5V42L32 40.5L31 39L29.5 37V33.5H29L28 33L26.5 33.5V38.5L26 40L24.5 41L23 40.5L22 39L21.5 37H21H19.5L18 36.5L17.5 33L15 33.5V29H17.5L18 27.5V25.5L19.5 25H21.5L22 22L23 21C23.6667 21.1667 25.1 21.5 25.5 21.5C25.9 21.5 26.3333 22.5 26.5 23L26 28.5H27L29 29L30.5 28L31.5 26H33.5H35.5L38 25.5L40 26.5L40.5 26C41 25.8333 42.1 25.6 42.5 26C42.9 26.4 43 26.8333 43 27V28.5H44H45H47L47.5 27.5V25.5V24L48 22L49 20.5L51.5 21L52 22L52.5 24.5L53 25H54.5L55.5 25.5L56 28.5H59.5V33H58H56L56.5 35.5L55.5 37H54L52.5 36V37.5L52 40.5L49.5 41L48 39L47.5 33H44V34L43.5 38L41.5 41Z" fill="white"></path> <path d="M59.2333 27.8H56.9333V26.65C56.9333 25.168 55.732 23.9666 54.25 23.9666C53.8513 23.9688 53.4583 24.0608 53.1 24.2357V23.2C53.1 21.5063 51.727 20.1333 50.0333 20.1333C48.3397 20.1333 46.9667 21.5063 46.9667 23.2V27.8H43.9V27.0333C43.9056 25.7686 42.8848 24.7388 41.6201 24.7331C41.0456 24.7305 40.4911 24.944 40.0667 25.3313C39.1999 24.534 37.8667 24.534 37 25.3313C36.1333 24.534 34.8 24.534 33.9333 25.3313C32.999 24.479 31.5505 24.5455 30.6982 25.4798C30.311 25.9043 30.0975 26.4588 30.1 27.0333V27.8H27.0333V23.2C27.0333 21.5063 25.6603 20.1333 23.9667 20.1333C22.273 20.1333 20.9 21.5063 20.9 23.2V24.2357C20.5417 24.0608 20.1487 23.9688 19.75 23.9666C18.268 23.9666 17.0667 25.168 17.0667 26.65V27.8H14.7667C14.3433 27.8 14 28.1432 14 28.5666V33.1666C14 33.59 14.3433 33.9333 14.7667 33.9333H17.0667V35.0833C17.0667 36.5653 18.268 37.7666 19.75 37.7666C20.1487 37.7644 20.5417 37.6724 20.9 37.4975V38.5333C20.9 40.227 22.273 41.6 23.9667 41.6C25.6603 41.6 27.0333 40.227 27.0333 38.5333V33.9333H28.5667V36.4963C28.5642 37.5133 28.9686 38.4892 29.6898 39.2064L31.6333 41.1507V53.8666H33.1667V40.8333C33.1667 40.6299 33.0858 40.435 32.942 40.2913L30.7739 38.1224C30.3437 37.6903 30.1015 37.106 30.1 36.4963V31.6333H34.5904C34.8806 31.6294 35.1557 31.7627 35.3325 31.9929C35.3379 32.0005 35.344 32.0082 35.3494 32.0166C35.3822 32.069 35.408 32.1254 35.426 32.1845C35.4405 32.2318 35.4503 32.2803 35.4552 32.3294C35.4605 32.3775 35.4605 32.4262 35.4552 32.4743C35.4534 32.5001 35.4501 32.5257 35.4452 32.551C35.4279 32.6318 35.3981 32.7093 35.357 32.781C35.2233 33.0184 34.9725 33.1656 34.7 33.1666H32.4C31.9766 33.1666 31.6333 33.5099 31.6333 33.9333V35.4666C31.6332 35.7968 31.8445 36.0898 32.1577 36.1942L33.8444 36.7577C35.2137 37.2123 36.2333 39.2846 36.2333 40.8333H37.7667C37.7667 38.7242 36.4541 36.0094 34.3328 35.3026L33.1667 34.9139V34.7H34.7C35.3452 34.6937 35.9578 34.4153 36.3867 33.9333H43.1333V36.7447C43.1324 37.2421 42.9711 37.7261 42.6733 38.1247L40.9867 40.3733C40.8871 40.506 40.8333 40.6674 40.8333 40.8333V53.8666H42.3667V41.0886L43.9 39.0447C44.3962 38.3804 44.6651 37.5738 44.6667 36.7447V33.9333H46.9667V38.5333C46.9667 40.227 48.3397 41.6 50.0333 41.6C51.727 41.6 53.1 40.227 53.1 38.5333V37.4975C53.4583 37.6724 53.8513 37.7644 54.25 37.7666C55.732 37.7666 56.9333 36.5653 56.9333 35.0833V33.9333H59.2333C59.6567 33.9333 60 33.59 60 33.1666V28.5666C60 28.1432 59.6567 27.8 59.2333 27.8ZM17.0667 32.4H15.5333V29.3333H17.0667V32.4ZM20.9 35.0833C20.9 35.7184 20.3851 36.2333 19.75 36.2333C19.1149 36.2333 18.6 35.7184 18.6 35.0833V26.65C18.6 26.0149 19.1149 25.5 19.75 25.5C20.3851 25.5 20.9 26.0149 20.9 26.65V35.0833ZM25.5 38.5333C25.5 39.3802 24.8135 40.0666 23.9667 40.0666C23.1198 40.0666 22.4333 39.3802 22.4333 38.5333V23.2C22.4333 22.3531 23.1198 21.6666 23.9667 21.6666C24.8135 21.6666 25.5 22.3531 25.5 23.2V38.5333ZM29.3333 30.1C28.9099 30.1 28.5667 30.4432 28.5667 30.8666V32.4H27.0333V29.3333H30.1C30.1009 29.4782 30.1154 29.6228 30.1437 29.7649C30.1521 29.8102 30.1667 29.8516 30.1774 29.8953C30.1951 29.9635 30.2081 30.034 30.2311 30.1H29.3333ZM33.1667 29.3333C33.1667 29.7567 32.8234 30.1 32.4 30.1C31.9766 30.1 31.6333 29.7567 31.6333 29.3333V27.0333C31.6333 26.6099 31.9766 26.2666 32.4 26.2666C32.8234 26.2666 33.1667 26.6099 33.1667 27.0333V29.3333ZM36.2333 29.3333C36.2333 29.7567 35.8901 30.1 35.4667 30.1C35.0433 30.1 34.7 29.7567 34.7 29.3333V27.0333C34.7 26.6099 35.0433 26.2666 35.4667 26.2666C35.8901 26.2666 36.2333 26.6099 36.2333 27.0333V29.3333ZM40.8333 27.0333C40.8333 26.6099 41.1766 26.2666 41.6 26.2666C42.0234 26.2666 42.3667 26.6099 42.3667 27.0333V29.3333C42.3667 29.7567 42.0234 30.1 41.6 30.1C41.1766 30.1 40.8333 29.7567 40.8333 29.3333V27.0333ZM37.7667 27.0333C37.7667 26.6099 38.1099 26.2666 38.5333 26.2666C38.9567 26.2666 39.3 26.6099 39.3 27.0333V29.3333C39.3 29.7567 38.9567 30.1 38.5333 30.1C38.1099 30.1 37.7667 29.7567 37.7667 29.3333V27.0333ZM46.9667 32.4H37C37 32.3923 37 32.3862 37 32.3785C36.9993 32.226 36.9834 32.0739 36.9525 31.9246C36.9479 31.9039 36.9379 31.8848 36.9333 31.8633C36.9195 31.8073 36.8996 31.7552 36.8819 31.7008C36.8495 31.6025 36.8103 31.5068 36.7646 31.414C36.7424 31.368 36.7317 31.3159 36.7064 31.2714C36.7151 31.2655 36.7235 31.2591 36.7317 31.2523C36.7669 31.2293 36.7976 31.2017 36.8313 31.1756C36.8888 31.1327 36.9494 31.0928 37.0031 31.0445C37.0475 31.0844 37.0989 31.1158 37.1464 31.1518C37.194 31.1879 37.2407 31.2285 37.2921 31.2607C37.3645 31.3054 37.4392 31.3461 37.516 31.3826C37.5681 31.4079 37.6172 31.4378 37.6693 31.4593C37.7588 31.4936 37.8505 31.522 37.9438 31.5444C37.9921 31.5574 38.0373 31.5758 38.0871 31.5858C38.382 31.646 38.6861 31.646 38.9811 31.5858C39.0309 31.5758 39.0761 31.5574 39.1244 31.5444C39.2177 31.522 39.3094 31.4936 39.3989 31.4593C39.4533 31.437 39.5024 31.4071 39.5522 31.3826C39.6293 31.3461 39.7042 31.3054 39.7769 31.2607C39.8275 31.227 39.8735 31.1886 39.9218 31.1518C39.9701 31.115 40.0207 31.0844 40.0651 31.0445C40.1096 31.0844 40.161 31.1158 40.2085 31.1518C40.256 31.1879 40.3028 31.2285 40.3542 31.2607C40.4265 31.3054 40.5013 31.3461 40.578 31.3826C40.6302 31.4079 40.6792 31.4378 40.7314 31.4593C40.8209 31.4936 40.9126 31.522 41.0058 31.5444C41.0541 31.5574 41.0994 31.5758 41.1492 31.5858C42.3907 31.8381 43.6017 31.0363 43.854 29.7948C43.8849 29.6429 43.9003 29.4884 43.9 29.3333H46.9667V32.4ZM51.5667 38.5333C51.5667 39.3802 50.8802 40.0666 50.0333 40.0666C49.1865 40.0666 48.5 39.3802 48.5 38.5333V23.2C48.5 22.3531 49.1865 21.6666 50.0333 21.6666C50.8802 21.6666 51.5667 22.3531 51.5667 23.2V38.5333ZM55.4 35.0833C55.4 35.7184 54.8851 36.2333 54.25 36.2333C53.6149 36.2333 53.1 35.7184 53.1 35.0833V26.65C53.1 26.0149 53.6149 25.5 54.25 25.5C54.8851 25.5 55.4 26.0149 55.4 26.65V35.0833ZM58.4667 32.4H56.9333V29.3333H58.4667V32.4Z" fill="#F7C53E"></path> </svg> 