<?xml version="1.0" encoding="UTF-8"?> <svg xmlns="http://www.w3.org/2000/svg" width="674" height="627" viewBox="0 0 674 627" fill="none"> <path d="M540.349 411.847H9.28906V454.056H540.349V411.847Z" fill="white"></path> <path d="M540.347 454.77H9.28957C8.89486 454.77 8.5752 454.45 8.5752 454.056V411.847C8.5752 411.452 8.89486 411.132 9.28957 411.132H540.35C540.744 411.132 541.064 411.452 541.064 411.847V454.056C541.064 454.448 540.742 454.77 540.347 454.77ZM10.0039 453.338H539.632V412.561H10.0039V453.338Z" fill="#404040"></path> <path d="M520.13 66.2482V170.321H286.334C286.334 170.321 293 119.209 343.787 116.513C354.947 115.923 364.734 108.652 368.117 98.0002C372.103 85.4028 381.762 70.4344 404.8 64.372C430.275 57.6897 447.431 65.3532 457.204 72.7221C464.248 78.034 473.479 79.4043 481.715 76.2522C492.336 72.18 502.924 67.4574 520.13 66.2482Z" fill="white"></path> <path d="M520.131 171.035H286.334C286.129 171.035 285.934 170.946 285.798 170.791C285.662 170.635 285.601 170.432 285.626 170.226C285.642 170.096 287.405 157.145 295.407 144.053C302.809 131.939 317.205 117.204 343.751 115.795C354.68 115.22 364.201 107.979 367.439 97.7803C371.269 85.6777 380.829 69.9366 404.622 63.6768C430.242 56.9529 447.596 64.5719 457.639 72.1464C464.554 77.361 473.46 78.6452 481.463 75.5793C482.511 75.179 483.559 74.7704 484.612 74.359C494.374 70.5593 504.47 66.6288 520.083 65.5336C520.281 65.5198 520.475 65.5892 520.623 65.7227C520.767 65.8589 520.85 66.0479 520.85 66.2452V170.318C520.845 170.715 520.525 171.035 520.131 171.035ZM287.171 169.604H519.416V67.018C504.451 68.1743 494.63 71.9963 485.129 75.6933C484.073 76.1046 483.022 76.5132 481.974 76.9163C473.51 80.1574 464.09 78.8037 456.777 73.2916C446.987 65.9061 430.056 58.4872 404.986 65.0611C381.821 71.1569 372.523 86.4533 368.804 98.2139C365.385 108.98 355.35 116.618 343.829 117.227C317.928 118.603 303.88 132.957 296.658 144.756C289.931 155.733 287.688 166.607 287.171 169.604Z" fill="#404040"></path> <path d="M29.5791 182.181V255.533H194.362C194.362 255.533 189.665 219.509 153.868 217.608C146.002 217.194 139.103 212.068 136.721 204.56C133.91 195.682 127.103 185.13 110.864 180.858C92.9106 176.147 80.8163 181.55 73.9312 186.743C68.9667 190.487 62.4595 191.454 56.6556 189.23C49.17 186.362 41.7067 183.035 29.5791 182.181Z" fill="white"></path> <path d="M194.362 256.248H29.5786C29.1839 256.248 28.8643 255.928 28.8643 255.533V182.184C28.8643 181.987 28.9476 181.795 29.0922 181.661C29.2367 181.525 29.4313 181.458 29.6287 181.47C40.6694 182.245 47.802 185.022 54.6983 187.707C55.4377 187.996 56.1743 188.282 56.9109 188.563C62.4813 190.698 68.6855 189.803 73.4999 186.173C80.6157 180.805 92.9046 175.407 111.047 180.166C127.911 184.602 134.688 195.762 137.404 204.343C139.661 211.448 146.293 216.493 153.907 216.893C189.881 218.803 195.023 255.075 195.071 255.439C195.098 255.642 195.034 255.847 194.898 256.003C194.762 256.159 194.567 256.248 194.362 256.248ZM30.293 254.819H193.517C192.536 249.524 185.634 220.012 153.829 218.322C145.623 217.888 138.471 212.446 136.036 204.774C133.429 196.535 126.914 185.82 110.68 181.547C93.0936 176.933 81.2217 182.134 74.3588 187.31C69.1469 191.24 62.4341 192.207 56.3967 189.895C55.6573 189.611 54.9207 189.325 54.1757 189.036C47.5407 186.451 40.6833 183.782 30.2902 182.951V254.819H30.293Z" fill="#404040"></path> <path d="M278.865 16.5H270.773V411.129H278.865V16.5Z" fill="white"></path> <path d="M278.148 17.2172V410.418H271.485V17.2172H278.148ZM279.58 15.7856H270.057V411.847H279.58V15.7856Z" fill="#404040"></path> <path d="M70.6118 429.431L63.6045 432.126L56.5972 433.045L47.4338 432.126L38.8094 427.814C32.3411 424.041 29.6459 419.19 26.9508 414.878L23.8467 404.636V393.317V366.278C23.8467 365.627 24.372 365.102 25.0225 365.102H87.306C87.9565 365.102 88.4818 365.627 88.4818 366.278V390.082V405.175C84.6265 416.495 79.2362 425.119 70.6118 429.431Z" fill="#7C95FA"></path> <path d="M56.1632 433.761C37.9482 433.761 23.1299 418.943 23.1299 400.728V368.559C23.1299 366.26 25.0006 364.387 27.3021 364.387H85.0243C87.3231 364.387 89.1965 366.257 89.1965 368.559V400.728C89.1965 418.943 74.3783 433.761 56.1632 433.761ZM27.3021 365.818C25.79 365.818 24.5614 367.047 24.5614 368.559V400.728C24.5614 418.153 38.7376 432.33 56.1632 432.33C73.5888 432.33 87.765 418.153 87.765 400.728V368.559C87.765 367.047 86.5364 365.818 85.0243 365.818H27.3021Z" fill="#404040"></path> <path d="M56.1629 377.074C74.0106 377.074 88.479 372.89 88.479 367.728C88.479 362.567 74.0106 358.383 56.1629 358.383C38.3151 358.383 23.8467 362.567 23.8467 367.728C23.8467 372.89 38.3151 377.074 56.1629 377.074Z" fill="#404040"></path> <path d="M95.2673 262.158C83.8402 270.786 76.8271 267.547 71.7654 260.843C66.7036 254.138 65.5112 246.508 76.9355 237.88C88.3626 229.252 106.789 234.397 106.789 234.397C106.789 234.397 106.692 253.53 95.2673 262.158Z" fill="#CCCCCC"></path> <path d="M82.8426 268.092C82.2283 268.092 81.6224 268.048 81.0247 267.959C77.3973 267.417 74.1812 265.232 71.1959 261.276C68.2078 257.321 66.9875 253.629 67.4601 249.994C68.0271 245.63 70.9874 241.48 76.505 237.313C82.5758 232.729 90.5506 232.001 96.1738 232.193C102.225 232.401 106.792 233.66 106.984 233.713C107.295 233.799 107.509 234.083 107.506 234.405C107.506 234.603 107.465 239.342 106.008 245.218C104.655 250.677 101.769 258.149 95.6985 262.733C90.9342 266.324 86.7091 268.092 82.8426 268.092ZM94.5282 233.608C88.9273 233.608 82.409 234.644 77.3667 238.45C72.241 242.319 69.3836 246.266 68.8777 250.174C68.4552 253.421 69.5865 256.77 72.3356 260.412C75.0846 264.053 77.9949 266.06 81.2332 266.541C85.1358 267.122 89.7083 265.457 94.834 261.585C104.777 254.077 105.928 238.127 106.058 234.947C104.535 234.583 99.9625 233.608 94.5282 233.608Z" fill="#404040"></path> <path d="M98.9269 316.47C92.0973 316.47 88.5921 313.438 87.8972 306.928C87.5359 303.539 88.0946 300.966 89.6039 299.059C91.4274 296.757 94.7796 295.331 99.569 294.82C100.089 294.764 100.625 294.736 101.159 294.736C109.681 294.736 117.503 301.816 119.321 303.581C117.828 305.819 110.982 315.334 101.859 316.304C100.825 316.418 99.8386 316.47 98.9269 316.47Z" fill="white"></path> <path d="M101.16 294.026V295.455C108.862 295.455 116.031 301.486 118.385 303.682C116.425 306.498 110.041 314.715 101.78 315.596C100.773 315.704 99.8143 315.757 98.9248 315.757C92.4455 315.757 89.2628 313.011 88.6068 306.854C88.2677 303.66 88.7763 301.256 90.1634 299.505C91.8645 297.359 95.0528 296.022 99.642 295.532C100.137 295.48 100.645 295.452 101.157 295.452L101.16 294.026ZM101.16 294.026C100.609 294.026 100.051 294.054 99.4947 294.115C88.7152 295.263 86.5137 300.683 87.1892 307.007C87.7951 312.702 90.5219 317.189 98.9304 317.189C99.8616 317.189 100.862 317.133 101.935 317.019C112.715 315.871 120.236 303.488 120.236 303.488C120.236 303.488 111.278 294.026 101.16 294.026Z" fill="#404040"></path> <path d="M55.7881 377.821C55.4184 377.821 55.1043 377.537 55.0765 377.162C53.8646 361.746 53.2475 338.261 57.1807 313.931C61.8866 284.825 71.8878 261.776 86.9062 245.418C87.1731 245.126 87.6262 245.107 87.9152 245.376C88.2071 245.643 88.2266 246.096 87.9597 246.385C73.6056 262.018 50.4289 299.782 56.5024 377.051C56.533 377.446 56.2384 377.788 55.8464 377.818C55.8242 377.818 55.8075 377.821 55.7881 377.821Z" fill="#404040"></path> <path d="M57.0789 322.156C56.8899 322.156 56.7009 322.081 56.5591 321.931C56.2895 321.645 56.3006 321.192 56.5869 320.922C56.7759 320.744 75.8054 303.041 101.364 304.189C101.759 304.205 102.065 304.539 102.048 304.934C102.031 305.328 101.712 305.651 101.303 305.618C76.3363 304.531 57.7543 321.787 57.5681 321.962C57.4319 322.092 57.2568 322.156 57.0789 322.156Z" fill="#404040"></path> <path d="M562.697 306.015C562.697 306.015 585.798 383.948 573.757 524.69C573.757 524.69 550.425 502.864 531.609 516.412C512.794 529.96 498.807 514.155 498.807 514.155L510.731 305.415L562.697 306.015Z" fill="#7C95FA"></path> <path d="M573.761 525.403C573.583 525.403 573.408 525.336 573.272 525.211C573.044 524.997 550.148 503.947 532.03 516.992C512.909 530.759 498.418 514.79 498.274 514.629C498.149 514.487 498.085 514.304 498.096 514.115L510.021 305.372C510.043 304.994 510.357 304.696 510.735 304.696C510.738 304.696 510.741 304.696 510.743 304.696L562.706 305.302C563.02 305.305 563.295 305.514 563.384 305.814C563.443 306.008 569.227 325.78 573.455 362.494C577.355 396.352 580.696 451.99 574.472 524.75C574.45 525.022 574.272 525.259 574.016 525.356C573.933 525.386 573.847 525.403 573.761 525.403ZM545.275 511.299C557.867 511.299 569.619 520.258 573.166 523.227C579.217 451.3 575.904 396.275 572.04 362.708C568.199 329.332 563.076 310.022 562.156 306.725L511.408 306.136L499.539 513.893C501.326 515.777 514.101 528.138 531.19 515.833C535.749 512.55 540.572 511.299 545.275 511.299Z" fill="#404040"></path> <path d="M544.236 505.292C543.841 505.292 543.521 504.973 543.521 504.578V350.063C543.521 349.668 543.841 349.349 544.236 349.349C544.631 349.349 544.95 349.668 544.95 350.063V504.578C544.95 504.97 544.631 505.292 544.236 505.292Z" fill="#404040"></path> <path d="M655.624 4.91504C664.043 84.4185 642.615 305.984 559.987 305.979L510.735 305.412L510.29 6.13252L655.624 4.91504Z" fill="#7C95FA"></path> <path d="M559.991 306.692C559.988 306.692 559.988 306.692 559.991 306.692L510.727 306.123C510.335 306.117 510.021 305.8 510.021 305.408L509.576 6.1319C509.576 5.73997 509.893 5.41753 510.285 5.41475L655.619 4.19727C655.991 4.20005 656.297 4.46968 656.336 4.83659C663.374 71.3063 649.723 231.083 599.584 286.807C587.712 300.005 574.389 306.692 559.991 306.692ZM511.45 304.702L559.996 305.264C573.967 305.264 586.931 298.734 598.519 285.853C648.222 230.614 661.84 72.2736 654.979 5.63435L511.005 6.84071L511.45 304.702Z" fill="#404040"></path> <path d="M544.324 306.512C544.202 306.512 544.08 306.481 543.966 306.414C543.624 306.217 543.507 305.778 543.704 305.439C544.11 304.735 584.523 234.747 595.228 200.718C595.347 200.343 595.748 200.132 596.126 200.251C596.504 200.371 596.712 200.771 596.593 201.149C585.841 235.325 545.35 305.45 544.941 306.156C544.811 306.384 544.572 306.512 544.324 306.512Z" fill="#404040"></path> <path d="M531.371 306.125C531.043 306.125 530.746 305.897 530.674 305.564C530.415 304.396 524.375 276.87 524.375 266.629C524.375 266.235 524.695 265.915 525.089 265.915C525.484 265.915 525.804 266.235 525.804 266.629C525.804 276.714 532.008 304.972 532.069 305.255C532.155 305.642 531.911 306.023 531.524 306.109C531.474 306.12 531.424 306.125 531.371 306.125Z" fill="#404040"></path> <path d="M671.638 9.11347H2.14358C1.35416 9.11347 0.714844 8.47416 0.714844 7.68474V2.14212C0.714844 1.3527 1.35416 0.713379 2.14358 0.713379H671.636C672.425 0.713379 673.064 1.3527 673.064 2.14212V7.68474C673.067 8.47138 672.428 9.11347 671.638 9.11347Z" fill="white"></path> <path d="M668.867 9.82884H4.91441C2.20426 9.82884 0 7.62458 0 4.91442C0 2.20427 2.20426 0 4.91441 0H668.867C671.577 0 673.781 2.20427 673.781 4.91442C673.781 7.62458 671.577 9.82884 668.867 9.82884ZM4.91441 1.43153C2.99368 1.43153 1.43152 2.99369 1.43152 4.91442C1.43152 6.83516 2.99368 8.39732 4.91441 8.39732H668.867C670.787 8.39732 672.349 6.83516 672.349 4.91442C672.349 2.99369 670.787 1.43153 668.867 1.43153H4.91441Z" fill="#404040"></path> <path d="M406.76 245.417C406.76 245.417 425.494 235.299 438.203 237.728L439.045 186.666C440.852 173.886 432.063 162.053 419.318 160.015C409.378 158.425 399.374 158.481 396.772 164.265L396.808 164.257C393.137 172.646 393.756 182.291 393.756 182.291L393.314 189.593L392.906 189.646C390.546 189.955 389.367 192.673 390.757 194.605L392.603 197.173L392.344 199.934C391.919 204.481 393.292 208.781 395.88 212.133C398.001 214.877 401.225 216.548 404.675 216.898L406.76 245.417Z" fill="white"></path> <path d="M406.759 246.131C406.64 246.131 406.523 246.101 406.415 246.042C406.201 245.925 406.062 245.709 406.045 245.467L404.002 217.531C400.519 217.028 397.378 215.241 395.313 212.567C392.511 208.939 391.204 204.428 391.633 199.864L391.866 197.37L390.176 195.019C389.375 193.904 389.223 192.489 389.767 191.23C390.29 190.027 391.352 189.19 392.633 188.962L393.036 182.288C392.989 181.474 392.55 172.359 396.063 164.165C396.072 164.098 396.088 164.031 396.116 163.967C398.454 158.775 406.295 157.205 419.429 159.303C432.466 161.388 441.574 173.68 439.759 186.716L438.917 237.734C438.914 237.945 438.817 238.142 438.653 238.276C438.489 238.409 438.272 238.465 438.067 238.423C425.744 236.069 407.282 245.937 407.096 246.037C406.993 246.103 406.876 246.131 406.759 246.131ZM397.509 164.376C397.5 164.434 397.484 164.49 397.461 164.546C393.906 172.671 394.462 182.155 394.468 182.249C394.471 182.28 394.471 182.308 394.468 182.338L394.026 189.638C394.006 189.979 393.745 190.26 393.406 190.302L392.997 190.355C392.141 190.466 391.424 191.008 391.079 191.8C390.738 192.592 390.832 193.485 391.338 194.185L393.184 196.753C393.284 196.895 393.331 197.065 393.314 197.237L393.056 199.997C392.661 204.2 393.865 208.353 396.444 211.691C398.387 214.207 401.414 215.844 404.744 216.18C405.089 216.214 405.361 216.494 405.386 216.839L407.393 244.277C411.354 242.27 426.286 235.21 437.502 236.88L438.331 186.652C438.331 186.622 438.333 186.594 438.339 186.563C440.076 174.274 431.493 162.68 419.207 160.718C410.762 159.373 400.199 158.925 397.509 164.376Z" fill="#404040"></path> <path d="M423.024 231.851L401.407 253.346C401.407 253.346 384.693 278.73 394.169 325.108C396.587 336.95 407.925 371.448 407.925 371.448L455.51 371.973C455.507 371.973 468.536 237.669 423.024 231.851Z" fill="#CCCCCC"></path> <path d="M455.509 372.688C455.506 372.688 455.503 372.688 455.5 372.688L407.915 372.163C407.61 372.16 407.34 371.962 407.245 371.671C407.132 371.326 395.868 336.994 393.467 325.25C384.041 279.117 400.638 253.208 400.808 252.952C400.836 252.91 400.866 252.874 400.902 252.838L422.52 231.343C422.675 231.187 422.895 231.109 423.115 231.14C442.375 233.603 453.791 258.13 457.046 304.042C459.453 338.012 456.251 371.704 456.22 372.04C456.184 372.41 455.875 372.688 455.509 372.688ZM408.444 370.739L454.855 371.251C455.745 361.136 465.574 238.689 423.279 232.608L401.967 253.797C401.097 255.187 385.787 280.512 394.871 324.964C397.097 335.866 407.059 366.5 408.444 370.739Z" fill="#404040"></path> <path d="M192.985 430.366C191.403 430.314 176.087 429.599 174.08 422.228C173.308 419.39 173.408 417.166 174.37 415.798C175.106 414.75 176.182 414.442 176.596 414.361L186.205 419.042C186.305 419.092 186.411 419.114 186.519 419.114C186.689 419.114 186.859 419.053 186.992 418.936L217.24 392.377L229.915 416.793L192.985 430.366Z" fill="white"></path> <path d="M217.023 393.52L228.904 416.405L192.863 429.65C188.121 429.511 176.368 427.918 174.767 422.039C174.058 419.44 174.114 417.436 174.926 416.244C175.42 415.518 176.11 415.226 176.504 415.115L185.886 419.688C186.086 419.785 186.3 419.832 186.511 419.832C186.85 419.832 187.189 419.71 187.456 419.476L217.023 393.52ZM217.451 391.241L186.517 418.401L176.707 413.62C176.707 413.62 171.117 414.062 173.388 422.414C175.662 430.765 193.102 431.084 193.102 431.084L230.922 417.186L217.451 391.241Z" fill="#404040"></path> <path d="M176.708 413.619C176.521 423.812 193.102 431.083 193.102 431.083L181.197 442.964L159.985 403.954L176.708 413.619Z" fill="#404040"></path> <path d="M332.295 614.644C332.006 614.644 331.709 614.613 331.409 614.555C325.683 613.432 324.535 612.111 324.318 611.733C324.296 611.694 324.212 611.681 324.226 611.639L330.149 598.652C330.219 598.502 330.233 598.33 330.188 598.171L319.676 558.845L346.936 558.309L341.646 597.566C341.004 602.316 338.074 614.644 332.295 614.644Z" fill="white"></path> <path d="M346.114 559.042L340.935 597.47C340.357 601.74 337.533 613.929 332.296 613.929C332.054 613.929 331.801 613.904 331.546 613.854C326.842 612.933 325.441 611.916 325.063 611.533L330.798 598.949C330.934 598.646 330.965 598.307 330.878 597.987L320.602 559.542L346.114 559.042ZM347.754 557.58L318.748 558.149L329.497 598.357L323.551 611.402C323.551 611.402 322.779 613.592 331.27 615.257C331.623 615.327 331.962 615.36 332.296 615.36C339.973 615.36 342.353 597.665 342.353 597.665L347.754 557.58Z" fill="#404040"></path> <path d="M323.617 611.046C333.735 612.286 342.686 596.547 342.686 596.547L353.271 609.617L312.276 626.679L323.617 611.046Z" fill="#404040"></path> <path d="M405.684 180.89C405.501 180.89 405.317 180.818 405.175 180.679C402.593 178.072 400.036 179.756 399.93 179.828C399.605 180.051 399.16 179.967 398.938 179.642C398.716 179.317 398.793 178.875 399.119 178.65C400.361 177.785 403.441 176.888 406.193 179.67C406.471 179.951 406.468 180.404 406.187 180.682C406.045 180.824 405.865 180.89 405.684 180.89Z" fill="#404040"></path> <path d="M428.48 193.002C428.096 193.002 427.779 192.699 427.765 192.312C427.704 190.564 427.22 189.307 426.334 188.582C425.18 187.637 423.66 187.879 423.646 187.881C423.257 187.945 422.89 187.684 422.823 187.298C422.756 186.909 423.015 186.542 423.401 186.472C423.487 186.456 425.553 186.111 427.223 187.462C428.455 188.46 429.119 190.072 429.197 192.262C429.211 192.657 428.902 192.988 428.507 193.002C428.496 193.002 428.488 193.002 428.48 193.002Z" fill="#404040"></path> <path d="M423.193 194.372C423.116 194.372 423.035 194.358 422.957 194.333C422.585 194.202 422.387 193.796 422.518 193.424C423.822 189.677 427.329 188.493 427.48 188.443C427.858 188.32 428.258 188.526 428.38 188.901C428.502 189.276 428.3 189.679 427.924 189.802C427.894 189.81 424.933 190.83 423.869 193.893C423.766 194.185 423.488 194.372 423.193 194.372Z" fill="#404040"></path> <path d="M465.744 396.781C462.483 380.289 455.509 371.975 455.509 371.975L407.924 371.45L336.704 334.047C328.621 329.803 318.926 330 311.02 334.57L214.316 390.485L229.265 420.38L323.287 380.52L351.731 396.781L325.605 403.344C317.65 405.342 312.168 412.622 312.446 420.819L320.057 574.398C320.057 574.398 350.778 575.371 352.39 574.12C354.002 572.869 360.529 440.252 360.529 440.252H427.763C446.131 440.388 471.587 426.326 465.744 396.781Z" fill="#7C95FA"></path> <path d="M340.082 575.484C333.074 575.484 324.869 575.262 320.035 575.109C319.662 575.098 319.362 574.801 319.343 574.428L311.732 420.85C311.443 412.364 317.205 404.714 325.43 402.646L349.835 396.517L323.24 381.312L229.546 421.036C229.199 421.183 228.796 421.036 228.626 420.697L213.677 390.802C213.508 390.463 213.633 390.051 213.958 389.862L310.662 333.947C318.826 329.224 328.685 329.027 337.035 333.41L408.102 370.733L455.515 371.255C455.723 371.258 455.921 371.35 456.054 371.511C456.343 371.856 463.184 380.156 466.442 396.639C468.724 408.186 466.422 418.529 459.779 426.548C452.513 435.323 440.085 440.961 428.049 440.961C427.952 440.961 427.855 440.961 427.757 440.961H361.207C360.965 445.867 359.445 476.426 357.777 506.749C354.094 573.697 353.332 574.286 352.826 574.678C352.042 575.293 346.578 575.484 340.082 575.484ZM320.738 573.7C331.987 574.044 349.513 574.295 351.84 573.583C353.268 568.06 358.066 475.77 359.817 440.21C359.837 439.829 360.151 439.529 360.531 439.529H427.766C436.633 439.615 450.1 435.999 458.681 425.636C465.038 417.956 467.239 408.024 465.041 396.914C462.167 382.371 456.31 374.182 455.159 372.681L407.916 372.159C407.802 372.156 407.691 372.128 407.591 372.075L336.371 334.672C328.457 330.517 319.115 330.706 311.379 335.181L215.259 390.768L229.605 419.463L323.006 379.864C323.212 379.778 323.445 379.792 323.64 379.9L352.084 396.161C352.337 396.305 352.479 396.589 352.437 396.878C352.398 397.167 352.187 397.403 351.903 397.473L325.775 404.036C318.2 405.94 312.894 412.986 313.158 420.791L320.738 573.7Z" fill="#404040"></path> <path d="M397.023 207.497C396.676 207.497 396.373 207.244 396.317 206.891C396.256 206.501 396.526 206.135 396.915 206.073C399.041 205.745 401.087 204.903 402.83 203.638C403.15 203.408 403.597 203.477 403.828 203.797C404.061 204.116 403.989 204.564 403.669 204.795C401.743 206.193 399.483 207.124 397.132 207.485C397.098 207.494 397.062 207.497 397.023 207.497Z" fill="#404040"></path> <path d="M323.288 381.233C322.893 381.233 322.573 380.913 322.573 380.519V371.974C322.573 371.579 322.893 371.26 323.288 371.26C323.682 371.26 324.002 371.579 324.002 371.974V380.519C324.002 380.913 323.682 381.233 323.288 381.233Z" fill="#404040"></path> <path d="M402.31 185.273C400.795 185.273 399.608 184.445 399.069 183.822C398.81 183.525 398.844 183.072 399.141 182.813C399.438 182.555 399.889 182.585 400.147 182.883C400.211 182.955 401.707 184.598 403.855 183.411C404.203 183.219 404.636 183.347 404.828 183.689C405.02 184.033 404.895 184.47 404.547 184.662C403.755 185.104 402.999 185.273 402.31 185.273Z" fill="#404040"></path> <path d="M351.731 397.494C351.395 397.494 351.095 397.255 351.031 396.91C350.959 396.521 351.214 396.149 351.601 396.077L404.756 386.128L401.923 377.292C401.804 376.916 402.01 376.513 402.388 376.394C402.763 376.272 403.166 376.48 403.288 376.858L406.368 386.467C406.429 386.662 406.407 386.876 406.301 387.051C406.196 387.226 406.021 387.349 405.818 387.387L351.867 397.486C351.82 397.491 351.776 397.494 351.731 397.494Z" fill="#404040"></path> <path d="M360.529 441.102C360.396 441.102 360.262 441.065 360.143 440.988L351.345 435.314C351.015 435.1 350.917 434.658 351.131 434.325C351.345 433.994 351.787 433.897 352.121 434.111L360.918 439.784C361.249 439.998 361.347 440.44 361.132 440.774C360.996 440.988 360.766 441.102 360.529 441.102Z" fill="#404040"></path> <path d="M458.272 268.027C458.5 260.01 460.546 252.172 461.858 244.261C464.876 226.057 464.301 202.602 459.584 184.765C459.578 184.746 459.573 184.732 459.567 184.712C457.268 174.094 446.364 152.268 417.433 152.324C405.45 152.349 399.438 157.338 396.369 164.351L396.377 164.354C403.641 179.84 421.695 185.043 421.695 185.043C421.695 185.043 432.991 182.169 431.876 191.589C430.762 201.009 420.218 197.371 420.218 197.371C414.72 215.161 422.681 222.26 423.774 227.986C425.15 235.216 423.182 242.637 420.905 249.639C418.629 256.638 415.993 263.707 416.01 271.068C416.027 278.428 419.357 286.325 426.042 289.408C437.475 281.236 451.49 297.427 465.321 290.4C459.873 284.513 458.041 276.043 458.272 268.027Z" fill="#404040"></path> <path d="M345.769 288.691C340.432 288.691 337.553 287.368 337.553 286.829C337.553 286.287 340.432 284.966 345.769 284.966C351.106 284.966 353.986 286.289 353.986 286.829C353.986 287.371 351.106 288.691 345.769 288.691Z" fill="white"></path> <path d="M345.769 285.68C349.43 285.68 351.906 286.325 352.907 286.828C351.906 287.334 349.43 287.976 345.769 287.976C342.108 287.976 339.631 287.331 338.631 286.828C339.631 286.322 342.108 285.68 345.769 285.68ZM345.769 284.249C340.835 284.249 336.838 285.402 336.838 286.828C336.838 288.251 340.838 289.408 345.769 289.408C350.703 289.408 354.7 288.254 354.7 286.828C354.7 285.405 350.7 284.249 345.769 284.249Z" fill="#404040"></path> <path d="M345.769 287.237C345.374 287.237 345.055 286.917 345.055 286.522V252.844C345.055 252.45 345.374 252.13 345.769 252.13C346.164 252.13 346.483 252.45 346.483 252.844V286.522C346.483 286.917 346.164 287.237 345.769 287.237Z" fill="#404040"></path> <path d="M345.768 257.336C338.763 257.336 332.762 255.071 330.105 251.427C328.301 248.955 328.134 244.386 329.613 237.842C331.55 229.273 335.758 220.05 336.706 218.035H354.827C355.775 220.05 359.991 229.276 361.929 237.842C363.402 244.38 363.238 248.95 361.434 251.427C358.774 255.073 352.773 257.336 345.768 257.336Z" fill="white"></path> <path d="M354.371 218.755C355.589 221.382 359.416 229.985 361.229 238.004C362.635 244.241 362.507 248.739 360.856 251.01C358.329 254.473 352.55 256.625 345.771 256.625C338.991 256.625 333.21 254.473 330.683 251.01C329.029 248.744 328.901 244.25 330.311 238.007C332.123 229.996 335.948 221.384 337.162 218.758H354.371V218.755ZM355.277 217.323H336.253C336.253 217.323 331.139 227.858 328.915 237.687C327.631 243.366 327.314 248.817 329.527 251.849C332.543 255.985 339.155 258.051 345.768 258.051C352.381 258.051 358.994 255.983 362.01 251.849C364.217 248.817 363.905 243.374 362.621 237.687C360.4 227.858 355.277 217.323 355.277 217.323Z" fill="#404040"></path> <path d="M345.769 257.335C338.765 257.335 332.763 255.07 330.106 251.426C328.391 249.077 328.155 244.835 329.403 238.806C331.293 239.857 335.999 242.108 341.605 242.108C342.603 242.108 343.593 242.036 344.549 241.892C347.96 241.38 350.178 240.644 352.137 239.993C354.742 239.129 356.993 238.381 361.338 238.381C361.569 238.381 361.805 238.384 362.047 238.386C363.392 244.635 363.187 249.019 361.433 251.426C358.775 255.073 352.774 257.335 345.769 257.335Z" fill="#7C95FA"></path> <path d="M361.338 239.099C361.379 239.099 361.421 239.099 361.463 239.099C362.614 244.769 362.408 248.875 360.854 251.007C358.327 254.47 352.549 256.622 345.769 256.622C338.989 256.622 333.208 254.47 330.681 251.007C329.199 248.978 328.941 245.156 329.919 239.888C332.235 241.059 336.568 242.824 341.605 242.824C342.636 242.824 343.665 242.749 344.654 242.599C348.126 242.076 350.378 241.331 352.362 240.672C355.014 239.794 357.11 239.099 361.338 239.099ZM361.338 237.667C353.56 237.667 352.296 240.005 344.44 241.186C343.479 241.331 342.531 241.395 341.605 241.395C334.581 241.395 328.913 237.687 328.913 237.687C327.629 243.366 327.312 248.817 329.525 251.849C332.541 255.985 339.153 258.051 345.766 258.051C352.379 258.051 358.992 255.983 362.008 251.849C364.215 248.817 363.903 243.374 362.619 237.687C362.177 237.676 361.749 237.667 361.338 237.667Z" fill="#404040"></path> <path d="M395.013 250.175L390.63 291.345L363.631 259.306C363.631 259.306 363.37 254.553 362.569 253.422C360.885 251.045 359.162 253.797 356.827 255.799C355.44 256.988 351.748 257.786 349.836 257.483L341.072 255.19C339.573 254.923 338.139 255.921 337.872 257.422C337.622 258.831 338.495 260.165 339.843 260.546C338.448 260.438 337.166 261.391 336.916 262.798C336.733 265.194 338.573 265.513 339.737 266C338.356 266.061 337.653 266.914 337.566 268.404C337.43 270.736 340.174 271.365 341.552 271.609L350.97 273.027L391.178 332.962C395.656 339.705 405.573 339.741 410.054 332.998C413.662 327.569 416.375 318.143 417.531 314.355C423.749 293.996 427.188 251.459 427.188 251.459L395.013 250.175Z" fill="white"></path> <path d="M400.642 338.755C400.642 338.755 400.639 338.755 400.642 338.755C396.584 338.755 392.823 336.737 390.579 333.359L350.55 273.689L341.444 272.318C338.269 271.751 336.729 270.423 336.852 268.363C336.913 267.318 337.263 266.506 337.852 265.981C336.932 265.464 336.062 264.569 336.201 262.745C336.401 261.611 337.088 260.711 338.005 260.221C337.31 259.454 336.971 258.39 337.169 257.297C337.505 255.413 339.312 254.148 341.196 254.487L350.016 256.794C351.778 257.075 355.192 256.26 356.359 255.26C356.832 254.857 357.279 254.415 357.716 253.989C358.98 252.752 360.084 251.691 361.338 251.799C362.016 251.86 362.625 252.269 363.153 253.011C363.964 254.156 364.256 257.831 364.331 259.032L390.099 289.605L394.304 250.101C394.343 249.725 394.654 249.434 395.044 249.461L427.218 250.748C427.413 250.757 427.596 250.843 427.724 250.987C427.852 251.132 427.916 251.324 427.902 251.518C427.868 251.944 424.386 294.367 418.217 314.566L417.965 315.4C416.703 319.57 414.076 328.248 410.651 333.398C408.419 336.753 404.678 338.755 400.642 338.755ZM339.623 261.253C338.639 261.253 337.794 261.947 337.619 262.923C337.516 264.33 338.269 264.685 339.509 265.147C339.684 265.214 339.854 265.275 340.012 265.341C340.321 265.472 340.499 265.797 340.44 266.128C340.382 266.459 340.101 266.703 339.768 266.717C339.078 266.748 338.364 266.976 338.278 268.449C338.205 269.7 339.284 270.484 341.674 270.909L351.075 272.324C351.272 272.354 351.45 272.466 351.562 272.632L391.769 332.567C393.748 335.547 397.064 337.326 400.639 337.326H400.642C404.197 337.326 407.494 335.561 409.456 332.606C412.764 327.631 415.349 319.089 416.591 314.986L416.844 314.149C422.52 295.567 425.914 257.909 426.409 252.149L395.65 250.921L391.336 291.426C391.305 291.709 391.108 291.951 390.835 292.034C390.563 292.118 390.263 292.032 390.079 291.812L363.08 259.774C362.98 259.654 362.922 259.507 362.914 259.351C362.811 257.461 362.452 254.504 361.982 253.839C361.71 253.453 361.449 253.244 361.207 253.225C360.595 253.164 359.642 254.106 358.714 255.012C358.26 255.454 357.794 255.913 357.288 256.346C355.7 257.709 351.737 258.515 349.721 258.195L340.89 255.885C339.837 255.699 338.775 256.441 338.578 257.55C338.394 258.581 339.023 259.574 340.037 259.86C340.39 259.96 340.613 260.31 340.546 260.674C340.482 261.036 340.154 261.292 339.787 261.261C339.731 261.255 339.676 261.253 339.623 261.253Z" fill="#404040"></path> <path d="M343.751 262.612C343.673 262.612 343.595 262.598 343.517 262.573L339.609 261.222C339.236 261.092 339.036 260.686 339.167 260.313C339.295 259.941 339.703 259.744 340.076 259.871L343.984 261.22C344.357 261.35 344.557 261.756 344.426 262.129C344.323 262.426 344.045 262.612 343.751 262.612Z" fill="#404040"></path> <path d="M342.561 267.281C342.514 267.281 342.466 267.276 342.419 267.267L339.595 266.703C339.209 266.625 338.956 266.25 339.034 265.861C339.111 265.475 339.481 265.224 339.876 265.299L342.7 265.864C343.086 265.942 343.339 266.317 343.261 266.706C343.195 267.048 342.897 267.281 342.561 267.281Z" fill="#404040"></path> <path d="M429.415 294.66L386.283 281.546C386.283 281.546 392.065 225.447 420.609 227.86C456.658 230.906 429.415 294.66 429.415 294.66Z" fill="#CCCCCC"></path> <path d="M429.414 295.375C429.344 295.375 429.275 295.367 429.205 295.344L386.074 282.23C385.746 282.13 385.534 281.813 385.57 281.474C385.584 281.332 387.083 267.203 392.069 253.555C398.752 235.265 408.65 226.137 420.669 227.149C427.821 227.755 433.072 230.759 436.271 236.08C440.888 243.757 441.238 256.015 437.316 272.515C434.412 284.723 430.114 294.844 430.073 294.944C429.956 295.211 429.692 295.375 429.414 295.375ZM387.06 281.035L429 293.788C431.045 288.762 444.91 253.222 435.045 236.813C432.096 231.91 427.221 229.136 420.55 228.572C394.549 226.354 387.786 275.109 387.06 281.035Z" fill="#404040"></path> <path d="M401.72 304.955C401.52 304.955 401.319 304.872 401.178 304.705L390.084 291.813C389.826 291.513 389.859 291.062 390.159 290.804C390.459 290.545 390.91 290.582 391.168 290.879L402.262 303.771C402.52 304.071 402.487 304.521 402.187 304.78C402.051 304.899 401.887 304.955 401.72 304.955Z" fill="#404040"></path> <path d="M232.509 432.182C232.437 448.641 232.501 478.878 232.551 498.293C232.576 506.179 229.062 513.526 222.761 518.535C219.164 521.403 214.808 523.232 210.25 523.813C194.6 525.815 181.205 513.623 181.205 498.357V488.559C181.205 486.588 182.898 485.012 184.908 485.21C186.656 485.374 187.949 486.95 187.949 488.706V497.86C187.949 508.328 196.504 517.342 206.972 517.292C212.006 517.267 216.729 515.291 220.284 511.727C223.864 508.139 225.824 503.375 225.807 498.31C225.741 473.051 225.66 429.494 225.88 421.567C225.977 418.053 226.541 415.307 227.333 413.142C227.611 410.29 228.231 407.682 229.09 405.297C230.227 402.118 231.803 399.349 233.61 396.928C240.059 388.306 249.217 383.616 252.381 383.035C258.477 381.907 271.741 382.218 281.245 374.66C282.551 373.623 283.746 372.42 284.775 371.041C286.784 368.37 288.208 365.001 288.73 360.72C289.383 355.319 287.577 349.999 286.32 346.263C285.005 342.358 286.67 338.041 290.34 336.154C291.893 335.345 293.714 334.65 295.765 334.283L300.93 321.444L303.268 334.486C303.782 334.608 304.305 334.739 304.835 334.903L312.157 325.055V432.182H232.509Z" fill="#404040"></path> <path d="M181.922 496.303V488.562C181.922 487.1 183.112 485.91 184.571 485.91C184.66 485.91 184.749 485.916 184.838 485.924C186.18 486.049 187.231 487.272 187.231 488.709V496.306H181.922V496.303Z" fill="white"></path> <path d="M184.57 486.625C184.637 486.625 184.701 486.628 184.773 486.636C185.752 486.728 186.516 487.639 186.516 488.71V495.589H182.636V488.562C182.636 487.495 183.503 486.625 184.57 486.625ZM184.57 485.193C182.711 485.193 181.207 486.703 181.207 488.559V497.018H187.948V488.707C187.948 486.95 186.655 485.374 184.907 485.21C184.793 485.199 184.682 485.193 184.57 485.193Z" fill="#404040"></path> <path d="M235.679 405.78C234.22 405.78 231.99 405.494 230.02 404.863C231.034 402.23 232.435 399.709 234.186 397.358C240.39 389.063 249.324 384.327 252.512 383.74C253.774 383.507 255.353 383.334 257.179 383.137C263.892 382.409 274.035 381.311 281.693 375.221C282.585 374.512 283.408 373.745 284.153 372.922C284.081 374.145 283.747 375.371 283.18 376.444C281.404 379.779 277.952 381.694 275.369 382.715C273.071 383.618 270.591 384.193 268.195 384.752C267.164 384.991 266.13 385.233 265.107 385.497C262.063 386.295 258.188 387.554 255.209 390.217C253.327 391.896 251.94 394.008 250.597 396.051C249.513 397.702 248.393 399.409 247.037 400.832C244.162 403.848 240.11 405.649 235.921 405.775L235.679 405.78Z" fill="white"></path> <path d="M283.011 375.05C282.885 375.414 282.733 375.767 282.555 376.103C280.879 379.25 277.582 381.073 275.114 382.046C272.862 382.93 270.522 383.475 268.039 384.053C267.022 384.289 265.969 384.534 264.926 384.806C261.807 385.623 257.83 386.919 254.736 389.682C252.782 391.425 251.37 393.576 250.002 395.658C248.888 397.356 247.834 398.963 246.519 400.336C243.773 403.216 239.904 404.936 235.907 405.059C235.834 405.061 235.759 405.061 235.682 405.061C234.497 405.061 232.68 404.85 230.976 404.394C231.937 402.082 233.208 399.864 234.759 397.784C241.333 388.995 250.294 384.873 252.646 384.442C253.88 384.214 255.445 384.045 257.254 383.847C264.048 383.111 274.316 381.999 282.138 375.778C282.435 375.544 282.727 375.3 283.011 375.05ZM284.778 371.039C283.75 372.42 282.555 373.621 281.248 374.658C271.745 382.216 258.48 381.907 252.384 383.033C249.221 383.614 240.062 388.303 233.613 396.925C231.807 399.344 230.231 402.115 229.094 405.295C231.34 406.14 234.047 406.49 235.679 406.49C235.77 406.49 235.857 406.49 235.94 406.487C240.287 406.357 244.562 404.461 247.553 401.323C250.633 398.096 252.359 393.715 255.684 390.749C258.355 388.364 261.83 387.097 265.285 386.19C268.751 385.293 272.303 384.687 275.631 383.38C278.966 382.065 282.127 379.939 283.811 376.776C284.731 375.044 285.081 372.968 284.778 371.039Z" fill="#404040"></path> </svg> 