<?xml version="1.0" encoding="UTF-8"?> <svg xmlns="http://www.w3.org/2000/svg" width="96" height="96" viewBox="0 0 96 96" fill="none"> <circle cx="48" cy="48" r="48" fill="#FFF4F6"></circle> <g clip-path="url(#clip0)"> <path d="M61.4448 37.7543L33.488 46.6852C25.2199 52.204 25.7719 60.6604 29.1575 66.7728C32.5431 72.8851 45.9387 72.2028 47.7053 68.7609C49.4718 65.319 55.1146 62.797 58.1323 63.2718C61.15 63.7465 66.3267 64.251 72.4112 60.8685C78.4957 57.486 78.1524 49.6824 74.7668 43.5701C72.0583 38.6802 64.7569 37.6555 61.4448 37.7543Z" fill="white"></path> <path d="M45.0162 54.0681L41.5926 55.1618L40.4989 51.7382C40.3479 51.2655 39.8423 51.0047 39.3696 51.1557L35.9461 52.2494C35.4734 52.4004 35.2126 52.906 35.3636 53.3787L36.4573 56.8023L33.0337 57.8959C32.5611 58.0469 32.3003 58.5526 32.4513 59.0252L33.5449 62.4488C33.6959 62.9214 34.2016 63.1822 34.6742 63.0312L38.0978 61.9376L39.1914 65.3611C39.3424 65.8338 39.8481 66.0946 40.3208 65.9436L43.7443 64.8499C44.217 64.6989 44.4778 64.1933 44.3268 63.7206L43.2331 60.2971L46.6567 59.2034C47.1293 59.0524 47.3901 58.5468 47.2391 58.0741L46.1455 54.6506C45.9945 54.1779 45.4888 53.9171 45.0162 54.0681ZM45.2539 57.7651L41.8304 58.8587C41.3577 59.0097 41.0969 59.5154 41.2479 59.988L42.3416 63.4116L40.6298 63.9584L39.5361 60.5349C39.3851 60.0622 38.8795 59.8014 38.4068 59.9524L34.9833 61.0461L34.4365 59.3343L37.86 58.2406C38.3327 58.0896 38.5935 57.584 38.4425 57.1113L37.3488 53.6878L39.0606 53.1409L40.1542 56.5645C40.3052 57.0371 40.8109 57.2979 41.2836 57.1469L44.7071 56.0533L45.2539 57.7651Z" fill="#D36374"></path> <path d="M76.9196 44.9841C74.379 39.2959 67.077 35.5476 60.9729 36.8042C60.4539 36.9091 59.9408 37.0415 59.4358 37.201L50.021 40.2085L48.9274 36.785L47.2156 37.3318L46.6688 35.6201C46.0648 33.7293 44.0423 32.6862 42.1516 33.2902L37.8721 34.6572C36.9267 34.9593 35.9155 34.4377 35.6135 33.4923C35.3115 32.5469 35.833 31.5357 36.7784 31.2337L50.4727 26.859C52.3634 26.255 53.4066 24.2326 52.8025 22.3418C52.1985 20.4511 50.1761 19.4079 48.2853 20.0119L44.0059 21.379C43.0604 21.681 42.0493 21.1595 41.7473 20.2141L40.6536 16.7905L38.9418 17.3374L40.0355 20.7609C40.6395 22.6517 42.662 23.6948 44.5527 23.0908L48.8322 21.7237C49.7776 21.4217 50.7887 21.9432 51.0908 22.8887C51.3928 23.8341 50.8713 24.8452 49.9258 25.1473L36.2316 29.5219C34.3409 30.1259 33.2977 32.1484 33.9017 34.0391C34.5057 35.9299 36.5282 36.973 38.4189 36.369L42.6984 35.0019C43.6438 34.6999 44.655 35.2215 44.957 36.1669L45.5038 37.8787L43.7921 38.4255L44.8857 41.849L35.471 44.8566C34.9664 45.0191 34.4708 45.2089 33.9868 45.4251C28.2835 47.945 24.5103 55.2314 25.7397 61.3384C27.2802 69.1272 34.8431 74.1925 42.6319 72.6519C45.8036 72.0246 48.6711 70.3464 50.7715 67.8886C51.6631 66.7905 52.8062 65.9235 54.104 65.3611C54.7495 65.0972 55.4139 64.8824 56.0917 64.7185C57.4956 64.4152 58.952 64.4575 60.336 64.8417C68.0397 66.7625 75.8421 62.0745 77.7628 54.3706C78.5444 51.236 78.2474 47.9293 76.9196 44.9841ZM46.0507 39.5904L47.7624 39.0436L48.3093 40.7554L46.5975 41.3022L46.0507 39.5904ZM75.2937 56.0309C72.8068 61.5953 66.6866 64.5741 60.7732 63.0984C59.1075 62.6409 57.3551 62.5975 55.6686 62.9718C55.2991 63.061 54.9302 63.1643 54.5622 63.2819C54.1728 63.4063 53.7971 63.5442 53.4232 63.6967C51.8587 64.3668 50.4793 65.4048 49.402 66.7225C44.8866 72.0021 36.9463 72.6218 31.6665 68.1064C29.5172 66.2683 28.0501 63.7594 27.5019 60.9849C26.4459 55.7364 29.8151 49.2347 34.7146 47.0686C35.1397 46.8785 35.5747 46.7116 36.0178 46.5684L59.9826 38.9127C60.4262 38.7714 60.8769 38.6535 61.3328 38.5597C66.5798 37.4844 73.0936 40.829 75.2776 45.7171C76.7686 48.9922 76.7745 52.7512 75.2937 56.0309Z" fill="#D36374"></path> <path d="M61.0759 42.335C59.1851 42.9391 58.142 44.9615 58.746 46.8523C59.35 48.743 61.3724 49.7862 63.2632 49.1821C65.154 48.5781 66.1971 46.5557 65.5931 44.6649C64.9891 42.7742 62.9666 41.731 61.0759 42.335ZM62.7164 47.4704C61.7709 47.7724 60.7598 47.2509 60.4578 46.3054C60.1557 45.36 60.6773 44.3488 61.6227 44.0468C62.5681 43.7448 63.5793 44.2663 63.8813 45.2118C64.1833 46.1572 63.6617 47.1684 62.7164 47.4704Z" fill="#D36374"></path> <path d="M64.3569 52.6058C62.4661 53.2098 61.423 55.2323 62.027 57.123C62.631 59.0138 64.6534 60.0569 66.5442 59.4529C68.435 58.8489 69.4781 56.8264 68.8741 54.9357C68.2701 53.0449 66.2476 52.0018 64.3569 52.6058ZM65.9974 57.7411C65.0519 58.0431 64.0408 57.5216 63.7388 56.5762C63.4367 55.6307 63.9583 54.6196 64.9037 54.3176C65.8491 54.0156 66.8603 54.5371 67.1623 55.4825C67.4643 56.428 66.9427 57.4391 65.9974 57.7411Z" fill="#D36374"></path> <path d="M56.7252 49.3844C54.8344 49.9884 53.7913 52.0108 54.3953 53.9016C54.9993 55.7923 57.0217 56.8355 58.9125 56.2315C60.8033 55.6275 61.8464 53.605 61.2424 51.7142C60.6384 49.8235 58.6159 48.7804 56.7252 49.3844ZM58.3657 54.5197C57.4202 54.8217 56.4091 54.3002 56.107 53.3547C55.805 52.4093 56.3266 51.3982 57.272 51.0961C58.2174 50.7941 59.2286 51.3156 59.5306 52.2611C59.8326 53.2065 59.311 54.2177 58.3657 54.5197Z" fill="#D36374"></path> <path d="M68.7076 45.5565C66.8168 46.1605 65.7737 48.1829 66.3777 50.0737C66.9817 51.9645 69.0042 53.0076 70.8949 52.4036C72.7857 51.7996 73.8288 49.7771 73.2248 47.8864C72.6208 45.9956 70.5984 44.9525 68.7076 45.5565ZM70.3481 50.6918C69.4027 50.9938 68.3915 50.4723 68.0895 49.5269C67.7875 48.5814 68.309 47.5703 69.2544 47.2683C70.1999 46.9662 71.211 47.4878 71.513 48.4332C71.8151 49.3786 71.2934 50.3898 70.3481 50.6918Z" fill="#D36374"></path> </g> <defs> <clipPath id="clip0"> <rect x="14.1159" y="25.2629" width="53.9178" height="53.9178" transform="rotate(-17.7163 14.1159 25.2629)" fill="white"></rect> </clipPath> </defs> </svg> 