<?xml version="1.0" encoding="UTF-8"?> <svg xmlns="http://www.w3.org/2000/svg" width="650" height="489" viewBox="0 0 650 489" fill="none"> <path d="M649.526 0.475586H427.994V101.129H649.526V0.475586Z" fill="white"></path> <path d="M649.525 101.604H427.994C427.733 101.604 427.521 101.392 427.521 101.131V0.475077C427.521 0.214128 427.733 0.00195312 427.994 0.00195312H649.525C649.786 0.00195312 649.998 0.214128 649.998 0.475077V101.131C649.998 101.392 649.786 101.604 649.525 101.604ZM428.467 100.655H649.049V0.948201H428.467V100.655V100.655Z" fill="#404040"></path> <path d="M549.163 0.474609L470.944 101.128H573.229L549.163 0.474609Z" fill="#7C95FA"></path> <path d="M573.23 101.603H470.943C470.762 101.603 470.597 101.501 470.516 101.337C470.436 101.174 470.458 100.981 470.567 100.837L548.786 0.18407C548.899 0.0401822 549.084 -0.0256628 549.259 0.0109189C549.438 0.0499394 549.579 0.186514 549.62 0.364545L573.689 101.018C573.723 101.159 573.689 101.308 573.601 101.423C573.513 101.535 573.377 101.603 573.23 101.603ZM471.914 100.654H572.633L548.935 1.54247L471.914 100.654Z" fill="#404040"></path> <path d="M649.526 101.603C649.404 101.603 649.282 101.557 649.19 101.464L548.827 0.810651C548.641 0.625304 548.641 0.325334 548.827 0.139987C549.012 -0.0453602 549.312 -0.0453602 549.497 0.139987L649.86 100.793C650.046 100.979 650.046 101.279 649.86 101.464C649.768 101.557 649.646 101.603 649.526 101.603Z" fill="#404040"></path> <path d="M508.87 52.7962C508.783 52.7962 508.695 52.7718 508.614 52.7206L427.737 0.872153C427.518 0.730704 427.452 0.438052 427.593 0.218562C427.735 -0.0009283 428.027 -0.0667745 428.247 0.0746748L509.124 51.9231C509.344 52.0646 509.409 52.3572 509.268 52.5767C509.18 52.7182 509.026 52.7962 508.87 52.7962Z" fill="#404040"></path> <path d="M524.989 336.944H85.6826V404.081H524.989V336.944Z" fill="white"></path> <path d="M524.176 337.758V403.271H86.4947V337.758H524.176ZM525.801 336.134H84.8701V404.895H525.801V336.134V336.134Z" fill="#404040"></path> <path d="M84.8708 423.863L525.802 423.863V404.894L84.8708 404.894V423.863Z" fill="#404040"></path> <path d="M489.73 436.668H510.279V423.864H489.73V436.668Z" fill="#404040"></path> <path d="M100.395 436.668H120.944V423.864H100.395V436.668Z" fill="#404040"></path> <path d="M305.337 405.708C304.888 405.708 304.524 405.344 304.524 404.895V337.175C304.524 336.726 304.888 336.362 305.337 336.362C305.786 336.362 306.149 336.726 306.149 337.175V404.895C306.149 405.344 305.786 405.708 305.337 405.708Z" fill="#404040"></path> <path d="M415.989 365.499C418.754 365.499 421.004 367.748 421.004 370.513C421.004 373.277 418.754 375.527 415.989 375.527C413.225 375.527 410.975 373.277 410.975 370.513C410.978 367.748 413.225 365.499 415.989 365.499ZM415.989 363.874C412.322 363.874 409.351 366.848 409.351 370.513C409.351 374.181 412.322 377.152 415.989 377.152C419.657 377.152 422.628 374.178 422.628 370.513C422.631 366.845 419.657 363.874 415.989 363.874Z" fill="#404040"></path> <path d="M194.055 365.499C196.819 365.499 199.069 367.748 199.069 370.513C199.069 373.277 196.819 375.527 194.055 375.527C191.29 375.527 189.041 373.277 189.041 370.513C189.043 367.748 191.29 365.499 194.055 365.499ZM194.055 363.874C190.387 363.874 187.416 366.848 187.416 370.513C187.416 374.181 190.387 377.152 194.055 377.152C197.723 377.152 200.694 374.178 200.694 370.513C200.696 366.845 197.723 363.874 194.055 363.874Z" fill="#404040"></path> <path d="M162.772 308.119L460.461 308.119V157.316L162.772 157.316V308.119Z" fill="#404040"></path> <path d="M304.396 337.177H318.838V301.009H304.396V337.177Z" fill="#404040"></path> <path d="M329.705 336.132V330.171H293.537V336.132H329.705Z" fill="#404040"></path> <path d="M442.666 299.346C442.666 301.442 444.365 303.141 446.46 303.141C448.556 303.141 450.255 301.442 450.255 299.346C450.255 297.251 448.556 295.552 446.46 295.552C444.365 295.552 442.666 297.251 442.666 299.346Z" fill="#6C75F4"></path> <path d="M428.282 299.346C428.282 300.875 429.521 302.114 431.05 302.114C432.578 302.114 433.817 300.875 433.817 299.346C433.817 297.818 432.578 296.579 431.05 296.579C429.521 296.579 428.282 297.818 428.282 299.346Z" fill="white"></path> <path d="M345.923 285.458C345.758 285.458 345.587 285.408 345.444 285.301L194.759 175.046C194.398 174.782 194.318 174.272 194.583 173.911C194.847 173.551 195.357 173.471 195.717 173.735L346.405 283.993C346.766 284.257 346.846 284.766 346.581 285.127C346.422 285.342 346.174 285.458 345.923 285.458Z" fill="white"></path> <path d="M346.353 254.16C346.187 254.16 346.017 254.111 345.873 254.003L240.385 176.819C240.024 176.554 239.944 176.045 240.209 175.684C240.473 175.323 240.983 175.241 241.343 175.508L346.832 252.692C347.192 252.957 347.272 253.466 347.008 253.827C346.851 254.044 346.603 254.16 346.353 254.16Z" fill="white"></path> <path d="M96.9336 280.35V322.259C96.9336 330.197 103.369 336.629 111.304 336.629H130.709C138.647 336.629 145.079 330.194 145.079 322.259V280.35H96.9336Z" fill="#6C75F4"></path> <path d="M131.391 337.184H110.627C102.774 337.184 96.3828 330.793 96.3828 322.94V280.351C96.3828 280.045 96.6306 279.8 96.9335 279.8H145.082C145.388 279.8 145.633 280.048 145.633 280.351V322.94C145.636 330.793 139.245 337.184 131.391 337.184ZM97.487 280.901V322.94C97.487 330.184 103.382 336.08 110.627 336.08H131.391C138.636 336.08 144.531 330.184 144.531 322.94V280.901H97.487Z" fill="#404040"></path> <path d="M106.023 205.296C105.659 203.493 105.612 201.576 105.948 199.602C107.025 193.252 112.122 188.202 118.482 187.186C128.043 185.655 136.295 192.999 136.295 202.27C136.295 202.782 136.27 203.286 136.221 203.785C135.527 210.828 136.948 217.885 140.588 223.957C142.84 227.713 144.041 232.168 143.788 236.921C143.207 247.789 133.489 257.674 122.632 258.426C109.299 259.348 98.1943 248.805 98.1943 235.671C98.1943 230.954 99.6262 226.573 102.077 222.935C105.579 217.737 107.262 211.434 106.023 205.296Z" fill="#E6E6E6"></path> <path d="M120.988 259.029C115.046 259.029 109.448 256.832 105.073 252.748C100.353 248.343 97.6465 242.117 97.6465 235.663C97.6465 230.99 99.0233 226.48 101.625 222.619C105.266 217.222 106.637 211.107 105.486 205.404C105.098 203.479 105.07 201.494 105.409 199.509C106.532 192.875 111.753 187.701 118.4 186.639C123.051 185.892 127.748 187.195 131.287 190.21C134.825 193.228 136.854 197.622 136.854 202.268C136.854 202.791 136.829 203.317 136.777 203.837C136.075 210.958 137.559 217.814 141.07 223.671C143.466 227.664 144.597 232.257 144.347 236.949C143.749 248.114 133.825 258.2 122.679 258.974C122.106 259.01 121.547 259.029 120.988 259.029ZM106.562 205.186C107.771 211.181 106.342 217.594 102.537 223.239C100.059 226.915 98.7479 231.213 98.7479 235.665C98.7479 241.814 101.328 247.748 105.825 251.944C110.384 256.199 116.343 258.302 122.594 257.873C133.214 257.138 142.667 247.528 143.237 236.891C143.477 232.419 142.397 228.044 140.117 224.241C136.483 218.18 134.946 211.09 135.673 203.733C135.72 203.251 135.745 202.761 135.745 202.273C135.745 197.95 133.856 193.864 130.565 191.055C127.275 188.249 122.899 187.038 118.571 187.734C112.488 188.709 107.523 193.627 106.494 199.699C106.177 201.546 106.202 203.394 106.562 205.186Z" fill="#404040"></path> <path d="M121.008 280.901C120.702 280.901 120.457 280.653 120.457 280.35V215.793C120.457 215.487 120.705 215.242 121.008 215.242C121.313 215.242 121.558 215.49 121.558 215.793V280.35C121.561 280.653 121.313 280.901 121.008 280.901Z" fill="#404040"></path> <path d="M389.154 327.174H459.843V324.222H389.154V327.174Z" fill="#6C75F4"></path> <path d="M459.845 327.637H389.156C388.9 327.637 388.69 327.431 388.69 327.172V324.22C388.69 323.964 388.897 323.755 389.156 323.755H459.845C460.101 323.755 460.31 323.961 460.31 324.22V327.172C460.307 327.431 460.101 327.637 459.845 327.637ZM389.618 326.709H459.379V324.686H389.618V326.709Z" fill="#404040"></path> <path d="M389.154 337.178H459.843V334.215H389.154V337.178Z" fill="#6C75F4"></path> <path d="M459.845 337.642H389.156C388.9 337.642 388.69 337.435 388.69 337.176V334.213C388.69 333.957 388.897 333.748 389.156 333.748H459.845C460.101 333.748 460.31 333.955 460.31 334.213V337.176C460.307 337.432 460.101 337.642 459.845 337.642ZM389.618 336.714H459.379V334.679H389.618V336.714Z" fill="#404040"></path> <path d="M417.298 326.728H389.619V334.732H417.298V326.728Z" fill="white"></path> <path d="M416.836 327.189V334.265H390.085V327.189H416.836ZM417.764 326.261H389.157V335.196H417.764V326.261V326.261Z" fill="#404040"></path> <path d="M460.016 326.728H417.041V334.732H460.016V326.728Z" fill="white"></path> <path d="M459.553 327.189V334.265H417.506V327.189H459.553ZM460.48 326.261H416.575V335.196H460.48V326.261Z" fill="#404040"></path> <path d="M459.991 329.307H417.341C417.085 329.307 416.876 329.1 416.876 328.841C416.876 328.585 417.083 328.376 417.341 328.376H459.991C460.247 328.376 460.456 328.583 460.456 328.841C460.456 329.1 460.25 329.307 459.991 329.307Z" fill="#404040"></path> <path d="M446.029 331.215H422.563C422.307 331.215 422.098 331.008 422.098 330.75C422.098 330.493 422.304 330.284 422.563 330.284H446.029C446.285 330.284 446.494 330.491 446.494 330.75C446.491 331.006 446.285 331.215 446.029 331.215Z" fill="#404040"></path> <path d="M459.846 333.12H438.531C438.275 333.12 438.065 332.914 438.065 332.655C438.065 332.399 438.272 332.189 438.531 332.189H459.846C460.102 332.189 460.311 332.396 460.311 332.655C460.309 332.914 460.102 333.12 459.846 333.12Z" fill="#404040"></path> <path d="M416.63 333.12H400.266C400.01 333.12 399.801 332.914 399.801 332.655C399.801 332.399 400.007 332.189 400.266 332.189H416.63C416.887 332.189 417.096 332.396 417.096 332.655C417.096 332.914 416.887 333.12 416.63 333.12Z" fill="#404040"></path> <path d="M405.78 331.091H389.721C389.465 331.091 389.256 330.884 389.256 330.626C389.256 330.369 389.462 330.16 389.721 330.16H405.78C406.036 330.16 406.245 330.367 406.245 330.626C406.242 330.884 406.036 331.091 405.78 331.091Z" fill="#404040"></path> <path d="M422.56 319.316H394.375V324.223H422.56V319.316Z" fill="white"></path> <path d="M422.563 324.685H394.377C394.121 324.685 393.912 324.479 393.912 324.22V319.313C393.912 319.057 394.119 318.848 394.377 318.848H422.563C422.819 318.848 423.028 319.054 423.028 319.313V324.22C423.025 324.479 422.819 324.685 422.563 324.685ZM394.84 323.757H422.097V319.781H394.84V323.757Z" fill="#404040"></path> <path d="M464.995 319.316H422.561V324.223H464.995V319.316Z" fill="#6C75F4"></path> <path d="M464.993 324.685H422.558C422.302 324.685 422.093 324.479 422.093 324.22V319.313C422.093 319.057 422.299 318.848 422.558 318.848H464.993C465.249 318.848 465.458 319.054 465.458 319.313V324.22C465.458 324.479 465.249 324.685 464.993 324.685ZM423.023 323.757H464.528V319.781H423.023V323.757Z" fill="#404040"></path> <path d="M416.031 321.243H394.375C394.118 321.243 393.909 321.037 393.909 320.778C393.909 320.522 394.116 320.312 394.375 320.312H416.031C416.287 320.312 416.497 320.519 416.497 320.778C416.497 321.034 416.287 321.243 416.031 321.243Z" fill="#404040"></path> <path d="M418.876 322.981H407.416C407.159 322.981 406.95 322.774 406.95 322.515C406.95 322.259 407.157 322.05 407.416 322.05H418.876C419.132 322.05 419.341 322.256 419.341 322.515C419.341 322.774 419.135 322.981 418.876 322.981Z" fill="#404040"></path> <path d="M79.3545 437.374L71.8772 471.117L55.2959 428.375L73.6867 422.766L79.3545 437.374Z" fill="#404040"></path> <path d="M174.582 459.729L203.584 478.527L157.74 479.124L158.916 459.933L174.582 459.729Z" fill="#404040"></path> <path d="M209.782 265.258L188.068 461.419H151.105L167.421 302.617L150.474 364.845C149.257 369.313 146.959 373.413 143.784 376.783L82.6001 441.742L56.7441 419.935L112.651 348.871L128.398 265.258H209.782Z" fill="#7C95FA"></path> <path d="M188.066 461.893H151.106C150.972 461.893 150.845 461.837 150.755 461.737C150.665 461.637 150.621 461.505 150.635 461.371L166.361 308.323L150.933 364.971C149.701 369.498 147.348 373.695 144.131 377.109L82.947 442.068C82.7738 442.251 82.4885 442.268 82.2958 442.105L56.4423 420.297C56.2472 420.134 56.218 419.844 56.3765 419.641L112.212 348.668L127.933 265.167C127.974 264.942 128.169 264.781 128.399 264.781H209.783C209.917 264.781 210.046 264.837 210.137 264.94C210.227 265.04 210.268 265.174 210.254 265.308L188.539 461.469C188.512 461.713 188.307 461.893 188.066 461.893ZM151.633 460.947H187.644L209.254 265.732H128.791L113.122 348.961C113.107 349.036 113.076 349.107 113.029 349.165L57.4057 419.871L82.5665 441.093L143.443 376.46C146.553 373.158 148.828 369.1 150.021 364.722L166.968 302.495C167.034 302.256 167.268 302.109 167.512 302.153C167.753 302.199 167.921 302.421 167.897 302.668L151.633 460.947Z" fill="#404040"></path> <path d="M125.604 280.582C125.343 280.582 125.131 280.37 125.131 280.109C125.131 279.848 125.343 279.636 125.604 279.636C126.17 279.636 139.52 279.453 142.627 265.313C142.683 265.057 142.934 264.898 143.19 264.952C143.446 265.008 143.607 265.262 143.551 265.515C140.278 280.409 125.75 280.582 125.604 280.582Z" fill="#404040"></path> <path d="M208.449 277.767C208.378 277.767 208.305 277.752 208.236 277.716C205.612 276.399 203.893 273.806 203.269 270.214C202.805 267.546 203.1 265.29 203.113 265.195C203.147 264.937 203.386 264.756 203.644 264.788C203.903 264.822 204.086 265.061 204.051 265.319C204.039 265.407 202.959 274.009 208.661 276.867C208.895 276.984 208.99 277.269 208.873 277.504C208.79 277.672 208.622 277.767 208.449 277.767Z" fill="#404040"></path> <path d="M167.422 303.094C167.383 303.094 167.344 303.089 167.305 303.079C167.051 303.014 166.9 302.755 166.964 302.501L169.641 292.081C169.658 292.012 169.693 291.949 169.737 291.895L176.648 283.635C176.816 283.435 177.114 283.408 177.316 283.577C177.516 283.745 177.543 284.042 177.375 284.245L170.532 292.422L167.881 302.74C167.827 302.95 167.634 303.094 167.422 303.094Z" fill="#404040"></path> <path d="M295.87 50.7373C296.699 49.7325 296.555 48.2449 295.55 47.4181C294.545 46.5889 293.167 46.5621 292.338 47.5669C293.438 46.2329 293.248 44.2575 291.914 43.1576C289.929 41.6407 287.368 43.7356 286.268 45.0696C287.368 43.7356 288.546 40.8212 286.936 39.6189C285.951 38.8068 284.393 38.6483 282.659 39.9481L282.661 39.9506C280.037 39.3628 278.405 40.9944 277.076 43.3307L270.857 54.2613L281.534 63.6409L295.87 50.7373Z" fill="white"></path> <path d="M281.532 64.1165C281.42 64.1165 281.31 64.0774 281.22 63.9994L270.543 54.6199C270.375 54.4711 270.333 54.2248 270.443 54.0297L276.662 43.0991C277.715 41.248 279.466 38.8824 282.546 39.4458C284.217 38.2752 285.956 38.202 287.236 39.2555C287.756 39.6409 288.085 40.2359 288.173 40.9627C288.248 41.5846 288.141 42.2821 287.924 42.9625C289.234 42.1284 290.814 41.7187 292.199 42.7796C293.294 43.6819 293.726 45.0891 293.433 46.3768C293.572 46.3499 293.716 46.3329 293.862 46.328C294.557 46.3134 295.262 46.567 295.848 47.0499C297.052 48.0425 297.225 49.8325 296.23 51.0373C296.216 51.0544 296.199 51.0714 296.182 51.0885L281.847 63.9945C281.759 64.0774 281.647 64.1165 281.532 64.1165ZM271.457 54.1614L281.53 63.0093L295.526 50.4105C295.831 50.0252 295.974 49.5472 295.926 49.057C295.877 48.5546 295.638 48.1034 295.248 47.784C294.838 47.445 294.357 47.2694 293.889 47.2791C293.421 47.2913 293.011 47.4962 292.704 47.8693C292.538 48.0717 292.241 48.101 292.038 47.9327C291.836 47.7669 291.807 47.4669 291.975 47.2669C292.906 46.1353 292.745 44.4575 291.614 43.5258C289.941 42.2479 287.624 44.1746 286.636 45.3744C286.47 45.5769 286.173 45.6061 285.971 45.4378C285.856 45.3452 285.797 45.2086 285.797 45.072C285.797 44.9647 285.834 44.8599 285.905 44.7696C286.656 43.8575 287.378 42.2552 287.236 41.0773C287.178 40.6017 286.987 40.2481 286.656 40.0018C285.68 39.197 284.312 39.3165 282.973 40.3091C282.861 40.4066 282.71 40.4481 282.561 40.414C280.52 39.9555 279.008 40.9017 277.491 43.5673L271.457 54.1614ZM295.87 50.7373H295.874H295.87Z" fill="#404040"></path> <path d="M281.075 42.2481C280.977 42.2481 280.877 42.2188 280.792 42.1554C280.582 41.9993 280.538 41.7018 280.694 41.4921C281.328 40.6409 281.994 39.9508 282.674 39.4411C282.884 39.285 283.182 39.3264 283.338 39.5362C283.494 39.7459 283.452 40.0434 283.243 40.1995C282.638 40.6531 282.035 41.2799 281.455 42.0579C281.362 42.1823 281.221 42.2481 281.075 42.2481Z" fill="#404040"></path> <path d="M18.944 107.392C16.8588 106.002 14.7566 104.568 12.6397 103.088L4.83073 104.502C3.76011 104.697 2.73338 103.985 2.54072 102.915C2.34561 101.844 3.05774 100.817 4.12836 100.625L11.9373 99.2101L11.9666 99.215L2.38951 97.1323C1.07501 96.8469 0.243387 95.5495 0.528724 94.2374C0.814061 92.9229 2.11149 92.0913 3.42355 92.3767L13.0006 94.4594L13.1494 94.4106L3.82596 89.8696C2.61389 89.2867 2.10662 87.8332 2.68949 86.6211C3.27235 85.4091 4.7283 84.9018 5.93794 85.4847L14.3907 89.6062C13.6786 87.9356 13.3689 86.4016 13.3226 85.014C13.2201 81.9167 17.7246 81.3973 18.3977 84.4214C19.122 87.6723 19.8414 90.3086 19.8414 90.3086C21.2193 91.1061 23.8874 92.623 25.2458 93.3839L18.944 107.392Z" fill="white"></path> <path d="M18.9439 107.865C18.8512 107.865 18.761 107.838 18.6805 107.784C16.6246 106.414 14.5565 105.004 12.5299 103.587L4.91357 104.968C3.58443 105.212 2.31139 104.324 2.07239 102.997C1.83095 101.67 2.71623 100.395 4.04292 100.156L9.52042 99.1634L2.28944 97.5904C1.53098 97.4245 0.882265 96.9758 0.462795 96.3222C0.0433252 95.6686 -0.0981266 94.8907 0.0677104 94.1322C0.233547 93.3737 0.682282 92.725 1.33587 92.3031C1.98947 91.8836 2.76744 91.7422 3.5259 91.908L9.69845 93.2494L3.61858 90.2887C2.92109 89.9521 2.39431 89.3644 2.13824 88.6303C1.88216 87.8962 1.92606 87.1085 2.26262 86.4086C2.95767 84.9648 4.69896 84.3551 6.14271 85.0502L13.5225 88.6498C13.1127 87.428 12.8859 86.2135 12.8469 85.0234C12.7859 83.1479 14.1687 82.1163 15.4784 81.9505C16.8148 81.7798 18.4439 82.448 18.8585 84.3137C19.4609 87.0256 20.0706 89.3351 20.2462 89.9912C21.6436 90.796 24.158 92.2275 25.4749 92.964C25.6895 93.0835 25.7773 93.3469 25.6749 93.5713L19.378 107.585C19.3219 107.711 19.2097 107.806 19.078 107.845C19.0317 107.858 18.9878 107.865 18.9439 107.865ZM12.6396 102.612C12.7372 102.612 12.8298 102.641 12.9103 102.697C14.8296 104.041 16.7904 105.382 18.7414 106.687L24.6311 93.581C23.1873 92.7689 20.8412 91.4325 19.5999 90.7155C19.4926 90.6521 19.4121 90.5496 19.3804 90.4301C19.3731 90.4033 18.6488 87.745 17.9318 84.521C17.644 83.2284 16.5514 82.7724 15.5954 82.8919C14.6662 83.0089 13.7493 83.704 13.7907 84.9941C13.8395 86.433 14.1858 87.9206 14.8223 89.4156C14.9004 89.5985 14.8565 89.8082 14.7126 89.9448C14.5687 90.0814 14.3565 90.1131 14.1785 90.0277L5.72568 85.9062C4.75504 85.438 3.57955 85.8501 3.11131 86.8232C2.8845 87.2939 2.85523 87.828 3.02839 88.3206C3.20154 88.8157 3.55517 89.2132 4.02829 89.44L13.3542 93.981C13.5273 94.0664 13.6322 94.2468 13.62 94.4395C13.6078 94.6322 13.4786 94.798 13.2957 94.8565L13.1469 94.9053C13.0664 94.9321 12.981 94.937 12.8981 94.9175L3.32104 92.8348C2.8089 92.7226 2.28456 92.8177 1.84558 93.1006C1.40416 93.3835 1.10176 93.82 0.989572 94.3322C0.877389 94.8443 0.9725 95.3687 1.2554 95.8076C1.5383 96.2491 1.97727 96.5515 2.48698 96.6637L12.0641 98.7464C12.3128 98.8 12.4738 99.039 12.4299 99.2902C12.3884 99.5219 12.1811 99.6634 11.9568 99.6829L4.20876 101.088C3.81611 101.158 3.47225 101.38 3.24544 101.707C3.01864 102.036 2.93084 102.434 3.00157 102.826C3.14789 103.639 3.93074 104.18 4.74285 104.034L12.5518 102.619C12.5835 102.614 12.6104 102.612 12.6396 102.612Z" fill="#404040"></path> <path d="M17.5473 98.0914C17.4595 98.0914 17.3692 98.067 17.2888 98.0133C12.8355 95.1039 13.8476 89.5947 13.8574 89.5386C13.9062 89.2825 14.1549 89.1142 14.411 89.1654C14.6671 89.2142 14.8353 89.463 14.7866 89.719C14.7476 89.919 13.8915 94.6649 17.8058 97.2207C18.0253 97.3646 18.0862 97.6573 17.9423 97.8768C17.8521 98.0158 17.7009 98.0914 17.5473 98.0914Z" fill="#404040"></path> <path d="M190.379 266.405C166.655 266.405 129.042 265.625 128.666 265.617C128.42 265.613 128.217 265.417 128.203 265.169C128.161 264.435 124.21 191.671 125.947 160.187C112.719 157.921 50.7031 145.617 16.6407 109.358C16.5066 109.214 16.4724 108.999 16.5602 108.823L25.252 91.2862C25.3081 91.1716 25.4081 91.0862 25.5276 91.0472C25.5764 91.0301 25.6251 91.0228 25.6764 91.0228C25.752 91.0228 25.8251 91.0399 25.8934 91.074C26.5738 91.4227 94.4938 125.98 144.084 125.98C144.086 125.98 144.089 125.98 144.091 125.98C144.508 125.98 144.93 125.978 145.345 125.973L155.339 124.732C155.358 124.729 155.378 124.727 155.395 124.727L178.124 124.661C216.133 105.124 238.67 86.4574 250.881 74.2342C264.121 60.9819 268.418 52.2413 268.459 52.156C268.523 52.0218 268.647 51.9267 268.791 51.8974C268.823 51.8901 268.854 51.8877 268.886 51.8877C269.001 51.8877 269.11 51.9291 269.198 52.0048L284.533 65.4766C284.689 65.6131 284.738 65.8375 284.653 66.0277C270.12 98.3294 248.054 121.054 232.1 134.433C216.262 147.712 203.146 154.663 200.947 155.789C213.336 221.302 210.285 264.859 210.253 265.291C210.204 265.935 210.17 266.4 190.384 266.4C190.382 266.405 190.382 266.405 190.379 266.405Z" fill="white"></path> <path d="M268.888 52.3652L284.223 65.837C256.162 128.209 200.417 155.53 200.417 155.53C212.774 220.668 209.901 263.683 209.781 265.258C209.745 265.758 201.546 265.929 190.374 265.929C166.381 265.929 128.675 265.141 128.675 265.141C128.675 265.141 124.627 191.373 126.443 159.791C110.101 157.04 49.9438 144.119 16.9861 109.035L25.678 91.4979C25.678 91.4979 93.8101 126.458 144.095 126.458C144.512 126.458 144.937 126.455 145.354 126.45L155.402 125.204L178.246 125.138C252.126 87.1861 268.888 52.3652 268.888 52.3652ZM268.888 51.4189C268.824 51.4189 268.761 51.4263 268.7 51.4385C268.41 51.497 268.163 51.6897 268.034 51.9555C267.973 52.0799 263.674 60.779 250.494 73.9582C238.318 86.135 215.866 104.723 178.011 124.192L155.397 124.258C155.358 124.258 155.321 124.26 155.282 124.265L145.288 125.504C144.893 125.509 144.49 125.512 144.095 125.512C118.261 125.512 87.5669 116.039 66.3641 108.091C43.364 99.4702 26.2828 90.7418 26.1121 90.6565C25.9779 90.5882 25.8292 90.5516 25.6804 90.5516C25.5804 90.5516 25.4804 90.5662 25.3829 90.6004C25.1414 90.6809 24.9439 90.8516 24.8293 91.0784L16.1374 108.616C15.9619 108.969 16.0253 109.396 16.296 109.686C30.4726 124.777 51.1022 137.476 77.6142 147.429C99.4779 155.638 118.859 159.437 125.453 160.586C123.773 192.317 127.692 264.466 127.731 265.198C127.758 265.693 128.163 266.083 128.658 266.093C129.036 266.1 166.647 266.88 190.376 266.88C196.378 266.88 201.055 266.831 204.284 266.731C206.074 266.678 207.457 266.605 208.394 266.522C209.557 266.417 210.657 266.314 210.73 265.332C210.762 264.898 213.803 221.421 201.482 156.055C204.438 154.516 217.176 147.575 232.408 134.803C242.583 126.272 251.877 116.839 260.03 106.765C270.224 94.1683 278.657 80.5307 285.091 66.2297C285.262 65.8492 285.164 65.4029 284.852 65.1298L269.517 51.658C269.339 51.4994 269.117 51.4189 268.888 51.4189Z" fill="#404040"></path> <path d="M169.395 143.013C169.265 143.013 169.143 142.962 169.053 142.867L153.15 126.257C153.065 126.166 153.016 126.047 153.018 125.922L153.311 103.437C153.045 103.461 152.699 103.483 152.299 103.483C151.196 103.483 149.609 103.317 148.297 102.525C146.726 101.576 145.929 100.001 145.929 97.8423C145.929 95.7279 146.502 94.1622 147.633 93.1915C148.494 92.4526 149.645 92.077 151.057 92.077C151.94 92.077 152.74 92.2258 153.272 92.355C153.199 90.0065 153.233 82.1878 156.686 78.5003C157.898 77.2078 159.41 76.5518 161.181 76.5518C161.398 76.5518 161.617 76.5615 161.847 76.581C163.929 76.7639 166.224 76.7688 168.651 76.7737C176.835 76.7908 185.298 76.8103 185.298 83.9827V106.105C185.298 111.436 181.969 116.138 176.977 117.918L177.387 126.276C177.391 126.352 177.374 126.43 177.343 126.498L169.826 142.735C169.76 142.877 169.629 142.979 169.475 143.004C169.446 143.011 169.419 143.013 169.395 143.013Z" fill="white"></path> <path d="M161.179 77.0278C161.381 77.0278 161.589 77.0375 161.803 77.0546C170.927 77.857 184.823 75.2767 184.823 83.9856V106.108C184.823 111.471 181.326 116.017 176.485 117.587L176.541 118.746L176.911 126.301L169.395 142.538L153.492 125.928L153.792 102.901C153.792 102.901 153.175 103.008 152.299 103.008C150.141 103.008 146.402 102.357 146.402 97.8403C146.402 93.4505 148.956 92.5482 151.058 92.5482C152.526 92.5482 153.775 92.9896 153.775 92.9896C153.775 92.9896 152.731 77.0278 161.179 77.0278ZM161.181 76.0791C161.181 76.0791 161.179 76.0791 161.181 76.0791C159.274 76.0791 157.645 76.7863 156.34 78.1789C153.026 81.7176 152.75 88.8412 152.787 91.7678C152.294 91.6775 151.697 91.6019 151.058 91.6019C147.497 91.6019 145.456 93.8773 145.456 97.8428C145.456 101.73 147.951 103.959 152.299 103.959C152.487 103.959 152.665 103.954 152.831 103.947L152.546 125.92C152.543 126.169 152.636 126.408 152.809 126.589L168.712 143.199C168.893 143.387 169.141 143.492 169.398 143.492C169.449 143.492 169.502 143.487 169.554 143.48C169.863 143.428 170.127 143.228 170.258 142.943L177.775 126.706C177.838 126.567 177.87 126.413 177.86 126.262L177.489 118.707L177.467 118.253C182.465 116.319 185.772 111.529 185.772 106.115V83.9929C185.772 76.3474 176.677 76.3279 168.651 76.3083C166.234 76.3035 163.952 76.2986 161.889 76.1157C161.65 76.0913 161.411 76.0791 161.181 76.0791Z" fill="#404040"></path> <path d="M175.243 105.585C175.099 105.585 174.958 105.519 174.865 105.395C174.709 105.185 174.75 104.89 174.96 104.731L177.279 102.99C177.609 102.741 177.813 102.378 177.852 101.968C177.891 101.559 177.762 101.161 177.487 100.856L175.616 98.7808C175.533 98.6881 175.489 98.5662 175.494 98.4418L175.726 93.3691C175.738 93.1082 175.95 92.9009 176.221 92.918C176.482 92.9302 176.684 93.1521 176.672 93.413L176.448 98.293L178.187 100.225C178.635 100.725 178.857 101.393 178.791 102.063C178.725 102.732 178.382 103.349 177.845 103.751L175.526 105.495C175.44 105.553 175.34 105.585 175.243 105.585Z" fill="#404040"></path> <path d="M176.961 118.545C176.956 118.545 176.954 118.545 176.949 118.545C176.683 118.537 170.437 118.379 167.606 117.133C167.367 117.028 167.257 116.747 167.362 116.508C167.467 116.269 167.747 116.16 167.986 116.264C170.65 117.435 176.907 117.594 176.971 117.596C177.232 117.603 177.439 117.82 177.434 118.081C177.427 118.34 177.217 118.545 176.961 118.545Z" fill="#404040"></path> <path d="M171.642 89.725C171.496 89.725 171.352 89.6567 171.259 89.5299C171.2 89.4519 169.818 87.6325 167.357 88.8324C167.123 88.947 166.837 88.8495 166.723 88.6154C166.608 88.3812 166.706 88.0959 166.94 87.9813C170.13 86.4253 172.005 88.947 172.022 88.9739C172.176 89.186 172.13 89.4811 171.917 89.6348C171.835 89.6957 171.737 89.725 171.642 89.725Z" fill="#404040"></path> <path d="M183.128 89.7251C183.008 89.7251 182.886 89.6787 182.794 89.5885C182.721 89.5153 181.065 87.9448 178.831 89.5227C178.616 89.6739 178.321 89.6227 178.17 89.408C178.019 89.1934 178.07 88.8983 178.284 88.7471C181.184 86.7034 183.438 88.8935 183.46 88.9154C183.645 89.1007 183.645 89.4007 183.46 89.5861C183.369 89.6787 183.247 89.7251 183.128 89.7251Z" fill="#404040"></path> <path d="M167.173 110.077C166.246 108.336 166.058 105.919 166.041 104.49C166.036 104.07 166.546 103.875 166.836 104.175C170.019 107.49 173.867 108.548 175.708 108.877C176.101 108.948 176.23 109.448 175.916 109.692C175.245 110.214 174.638 110.611 174.07 110.938C173.891 111.04 173.667 111.009 173.521 110.862C172.909 110.25 171.041 108.855 167.763 110.26C167.546 110.36 167.285 110.287 167.173 110.077Z" fill="#404040"></path> <path d="M148.798 101.763C148.647 101.763 148.498 101.69 148.406 101.556C145.111 96.7222 149.313 93.6396 149.354 93.6103C149.567 93.4591 149.864 93.5079 150.015 93.72C150.167 93.9322 150.118 94.2273 149.906 94.381C149.762 94.4858 146.423 96.9661 149.186 101.022C149.333 101.239 149.279 101.534 149.062 101.68C148.984 101.736 148.889 101.763 148.798 101.763Z" fill="#404040"></path> <path d="M151.854 98.9983C151.698 98.9983 151.544 98.9227 151.454 98.7813C150.364 97.0839 148.23 97.0522 148.208 97.0522C147.947 97.0498 147.735 96.8376 147.737 96.5766C147.737 96.3157 147.949 96.1035 148.21 96.1035C148.318 96.1035 150.876 96.1279 152.252 98.2667C152.393 98.4862 152.33 98.7789 152.11 98.9203C152.032 98.974 151.942 98.9983 151.854 98.9983Z" fill="#404040"></path> <path d="M170.638 93.4783C170.684 94.3295 170.338 95.0391 169.86 95.066C169.382 95.0928 168.958 94.4246 168.911 93.5759C168.865 92.7247 169.211 92.0151 169.689 91.9882C170.165 91.959 170.589 92.6272 170.638 93.4783Z" fill="#404040"></path> <path d="M181.959 93.4783C182.006 94.3295 181.659 95.0391 181.181 95.066C180.703 95.0928 180.279 94.4246 180.233 93.5759C180.186 92.7247 180.533 92.0151 181.011 91.9882C181.486 91.959 181.911 92.6272 181.959 93.4783Z" fill="#404040"></path> <path d="M156.329 70.9832C156.417 70.7734 152.766 75.7022 152.503 83.2893C152.374 87.045 152.091 92.081 152.091 92.081C154.247 92.8493 156.807 95.61 156.807 95.61L157.593 79.6774C162.412 82.2308 179.525 88.079 186.729 82.7064C191.336 79.2701 192.667 75.7876 192.667 72.1489C184.641 74.7633 181.512 68.203 176.979 66.3812C173.398 64.9399 171.043 64.2546 167.182 64.2277C165.541 64.2155 162.407 64.7521 160.734 65.5374C158.527 66.5763 156.356 68.3542 156.329 70.9832Z" fill="#404040"></path> <path d="M290.497 54.5772L288.646 52.5579C288.297 52.1774 288.324 51.5872 288.704 51.2385L293.935 46.4463C294.316 46.0975 294.906 46.1244 295.255 46.5048L297.106 48.5241C297.454 48.9046 297.428 49.4948 297.047 49.8435L291.816 54.6357C291.435 54.982 290.845 54.9576 290.497 54.5772Z" fill="white"></path> <path d="M291.258 54.8827C290.568 54.8827 289.88 54.6046 289.38 54.0559L289.068 53.7169C288.119 52.6804 288.19 51.066 289.227 50.1173L292.777 46.8639C293.811 45.9153 295.426 45.986 296.377 47.0225L296.689 47.3615C297.638 48.3979 297.567 50.0124 296.531 50.9611L292.98 54.2144C292.49 54.6632 291.873 54.8827 291.258 54.8827ZM290.078 53.4169C290.365 53.7315 290.761 53.9169 291.187 53.934C291.619 53.9559 292.024 53.8047 292.338 53.5145L295.889 50.2612C296.54 49.6661 296.584 48.6516 295.987 48.0004L295.675 47.6614C295.08 47.0103 294.065 46.9664 293.414 47.5614L289.863 50.8148C289.548 51.1025 289.363 51.4976 289.346 51.9244C289.327 52.3512 289.475 52.7609 289.766 53.0755L290.078 53.4169Z" fill="#404040"></path> <path d="M286.303 51.5877L284.052 49.1294C283.627 48.666 283.659 47.949 284.122 47.5247L290.09 42.0594C290.553 41.635 291.27 41.6667 291.695 42.1301L293.946 44.5884C294.37 45.0518 294.338 45.7688 293.875 46.1931L287.907 51.6584C287.446 52.0828 286.727 52.0511 286.303 51.5877Z" fill="white"></path> <path d="M287.227 51.8597C286.414 51.8597 285.607 51.5329 285.017 50.8891L284.639 50.4745C283.524 49.2575 283.607 47.3577 284.824 46.2408L288.748 42.6484C289.339 42.107 290.095 41.829 290.904 41.8632C291.704 41.8973 292.441 42.2436 292.982 42.8338L293.36 43.2459C293.901 43.8361 294.18 44.6019 294.145 45.4018C294.111 46.2017 293.765 46.9383 293.175 47.4797L289.253 51.072C288.675 51.5988 287.951 51.8597 287.227 51.8597ZM285.715 50.2477C286.478 51.0793 287.775 51.1378 288.609 50.3745L292.533 46.7797C292.936 46.409 293.172 45.9066 293.197 45.3579C293.221 44.8116 293.031 44.2873 292.66 43.8849L292.282 43.4727C291.911 43.0679 291.409 42.8338 290.86 42.8094C290.316 42.785 289.79 42.9752 289.387 43.3459L285.463 46.9383C284.632 47.7016 284.573 48.999 285.336 49.8331L285.715 50.2477Z" fill="#404040"></path> <path d="M280.934 47.8709L278.683 45.4126C278.259 44.9492 278.291 44.2322 278.754 43.8079L284.722 38.3426C285.185 37.9182 285.902 37.9499 286.327 38.4133L288.578 40.8716C289.002 41.335 288.97 42.052 288.507 42.4763L282.539 47.9416C282.078 48.366 281.359 48.3343 280.934 47.8709Z" fill="white"></path> <path d="M281.861 48.1415C281.818 48.1415 281.771 48.1415 281.727 48.139C280.927 48.1049 280.191 47.7586 279.649 47.1684L279.271 46.7538C278.73 46.1636 278.452 45.3978 278.486 44.5979C278.52 43.798 278.867 43.0615 279.457 42.5201L283.381 38.9277C283.971 38.3863 284.734 38.1083 285.537 38.1425C286.337 38.1766 287.073 38.5229 287.615 39.1106L287.993 39.5252C289.11 40.7422 289.024 42.642 287.807 43.759L283.883 47.3513C283.327 47.8659 282.613 48.1415 281.861 48.1415ZM280.349 46.5294C280.72 46.9318 281.223 47.1684 281.771 47.1928C282.313 47.2147 282.842 47.0269 283.244 46.6562L287.168 43.0639C288 42.3006 288.058 41.0031 287.295 40.1691L286.917 39.7545C286.549 39.3521 286.044 39.1155 285.495 39.0911C284.951 39.0667 284.425 39.257 284.022 39.6277L280.098 43.2224C279.696 43.5931 279.459 44.0955 279.435 44.6442C279.411 45.1905 279.601 45.7149 279.971 46.1173L280.349 46.5294Z" fill="#404040"></path> <path d="M276.544 56.7825C276.544 56.7825 279.207 54.4584 279.91 50.827L283.034 53.5048C284.524 54.7803 286.794 54.4608 287.872 52.822C288.684 51.5855 288.562 49.9613 287.575 48.8614C285.68 46.747 282.612 43.5644 279.141 43.1815C278.115 43.0669 277.122 43.5985 276.583 44.4789L271.179 53.3024" fill="white"></path> <path d="M276.544 57.2572C276.413 57.2572 276.281 57.2012 276.188 57.0963C276.015 56.8988 276.037 56.6012 276.232 56.4281C276.257 56.4061 278.783 54.1576 279.444 50.7384C279.476 50.5726 279.593 50.436 279.754 50.3799C279.912 50.3238 280.09 50.358 280.217 50.4677L283.341 53.1455C283.948 53.6649 284.748 53.9015 285.541 53.7869C286.331 53.6747 287.038 53.2284 287.477 52.5602C288.17 51.5066 288.065 50.1141 287.224 49.1751C285.08 46.7851 282.219 43.9952 279.09 43.6489C278.269 43.5586 277.444 43.9781 276.988 44.7219L271.584 53.5454C271.447 53.7674 271.155 53.8381 270.933 53.7015C270.711 53.5649 270.64 53.2723 270.777 53.0504L276.181 44.2269C276.827 43.1733 278.01 42.5758 279.195 42.7075C282.641 43.0879 285.673 46.0267 287.929 48.5435C289.058 49.8019 289.197 51.6676 288.268 53.0796C287.68 53.9747 286.734 54.5746 285.673 54.7234C284.612 54.8746 283.536 54.56 282.724 53.8625L280.19 51.692C279.281 54.9892 276.959 57.0451 276.854 57.1378C276.766 57.2182 276.654 57.2572 276.544 57.2572Z" fill="#404040"></path> <path d="M125.902 161.511C125.895 161.511 125.888 161.511 125.883 161.511C125.622 161.499 125.419 161.279 125.429 161.018L125.846 151.127C125.856 150.866 126.073 150.654 126.339 150.673C126.6 150.685 126.802 150.905 126.792 151.166L126.375 161.057C126.363 161.311 126.153 161.511 125.902 161.511Z" fill="#404040"></path> <path d="M201.148 157.513C200.924 157.513 200.724 157.352 200.683 157.123L198.966 147.602C198.919 147.344 199.09 147.097 199.348 147.051C199.602 147.007 199.853 147.175 199.9 147.434L201.619 156.955C201.665 157.213 201.495 157.46 201.236 157.506C201.204 157.511 201.178 157.513 201.148 157.513Z" fill="#404040"></path> <path d="M530.547 485.359C530.239 485.359 529.932 485.327 529.635 485.261C527.586 484.817 526.213 484.022 525.662 482.964C525.228 482.127 525.398 481.342 525.484 481.059L531.581 476.535C531.727 476.428 531.798 476.245 531.764 476.067L526.552 448.289H546.138L540.977 475.991C540.516 476.818 535.6 485.359 530.547 485.359Z" fill="white"></path> <path d="M545.57 448.762L540.529 475.83C539.066 478.471 534.637 484.882 530.55 484.882C530.277 484.882 530.003 484.853 529.738 484.797C527.85 484.387 526.592 483.687 526.099 482.768C525.787 482.188 525.84 481.629 525.904 481.336L531.867 476.913C532.157 476.695 532.301 476.332 532.232 475.976L527.126 448.759H545.57V448.762ZM546.709 447.815H525.982L531.298 476.154L525.087 480.763C525.087 480.763 523.538 484.426 529.535 485.724C529.874 485.797 530.211 485.831 530.547 485.831C536.178 485.831 541.432 476.152 541.432 476.152L546.709 447.815Z" fill="#404040"></path> <path d="M525.087 480.764C531.44 484.21 541.431 476.152 541.431 476.152L545.019 487.524L513.544 488.127L525.087 480.764Z" fill="#404040"></path> <path d="M477.304 485.359C476.997 485.359 476.689 485.327 476.392 485.261C474.353 484.82 472.982 484.029 472.426 482.976C471.985 482.137 472.153 481.344 472.241 481.057L478.336 476.533C478.489 476.418 478.56 476.225 478.514 476.04L471.673 448.289H491.259L487.73 476.003C487.227 476.898 482.335 485.359 477.304 485.359Z" fill="white"></path> <path d="M490.722 448.762L487.271 475.854C485.793 478.51 481.381 484.885 477.304 484.885C477.031 484.885 476.758 484.856 476.492 484.8C474.604 484.39 473.346 483.69 472.853 482.77C472.541 482.19 472.595 481.632 472.658 481.339L478.621 476.915C478.928 476.688 479.067 476.298 478.977 475.927L472.28 448.764H490.722V448.762ZM491.797 447.815H471.07L478.055 476.154L471.843 480.763C471.843 480.763 470.295 484.426 476.292 485.724C476.631 485.797 476.967 485.831 477.304 485.831C482.935 485.831 488.188 476.152 488.188 476.152L491.797 447.815Z" fill="#404040"></path> <path d="M471.843 480.764C478.196 484.21 488.187 476.152 488.187 476.152L491.775 487.524L460.3 488.127L471.843 480.764Z" fill="#404040"></path> <path d="M447.397 85.8786L441.192 83.3569C440.341 83.0106 439.371 83.4203 439.024 84.2715C438.678 85.1226 439.088 86.0932 439.939 86.4395L446.143 88.9612C448.392 94.8728 493.043 171.665 495.377 176.901L512.651 153.567C509.954 149.106 459.698 88.1808 457.049 83.1106C457.049 83.1106 457.913 80.3011 459.064 77.2258C459.854 75.1138 457.081 73.4603 455.64 75.1943C454.659 76.3722 453.84 77.9745 453.484 80.145L449.326 73.3872C448.726 72.4239 447.46 72.1288 446.497 72.7287C445.534 73.3286 445.238 74.5944 445.838 75.5577L450.428 83.0082L450.301 82.9765L444.421 77.1648C443.614 76.3674 442.314 76.3747 441.517 77.1819C440.719 77.9892 440.727 79.289 441.534 80.0865L447.414 85.8981L447.397 85.8786Z" fill="white"></path> <path d="M495.38 177.374C495.363 177.374 495.346 177.374 495.329 177.372C495.161 177.352 495.017 177.247 494.949 177.094C493.949 174.85 484.759 158.737 475.031 141.678C462.115 119.031 447.504 93.4142 445.783 89.3244L439.766 86.8783C438.676 86.4344 438.147 85.1858 438.591 84.0932C438.805 83.564 439.215 83.1518 439.739 82.9299C440.266 82.708 440.847 82.7055 441.376 82.9201L445.383 84.5492L441.208 80.4228C440.217 79.4424 440.208 77.8402 441.186 76.85C441.661 76.3696 442.293 76.1038 442.968 76.0989C443.663 76.0989 444.28 76.3549 444.761 76.8281L448.112 80.1399L445.444 75.8062C444.71 74.6258 445.073 73.0626 446.256 72.3261C446.829 71.97 447.507 71.8578 448.163 72.0115C448.821 72.1651 449.38 72.5651 449.736 73.1382L453.275 78.8888C453.677 77.3548 454.35 76.0135 455.284 74.8917C456.199 73.7918 457.516 73.8259 458.413 74.3454C459.33 74.877 460.025 76.0257 459.515 77.3914C458.555 79.9643 457.784 82.3763 457.569 83.0591C459.52 86.4125 475.619 106.381 489.854 124.036C501.66 138.68 511.857 151.328 513.064 153.323C513.164 153.486 513.154 153.696 513.039 153.85L495.765 177.181C495.67 177.303 495.529 177.374 495.38 177.374ZM440.569 83.7079C440.413 83.7079 440.256 83.7396 440.105 83.803C439.813 83.9274 439.586 84.1566 439.466 84.4517C439.22 85.0589 439.513 85.754 440.12 86.0003L446.324 88.522C446.446 88.5708 446.541 88.6683 446.587 88.7927C447.851 92.1119 462.727 118.195 475.85 141.209C485.264 157.718 493.49 172.138 495.461 175.994L512.076 153.55C510.276 150.884 499.982 138.117 489.11 124.631C474.59 106.62 458.133 86.2052 456.63 83.3299C456.572 83.2201 456.562 83.0909 456.599 82.9714C456.608 82.9421 457.482 80.1131 458.62 77.0598C458.959 76.1525 458.459 75.4721 457.93 75.1648C457.418 74.8673 456.604 74.7746 456.006 75.4965C454.95 76.7647 454.26 78.3547 453.953 80.2228C453.921 80.4179 453.77 80.5716 453.577 80.6106C453.382 80.6472 453.184 80.5618 453.082 80.3936L448.924 73.6357C448.702 73.2796 448.353 73.0285 447.943 72.9333C447.531 72.8382 447.109 72.9065 446.751 73.1309C446.392 73.3552 446.144 73.704 446.046 74.1137C445.951 74.5234 446.019 74.9478 446.244 75.3063L450.833 82.7567C450.933 82.9201 450.926 83.1299 450.811 83.2859C450.697 83.442 450.499 83.5103 450.314 83.4664L450.187 83.4347C450.104 83.4152 450.029 83.3713 449.97 83.3128L444.09 77.5012C443.79 77.2036 443.39 77.0451 442.971 77.0451C442.549 77.0476 442.154 77.2134 441.856 77.5134C441.244 78.1328 441.249 79.1352 441.871 79.7473L447.751 85.5589C447.931 85.7369 447.939 86.0271 447.768 86.2149C447.612 86.3881 447.356 86.4198 447.163 86.2979L441.015 83.7981C440.871 83.7371 440.72 83.7079 440.569 83.7079Z" fill="#404040"></path> <path d="M479.469 158.699L505.378 139.981C505.378 139.981 534.561 167.315 520.952 182.392C503.764 201.431 479.469 158.699 479.469 158.699Z" fill="#7C95FA"></path> <path d="M511.034 187.752C510.561 187.752 510.081 187.726 509.595 187.672C503.289 186.984 496.228 181.926 488.605 172.639C482.961 165.764 479.094 158.999 479.057 158.931C478.937 158.721 478.996 158.453 479.191 158.314L505.098 139.596C505.281 139.462 505.535 139.479 505.701 139.635C505.774 139.704 513.105 146.61 518.665 155.278C526.113 166.884 527.025 176.371 521.301 182.709C518.275 186.062 514.829 187.752 511.034 187.752ZM480.093 158.831C481.993 162.045 496.15 185.253 509.698 186.73C513.744 187.169 517.409 185.604 520.597 182.075C533.034 168.296 508.281 143.464 505.332 140.596L480.093 158.831Z" fill="#404040"></path> <path d="M517.9 162.52L499.828 168.502C499.828 168.502 488.661 176.633 500.136 228.369C501.992 236.734 507.194 261.493 507.194 261.493L540.929 261.866C540.929 261.863 550.167 166.644 517.9 162.52Z" fill="#7C95FA"></path> <path d="M540.929 262.336C540.927 262.336 540.926 262.336 540.924 262.336L507.188 261.963C506.966 261.961 506.776 261.804 506.73 261.587C506.679 261.341 501.506 236.734 499.672 228.469C488.263 177.02 499.082 168.455 499.548 168.116C499.587 168.087 499.631 168.065 499.677 168.048L517.748 162.066C517.817 162.044 517.887 162.036 517.958 162.046C525.504 163.012 531.423 168.921 535.551 179.608C538.817 188.063 540.983 199.533 541.987 213.702C543.694 237.783 541.424 261.668 541.402 261.907C541.378 262.151 541.173 262.336 540.929 262.336ZM507.579 261.022L540.497 261.385C541.112 254.422 548.172 167.068 517.946 163.002L500.062 168.924C499.311 169.599 489.756 179.381 500.599 228.266C502.308 235.975 506.92 257.893 507.579 261.022Z" fill="#404040"></path> <path d="M467.941 449.439C467.685 449.439 467.475 449.236 467.468 448.98L464.127 347.098C463.722 341.532 464.861 335.948 467.419 330.968L506.779 261.26C506.862 261.111 507.02 261.019 507.191 261.019C507.193 261.019 540.934 261.392 540.934 261.392C541.048 261.392 541.158 261.436 541.243 261.511C541.575 261.806 549.387 268.925 551.123 283.414C552.262 292.906 550.113 299.298 548.83 303.114C548.472 304.183 548.16 305.109 548.011 305.831L549.25 448.958C549.25 449.085 549.201 449.209 549.111 449.3C549.023 449.387 548.901 449.436 548.777 449.436C548.774 449.436 520.265 448.963 520.265 448.963C520.016 448.958 519.814 448.763 519.799 448.514L513.393 326.297L498.814 352.651L496.855 448.97C496.85 449.229 496.641 449.434 496.382 449.434H467.941V449.439Z" fill="white"></path> <path d="M507.193 261.491L540.929 261.864C540.929 261.864 548.918 268.993 550.655 283.469C552.106 295.578 548.209 302.411 547.54 305.787L548.779 448.965L520.275 448.492L513.78 324.624L498.343 352.528L496.382 448.967H467.939L464.597 347.085C464.197 341.588 465.319 336.089 467.839 331.187L507.193 261.491ZM507.193 260.545C506.852 260.545 506.537 260.728 506.369 261.025L467.017 330.716C467.009 330.726 467.004 330.738 467 330.75C464.405 335.803 463.249 341.466 463.656 347.131L466.995 448.997C467.012 449.506 467.431 449.914 467.941 449.914H496.384C496.899 449.914 497.321 449.502 497.331 448.985L499.287 352.782L513.007 327.98L519.328 448.543C519.355 449.041 519.76 449.433 520.26 449.441L548.765 449.914C548.769 449.914 548.774 449.914 548.779 449.914C549.028 449.914 549.269 449.816 549.447 449.638C549.628 449.458 549.73 449.214 549.728 448.958L548.489 305.882C548.635 305.194 548.935 304.299 549.282 303.267C550.577 299.412 552.745 292.956 551.594 283.36C549.835 268.695 541.897 261.459 541.558 261.159C541.387 261.006 541.168 260.92 540.939 260.918L507.203 260.545C507.2 260.545 507.196 260.545 507.193 260.545Z" fill="#404040"></path> <path d="M449.8 86.9081C449.556 86.9081 449.349 86.7203 449.329 86.4716C448.968 81.9476 453.08 79.8259 453.256 79.7381C453.49 79.621 453.773 79.7137 453.892 79.9478C454.009 80.182 453.916 80.4649 453.682 80.5844C453.531 80.6624 449.966 82.5183 450.273 86.3984C450.295 86.6594 450.1 86.8886 449.839 86.9081C449.827 86.9081 449.812 86.9081 449.8 86.9081Z" fill="#404040"></path> <path d="M520.906 162.783L526.454 145.978C526.454 145.978 533.297 151.072 536.068 144.012C538.838 136.952 530.842 136.252 530.842 136.252C530.842 136.252 541.021 125.692 538.151 120.061C535.278 114.43 519.991 105.821 514.382 109.196C508.773 112.571 503.998 121.936 503.998 121.936L498.772 134.218C498.13 135.728 497.728 137.335 497.657 138.971C497.528 141.934 498.198 146.248 502.244 149.614L500.308 163.166L520.906 162.783Z" fill="white"></path> <path d="M500.304 163.644C500.168 163.644 500.039 163.585 499.948 163.483C499.856 163.38 499.814 163.239 499.834 163.102L501.733 149.809C497.734 146.358 497.046 142.014 497.18 138.954C497.251 137.32 497.639 135.664 498.334 134.035L503.56 121.753C503.772 121.336 508.477 112.2 514.135 108.793C515.895 107.732 518.639 107.691 522.07 108.674C528.687 110.566 536.552 115.892 538.569 119.848C541.169 124.943 533.994 133.483 531.789 135.927C533.047 136.19 535.289 136.905 536.428 138.746C537.328 140.197 537.352 142.026 536.506 144.187C535.689 146.272 534.44 147.567 532.799 148.038C530.37 148.731 527.799 147.399 526.707 146.721L521.353 162.936C521.29 163.127 521.114 163.258 520.912 163.261L500.312 163.646C500.309 163.644 500.307 163.644 500.304 163.644ZM520.905 162.783H520.91H520.905ZM517.629 108.908C516.408 108.908 515.396 109.139 514.625 109.603C509.199 112.868 504.465 122.06 504.419 122.153L499.204 134.405C498.556 135.929 498.192 137.476 498.127 138.995C498 141.892 498.663 146.024 502.543 149.252C502.67 149.357 502.733 149.521 502.709 149.684L500.851 162.685L520.558 162.317L526.002 145.828C526.051 145.685 526.163 145.572 526.309 145.526C526.455 145.48 526.612 145.507 526.736 145.597C526.768 145.619 529.867 147.892 532.543 147.123C533.884 146.738 534.92 145.633 535.625 143.838C536.357 141.97 536.357 140.424 535.625 139.241C534.267 137.051 530.835 136.727 530.801 136.724C530.618 136.707 530.462 136.59 530.399 136.417C530.335 136.246 530.375 136.054 530.501 135.922C530.601 135.82 540.415 125.543 537.727 120.275C535.842 116.578 528.106 111.381 521.812 109.581C520.237 109.135 518.834 108.908 517.629 108.908Z" fill="#404040"></path> <path d="M506.276 139.288C506.081 139.288 505.898 139.166 505.83 138.973L505.354 137.635C505.052 136.786 505.306 135.869 506.001 135.296C506.552 134.842 507.259 134.703 507.917 134.891L509.815 130.113C509.912 129.869 510.186 129.75 510.429 129.847C510.673 129.945 510.79 130.221 510.695 130.462L508.62 135.688C508.569 135.818 508.464 135.918 508.332 135.962C508.2 136.005 508.056 135.991 507.937 135.92C507.418 135.613 506.908 135.771 506.603 136.022C506.298 136.274 506.044 136.744 506.247 137.313L506.722 138.651C506.81 138.898 506.681 139.169 506.435 139.256C506.381 139.281 506.327 139.288 506.276 139.288Z" fill="#404040"></path> <path d="M530.84 136.726C530.747 136.726 530.655 136.7 530.574 136.644C519.444 129.076 526.106 118.694 526.175 118.592C526.319 118.372 526.611 118.314 526.831 118.458C527.05 118.601 527.109 118.894 526.967 119.114C526.709 119.506 520.758 128.825 531.108 135.861C531.325 136.007 531.382 136.302 531.233 136.519C531.14 136.653 530.991 136.726 530.84 136.726Z" fill="#404040"></path> <path d="M507.4 113.774C509.4 109.342 513.875 106.538 518.787 106.648C524.03 106.767 531.664 108.869 538.634 115.691C542.258 119.239 543.189 124.682 541.126 129.255L536.39 139.757C535.268 136.645 530.839 136.254 530.839 136.254C524.347 127.972 525.681 121.341 525.681 121.341C525.681 121.341 512.563 125.775 503.306 121.6L507.4 113.774Z" fill="#404040"></path> <path d="M520.16 131.056C519.984 131.056 519.814 130.956 519.733 130.788C518.538 128.305 516.275 129.156 516.177 129.193C515.936 129.288 515.658 129.168 515.563 128.925C515.468 128.681 515.587 128.405 515.831 128.31C516.926 127.881 519.328 127.761 520.584 130.376C520.697 130.612 520.599 130.895 520.362 131.007C520.299 131.041 520.231 131.056 520.16 131.056Z" fill="#404040"></path> <path d="M509.393 125.674C509.225 125.674 509.064 125.584 508.976 125.428C508.881 125.257 508.001 123.784 506.206 124.491C505.962 124.586 505.686 124.467 505.591 124.225C505.496 123.981 505.616 123.706 505.857 123.611C507.95 122.784 509.357 124.142 509.808 124.976C509.932 125.206 509.847 125.493 509.618 125.618C509.547 125.657 509.469 125.674 509.393 125.674Z" fill="#404040"></path> <path d="M509.753 153.448C509.729 153.448 509.705 153.445 509.678 153.443C505.608 152.799 501.974 149.975 501.823 149.856C501.618 149.695 501.581 149.397 501.742 149.19C501.903 148.985 502.203 148.948 502.408 149.109C502.444 149.136 506.005 151.902 509.827 152.506C510.085 152.548 510.261 152.789 510.222 153.048C510.185 153.282 509.983 153.448 509.753 153.448Z" fill="#404040"></path> <path d="M507.504 129.601C507.29 129.601 507.095 129.454 507.043 129.237C507.036 129.206 506.741 128.047 505.882 127.55C505.436 127.291 504.919 127.252 504.302 127.433C504.051 127.506 503.788 127.362 503.714 127.111C503.641 126.859 503.785 126.596 504.036 126.523C504.907 126.269 505.69 126.34 506.363 126.733C507.58 127.442 507.948 128.954 507.963 129.018C508.024 129.271 507.865 129.527 507.612 129.588C507.575 129.596 507.541 129.601 507.504 129.601Z" fill="#404040"></path> <path d="M518.15 134.771C517.935 134.771 517.742 134.624 517.689 134.407C517.686 134.395 517.394 133.22 516.53 132.72C516.084 132.461 515.567 132.422 514.948 132.602C514.696 132.676 514.433 132.532 514.36 132.281C514.287 132.029 514.431 131.766 514.682 131.693C515.552 131.439 516.335 131.51 517.008 131.903C518.225 132.612 518.591 134.124 518.608 134.188C518.669 134.441 518.511 134.697 518.257 134.758C518.223 134.766 518.186 134.771 518.15 134.771Z" fill="#404040"></path> <path d="M511.553 142.678C511.553 142.678 505.605 144.302 501.508 141.271C501.508 141.271 502.466 147.66 506.032 148.07C509.597 148.48 511.553 142.678 511.553 142.678Z" fill="#404040"></path> <path d="M503.749 145.716C503.749 146.286 505.012 146.75 506.571 146.75C508.129 146.75 509.392 146.286 509.392 145.716C509.392 145.145 508.129 144.682 506.571 144.682C505.012 144.682 503.749 145.143 503.749 145.716Z" fill="white"></path> <path d="M533.964 144.46C533.893 144.46 533.82 144.443 533.751 144.409C533.517 144.292 533.422 144.007 533.539 143.772C534.139 142.573 534.283 141.514 533.969 140.631C533.556 139.483 532.478 138.99 532.466 138.985C532.227 138.878 532.12 138.6 532.225 138.361C532.33 138.122 532.608 138.012 532.847 138.117C532.905 138.141 534.298 138.763 534.856 140.297C535.271 141.436 535.112 142.748 534.388 144.194C534.305 144.365 534.137 144.46 533.964 144.46Z" fill="#404040"></path> <path d="M529.811 142.531C529.667 142.531 529.526 142.465 529.433 142.343C529.275 142.133 529.316 141.838 529.526 141.679C531.531 140.167 534.447 140.397 534.569 140.409C534.83 140.431 535.023 140.66 535.001 140.921C534.979 141.182 534.747 141.37 534.489 141.353C534.462 141.35 531.806 141.143 530.097 142.436C530.011 142.499 529.911 142.531 529.811 142.531Z" fill="#404040"></path> <path d="M503.083 168.65L459.258 171.255C459.258 171.255 428.571 137.775 424.966 133.332C424.966 133.332 425.195 131.003 425.61 128.198C425.993 125.611 422.303 124.684 421.437 127.152C421.047 128.266 420.823 129.586 420.881 131.134L415.462 125.337C414.684 124.513 413.384 124.477 412.56 125.255C411.736 126.033 411.699 127.332 412.477 128.157L418.454 134.546L418.323 134.541L411.404 130.015C410.455 129.393 409.182 129.659 408.56 130.61C407.938 131.559 408.204 132.832 409.155 133.454L416.074 137.98L416.052 137.968L409.472 136.729C408.57 136.558 407.699 137.153 407.531 138.056C407.36 138.958 407.956 139.829 408.858 139.997L415.438 141.236C418.818 146.582 442.433 191.584 456.343 194.572C470.822 197.681 506.551 192.753 506.551 192.753L503.083 168.65Z" fill="white"></path> <path d="M469.573 196.065C464.425 196.065 459.72 195.782 456.247 195.036C444.105 192.429 424.855 158.634 417.61 145.914C416.481 143.933 415.644 142.463 415.151 141.663L408.774 140.463C408.213 140.358 407.728 140.039 407.406 139.568C407.084 139.097 406.964 138.529 407.069 137.968C407.286 136.81 408.406 136.046 409.564 136.263L413.815 137.063L408.903 133.849C408.337 133.478 407.952 132.913 407.813 132.252C407.674 131.591 407.803 130.915 408.172 130.352C408.54 129.786 409.108 129.401 409.769 129.262C410.43 129.123 411.105 129.252 411.669 129.62L415.612 132.2L412.135 128.484C411.674 127.994 411.427 127.352 411.447 126.679C411.466 126.004 411.747 125.377 412.237 124.913C413.249 123.957 414.851 124.001 415.81 125.016L420.422 129.949C420.48 128.903 420.673 127.916 420.995 126.999C421.536 125.452 422.985 125.045 424.099 125.321C425.224 125.599 426.323 126.64 426.082 128.272C425.741 130.574 425.524 132.574 425.46 133.188C429.387 137.944 457.133 168.238 459.457 170.772L503.057 168.18C503.311 168.17 503.518 168.341 503.555 168.585L507.025 192.685C507.042 192.809 507.01 192.936 506.935 193.038C506.859 193.138 506.747 193.207 506.62 193.224C506.347 193.258 485.771 196.062 469.573 196.065ZM409.169 137.173C408.608 137.173 408.108 137.571 408.001 138.141C407.942 138.453 408.008 138.771 408.189 139.031C408.367 139.295 408.637 139.47 408.952 139.529L415.532 140.768C415.661 140.792 415.773 140.87 415.844 140.98C416.329 141.748 417.212 143.297 418.434 145.443C425.624 158.064 444.719 191.587 456.447 194.106C469.783 196.972 501.743 192.909 506.015 192.343L502.677 169.148L459.286 171.728C459.145 171.733 459.006 171.679 458.908 171.575C458.601 171.24 428.17 138.034 424.597 133.63C424.519 133.532 424.482 133.408 424.494 133.286C424.497 133.261 424.731 130.913 425.143 128.128C425.299 127.077 424.616 126.418 423.87 126.235C423.136 126.055 422.234 126.313 421.885 127.308C421.482 128.459 421.304 129.74 421.356 131.118C421.363 131.315 421.246 131.496 421.065 131.574C420.883 131.649 420.673 131.605 420.536 131.459L415.117 125.662C414.522 125.03 413.52 125.001 412.886 125.599C412.578 125.889 412.403 126.279 412.391 126.701C412.379 127.123 412.532 127.523 412.82 127.83L418.8 134.22C418.932 134.361 418.966 134.566 418.883 134.742C418.802 134.917 418.632 135.032 418.429 135.017L418.297 135.01C418.212 135.005 418.132 134.978 418.061 134.934L411.142 130.408C410.788 130.176 410.367 130.098 409.954 130.184C409.542 130.269 409.186 130.513 408.957 130.864C408.725 131.218 408.647 131.64 408.733 132.052C408.818 132.464 409.062 132.82 409.413 133.052L416.332 137.578C416.544 137.717 416.61 138 416.478 138.217C416.359 138.417 416.115 138.497 415.903 138.417L409.381 137.19C409.315 137.178 409.24 137.173 409.169 137.173Z" fill="#404040"></path> <path d="M491.783 196.872L485.969 165.443C485.969 165.443 524.584 156.062 530.962 169.538C541.929 192.721 491.783 196.872 491.783 196.872Z" fill="#7C95FA"></path> <path d="M491.78 197.345C491.553 197.345 491.356 197.184 491.314 196.957L485.5 165.529C485.454 165.283 485.61 165.041 485.854 164.983C485.951 164.958 495.668 162.619 506.042 161.963C520.121 161.071 528.652 163.551 531.388 169.336C533.527 173.855 533.537 178.003 531.423 181.671C528.294 187.095 520.663 191.382 508.744 194.414C499.923 196.658 491.9 197.338 491.819 197.345C491.807 197.345 491.795 197.345 491.78 197.345ZM486.515 165.802L492.168 196.36C495.965 195.984 523.884 192.843 530.603 181.196C532.554 177.816 532.53 173.96 530.532 169.741C524.75 157.52 490.78 164.829 486.515 165.802Z" fill="#404040"></path> <path d="M457.031 176.303C456.96 176.303 456.889 176.288 456.824 176.254C456.589 176.14 456.492 175.857 456.604 175.62L458.833 171.047C458.948 170.813 459.231 170.716 459.467 170.83C459.701 170.945 459.799 171.228 459.687 171.464L457.458 176.037C457.375 176.203 457.204 176.303 457.031 176.303Z" fill="#404040"></path> <path d="M567.471 155.966C557.648 153.95 548.022 156.488 542.054 156.401C540.025 156.371 538.096 155.445 536.85 153.842C536.843 153.835 536.838 153.825 536.83 153.818C535.723 152.386 534.85 150.774 534.262 149.062C534.157 148.755 534.06 148.445 533.962 148.133C533.67 146.467 533.648 145.209 533.648 145.209C533.648 145.209 533.243 145.516 532.431 145.682C531.231 145.714 528.292 145.585 526.444 143.748C526.058 143.365 525.622 143.285 525.153 143.421C525.153 143.421 525.144 143.426 525.139 143.426C524.983 143.473 524.824 143.543 524.661 143.634C522.127 144.785 510.643 150.647 514.603 160.871C519.047 172.333 531.05 171.56 537.355 171.777C541.566 171.923 548.961 172.935 553.017 178.008C557.848 184.051 569.993 183.637 574.329 178.028C578.672 172.423 579.124 158.359 567.471 155.966Z" fill="#404040"></path> <path d="M513.307 327.691C513.049 327.691 512.837 327.483 512.834 327.222L512.361 287.163L507.43 282.668C507.237 282.493 507.223 282.193 507.398 282C507.574 281.808 507.874 281.793 508.066 281.968L513.149 286.602C513.246 286.69 513.302 286.814 513.302 286.946L513.778 327.213C513.78 327.474 513.571 327.688 513.31 327.693C513.312 327.691 513.31 327.691 513.307 327.691Z" fill="#404040"></path> </svg> 