<?xml version="1.0" encoding="UTF-8"?> <svg xmlns="http://www.w3.org/2000/svg" width="540" height="453" viewBox="0 0 540 453" fill="none"> <path d="M42.7273 432.12C39.7006 432.12 36.6635 431.805 33.7035 431.184L0.568359 424.222L47.1567 202.496L80.2919 209.458C93.419 212.214 104.568 220.779 110.881 232.948C117.401 245.546 127.28 257.06 128.399 258.347L141.663 261.135C154.215 263.772 165.146 271.621 171.652 282.669L182.37 300.842L374.082 357.998L363.066 410.432L163.933 388.601L146.804 400.925C138.987 406.564 129.753 409.545 120.098 409.545C116.941 409.545 113.774 409.215 110.684 408.567L97.4206 405.782C95.8774 406.511 82.1997 413.087 71.1629 421.981C63.0439 428.519 52.9435 432.12 42.7273 432.12Z" fill="#CCCCCC"></path> <path d="M47.5283 203.061L80.1935 209.924C93.289 212.677 104.298 221.298 110.453 233.169C117.446 246.682 128.139 258.785 128.139 258.785L141.561 261.605C154.011 264.221 164.785 271.958 171.238 282.91L182.05 301.245L373.521 358.327L362.684 409.906L163.799 388.102L146.52 400.535C138.762 406.129 129.503 409.064 120.09 409.064C116.987 409.064 113.865 408.745 110.775 408.096L97.3537 405.277C97.3537 405.277 82.6905 412.063 70.854 421.606C62.7982 428.097 52.8661 431.643 42.72 431.643C39.7495 431.643 36.7615 431.338 33.7945 430.717L1.12929 423.854L47.5283 203.061ZM46.7848 201.928L46.5884 202.864L0.196397 423.654L0 424.59L0.936391 424.787L33.6016 431.65C36.5931 432.278 39.6618 432.597 42.7235 432.597C53.0485 432.597 63.2541 428.957 71.4573 422.349C82.1715 413.711 95.3792 407.276 97.4765 406.276L110.583 409.029C113.704 409.685 116.906 410.018 120.094 410.018C129.851 410.018 139.183 407.006 147.081 401.307L164.059 389.088L362.579 410.853L363.441 410.948L363.62 410.099L374.457 358.52L374.639 357.657L373.794 357.405L182.682 300.432L172.059 282.419C165.483 271.256 154.439 263.327 141.754 260.661L128.648 257.908C127.133 256.155 117.625 244.946 111.298 232.724C104.919 220.424 93.6502 211.772 80.3828 208.984L47.7177 202.121L46.7848 201.928Z" fill="#404040"></path> <path d="M76.7524 393.555C88.5924 384.012 103.252 377.226 103.252 377.226L116.674 380.046C129.124 382.662 142.1 379.927 152.415 372.484L169.694 360.052L368.579 381.855L362.687 409.905L163.802 388.102L146.523 400.534C136.208 407.976 123.229 410.712 110.782 408.096L97.3602 405.276C97.3602 405.276 82.697 412.062 70.8605 421.605C60.4479 429.994 46.9 433.466 33.8009 430.716L1.13574 423.853L7.02767 395.803L39.6929 402.667C52.7919 405.416 66.3398 401.944 76.7524 393.555Z" fill="white"></path> <path d="M163.539 389.83C163.508 389.83 163.473 389.827 163.441 389.82C163.182 389.764 163.017 389.511 163.069 389.252L181.843 299.901C181.899 299.642 182.148 299.477 182.411 299.529C182.671 299.585 182.835 299.838 182.783 300.097L164.009 389.448C163.96 389.676 163.76 389.83 163.539 389.83Z" fill="#404040"></path> <path d="M97.5072 406.108C97.4756 406.108 97.4406 406.104 97.409 406.097C97.1495 406.041 96.9846 405.789 97.0407 405.529L128.012 258.368C128.068 258.108 128.324 257.943 128.58 257.999C128.84 258.055 129.004 258.308 128.948 258.567L97.9771 405.729C97.928 405.953 97.7317 406.108 97.5072 406.108Z" fill="#404040"></path> <path d="M452.665 447.1C414.006 447.1 385.711 419.668 385.43 419.391L385.244 419.208L397.505 360.857L397.782 360.776C409.475 357.41 420.873 355.705 431.657 355.705C464.813 355.705 487.462 371.876 500.621 385.442C514.87 400.13 521.376 415.028 521.439 415.179L521.569 415.48L521.334 415.712C499.976 436.537 476.874 447.1 452.665 447.1Z" fill="#CCCCCC"></path> <path d="M431.655 356.179C495.519 356.179 520.998 415.361 520.998 415.361C496.848 438.919 473.232 446.62 452.662 446.62C413.755 446.62 385.761 419.047 385.761 419.047L397.91 361.233C410.188 357.701 421.411 356.179 431.655 356.179ZM431.655 355.222C420.825 355.222 409.385 356.933 397.647 360.314L397.092 360.472L396.973 361.036L384.825 418.851L384.716 419.363L385.088 419.731C385.158 419.802 392.309 426.788 404.138 433.665C415.063 440.013 432.349 447.581 452.659 447.581C476.998 447.581 500.212 436.972 521.665 416.049L522.135 415.589L521.875 414.986C521.812 414.835 515.271 399.86 500.959 385.106C492.549 376.436 483.132 369.527 472.972 364.568C460.273 358.368 446.371 355.222 431.655 355.222Z" fill="#404040"></path> <path d="M513.634 402.37C518.663 409.935 521.002 415.364 521.002 415.364C451.169 483.479 385.765 419.05 385.765 419.05L390.752 395.317C390.752 395.317 448.633 452.322 513.634 402.37Z" fill="white"></path> <path d="M520.523 436.726C519.211 436.726 517.889 436.589 516.595 436.316C506.337 434.159 499.744 424.058 501.897 413.8C503.738 405.046 511.555 398.691 520.485 398.691C521.796 398.691 523.118 398.828 524.412 399.102C534.671 401.259 541.264 411.359 539.111 421.617C537.273 430.371 529.456 436.726 520.523 436.726C520.527 436.726 520.527 436.726 520.523 436.726Z" fill="#CCCCCC"></path> <path d="M520.489 399.175C521.751 399.175 523.035 399.305 524.319 399.575C534.335 401.679 540.749 411.506 538.645 421.522C536.811 430.255 529.109 436.249 520.527 436.249C519.265 436.249 517.981 436.119 516.698 435.849C506.681 433.745 500.267 423.918 502.371 413.902C504.205 405.169 511.907 399.175 520.489 399.175ZM520.489 398.218C511.332 398.218 503.318 404.73 501.431 413.705C499.222 424.223 505.98 434.579 516.498 436.789C517.823 437.069 519.181 437.21 520.524 437.21C529.681 437.21 537.695 430.697 539.582 421.722C541.791 411.205 535.033 400.848 524.515 398.639C523.189 398.358 521.832 398.218 520.489 398.218Z" fill="#404040"></path> <path d="M518.963 425.059C527.103 426.771 535.117 422.857 538.964 415.955C539.136 417.772 539.042 419.641 538.645 421.521C536.541 431.537 526.714 437.952 516.698 435.847C506.682 433.743 500.267 423.916 502.371 413.9C502.768 412.02 503.43 410.27 504.321 408.678C505.065 416.541 510.823 423.348 518.963 425.059Z" fill="white"></path> <path d="M370.477 440.434C369.516 440.434 368.548 440.332 367.601 440.132C363.961 439.368 360.839 437.232 358.805 434.117C356.771 431.003 356.073 427.286 356.838 423.645L373.069 346.401C374.415 339.99 380.139 335.34 386.68 335.34C387.641 335.34 388.609 335.442 389.556 335.641C397.068 337.22 401.893 344.616 400.315 352.128L384.084 429.372C382.738 435.78 377.014 440.434 370.477 440.434Z" fill="#CCCCCC"></path> <path d="M386.68 335.821C387.596 335.821 388.525 335.915 389.458 336.112C396.725 337.637 401.375 344.764 399.85 352.031L383.619 429.275C382.29 435.608 376.703 439.954 370.478 439.954C369.562 439.954 368.633 439.859 367.7 439.663C360.433 438.137 355.783 431.011 357.308 423.744L373.539 346.5C374.868 340.166 380.455 335.821 386.68 335.821ZM386.68 334.863C379.915 334.863 373.995 339.675 372.603 346.303L356.372 423.547C355.579 427.311 356.302 431.158 358.406 434.377C360.507 437.597 363.74 439.806 367.504 440.599C368.486 440.806 369.485 440.911 370.478 440.911C377.243 440.911 383.163 436.099 384.555 429.471L400.786 352.227C402.42 344.455 397.426 336.806 389.654 335.175C388.672 334.968 387.673 334.863 386.68 334.863Z" fill="#404040"></path> <path d="M201.249 356.069C193.351 345.229 190.811 331.4 194.28 318.136C197.878 304.413 198.26 289.252 198.292 287.544L190.313 276.588C182.763 266.221 179.904 253.069 182.475 240.51L186.691 219.85L109.254 104.501L101.44 110.193C98.6482 112.227 95.348 113.304 91.904 113.304C86.7275 113.304 81.8211 110.81 78.7769 106.634L57.6992 77.6964L80.6708 60.964L89.3298 72.8496L106.378 60.4344L97.7223 48.5488L123.447 29.8139L132.106 41.6994L149.154 29.2843L140.495 17.3987L163.456 0.67334L184.534 29.6105C187.083 33.1106 188.118 37.3962 187.445 41.6749C186.771 45.9571 184.474 49.7202 180.97 52.2699L173.157 57.9619L259.193 167.047L280.151 169.372C292.889 170.771 304.529 177.523 312.087 187.9L320.066 198.856C321.7 199.347 336.262 203.633 350.413 204.422C364.111 205.19 376.495 211.847 384.39 222.684L404.324 250.053L221.186 383.446L201.249 356.069Z" fill="#CCCCCC"></path> <path d="M163.348 1.33972L184.141 29.8876C189.255 36.9088 187.715 46.7602 180.687 51.8806L172.47 57.8637L258.937 167.496L280.096 169.842C292.739 171.231 304.207 177.891 311.695 188.174L319.768 199.26C319.768 199.26 335.199 204.043 350.381 204.892C363.733 205.643 376.117 212.141 383.997 222.957L403.651 249.937L221.288 382.765L201.635 355.785C193.754 344.969 191.359 331.193 194.743 318.256C198.601 303.54 198.773 287.39 198.773 287.39L190.699 276.304C183.208 266.021 180.396 253.055 182.945 240.601L187.203 219.745L109.377 103.821L101.16 109.804C98.3609 111.842 95.1204 112.82 91.9078 112.82C87.0435 112.82 82.2493 110.572 79.17 106.346L58.3764 77.7981L80.5729 61.6304L89.2319 73.5159L107.052 60.5362L98.3925 48.6506L123.342 30.4767L132.001 42.3623L149.821 29.3825L141.162 17.497L163.348 1.33972ZM163.558 0L162.783 0.564639L140.597 16.7254L139.822 17.29L140.387 18.0651L148.481 29.1791L132.208 41.0331L124.114 29.9191L123.549 29.1441L122.774 29.7087L97.8243 47.8825L97.0493 48.4471L97.6139 49.2222L105.708 60.3362L89.4353 72.1903L81.3409 61.0762L80.7763 60.3012L80.0012 60.8658L57.8083 77.0265L57.0332 77.5912L57.5978 78.3663L78.3915 106.914C81.5233 111.214 86.577 113.781 91.9043 113.781C95.45 113.781 98.8449 112.673 101.721 110.579L109.131 105.182L186.179 219.952L182.002 240.416C179.403 253.108 182.289 266.396 189.921 276.872L197.805 287.698C197.756 290.017 197.303 304.704 193.81 318.017C190.307 331.421 192.874 345.394 200.856 356.353L220.51 383.334L221.075 384.109L221.85 383.544L404.212 250.716L404.987 250.151L404.422 249.376L384.769 222.396C376.79 211.443 364.277 204.713 350.434 203.938C336.693 203.17 322.574 199.102 320.35 198.439L312.466 187.613C304.828 177.126 293.068 170.305 280.197 168.892L259.439 166.591L173.841 58.0531L181.251 52.6557C184.857 50.0288 187.224 46.1535 187.915 41.7451C188.606 37.3401 187.543 32.9282 184.916 29.3229L164.123 0.775078L163.558 0Z" fill="#404040"></path> <path d="M157.381 81.4206L230.256 173.815C234.927 179.739 241.776 183.54 249.275 184.372L258.716 185.42C271.359 186.809 282.827 193.469 290.315 203.752C295.923 211.45 304.241 216.728 313.598 218.496C318.312 219.387 323.674 220.169 329.005 220.467C342.357 221.217 354.74 227.716 362.621 238.532L382.275 265.512L403.661 249.937L384.007 222.957C376.127 212.141 363.743 205.639 350.391 204.892C335.209 204.043 319.778 199.259 319.778 199.259L311.705 188.173C304.213 177.891 292.749 171.227 280.106 169.842L258.947 167.495L172.479 57.8634L180.697 51.8802C187.728 46.7599 189.268 36.9084 184.151 29.8872L163.358 1.33936L141.971 16.9144L162.765 45.4622C167.878 52.4834 166.339 62.3349 159.31 67.4553C154.814 70.7239 153.944 77.0648 157.381 81.4206Z" fill="white"></path> <path d="M109.377 104.3C109.226 104.3 109.082 104.23 108.987 104.1C108.833 103.886 108.882 103.588 109.096 103.43L172.743 57.6486C172.957 57.4943 173.255 57.5434 173.413 57.7574C173.567 57.9713 173.518 58.2694 173.304 58.4272L109.657 104.209C109.57 104.269 109.475 104.3 109.377 104.3Z" fill="#404040"></path> <path d="M186.171 220.978C186.024 220.978 185.88 220.911 185.786 220.782C185.628 220.568 185.677 220.27 185.891 220.112L258.902 166.685C259.116 166.527 259.414 166.572 259.572 166.79C259.729 167.004 259.68 167.302 259.466 167.46L186.452 220.887C186.368 220.95 186.27 220.978 186.171 220.978Z" fill="#404040"></path> <path d="M197.697 287.746C197.55 287.746 197.402 287.676 197.308 287.546C197.153 287.332 197.203 287.034 197.417 286.876L319.899 198.343C320.113 198.189 320.411 198.238 320.569 198.452C320.723 198.666 320.674 198.964 320.46 199.122L197.978 287.655C197.893 287.718 197.795 287.746 197.697 287.746Z" fill="#404040"></path> <path d="M88.5034 117.394L108.315 117.524C108.315 117.524 113.246 111.615 116.006 119.976L118.812 115.171L123.059 134.499L127.573 140.257C127.573 140.257 117.318 145.795 114.509 150.845L109.746 141.758C105.38 142.74 101.876 140.969 99.4105 136.792L98.2637 134.969L95.7982 134.186C94.732 133.85 94.1323 132.717 94.4515 131.647L95.0021 129.792C95.0021 129.789 90.3061 124.005 88.5034 117.394Z" fill="white"></path> <path d="M114.511 151.321C114.507 151.321 114.507 151.321 114.504 151.321C114.328 151.318 114.167 151.219 114.086 151.065L109.492 142.297C105.154 143.136 101.531 141.322 99.0024 137.03L97.9538 135.367L95.6531 134.638C94.345 134.224 93.6015 132.818 93.9908 131.506L94.4712 129.889C93.619 128.799 89.6805 123.541 88.0392 117.516C88.0006 117.372 88.0287 117.218 88.1234 117.099C88.2146 116.98 88.3549 116.913 88.5022 116.913H88.5057L108.1 117.043C108.64 116.464 110.488 114.679 112.561 115.072C114.013 115.349 115.202 116.618 116.103 118.852L118.397 114.928C118.495 114.76 118.688 114.665 118.884 114.696C119.081 114.728 119.235 114.875 119.277 115.068L123.5 134.287L127.947 139.962C128.034 140.074 128.066 140.218 128.038 140.354C128.01 140.491 127.922 140.61 127.796 140.677C127.694 140.733 117.632 146.208 114.925 151.079C114.844 151.226 114.683 151.321 114.511 151.321ZM109.748 141.277C109.924 141.277 110.088 141.375 110.173 141.533L114.546 149.876C117.467 145.573 124.846 141.235 126.852 140.105L122.686 134.789C122.64 134.733 122.612 134.666 122.595 134.596L118.611 116.464L116.422 120.213C116.328 120.374 116.149 120.466 115.959 120.448C115.773 120.427 115.616 120.301 115.556 120.122C114.735 117.639 113.669 116.257 112.389 116.012C110.527 115.654 108.707 117.807 108.689 117.828C108.598 117.937 108.468 117.99 108.317 118L89.1474 117.874C91.0132 124.064 95.3375 129.43 95.3831 129.486C95.4813 129.609 95.5164 129.774 95.4708 129.924L94.9202 131.78C94.6782 132.597 95.1411 133.47 95.9512 133.726L98.4167 134.508C98.5254 134.543 98.6166 134.613 98.6763 134.708L99.8231 136.532C102.232 140.617 105.536 142.21 109.646 141.287C109.678 141.28 109.713 141.277 109.748 141.277Z" fill="#404040"></path> <path d="M97.3271 124.557C97.6708 125.136 97.6568 125.781 97.2991 125.991C96.9414 126.202 96.3732 125.904 96.0295 125.325C95.6858 124.743 95.6998 124.101 96.0576 123.891C96.4153 123.677 96.9834 123.975 97.3271 124.557Z" fill="#404040"></path> <path d="M94.2819 122.832C94.1732 122.832 94.0644 122.793 93.9732 122.719C93.7698 122.547 93.7453 122.246 93.9136 122.046C94.5379 121.306 96.2879 120.236 98.4518 121.495C98.6798 121.629 98.7569 121.92 98.6237 122.151C98.4904 122.379 98.1993 122.456 97.9678 122.323C95.9513 121.152 94.6992 122.6 94.6466 122.663C94.5554 122.772 94.4186 122.832 94.2819 122.832Z" fill="#404040"></path> <path d="M114.307 119.41C114.163 119.41 114.023 119.346 113.928 119.224C113.248 118.35 112.536 117.887 111.814 117.849C110.888 117.796 110.207 118.473 110.2 118.48C110.018 118.67 109.713 118.677 109.524 118.491C109.334 118.308 109.327 118.003 109.513 117.814C109.552 117.772 110.488 116.821 111.866 116.891C112.876 116.948 113.827 117.533 114.686 118.634C114.847 118.841 114.812 119.143 114.602 119.308C114.514 119.374 114.409 119.41 114.307 119.41Z" fill="#404040"></path> <path d="M112.098 122.08C111.891 122.08 111.702 121.947 111.639 121.74C110.909 119.317 112.28 117.391 112.34 117.311C112.494 117.097 112.796 117.051 113.01 117.206C113.224 117.36 113.269 117.658 113.115 117.872C113.105 117.889 111.968 119.506 112.554 121.463C112.631 121.716 112.487 121.982 112.235 122.059C112.193 122.073 112.144 122.08 112.098 122.08Z" fill="#404040"></path> <path d="M113.732 124.152C113.585 124.152 113.438 124.085 113.347 123.956C113.192 123.742 113.238 123.444 113.452 123.286C115.549 121.76 115.549 119.754 115.549 119.67C115.546 119.407 115.756 119.189 116.019 119.186C116.296 119.175 116.5 119.389 116.507 119.652C116.51 119.758 116.531 122.23 114.016 124.061C113.929 124.12 113.827 124.152 113.732 124.152Z" fill="#404040"></path> <path d="M109.748 142.234C109.604 142.234 109.464 142.171 109.369 142.048C109.208 141.838 109.246 141.539 109.457 141.378C109.495 141.35 113.251 138.45 114.802 136.44C114.963 136.23 115.265 136.191 115.471 136.353C115.682 136.514 115.72 136.815 115.559 137.022C113.932 139.13 110.2 142.013 110.042 142.136C109.951 142.202 109.85 142.234 109.748 142.234Z" fill="#404040"></path> <path d="M109.542 143.399L110.258 142.733L114.484 150.455C117.104 145.654 126.478 140.102 126.478 140.102C126.478 140.102 169.64 110.842 224.887 123.016V138.973C224.887 138.973 179.302 135.61 148.689 148.884C169.749 168.064 187.958 212.797 187.958 212.797L160.9 229.428C160.9 229.428 125.777 191.667 115.175 177.569C107.785 167.735 106.94 146.699 109.542 143.399Z" fill="white"></path> <path d="M160.903 229.906C160.774 229.906 160.647 229.853 160.553 229.751C160.202 229.372 125.292 191.811 114.795 177.853C107.452 168.089 106.2 146.861 109.167 143.101C109.181 143.084 109.198 143.063 109.216 143.049L109.935 142.382C110.043 142.281 110.191 142.238 110.338 142.259C110.485 142.284 110.611 142.372 110.682 142.501L114.511 149.495C117.608 144.834 125.871 139.906 126.239 139.685C126.323 139.626 137.265 132.282 154.822 126.534C171.025 121.231 196.35 116.233 224.996 122.543C225.217 122.592 225.371 122.785 225.371 123.009V138.966C225.371 139.1 225.315 139.226 225.217 139.317C225.118 139.408 224.989 139.45 224.855 139.443C224.403 139.408 179.708 136.287 149.561 149.025C170.232 168.328 188.227 212.163 188.406 212.608C188.494 212.826 188.413 213.075 188.213 213.198L161.156 229.828C161.075 229.881 160.991 229.906 160.903 229.906ZM109.896 143.725C107.476 146.917 108.234 167.539 115.56 177.281C125.541 190.552 157.712 225.287 160.988 228.815L187.364 212.601C185.544 208.239 168.089 167.198 148.369 149.235C148.25 149.126 148.194 148.962 148.218 148.804C148.246 148.642 148.351 148.509 148.499 148.442C177.124 136.027 219.279 138.149 224.41 138.461V123.402C196.129 117.261 171.134 122.206 155.117 127.449C137.686 133.155 126.856 140.425 126.748 140.499C126.632 140.569 117.433 146.054 114.908 150.687C114.824 150.841 114.662 150.936 114.487 150.936C114.311 150.936 114.15 150.841 114.066 150.687L110.135 143.504L109.896 143.725Z" fill="#404040"></path> <path d="M224.887 125.868L228.941 126.1C231.47 126.243 233.574 128.088 234.047 130.575L234.984 135.474L224.887 135.937V125.868Z" fill="white"></path> <path d="M224.886 136.418C224.763 136.418 224.644 136.373 224.556 136.285C224.462 136.194 224.409 136.071 224.409 135.938V125.865C224.409 125.732 224.462 125.609 224.56 125.518C224.655 125.427 224.781 125.381 224.914 125.388L228.968 125.62C231.718 125.778 234.001 127.777 234.52 130.484L235.457 135.384C235.481 135.52 235.45 135.661 235.362 135.769C235.274 135.878 235.148 135.945 235.008 135.952L224.907 136.415C224.904 136.418 224.893 136.418 224.886 136.418ZM225.367 126.374V135.44L234.411 135.026L233.58 130.667C233.145 128.394 231.227 126.711 228.916 126.577L225.367 126.374Z" fill="#404040"></path> <path d="M133.375 448.398C131.72 448.398 130.183 447.627 128.805 446.108L133.333 442.082C133.452 441.977 133.512 441.819 133.491 441.661L123.555 366.886C122.685 360.328 123.369 353.555 125.544 347.306L143.784 294.794H180.282L147.214 360.345C147.182 360.405 147.168 360.471 147.165 360.538L143.051 441.559C142.427 442.44 138.032 448.398 133.375 448.398Z" fill="white"></path> <path d="M179.5 295.28L146.783 360.137C146.723 360.256 146.688 360.386 146.681 360.519L142.578 441.4C141.753 442.539 137.64 447.919 133.375 447.919C131.969 447.919 130.692 447.334 129.493 446.138L133.652 442.441C133.891 442.231 134.006 441.915 133.964 441.6L124.029 366.825C123.166 360.34 123.846 353.645 125.993 347.465L144.121 295.276H179.5V295.28ZM181.058 294.322H143.44L125.088 347.153C122.882 353.505 122.194 360.287 123.078 366.951L133.014 441.726L128.132 446.068C129.833 448.112 131.628 448.88 133.375 448.88C138.695 448.88 143.518 441.726 143.518 441.726L147.635 360.568L181.058 294.322Z" fill="#404040"></path> <path d="M127.891 446.069C133.871 449.313 143.277 441.728 143.277 441.728L146.654 452.431L117.026 452.999L127.891 446.069Z" fill="#404040"></path> <path d="M203.03 448.816C201.248 448.816 199.617 448.013 198.172 446.428L203.482 442.096C203.622 441.984 203.686 441.802 203.647 441.626L172.795 294.798H208.627L212.786 442.58C212.075 443.485 207.663 448.816 203.03 448.816Z" fill="white"></path> <path d="M208.162 295.28L212.304 442.424C211.364 443.588 207.268 448.337 203.027 448.337C201.505 448.337 200.138 447.723 198.875 446.471L203.781 442.469C204.059 442.241 204.188 441.88 204.115 441.529L173.382 295.28H208.162ZM209.095 294.322H172.207L203.182 441.726L197.49 446.369C199.264 448.505 201.176 449.294 203.031 449.294C208.372 449.294 213.272 442.743 213.272 442.743L209.095 294.322Z" fill="#404040"></path> <path d="M197.963 446.069C203.942 449.313 213.348 441.728 213.348 441.728L216.726 452.431L187.098 452.999L197.963 446.069Z" fill="#404040"></path> <path d="M209.093 294.322H141.322C141.322 294.322 148.196 236.753 154.53 221.252L187.219 210.825C187.219 210.829 212.993 244.227 209.093 294.322Z" fill="#7C95FA"></path> <path d="M209.095 294.804H141.324C141.187 294.804 141.057 294.744 140.966 294.642C140.875 294.541 140.833 294.404 140.85 294.267C140.92 293.692 147.805 236.456 154.089 221.074C154.142 220.944 154.251 220.842 154.388 220.8L187.077 210.374C187.267 210.314 187.477 210.377 187.603 210.538C187.666 210.623 194.155 219.106 200.068 233.612C205.521 246.991 211.595 268.392 209.572 294.365C209.551 294.611 209.344 294.804 209.095 294.804ZM141.864 293.846H208.649C212.135 247.072 189.423 214.645 187.042 211.391L154.889 221.645C149.001 236.393 142.576 288 141.864 293.846Z" fill="#404040"></path> <path d="M140.667 153.564C140.495 153.564 140.327 153.47 140.243 153.308C140.12 153.073 140.211 152.786 140.446 152.663L148.47 148.458C148.705 148.335 148.993 148.426 149.116 148.661C149.238 148.896 149.147 149.184 148.912 149.307L140.888 153.512C140.818 153.547 140.741 153.564 140.667 153.564Z" fill="#404040"></path> <path d="M93.7926 102.049C107.695 92.7835 115.614 107.405 117.052 109.667L118.23 108.8C121.337 106.521 125.746 107.552 127.506 110.978C130.431 116.663 133.535 128.282 134.612 134.164C137.288 148.736 140.662 160.558 137.347 173.72L134.931 157.868L134.314 175.376C132.623 175.6 130.309 174.948 127.57 171.683C127.57 171.683 117.627 134.97 118.974 114.17C118.882 115.113 118.419 117.786 116.003 119.971C115.898 119.395 115.477 118.512 115.021 117.821C111.959 113.181 108.312 117.519 108.312 117.519L109.789 120.177C103.002 120.251 92.6703 122.717 87.5605 116.19C87.564 116.19 85.0389 107.882 93.7926 102.049Z" fill="#7C95FA"></path> <path d="M133.692 175.898C131.563 175.898 129.385 174.586 127.204 171.995C127.158 171.942 127.127 171.879 127.109 171.812C127.015 171.465 118.222 138.737 118.373 117.712C117.91 118.578 117.254 119.486 116.325 120.328C116.195 120.444 116.013 120.482 115.851 120.426C115.687 120.37 115.564 120.23 115.536 120.061C115.448 119.584 115.066 118.753 114.624 118.087C113.821 116.87 112.916 116.221 111.941 116.165C110.584 116.081 109.388 117.119 108.904 117.596L110.212 119.946C110.293 120.093 110.293 120.272 110.208 120.419C110.124 120.566 109.97 120.654 109.798 120.658C108.465 120.672 106.992 120.78 105.435 120.893C99.1997 121.348 91.442 121.917 87.1878 116.484C87.1528 116.439 87.1247 116.386 87.1072 116.33C87.0826 116.242 84.5821 107.611 93.5287 101.653C97.5899 98.9486 101.542 97.9911 105.274 98.8118C111.839 100.257 115.862 106.805 117.188 108.975L117.949 108.418C119.544 107.246 121.564 106.836 123.49 107.288C125.412 107.741 127.032 109.007 127.937 110.764C130.851 116.425 133.962 127.945 135.088 134.083C135.491 136.289 135.916 138.442 136.326 140.525C138.651 152.355 140.657 162.571 137.816 173.843C137.76 174.064 137.557 174.222 137.329 174.204C137.101 174.194 136.912 174.022 136.88 173.797L135.235 163.006L134.8 175.396C134.793 175.628 134.618 175.824 134.386 175.852C134.151 175.884 133.924 175.898 133.692 175.898ZM128.007 171.458C130.027 173.839 131.991 174.993 133.853 174.937L134.457 157.854C134.467 157.608 134.66 157.409 134.909 157.395C135.148 157.363 135.372 157.556 135.411 157.801L137.441 171.118C139.374 161.007 137.515 151.541 135.386 140.708C134.976 138.621 134.551 136.464 134.148 134.255C133.033 128.173 129.957 116.779 127.088 111.199C126.313 109.694 124.924 108.607 123.272 108.218C121.621 107.829 119.888 108.183 118.517 109.186L117.338 110.049C117.233 110.126 117.096 110.157 116.967 110.133C116.837 110.108 116.721 110.031 116.651 109.919C116.577 109.803 116.486 109.656 116.377 109.48C115.108 107.408 111.243 101.102 105.067 99.7412C101.599 98.9766 97.895 99.885 94.0583 102.442C86.0831 107.758 87.7525 115.053 87.998 115.962C91.947 120.914 99.0734 120.391 105.362 119.932C106.635 119.837 107.848 119.749 108.984 119.711L107.894 117.747C107.796 117.571 107.817 117.357 107.946 117.207C108.02 117.119 109.77 115.067 111.99 115.201C113.288 115.274 114.442 116.067 115.424 117.554C115.704 117.978 116.013 118.543 116.227 119.076C118.022 117.15 118.415 115.008 118.499 114.12C118.524 113.861 118.755 113.668 119.015 113.689C119.274 113.71 119.471 113.934 119.453 114.197C118.166 134.153 127.432 169.294 128.007 171.458ZM93.7917 102.049H93.7987H93.7917Z" fill="#404040"></path> <path d="M118.811 115.647C118.607 115.647 118.421 115.517 118.355 115.314L116.594 109.815C116.513 109.562 116.654 109.292 116.903 109.211C117.155 109.131 117.425 109.271 117.506 109.52L119.267 115.019C119.347 115.272 119.207 115.542 118.958 115.622C118.909 115.64 118.86 115.647 118.811 115.647Z" fill="#404040"></path> <path d="M102.758 138.126C102.653 138.126 102.544 138.091 102.456 138.017C102.253 137.849 102.221 137.547 102.39 137.344L104.638 134.598C104.806 134.395 105.108 134.363 105.311 134.531C105.515 134.7 105.546 135.001 105.378 135.205L103.13 137.951C103.035 138.067 102.895 138.126 102.758 138.126Z" fill="#404040"></path> </svg> 