<?xml version="1.0" encoding="UTF-8"?> <svg xmlns="http://www.w3.org/2000/svg" width="630" height="548" viewBox="0 0 630 548" fill="none"> <path d="M384.638 380.623H0.648926V439.414H384.638V380.623Z" fill="white"></path> <path d="M383.992 381.269V438.772H1.29076V381.269H383.992ZM385.28 379.98H0.00244141V440.063H385.283V379.98H385.28Z" fill="#404040"></path> <path d="M0 456.637L385.281 456.637V440.063L0 440.063V456.637Z" fill="#404040"></path> <path d="M353.762 467.825H371.719V456.636H353.762V467.825Z" fill="#404040"></path> <path d="M13.5652 467.825H31.5225V456.636H13.5652V467.825Z" fill="#404040"></path> <path d="M192.64 440.71C192.284 440.71 191.994 440.42 191.994 440.064V380.891C191.994 380.535 192.284 380.245 192.64 380.245C192.996 380.245 193.286 380.535 193.286 380.891V440.064C193.286 440.42 192.999 440.71 192.64 440.71Z" fill="#404040"></path> <path d="M289.33 405.509C291.817 405.509 293.84 407.532 293.84 410.02C293.84 412.507 291.817 414.53 289.33 414.53C286.842 414.53 284.819 412.507 284.819 410.02C284.819 407.532 286.845 405.509 289.33 405.509ZM289.33 404.221C286.127 404.221 283.527 406.817 283.527 410.023C283.527 413.226 286.124 415.825 289.33 415.825C292.532 415.825 295.132 413.229 295.132 410.023C295.132 406.817 292.536 404.221 289.33 404.221Z" fill="#404040"></path> <path d="M95.4073 405.509C97.895 405.509 99.9181 407.532 99.9181 410.02C99.9181 412.507 97.895 414.53 95.4073 414.53C92.9197 414.53 90.8966 412.507 90.8966 410.02C90.8966 407.532 92.9197 405.509 95.4073 405.509ZM95.4073 404.221C92.2047 404.221 89.605 406.817 89.605 410.023C89.605 413.226 92.2014 415.825 95.4073 415.825C98.61 415.825 101.21 413.229 101.21 410.023C101.206 406.817 98.61 404.221 95.4073 404.221Z" fill="#404040"></path> <path d="M3.15509 355.501L263.272 355.501V223.731L3.15509 223.731V355.501Z" fill="#404040"></path> <path d="M126.906 380.891H139.525V349.286H126.906V380.891Z" fill="#404040"></path> <path d="M149.017 379.98V374.771H117.412V379.98H149.017Z" fill="#404040"></path> <path d="M247.722 347.836C247.722 349.668 249.204 351.151 251.036 351.151C252.868 351.151 254.351 349.668 254.351 347.836C254.351 346.004 252.868 344.521 251.036 344.521C249.204 344.521 247.722 346.004 247.722 347.836Z" fill="#7C95FA"></path> <path d="M237.57 350.255C238.905 350.255 239.988 349.172 239.988 347.836C239.988 346.501 238.905 345.418 237.57 345.418C236.234 345.418 235.151 346.501 235.151 347.836C235.151 349.172 236.234 350.255 237.57 350.255Z" fill="white"></path> <path d="M163.19 335.635C163.059 335.635 162.924 335.596 162.808 335.51L31.1403 239.17C30.8536 238.959 30.791 238.557 31.0019 238.267C31.2128 237.981 31.618 237.918 31.9047 238.129L163.573 334.469C163.859 334.68 163.922 335.082 163.711 335.372C163.586 335.546 163.388 335.635 163.19 335.635Z" fill="white"></path> <path d="M163.562 308.287C163.431 308.287 163.296 308.248 163.18 308.162L71.005 240.718C70.7184 240.508 70.6558 240.106 70.8666 239.816C71.0775 239.529 71.4795 239.466 71.7694 239.677L163.941 307.121C164.228 307.332 164.291 307.734 164.08 308.024C163.958 308.195 163.763 308.287 163.562 308.287Z" fill="white"></path> <path d="M324.929 379.707H345.73C347.258 379.707 348.501 378.468 348.501 376.936V348.916H322.161V376.936C322.161 378.468 323.4 379.707 324.929 379.707Z" fill="#7C95FA"></path> <path d="M336.527 380.354H334.128C327.172 380.354 321.512 374.693 321.512 367.737V348.92C321.512 348.564 321.802 348.274 322.158 348.274H348.497C348.853 348.274 349.143 348.564 349.143 348.92V367.737C349.143 374.696 343.486 380.354 336.527 380.354ZM322.803 349.566V367.737C322.803 373.981 327.884 379.062 334.128 379.062H336.527C342.771 379.062 347.851 373.981 347.851 367.737V349.566H322.803Z" fill="#404040"></path> <path d="M327.129 307.862C326.931 306.877 326.905 305.826 327.089 304.745C327.679 301.272 330.467 298.508 333.946 297.951C339.175 297.114 343.692 301.131 343.692 306.202C343.692 306.482 343.679 306.758 343.653 307.029C343.274 310.88 344.052 314.742 346.042 318.063C347.274 320.116 347.93 322.554 347.791 325.154C347.475 331.098 342.157 336.505 336.22 336.917C328.925 337.421 322.852 331.655 322.852 324.469C322.852 321.889 323.636 319.49 324.977 317.503C326.888 314.67 327.808 311.22 327.129 307.862Z" fill="#E6E6E6"></path> <path d="M335.317 337.602C331.979 337.602 328.832 336.37 326.374 334.073C323.722 331.599 322.203 328.099 322.203 324.475C322.203 321.849 322.977 319.315 324.437 317.147C326.378 314.271 327.109 311.019 326.496 307.987C326.276 306.893 326.259 305.763 326.454 304.636C327.093 300.864 330.062 297.921 333.844 297.315C336.49 296.89 339.159 297.631 341.172 299.348C343.185 301.065 344.338 303.562 344.338 306.205C344.338 306.505 344.325 306.804 344.296 307.094C343.917 310.916 344.714 314.594 346.595 317.734C347.94 319.978 348.576 322.557 348.437 325.193C348.101 331.467 342.526 337.134 336.266 337.566C335.946 337.589 335.63 337.602 335.317 337.602ZM327.762 307.734C328.444 311.104 327.64 314.706 325.508 317.869C324.19 319.823 323.495 322.106 323.495 324.475C323.495 327.744 324.865 330.897 327.258 333.131C329.683 335.391 332.846 336.511 336.174 336.281C341.821 335.892 346.846 330.782 347.146 325.127C347.274 322.749 346.701 320.426 345.488 318.403C343.462 315.022 342.605 311.071 343.01 306.972C343.034 306.722 343.047 306.465 343.047 306.208C343.047 303.944 342.058 301.803 340.335 300.333C338.612 298.864 336.322 298.231 334.052 298.594C330.869 299.104 328.269 301.678 327.729 304.857C327.561 305.826 327.574 306.795 327.762 307.734Z" fill="#404040"></path> <path d="M335.33 349.566C334.975 349.566 334.685 349.276 334.685 348.92V313.605C334.685 313.249 334.975 312.959 335.33 312.959C335.686 312.959 335.976 313.249 335.976 313.605V348.92C335.973 349.276 335.686 349.566 335.33 349.566Z" fill="#404040"></path> <path d="M200.965 368.472H288.738V364.804H200.965V368.472Z" fill="#7C95FA"></path> <path d="M288.736 368.841H200.963C200.759 368.841 200.594 368.676 200.594 368.472V364.805C200.594 364.6 200.759 364.436 200.963 364.436H288.736C288.941 364.436 289.106 364.6 289.106 364.805V368.472C289.106 368.676 288.941 368.841 288.736 368.841ZM201.332 368.103H288.367V365.174H201.332V368.103Z" fill="#404040"></path> <path d="M200.965 380.889H288.738V377.212H200.965V380.889Z" fill="#7C95FA"></path> <path d="M288.736 381.259H200.963C200.759 381.259 200.594 381.094 200.594 380.89V377.213C200.594 377.008 200.759 376.844 200.963 376.844H288.736C288.941 376.844 289.106 377.008 289.106 377.213V380.89C289.106 381.094 288.941 381.259 288.736 381.259ZM201.332 380.521H288.367V377.579H201.332V380.521Z" fill="#404040"></path> <path d="M236.113 367.707H201.332V378.063H236.113V367.707Z" fill="white"></path> <path d="M235.748 368.073V377.69H201.702V368.073H235.748ZM236.486 367.338H200.967V378.432H236.486V367.338Z" fill="#404040"></path> <path d="M289.159 367.707H235.382V378.063H289.159V367.707Z" fill="white"></path> <path d="M288.79 368.073V377.69H235.751V368.073H288.79ZM289.528 367.338H235.013V378.432H289.528V367.338Z" fill="#404040"></path> <path d="M288.922 370.91H235.966C235.761 370.91 235.597 370.745 235.597 370.541C235.597 370.337 235.761 370.172 235.966 370.172H288.922C289.126 370.172 289.291 370.337 289.291 370.541C289.291 370.745 289.126 370.91 288.922 370.91Z" fill="#404040"></path> <path d="M271.58 373.278H242.443C242.238 373.278 242.074 373.113 242.074 372.909C242.074 372.705 242.238 372.54 242.443 372.54H271.58C271.784 372.54 271.949 372.705 271.949 372.909C271.949 373.113 271.784 373.278 271.58 373.278Z" fill="#404040"></path> <path d="M288.736 375.644H262.268C262.064 375.644 261.899 375.48 261.899 375.275C261.899 375.071 262.064 374.906 262.268 374.906H288.736C288.94 374.906 289.105 375.071 289.105 375.275C289.105 375.48 288.94 375.644 288.736 375.644Z" fill="#404040"></path> <path d="M235.082 375.644H214.763C214.558 375.644 214.394 375.48 214.394 375.275C214.394 375.071 214.558 374.906 214.763 374.906H235.082C235.287 374.906 235.451 375.071 235.451 375.275C235.451 375.48 235.287 375.644 235.082 375.644Z" fill="#404040"></path> <path d="M221.606 373.123H201.665C201.461 373.123 201.296 372.958 201.296 372.754C201.296 372.55 201.461 372.385 201.665 372.385H221.606C221.81 372.385 221.975 372.55 221.975 372.754C221.975 372.958 221.81 373.123 221.606 373.123Z" fill="#404040"></path> <path d="M242.446 358.713H207.448V364.805H242.446V358.713Z" fill="white"></path> <path d="M242.443 365.174H207.445C207.24 365.174 207.076 365.009 207.076 364.805V358.713C207.076 358.508 207.24 358.344 207.445 358.344H242.443C242.648 358.344 242.812 358.508 242.812 358.713V364.805C242.812 365.009 242.648 365.174 242.443 365.174ZM207.814 364.436H242.074V359.082H207.814V364.436Z" fill="#404040"></path> <path d="M295.131 358.713H242.442V364.805H295.131V358.713Z" fill="#7C95FA"></path> <path d="M295.132 365.174H242.443C242.238 365.174 242.074 365.009 242.074 364.805V358.713C242.074 358.508 242.238 358.344 242.443 358.344H295.132C295.336 358.344 295.501 358.508 295.501 358.713V364.805C295.501 365.009 295.336 365.174 295.132 365.174ZM242.812 364.436H294.763V359.082H242.812V364.436Z" fill="#404040"></path> <path d="M234.334 360.896H207.445C207.24 360.896 207.076 360.732 207.076 360.527C207.076 360.323 207.24 360.158 207.445 360.158H234.334C234.539 360.158 234.703 360.323 234.703 360.527C234.703 360.732 234.539 360.896 234.334 360.896Z" fill="#404040"></path> <path d="M237.87 363.058H223.639C223.435 363.058 223.27 362.894 223.27 362.689C223.27 362.485 223.435 362.32 223.639 362.32H237.87C238.074 362.32 238.239 362.485 238.239 362.689C238.239 362.89 238.074 363.058 237.87 363.058Z" fill="#404040"></path> <path d="M35.6307 181.048C35.2748 181.048 34.9849 180.758 34.9849 180.402V113.179C34.9849 112.823 35.2748 112.533 35.6307 112.533H367.695C368.051 112.533 368.341 112.823 368.341 113.179V180.405C368.341 180.761 368.051 181.051 367.695 181.051H35.6307V181.048Z" fill="white"></path> <path d="M367.695 113.179V180.405H35.6339V113.179H367.695ZM367.695 111.887H35.6339C34.9222 111.887 34.3423 112.464 34.3423 113.179V180.405C34.3423 181.117 34.9189 181.697 35.6339 181.697H367.699C368.41 181.697 368.99 181.12 368.99 180.405V113.179C368.987 112.464 368.407 111.887 367.695 111.887Z" fill="#404040"></path> <path d="M35.6317 181.048C35.2758 181.048 34.9858 180.758 34.9858 180.402V113.179C34.9858 112.952 35.1045 112.745 35.2989 112.626C35.401 112.563 35.5163 112.534 35.6317 112.534C35.7338 112.534 35.8392 112.56 35.9315 112.609L163.593 179.836C163.856 179.974 163.988 180.274 163.919 180.56C163.847 180.847 163.59 181.051 163.293 181.051H35.6317V181.048Z" fill="#7C95FA"></path> <path d="M35.6345 113.179L163.296 180.405H35.6345V113.179V113.179ZM35.6345 111.887C35.4039 111.887 35.1732 111.95 34.9689 112.072C34.5834 112.306 34.3462 112.724 34.3462 113.176V180.402C34.3462 181.113 34.9228 181.693 35.6378 181.693H163.299C163.892 181.693 164.41 181.288 164.551 180.711C164.693 180.135 164.426 179.535 163.899 179.258L36.2375 112.032C36.0464 111.937 35.8388 111.887 35.6345 111.887Z" fill="#404040"></path> <path d="M104.449 129.288C114.518 129.288 122.679 137.45 122.679 147.519C122.679 157.588 114.518 165.75 104.449 165.75C94.3793 165.75 86.2179 157.588 86.2179 147.519C86.2179 137.45 94.3793 129.288 104.449 129.288ZM104.449 127.997C93.6841 127.997 84.9263 136.754 84.9263 147.519C84.9263 158.283 93.6841 167.041 104.449 167.041C115.213 167.041 123.971 158.283 123.971 147.519C123.971 136.754 115.213 127.997 104.449 127.997Z" fill="#404040"></path> <path d="M341.194 159.031C343.395 152.793 340.122 145.952 333.884 143.752C327.647 141.551 320.806 144.824 318.605 151.061C316.405 157.299 319.677 164.139 325.915 166.34C332.153 168.541 338.993 165.268 341.194 159.031Z" fill="#7C95FA"></path> <path d="M329.913 143.687C336.173 143.687 341.247 148.761 341.247 155.021C341.247 161.281 336.173 166.356 329.913 166.356C323.652 166.356 318.578 161.281 318.578 155.021C318.578 148.761 323.652 143.687 329.913 143.687ZM329.913 142.395C322.951 142.395 317.29 148.059 317.29 155.018C317.29 161.98 322.954 167.641 329.913 167.641C336.872 167.641 342.536 161.977 342.536 155.018C342.536 148.059 336.872 142.395 329.913 142.395Z" fill="#404040"></path> <path d="M163.296 181.048C163.025 181.048 162.772 180.876 162.683 180.603C162.571 180.263 162.755 179.901 163.095 179.789L367.494 112.563C367.834 112.454 368.196 112.635 368.308 112.975C368.42 113.314 368.236 113.676 367.896 113.788L163.497 181.015C163.427 181.038 163.361 181.048 163.296 181.048Z" fill="#404040"></path> <path d="M618.805 260.459L560.264 353.207C559.473 354.459 559.849 356.11 561.098 356.901L567.351 360.848C568.603 361.639 570.254 361.263 571.045 360.015L629.586 267.266C630.376 266.014 630.001 264.363 628.752 263.573L622.498 259.625C621.246 258.834 619.592 259.21 618.805 260.459Z" fill="#7C95FA"></path> <path d="M567.611 360.506C566.3 360.506 565.015 360.137 563.878 359.419C562.293 358.417 561.193 356.859 560.778 355.03C560.366 353.201 560.689 351.32 561.687 349.735L616.28 263.24C617.282 261.655 618.84 260.555 620.669 260.14C622.498 259.725 624.379 260.051 625.964 261.049C627.549 262.051 628.653 263.609 629.065 265.438C629.476 267.267 629.154 269.148 628.152 270.733L573.558 357.228C572.557 358.813 570.998 359.916 569.17 360.328C568.656 360.447 568.132 360.506 567.611 360.506ZM617.378 263.929L562.784 350.424C561.967 351.719 561.703 353.254 562.039 354.747C562.375 356.239 563.275 357.511 564.57 358.328C565.865 359.145 567.397 359.409 568.893 359.073C570.385 358.733 571.657 357.837 572.474 356.542L627.068 270.048C627.885 268.753 628.149 267.217 627.812 265.725C627.473 264.232 626.577 262.96 625.282 262.143C623.987 261.326 622.452 261.062 620.959 261.398C619.466 261.738 618.191 262.637 617.378 263.929Z" fill="#404040"></path> <path d="M613.266 253.834L551.86 351.107L558.586 355.353L619.992 258.079L613.266 253.834Z" fill="#404040"></path> <path d="M439.05 17.0103C439.05 18.6841 437.014 20.0416 434.504 20.0416C431.993 20.0416 429.957 18.6841 429.957 17.0103C429.957 15.3365 431.993 13.979 434.504 13.979C437.014 13.979 439.05 15.3365 439.05 17.0103Z" fill="#404040"></path> <path d="M438.632 17.8898C438.276 17.8898 437.986 17.5999 437.986 17.244V0.667295C437.986 0.311444 438.276 0.0214844 438.632 0.0214844C438.987 0.0214844 439.278 0.311444 439.278 0.667295V17.244C439.278 17.5999 438.987 17.8898 438.632 17.8898Z" fill="#404040"></path> <path d="M438.632 0.624878C438.632 0.624878 444.165 -1.11155 449.697 1.20478V4.4272C449.697 4.4272 443.842 2.39095 438.632 3.96263V0.624878Z" fill="#404040"></path> <path d="M403.669 51.0537C406.437 51.0537 408.681 49.5578 408.681 47.7126C408.681 45.8674 406.437 44.3716 403.669 44.3716C400.901 44.3716 398.658 45.8674 398.658 47.7126C398.658 49.5578 400.901 51.0537 403.669 51.0537Z" fill="#404040"></path> <path d="M408.223 48.6154C407.867 48.6154 407.577 48.3254 407.577 47.9696V29.7059C407.577 29.35 407.867 29.0601 408.223 29.0601C408.579 29.0601 408.869 29.35 408.869 29.7059V47.9696C408.869 48.3254 408.579 48.6154 408.223 48.6154Z" fill="#404040"></path> <path d="M415.399 51.6333C418.167 51.6333 420.41 50.1374 420.41 48.2922C420.41 46.447 418.167 44.9512 415.399 44.9512C412.631 44.9512 410.387 46.447 410.387 48.2922C410.387 50.1374 412.631 51.6333 415.399 51.6333Z" fill="#404040"></path> <path d="M419.953 49.1954C419.597 49.1954 419.307 48.9055 419.307 48.5496V30.2859C419.307 29.9301 419.597 29.6401 419.953 29.6401C420.309 29.6401 420.599 29.9301 420.599 30.2859V48.5496C420.599 48.9055 420.309 49.1954 419.953 49.1954Z" fill="#404040"></path> <path d="M408.224 29.6563C408.224 29.6563 414.319 27.7452 420.415 30.2955V33.8441C420.415 33.8441 413.96 31.6002 408.224 33.3301V29.6563Z" fill="#404040"></path> <path d="M375.811 530.088L381.834 547.844H346.457L350.361 528.671L375.811 530.088Z" fill="#404040"></path> <path d="M467.495 524.334L502.754 547.843H446.54L448.286 524.334H467.495Z" fill="#404040"></path> <path d="M478.06 87.1428C476.175 92.8364 470.034 95.9237 464.34 94.039C458.646 92.1543 455.559 86.0126 457.444 80.319C459.328 74.6254 465.47 71.5381 471.164 73.4227C476.861 75.3074 479.945 81.4492 478.06 87.1428Z" fill="#7C95FA"></path> <path d="M467.763 95.2387C466.547 95.2387 465.325 95.0443 464.135 94.6489C458.115 92.6555 454.837 86.1349 456.83 80.1118C457.796 77.1958 459.839 74.83 462.586 73.4495C465.331 72.0689 468.451 71.8415 471.367 72.807C474.283 73.7724 476.649 75.8152 478.03 78.5632C479.41 81.3078 479.638 84.4281 478.672 87.3441C477.707 90.2601 475.664 92.6258 472.916 94.0064C471.292 94.8268 469.532 95.2387 467.763 95.2387ZM467.743 73.5121C466.171 73.5121 464.613 73.8778 463.166 74.606C460.728 75.8317 458.916 77.9305 458.059 80.5203C456.29 85.868 459.199 91.6571 464.544 93.4265C467.133 94.2832 469.901 94.0822 472.339 92.8565C474.778 91.6308 476.59 89.5319 477.447 86.9421C478.303 84.3523 478.102 81.5846 476.876 79.1464C475.651 76.7081 473.552 74.8959 470.962 74.036C469.908 73.6867 468.824 73.5121 467.743 73.5121Z" fill="#404040"></path> <path d="M534.995 156.932C510.665 123.914 496.28 116.302 472.728 108.315C458.388 103.452 429.143 104.437 420.586 103.581C386.474 100.167 370.384 165.294 365.244 171.815C365.238 171.808 347.257 159.828 337.926 150.625L317.191 165.499C317.191 165.499 348.839 237.456 386.039 197.865L386.091 197.901L404.774 174.023L403.508 283.269H498.016C501.855 255.216 503.357 229.75 503.469 207.657L529.38 180.725C535.717 174.952 540.086 163.838 534.995 156.932ZM501.993 166.942V166.939V166.942Z" fill="#E6E6E6"></path> <path d="M498.013 283.915H403.505C403.333 283.915 403.165 283.846 403.047 283.724C402.925 283.602 402.859 283.434 402.859 283.262L404.104 175.924L386.599 198.3C386.523 198.395 386.427 198.465 386.322 198.504C377.524 207.783 368.272 211.664 358.809 210.043C334.499 205.871 317.316 167.397 316.598 165.759C316.476 165.479 316.565 165.153 316.812 164.975L337.547 150.102C337.804 149.917 338.154 149.947 338.378 150.168C346.671 158.349 361.715 168.659 365.073 170.926C366.107 169.245 367.61 165.43 369.462 160.728C373.412 150.695 379.379 135.532 387.699 123.321C397.712 108.612 408.8 101.759 420.648 102.942C422.974 103.176 426.965 103.271 431.587 103.387C443.871 103.69 462.438 104.148 472.935 107.706C494.991 115.186 510.21 122.207 535.519 156.55C540.649 163.515 536.712 174.919 529.815 181.206L504.112 207.921C503.977 232.484 502.141 257.862 498.655 283.358C498.609 283.678 498.336 283.915 498.013 283.915ZM404.157 282.623H497.449C500.892 257.282 502.698 232.063 502.82 207.654C502.82 207.489 502.886 207.328 503.001 207.209L528.912 180.277C535.426 174.342 539.196 163.716 534.478 157.311C509.397 123.271 494.339 116.322 472.52 108.922C462.207 105.426 443.762 104.971 431.554 104.672C426.717 104.553 422.895 104.457 420.52 104.22C394.144 101.581 378.282 141.845 370.661 161.196C368.477 166.744 366.898 170.754 365.748 172.214C365.64 172.352 365.482 172.438 365.307 172.458C365.132 172.474 364.958 172.422 364.826 172.306C363.023 171.104 346.869 160.207 337.864 151.466L317.998 165.713C318.967 167.812 323.129 176.534 329.504 185.535C341.607 202.626 352.243 207.601 359.033 208.768C368.108 210.326 377.033 206.507 385.571 197.423C385.623 197.364 385.689 197.321 385.755 197.285L404.266 173.624C404.437 173.407 404.727 173.321 404.987 173.413C405.248 173.506 405.422 173.753 405.419 174.029L404.157 282.623ZM501.993 167.585C501.92 167.585 501.848 167.571 501.779 167.548C501.575 167.476 501.423 167.308 501.367 167.107C501.308 166.889 501.367 166.649 501.535 166.481C501.752 166.263 502.092 166.23 502.349 166.402C502.5 166.501 502.603 166.662 502.629 166.84C502.655 167.018 502.609 167.202 502.497 167.344C502.372 167.499 502.187 167.585 501.993 167.585ZM502.639 166.942H502.645H502.639Z" fill="#404040"></path> <path d="M497.865 283.378L524.175 394.716C525.628 400.861 525.391 407.286 523.486 413.306L482.609 526.374H442.392L474.837 409.629L450.758 338.083L384.774 530.589L346.457 528.454L403.364 283.272L497.865 283.378Z" fill="#7C95FA"></path> <path d="M384.773 531.234C384.763 531.234 384.75 531.234 384.737 531.234L346.42 529.099C346.229 529.089 346.055 528.994 345.939 528.842C345.824 528.691 345.785 528.493 345.827 528.308L402.734 283.127C402.803 282.834 403.063 282.626 403.363 282.626L497.861 282.735C498.161 282.735 498.421 282.943 498.487 283.233L524.797 394.571C526.277 400.828 526.033 407.375 524.095 413.504L483.209 526.598C483.117 526.855 482.873 527.023 482.603 527.023H442.385C442.184 527.023 441.993 526.928 441.871 526.77C441.749 526.608 441.709 526.401 441.762 526.206L474.151 409.652L450.744 340.086L385.376 530.796C385.294 531.06 385.047 531.234 384.773 531.234ZM347.261 527.85L384.322 529.916L450.148 337.872C450.237 337.612 450.484 337.437 450.757 337.437C451.034 337.437 451.278 337.615 451.367 337.876L475.443 409.428C475.482 409.55 475.489 409.682 475.453 409.807L443.235 525.732H482.151L522.873 413.089C524.731 407.207 524.965 400.897 523.539 394.864L497.344 284.02L403.871 283.911L347.261 527.85Z" fill="#404040"></path> <path d="M434.672 70.0329L432.003 83.3147L430.276 104.765L448.59 129.368L452.8 110.432L453.041 106.738V106.742C459.275 106.541 464.945 102.376 466.771 96.0594L474.31 70.0032C477.278 59.7429 460.033 58.0493 449.558 53.9965C439.084 49.9438 434.672 70.0329 434.672 70.0329Z" fill="white"></path> <path d="M448.589 130.013C448.388 130.013 448.194 129.917 448.072 129.752L429.759 105.149C429.666 105.024 429.62 104.869 429.634 104.711L431.36 83.2611C431.363 83.2348 431.367 83.2117 431.37 83.1853L434.039 69.9035C434.039 69.9003 434.039 69.8969 434.042 69.8937C434.157 69.3764 436.902 57.1687 443.337 53.7156C445.363 52.6283 447.535 52.5229 449.792 53.396C452.181 54.3219 454.879 55.1061 457.736 55.9397C466.952 58.6251 477.393 61.6728 474.932 70.1836L467.393 96.2398C465.581 102.5 460.102 106.905 453.65 107.357L453.449 110.474C453.446 110.507 453.443 110.54 453.436 110.573L449.225 129.509C449.169 129.756 448.978 129.947 448.731 129.999C448.678 130.009 448.632 130.013 448.589 130.013ZM430.938 104.573L448.263 127.851L452.158 110.339L452.395 106.695C452.418 106.345 452.695 106.062 453.06 106.092C453.064 106.092 453.067 106.092 453.07 106.092C459.192 105.871 464.444 101.772 466.151 95.8773L473.69 69.8212C475.644 63.0699 468.158 60.3219 457.373 57.1753C454.616 56.3713 451.765 55.541 449.327 54.5954C447.41 53.854 445.647 53.9364 443.95 54.8491C438.082 57.9957 435.373 69.8706 435.307 70.1638L432.648 83.3995L430.938 104.573Z" fill="#404040"></path> <path d="M455.825 92.2664C455.565 92.2664 455.321 92.1082 455.222 91.8512C455.097 91.5185 455.262 91.1461 455.598 91.0176L458.922 89.7557C459.377 89.5811 459.729 89.2384 459.911 88.7837C460.092 88.329 460.072 87.838 459.858 87.3998L458.362 84.3191C458.286 84.1675 458.276 83.9896 458.332 83.8314L460.336 77.9335C460.451 77.5975 460.817 77.4162 461.153 77.5282C461.489 77.6436 461.67 78.0093 461.555 78.3454L459.637 83.9929L461.018 86.8364C461.384 87.5942 461.42 88.4773 461.107 89.2614C460.797 90.0456 460.164 90.6651 459.38 90.9616L456.056 92.2236C455.98 92.2532 455.901 92.2664 455.825 92.2664Z" fill="#404040"></path> <path d="M454.646 73.4131C454.382 73.4131 454.135 73.2517 454.039 72.9881C453.993 72.8694 452.991 70.3159 449.753 70.8793C449.4 70.9452 449.067 70.7047 449.005 70.3554C448.942 70.0029 449.179 69.6701 449.528 69.6075C453.001 69.0045 454.787 71.2681 455.249 72.5498C455.37 72.8859 455.196 73.2549 454.86 73.3769C454.79 73.3999 454.718 73.4131 454.646 73.4131Z" fill="#404040"></path> <path d="M468.174 77.3274C467.947 77.3274 467.729 77.2087 467.611 76.9979C467.552 76.8924 466.158 74.5234 463.044 75.5975C462.711 75.7161 462.339 75.5349 462.224 75.1989C462.108 74.8628 462.286 74.4937 462.622 74.3784C465.947 73.2285 468.079 75.1791 468.738 76.3718C468.909 76.6849 468.797 77.077 468.484 77.2483C468.388 77.301 468.28 77.3274 468.174 77.3274Z" fill="#404040"></path> <path d="M475.828 56.9255C475.116 53.3901 473.633 48.3291 465.034 44.5103C461.383 42.8892 457.791 42.1445 454.602 41.6635C446.437 40.4312 438.622 45.4197 436.299 53.3439L431.824 68.6191C432.783 68.8959 433.719 69.6406 434.503 70.4412L428.845 89.9932C427.241 95.5419 429.959 101.427 435.228 103.799C440.236 106.056 446.71 108.26 452.964 108.316C465.847 108.428 467.996 96.4249 467.996 96.4249L432.813 85.9899L436.562 73.031L436.506 72.9421C436.539 72.9948 436.562 73.031 436.562 73.031L438.299 66.2073C440.025 61.6636 445.412 56.2237 449.64 58.6224C452.46 60.2204 457.551 63.3539 462.833 66.1018C475.828 72.8696 477.001 62.7608 475.828 56.9255Z" fill="#404040"></path> <path d="M465.017 82.2563C464.671 82.2563 464.339 82.1937 464.026 82.0718C462.665 81.5347 462.227 80.0257 462.207 79.9598C462.108 79.6171 462.309 79.2613 462.652 79.1624C462.994 79.0636 463.35 79.2646 463.446 79.6072C463.452 79.6303 463.746 80.5792 464.503 80.8725C465.047 81.0833 465.749 80.9285 466.592 80.4178C466.896 80.2333 467.294 80.3321 467.479 80.6352C467.663 80.9417 467.564 81.3371 467.261 81.5216C466.461 82.0092 465.709 82.2563 465.017 82.2563Z" fill="#404040"></path> <path d="M450.896 78.1709C450.55 78.1709 450.221 78.1083 449.904 77.9864C448.544 77.4493 448.105 75.9402 448.086 75.8743C447.99 75.5317 448.188 75.1758 448.53 75.077C448.873 74.9781 449.229 75.1791 449.324 75.5218C449.331 75.5481 449.624 76.4938 450.382 76.787C450.926 76.9979 451.628 76.8463 452.471 76.3323C452.777 76.1478 453.173 76.2466 453.357 76.5498C453.542 76.8562 453.443 77.2516 453.14 77.4361C452.336 77.9238 451.585 78.1709 450.896 78.1709Z" fill="#404040"></path> <path d="M398.658 311.286C398.352 311.286 398.078 311.065 398.022 310.752C397.96 310.403 398.194 310.067 398.546 310.004C398.609 309.991 404.928 308.815 408.981 302.95C412.316 298.123 413.232 291.543 411.696 283.398C411.63 283.048 411.861 282.709 412.21 282.643C412.56 282.577 412.899 282.808 412.965 283.157C414.566 291.665 413.578 298.577 410.029 303.701C405.66 310.004 399.05 311.223 398.77 311.273C398.734 311.282 398.695 311.286 398.658 311.286Z" fill="#404040"></path> <path d="M503.907 309.602C503.864 309.602 503.822 309.599 503.779 309.589C497.532 308.32 493.13 305.467 490.695 301.101C486.322 293.263 489.848 283.47 490.003 283.058C490.128 282.725 490.497 282.554 490.83 282.676C491.166 282.798 491.334 283.17 491.212 283.503C491.176 283.599 487.739 293.164 491.825 300.478C494.069 304.495 498.177 307.134 504.036 308.324C504.385 308.393 504.609 308.735 504.54 309.085C504.477 309.391 504.207 309.602 503.907 309.602Z" fill="#404040"></path> <path d="M478.292 149.822L501.996 166.939L471.113 202.231L491.538 220.053L503.466 207.661" fill="#E6E6E6"></path> <path d="M491.538 220.699C491.386 220.699 491.235 220.646 491.113 220.541L470.684 202.718C470.556 202.606 470.477 202.445 470.464 202.277C470.454 202.106 470.51 201.938 470.622 201.809L501.037 167.051L477.91 150.349C477.62 150.142 477.557 149.736 477.765 149.446C477.973 149.156 478.378 149.094 478.665 149.301L502.368 166.418C502.516 166.524 502.612 166.689 502.632 166.87C502.652 167.051 502.595 167.232 502.477 167.367L472.019 202.172L491.495 219.167L502.994 207.216C503.241 206.959 503.65 206.952 503.907 207.2C504.164 207.447 504.17 207.855 503.923 208.112L491.999 220.504C491.877 220.633 491.709 220.699 491.538 220.699Z" fill="#404040"></path> <path d="M378.898 182.511C378.766 182.511 378.631 182.471 378.516 182.386L364.859 172.339C364.572 172.129 364.509 171.723 364.72 171.437C364.931 171.15 365.333 171.087 365.623 171.298L379.28 181.344C379.567 181.555 379.63 181.961 379.419 182.247C379.294 182.419 379.096 182.511 378.898 182.511Z" fill="#404040"></path> <path d="M404.774 174.669C404.757 174.669 404.741 174.669 404.724 174.666C404.368 174.639 404.105 174.326 404.131 173.974L406.761 139.792C406.787 139.436 407.087 139.173 407.453 139.199C407.808 139.225 408.072 139.538 408.046 139.891L405.416 174.072C405.39 174.412 405.107 174.669 404.774 174.669Z" fill="#404040"></path> <path d="M501.993 167.585C501.852 167.585 501.707 167.539 501.585 167.44C501.308 167.216 501.269 166.807 501.493 166.531L506.761 160.076C506.985 159.799 507.39 159.756 507.671 159.984C507.947 160.208 507.987 160.616 507.763 160.893L502.494 167.348C502.369 167.503 502.181 167.585 501.993 167.585Z" fill="#404040"></path> <path d="M441.512 91.6211C441.512 91.6211 444.372 97.4597 450.757 98.0198C450.757 98.0198 447.337 101.753 443.123 99.262C439.364 97.0379 441.512 91.6211 441.512 91.6211Z" fill="white"></path> <path d="M473.242 74.3384C473.146 74.3384 473.047 74.3153 472.955 74.2725C472.635 74.1143 472.507 73.7255 472.662 73.4092C472.711 73.3104 477.426 63.6167 473.815 55.3432C471.736 50.5755 467.301 47.1586 460.635 45.1817C455.001 43.5112 450.012 43.9856 445.805 46.5886C436.592 52.2888 434.019 66.3713 433.996 66.513C433.933 66.8622 433.594 67.0962 433.248 67.0369C432.895 66.9743 432.661 66.6415 432.724 66.2889C432.829 65.6892 435.426 51.4947 445.126 45.4914C449.66 42.6842 455.001 42.1636 461.004 43.9428C468.055 46.0351 472.767 49.699 475.004 54.8358C478.853 63.6694 474.029 73.5674 473.821 73.9858C473.706 74.2066 473.479 74.3384 473.242 74.3384Z" fill="#7C95FA"></path> <path d="M442.329 72.2774C442.635 66.2892 438.029 61.1869 432.04 60.8811C426.052 60.5753 420.95 65.1818 420.644 71.17C420.338 77.1582 424.945 82.2606 430.933 82.5664C436.921 82.8722 442.023 78.2656 442.329 72.2774Z" fill="#7C95FA"></path> <path d="M431.522 83.2416C430.326 83.2416 429.113 83.0538 427.914 82.6584C421.894 80.665 418.616 74.1444 420.609 68.1213C422.603 62.0982 429.123 58.823 435.146 60.8164C441.166 62.8099 444.445 69.3305 442.451 75.3536C440.853 80.1773 436.349 83.2416 431.522 83.2416ZM431.538 61.5249C427.252 61.5249 423.252 64.2431 421.835 68.5298C420.065 73.8775 422.975 79.6666 428.319 81.436C433.66 83.2021 439.453 80.296 441.225 74.9516C442.995 69.604 440.085 63.8148 434.741 62.0454C433.68 61.6896 432.599 61.5249 431.538 61.5249ZM441.838 75.1493H441.845H441.838Z" fill="#404040"></path> <path d="M434.411 72.4078C433.811 74.2167 431.861 75.1986 430.052 74.5989C428.243 73.9992 427.261 72.0486 427.861 70.2397C428.46 68.4308 430.411 67.4489 432.22 68.0486C434.029 68.645 435.007 70.5989 434.411 72.4078Z" fill="#404040"></path> <path d="M448.708 58.2267C448.708 58.2267 461.206 74.0489 476.181 70.151C489.743 66.6189 484.705 42.7769 471.489 48.6352C458.273 54.4936 448.708 58.2267 448.708 58.2267Z" fill="#404040"></path> <path d="M450.757 338.729C450.724 338.729 450.691 338.726 450.658 338.723C450.305 338.67 450.061 338.341 450.117 337.988L453.142 318.209C453.159 318.093 453.208 317.985 453.281 317.896L459.584 310.232C459.811 309.955 460.216 309.915 460.493 310.143C460.77 310.37 460.809 310.775 460.582 311.052L454.391 318.578L451.393 338.182C451.346 338.499 451.07 338.729 450.757 338.729Z" fill="#404040"></path> <path d="M588.59 301.335L584.165 308.346L214.242 74.882C213.428 74.368 213.184 73.2938 213.698 72.48L216.265 68.414C216.779 67.6002 217.853 67.3564 218.667 67.8704L588.59 301.335Z" fill="#404040"></path> <path d="M320.15 162.91C320.08 162.91 320.011 162.9 319.945 162.877C319.761 162.814 319.612 162.672 319.543 162.488L314.245 148.188C313.461 146.076 313.596 143.713 314.611 141.7L318.176 134.636C318.687 133.621 319.715 132.992 320.851 132.992C321.563 132.992 322.252 133.249 322.795 133.71C323.784 134.557 324.113 135.934 323.612 137.133L321.299 142.699C321.214 142.906 321.217 143.137 321.313 143.341C321.408 143.545 321.58 143.697 321.794 143.766C321.873 143.792 321.955 143.806 322.038 143.806C322.341 143.806 322.611 143.638 322.749 143.371L325.922 137.173C326.443 136.152 327.481 135.519 328.627 135.519C329.118 135.519 329.609 135.641 330.047 135.875C331.313 136.547 331.942 138.033 331.54 139.407L330.295 143.222L332.11 140.728C332.578 140.211 333.181 139.944 333.81 139.944C334.308 139.944 334.799 140.115 335.191 140.422C335.685 140.811 335.991 141.39 336.041 142.016C336.084 142.593 335.899 143.166 335.533 143.608L334.334 146.946L335.54 152.656C335.596 152.919 335.484 153.186 335.257 153.331L320.499 162.804C320.393 162.873 320.271 162.91 320.15 162.91Z" fill="white"></path> <path d="M320.855 133.637C321.389 133.637 321.929 133.819 322.377 134.201C323.152 134.863 323.409 135.947 323.02 136.886L320.707 142.451C320.381 143.232 320.796 144.125 321.6 144.382C321.745 144.428 321.893 144.451 322.041 144.451C322.572 144.451 323.076 144.158 323.33 143.664L326.503 137.466C326.924 136.639 327.765 136.164 328.631 136.164C329.01 136.164 329.392 136.253 329.748 136.445C330.75 136.975 331.241 138.138 330.921 139.225L329.158 144.623C329.066 144.903 329.293 145.12 329.524 145.12C329.633 145.12 329.741 145.074 329.824 144.962L332.631 141.107C332.944 140.764 333.376 140.586 333.807 140.586C334.153 140.586 334.499 140.698 334.789 140.926C335.524 141.506 335.606 142.59 334.964 143.272L333.659 146.896L334.905 152.787L320.147 162.26L314.848 147.96C314.127 146.01 314.249 143.845 315.185 141.99L318.75 134.926C319.178 134.092 320.008 133.637 320.855 133.637ZM320.855 132.346C319.471 132.346 318.226 133.113 317.603 134.346L314.038 141.41C312.944 143.581 312.799 146.132 313.643 148.412L318.941 162.712C319.076 163.077 319.372 163.364 319.741 163.486C319.877 163.532 320.012 163.552 320.15 163.552C320.394 163.552 320.638 163.483 320.848 163.348L335.606 153.875C336.058 153.585 336.282 153.048 336.173 152.52L335.004 146.988L336.107 143.924C336.529 143.367 336.74 142.669 336.687 141.967C336.628 141.16 336.229 140.412 335.593 139.914C335.089 139.515 334.457 139.298 333.814 139.298C333.178 139.298 332.565 139.509 332.068 139.888L332.153 139.627C332.157 139.614 332.16 139.601 332.167 139.588C332.654 137.921 331.893 136.118 330.358 135.305C329.827 135.024 329.231 134.876 328.634 134.876C327.244 134.876 325.989 135.644 325.356 136.879L322.183 143.077C322.15 143.14 322.091 143.163 322.045 143.163C322.028 143.163 322.012 143.16 321.998 143.156C321.956 143.143 321.923 143.113 321.906 143.074C321.89 143.034 321.886 142.992 321.903 142.949L324.216 137.384C324.822 135.924 324.424 134.25 323.221 133.222C322.559 132.655 321.722 132.346 320.855 132.346Z" fill="#404040"></path> <path d="M475.931 221.256L471.298 229.477C470.485 230.92 468.656 231.434 467.21 230.62C465.766 229.806 465.252 227.978 466.066 226.531L470.699 218.311" fill="white"></path> <path d="M468.678 231.651C468.072 231.651 467.459 231.5 466.896 231.183C466.045 230.705 465.436 229.925 465.172 228.986C464.909 228.046 465.027 227.065 465.508 226.214L470.141 217.994C470.316 217.684 470.711 217.572 471.021 217.747C471.331 217.921 471.443 218.317 471.268 218.626L466.635 226.847C466.326 227.394 466.25 228.03 466.418 228.636C466.586 229.242 466.981 229.747 467.532 230.056C468.665 230.692 470.102 230.29 470.741 229.16L475.373 220.939C475.548 220.63 475.943 220.518 476.253 220.692C476.563 220.867 476.675 221.259 476.5 221.572L471.868 229.796C471.192 230.982 469.953 231.651 468.678 231.651Z" fill="#404040"></path> <path d="M475.93 221.255L472.929 226.586C472.115 228.029 472.626 229.861 474.072 230.675C475.515 231.489 476.958 230.721 477.769 229.278L488.372 217.288L474.388 205.087C472.355 207.005 468.869 210.247 468.112 211.153C467.555 211.818 467.067 212.533 466.642 213.291L461.831 221.832C461.018 223.275 461.528 225.107 462.975 225.921C464.418 226.734 466.25 226.224 467.064 224.777L470.708 218.309" fill="white"></path> <path d="M475.255 231.644C474.751 231.644 474.24 231.512 473.752 231.236C472.902 230.758 472.293 229.977 472.029 229.038C471.765 228.099 471.884 227.117 472.365 226.267L475.367 220.936C475.541 220.626 475.937 220.514 476.247 220.689C476.556 220.863 476.668 221.255 476.494 221.568L473.492 226.9C473.182 227.447 473.106 228.082 473.275 228.689C473.443 229.295 473.838 229.799 474.388 230.109C475.601 230.791 476.642 229.961 477.209 228.956C477.232 228.916 477.258 228.88 477.288 228.844L487.459 217.341L474.405 205.95L473.756 206.56C471.841 208.362 469.219 210.827 468.606 211.558C468.092 212.171 467.62 212.857 467.202 213.598L462.391 222.138C462.082 222.685 462.006 223.321 462.174 223.928C462.342 224.534 462.737 225.038 463.288 225.348C464.421 225.984 465.858 225.585 466.497 224.451L470.141 217.984C470.316 217.674 470.711 217.562 471.021 217.736C471.33 217.911 471.443 218.306 471.268 218.616L467.624 225.084C466.635 226.837 464.408 227.46 462.655 226.471C461.805 225.993 461.195 225.213 460.932 224.274C460.668 223.334 460.79 222.353 461.268 221.503L466.078 212.962C466.536 212.152 467.054 211.397 467.617 210.725C468.279 209.934 470.826 207.542 472.873 205.614L473.947 204.603C474.187 204.376 474.566 204.369 474.813 204.586L488.797 216.787C488.925 216.899 489.004 217.061 489.018 217.232C489.028 217.404 488.972 217.572 488.856 217.7L478.296 229.641C477.551 230.939 476.418 231.644 475.255 231.644Z" fill="#404040"></path> </svg> 