<?xml version="1.0" encoding="UTF-8"?> <svg xmlns="http://www.w3.org/2000/svg" width="645" height="695" viewBox="0 0 645 695" fill="none"> <path d="M644.047 0.771484H369.796V359.815H644.047V0.771484Z" fill="white"></path> <path d="M644.048 360.592H369.797C369.372 360.592 369.025 360.245 369.025 359.821V0.771531C369.025 0.346883 369.372 0 369.797 0H644.048C644.473 0 644.819 0.346883 644.819 0.771531V359.815C644.819 360.245 644.478 360.592 644.048 360.592ZM370.574 359.043H643.276V1.54905H370.574V359.043Z" fill="#404040"></path> <path d="M506.921 96.6701H369.796C369.371 96.6701 369.024 96.3231 369.024 95.8985C369.024 95.4738 369.371 95.127 369.796 95.127H506.921C507.346 95.127 507.693 95.4738 507.693 95.8985C507.693 96.3291 507.352 96.6701 506.921 96.6701Z" fill="#404040"></path> <path d="M644.048 170.995V206.684H474.386C474.386 206.684 480.648 158.705 528.334 156.175C538.813 155.612 548.017 148.788 551.187 138.788C554.925 126.952 563.981 112.884 585.626 107.209C596.852 104.266 636.177 103.237 644.042 104.804C644.048 104.804 644.048 144.966 644.048 170.995Z" fill="white"></path> <path d="M644.047 207.456H474.385C474.164 207.456 473.948 207.36 473.805 207.192C473.655 207.025 473.589 206.804 473.619 206.582C473.637 206.463 475.294 194.28 482.818 181.971C489.78 170.583 503.327 156.725 528.297 155.403C538.525 154.853 547.43 148.083 550.457 138.555C554.057 127.155 563.047 112.334 585.433 106.461C597.066 103.411 636.607 102.532 644.196 104.045C644.555 104.117 644.818 104.434 644.818 104.804V206.684C644.818 207.109 644.477 207.456 644.047 207.456ZM475.294 205.913H643.275V105.456C634.459 104.117 597.037 105.02 585.828 107.962C564.117 113.656 555.415 127.999 551.934 139.027C548.716 149.165 539.254 156.366 528.387 156.952C508.901 157.987 494.026 166.659 484.176 182.736C477.95 192.886 475.82 202.946 475.294 205.913Z" fill="#404040"></path> <path d="M506.921 360.514C506.496 360.514 506.149 360.167 506.149 359.743V0.771531C506.149 0.346883 506.496 0 506.921 0C507.346 0 507.692 0.346883 507.692 0.771531V359.737C507.692 360.167 507.352 360.514 506.921 360.514Z" fill="#404040"></path> <path d="M347.057 469.769L345.071 640.268H370.61C377.739 640.268 383.517 646.045 383.517 653.175H375.269C376.758 654.604 377.685 656.614 377.679 658.845C377.667 663.007 374.24 666.53 370.083 666.65C365.646 666.781 362.009 663.223 362.009 658.821C362.009 656.602 362.936 654.598 364.419 653.175H345.071V659.455C346.094 660.938 346.62 662.786 346.405 664.772C346.01 668.366 343.091 671.285 339.497 671.68C334.778 672.194 330.782 668.51 330.782 663.893C330.782 662.248 331.291 660.717 332.164 659.455V653.175H314.353C315.005 654.485 315.316 655.992 315.124 657.595C314.7 661.195 311.757 664.102 308.15 664.461C303.461 664.927 299.514 661.261 299.514 656.668C299.514 655.412 299.819 654.227 300.345 653.175H286.29L290.614 648.282C295.118 643.187 301.589 640.268 308.39 640.268H332.17L334.156 469.769H347.057Z" fill="#404040"></path> <path d="M248.21 509.249C229.489 509.249 229.489 499.542 229.489 486.109V485.631C229.489 477.473 236.074 470.84 244.173 470.84H266.153C266.511 470.84 266.822 470.594 266.906 470.248L302.882 320.747C305.101 311.519 313.283 305.071 322.774 305.071H438.59C444.983 305.071 450.892 307.978 454.798 313.044C458.704 318.11 460.007 324.563 458.375 330.748L415.916 491.803C413.105 502.066 403.697 509.243 393.045 509.243L248.21 509.249Z" fill="#CCCCCC"></path> <path d="M438.596 305.848C444.75 305.848 450.438 308.647 454.194 313.521C457.95 318.396 459.206 324.604 457.639 330.555L415.186 491.599C412.459 501.539 403.362 508.477 393.057 508.477H248.222C230.273 508.477 230.273 499.577 230.273 486.114V485.636C230.273 481.868 231.72 478.345 234.346 475.701C236.965 473.07 240.458 471.616 244.178 471.616H266.159C266.876 471.616 267.492 471.126 267.66 470.432L303.635 320.932C305.77 312.05 313.641 305.848 322.78 305.848H438.596ZM438.596 304.299H322.78C312.965 304.299 304.431 311.021 302.134 320.567L266.159 470.067C266.159 470.067 263.85 470.067 244.178 470.067C235.638 470.067 228.724 476.987 228.724 485.63V486.108C228.724 499.314 228.724 510.02 248.216 510.02H393.051C404.085 510.02 413.757 502.645 416.675 491.999L459.134 330.944C462.675 317.481 452.519 304.299 438.596 304.299Z" fill="#404040"></path> <path d="M398.092 465.917H356.507C356.082 465.917 355.735 465.57 355.735 465.146C355.735 464.721 356.082 464.374 356.507 464.374H398.092C398.517 464.374 398.864 464.721 398.864 465.146C398.87 465.57 398.523 465.917 398.092 465.917Z" fill="#404040"></path> <path d="M356.184 430.266C356.238 397.484 356.232 332.447 355.527 294.402L307.362 297.118C307.362 297.118 288.259 305.461 288.085 359.015C288.025 377.101 300.209 440.111 300.209 440.111" fill="white"></path> <path d="M300.214 440.88C299.849 440.88 299.526 440.622 299.454 440.252C299.334 439.624 287.259 376.961 287.313 359.006C287.486 305.566 306.254 296.756 307.05 296.404C307.134 296.368 307.223 296.344 307.319 296.338L355.484 293.622C355.681 293.61 355.896 293.682 356.052 293.826C356.207 293.969 356.297 294.167 356.297 294.376C356.991 331.972 357.009 395.646 356.955 430.251C356.955 430.676 356.608 431.023 356.184 431.023C355.759 431.023 355.412 430.676 355.412 430.251C355.466 395.891 355.454 332.887 354.772 295.207L307.57 297.869C306.045 298.676 289.029 308.85 288.868 359.006C288.808 376.812 300.86 439.325 300.979 439.953C301.063 440.371 300.788 440.778 300.369 440.856C300.309 440.88 300.262 440.88 300.214 440.88Z" fill="#404040"></path> <path d="M340.27 295.663L338.768 268.832C338.768 268.832 351.269 272.23 351.257 260.71C351.245 249.191 339.558 252.654 339.558 252.654C339.558 252.654 348.075 232.073 340.886 225.716C333.696 219.358 307.314 215.686 301.268 223.575C295.221 231.463 293.678 247.349 293.678 247.349L293.122 267.606C293.056 270.094 293.379 272.589 294.186 274.945C295.652 279.203 298.995 284.927 306.585 287.433L306.334 299.317L319.067 316.136L340.27 295.663Z" fill="white"></path> <path d="M319.067 316.908C319.049 316.908 319.025 316.908 319.007 316.908C318.786 316.89 318.582 316.782 318.451 316.603L305.717 299.784C305.61 299.647 305.556 299.473 305.562 299.3L305.801 287.978C298.325 285.292 294.963 279.574 293.456 275.196C292.649 272.84 292.272 270.28 292.35 267.589L292.906 247.331C292.972 246.619 294.545 231.081 300.657 223.108C302.565 220.62 306.435 219.029 311.842 218.509C322.249 217.504 336.346 220.668 341.406 225.142C347.895 230.883 342.602 246.805 340.808 251.601C342.763 251.284 346.268 251.081 348.876 253.031C350.969 254.592 352.028 257.176 352.034 260.722C352.04 264.143 350.987 266.679 348.918 268.264C345.891 270.579 341.567 270.16 339.599 269.807L341.047 295.627C341.059 295.855 340.975 296.07 340.813 296.225L319.605 316.698C319.455 316.83 319.264 316.908 319.067 316.908ZM307.111 299.066L319.156 314.976L339.48 295.352L337.996 268.874C337.984 268.629 338.092 268.39 338.284 268.228C338.475 268.073 338.732 268.019 338.971 268.085C339.025 268.103 344.647 269.574 347.979 267.02C349.647 265.74 350.491 263.617 350.485 260.71C350.485 257.684 349.629 255.513 347.955 254.263C344.851 251.942 339.833 253.378 339.779 253.39C339.492 253.474 339.187 253.384 338.983 253.162C338.786 252.941 338.732 252.624 338.846 252.349C338.93 252.146 347.07 232.211 340.377 226.284C335.67 222.115 321.872 219.077 311.985 220.034C307.015 220.512 303.522 221.9 301.883 224.035C296.034 231.661 294.461 247.253 294.449 247.415L293.893 267.618C293.821 270.124 294.168 272.505 294.916 274.682C296.345 278.833 299.569 284.287 306.824 286.686C307.147 286.793 307.362 287.098 307.356 287.433L307.111 299.066Z" fill="#404040"></path> <path d="M293.953 233.915C294.312 226.541 299.079 220.093 306.083 217.522C313.553 214.776 325.515 213.502 339.151 219.268C346.245 222.264 350.587 229.442 350.21 237.049L349.355 254.52C346.041 250.746 339.564 252.66 339.564 252.66C325.79 244.567 323.989 234.454 323.989 234.454C323.989 234.454 307.919 248.012 292.518 247.253L293.953 233.915Z" fill="#404040"></path> <path d="M319.078 250.16C318.893 250.16 318.701 250.094 318.552 249.956C315.597 247.211 313.001 249.424 312.714 249.681C312.397 249.968 311.913 249.95 311.626 249.634C311.339 249.322 311.357 248.832 311.668 248.545C312.989 247.319 316.351 245.8 319.604 248.82C319.915 249.113 319.933 249.598 319.646 249.915C319.491 250.076 319.287 250.16 319.078 250.16Z" fill="#404040"></path> <path d="M295.781 249.783C295.572 249.783 295.368 249.699 295.213 249.538C294.92 249.227 294.938 248.736 295.249 248.443C297.773 246.093 300.548 247.235 301.66 248.174C301.983 248.449 302.031 248.94 301.756 249.263C301.481 249.591 300.997 249.627 300.668 249.358C300.44 249.173 298.407 247.612 296.302 249.574C296.164 249.717 295.973 249.783 295.781 249.783Z" fill="#404040"></path> <path d="M314.562 289.227C310.113 289.227 306.321 288.115 306.111 288.049C305.705 287.929 305.471 287.499 305.591 287.086C305.711 286.679 306.141 286.446 306.554 286.566C306.62 286.583 313.175 288.509 318.899 287.241C319.317 287.146 319.73 287.415 319.82 287.828C319.909 288.246 319.646 288.659 319.234 288.749C317.672 289.095 316.082 289.227 314.562 289.227Z" fill="#404040"></path> <path d="M348.276 262.618C348.253 262.618 348.229 262.618 348.205 262.612C347.78 262.576 347.463 262.199 347.505 261.775C347.684 259.753 347.301 258.186 346.368 257.128C345.148 255.746 343.402 255.668 343.384 255.668C342.959 255.65 342.624 255.291 342.642 254.867C342.654 254.442 343.025 254.089 343.444 254.125C343.545 254.131 345.878 254.233 347.529 256.105C348.755 257.498 349.269 259.448 349.048 261.912C349.006 262.313 348.671 262.618 348.276 262.618Z" fill="#404040"></path> <path d="M341.333 262.199C341.196 262.199 341.058 262.163 340.933 262.085C340.568 261.864 340.454 261.386 340.675 261.021C342.679 257.749 346.943 256.451 347.123 256.398C347.536 256.278 347.96 256.511 348.086 256.918C348.205 257.325 347.978 257.755 347.565 257.881C347.53 257.893 343.678 259.071 341.991 261.828C341.848 262.068 341.596 262.199 341.333 262.199Z" fill="#404040"></path> <path d="M306.639 270.213C306.154 270.213 305.67 270.07 305.275 269.801C304.408 269.209 303.905 268.096 303.941 266.834C303.965 266.021 304.18 265.267 304.39 264.544L304.515 264.095C305.383 260.943 305.389 257.606 304.539 254.454C304.426 254.041 304.671 253.616 305.084 253.509C305.496 253.401 305.921 253.64 306.029 254.053C306.95 257.474 306.938 261.087 305.999 264.508L305.867 264.974C305.676 265.638 305.496 266.266 305.478 266.882C305.466 267.45 305.628 268.186 306.142 268.533C306.34 268.67 306.645 268.712 306.896 268.641C306.997 268.611 307.171 268.539 307.243 268.377C307.416 267.989 307.871 267.809 308.259 267.983C308.648 268.156 308.828 268.611 308.654 268.999C308.415 269.55 307.937 269.944 307.315 270.124C307.099 270.184 306.866 270.213 306.639 270.213Z" fill="#404040"></path> <path d="M274.269 442.603C270.596 450.51 266.81 466.922 270.501 477.4L295.8 422.118C296.063 421.401 282.738 424.379 274.269 442.603Z" fill="#6C75F4"></path> <path d="M270.5 478.172C270.488 478.172 270.476 478.172 270.464 478.172C270.147 478.16 269.878 477.957 269.77 477.657C266.014 466.975 269.728 450.54 273.568 442.28C281.816 424.529 294.585 420.737 296.057 421.341C296.439 421.502 296.673 422.005 296.529 422.393L271.206 477.729C271.074 477.998 270.799 478.172 270.5 478.172ZM274.968 442.926C271.571 450.241 268.108 465.02 270.65 475.205L294.549 422.991C291.242 423.948 281.583 428.691 274.968 442.926Z" fill="#404040"></path> <path d="M362.069 464.015C359.366 475.642 331.752 481.653 331.752 481.653L330.591 497.485L317.906 670.807L318.199 684.27L302.271 682.254L302.612 670.807L289.43 542.976L240.099 636.53L236.445 647.38L220.799 643.743L225.757 631.219L284.789 428.315C289.466 415.659 300.585 407.591 311.817 407.591C314.491 407.591 317.176 408.057 319.778 409.014C320.705 409.355 321.596 409.762 322.463 410.21C322.463 410.21 342.763 417.735 349.276 420.839C360.795 426.317 368.008 438.476 362.069 464.015Z" fill="white"></path> <path d="M318.205 685.036C318.176 685.036 318.14 685.036 318.11 685.03L302.182 683.014C301.788 682.967 301.495 682.626 301.507 682.225L301.847 670.831L288.929 545.59L240.818 636.829L237.181 647.619C237.056 647.996 236.661 648.217 236.272 648.128L220.626 644.491C220.405 644.437 220.219 644.294 220.118 644.096C220.016 643.899 220.004 643.66 220.082 643.45L225.04 630.926L284.048 428.088C288.761 415.337 299.916 406.808 311.818 406.808C314.635 406.808 317.398 407.304 320.047 408.279C320.909 408.596 321.8 408.991 322.775 409.487C323.839 409.882 343.284 417.113 349.611 420.121C363.631 426.802 368.081 441.623 362.829 464.183C360.234 475.349 336.585 481.318 332.488 482.269L318.684 670.849L318.977 684.235C318.983 684.462 318.887 684.677 318.72 684.827C318.576 684.964 318.391 685.036 318.205 685.036ZM303.068 681.567L317.41 683.379L317.135 670.813L330.981 481.588C331.005 481.247 331.256 480.96 331.591 480.888C331.86 480.828 358.756 474.853 361.316 463.83C366.376 442.077 362.213 427.843 348.936 421.515C342.524 418.465 322.386 410.988 322.183 410.917C322.153 410.905 322.123 410.893 322.099 410.881C321.166 410.402 320.323 410.025 319.503 409.726C317.027 408.811 314.437 408.345 311.806 408.345C300.544 408.345 289.975 416.473 285.501 428.566L226.487 631.423L221.84 643.181L235.925 646.453L239.358 636.267C239.37 636.231 239.388 636.19 239.406 636.154L288.737 542.599C288.899 542.3 289.234 542.139 289.569 542.199C289.903 542.264 290.155 542.54 290.191 542.88L303.373 670.712C303.379 670.748 303.379 670.777 303.379 670.813L303.068 681.567Z" fill="#404040"></path> <path d="M289.425 543.747C289.312 543.747 289.192 543.723 289.078 543.663C288.695 543.472 288.546 543.006 288.737 542.623L332.967 454.894L338.242 438.775C338.373 438.369 338.81 438.153 339.217 438.279C339.623 438.41 339.845 438.847 339.713 439.254L334.42 455.426C334.408 455.462 334.39 455.498 334.378 455.534L290.125 543.317C289.981 543.592 289.712 543.747 289.425 543.747Z" fill="#404040"></path> <path d="M302.606 668.067L293.623 688.666H331.483L317.906 669.042C317.906 669.042 315.448 677.356 311.117 677.356C305.172 677.362 302.606 668.067 302.606 668.067Z" fill="#404040"></path> <path d="M241.046 633.957L242.319 656.391L206.811 643.251L226.356 629.561C226.356 629.561 225.776 638.209 229.837 639.71C235.417 641.78 241.046 633.957 241.046 633.957Z" fill="#404040"></path> <path d="M301.04 252.39C301.081 253.533 300.549 254.483 299.838 254.513C299.132 254.543 298.522 253.634 298.48 252.492C298.438 251.35 298.97 250.399 299.682 250.369C300.388 250.345 300.998 251.248 301.04 252.39Z" fill="#404040"></path> <path d="M318.157 252.528C318.08 253.671 317.446 254.556 316.74 254.508C316.034 254.46 315.526 253.491 315.604 252.349C315.681 251.206 316.315 250.321 317.021 250.369C317.727 250.423 318.235 251.386 318.157 252.528Z" fill="#404040"></path> <path d="M349.269 420.826C349.269 420.826 351.985 427.447 350.747 435.515L359.933 449.636L347.989 443.781C345.358 448.65 340.687 453.434 332.696 457.143L331.751 481.647C331.751 481.647 359.814 485.349 366.758 466.748C377.117 439.02 360.795 426.317 349.269 420.826Z" fill="#6C75F4"></path> <path d="M337.208 482.699C333.924 482.699 331.729 482.43 331.651 482.418C331.256 482.364 330.963 482.023 330.981 481.623L331.926 457.119C331.938 456.832 332.112 456.568 332.375 456.449C339.367 453.201 344.391 448.817 347.309 443.422C347.507 443.057 347.955 442.908 348.332 443.093L357.758 447.717L350.102 435.946C350.001 435.785 349.959 435.593 349.989 435.408C351.179 427.662 348.589 421.191 348.559 421.125C348.44 420.832 348.511 420.491 348.745 420.27C348.978 420.055 349.319 419.995 349.606 420.132C363.314 426.664 377.543 440.097 367.489 467.023C362.345 480.785 345.922 482.699 337.208 482.699ZM332.554 480.953C336.885 481.354 359.989 482.669 366.036 466.479C375.276 441.742 363.165 428.883 350.599 422.351C351.334 424.863 352.357 429.72 351.556 435.342L360.581 449.218C360.772 449.511 360.743 449.894 360.509 450.151C360.276 450.414 359.899 450.486 359.588 450.33L348.302 444.798C345.246 450.085 340.252 454.403 333.451 457.645L332.554 480.953Z" fill="#404040"></path> <path d="M348.674 327.345C346.85 347.644 349.972 362.345 349.972 362.345L276.382 372.244C271.317 370.049 266.604 369.816 264.104 369.893C263.135 369.923 262.172 370.049 261.221 370.258L250.503 372.597C248.691 372.991 247.542 374.78 247.937 376.592C248.332 378.404 250.12 379.553 251.932 379.158L260.049 377.387L261.478 383.955L254.785 385.414C252.973 385.809 251.825 387.597 252.219 389.409C252.614 391.221 254.331 391.855 256.143 391.461L278.542 391.18L355.738 393.147C364.327 393.458 372.066 387.926 374.482 379.678C398.167 298.78 352.771 286.752 352.771 286.752" fill="white"></path> <path d="M356.436 393.924C356.197 393.924 355.958 393.918 355.713 393.912L278.528 391.944L256.237 392.225C255.179 392.441 254.15 392.345 253.325 391.956C252.368 391.502 251.71 390.652 251.47 389.57C251.237 388.493 251.435 387.387 252.033 386.46C252.631 385.533 253.552 384.887 254.628 384.654L260.567 383.362L259.467 378.308L252.104 379.911C251.022 380.144 249.921 379.947 248.994 379.348C248.067 378.75 247.421 377.829 247.188 376.753C246.955 375.676 247.152 374.57 247.75 373.643C248.348 372.716 249.27 372.076 250.346 371.836L261.064 369.498C262.081 369.276 263.098 369.145 264.09 369.121C266.525 369.049 271.327 369.259 276.501 371.454L349.074 361.693C348.464 358.313 346.34 344.784 347.919 327.284C347.955 326.86 348.344 326.542 348.757 326.584C349.181 326.62 349.498 326.997 349.457 327.422C347.662 347.362 350.713 362.045 350.742 362.189C350.79 362.398 350.742 362.62 350.617 362.793C350.491 362.967 350.3 363.086 350.09 363.116L276.501 373.015C276.363 373.033 276.22 373.015 276.094 372.961C271.118 370.808 266.477 370.604 264.15 370.67C263.259 370.694 262.338 370.814 261.411 371.017L250.693 373.356C249.299 373.661 248.414 375.042 248.719 376.436C248.869 377.112 249.269 377.686 249.85 378.063C250.43 378.433 251.124 378.559 251.799 378.415L259.916 376.645C260.334 376.555 260.747 376.818 260.837 377.237L262.266 383.804C262.308 384.008 262.272 384.217 262.164 384.384C262.057 384.558 261.877 384.677 261.68 384.719L254.987 386.179C253.594 386.484 252.709 387.865 253.014 389.259C253.151 389.881 253.486 390.323 254.018 390.581C254.551 390.832 255.262 390.886 256.016 390.718C256.064 390.706 256.118 390.7 256.172 390.7L278.57 390.419L355.796 392.387C364.044 392.68 371.466 387.375 373.775 379.474C383.099 347.631 382.914 322.757 373.231 305.537C365.043 290.986 352.734 287.547 352.609 287.517C352.196 287.409 351.951 286.984 352.058 286.572C352.166 286.159 352.585 285.908 353.003 286.022C353.53 286.159 366.024 289.622 374.547 304.736C384.469 322.332 384.708 347.625 375.258 379.917C372.776 388.236 365.115 393.924 356.436 393.924Z" fill="#404040"></path> <path d="M263.223 383.254L251.166 386.19C249.353 386.585 247.565 385.437 247.17 383.625C246.776 381.812 247.924 380.024 249.736 379.629L262.781 376.202" fill="white"></path> <path d="M250.436 387.046C249.652 387.046 248.887 386.825 248.211 386.394C247.284 385.796 246.638 384.875 246.405 383.798C245.92 381.573 247.338 379.366 249.562 378.882L262.577 375.461C262.99 375.353 263.414 375.598 263.522 376.011C263.63 376.424 263.384 376.848 262.972 376.956L249.927 380.383C248.504 380.694 247.613 382.076 247.918 383.469C248.067 384.145 248.468 384.719 249.048 385.096C249.628 385.467 250.322 385.593 250.998 385.449L263.038 382.518C263.45 382.417 263.869 382.674 263.971 383.087C264.072 383.499 263.815 383.918 263.402 384.02L251.345 386.956C251.046 387.01 250.741 387.046 250.436 387.046Z" fill="#404040"></path> <path d="M358.284 377.758C358.243 377.758 358.201 377.752 358.159 377.746L349.845 376.358C349.427 376.287 349.139 375.892 349.211 375.467C349.283 375.049 349.678 374.761 350.102 374.833L358.416 376.221C358.835 376.293 359.122 376.687 359.05 377.112C358.984 377.489 358.655 377.758 358.284 377.758Z" fill="#404040"></path> <path d="M350.233 265.513C350.233 265.513 366.615 283.946 363.541 296.793C360.46 309.64 333.486 309.018 333.486 309.018L337.601 267.451C337.601 267.451 345.269 271.171 350.233 265.513Z" fill="#404040"></path> <path d="M308.863 277.253C308.743 277.253 308.623 277.229 308.516 277.169C308.133 276.978 307.984 276.512 308.175 276.129C309.383 273.736 311.889 272.038 314.557 271.805C314.987 271.769 315.358 272.08 315.394 272.504C315.43 272.929 315.119 273.306 314.694 273.342C312.547 273.533 310.526 274.903 309.551 276.829C309.419 277.098 309.15 277.253 308.863 277.253Z" fill="#404040"></path> <path d="M260.801 106.545C261.303 104.565 261.584 102.538 261.584 100.457C261.584 81.3174 239.257 65.8028 211.715 65.8028C210.991 65.8028 210.274 65.8208 209.562 65.8387C209.616 65.1868 209.646 64.5289 209.646 63.871C209.646 44.7319 187.319 29.2173 159.776 29.2173C138.251 29.2173 119.907 38.6971 112.922 51.9748C106.456 48.141 97.4846 45.7606 87.5682 45.7606C67.8729 45.7606 51.9037 55.1268 51.9037 66.682C51.9037 66.8316 51.9157 66.9751 51.9217 67.1246C31.0182 71.2515 15.701 84.607 15.701 100.457C15.701 103.417 16.2393 106.294 17.2441 109.039C7.4592 113.034 0.772461 121.061 0.772461 130.319C0.772461 143.561 14.445 154.297 31.3113 154.297C36.4669 154.297 41.3234 153.292 45.5818 151.516C45.2529 153.119 45.0735 154.758 45.0735 156.42C45.0735 175.559 67.4004 191.074 94.9427 191.074C117.485 191.074 136.528 180.673 142.701 166.409C147.485 182.079 167.504 193.837 191.475 193.837C219.018 193.837 241.345 178.323 241.345 159.184C241.345 156.032 240.729 152.981 239.592 150.075C244.509 152.73 250.46 154.291 256.883 154.291C273.75 154.291 287.422 143.555 287.422 130.313C287.422 118.118 275.813 108.052 260.801 106.545Z" fill="white"></path> <path d="M191.474 194.614C168.627 194.614 148.483 183.717 142.586 168.454C139.255 174.901 133.196 180.649 125.319 184.782C116.503 189.405 106.001 191.851 94.9418 191.851C67.0167 191.851 44.3009 175.96 44.3009 156.426C44.3009 155.212 44.3966 153.98 44.582 152.742C40.4492 154.267 35.8917 155.068 31.3103 155.068C14.0433 155.068 0 143.962 0 130.313C0 121.216 6.2142 112.956 16.2742 108.602C15.383 105.941 14.9285 103.201 14.9285 100.45C14.9285 84.816 29.7852 70.9222 51.1312 66.4903C51.2987 54.6121 67.5788 44.9828 87.5672 44.9828C96.9753 44.9828 105.839 47.0821 112.622 50.9039C120.181 37.4348 138.991 28.4395 159.775 28.4395C187.7 28.4395 210.416 44.3309 210.416 63.8647C210.416 64.2415 210.404 64.6303 210.386 65.037C210.829 65.025 211.271 65.019 211.714 65.019C239.639 65.019 262.355 80.9104 262.355 100.444C262.355 102.227 262.151 104.045 261.751 105.863C276.889 107.729 288.193 118.118 288.193 130.313C288.193 143.962 274.143 155.068 256.876 155.068C251.23 155.068 245.764 153.884 240.949 151.629C241.72 154.111 242.109 156.647 242.109 159.183C242.115 178.723 219.4 194.614 191.474 194.614ZM142.7 165.643C142.712 165.643 142.73 165.643 142.742 165.643C143.065 165.661 143.346 165.876 143.435 166.187C148.19 181.761 168.394 193.071 191.474 193.071C218.544 193.071 240.572 177.874 240.572 159.189C240.572 156.217 239.998 153.244 238.874 150.367C238.754 150.068 238.838 149.721 239.083 149.506C239.328 149.291 239.675 149.255 239.962 149.404C244.95 152.102 250.806 153.525 256.882 153.525C273.294 153.525 286.65 143.112 286.65 130.319C286.65 118.692 275.501 108.8 260.722 107.31C260.501 107.286 260.297 107.167 260.166 106.981C260.034 106.796 259.992 106.563 260.052 106.347C260.555 104.374 260.812 102.388 260.812 100.45C260.812 81.7657 238.784 66.5681 211.714 66.5681C211.002 66.5681 210.291 66.586 209.579 66.604C209.387 66.61 209.148 66.5262 208.999 66.3647C208.849 66.2032 208.771 65.9879 208.789 65.7726C208.843 65.0788 208.873 64.4568 208.873 63.8647C208.873 45.1861 186.851 29.9826 159.775 29.9826C139.189 29.9826 120.636 38.96 113.608 52.3274C113.513 52.5128 113.339 52.6564 113.136 52.7102C112.932 52.77 112.711 52.7401 112.532 52.6325C105.893 48.697 97.0291 46.5259 87.5672 46.5259C68.3265 46.5259 52.6743 55.5631 52.6743 66.6757C52.6743 66.7475 52.6803 66.8253 52.6863 66.897L52.6982 67.0884C52.7102 67.4652 52.447 67.8002 52.0762 67.8719C31.1129 72.0108 16.4775 85.4021 16.4775 100.444C16.4775 103.255 16.9799 106.054 17.9727 108.758C18.1163 109.147 17.9249 109.583 17.5421 109.739C7.67953 113.77 1.54905 121.647 1.54905 130.307C1.54905 143.1 14.9045 153.513 31.3163 153.513C36.1788 153.513 41.0114 152.574 45.2878 150.792C45.551 150.684 45.856 150.726 46.0773 150.912C46.2986 151.091 46.4003 151.384 46.3405 151.665C46.0115 153.262 45.85 154.865 45.85 156.42C45.85 175.105 67.8719 190.302 94.9478 190.302C116.485 190.302 135.834 180.35 141.994 166.103C142.108 165.822 142.389 165.643 142.7 165.643Z" fill="#404040"></path> <path d="M280.257 175.751C280.257 180.81 276.154 184.907 271.1 184.907C266.04 184.907 261.943 180.805 261.943 175.751C261.943 170.691 266.046 166.594 271.1 166.594C276.154 166.594 280.257 170.697 280.257 175.751Z" fill="white"></path> <path d="M271.094 185.685C265.615 185.685 261.159 181.229 261.159 175.75C261.159 170.272 265.615 165.816 271.094 165.816C276.572 165.816 281.028 170.272 281.028 175.75C281.028 181.229 276.572 185.685 271.094 185.685ZM271.094 167.365C266.47 167.365 262.708 171.127 262.708 175.75C262.708 180.374 266.47 184.136 271.094 184.136C275.717 184.136 279.479 180.374 279.479 175.75C279.485 171.127 275.723 167.365 271.094 167.365Z" fill="#404040"></path> <path d="M291.721 204.525C294.7 204.525 297.116 202.11 297.116 199.13C297.116 196.151 294.7 193.735 291.721 193.735C288.742 193.735 286.326 196.151 286.326 199.13C286.326 202.11 288.742 204.525 291.721 204.525Z" fill="white"></path> <path d="M291.721 205.296C288.318 205.296 285.549 202.527 285.549 199.124C285.549 195.721 288.318 192.958 291.721 192.958C295.124 192.958 297.888 195.727 297.888 199.124C297.894 202.527 295.124 205.296 291.721 205.296ZM291.721 194.507C289.173 194.507 287.098 196.582 287.098 199.13C287.098 201.678 289.173 203.753 291.721 203.753C294.269 203.753 296.344 201.678 296.344 199.13C296.344 196.576 294.275 194.507 291.721 194.507Z" fill="#404040"></path> <path d="M223.155 143.112C223.155 150.157 187.76 155.869 144.093 155.869C100.426 155.869 65.0303 150.157 65.0303 143.112C65.0303 136.066 100.426 121.79 144.093 121.79C187.76 121.79 223.155 136.06 223.155 143.112Z" fill="white"></path> <path d="M144.093 156.641C122.932 156.641 103.033 155.308 88.063 152.891C72.2673 150.343 64.2588 147.048 64.2588 143.106C64.2588 134.781 101.574 121.013 144.093 121.013C186.617 121.013 223.932 134.781 223.932 143.106C223.932 147.048 215.924 150.343 200.128 152.891C185.152 155.314 165.253 156.641 144.093 156.641ZM144.093 122.562C99.69 122.562 65.8019 137.149 65.8019 143.106C65.8019 145.343 71.717 148.687 88.3082 151.366C103.201 153.77 123.016 155.092 144.093 155.092C165.17 155.092 184.984 153.77 199.877 151.366C216.474 148.687 222.384 145.343 222.384 143.106C222.384 137.149 188.501 122.562 144.093 122.562Z" fill="#404040"></path> <path d="M104.02 138.447C103.626 138.447 103.285 138.142 103.249 137.742L93.3026 23.6009C93.2667 23.1762 93.5777 22.7994 94.0083 22.7636C94.4449 22.7277 94.8097 23.0387 94.8456 23.4693L104.792 137.61C104.828 138.035 104.517 138.411 104.086 138.447C104.062 138.447 104.044 138.447 104.02 138.447Z" fill="#404040"></path> <path d="M145.636 50.9818C145.953 54.6183 131.03 58.9903 110.426 61.6877C106.335 62.238 102.005 62.7165 97.5308 63.1052C93.386 63.4641 89.3548 63.7332 85.5031 63.9067C78.613 64.2237 72.2851 64.2476 66.8783 64.0383C55.5983 63.5658 48.2596 61.9748 48.0443 59.4868C47.6675 55.1386 67.6559 31.8906 94.6061 29.5461C121.544 27.1955 145.253 46.6277 145.636 50.9818Z" fill="white"></path> <path d="M74.2649 64.9475C71.6751 64.9475 69.1871 64.8996 66.8425 64.8099C54.1091 64.2716 47.524 62.5072 47.2668 59.5526C47.0455 56.9689 52.0695 49.9652 60.5864 43.1588C66.5793 38.3681 78.96 30.1263 94.5344 28.7746C110.103 27.4229 123.715 33.3919 130.45 37.0762C140.014 42.3036 146.18 48.3324 146.401 50.9162C146.964 57.3517 116.61 61.658 110.522 62.4594C106.448 63.0097 102.1 63.4881 97.5966 63.8829C93.5415 64.2358 89.4865 64.5049 85.539 64.6903C81.6813 64.8637 77.8774 64.9475 74.2649 64.9475ZM99.0978 30.1203C97.6444 30.1203 96.1672 30.1802 94.672 30.3117C67.7457 32.6563 48.475 55.5454 48.8099 59.4151C48.9116 60.5634 52.8351 62.6747 66.9083 63.2668C72.4646 63.4881 78.8821 63.4403 85.4672 63.1353C89.3967 62.9558 93.4339 62.6867 97.465 62.3338C101.945 61.945 106.269 61.4666 110.318 60.9223C134.463 57.7584 145.056 53.2427 144.864 51.0477C144.727 49.4628 139.398 43.727 129.708 38.4279C123.781 35.1862 112.388 30.1203 99.0978 30.1203Z" fill="#404040"></path> <path d="M94.6072 29.54C94.6072 29.54 73.3688 40.7005 66.8795 64.0382C55.5994 63.5657 48.2608 61.9748 48.0454 59.4867C47.6627 55.1326 67.651 31.8906 94.6072 29.54Z" fill="#6C75F4"></path> <path d="M66.8792 64.8094C66.8673 64.8094 66.8553 64.8094 66.8493 64.8094C54.1158 64.2771 47.5308 62.5067 47.2736 59.5522C47.0523 56.9684 52.0763 49.9647 60.5932 43.1583C66.5862 38.3676 78.9668 30.1258 94.5412 28.7741C94.9061 28.7383 95.2469 28.9715 95.3486 29.3244C95.4503 29.6773 95.2948 30.0541 94.9659 30.2275C94.7565 30.3352 73.9427 41.5196 67.6209 64.2472C67.5311 64.5822 67.2201 64.8094 66.8792 64.8094ZM91.1919 30.7359C66.1017 34.6235 48.4878 55.7184 48.8108 59.4206C48.9065 60.557 52.7223 62.6144 66.2991 63.2424C71.4487 45.5687 85.0733 34.8149 91.1919 30.7359Z" fill="#404040"></path> <path d="M94.6006 29.5402C94.6006 29.5402 117.454 36.8609 127.879 58.7214C138.908 56.3051 145.863 53.4701 145.642 50.976C145.259 46.6278 121.551 27.1957 94.6006 29.5402Z" fill="#6C75F4"></path> <path d="M127.872 59.4987C127.579 59.4987 127.304 59.3312 127.172 59.0561C117.017 37.7639 94.5821 30.3535 94.3548 30.2817C94.002 30.1681 93.7806 29.8271 93.8224 29.4623C93.8643 29.0974 94.1575 28.8104 94.5223 28.7805C110.103 27.4228 123.715 33.3978 130.444 37.0761C140.007 42.3034 146.174 48.3322 146.401 50.916C146.658 53.8706 140.48 56.7534 128.034 59.4807C127.986 59.4927 127.926 59.4987 127.872 59.4987ZM98.1766 30.1322C104.917 33.0927 120.181 41.3285 128.309 57.836C141.575 54.8694 144.972 52.184 144.876 51.0476C144.738 49.4566 139.409 43.7269 129.72 38.4278C123.65 35.1083 111.903 29.881 98.1766 30.1322Z" fill="#404040"></path> <path d="M110.422 61.6877C106.331 62.238 102.001 62.7164 97.5268 63.1052C93.382 63.4641 89.3508 63.7332 85.499 63.9067C86.3364 47.3872 94.602 29.54 94.602 29.54C103.938 37.8536 108.585 53.6971 110.422 61.6877Z" fill="#6C75F4"></path> <path d="M85.5035 64.684C85.3001 64.684 85.1028 64.6003 84.9533 64.4567C84.7978 64.3012 84.7199 64.0919 84.7259 63.8706C85.5632 47.393 93.817 29.3963 93.9008 29.2169C94.0024 28.9956 94.2057 28.8341 94.445 28.7863C94.6782 28.7384 94.9355 28.8042 95.1149 28.9657C104.505 37.3271 109.206 52.9493 111.168 61.5141C111.216 61.7234 111.174 61.9507 111.048 62.1301C110.923 62.3096 110.731 62.4292 110.516 62.4591C106.443 63.0093 102.089 63.4878 97.585 63.8826C93.5299 64.2354 89.4748 64.5046 85.5274 64.69C85.5274 64.684 85.5154 64.684 85.5035 64.684ZM94.8756 30.8437C93.2069 34.7074 87.2319 49.3428 86.3288 63.0931C89.9831 62.9136 93.7273 62.6564 97.4654 62.3335C101.634 61.9686 105.671 61.532 109.481 61.0296C107.507 52.758 103.141 38.8103 94.8756 30.8437Z" fill="#404040"></path> <path d="M167.294 135.122C167.192 135.122 167.096 135.104 167.001 135.062L157.91 131.294C157.515 131.132 157.329 130.678 157.491 130.283C157.652 129.888 158.107 129.703 158.502 129.864L167.593 133.632C167.987 133.794 168.173 134.248 168.011 134.643C167.886 134.942 167.599 135.122 167.294 135.122Z" fill="#404040"></path> <path d="M171.455 86.6758L195.068 89.9892C195.068 89.9892 188.166 115.199 173.064 128.519L148.806 119.23C148.806 119.23 166.952 111.102 171.455 86.6758Z" fill="#6C75F4"></path> <path d="M173.065 129.284C172.969 129.284 172.88 129.266 172.79 129.23L148.531 119.948C148.238 119.834 148.047 119.559 148.035 119.248C148.023 118.937 148.208 118.65 148.489 118.518C148.669 118.441 166.324 110.241 170.697 86.5322C170.768 86.1255 171.151 85.8504 171.564 85.9042L195.177 89.2176C195.398 89.2475 195.595 89.3731 195.715 89.5585C195.835 89.7439 195.876 89.9712 195.817 90.1865C195.745 90.4437 188.681 115.773 173.573 129.093C173.43 129.218 173.25 129.284 173.065 129.284ZM150.678 119.116L172.897 127.621C185.882 115.917 192.724 95.067 194.07 90.6231L172.072 87.537C169.614 99.9415 163.627 108.028 158.986 112.657C155.595 116.042 152.467 118.088 150.678 119.116Z" fill="#404040"></path> <path d="M113.746 131.36C113.513 131.36 113.28 131.252 113.13 131.055C112.873 130.714 112.939 130.229 113.28 129.972L177.492 81.1196C177.833 80.8625 178.317 80.9283 178.574 81.2692C178.831 81.6101 178.766 82.0945 178.425 82.3517L114.213 131.204C114.075 131.306 113.908 131.36 113.746 131.36Z" fill="#404040"></path> <path d="M115.612 115.199C115.612 115.199 123.842 125.33 148.274 128.979C170.428 132.292 173.065 128.512 173.065 128.512L154.004 121.216L138.28 115.199H115.612Z" fill="#6C75F4"></path> <path d="M163.514 131.103C159.847 131.103 154.877 130.744 148.166 129.745C123.716 126.091 115.361 116.108 115.02 115.69C114.835 115.456 114.793 115.139 114.924 114.87C115.056 114.601 115.325 114.428 115.624 114.428H138.292C138.388 114.428 138.477 114.446 138.567 114.482L173.352 127.795C173.573 127.879 173.747 128.064 173.813 128.292C173.885 128.519 173.843 128.764 173.711 128.962C173.49 129.255 171.863 131.103 163.514 131.103ZM117.484 115.971C120.594 118.758 129.727 125.427 148.388 128.214C163.119 130.415 169.04 129.428 171.253 128.65L138.136 115.971H117.484Z" fill="#404040"></path> <path d="M135.194 136.299C134.96 136.299 134.727 136.192 134.578 135.994C134.32 135.653 134.386 135.169 134.727 134.912L198.939 86.0591C199.28 85.8019 199.764 85.8677 200.021 86.2086C200.278 86.5495 200.213 87.034 199.872 87.2912L135.66 136.144C135.517 136.251 135.355 136.299 135.194 136.299Z" fill="#404040"></path> <path d="M191.391 136.3C191.302 136.3 191.206 136.282 191.116 136.246L138.005 115.916C137.605 115.761 137.407 115.318 137.557 114.918C137.712 114.517 138.161 114.319 138.555 114.475L191.666 134.804C192.067 134.96 192.265 135.402 192.115 135.803C191.995 136.114 191.702 136.3 191.391 136.3Z" fill="#404040"></path> <path d="M88.3631 146.282C94.3023 146.282 99.1169 141.468 99.1169 135.529C99.1169 129.59 94.3023 124.775 88.3631 124.775C82.424 124.775 77.6094 129.59 77.6094 135.529C77.6094 141.468 82.424 146.282 88.3631 146.282Z" fill="white"></path> <path d="M88.3622 147.054C82.0045 147.054 76.8369 141.887 76.8369 135.529C76.8369 129.171 82.0045 124.003 88.3622 124.003C94.72 124.003 99.8876 129.177 99.8876 135.529C99.8876 141.887 94.714 147.054 88.3622 147.054ZM88.3622 125.547C82.8598 125.547 78.38 130.026 78.38 135.529C78.38 141.031 82.8538 145.511 88.3622 145.511C93.8647 145.511 98.3444 141.031 98.3444 135.529C98.3384 130.026 93.8647 125.547 88.3622 125.547Z" fill="#404040"></path> <path d="M92.2507 146.324C91.8261 146.324 91.4792 145.977 91.4792 145.553C91.4792 141.27 89.8524 138.441 88.9792 137.221C87.7949 138.609 84.9779 141.587 81.0125 143.698C80.6357 143.902 80.1692 143.758 79.9658 143.381C79.7684 143.005 79.906 142.538 80.2828 142.335C85.1872 139.727 88.3272 135.576 88.3571 135.534C88.4887 135.355 88.698 135.241 88.9193 135.229C89.1406 135.211 89.3619 135.295 89.5234 135.457C89.6669 135.6 93.0223 139.045 93.0223 145.559C93.0223 145.977 92.6754 146.324 92.2507 146.324Z" fill="#404040"></path> <path d="M90.2954 136.383C89.6555 136.383 88.9915 136.359 88.2977 136.3C87.9927 136.276 87.7356 136.072 87.6339 135.785C87.5323 135.498 87.6099 135.175 87.8312 134.966C87.879 134.918 92.622 130.337 92.1077 125.857C92.0598 125.432 92.3648 125.049 92.7894 125.002C93.2141 124.954 93.597 125.259 93.6448 125.683C94.0755 129.421 91.5992 132.998 90.0621 134.828C95.1459 134.834 98.591 133.172 98.6329 133.154C99.0156 132.962 99.4762 133.112 99.6735 133.494C99.8649 133.877 99.7154 134.338 99.3386 134.535C99.1591 134.619 95.6364 136.383 90.2954 136.383Z" fill="#404040"></path> <path d="M88.3628 136.3C88.3508 136.3 88.3388 136.3 88.3209 136.3C88.0876 136.288 82.627 135.989 78.1353 133.872C77.7525 133.687 77.585 133.226 77.7645 132.843C77.9499 132.46 78.4045 132.293 78.7932 132.472C81.9751 133.974 85.791 134.512 87.4956 134.685C86.8137 129.434 83.3746 126.39 83.3387 126.36C83.0157 126.079 82.9799 125.594 83.261 125.271C83.5421 124.948 84.0326 124.918 84.3496 125.194C84.529 125.349 88.7097 129.045 89.1284 135.481C89.1403 135.702 89.0625 135.917 88.907 136.073C88.7634 136.222 88.5661 136.3 88.3628 136.3Z" fill="#404040"></path> <path d="M186.756 48.3739C185.147 54.4087 178.95 57.9972 172.91 56.3884C166.875 54.7795 163.286 48.5832 164.895 42.5425C166.504 36.5077 172.7 32.9191 178.741 34.528C184.776 36.1368 188.37 42.3331 186.756 48.3739Z" fill="white"></path> <path d="M175.822 57.543C174.794 57.543 173.753 57.4115 172.712 57.1363C169.596 56.305 166.982 54.3074 165.368 51.5143C163.753 48.7211 163.316 45.4615 164.147 42.3454C164.979 39.2293 166.976 36.6157 169.769 35.0008C172.563 33.3859 175.816 32.9493 178.938 33.7807C185.38 35.4972 189.22 42.1301 187.503 48.5716C186.068 53.9724 181.163 57.543 175.822 57.543ZM175.81 34.9111C173.98 34.9111 172.174 35.3896 170.547 36.3346C168.113 37.7461 166.372 40.0188 165.643 42.7402C164.919 45.4615 165.296 48.3024 166.707 50.7367C168.119 53.171 170.391 54.9114 173.113 55.6411C178.723 57.1363 184.513 53.787 186.014 48.1709C187.509 42.5548 184.16 36.7712 178.544 35.2699C177.64 35.0307 176.719 34.9111 175.81 34.9111ZM186.755 48.3683H186.761H186.755Z" fill="#404040"></path> <path d="M169.267 70.8318C169.201 70.8318 169.135 70.8258 169.07 70.8078C168.657 70.7002 168.412 70.2755 168.519 69.8628L170.846 61.1366C170.954 60.7239 171.378 60.4787 171.791 60.5864C172.204 60.694 172.449 61.1187 172.341 61.5314L170.015 70.2576C169.925 70.6045 169.614 70.8318 169.267 70.8318Z" fill="#404040"></path> <path d="M189.632 79.8454C189.351 79.8454 189.082 79.6899 188.944 79.4268L179.429 60.8918C179.231 60.515 179.387 60.0484 179.764 59.8511C180.146 59.6537 180.607 59.8092 180.804 60.186L190.32 78.721C190.517 79.0978 190.362 79.5643 189.985 79.7617C189.871 79.8155 189.752 79.8454 189.632 79.8454Z" fill="#404040"></path> <path d="M196.068 60.8801C195.883 60.8801 195.697 60.8143 195.548 60.6827L188.61 54.4207C188.293 54.1336 188.269 53.6432 188.556 53.3262C188.843 53.0092 189.333 52.9852 189.644 53.2723L196.582 59.5344C196.899 59.8215 196.923 60.3119 196.636 60.6289C196.487 60.7904 196.278 60.8801 196.068 60.8801Z" fill="#404040"></path> <path d="M145.241 66.3581C144.984 66.3581 144.733 66.2265 144.583 65.9932C144.356 65.6284 144.469 65.1559 144.834 64.9287L163.501 53.3316C163.866 53.1043 164.338 53.2179 164.565 53.5827C164.793 53.9476 164.679 54.4201 164.314 54.6474L145.648 66.2444C145.522 66.3162 145.378 66.3581 145.241 66.3581Z" fill="#404040"></path> <path d="M150.092 47.8358C149.685 47.8358 149.344 47.5188 149.321 47.1061C149.297 46.6814 149.626 46.3166 150.05 46.2927L160.027 45.7484C160.445 45.7185 160.816 46.0535 160.84 46.4781C160.864 46.9027 160.535 47.2676 160.11 47.2915L150.134 47.8358C150.116 47.8358 150.104 47.8358 150.092 47.8358Z" fill="#404040"></path> <path d="M212.043 168.95C209.758 168.95 207.497 168.136 205.38 166.528C204.028 165.499 203.024 164.374 202.42 163.609C201.223 165.122 198.406 167.939 193.986 167.981C193.945 167.981 193.903 167.981 193.861 167.981C189.052 167.981 186.193 165.284 184.949 163.728C181.163 169.422 172.934 167.371 172.844 167.347C172.431 167.239 172.186 166.821 172.288 166.408C172.395 165.995 172.814 165.744 173.227 165.852C173.555 165.935 181.337 167.855 184.178 161.952C184.303 161.695 184.561 161.521 184.854 161.516C185.141 161.498 185.41 161.659 185.553 161.91C185.655 162.096 188.173 166.438 193.861 166.438C193.897 166.438 193.933 166.438 193.969 166.438C199.028 166.39 201.72 161.94 201.744 161.892C201.881 161.659 202.127 161.516 202.396 161.516C202.647 161.521 202.916 161.647 203.06 161.874C203.251 162.173 207.844 169.201 214.675 166.988C215.081 166.856 215.518 167.078 215.65 167.485C215.781 167.891 215.56 168.328 215.153 168.459C214.118 168.782 213.078 168.95 212.043 168.95Z" fill="#404040"></path> <path d="M85.4924 162.538C83.2077 162.538 80.9468 161.725 78.8236 160.116C77.4719 159.087 76.4671 157.963 75.863 157.197C74.6669 158.71 71.8498 161.527 67.4299 161.569C62.5136 161.617 59.6487 158.884 58.3927 157.317C54.6067 163.011 46.3769 160.959 46.2871 160.935C45.8745 160.828 45.6293 160.409 45.731 159.996C45.8386 159.584 46.2573 159.332 46.6699 159.44C46.9989 159.524 54.7802 161.444 57.6211 155.54C57.7467 155.283 58.0039 155.11 58.297 155.104C58.5841 155.08 58.8532 155.247 58.9967 155.499C59.0984 155.684 61.6882 160.08 67.4119 160.026C72.4479 159.978 75.1633 155.528 75.1872 155.481C75.3248 155.253 75.57 155.11 75.8391 155.104C76.1202 155.098 76.3594 155.235 76.503 155.457C76.6944 155.756 81.2877 162.783 88.118 160.57C88.5247 160.439 88.9614 160.66 89.0929 161.067C89.2245 161.474 89.0032 161.91 88.5965 162.042C87.5677 162.371 86.5271 162.538 85.4924 162.538Z" fill="#404040"></path> <path d="M122.095 181.139C119.81 181.139 117.549 180.326 115.426 178.717C114.075 177.688 113.07 176.558 112.466 175.798C111.27 177.312 108.452 180.129 104.032 180.17C103.991 180.17 103.949 180.17 103.907 180.17C99.0982 180.17 96.2392 177.473 94.9952 175.918C91.2092 181.612 82.9794 179.56 82.8897 179.537C82.477 179.429 82.2259 179.01 82.3335 178.597C82.4412 178.185 82.8599 177.934 83.2726 178.041C83.6015 178.125 91.3828 180.045 94.2238 174.142C94.3494 173.884 94.6065 173.711 94.8995 173.705C95.1866 173.687 95.4557 173.849 95.5993 174.1C95.7009 174.285 98.219 178.627 103.907 178.627C103.943 178.627 103.979 178.627 104.015 178.627C109.05 178.58 111.766 174.13 111.79 174.082C111.927 173.855 112.173 173.711 112.442 173.705C112.711 173.687 112.962 173.837 113.106 174.064C113.297 174.363 117.89 181.391 124.721 179.178C125.127 179.046 125.564 179.267 125.696 179.674C125.827 180.081 125.606 180.517 125.199 180.649C124.164 180.972 123.13 181.139 122.095 181.139Z" fill="#404040"></path> <path d="M287.899 390.933C287.492 390.933 287.151 390.616 287.127 390.204L286.027 370.879C286.003 370.454 286.326 370.09 286.756 370.066C287.181 370.042 287.546 370.365 287.57 370.795L288.67 390.12C288.694 390.545 288.371 390.909 287.941 390.933C287.929 390.933 287.917 390.933 287.899 390.933Z" fill="#404040"></path> <path d="M336.453 329.539C336.292 329.539 336.13 329.491 335.998 329.39L319.102 317.117L309.598 325.359C309.275 325.64 308.785 325.604 308.51 325.281C308.229 324.958 308.265 324.467 308.588 324.192L318.558 315.55C318.827 315.317 319.228 315.299 319.521 315.508L336.13 327.572L346.142 304.096C346.31 303.702 346.764 303.522 347.153 303.69C347.548 303.857 347.727 304.312 347.56 304.706L337.171 329.073C337.081 329.288 336.896 329.45 336.668 329.515C336.596 329.533 336.525 329.539 336.453 329.539Z" fill="#404040"></path> <path d="M374.51 318.043V371.13H330.556V382.446H374.51H430.647H475.648V318.043H374.51Z" fill="#404040"></path> <path d="M431.736 352.199C431.736 355.082 429.397 357.42 426.514 357.42C423.632 357.42 421.293 355.082 421.293 352.199C421.293 349.316 423.632 346.978 426.514 346.978C429.397 346.978 431.736 349.316 431.736 352.199Z" fill="white"></path> <path d="M293.157 289.645L285.968 274.346L285.585 263.939C285.537 262.659 286.387 261.457 287.649 261.212C289.012 260.949 290.286 261.78 290.633 263.06L291.028 264.513L291.303 262.881C291.518 261.595 292.625 260.578 293.929 260.614C294.898 260.644 295.693 261.188 296.118 261.959C296.59 261.744 297.117 261.642 297.673 261.714C299.15 261.906 300.239 263.191 300.185 264.681L299.623 276.29C299.623 276.29 303.881 278.587 305.059 279.675C307.811 282.217 308.433 286.362 308.313 290.106L310.466 371.447C310.711 382.123 302.111 390.897 291.435 390.879C279.12 390.855 270.083 379.3 273.025 367.344L293.157 289.645Z" fill="white"></path> <path d="M291.464 391.639C291.452 391.639 291.44 391.639 291.422 391.639C285.316 391.627 279.652 388.864 275.89 384.049C272.128 379.24 270.806 373.08 272.265 367.147L292.337 289.723L285.268 274.675C285.226 274.58 285.196 274.478 285.196 274.376L284.813 263.969C284.747 262.277 285.902 260.764 287.499 260.459C288.826 260.201 290.118 260.74 290.86 261.768C291.44 260.584 292.648 259.807 293.952 259.843C294.927 259.872 295.812 260.309 296.416 261.039C296.859 260.925 297.313 260.889 297.762 260.949C299.646 261.194 301.022 262.809 300.95 264.705L300.412 275.836C301.542 276.458 304.562 278.156 305.579 279.095C308.067 281.392 309.246 285.1 309.078 290.118L311.231 371.411C311.351 376.788 309.353 381.86 305.591 385.7C301.841 389.534 296.823 391.639 291.464 391.639ZM286.733 274.155L293.851 289.311C293.928 289.472 293.946 289.658 293.898 289.831L273.76 367.518C272.421 372.978 273.635 378.654 277.11 383.092C280.579 387.53 285.8 390.078 291.428 390.09C291.44 390.09 291.452 390.09 291.464 390.09C296.404 390.09 301.028 388.146 304.485 384.617C307.954 381.077 309.796 376.399 309.682 371.447L307.529 290.112C307.678 285.513 306.668 282.205 304.526 280.232C303.623 279.394 300.406 277.588 299.245 276.96C298.982 276.816 298.827 276.541 298.839 276.242L299.401 264.633C299.443 263.545 298.647 262.612 297.559 262.474C297.182 262.426 296.799 262.486 296.422 262.66C296.051 262.827 295.615 262.683 295.423 262.325C295.112 261.756 294.538 261.398 293.892 261.38C292.971 261.356 292.212 262.049 292.05 263L291.775 264.633C291.715 264.992 291.416 265.261 291.051 265.279C290.692 265.285 290.364 265.058 290.268 264.711L289.873 263.258C289.622 262.337 288.719 261.786 287.78 261.966C286.925 262.133 286.309 262.965 286.344 263.904L286.733 274.155Z" fill="#404040"></path> <path d="M292.733 278.934C292.475 278.934 292.224 278.809 292.075 278.575L288.917 273.545C288.815 273.384 288.779 273.192 288.809 273.007L290.436 263.318C290.508 262.899 290.896 262.618 291.327 262.684C291.746 262.756 292.033 263.15 291.961 263.575L290.382 272.971L293.385 277.75C293.612 278.109 293.504 278.587 293.139 278.814C293.02 278.892 292.876 278.934 292.733 278.934Z" fill="#404040"></path> <path d="M295.101 279.975C294.742 279.975 294.419 279.723 294.341 279.353L293.606 275.704C293.594 275.644 293.588 275.585 293.588 275.531L293.929 264.263C293.995 262.08 295.968 261.099 296.052 261.057C296.435 260.871 296.901 261.033 297.087 261.416C297.272 261.799 297.111 262.259 296.734 262.444C296.674 262.474 295.514 263.078 295.478 264.311L295.137 275.489L295.855 279.054C295.938 279.472 295.669 279.879 295.251 279.963C295.203 279.969 295.149 279.975 295.101 279.975Z" fill="#404040"></path> <path d="M307.421 295.178C307.409 295.178 307.397 295.178 307.385 295.178L292.23 294.442C291.805 294.424 291.476 294.059 291.494 293.635C291.512 293.21 291.895 292.881 292.301 292.899L307.457 293.635C307.882 293.653 308.211 294.018 308.193 294.442C308.175 294.855 307.834 295.178 307.421 295.178Z" fill="#404040"></path> <path d="M215.997 695H208.329L235.907 392.728H208.784V381.759H490.361V392.728H463.232L491.378 695H483.711L441.359 392.728H257.78L215.997 695Z" fill="#404040"></path> </svg> 