<?xml version="1.0" encoding="UTF-8"?> <svg xmlns="http://www.w3.org/2000/svg" width="375" height="51" viewBox="0 0 375 51" fill="none"> <path d="M7.084 40C6.40933 40 5.82667 39.77 5.336 39.31C4.84533 38.85 4.6 38.2827 4.6 37.608V6.466C4.6 5.76067 4.84533 5.19333 5.336 4.764C5.82667 4.304 6.40933 4.074 7.084 4.074C7.78933 4.074 8.34133 4.304 8.74 4.764C9.16933 5.19333 9.384 5.76067 9.384 6.466V32.548L31.464 4.948C31.9547 4.36533 32.568 4.074 33.304 4.074C34.0093 4.074 34.5767 4.304 35.006 4.764C35.466 5.19333 35.696 5.76067 35.696 6.466V37.608C35.696 38.2827 35.466 38.85 35.006 39.31C34.5767 39.77 34.0093 40 33.304 40C32.6293 40 32.062 39.77 31.602 39.31C31.142 38.85 30.912 38.2827 30.912 37.608V11.572L8.924 39.172C8.70933 39.4173 8.43333 39.6167 8.096 39.77C7.75867 39.9233 7.42133 40 7.084 40ZM52.2089 40.184C50.2769 40.184 48.5443 39.8927 47.0109 39.31C45.5083 38.6967 44.3123 37.8533 43.4229 36.78C42.5643 35.7067 42.1349 34.48 42.1349 33.1C42.1349 31.72 42.5183 30.5393 43.2849 29.558C44.0823 28.5767 45.2169 27.7487 46.6889 27.074C48.1916 26.3993 49.9856 25.8627 52.0709 25.464C54.1563 25.0347 55.5669 24.5287 56.3029 23.946C57.0389 23.3327 57.4069 22.5507 57.4069 21.6C57.4069 20.6187 56.9163 19.898 55.9349 19.438C54.9536 18.9473 53.8189 18.702 52.5309 18.702C51.4576 18.702 50.3843 18.8707 49.3109 19.208C48.2683 19.5453 47.3943 20.036 46.6889 20.68C46.2289 21.1093 45.7229 21.4007 45.1709 21.554C44.6189 21.7073 44.1743 21.6767 43.8369 21.462C43.2543 21.094 42.8863 20.6187 42.7329 20.036C42.6103 19.4533 42.7483 18.9167 43.1469 18.426C44.0669 17.2913 45.3549 16.3867 47.0109 15.712C48.6976 15.0067 50.5529 14.654 52.5769 14.654C54.2943 14.654 55.8583 14.93 57.2689 15.482C58.6796 16.0033 59.7989 16.7853 60.6269 17.828C61.4856 18.8707 61.9149 20.1587 61.9149 21.692C61.9149 23.4707 61.1943 24.9733 59.7529 26.2C58.3116 27.396 56.1189 28.316 53.1749 28.96C50.7523 29.4507 49.0809 30.0333 48.1609 30.708C47.2409 31.352 46.7963 32.134 46.8269 33.054C46.8576 34.0047 47.3176 34.7407 48.2069 35.262C49.0963 35.7833 50.4303 36.044 52.2089 36.044C53.8036 36.044 55.1529 35.8907 56.2569 35.584C57.3916 35.2467 58.2809 34.7407 58.9249 34.066C59.3543 33.606 59.8449 33.2993 60.3969 33.146C60.9489 32.9927 61.5163 33.1613 62.0989 33.652C62.6203 34.0813 62.8809 34.572 62.8809 35.124C62.8809 35.676 62.6509 36.1973 62.1909 36.688C61.1789 37.7 59.7683 38.5433 57.9589 39.218C56.1496 39.862 54.2329 40.184 52.2089 40.184ZM70.9938 50.764C70.3191 50.764 69.7518 50.534 69.2918 50.074C68.8625 49.6447 68.6478 49.0927 68.6478 48.418V27.442C68.6785 25.0193 69.2458 22.842 70.3498 20.91C71.4538 18.978 72.9565 17.46 74.8578 16.356C76.7591 15.2213 78.9058 14.654 81.2978 14.654C83.7205 14.654 85.8825 15.2213 87.7838 16.356C89.6851 17.46 91.1878 18.978 92.2918 20.91C93.4265 22.842 93.9938 25.0193 93.9938 27.442C93.9938 29.8647 93.4725 32.042 92.4298 33.974C91.4178 35.8753 90.0225 37.3933 88.2438 38.528C86.4651 39.632 84.4565 40.184 82.2178 40.184C80.4085 40.184 78.7371 39.816 77.2038 39.08C75.7011 38.3133 74.4131 37.286 73.3398 35.998V48.418C73.3398 49.0927 73.1251 49.6447 72.6958 50.074C72.2665 50.534 71.6991 50.764 70.9938 50.764ZM81.2978 36.044C82.8618 36.044 84.2571 35.676 85.4838 34.94C86.7105 34.1733 87.6765 33.146 88.3818 31.858C89.1178 30.5393 89.4858 29.0673 89.4858 27.442C89.4858 25.786 89.1178 24.314 88.3818 23.026C87.6765 21.7073 86.7105 20.68 85.4838 19.944C84.2571 19.1773 82.8618 18.794 81.2978 18.794C79.7645 18.794 78.3691 19.1773 77.1118 19.944C75.8851 20.68 74.9191 21.7073 74.2138 23.026C73.5085 24.314 73.1558 25.786 73.1558 27.442C73.1558 29.0673 73.5085 30.5393 74.2138 31.858C74.9191 33.146 75.8851 34.1733 77.1118 34.94C78.3691 35.676 79.7645 36.044 81.2978 36.044ZM111.48 40.184C109.241 40.184 107.232 39.632 105.454 38.528C103.675 37.3933 102.264 35.8753 101.222 33.974C100.21 32.042 99.7036 29.8647 99.7036 27.442C99.7036 25.0193 100.256 22.842 101.36 20.91C102.494 18.978 104.012 17.46 105.914 16.356C107.846 15.2213 110.008 14.654 112.4 14.654C114.792 14.654 116.938 15.2213 118.84 16.356C120.741 17.46 122.244 18.978 123.348 20.91C124.482 22.842 125.05 25.0193 125.05 27.442H123.256C123.256 29.8647 122.734 32.042 121.692 33.974C120.68 35.8753 119.284 37.3933 117.506 38.528C115.727 39.632 113.718 40.184 111.48 40.184ZM112.4 36.044C113.964 36.044 115.359 35.676 116.586 34.94C117.812 34.1733 118.778 33.146 119.484 31.858C120.189 30.5393 120.542 29.0673 120.542 27.442C120.542 25.786 120.189 24.314 119.484 23.026C118.778 21.7073 117.812 20.68 116.586 19.944C115.359 19.1773 113.964 18.794 112.4 18.794C110.866 18.794 109.471 19.1773 108.214 19.944C106.987 20.68 106.006 21.7073 105.27 23.026C104.564 24.314 104.212 25.786 104.212 27.442C104.212 29.0673 104.564 30.5393 105.27 31.858C106.006 33.146 106.987 34.1733 108.214 34.94C109.471 35.676 110.866 36.044 112.4 36.044ZM122.704 40.046C122.029 40.046 121.462 39.8313 121.002 39.402C120.572 38.942 120.358 38.3747 120.358 37.7V30.662L121.232 25.786L125.05 27.442V37.7C125.05 38.3747 124.82 38.942 124.36 39.402C123.93 39.8313 123.378 40.046 122.704 40.046ZM142.613 40.23C140.497 40.23 138.595 39.7853 136.909 38.896C135.253 37.976 133.934 36.642 132.953 34.894C132.002 33.146 131.527 30.9993 131.527 28.454V17.138C131.527 16.4633 131.741 15.9113 132.171 15.482C132.631 15.022 133.198 14.792 133.873 14.792C134.547 14.792 135.099 15.022 135.529 15.482C135.989 15.9113 136.219 16.4633 136.219 17.138V28.454C136.219 30.1713 136.541 31.5973 137.185 32.732C137.829 33.836 138.703 34.664 139.807 35.216C140.911 35.7373 142.153 35.998 143.533 35.998C144.851 35.998 146.017 35.7373 147.029 35.216C148.071 34.6947 148.899 33.9893 149.513 33.1C150.126 32.2107 150.433 31.214 150.433 30.11H153.331C153.331 32.0113 152.855 33.7287 151.905 35.262C150.985 36.7953 149.712 38.0067 148.087 38.896C146.492 39.7853 144.667 40.23 142.613 40.23ZM152.779 40C152.104 40 151.537 39.7853 151.077 39.356C150.647 38.896 150.433 38.3287 150.433 37.654V17.138C150.433 16.4327 150.647 15.8653 151.077 15.436C151.537 15.0067 152.104 14.792 152.779 14.792C153.484 14.792 154.051 15.0067 154.481 15.436C154.91 15.8653 155.125 16.4327 155.125 17.138V37.654C155.125 38.3287 154.91 38.896 154.481 39.356C154.051 39.7853 153.484 40 152.779 40ZM143.579 11.526C142.015 11.526 140.604 11.2653 139.347 10.744C138.089 10.192 137.093 9.456 136.357 8.536C135.621 7.58533 135.253 6.52733 135.253 5.362C135.253 4.718 135.452 4.18133 135.851 3.752C136.249 3.32266 136.74 3.108 137.323 3.108C137.936 3.108 138.427 3.32266 138.795 3.752C139.193 4.18133 139.393 4.718 139.393 5.362C139.393 6.12866 139.791 6.788 140.589 7.34C141.386 7.86133 142.383 8.122 143.579 8.122C144.775 8.122 145.771 7.86133 146.569 7.34C147.366 6.788 147.765 6.12866 147.765 5.362C147.765 4.718 147.964 4.18133 148.363 3.752C148.761 3.32266 149.252 3.108 149.835 3.108C150.448 3.108 150.939 3.32266 151.307 3.752C151.705 4.18133 151.905 4.718 151.905 5.362C151.905 6.52733 151.537 7.58533 150.801 8.536C150.065 9.456 149.068 10.192 147.811 10.744C146.584 11.2653 145.173 11.526 143.579 11.526ZM196.416 40.046C195.741 40.046 195.174 39.8313 194.714 39.402C194.285 38.942 194.07 38.3747 194.07 37.7V24.544C194.07 22.612 193.595 21.186 192.644 20.266C191.693 19.3153 190.451 18.84 188.918 18.84C187.323 18.84 186.005 19.392 184.962 20.496C183.95 21.6 183.444 23.0107 183.444 24.728H179.626C179.626 22.7347 180.055 20.9867 180.914 19.484C181.773 17.9507 182.969 16.7547 184.502 15.896C186.066 15.0373 187.845 14.608 189.838 14.608C191.586 14.608 193.135 14.9913 194.484 15.758C195.833 16.5247 196.876 17.6593 197.612 19.162C198.379 20.634 198.762 22.428 198.762 24.544V37.7C198.762 38.3747 198.547 38.942 198.118 39.402C197.689 39.8313 197.121 40.046 196.416 40.046ZM165.734 40.046C165.059 40.046 164.492 39.8313 164.032 39.402C163.603 38.942 163.388 38.3747 163.388 37.7V17.23C163.388 16.5247 163.603 15.9573 164.032 15.528C164.492 15.0987 165.059 14.884 165.734 14.884C166.439 14.884 167.007 15.0987 167.436 15.528C167.865 15.9573 168.08 16.5247 168.08 17.23V37.7C168.08 38.3747 167.865 38.942 167.436 39.402C167.007 39.8313 166.439 40.046 165.734 40.046ZM181.098 40.046C180.423 40.046 179.856 39.8313 179.396 39.402C178.967 38.942 178.752 38.3747 178.752 37.7V24.544C178.752 22.612 178.277 21.186 177.326 20.266C176.375 19.3153 175.133 18.84 173.6 18.84C172.005 18.84 170.687 19.392 169.644 20.496C168.601 21.6 168.08 23.0107 168.08 24.728H165.182C165.182 22.7347 165.581 20.9867 166.378 19.484C167.175 17.9507 168.279 16.7547 169.69 15.896C171.101 15.0373 172.711 14.608 174.52 14.608C176.268 14.608 177.817 14.9913 179.166 15.758C180.515 16.5247 181.558 17.6593 182.294 19.162C183.061 20.634 183.444 22.428 183.444 24.544V37.7C183.444 38.3747 183.229 38.942 182.8 39.402C182.371 39.8313 181.803 40.046 181.098 40.046ZM218.38 40.184C215.835 40.184 213.565 39.6473 211.572 38.574C209.609 37.47 208.061 35.9673 206.926 34.066C205.822 32.134 205.27 29.926 205.27 27.442C205.27 24.9273 205.791 22.7193 206.834 20.818C207.907 18.886 209.379 17.3833 211.25 16.31C213.121 15.206 215.267 14.654 217.69 14.654C220.082 14.654 222.137 15.1907 223.854 16.264C225.571 17.3067 226.875 18.7633 227.764 20.634C228.684 22.474 229.144 24.6053 229.144 27.028C229.144 27.6107 228.945 28.1013 228.546 28.5C228.147 28.868 227.641 29.052 227.028 29.052H208.49V25.372H226.89L225.004 26.66C224.973 25.1267 224.667 23.762 224.084 22.566C223.501 21.3393 222.673 20.3733 221.6 19.668C220.527 18.9627 219.223 18.61 217.69 18.61C215.942 18.61 214.439 18.9933 213.182 19.76C211.955 20.5267 211.02 21.5847 210.376 22.934C209.732 24.2527 209.41 25.7553 209.41 27.442C209.41 29.1287 209.793 30.6313 210.56 31.95C211.327 33.2687 212.385 34.3113 213.734 35.078C215.083 35.8447 216.632 36.228 218.38 36.228C219.331 36.228 220.297 36.0593 221.278 35.722C222.29 35.354 223.103 34.94 223.716 34.48C224.176 34.1427 224.667 33.974 225.188 33.974C225.74 33.9433 226.215 34.0967 226.614 34.434C227.135 34.894 227.411 35.4 227.442 35.952C227.473 36.504 227.227 36.9793 226.706 37.378C225.663 38.206 224.36 38.8807 222.796 39.402C221.263 39.9233 219.791 40.184 218.38 40.184ZM259.093 40.184C256.793 40.184 254.754 39.6473 252.975 38.574C251.227 37.47 249.847 35.9673 248.835 34.066C247.823 32.134 247.317 29.926 247.317 27.442C247.317 24.9273 247.854 22.7193 248.927 20.818C250.031 18.886 251.534 17.3833 253.435 16.31C255.336 15.206 257.529 14.654 260.013 14.654C262.466 14.654 264.644 15.206 266.545 16.31C268.446 17.3833 269.934 18.886 271.007 20.818C272.111 22.7193 272.663 24.9273 272.663 27.442H269.949C269.949 29.926 269.474 32.134 268.523 34.066C267.603 35.9673 266.33 37.47 264.705 38.574C263.08 39.6473 261.209 40.184 259.093 40.184ZM259.921 50.442C257.744 50.442 255.704 50.0127 253.803 49.154C251.902 48.2953 250.292 47.038 248.973 45.382C248.574 44.8607 248.421 44.324 248.513 43.772C248.636 43.22 248.942 42.7753 249.433 42.438C249.985 42.07 250.552 41.9473 251.135 42.07C251.748 42.1927 252.239 42.4993 252.607 42.99C253.435 44.0327 254.478 44.8453 255.735 45.428C256.992 46.0107 258.418 46.302 260.013 46.302C261.485 46.302 262.834 45.9493 264.061 45.244C265.318 44.5387 266.315 43.496 267.051 42.116C267.787 40.736 268.155 39.0493 268.155 37.056V30.524L269.673 26.476L272.663 27.442V37.378C272.663 39.8007 272.126 41.9933 271.053 43.956C269.98 45.9493 268.477 47.5287 266.545 48.694C264.644 49.8593 262.436 50.442 259.921 50.442ZM260.013 36.044C261.608 36.044 263.018 35.676 264.245 34.94C265.472 34.204 266.422 33.192 267.097 31.904C267.802 30.616 268.155 29.1287 268.155 27.442C268.155 25.7553 267.802 24.268 267.097 22.98C266.422 21.6613 265.472 20.634 264.245 19.898C263.018 19.162 261.608 18.794 260.013 18.794C258.418 18.794 257.008 19.162 255.781 19.898C254.554 20.634 253.588 21.6613 252.883 22.98C252.178 24.268 251.825 25.7553 251.825 27.442C251.825 29.1287 252.178 30.616 252.883 31.904C253.588 33.192 254.554 34.204 255.781 34.94C257.008 35.676 258.418 36.044 260.013 36.044ZM291.054 40.184C288.57 40.184 286.377 39.6473 284.476 38.574C282.575 37.47 281.072 35.9673 279.968 34.066C278.895 32.134 278.358 29.926 278.358 27.442C278.358 24.9273 278.895 22.7193 279.968 20.818C281.072 18.886 282.575 17.3833 284.476 16.31C286.377 15.206 288.57 14.654 291.054 14.654C293.507 14.654 295.685 15.206 297.586 16.31C299.487 17.3833 300.975 18.886 302.048 20.818C303.152 22.7193 303.704 24.9273 303.704 27.442C303.704 29.926 303.167 32.134 302.094 34.066C301.021 35.9673 299.533 37.47 297.632 38.574C295.731 39.6473 293.538 40.184 291.054 40.184ZM291.054 36.044C292.649 36.044 294.059 35.676 295.286 34.94C296.513 34.204 297.463 33.192 298.138 31.904C298.843 30.616 299.196 29.1287 299.196 27.442C299.196 25.7553 298.843 24.268 298.138 22.98C297.463 21.6613 296.513 20.634 295.286 19.898C294.059 19.162 292.649 18.794 291.054 18.794C289.459 18.794 288.049 19.162 286.822 19.898C285.595 20.634 284.629 21.6613 283.924 22.98C283.219 24.268 282.866 25.7553 282.866 27.442C282.866 29.1287 283.219 30.616 283.924 31.904C284.629 33.192 285.595 34.204 286.822 34.94C288.049 35.676 289.459 36.044 291.054 36.044ZM313.033 40C312.358 40 311.791 39.7853 311.331 39.356C310.902 38.896 310.687 38.3287 310.687 37.654V17.184C310.687 16.4787 310.902 15.9113 311.331 15.482C311.791 15.0527 312.358 14.838 313.033 14.838C314.014 14.838 314.842 15.3133 315.517 16.264L325.039 30.018L334.561 16.264C335.236 15.3133 336.064 14.838 337.045 14.838C337.75 14.838 338.318 15.0527 338.747 15.482C339.176 15.9113 339.391 16.4787 339.391 17.184V37.654C339.391 38.3287 339.176 38.896 338.747 39.356C338.318 39.7853 337.75 40 337.045 40C336.37 40 335.803 39.7853 335.343 39.356C334.914 38.896 334.699 38.3287 334.699 37.654V20.91L335.895 21.278L327.431 33.238C326.664 34.3113 325.836 34.848 324.947 34.848C324.058 34.8173 323.245 34.2807 322.509 33.238L314.183 21.278L315.379 20.91V37.654C315.379 38.3287 315.164 38.896 314.735 39.356C314.306 39.7853 313.738 40 313.033 40ZM358.146 40.184C355.907 40.184 353.898 39.632 352.12 38.528C350.341 37.3933 348.93 35.8753 347.888 33.974C346.876 32.042 346.37 29.8647 346.37 27.442C346.37 25.0193 346.922 22.842 348.026 20.91C349.16 18.978 350.678 17.46 352.58 16.356C354.512 15.2213 356.674 14.654 359.066 14.654C361.458 14.654 363.604 15.2213 365.506 16.356C367.407 17.46 368.91 18.978 370.014 20.91C371.148 22.842 371.716 25.0193 371.716 27.442H369.922C369.922 29.8647 369.4 32.042 368.358 33.974C367.346 35.8753 365.95 37.3933 364.172 38.528C362.393 39.632 360.384 40.184 358.146 40.184ZM359.066 36.044C360.63 36.044 362.025 35.676 363.252 34.94C364.478 34.1733 365.444 33.146 366.15 31.858C366.855 30.5393 367.208 29.0673 367.208 27.442C367.208 25.786 366.855 24.314 366.15 23.026C365.444 21.7073 364.478 20.68 363.252 19.944C362.025 19.1773 360.63 18.794 359.066 18.794C357.532 18.794 356.137 19.1773 354.88 19.944C353.653 20.68 352.672 21.7073 351.936 23.026C351.23 24.314 350.878 25.786 350.878 27.442C350.878 29.0673 351.23 30.5393 351.936 31.858C352.672 33.146 353.653 34.1733 354.88 34.94C356.137 35.676 357.532 36.044 359.066 36.044ZM369.37 40.046C368.695 40.046 368.128 39.8313 367.668 39.402C367.238 38.942 367.024 38.3747 367.024 37.7V30.662L367.898 25.786L371.716 27.442V37.7C371.716 38.3747 371.486 38.942 371.026 39.402C370.596 39.8313 370.044 40.046 369.37 40.046Z" fill="black"></path> <path d="M272.334 9.39173L260.355 2.18262C259.944 1.93387 259.437 1.93951 259.03 2.19789L247.642 9.40759C247.017 9.80285 246.814 10.6587 247.186 11.3198C247.559 11.9813 248.368 12.1977 248.991 11.802L259.722 5.00949L271.034 11.8175C271.239 11.9409 271.462 12 271.682 12C272.14 12 272.586 11.7457 272.828 11.2933C273.187 10.6237 272.966 9.7724 272.334 9.39173Z" fill="#C75C6C"></path> </svg> 