<?xml version="1.0" encoding="UTF-8"?> <svg xmlns="http://www.w3.org/2000/svg" width="281" height="472" viewBox="0 0 281 472" fill="none"> <path d="M93.0762 18.9056C93.0762 18.9056 94.1732 5.80508 104.131 0.367188C104.131 0.367188 113.594 5.80508 114.582 18.9056H93.0762Z" fill="#CCCCCC"></path> <path d="M114.93 19.2296H92.7275L92.7558 18.8805C92.7676 18.7484 93.985 5.54406 103.976 0.0872883L104.134 0L104.29 0.0896462C104.387 0.143907 113.911 5.76346 114.901 18.8828L114.93 19.2296ZM93.4377 18.5856H114.231C113.208 6.95013 105.321 1.50515 104.122 0.743138C95.4783 5.58652 93.7019 16.4953 93.4377 18.5856Z" fill="#404040"></path> <path d="M93.7786 44.8456L88.3809 37.485L91.1883 31.3134L78.687 32.802V14.8369L103.829 17.8401L128.97 14.8369V32.802L116.439 31.3016L118.522 36.605L113.905 44.8456H93.7786Z" fill="#CCCCCC"></path> <path d="M128.65 15.2003V32.4411L115.941 30.9194L118.166 36.5815L113.717 44.5248H93.9421L88.7519 37.4473L91.7174 30.9265L79.0085 32.4411V15.2003L103.829 18.1657L128.65 15.2003ZM129.294 14.4736L128.575 14.5586L103.832 17.5146L79.0887 14.5586L78.3691 14.4736V15.2003V32.4411V33.1654L79.0887 33.0804L90.6605 31.7003L88.1692 37.1783L88.0135 37.5228L88.2376 37.8271L93.4278 44.9046L93.6212 45.1689H93.9468H113.721H114.099L114.283 44.8386L118.732 36.8952L118.881 36.6286L118.77 36.3455L116.939 31.6862L128.577 33.0804L129.297 33.1677V32.4411V15.2003V14.4736H129.294Z" fill="#404040"></path> <path d="M76.4356 121.842L62.9883 44.2012H144.668L132.256 121.842H76.4356Z" fill="#CCCCCC"></path> <path d="M144.29 44.522L131.979 121.518H76.7039L63.3675 44.522H144.29ZM145.044 43.8779H144.29H63.3698H62.6055L62.7352 44.6329L76.0716 121.629L76.1636 122.162H76.7063H131.982H132.531L132.619 121.62L144.929 44.6234L145.044 43.8779Z" fill="#404040"></path> <path d="M63.3696 44.5234L76.706 121.52H102.112L88.7779 44.5234H63.3696Z" fill="white"></path> <path d="M0.317871 471.186V439.804C0.317871 427.367 5.96809 415.609 15.8224 407.55C26.1414 399.116 34.8184 387.778 35.6465 386.683V374.031C35.6465 362.119 40.688 350.696 49.4783 342.691L64.0156 329.419L82.2308 143.964H131.863L147.221 329.419L161.756 342.689C170.544 350.705 175.586 362.129 175.586 374.028V386.683C176.411 387.775 185.079 399.113 195.41 407.55C205.257 415.604 210.905 427.36 210.905 439.804V471.186H0.317871Z" fill="#CCCCCC"></path> <path d="M131.562 144.284L146.906 329.571L161.533 342.926C170.273 350.896 175.258 362.191 175.258 374.027V386.788C175.258 386.788 184.235 398.841 195.201 407.796C204.833 415.674 210.578 427.347 210.578 439.801V470.862H0.639327V439.801C0.639327 427.347 6.39335 415.674 16.0259 407.796C26.9819 398.841 35.968 386.788 35.968 386.788V374.027C35.968 362.189 40.9435 350.896 49.6937 342.926L64.3206 329.571L82.5192 144.284H131.562ZM132.156 143.64H131.564H82.5216H81.9389L81.8822 144.22L63.7072 329.26L49.2619 342.45C40.4056 350.516 35.3263 362.026 35.3263 374.027V386.571C34.1915 388.062 25.689 399.068 15.6224 407.296C5.69268 415.417 0 427.264 0 439.799V470.86V471.504H0.64405H210.582H211.226V470.86V439.799C211.226 427.257 205.536 415.412 195.613 407.296C185.537 399.068 177.042 388.062 175.907 386.571V374.025C175.907 362.033 170.828 350.523 161.971 342.447L147.531 329.262L132.206 144.227L132.156 143.64Z" fill="#404040"></path> <path d="M42.6967 407.799C53.6527 398.843 62.6388 386.79 62.6388 386.79V374.03C62.6388 362.191 67.6143 350.898 76.3644 342.929L90.9913 329.573L109.19 144.286H82.5195L64.3209 329.573L49.694 342.929C40.9438 350.898 35.9683 362.194 35.9683 374.03V386.79C35.9683 386.79 26.9822 398.843 16.0262 407.799C6.39367 415.676 0.639648 427.349 0.639648 439.803V470.864H27.3101V439.803C27.3101 427.352 33.0642 415.679 42.6967 407.799Z" fill="white"></path> <path d="M148.088 329.894H63.1295C62.9525 329.894 62.8086 329.75 62.8086 329.573C62.8086 329.396 62.9525 329.252 63.1295 329.252H148.088C148.265 329.252 148.409 329.396 148.409 329.573C148.411 329.75 148.267 329.894 148.088 329.894Z" fill="#404040"></path> <path d="M176.11 386.429H35.1065C34.9296 386.429 34.7856 386.285 34.7856 386.108C34.7856 385.931 34.9296 385.787 35.1065 385.787H176.11C176.287 385.787 176.431 385.931 176.431 386.108C176.433 386.285 176.289 386.429 176.11 386.429Z" fill="#404040"></path> <path d="M68.8857 146.858C61.8106 146.858 56.0542 141.102 56.0542 134.026C56.0542 126.951 61.8106 121.197 68.8857 121.197H142.334C149.409 121.197 155.165 126.954 155.165 134.026C155.165 141.102 149.409 146.858 142.334 146.858H68.8857Z" fill="#CCCCCC"></path> <path d="M142.334 121.519C149.241 121.519 154.842 127.12 154.842 134.027C154.842 140.935 149.241 146.536 142.334 146.536H68.8853C61.9776 146.536 56.377 140.935 56.377 134.027C56.377 127.12 61.9776 121.519 68.8853 121.519H142.334ZM142.334 120.875H68.8853C61.6332 120.875 55.7329 126.775 55.7329 134.027C55.7329 141.28 61.6332 147.18 68.8853 147.18H142.334C149.586 147.18 155.486 141.28 155.486 134.027C155.486 126.775 149.586 120.875 142.334 120.875Z" fill="#404040"></path> <path d="M90.1204 32.0736C89.9812 32.0736 89.8514 31.9816 89.8113 31.8424C89.7617 31.6725 89.8585 31.4932 90.0307 31.4437L103.832 27.4189L103.924 27.4473L116.673 31.2951C116.843 31.347 116.939 31.5263 116.888 31.6961C116.836 31.866 116.659 31.9627 116.486 31.9108L103.83 28.0913L90.2124 32.0618C90.1794 32.0689 90.1487 32.0736 90.1204 32.0736Z" fill="#404040"></path> <path d="M79.0117 15.2012V32.442L90.121 31.1162L98.0314 28.6815L93.3791 16.9163L79.0117 15.2012Z" fill="white"></path> <path d="M231.201 252.938C231.184 252.938 231.168 252.936 231.151 252.934C231.041 252.917 230.946 252.842 230.904 252.738L226.464 241.897C226.447 241.86 226.44 241.817 226.44 241.775V238.592C224.09 237.096 222.694 234.556 222.694 231.765V230.821C222.578 230.833 222.441 230.842 222.29 230.842C221.675 230.842 220.797 230.694 220.12 229.981C219.417 229.24 219.098 228.068 219.179 226.492C219.325 223.576 220.533 222.963 221.521 222.963C221.847 222.963 222.158 223.033 222.42 223.121C221.958 221.715 221.127 218.518 221.837 215.354C222.581 212.044 229.238 210.556 233.728 210.556C235.495 210.556 237.005 210.775 237.977 211.171C241.364 212.554 241.076 220.957 240.93 223.288C241.242 223.154 241.655 223.024 242.091 223.024C243.051 223.024 244.226 223.626 244.37 226.492C244.448 228.068 244.132 229.24 243.429 229.981C242.752 230.694 241.874 230.842 241.258 230.842C241.119 230.842 240.989 230.835 240.881 230.823L240.654 241.782C240.652 241.855 240.626 241.926 240.579 241.982L231.451 252.823C231.385 252.896 231.295 252.938 231.201 252.938Z" fill="white"></path> <path d="M233.725 210.876C235.4 210.876 236.882 211.072 237.851 211.469C241.531 212.971 240.562 223.845 240.562 223.845C240.562 223.845 241.293 223.347 242.086 223.347C242.961 223.347 243.914 223.956 244.042 226.511C244.219 230.035 242.315 230.521 241.251 230.521C240.845 230.521 240.559 230.451 240.559 230.451L240.326 241.777L231.198 252.617L226.758 241.777V238.415C224.512 237.052 223.012 234.584 223.012 231.765V230.448H222.977C222.977 230.448 222.691 230.519 222.285 230.519C221.221 230.519 219.317 230.033 219.494 226.508C219.624 223.892 220.622 223.286 221.514 223.286C222.283 223.286 222.977 223.734 222.977 223.734C222.977 223.734 221.226 219.506 222.144 215.425C222.823 212.415 229.033 210.876 233.725 210.876ZM233.725 210.232C229.445 210.232 222.347 211.603 221.519 215.283C220.875 218.157 221.469 221.054 221.941 222.675C221.804 222.653 221.662 222.642 221.516 222.642C220.594 222.642 219.02 223.139 218.853 226.475C218.77 228.141 219.117 229.396 219.884 230.203C220.639 230.998 221.608 231.163 222.288 231.163C222.316 231.163 222.342 231.163 222.37 231.163V231.765C222.37 234.61 223.764 237.2 226.117 238.767V241.775C226.117 241.86 226.133 241.942 226.164 242.02C226.176 242.048 230.604 252.86 230.604 252.86C230.689 253.068 230.877 253.217 231.099 253.252C231.132 253.257 231.165 253.259 231.198 253.259C231.387 253.259 231.566 253.176 231.691 253.03L240.819 242.19C240.913 242.077 240.968 241.935 240.97 241.789L241.189 231.163C241.211 231.163 241.229 231.163 241.251 231.163C241.93 231.163 242.9 230.996 243.655 230.203C244.421 229.396 244.768 228.143 244.686 226.475C244.521 223.191 242.987 222.701 242.086 222.701C241.8 222.701 241.524 222.748 241.277 222.819C241.435 219.853 241.494 212.261 238.092 210.872C236.799 210.343 235.004 210.232 233.725 210.232Z" fill="#404040"></path> <path d="M145.023 261.077C142.343 261.077 141.248 259.985 141.248 257.302L140.323 245.112C140.312 244.969 140.396 244.836 140.531 244.787C140.569 244.773 140.606 244.766 140.644 244.766C140.743 244.766 140.84 244.813 140.901 244.895L146.858 252.881L153.2 251.801C153.219 251.798 153.235 251.796 153.254 251.796C153.322 251.796 153.388 251.817 153.445 251.857C153.516 251.909 153.563 251.987 153.575 252.072L154.79 260.707C154.802 260.799 154.776 260.893 154.714 260.964C154.653 261.035 154.563 261.075 154.471 261.075H145.023V261.077Z" fill="white"></path> <path d="M140.643 245.09L146.718 253.234L153.253 252.121L154.468 260.755H145.022C142.514 260.755 141.571 259.809 141.571 257.304L140.643 245.09ZM140.643 244.446C140.568 244.446 140.492 244.46 140.417 244.486C140.148 244.588 139.978 244.852 140.002 245.138L140.927 257.327C140.934 260.18 142.16 261.399 145.022 261.399H154.468C154.655 261.399 154.831 261.319 154.954 261.178C155.077 261.036 155.131 260.85 155.105 260.666L153.89 252.031C153.867 251.859 153.772 251.703 153.633 251.602C153.522 251.521 153.388 251.477 153.253 251.477C153.218 251.477 153.18 251.479 153.145 251.486L146.999 252.534L141.16 244.706C141.035 244.538 140.842 244.446 140.643 244.446Z" fill="#404040"></path> <path d="M244.827 464.019L247.151 470.865H229.497L230.891 464.019H244.827Z" fill="#404040"></path> <path d="M239.603 224.297C239.577 224.297 239.549 224.295 239.523 224.287C239.386 224.252 239.289 224.132 239.282 223.993L238.845 215.136C237.237 215.844 234.814 216.259 232.221 216.259C229.27 216.259 226.462 215.717 224.254 214.728C224.115 216.037 223.796 220.442 223.593 223.452C223.584 223.575 223.506 223.683 223.391 223.731C223.353 223.745 223.313 223.754 223.273 223.754C223.192 223.754 223.114 223.724 223.053 223.669C223.048 223.665 222.39 223.08 221.173 222.969C221.015 222.954 220.892 222.827 220.88 222.669C220.878 222.622 220.557 217.868 220.557 215.422C220.557 214.336 220.666 213.287 220.869 212.44C219.939 211.612 219.229 210.819 218.927 210.382C218.861 210.286 218.851 210.161 218.901 210.057C218.953 209.951 219.057 209.882 219.175 209.878C220.968 209.79 222.506 208.84 224.134 207.832C225.096 207.238 226.092 206.62 227.151 206.195C229.376 205.298 230.86 204.871 233.268 204.853C234.38 204.853 236.309 205.195 237.354 205.685C239.164 206.535 240.183 207.787 240.235 209.224C240.844 210.026 242.443 212.923 242.58 216.835C242.66 219.135 242.224 222.542 242.207 222.686C242.186 222.848 242.047 222.966 241.889 222.966C241.877 222.966 241.865 222.966 241.853 222.964C241.802 222.959 241.75 222.957 241.698 222.957C240.629 222.957 239.884 224.134 239.876 224.146C239.815 224.243 239.711 224.297 239.603 224.297Z" fill="white"></path> <path d="M233.302 205.173C234.314 205.173 236.204 205.501 237.218 205.975C238.568 206.608 239.896 207.698 239.915 209.304C239.915 209.304 239.915 209.307 239.915 209.309C239.915 209.307 239.915 209.307 239.915 209.304C239.964 209.323 242.099 212.307 242.257 216.844C242.338 219.144 241.887 222.643 241.887 222.643C241.823 222.636 241.76 222.634 241.698 222.634C240.438 222.634 239.603 223.974 239.603 223.974L239.143 214.634C237.65 215.424 235.059 215.936 232.221 215.936C229.449 215.936 226.444 215.448 224 214.254C223.868 214.598 223.271 223.431 223.271 223.431C223.271 223.431 222.558 222.77 221.199 222.645C221.199 222.645 220.878 217.882 220.878 215.422C220.878 214.277 221.001 213.185 221.228 212.329C220.267 211.489 219.501 210.647 219.189 210.201C222.178 210.057 224.497 207.61 227.272 206.494C229.466 205.612 230.907 205.192 233.271 205.176C233.281 205.173 233.292 205.173 233.302 205.173ZM233.302 204.529H233.267C230.808 204.546 229.296 204.982 227.031 205.893C225.946 206.329 224.939 206.952 223.964 207.556C222.372 208.54 220.867 209.472 219.159 209.554C218.925 209.566 218.715 209.703 218.611 209.913C218.508 210.123 218.526 210.373 218.661 210.566C218.958 210.993 219.63 211.751 220.51 212.55C220.331 213.386 220.234 214.388 220.234 215.419C220.234 217.875 220.546 222.492 220.558 222.688C220.579 223.004 220.827 223.256 221.14 223.285C222.237 223.386 222.813 223.884 222.837 223.905C222.957 224.011 223.113 224.07 223.268 224.07C223.351 224.07 223.431 224.054 223.509 224.023C223.735 223.931 223.894 223.719 223.91 223.473C224.087 220.857 224.372 216.889 224.528 215.197C226.71 216.094 229.402 216.58 232.217 216.58C234.63 216.58 236.907 216.221 238.542 215.603L238.955 224.007C238.969 224.287 239.164 224.528 239.436 224.599C239.49 224.613 239.544 224.62 239.599 224.62C239.818 224.62 240.026 224.509 240.146 224.316C240.151 224.309 240.814 223.278 241.693 223.278C241.734 223.278 241.774 223.28 241.814 223.285C241.837 223.287 241.861 223.289 241.882 223.289C242.203 223.289 242.479 223.051 242.519 222.728C242.538 222.584 242.977 219.149 242.894 216.823C242.809 214.369 242.161 212.371 241.632 211.128C241.625 211.111 241.057 209.781 240.545 209.092C240.438 207.58 239.36 206.273 237.487 205.393C236.409 204.886 234.413 204.529 233.302 204.529Z" fill="#404040"></path> <path d="M227.827 224.069C227.827 224.545 227.588 224.932 227.293 224.932C226.999 224.932 226.76 224.545 226.76 224.069C226.76 223.592 226.999 223.205 227.293 223.205C227.588 223.205 227.827 223.592 227.827 224.069Z" fill="#404040"></path> <path d="M236.334 224.069C236.334 224.545 236.096 224.932 235.801 224.932C235.506 224.932 235.268 224.545 235.268 224.069C235.268 223.592 235.506 223.205 235.801 223.205C236.096 223.205 236.334 223.592 236.334 224.069Z" fill="#404040"></path> <path d="M231.826 239.68H229.978C228.494 239.68 227.046 239.276 225.784 238.51C225.633 238.418 225.583 238.219 225.675 238.066C225.767 237.915 225.965 237.865 226.119 237.957C227.279 238.663 228.612 239.033 229.978 239.033H231.826C232.003 239.033 232.146 239.177 232.146 239.354C232.146 239.536 232.003 239.68 231.826 239.68Z" fill="#404040"></path> <path d="M222.686 231.179C222.509 231.179 222.365 231.035 222.365 230.858V228.957C222.365 228.78 222.509 228.636 222.686 228.636C222.863 228.636 223.007 228.78 223.007 228.957V230.858C223.007 231.035 222.863 231.179 222.686 231.179Z" fill="#404040"></path> <path d="M234.102 221.727C234.027 221.727 233.954 221.701 233.892 221.649C233.758 221.533 233.741 221.33 233.857 221.196C234.298 220.679 235.534 219.941 237.046 220.837C237.2 220.929 237.249 221.125 237.16 221.279C237.07 221.432 236.872 221.481 236.719 221.392C235.291 220.543 234.385 221.571 234.348 221.614C234.284 221.687 234.192 221.727 234.102 221.727Z" fill="#404040"></path> <path d="M228.86 221.652C228.766 221.652 228.671 221.611 228.61 221.531C227.577 220.25 226.359 220.885 226.307 220.913C226.149 220.998 225.956 220.939 225.871 220.786C225.786 220.63 225.843 220.437 225.996 220.349C226.591 220.021 228.006 219.759 229.11 221.128C229.221 221.267 229.2 221.47 229.061 221.581C229.002 221.628 228.931 221.652 228.86 221.652Z" fill="#404040"></path> <path d="M243.133 227.598C242.966 227.598 242.824 227.468 242.812 227.296C242.699 225.538 242.274 225.109 242.098 225.007C241.932 224.913 241.791 224.977 241.777 224.984C241.621 225.061 241.425 225 241.345 224.844C241.265 224.689 241.319 224.5 241.472 224.415C241.638 224.325 242.017 224.226 242.4 224.436C243.008 224.771 243.355 225.694 243.456 227.253C243.468 227.43 243.334 227.583 243.157 227.595C243.147 227.595 243.14 227.598 243.133 227.598Z" fill="#404040"></path> <path d="M241.704 228.631C241.692 228.631 241.678 228.631 241.664 228.629C241.487 228.607 241.362 228.447 241.383 228.27C241.638 226.192 242.584 225.352 242.624 225.316C242.759 225.201 242.961 225.215 243.079 225.349C243.195 225.484 243.181 225.684 243.049 225.802C243.03 225.819 242.244 226.55 242.023 228.348C242.001 228.513 241.864 228.631 241.704 228.631Z" fill="#404040"></path> <path d="M220.407 227.596C220.4 227.596 220.393 227.596 220.386 227.596C220.209 227.584 220.075 227.431 220.087 227.254C220.188 225.692 220.535 224.772 221.144 224.437C221.523 224.227 221.906 224.326 222.071 224.416C222.226 224.501 222.283 224.697 222.198 224.853C222.113 225.006 221.922 225.065 221.766 224.982C221.747 224.973 221.606 224.911 221.446 225.006C221.269 225.11 220.844 225.537 220.731 227.294C220.719 227.464 220.577 227.596 220.407 227.596Z" fill="#404040"></path> <path d="M221.84 228.631C221.679 228.631 221.54 228.511 221.521 228.348C221.299 226.539 220.504 225.807 220.495 225.8C220.363 225.682 220.351 225.479 220.467 225.347C220.584 225.215 220.785 225.199 220.917 225.317C220.957 225.352 221.903 226.192 222.158 228.27C222.179 228.447 222.054 228.608 221.877 228.629C221.866 228.631 221.851 228.631 221.84 228.631Z" fill="#404040"></path> <path d="M231.973 230.227H230.296C230.195 230.227 230.1 230.18 230.039 230.1C229.978 230.019 229.959 229.913 229.987 229.817L230.77 227.101C230.82 226.931 230.997 226.83 231.169 226.882C231.341 226.931 231.438 227.111 231.388 227.28L230.725 229.583H231.976C232.153 229.583 232.299 229.727 232.299 229.906C232.297 230.083 232.153 230.227 231.973 230.227Z" fill="#404040"></path> <path d="M229.29 234.188C231.543 234.417 233.609 233.678 234.555 233.266C234.813 233.155 235.093 233.365 235.058 233.643C234.978 234.287 234.744 235.294 234.088 236.066C233.734 235.931 232.685 235.639 231.687 235.844C231.113 235.962 230.712 236.332 230.448 236.689C229.677 236.163 229.179 235.283 228.919 234.698C228.806 234.44 229.011 234.16 229.29 234.188Z" fill="#404040"></path> <path d="M225.774 464.342C225.599 464.342 225.458 464.206 225.453 464.031L224.448 431.576L194.899 397.12C194.843 397.056 194.817 396.971 194.824 396.886L200.144 327.527C200.156 327.359 200.297 327.229 200.465 327.229H249.708C249.885 327.229 250.029 327.373 250.029 327.55L250.531 426.159L254.679 431.25C254.768 431.361 254.775 431.519 254.693 431.637L250.59 437.53L250.725 464.019C250.725 464.104 250.692 464.187 250.63 464.248C250.569 464.309 250.489 464.342 250.401 464.342H225.774Z" fill="#7C95FA"></path> <path d="M200.463 327.55H249.706L250.208 426.275L254.427 431.453L250.265 437.431L250.399 464.021H225.772L224.762 431.453L195.141 396.91L200.463 327.55ZM200.463 326.906C200.125 326.906 199.847 327.166 199.821 327.501L194.501 396.861C194.487 397.03 194.544 397.2 194.655 397.33L224.13 431.698L225.133 464.04C225.145 464.387 225.428 464.666 225.777 464.666H250.404C250.576 464.666 250.739 464.597 250.862 464.477C250.982 464.356 251.051 464.191 251.048 464.019L250.914 437.632L254.96 431.821C255.125 431.585 255.113 431.269 254.931 431.047L250.857 426.046L250.355 327.55C250.352 327.196 250.064 326.909 249.711 326.909L200.463 326.906Z" fill="#404040"></path> <path d="M250.425 426.413C250.333 426.413 250.244 426.375 250.18 426.299L224.415 395.991C224.366 395.932 224.34 395.859 224.34 395.783V349.827C224.34 349.65 224.484 349.506 224.661 349.506C224.838 349.506 224.982 349.65 224.982 349.827V395.665L250.668 425.882C250.784 426.016 250.767 426.222 250.631 426.335C250.572 426.389 250.498 426.413 250.425 426.413Z" fill="#404040"></path> <path d="M242.581 449.471C242.498 449.471 242.418 449.438 242.357 449.379L224.191 431.73C224.064 431.605 224.061 431.402 224.184 431.275C224.309 431.148 224.512 431.145 224.639 431.268L242.531 448.65L250.338 437.272C250.439 437.126 250.637 437.088 250.786 437.19C250.932 437.291 250.97 437.492 250.869 437.638L242.847 449.332C242.793 449.41 242.708 449.462 242.614 449.471C242.602 449.471 242.59 449.471 242.581 449.471Z" fill="#404040"></path> <path d="M227.991 350.151H221.121C220.944 350.151 220.8 350.007 220.8 349.83C220.8 349.653 220.944 349.509 221.121 349.509H227.991C228.168 349.509 228.312 349.653 228.312 349.83C228.312 350.007 228.168 350.151 227.991 350.151Z" fill="#404040"></path> <path d="M246.14 449.986L249.476 470.865L261.159 445.365L250.132 441.271L246.14 449.986Z" fill="#404040"></path> <path d="M243.586 448.25L248.927 440.465L249.75 441.333L245.99 449.541L243.586 448.25Z" fill="white"></path> <path d="M248.968 440.974L249.366 441.396L245.839 449.092L244.053 448.134L248.968 440.974ZM248.89 439.952L243.119 448.363L246.141 449.983L250.133 441.269L248.89 439.952Z" fill="#404040"></path> <path d="M200.461 327.872C200.376 327.872 200.294 327.839 200.232 327.778C200.171 327.717 200.138 327.634 200.138 327.549C200.14 327.073 200.485 280.307 201.61 266.831C196.29 267.503 190.508 267.846 184.419 267.846C164.132 267.846 146.5 264.054 146.325 264.017C146.162 263.981 146.051 263.826 146.075 263.658L147.771 251.145C147.792 250.987 147.927 250.869 148.085 250.867C190.017 250.225 225.869 241.555 226.226 241.468C226.251 241.461 226.277 241.458 226.301 241.458C226.426 241.458 226.542 241.531 226.594 241.647L231.284 252.027L240.456 241.364C240.517 241.293 240.607 241.253 240.699 241.253C240.72 241.253 240.742 241.255 240.76 241.26C252.252 243.527 262.028 248.545 269.033 255.769C276.651 263.627 280.678 273.92 280.678 285.539C280.678 299.164 272.333 305.977 265.334 309.292C258.629 312.467 251.844 313.12 250.35 313.229L250.025 327.561C250.02 327.736 249.879 327.875 249.704 327.875H200.461V327.872ZM250.391 300.787C252.108 300.56 262.368 298.541 262.368 283.756C262.368 274.951 258.898 269.813 252.049 268.475L250.391 300.787Z" fill="white"></path> <path d="M240.703 241.571C262.768 245.924 280.358 261.008 280.358 285.534C280.358 311.582 250.04 312.922 250.04 312.922L249.708 327.549H200.465C200.465 327.549 200.807 279.518 201.97 266.458C196.1 267.222 190.148 267.519 184.422 267.519C163.935 267.519 146.397 263.698 146.397 263.698L148.093 251.184C190.551 250.536 226.307 241.776 226.307 241.776L231.205 252.616L240.703 241.571ZM250.151 301.135C251.425 301.135 262.693 299.163 262.693 283.758C262.693 272.014 256.502 268.918 251.751 268.095L250.057 301.1C250.007 301.121 250.045 301.135 250.151 301.135ZM240.703 240.927C240.516 240.927 240.337 241.007 240.214 241.151L231.372 251.43L226.892 241.512C226.786 241.278 226.555 241.132 226.305 241.132C226.253 241.132 226.203 241.139 226.151 241.151C225.795 241.238 189.973 249.901 148.082 250.54C147.763 250.545 147.497 250.783 147.454 251.097L145.758 263.61C145.713 263.943 145.93 264.254 146.258 264.325C146.435 264.363 164.1 268.161 184.42 268.161C190.375 268.161 196.034 267.836 201.26 267.194C200.16 281.177 199.823 327.07 199.818 327.542C199.816 327.714 199.884 327.879 200.005 327.999C200.125 328.122 200.29 328.19 200.462 328.19H249.705C250.055 328.19 250.342 327.912 250.349 327.56L250.668 313.523C252.628 313.365 259.005 312.641 265.472 309.576C269.968 307.446 273.554 304.624 276.133 301.187C279.363 296.884 281 291.616 281 285.532C281 273.828 276.942 263.455 269.265 255.537C262.216 248.266 252.381 243.218 240.825 240.936C240.785 240.931 240.743 240.927 240.703 240.927ZM250.734 300.428L252.355 268.869C258.788 270.282 262.049 275.288 262.049 283.758C262.049 290.028 260.18 294.728 256.493 297.724C254.233 299.562 251.866 300.236 250.734 300.428Z" fill="#404040"></path> <path d="M249.677 300.598C253.255 301.068 253.114 312.498 248.933 312.498H243.441C242.347 312.498 241.457 311.611 241.457 310.514C241.457 309.419 242.344 308.53 243.441 308.53L247.235 308.374L241.247 308.53C240.153 308.53 239.263 307.643 239.263 306.546C239.263 305.451 240.15 304.562 241.247 304.562H247.483H242.578C241.483 304.562 240.594 303.675 240.594 302.578C240.594 301.483 241.481 300.594 242.578 300.594H249.677V300.598Z" fill="white"></path> <path d="M248.934 312.822H243.442C242.171 312.822 241.137 311.788 241.137 310.517C241.137 309.856 241.416 309.259 241.862 308.839L241.258 308.856C239.979 308.856 238.943 307.823 238.943 306.551C238.943 305.364 239.845 304.385 240.998 304.26C240.552 303.84 240.274 303.243 240.274 302.585C240.274 301.314 241.307 300.28 242.579 300.28H249.675C249.689 300.28 249.704 300.28 249.718 300.283C251.829 300.561 252.726 303.925 252.516 307.105C252.346 309.741 251.305 312.822 248.934 312.822ZM247.238 308.056C247.41 308.056 247.554 308.193 247.559 308.368C247.564 308.544 247.427 308.693 247.25 308.7L243.454 308.856C242.525 308.856 241.779 309.601 241.779 310.517C241.779 311.432 242.525 312.178 243.44 312.178H248.932C250.732 312.178 251.707 309.608 251.874 307.061C252.06 304.222 251.279 301.158 249.654 300.92H242.579C241.663 300.92 240.918 301.665 240.918 302.58C240.918 303.496 241.663 304.241 242.579 304.241H247.484C247.66 304.241 247.804 304.385 247.804 304.562C247.804 304.739 247.66 304.883 247.484 304.883H241.248C240.333 304.883 239.587 305.629 239.587 306.544C239.587 307.459 240.333 308.205 241.248 308.205L247.226 308.049C247.231 308.056 247.233 308.056 247.238 308.056Z" fill="#404040"></path> <path d="M201.555 267.188C201.411 267.188 201.281 267.092 201.243 266.945C201.198 266.773 201.305 266.598 201.477 266.554L207.849 264.935C208.019 264.893 208.196 264.997 208.24 265.169C208.285 265.341 208.179 265.516 208.007 265.56L201.632 267.179C201.609 267.184 201.581 267.188 201.555 267.188Z" fill="#404040"></path> <path d="M219.189 210.198C221.969 210.064 224.278 208.679 226.859 207.641C228.897 206.82 230.24 206.431 232.436 206.414C233.37 206.407 235.154 206.714 236.107 207.16C237.688 207.903 238.721 209.196 238.959 210.477C240.875 212.645 240.776 215.58 240.792 217.266C240.814 219.406 240.854 222.841 240.854 222.841C240.087 223.204 239.601 223.976 239.601 223.976L239.141 214.636C235.616 216.386 228.857 216.592 223.997 214.256C223.875 214.577 223.268 223.433 223.268 223.433C223.268 223.433 222.473 222.777 221.211 222.662C221.211 222.662 220.935 218.224 220.881 215.933C220.855 214.869 220.928 213.35 221.225 212.329C220.513 211.715 219.73 210.972 219.189 210.198Z" fill="#C9C9C9"></path> <path d="M224.125 214.998C224.078 214.998 224.028 214.988 223.983 214.965C223.035 214.502 221.641 213.556 220.737 212.768C220.603 212.65 220.591 212.447 220.707 212.313C220.825 212.178 221.027 212.167 221.162 212.282C222.014 213.028 223.377 213.95 224.264 214.384C224.425 214.462 224.491 214.656 224.413 214.816C224.359 214.932 224.245 214.998 224.125 214.998Z" fill="#404040"></path> <path d="M240.231 209.077C240.236 209.495 240.151 209.945 239.958 210.431L240.231 209.077Z" fill="white"></path> <path d="M239.961 210.757C239.92 210.757 239.88 210.75 239.843 210.733C239.677 210.667 239.597 210.481 239.663 210.316C239.833 209.889 239.918 209.474 239.913 209.084C239.911 208.907 240.055 208.761 240.232 208.759H240.234C240.411 208.759 240.555 208.9 240.555 209.077C240.56 209.551 240.461 210.049 240.26 210.554C240.208 210.679 240.088 210.757 239.961 210.757Z" fill="#404040"></path> </svg> 