<?xml version="1.0" encoding="UTF-8"?> <svg xmlns="http://www.w3.org/2000/svg" width="364" height="51" viewBox="0 0 364 51" fill="none"> <path d="M9.97 40.414C8.55933 40.414 7.21 40 5.922 39.172C5.33933 38.804 4.97133 38.3287 4.818 37.746C4.69533 37.1633 4.80267 36.6113 5.14 36.09C5.47733 35.538 5.95267 35.216 6.566 35.124C7.17933 35.0013 7.82333 35.124 8.498 35.492C8.71267 35.6147 8.958 35.722 9.234 35.814C9.51 35.8753 9.75533 35.906 9.97 35.906C10.798 35.906 11.6413 35.5227 12.5 34.756C13.3893 33.9587 14.1713 32.8547 14.846 31.444L27.496 5.5C28.1707 4.15066 29.1673 3.76733 30.486 4.35C31.8047 4.93266 32.1267 5.914 31.452 7.294L18.802 33.284C17.698 35.5227 16.3947 37.2707 14.892 38.528C13.3893 39.7853 11.7487 40.414 9.97 40.414ZM16.686 32.732L1.322 7.524C0.586 6.26667 0.877333 5.25467 2.196 4.488C3.484 3.752 4.51133 4.028 5.278 5.316L19.676 30.386L16.686 32.732ZM45.0748 32.456C42.8668 32.456 41.0422 31.95 39.6008 30.938C38.1595 29.926 37.0862 28.546 36.3808 26.798C35.7062 25.0193 35.3688 22.98 35.3688 20.68V17.184C35.3688 16.4787 35.5835 15.9113 36.0128 15.482C36.4728 15.0527 37.0402 14.838 37.7148 14.838C38.4202 14.838 38.9875 15.0527 39.4168 15.482C39.8462 15.9113 40.0608 16.4787 40.0608 17.184V20.68C40.0608 22.888 40.4902 24.6973 41.3488 26.108C42.2382 27.5187 43.7868 28.224 45.9948 28.224C47.7428 28.224 49.1688 27.9327 50.2728 27.35C51.4075 26.7673 51.9748 26.016 51.9748 25.096H54.4128C54.4128 26.5373 54.0142 27.81 53.2168 28.914C52.4195 30.018 51.3155 30.892 49.9048 31.536C48.5248 32.1493 46.9148 32.456 45.0748 32.456ZM54.3208 40C53.6462 40 53.0788 39.7853 52.6188 39.356C52.1895 38.896 51.9748 38.3287 51.9748 37.654V17.184C51.9748 16.4787 52.1895 15.9113 52.6188 15.482C53.0788 15.0527 53.6462 14.838 54.3208 14.838C55.0262 14.838 55.5935 15.0527 56.0228 15.482C56.4522 15.9113 56.6668 16.4787 56.6668 17.184V37.654C56.6668 38.3287 56.4522 38.896 56.0228 39.356C55.5935 39.7853 55.0262 40 54.3208 40ZM75.511 40.23C73.395 40.23 71.4937 39.7853 69.807 38.896C68.151 37.976 66.8323 36.642 65.851 34.894C64.9003 33.146 64.425 30.9993 64.425 28.454V17.138C64.425 16.4633 64.6397 15.9113 65.069 15.482C65.529 15.022 66.0963 14.792 66.771 14.792C67.4457 14.792 67.9977 15.022 68.427 15.482C68.887 15.9113 69.117 16.4633 69.117 17.138V28.454C69.117 30.1713 69.439 31.5973 70.083 32.732C70.727 33.836 71.601 34.664 72.705 35.216C73.809 35.7373 75.051 35.998 76.431 35.998C77.7497 35.998 78.915 35.7373 79.927 35.216C80.9697 34.6947 81.7977 33.9893 82.411 33.1C83.0243 32.2107 83.331 31.214 83.331 30.11H86.229C86.229 32.0113 85.7537 33.7287 84.803 35.262C83.883 36.7953 82.6103 38.0067 80.985 38.896C79.3903 39.7853 77.5657 40.23 75.511 40.23ZM85.677 40C85.0024 40 84.435 39.7853 83.975 39.356C83.5457 38.896 83.331 38.3287 83.331 37.654V17.138C83.331 16.4327 83.5457 15.8653 83.975 15.436C84.435 15.0067 85.0024 14.792 85.677 14.792C86.3823 14.792 86.9497 15.0067 87.379 15.436C87.8083 15.8653 88.023 16.4327 88.023 17.138V37.654C88.023 38.3287 87.8083 38.896 87.379 39.356C86.9497 39.7853 86.3823 40 85.677 40ZM129.314 40.046C128.64 40.046 128.072 39.8313 127.612 39.402C127.183 38.942 126.968 38.3747 126.968 37.7V24.544C126.968 22.612 126.493 21.186 125.542 20.266C124.592 19.3153 123.35 18.84 121.816 18.84C120.222 18.84 118.903 19.392 117.86 20.496C116.848 21.6 116.342 23.0107 116.342 24.728H112.524C112.524 22.7347 112.954 20.9867 113.812 19.484C114.671 17.9507 115.867 16.7547 117.4 15.896C118.964 15.0373 120.743 14.608 122.736 14.608C124.484 14.608 126.033 14.9913 127.382 15.758C128.732 16.5247 129.774 17.6593 130.51 19.162C131.277 20.634 131.66 22.428 131.66 24.544V37.7C131.66 38.3747 131.446 38.942 131.016 39.402C130.587 39.8313 130.02 40.046 129.314 40.046ZM98.6325 40.046C97.9578 40.046 97.3905 39.8313 96.9305 39.402C96.5012 38.942 96.2865 38.3747 96.2865 37.7V17.23C96.2865 16.5247 96.5012 15.9573 96.9305 15.528C97.3905 15.0987 97.9578 14.884 98.6325 14.884C99.3378 14.884 99.9052 15.0987 100.334 15.528C100.764 15.9573 100.978 16.5247 100.978 17.23V37.7C100.978 38.3747 100.764 38.942 100.334 39.402C99.9052 39.8313 99.3378 40.046 98.6325 40.046ZM113.996 40.046C113.322 40.046 112.754 39.8313 112.294 39.402C111.865 38.942 111.65 38.3747 111.65 37.7V24.544C111.65 22.612 111.175 21.186 110.224 20.266C109.274 19.3153 108.032 18.84 106.498 18.84C104.904 18.84 103.585 19.392 102.542 20.496C101.5 21.6 100.978 23.0107 100.978 24.728H98.0805C98.0805 22.7347 98.4792 20.9867 99.2765 19.484C100.074 17.9507 101.178 16.7547 102.588 15.896C103.999 15.0373 105.609 14.608 107.418 14.608C109.166 14.608 110.715 14.9913 112.064 15.758C113.414 16.5247 114.456 17.6593 115.192 19.162C115.959 20.634 116.342 22.428 116.342 24.544V37.7C116.342 38.3747 116.128 38.942 115.698 39.402C115.269 39.8313 114.702 40.046 113.996 40.046ZM151.278 40.184C148.733 40.184 146.464 39.6473 144.47 38.574C142.508 37.47 140.959 35.9673 139.824 34.066C138.72 32.134 138.168 29.926 138.168 27.442C138.168 24.9273 138.69 22.7193 139.732 20.818C140.806 18.886 142.278 17.3833 144.148 16.31C146.019 15.206 148.166 14.654 150.588 14.654C152.98 14.654 155.035 15.1907 156.752 16.264C158.47 17.3067 159.773 18.7633 160.662 20.634C161.582 22.474 162.042 24.6053 162.042 27.028C162.042 27.6107 161.843 28.1013 161.444 28.5C161.046 28.868 160.54 29.052 159.926 29.052H141.388V25.372H159.788L157.902 26.66C157.872 25.1267 157.565 23.762 156.982 22.566C156.4 21.3393 155.572 20.3733 154.498 19.668C153.425 18.9627 152.122 18.61 150.588 18.61C148.84 18.61 147.338 18.9933 146.08 19.76C144.854 20.5267 143.918 21.5847 143.274 22.934C142.63 24.2527 142.308 25.7553 142.308 27.442C142.308 29.1287 142.692 30.6313 143.458 31.95C144.225 33.2687 145.283 34.3113 146.632 35.078C147.982 35.8447 149.53 36.228 151.278 36.228C152.229 36.228 153.195 36.0593 154.176 35.722C155.188 35.354 156.001 34.94 156.614 34.48C157.074 34.1427 157.565 33.974 158.086 33.974C158.638 33.9433 159.114 34.0967 159.512 34.434C160.034 34.894 160.31 35.4 160.34 35.952C160.371 36.504 160.126 36.9793 159.604 37.378C158.562 38.206 157.258 38.8807 155.694 39.402C154.161 39.9233 152.689 40.184 151.278 40.184ZM178.536 40.184C176.083 40.184 173.89 39.632 171.958 38.528C170.057 37.3933 168.554 35.8753 167.45 33.974C166.377 32.042 165.84 29.8647 165.84 27.442C165.84 24.958 166.377 22.75 167.45 20.818C168.524 18.886 169.996 17.3833 171.866 16.31C173.737 15.206 175.884 14.654 178.306 14.654C180.116 14.654 181.772 15.0067 183.274 15.712C184.777 16.3867 186.126 17.414 187.322 18.794C187.752 19.2847 187.905 19.7907 187.782 20.312C187.66 20.8333 187.322 21.2933 186.77 21.692C186.341 21.9987 185.866 22.106 185.344 22.014C184.823 21.8913 184.348 21.6153 183.918 21.186C182.416 19.5913 180.545 18.794 178.306 18.794C176.742 18.794 175.362 19.162 174.166 19.898C172.97 20.6033 172.035 21.6 171.36 22.888C170.686 24.176 170.348 25.694 170.348 27.442C170.348 29.098 170.686 30.57 171.36 31.858C172.066 33.146 173.032 34.1733 174.258 34.94C175.485 35.676 176.911 36.044 178.536 36.044C179.61 36.044 180.545 35.9213 181.342 35.676C182.17 35.4 182.922 34.986 183.596 34.434C184.087 34.0353 184.593 33.8207 185.114 33.79C185.636 33.7287 186.096 33.8667 186.494 34.204C187.016 34.6333 187.307 35.124 187.368 35.676C187.43 36.1973 187.246 36.6727 186.816 37.102C184.608 39.1567 181.848 40.184 178.536 40.184ZM206.117 40.414C203.817 40.414 201.809 40 200.091 39.172C198.405 38.344 197.086 37.1787 196.135 35.676C195.215 34.1427 194.755 32.3487 194.755 30.294V17.138C194.817 16.494 195.062 15.9573 195.491 15.528C195.951 15.068 196.488 14.838 197.101 14.838C197.776 14.838 198.328 15.068 198.757 15.528C199.217 15.9573 199.447 16.5093 199.447 17.184V22.336H206.991C208.985 22.336 210.763 22.6887 212.327 23.394C213.922 24.0687 215.179 25.0653 216.099 26.384C217.019 27.672 217.479 29.2207 217.479 31.03C217.479 32.8393 217.004 34.4493 216.053 35.86C215.133 37.2707 213.83 38.39 212.143 39.218C210.457 40.0153 208.448 40.414 206.117 40.414ZM206.071 36.09C208.034 36.09 209.675 35.676 210.993 34.848C212.312 33.9893 212.971 32.7167 212.971 31.03C212.971 29.4353 212.404 28.2547 211.269 27.488C210.135 26.6907 208.709 26.292 206.991 26.292H199.447V30.202C199.447 31.306 199.739 32.3027 200.321 33.192C200.904 34.0813 201.686 34.7867 202.667 35.308C203.679 35.8293 204.814 36.09 206.071 36.09ZM247.649 40.184C245.349 40.184 243.31 39.6473 241.531 38.574C239.783 37.47 238.403 35.9673 237.391 34.066C236.379 32.134 235.873 29.926 235.873 27.442C235.873 24.9273 236.41 22.7193 237.483 20.818C238.587 18.886 240.09 17.3833 241.991 16.31C243.893 15.206 246.085 14.654 248.569 14.654C251.023 14.654 253.2 15.206 255.101 16.31C257.003 17.3833 258.49 18.886 259.563 20.818C260.667 22.7193 261.219 24.9273 261.219 27.442H258.505C258.505 29.926 258.03 32.134 257.079 34.066C256.159 35.9673 254.887 37.47 253.261 38.574C251.636 39.6473 249.765 40.184 247.649 40.184ZM248.477 50.442C246.3 50.442 244.261 50.0127 242.359 49.154C240.458 48.2953 238.848 47.038 237.529 45.382C237.131 44.8607 236.977 44.324 237.069 43.772C237.192 43.22 237.499 42.7753 237.989 42.438C238.541 42.07 239.109 41.9473 239.691 42.07C240.305 42.1927 240.795 42.4993 241.163 42.99C241.991 44.0327 243.034 44.8453 244.291 45.428C245.549 46.0107 246.975 46.302 248.569 46.302C250.041 46.302 251.391 45.9493 252.617 45.244C253.875 44.5387 254.871 43.496 255.607 42.116C256.343 40.736 256.711 39.0493 256.711 37.056V30.524L258.229 26.476L261.219 27.442V37.378C261.219 39.8007 260.683 41.9933 259.609 43.956C258.536 45.9493 257.033 47.5287 255.101 48.694C253.2 49.8593 250.992 50.442 248.477 50.442ZM248.569 36.044C250.164 36.044 251.575 35.676 252.801 34.94C254.028 34.204 254.979 33.192 255.653 31.904C256.359 30.616 256.711 29.1287 256.711 27.442C256.711 25.7553 256.359 24.268 255.653 22.98C254.979 21.6613 254.028 20.634 252.801 19.898C251.575 19.162 250.164 18.794 248.569 18.794C246.975 18.794 245.564 19.162 244.337 19.898C243.111 20.634 242.145 21.6613 241.439 22.98C240.734 24.268 240.381 25.7553 240.381 27.442C240.381 29.1287 240.734 30.616 241.439 31.904C242.145 33.192 243.111 34.204 244.337 34.94C245.564 35.676 246.975 36.044 248.569 36.044ZM279.611 40.184C277.127 40.184 274.934 39.6473 273.033 38.574C271.131 37.47 269.629 35.9673 268.525 34.066C267.451 32.134 266.915 29.926 266.915 27.442C266.915 24.9273 267.451 22.7193 268.525 20.818C269.629 18.886 271.131 17.3833 273.033 16.31C274.934 15.206 277.127 14.654 279.611 14.654C282.064 14.654 284.241 15.206 286.143 16.31C288.044 17.3833 289.531 18.886 290.605 20.818C291.709 22.7193 292.261 24.9273 292.261 27.442C292.261 29.926 291.724 32.134 290.651 34.066C289.577 35.9673 288.09 37.47 286.189 38.574C284.287 39.6473 282.095 40.184 279.611 40.184ZM279.611 36.044C281.205 36.044 282.616 35.676 283.843 34.94C285.069 34.204 286.02 33.192 286.695 31.904C287.4 30.616 287.753 29.1287 287.753 27.442C287.753 25.7553 287.4 24.268 286.695 22.98C286.02 21.6613 285.069 20.634 283.843 19.898C282.616 19.162 281.205 18.794 279.611 18.794C278.016 18.794 276.605 19.162 275.379 19.898C274.152 20.634 273.186 21.6613 272.481 22.98C271.775 24.268 271.423 25.7553 271.423 27.442C271.423 29.1287 271.775 30.616 272.481 31.904C273.186 33.192 274.152 34.204 275.379 34.94C276.605 35.676 278.016 36.044 279.611 36.044ZM301.59 40C300.915 40 300.348 39.7853 299.888 39.356C299.458 38.896 299.244 38.3287 299.244 37.654V17.184C299.244 16.4787 299.458 15.9113 299.888 15.482C300.348 15.0527 300.915 14.838 301.59 14.838C302.571 14.838 303.399 15.3133 304.074 16.264L313.596 30.018L323.118 16.264C323.792 15.3133 324.62 14.838 325.602 14.838C326.307 14.838 326.874 15.0527 327.304 15.482C327.733 15.9113 327.948 16.4787 327.948 17.184V37.654C327.948 38.3287 327.733 38.896 327.304 39.356C326.874 39.7853 326.307 40 325.602 40C324.927 40 324.36 39.7853 323.9 39.356C323.47 38.896 323.256 38.3287 323.256 37.654V20.91L324.452 21.278L315.988 33.238C315.221 34.3113 314.393 34.848 313.504 34.848C312.614 34.8173 311.802 34.2807 311.066 33.238L302.74 21.278L303.936 20.91V37.654C303.936 38.3287 303.721 38.896 303.292 39.356C302.862 39.7853 302.295 40 301.59 40ZM346.702 40.184C344.464 40.184 342.455 39.632 340.676 38.528C338.898 37.3933 337.487 35.8753 336.444 33.974C335.432 32.042 334.926 29.8647 334.926 27.442C334.926 25.0193 335.478 22.842 336.582 20.91C337.717 18.978 339.235 17.46 341.136 16.356C343.068 15.2213 345.23 14.654 347.622 14.654C350.014 14.654 352.161 15.2213 354.062 16.356C355.964 17.46 357.466 18.978 358.57 20.91C359.705 22.842 360.272 25.0193 360.272 27.442H358.478C358.478 29.8647 357.957 32.042 356.914 33.974C355.902 35.8753 354.507 37.3933 352.728 38.528C350.95 39.632 348.941 40.184 346.702 40.184ZM347.622 36.044C349.186 36.044 350.582 35.676 351.808 34.94C353.035 34.1733 354.001 33.146 354.706 31.858C355.412 30.5393 355.764 29.0673 355.764 27.442C355.764 25.786 355.412 24.314 354.706 23.026C354.001 21.7073 353.035 20.68 351.808 19.944C350.582 19.1773 349.186 18.794 347.622 18.794C346.089 18.794 344.694 19.1773 343.436 19.944C342.21 20.68 341.228 21.7073 340.492 23.026C339.787 24.314 339.434 25.786 339.434 27.442C339.434 29.0673 339.787 30.5393 340.492 31.858C341.228 33.146 342.21 34.1733 343.436 34.94C344.694 35.676 346.089 36.044 347.622 36.044ZM357.926 40.046C357.252 40.046 356.684 39.8313 356.224 39.402C355.795 38.942 355.58 38.3747 355.58 37.7V30.662L356.454 25.786L360.272 27.442V37.7C360.272 38.3747 360.042 38.942 359.582 39.402C359.153 39.8313 358.601 40.046 357.926 40.046Z" fill="black"></path> <path d="M262.334 9.39173L250.355 2.18262C249.944 1.93387 249.437 1.93951 249.03 2.19789L237.642 9.40759C237.017 9.80285 236.814 10.6587 237.186 11.3198C237.559 11.9813 238.368 12.1977 238.991 11.802L249.722 5.00949L261.034 11.8175C261.239 11.9409 261.462 12 261.682 12C262.14 12 262.586 11.7457 262.828 11.2933C263.187 10.6237 262.966 9.7724 262.334 9.39173Z" fill="#36BEC6"></path> </svg> 