<?xml version="1.0" encoding="UTF-8"?> <svg xmlns="http://www.w3.org/2000/svg" width="581" height="480" viewBox="0 0 581 480" fill="none"> <path d="M279.24 249.069L279.24 249.07C279.499 249.329 279.837 249.458 280.177 249.458C280.516 249.458 280.854 249.328 281.113 249.069C281.63 248.552 281.63 247.714 281.113 247.196L211.783 177.866C211.265 177.349 210.427 177.349 209.91 177.866C209.393 178.384 209.393 179.222 209.91 179.739L279.24 249.069Z" stroke="#404040"></path> <path d="M219.08 214.355C218.563 213.837 217.725 213.837 217.207 214.355C216.69 214.872 216.69 215.71 217.207 216.227L242.75 241.77C243.009 242.029 243.347 242.158 243.686 242.158C244.026 242.158 244.364 242.029 244.623 241.77C245.14 241.253 245.14 240.415 244.623 239.897L219.08 214.355Z" stroke="#404040"></path> <path d="M248.272 185.164C247.755 184.647 246.917 184.647 246.4 185.164C245.883 185.682 245.882 186.519 246.4 187.037C246.4 187.037 246.4 187.037 246.4 187.037L271.942 212.58C272.201 212.839 272.539 212.968 272.879 212.968C273.218 212.968 273.556 212.839 273.815 212.58C274.332 212.063 274.332 211.225 273.815 210.707L248.272 185.164Z" stroke="#404040"></path> <path d="M245.4 151.436H245.436C246.444 151.436 247.242 152.252 247.242 153.26C247.242 154.269 246.406 155.085 245.4 155.085C244.391 155.085 243.575 154.269 243.575 153.26C243.575 152.252 244.392 151.436 245.4 151.436Z" fill="#404040"></path> <path d="M337.533 153.255H154.346C153.162 153.255 152.237 154.278 152.356 155.456L152.588 157.748V222.563L152.285 280.827L227.356 281.767L228.202 285.622L263.272 284.682L266.992 281.767H338.533V157.118V154.255C338.533 153.703 338.085 153.255 337.533 153.255Z" stroke="#6C75F4" stroke-width="6"></path> <path d="M338.143 153.014H152.452C152.348 153.014 152.321 153.157 152.417 153.195V155.815L152.114 158.169L227.16 158.207L228.006 158.363L263.064 158.325L266.782 158.207H338.299V153.17C338.299 153.084 338.229 153.014 338.143 153.014Z" fill="#6C75F4"></path> <path d="M155.297 270.481L155.297 155.679C155.297 155.614 155.208 155.597 155.184 155.657L153.551 155.657L152.083 155.469L152.059 201.866L151.962 202.389L151.986 224.064L152.059 226.363L152.059 270.578L155.2 270.578C155.253 270.578 155.297 270.535 155.297 270.481Z" fill="#6C75F4"></path> <path d="M339.711 270.124L155.93 270.124L152.891 269.892L150.54 278.175V285.344H227.356L228.202 285.621H265.152L266.991 285.311H339.711V270.379V270.124Z" fill="#6C75F4"></path> <path d="M340.381 282.762V153.259C340.381 152.254 339.563 151.435 338.556 151.435H152.459C151.454 151.435 150.634 152.254 150.634 153.259V283.42" stroke="#404040" stroke-width="2"></path> <path d="M353.151 301.043H137.875" stroke="#404040" stroke-width="2"></path> <path d="M159.757 280.473H152.459C151.727 280.473 151.135 281.065 151.135 281.797C151.135 282.529 151.727 283.122 152.459 283.122H159.757C160.49 283.122 161.082 282.529 161.082 281.797C161.082 281.065 160.49 280.473 159.757 280.473Z" fill="white" stroke="#404040"></path> <path d="M353.152 281.473H345.854C345.122 281.473 344.53 282.065 344.53 282.797C344.53 283.53 345.122 284.122 345.854 284.122H353.152C353.884 284.122 354.477 283.529 354.477 282.797C354.477 282.065 353.884 281.473 353.152 281.473Z" fill="white" stroke="#404040"></path> <path d="M338.556 280.473H331.258C330.526 280.473 329.934 281.065 329.934 281.797C329.934 282.529 330.526 283.122 331.258 283.122H338.556C339.289 283.122 339.881 282.529 339.881 281.797C339.881 281.065 339.289 280.473 338.556 280.473Z" fill="white" stroke="#404040"></path> <path d="M323.959 280.473H316.662C315.929 280.473 315.337 281.065 315.337 281.797C315.337 282.529 315.929 283.122 316.662 283.122H323.959C324.692 283.122 325.284 282.529 325.284 281.797C325.284 281.065 324.692 280.473 323.959 280.473Z" fill="white" stroke="#404040"></path> <path d="M309.366 280.473H302.068C301.336 280.473 300.743 281.065 300.743 281.797C300.743 282.529 301.335 283.122 302.068 283.122H309.366C310.098 283.122 310.69 282.529 310.69 281.797C310.69 281.065 310.098 280.473 309.366 280.473Z" fill="white" stroke="#404040"></path> <path d="M294.768 280.473H287.47C286.738 280.473 286.146 281.065 286.146 281.797C286.146 282.529 286.738 283.122 287.47 283.122H294.768C295.501 283.122 296.093 282.529 296.093 281.797C296.093 281.065 295.501 280.473 294.768 280.473Z" fill="white" stroke="#404040"></path> <path d="M272.874 280.473H280.171C280.904 280.473 281.496 281.065 281.496 281.797C281.496 282.529 280.904 283.122 280.171 283.122H272.874C272.141 283.122 271.549 282.53 271.549 281.797L272.874 280.473ZM272.874 280.473C272.141 280.473 271.549 281.065 271.549 281.797L272.874 280.473Z" fill="white" stroke="#404040"></path> <path d="M218.141 280.473H210.843C210.11 280.473 209.519 281.065 209.519 281.797C209.519 282.53 210.11 283.122 210.843 283.122H218.141C218.873 283.122 219.465 282.53 219.465 281.797C219.465 281.065 218.873 280.473 218.141 280.473Z" fill="white" stroke="#404040"></path> <path d="M203.545 280.473H196.247C195.515 280.473 194.922 281.065 194.922 281.797C194.922 282.529 195.515 283.122 196.247 283.122H203.545C204.277 283.122 204.869 282.529 204.869 281.797C204.869 281.065 204.277 280.473 203.545 280.473Z" fill="white" stroke="#404040"></path> <path d="M188.95 280.473H181.652C180.92 280.473 180.328 281.065 180.328 281.797C180.328 282.529 180.92 283.122 181.652 283.122H188.95C189.682 283.122 190.274 282.529 190.274 281.797C190.274 281.065 189.682 280.473 188.95 280.473Z" fill="white" stroke="#404040"></path> <path d="M174.353 280.473H167.055C166.323 280.473 165.731 281.065 165.731 281.797C165.731 282.529 166.323 283.122 167.055 283.122H174.353C175.085 283.122 175.678 282.529 175.678 281.797C175.678 281.065 175.086 280.473 174.353 280.473Z" fill="white" stroke="#404040"></path> <path d="M145.161 280.473H137.863C137.131 280.473 136.539 281.065 136.539 281.797C136.539 282.529 137.131 283.122 137.863 283.122H145.161C145.893 283.122 146.485 282.53 146.485 281.797C146.485 281.065 145.893 280.473 145.161 280.473Z" fill="white" stroke="#404040"></path> <path d="M360.451 293.744C361.459 293.744 362.275 292.928 362.275 291.919V284.622C362.275 283.613 361.459 282.797 360.451 282.797H265.578C264.569 282.797 263.753 283.613 263.753 284.622V286.446H227.264V284.622C227.264 283.613 226.448 282.797 225.439 282.797H131.826C130.817 282.797 130.001 283.613 130.001 284.622V291.919" stroke="#404040" stroke-width="2"></path> <path d="M156.201 269.517H336.272V158.116H156.201V269.517Z" stroke="#404040" stroke-width="2"></path> <path d="M362.274 291.92C362.274 296.952 358.182 301.042 353.152 301.042" stroke="#404040"></path> <path d="M227.021 283.747L227.336 286.267H263.561C263.561 286.267 265.124 282.499 265.754 282.499L357.893 282.725C360.442 282.731 362.596 284.656 362.63 287.204C362.679 290.953 362.311 295.211 360.859 296.953C357.07 301.5 352.706 301.177 350.501 301.072H137.875C132.835 301.072 130.525 295.822 130 293.197V284.062L131.26 282.802H225.446L227.021 283.747Z" fill="#404040"></path> <path d="M138.296 301.073C133.373 301.073 130.001 296.884 130.001 291.671" stroke="#404040" stroke-width="2"></path> <path d="M543.506 301.03H1.00293V383.938H543.506V301.03Z" fill="white"></path> <path d="M542.503 302.034V382.935H2.00622V302.034H542.503ZM544.509 300.027H0V384.941H544.509V300.027V300.027Z" fill="#404040"></path> <path d="M0.000976562 408.366L544.51 408.366V384.941L0.000976562 384.941V408.366Z" fill="#404040"></path> <path d="M499.963 424.177H525.34V408.365H499.963V424.177Z" fill="#404040"></path> <path d="M19.1709 424.177H44.5479V408.365H19.1709L19.1709 424.177Z" fill="#404040"></path> <path d="M272.255 385.945C271.701 385.945 271.252 385.496 271.252 384.941V301.313C271.252 300.758 271.701 300.31 272.255 300.31C272.809 300.31 273.258 300.758 273.258 301.313V384.941C273.258 385.496 272.809 385.945 272.255 385.945Z" fill="#404040"></path> <path d="M408.901 336.292C412.315 336.292 415.093 339.07 415.093 342.484C415.093 345.898 412.315 348.677 408.901 348.677C405.487 348.677 402.709 345.898 402.709 342.484C402.713 339.07 405.487 336.292 408.901 336.292ZM408.901 334.286C404.372 334.286 400.703 337.959 400.703 342.484C400.703 347.014 404.372 350.683 408.901 350.683C413.431 350.683 417.1 347.01 417.1 342.484C417.103 337.955 413.431 334.286 408.901 334.286Z" fill="#404040"></path> <path d="M134.831 336.292C138.245 336.292 141.023 339.07 141.023 342.484C141.023 345.898 138.245 348.677 134.831 348.677C131.417 348.677 128.639 345.898 128.639 342.484C128.642 339.07 131.417 336.292 134.831 336.292ZM134.831 334.286C130.302 334.286 126.633 337.959 126.633 342.484C126.633 347.014 130.302 350.683 134.831 350.683C139.36 350.683 143.029 347.01 143.029 342.484C143.033 337.955 139.36 334.286 134.831 334.286Z" fill="#404040"></path> <path d="M14.8965 231.14V282.893C14.8965 292.697 22.8432 300.64 32.643 300.64H56.6055C66.4088 300.64 74.352 292.693 74.352 282.893V231.14H14.8965Z" fill="#6C75F4"></path> <path d="M57.4492 301.324H31.8069C22.1091 301.324 14.2168 293.432 14.2168 283.734V231.14C14.2168 230.763 14.5228 230.46 14.8969 230.46H74.3558C74.7333 230.46 75.0359 230.766 75.0359 231.14V283.734C75.0393 293.432 67.147 301.324 57.4492 301.324ZM15.5804 231.82V283.734C15.5804 292.68 22.8606 299.96 31.8069 299.96H57.4492C66.3955 299.96 73.6757 292.68 73.6757 283.734V231.82H15.5804Z" fill="#404040"></path> <path d="M26.1224 138.456C25.6735 136.229 25.6157 133.863 26.0305 131.424C27.3601 123.583 33.6542 117.347 41.509 116.092C53.3152 114.202 63.5061 123.27 63.5061 134.719C63.5061 135.352 63.4755 135.974 63.4143 136.59C62.5574 145.288 64.312 154.003 68.8073 161.501C71.5888 166.139 73.0713 171.641 72.7585 177.51C72.041 190.931 60.0411 203.138 46.6334 204.067C30.1688 205.206 16.4551 192.186 16.4551 175.966C16.4551 170.141 18.2233 164.731 21.2496 160.239C25.5749 153.819 27.6525 146.036 26.1224 138.456Z" fill="#E6E6E6"></path> <path d="M44.6023 204.81C37.2643 204.81 30.3514 202.097 24.9482 197.054C19.1199 191.613 15.7773 183.925 15.7773 175.955C15.7773 170.184 17.4775 164.614 20.6909 159.847C25.1862 153.182 26.8796 145.63 25.4582 138.588C24.9788 136.211 24.9448 133.759 25.363 131.308C26.7504 123.116 33.1975 116.727 41.406 115.414C47.1492 114.493 52.9502 116.101 57.3197 119.825C61.6892 123.552 64.1953 128.979 64.1953 134.715C64.1953 135.361 64.1647 136.011 64.1001 136.653C63.233 145.447 65.0658 153.913 69.4013 161.146C72.3596 166.077 73.7571 171.748 73.4477 177.543C72.7098 191.331 60.4549 203.787 46.6902 204.742C45.9829 204.787 45.2926 204.81 44.6023 204.81ZM26.7878 138.319C28.2805 145.722 26.5157 153.641 21.8164 160.612C18.7561 165.152 17.1375 170.46 17.1375 175.958C17.1375 183.551 20.3236 190.879 25.8765 196.061C31.5075 201.315 38.8659 203.913 46.5847 203.382C59.7 202.474 71.3735 190.607 72.0774 177.471C72.3732 171.949 71.0402 166.546 68.2247 161.85C63.7362 154.366 61.8388 145.61 62.7365 136.524C62.7943 135.929 62.8249 135.324 62.8249 134.722C62.8249 129.383 60.4923 124.337 56.4288 120.869C52.3654 117.404 46.9622 115.908 41.6168 116.768C34.1054 117.972 27.9745 124.045 26.7028 131.542C26.3117 133.824 26.3423 136.106 26.7878 138.319Z" fill="#404040"></path> <path d="M44.6264 231.82C44.2489 231.82 43.9463 231.514 43.9463 231.14V151.418C43.9463 151.041 44.2523 150.738 44.6264 150.738C45.0038 150.738 45.3064 151.044 45.3064 151.418V231.14C45.3098 231.514 45.0038 231.82 44.6264 231.82Z" fill="#404040"></path> <path d="M376.572 288.963H463.866V285.318H376.572V288.963Z" fill="#6C75F4"></path> <path d="M463.869 289.534H376.575C376.258 289.534 376 289.279 376 288.959V285.314C376 284.998 376.255 284.739 376.575 284.739H463.869C464.185 284.739 464.444 284.994 464.444 285.314V288.959C464.44 289.279 464.185 289.534 463.869 289.534ZM377.146 288.388H463.294V285.889H377.146V288.388Z" fill="#404040"></path> <path d="M376.572 301.315H463.866V297.657H376.572V301.315Z" fill="#6C75F4"></path> <path d="M463.869 301.888H376.575C376.258 301.888 376 301.633 376 301.314V297.655C376 297.339 376.255 297.08 376.575 297.08H463.869C464.185 297.08 464.444 297.335 464.444 297.655V301.314C464.44 301.63 464.185 301.888 463.869 301.888ZM377.146 300.742H463.294V298.229H377.146V300.742Z" fill="#404040"></path> <path d="M411.326 288.408H377.146V298.293H411.326V288.408Z" fill="white"></path> <path d="M410.755 288.98V297.719H377.72V288.98H410.755ZM411.901 287.834H376.574V298.868H411.901V287.834V287.834Z" fill="#404040"></path> <path d="M464.079 288.408H411.01V298.293H464.079V288.408Z" fill="white"></path> <path d="M463.509 288.98V297.719H411.585V288.98H463.509ZM464.655 287.834H410.436V298.868H464.655V287.834Z" fill="#404040"></path> <path d="M464.05 291.596H411.381C411.065 291.596 410.807 291.341 410.807 291.021C410.807 290.705 411.062 290.446 411.381 290.446H464.05C464.366 290.446 464.624 290.701 464.624 291.021C464.624 291.341 464.369 291.596 464.05 291.596Z" fill="#404040"></path> <path d="M446.807 293.952H417.829C417.512 293.952 417.254 293.697 417.254 293.377C417.254 293.061 417.509 292.803 417.829 292.803H446.807C447.123 292.803 447.381 293.058 447.381 293.377C447.378 293.694 447.123 293.952 446.807 293.952Z" fill="#404040"></path> <path d="M463.87 296.305H437.547C437.231 296.305 436.973 296.05 436.973 295.73C436.973 295.414 437.228 295.155 437.547 295.155H463.87C464.186 295.155 464.444 295.41 464.444 295.73C464.441 296.05 464.186 296.305 463.87 296.305Z" fill="#404040"></path> <path d="M410.504 296.305H390.295C389.979 296.305 389.721 296.05 389.721 295.73C389.721 295.414 389.976 295.155 390.295 295.155H410.504C410.82 295.155 411.078 295.41 411.078 295.73C411.078 296.05 410.82 296.305 410.504 296.305Z" fill="#404040"></path> <path d="M397.103 293.799H377.272C376.956 293.799 376.697 293.544 376.697 293.224C376.697 292.908 376.952 292.649 377.272 292.649H397.103C397.419 292.649 397.678 292.904 397.678 293.224C397.674 293.544 397.419 293.799 397.103 293.799Z" fill="#404040"></path> <path d="M417.016 279.259H382.21V285.318H417.016V279.259Z" fill="white"></path> <path d="M417.018 285.888H382.211C381.895 285.888 381.637 285.633 381.637 285.314V279.254C381.637 278.938 381.892 278.68 382.211 278.68H417.018C417.334 278.68 417.592 278.935 417.592 279.254V285.314C417.589 285.633 417.334 285.888 417.018 285.888ZM382.783 284.743H416.443V279.832H382.783V284.743Z" fill="#404040"></path> <path d="M470.23 279.259H417.827V285.318H470.23V279.259Z" fill="#6C75F4"></path> <path d="M470.227 285.888H417.824C417.507 285.888 417.249 285.633 417.249 285.314V279.254C417.249 278.938 417.504 278.68 417.824 278.68H470.227C470.543 278.68 470.802 278.935 470.802 279.254V285.314C470.802 285.633 470.543 285.888 470.227 285.888ZM418.398 284.743H469.652V279.832H418.398V284.743Z" fill="#404040"></path> <path d="M408.953 281.639H382.209C381.893 281.639 381.635 281.384 381.635 281.064C381.635 280.748 381.89 280.489 382.209 280.489H408.953C409.27 280.489 409.528 280.744 409.528 281.064C409.528 281.38 409.27 281.639 408.953 281.639Z" fill="#404040"></path> <path d="M412.465 283.783H398.313C397.997 283.783 397.738 283.528 397.738 283.208C397.738 282.892 397.993 282.634 398.313 282.634H412.465C412.782 282.634 413.04 282.889 413.04 283.208C413.04 283.528 412.785 283.783 412.465 283.783Z" fill="#404040"></path> <path d="M499.077 320.555L497.635 444.393H516.184C521.362 444.393 525.559 448.59 525.559 453.768H519.568C520.65 454.806 521.323 456.266 521.319 457.886C521.31 460.91 518.821 463.468 515.802 463.555C512.579 463.651 509.937 461.066 509.937 457.869C509.937 456.257 510.611 454.802 511.688 453.768H497.635V458.329C498.378 459.407 498.76 460.749 498.603 462.191C498.317 464.802 496.197 466.922 493.586 467.209C490.158 467.582 487.257 464.906 487.257 461.553C487.257 460.358 487.626 459.246 488.26 458.329V453.768H475.323C475.797 454.719 476.023 455.814 475.884 456.978C475.575 459.593 473.438 461.705 470.818 461.965C467.412 462.304 464.545 459.641 464.545 456.305C464.545 455.393 464.767 454.533 465.149 453.768H454.94L458.081 450.214C461.352 446.513 466.053 444.393 470.992 444.393H488.264L489.707 320.555H499.077Z" fill="#404040"></path> <path d="M427.284 349.232C413.687 349.232 413.687 342.182 413.687 332.425V332.077C413.687 326.152 418.469 321.334 424.351 321.334H440.316C440.577 321.334 440.803 321.156 440.864 320.904L466.994 212.318C468.605 205.615 474.548 200.932 481.442 200.932H565.562C570.206 200.932 574.498 203.043 577.335 206.722C580.172 210.402 581.119 215.089 579.933 219.581L549.094 336.56C547.052 344.015 540.218 349.228 532.482 349.228L427.284 349.232Z" fill="#CCCCCC"></path> <path d="M565.566 201.497C570.036 201.497 574.167 203.53 576.896 207.071C579.624 210.611 580.536 215.12 579.398 219.443L548.563 336.413C546.582 343.633 539.975 348.673 532.49 348.673H427.292C414.255 348.673 414.255 342.208 414.255 332.43V332.082C414.255 329.345 415.306 326.787 417.213 324.867C419.116 322.955 421.653 321.9 424.355 321.9H440.32C440.841 321.9 441.289 321.543 441.41 321.039L467.54 212.453C469.091 206.002 474.808 201.497 481.446 201.497H565.566ZM565.566 200.372H481.446C474.317 200.372 468.118 205.255 466.45 212.188L440.32 320.774C440.32 320.774 438.643 320.774 424.355 320.774C418.152 320.774 413.13 325.801 413.13 332.078V332.425C413.13 342.017 413.13 349.793 427.287 349.793H532.485C540.5 349.793 547.525 344.437 549.645 336.704L580.484 219.725C583.056 209.947 575.679 200.372 565.566 200.372Z" fill="#404040"></path> <path d="M536.146 317.759H505.941C505.633 317.759 505.381 317.508 505.381 317.199C505.381 316.891 505.633 316.639 505.941 316.639H536.146C536.454 316.639 536.706 316.891 536.706 317.199C536.711 317.508 536.459 317.759 536.146 317.759Z" fill="#404040"></path> <path d="M505.707 291.862C505.746 268.052 505.742 220.814 505.229 193.181L470.245 195.153C470.245 195.153 456.37 201.213 456.244 240.111C456.201 253.247 465.05 299.013 465.05 299.013" fill="white"></path> <path d="M465.055 299.572C464.79 299.572 464.555 299.386 464.503 299.116C464.416 298.66 455.646 253.147 455.685 240.105C455.811 201.29 469.443 194.892 470.02 194.635C470.081 194.609 470.146 194.592 470.216 194.587L505.199 192.615C505.343 192.607 505.499 192.659 505.612 192.763C505.725 192.867 505.79 193.011 505.79 193.163C506.294 220.47 506.307 266.718 506.268 291.853C506.268 292.161 506.016 292.413 505.708 292.413C505.399 292.413 505.147 292.161 505.147 291.853C505.186 266.896 505.178 221.135 504.682 193.766L470.398 195.7C469.291 196.286 456.932 203.675 456.814 240.105C456.771 253.038 465.524 298.443 465.611 298.899C465.672 299.203 465.472 299.499 465.168 299.555C465.125 299.572 465.09 299.572 465.055 299.572Z" fill="#404040"></path> <path d="M494.146 194.098L493.056 174.61C493.056 174.61 502.135 177.077 502.127 168.71C502.118 160.344 493.63 162.859 493.63 162.859C493.63 162.859 499.816 147.911 494.594 143.293C489.372 138.675 470.21 136.008 465.818 141.738C461.426 147.468 460.306 159.006 460.306 159.006L459.902 173.719C459.854 175.526 460.088 177.338 460.675 179.049C461.739 182.142 464.167 186.3 469.68 188.12L469.498 196.752L478.746 208.968L494.146 194.098Z" fill="white"></path> <path d="M478.747 209.528C478.734 209.528 478.717 209.528 478.704 209.528C478.543 209.515 478.396 209.436 478.3 209.306L469.051 197.09C468.973 196.99 468.934 196.864 468.938 196.738L469.112 188.515C463.682 186.564 461.241 182.411 460.146 179.232C459.559 177.52 459.286 175.661 459.342 173.706L459.746 158.992C459.794 158.475 460.936 147.189 465.376 141.398C466.762 139.591 469.573 138.436 473.5 138.058C481.059 137.328 491.298 139.626 494.973 142.875C499.686 147.046 495.842 158.61 494.539 162.094C495.959 161.864 498.505 161.716 500.399 163.132C501.919 164.266 502.688 166.143 502.692 168.719C502.697 171.204 501.932 173.045 500.429 174.197C498.231 175.878 495.09 175.574 493.661 175.317L494.712 194.071C494.721 194.236 494.66 194.393 494.543 194.506L479.138 209.376C479.03 209.471 478.891 209.528 478.747 209.528ZM470.064 196.569L478.813 208.124L493.574 193.871L492.497 174.64C492.488 174.462 492.566 174.288 492.705 174.171C492.844 174.058 493.031 174.019 493.205 174.066C493.244 174.079 497.327 175.148 499.747 173.293C500.959 172.363 501.572 170.821 501.567 168.71C501.567 166.512 500.946 164.935 499.73 164.027C497.475 162.341 493.83 163.384 493.791 163.393C493.583 163.454 493.361 163.388 493.214 163.228C493.07 163.067 493.031 162.837 493.114 162.637C493.174 162.489 499.087 148.01 494.226 143.705C490.807 140.677 480.785 138.47 473.604 139.165C469.994 139.513 467.457 140.521 466.267 142.072C462.018 147.61 460.876 158.936 460.867 159.053L460.463 173.727C460.411 175.548 460.663 177.277 461.206 178.858C462.244 181.873 464.586 185.835 469.855 187.577C470.09 187.655 470.246 187.876 470.242 188.12L470.064 196.569Z" fill="#404040"></path> <path d="M460.506 149.25C460.766 143.894 464.228 139.211 469.315 137.343C474.741 135.349 483.43 134.424 493.334 138.611C498.486 140.788 501.64 146.001 501.367 151.527L500.745 164.216C498.339 161.475 493.634 162.865 493.634 162.865C483.629 156.987 482.322 149.641 482.322 149.641C482.322 149.641 470.649 159.489 459.463 158.938L460.506 149.25Z" fill="#404040"></path> <path d="M478.756 161.047C478.622 161.047 478.483 160.999 478.374 160.899C476.228 158.905 474.343 160.513 474.134 160.7C473.904 160.908 473.552 160.895 473.343 160.665C473.135 160.439 473.148 160.083 473.374 159.874C474.334 158.984 476.775 157.88 479.138 160.074C479.364 160.287 479.377 160.639 479.169 160.869C479.056 160.986 478.908 161.047 478.756 161.047Z" fill="#404040"></path> <path d="M461.834 160.772C461.682 160.772 461.534 160.711 461.421 160.594C461.208 160.368 461.222 160.012 461.447 159.799C463.281 158.092 465.296 158.921 466.104 159.603C466.339 159.803 466.374 160.159 466.174 160.394C465.974 160.633 465.622 160.659 465.383 160.463C465.218 160.329 463.741 159.195 462.212 160.62C462.112 160.724 461.973 160.772 461.834 160.772Z" fill="#404040"></path> <path d="M475.476 189.423C472.243 189.423 469.489 188.615 469.337 188.567C469.042 188.48 468.872 188.167 468.959 187.868C469.046 187.572 469.359 187.403 469.659 187.49C469.707 187.503 474.468 188.901 478.625 187.98C478.929 187.911 479.229 188.106 479.294 188.406C479.359 188.71 479.168 189.01 478.868 189.075C477.734 189.327 476.579 189.423 475.476 189.423Z" fill="#404040"></path> <path d="M499.964 170.095C499.946 170.095 499.929 170.095 499.912 170.091C499.603 170.065 499.373 169.791 499.403 169.483C499.534 168.014 499.256 166.876 498.578 166.107C497.692 165.104 496.423 165.047 496.41 165.047C496.102 165.034 495.859 164.774 495.872 164.465C495.88 164.157 496.15 163.901 496.454 163.927C496.528 163.931 498.222 164.005 499.421 165.365C500.311 166.377 500.685 167.793 500.524 169.583C500.494 169.874 500.251 170.095 499.964 170.095Z" fill="#404040"></path> <path d="M494.92 169.792C494.82 169.792 494.72 169.766 494.629 169.71C494.364 169.549 494.282 169.201 494.442 168.936C495.898 166.56 498.995 165.618 499.125 165.578C499.425 165.492 499.734 165.661 499.825 165.956C499.912 166.252 499.747 166.565 499.447 166.656C499.421 166.664 496.623 167.52 495.398 169.523C495.294 169.697 495.111 169.792 494.92 169.792Z" fill="#404040"></path> <path d="M469.72 175.613C469.368 175.613 469.017 175.509 468.73 175.313C468.1 174.883 467.735 174.075 467.761 173.158C467.778 172.568 467.935 172.02 468.087 171.495L468.178 171.169C468.808 168.879 468.812 166.455 468.195 164.166C468.113 163.866 468.291 163.558 468.591 163.48C468.891 163.401 469.199 163.575 469.277 163.875C469.946 166.36 469.937 168.984 469.255 171.469L469.16 171.807C469.021 172.29 468.891 172.746 468.878 173.193C468.869 173.606 468.986 174.14 469.36 174.392C469.503 174.492 469.725 174.522 469.907 174.47C469.981 174.449 470.107 174.396 470.159 174.279C470.285 173.997 470.615 173.866 470.898 173.992C471.18 174.118 471.31 174.449 471.184 174.731C471.011 175.131 470.663 175.417 470.211 175.548C470.055 175.591 469.885 175.613 469.72 175.613Z" fill="#404040"></path> <path d="M446.209 300.826C443.542 306.569 440.792 318.489 443.472 326.1L461.848 285.948C462.039 285.426 452.36 287.59 446.209 300.826Z" fill="#6C75F4"></path> <path d="M443.472 326.659C443.464 326.659 443.455 326.659 443.446 326.659C443.216 326.65 443.021 326.503 442.942 326.286C440.214 318.527 442.912 306.589 445.701 300.59C451.691 287.697 460.966 284.942 462.035 285.381C462.313 285.498 462.482 285.863 462.378 286.146L443.985 326.338C443.889 326.533 443.69 326.659 443.472 326.659ZM446.717 301.059C444.25 306.372 441.735 317.106 443.581 324.504L460.94 286.58C458.538 287.275 451.522 290.72 446.717 301.059Z" fill="#404040"></path> <path d="M509.984 316.377C508.02 324.822 487.963 329.188 487.963 329.188L487.121 340.687L477.907 466.576L478.119 476.355L466.551 474.891L466.799 466.576L457.224 373.729L421.394 441.68L418.739 449.56L407.375 446.919L410.976 437.822L453.853 290.447C457.25 281.255 465.326 275.395 473.484 275.395C475.426 275.395 477.377 275.733 479.266 276.428C479.94 276.676 480.587 276.971 481.217 277.297C481.217 277.297 495.961 282.762 500.692 285.017C509.058 288.996 514.297 297.828 509.984 316.377Z" fill="white"></path> <path d="M478.122 476.912C478.101 476.912 478.074 476.912 478.053 476.907L466.484 475.443C466.198 475.409 465.985 475.161 465.993 474.87L466.241 466.594L456.858 375.628L421.913 441.898L419.272 449.735C419.181 450.008 418.894 450.169 418.612 450.104L407.247 447.463C407.087 447.424 406.952 447.319 406.878 447.176C406.804 447.033 406.796 446.859 406.852 446.707L410.453 437.61L453.313 290.283C456.736 281.021 464.838 274.826 473.483 274.826C475.529 274.826 477.536 275.187 479.46 275.895C480.086 276.125 480.733 276.412 481.441 276.772C482.214 277.059 496.337 282.311 500.933 284.496C511.116 289.349 514.348 300.113 510.534 316.5C508.649 324.61 491.472 328.946 488.496 329.636L478.47 466.607L478.683 476.329C478.687 476.495 478.617 476.651 478.496 476.76C478.392 476.859 478.257 476.912 478.122 476.912ZM467.127 474.392L477.544 475.708L477.345 466.581L487.401 329.141C487.419 328.893 487.601 328.685 487.844 328.633C488.04 328.589 507.575 324.25 509.435 316.243C513.11 300.444 510.086 290.105 500.442 285.508C495.785 283.293 481.159 277.863 481.011 277.811C480.989 277.802 480.968 277.793 480.95 277.785C480.273 277.437 479.66 277.163 479.065 276.946C477.266 276.281 475.385 275.943 473.474 275.943C465.294 275.943 457.618 281.846 454.368 290.63L411.505 437.971L408.129 446.511L418.36 448.887L420.853 441.489C420.862 441.463 420.875 441.433 420.888 441.407L456.719 373.456C456.836 373.239 457.079 373.121 457.322 373.165C457.566 373.212 457.748 373.412 457.774 373.66L467.349 466.507C467.353 466.533 467.353 466.555 467.353 466.581L467.127 474.392Z" fill="#404040"></path> <path d="M457.219 374.288C457.137 374.288 457.05 374.27 456.967 374.227C456.689 374.088 456.581 373.749 456.72 373.471L488.845 309.751L492.676 298.044C492.772 297.748 493.089 297.592 493.384 297.683C493.68 297.779 493.84 298.096 493.745 298.391L489.9 310.138C489.891 310.164 489.878 310.19 489.87 310.216L457.727 373.975C457.623 374.175 457.428 374.288 457.219 374.288Z" fill="#404040"></path> <path d="M466.792 464.587L460.267 479.548H487.765L477.904 465.295C477.904 465.295 476.118 471.333 472.973 471.333C468.655 471.338 466.792 464.587 466.792 464.587Z" fill="#404040"></path> <path d="M422.079 439.81L423.004 456.105L397.213 446.561L411.41 436.617C411.41 436.617 410.988 442.899 413.938 443.989C417.991 445.492 422.079 439.81 422.079 439.81Z" fill="#404040"></path> <path d="M465.655 162.667C465.685 163.497 465.299 164.187 464.782 164.209C464.269 164.231 463.826 163.571 463.796 162.741C463.765 161.911 464.152 161.22 464.669 161.199C465.181 161.181 465.624 161.837 465.655 162.667Z" fill="#404040"></path> <path d="M478.088 162.768C478.032 163.598 477.571 164.241 477.059 164.206C476.546 164.171 476.177 163.467 476.233 162.637C476.29 161.808 476.75 161.165 477.263 161.2C477.775 161.239 478.145 161.938 478.088 162.768Z" fill="#404040"></path> <path d="M500.687 285.008C500.687 285.008 502.659 289.817 501.76 295.677L508.433 305.934L499.757 301.681C497.846 305.217 494.453 308.692 488.649 311.385L487.963 329.183C487.963 329.183 508.346 331.872 513.389 318.362C520.913 298.223 509.058 288.996 500.687 285.008Z" fill="#6C75F4"></path> <path d="M491.925 329.949C489.54 329.949 487.946 329.753 487.89 329.745C487.603 329.706 487.39 329.458 487.403 329.167L488.089 311.369C488.098 311.16 488.224 310.969 488.415 310.882C493.493 308.524 497.143 305.339 499.262 301.421C499.406 301.156 499.732 301.047 500.005 301.182L506.852 304.54L501.291 295.991C501.217 295.873 501.187 295.734 501.209 295.6C502.073 289.974 500.192 285.274 500.17 285.226C500.084 285.013 500.136 284.765 500.305 284.605C500.474 284.448 500.722 284.405 500.931 284.505C510.887 289.249 521.222 299.006 513.92 318.563C510.184 328.559 498.255 329.949 491.925 329.949ZM488.545 328.68C491.691 328.971 508.472 329.927 512.864 318.168C519.576 300.2 510.779 290.86 501.652 286.116C502.186 287.941 502.929 291.468 502.347 295.552L508.902 305.63C509.041 305.843 509.019 306.121 508.85 306.308C508.681 306.499 508.407 306.551 508.181 306.438L499.984 302.42C497.764 306.26 494.136 309.397 489.197 311.751L488.545 328.68Z" fill="#404040"></path> <path d="M500.25 217.112C498.925 231.856 501.193 242.534 501.193 242.534L447.743 249.723C444.063 248.129 440.64 247.959 438.824 248.016C438.12 248.038 437.421 248.129 436.73 248.281L428.945 249.979C427.629 250.266 426.795 251.565 427.082 252.881C427.369 254.198 428.667 255.032 429.984 254.745L435.879 253.459L436.917 258.229L432.056 259.289C430.74 259.576 429.905 260.875 430.192 262.191C430.479 263.507 431.726 263.968 433.042 263.681L449.311 263.477L505.381 264.906C511.619 265.132 517.24 261.114 518.995 255.123C536.198 196.364 503.226 187.628 503.226 187.628" fill="white"></path> <path d="M505.89 265.471C505.716 265.471 505.543 265.466 505.364 265.462L449.303 264.033L433.113 264.237C432.344 264.393 431.597 264.324 430.997 264.042C430.302 263.711 429.824 263.095 429.65 262.308C429.481 261.526 429.624 260.723 430.059 260.049C430.493 259.376 431.162 258.907 431.944 258.737L436.258 257.799L435.459 254.128L430.111 255.292C429.325 255.462 428.525 255.318 427.852 254.884C427.179 254.45 426.709 253.781 426.54 252.999C426.371 252.217 426.514 251.413 426.948 250.74C427.383 250.066 428.052 249.602 428.834 249.428L436.618 247.729C437.357 247.568 438.095 247.473 438.817 247.456C440.585 247.403 444.073 247.555 447.831 249.15L500.542 242.06C500.099 239.606 498.557 229.779 499.704 217.068C499.73 216.76 500.012 216.53 500.312 216.56C500.621 216.586 500.851 216.86 500.821 217.168C499.517 231.652 501.733 242.316 501.754 242.421C501.789 242.573 501.755 242.733 501.663 242.859C501.572 242.985 501.433 243.072 501.281 243.094L447.831 250.284C447.731 250.297 447.626 250.284 447.535 250.245C443.921 248.681 440.55 248.533 438.86 248.581C438.213 248.598 437.544 248.685 436.87 248.833L429.086 250.531C428.073 250.753 427.43 251.756 427.652 252.768C427.761 253.259 428.052 253.676 428.473 253.95C428.894 254.219 429.398 254.311 429.889 254.206L435.784 252.921C436.088 252.855 436.388 253.046 436.453 253.351L437.492 258.12C437.522 258.268 437.496 258.42 437.418 258.542C437.339 258.668 437.209 258.755 437.066 258.785L432.205 259.845C431.192 260.067 430.55 261.07 430.771 262.082C430.871 262.534 431.114 262.856 431.501 263.042C431.888 263.225 432.405 263.264 432.952 263.142C432.987 263.134 433.026 263.129 433.065 263.129L449.334 262.925L505.425 264.354C511.416 264.567 516.807 260.714 518.484 254.975C525.256 231.847 525.122 213.78 518.089 201.273C512.141 190.704 503.201 188.206 503.11 188.184C502.81 188.106 502.632 187.797 502.71 187.498C502.788 187.198 503.092 187.015 503.397 187.098C503.779 187.198 512.854 189.713 519.044 200.691C526.251 213.471 526.425 231.843 519.561 255.297C517.758 261.339 512.193 265.471 505.89 265.471Z" fill="#404040"></path> <path d="M438.19 257.721L429.432 259.854C428.116 260.141 426.817 259.307 426.53 257.991C426.243 256.674 427.077 255.376 428.394 255.089L437.868 252.6" fill="white"></path> <path d="M428.9 260.475C428.331 260.475 427.775 260.314 427.284 260.001C426.611 259.567 426.142 258.898 425.972 258.116C425.62 256.5 426.65 254.897 428.266 254.545L437.719 252.06C438.019 251.982 438.327 252.16 438.405 252.46C438.483 252.76 438.305 253.068 438.006 253.146L428.531 255.636C427.497 255.862 426.85 256.865 427.071 257.877C427.18 258.368 427.471 258.785 427.892 259.059C428.314 259.328 428.818 259.419 429.309 259.315L438.053 257.186C438.353 257.113 438.657 257.299 438.731 257.599C438.805 257.899 438.618 258.203 438.318 258.277L429.561 260.41C429.343 260.449 429.122 260.475 428.9 260.475Z" fill="#404040"></path> <path d="M507.232 253.726C507.202 253.726 507.171 253.722 507.141 253.717L501.102 252.71C500.798 252.657 500.59 252.371 500.642 252.062C500.694 251.758 500.981 251.55 501.289 251.602L507.327 252.61C507.632 252.662 507.84 252.948 507.788 253.257C507.74 253.531 507.501 253.726 507.232 253.726Z" fill="#404040"></path> <path d="M501.385 172.198C501.385 172.198 513.284 185.587 511.051 194.918C508.814 204.249 489.222 203.798 489.222 203.798L492.211 173.606C492.211 173.606 497.78 176.308 501.385 172.198Z" fill="#404040"></path> <path d="M471.337 180.725C471.25 180.725 471.163 180.708 471.085 180.664C470.807 180.525 470.699 180.187 470.838 179.908C471.715 178.171 473.535 176.937 475.473 176.768C475.786 176.742 476.055 176.968 476.081 177.276C476.107 177.584 475.881 177.858 475.573 177.884C474.013 178.023 472.545 179.018 471.837 180.417C471.741 180.612 471.546 180.725 471.337 180.725Z" fill="#404040"></path> <path d="M436.427 56.7358C436.792 55.2979 436.996 53.8252 436.996 52.3134C436.996 38.4122 420.779 27.1435 400.774 27.1435C400.249 27.1435 399.727 27.1565 399.21 27.1695C399.249 26.696 399.271 26.2182 399.271 25.7403C399.271 11.839 383.054 0.570312 363.05 0.570312C347.415 0.570312 334.092 7.45578 329.018 17.0998C324.322 14.3152 317.805 12.5862 310.603 12.5862C296.298 12.5862 284.699 19.3892 284.699 27.7821C284.699 27.8907 284.707 27.9949 284.712 28.1035C269.529 31.101 258.404 40.8015 258.404 52.3134C258.404 54.4638 258.795 56.5534 259.524 58.5473C252.417 61.4492 247.561 67.279 247.561 74.0038C247.561 83.6217 257.491 91.4195 269.742 91.4195C273.486 91.4195 277.014 90.6896 280.107 89.3994C279.868 90.5637 279.738 91.754 279.738 92.9616C279.738 106.863 295.954 118.132 315.959 118.132C332.332 118.132 346.164 110.577 350.647 100.216C354.122 111.598 368.662 120.139 386.074 120.139C406.078 120.139 422.295 108.87 422.295 94.9686C422.295 92.6793 421.848 90.4638 421.022 88.3525C424.593 90.2813 428.916 91.4151 433.581 91.4151C445.832 91.4151 455.763 83.6174 455.763 73.9994C455.763 65.1417 447.331 57.8305 436.427 56.7358Z" fill="white"></path> <path d="M386.073 120.703C369.479 120.703 354.848 112.788 350.564 101.701C348.145 106.384 343.744 110.559 338.023 113.561C331.62 116.919 323.991 118.696 315.959 118.696C295.676 118.696 279.177 107.153 279.177 92.9653C279.177 92.0834 279.247 91.1885 279.381 90.2893C276.379 91.3971 273.069 91.9792 269.742 91.9792C257.2 91.9792 247 83.9121 247 73.9987C247 67.3913 251.514 61.392 258.82 58.2295C258.173 56.2963 257.843 54.3067 257.843 52.3084C257.843 40.9528 268.634 30.8614 284.138 27.6423C284.26 19.0149 296.084 12.0208 310.603 12.0208C317.436 12.0208 323.874 13.5456 328.8 16.3215C334.291 6.53848 347.954 0.00488281 363.05 0.00488281C383.332 0.00488281 399.831 11.5473 399.831 25.7353C399.831 26.0089 399.823 26.2913 399.81 26.5867C400.131 26.578 400.453 26.5737 400.774 26.5737C421.057 26.5737 437.556 38.1161 437.556 52.3041C437.556 53.5986 437.408 54.9193 437.117 56.2399C448.112 57.5952 456.323 65.141 456.323 73.9987C456.323 83.9121 446.118 91.9792 433.577 91.9792C429.476 91.9792 425.505 91.119 422.008 89.4813C422.569 91.2841 422.851 93.126 422.851 94.9679C422.855 109.16 406.356 120.703 386.073 120.703ZM350.647 99.6596C350.656 99.6596 350.669 99.6596 350.677 99.6596C350.912 99.6726 351.116 99.829 351.181 100.055C354.635 111.367 369.309 119.582 386.073 119.582C405.735 119.582 421.735 108.543 421.735 94.9723C421.735 92.8132 421.318 90.6542 420.501 88.5647C420.414 88.3475 420.475 88.0955 420.653 87.9391C420.831 87.7827 421.083 87.7567 421.292 87.8653C424.915 89.8245 429.167 90.8584 433.581 90.8584C445.501 90.8584 455.202 83.2952 455.202 74.0031C455.202 65.558 447.104 58.3728 436.37 57.2911C436.209 57.2738 436.062 57.1869 435.966 57.0522C435.87 56.9176 435.84 56.7481 435.884 56.5917C436.248 55.1582 436.435 53.7159 436.435 52.3084C436.435 38.7373 420.436 27.6988 400.774 27.6988C400.257 27.6988 399.74 27.7119 399.223 27.7249C399.084 27.7292 398.91 27.6684 398.802 27.5511C398.693 27.4338 398.637 27.2774 398.65 27.121C398.689 26.6171 398.711 26.1653 398.711 25.7353C398.711 12.1685 382.715 1.12568 363.05 1.12568C348.097 1.12568 334.621 7.64624 329.517 17.3554C329.448 17.4901 329.322 17.5943 329.174 17.6334C329.026 17.6769 328.865 17.6552 328.735 17.577C323.913 14.7185 317.475 13.1416 310.603 13.1416C296.627 13.1416 285.259 19.7056 285.259 27.777C285.259 27.8291 285.263 27.8856 285.268 27.9377L285.276 28.0768C285.285 28.3504 285.094 28.5937 284.824 28.6458C269.598 31.652 258.968 41.3785 258.968 52.3041C258.968 54.3458 259.333 56.3789 260.054 58.3424C260.158 58.6248 260.019 58.9419 259.741 59.0549C252.578 61.9828 248.125 67.7041 248.125 73.9944C248.125 83.2865 257.826 90.8497 269.746 90.8497C273.278 90.8497 276.788 90.1677 279.894 88.8731C280.085 88.7949 280.307 88.8253 280.467 88.96C280.628 89.0903 280.702 89.3032 280.658 89.5073C280.42 90.6672 280.302 91.8315 280.302 92.9609C280.302 106.532 296.297 117.571 315.963 117.571C331.607 117.571 345.66 110.342 350.134 99.9941C350.217 99.7899 350.421 99.6596 350.647 99.6596Z" fill="#404040"></path> <path d="M320.975 23.8653C321.321 23.9345 324.061 24.3498 324.609 25.4171C325.705 26.1094 326.392 29.2307 326.6 29.2307C326.807 29.2307 324.782 30.6671 324.263 31.994L322.1 34.5902C320.946 35.0229 318.24 35.2018 317.686 35.2018C316.994 35.2018 317.08 31.1227 315.609 31.994C314.468 32.6697 314.225 28.7632 314.225 27.5805L316.907 24.6441C318.119 24.3556 320.628 23.796 320.975 23.8653Z" fill="#6C75F4"></path> <path d="M327.205 27.7995C327.205 25.0696 324.983 22.8486 322.254 22.8486C321.056 22.8486 319.931 23.269 319.045 24.0271C318.533 23.8523 317.992 23.762 317.444 23.762C314.714 23.762 312.493 25.9829 312.493 28.7128C312.493 30.8202 313.851 32.6796 315.776 33.3736C316.356 35.4762 318.295 37.0122 320.549 37.0122C323.279 37.0122 325.5 34.7913 325.5 32.0614C325.5 31.8928 325.491 31.7249 325.474 31.5584C326.559 30.6272 327.205 29.2572 327.205 27.7995ZM323.405 29.8534L322.492 30.3664L322.8 31.3668C322.869 31.5908 322.904 31.8244 322.904 32.061C322.904 33.3594 321.848 34.4157 320.549 34.4157C319.321 34.4157 318.29 33.4569 318.202 32.2329L318.127 31.1936L317.097 31.0414C315.952 30.8727 315.09 29.8714 315.09 28.7125C315.09 27.4141 316.146 26.3578 317.444 26.3578C317.878 26.3578 318.301 26.4762 318.668 26.7001L319.668 27.3106L320.378 26.3773C320.828 25.7844 321.512 25.4444 322.254 25.4444C323.552 25.4444 324.609 26.5009 324.609 27.7992C324.609 28.6488 324.147 29.436 323.405 29.8534Z" fill="#404040"></path> <path d="M341.052 11.1935C341.052 8.68076 339.008 6.63672 336.495 6.63672C335.419 6.63672 334.408 7.00485 333.602 7.67051C333.153 7.52599 332.682 7.45139 332.204 7.45139C329.692 7.45139 327.647 9.49561 327.647 12.0082C327.647 12.1632 327.655 12.3182 327.671 12.4724C327.028 13.2753 326.67 14.2793 326.67 15.3214C326.67 17.8341 328.714 19.8782 331.227 19.8782C332.013 19.8782 332.782 19.6739 333.46 19.293C333.944 19.4638 334.457 19.5523 334.974 19.5523C337.487 19.5523 339.531 17.508 339.531 14.9955C339.531 14.8648 339.526 14.7347 339.515 14.6052C340.48 13.7495 341.052 12.5106 341.052 11.1935ZM337.454 12.9038L336.541 13.4168L336.849 14.4174C336.906 14.6036 336.935 14.7982 336.935 14.9955C336.935 16.0765 336.056 16.9561 334.975 16.9561C334.627 16.9561 334.286 16.8637 333.987 16.6889L333.194 16.2243L332.492 16.8182C332.134 17.1216 331.696 17.282 331.227 17.282C330.146 17.282 329.266 16.4024 329.266 15.3214C329.266 14.7617 329.507 14.2268 329.927 13.8544L330.534 13.3165L330.316 12.5354C330.268 12.363 330.244 12.1856 330.244 12.0083C330.244 10.9273 331.124 10.0477 332.205 10.0477C332.566 10.0477 332.918 10.1462 333.223 10.3326L334.224 10.9429L334.933 10.0095C335.308 9.51586 335.877 9.23288 336.495 9.23288C337.577 9.23288 338.456 10.1125 338.456 11.1935C338.456 11.9009 338.072 12.5561 337.454 12.9038Z" fill="#404040"></path> <path d="M393.666 20.799C393.666 18.2862 391.622 16.2422 389.109 16.2422C388.034 16.2422 387.022 16.6103 386.216 17.2762C385.767 17.1315 385.296 17.0569 384.819 17.0569C382.306 17.0569 380.262 19.1011 380.262 21.6136C380.262 21.7687 380.27 21.9236 380.286 22.078C379.642 22.8809 379.284 23.8848 379.284 24.9269C379.284 27.4396 381.328 29.4836 383.841 29.4836C384.627 29.4836 385.396 29.2794 386.074 28.8985C386.558 29.0693 387.071 29.1577 387.589 29.1577C390.101 29.1577 392.146 27.1135 392.146 24.601C392.146 24.4705 392.14 24.3401 392.129 24.2108C393.094 23.3553 393.666 22.1163 393.666 20.799ZM390.068 22.5095L389.155 23.0227L389.463 24.0232C389.52 24.2093 389.549 24.4036 389.549 24.601C389.549 25.682 388.67 26.5616 387.589 26.5616C387.241 26.5616 386.9 26.4691 386.601 26.2943L385.808 25.8298L385.106 26.4236C384.748 26.727 384.31 26.8875 383.841 26.8875C382.76 26.8875 381.88 26.0079 381.88 24.9269C381.88 24.3673 382.121 23.8325 382.541 23.4599L383.147 22.9221L382.93 22.1412C382.882 21.9684 382.858 21.791 382.858 21.6136C382.858 20.5326 383.737 19.653 384.818 19.653C385.179 19.653 385.532 19.7515 385.837 19.9379L386.838 20.5485L387.547 19.6149C387.922 19.1212 388.491 18.8382 389.109 18.8382C390.19 18.8382 391.07 19.7178 391.07 20.7988C391.07 21.5065 390.686 22.1618 390.068 22.5095Z" fill="#404040"></path> <path d="M373.85 5.5967C374.196 5.66593 375.379 7.81785 375.927 8.88516C377.023 9.57749 379.267 10.9621 379.475 10.9621C379.683 10.9621 378.696 13.616 378.177 14.9429L374.715 15.6352C373.562 16.0679 371.115 16.9333 370.562 16.9333C369.869 16.9333 368.312 15.3756 368.312 14.9429V10.9621L369.783 6.37554C370.994 6.08708 373.504 5.52747 373.85 5.5967Z" fill="#6C75F4"></path> <path d="M379.847 9.589C379.174 8.59813 378.194 7.90392 377.069 7.59723C376.925 7.07488 376.696 6.57711 376.389 6.12399C375.645 5.03015 374.521 4.29111 373.222 4.04326C371.922 3.79541 370.605 4.06836 369.511 4.81138C367.768 5.99574 366.993 8.16406 367.501 10.1461C366.088 11.8077 365.907 14.2742 367.174 16.1389C367.917 17.2328 369.041 17.9718 370.341 18.2197C370.653 18.2794 370.967 18.309 371.279 18.309C372.261 18.3088 373.221 18.0158 374.051 17.4514C374.19 17.3569 374.324 17.2556 374.453 17.148C375.833 17.522 377.328 17.2857 378.534 16.4664H378.534C380.792 14.9322 381.381 11.8471 379.847 9.589ZM378.065 12.8127C377.947 13.4305 377.596 13.9654 377.075 14.319H377.075C376.372 14.7965 375.462 14.8573 374.7 14.4776L373.762 14.0115L373.108 14.8282C372.961 15.0112 372.788 15.1713 372.592 15.3044C372.072 15.6578 371.445 15.7878 370.827 15.6696C370.21 15.5515 369.675 15.2002 369.321 14.6799C368.631 13.6636 368.844 12.2719 369.807 11.5114L370.625 10.8656L370.171 9.92754C369.668 8.88631 370.011 7.60986 370.97 6.95857C371.365 6.6903 371.821 6.55098 372.289 6.55098C372.437 6.55098 372.586 6.565 372.735 6.59338C373.353 6.71142 373.888 7.06277 374.241 7.58304C374.485 7.94148 374.625 8.35808 374.646 8.78748L374.703 9.95835L375.874 10.0201C376.617 10.0596 377.283 10.4343 377.7 11.0479C378.053 11.5681 378.183 12.195 378.065 12.8127Z" fill="#404040"></path> <path d="M327.55 45.1439C328.242 43.8978 331.069 43.1824 332.396 42.9805C336.273 43.6035 338.569 46.0093 339.233 47.1343L342.521 90.9229H333.348L331.358 79.4132C330.463 74.7401 328.45 64.8401 327.55 62.6247C326.425 59.8555 327.55 55.0093 326.079 52.4132C324.608 49.817 326.685 46.7016 327.55 45.1439Z" fill="#6C75F4"></path> <path d="M364.677 45.5782C363.985 44.332 361.158 43.0974 359.831 42.8955C355.954 43.5186 353.658 45.9244 352.994 47.0494L351.696 91.0975L361.994 90.2321V79.1552C362.889 74.4821 363.777 64.7552 364.677 62.5398C365.802 59.7705 363.206 54.4051 364.677 51.809C366.148 49.2128 365.542 47.1359 364.677 45.5782Z" fill="#6C75F4"></path> <path d="M380.165 40.4266C380.165 39.7293 380.002 39.0404 379.698 38.4196C380.005 37.7986 380.165 37.1161 380.165 36.406C380.165 34.201 378.591 32.3576 376.507 31.9389C376.747 31.3807 376.876 30.7725 376.876 30.1467C376.876 27.6338 374.832 25.5895 372.319 25.5895C371.634 25.5895 370.966 25.7431 370.359 26.033C369.26 24.9807 367.788 24.378 366.232 24.378C365.832 24.378 365.437 24.4173 365.051 24.4953C364.698 24.1443 364.292 23.8546 363.849 23.6365C364.752 22.7222 365.28 21.4757 365.28 20.1568C365.28 17.4265 363.059 15.2051 360.328 15.2051C359.132 15.2051 358.007 15.6257 357.12 16.3839C356.608 16.2093 356.068 16.1191 355.52 16.1191C354.547 16.1191 353.618 16.3995 352.827 16.9142C351.175 15.3546 348.6 15.0915 346.645 16.4197C344.974 17.5558 344.193 19.598 344.58 21.5127C342.643 21.8722 341.133 23.4605 340.891 25.4352C340.333 25.274 339.699 25.1882 338.995 25.2486C337.92 25.34 336.969 25.6994 336.228 26.2827C335.774 26.1351 335.298 26.0591 334.815 26.0591C332.302 26.0591 330.258 28.1035 330.258 30.6162C330.258 30.7713 330.265 30.9257 330.281 31.0792C329.638 31.8821 329.28 32.8863 329.28 33.9289C329.28 34.6813 329.461 35.398 329.79 36.0315C327.193 36.181 325.126 38.3403 325.126 40.9732C325.126 42.211 325.589 43.3827 326.391 44.2782C325.128 45.8328 324.502 47.8331 324.665 49.8399L331.727 92.5706H372.351L379.4 49.9463L379.413 49.8401C379.537 48.313 379.205 46.7898 378.482 45.4638C378.588 45.0516 378.642 44.6329 378.642 44.2274C378.642 44.097 378.637 43.9672 378.626 43.8381C379.592 42.9822 380.165 41.7432 380.165 40.4266ZM333.93 89.9734L327.249 49.5775C327.145 48.128 327.629 46.743 328.616 45.6726C329.614 44.5896 330.975 43.9934 332.448 43.9934H332.502C335.314 43.9934 337.601 46.1946 337.709 49.0043L337.71 49.0304L337.723 49.1872C337.723 49.293 337.724 49.3989 337.729 49.5052L340.942 89.9734H333.93ZM343.547 89.9734L340.32 49.0972C340.345 47.7827 340.855 46.5473 341.775 45.5912C342.767 44.5609 344.1 43.9934 345.53 43.9934C348.404 43.9934 350.742 46.3313 350.742 49.2047V89.9734H343.547ZM353.338 89.9736V49.2049C353.338 46.3313 355.676 43.9935 358.549 43.9935C359.979 43.9935 361.313 44.5611 362.305 45.5914C363.225 46.5475 363.735 47.7827 363.76 49.0974L360.532 89.9736H353.338ZM376.83 49.5775L370.15 89.9734H363.137L366.348 49.558L366.351 49.505C366.355 49.3986 366.357 49.2923 366.357 49.1864L366.367 49.0564L366.37 49.0041C366.478 46.1944 368.766 43.9932 371.578 43.9932H371.632C373.105 43.9932 374.466 44.5894 375.464 45.6724C376.45 46.743 376.935 48.128 376.83 49.5775ZM376.565 42.1362L375.768 42.5849C374.537 41.8176 373.103 41.3975 371.632 41.3975H371.578C368.853 41.3975 366.456 42.7775 365.06 44.8915C364.801 44.5036 364.506 44.1355 364.175 43.7916C362.689 42.2477 360.691 41.3975 358.549 41.3975C355.834 41.3975 353.439 42.7901 352.039 44.8986C350.64 42.7903 348.245 41.3975 345.53 41.3975C343.388 41.3975 341.39 42.2477 339.904 43.7916C339.573 44.1355 339.278 44.5034 339.019 44.8915C337.622 42.7775 335.226 41.3975 332.501 41.3975H332.447C330.988 41.3975 329.566 41.8105 328.343 42.5651C327.95 42.1361 327.722 41.5705 327.722 40.9726C327.722 39.6747 328.779 38.6188 330.078 38.6188C330.511 38.6188 330.934 38.737 331.301 38.9606L332.301 39.5695L333.009 38.638C333.165 38.4329 333.355 38.2541 333.573 38.1068L335.789 36.6068L333.239 35.795C332.424 35.5354 331.876 34.7853 331.876 33.9286C331.876 33.3683 332.117 32.8335 332.537 32.461L333.144 31.9226L332.926 31.1406C332.878 30.9709 332.854 30.7943 332.854 30.616C332.854 29.5348 333.734 28.6551 334.815 28.6551C335.177 28.6551 335.529 28.7532 335.833 28.9393L336.834 29.5504L337.543 28.6163C337.972 28.0521 338.689 27.8802 339.216 27.8352C340.367 27.7383 341.208 28.4204 341.71 28.829C341.866 28.9552 342 29.0644 342.146 29.153L343.155 29.7636L343.853 28.8261L344.489 27.9898L343.87 27.2016C343.597 26.8533 343.453 26.4355 343.453 25.9932C343.453 24.919 344.321 24.0438 345.393 24.0324L346.124 24.0741L346.542 23.5303C346.663 23.3729 346.798 23.235 346.942 23.1206L347.759 22.475L347.306 21.5375C346.803 20.4954 347.146 19.2186 348.104 18.5671C349.178 17.8369 350.646 18.1176 351.375 19.1907C351.418 19.2544 351.461 19.3274 351.503 19.4076L352.429 21.1825L353.672 19.6127C354.123 19.0425 354.797 18.7154 355.52 18.7154C355.953 18.7154 356.376 18.8336 356.743 19.0573L357.743 19.666L358.451 18.735C358.903 18.1419 359.587 17.8016 360.328 17.8016C361.627 17.8016 362.684 18.8582 362.684 20.1572C362.684 21.0066 362.222 21.7931 361.48 22.2097L360.57 22.7206L360.874 23.7194C360.941 23.9392 360.976 24.1651 360.979 24.3918C360.976 24.4265 360.975 24.4616 360.975 24.4978V25.634L362.102 25.7843C362.672 25.8604 363.179 26.1849 363.492 26.6747L364.06 27.563L365.045 27.19C365.423 27.047 365.822 26.9745 366.232 26.9745C367.359 26.9745 368.407 27.5339 369.036 28.4709L369.877 29.7261L370.991 28.7049C371.356 28.3702 371.828 28.186 372.319 28.186C373.4 28.186 374.28 29.0658 374.28 30.147C374.28 30.8539 373.895 31.5093 373.276 31.8577L372.359 32.374L372.675 33.3784C372.705 33.4746 372.727 33.5841 372.741 33.7044L372.965 35.632L374.661 34.6896C374.947 34.5305 375.275 34.4464 375.607 34.4464C376.689 34.4464 377.568 35.3253 377.568 36.4057C377.568 36.8493 377.424 37.2676 377.151 37.6158L376.522 38.4182L377.152 39.2189C377.425 39.5648 377.568 39.982 377.568 40.4255C377.568 41.1324 377.184 41.7878 376.565 42.1362Z" fill="#404040"></path> <path d="M356.455 28.619C356.07 28.619 355.694 28.6758 355.336 28.7864C354.432 27.8083 353.154 27.2344 351.782 27.2344C349.464 27.2344 347.521 28.8701 347.046 31.0476C344.483 31.1708 342.436 33.2948 342.436 35.8882H345.032C345.032 34.6476 346.041 33.6382 347.282 33.6382C347.486 33.6382 347.694 33.6682 347.901 33.7274L349.764 34.2599L349.547 32.3344C349.537 32.2401 349.532 32.1572 349.532 32.0805C349.532 30.8399 350.541 29.8305 351.782 29.8305C352.621 29.8305 353.385 30.2946 353.776 31.0412L354.492 32.4122L355.718 31.468C355.868 31.3526 356.117 31.2152 356.455 31.2152C357.123 31.2152 357.666 31.7588 357.666 32.4267H360.262C360.262 30.3271 358.554 28.619 356.455 28.619Z" fill="#404040"></path> <path d="M365.107 33.376C363.837 33.376 362.639 33.922 361.798 34.8328C361.336 34.6708 360.848 34.5875 360.347 34.5875C357.913 34.5875 355.934 36.5673 355.934 39.001H358.53C358.53 37.9989 359.345 37.1837 360.347 37.1837C360.74 37.1837 361.116 37.3098 361.434 37.5489L362.707 38.5046L363.387 37.0656C363.701 36.4014 364.376 35.9721 365.107 35.9721C366.156 35.9721 367.011 36.8263 367.011 37.876H369.607C369.607 35.3946 367.588 33.376 365.107 33.376Z" fill="#404040"></path> <path d="M332.414 48.9669L329.853 49.3906L331.52 59.4688L334.081 59.0451L332.414 48.9669Z" fill="#404040"></path> <path d="M336.514 73.7533L333.952 74.1768L334.992 80.4658L337.553 80.0423L336.514 73.7533Z" fill="#404040"></path> <path d="M356.212 78.8752L355.944 82.2432L358.532 82.4488L358.8 79.0808L356.212 78.8752Z" fill="#404040"></path> <path d="M357.802 58.8027L357.019 68.6689L359.607 68.8746L360.39 59.0083L357.802 58.8027Z" fill="#404040"></path> <path d="M358.576 49.0824L358.12 54.8213L360.708 55.0269L361.164 49.288L358.576 49.0824Z" fill="#404040"></path> <path d="M450.56 107.003C450.56 110.679 447.58 113.654 443.909 113.654C440.234 113.654 437.258 110.674 437.258 107.003C437.258 103.328 440.238 100.353 443.909 100.353C447.58 100.353 450.56 103.333 450.56 107.003Z" fill="white"></path> <path d="M443.904 114.215C439.925 114.215 436.688 110.979 436.688 107C436.688 103.021 439.925 99.7842 443.904 99.7842C447.883 99.7842 451.12 103.021 451.12 107C451.12 110.979 447.883 114.215 443.904 114.215ZM443.904 100.909C440.546 100.909 437.814 103.642 437.814 107C437.814 110.358 440.546 113.09 443.904 113.09C447.262 113.09 449.995 110.358 449.995 107C449.999 103.642 447.267 100.909 443.904 100.909Z" fill="#404040"></path> <path d="M458.887 127.902C461.051 127.902 462.806 126.148 462.806 123.984C462.806 121.82 461.051 120.065 458.887 120.065C456.723 120.065 454.969 121.82 454.969 123.984C454.969 126.148 456.723 127.902 458.887 127.902Z" fill="white"></path> <path d="M458.887 128.461C456.415 128.461 454.403 126.45 454.403 123.978C454.403 121.506 456.415 119.499 458.887 119.499C461.358 119.499 463.365 121.51 463.365 123.978C463.37 126.45 461.358 128.461 458.887 128.461ZM458.887 120.624C457.036 120.624 455.528 122.132 455.528 123.982C455.528 125.833 457.036 127.34 458.887 127.34C460.737 127.34 462.245 125.833 462.245 123.982C462.245 122.127 460.741 120.624 458.887 120.624Z" fill="#404040"></path> <path d="M456.109 263.294C455.813 263.294 455.566 263.064 455.548 262.764L454.749 248.728C454.732 248.42 454.966 248.155 455.279 248.138C455.587 248.12 455.852 248.355 455.87 248.668L456.669 262.704C456.686 263.012 456.452 263.277 456.139 263.294C456.13 263.294 456.122 263.294 456.109 263.294Z" fill="#404040"></path> <path d="M491.376 218.703C491.259 218.703 491.141 218.668 491.046 218.594L478.774 209.68L471.871 215.666C471.636 215.87 471.28 215.844 471.08 215.61C470.876 215.375 470.902 215.019 471.137 214.819L478.378 208.542C478.574 208.372 478.865 208.359 479.078 208.511L491.141 217.273L498.413 200.223C498.535 199.936 498.865 199.806 499.148 199.927C499.434 200.049 499.565 200.379 499.443 200.666L491.897 218.364C491.832 218.52 491.697 218.638 491.532 218.685C491.48 218.698 491.428 218.703 491.376 218.703Z" fill="#404040"></path> <path d="M459.93 189.727L454.708 178.614L454.43 171.056C454.396 170.126 455.012 169.253 455.929 169.075C456.92 168.884 457.845 169.487 458.097 170.417L458.384 171.473L458.583 170.287C458.74 169.353 459.543 168.614 460.49 168.64C461.194 168.662 461.772 169.057 462.08 169.618C462.424 169.461 462.806 169.387 463.21 169.44C464.283 169.579 465.074 170.513 465.034 171.594L464.626 180.026C464.626 180.026 467.719 181.694 468.575 182.485C470.573 184.331 471.025 187.342 470.938 190.061L472.502 249.142C472.68 256.896 466.433 263.269 458.679 263.256C449.734 263.238 443.17 254.846 445.308 246.162L459.93 189.727Z" fill="white"></path> <path d="M458.7 263.809C458.692 263.809 458.683 263.809 458.67 263.809C454.235 263.8 450.121 261.793 447.388 258.296C444.656 254.803 443.696 250.329 444.756 246.019L459.335 189.784L454.2 178.854C454.169 178.785 454.148 178.711 454.148 178.637L453.87 171.078C453.822 169.849 454.66 168.75 455.82 168.528C456.785 168.342 457.723 168.733 458.262 169.48C458.683 168.62 459.561 168.055 460.508 168.081C461.216 168.103 461.859 168.42 462.297 168.95C462.619 168.867 462.949 168.841 463.275 168.885C464.643 169.063 465.642 170.236 465.59 171.613L465.199 179.697C466.02 180.149 468.214 181.383 468.953 182.065C470.76 183.733 471.616 186.426 471.494 190.071L473.058 249.117C473.145 253.022 471.694 256.706 468.961 259.495C466.238 262.279 462.593 263.809 458.7 263.809ZM455.264 178.477L460.434 189.485C460.49 189.602 460.503 189.737 460.468 189.863L445.842 246.289C444.869 250.255 445.751 254.377 448.275 257.601C450.794 260.824 454.587 262.675 458.674 262.683C458.683 262.683 458.692 262.683 458.7 262.683C462.289 262.683 465.647 261.272 468.158 258.709C470.677 256.137 472.015 252.74 471.933 249.143L470.369 190.067C470.477 186.726 469.743 184.324 468.188 182.89C467.532 182.282 465.195 180.97 464.352 180.514C464.161 180.41 464.048 180.21 464.057 179.993L464.465 171.561C464.495 170.77 463.918 170.092 463.127 169.992C462.853 169.958 462.575 170.001 462.302 170.127C462.032 170.249 461.715 170.144 461.576 169.884C461.35 169.471 460.933 169.21 460.464 169.197C459.795 169.18 459.243 169.684 459.126 170.375L458.926 171.561C458.883 171.821 458.666 172.017 458.401 172.03C458.14 172.034 457.901 171.869 457.832 171.617L457.545 170.561C457.362 169.892 456.706 169.493 456.024 169.623C455.403 169.745 454.956 170.349 454.982 171.031L455.264 178.477Z" fill="#404040"></path> <path d="M459.62 181.947C459.433 181.947 459.251 181.855 459.142 181.686L456.848 178.033C456.775 177.915 456.748 177.776 456.77 177.642L457.952 170.604C458.004 170.3 458.286 170.096 458.599 170.144C458.903 170.196 459.112 170.482 459.059 170.791L457.913 177.616L460.093 181.087C460.259 181.347 460.18 181.695 459.915 181.86C459.828 181.916 459.724 181.947 459.62 181.947Z" fill="#404040"></path> <path d="M461.34 182.705C461.08 182.705 460.845 182.522 460.789 182.253L460.254 179.603C460.246 179.559 460.241 179.516 460.241 179.477L460.489 171.293C460.537 169.707 461.97 168.994 462.031 168.964C462.309 168.829 462.648 168.947 462.783 169.225C462.917 169.503 462.8 169.837 462.526 169.972C462.483 169.994 461.64 170.432 461.614 171.327L461.366 179.446L461.888 182.036C461.948 182.34 461.753 182.635 461.449 182.696C461.414 182.7 461.375 182.705 461.34 182.705Z" fill="#404040"></path> <path d="M470.289 193.746C470.28 193.746 470.271 193.746 470.263 193.746L459.255 193.212C458.946 193.199 458.707 192.934 458.72 192.626C458.733 192.317 459.011 192.078 459.307 192.091L470.315 192.626C470.623 192.639 470.862 192.904 470.849 193.212C470.836 193.512 470.588 193.746 470.289 193.746Z" fill="#404040"></path> </svg> 