<?xml version="1.0" encoding="UTF-8"?> <svg xmlns="http://www.w3.org/2000/svg" width="420" height="52" viewBox="0 0 420 52" fill="none"> <path d="M7.084 40C6.40933 40 5.82667 39.77 5.336 39.31C4.84533 38.85 4.6 38.2827 4.6 37.608V6.466C4.6 5.76067 4.84533 5.19333 5.336 4.764C5.82667 4.304 6.40933 4.074 7.084 4.074C7.78933 4.074 8.34133 4.304 8.74 4.764C9.16933 5.19333 9.384 5.76067 9.384 6.466V32.548L31.464 4.948C31.9547 4.36533 32.568 4.074 33.304 4.074C34.0093 4.074 34.5767 4.304 35.006 4.764C35.466 5.19333 35.696 5.76067 35.696 6.466V37.608C35.696 38.2827 35.466 38.85 35.006 39.31C34.5767 39.77 34.0093 40 33.304 40C32.6293 40 32.062 39.77 31.602 39.31C31.142 38.85 30.912 38.2827 30.912 37.608V11.572L8.924 39.172C8.70933 39.4173 8.43333 39.6167 8.096 39.77C7.75867 39.9233 7.42133 40 7.084 40ZM55.8429 40.184C53.3896 40.184 51.1969 39.632 49.2649 38.528C47.3636 37.3933 45.8609 35.8753 44.7569 33.974C43.6836 32.042 43.1469 29.8647 43.1469 27.442C43.1469 24.958 43.6836 22.75 44.7569 20.818C45.8303 18.886 47.3023 17.3833 49.1729 16.31C51.0436 15.206 53.1903 14.654 55.6129 14.654C57.4223 14.654 59.0783 15.0067 60.5809 15.712C62.0836 16.3867 63.4329 17.414 64.6289 18.794C65.0583 19.2847 65.2116 19.7907 65.0889 20.312C64.9663 20.8333 64.6289 21.2933 64.0769 21.692C63.6476 21.9987 63.1723 22.106 62.6509 22.014C62.1296 21.8913 61.6543 21.6153 61.2249 21.186C59.7223 19.5913 57.8516 18.794 55.6129 18.794C54.0489 18.794 52.6689 19.162 51.4729 19.898C50.2769 20.6033 49.3416 21.6 48.6669 22.888C47.9923 24.176 47.6549 25.694 47.6549 27.442C47.6549 29.098 47.9923 30.57 48.6669 31.858C49.3723 33.146 50.3383 34.1733 51.5649 34.94C52.7916 35.676 54.2176 36.044 55.8429 36.044C56.9163 36.044 57.8516 35.9213 58.6489 35.676C59.4769 35.4 60.2283 34.986 60.9029 34.434C61.3936 34.0353 61.8996 33.8207 62.4209 33.79C62.9423 33.7287 63.4023 33.8667 63.8009 34.204C64.3223 34.6333 64.6136 35.124 64.6749 35.676C64.7363 36.1973 64.5523 36.6727 64.1229 37.102C61.9149 39.1567 59.1549 40.184 55.8429 40.184ZM92.4859 39.448C92.0872 39.816 91.5199 40 90.7839 40C90.0785 39.9693 89.5265 39.7547 89.1279 39.356L77.9499 27.35L88.4839 15.574C88.8825 15.1447 89.4345 14.8993 90.1399 14.838C90.8759 14.7767 91.4432 14.93 91.8419 15.298C92.3019 15.7273 92.5625 16.218 92.6239 16.77C92.6852 17.2913 92.5165 17.7667 92.1179 18.196L83.7919 27.12L92.6239 36.596C93.0225 36.9947 93.2219 37.47 93.2219 38.022C93.2219 38.5433 92.9765 39.0187 92.4859 39.448ZM74.2699 40.046C73.5952 40.046 73.0585 39.8313 72.6599 39.402C72.2612 38.942 72.0619 38.3747 72.0619 37.7V17.184C72.0619 16.4787 72.2612 15.9113 72.6599 15.482C73.0585 15.0527 73.5952 14.838 74.2699 14.838C74.9752 14.838 75.5425 15.0527 75.9719 15.482C76.4319 15.9113 76.6619 16.4787 76.6619 17.184V24.866H82.5499V29.19H76.6619V37.7C76.6619 38.3747 76.4319 38.942 75.9719 39.402C75.5425 39.8313 74.9752 40.046 74.2699 40.046ZM97.5196 51.04C96.9676 51.04 96.4003 50.9633 95.8176 50.81C95.2656 50.6567 94.7136 50.4267 94.1616 50.12C93.487 49.7213 93.0423 49.2307 92.8276 48.648C92.613 48.0653 92.705 47.498 93.1036 46.946C93.4716 46.4247 93.9163 46.1027 94.4376 45.98C94.959 45.8573 95.511 45.9647 96.0936 46.302C96.431 46.486 96.7376 46.624 97.0136 46.716C97.3203 46.808 97.627 46.854 97.9336 46.854C98.915 46.854 99.8503 46.348 100.74 45.336C101.66 44.324 102.564 42.8213 103.454 40.828L114.448 15.988C114.724 15.3747 115.138 14.9607 115.69 14.746C116.272 14.5313 116.855 14.562 117.438 14.838C117.959 15.0527 118.296 15.4513 118.45 16.034C118.603 16.586 118.526 17.184 118.22 17.828L107.134 42.668C106.03 45.152 104.619 47.1607 102.902 48.694C101.215 50.258 99.421 51.04 97.5196 51.04ZM108.008 38.988C107.425 39.2333 106.873 39.264 106.352 39.08C105.861 38.8653 105.462 38.4667 105.156 37.884L94.6216 17.874C94.315 17.2913 94.269 16.7393 94.4836 16.218C94.729 15.666 95.143 15.2673 95.7256 15.022C96.3083 14.7767 96.845 14.7613 97.3356 14.976C97.857 15.16 98.271 15.5433 98.5776 16.126L108.698 35.952C109.004 36.5347 109.112 37.1327 109.02 37.746C108.928 38.3287 108.59 38.7427 108.008 38.988ZM133.782 40.184C131.329 40.184 129.136 39.632 127.204 38.528C125.303 37.3933 123.8 35.8753 122.696 33.974C121.623 32.042 121.086 29.8647 121.086 27.442C121.086 24.958 121.623 22.75 122.696 20.818C123.77 18.886 125.242 17.3833 127.112 16.31C128.983 15.206 131.13 14.654 133.552 14.654C135.362 14.654 137.018 15.0067 138.52 15.712C140.023 16.3867 141.372 17.414 142.568 18.794C142.998 19.2847 143.151 19.7907 143.028 20.312C142.906 20.8333 142.568 21.2933 142.016 21.692C141.587 21.9987 141.112 22.106 140.59 22.014C140.069 21.8913 139.594 21.6153 139.164 21.186C137.662 19.5913 135.791 18.794 133.552 18.794C131.988 18.794 130.608 19.162 129.412 19.898C128.216 20.6033 127.281 21.6 126.606 22.888C125.932 24.176 125.594 25.694 125.594 27.442C125.594 29.098 125.932 30.57 126.606 31.858C127.312 33.146 128.278 34.1733 129.504 34.94C130.731 35.676 132.157 36.044 133.782 36.044C134.856 36.044 135.791 35.9213 136.588 35.676C137.416 35.4 138.168 34.986 138.842 34.434C139.333 34.0353 139.839 33.8207 140.36 33.79C140.882 33.7287 141.342 33.8667 141.74 34.204C142.262 34.6333 142.553 35.124 142.614 35.676C142.676 36.1973 142.492 36.6727 142.062 37.102C139.854 39.1567 137.094 40.184 133.782 40.184ZM161.409 40.184C158.956 40.184 156.763 39.632 154.831 38.528C152.93 37.3933 151.427 35.8753 150.323 33.974C149.25 32.042 148.713 29.8647 148.713 27.442C148.713 24.958 149.25 22.75 150.323 20.818C151.397 18.886 152.869 17.3833 154.739 16.31C156.61 15.206 158.757 14.654 161.179 14.654C162.989 14.654 164.645 15.0067 166.147 15.712C167.65 16.3867 168.999 17.414 170.195 18.794C170.625 19.2847 170.778 19.7907 170.655 20.312C170.533 20.8333 170.195 21.2933 169.643 21.692C169.214 21.9987 168.739 22.106 168.217 22.014C167.696 21.8913 167.221 21.6153 166.791 21.186C165.289 19.5913 163.418 18.794 161.179 18.794C159.615 18.794 158.235 19.162 157.039 19.898C155.843 20.6033 154.908 21.6 154.233 22.888C153.559 24.176 153.221 25.694 153.221 27.442C153.221 29.098 153.559 30.57 154.233 31.858C154.939 33.146 155.905 34.1733 157.131 34.94C158.358 35.676 159.784 36.044 161.409 36.044C162.483 36.044 163.418 35.9213 164.215 35.676C165.043 35.4 165.795 34.986 166.469 34.434C166.96 34.0353 167.466 33.8207 167.987 33.79C168.509 33.7287 168.969 33.8667 169.367 34.204C169.889 34.6333 170.18 35.124 170.241 35.676C170.303 36.1973 170.119 36.6727 169.689 37.102C167.481 39.1567 164.721 40.184 161.409 40.184ZM210.656 40.046C209.982 40.046 209.414 39.8313 208.954 39.402C208.525 38.942 208.31 38.3747 208.31 37.7V24.544C208.31 22.612 207.835 21.186 206.884 20.266C205.934 19.3153 204.692 18.84 203.158 18.84C201.564 18.84 200.245 19.392 199.202 20.496C198.19 21.6 197.684 23.0107 197.684 24.728H193.866C193.866 22.7347 194.296 20.9867 195.154 19.484C196.013 17.9507 197.209 16.7547 198.742 15.896C200.306 15.0373 202.085 14.608 204.078 14.608C205.826 14.608 207.375 14.9913 208.724 15.758C210.074 16.5247 211.116 17.6593 211.852 19.162C212.619 20.634 213.002 22.428 213.002 24.544V37.7C213.002 38.3747 212.788 38.942 212.358 39.402C211.929 39.8313 211.362 40.046 210.656 40.046ZM179.974 40.046C179.3 40.046 178.732 39.8313 178.272 39.402C177.843 38.942 177.628 38.3747 177.628 37.7V17.23C177.628 16.5247 177.843 15.9573 178.272 15.528C178.732 15.0987 179.3 14.884 179.974 14.884C180.68 14.884 181.247 15.0987 181.676 15.528C182.106 15.9573 182.32 16.5247 182.32 17.23V37.7C182.32 38.3747 182.106 38.942 181.676 39.402C181.247 39.8313 180.68 40.046 179.974 40.046ZM195.338 40.046C194.664 40.046 194.096 39.8313 193.636 39.402C193.207 38.942 192.992 38.3747 192.992 37.7V24.544C192.992 22.612 192.517 21.186 191.566 20.266C190.616 19.3153 189.374 18.84 187.84 18.84C186.246 18.84 184.927 19.392 183.884 20.496C182.842 21.6 182.32 23.0107 182.32 24.728H179.422C179.422 22.7347 179.821 20.9867 180.618 19.484C181.416 17.9507 182.52 16.7547 183.93 15.896C185.341 15.0373 186.951 14.608 188.76 14.608C190.508 14.608 192.057 14.9913 193.406 15.758C194.756 16.5247 195.798 17.6593 196.534 19.162C197.301 20.634 197.684 22.428 197.684 24.544V37.7C197.684 38.3747 197.47 38.942 197.04 39.402C196.611 39.8313 196.044 40.046 195.338 40.046ZM223.144 40C222.47 40 221.902 39.7853 221.442 39.356C221.013 38.896 220.798 38.3287 220.798 37.654V17.138C220.86 16.4633 221.105 15.9113 221.534 15.482C221.964 15.0527 222.5 14.838 223.144 14.838C223.85 14.838 224.417 15.0527 224.846 15.482C225.276 15.9113 225.49 16.4787 225.49 17.184V25.096H234.414V26.016C236.101 26.016 237.588 26.3073 238.876 26.89C240.195 27.4727 241.222 28.2853 241.958 29.328C242.694 30.34 243.062 31.5207 243.062 32.87C243.062 34.25 242.694 35.4767 241.958 36.55C241.222 37.6233 240.195 38.4667 238.876 39.08C237.588 39.6933 236.101 40 234.414 40H223.144ZM225.49 35.63H234.414C235.641 35.63 236.638 35.3387 237.404 34.756C238.171 34.1427 238.554 33.3607 238.554 32.41C238.554 31.398 238.171 30.57 237.404 29.926C236.638 29.282 235.641 28.96 234.414 28.96H225.49V35.63ZM230.78 27.58V25.096H235.15C235.917 25.096 236.546 24.8047 237.036 24.222C237.527 23.6087 237.772 22.842 237.772 21.922C237.772 21.1247 237.481 20.4653 236.898 19.944C236.316 19.4227 235.58 19.162 234.69 19.162H223.19V14.838H234.69C236.132 14.838 237.404 15.1293 238.508 15.712C239.643 16.264 240.532 17.046 241.176 18.058C241.82 19.0393 242.142 20.174 242.142 21.462C242.142 23.2407 241.468 24.7127 240.118 25.878C238.8 27.0127 237.144 27.58 235.15 27.58H230.78ZM260.237 40.184C257.753 40.184 255.561 39.6473 253.659 38.574C251.758 37.47 250.255 35.9673 249.151 34.066C248.078 32.134 247.541 29.926 247.541 27.442C247.541 24.9273 248.078 22.7193 249.151 20.818C250.255 18.886 251.758 17.3833 253.659 16.31C255.561 15.206 257.753 14.654 260.237 14.654C262.691 14.654 264.868 15.206 266.769 16.31C268.671 17.3833 270.158 18.886 271.231 20.818C272.335 22.7193 272.887 24.9273 272.887 27.442C272.887 29.926 272.351 32.134 271.277 34.066C270.204 35.9673 268.717 37.47 266.815 38.574C264.914 39.6473 262.721 40.184 260.237 40.184ZM260.237 36.044C261.832 36.044 263.243 35.676 264.469 34.94C265.696 34.204 266.647 33.192 267.321 31.904C268.027 30.616 268.379 29.1287 268.379 27.442C268.379 25.7553 268.027 24.268 267.321 22.98C266.647 21.6613 265.696 20.634 264.469 19.898C263.243 19.162 261.832 18.794 260.237 18.794C258.643 18.794 257.232 19.162 256.005 19.898C254.779 20.634 253.813 21.6613 253.107 22.98C252.402 24.268 252.049 25.7553 252.049 27.442C252.049 29.1287 252.402 30.616 253.107 31.904C253.813 33.192 254.779 34.204 256.005 34.94C257.232 35.676 258.643 36.044 260.237 36.044ZM303.835 40.184C301.535 40.184 299.496 39.6473 297.717 38.574C295.969 37.47 294.589 35.9673 293.577 34.066C292.565 32.134 292.059 29.926 292.059 27.442C292.059 24.9273 292.596 22.7193 293.669 20.818C294.773 18.886 296.276 17.3833 298.177 16.31C300.078 15.206 302.271 14.654 304.755 14.654C307.208 14.654 309.386 15.206 311.287 16.31C313.188 17.3833 314.676 18.886 315.749 20.818C316.853 22.7193 317.405 24.9273 317.405 27.442H314.691C314.691 29.926 314.216 32.134 313.265 34.066C312.345 35.9673 311.072 37.47 309.447 38.574C307.822 39.6473 305.951 40.184 303.835 40.184ZM304.663 50.442C302.486 50.442 300.446 50.0127 298.545 49.154C296.644 48.2953 295.034 47.038 293.715 45.382C293.316 44.8607 293.163 44.324 293.255 43.772C293.378 43.22 293.684 42.7753 294.175 42.438C294.727 42.07 295.294 41.9473 295.877 42.07C296.49 42.1927 296.981 42.4993 297.349 42.99C298.177 44.0327 299.22 44.8453 300.477 45.428C301.734 46.0107 303.16 46.302 304.755 46.302C306.227 46.302 307.576 45.9493 308.803 45.244C310.06 44.5387 311.057 43.496 311.793 42.116C312.529 40.736 312.897 39.0493 312.897 37.056V30.524L314.415 26.476L317.405 27.442V37.378C317.405 39.8007 316.868 41.9933 315.795 43.956C314.722 45.9493 313.219 47.5287 311.287 48.694C309.386 49.8593 307.178 50.442 304.663 50.442ZM304.755 36.044C306.35 36.044 307.76 35.676 308.987 34.94C310.214 34.204 311.164 33.192 311.839 31.904C312.544 30.616 312.897 29.1287 312.897 27.442C312.897 25.7553 312.544 24.268 311.839 22.98C311.164 21.6613 310.214 20.634 308.987 19.898C307.76 19.162 306.35 18.794 304.755 18.794C303.16 18.794 301.75 19.162 300.523 19.898C299.296 20.634 298.33 21.6613 297.625 22.98C296.92 24.268 296.567 25.7553 296.567 27.442C296.567 29.1287 296.92 30.616 297.625 31.904C298.33 33.192 299.296 34.204 300.523 34.94C301.75 35.676 303.16 36.044 304.755 36.044ZM335.796 40.184C333.312 40.184 331.119 39.6473 329.218 38.574C327.317 37.47 325.814 35.9673 324.71 34.066C323.637 32.134 323.1 29.926 323.1 27.442C323.1 24.9273 323.637 22.7193 324.71 20.818C325.814 18.886 327.317 17.3833 329.218 16.31C331.119 15.206 333.312 14.654 335.796 14.654C338.249 14.654 340.427 15.206 342.328 16.31C344.229 17.3833 345.717 18.886 346.79 20.818C347.894 22.7193 348.446 24.9273 348.446 27.442C348.446 29.926 347.909 32.134 346.836 34.066C345.763 35.9673 344.275 37.47 342.374 38.574C340.473 39.6473 338.28 40.184 335.796 40.184ZM335.796 36.044C337.391 36.044 338.801 35.676 340.028 34.94C341.255 34.204 342.205 33.192 342.88 31.904C343.585 30.616 343.938 29.1287 343.938 27.442C343.938 25.7553 343.585 24.268 342.88 22.98C342.205 21.6613 341.255 20.634 340.028 19.898C338.801 19.162 337.391 18.794 335.796 18.794C334.201 18.794 332.791 19.162 331.564 19.898C330.337 20.634 329.371 21.6613 328.666 22.98C327.961 24.268 327.608 25.7553 327.608 27.442C327.608 29.1287 327.961 30.616 328.666 31.904C329.371 33.192 330.337 34.204 331.564 34.94C332.791 35.676 334.201 36.044 335.796 36.044ZM357.775 40C357.1 40 356.533 39.7853 356.073 39.356C355.644 38.896 355.429 38.3287 355.429 37.654V17.184C355.429 16.4787 355.644 15.9113 356.073 15.482C356.533 15.0527 357.1 14.838 357.775 14.838C358.756 14.838 359.584 15.3133 360.259 16.264L369.781 30.018L379.303 16.264C379.978 15.3133 380.806 14.838 381.787 14.838C382.492 14.838 383.06 15.0527 383.489 15.482C383.918 15.9113 384.133 16.4787 384.133 17.184V37.654C384.133 38.3287 383.918 38.896 383.489 39.356C383.06 39.7853 382.492 40 381.787 40C381.112 40 380.545 39.7853 380.085 39.356C379.656 38.896 379.441 38.3287 379.441 37.654V20.91L380.637 21.278L372.173 33.238C371.406 34.3113 370.578 34.848 369.689 34.848C368.8 34.8173 367.987 34.2807 367.251 33.238L358.925 21.278L360.121 20.91V37.654C360.121 38.3287 359.906 38.896 359.477 39.356C359.048 39.7853 358.48 40 357.775 40ZM402.888 40.184C400.649 40.184 398.64 39.632 396.862 38.528C395.083 37.3933 393.672 35.8753 392.63 33.974C391.618 32.042 391.112 29.8647 391.112 27.442C391.112 25.0193 391.664 22.842 392.768 20.91C393.902 18.978 395.42 17.46 397.322 16.356C399.254 15.2213 401.416 14.654 403.808 14.654C406.2 14.654 408.346 15.2213 410.248 16.356C412.149 17.46 413.652 18.978 414.756 20.91C415.89 22.842 416.458 25.0193 416.458 27.442H414.664C414.664 29.8647 414.142 32.042 413.1 33.974C412.088 35.8753 410.692 37.3933 408.914 38.528C407.135 39.632 405.126 40.184 402.888 40.184ZM403.808 36.044C405.372 36.044 406.767 35.676 407.994 34.94C409.22 34.1733 410.186 33.146 410.892 31.858C411.597 30.5393 411.95 29.0673 411.95 27.442C411.95 25.786 411.597 24.314 410.892 23.026C410.186 21.7073 409.22 20.68 407.994 19.944C406.767 19.1773 405.372 18.794 403.808 18.794C402.274 18.794 400.879 19.1773 399.622 19.944C398.395 20.68 397.414 21.7073 396.678 23.026C395.972 24.314 395.62 25.786 395.62 27.442C395.62 29.0673 395.972 30.5393 396.678 31.858C397.414 33.146 398.395 34.1733 399.622 34.94C400.879 35.676 402.274 36.044 403.808 36.044ZM414.112 40.046C413.437 40.046 412.87 39.8313 412.41 39.402C411.98 38.942 411.766 38.3747 411.766 37.7V30.662L412.64 25.786L416.458 27.442V37.7C416.458 38.3747 416.228 38.942 415.768 39.402C415.338 39.8313 414.786 40.046 414.112 40.046Z" fill="black"></path> <path d="M318.334 9.39173L306.355 2.18262C305.944 1.93387 305.437 1.93951 305.03 2.19789L293.642 9.40759C293.017 9.80285 292.814 10.6587 293.186 11.3198C293.559 11.9813 294.368 12.1977 294.991 11.802L305.722 5.00949L317.034 11.8175C317.239 11.9409 317.462 12 317.682 12C318.14 12 318.586 11.7457 318.828 11.2933C319.187 10.6237 318.966 9.7724 318.334 9.39173Z" fill="#36BEC6"></path> </svg> 