<?xml version="1.0" encoding="UTF-8"?> <svg xmlns="http://www.w3.org/2000/svg" width="105" height="105" viewBox="0 0 105 105" fill="none"> <circle cx="52.5" cy="52.5" r="52.5" fill="#DDFFEF"></circle> <path d="M81.6901 31.5384L38.3802 19.9336L24.2223 72.7716L67.5322 84.3765L81.6901 31.5384Z" fill="white"></path> <path d="M81.0762 29.4694L39.8561 18.4859C39.1107 18.2873 38.3169 18.3928 37.6495 18.7792C36.982 19.1655 36.4955 19.8011 36.2969 20.5461L22.8209 71.1096C22.6223 71.8546 22.728 72.648 23.1146 73.3152C23.5013 73.9825 24.1373 74.4689 24.8827 74.6675L66.1029 85.651C66.8482 85.8496 67.642 85.7441 68.3094 85.3578C68.9769 84.9714 69.4634 84.3358 69.662 83.5908L83.138 33.0274C83.3366 32.2823 83.2309 31.489 82.8443 30.8217C82.4576 30.1545 81.8216 29.668 81.0762 29.4694ZM67.7883 83.0915C67.7222 83.3399 67.56 83.5517 67.3375 83.6805C67.115 83.8093 66.8504 83.8445 66.602 83.7783L25.3818 72.7948C25.1333 72.7286 24.9213 72.5665 24.7924 72.344C24.6636 72.1216 24.6283 71.8572 24.6945 71.6088L38.1706 21.0454C38.2368 20.7971 38.3989 20.5852 38.6214 20.4564C38.8439 20.3276 39.1085 20.2924 39.3569 20.3587L80.5771 31.3421C80.8256 31.4083 81.0376 31.5705 81.1665 31.7929C81.2954 32.0153 81.3306 32.2798 81.2644 32.5281L67.7883 83.0915Z" fill="#31DEB5"></path> <path d="M79.1409 32.9659L39.7985 22.4806C39.5501 22.4144 39.2856 22.4496 39.0631 22.5783C38.8406 22.7071 38.6785 22.919 38.6123 23.1674L27.1335 66.2429C27.0673 66.4912 27.1026 66.7557 27.2314 66.9782C27.3603 67.2006 27.5723 67.3627 27.8207 67.429L67.163 77.9142C67.4114 77.9804 67.676 77.9453 67.8985 77.8165C68.1209 77.6877 68.2831 77.4758 68.3493 77.2274L79.828 34.1519C79.8942 33.9036 79.859 33.6391 79.7301 33.4167C79.6013 33.1942 79.3893 33.0321 79.1409 32.9659ZM66.7254 75.7917L29.2565 65.8058L40.2362 24.6031L77.7051 34.589L66.7254 75.7917Z" fill="#31DEB5"></path> <path d="M46.2138 77.3288C47.2484 77.6046 48.3105 76.9896 48.5861 75.9551C48.8617 74.9207 48.2465 73.8586 47.2119 73.5828C46.1773 73.3071 45.1152 73.9221 44.8396 74.9565C44.564 75.9909 45.1792 77.053 46.2138 77.3288Z" fill="#31DEB5"></path> <path d="M55.2563 70.1231C55.2839 70.3106 55.3661 70.4859 55.4927 70.6273C55.6193 70.7688 55.7848 70.8701 55.9686 70.9188C56.1525 70.9676 56.3467 70.9615 56.5271 70.9014C56.7075 70.8414 56.8662 70.7299 56.9836 70.5809L61.5516 64.7773C61.6331 64.6743 61.6926 64.5556 61.7261 64.4288L68.7208 38.2259C68.9858 37.2331 68.8439 36.1761 68.3263 35.2872C67.8087 34.3984 66.9579 33.7506 65.9609 33.4864C64.9639 33.2222 63.9025 33.3632 63.0101 33.8784C62.1178 34.3936 61.4676 35.2407 61.2025 36.2335L54.2079 62.4364C54.1738 62.5631 54.1662 62.6955 54.1856 62.8252L55.2563 70.1231ZM56.6293 66.0841L57.8059 66.3959L56.8526 67.6072L56.6293 66.0841ZM59.1119 64.738L56.3226 63.9988L56.1374 62.7473L60.8338 45.1539L64.5929 46.1501L59.8966 63.7435L59.1119 64.738ZM61.8331 41.4107L65.5922 42.4069L65.0926 44.2785L61.3334 43.2823L61.8331 41.4107ZM65.4613 35.3581C65.9598 35.4902 66.3852 35.8141 66.644 36.2585C66.9028 36.7029 66.9737 37.2314 66.8412 37.7278L66.0918 40.5352L62.3327 39.539L63.0821 36.7316C63.2146 36.2352 63.5397 35.8116 63.9859 35.554C64.4321 35.2965 64.9628 35.226 65.4613 35.3581Z" fill="#31DEB5"></path> <path d="M40.7174 26.7249L42.5907 27.2242L42.0916 29.0972L40.2184 28.5978L40.7174 26.7249Z" fill="#31DEB5"></path> <path d="M44.459 27.7275L48.2037 28.7267L47.7051 30.6012L43.9604 29.602L44.459 27.7275Z" fill="#31DEB5"></path> </svg> 