<?xml version="1.0" encoding="UTF-8"?> <svg xmlns="http://www.w3.org/2000/svg" width="526" height="51" viewBox="0 0 526 51" fill="none"> <path d="M6.992 40C6.31733 40 5.75 39.77 5.29 39.31C4.83 38.85 4.6 38.2827 4.6 37.608V6.466C4.6 5.76067 4.83 5.19333 5.29 4.764C5.75 4.304 6.31733 4.074 6.992 4.074H17.986C20.0713 4.074 21.896 4.488 23.46 5.316C25.0547 6.11333 26.2967 7.23266 27.186 8.674C28.106 10.1153 28.566 11.7713 28.566 13.642C28.566 15.1447 28.152 16.5093 27.324 17.736C26.5267 18.932 25.4227 19.8827 24.012 20.588C26.036 21.0787 27.6613 22.0447 28.888 23.486C30.1147 24.9273 30.728 26.8133 30.728 29.144C30.728 31.26 30.222 33.1307 29.21 34.756C28.2287 36.3813 26.8487 37.6693 25.07 38.62C23.2913 39.54 21.252 40 18.952 40H6.992ZM9.384 35.584H18.952C20.3627 35.584 21.6047 35.3387 22.678 34.848C23.7513 34.3573 24.5947 33.6367 25.208 32.686C25.8213 31.7353 26.128 30.5547 26.128 29.144C26.128 27.8253 25.8213 26.7367 25.208 25.878C24.5947 25.0193 23.7513 24.3753 22.678 23.946C21.6047 23.486 20.3627 23.256 18.952 23.256H9.384V35.584ZM9.384 18.84H17.986C19.734 18.84 21.16 18.4107 22.264 17.552C23.3987 16.6933 23.966 15.39 23.966 13.642C23.966 11.894 23.3987 10.606 22.264 9.778C21.16 8.91933 19.734 8.49 17.986 8.49H9.384V18.84ZM48.7902 40.184C46.3369 40.184 44.1442 39.632 42.2122 38.528C40.3109 37.3933 38.8082 35.8753 37.7042 33.974C36.6309 32.042 36.0942 29.8647 36.0942 27.442C36.0942 24.958 36.6309 22.75 37.7042 20.818C38.7775 18.886 40.2495 17.3833 42.1202 16.31C43.9909 15.206 46.1375 14.654 48.5602 14.654C50.3695 14.654 52.0255 15.0067 53.5282 15.712C55.0309 16.3867 56.3802 17.414 57.5762 18.794C58.0055 19.2847 58.1589 19.7907 58.0362 20.312C57.9135 20.8333 57.5762 21.2933 57.0242 21.692C56.5949 21.9987 56.1195 22.106 55.5982 22.014C55.0769 21.8913 54.6015 21.6153 54.1722 21.186C52.6695 19.5913 50.7989 18.794 48.5602 18.794C46.9962 18.794 45.6162 19.162 44.4202 19.898C43.2242 20.6033 42.2889 21.6 41.6142 22.888C40.9395 24.176 40.6022 25.694 40.6022 27.442C40.6022 29.098 40.9395 30.57 41.6142 31.858C42.3195 33.146 43.2855 34.1733 44.5122 34.94C45.7389 35.676 47.1649 36.044 48.7902 36.044C49.8635 36.044 50.7989 35.9213 51.5962 35.676C52.4242 35.4 53.1755 34.986 53.8502 34.434C54.3409 34.0353 54.8469 33.8207 55.3682 33.79C55.8895 33.7287 56.3495 33.8667 56.7482 34.204C57.2695 34.6333 57.5609 35.124 57.6222 35.676C57.6835 36.1973 57.4995 36.6727 57.0702 37.102C54.8622 39.1567 52.1022 40.184 48.7902 40.184ZM98.0371 40.046C97.3625 40.046 96.7951 39.8313 96.3351 39.402C95.9058 38.942 95.6911 38.3747 95.6911 37.7V24.544C95.6911 22.612 95.2158 21.186 94.2651 20.266C93.3145 19.3153 92.0725 18.84 90.5391 18.84C88.9445 18.84 87.6258 19.392 86.5831 20.496C85.5711 21.6 85.0651 23.0107 85.0651 24.728H81.2471C81.2471 22.7347 81.6765 20.9867 82.5351 19.484C83.3938 17.9507 84.5898 16.7547 86.1231 15.896C87.6871 15.0373 89.4658 14.608 91.4591 14.608C93.2071 14.608 94.7558 14.9913 96.1051 15.758C97.4545 16.5247 98.4971 17.6593 99.2331 19.162C99.9998 20.634 100.383 22.428 100.383 24.544V37.7C100.383 38.3747 100.168 38.942 99.7391 39.402C99.3098 39.8313 98.7425 40.046 98.0371 40.046ZM67.3551 40.046C66.6805 40.046 66.1131 39.8313 65.6531 39.402C65.2238 38.942 65.0091 38.3747 65.0091 37.7V17.23C65.0091 16.5247 65.2238 15.9573 65.6531 15.528C66.1131 15.0987 66.6805 14.884 67.3551 14.884C68.0605 14.884 68.6278 15.0987 69.0571 15.528C69.4865 15.9573 69.7011 16.5247 69.7011 17.23V37.7C69.7011 38.3747 69.4865 38.942 69.0571 39.402C68.6278 39.8313 68.0605 40.046 67.3551 40.046ZM82.7191 40.046C82.0445 40.046 81.4771 39.8313 81.0171 39.402C80.5878 38.942 80.3731 38.3747 80.3731 37.7V24.544C80.3731 22.612 79.8978 21.186 78.9471 20.266C77.9965 19.3153 76.7545 18.84 75.2211 18.84C73.6265 18.84 72.3078 19.392 71.2651 20.496C70.2225 21.6 69.7011 23.0107 69.7011 24.728H66.8031C66.8031 22.7347 67.2018 20.9867 67.9991 19.484C68.7965 17.9507 69.9005 16.7547 71.3111 15.896C72.7218 15.0373 74.3318 14.608 76.1411 14.608C77.8891 14.608 79.4378 14.9913 80.7871 15.758C82.1365 16.5247 83.1791 17.6593 83.9151 19.162C84.6818 20.634 85.0651 22.428 85.0651 24.544V37.7C85.0651 38.3747 84.8505 38.942 84.4211 39.402C83.9918 39.8313 83.4245 40.046 82.7191 40.046ZM110.525 50.764C109.85 50.764 109.283 50.534 108.823 50.074C108.394 49.6447 108.179 49.0927 108.179 48.418V27.442C108.21 25.0193 108.777 22.842 109.881 20.91C110.985 18.978 112.488 17.46 114.389 16.356C116.29 15.2213 118.437 14.654 120.829 14.654C123.252 14.654 125.414 15.2213 127.315 16.356C129.216 17.46 130.719 18.978 131.823 20.91C132.958 22.842 133.525 25.0193 133.525 27.442C133.525 29.8647 133.004 32.042 131.961 33.974C130.949 35.8753 129.554 37.3933 127.775 38.528C125.996 39.632 123.988 40.184 121.749 40.184C119.94 40.184 118.268 39.816 116.735 39.08C115.232 38.3133 113.944 37.286 112.871 35.998V48.418C112.871 49.0927 112.656 49.6447 112.227 50.074C111.798 50.534 111.23 50.764 110.525 50.764ZM120.829 36.044C122.393 36.044 123.788 35.676 125.015 34.94C126.242 34.1733 127.208 33.146 127.913 31.858C128.649 30.5393 129.017 29.0673 129.017 27.442C129.017 25.786 128.649 24.314 127.913 23.026C127.208 21.7073 126.242 20.68 125.015 19.944C123.788 19.1773 122.393 18.794 120.829 18.794C119.296 18.794 117.9 19.1773 116.643 19.944C115.416 20.68 114.45 21.7073 113.745 23.026C113.04 24.314 112.687 25.786 112.687 27.442C112.687 29.0673 113.04 30.5393 113.745 31.858C114.45 33.146 115.416 34.1733 116.643 34.94C117.9 35.676 119.296 36.044 120.829 36.044ZM152.345 40.184C149.799 40.184 147.53 39.6473 145.537 38.574C143.574 37.47 142.025 35.9673 140.891 34.066C139.787 32.134 139.235 29.926 139.235 27.442C139.235 24.9273 139.756 22.7193 140.799 20.818C141.872 18.886 143.344 17.3833 145.215 16.31C147.085 15.206 149.232 14.654 151.655 14.654C154.047 14.654 156.101 15.1907 157.819 16.264C159.536 17.3067 160.839 18.7633 161.729 20.634C162.649 22.474 163.109 24.6053 163.109 27.028C163.109 27.6107 162.909 28.1013 162.511 28.5C162.112 28.868 161.606 29.052 160.993 29.052H142.455V25.372H160.855L158.969 26.66C158.938 25.1267 158.631 23.762 158.049 22.566C157.466 21.3393 156.638 20.3733 155.565 19.668C154.491 18.9627 153.188 18.61 151.655 18.61C149.907 18.61 148.404 18.9933 147.147 19.76C145.92 20.5267 144.985 21.5847 144.341 22.934C143.697 24.2527 143.375 25.7553 143.375 27.442C143.375 29.1287 143.758 30.6313 144.525 31.95C145.291 33.2687 146.349 34.3113 147.699 35.078C149.048 35.8447 150.597 36.228 152.345 36.228C153.295 36.228 154.261 36.0593 155.243 35.722C156.255 35.354 157.067 34.94 157.681 34.48C158.141 34.1427 158.631 33.974 159.153 33.974C159.705 33.9433 160.18 34.0967 160.579 34.434C161.1 34.894 161.376 35.4 161.407 35.952C161.437 36.504 161.192 36.9793 160.671 37.378C159.628 38.206 158.325 38.8807 156.761 39.402C155.227 39.9233 153.755 40.184 152.345 40.184ZM176.729 32.456C174.521 32.456 172.696 31.95 171.255 30.938C169.814 29.926 168.74 28.546 168.035 26.798C167.36 25.0193 167.023 22.98 167.023 20.68V17.184C167.023 16.4787 167.238 15.9113 167.667 15.482C168.127 15.0527 168.694 14.838 169.369 14.838C170.074 14.838 170.642 15.0527 171.071 15.482C171.5 15.9113 171.715 16.4787 171.715 17.184V20.68C171.715 22.888 172.144 24.6973 173.003 26.108C173.892 27.5187 175.441 28.224 177.649 28.224C179.397 28.224 180.823 27.9327 181.927 27.35C183.062 26.7673 183.629 26.016 183.629 25.096H186.067C186.067 26.5373 185.668 27.81 184.871 28.914C184.074 30.018 182.97 30.892 181.559 31.536C180.179 32.1493 178.569 32.456 176.729 32.456ZM185.975 40C185.3 40 184.733 39.7853 184.273 39.356C183.844 38.896 183.629 38.3287 183.629 37.654V17.184C183.629 16.4787 183.844 15.9113 184.273 15.482C184.733 15.0527 185.3 14.838 185.975 14.838C186.68 14.838 187.248 15.0527 187.677 15.482C188.106 15.9113 188.321 16.4787 188.321 17.184V37.654C188.321 38.3287 188.106 38.896 187.677 39.356C187.248 39.7853 186.68 40 185.975 40ZM207.073 40.184C204.835 40.184 202.826 39.632 201.047 38.528C199.269 37.3933 197.858 35.8753 196.815 33.974C195.803 32.042 195.297 29.8647 195.297 27.442C195.297 25.0193 195.849 22.842 196.953 20.91C198.088 18.978 199.606 17.46 201.507 16.356C203.439 15.2213 205.601 14.654 207.993 14.654C210.385 14.654 212.532 15.2213 214.433 16.356C216.335 17.46 217.837 18.978 218.941 20.91C220.076 22.842 220.643 25.0193 220.643 27.442H218.849C218.849 29.8647 218.328 32.042 217.285 33.974C216.273 35.8753 214.878 37.3933 213.099 38.528C211.321 39.632 209.312 40.184 207.073 40.184ZM207.993 36.044C209.557 36.044 210.953 35.676 212.179 34.94C213.406 34.1733 214.372 33.146 215.077 31.858C215.783 30.5393 216.135 29.0673 216.135 27.442C216.135 25.786 215.783 24.314 215.077 23.026C214.372 21.7073 213.406 20.68 212.179 19.944C210.953 19.1773 209.557 18.794 207.993 18.794C206.46 18.794 205.065 19.1773 203.807 19.944C202.581 20.68 201.599 21.7073 200.863 23.026C200.158 24.314 199.805 25.786 199.805 27.442C199.805 29.0673 200.158 30.5393 200.863 31.858C201.599 33.146 202.581 34.1733 203.807 34.94C205.065 35.676 206.46 36.044 207.993 36.044ZM218.297 40.046C217.623 40.046 217.055 39.8313 216.595 39.402C216.166 38.942 215.951 38.3747 215.951 37.7V30.662L216.825 25.786L220.643 27.442V37.7C220.643 38.3747 220.413 38.942 219.953 39.402C219.524 39.8313 218.972 40.046 218.297 40.046ZM238.206 40.23C236.09 40.23 234.189 39.7853 232.502 38.896C230.846 37.976 229.528 36.642 228.546 34.894C227.596 33.146 227.12 30.9993 227.12 28.454V17.138C227.12 16.4633 227.335 15.9113 227.764 15.482C228.224 15.022 228.792 14.792 229.466 14.792C230.141 14.792 230.693 15.022 231.122 15.482C231.582 15.9113 231.812 16.4633 231.812 17.138V28.454C231.812 30.1713 232.134 31.5973 232.778 32.732C233.422 33.836 234.296 34.664 235.4 35.216C236.504 35.7373 237.746 35.998 239.126 35.998C240.445 35.998 241.61 35.7373 242.622 35.216C243.665 34.6947 244.493 33.9893 245.106 33.1C245.72 32.2107 246.026 31.214 246.026 30.11H248.924C248.924 32.0113 248.449 33.7287 247.498 35.262C246.578 36.7953 245.306 38.0067 243.68 38.896C242.086 39.7853 240.261 40.23 238.206 40.23ZM248.372 40C247.698 40 247.13 39.7853 246.67 39.356C246.241 38.896 246.026 38.3287 246.026 37.654V17.138C246.026 16.4327 246.241 15.8653 246.67 15.436C247.13 15.0067 247.698 14.792 248.372 14.792C249.078 14.792 249.645 15.0067 250.074 15.436C250.504 15.8653 250.718 16.4327 250.718 17.138V37.654C250.718 38.3287 250.504 38.896 250.074 39.356C249.645 39.7853 249.078 40 248.372 40ZM239.172 11.526C237.608 11.526 236.198 11.2653 234.94 10.744C233.683 10.192 232.686 9.456 231.95 8.536C231.214 7.58533 230.846 6.52733 230.846 5.362C230.846 4.718 231.046 4.18133 231.444 3.752C231.843 3.32266 232.334 3.108 232.916 3.108C233.53 3.108 234.02 3.32266 234.388 3.752C234.787 4.18133 234.986 4.718 234.986 5.362C234.986 6.12866 235.385 6.788 236.182 7.34C236.98 7.86133 237.976 8.122 239.172 8.122C240.368 8.122 241.365 7.86133 242.162 7.34C242.96 6.788 243.358 6.12866 243.358 5.362C243.358 4.718 243.558 4.18133 243.956 3.752C244.355 3.32266 244.846 3.108 245.428 3.108C246.042 3.108 246.532 3.32266 246.9 3.752C247.299 4.18133 247.498 4.718 247.498 5.362C247.498 6.52733 247.13 7.58533 246.394 8.536C245.658 9.456 244.662 10.192 243.404 10.744C242.178 11.2653 240.767 11.526 239.172 11.526ZM292.01 40.046C291.335 40.046 290.768 39.8313 290.308 39.402C289.878 38.942 289.664 38.3747 289.664 37.7V24.544C289.664 22.612 289.188 21.186 288.238 20.266C287.287 19.3153 286.045 18.84 284.512 18.84C282.917 18.84 281.598 19.392 280.556 20.496C279.544 21.6 279.038 23.0107 279.038 24.728H275.22C275.22 22.7347 275.649 20.9867 276.508 19.484C277.366 17.9507 278.562 16.7547 280.096 15.896C281.66 15.0373 283.438 14.608 285.432 14.608C287.18 14.608 288.728 14.9913 290.078 15.758C291.427 16.5247 292.47 17.6593 293.206 19.162C293.972 20.634 294.356 22.428 294.356 24.544V37.7C294.356 38.3747 294.141 38.942 293.712 39.402C293.282 39.8313 292.715 40.046 292.01 40.046ZM261.328 40.046C260.653 40.046 260.086 39.8313 259.626 39.402C259.196 38.942 258.982 38.3747 258.982 37.7V17.23C258.982 16.5247 259.196 15.9573 259.626 15.528C260.086 15.0987 260.653 14.884 261.328 14.884C262.033 14.884 262.6 15.0987 263.03 15.528C263.459 15.9573 263.674 16.5247 263.674 17.23V37.7C263.674 38.3747 263.459 38.942 263.03 39.402C262.6 39.8313 262.033 40.046 261.328 40.046ZM276.692 40.046C276.017 40.046 275.45 39.8313 274.99 39.402C274.56 38.942 274.346 38.3747 274.346 37.7V24.544C274.346 22.612 273.87 21.186 272.92 20.266C271.969 19.3153 270.727 18.84 269.194 18.84C267.599 18.84 266.28 19.392 265.238 20.496C264.195 21.6 263.674 23.0107 263.674 24.728H260.776C260.776 22.7347 261.174 20.9867 261.972 19.484C262.769 17.9507 263.873 16.7547 265.284 15.896C266.694 15.0373 268.304 14.608 270.114 14.608C271.862 14.608 273.41 14.9913 274.76 15.758C276.109 16.5247 277.152 17.6593 277.888 19.162C278.654 20.634 279.038 22.428 279.038 24.544V37.7C279.038 38.3747 278.823 38.942 278.394 39.402C277.964 39.8313 277.397 40.046 276.692 40.046ZM313.974 40.184C311.428 40.184 309.159 39.6473 307.166 38.574C305.203 37.47 303.654 35.9673 302.52 34.066C301.416 32.134 300.864 29.926 300.864 27.442C300.864 24.9273 301.385 22.7193 302.428 20.818C303.501 18.886 304.973 17.3833 306.844 16.31C308.714 15.206 310.861 14.654 313.284 14.654C315.676 14.654 317.73 15.1907 319.448 16.264C321.165 17.3067 322.468 18.7633 323.358 20.634C324.278 22.474 324.738 24.6053 324.738 27.028C324.738 27.6107 324.538 28.1013 324.14 28.5C323.741 28.868 323.235 29.052 322.622 29.052H304.084V25.372H322.484L320.598 26.66C320.567 25.1267 320.26 23.762 319.678 22.566C319.095 21.3393 318.267 20.3733 317.194 19.668C316.12 18.9627 314.817 18.61 313.284 18.61C311.536 18.61 310.033 18.9933 308.776 19.76C307.549 20.5267 306.614 21.5847 305.97 22.934C305.326 24.2527 305.004 25.7553 305.004 27.442C305.004 29.1287 305.387 30.6313 306.154 31.95C306.92 33.2687 307.978 34.3113 309.328 35.078C310.677 35.8447 312.226 36.228 313.974 36.228C314.924 36.228 315.89 36.0593 316.872 35.722C317.884 35.354 318.696 34.94 319.31 34.48C319.77 34.1427 320.26 33.974 320.782 33.974C321.334 33.9433 321.809 34.0967 322.208 34.434C322.729 34.894 323.005 35.4 323.036 35.952C323.066 36.504 322.821 36.9793 322.3 37.378C321.257 38.206 319.954 38.8807 318.39 39.402C316.856 39.9233 315.384 40.184 313.974 40.184ZM341.232 40.184C338.778 40.184 336.586 39.632 334.654 38.528C332.752 37.3933 331.25 35.8753 330.146 33.974C329.072 32.042 328.536 29.8647 328.536 27.442C328.536 24.958 329.072 22.75 330.146 20.818C331.219 18.886 332.691 17.3833 334.562 16.31C336.432 15.206 338.579 14.654 341.002 14.654C342.811 14.654 344.467 15.0067 345.97 15.712C347.472 16.3867 348.822 17.414 350.018 18.794C350.447 19.2847 350.6 19.7907 350.478 20.312C350.355 20.8333 350.018 21.2933 349.466 21.692C349.036 21.9987 348.561 22.106 348.04 22.014C347.518 21.8913 347.043 21.6153 346.614 21.186C345.111 19.5913 343.24 18.794 341.002 18.794C339.438 18.794 338.058 19.162 336.862 19.898C335.666 20.6033 334.73 21.6 334.056 22.888C333.381 24.176 333.044 25.694 333.044 27.442C333.044 29.098 333.381 30.57 334.056 31.858C334.761 33.146 335.727 34.1733 336.954 34.94C338.18 35.676 339.606 36.044 341.232 36.044C342.305 36.044 343.24 35.9213 344.038 35.676C344.866 35.4 345.617 34.986 346.292 34.434C346.782 34.0353 347.288 33.8207 347.81 33.79C348.331 33.7287 348.791 33.8667 349.19 34.204C349.711 34.6333 350.002 35.124 350.064 35.676C350.125 36.1973 349.941 36.6727 349.512 37.102C347.304 39.1567 344.544 40.184 341.232 40.184ZM368.813 40.414C366.513 40.414 364.504 40 362.787 39.172C361.1 38.344 359.781 37.1787 358.831 35.676C357.911 34.1427 357.451 32.3487 357.451 30.294V17.138C357.512 16.494 357.757 15.9573 358.187 15.528C358.647 15.068 359.183 14.838 359.797 14.838C360.471 14.838 361.023 15.068 361.453 15.528C361.913 15.9573 362.143 16.5093 362.143 17.184V22.336H369.687C371.68 22.336 373.459 22.6887 375.023 23.394C376.617 24.0687 377.875 25.0653 378.795 26.384C379.715 27.672 380.175 29.2207 380.175 31.03C380.175 32.8393 379.699 34.4493 378.749 35.86C377.829 37.2707 376.525 38.39 374.839 39.218C373.152 40.0153 371.143 40.414 368.813 40.414ZM368.767 36.09C370.729 36.09 372.37 35.676 373.689 34.848C375.007 33.9893 375.667 32.7167 375.667 31.03C375.667 29.4353 375.099 28.2547 373.965 27.488C372.83 26.6907 371.404 26.292 369.687 26.292H362.143V30.202C362.143 31.306 362.434 32.3027 363.017 33.192C363.599 34.0813 364.381 34.7867 365.363 35.308C366.375 35.8293 367.509 36.09 368.767 36.09ZM410.345 40.184C408.045 40.184 406.005 39.6473 404.227 38.574C402.479 37.47 401.099 35.9673 400.087 34.066C399.075 32.134 398.569 29.926 398.569 27.442C398.569 24.9273 399.105 22.7193 400.179 20.818C401.283 18.886 402.785 17.3833 404.687 16.31C406.588 15.206 408.781 14.654 411.265 14.654C413.718 14.654 415.895 15.206 417.797 16.31C419.698 17.3833 421.185 18.886 422.259 20.818C423.363 22.7193 423.915 24.9273 423.915 27.442H421.201C421.201 29.926 420.725 32.134 419.775 34.066C418.855 35.9673 417.582 37.47 415.957 38.574C414.331 39.6473 412.461 40.184 410.345 40.184ZM411.173 50.442C408.995 50.442 406.956 50.0127 405.055 49.154C403.153 48.2953 401.543 47.038 400.225 45.382C399.826 44.8607 399.673 44.324 399.765 43.772C399.887 43.22 400.194 42.7753 400.685 42.438C401.237 42.07 401.804 41.9473 402.387 42.07C403 42.1927 403.491 42.4993 403.859 42.99C404.687 44.0327 405.729 44.8453 406.987 45.428C408.244 46.0107 409.67 46.302 411.265 46.302C412.737 46.302 414.086 45.9493 415.313 45.244C416.57 44.5387 417.567 43.496 418.303 42.116C419.039 40.736 419.407 39.0493 419.407 37.056V30.524L420.925 26.476L423.915 27.442V37.378C423.915 39.8007 423.378 41.9933 422.305 43.956C421.231 45.9493 419.729 47.5287 417.797 48.694C415.895 49.8593 413.687 50.442 411.173 50.442ZM411.265 36.044C412.859 36.044 414.27 35.676 415.497 34.94C416.723 34.204 417.674 33.192 418.349 31.904C419.054 30.616 419.407 29.1287 419.407 27.442C419.407 25.7553 419.054 24.268 418.349 22.98C417.674 21.6613 416.723 20.634 415.497 19.898C414.27 19.162 412.859 18.794 411.265 18.794C409.67 18.794 408.259 19.162 407.033 19.898C405.806 20.634 404.84 21.6613 404.135 22.98C403.429 24.268 403.077 25.7553 403.077 27.442C403.077 29.1287 403.429 30.616 404.135 31.904C404.84 33.192 405.806 34.204 407.033 34.94C408.259 35.676 409.67 36.044 411.265 36.044ZM442.306 40.184C439.822 40.184 437.629 39.6473 435.728 38.574C433.826 37.47 432.324 35.9673 431.22 34.066C430.146 32.134 429.61 29.926 429.61 27.442C429.61 24.9273 430.146 22.7193 431.22 20.818C432.324 18.886 433.826 17.3833 435.728 16.31C437.629 15.206 439.822 14.654 442.306 14.654C444.759 14.654 446.936 15.206 448.838 16.31C450.739 17.3833 452.226 18.886 453.3 20.818C454.404 22.7193 454.956 24.9273 454.956 27.442C454.956 29.926 454.419 32.134 453.346 34.066C452.272 35.9673 450.785 37.47 448.884 38.574C446.982 39.6473 444.79 40.184 442.306 40.184ZM442.306 36.044C443.9 36.044 445.311 35.676 446.538 34.94C447.764 34.204 448.715 33.192 449.39 31.904C450.095 30.616 450.448 29.1287 450.448 27.442C450.448 25.7553 450.095 24.268 449.39 22.98C448.715 21.6613 447.764 20.634 446.538 19.898C445.311 19.162 443.9 18.794 442.306 18.794C440.711 18.794 439.3 19.162 438.074 19.898C436.847 20.634 435.881 21.6613 435.176 22.98C434.47 24.268 434.118 25.7553 434.118 27.442C434.118 29.1287 434.47 30.616 435.176 31.904C435.881 33.192 436.847 34.204 438.074 34.94C439.3 35.676 440.711 36.044 442.306 36.044ZM464.285 40C463.61 40 463.043 39.7853 462.583 39.356C462.153 38.896 461.939 38.3287 461.939 37.654V17.184C461.939 16.4787 462.153 15.9113 462.583 15.482C463.043 15.0527 463.61 14.838 464.285 14.838C465.266 14.838 466.094 15.3133 466.769 16.264L476.291 30.018L485.813 16.264C486.487 15.3133 487.315 14.838 488.297 14.838C489.002 14.838 489.569 15.0527 489.999 15.482C490.428 15.9113 490.643 16.4787 490.643 17.184V37.654C490.643 38.3287 490.428 38.896 489.999 39.356C489.569 39.7853 489.002 40 488.297 40C487.622 40 487.055 39.7853 486.595 39.356C486.165 38.896 485.951 38.3287 485.951 37.654V20.91L487.147 21.278L478.683 33.238C477.916 34.3113 477.088 34.848 476.199 34.848C475.309 34.8173 474.497 34.2807 473.761 33.238L465.435 21.278L466.631 20.91V37.654C466.631 38.3287 466.416 38.896 465.987 39.356C465.557 39.7853 464.99 40 464.285 40ZM509.398 40.184C507.159 40.184 505.15 39.632 503.372 38.528C501.593 37.3933 500.182 35.8753 499.14 33.974C498.128 32.042 497.622 29.8647 497.622 27.442C497.622 25.0193 498.174 22.842 499.278 20.91C500.412 18.978 501.93 17.46 503.832 16.356C505.764 15.2213 507.926 14.654 510.318 14.654C512.71 14.654 514.856 15.2213 516.758 16.356C518.659 17.46 520.162 18.978 521.266 20.91C522.4 22.842 522.968 25.0193 522.968 27.442H521.174C521.174 29.8647 520.652 32.042 519.61 33.974C518.598 35.8753 517.202 37.3933 515.424 38.528C513.645 39.632 511.636 40.184 509.398 40.184ZM510.318 36.044C511.882 36.044 513.277 35.676 514.504 34.94C515.73 34.1733 516.696 33.146 517.402 31.858C518.107 30.5393 518.46 29.0673 518.46 27.442C518.46 25.786 518.107 24.314 517.402 23.026C516.696 21.7073 515.73 20.68 514.504 19.944C513.277 19.1773 511.882 18.794 510.318 18.794C508.784 18.794 507.389 19.1773 506.132 19.944C504.905 20.68 503.924 21.7073 503.188 23.026C502.482 24.314 502.13 25.786 502.13 27.442C502.13 29.0673 502.482 30.5393 503.188 31.858C503.924 33.146 504.905 34.1733 506.132 34.94C507.389 35.676 508.784 36.044 510.318 36.044ZM520.622 40.046C519.947 40.046 519.38 39.8313 518.92 39.402C518.49 38.942 518.276 38.3747 518.276 37.7V30.662L519.15 25.786L522.968 27.442V37.7C522.968 38.3747 522.738 38.942 522.278 39.402C521.848 39.8313 521.296 40.046 520.622 40.046Z" fill="black"></path> <path d="M424.334 9.39173L412.355 2.18262C411.944 1.93387 411.437 1.93951 411.03 2.19789L399.642 9.40759C399.017 9.80285 398.814 10.6587 399.186 11.3198C399.559 11.9813 400.368 12.1977 400.991 11.802L411.722 5.00949L423.034 11.8175C423.239 11.9409 423.462 12 423.682 12C424.14 12 424.586 11.7457 424.828 11.2933C425.187 10.6237 424.966 9.7724 424.334 9.39173Z" fill="#697ED7"></path> </svg> 