<?xml version="1.0" encoding="UTF-8"?> <svg xmlns="http://www.w3.org/2000/svg" width="812" height="425" viewBox="0 0 812 425" fill="none"> <path d="M554.009 386.702C553.931 386.702 553.872 386.639 553.872 386.564V377.584C553.872 377.506 553.934 377.446 554.009 377.446H811.17C811.248 377.446 811.308 377.509 811.308 377.584V386.564C811.308 386.642 811.245 386.702 811.17 386.702H554.009Z" fill="#7C95FA"></path> <path d="M811.172 377.582V386.562H554.011V377.582H811.172ZM811.172 377.304H554.011C553.859 377.304 553.733 377.429 553.733 377.582V386.562C553.733 386.715 553.859 386.841 554.011 386.841H811.172C811.325 386.841 811.451 386.715 811.451 386.562V377.582C811.451 377.429 811.325 377.304 811.172 377.304Z" fill="#404040"></path> <path d="M554.01 424.424C553.932 424.424 553.872 424.362 553.872 424.287V415.307C553.872 415.229 553.935 415.169 554.01 415.169H811.171C811.248 415.169 811.308 415.232 811.308 415.307V424.287C811.308 424.365 811.245 424.424 811.171 424.424H554.01Z" fill="#7C95FA"></path> <path d="M811.172 415.304V424.284H554.011V415.304H811.172ZM811.172 415.029H554.011C553.858 415.029 553.732 415.155 553.732 415.307V424.287C553.732 424.44 553.858 424.566 554.011 424.566H811.172C811.324 424.566 811.45 424.44 811.45 424.287V415.307C811.45 415.152 811.324 415.029 811.172 415.029Z" fill="#404040"></path> <path d="M554.01 416.072H657.152V386.153H554.01V416.072Z" fill="#CCCCCC"></path> <path d="M657.153 416.211H554.011C553.933 416.211 553.873 416.148 553.873 416.074V386.155C553.873 386.077 553.936 386.017 554.011 386.017H657.153C657.231 386.017 657.291 386.08 657.291 386.155V416.074C657.291 416.148 657.228 416.211 657.153 416.211ZM554.148 415.933H657.013V386.292H554.148V415.933Z" fill="#404040"></path> <path d="M811.031 385.071H653.017V417.004H811.031V385.071Z" fill="white"></path> <path d="M810.893 385.211V416.866H653.154V385.211H810.893ZM811.172 384.933H652.879V417.145H811.172V384.933Z" fill="#404040"></path> <path d="M809.657 394.377H654.322C654.244 394.377 654.184 394.315 654.184 394.24C654.184 394.162 654.247 394.102 654.322 394.102H809.657C809.735 394.102 809.795 394.165 809.795 394.24C809.798 394.318 809.735 394.377 809.657 394.377Z" fill="#404040"></path> <path d="M759.063 401.253H674.455C674.377 401.253 674.317 401.19 674.317 401.115C674.317 401.037 674.38 400.978 674.455 400.978H759.063C759.141 400.978 759.2 401.04 759.2 401.115C759.2 401.19 759.138 401.253 759.063 401.253Z" fill="#404040"></path> <path d="M809.657 408.126H732.023C731.946 408.126 731.886 408.063 731.886 407.988C731.886 407.91 731.949 407.851 732.023 407.851H809.657C809.734 407.851 809.794 407.913 809.794 407.988C809.797 408.066 809.734 408.126 809.657 408.126Z" fill="#404040"></path> <path d="M653.076 408.126H594.077C593.999 408.126 593.939 408.063 593.939 407.988C593.939 407.91 594.002 407.851 594.077 407.851H653.076C653.154 407.851 653.214 407.913 653.214 407.988C653.214 408.066 653.154 408.126 653.076 408.126Z" fill="#404040"></path> <path d="M613.944 400.81H554.945C554.867 400.81 554.807 400.747 554.807 400.672C554.807 400.595 554.87 400.535 554.945 400.535H613.944C614.022 400.535 614.082 400.598 614.082 400.672C614.085 400.747 614.022 400.81 613.944 400.81Z" fill="#404040"></path> <path d="M208.351 163.666C210.809 164.879 213.557 166.001 216.628 167.004L219.04 173.003C219.738 174.739 221.725 175.565 223.447 174.835C225.452 173.985 226.126 171.479 224.815 169.74L223.716 168.282C222.902 167.202 223.441 165.642 224.749 165.298C225.506 165.097 225.946 164.307 225.719 163.559C225.512 162.879 224.827 162.469 224.129 162.604L220.54 163.307C218.268 161.472 215.79 159.018 213.365 156.417L208.351 163.666Z" fill="white"></path> <path d="M222.144 175.344C221.677 175.344 221.21 175.251 220.767 175.065C219.872 174.694 219.177 173.991 218.815 173.09L216.445 167.196C213.517 166.235 210.757 165.118 208.246 163.882C208.183 163.852 208.135 163.792 208.117 163.723C208.099 163.655 208.111 163.583 208.153 163.523L213.167 156.276C213.209 156.216 213.275 156.177 213.349 156.171C213.424 156.168 213.496 156.195 213.544 156.249C216.277 159.179 218.588 161.404 220.605 163.044L224.084 162.361C224.904 162.2 225.709 162.682 225.951 163.484C226.083 163.912 226.035 164.361 225.817 164.75C225.598 165.139 225.242 165.418 224.811 165.531C224.266 165.675 223.85 166.061 223.668 166.591C223.485 167.121 223.572 167.684 223.91 168.133L225.009 169.59C225.679 170.479 225.898 171.605 225.61 172.68C225.323 173.754 224.569 174.619 223.542 175.053C223.09 175.251 222.617 175.344 222.144 175.344ZM208.713 163.574C211.167 164.768 213.855 165.843 216.702 166.774C216.771 166.795 216.825 166.848 216.852 166.914L219.264 172.913C219.579 173.691 220.177 174.299 220.953 174.619C221.728 174.943 222.581 174.94 223.353 174.61C224.239 174.236 224.892 173.488 225.14 172.557C225.389 171.629 225.2 170.653 224.619 169.887L223.521 168.429C223.09 167.857 222.973 167.112 223.207 166.435C223.44 165.759 223.994 165.247 224.685 165.064C224.988 164.984 225.239 164.789 225.389 164.517C225.541 164.244 225.574 163.93 225.485 163.631C225.314 163.071 224.751 162.733 224.176 162.843L220.587 163.547C220.516 163.562 220.444 163.544 220.387 163.496C218.381 161.877 216.094 159.685 213.394 156.803L208.713 163.574Z" fill="#404040"></path> <path d="M220.052 167.848C220.013 167.848 219.974 167.848 219.935 167.845C219.324 167.804 218.798 167.438 218.376 166.765C218.304 166.651 218.34 166.501 218.453 166.43C218.567 166.358 218.717 166.394 218.789 166.507C219.124 167.043 219.522 167.331 219.971 167.36C220.971 167.429 221.959 166.268 221.968 166.256C221.992 166.226 222.021 166.205 222.057 166.19L224.254 165.235C224.377 165.181 224.521 165.238 224.575 165.361C224.629 165.484 224.572 165.627 224.449 165.681L222.303 166.612C222.093 166.843 221.135 167.848 220.052 167.848Z" fill="#404040"></path> <path d="M542.023 211.412C541.978 211.412 541.933 211.406 541.888 211.388C541.783 211.352 541.697 211.277 541.649 211.178L481.641 88.6565C481.593 88.5578 481.584 88.444 481.62 88.3392C481.656 88.2345 481.73 88.1477 481.832 88.0998L530.355 64.3354C530.415 64.3054 530.477 64.2935 530.537 64.2935C530.693 64.2935 530.84 64.3803 530.912 64.5269L590.92 187.049C591.021 187.255 590.935 187.507 590.728 187.606L542.206 211.37C542.149 211.397 542.086 211.412 542.023 211.412Z" fill="#E6E6E6"></path> <path d="M530.537 64.7062L590.545 187.228L542.023 210.993L482.014 88.4707L530.537 64.7062ZM530.537 63.8711C530.414 63.8711 530.289 63.898 530.172 63.9549L481.649 87.7193C481.452 87.8181 481.299 87.9887 481.227 88.1983C481.155 88.4078 481.17 88.6383 481.266 88.8358L541.274 211.358C541.373 211.555 541.544 211.708 541.753 211.78C541.84 211.81 541.933 211.825 542.023 211.825C542.148 211.825 542.274 211.795 542.391 211.741L590.913 187.976C591.326 187.773 591.497 187.273 591.297 186.86L531.288 64.3381C531.142 64.0417 530.845 63.8711 530.537 63.8711Z" fill="#404040"></path> <path d="M542.307 216.872L595.014 191.057C595.143 190.994 595.197 190.838 595.134 190.71L592.985 186.324C592.922 186.196 592.766 186.142 592.638 186.204L539.93 212.019C539.801 212.082 539.748 212.238 539.81 212.367L541.96 216.752C542.023 216.881 542.178 216.934 542.307 216.872Z" fill="#404040"></path> <path d="M559.396 228.97C559.351 228.97 559.306 228.964 559.261 228.946C559.157 228.91 559.07 228.835 559.022 228.734L551.102 212.56C551.054 212.462 551.045 212.348 551.081 212.24C551.116 212.135 551.191 212.049 551.293 212.001L585.663 195.166C585.723 195.136 585.786 195.124 585.846 195.124C586.001 195.124 586.148 195.211 586.22 195.357L594.143 211.531C594.191 211.629 594.2 211.746 594.164 211.851C594.128 211.956 594.053 212.043 593.955 212.09L559.585 228.925C559.522 228.958 559.459 228.97 559.396 228.97Z" fill="#E6E6E6"></path> <path d="M585.845 195.547L593.769 211.72L559.399 228.555L551.475 212.381L585.845 195.547ZM585.845 194.711C585.72 194.711 585.594 194.741 585.477 194.795L551.107 211.63C550.694 211.834 550.524 212.333 550.724 212.747L558.648 228.92C558.743 229.117 558.917 229.27 559.127 229.342C559.213 229.372 559.306 229.387 559.396 229.387C559.522 229.387 559.647 229.357 559.764 229.303L594.134 212.468C594.547 212.265 594.718 211.765 594.517 211.352L586.597 195.178C586.498 194.981 586.327 194.828 586.118 194.756C586.028 194.726 585.938 194.711 585.845 194.711Z" fill="#404040"></path> <path d="M557.253 229.602L595.909 210.669C596.038 210.606 596.193 210.66 596.256 210.789L598.406 215.177C598.468 215.306 598.415 215.461 598.286 215.524L585.007 222.029L592.931 238.205L580.831 244.132L572.908 227.956L559.629 234.46C559.501 234.523 559.345 234.469 559.282 234.34L557.133 229.952C557.073 229.82 557.124 229.665 557.253 229.602Z" fill="#404040"></path> <path d="M480.311 121.873L479.006 119.206C478.814 118.817 478.976 118.347 479.365 118.159L493.227 111.37L522.341 170.812L508.479 177.601C508.09 177.793 507.62 177.631 507.431 177.242L504.183 170.609C452.281 160.919 425.107 234.703 446.276 267.118C467.888 300.213 512.466 289.407 512.466 289.407L627.283 258.338L631.336 271.848L546.3 295.378C533.743 298.854 526.062 311.504 528.774 324.25L528.867 324.681L560.327 313.704C562.464 309.417 575.132 303.275 591.153 299.054C609.427 294.238 625.142 293.747 626.25 297.956C627.358 302.164 613.441 309.477 595.167 314.294C583.047 317.488 572.055 318.778 565.7 318.059L530.1 330.482L537.454 365.052C476.668 371.805 409.805 347.493 403.052 260.368C397.864 193.49 453.954 142.136 480.311 121.873Z" fill="#404040"></path> <path d="M480.168 149.059C474.382 149.059 469.209 145.832 466.665 140.642C464.899 137.038 464.644 132.964 465.943 129.165C467.242 125.37 469.945 122.308 473.547 120.541C475.627 119.524 477.845 119.006 480.144 119.006C485.93 119.006 491.103 122.233 493.647 127.423C495.413 131.027 495.668 135.101 494.368 138.9C493.069 142.695 490.369 145.758 486.765 147.524C484.685 148.542 482.467 149.059 480.168 149.059Z" fill="#E6E6E6"></path> <path d="M480.146 119.425C485.546 119.425 490.737 122.433 493.272 127.608C496.82 134.852 493.823 143.602 486.579 147.149C484.511 148.161 482.323 148.64 480.167 148.64C474.767 148.64 469.577 145.632 467.041 140.456C463.494 133.212 466.491 124.462 473.735 120.915C475.8 119.903 477.988 119.425 480.146 119.425ZM480.146 118.589V119.425V118.589C477.785 118.589 475.501 119.119 473.366 120.167C469.664 121.981 466.886 125.13 465.551 129.03C464.216 132.931 464.479 137.121 466.293 140.824C467.589 143.467 469.595 145.673 472.097 147.203C474.531 148.691 477.324 149.475 480.17 149.475C482.532 149.475 484.813 148.945 486.95 147.898C490.653 146.084 493.431 142.934 494.766 139.034C496.101 135.134 495.841 130.943 494.027 127.24C492.731 124.597 490.725 122.391 488.223 120.861C485.786 119.377 482.993 118.589 480.146 118.589Z" fill="#404040"></path> <path d="M485.438 131.447C486.866 134.365 485.66 137.888 482.744 139.316C479.826 140.744 476.303 139.538 474.875 136.622C473.447 133.704 474.653 130.18 477.569 128.753C480.487 127.322 484.011 128.528 485.438 131.447Z" fill="#7C95FA"></path> <path d="M480.161 140.334C479.473 140.334 478.784 140.22 478.114 139.989C476.521 139.445 475.237 138.313 474.498 136.801C472.971 133.682 474.264 129.902 477.383 128.375C480.502 126.848 484.283 128.142 485.81 131.261C487.336 134.38 486.043 138.16 482.924 139.687C482.05 140.118 481.11 140.334 480.161 140.334ZM480.146 128.57C479.341 128.57 478.524 128.749 477.751 129.126C475.045 130.452 473.923 133.73 475.246 136.436C475.89 137.747 477.003 138.729 478.383 139.202C479.763 139.675 481.248 139.582 482.556 138.939C485.262 137.613 486.384 134.335 485.061 131.629C484.115 129.695 482.17 128.57 480.146 128.57Z" fill="#404040"></path> <path d="M409.527 424.288H609.131V399.868C609.131 398.434 607.97 397.272 606.536 397.272H412.122C410.688 397.272 409.527 398.434 409.527 399.868V424.288V424.288Z" fill="#404040"></path> <path d="M418.779 397.689C418.632 397.689 418.495 397.611 418.42 397.486C418.345 397.36 418.342 397.201 418.411 397.073L459.303 321.711C463.374 314.207 471.208 309.546 479.745 309.546C482.397 309.546 485.016 309.998 487.528 310.893C497.972 314.605 504.369 325.256 502.74 336.217L493.664 397.333C493.634 397.537 493.458 397.689 493.251 397.689H418.779V397.689Z" fill="#E6E6E6"></path> <path d="M479.745 309.962C482.29 309.962 484.873 310.39 487.39 311.285C497.673 314.94 503.932 325.36 502.33 336.154L493.254 397.27H418.779L459.672 321.909C463.761 314.374 471.567 309.962 479.745 309.962ZM479.745 309.13C471.056 309.13 463.081 313.874 458.938 321.513L418.046 396.875C417.905 397.132 417.911 397.446 418.061 397.698C418.211 397.949 418.483 398.105 418.779 398.105H493.254C493.668 398.105 494.018 397.803 494.081 397.393L503.157 336.277C503.959 330.865 502.851 325.303 500.034 320.612C497.218 315.922 492.826 312.33 487.672 310.498C485.109 309.591 482.445 309.13 479.745 309.13Z" fill="#404040"></path> <path d="M487.631 344.598C494.56 340.47 496.831 331.506 492.703 324.577C488.575 317.647 479.611 315.376 472.681 319.504C465.752 323.632 463.481 332.596 467.609 339.526C471.737 346.455 480.701 348.726 487.631 344.598Z" fill="#7C95FA"></path> <path d="M480.179 347.119C474.62 347.119 469.268 344.024 466.664 338.705C463.021 331.266 466.107 322.25 473.548 318.604C480.987 314.961 490.003 318.047 493.649 325.489C497.292 332.927 494.206 341.943 486.764 345.589C484.645 346.628 482.397 347.119 480.179 347.119ZM480.134 317.91C478.042 317.91 475.919 318.374 473.917 319.355C466.891 322.798 463.973 331.311 467.415 338.339C470.857 345.365 479.374 348.283 486.399 344.841C493.425 341.399 496.343 332.886 492.901 325.857C490.437 320.834 485.381 317.91 480.134 317.91Z" fill="#404040"></path> <path d="M485.439 329.509C486.867 332.427 485.661 335.95 482.745 337.378C479.827 338.806 476.304 337.6 474.876 334.684C473.448 331.766 474.654 328.243 477.57 326.815C480.488 325.387 484.012 326.593 485.439 329.509Z" fill="#404040"></path> <path d="M590.545 187.228L530.537 64.7061L514.738 72.3751L575.135 194.774L590.545 187.228Z" fill="white"></path> <path d="M473.833 32.8265L491.698 23.9691C491.838 23.9002 492.009 23.9571 492.078 24.1008L512.975 67.2922L530.255 58.8299C530.384 58.7671 530.54 58.821 530.603 58.9497L532.752 63.338C532.815 63.4667 532.761 63.6223 532.632 63.6852L479.922 89.5001C479.793 89.5629 479.637 89.509 479.575 89.3803L477.425 84.992C477.362 84.8633 477.416 84.7077 477.545 84.6448L494.556 76.3112L473.704 33.2096C473.636 33.0659 473.693 32.8953 473.833 32.8265Z" fill="#404040"></path> <path d="M120.136 395.675C62.873 395.675 15.6346 350.924 12.5873 293.795C12.4825 291.859 12.4316 289.898 12.4316 287.964C12.4316 273.426 15.2783 259.318 20.8969 246.039C26.3209 233.213 34.0887 221.694 43.9788 211.804C53.8689 201.914 65.3875 194.146 78.2141 188.722C91.4927 183.106 105.597 180.257 120.136 180.257C132.34 180.257 144.314 182.286 155.731 186.291C166.638 190.117 176.822 195.664 186.012 202.782L216.765 171.109C216.502 170.094 216.771 169.038 217.493 168.295C218.059 167.711 218.822 167.388 219.636 167.388C220.417 167.388 221.154 167.688 221.713 168.229L234.247 180.4C235.426 181.55 235.456 183.442 234.313 184.624C233.756 185.196 233.005 185.51 232.199 185.51C231.972 185.51 231.744 185.483 231.52 185.432L226.814 190.273L201.005 216.854C218.316 236.523 227.841 261.757 227.841 287.961C227.841 302.5 224.994 316.608 219.376 329.887C213.952 342.713 206.184 354.232 196.294 364.122C186.404 374.015 174.882 381.78 162.059 387.204C148.783 392.828 134.678 395.675 120.136 395.675Z" fill="#E6E6E6"></path> <path d="M219.636 167.807C220.279 167.807 220.926 168.046 221.423 168.531L226.508 173.467L233.956 180.702C234.974 181.693 234.998 183.315 234.013 184.336C233.516 184.848 232.86 185.096 232.199 185.096C231.926 185.096 231.654 185.055 231.391 184.971L226.514 189.988L200.436 216.844C217.22 235.777 227.424 260.673 227.424 287.964C227.424 347.218 179.39 395.255 120.133 395.255C62.8307 395.255 16.0173 350.325 13 293.771C12.8982 291.849 12.8443 289.913 12.8443 287.964C12.8443 228.707 60.879 180.672 120.133 180.672C144.99 180.672 167.856 189.147 186.047 203.338L217.232 171.222C216.921 170.333 217.088 169.306 217.789 168.585C218.298 168.07 218.965 167.807 219.636 167.807ZM219.639 166.975C218.711 166.975 217.843 167.343 217.196 168.007C216.427 168.798 216.109 169.899 216.313 170.983L185.975 202.228C176.83 195.193 166.707 189.703 155.874 185.902C144.412 181.882 132.391 179.843 120.139 179.843C105.543 179.843 91.3845 182.702 78.052 188.341C65.1775 193.786 53.6141 201.584 43.6851 211.513C33.756 221.442 25.9583 233.005 20.5133 245.883C14.8738 259.212 12.0151 273.374 12.0151 287.97C12.0151 289.91 12.069 291.876 12.1708 293.822C12.9161 307.78 16.2897 321.247 22.2016 333.846C27.9339 346.065 35.8185 356.994 45.6367 366.33C65.8181 385.524 92.2765 396.094 120.136 396.094C134.732 396.094 148.893 393.235 162.223 387.595C175.097 382.15 186.661 374.353 196.593 364.424C206.522 354.495 214.319 342.931 219.764 330.054C225.404 316.724 228.263 302.563 228.263 287.967C228.263 274.521 225.82 261.401 221.007 248.969C216.451 237.208 209.916 226.414 201.577 216.871L227.119 190.568L231.666 185.887C231.843 185.914 232.022 185.929 232.202 185.929C233.121 185.929 233.977 185.569 234.612 184.917C235.917 183.57 235.884 181.412 234.54 180.104L227.089 172.869L222.003 167.932C221.369 167.313 220.528 166.975 219.639 166.975Z" fill="#404040"></path> <path d="M38.3599 290.107C38.3599 337.318 76.6302 375.589 123.842 375.589C171.053 375.589 209.324 337.318 209.324 290.107C209.324 242.895 174.585 290.107 127.377 290.107C80.1654 290.107 38.3599 242.895 38.3599 290.107Z" fill="#7C95FA"></path> <path d="M123.842 376.005C100.898 376.005 79.3273 367.07 63.1032 350.846C46.8791 334.621 37.9438 313.051 37.9438 290.107C37.9438 279.618 39.9345 273.392 44.209 270.521C50.9561 265.986 62.4267 270.668 76.9475 276.592C91.2529 282.429 109.054 289.691 127.374 289.691C146.223 289.691 163.043 282.145 176.558 276.08C188.6 270.677 198.11 266.408 203.828 270.108C207.86 272.718 209.737 279.073 209.737 290.107C209.737 313.051 200.801 334.621 184.577 350.846C168.356 367.07 146.786 376.005 123.842 376.005ZM50.9621 269.533C48.5254 269.533 46.4181 270.039 44.673 271.213C40.7038 273.88 38.776 280.061 38.776 290.107C38.776 312.83 47.6244 334.19 63.6899 350.256C79.7553 366.321 101.119 375.17 123.839 375.17C146.561 375.17 167.922 366.321 183.988 350.256C200.053 334.19 208.902 312.827 208.902 290.107C208.902 279.382 207.144 273.248 203.373 270.809C198.039 267.354 188.708 271.539 176.896 276.84C163.309 282.938 146.397 290.526 127.371 290.526C108.887 290.526 91.0014 283.228 76.6273 277.364C66.2462 273.123 57.4427 269.533 50.9621 269.533Z" fill="#404040"></path> <path d="M417.205 424.582C388.696 424.582 365.5 401.386 365.5 372.877C365.5 361.502 369.125 350.711 375.983 341.671C382.553 333.008 391.86 326.528 402.214 323.394V235.631C399.609 235.625 397.49 233.502 397.49 230.895C397.49 228.285 399.612 226.16 402.223 226.16H432.186C434.797 226.16 436.919 228.285 436.919 230.895C436.919 233.502 434.803 235.625 432.195 235.631V323.394C442.546 326.528 451.853 333.008 458.426 341.671C465.284 350.711 468.909 361.499 468.909 372.877C468.909 374.176 468.861 375.484 468.765 376.756C468.765 376.771 468.762 376.789 468.759 376.804C467.787 389.766 461.997 401.799 452.458 410.698C442.861 419.651 430.34 424.582 417.205 424.582Z" fill="#E6E6E6"></path> <path d="M432.186 226.575C434.569 226.575 436.503 228.509 436.503 230.895C436.503 233.278 434.569 235.214 432.186 235.214H431.779V323.704C453.002 329.985 468.49 349.618 468.49 372.877C468.49 374.173 468.442 375.454 468.349 376.726H468.346C466.38 403.253 444.232 424.162 417.202 424.162C388.878 424.162 365.916 401.203 365.916 372.877C365.916 349.618 381.407 329.985 402.627 323.704V235.214H402.22C399.837 235.214 397.903 233.278 397.903 230.895C397.903 228.509 399.837 226.575 402.22 226.575H432.186ZM432.186 225.74H402.223C399.382 225.74 397.071 228.051 397.071 230.895C397.071 233.592 399.155 235.813 401.795 236.031V323.088C396.688 324.665 391.869 327.018 387.462 330.083C382.948 333.223 378.973 337.04 375.651 341.422C368.736 350.534 365.084 361.412 365.084 372.88C365.084 379.917 366.461 386.742 369.182 393.169C371.807 399.374 375.567 404.951 380.353 409.737C385.14 414.523 390.713 418.28 396.922 420.905C403.348 423.623 410.173 425 417.208 425C430.447 425 443.07 420.031 452.748 411.006C462.36 402.041 468.194 389.918 469.179 376.861C469.182 376.84 469.185 376.816 469.188 376.792C469.283 375.505 469.331 374.191 469.331 372.88C469.331 361.412 465.676 350.534 458.765 341.422C455.439 337.04 451.467 333.226 446.953 330.083C442.547 327.018 437.727 324.665 432.621 323.088V236.031C435.261 235.813 437.344 233.592 437.344 230.895C437.338 228.051 435.027 225.74 432.186 225.74Z" fill="#404040"></path> <path d="M374.017 372.877C374.017 396.731 393.354 416.066 417.205 416.066C441.059 416.066 460.393 396.728 460.393 372.877C460.393 349.023 441.056 359.922 417.205 359.922C393.354 359.922 374.017 349.026 374.017 372.877Z" fill="#7C95FA"></path> <path d="M417.205 416.484C393.159 416.484 373.598 396.923 373.598 372.877C373.598 366.594 374.954 362.346 377.738 359.889C382.272 355.889 389.968 356.856 399.712 358.084C404.995 358.748 410.982 359.502 417.202 359.502C423.422 359.502 429.409 358.748 434.692 358.084C444.436 356.856 452.132 355.889 456.667 359.889C459.454 362.346 460.807 366.594 460.807 372.877C460.813 396.923 441.251 416.484 417.205 416.484ZM387.717 357.85C383.769 357.85 380.563 358.512 378.291 360.517C375.696 362.807 374.433 366.851 374.433 372.88C374.433 396.465 393.62 415.652 417.205 415.652C440.79 415.652 459.978 396.465 459.978 372.88C459.978 366.851 458.714 362.807 456.119 360.517C451.868 356.766 444.337 357.715 434.8 358.916C429.493 359.583 423.476 360.341 417.205 360.341C410.934 360.341 404.917 359.583 399.61 358.916C395.168 358.356 391.16 357.85 387.717 357.85Z" fill="#404040"></path> <path d="M431.806 367.344C431.806 368.91 433.075 370.179 434.641 370.179C436.206 370.179 437.476 368.91 437.476 367.344C437.476 365.779 436.206 364.51 434.641 364.51C433.075 364.51 431.806 365.779 431.806 367.344Z" fill="white"></path> <path d="M420.198 377.684C420.198 379.25 421.467 380.519 423.033 380.519C424.598 380.519 425.868 379.25 425.868 377.684C425.868 376.119 424.598 374.85 423.033 374.85C421.467 374.85 420.198 376.119 420.198 377.684Z" fill="white"></path> <path d="M410.547 333.059C410.547 334.624 411.817 335.894 413.382 335.894C414.948 335.894 416.217 334.624 416.217 333.059C416.217 331.493 414.948 330.224 413.382 330.224C411.817 330.224 410.547 331.493 410.547 333.059Z" fill="#7C95FA"></path> <path d="M425.867 390.02C425.867 392.777 428.103 395.013 430.86 395.013C433.617 395.013 435.853 392.777 435.853 390.02C435.853 387.263 433.617 385.027 430.86 385.027C428.103 385.027 425.867 387.26 425.867 390.02Z" fill="white"></path> <path d="M397.718 347.604C397.718 350.361 399.954 352.597 402.711 352.597C405.468 352.597 407.704 350.361 407.704 347.604C407.704 344.847 405.468 342.611 402.711 342.611C399.954 342.611 397.718 344.847 397.718 347.604Z" fill="#7C95FA"></path> <path d="M391.962 216.309C390.914 216.309 389.899 215.941 389.109 215.276C388.005 214.345 387.418 212.953 387.52 211.516L317.741 149.937C314.556 147.126 314.251 142.247 317.061 139.062L327.586 127.136C329.047 125.481 331.154 124.529 333.366 124.529C335.243 124.529 337.054 125.214 338.461 126.457L408.24 188.036C408.527 187.979 408.82 187.952 409.111 187.952C410.248 187.952 411.335 188.378 412.167 189.15C413.945 190.796 414.056 193.649 412.415 195.508L406.108 202.653L414.406 209.975C415.562 210.995 415.852 212.708 415.101 214.049C414.993 214.246 414.855 214.438 414.696 214.62C414.074 215.327 413.173 215.731 412.23 215.731C411.428 215.731 410.655 215.438 410.054 214.908L401.756 207.583L395.449 214.728C394.566 215.734 393.294 216.309 391.962 216.309Z" fill="#E6E6E6"></path> <path d="M333.366 124.945C335.078 124.945 336.799 125.546 338.185 126.767L408.122 188.488C408.446 188.407 408.778 188.368 409.113 188.368C410.104 188.368 411.098 188.724 411.885 189.455C413.525 190.972 413.582 193.556 412.103 195.232L405.521 202.691L414.133 210.292C415.166 211.205 415.387 212.692 414.741 213.848C414.645 214.021 414.525 214.189 414.387 214.348C413.819 214.991 413.028 215.318 412.235 215.318C411.559 215.318 410.879 215.081 410.334 214.599L401.722 206.999L395.14 214.458C394.308 215.398 393.134 215.895 391.964 215.895C391.048 215.895 390.132 215.593 389.381 214.958C388.282 214.033 387.8 212.662 387.956 211.345L351.769 179.412L318.016 149.625C314.998 146.961 314.711 142.354 317.375 139.337L323.057 132.898L327.897 127.414C329.34 125.78 331.348 124.945 333.366 124.945ZM333.366 124.109C331.034 124.109 328.813 125.112 327.271 126.857L322.431 132.341L316.747 138.78C315.31 140.405 314.594 142.495 314.729 144.662C314.864 146.826 315.834 148.811 317.462 150.248L351.215 180.035L387.091 211.696C387.049 213.192 387.684 214.623 388.839 215.596C389.707 216.326 390.815 216.727 391.961 216.727C393.413 216.727 394.799 216.102 395.763 215.009L401.794 208.175L409.781 215.225C410.457 215.823 411.328 216.15 412.232 216.15C413.295 216.15 414.31 215.692 415.01 214.895C415.19 214.692 415.345 214.473 415.468 214.249C416.312 212.746 415.983 210.815 414.684 209.666L406.697 202.62L412.726 195.786C414.516 193.756 414.39 190.643 412.448 188.844C411.538 188 410.349 187.536 409.107 187.536C408.859 187.536 408.607 187.554 408.362 187.593L338.736 126.142C337.251 124.834 335.344 124.109 333.366 124.109Z" fill="#404040"></path> <path d="M189.54 293.714C193.684 293.542 196.903 290.042 196.731 285.898C196.558 281.754 193.059 278.535 188.915 278.707C184.771 278.88 181.551 282.379 181.724 286.523C181.896 290.667 185.396 293.887 189.54 293.714Z" fill="white"></path> <path d="M139.249 308.771C139.249 312.919 142.61 316.281 146.759 316.281C150.908 316.281 154.269 312.919 154.269 308.771C154.269 304.622 150.908 301.26 146.759 301.26C142.61 301.26 139.249 304.622 139.249 308.771Z" fill="white"></path> <path d="M178.307 322.642C178.467 318.497 175.236 315.008 171.091 314.849C166.946 314.69 163.456 317.921 163.297 322.066C163.138 326.211 166.369 329.7 170.514 329.859C174.659 330.018 178.148 326.787 178.307 322.642Z" fill="white"></path> <path d="M130.248 348.079C136.765 348.079 142.048 342.796 142.048 336.279C142.048 329.762 136.765 324.479 130.248 324.479C123.731 324.479 118.448 329.762 118.448 336.279C118.448 342.796 123.731 348.079 130.248 348.079Z" fill="white"></path> <path d="M230.28 176.329L225.778 172.105L266.85 122.508C271.903 116.407 279.021 112.564 286.894 111.687C294.77 110.81 302.555 112.995 308.827 117.835L324.614 130.024L320.875 134.867L305.088 122.678C294.677 114.641 279.952 116.279 271.565 126.408L230.28 176.329Z" fill="#404040"></path> <path d="M16.3348 381.094C23.4501 363.915 40.0633 352.815 58.6582 352.815H181.108C190.205 352.815 199.012 355.489 206.573 360.544C214.134 365.6 219.968 372.718 223.444 381.124L239.736 420.544L233.052 423.306L216.759 383.887C210.773 369.405 196.779 360.044 181.108 360.044H123.483V421.923H116.251V360.044H58.6582C42.9998 360.044 29.0088 369.393 23.019 383.86L6.6812 423.309L0 420.541L16.3348 381.094Z" fill="#404040"></path> <path d="M323.057 132.895L361.716 167.373L397.951 199.686L414.385 214.345L414.738 213.845C415.387 212.689 415.163 211.202 414.13 210.289L405.518 202.688L412.101 195.229C413.579 193.553 413.522 190.969 411.882 189.452C410.828 188.476 409.407 188.167 408.119 188.485L338.182 126.764C335.165 124.1 330.558 124.388 327.894 127.405L323.057 132.895Z" fill="white"></path> <path d="M387.933 211.456C387.834 211.456 387.735 211.42 387.657 211.351C387.484 211.199 387.469 210.935 387.621 210.762L407.524 188.209C407.677 188.036 407.94 188.021 408.114 188.173C408.288 188.326 408.303 188.59 408.15 188.763L388.247 211.315C388.163 211.408 388.049 211.456 387.933 211.456Z" fill="#404040"></path> <path d="M354.496 420.493H348.378V179.813C348.378 179.101 348.626 178.412 349.078 177.864L368.808 153.986L373.525 157.884L354.496 180.915V420.493Z" fill="#404040"></path> <path d="M226.508 173.47L189.22 211.04C75.4746 193.421 28.4307 262.247 13.0028 293.777C12.9011 291.855 12.8472 289.918 12.8472 287.97C12.8472 228.713 60.8819 180.678 120.136 180.678C144.993 180.678 167.859 189.152 186.05 203.344L217.235 171.228C216.924 170.339 217.091 169.312 217.792 168.591C218.779 167.573 220.405 167.549 221.426 168.534L226.508 173.47Z" fill="white"></path> <path d="M231.304 185.749C231.199 185.749 231.094 185.71 231.014 185.632L216.532 171.569C216.367 171.407 216.361 171.144 216.523 170.979C216.684 170.815 216.948 170.809 217.112 170.97L231.594 185.033C231.759 185.195 231.765 185.458 231.603 185.623C231.523 185.707 231.415 185.749 231.304 185.749Z" fill="#404040"></path> <path d="M468.493 372.877C468.493 374.173 468.445 375.454 468.352 376.726H468.349C461.641 337.588 423.036 332.002 423.036 332.002V226.576H432.189C434.572 226.576 436.506 228.509 436.506 230.895C436.506 233.278 434.572 235.215 432.189 235.215H431.782V323.705C453.005 329.985 468.493 349.618 468.493 372.877Z" fill="white"></path> <path d="M432.186 236.02H402.627C402.396 236.02 402.21 235.834 402.21 235.604C402.21 235.373 402.396 235.188 402.627 235.188H432.186C432.417 235.188 432.602 235.373 432.602 235.604C432.605 235.834 432.417 236.02 432.186 236.02Z" fill="#404040"></path> <path d="M401.42 177.394C400.582 177.394 399.884 177.098 399.346 176.514C397.753 174.793 397.942 171.12 397.963 170.767L419.111 104.35L438.999 109.355L401.657 171.919C401.633 171.961 401.621 172.009 401.624 172.06L401.944 177.361C401.761 177.382 401.588 177.394 401.42 177.394Z" fill="white"></path> <path d="M419.273 104.64L438.622 109.511L401.447 171.794C401.397 171.878 401.373 171.976 401.379 172.072L401.684 177.14C401.594 177.146 401.504 177.149 401.418 177.149C400.642 177.149 400.02 176.888 399.523 176.35C398.032 174.742 398.176 171.282 398.203 170.809L419.273 104.64ZM418.95 104.057L397.724 170.722C397.724 170.722 397.191 177.637 401.424 177.637C401.666 177.637 401.926 177.613 402.202 177.565L401.87 172.042L439.374 109.199L418.95 104.057Z" fill="#404040"></path> <path d="M402.199 177.565L397.721 170.722L392.719 173.781L404.177 183.761L402.199 177.565Z" fill="#404040"></path> <path d="M405.827 131.655C404.746 131.655 403.672 131.479 402.642 131.134L366.257 118.933C366.233 118.924 366.207 118.921 366.18 118.921C366.147 118.921 366.114 118.927 366.081 118.942L362.444 120.538L365.772 114.171L402.69 117.272C402.696 117.272 402.705 117.272 402.711 117.272C402.813 117.272 402.902 117.209 402.938 117.113L409.281 100.354L425.706 105.822L414.663 126.384C412.903 129.632 409.515 131.655 405.827 131.655Z" fill="white"></path> <path d="M409.428 100.653L425.356 105.957L414.508 126.154L414.448 126.261C412.73 129.437 409.425 131.41 405.824 131.41C404.767 131.41 403.723 131.239 402.714 130.901L366.329 118.7C366.279 118.682 366.228 118.676 366.174 118.676C366.108 118.676 366.039 118.691 365.979 118.718L362.974 120.035L365.907 114.426L402.666 117.512C402.681 117.512 402.693 117.515 402.708 117.515C402.908 117.515 403.091 117.392 403.163 117.201L409.428 100.653ZM409.138 100.042L402.711 117.021L365.632 113.908L361.908 121.032L366.18 119.158L402.564 131.362C403.642 131.724 404.743 131.898 405.827 131.898C409.521 131.898 413.038 129.895 414.879 126.495C414.897 126.459 414.918 126.423 414.936 126.387L426.059 105.679L409.138 100.042Z" fill="#404040"></path> <path d="M361.908 121.035L366.18 114.06L362.195 111.447L354.365 124.944L361.908 121.035Z" fill="#404040"></path> <path d="M456.721 20.1607L463.279 25.4141L466.111 21.2084L466.246 21.3162C468.335 21.6095 470.499 20.7025 471.721 18.8137L472.586 17.4158L474.13 17.5445L474.433 14.4553L474.893 14.0572C474.893 14.0572 481.928 6.22656 474.792 1.60778C470.811 -0.969513 466.299 2.28728 463.674 6.24752C461.594 9.38757 460.654 13.6292 460.654 13.6292C460.274 14.177 456.721 20.1607 456.721 20.1607Z" fill="white"></path> <path d="M463.279 25.6572C463.225 25.6572 463.171 25.6393 463.126 25.6033L456.568 20.35C456.472 20.2751 456.448 20.1404 456.511 20.0357C456.652 19.7962 459.932 14.2704 460.426 13.5281C460.537 13.0551 461.504 9.07691 463.471 6.11047C466.269 1.88682 470.894 -1.20833 474.923 1.3989C476.833 2.63517 477.929 4.21567 478.177 6.09251C478.71 10.1126 475.223 14.0519 475.073 14.2165C475.067 14.2255 475.058 14.2315 475.052 14.2375L474.666 14.5728L474.372 17.5661C474.36 17.6978 474.241 17.7966 474.109 17.7846L472.714 17.6679L471.927 18.9401C470.694 20.8439 468.452 21.8676 466.21 21.5533C466.198 21.5503 466.186 21.5503 466.174 21.5443L463.48 25.5435C463.441 25.6003 463.381 25.6393 463.315 25.6482C463.303 25.6572 463.291 25.6572 463.279 25.6572ZM457.038 20.1045L463.225 25.0585L465.91 21.0714C465.949 21.0145 466.009 20.9756 466.075 20.9666C466.144 20.9576 466.21 20.9756 466.263 21.0175L466.344 21.0833C468.377 21.3408 470.4 20.4038 471.517 18.6826L472.379 17.2877C472.427 17.2099 472.514 17.168 472.606 17.174L473.911 17.2847L474.19 14.4351C474.196 14.3722 474.226 14.3153 474.274 14.2734L474.723 13.8873C474.926 13.6568 478.189 9.86118 477.698 6.16136C477.468 4.43119 476.447 2.96743 474.663 1.81199C470.915 -0.612646 466.548 2.35977 463.881 6.38287C461.848 9.44809 460.905 13.6388 460.896 13.6837C460.89 13.7137 460.875 13.7436 460.857 13.7705C460.519 14.2495 457.636 19.0987 457.038 20.1045Z" fill="#404040"></path> <path d="M472.226 12.2556C472.04 12.543 472.031 12.8692 472.211 12.986C472.387 13.0997 472.684 12.962 472.869 12.6717C473.055 12.3843 473.064 12.058 472.884 11.9413C472.708 11.8275 472.414 11.9682 472.226 12.2556Z" fill="#404040"></path> <path d="M474.19 11.9531C474.106 11.9531 474.022 11.9082 473.977 11.8303C473.956 11.7944 473.453 10.9533 472.346 11.3484C472.22 11.3933 472.08 11.3274 472.035 11.2017C471.99 11.076 472.056 10.9353 472.181 10.8904C473.379 10.4624 474.157 11.1628 474.399 11.5909C474.465 11.7076 474.423 11.8573 474.307 11.9231C474.271 11.9441 474.232 11.9531 474.19 11.9531Z" fill="#404040"></path> <path d="M469.244 19.2089C469.178 19.2089 469.113 19.182 469.065 19.1311C468.541 18.5653 468.152 17.8769 467.942 17.1345C467.906 17.0058 467.981 16.8711 468.11 16.8352C468.238 16.7992 468.373 16.8741 468.409 17.0028C468.598 17.6703 468.948 18.2929 469.421 18.7988C469.514 18.8976 469.508 19.0503 469.409 19.1431C469.364 19.185 469.304 19.2089 469.244 19.2089Z" fill="#404040"></path> <path d="M466.11 21.4515C466.066 21.4515 466.021 21.4395 465.979 21.4126C465.901 21.3647 464.102 20.1913 463.782 18.8084C463.752 18.6767 463.833 18.5479 463.964 18.515C464.096 18.4851 464.225 18.5659 464.258 18.6976C464.533 19.889 466.227 20.9905 466.245 21.0025C466.359 21.0743 466.392 21.227 466.317 21.3378C466.269 21.4126 466.191 21.4515 466.11 21.4515Z" fill="#404040"></path> <path d="M463.839 9.68103C463.779 9.68103 463.719 9.66007 463.671 9.61218C463.575 9.51939 463.569 9.36673 463.662 9.26794C464.153 8.75308 464.665 8.50763 465.18 8.52858C465.877 8.56151 466.305 9.09133 466.323 9.11528C466.407 9.22005 466.389 9.37271 466.284 9.45653C466.18 9.54034 466.027 9.52238 465.943 9.41761C465.937 9.40863 465.626 9.03446 465.153 9.0135C464.785 8.99854 464.404 9.1961 464.015 9.6032C463.967 9.65409 463.904 9.68103 463.839 9.68103Z" fill="#404040"></path> <path d="M464.821 11.1455C464.791 11.1455 464.758 11.1395 464.728 11.1275C464.602 11.0766 464.545 10.9329 464.596 10.8102C464.994 9.84933 464.5 8.97228 464.497 8.9633C464.431 8.84656 464.47 8.69688 464.587 8.63103C464.704 8.56218 464.851 8.60409 464.919 8.71784C464.946 8.76274 465.542 9.80742 465.048 10.9958C465.006 11.0886 464.916 11.1455 464.821 11.1455Z" fill="#404040"></path> <path d="M463.869 12.2048C463.818 12.2048 463.764 12.1869 463.722 12.1539C462.489 11.205 462.336 10.1603 462.33 10.1154C462.312 9.98373 462.405 9.861 462.54 9.84304C462.669 9.82508 462.794 9.91788 462.812 10.0496C462.815 10.0646 462.959 10.9506 464.019 11.7678C464.126 11.8486 464.144 12.0013 464.064 12.109C464.013 12.1719 463.941 12.2048 463.869 12.2048Z" fill="#404040"></path> <path d="M460.872 8.51377C461.139 8.65446 461.384 8.81909 461.618 8.9987L462.112 6.11008C462.135 5.94245 462.168 5.77482 462.207 5.6072L462.21 5.58624C462.531 4.25419 463.291 3.0299 464.393 2.13488C465.228 1.45538 471.14 -2.54975 476.267 2.55694C480.06 6.33458 477.671 9.64825 477.671 9.64825C474.753 12.6925 469.652 11.2078 466.218 10.8246L466.47 10.202C466.877 9.19326 466.353 8.01088 465.305 7.72351C464.728 7.56487 464.045 7.6846 463.342 8.47784C462.342 9.60634 463.087 10.7199 463.087 10.7199L463.084 10.7259C463.881 12.2315 463.946 14.0934 463.09 15.7128C461.716 18.3141 458.493 19.3079 455.891 17.9339C453.29 16.56 452.296 13.3361 453.67 10.7348C455.047 8.13061 458.271 7.13682 460.872 8.51377Z" fill="#404040"></path> <path d="M478.27 48.5051C473.699 46.4337 469.577 41.3479 468.799 37.8756C465.063 21.2085 457.212 20.074 457.212 20.074C442.823 16.479 430.846 56.2939 429.745 60.0715C416.313 68.3931 404.896 99.5002 404.896 99.5002L422.228 105.14L439.407 110.956C445.909 93.1902 453.748 52.7018 453.748 52.7018C453.748 52.7018 458.693 53.049 460.974 50.7022C465.237 55.312 473.478 60.9396 487.852 59.7512L488.373 51.7379C484.823 50.7172 481.973 50.1814 478.27 48.5051Z" fill="white"></path> <path d="M439.407 111.202C439.38 111.202 439.356 111.199 439.329 111.19L422.15 105.373L404.821 99.7339C404.759 99.713 404.708 99.6681 404.678 99.6082C404.648 99.5483 404.645 99.4795 404.669 99.4196C404.783 99.1083 416.22 68.2616 429.535 59.919C430.972 55.0189 442.831 16.2337 457.268 19.8437C457.571 19.8856 465.306 21.1878 469.035 37.8279C469.772 41.1087 473.786 46.2124 478.369 48.2868C481.138 49.541 483.454 50.1606 485.909 50.8132C486.72 51.0287 487.558 51.2532 488.438 51.5047C488.549 51.5376 488.621 51.6394 488.615 51.7531L488.094 59.7664C488.085 59.8861 487.992 59.9819 487.873 59.9939C473.741 61.1613 465.461 55.8211 460.968 51.0497C458.834 53.0163 454.922 52.9954 453.952 52.9565C453.332 56.1234 445.834 94.1154 439.64 111.043C439.601 111.139 439.509 111.202 439.407 111.202ZM405.214 99.3448L422.306 104.906L439.26 110.648C445.663 92.9869 453.431 53.0552 453.509 52.6541C453.533 52.5344 453.646 52.4506 453.766 52.4566C453.814 52.4596 458.624 52.7679 460.801 50.5288C460.848 50.4809 460.905 50.448 460.977 50.454C461.043 50.454 461.109 50.4839 461.154 50.5318C465.512 55.2464 473.636 60.6165 487.624 59.5209L488.118 51.9148C487.313 51.6843 486.538 51.4777 485.786 51.2802C483.314 50.6216 480.976 49.999 478.171 48.7268C473.385 46.5596 469.341 41.393 468.562 37.9297C467.509 33.2301 465.422 26.8123 461.471 22.9359C459.118 20.628 457.194 20.3197 457.176 20.3167C449.803 18.4758 443.071 28.5994 438.712 37.4178C433.815 47.3229 430.576 58.0841 429.978 60.1406C429.96 60.1974 429.924 60.2483 429.873 60.2783C417.28 68.079 406.309 96.4502 405.214 99.3448Z" fill="#404040"></path> <path d="M487.87 59.814C490.36 59.6075 493.033 59.1974 495.901 58.5418L500.597 62.098C501.956 63.1277 503.896 62.8403 504.899 61.4634C506.066 59.8589 505.417 57.587 503.579 56.8416L502.037 56.219C500.897 55.758 500.586 54.2853 501.445 53.4022C501.945 52.8903 501.918 52.0672 501.388 51.5882C500.909 51.1542 500.178 51.1542 499.699 51.5882L497.224 53.8213C494.587 53.4531 491.501 52.6958 488.39 51.8008L487.87 59.814Z" fill="white"></path> <path d="M502.429 62.9603C501.717 62.9603 501.028 62.7298 500.45 62.2928L495.844 58.8055C493.108 59.4252 490.432 59.8472 487.89 60.0568C487.821 60.0628 487.75 60.0388 487.699 59.9879C487.648 59.937 487.621 59.8682 487.627 59.7993L488.148 51.7861C488.154 51.7112 488.19 51.6454 488.249 51.6035C488.309 51.5616 488.387 51.5496 488.456 51.5675C491.958 52.5763 494.805 53.2289 497.146 53.5641L499.534 51.4089C500.109 50.891 500.974 50.891 501.549 51.4089C501.854 51.6843 502.031 52.0644 502.043 52.4775C502.055 52.8906 501.905 53.2798 501.618 53.5761C501.265 53.9383 501.124 54.4292 501.226 54.9201C501.331 55.414 501.657 55.8062 502.127 55.9948L503.668 56.6174C504.614 57.0005 505.318 57.7818 505.599 58.7636C505.88 59.7455 505.695 60.7812 505.093 61.6073C504.569 62.3257 503.794 62.7957 502.914 62.9244C502.752 62.9484 502.591 62.9603 502.429 62.9603ZM495.901 58.2997C495.954 58.2997 496.005 58.3176 496.047 58.3475L500.744 61.9037C501.348 62.3617 502.097 62.5532 502.845 62.4425C503.596 62.3317 504.255 61.9336 504.701 61.32C505.213 60.6165 505.372 59.7335 505.132 58.8983C504.893 58.0632 504.294 57.3956 503.486 57.0694L501.944 56.4468C501.333 56.1983 500.887 55.6655 500.75 55.0219C500.615 54.3753 500.807 53.7078 501.268 53.2378C501.462 53.0373 501.564 52.7739 501.555 52.4955C501.546 52.2171 501.426 51.9597 501.22 51.7741C500.831 51.4239 500.247 51.4239 499.858 51.7741L497.382 54.0071C497.328 54.055 497.257 54.079 497.185 54.067C494.865 53.7407 492.057 53.1061 488.606 52.1243L488.121 59.5539C490.59 59.3354 493.183 58.9163 495.835 58.3116C495.862 58.2996 495.883 58.2997 495.901 58.2997Z" fill="#404040"></path> <path d="M460.974 50.945C460.899 50.945 460.824 50.9091 460.776 50.8432C460.456 50.3942 452.901 39.7917 451.832 34.6161C451.805 34.4844 451.889 34.3557 452.021 34.3288C452.155 34.3018 452.281 34.3856 452.308 34.5173C453.359 39.5941 461.094 50.4511 461.174 50.5588C461.252 50.6696 461.228 50.8193 461.118 50.8971C461.073 50.93 461.022 50.945 460.974 50.945Z" fill="#404040"></path> <path d="M504.609 62.1369C504.588 62.1369 504.567 62.1339 504.546 62.1279L502.843 61.6669C502.81 61.6579 502.78 61.643 502.753 61.622L501.053 60.251C500.948 60.1672 500.93 60.0146 501.017 59.9098C501.101 59.805 501.253 59.79 501.358 59.8739L503.016 61.2119L504.669 61.6579C504.797 61.6938 504.875 61.8255 504.839 61.9573C504.812 62.065 504.714 62.1369 504.609 62.1369Z" fill="#404040"></path> <path d="M505.407 60.6315C505.386 60.6315 505.365 60.6285 505.344 60.6225L503.641 60.1615C503.608 60.1525 503.578 60.1376 503.551 60.1166L501.851 58.7457C501.746 58.6619 501.731 58.5092 501.815 58.4044C501.899 58.2996 502.052 58.2847 502.157 58.3685L503.815 59.7065L505.467 60.1526C505.596 60.1885 505.674 60.3202 505.638 60.4519C505.611 60.5597 505.512 60.6315 505.407 60.6315Z" fill="#404040"></path> <path d="M407.321 100.288L404.423 106.804L435.48 117.598L438.506 110.651L407.321 100.288Z" fill="#7C95FA"></path> <path d="M435.479 117.841C435.452 117.841 435.425 117.838 435.398 117.829L404.342 107.035C404.276 107.014 404.225 106.963 404.198 106.903C404.171 106.84 404.171 106.768 404.198 106.708L407.096 100.192C407.147 100.078 407.276 100.021 407.395 100.06L438.58 110.423C438.646 110.444 438.697 110.492 438.727 110.555C438.754 110.618 438.754 110.69 438.727 110.752L435.701 117.7C435.662 117.787 435.575 117.841 435.479 117.841ZM404.752 106.66L435.348 117.293L438.179 110.797L407.455 100.587L404.752 106.66Z" fill="#404040"></path> <path d="M488.39 51.8013L487.869 59.8145L490.898 59.4733L491.332 52.6035L488.39 51.8013Z" fill="#7C95FA"></path> <path d="M487.869 60.0567C487.806 60.0567 487.746 60.0328 487.702 59.9909C487.651 59.94 487.621 59.8711 487.627 59.7993L488.148 51.786C488.154 51.7142 488.19 51.6453 488.249 51.6034C488.309 51.5615 488.384 51.5466 488.456 51.5675L491.398 52.3697C491.509 52.3997 491.584 52.5044 491.578 52.6212L491.144 59.491C491.138 59.6077 491.045 59.7035 490.928 59.7185L487.899 60.0597C487.887 60.0567 487.878 60.0567 487.869 60.0567ZM488.615 52.1123L488.133 59.5389L490.671 59.2515L491.078 52.7828L488.615 52.1123Z" fill="#404040"></path> <path d="M441.095 81.6235C440.496 81.6235 439.894 81.4619 439.292 81.1416C437.095 79.9652 436.197 77.4358 436.703 73.8288C437.077 71.1527 438.068 68.8597 438.11 68.761C438.137 68.7011 438.185 68.6562 438.245 68.6323C438.305 68.6083 438.374 68.6113 438.43 68.6353L447.869 72.817C447.982 72.8679 448.039 72.9936 448.003 73.1104C447.919 73.3887 445.905 79.9113 442.442 81.3451C441.999 81.5307 441.547 81.6235 441.095 81.6235ZM438.463 69.183C437.898 70.6079 435.078 78.3338 439.523 80.7105C440.445 81.2044 441.364 81.2643 442.256 80.8961C445.18 79.6868 447.099 74.2957 447.47 73.1732L438.463 69.183Z" fill="#404040"></path> <path d="M192.938 114.127C192.938 114.127 201.224 140.849 215.427 157.085L209.324 167.81C209.324 167.81 195.56 152.78 182.494 133.383L192.938 114.127Z" fill="white"></path> <path d="M209.324 168.053C209.255 168.053 209.192 168.026 209.144 167.975C209.006 167.825 195.219 152.709 182.291 133.518C182.24 133.443 182.237 133.344 182.279 133.267L192.725 114.01C192.773 113.923 192.866 113.873 192.962 113.885C193.061 113.894 193.142 113.962 193.171 114.055C193.255 114.322 201.607 140.915 215.613 156.926C215.682 157.004 215.694 157.118 215.64 157.208L209.536 167.933C209.497 168.002 209.428 168.047 209.351 168.056C209.342 168.05 209.333 168.053 209.324 168.053ZM182.775 133.368C194.752 151.128 207.444 165.365 209.276 167.397L215.128 157.115C202.235 142.295 194.147 118.623 192.878 114.744L182.775 133.368Z" fill="#404040"></path> <path d="M186.885 146.419C183.173 155.788 179.201 166.55 174.038 173.695L161.085 170.354L146.564 167.81L183.039 110.543L192.941 114.127C192.938 114.124 190.304 137.792 186.885 146.419Z" fill="#7C95FA"></path> <path d="M174.038 173.937C174.017 173.937 173.996 173.934 173.978 173.928L161.026 170.587L146.523 168.046C146.442 168.031 146.376 167.98 146.343 167.905C146.31 167.831 146.316 167.744 146.361 167.678L182.835 110.412C182.895 110.316 183.018 110.274 183.123 110.313L193.025 113.896C193.13 113.935 193.195 114.04 193.184 114.15C193.157 114.387 190.504 137.951 187.116 146.509C186.748 147.44 186.377 148.383 186.002 149.334C182.677 157.791 178.908 167.376 174.241 173.838C174.191 173.901 174.116 173.937 174.038 173.937ZM146.966 167.633L161.127 170.114L173.939 173.419C178.528 167.01 182.255 157.53 185.544 149.158C185.919 148.206 186.29 147.26 186.658 146.329L186.885 146.419L186.658 146.329C189.864 138.238 192.414 116.554 192.675 114.288L183.138 110.837L146.966 167.633Z" fill="#404040"></path> <path d="M194.824 135.188C192.677 143.914 181.536 175.635 181.536 175.635L171.784 173.114L192.938 114.127L193.977 115.773C197.685 121.634 196.479 128.45 194.824 135.188Z" fill="white"></path> <path d="M181.536 175.877C181.515 175.877 181.494 175.874 181.476 175.868L171.724 173.348C171.658 173.33 171.601 173.285 171.568 173.225C171.535 173.165 171.532 173.093 171.553 173.031L192.708 114.043C192.737 113.956 192.818 113.893 192.911 113.884C193.004 113.876 193.094 113.917 193.145 113.995L194.183 115.642C197.967 121.625 196.692 128.609 195.06 135.245C192.938 143.881 181.877 175.395 181.767 175.713C181.731 175.814 181.638 175.877 181.536 175.877ZM172.104 172.944L181.381 175.342C182.356 172.561 192.561 143.372 194.587 135.128C196.195 128.591 197.455 121.724 193.773 115.899L193.001 114.675L172.104 172.944Z" fill="#404040"></path> <path d="M136.791 165.76L161.082 170.355C161.082 170.355 177.8 174.656 189.199 177.623C194.731 179.062 197.769 184.998 195.706 190.329L181.251 226.286L170.754 251.173L153.97 247.21L173.271 194.769L149.746 187.082C140.329 184.708 134.558 175.213 136.791 165.76Z" fill="#404040"></path> <path d="M162.908 253.319L165.267 269.124L151.031 253.418L158.041 247.952L162.908 253.319Z" fill="#404040"></path> <path d="M162.909 253.319L165.953 249.82L158.042 247.952L162.909 253.319Z" fill="white"></path> <path d="M162.909 253.564C162.84 253.564 162.774 253.534 162.729 253.484L157.865 248.116C157.793 248.039 157.781 247.922 157.835 247.829C157.889 247.736 157.996 247.691 158.101 247.715L166.013 249.583C166.096 249.604 166.162 249.664 166.189 249.745C166.216 249.826 166.198 249.915 166.141 249.978L163.094 253.478C163.046 253.531 162.98 253.561 162.909 253.564ZM158.748 248.368L162.903 252.954L165.504 249.966L158.748 248.368Z" fill="#404040"></path> <path d="M204.492 171.681C207.192 172.157 210.144 172.465 213.371 172.567L217.367 177.65C218.522 179.119 220.662 179.356 222.111 178.173C223.799 176.796 223.743 174.201 221.994 172.899L220.531 171.81C219.447 171.001 219.528 169.352 220.686 168.655C221.357 168.25 221.56 167.367 221.129 166.712C220.74 166.119 219.968 165.916 219.336 166.242L216.089 167.924C213.391 166.799 210.326 165.137 207.273 163.32L204.492 171.681Z" fill="white"></path> <path d="M220.004 179.17C219.869 179.17 219.738 179.164 219.603 179.149C218.639 179.041 217.777 178.562 217.175 177.802L213.248 172.809C210.168 172.707 207.207 172.408 204.448 171.923C204.379 171.911 204.316 171.869 204.28 171.809C204.244 171.75 204.235 171.675 204.259 171.609L207.043 163.248C207.067 163.179 207.121 163.123 207.19 163.099C207.258 163.072 207.336 163.081 207.399 163.117C210.844 165.164 213.685 166.652 216.08 167.661L219.226 166.032C219.968 165.646 220.875 165.886 221.333 166.586C221.579 166.96 221.656 167.403 221.558 167.84C221.459 168.274 221.192 168.642 220.812 168.87C220.33 169.16 220.04 169.648 220.01 170.208C219.983 170.768 220.226 171.283 220.675 171.621L222.138 172.71C223.03 173.375 223.557 174.396 223.581 175.509C223.605 176.623 223.126 177.664 222.261 178.368C221.618 178.889 220.827 179.17 220.004 179.17ZM204.813 171.489C207.504 171.947 210.383 172.228 213.38 172.324C213.452 172.327 213.517 172.36 213.562 172.417L217.559 177.5C218.076 178.158 218.822 178.574 219.657 178.664C220.492 178.757 221.309 178.515 221.959 177.985C222.704 177.377 223.12 176.476 223.099 175.512C223.078 174.551 222.623 173.668 221.851 173.094L220.387 172.004C219.813 171.576 219.492 170.893 219.528 170.178C219.564 169.463 219.95 168.816 220.564 168.445C220.83 168.283 221.016 168.026 221.088 167.723C221.157 167.418 221.103 167.107 220.929 166.846C220.609 166.355 219.974 166.191 219.453 166.46L216.206 168.143C216.143 168.175 216.065 168.178 215.999 168.151C213.622 167.158 210.808 165.697 207.411 163.685L204.813 171.489Z" fill="#404040"></path> <path d="M221.681 178.793C221.639 178.793 221.597 178.784 221.561 178.76L219.882 177.799C219.852 177.781 219.828 177.76 219.807 177.733L218.385 175.805C218.304 175.698 218.328 175.545 218.436 175.464C218.544 175.383 218.696 175.407 218.777 175.515L220.169 177.401L221.803 178.338C221.92 178.404 221.959 178.553 221.893 178.67C221.848 178.748 221.764 178.793 221.681 178.793Z" fill="#404040"></path> <path d="M222.95 177.416C222.908 177.416 222.866 177.407 222.83 177.383L221.151 176.422C221.121 176.404 221.097 176.383 221.076 176.356L219.654 174.428C219.573 174.321 219.597 174.168 219.705 174.087C219.813 174.006 219.965 174.03 220.046 174.138L221.438 176.024L223.072 176.961C223.189 177.027 223.228 177.176 223.162 177.293C223.114 177.371 223.034 177.416 222.95 177.416Z" fill="#404040"></path> <path d="M188.43 95.7296C188.43 95.7296 185.407 93.2661 183.982 96.6636C182.557 100.061 186.667 100.603 186.667 100.603L183.036 110.541L189.346 117.599L192.938 114.124L194.384 110.128C196.779 110.119 199.024 108.634 199.886 106.251L203.804 95.4243L190.942 90.0781L188.43 95.7296Z" fill="white"></path> <path d="M189.346 117.845C189.343 117.845 189.34 117.845 189.337 117.845C189.271 117.842 189.208 117.812 189.163 117.764L182.853 110.705C182.793 110.64 182.775 110.544 182.805 110.46L186.337 100.791C185.733 100.66 184.365 100.256 183.745 99.1779C183.329 98.4535 183.335 97.5765 183.757 96.5707C184.194 95.526 184.826 94.8944 185.637 94.6938C186.742 94.4185 187.846 95.0321 188.331 95.3584L190.723 89.9823C190.777 89.8625 190.917 89.8057 191.04 89.8566L203.9 95.2027C204.019 95.2536 204.079 95.3883 204.034 95.511L200.116 106.338C199.266 108.691 197.045 110.292 194.557 110.373L193.168 114.214C193.156 114.25 193.135 114.28 193.108 114.306L189.516 117.782C189.469 117.818 189.409 117.845 189.346 117.845ZM183.314 110.487L189.358 117.249L192.728 113.989L194.156 110.044C194.192 109.948 194.282 109.885 194.384 109.882C196.736 109.873 198.856 108.38 199.658 106.167L203.498 95.5589L191.07 90.3924L188.651 95.8253C188.621 95.8942 188.558 95.9451 188.487 95.963C188.415 95.981 188.334 95.963 188.277 95.9151C188.265 95.9032 186.957 94.8585 185.754 95.1608C185.104 95.3254 184.583 95.8613 184.209 96.7533C183.847 97.6154 183.835 98.3458 184.17 98.9325C184.841 100.103 186.682 100.357 186.7 100.36C186.771 100.369 186.837 100.411 186.876 100.474C186.915 100.537 186.921 100.615 186.897 100.684L183.314 110.487Z" fill="#404040"></path> <path d="M188.573 86.7403C189.223 85.54 190.606 84.8785 191.95 85.1149C192.249 85.1688 199.535 87.1475 199.909 87.0187C200.451 86.8332 201.056 86.8242 201.634 87.0337C202.565 87.372 203.184 88.1832 203.319 89.0991C203.543 89.138 203.759 89.2249 203.986 89.2727C205.911 89.6739 207.647 91.8081 206.579 94.4633C205.103 98.1331 201.209 95.7384 201.164 95.7205C199.242 96.1725 197.404 95.3194 196.18 94.4633C195.383 93.9065 194.74 93.1821 193.988 92.6702C192.474 91.6375 190.387 92.2751 189.624 93.9424L188.615 96.1485C188.615 96.1485 188.035 95.1877 187.026 94.9422C187.026 94.9422 187.379 93.5084 187.792 92.0416C188.124 90.8562 188.214 89.626 188.175 88.3927C188.16 87.8449 188.283 87.2762 188.573 86.7403Z" fill="#404040"></path> <path d="M199.401 100.588C199.278 100.926 199.35 101.262 199.557 101.339C199.766 101.414 200.035 101.202 200.158 100.864C200.281 100.525 200.209 100.19 200.003 100.112C199.793 100.037 199.524 100.25 199.401 100.588Z" fill="#404040"></path> <path d="M194.862 98.9441C194.74 99.2823 194.811 99.6176 195.018 99.6954C195.225 99.7732 195.497 99.5577 195.62 99.2194C195.742 98.8812 195.671 98.5459 195.464 98.4681C195.251 98.3933 194.985 98.6058 194.862 98.9441Z" fill="#404040"></path> <path d="M194.324 110.359C193.614 110.359 192.914 110.236 192.243 109.993L190.932 109.517C190.807 109.473 190.741 109.332 190.786 109.206C190.83 109.08 190.971 109.015 191.097 109.06L192.408 109.535C193.034 109.763 193.686 109.871 194.345 109.874C194.479 109.874 194.587 109.981 194.587 110.116C194.587 110.251 194.479 110.359 194.345 110.362C194.339 110.359 194.33 110.359 194.324 110.359Z" fill="#404040"></path> <path d="M196.123 105.183C195.997 105.183 195.889 105.084 195.88 104.955C195.871 104.82 195.973 104.704 196.108 104.695L196.937 104.638L196.973 101.593C196.973 101.564 196.979 101.531 196.991 101.504L197.889 99.3335C197.94 99.2107 198.084 99.1509 198.206 99.2018C198.332 99.2526 198.389 99.3963 198.338 99.5191L197.458 101.644L197.419 104.865C197.416 104.991 197.317 105.096 197.192 105.105L196.138 105.177C196.132 105.183 196.129 105.183 196.123 105.183Z" fill="#404040"></path> <path d="M196.431 97.112C196.338 97.112 196.249 97.0581 196.21 96.9683C196.189 96.9234 195.746 95.9895 194.542 96.2888C194.411 96.3218 194.279 96.2409 194.249 96.1122C194.216 95.9805 194.297 95.8488 194.426 95.8189C195.716 95.5016 196.449 96.3038 196.656 96.7738C196.71 96.8965 196.653 97.0402 196.53 97.094C196.497 97.106 196.464 97.112 196.431 97.112Z" fill="#404040"></path> <path d="M201.224 98.897C201.134 98.897 201.044 98.8461 201.005 98.7593C200.984 98.7174 200.52 97.7924 199.32 98.1187C199.191 98.1546 199.056 98.0768 199.02 97.9481C198.985 97.8193 199.062 97.6846 199.191 97.6487C200.472 97.2985 201.224 98.0858 201.442 98.5497C201.499 98.6725 201.448 98.8161 201.325 98.873C201.295 98.891 201.26 98.897 201.224 98.897Z" fill="#404040"></path> <path d="M184.583 97.5406C184.544 97.5406 184.508 97.5317 184.472 97.5137C184.353 97.4509 184.305 97.3042 184.368 97.1844C184.784 96.3792 185.313 95.8943 185.942 95.7416C186.795 95.5321 187.499 96.02 187.529 96.041C187.639 96.1188 187.663 96.2715 187.585 96.3792C187.508 96.49 187.358 96.5139 187.247 96.4391C187.235 96.4301 186.684 96.0589 186.053 96.2146C185.568 96.3343 185.146 96.7354 184.799 97.4059C184.757 97.4927 184.673 97.5406 184.583 97.5406Z" fill="#404040"></path> <path d="M186.353 99.0102C186.344 99.0102 186.335 99.0102 186.326 99.0102C186.191 98.9952 186.095 98.8755 186.11 98.7438C186.26 97.3488 185.293 96.4209 185.284 96.4089C185.185 96.3161 185.182 96.1635 185.275 96.0647C185.368 95.9659 185.52 95.9629 185.619 96.0557C185.667 96.1006 186.769 97.1632 186.595 98.7946C186.58 98.9174 186.475 99.0102 186.353 99.0102Z" fill="#404040"></path> <path d="M199.404 102.841C199.263 102.841 199.125 102.817 198.993 102.77C198.119 102.452 197.799 101.198 198.263 99.9139C198.479 99.3182 198.832 98.8124 199.263 98.4861C199.724 98.1358 200.218 98.0281 200.652 98.1867C201.089 98.3454 201.4 98.7405 201.529 99.3063C201.649 99.8331 201.598 100.45 201.382 101.042C201.167 101.638 200.813 102.144 200.382 102.47C200.062 102.716 199.724 102.841 199.404 102.841ZM198.721 100.082C198.362 101.075 198.562 102.099 199.161 102.315C199.436 102.413 199.766 102.333 200.092 102.087C200.448 101.818 200.745 101.387 200.927 100.881C201.11 100.372 201.158 99.854 201.056 99.417C200.963 99.0189 200.763 98.7465 200.487 98.6477C200.212 98.5489 199.882 98.6298 199.556 98.8752C199.2 99.1446 198.904 99.5727 198.721 100.082Z" fill="#404040"></path> <path d="M194.821 101.444C194.68 101.444 194.542 101.42 194.411 101.372C193.974 101.213 193.662 100.815 193.533 100.253C193.414 99.7257 193.465 99.1091 193.68 98.5164C194.144 97.2323 195.195 96.4719 196.069 96.7892C196.943 97.1065 197.263 98.3608 196.799 99.6449C196.584 100.241 196.231 100.746 195.799 101.073C195.479 101.318 195.141 101.444 194.821 101.444ZM195.665 97.2083C195.105 97.2083 194.452 97.819 194.138 98.684C193.956 99.1929 193.908 99.7108 194.009 100.148C194.099 100.546 194.303 100.818 194.578 100.917C194.854 101.016 195.183 100.935 195.509 100.69C195.865 100.42 196.162 99.9891 196.344 99.4833C196.703 98.4895 196.503 97.4657 195.904 97.2502C195.826 97.2203 195.746 97.2083 195.665 97.2083Z" fill="#404040"></path> <path d="M198.407 100.471C198.359 100.471 198.314 100.459 198.272 100.429C197.991 100.237 197.132 99.7583 196.593 99.8032C196.458 99.8151 196.342 99.7164 196.33 99.5817C196.318 99.447 196.416 99.3302 196.551 99.3182C197.38 99.2434 198.5 99.9918 198.545 100.025C198.655 100.1 198.685 100.252 198.611 100.363C198.563 100.435 198.488 100.471 198.407 100.471Z" fill="#404040"></path> <path d="M193.889 105.616C193.862 105.595 193.835 105.574 193.803 105.571C193.758 105.565 193.716 105.589 193.683 105.616C193.539 105.73 193.479 105.924 193.485 106.107C193.491 106.29 193.551 106.466 193.617 106.637C193.809 107.134 194.072 107.655 194.551 107.888C194.853 108.035 195.203 108.05 195.542 108.029C196.425 107.975 196.509 107.472 195.781 107.041C195.09 106.631 194.518 106.104 193.889 105.616Z" fill="#404040"></path> <path d="M181.787 131.958L186.242 114.127L183.039 110.544C183.039 110.544 148.959 100.728 126.874 195.433L154.335 198.217L174.663 151.418C186.074 168.756 203.813 173.491 203.813 173.491L208.048 161.135C197.793 155.016 187.071 139.939 181.787 131.958Z" fill="white"></path> <path d="M154.332 198.459C154.323 198.459 154.317 198.459 154.308 198.459L126.847 195.675C126.778 195.669 126.715 195.63 126.674 195.573C126.632 195.516 126.62 195.444 126.635 195.376C139.434 140.483 156.296 120.646 168.183 113.671C176.839 108.592 182.85 110.235 183.102 110.307C183.147 110.319 183.185 110.346 183.215 110.379L186.418 113.962C186.472 114.022 186.493 114.105 186.472 114.183L182.045 131.913C194.21 150.265 202.963 157.821 208.162 160.922C208.261 160.982 208.306 161.101 208.267 161.209L204.031 173.566C203.989 173.685 203.861 173.754 203.738 173.721C203.561 173.674 186.038 168.836 174.696 151.921L154.548 198.309C154.515 198.402 154.428 198.459 154.332 198.459ZM127.17 195.217L154.177 197.953L174.433 151.316C174.469 151.235 174.547 151.178 174.636 151.169C174.723 151.16 174.81 151.202 174.861 151.277C185.413 167.31 201.586 172.569 203.651 173.186L207.746 161.233C198.278 155.498 188.301 142.234 181.581 132.087C181.542 132.03 181.53 131.961 181.548 131.892L185.969 114.183L182.901 110.75C182.587 110.672 181.144 110.364 178.899 110.54C176.555 110.726 172.828 111.492 168.395 114.099C156.622 121.035 139.916 140.734 127.17 195.217Z" fill="#404040"></path> <path d="M174.646 151.628C174.571 151.628 174.499 151.595 174.451 151.532C174.379 151.436 167.213 141.878 164.828 135.104C164.783 134.978 164.849 134.838 164.977 134.793C165.103 134.748 165.244 134.814 165.289 134.943C167.653 141.648 174.772 151.146 174.843 151.238C174.924 151.346 174.903 151.499 174.795 151.58C174.748 151.613 174.697 151.628 174.646 151.628Z" fill="#404040"></path> <path d="M182.853 133.799C182.772 133.799 182.694 133.76 182.647 133.686L176.486 124.05C176.414 123.936 176.447 123.787 176.561 123.715C176.675 123.643 176.824 123.676 176.896 123.79L183.057 133.425C183.129 133.539 183.096 133.689 182.982 133.76C182.943 133.787 182.898 133.799 182.853 133.799Z" fill="#404040"></path> <path d="M179.136 127.983C179.007 127.983 178.899 127.881 178.893 127.752L178.312 117.066C178.306 116.955 178.375 116.854 178.483 116.821L183.584 115.234L179.959 112.396C179.896 112.345 179.86 112.268 179.866 112.187C179.872 112.106 179.917 112.034 179.989 111.992L182.916 110.334C183.033 110.268 183.183 110.31 183.248 110.427C183.314 110.543 183.272 110.693 183.156 110.759L180.545 112.241L184.248 115.141C184.32 115.198 184.353 115.288 184.338 115.378C184.323 115.468 184.257 115.539 184.17 115.566L178.806 117.237L179.375 127.734C179.381 127.869 179.279 127.983 179.145 127.992C179.145 127.983 179.139 127.983 179.136 127.983Z" fill="#404040"></path> <path d="M184.904 136.778C184.85 136.778 184.793 136.76 184.748 136.721C184.643 136.634 184.631 136.482 184.715 136.38L194.575 124.472L191.719 120.15C191.645 120.039 191.675 119.889 191.785 119.814L194.946 117.668C195.057 117.593 195.21 117.623 195.285 117.734C195.359 117.845 195.332 117.997 195.219 118.072L192.255 120.084L195.078 124.358C195.138 124.448 195.132 124.565 195.063 124.649L185.089 136.694C185.041 136.748 184.972 136.778 184.904 136.778Z" fill="#404040"></path> <path d="M156.473 177.578C155.97 177.578 155.452 177.497 154.922 177.338C153.539 176.919 152.51 176.054 151.863 174.764C150.989 173.019 150.818 170.543 151.354 167.409C151.752 165.092 152.411 163.254 152.42 163.233C152.462 163.114 152.591 163.048 152.713 163.081L164.217 166.293C164.337 166.326 164.414 166.448 164.39 166.571C164.331 166.891 162.906 174.45 158.963 176.853C158.182 177.338 157.347 177.578 156.473 177.578ZM152.806 163.617C152.402 164.835 150.513 170.983 152.3 174.548C152.884 175.713 153.812 176.494 155.063 176.874C156.368 177.269 157.595 177.126 158.712 176.446C162.109 174.375 163.603 167.972 163.87 166.709L152.806 163.617Z" fill="#404040"></path> <path d="M664.056 193.316L681.381 197.573L681.98 187.159L664.355 188.024L664.056 193.316Z" fill="white"></path> <path d="M681.381 197.816C681.363 197.816 681.343 197.813 681.325 197.81L663.999 193.553C663.885 193.526 663.807 193.421 663.813 193.302L664.113 188.009C664.119 187.884 664.22 187.785 664.343 187.779L681.968 186.917C682.04 186.914 682.103 186.941 682.154 186.989C682.202 187.036 682.229 187.105 682.223 187.174L681.624 197.585C681.621 197.657 681.585 197.723 681.525 197.768C681.483 197.798 681.432 197.816 681.381 197.816ZM664.31 193.128L681.154 197.268L681.72 187.42L664.583 188.258L664.31 193.128Z" fill="#404040"></path> <path d="M664.056 193.317C664.056 193.317 664.056 193.317 661.003 192.994L657.309 196.101C656.24 196.999 654.642 196.846 653.762 195.762C652.738 194.499 653.175 192.61 654.648 191.925L655.884 191.35C656.8 190.925 656.988 189.707 656.249 189.021C655.821 188.623 655.806 187.95 656.219 187.534C656.593 187.159 657.189 187.13 657.599 187.462L659.718 189.183L664.352 188.022L664.056 193.317Z" fill="white"></path> <path d="M655.707 196.93C655.617 196.93 655.53 196.927 655.441 196.918C654.701 196.846 654.04 196.493 653.573 195.915C653.037 195.253 652.839 194.4 653.031 193.571C653.223 192.742 653.773 192.062 654.546 191.703L655.782 191.129C656.144 190.961 656.387 190.638 656.446 190.245C656.509 189.85 656.378 189.47 656.084 189.201C655.827 188.964 655.683 188.638 655.674 188.291C655.668 187.941 655.8 187.611 656.048 187.366C656.512 186.902 657.246 186.863 657.755 187.279L659.778 188.925L664.295 187.794C664.37 187.776 664.451 187.794 664.511 187.842C664.57 187.89 664.603 187.965 664.597 188.042L664.298 193.335C664.295 193.4 664.262 193.463 664.211 193.505C664.16 193.547 664.094 193.568 664.029 193.562L661.077 193.251L657.464 196.292C656.967 196.705 656.351 196.93 655.707 196.93ZM656.949 187.474C656.746 187.474 656.545 187.551 656.393 187.707C656.24 187.86 656.159 188.063 656.162 188.279C656.165 188.494 656.255 188.695 656.414 188.842C656.821 189.219 657.012 189.772 656.925 190.32C656.839 190.868 656.488 191.335 655.985 191.572L654.749 192.146C654.115 192.443 653.663 193.002 653.504 193.682C653.345 194.364 653.51 195.065 653.95 195.61C654.333 196.083 654.881 196.376 655.486 196.433C656.09 196.493 656.683 196.307 657.15 195.915L660.844 192.808C660.895 192.766 660.96 192.745 661.026 192.751L663.825 193.047L664.091 188.342L659.778 189.422C659.703 189.44 659.625 189.422 659.566 189.374L657.446 187.653C657.303 187.533 657.126 187.474 656.949 187.474Z" fill="#404040"></path> <path d="M659.039 192.556C658.853 192.556 658.674 192.517 658.506 192.442C657.722 192.092 657.417 191.035 657.351 190.772L656.27 189.416C656.186 189.311 656.204 189.159 656.309 189.075C656.414 188.991 656.567 189.009 656.65 189.114L657.764 190.512C657.788 190.542 657.803 190.575 657.812 190.613C657.815 190.625 658.054 191.709 658.707 191.999C658.994 192.128 659.338 192.077 659.728 191.853C659.844 191.787 659.994 191.826 660.06 191.943C660.126 192.059 660.087 192.209 659.97 192.275C659.641 192.463 659.329 192.556 659.039 192.556Z" fill="#404040"></path> <path d="M678.804 374.631L682.585 369.904C682.627 369.853 682.645 369.788 682.636 369.722L673.817 299.084L693.074 300.533L686.647 371.643L684.812 375.244L678.804 374.631Z" fill="white"></path> <path d="M674.096 299.348L692.81 300.758L686.411 371.575L684.674 374.984L679.277 374.434L682.777 370.054C682.857 369.952 682.896 369.821 682.878 369.689L674.096 299.348ZM673.539 298.818L682.393 369.749L678.334 374.826L684.953 375.502L686.884 371.713L693.337 300.309L673.539 298.818Z" fill="#404040"></path> <path d="M679.062 373.919C682.103 375.568 686.884 371.713 686.884 371.713L688.599 377.155L673.536 377.442L679.062 373.919Z" fill="#404040"></path> <path d="M685.411 374.631L689.191 369.904C689.233 369.853 689.251 369.788 689.242 369.722L680.424 299.084L699.68 300.533L693.253 371.643L691.418 375.244L685.411 374.631Z" fill="white"></path> <path d="M680.699 299.348L699.414 300.758L693.014 371.575L691.278 374.984L685.881 374.434L689.38 370.054C689.461 369.952 689.5 369.821 689.482 369.689L680.699 299.348ZM680.143 298.818L688.997 369.749L684.938 374.826L691.556 375.502L693.487 371.713L699.941 300.309L680.143 298.818Z" fill="#404040"></path> <path d="M685.668 373.919C688.71 375.568 693.49 371.713 693.49 371.713L695.298 377.445H680.146L685.668 373.919Z" fill="#404040"></path> <path d="M680.706 209.921C683.133 208.565 687.327 208.472 687.327 208.472C702.575 211.612 694.688 256.076 694.688 256.076L678.541 255.896L675.608 235.377C675.608 235.377 675.518 235.374 675.365 235.356C672.444 235.017 670.72 231.895 671.938 229.216L680.706 209.921Z" fill="#7C95FA"></path> <path d="M694.684 256.321L678.535 256.141C678.415 256.141 678.314 256.052 678.296 255.932L675.389 235.604C675.371 235.601 675.35 235.601 675.332 235.598C673.874 235.43 672.623 234.595 671.896 233.311C671.159 232.006 671.091 230.479 671.71 229.117L680.481 209.819C680.502 209.771 680.538 209.732 680.583 209.708C683.034 208.337 687.144 208.232 687.315 208.229C687.336 208.229 687.351 208.229 687.369 208.235C693.822 209.565 697.049 218.051 696.962 233.455C696.896 244.853 694.942 256.01 694.921 256.121C694.906 256.237 694.804 256.321 694.684 256.321ZM678.751 255.66L694.481 255.833C695.029 252.57 701.59 211.714 687.303 208.72C686.944 208.732 683.148 208.879 680.891 210.097L672.153 229.321C671.6 230.539 671.659 231.907 672.321 233.075C672.97 234.221 674.087 234.966 675.389 235.119C675.527 235.134 675.605 235.137 675.611 235.137C675.727 235.14 675.829 235.23 675.844 235.347L678.751 255.66Z" fill="#404040"></path> <path d="M670.809 304.075L698.567 302.096C707.047 273.075 694.571 256.079 694.571 256.079L678.424 255.899L670.809 304.075Z" fill="#404040"></path> <path d="M689.79 193.712C689.712 192.389 691.493 184.133 683.231 184.346C674.969 184.558 676.834 194.619 676.834 194.619L676.969 196.912L676.652 197.041C675.825 197.373 675.733 198.502 676.49 198.968L677.032 199.304L677.053 200.175C677.11 202.36 678.445 204.21 680.324 205.024L680.489 205.003L680.705 209.924L680.462 211.939C680.142 214.591 683.647 215.827 685.06 213.561L688.017 208.823C688.02 208.823 689.828 194.359 689.79 193.712Z" fill="white"></path> <path d="M682.971 214.983C682.642 214.983 682.322 214.926 682.031 214.824C680.999 214.459 680.041 213.417 680.22 211.908L680.463 209.912L680.259 205.254C680.25 205.251 680.238 205.248 680.229 205.242C678.209 204.365 676.868 202.375 676.811 200.174L676.793 199.435L676.362 199.172C675.934 198.908 675.691 198.432 675.736 197.929C675.778 197.427 676.095 196.999 676.562 196.81L676.718 196.747L676.595 194.643C676.529 194.272 675.703 189.356 678.146 186.342C679.307 184.908 681.017 184.154 683.229 184.097C685.525 184.04 687.282 184.624 688.446 185.839C690.428 187.914 690.188 191.293 690.072 192.919C690.048 193.266 690.027 193.541 690.036 193.691C690.075 194.34 688.449 207.362 688.264 208.846C688.261 208.882 688.249 208.915 688.228 208.945L685.27 213.684C684.689 214.615 683.806 214.983 682.971 214.983ZM680.49 204.757C680.547 204.757 680.603 204.778 680.645 204.814C680.696 204.859 680.729 204.922 680.732 204.991L680.948 209.912C680.948 209.924 680.948 209.939 680.948 209.951L680.705 211.965C680.544 213.291 681.406 214.085 682.193 214.363C682.98 214.641 684.148 214.564 684.857 213.432L687.788 208.739C688.515 202.937 689.578 194.188 689.551 193.727C689.539 193.544 689.56 193.269 689.587 192.889C689.697 191.335 689.928 188.099 688.093 186.18C687.03 185.067 685.396 184.531 683.241 184.588C681.178 184.642 679.592 185.336 678.523 186.65C676.179 189.539 677.065 194.523 677.074 194.574C677.077 194.583 677.077 194.595 677.077 194.604L677.212 196.897C677.218 197.001 677.158 197.097 677.059 197.136L676.742 197.265C676.443 197.385 676.245 197.651 676.218 197.974C676.191 198.298 676.341 198.591 676.616 198.762L677.158 199.097C677.227 199.139 677.272 199.217 677.275 199.297L677.299 200.168C677.35 202.159 678.55 203.958 680.364 204.775L680.463 204.763C680.469 204.757 680.481 204.757 680.49 204.757Z" fill="#404040"></path> <path d="M679.957 194.475C679.966 194.807 679.804 195.082 679.601 195.088C679.394 195.094 679.221 194.828 679.212 194.496C679.203 194.163 679.364 193.888 679.568 193.882C679.775 193.876 679.951 194.142 679.957 194.475Z" fill="#404040"></path> <path d="M680.505 193.757C680.433 193.757 680.364 193.727 680.316 193.667C679.595 192.775 678.762 193.221 678.73 193.239C678.613 193.305 678.463 193.263 678.4 193.143C678.334 193.026 678.376 192.877 678.496 192.811C678.915 192.577 679.918 192.392 680.699 193.356C680.783 193.46 680.768 193.613 680.663 193.697C680.612 193.739 680.555 193.757 680.505 193.757Z" fill="#404040"></path> <path d="M679.029 201.794C678.921 201.794 678.825 201.722 678.795 201.617C678.759 201.489 678.834 201.354 678.963 201.318C679.612 201.138 680.214 200.8 680.708 200.342C680.807 200.252 680.959 200.255 681.052 200.354C681.142 200.453 681.139 200.606 681.037 200.698C680.486 201.207 679.813 201.584 679.091 201.785C679.074 201.791 679.053 201.794 679.029 201.794Z" fill="#404040"></path> <path d="M680.615 205.242C680.543 205.242 680.499 205.242 680.49 205.242C680.355 205.242 680.247 205.131 680.25 204.997C680.25 204.862 680.355 204.757 680.496 204.754C680.513 204.754 682.319 204.769 683.282 204.569C683.411 204.542 683.543 204.625 683.57 204.757C683.597 204.889 683.513 205.018 683.381 205.044C682.507 205.23 681.052 205.242 680.615 205.242Z" fill="#404040"></path> <path d="M680.875 217.162L683.357 307.738H702.233C702.233 307.738 707.361 219.964 688.191 208.565L680.875 217.162Z" fill="white"></path> <path d="M702.234 307.984H683.358C683.226 307.984 683.118 307.879 683.115 307.747L680.634 217.171C680.631 217.111 680.652 217.051 680.69 217.006L688.006 208.409C688.084 208.319 688.213 208.298 688.315 208.358C692.745 210.992 696.244 217.877 698.708 228.818C700.671 237.532 701.994 248.835 702.641 262.415C703.742 285.53 702.485 307.535 702.473 307.753C702.47 307.882 702.363 307.984 702.234 307.984ZM683.594 307.496H702.003C702.135 305.089 703.198 284.258 702.159 262.433C701.15 241.3 697.917 214.923 688.243 208.879L681.122 217.245L683.594 307.496Z" fill="#404040"></path> <path d="M655.908 201.135C654.986 201.135 654.115 200.782 653.453 200.141L650.861 197.633C649.46 196.28 649.424 194.041 650.777 192.64L652.059 191.317C652.729 190.622 653.63 190.239 654.597 190.239C655.519 190.239 656.39 190.592 657.052 191.233L659.644 193.742C660.323 194.397 660.703 195.277 660.718 196.22C660.733 197.163 660.383 198.055 659.728 198.734L658.446 200.058C657.776 200.752 656.875 201.135 655.908 201.135Z" fill="#E6E6E6"></path> <path d="M654.597 190.485C655.42 190.485 656.244 190.793 656.881 191.41L659.473 193.918C660.779 195.182 660.814 197.262 659.551 198.567L658.27 199.89C657.626 200.558 656.767 200.893 655.905 200.893C655.082 200.893 654.259 200.585 653.621 199.968L651.029 197.46C649.724 196.196 649.688 194.116 650.951 192.811L652.232 191.488C652.879 190.82 653.738 190.485 654.597 190.485ZM654.597 189.997C653.564 189.997 652.601 190.407 651.882 191.147L650.601 192.47C649.155 193.966 649.194 196.361 650.691 197.807L653.283 200.315C653.99 201.001 654.924 201.375 655.905 201.375C656.938 201.375 657.902 200.965 658.62 200.225L659.901 198.902C661.347 197.406 661.308 195.011 659.812 193.565L657.219 191.057C656.513 190.374 655.582 189.997 654.597 189.997Z" fill="#404040"></path> <path d="M654.529 213.959L641.546 227.384V227.387L623.472 246.077C620.877 248.76 617.291 249.9 613.855 249.484L610.732 252.714C609.376 254.115 607.571 254.818 605.763 254.818C604.033 254.818 602.303 254.172 600.962 252.875C598.22 250.223 598.145 245.85 600.797 243.105L603.919 239.875C603.39 236.451 604.41 232.829 607.003 230.15L638.059 198.031L654.529 213.959Z" fill="white"></path> <path d="M605.76 255.064C603.895 255.064 602.132 254.352 600.791 253.056C597.956 250.314 597.882 245.776 600.621 242.941L603.662 239.798C603.138 236.182 604.287 232.611 606.829 229.986L637.885 197.867C637.93 197.822 637.99 197.795 638.056 197.792C638.119 197.795 638.181 197.816 638.229 197.861L654.699 213.789C654.795 213.881 654.798 214.037 654.705 214.133L641.741 227.54C641.735 227.549 641.729 227.555 641.723 227.564L623.649 246.255C621.107 248.88 617.575 250.149 613.947 249.748L610.906 252.891C609.544 254.289 607.718 255.064 605.76 255.064ZM638.068 198.376L607.179 230.321C604.716 232.865 603.617 236.335 604.159 239.843C604.171 239.918 604.147 239.996 604.093 240.049L600.968 243.279C598.414 245.923 598.486 250.152 601.126 252.705C602.375 253.915 604.021 254.579 605.757 254.579C607.58 254.579 609.283 253.858 610.553 252.547L613.675 249.317C613.729 249.263 613.803 249.236 613.878 249.245C617.398 249.67 620.832 248.455 623.292 245.911L641.348 227.238C641.354 227.229 641.36 227.223 641.366 227.214L654.181 213.962L638.068 198.376Z" fill="#404040"></path> <path d="M656.228 215.845C656.168 215.845 656.106 215.821 656.058 215.776L636.191 196.565C636.143 196.52 636.119 196.457 636.116 196.394C636.116 196.328 636.14 196.268 636.185 196.221L643.761 188.387C643.809 188.339 643.872 188.312 643.934 188.312C643.994 188.312 644.057 188.336 644.105 188.381L663.972 207.592C664.068 207.685 664.071 207.841 663.978 207.937L656.402 215.77C656.357 215.821 656.294 215.845 656.228 215.845Z" fill="#E6E6E6"></path> <path d="M643.938 188.554L663.805 207.766L656.228 215.599L636.361 196.388L643.938 188.554ZM643.938 188.069C643.935 188.069 643.932 188.069 643.929 188.069C643.8 188.072 643.677 188.126 643.587 188.219L636.011 196.053C635.826 196.247 635.829 196.556 636.023 196.741L655.89 215.953C655.986 216.045 656.106 216.09 656.228 216.09C656.354 216.09 656.483 216.039 656.579 215.941L664.155 208.107C664.245 208.014 664.293 207.888 664.293 207.76C664.29 207.631 664.236 207.508 664.143 207.419L644.276 188.207C644.186 188.117 644.063 188.069 643.938 188.069Z" fill="#404040"></path> <path d="M641.546 227.385L623.472 246.078C620.877 248.76 617.291 249.901 613.855 249.485L610.732 252.715C609.376 254.115 607.571 254.819 605.763 254.819C604.033 254.819 602.303 254.172 600.962 252.876C598.22 250.224 598.145 245.851 600.797 243.106L603.919 239.876C603.39 236.452 604.41 232.83 607.003 230.151C607.003 230.151 616.836 234.335 626.693 230.151C636.547 225.969 641.546 227.385 641.546 227.385Z" fill="white"></path> <path d="M605.76 255.064C603.895 255.064 602.132 254.352 600.791 253.056C597.956 250.314 597.882 245.776 600.621 242.941L603.662 239.798C603.138 236.182 604.287 232.611 606.829 229.986C606.898 229.914 607.005 229.89 607.098 229.932C607.194 229.974 616.952 234.024 626.597 229.932C636.418 225.762 641.405 227.097 641.612 227.154C641.717 227.184 641.788 227.28 641.788 227.387V227.39C641.788 227.453 641.765 227.513 641.72 227.561L623.646 246.252C621.104 248.877 617.572 250.146 613.944 249.745L610.903 252.888C609.544 254.289 607.718 255.064 605.76 255.064ZM607.065 230.441C604.683 232.973 603.623 236.391 604.159 239.843C604.171 239.918 604.147 239.996 604.093 240.049L600.968 243.279C598.414 245.922 598.486 250.152 601.126 252.705C602.375 253.915 604.021 254.579 605.757 254.579C607.58 254.579 609.283 253.858 610.553 252.547L613.675 249.317C613.729 249.263 613.803 249.236 613.878 249.245C617.398 249.67 620.832 248.455 623.292 245.91L641.058 227.537C639.672 227.319 634.853 226.95 626.783 230.375C617.629 234.263 608.379 230.95 607.065 230.441Z" fill="#404040"></path> <path d="M649.334 209.146C664.014 221.5 682.8 222.877 682.8 222.877C687.937 223.999 690.805 222.79 692.382 220.838C695.319 217.204 693.101 211.723 688.497 210.933C685.689 210.451 681.861 210.02 677.104 210.008C668.726 209.987 657.56 205.587 652.819 203.542L649.334 209.146Z" fill="white"></path> <path d="M686.426 223.55C685.312 223.55 684.091 223.407 682.762 223.116C682.082 223.062 663.55 221.428 649.176 209.332C649.083 209.254 649.062 209.119 649.125 209.017L652.607 203.414C652.67 203.312 652.798 203.27 652.909 203.318C657.384 205.249 668.702 209.742 677.098 209.763C681.16 209.772 685.007 210.086 688.533 210.691C690.832 211.086 692.7 212.633 693.529 214.834C694.328 216.953 693.969 219.255 692.568 220.991C691.191 222.694 689.135 223.55 686.426 223.55ZM649.652 209.092C664.077 221.129 682.63 222.616 682.816 222.631C682.828 222.631 682.84 222.634 682.849 222.637C687.228 223.595 690.368 222.937 692.188 220.683C693.481 219.081 693.81 216.959 693.074 215.004C692.308 212.969 690.578 211.538 688.452 211.17C684.953 210.568 681.134 210.257 677.098 210.248C668.729 210.227 657.537 205.83 652.909 203.845L649.652 209.092Z" fill="#404040"></path> <path d="M649.685 208.58C648.715 207.909 642.8 204.62 642.8 204.62C641.315 204.165 642.653 203.27 642.653 203.27C642.121 203.303 641.788 202.707 642.094 202.27C642.884 201.129 644.384 199.594 646.386 200.375C649.43 201.56 652.786 203.65 652.786 203.65L649.685 208.58Z" fill="white"></path> <path d="M649.685 208.826C649.637 208.826 649.586 208.811 649.547 208.781C648.628 208.143 643.103 205.066 642.704 204.845C642.193 204.683 641.911 204.44 641.863 204.117C641.821 203.836 641.98 203.575 642.154 203.384C642.031 203.309 641.923 203.201 641.848 203.066C641.681 202.77 641.699 202.408 641.893 202.127C643.219 200.214 644.845 199.51 646.476 200.145C649.508 201.327 652.882 203.417 652.915 203.441C652.969 203.474 653.008 203.53 653.023 203.593C653.038 203.656 653.026 203.722 652.993 203.776L649.891 208.709C649.856 208.766 649.799 208.805 649.733 208.817C649.718 208.823 649.7 208.826 649.685 208.826ZM642.654 203.025C642.758 203.025 642.851 203.09 642.884 203.189C642.92 203.294 642.881 203.408 642.791 203.471C642.597 203.602 642.321 203.875 642.348 204.045C642.366 204.162 642.564 204.291 642.875 204.387C642.89 204.393 642.908 204.399 642.923 204.408C643.15 204.533 648.221 207.356 649.613 208.242L652.451 203.728C651.673 203.258 648.859 201.597 646.302 200.603C644.512 199.905 643.135 201.199 642.297 202.408C642.207 202.537 642.202 202.695 642.276 202.83C642.351 202.965 642.486 203.037 642.642 203.028C642.642 203.025 642.648 203.025 642.654 203.025Z" fill="#404040"></path> <path d="M641.974 202.405C641.863 202.405 641.761 202.327 641.737 202.213C641.707 202.081 641.791 201.953 641.923 201.923L644.009 201.465C644.533 201.348 645.09 201.408 645.578 201.626L646.044 201.836C646.167 201.89 646.221 202.037 646.167 202.156C646.113 202.279 645.97 202.333 645.847 202.279L645.38 202.069C644.985 201.893 644.536 201.845 644.114 201.938L642.027 202.396C642.009 202.402 641.991 202.405 641.974 202.405Z" fill="#404040"></path> <path d="M645.437 203.785C645.41 203.785 645.383 203.782 645.359 203.773L644.288 203.405H642.536C642.402 203.405 642.294 203.297 642.294 203.162C642.294 203.028 642.402 202.92 642.536 202.92H644.326C644.353 202.92 644.38 202.926 644.404 202.932L645.515 203.312C645.64 203.357 645.709 203.495 645.667 203.62C645.634 203.722 645.539 203.785 645.437 203.785Z" fill="#404040"></path> <path d="M689.901 185.33C689.901 185.33 696.262 189.344 697.968 195.69C699.671 202.033 691.819 204.85 684.908 204.117C684.908 204.117 684.483 193.517 677.724 187.812C677.724 187.809 680.196 180.837 689.901 185.33Z" fill="#404040"></path> <path d="M692.039 284.307C691 284.307 690.069 283.92 689.27 283.16C686.067 280.113 685.926 272.049 685.923 271.707C685.923 271.642 685.947 271.579 685.992 271.534C686.037 271.486 686.1 271.462 686.166 271.462H698.205C698.271 271.462 698.334 271.489 698.379 271.534C698.424 271.579 698.451 271.642 698.448 271.707C698.448 271.737 698.397 274.809 697.627 277.862C696.586 281.984 694.709 284.214 692.194 284.304C692.144 284.304 692.09 284.307 692.039 284.307ZM686.414 271.947C686.465 273.336 686.851 280.188 689.605 282.807C690.347 283.513 691.21 283.854 692.176 283.819C697.283 283.633 697.888 273.656 697.954 271.95H686.414V271.947Z" fill="#404040"></path> <path d="M294.101 256.445C292.569 256.445 291.225 255.58 290.596 254.188L289.21 251.129C289.195 251.096 289.189 251.063 289.189 251.027V248.621C287.414 247.489 286.358 245.571 286.358 243.46V242.748C286.271 242.757 286.166 242.763 286.052 242.763C285.585 242.763 284.924 242.649 284.412 242.113C283.879 241.553 283.64 240.667 283.699 239.476C283.81 237.273 284.723 236.809 285.468 236.809C285.714 236.809 285.95 236.863 286.148 236.929C285.798 235.866 285.169 233.45 285.708 231.059C286.271 228.556 291.303 227.431 294.694 227.431C296.029 227.431 297.17 227.595 297.903 227.895C300.462 228.939 300.247 235.291 300.136 237.051C300.372 236.95 300.684 236.851 301.013 236.851C301.737 236.851 302.627 237.306 302.734 239.473C302.794 240.664 302.555 241.55 302.022 242.11C301.51 242.649 300.848 242.76 300.381 242.76C300.277 242.76 300.181 242.754 300.097 242.745L299.926 251.027C299.926 251.078 299.909 251.126 299.879 251.165L297.203 254.853C296.469 255.868 295.341 256.445 294.101 256.445Z" fill="white"></path> <path d="M294.691 227.676C295.957 227.676 297.077 227.826 297.81 228.122C300.591 229.257 299.858 237.474 299.858 237.474C299.858 237.474 300.411 237.097 301.01 237.097C301.672 237.097 302.393 237.555 302.489 239.488C302.621 242.152 301.184 242.521 300.379 242.521C300.07 242.521 299.858 242.467 299.858 242.467L299.681 251.028L297.005 254.716C296.278 255.718 295.185 256.2 294.101 256.2C292.769 256.2 291.443 255.473 290.818 254.087L289.432 251.028V248.486C287.735 247.457 286.6 245.592 286.6 243.46V242.467H286.573C286.573 242.467 286.358 242.521 286.052 242.521C285.247 242.521 283.81 242.152 283.942 239.488C284.041 237.51 284.792 237.052 285.469 237.052C286.049 237.052 286.573 237.39 286.573 237.39C286.573 237.39 285.25 234.196 285.945 231.11C286.453 228.838 291.147 227.676 294.691 227.676ZM294.691 227.188C291.455 227.188 286.091 228.224 285.466 231.005C284.978 233.178 285.427 235.366 285.786 236.591C285.684 236.576 285.576 236.567 285.466 236.567C284.768 236.567 283.58 236.944 283.454 239.464C283.391 240.725 283.652 241.67 284.232 242.281C284.804 242.883 285.534 243.008 286.049 243.008C286.07 243.008 286.091 243.008 286.112 243.008V243.463C286.112 245.613 287.166 247.57 288.944 248.756V251.031C288.944 251.1 288.959 251.168 288.986 251.231L290.372 254.29C291.042 255.769 292.47 256.691 294.098 256.691C295.419 256.691 296.619 256.078 297.397 255.006L300.073 251.318C300.13 251.237 300.163 251.141 300.166 251.043L300.331 243.011C300.346 243.011 300.361 243.011 300.379 243.011C300.893 243.011 301.624 242.886 302.196 242.284C302.776 241.673 303.037 240.727 302.974 239.467C302.851 236.986 301.69 236.615 301.01 236.615C300.795 236.615 300.585 236.651 300.399 236.704C300.519 234.462 300.564 228.724 297.993 227.676C297.017 227.272 295.658 227.188 294.691 227.188Z" fill="#404040"></path> <path d="M227.655 265.618C225.64 265.618 224.814 264.8 224.802 262.801L222.012 253.605C221.979 253.5 222.021 253.387 222.117 253.33C222.156 253.306 222.201 253.294 222.246 253.294C222.305 253.294 222.365 253.315 222.41 253.357L229.014 259.43L233.836 258.61C233.851 258.607 233.863 258.607 233.878 258.607C233.929 258.607 233.98 258.622 234.021 258.655C234.075 258.694 234.108 258.754 234.12 258.817L235.039 265.342C235.048 265.411 235.027 265.483 234.982 265.537C234.937 265.591 234.869 265.621 234.8 265.621H227.655V265.618Z" fill="white"></path> <path d="M222.245 253.533L228.939 259.688L233.878 258.847L234.797 265.372H227.657C225.763 265.372 225.047 264.657 225.047 262.762L222.245 253.533ZM222.245 253.045C222.156 253.045 222.066 253.069 221.988 253.12C221.802 253.237 221.719 253.464 221.781 253.674L224.562 262.837C224.583 264.953 225.511 265.86 227.657 265.86H234.797C234.937 265.86 235.072 265.8 235.165 265.692C235.258 265.585 235.299 265.444 235.279 265.306L234.36 258.781C234.342 258.649 234.27 258.532 234.165 258.454C234.081 258.395 233.979 258.362 233.878 258.362C233.851 258.362 233.824 258.365 233.797 258.368L229.094 259.17L222.578 253.177C222.482 253.09 222.362 253.045 222.245 253.045Z" fill="#404040"></path> <path d="M303.084 418.993L304.839 424.165H291.497L292.551 418.993H303.084Z" fill="#404040"></path> <path d="M299.372 226.491C299.33 226.396 301.022 228.676 301.144 232.188C301.204 233.927 300.863 236.57 300.863 236.57C300.408 236.666 299.405 238.468 299.405 238.468L298.789 230.517C296.559 231.7 291.081 232.056 287.345 230.23C287.246 230.49 286.821 237.648 286.821 237.648C286.821 237.648 286.255 236.666 285.229 236.573C285.229 236.573 284.986 232.975 284.986 231.113C284.986 230.248 285.079 229.422 285.25 228.775C284.522 228.141 283.944 227.503 283.708 227.168C285.965 227.06 287.719 225.21 289.817 224.366C291.476 223.699 292.565 223.381 294.352 223.369C295.113 223.363 296.562 223.612 297.337 223.977C298.355 224.453 299.357 225.276 299.372 226.491Z" fill="#404040"></path> <path d="M290.234 237.645C290.234 238.004 290.054 238.297 289.83 238.297C289.608 238.297 289.426 238.004 289.426 237.645C289.426 237.286 289.605 236.992 289.83 236.992C290.054 236.992 290.234 237.286 290.234 237.645Z" fill="#404040"></path> <path d="M296.664 237.645C296.664 238.004 296.484 238.297 296.26 238.297C296.038 238.297 295.855 238.004 295.855 237.645C295.855 237.286 296.035 236.992 296.26 236.992C296.484 236.992 296.664 237.286 296.664 237.645Z" fill="#404040"></path> <path d="M293.257 249.445H291.862C290.743 249.445 289.647 249.139 288.692 248.562C288.579 248.493 288.54 248.343 288.611 248.226C288.68 248.113 288.83 248.074 288.947 248.146C289.824 248.678 290.833 248.96 291.862 248.96H293.257C293.392 248.96 293.5 249.068 293.5 249.202C293.5 249.337 293.392 249.445 293.257 249.445Z" fill="#404040"></path> <path d="M286.348 243.021C286.214 243.021 286.106 242.913 286.106 242.778V241.342C286.106 241.207 286.214 241.099 286.348 241.099C286.483 241.099 286.591 241.207 286.591 241.342V242.778C286.594 242.91 286.483 243.021 286.348 243.021Z" fill="#404040"></path> <path d="M294.978 235.876C294.921 235.876 294.864 235.858 294.819 235.816C294.718 235.729 294.706 235.577 294.792 235.475C295.128 235.086 296.062 234.526 297.202 235.205C297.319 235.274 297.355 235.424 297.286 235.538C297.217 235.651 297.067 235.693 296.954 235.622C295.882 234.987 295.19 235.759 295.161 235.792C295.113 235.846 295.047 235.876 294.978 235.876Z" fill="#404040"></path> <path d="M291.015 235.819C290.943 235.819 290.874 235.789 290.827 235.729C290.045 234.762 289.126 235.241 289.087 235.262C288.968 235.325 288.821 235.283 288.758 235.166C288.695 235.049 288.737 234.903 288.854 234.837C289.303 234.588 290.375 234.391 291.207 235.426C291.291 235.531 291.276 235.684 291.171 235.768C291.123 235.801 291.069 235.819 291.015 235.819Z" fill="#404040"></path> <path d="M301.803 240.311C301.678 240.311 301.57 240.213 301.561 240.084C301.474 238.743 301.148 238.423 301.013 238.351C300.89 238.282 300.783 238.333 300.783 238.336C300.666 238.402 300.516 238.357 300.453 238.24C300.387 238.123 300.432 237.974 300.549 237.911C300.675 237.842 300.962 237.767 301.25 237.926C301.711 238.177 301.971 238.875 302.049 240.054C302.058 240.189 301.956 240.302 301.821 240.311C301.812 240.311 301.809 240.311 301.803 240.311Z" fill="#404040"></path> <path d="M300.723 241.093C300.714 241.093 300.702 241.093 300.693 241.09C300.558 241.075 300.465 240.952 300.48 240.817C300.675 239.246 301.387 238.611 301.417 238.584C301.519 238.497 301.671 238.506 301.761 238.608C301.848 238.71 301.839 238.863 301.737 238.949C301.728 238.958 301.13 239.509 300.962 240.874C300.947 241.003 300.842 241.093 300.723 241.093Z" fill="#404040"></path> <path d="M284.627 240.311C284.621 240.311 284.615 240.311 284.612 240.311C284.478 240.302 284.376 240.186 284.385 240.054C284.463 238.875 284.723 238.177 285.184 237.926C285.471 237.767 285.759 237.842 285.885 237.911C286.001 237.977 286.046 238.123 285.98 238.24C285.917 238.357 285.771 238.402 285.654 238.339C285.639 238.333 285.534 238.285 285.412 238.357C285.277 238.435 284.957 238.758 284.87 240.087C284.864 240.213 284.756 240.311 284.627 240.311Z" fill="#404040"></path> <path d="M285.708 241.093C285.589 241.093 285.481 241.003 285.466 240.881C285.298 239.513 284.697 238.962 284.691 238.956C284.592 238.866 284.58 238.713 284.67 238.612C284.759 238.513 284.909 238.501 285.011 238.588C285.041 238.615 285.756 239.249 285.948 240.821C285.966 240.955 285.87 241.075 285.735 241.093C285.729 241.093 285.72 241.093 285.708 241.093Z" fill="#404040"></path> <path d="M293.371 242.303H292.102C292.024 242.303 291.952 242.267 291.907 242.207C291.862 242.147 291.847 242.066 291.868 241.994L292.458 239.944C292.494 239.815 292.629 239.74 292.76 239.776C292.889 239.812 292.964 239.95 292.928 240.078L292.425 241.818H293.371C293.506 241.818 293.613 241.925 293.613 242.06C293.613 242.192 293.506 242.303 293.371 242.303Z" fill="#404040"></path> <path d="M291.338 245.293C293.042 245.466 294.601 244.906 295.32 244.595C295.514 244.511 295.727 244.67 295.7 244.879C295.64 245.367 295.463 246.128 294.966 246.711C294.7 246.61 293.904 246.388 293.152 246.544C292.718 246.634 292.416 246.912 292.215 247.181C291.632 246.783 291.258 246.119 291.06 245.676C290.976 245.484 291.129 245.272 291.338 245.293Z" fill="#404040"></path> <path d="M269.553 315.853L265.533 368.273L287.92 394.378L288.684 418.993H307.296L307.195 398.895L310.338 394.378L307.15 390.463L306.769 315.853H269.553Z" fill="#404040"></path> <path d="M307.314 390.57C307.245 390.57 307.176 390.54 307.128 390.483L287.657 367.578C287.621 367.533 287.6 367.479 287.6 367.419V332.687C287.6 332.553 287.707 332.445 287.842 332.445C287.977 332.445 288.085 332.553 288.085 332.687V367.33L307.497 390.166C307.583 390.268 307.571 390.421 307.47 390.51C307.425 390.552 307.368 390.57 307.314 390.57Z" fill="white"></path> <path d="M304.075 408.383L306.599 424.164L315.426 404.893L307.093 401.798L304.075 408.383Z" fill="#404040"></path> <path d="M302.144 407.072L306.182 401.188L306.802 401.846L303.961 408.048L302.144 407.072Z" fill="white"></path> <path d="M306.212 401.574L306.515 401.894L303.85 407.71L302.5 406.986L306.212 401.574ZM306.152 400.802L301.791 407.16L304.075 408.384L307.092 401.799L306.152 400.802Z" fill="#404040"></path> <path d="M267.622 341.152C267.488 341.146 267.383 341.036 267.389 340.901C267.41 340.293 269.535 280.611 270.424 269.964C266.404 270.473 262.034 270.73 257.43 270.73C242.098 270.73 228.774 267.866 228.64 267.836C228.517 267.809 228.433 267.692 228.451 267.566L229.732 258.11C229.747 257.99 229.849 257.901 229.969 257.901C261.663 257.416 288.756 250.863 289.025 250.797C289.043 250.791 289.064 250.791 289.082 250.791C289.13 250.791 289.181 250.806 289.22 250.833C289.277 250.872 289.315 250.935 289.321 251.004L292.515 277.669L299.726 250.815C299.756 250.708 299.852 250.636 299.96 250.636C299.975 250.636 299.993 250.636 300.008 250.642C308.692 252.354 316.079 256.147 321.375 261.606C327.131 267.545 330.175 275.325 330.175 284.108C330.175 294.405 323.868 299.554 318.579 302.059C313.547 304.442 308.452 304.945 307.279 305.031L310.188 342.598C310.194 342.667 310.17 342.736 310.122 342.787C310.078 342.835 310.015 342.862 309.946 342.862C309.949 342.853 267.622 341.152 267.622 341.152ZM307.291 295.626C308.59 295.456 316.343 293.929 316.343 282.755C316.343 276.1 313.72 272.218 308.545 271.206L307.291 295.626Z" fill="white"></path> <path d="M299.966 250.872C316.642 254.162 329.935 265.561 329.935 284.099C329.935 303.786 307.021 304.798 307.021 304.798L309.951 342.61L267.631 340.91C267.631 340.91 269.81 279.555 270.69 269.682C266.254 270.26 261.755 270.485 257.43 270.485C241.948 270.485 228.69 267.596 228.69 267.596L229.971 258.14C262.06 257.649 289.082 251.028 289.082 251.028L292.428 278.944L299.966 250.872ZM307.108 295.89C308.072 295.89 316.585 294.399 316.585 282.755C316.585 273.879 311.906 271.538 308.314 270.919L307.033 295.863C307 295.878 307.027 295.89 307.108 295.89ZM299.966 250.387C299.75 250.387 299.552 250.531 299.496 250.746L292.611 276.385L289.567 250.971C289.549 250.833 289.474 250.707 289.36 250.63C289.279 250.573 289.18 250.543 289.082 250.543C289.043 250.543 289.004 250.549 288.965 250.558C288.695 250.624 261.623 257.17 229.962 257.655C229.723 257.658 229.519 257.838 229.487 258.077L228.205 267.533C228.172 267.785 228.337 268.021 228.586 268.075C228.717 268.105 242.071 270.976 257.427 270.976C261.926 270.976 266.203 270.73 270.152 270.245C269.251 281.674 267.161 340.293 267.14 340.895C267.131 341.161 267.341 341.389 267.607 341.398L309.928 343.098C309.934 343.098 309.939 343.098 309.948 343.098C310.08 343.098 310.206 343.044 310.299 342.948C310.394 342.85 310.445 342.712 310.433 342.574L307.542 305.253C309.077 305.127 313.846 304.564 318.683 302.274C322.081 300.664 324.793 298.533 326.741 295.934C329.181 292.681 330.42 288.702 330.42 284.102C330.42 275.256 327.352 267.416 321.551 261.433C316.223 255.937 308.79 252.12 300.058 250.399C300.028 250.39 299.995 250.387 299.966 250.387ZM307.548 295.354L308.772 271.502C313.633 272.571 316.097 276.355 316.097 282.755C316.097 287.493 314.684 291.046 311.9 293.309C310.191 294.698 308.404 295.21 307.548 295.354Z" fill="#404040"></path> <path d="M306.749 295.485C309.455 295.842 309.347 304.481 306.186 304.481H302.034C301.205 304.481 300.534 303.81 300.534 302.981C300.534 302.152 301.205 301.481 302.034 301.481L304.902 301.364L300.376 301.481C299.546 301.481 298.876 300.811 298.876 299.981C298.876 299.152 299.546 298.482 300.376 298.482H305.087H301.381C300.552 298.482 299.882 297.811 299.882 296.982C299.882 296.153 300.552 295.482 301.381 295.482H306.749V295.485Z" fill="white"></path> <path d="M306.189 304.723H302.037C301.076 304.723 300.295 303.941 300.295 302.981C300.295 302.481 300.505 302.032 300.843 301.714L300.388 301.726C299.421 301.726 298.64 300.945 298.64 299.984C298.64 299.089 299.319 298.347 300.193 298.251C299.858 297.934 299.648 297.482 299.648 296.985C299.648 296.024 300.43 295.243 301.391 295.243H306.755C306.767 295.243 306.776 295.243 306.788 295.246C308.383 295.455 309.06 298 308.904 300.403C308.766 302.394 307.979 304.723 306.189 304.723ZM304.905 301.119C305.037 301.119 305.144 301.223 305.147 301.355C305.15 301.49 305.048 301.601 304.914 301.607L302.046 301.723C301.343 301.723 300.78 302.286 300.78 302.978C300.78 303.669 301.343 304.232 302.037 304.232H306.189C307.551 304.232 308.287 302.289 308.413 300.364C308.554 298.218 307.964 295.901 306.734 295.722H301.388C300.696 295.722 300.133 296.284 300.133 296.976C300.133 297.667 300.696 298.233 301.388 298.233H305.093C305.228 298.233 305.336 298.341 305.336 298.475C305.336 298.61 305.228 298.718 305.093 298.718H300.382C299.69 298.718 299.128 299.281 299.128 299.972C299.128 300.664 299.69 301.226 300.382 301.226L304.899 301.11C304.902 301.119 304.902 301.119 304.905 301.119Z" fill="#404040"></path> <path d="M270.379 270.234C270.271 270.234 270.172 270.159 270.142 270.052C270.109 269.923 270.187 269.788 270.319 269.755L275.135 268.534C275.267 268.501 275.399 268.579 275.432 268.711C275.465 268.839 275.387 268.974 275.255 269.007L270.439 270.228C270.421 270.231 270.4 270.234 270.379 270.234Z" fill="#404040"></path> <path d="M301.384 407.994C301.321 407.994 301.261 407.97 301.213 407.925L287.486 394.587C287.39 394.494 287.387 394.338 287.48 394.243C287.573 394.147 287.728 394.144 287.824 394.237L301.345 407.375L307.245 398.775C307.32 398.664 307.473 398.637 307.583 398.712C307.694 398.787 307.721 398.939 307.646 399.05L301.585 407.886C301.543 407.946 301.48 407.982 301.408 407.991C301.402 407.994 301.393 407.994 301.384 407.994Z" fill="white"></path> <path d="M292.428 279.19C292.422 279.19 292.419 279.19 292.413 279.19C292.321 279.184 292.24 279.127 292.204 279.04L284.403 260.35C284.367 260.266 284.382 260.17 284.439 260.101L287.636 256.186L284.99 251.959C284.918 251.845 284.954 251.696 285.068 251.624C285.181 251.552 285.331 251.588 285.403 251.702L288.142 256.075C288.199 256.165 288.19 256.279 288.124 256.359L284.909 260.299L292.461 278.394L302.214 260.972L299.687 257.308C299.622 257.212 299.631 257.087 299.711 257.003L304.731 251.663C304.824 251.564 304.977 251.561 305.075 251.651C305.174 251.744 305.177 251.896 305.087 251.995L300.202 257.192L302.702 260.816C302.756 260.894 302.759 260.993 302.714 261.074L292.644 279.064C292.599 279.142 292.518 279.19 292.428 279.19Z" fill="#404040"></path> <path d="M292.832 282.752C292.832 283.111 292.653 283.405 292.428 283.405C292.207 283.405 292.024 283.111 292.024 282.752C292.024 282.393 292.204 282.1 292.428 282.1C292.65 282.1 292.832 282.393 292.832 282.752Z" fill="#404040"></path> <path d="M292.832 289.661C292.832 290.02 292.653 290.313 292.428 290.313C292.207 290.313 292.024 290.02 292.024 289.661C292.024 289.302 292.204 289.008 292.428 289.008C292.65 289.011 292.832 289.302 292.832 289.661Z" fill="#404040"></path> <path d="M292.832 296.572C292.832 296.931 292.653 297.225 292.428 297.225C292.207 297.225 292.024 296.931 292.024 296.572C292.024 296.213 292.204 295.919 292.428 295.919C292.65 295.919 292.832 296.21 292.832 296.572Z" fill="#404040"></path> <path d="M292.832 303.481C292.832 303.84 292.653 304.133 292.428 304.133C292.207 304.133 292.024 303.84 292.024 303.481C292.024 303.121 292.204 302.828 292.428 302.828C292.65 302.828 292.832 303.121 292.832 303.481Z" fill="#404040"></path> <path d="M289.566 251.863C289.566 251.863 293.712 255.29 299.402 251.824L292.428 278.941L289.566 251.863Z" fill="#7C95FA"></path> <path d="M292.428 279.189C292.422 279.189 292.416 279.189 292.41 279.189C292.293 279.18 292.197 279.09 292.186 278.971L289.324 251.89C289.315 251.791 289.363 251.698 289.45 251.65C289.536 251.602 289.644 251.614 289.719 251.677C289.728 251.686 290.749 252.512 292.428 252.913C294.676 253.452 296.978 253.015 299.274 251.617C299.358 251.566 299.465 251.569 299.546 251.629C299.627 251.689 299.663 251.791 299.636 251.887L292.661 279.004C292.638 279.114 292.539 279.189 292.428 279.189ZM289.863 252.363L292.527 277.579L299.022 252.33C294.571 254.766 291.069 253.111 289.863 252.363Z" fill="#404040"></path> </svg> 