<?xml version="1.0" encoding="UTF-8"?> <svg xmlns="http://www.w3.org/2000/svg" width="38" height="12" viewBox="0 0 38 12" fill="none"> <path d="M37.7655 5.73488L32.1405 0.109877C32.0328 0.00293191 31.8727 -0.0296581 31.7318 0.0285607C31.5915 0.0864279 31.5003 0.223397 31.5003 0.374991V1.12498C31.5003 1.22458 31.5399 1.31981 31.6102 1.39013L35.4701 5.25H0.375C0.167719 5.25004 -1.17123e-05 5.41773 -1.17123e-05 5.62501V6.375C-1.17123e-05 6.58228 0.167719 6.75001 0.375 6.75001H35.4701L31.6102 10.6099C31.5399 10.6802 31.5003 10.7754 31.5003 10.875V11.625C31.5003 11.7767 31.5915 11.9136 31.7318 11.9715C31.7783 11.9909 31.827 12 31.8753 12C31.9727 12 32.0687 11.962 32.1405 11.8902L37.7655 6.26517C37.9119 6.11868 37.9119 5.88137 37.7655 5.73488Z" fill="#E3B12A"></path> </svg> 