<?xml version="1.0" encoding="UTF-8"?> <svg xmlns="http://www.w3.org/2000/svg" width="645" height="553" viewBox="0 0 645 553" fill="none"> <path d="M596.764 362.871L643.294 193.124C647.123 179.162 636.614 165.386 622.137 165.386H515.028C505.008 165.386 496.263 172.174 493.776 181.882L452.457 343.225H406.661C399.015 343.225 392.815 349.425 392.815 357.072C392.815 369.187 402.638 379.01 414.753 379.01H439.388L419.014 527.848H429.76L466.428 379.01H554.421L591.089 527.848H601.835L581.353 378.232C588.712 376.235 594.674 370.493 596.764 362.871Z" fill="white"></path> <path d="M601.838 528.588H591.089C590.748 528.588 590.453 528.356 590.371 528.025L553.843 379.75H467.009L430.481 528.025C430.398 528.356 430.103 528.588 429.763 528.588H419.014C418.801 528.588 418.596 528.496 418.456 528.336C418.316 528.175 418.251 527.96 418.281 527.748L438.54 379.75H414.753C402.248 379.75 392.074 369.577 392.074 357.072C392.074 349.027 398.617 342.484 406.661 342.484H451.881L493.058 181.699C495.63 171.658 504.662 164.647 515.026 164.647H622.134C629.268 164.647 635.841 167.9 640.164 173.572C644.49 179.245 645.892 186.443 644.005 193.321L597.474 363.069L596.761 362.874L597.474 363.069C595.422 370.56 589.59 376.52 582.171 378.769L602.566 527.75C602.596 527.963 602.531 528.175 602.391 528.338C602.25 528.501 602.05 528.588 601.838 528.588ZM591.669 527.11H600.989L580.623 378.334C580.573 377.964 580.803 377.616 581.163 377.518C588.374 375.559 594.079 369.872 596.053 362.676L642.584 192.931C644.348 186.501 643.039 179.772 638.993 174.471C634.95 169.169 628.805 166.129 622.139 166.129H515.031C505.343 166.129 496.898 172.684 494.496 182.067L453.177 343.41C453.092 343.738 452.799 343.966 452.462 343.966H406.666C399.44 343.966 393.56 349.846 393.56 357.072C393.56 368.761 403.071 378.269 414.758 378.269H439.393C439.606 378.269 439.811 378.362 439.951 378.522C440.091 378.682 440.156 378.897 440.126 379.11L419.865 527.107H429.185L465.713 378.832C465.795 378.502 466.09 378.269 466.431 378.269H554.423C554.764 378.269 555.059 378.502 555.141 378.832L591.669 527.11Z" fill="#404040"></path> <path d="M554.421 379.75C554.023 379.75 553.693 379.432 553.681 379.032C553.668 378.624 553.991 378.284 554.399 378.271L581.333 377.493C581.341 377.493 581.348 377.493 581.356 377.493C581.754 377.493 582.084 377.811 582.096 378.211C582.109 378.619 581.786 378.959 581.378 378.972L554.444 379.75C554.436 379.75 554.429 379.75 554.421 379.75Z" fill="#404040"></path> <path d="M466.428 379.75H439.388C438.98 379.75 438.647 379.42 438.647 379.009C438.647 378.601 438.978 378.269 439.388 378.269H466.428C466.836 378.269 467.169 378.599 467.169 379.009C467.169 379.417 466.836 379.75 466.428 379.75Z" fill="#404040"></path> <path d="M48.0625 362.982L1.53401 193.234C-2.29415 179.272 8.21453 165.496 22.6915 165.496H129.8C139.821 165.496 148.566 172.284 151.053 181.992L192.372 343.336H238.167C245.813 343.336 252.014 349.536 252.014 357.182C252.014 369.297 242.19 379.12 230.075 379.12H205.44L225.814 527.958H215.068L178.4 379.12H90.405L53.7372 527.958H42.9908L63.4727 378.342C56.1166 376.345 50.1517 370.603 48.0625 362.982Z" fill="white"></path> <path d="M225.814 528.699H215.068C214.727 528.699 214.432 528.466 214.35 528.136L177.819 379.861H90.9852L54.4575 528.136C54.3775 528.466 54.0797 528.699 53.7394 528.699H42.993C42.7804 528.699 42.5752 528.606 42.4351 528.446C42.295 528.286 42.2299 528.071 42.2599 527.858L62.6543 378.877C55.2357 376.63 49.4058 370.668 47.3516 363.177L0.82069 193.432C-1.06587 186.551 0.335282 179.355 4.66136 173.683C8.98743 168.011 15.5579 164.758 22.6913 164.758H129.8C140.163 164.758 149.198 171.769 151.768 181.809L192.945 342.595H238.164C246.209 342.595 252.751 349.138 252.751 357.182C252.751 369.687 242.578 379.861 230.075 379.861H206.286L226.545 527.858C226.575 528.071 226.51 528.283 226.37 528.446C226.232 528.606 226.027 528.699 225.814 528.699ZM215.646 527.22H224.966L204.707 379.223C204.677 379.01 204.742 378.797 204.882 378.635C205.022 378.474 205.225 378.382 205.44 378.382H230.075C241.762 378.382 251.273 368.872 251.273 357.184C251.273 349.958 245.393 344.079 238.167 344.079H192.372C192.034 344.079 191.739 343.851 191.656 343.523L150.337 182.177C147.935 172.792 139.49 166.239 129.802 166.239H22.6913C16.0232 166.239 9.88068 169.279 5.83733 174.581C1.79399 179.883 0.485408 186.611 2.24686 193.041L48.7753 362.786C50.7495 369.985 56.4542 375.672 63.6651 377.629C64.0229 377.726 64.2556 378.074 64.2031 378.444L43.8362 527.22H53.1564L89.6841 378.945C89.7642 378.615 90.062 378.382 90.4022 378.382H178.395C178.735 378.382 179.031 378.615 179.113 378.945L215.646 527.22Z" fill="#404040"></path> <path d="M90.4071 379.86C90.3996 379.86 90.3921 379.86 90.3846 379.86L63.4523 379.082C63.0445 379.07 62.7217 378.729 62.7342 378.322C62.7467 377.921 63.0745 377.604 63.4723 377.604C63.4798 377.604 63.4874 377.604 63.4949 377.604L90.4271 378.382C90.835 378.394 91.1577 378.734 91.1452 379.142C91.1327 379.543 90.8049 379.86 90.4071 379.86Z" fill="#404040"></path> <path d="M205.44 379.86H178.4C177.992 379.86 177.659 379.53 177.659 379.12C177.659 378.712 177.989 378.379 178.4 378.379H205.44C205.847 378.379 206.18 378.709 206.18 379.12C206.178 379.527 205.847 379.86 205.44 379.86Z" fill="#404040"></path> <path d="M285.313 73.8694C285.038 73.8694 284.775 73.7168 284.645 73.4516L280.987 65.8904C280.809 65.5225 280.962 65.0797 281.332 64.902C281.698 64.7269 282.143 64.877 282.321 65.2473L285.979 72.8086C286.156 73.1764 286.004 73.6192 285.633 73.7969C285.531 73.8444 285.421 73.8694 285.313 73.8694Z" fill="#404040"></path> <path d="M301.912 73.87C301.804 73.87 301.694 73.845 301.592 73.7974C301.224 73.6198 301.069 73.1769 301.246 72.8091L304.904 65.2479C305.082 64.8801 305.527 64.7274 305.893 64.9026C306.261 65.0802 306.416 65.5231 306.238 65.8909L302.58 73.4521C302.452 73.7149 302.187 73.87 301.912 73.87Z" fill="#404040"></path> <path d="M293.728 66.3083C293.328 66.3083 293 65.9905 292.987 65.5902L292.757 57.1933C292.747 56.7854 293.067 56.4451 293.475 56.4326C293.483 56.4326 293.49 56.4326 293.495 56.4326C293.896 56.4326 294.223 56.7504 294.236 57.1507L294.466 65.5476C294.476 65.9555 294.156 66.2958 293.748 66.3083C293.743 66.3083 293.735 66.3083 293.728 66.3083Z" fill="#404040"></path> <path d="M149.628 171.607C147.451 171.607 145.232 170.486 143.035 168.272C137.911 163.118 134.508 153.552 134.545 147.855C134.595 139.883 141.298 133.215 149.488 132.993C163.284 132.615 180.951 129.61 195.148 127.195C196.892 126.898 198.573 126.612 200.174 126.345C234.32 120.62 278.156 97.6259 278.594 97.3932C278.717 97.3282 278.817 97.2331 278.887 97.113L289.11 79.621C289.361 79.1907 289.716 79.1006 289.971 79.1006C290.296 79.1006 290.624 79.2507 290.824 79.4934C291.015 79.7211 291.08 80.0038 291.017 80.3291L286.338 105.36C285.863 108.21 283.638 110.401 280.796 110.829L280.163 110.924C280.028 110.944 279.9 111.002 279.795 111.092L279.262 111.545C239.117 145.691 194.535 166.443 150.343 171.562C150.106 171.595 149.868 171.607 149.628 171.607C149.628 171.607 149.63 171.607 149.628 171.607Z" fill="white"></path> <path d="M289.974 79.841C290.079 79.841 290.197 79.8936 290.259 79.9686C290.282 79.9962 290.324 80.0462 290.294 80.1963L285.608 105.255C285.19 107.772 283.211 109.721 280.689 110.101L280.056 110.196C279.783 110.236 279.528 110.354 279.318 110.531L278.785 110.984C273.065 115.848 257.87 128.774 235.542 141.572C207.428 157.688 178.735 167.531 150.261 170.829C150.053 170.854 149.841 170.866 149.631 170.866C147.656 170.866 145.617 169.818 143.563 167.754C138.569 162.73 135.251 153.412 135.286 147.86C135.334 140.281 141.714 133.943 149.508 133.731C163.354 133.353 181.049 130.343 195.268 127.923C197.015 127.626 198.696 127.34 200.297 127.073C234.558 121.328 278.502 98.2788 278.942 98.0461C279.188 97.916 279.39 97.7233 279.53 97.4831L289.754 79.9912C289.834 79.8535 289.907 79.841 289.974 79.841ZM289.974 78.3623C289.406 78.3623 288.836 78.63 288.475 79.248L278.252 96.74C278.252 96.74 234.476 119.844 200.055 125.616C185.705 128.023 164.938 131.832 149.468 132.254C140.938 132.487 133.858 139.32 133.805 147.852C133.75 156.574 141.056 172.347 149.628 172.347C149.896 172.347 150.161 172.332 150.429 172.302C219.338 164.321 270.148 120.262 280.274 111.662L280.907 111.567C284.057 111.092 286.544 108.645 287.067 105.502L291.748 80.4715C291.983 79.2155 290.985 78.3623 289.974 78.3623Z" fill="#404040"></path> <path d="M280.889 105.07C280.889 105.07 279.26 101.92 282.213 98.4473C284.174 96.1404 285.465 93.1854 286.164 91.2688C286.549 90.213 287.742 89.7025 288.776 90.1404C289.679 90.5207 290.164 91.509 289.914 92.4548L286.539 105.273" fill="white"></path> <path d="M286.539 106.014C286.476 106.014 286.411 106.007 286.349 105.989C285.953 105.884 285.718 105.481 285.821 105.086L289.196 92.2677C289.351 91.6797 289.046 91.0592 288.486 90.824C288.17 90.6914 287.825 90.6914 287.512 90.829C287.204 90.9617 286.972 91.2093 286.857 91.5246C286.099 93.6038 284.775 96.5763 282.776 98.9282C280.174 101.988 281.53 104.706 281.545 104.733C281.732 105.096 281.59 105.544 281.227 105.731C280.862 105.922 280.416 105.776 280.229 105.414C280.154 105.266 278.41 101.781 281.647 97.9699C283.506 95.7856 284.75 92.9833 285.466 91.0167C285.721 90.3186 286.236 89.7682 286.919 89.4729C287.597 89.1752 288.375 89.1727 289.059 89.4604C290.292 89.9808 290.965 91.3495 290.625 92.6455L287.25 105.464C287.167 105.794 286.867 106.014 286.539 106.014Z" fill="#404040"></path> <path d="M169.407 532.689C164.931 532.056 150.947 528.716 150.239 511.755L165.589 485.205L192.203 502.192L162.784 518.528C162.431 518.723 162.301 519.163 162.489 519.518L169.407 532.689Z" fill="white"></path> <path d="M165.842 486.244L190.757 502.147L162.424 517.88C161.721 518.271 161.458 519.151 161.833 519.862L168.041 531.679C166.202 531.289 163.655 530.541 161.09 529.12C154.77 525.622 151.372 519.842 150.987 511.938L165.842 486.244ZM165.334 484.165L149.491 511.57C150.224 532.487 170.706 533.571 170.706 533.571L163.142 519.176L193.647 502.24L165.334 484.165Z" fill="#404040"></path> <path d="M169.737 531.727C157.58 531.592 149.491 511.57 149.491 511.57L134.909 525.347L180.669 551.999L169.737 531.727Z" fill="#404040"></path> <path d="M214.75 475.931L196.054 508.866L155.471 482.564L208.595 358.196L214.75 475.931Z" fill="#7C95FA"></path> <path d="M196.054 509.607C195.914 509.607 195.772 509.567 195.652 509.487L155.068 483.183C154.765 482.988 154.648 482.603 154.79 482.272L207.914 357.907C208.049 357.592 208.382 357.407 208.725 357.469C209.063 357.529 209.315 357.814 209.335 358.16L215.49 475.895C215.498 476.035 215.465 476.177 215.395 476.297L196.697 509.232C196.597 509.41 196.427 509.537 196.229 509.585C196.169 509.6 196.112 509.607 196.054 509.607ZM156.394 482.282L195.797 507.821L213.999 475.757L208.019 361.422L156.394 482.282Z" fill="#404040"></path> <path d="M88.8032 170.973C96.1642 134.273 110.944 123.702 123.342 125.386L127.828 91.8379C127.828 91.8379 116.864 93.0464 117.194 81.612C117.314 77.4135 121.903 74.6912 123.252 74.1908L130.868 50.6514L183.642 63.1617L180.491 84.3092L173.726 107.221C171.567 115.122 164.909 120.589 157.27 121.615L156.309 121.72L154.325 131.658C184.397 141.499 171.314 197.155 171.314 197.155C168.962 208.237 165.106 219.959 160.7 231.223H160.698C160.698 231.223 142.03 271.922 142.185 271.822L142.03 271.922C136.035 283.459 131.596 290.892 131.596 290.892L77.3062 276.053C77.3137 276.053 83.6039 196.885 88.8032 170.973Z" fill="white"></path> <path d="M131.603 291.633C131.538 291.633 131.473 291.625 131.408 291.605L77.1185 276.765C76.7757 276.673 76.548 276.347 76.5755 275.992C76.638 275.202 82.9308 196.481 88.0775 170.825L88.8031 170.97L88.0775 170.825C96.7847 127.412 114.657 123.806 122.706 124.565L126.98 92.6131C126.962 92.6131 126.942 92.6131 126.925 92.6131C125.278 92.6131 121.918 92.3004 119.421 89.996C117.347 88.0844 116.351 85.2546 116.456 81.589C116.584 77.1729 120.952 74.4106 122.654 73.6374L130.167 50.4208C130.285 50.0555 130.665 49.8428 131.041 49.9279L183.814 62.4407C184.187 62.5308 184.432 62.8911 184.375 63.2689L181.224 84.4164C181.219 84.4514 181.212 84.4839 181.202 84.5164L174.436 107.428C172.262 115.387 165.562 121.247 157.37 122.345L156.929 122.393L155.178 131.163C167.406 135.506 174.199 148.247 174.837 168.068C175.322 183.135 172.067 197.177 172.034 197.317C169.893 207.408 166.31 218.91 161.391 231.488C161.386 231.503 161.378 231.518 161.371 231.533C161.165 231.976 143.531 270.425 142.898 272.021C142.85 272.187 142.745 272.332 142.6 272.429C136.708 283.756 132.279 291.192 132.237 291.267C132.101 291.5 131.859 291.633 131.603 291.633ZM78.0993 275.502L131.253 290.031C132.327 288.202 136.317 281.322 141.379 271.584C141.437 271.471 141.524 271.373 141.629 271.306L141.674 271.276C141.99 270.395 142.768 268.684 144.377 265.143C146.108 261.333 148.425 256.261 150.744 251.189C155.383 241.048 160.029 230.915 160.029 230.915C164.904 218.455 168.464 207.03 170.593 196.999C170.726 196.434 183.176 141.876 154.097 132.361C153.742 132.243 153.529 131.881 153.602 131.513L155.586 121.575C155.648 121.257 155.911 121.019 156.231 120.984L157.192 120.879C164.776 119.863 170.994 114.424 173.015 107.028L179.768 84.1511L182.811 63.7268L131.363 51.5292L123.957 74.4206C123.887 74.6358 123.724 74.8084 123.512 74.886C122.061 75.4239 118.04 78.0261 117.937 81.6366C117.845 84.8567 118.68 87.3037 120.424 88.9126C123.297 91.5623 127.708 91.1119 127.75 91.1044C127.975 91.0819 128.201 91.1594 128.361 91.3221C128.518 91.4847 128.596 91.7124 128.566 91.9376L124.077 125.485C124.052 125.68 123.95 125.856 123.792 125.976C123.637 126.096 123.444 126.146 123.244 126.121C116.018 125.135 98.2684 127.557 89.5287 171.121C84.6397 195.491 78.6998 268.066 78.0993 275.502Z" fill="#404040"></path> <path d="M172.2 88.9034C171.879 90.0719 172.102 91.0652 172.823 91.2604C173.546 91.458 174.494 90.7875 174.814 89.6165C175.134 88.448 174.807 87.3396 174.086 87.142C173.365 86.9468 172.52 87.735 172.2 88.9034Z" fill="#404040"></path> <path d="M156.944 84.9396C156.624 86.108 156.889 87.2615 157.612 87.4591C158.335 87.6568 159.241 86.8236 159.561 85.6527C159.882 84.4842 159.554 83.3758 158.833 83.1781C158.11 82.9829 157.264 83.7711 156.944 84.9396Z" fill="#404040"></path> <path d="M119.949 82.0469C119.853 82.0469 119.756 82.0294 119.663 81.9894C119.285 81.8317 119.108 81.3989 119.265 81.0211C120.431 78.2338 122.063 76.4748 124.114 75.7942C126.884 74.876 129.349 76.3047 129.451 76.3672C129.802 76.5749 129.919 77.0303 129.712 77.3806C129.504 77.7309 129.051 77.8459 128.698 77.6408C128.656 77.6158 126.677 76.4948 124.565 77.2029C122.944 77.7459 121.62 79.2221 120.632 81.5915C120.512 81.8768 120.239 82.0469 119.949 82.0469Z" fill="#404040"></path> <path d="M126.277 86.5055C126.272 86.5055 126.264 86.5055 126.257 86.5055C125.849 86.4955 125.526 86.1552 125.536 85.7474C125.656 81.0109 122.133 78.106 122.098 78.076C121.78 77.8183 121.73 77.3529 121.986 77.0377C122.243 76.7199 122.706 76.6699 123.024 76.9226C123.192 77.0577 127.155 80.2978 127.015 85.7849C127.007 86.1877 126.68 86.5055 126.277 86.5055Z" fill="#404040"></path> <path d="M153.729 40.7003C153.804 40.7153 171.774 43.0698 178.207 48.5968C186.083 55.3649 186.283 63.1188 184.187 70.7902L180.491 84.3089C164.463 79.9277 154.472 61.5701 154.472 61.5701C154.472 61.5701 148.63 72.7918 131.811 76.4724C131.811 76.4724 127.96 72.2414 122.291 75.0612L125.063 61.6201C127.56 53.4909 131.223 35.8888 153.729 40.7003Z" fill="#404040"></path> <path d="M145.492 249.879C145.397 249.879 145.3 249.861 145.205 249.821C110.706 235.327 93.5896 218.708 89.7038 195.939C89.6338 195.536 89.9065 195.153 90.3093 195.086C90.7097 195.013 91.095 195.289 91.1626 195.691C94.9557 217.907 111.8 234.181 145.78 248.457C146.156 248.615 146.333 249.05 146.176 249.426C146.055 249.709 145.783 249.879 145.492 249.879Z" fill="#404040"></path> <path d="M155.641 122.476C154.147 122.476 150.549 122.281 146.764 120.627C146.388 120.464 146.218 120.026 146.381 119.653C146.544 119.278 146.984 119.108 147.354 119.271C151.868 121.24 156.217 120.982 156.262 120.98C156.669 120.967 157.02 121.262 157.047 121.67C157.075 122.078 156.765 122.431 156.359 122.456C156.319 122.461 156.064 122.476 155.641 122.476Z" fill="#404040"></path> <path d="M142.63 140.663C136.423 140.663 129.737 135.673 122.739 125.813C122.504 125.48 122.581 125.017 122.914 124.779C123.249 124.544 123.71 124.622 123.945 124.955C130.981 134.868 137.544 139.637 143.466 139.146C150.087 138.591 153.627 131.405 153.659 131.332C153.837 130.965 154.28 130.807 154.648 130.987C155.016 131.165 155.171 131.608 154.993 131.975C154.835 132.303 151.042 139.995 143.589 140.623C143.271 140.65 142.951 140.663 142.63 140.663Z" fill="#404040"></path> <path d="M162.149 81.5592C161.921 81.5592 161.696 81.4541 161.551 81.2565C160.04 79.1947 156.96 78.4616 154.683 79.6201C154.315 79.8078 153.872 79.6601 153.687 79.2973C153.502 78.932 153.644 78.4867 154.01 78.3015C156.907 76.8278 160.823 77.7611 162.742 80.3807C162.982 80.711 162.912 81.1739 162.582 81.4141C162.454 81.5117 162.302 81.5592 162.149 81.5592Z" fill="#404040"></path> <path d="M178.84 86.5056C178.612 86.5056 178.387 86.4005 178.242 86.2029C176.731 84.1437 173.651 83.4106 171.374 84.5665C171.008 84.7542 170.563 84.6066 170.378 84.2438C170.193 83.8785 170.338 83.4331 170.701 83.2479C173.598 81.7717 177.514 82.7075 179.435 85.3272C179.676 85.6574 179.606 86.1203 179.275 86.363C179.145 86.4606 178.992 86.5056 178.84 86.5056Z" fill="#404040"></path> <path d="M157.51 219.055L218.583 251.684C218.583 251.684 248.978 249.137 245.275 268.771L145.493 249.137L157.51 219.055Z" fill="white"></path> <path d="M245.275 269.511C245.227 269.511 245.18 269.506 245.132 269.496L145.35 249.863C145.135 249.82 144.947 249.682 144.842 249.49C144.737 249.297 144.722 249.067 144.804 248.862L156.822 218.779C156.899 218.584 157.057 218.432 157.255 218.359C157.452 218.286 157.673 218.304 157.858 218.402L218.741 250.931C220.882 250.778 236.563 249.948 243.306 257.424C245.976 260.381 246.881 264.244 246.001 268.911C245.963 269.106 245.853 269.276 245.688 269.386C245.568 269.469 245.423 269.511 245.275 269.511ZM146.511 248.584L244.672 267.9C245.24 264.047 244.412 260.859 242.21 258.417C235.61 251.101 218.813 252.407 218.645 252.425C218.503 252.437 218.36 252.407 218.235 252.34L157.89 220.098L146.511 248.584Z" fill="#404040"></path> <path d="M157.51 219.793C157.392 219.793 157.27 219.763 157.157 219.703C156.869 219.546 128.191 203.62 120.805 166.932C120.725 166.532 120.982 166.142 121.383 166.061C121.783 165.981 122.173 166.239 122.253 166.639C129.499 202.627 157.58 218.25 157.86 218.402C158.221 218.597 158.353 219.045 158.158 219.406C158.025 219.653 157.773 219.793 157.51 219.793Z" fill="#404040"></path> <path d="M163.813 103.78C163.763 103.78 163.713 103.775 163.663 103.765L159.332 102.865C158.931 102.782 158.676 102.389 158.759 101.989C158.841 101.589 159.234 101.331 159.634 101.416L162.925 102.102L162.199 97.3476C161.799 92.9965 165.207 88.9482 165.352 88.778C165.617 88.4678 166.082 88.4277 166.392 88.6955C166.703 88.9607 166.74 89.4261 166.478 89.7388C166.445 89.7764 163.33 93.4894 163.668 97.17L164.548 102.932C164.586 103.172 164.501 103.413 164.326 103.58C164.183 103.71 164.001 103.78 163.813 103.78Z" fill="#404040"></path> <path d="M149.055 103.68C149.055 103.68 152.643 110.453 163.182 111.031C163.182 111.031 158.01 117.451 152.093 113.573C147.572 110.61 149.055 103.68 149.055 103.68Z" fill="#404040"></path> <path d="M91.7956 127.007C88.2026 136.167 90.7122 147.148 97.1901 154.552C103.668 161.956 113.641 165.861 123.482 165.916C126.662 165.934 129.942 165.549 132.722 164C135.502 162.451 137.689 159.546 137.656 156.363C137.626 153.486 135.845 150.899 133.725 148.955C131.606 147.011 129.104 145.522 126.97 143.593C122.266 139.344 119.579 132.954 119.834 126.624C120.219 116.981 126.875 108.667 128.561 99.1637C128.894 97.2846 129.347 92.5207 126.81 91.6525C124.52 90.8693 122.836 94.1771 121.7 95.6208C118.623 99.5315 115.057 102.824 111.219 105.977C103.881 112.002 95.3961 117.829 91.7956 127.007Z" fill="#404040"></path> <path d="M253.637 542.281C246.066 542.281 240.033 538.673 235.707 531.554L226.732 500.406H258.939L249.939 531.65C249.849 531.962 249.974 532.295 250.244 532.473L262.685 540.602C260.951 541.253 257.578 542.281 253.637 542.281Z" fill="white"></path> <path d="M257.955 501.146L249.228 531.446C249.048 532.069 249.295 532.74 249.841 533.095L261.01 540.394C259.196 540.952 256.579 541.542 253.637 541.542C246.371 541.542 240.571 538.082 236.39 531.256L227.715 501.146H257.955ZM259.919 499.665H225.749L235.021 531.854C240.413 540.782 247.689 543.021 253.634 543.021C259.622 543.021 264.26 540.749 264.26 540.749L250.647 531.854L259.919 499.665Z" fill="#404040"></path> <path d="M262.517 539.611C251.83 545.408 235.021 531.854 235.021 531.854L228.986 550.985L281.935 552.001L262.517 539.611Z" fill="#404040"></path> <path d="M77.6363 276.183C77.6363 276.183 52.7081 314.985 77.3986 344.807C99.6469 371.679 203.468 347.787 203.468 347.787L216.313 505.832L271.484 503.453L253.96 316.026C252.166 295.561 235.081 279.833 214.539 279.733L132.231 281.667L77.6363 276.183Z" fill="#7C95FA"></path> <path d="M216.313 506.571C215.931 506.571 215.608 506.278 215.578 505.89L202.8 348.693C198.118 349.729 174.446 354.78 148.845 357.11C110.453 360.603 86.2233 356.622 76.8305 345.277C63.8823 329.639 64.6305 311.557 67.5404 299.142C70.678 285.746 76.9531 275.88 77.0157 275.782C77.1658 275.55 77.4335 275.407 77.7113 275.447L132.259 280.929L214.522 278.995C235.597 279.098 252.859 294.988 254.698 315.963L272.222 503.386C272.242 503.588 272.177 503.788 272.042 503.941C271.909 504.094 271.719 504.186 271.516 504.194L216.346 506.573C216.333 506.571 216.323 506.571 216.313 506.571ZM203.468 347.046C203.623 347.046 203.775 347.096 203.906 347.189C204.078 347.317 204.188 347.512 204.206 347.727L216.994 505.062L270.676 502.748L253.221 316.096C251.45 295.884 234.819 280.571 214.534 280.474L132.246 282.41C132.216 282.413 132.186 282.41 132.154 282.408L78.0215 276.968C75.5595 281.057 55.2052 316.844 77.9665 344.337C99.6694 370.551 202.267 347.304 203.3 347.066C203.358 347.054 203.413 347.046 203.468 347.046Z" fill="#404040"></path> <path d="M219.298 151.389C218.945 151.389 218.635 151.137 218.57 150.779L213.911 124.467C213.839 124.064 214.109 123.681 214.512 123.609C214.915 123.531 215.297 123.806 215.37 124.209L220.029 150.521C220.101 150.924 219.831 151.307 219.428 151.379C219.383 151.384 219.341 151.389 219.298 151.389Z" fill="#404040"></path> <path d="M294.842 117.153C291.647 115.196 290.083 111.436 290.954 107.79L297.607 79.9648C297.759 79.3268 298.272 79.1016 298.7 79.1016C299.148 79.1016 299.673 79.3393 299.809 80.0073L304.19 101.858C304.23 102.053 304.345 102.226 304.515 102.333L310.317 106.086L301.507 121.234L294.842 117.153Z" fill="white"></path> <path d="M298.705 79.8391C299.025 79.8391 299.07 80.0718 299.085 80.1493L303.466 102C303.544 102.393 303.779 102.736 304.114 102.951L309.324 106.318L301.249 120.202L295.227 116.517C292.305 114.728 290.878 111.29 291.674 107.957L298.327 80.1318C298.35 80.0543 298.4 79.8391 298.705 79.8391ZM298.705 78.3604C297.914 78.3604 297.121 78.8333 296.891 79.7915L290.238 107.617C289.295 111.563 290.998 115.666 294.456 117.783L301.77 122.259L311.315 105.846L304.92 101.71L300.539 79.8591C300.336 78.8633 299.521 78.3604 298.705 78.3604Z" fill="#404040"></path> <path d="M297.696 110.177C297.696 110.177 301.167 107.29 299.423 101.753C298.264 98.0745 298.214 93.9687 298.344 91.3765C298.417 89.9478 297.269 88.7568 295.84 88.7568C294.591 88.7568 293.535 89.6751 293.358 90.9086L290.966 107.615" fill="white"></path> <path d="M297.699 110.917C297.486 110.917 297.276 110.827 297.131 110.65C296.871 110.337 296.913 109.872 297.224 109.609C297.359 109.494 300.281 106.929 298.72 101.973C297.547 98.247 297.469 94.1336 297.609 91.3388C297.634 90.8584 297.464 90.398 297.131 90.0502C296.793 89.6949 296.335 89.4998 295.845 89.4998C294.972 89.4998 294.219 90.1528 294.096 91.016L291.704 107.722C291.647 108.128 291.276 108.408 290.866 108.35C290.461 108.293 290.18 107.917 290.238 107.512L292.63 90.8058C292.858 89.217 294.239 88.0186 295.845 88.0186C296.733 88.0186 297.594 88.3864 298.205 89.0294C298.82 89.6774 299.135 90.5231 299.09 91.4138C298.955 94.0886 299.028 98.0143 300.134 101.53C302.005 107.472 298.332 110.615 298.175 110.745C298.032 110.862 297.864 110.917 297.699 110.917Z" fill="#404040"></path> <path d="M564.15 147.1C520.544 75.0007 473.317 84.8788 473.317 84.8788L438.301 91.124C422.913 96.1457 409.78 100.732 402.479 103.679C352.31 123.931 312.216 101.598 312.216 101.598L300.649 121.489C354.614 178.907 431.1 147.245 431.1 147.245C437.115 186.105 440.37 225.68 445.854 270.147L554.544 268.771L549.257 219.052C582.93 231.29 584.877 181.374 564.15 147.1Z" fill="#7C95FA"></path> <path d="M445.852 270.888C445.479 270.888 445.163 270.61 445.118 270.24C443.067 253.598 441.323 237.615 439.634 222.157C436.837 196.516 434.192 172.276 430.506 148.271C426.453 149.8 408.753 155.995 386.13 156.641C362.363 157.324 328.172 151.859 300.109 121.997C299.886 121.759 299.843 121.402 300.008 121.119L311.576 101.227C311.778 100.88 312.224 100.757 312.576 100.952C312.974 101.172 352.962 122.87 402.203 102.994C409.311 100.124 422.385 95.5402 438.073 90.421C438.105 90.411 438.138 90.401 438.173 90.396L473.189 84.1533C473.657 84.0533 485.384 81.7188 502.646 88.2617C531.37 99.1507 552.292 126.063 564.785 146.718C579.457 170.975 582.782 202.509 572.051 215.574C568.538 219.85 561.905 224.029 550.118 220.136L555.282 268.693C555.305 268.901 555.237 269.106 555.099 269.264C554.962 269.419 554.764 269.509 554.556 269.512L445.867 270.888C445.859 270.888 445.857 270.888 445.852 270.888ZM431.097 146.505C431.222 146.505 431.347 146.537 431.46 146.6C431.657 146.713 431.792 146.908 431.827 147.133C435.593 171.471 438.273 196.013 441.108 221.997C442.771 237.245 444.49 253.008 446.507 269.401L553.721 268.045L548.519 219.135C548.491 218.88 548.597 218.632 548.799 218.474C549.002 218.317 549.267 218.274 549.507 218.362C558.747 221.717 566.146 220.431 570.905 214.639C581.278 202.011 577.893 171.26 563.516 147.488C551.166 127.064 530.504 100.459 502.228 89.6904C485.347 83.2601 473.584 85.5845 473.469 85.607L438.483 91.8447C422.848 96.9489 409.827 101.513 402.756 104.368C356.273 123.131 317.891 105.306 312.501 102.581L301.567 121.384C329.183 150.488 362.743 155.815 386.09 155.162C411.526 154.436 430.626 146.642 430.817 146.565C430.904 146.525 431.002 146.505 431.097 146.505Z" fill="#404040"></path> <path d="M445.852 270.147L554.541 268.771C554.541 268.771 592.808 362.31 443.877 353.078L445.902 522.573L397.662 521.657L365.866 316.53C364.872 303.272 370.159 284.146 387.699 284.606L446.935 281.223L445.852 270.147Z" fill="#404040"></path> <path d="M413.395 522.573L369.263 552H439.624L437.44 522.573H413.395Z" fill="#404040"></path> <path d="M337.835 515.479L286.692 529.536L353.483 551.659L360.661 523.041L337.835 515.479Z" fill="#404040"></path> <path d="M443.877 353.818C443.872 353.818 443.865 353.818 443.86 353.818C443.452 353.808 443.129 353.468 443.139 353.06L443.445 340.357C443.455 339.954 443.785 339.637 444.185 339.637C444.19 339.637 444.198 339.637 444.203 339.637C444.611 339.647 444.933 339.987 444.923 340.395L444.618 353.098C444.608 353.501 444.278 353.818 443.877 353.818Z" fill="#404040"></path> <path d="M368.107 527.159L328.82 511.969L365.763 312.464L386.938 452.472L368.107 527.159Z" fill="#404040"></path> <path d="M474.197 38.7656C469.921 26.608 459.57 35.7456 459.57 35.7456L455.472 21.5814C455.472 21.5814 425.877 0.859254 408.666 34.0767L418.894 68.5752C421.344 76.8321 429.23 82.4542 437.304 83.2449L439.654 91.6068L452.174 99.148L473.314 84.8787L464.034 51.9615C464.527 51.924 478.398 50.7105 474.197 38.7656Z" fill="white"></path> <path d="M452.176 99.8881C452.044 99.8881 451.911 99.8531 451.796 99.7831L439.276 92.2418C439.113 92.1442 438.996 91.9891 438.946 91.8065L436.731 83.9249C428.119 82.8766 420.54 76.714 418.188 68.7849L407.957 34.2864C407.902 34.1038 407.922 33.9061 408.01 33.736C413.292 23.5425 420.273 17.3149 428.762 15.2307C442.614 11.8228 455.362 20.6001 455.897 20.9754C456.035 21.073 456.137 21.2131 456.185 21.3757L459.978 34.4841C461.647 33.2631 465.377 30.9987 468.988 31.932C471.613 32.615 473.599 34.8319 474.898 38.5224C476.151 42.0829 475.991 45.1079 474.427 47.5123C472.048 51.1704 467.031 52.2863 464.987 52.594L474.032 84.6806C474.12 84.9883 474 85.3161 473.734 85.4937L452.594 99.763C452.464 99.8456 452.319 99.8881 452.176 99.8881ZM440.289 91.1234L452.154 98.2693L472.458 84.5655L463.326 52.1637C463.266 51.951 463.303 51.7208 463.431 51.5407C463.556 51.358 463.759 51.2429 463.979 51.2254C464.249 51.2029 470.612 50.6574 473.184 46.7017C474.485 44.7025 474.59 42.1154 473.499 39.0103C472.376 35.8177 470.734 33.9161 468.615 33.3631C464.629 32.3173 460.103 36.258 460.058 36.2981C459.868 36.4657 459.608 36.5233 459.362 36.4532C459.12 36.3831 458.93 36.193 458.86 35.9478L454.836 22.0438C453.127 20.9254 441.363 13.6468 429.105 16.6668C421.128 18.631 414.52 24.5133 409.461 34.1513L419.607 68.3621C421.836 75.8833 429.145 81.6981 437.379 82.5063C437.682 82.5363 437.937 82.749 438.02 83.0417L440.289 91.1234Z" fill="#404040"></path> <path d="M434.412 36.088C434.412 36.088 436.701 32.2399 441.523 34.0789Z" fill="white"></path> <path d="M434.409 36.8289C434.282 36.8289 434.149 36.7938 434.032 36.7238C433.679 36.5161 433.566 36.0607 433.774 35.7105C433.801 35.6679 436.444 31.3493 441.783 33.3885C442.166 33.5337 442.356 33.9615 442.211 34.3418C442.066 34.7246 441.638 34.9148 441.257 34.7697C437.067 33.1709 435.125 36.331 435.045 36.4661C434.907 36.7013 434.662 36.8289 434.409 36.8289Z" fill="#404040"></path> <path d="M416.152 42.0913C416.152 42.0913 418.449 38.2481 423.265 40.0946Z" fill="white"></path> <path d="M416.152 42.8289C416.022 42.8289 415.889 42.7938 415.771 42.7213C415.424 42.5111 415.309 42.0582 415.519 41.7104C415.546 41.6679 418.196 37.3568 423.533 39.4035C423.913 39.5512 424.106 39.979 423.958 40.3593C423.811 40.7396 423.383 40.9298 423.002 40.7847C418.852 39.1909 416.867 42.3385 416.785 42.4711C416.647 42.7013 416.402 42.8289 416.152 42.8289Z" fill="#404040"></path> <path d="M462.391 36.5894C462.391 36.5894 468.413 32.8438 471.964 40.8555Z" fill="white"></path> <path d="M471.963 41.5933C471.681 41.5933 471.41 41.4282 471.288 41.1529C470.202 38.7009 468.783 37.1897 467.072 36.6617C464.825 35.9711 462.803 37.2022 462.783 37.2147C462.435 37.4299 461.98 37.3223 461.765 36.977C461.55 36.6292 461.655 36.1738 462.003 35.9586C462.108 35.8911 464.62 34.3573 467.507 35.2481C469.646 35.9061 471.373 37.6901 472.641 40.5524C472.807 40.9252 472.639 41.3631 472.266 41.5282C472.166 41.5733 472.063 41.5933 471.963 41.5933Z" fill="#404040"></path> <path d="M425.41 1.97784C453.726 -3.83947 457.264 4.21719 460.111 12.6567C461.895 17.9435 464.557 32.3179 464.557 32.3179C461.169 33.5114 458.82 36.4914 458.82 36.4914L455.62 27.9418C453.303 21.9669 446.145 19.3122 440.648 22.6024C437.91 24.2412 435.521 26.6282 432.623 28.4122C426.261 32.3279 413.518 36.684 408.316 33.7591C407.733 33.4313 407.087 32.8834 406.444 32.1603C399.944 29.3204 398.505 7.50491 425.41 1.97784Z" fill="#404040"></path> <path d="M444.098 63.4004C443.867 70.9716 438.618 76.4337 428.33 68.9375L444.098 63.4004Z" fill="#404040"></path> <path d="M437.304 83.9854C436.911 83.9854 436.584 83.6751 436.566 83.2773C436.549 82.8695 436.864 82.5242 437.272 82.5066C437.322 82.5041 442.251 82.2664 447.142 80.1272C447.518 79.962 447.953 80.1347 448.116 80.5075C448.278 80.8803 448.108 81.3182 447.735 81.4808C442.579 83.7352 437.547 83.9754 437.334 83.9829C437.327 83.9854 437.317 83.9854 437.304 83.9854Z" fill="#404040"></path> <path d="M465.798 45.1228C465.798 45.1228 469.526 43.1487 468.488 36.4932Z" fill="white"></path> <path d="M465.8 45.8638C465.535 45.8638 465.277 45.7212 465.145 45.471C464.955 45.1107 465.09 44.6678 465.447 44.4727C465.59 44.3951 468.693 42.5961 467.757 36.6087C467.694 36.2059 467.97 35.8255 468.375 35.763C468.783 35.6954 469.156 35.9757 469.221 36.381C470.329 43.4744 466.318 45.6862 466.146 45.7788C466.035 45.8363 465.915 45.8638 465.8 45.8638Z" fill="#404040"></path> <path d="M436.214 42.4742C436.214 42.4742 438.556 37.2123 442.374 40.1022Z" fill="white"></path> <path d="M436.214 43.2125C436.114 43.2125 436.011 43.1925 435.913 43.1475C435.541 42.9823 435.373 42.5445 435.538 42.1717C435.591 42.0516 436.879 39.2142 439.229 38.6062C440.415 38.301 441.623 38.6037 442.819 39.5095C443.144 39.7572 443.21 40.2201 442.962 40.5453C442.714 40.8706 442.251 40.9357 441.926 40.6879C441.098 40.0624 440.332 39.8498 439.602 40.0374C437.943 40.4628 436.899 42.7497 436.889 42.7747C436.767 43.0499 436.497 43.2125 436.214 43.2125Z" fill="#404040"></path> <path d="M417.105 48.3648C417.105 48.3648 419.447 43.1029 423.265 45.9928Z" fill="white"></path> <path d="M417.105 49.1022C417.005 49.1022 416.903 49.0822 416.805 49.0371C416.432 48.872 416.265 48.4341 416.43 48.0613C416.482 47.9412 417.771 45.1014 420.12 44.4959C421.306 44.1906 422.517 44.4934 423.713 45.3991C424.039 45.6468 424.104 46.1097 423.856 46.435C423.608 46.7577 423.145 46.8253 422.82 46.5776C421.992 45.9496 421.231 45.7394 420.493 45.9271C418.834 46.3524 417.791 48.6393 417.781 48.6643C417.658 48.9396 417.388 49.1022 417.105 49.1022Z" fill="#404040"></path> <path d="M428.329 44.6357C428.329 44.6357 426.268 57.9743 430.133 59.3004C433.997 60.6265 434.412 59.3004 434.412 59.3004" fill="white"></path> <path d="M432.963 60.629C432.138 60.629 431.112 60.4188 429.893 60.0009C425.657 58.5472 427.239 46.8526 427.599 44.5231C427.661 44.1203 428.029 43.8351 428.442 43.9051C428.845 43.9677 429.123 44.3455 429.06 44.7483C428.244 50.0327 428.112 57.8241 430.371 58.5998C432.963 59.488 433.654 59.0501 433.742 58.9801C433.897 58.6523 434.272 58.4797 434.63 58.5923C435.02 58.7149 435.238 59.1277 435.115 59.518C435.078 59.6406 434.91 60.056 434.337 60.3462C433.972 60.5339 433.511 60.629 432.963 60.629ZM433.707 59.0777C433.707 59.0802 433.707 59.0802 433.707 59.0777C433.707 59.0802 433.707 59.0802 433.707 59.0777Z" fill="#404040"></path> <path d="M475.101 128.443C478.566 126.839 481.326 128.613 483.873 131.458L495.793 144.766L482.031 160.132L469.874 154.122C467.492 152.943 465.24 151.522 463.153 149.876L460.006 147.391C458.552 146.245 458.304 144.138 459.45 142.685C460.596 141.231 462.5 140.778 463.954 141.924C462.025 140.403 461.695 137.606 463.218 135.676C464.74 133.747 467.537 133.417 469.466 134.941L470.569 135.812C468.64 134.29 467.542 131.198 469.066 129.269C470.587 127.34 473.922 126.764 478.306 130.587" fill="white"></path> <path d="M482.031 160.872C481.919 160.872 481.808 160.847 481.703 160.794L469.546 154.784C467.124 153.588 464.817 152.13 462.695 150.456L459.548 147.969C458.689 147.293 458.146 146.322 458.019 145.236C457.891 144.151 458.194 143.082 458.872 142.224C459.55 141.363 460.466 140.788 461.452 140.6C461.627 140.568 461.799 140.548 461.972 140.54C461.216 138.836 461.407 136.779 462.638 135.216C463.941 133.564 466.053 132.921 467.972 133.397C467.912 133.227 467.857 133.056 467.809 132.884C467.392 131.338 467.632 129.891 468.485 128.808C469.286 127.795 470.459 127.167 471.793 127.044C472.616 126.966 473.734 127.061 475.103 127.632C479.241 125.921 482.396 128.698 484.423 130.962L496.343 144.271C496.596 144.551 496.596 144.976 496.343 145.259L482.582 160.624C482.436 160.787 482.236 160.872 482.031 160.872ZM462.137 142.019C462.002 142.019 461.862 142.031 461.724 142.059C461.089 142.179 460.488 142.564 460.03 143.145C459.598 143.693 459.405 144.376 459.488 145.069C459.57 145.762 459.915 146.38 460.463 146.813L463.611 149.297C465.653 150.909 467.872 152.31 470.201 153.461L481.856 159.221L494.799 144.769L483.322 131.953C481.008 129.368 479.026 128.31 476.959 128.633C477.54 129.011 478.15 129.473 478.793 130.031C479.101 130.299 479.134 130.767 478.864 131.075C478.596 131.383 478.128 131.415 477.82 131.145C476.714 130.182 475.731 129.549 474.873 129.146C474.818 129.128 474.765 129.106 474.718 129.076C473.537 128.548 472.601 128.46 471.93 128.52C470.99 128.608 470.201 129.026 469.646 129.729C468.895 130.679 469.068 131.873 469.238 132.501C469.523 133.549 470.191 134.57 471.03 135.231C471.35 135.483 471.405 135.949 471.152 136.269C470.899 136.589 470.434 136.644 470.114 136.392L469.01 135.521C467.407 134.252 465.07 134.53 463.801 136.134C462.535 137.74 462.81 140.077 464.417 141.343C464.737 141.596 464.792 142.061 464.539 142.382C464.286 142.702 463.821 142.757 463.501 142.504C463.501 142.504 463.498 142.504 463.498 142.502C463.085 142.184 462.623 142.019 462.137 142.019Z" fill="#404040"></path> <path d="M549.252 219.792C549.115 219.792 548.977 219.755 548.852 219.675C512.699 196.425 481.779 160.969 481.471 160.613C481.203 160.305 481.236 159.838 481.546 159.57C481.856 159.302 482.322 159.337 482.59 159.645C482.897 160 513.683 195.297 549.655 218.429C549.998 218.649 550.098 219.107 549.878 219.452C549.735 219.675 549.497 219.792 549.252 219.792Z" fill="#404040"></path> <path d="M549.254 168.565C549.172 168.565 549.087 168.55 549.004 168.523C534.677 163.388 495.873 145.619 495.485 145.439C495.112 145.269 494.95 144.828 495.12 144.458C495.29 144.088 495.728 143.92 496.1 144.093C496.491 144.27 535.235 162.015 549.505 167.127C549.89 167.264 550.09 167.687 549.952 168.072C549.842 168.378 549.557 168.565 549.254 168.565Z" fill="#404040"></path> <path d="M440.382 113.448C440.327 113.448 440.272 113.443 440.217 113.43C439.952 113.37 439.739 113.168 439.669 112.905L434.069 92.4757C433.962 92.0828 434.194 91.675 434.587 91.5674C434.978 91.4573 435.388 91.69 435.495 92.0853L440.73 111.181L451.616 98.6658C451.876 98.368 452.324 98.3255 452.632 98.5707L466.929 109.865L481.383 84.1363C481.584 83.781 482.034 83.6534 482.392 83.8535C482.747 84.0537 482.875 84.5041 482.674 84.8619L467.795 111.346C467.69 111.534 467.504 111.667 467.294 111.709C467.082 111.749 466.861 111.697 466.691 111.564L452.269 100.172L440.94 113.198C440.8 113.355 440.595 113.448 440.382 113.448Z" fill="#404040"></path> <path d="M590.12 259.708H47.8545V269.296H76.871V551.659H90.3671V269.296H547.608V551.659H561.101V269.296H590.12V259.708Z" fill="#404040"></path> <path d="M418.006 189.623V247.311H465.763V259.606H418.006H357.008H308.112V189.623H418.006Z" fill="#B3B3B3"></path> <path d="M465.762 260.344H308.112C307.704 260.344 307.372 260.014 307.372 259.604V189.623C307.372 189.216 307.702 188.883 308.112 188.883H418.006C418.413 188.883 418.746 189.213 418.746 189.623V246.57H465.765C466.173 246.57 466.506 246.901 466.506 247.311V259.606C466.503 260.014 466.17 260.344 465.762 260.344ZM308.85 258.866H465.022V248.052H418.003C417.595 248.052 417.262 247.721 417.262 247.311V190.364H308.848V258.866H308.85Z" fill="#404040"></path> <path d="M361.501 232.416C364.635 232.416 367.176 229.875 367.176 226.741C367.176 223.607 364.635 221.066 361.501 221.066C358.367 221.066 355.827 223.607 355.827 226.741C355.827 229.875 358.367 232.416 361.501 232.416Z" fill="white"></path> <path d="M174.371 189.624V247.312H126.612V259.607H174.371H235.367H284.265V189.624H174.371Z" fill="#B3B3B3"></path> <path d="M284.265 260.345H126.612C126.204 260.345 125.872 260.015 125.872 259.604V247.309C125.872 246.901 126.202 246.569 126.612 246.569H173.629V189.621C173.629 189.214 173.959 188.881 174.369 188.881H284.263C284.67 188.881 285.003 189.211 285.003 189.621V259.602C285.003 260.015 284.673 260.345 284.265 260.345ZM127.353 258.866H283.524V190.365H175.11V247.312C175.11 247.72 174.779 248.052 174.369 248.052H127.353V258.866Z" fill="#404040"></path> <path d="M230.876 232.417C234.01 232.417 236.551 229.876 236.551 226.742C236.551 223.608 234.01 221.067 230.876 221.067C227.742 221.067 225.201 223.608 225.201 226.742C225.201 229.876 227.742 232.417 230.876 232.417Z" fill="white"></path> </svg> 