<?xml version="1.0" encoding="UTF-8"?> <svg xmlns="http://www.w3.org/2000/svg" width="73" height="73" viewBox="0 0 73 73" fill="none"> <circle cx="36.5" cy="36.5" r="36.5" fill="#FFF9E8"></circle> <g clip-path="url(#clip0)"> <path d="M20.4934 53.6544C20.3742 53.4746 20.1842 53.3465 19.9727 53.3037C19.7613 53.2609 19.5364 53.3049 19.3566 53.4241C19.1768 53.5434 19.0487 53.7334 19.0059 53.9449C18.9631 54.1563 19.0071 54.3812 19.1263 54.561C19.2456 54.7408 19.4356 54.8689 19.647 54.9117C19.8585 54.9545 20.0833 54.9105 20.2632 54.7912C20.443 54.672 20.571 54.482 20.6139 54.2705C20.6567 54.0591 20.6127 53.8342 20.4934 53.6544Z" fill="black"></path> <path d="M46.2335 60.2966L19.4289 54.8675L26.3123 20.8831L29.0994 16.963L33.3164 15.824L37.0487 17.0783L38.5755 19.3807L39.4237 25.0336L41.6291 23.9855L45.8462 22.8464L49.4815 24.5793L52.0565 29.0872L46.2335 60.2966Z" fill="white"></path> <path d="M46.8809 22.0945C44.5378 21.62 42.2242 22.2916 40.5226 23.7221C41.1902 19.7337 38.5707 15.8917 34.5773 15.0829C30.4988 14.2568 26.5086 16.9029 25.6825 20.9814L19.006 53.9449C18.916 54.3889 19.2031 54.8218 19.6471 54.9117C20.0912 55.0016 20.524 54.7146 20.614 54.2706L24.426 35.4495L25.8322 37.5701L25.4509 39.4527C25.361 39.8968 25.648 40.3296 26.0921 40.4195C26.5361 40.5095 26.969 40.2224 27.0589 39.7784L27.1145 39.5038L27.6145 40.2577C27.7397 40.4465 27.9296 40.5666 28.1353 40.6083C28.341 40.65 28.5628 40.6132 28.7515 40.488C29.129 40.2376 29.2322 39.7285 28.9818 39.3509L28.4818 38.597L28.8887 38.6794C29.3327 38.7693 29.7656 38.4823 29.8555 38.0382C29.9454 37.5942 29.6584 37.1613 29.2143 37.0714L27.1996 36.6633L24.8866 33.1754L27.2904 21.3071C27.9369 18.1152 31.0597 16.0443 34.2516 16.6908C37.4435 17.3373 39.5143 20.4601 38.8678 23.652L38.0276 27.8005C38.0129 27.8643 37.9991 27.9285 37.986 27.993L32.8415 53.3923C32.8381 53.4092 32.8363 53.4259 32.8339 53.4426L32.1913 56.6155C32.1013 57.0595 32.3884 57.4924 32.8324 57.5823C33.2765 57.6722 33.7093 57.3852 33.7993 56.9412L39.6165 28.2202C40.3071 25.0847 43.3966 23.0627 46.5552 23.7025C49.7471 24.349 51.8179 27.4718 51.1714 30.6637L48.9265 41.7472L45.5163 44.0087L43.5014 43.6006C43.0573 43.5107 42.6245 43.7977 42.5346 44.2417C42.4446 44.6858 42.7317 45.1186 43.1757 45.2086L43.5826 45.291L42.8287 45.791C42.4511 46.0413 42.348 46.5504 42.5983 46.928C42.7236 47.1169 42.9134 47.237 43.1192 47.2787C43.3249 47.3203 43.5466 47.2836 43.7353 47.1583L44.4893 46.6584L44.4337 46.9329C44.3437 47.377 44.6308 47.8098 45.0748 47.8998C45.5189 47.9897 45.9517 47.7027 46.0416 47.2586L46.4229 45.3761L48.4659 44.0213L45.3742 59.2856C45.2842 59.7296 45.5713 60.1625 46.0153 60.2524C46.4594 60.3424 46.8922 60.0553 46.9821 59.6113L52.7793 30.9893C53.6055 26.9108 50.9594 22.9206 46.8809 22.0945Z" fill="#F7C53E"></path> <path d="M30.9605 22.6171C30.8415 22.4364 30.6513 22.3092 30.4398 22.2664C30.2284 22.2235 30.0037 22.2667 29.8237 22.3868C29.6439 22.506 29.516 22.6952 29.473 22.9075C29.4302 23.119 29.4742 23.3438 29.5934 23.5236C29.7127 23.7035 29.9027 23.8315 30.1142 23.8743C30.3256 23.9172 30.5505 23.8731 30.7303 23.7539C30.9101 23.6346 31.0382 23.4446 31.081 23.2332C31.1238 23.0217 31.0798 22.7969 30.9605 22.6171Z" fill="#F7C53E"></path> <path d="M36.1229 23.6627C36.0038 23.4821 35.8136 23.3548 35.6022 23.312C35.3907 23.2692 35.1661 23.3124 34.9861 23.4325C34.8062 23.5517 34.6784 23.7409 34.6354 23.9532C34.5925 24.1646 34.6365 24.3895 34.7558 24.5693C34.8751 24.7491 35.0651 24.8772 35.2765 24.92C35.488 24.9628 35.7128 24.9188 35.8926 24.7995C36.0725 24.6803 36.2005 24.4903 36.2433 24.2788C36.2863 24.0666 36.2421 23.8425 36.1229 23.6627Z" fill="#F7C53E"></path> <path d="M34.4206 27.0732C34.1704 26.6956 33.6613 26.5925 33.2837 26.8429C32.5934 27.3007 31.6593 27.1115 31.2017 26.4212C30.9513 26.0437 30.4422 25.9406 30.0646 26.1909C29.687 26.4412 29.5839 26.9503 29.8343 27.328C30.3131 28.0501 31.0411 28.5101 31.8298 28.6698C32.6185 28.8296 33.4682 28.6891 34.1903 28.2102C34.5678 27.9599 34.6709 27.4508 34.4206 27.0732Z" fill="#F7C53E"></path> <path d="M47.1105 33.8865L42.0722 32.866C41.6281 32.776 41.1953 33.0631 41.1053 33.5071C40.7342 35.3395 41.923 37.1322 43.7554 37.5033C45.5877 37.8744 47.3805 36.6857 47.7517 34.8533C47.8416 34.4092 47.5546 33.9764 47.1105 33.8865ZM44.0811 35.8954C43.4257 35.7627 42.9298 35.2776 42.7509 34.6775L45.7805 35.2911C45.3821 35.7742 44.7365 36.0282 44.0811 35.8954Z" fill="#F7C53E"></path> <path d="M44.1768 29.9476C43.5102 28.9425 42.15 28.667 41.1447 29.3335C40.7672 29.5839 40.6641 30.0929 40.9144 30.4706C41.1648 30.8481 41.6739 30.9512 42.0515 30.7009C42.1732 30.6201 42.3191 30.5916 42.4623 30.6206C42.6055 30.6496 42.7288 30.7326 42.8095 30.8544C42.9347 31.0432 43.1246 31.1634 43.3303 31.205C43.536 31.2467 43.7578 31.2099 43.9465 31.0847C44.324 30.8343 44.4272 30.3253 44.1768 29.9476Z" fill="#F7C53E"></path> <path d="M49.2773 30.9806C48.6107 29.9755 47.2505 29.7 46.2453 30.3665C45.8677 30.6168 45.7646 31.1259 46.015 31.5035C46.2653 31.8811 46.7744 31.9842 47.152 31.7338C47.2738 31.6531 47.4197 31.6246 47.5628 31.6536C47.706 31.6826 47.8293 31.7656 47.91 31.8874C48.0353 32.0762 48.2251 32.1963 48.4308 32.238C48.6366 32.2797 48.8583 32.2429 49.047 32.1177C49.4246 31.8673 49.5277 31.3582 49.2773 30.9806Z" fill="#F7C53E"></path> </g> <defs> <clipPath id="clip0"> <rect x="20.5867" y="12.2493" width="42" height="42" transform="rotate(11.45 20.5867 12.2493)" fill="white"></rect> </clipPath> </defs> </svg> 