<?xml version="1.0" encoding="UTF-8"?> <svg xmlns="http://www.w3.org/2000/svg" width="109" height="109" viewBox="0 0 109 109" fill="none"> <circle cx="54.5" cy="54.5" r="54.5" fill="#F1F4FF"></circle> <path d="M41.6774 24.8704H75.9732L78.9128 27.5729V61.1259V77.7839L75.9732 78.7638H60.2951L58.3353 79.7436L52.4561 82.6833L50.4963 85.6229H29.9188L31.8786 81.7034L33.8383 75.8241V71.9046L32.8585 67.0052L33.8383 64.0656L38.7377 54.2668V27.81L41.6774 24.8704Z" fill="white"></path> <path d="M56.4316 74.7944C56.4316 76.2234 57.5943 77.3861 59.0234 77.3861C60.4526 77.3861 61.6151 76.2234 61.6151 74.7944C61.6151 73.3654 60.4526 72.2026 59.0234 72.2026C57.5943 72.2026 56.4316 73.3654 56.4316 74.7944ZM59.774 74.7944C59.774 75.2085 59.4373 75.5453 59.0233 75.5453C58.6092 75.5453 58.2725 75.2085 58.2725 74.7944C58.2725 74.3803 58.6093 74.0436 59.0233 74.0436C59.4373 74.0436 59.774 74.3803 59.774 74.7944Z" fill="#7C95FA"></path> <path d="M62.5519 28.6515C63.0603 28.6515 63.4723 28.2395 63.4723 27.731C63.4723 27.2226 63.0603 26.8105 62.5519 26.8105H58.8297C58.3212 26.8105 57.9092 27.2226 57.9092 27.731C57.9092 28.2395 58.3212 28.6515 58.8297 28.6515H62.5519Z" fill="#7C95FA"></path> <path d="M56.631 27.7379C56.631 27.2258 56.2158 26.8105 55.7037 26.8105C55.1916 26.8105 54.7764 27.2258 54.7764 27.7379C54.7764 28.2501 55.1916 28.6652 55.7037 28.6652C56.2158 28.6653 56.631 28.2501 56.631 27.7379Z" fill="#7C95FA"></path> <path d="M75.5779 23.8904H42.4689C39.7759 23.8904 37.5849 26.0814 37.5849 28.7743V43.5474C37.5849 44.0558 37.997 44.4679 38.5054 44.4679C39.0138 44.4679 39.4259 44.0558 39.4259 43.5474V28.7743C39.4259 27.0963 40.791 25.7313 42.4689 25.7313H75.5779C77.2559 25.7313 78.6208 27.0964 78.6208 28.7743V74.9752C78.6208 76.6533 77.2557 78.0182 75.5779 78.0182H44.9692C45.888 76.1296 46.3066 74.0928 46.2124 71.9572H76.2896C76.798 71.9572 77.2101 71.5451 77.2101 71.0367V57.1469C77.2101 56.6385 76.798 56.2264 76.2896 56.2264C75.7812 56.2264 75.3691 56.6385 75.3691 57.1469V70.1162H46.0088C45.9335 69.6896 45.839 69.2599 45.7243 68.8273C44.9964 66.0799 43.681 63.9933 43.1142 63.1784C43.4109 61.9448 44.299 58.1884 44.9257 54.8692C45.3461 52.6428 44.5906 51.1825 43.8829 50.3496C43.5584 49.9677 43.1395 49.6914 42.6777 49.54V31.6046H75.3691V57.4181C75.3691 57.9265 75.7812 58.3386 76.2896 58.3386C76.798 58.3386 77.2101 57.9265 77.2101 57.4181V30.6843C77.2101 30.1758 76.798 29.7638 76.2896 29.7638H41.7571C41.2487 29.7638 40.8367 30.1758 40.8367 30.6843V49.6042C40.2563 49.8392 39.7691 50.2722 39.4702 50.841L39.4256 50.9259V42.9128C39.4256 42.4044 39.0136 41.9923 38.5052 41.9923C37.9967 41.9923 37.5847 42.4044 37.5847 42.9128V54.4299L32.8968 63.3538C32.0132 65.0358 31.703 66.9935 32.0234 68.8663L32.5825 72.135C33.0109 74.6382 32.6048 77.2597 31.4394 79.5161L28.4725 85.2598C28.3252 85.5452 28.3371 85.8867 28.5041 86.161C28.6711 86.4353 28.9691 86.6027 29.2903 86.6027H50.7817C51.0855 86.6027 51.3699 86.4528 51.5415 86.2019L53.225 83.7406C54.4691 83.4379 58.4917 82.3069 60.8908 79.8591H75.5781C78.271 79.8591 80.4619 77.6682 80.4619 74.9751V28.7743C80.4618 26.0814 78.2709 23.8904 75.5779 23.8904ZM52.4825 82.0224C52.249 82.0705 52.0433 82.2075 51.9087 82.4042L50.2961 84.7619H30.8017L33.075 80.3609C34.4229 77.7512 34.8925 74.7196 34.3971 71.8245L33.838 68.5558C33.5854 67.0793 33.8299 65.5359 34.5266 64.21L41.1001 51.6969C41.3507 51.1796 42.1221 51.0903 42.4801 51.5414C43.1318 52.3084 43.3461 53.3131 43.1167 54.5274C42.3674 58.4967 41.2371 63.1092 41.2258 63.1553C41.1587 63.4285 41.221 63.7186 41.3937 63.9408C41.4111 63.9631 43.1409 66.2129 43.96 69.356C45.0281 73.4548 44.1125 77.105 41.2385 80.2052C40.8929 80.5779 40.9149 81.1603 41.2878 81.5059C41.6605 81.8514 42.2429 81.8296 42.5885 81.4566C43.0666 80.9407 43.4968 80.4074 43.8816 79.8589H57.9418C55.5187 81.3766 52.5208 82.0144 52.4825 82.0224Z" fill="#7C95FA"></path> <path d="M71.9433 52.7605V38.732C71.9433 37.5484 70.9805 36.5855 69.7968 36.5855H67.7793C66.0631 35.5496 63.5568 34.5581 60.9612 35.3326C60.1102 35.5867 59.4642 35.9667 59.0238 36.29C58.5835 35.9667 57.9375 35.5867 57.0865 35.3326C54.4905 34.5575 51.9848 35.5495 50.2684 36.5855H48.2508C47.0672 36.5855 46.1042 37.5483 46.1042 38.732V52.7604C46.1042 53.9439 47.0671 54.9068 48.2508 54.9068H69.7968C70.9805 54.9069 71.9433 53.944 71.9433 52.7605ZM51.4492 38.0257C55.1316 35.9103 57.3972 37.3168 58.1034 37.9028V49.3193C57.8046 49.1715 57.4668 49.0324 57.0866 48.9187C55.0368 48.3067 53.0428 48.7966 51.4494 49.5399L51.4492 38.0257ZM47.9452 52.7605V38.732C47.9452 38.5635 48.0823 38.4264 48.2508 38.4264H49.6083V51.0921C49.5861 51.7946 50.4376 52.2639 51.0198 51.8705C54.9615 49.3839 57.3769 50.8845 58.1032 51.4879V53.066H48.2508C48.0823 53.0661 47.9452 52.9289 47.9452 52.7605ZM59.9442 51.489C60.6773 50.8805 63.0914 49.3872 67.0279 51.8706C67.6098 52.2644 68.4617 51.7944 68.4394 51.0922V46.1509C68.4394 45.6425 68.0273 45.2305 67.5189 45.2305C67.0105 45.2305 66.5984 45.6425 66.5984 46.1509V49.5399C65.0049 48.7966 63.0106 48.3069 60.9611 48.9187C60.5807 49.0324 60.2428 49.1717 59.9441 49.3193V37.9028C60.65 37.3168 62.9154 35.91 66.5984 38.0257V47.4668C66.5984 47.9752 67.0105 48.3873 67.5189 48.3873C68.0273 48.3873 68.4394 47.9752 68.4394 47.4668V38.4264H69.7968C69.9653 38.4264 70.1024 38.5635 70.1024 38.732V52.7604C70.1024 52.9289 69.9653 53.066 69.7968 53.066H59.9442V51.489Z" fill="#7C95FA"></path> <path d="M68.5234 58.4453H49.5246C49.0162 58.4453 48.6041 58.8574 48.6041 59.3658C48.6041 59.8742 49.0162 60.2863 49.5246 60.2863H68.5234C69.0318 60.2863 69.4438 59.8742 69.4438 59.3658C69.4438 58.8572 69.0318 58.4453 68.5234 58.4453Z" fill="#7C95FA"></path> <path d="M68.5234 63.1677H49.5246C49.0162 63.1677 48.6041 63.5798 48.6041 64.0882C48.6041 64.5966 49.0162 65.0087 49.5246 65.0087H68.5234C69.0318 65.0087 69.4438 64.5966 69.4438 64.0882C69.4438 63.5798 69.0318 63.1677 68.5234 63.1677Z" fill="#7C95FA"></path> </svg> 