<?xml version="1.0" encoding="UTF-8"?> <svg xmlns="http://www.w3.org/2000/svg" width="506" height="52" viewBox="0 0 506 52" fill="none"> <path d="M6.992 40C6.31733 40 5.75 39.77 5.29 39.31C4.83 38.85 4.6 38.2827 4.6 37.608V6.466C4.6 5.76067 4.83 5.19333 5.29 4.764C5.75 4.304 6.31733 4.074 6.992 4.074H31.464C32.1693 4.074 32.7367 4.304 33.166 4.764C33.626 5.19333 33.856 5.76067 33.856 6.466V37.608C33.856 38.2827 33.626 38.85 33.166 39.31C32.7367 39.77 32.1693 40 31.464 40C30.7893 40 30.222 39.77 29.762 39.31C29.302 38.85 29.072 38.2827 29.072 37.608V8.306H9.384V37.608C9.384 38.2827 9.154 38.85 8.694 39.31C8.26467 39.77 7.69733 40 6.992 40ZM42.0411 51.04C41.4891 51.04 40.9218 50.9633 40.3391 50.81C39.7871 50.6567 39.2351 50.4267 38.6831 50.12C38.0085 49.7213 37.5638 49.2307 37.3491 48.648C37.1345 48.0653 37.2265 47.498 37.6251 46.946C37.9931 46.4247 38.4378 46.1027 38.9591 45.98C39.4805 45.8573 40.0325 45.9647 40.6151 46.302C40.9525 46.486 41.2591 46.624 41.5351 46.716C41.8418 46.808 42.1485 46.854 42.4551 46.854C43.4365 46.854 44.3718 46.348 45.2611 45.336C46.1811 44.324 47.0858 42.8213 47.9751 40.828L58.9691 15.988C59.2451 15.3747 59.6591 14.9607 60.2111 14.746C60.7938 14.5313 61.3765 14.562 61.9591 14.838C62.4805 15.0527 62.8178 15.4513 62.9711 16.034C63.1245 16.586 63.0478 17.184 62.7411 17.828L51.6551 42.668C50.5511 45.152 49.1405 47.1607 47.4231 48.694C45.7365 50.258 43.9425 51.04 42.0411 51.04ZM52.5291 38.988C51.9465 39.2333 51.3945 39.264 50.8731 39.08C50.3825 38.8653 49.9838 38.4667 49.6771 37.884L39.1431 17.874C38.8365 17.2913 38.7905 16.7393 39.0051 16.218C39.2505 15.666 39.6645 15.2673 40.2471 15.022C40.8298 14.7767 41.3665 14.7613 41.8571 14.976C42.3785 15.16 42.7925 15.5433 43.0991 16.126L53.2191 35.952C53.5258 36.5347 53.6331 37.1327 53.5411 37.746C53.4491 38.3287 53.1118 38.7427 52.5291 38.988ZM100.822 40.046C100.148 40.046 99.5803 39.8313 99.1203 39.402C98.691 38.942 98.4763 38.3747 98.4763 37.7V24.544C98.4763 22.612 98.001 21.186 97.0503 20.266C96.0996 19.3153 94.8576 18.84 93.3243 18.84C91.7296 18.84 90.411 19.392 89.3683 20.496C88.3563 21.6 87.8503 23.0107 87.8503 24.728H84.0323C84.0323 22.7347 84.4616 20.9867 85.3203 19.484C86.179 17.9507 87.375 16.7547 88.9083 15.896C90.4723 15.0373 92.251 14.608 94.2443 14.608C95.9923 14.608 97.541 14.9913 98.8903 15.758C100.24 16.5247 101.282 17.6593 102.018 19.162C102.785 20.634 103.168 22.428 103.168 24.544V37.7C103.168 38.3747 102.954 38.942 102.524 39.402C102.095 39.8313 101.528 40.046 100.822 40.046ZM70.1403 40.046C69.4656 40.046 68.8983 39.8313 68.4383 39.402C68.009 38.942 67.7943 38.3747 67.7943 37.7V17.23C67.7943 16.5247 68.009 15.9573 68.4383 15.528C68.8983 15.0987 69.4656 14.884 70.1403 14.884C70.8456 14.884 71.413 15.0987 71.8423 15.528C72.2716 15.9573 72.4863 16.5247 72.4863 17.23V37.7C72.4863 38.3747 72.2716 38.942 71.8423 39.402C71.413 39.8313 70.8456 40.046 70.1403 40.046ZM85.5043 40.046C84.8296 40.046 84.2623 39.8313 83.8023 39.402C83.373 38.942 83.1583 38.3747 83.1583 37.7V24.544C83.1583 22.612 82.683 21.186 81.7323 20.266C80.7816 19.3153 79.5396 18.84 78.0063 18.84C76.4116 18.84 75.093 19.392 74.0503 20.496C73.0076 21.6 72.4863 23.0107 72.4863 24.728H69.5883C69.5883 22.7347 69.987 20.9867 70.7843 19.484C71.5816 17.9507 72.6856 16.7547 74.0963 15.896C75.507 15.0373 77.117 14.608 78.9263 14.608C80.6743 14.608 82.223 14.9913 83.5723 15.758C84.9216 16.5247 85.9643 17.6593 86.7003 19.162C87.467 20.634 87.8503 22.428 87.8503 24.544V37.7C87.8503 38.3747 87.6356 38.942 87.2063 39.402C86.777 39.8313 86.2096 40.046 85.5043 40.046ZM122.786 40.184C120.241 40.184 117.972 39.6473 115.978 38.574C114.016 37.47 112.467 35.9673 111.332 34.066C110.228 32.134 109.676 29.926 109.676 27.442C109.676 24.9273 110.198 22.7193 111.24 20.818C112.314 18.886 113.786 17.3833 115.656 16.31C117.527 15.206 119.674 14.654 122.096 14.654C124.488 14.654 126.543 15.1907 128.26 16.264C129.978 17.3067 131.281 18.7633 132.17 20.634C133.09 22.474 133.55 24.6053 133.55 27.028C133.55 27.6107 133.351 28.1013 132.952 28.5C132.554 28.868 132.048 29.052 131.434 29.052H112.896V25.372H131.296L129.41 26.66C129.38 25.1267 129.073 23.762 128.49 22.566C127.908 21.3393 127.08 20.3733 126.006 19.668C124.933 18.9627 123.63 18.61 122.096 18.61C120.348 18.61 118.846 18.9933 117.588 19.76C116.362 20.5267 115.426 21.5847 114.782 22.934C114.138 24.2527 113.816 25.7553 113.816 27.442C113.816 29.1287 114.2 30.6313 114.966 31.95C115.733 33.2687 116.791 34.3113 118.14 35.078C119.49 35.8447 121.038 36.228 122.786 36.228C123.737 36.228 124.703 36.0593 125.684 35.722C126.696 35.354 127.509 34.94 128.122 34.48C128.582 34.1427 129.073 33.974 129.594 33.974C130.146 33.9433 130.622 34.0967 131.02 34.434C131.542 34.894 131.818 35.4 131.848 35.952C131.879 36.504 131.634 36.9793 131.112 37.378C130.07 38.206 128.766 38.8807 127.202 39.402C125.669 39.9233 124.197 40.184 122.786 40.184ZM163.271 40.276C161.523 40.276 159.974 39.8927 158.625 39.126C157.275 38.3593 156.217 37.24 155.451 35.768C154.715 34.2653 154.347 32.456 154.347 30.34V17.184C154.347 16.4787 154.561 15.9113 154.991 15.482C155.451 15.0527 156.018 14.838 156.693 14.838C157.398 14.838 157.965 15.0527 158.395 15.482C158.824 15.9113 159.039 16.4787 159.039 17.184V30.34C159.039 31.628 159.253 32.7013 159.683 33.56C160.112 34.388 160.71 35.0167 161.477 35.446C162.274 35.8447 163.179 36.044 164.191 36.044C165.816 36.044 167.135 35.492 168.147 34.388C169.189 33.284 169.711 31.8887 169.711 30.202H171.689C171.689 32.1647 171.321 33.9127 170.585 35.446C169.879 36.9487 168.898 38.1293 167.641 38.988C166.383 39.8467 164.927 40.276 163.271 40.276ZM147.953 40.276C146.205 40.276 144.656 39.8927 143.307 39.126C141.988 38.3593 140.945 37.24 140.179 35.768C139.412 34.2653 139.029 32.456 139.029 30.34V17.184C139.029 16.4787 139.243 15.9113 139.673 15.482C140.133 15.0527 140.7 14.838 141.375 14.838C142.08 14.838 142.647 15.0527 143.077 15.482C143.506 15.9113 143.721 16.4787 143.721 17.184V30.34C143.721 31.628 143.935 32.7013 144.365 33.56C144.825 34.388 145.438 35.0167 146.205 35.446C146.971 35.8447 147.861 36.044 148.873 36.044C150.498 36.044 151.817 35.492 152.829 34.388C153.841 33.284 154.347 31.8887 154.347 30.202H156.325C156.325 32.1647 155.972 33.9127 155.267 35.446C154.561 36.9487 153.58 38.1293 152.323 38.988C151.065 39.8467 149.609 40.276 147.953 40.276ZM172.057 40C171.382 40 170.815 39.7853 170.355 39.356C169.925 38.896 169.711 38.3287 169.711 37.654V17.184C169.711 16.4787 169.925 15.9113 170.355 15.482C170.815 15.0527 171.382 14.838 172.057 14.838C172.762 14.838 173.329 15.0527 173.759 15.482C174.188 15.9113 174.403 16.4787 174.403 17.184V37.654C174.403 38.3287 174.188 38.896 173.759 39.356C173.329 39.7853 172.762 40 172.057 40ZM194.526 40.184C191.981 40.184 189.712 39.6473 187.718 38.574C185.756 37.47 184.207 35.9673 183.072 34.066C181.968 32.134 181.416 29.926 181.416 27.442C181.416 24.9273 181.938 22.7193 182.98 20.818C184.054 18.886 185.526 17.3833 187.396 16.31C189.267 15.206 191.414 14.654 193.836 14.654C196.228 14.654 198.283 15.1907 200 16.264C201.718 17.3067 203.021 18.7633 203.91 20.634C204.83 22.474 205.29 24.6053 205.29 27.028C205.29 27.6107 205.091 28.1013 204.692 28.5C204.294 28.868 203.788 29.052 203.174 29.052H184.636V25.372H203.036L201.15 26.66C201.12 25.1267 200.813 23.762 200.23 22.566C199.648 21.3393 198.82 20.3733 197.746 19.668C196.673 18.9627 195.37 18.61 193.836 18.61C192.088 18.61 190.586 18.9933 189.328 19.76C188.102 20.5267 187.166 21.5847 186.522 22.934C185.878 24.2527 185.556 25.7553 185.556 27.442C185.556 29.1287 185.94 30.6313 186.706 31.95C187.473 33.2687 188.531 34.3113 189.88 35.078C191.23 35.8447 192.778 36.228 194.526 36.228C195.477 36.228 196.443 36.0593 197.424 35.722C198.436 35.354 199.249 34.94 199.862 34.48C200.322 34.1427 200.813 33.974 201.334 33.974C201.886 33.9433 202.362 34.0967 202.76 34.434C203.282 34.894 203.558 35.4 203.588 35.952C203.619 36.504 203.374 36.9793 202.852 37.378C201.81 38.206 200.506 38.8807 198.942 39.402C197.409 39.9233 195.937 40.184 194.526 40.184ZM221.784 40.184C219.331 40.184 217.138 39.632 215.206 38.528C213.305 37.3933 211.802 35.8753 210.698 33.974C209.625 32.042 209.088 29.8647 209.088 27.442C209.088 24.958 209.625 22.75 210.698 20.818C211.772 18.886 213.244 17.3833 215.114 16.31C216.985 15.206 219.132 14.654 221.554 14.654C223.364 14.654 225.02 15.0067 226.522 15.712C228.025 16.3867 229.374 17.414 230.57 18.794C231 19.2847 231.153 19.7907 231.03 20.312C230.908 20.8333 230.57 21.2933 230.018 21.692C229.589 21.9987 229.114 22.106 228.592 22.014C228.071 21.8913 227.596 21.6153 227.166 21.186C225.664 19.5913 223.793 18.794 221.554 18.794C219.99 18.794 218.61 19.162 217.414 19.898C216.218 20.6033 215.283 21.6 214.608 22.888C213.934 24.176 213.596 25.694 213.596 27.442C213.596 29.098 213.934 30.57 214.608 31.858C215.314 33.146 216.28 34.1733 217.506 34.94C218.733 35.676 220.159 36.044 221.784 36.044C222.858 36.044 223.793 35.9213 224.59 35.676C225.418 35.4 226.17 34.986 226.844 34.434C227.335 34.0353 227.841 33.8207 228.362 33.79C228.884 33.7287 229.344 33.8667 229.742 34.204C230.264 34.6333 230.555 35.124 230.616 35.676C230.678 36.1973 230.494 36.6727 230.064 37.102C227.856 39.1567 225.096 40.184 221.784 40.184ZM271.031 40.046C270.357 40.046 269.789 39.8313 269.329 39.402C268.9 38.942 268.685 38.3747 268.685 37.7V24.544C268.685 22.612 268.21 21.186 267.259 20.266C266.309 19.3153 265.067 18.84 263.533 18.84C261.939 18.84 260.62 19.392 259.577 20.496C258.565 21.6 258.059 23.0107 258.059 24.728H254.241C254.241 22.7347 254.671 20.9867 255.529 19.484C256.388 17.9507 257.584 16.7547 259.117 15.896C260.681 15.0373 262.46 14.608 264.453 14.608C266.201 14.608 267.75 14.9913 269.099 15.758C270.449 16.5247 271.491 17.6593 272.227 19.162C272.994 20.634 273.377 22.428 273.377 24.544V37.7C273.377 38.3747 273.163 38.942 272.733 39.402C272.304 39.8313 271.737 40.046 271.031 40.046ZM240.349 40.046C239.675 40.046 239.107 39.8313 238.647 39.402C238.218 38.942 238.003 38.3747 238.003 37.7V17.23C238.003 16.5247 238.218 15.9573 238.647 15.528C239.107 15.0987 239.675 14.884 240.349 14.884C241.055 14.884 241.622 15.0987 242.051 15.528C242.481 15.9573 242.695 16.5247 242.695 17.23V37.7C242.695 38.3747 242.481 38.942 242.051 39.402C241.622 39.8313 241.055 40.046 240.349 40.046ZM255.713 40.046C255.039 40.046 254.471 39.8313 254.011 39.402C253.582 38.942 253.367 38.3747 253.367 37.7V24.544C253.367 22.612 252.892 21.186 251.941 20.266C250.991 19.3153 249.749 18.84 248.215 18.84C246.621 18.84 245.302 19.392 244.259 20.496C243.217 21.6 242.695 23.0107 242.695 24.728H239.797C239.797 22.7347 240.196 20.9867 240.993 19.484C241.791 17.9507 242.895 16.7547 244.305 15.896C245.716 15.0373 247.326 14.608 249.135 14.608C250.883 14.608 252.432 14.9913 253.781 15.758C255.131 16.5247 256.173 17.6593 256.909 19.162C257.676 20.634 258.059 22.428 258.059 24.544V37.7C258.059 38.3747 257.845 38.942 257.415 39.402C256.986 39.8313 256.419 40.046 255.713 40.046ZM283.519 40C282.845 40 282.277 39.7853 281.817 39.356C281.388 38.896 281.173 38.3287 281.173 37.654V17.138C281.235 16.4633 281.48 15.9113 281.909 15.482C282.339 15.0527 282.875 14.838 283.519 14.838C284.225 14.838 284.792 15.0527 285.221 15.482C285.651 15.9113 285.865 16.4787 285.865 17.184V25.096H294.789V26.016C296.476 26.016 297.963 26.3073 299.251 26.89C300.57 27.4727 301.597 28.2853 302.333 29.328C303.069 30.34 303.437 31.5207 303.437 32.87C303.437 34.25 303.069 35.4767 302.333 36.55C301.597 37.6233 300.57 38.4667 299.251 39.08C297.963 39.6933 296.476 40 294.789 40H283.519ZM285.865 35.63H294.789C296.016 35.63 297.013 35.3387 297.779 34.756C298.546 34.1427 298.929 33.3607 298.929 32.41C298.929 31.398 298.546 30.57 297.779 29.926C297.013 29.282 296.016 28.96 294.789 28.96H285.865V35.63ZM291.155 27.58V25.096H295.525C296.292 25.096 296.921 24.8047 297.411 24.222C297.902 23.6087 298.147 22.842 298.147 21.922C298.147 21.1247 297.856 20.4653 297.273 19.944C296.691 19.4227 295.955 19.162 295.065 19.162H283.565V14.838H295.065C296.507 14.838 297.779 15.1293 298.883 15.712C300.018 16.264 300.907 17.046 301.551 18.058C302.195 19.0393 302.517 20.174 302.517 21.462C302.517 23.2407 301.843 24.7127 300.493 25.878C299.175 27.0127 297.519 27.58 295.525 27.58H291.155ZM308.652 51.04C308.1 51.04 307.533 50.9633 306.95 50.81C306.398 50.6567 305.846 50.4267 305.294 50.12C304.62 49.7213 304.175 49.2307 303.96 48.648C303.746 48.0653 303.838 47.498 304.236 46.946C304.604 46.4247 305.049 46.1027 305.57 45.98C306.092 45.8573 306.644 45.9647 307.226 46.302C307.564 46.486 307.87 46.624 308.146 46.716C308.453 46.808 308.76 46.854 309.066 46.854C310.048 46.854 310.983 46.348 311.872 45.336C312.792 44.324 313.697 42.8213 314.586 40.828L325.58 15.988C325.856 15.3747 326.27 14.9607 326.822 14.746C327.405 14.5313 327.988 14.562 328.57 14.838C329.092 15.0527 329.429 15.4513 329.582 16.034C329.736 16.586 329.659 17.184 329.352 17.828L318.266 42.668C317.162 45.152 315.752 47.1607 314.034 48.694C312.348 50.258 310.554 51.04 308.652 51.04ZM319.14 38.988C318.558 39.2333 318.006 39.264 317.484 39.08C316.994 38.8653 316.595 38.4667 316.288 37.884L305.754 17.874C305.448 17.2913 305.402 16.7393 305.616 16.218C305.862 15.666 306.276 15.2673 306.858 15.022C307.441 14.7767 307.978 14.7613 308.468 14.976C308.99 15.16 309.404 15.5433 309.71 16.126L319.83 35.952C320.137 36.5347 320.244 37.1327 320.152 37.746C320.06 38.3287 319.723 38.7427 319.14 38.988ZM344.986 40.23C342.87 40.23 340.968 39.7853 339.282 38.896C337.626 37.976 336.307 36.642 335.326 34.894C334.375 33.146 333.9 30.9993 333.9 28.454V17.138C333.9 16.4633 334.114 15.9113 334.544 15.482C335.004 15.022 335.571 14.792 336.246 14.792C336.92 14.792 337.472 15.022 337.902 15.482C338.362 15.9113 338.592 16.4633 338.592 17.138V28.454C338.592 30.1713 338.914 31.5973 339.558 32.732C340.202 33.836 341.076 34.664 342.18 35.216C343.284 35.7373 344.526 35.998 345.906 35.998C347.224 35.998 348.39 35.7373 349.402 35.216C350.444 34.6947 351.272 33.9893 351.886 33.1C352.499 32.2107 352.806 31.214 352.806 30.11H355.704C355.704 32.0113 355.228 33.7287 354.278 35.262C353.358 36.7953 352.085 38.0067 350.46 38.896C348.865 39.7853 347.04 40.23 344.986 40.23ZM355.152 40C354.477 40 353.91 39.7853 353.45 39.356C353.02 38.896 352.806 38.3287 352.806 37.654V17.138C352.806 16.4327 353.02 15.8653 353.45 15.436C353.91 15.0067 354.477 14.792 355.152 14.792C355.857 14.792 356.424 15.0067 356.854 15.436C357.283 15.8653 357.498 16.4327 357.498 17.138V37.654C357.498 38.3287 357.283 38.896 356.854 39.356C356.424 39.7853 355.857 40 355.152 40ZM345.952 11.526C344.388 11.526 342.977 11.2653 341.72 10.744C340.462 10.192 339.466 9.456 338.73 8.536C337.994 7.58533 337.626 6.52733 337.626 5.362C337.626 4.718 337.825 4.18133 338.224 3.752C338.622 3.32266 339.113 3.108 339.696 3.108C340.309 3.108 340.8 3.32266 341.168 3.752C341.566 4.18133 341.766 4.718 341.766 5.362C341.766 6.12866 342.164 6.788 342.962 7.34C343.759 7.86133 344.756 8.122 345.952 8.122C347.148 8.122 348.144 7.86133 348.942 7.34C349.739 6.788 350.138 6.12866 350.138 5.362C350.138 4.718 350.337 4.18133 350.736 3.752C351.134 3.32266 351.625 3.108 352.208 3.108C352.821 3.108 353.312 3.32266 353.68 3.752C354.078 4.18133 354.278 4.718 354.278 5.362C354.278 6.52733 353.91 7.58533 353.174 8.536C352.438 9.456 351.441 10.192 350.184 10.744C348.957 11.2653 347.546 11.526 345.952 11.526ZM389.726 40.184C387.426 40.184 385.386 39.6473 383.608 38.574C381.86 37.47 380.48 35.9673 379.468 34.066C378.456 32.134 377.95 29.926 377.95 27.442C377.95 24.9273 378.486 22.7193 379.56 20.818C380.664 18.886 382.166 17.3833 384.068 16.31C385.969 15.206 388.162 14.654 390.646 14.654C393.099 14.654 395.276 15.206 397.178 16.31C399.079 17.3833 400.566 18.886 401.64 20.818C402.744 22.7193 403.296 24.9273 403.296 27.442H400.582C400.582 29.926 400.106 32.134 399.156 34.066C398.236 35.9673 396.963 37.47 395.338 38.574C393.712 39.6473 391.842 40.184 389.726 40.184ZM390.554 50.442C388.376 50.442 386.337 50.0127 384.436 49.154C382.534 48.2953 380.924 47.038 379.606 45.382C379.207 44.8607 379.054 44.324 379.146 43.772C379.268 43.22 379.575 42.7753 380.066 42.438C380.618 42.07 381.185 41.9473 381.768 42.07C382.381 42.1927 382.872 42.4993 383.24 42.99C384.068 44.0327 385.11 44.8453 386.368 45.428C387.625 46.0107 389.051 46.302 390.646 46.302C392.118 46.302 393.467 45.9493 394.694 45.244C395.951 44.5387 396.948 43.496 397.684 42.116C398.42 40.736 398.788 39.0493 398.788 37.056V30.524L400.306 26.476L403.296 27.442V37.378C403.296 39.8007 402.759 41.9933 401.686 43.956C400.612 45.9493 399.11 47.5287 397.178 48.694C395.276 49.8593 393.068 50.442 390.554 50.442ZM390.646 36.044C392.24 36.044 393.651 35.676 394.878 34.94C396.104 34.204 397.055 33.192 397.73 31.904C398.435 30.616 398.788 29.1287 398.788 27.442C398.788 25.7553 398.435 24.268 397.73 22.98C397.055 21.6613 396.104 20.634 394.878 19.898C393.651 19.162 392.24 18.794 390.646 18.794C389.051 18.794 387.64 19.162 386.414 19.898C385.187 20.634 384.221 21.6613 383.516 22.98C382.81 24.268 382.458 25.7553 382.458 27.442C382.458 29.1287 382.81 30.616 383.516 31.904C384.221 33.192 385.187 34.204 386.414 34.94C387.64 35.676 389.051 36.044 390.646 36.044ZM421.687 40.184C419.203 40.184 417.01 39.6473 415.109 38.574C413.207 37.47 411.705 35.9673 410.601 34.066C409.527 32.134 408.991 29.926 408.991 27.442C408.991 24.9273 409.527 22.7193 410.601 20.818C411.705 18.886 413.207 17.3833 415.109 16.31C417.01 15.206 419.203 14.654 421.687 14.654C424.14 14.654 426.317 15.206 428.219 16.31C430.12 17.3833 431.607 18.886 432.681 20.818C433.785 22.7193 434.337 24.9273 434.337 27.442C434.337 29.926 433.8 32.134 432.727 34.066C431.653 35.9673 430.166 37.47 428.265 38.574C426.363 39.6473 424.171 40.184 421.687 40.184ZM421.687 36.044C423.281 36.044 424.692 35.676 425.919 34.94C427.145 34.204 428.096 33.192 428.771 31.904C429.476 30.616 429.829 29.1287 429.829 27.442C429.829 25.7553 429.476 24.268 428.771 22.98C428.096 21.6613 427.145 20.634 425.919 19.898C424.692 19.162 423.281 18.794 421.687 18.794C420.092 18.794 418.681 19.162 417.455 19.898C416.228 20.634 415.262 21.6613 414.557 22.98C413.851 24.268 413.499 25.7553 413.499 27.442C413.499 29.1287 413.851 30.616 414.557 31.904C415.262 33.192 416.228 34.204 417.455 34.94C418.681 35.676 420.092 36.044 421.687 36.044ZM443.666 40C442.991 40 442.424 39.7853 441.964 39.356C441.534 38.896 441.32 38.3287 441.32 37.654V17.184C441.32 16.4787 441.534 15.9113 441.964 15.482C442.424 15.0527 442.991 14.838 443.666 14.838C444.647 14.838 445.475 15.3133 446.15 16.264L455.672 30.018L465.194 16.264C465.868 15.3133 466.696 14.838 467.678 14.838C468.383 14.838 468.95 15.0527 469.38 15.482C469.809 15.9113 470.024 16.4787 470.024 17.184V37.654C470.024 38.3287 469.809 38.896 469.38 39.356C468.95 39.7853 468.383 40 467.678 40C467.003 40 466.436 39.7853 465.976 39.356C465.546 38.896 465.332 38.3287 465.332 37.654V20.91L466.528 21.278L458.064 33.238C457.297 34.3113 456.469 34.848 455.58 34.848C454.69 34.8173 453.878 34.2807 453.142 33.238L444.816 21.278L446.012 20.91V37.654C446.012 38.3287 445.797 38.896 445.368 39.356C444.938 39.7853 444.371 40 443.666 40ZM488.778 40.184C486.54 40.184 484.531 39.632 482.752 38.528C480.974 37.3933 479.563 35.8753 478.52 33.974C477.508 32.042 477.002 29.8647 477.002 27.442C477.002 25.0193 477.554 22.842 478.658 20.91C479.793 18.978 481.311 17.46 483.212 16.356C485.144 15.2213 487.306 14.654 489.698 14.654C492.09 14.654 494.237 15.2213 496.138 16.356C498.04 17.46 499.542 18.978 500.646 20.91C501.781 22.842 502.348 25.0193 502.348 27.442H500.554C500.554 29.8647 500.033 32.042 498.99 33.974C497.978 35.8753 496.583 37.3933 494.804 38.528C493.026 39.632 491.017 40.184 488.778 40.184ZM489.698 36.044C491.262 36.044 492.658 35.676 493.884 34.94C495.111 34.1733 496.077 33.146 496.782 31.858C497.488 30.5393 497.84 29.0673 497.84 27.442C497.84 25.786 497.488 24.314 496.782 23.026C496.077 21.7073 495.111 20.68 493.884 19.944C492.658 19.1773 491.262 18.794 489.698 18.794C488.165 18.794 486.77 19.1773 485.512 19.944C484.286 20.68 483.304 21.7073 482.568 23.026C481.863 24.314 481.51 25.786 481.51 27.442C481.51 29.0673 481.863 30.5393 482.568 31.858C483.304 33.146 484.286 34.1733 485.512 34.94C486.77 35.676 488.165 36.044 489.698 36.044ZM500.002 40.046C499.328 40.046 498.76 39.8313 498.3 39.402C497.871 38.942 497.656 38.3747 497.656 37.7V30.662L498.53 25.786L502.348 27.442V37.7C502.348 38.3747 502.118 38.942 501.658 39.402C501.229 39.8313 500.677 40.046 500.002 40.046Z" fill="black"></path> <path d="M404.334 9.39173L392.355 2.18262C391.944 1.93387 391.437 1.93951 391.03 2.19789L379.642 9.40759C379.017 9.80285 378.814 10.6587 379.186 11.3198C379.559 11.9813 380.368 12.1977 380.991 11.802L391.722 5.00949L403.034 11.8175C403.239 11.9409 403.462 12 403.682 12C404.14 12 404.586 11.7457 404.828 11.2933C405.187 10.6237 404.966 9.7724 404.334 9.39173Z" fill="#0199CE"></path> </svg> 