<?xml version="1.0" encoding="UTF-8"?> <svg xmlns="http://www.w3.org/2000/svg" width="168" height="168" viewBox="0 0 168 168" fill="none"> <path d="M83.829 0.348633C37.532 0.348633 0 37.8806 0 84.1776C0 125.701 30.222 160.089 69.848 166.748V101.667H49.626V78.2466H69.848V60.9776C69.848 40.9406 82.086 30.0216 99.963 30.0216C108.525 30.0216 115.883 30.6596 118.019 30.9406V51.8846L105.62 51.8906C95.9 51.8906 94.026 56.5086 94.026 63.2876V78.2346H117.219L114.194 101.655H94.026V167.308C135.502 162.26 167.657 126.996 167.657 84.1536C167.657 37.8806 130.125 0.348633 83.829 0.348633Z" fill="#FFC2BE"></path> </svg> 