<?xml version="1.0" encoding="UTF-8"?> <svg xmlns="http://www.w3.org/2000/svg" width="90" height="90" viewBox="0 0 90 90" fill="none"> <path d="M58.255 23.8799H31.503C27.233 23.8799 23.759 27.3539 23.759 31.6239V58.3759C23.759 62.6459 27.233 66.1209 31.503 66.1209H58.255C62.525 66.1209 66 62.6469 66 58.3759V31.6239C66 27.3539 62.526 23.8799 58.255 23.8799ZM44.879 58.9059C37.212 58.9059 30.974 52.6679 30.974 44.9999C30.974 37.3329 37.212 31.0949 44.879 31.0949C52.547 31.0949 58.785 37.3329 58.785 44.9999C58.785 52.6669 52.546 58.9059 44.879 58.9059ZM59.232 33.9699C57.417 33.9699 55.941 32.4939 55.941 30.6799C55.941 28.8659 57.417 27.3899 59.232 27.3899C61.046 27.3899 62.522 28.8659 62.522 30.6799C62.522 32.4939 61.046 33.9699 59.232 33.9699Z" fill="#FFC2BE"></path> <path d="M44.879 36.9707C40.453 36.9707 36.849 40.5727 36.849 44.9987C36.849 49.4267 40.453 53.0297 44.879 53.0297C49.307 53.0297 52.908 49.4267 52.908 44.9987C52.908 40.5737 49.306 36.9707 44.879 36.9707Z" fill="#FFC2BE"></path> <path d="M44.879 0C20.094 0 0 20.094 0 44.879C0 69.664 20.094 89.758 44.879 89.758C69.664 89.758 89.758 69.664 89.758 44.879C89.758 20.094 69.664 0 44.879 0ZM71.875 58.376C71.875 65.887 65.766 71.996 58.255 71.996H31.503C23.993 71.996 17.883 65.887 17.883 58.376V31.624C17.883 24.114 23.993 18.004 31.503 18.004H58.255C65.766 18.004 71.875 24.114 71.875 31.624V58.376Z" fill="#FFC2BE"></path> </svg> 