<?xml version="1.0" encoding="UTF-8"?> <svg xmlns="http://www.w3.org/2000/svg" xmlns:xlink="http://www.w3.org/1999/xlink" width="610px" height="358px" viewBox="0 0 610 358"> <!-- Generator: Sketch 52.6 (67491) - http://www.bohemiancoding.com/sketch --> <title>Content</title> <desc>Created with Sketch.</desc> <defs> <rect id="path-1" x="0" y="0" width="610" height="358"></rect> <polygon id="path-3" points="0 57 4 57 4 74 0 74"></polygon> <polygon id="path-4" points="430 19 434 19 434 36 430 36"></polygon> <polygon id="path-5" points="6.62803146e-14 257 4 257 4 274 6.61692923e-14 274"></polygon> <polygon id="path-6" points="1.13686838e-13 21 4 21 4 38 1.13686838e-13 38"></polygon> </defs> <g id="Page-1" stroke="none" stroke-width="1" fill="none" fill-rule="evenodd"> <g id="Content"> <mask id="mask-2" fill="white"> <use xlink:href="#path-1"></use> </mask> <use id="Rectangle" fill="#1D33DA" xlink:href="#path-1"></use> <g id="Rectangle-15" mask="url(#mask-2)" fill="#D4E8ED" opacity="0.0540132068"> <g transform="translate(-76.000000, -42.000000)" id="Combined-Shape"> <path d="M671.156885,413.591363 L671.156885,262.18107 C671.156885,224.374552 640.298148,193.617549 602.367714,193.617549 L578.461231,193.617549 L578.461231,230.45182 L602.447909,230.45182 C619.974079,230.45182 634.232612,244.66973 634.232612,262.145049 L634.232612,413.591363 L671.156885,413.591363 Z M578.461231,175.194667 L602.367714,175.194667 C650.490745,175.194667 689.640152,214.216174 689.640152,262.18107 L689.640152,413.591363 L726.538769,413.591363 L726.538769,262.145049 C726.538769,193.916199 670.871694,138.408637 602.447909,138.408637 L578.461231,138.408637 L578.461231,175.194667 Z M745,432 L615.77138,432 L615.77138,262.145049 C615.77138,254.819332 609.794556,248.860456 602.447909,248.860456 L560,248.860456 L560,120 L602.447909,120 C681.052141,120 745,183.765676 745,262.145049 L745,432 Z"></path> </g> </g> <g id="pattern" mask="url(#mask-2)"> <g transform="translate(-40.000000, 0.000000)"> <g id="Rectangle-7" transform="translate(179.000000, 0.000000)"> <polygon id="Rectangle" fill="#4456D9" points="0 2.22964988e-13 1 2.22964988e-13 1 104 0 104"></polygon> <g id="Rectangle"> <use fill="#5E70F2" xlink:href="#path-3"></use> <use fill="#4456D9" xlink:href="#path-3"></use> </g> </g> <g id="Rectangle-Copy-9" transform="translate(0.000000, 207.000000)"> <polygon id="Rectangle-Copy-6" fill="#4456D9" points="430 0.3984375 431 0.3984375 431 96 430 96"></polygon> <g id="Rectangle"> <use fill="#5E70F2" xlink:href="#path-4"></use> <use fill="#4456D9" xlink:href="#path-4"></use> </g> <polyline id="Path-3-Copy" stroke="#FFFFFF" transform="translate(215.500000, 86.500000) scale(-1, 1) translate(-215.500000, -86.500000) " points="0 96.0613424 193.506698 96.0613424 193.506698 82.3108554 204.97222 82.3108554 204.97222 104 213.944778 104 213.944778 93.4061658 220.556775 93.4061658 220.556775 81.1822375 232.632807 69 239.326872 75.752937 239.326872 98.7505038 243.479593 98.7505038 243.479593 80.4665767 247.133252 80.4665767 247.133252 93.4061658 262.498439 93.4061658 262.498439 82.3108554 272.160831 82.3108554 272.160831 102.731884 431 102.731884"></polyline> </g> <g id="Rectangle-Copy-8" transform="translate(324.000000, 0.000000)"> <polygon id="Rectangle-Copy-7" fill="#4456D9" points="3 2.24036935e-13 4 2.24036935e-13 4 302.878906 3 302.878906"></polygon> <g id="Rectangle"> <use fill="#5E70F2" xlink:href="#path-5"></use> <use fill="#4456D9" xlink:href="#path-5"></use> </g> <g id="Rectangle-Copy-10"> <use fill="#5E70F2" xlink:href="#path-6"></use> <use fill="#4456D9" xlink:href="#path-6"></use> </g> </g> </g> </g> <g id="text" mask="url(#mask-2)" fill="#FFFFFF"> <g transform="translate(138.000000, 104.000000)" id="Combined-Shape"> <path d="M18.6102973,29 L18.6102973,7.9866367 L4.11832259,29 L1.09916119,29 L1.09916119,0.82116032 L4.84292132,0.82116032 L4.84292132,21.8747791 L19.334896,0.82116032 L22.3540574,0.82116032 L22.3540574,29 L18.6102973,29 Z M41.9584787,8.87225737 L45.4607059,8.87225737 L45.4607059,29 L41.9584787,29 L41.9584787,20.5866036 L31.532308,20.5866036 L31.532308,29 L28.0300808,29 L28.0300808,8.87225737 L31.532308,8.87225737 L31.532308,17.2453983 L41.9584787,17.2453983 L41.9584787,8.87225737 Z M64.1795066,18.6543403 C66.2459652,19.5131283 67.279179,21.0696581 67.279179,23.3239766 C67.279179,24.9878783 66.722317,26.3498419 65.6085763,27.4099083 C64.4948357,28.4699747 62.9047599,29 60.8383013,29 L50.77443,29 L50.77443,8.87225737 L60.0331916,8.87225737 C62.0459759,8.87225737 63.6025058,9.37544591 64.7028279,10.3818381 C65.80315,11.3882302 66.3533028,12.7099388 66.3533028,14.3470034 C66.3533028,16.2792763 65.6287113,17.7150409 64.1795066,18.6543403 Z M59.8721697,12.0121852 L54.1961462,12.0121852 L54.1961462,17.2856538 L59.8721697,17.2856538 C61.9117911,17.2856538 62.9315865,16.3866236 62.9315865,14.5885363 C62.9315865,12.8709603 61.9117911,12.0121852 59.8721697,12.0121852 Z M60.6370239,25.8198167 C61.6568346,25.8198167 62.4418087,25.5782862 62.9919698,25.0952179 C63.5421308,24.6121497 63.8172072,23.9278133 63.8172072,23.0421882 C63.8172072,22.2102373 63.5421308,21.5594468 62.9919698,21.0897971 C62.4418087,20.6201475 61.6568346,20.3853262 60.6370239,20.3853262 L54.1961462,20.3853262 L54.1961462,25.8198167 L60.6370239,25.8198167 Z M73.5187792,20.5463481 C73.8676618,22.3444354 74.692891,23.739945 75.9944915,24.7329186 C77.296092,25.7258922 78.8995862,26.2223715 80.805022,26.2223715 C83.4618973,26.2223715 85.3941413,25.2428312 86.6018119,23.2837211 L89.5807178,24.9744515 C87.6216077,28.0070465 84.6695683,29.5233213 80.724511,29.5233213 C77.5308932,29.5233213 74.9344404,28.5236534 72.9350746,26.5242877 C70.9357089,24.5249219 69.936041,21.9955609 69.936041,18.9361287 C69.936041,15.9035336 70.9155813,13.3808818 72.8746914,11.3680975 C74.8338015,9.35531313 77.3698717,8.34893606 80.4829781,8.34893606 C83.4350618,8.34893606 85.8436576,9.38885903 87.7088377,11.4687362 C89.5740179,13.5486133 90.5065939,16.0511376 90.5065939,18.9763842 C90.5065939,19.4862895 90.4663389,20.0096056 90.3858275,20.5463481 L73.5187792,20.5463481 Z M80.4829781,11.6498859 C78.6043794,11.6498859 77.0478496,12.1799111 75.8133418,13.2399775 C74.5788341,14.3000439 73.8139875,15.715681 73.5187792,17.4869312 L86.9641112,17.4869312 C86.6689029,15.5814954 85.9174747,14.1323124 84.7098041,13.1393388 C83.5021335,12.1463652 82.0932056,11.6498859 80.4829781,11.6498859 Z M103.951926,29.5233213 C100.919331,29.5233213 98.3966791,28.5102351 96.3838948,26.4840322 C94.3711105,24.4578293 93.3647334,21.9418866 93.3647334,18.9361287 C93.3647334,15.9303708 94.3711105,13.4144281 96.3838948,11.3882252 C98.3966791,9.36202231 100.919331,8.34893606 103.951926,8.34893606 C105.937873,8.34893606 107.722515,8.82528788 109.305906,9.77800579 C110.889296,10.7307237 112.070112,12.0121772 112.848388,13.6224046 L109.909738,15.313135 C109.399832,14.23965 108.614858,13.3808749 107.554792,12.736784 C106.494726,12.092693 105.293782,11.7706523 103.951926,11.7706523 C101.939142,11.7706523 100.255137,12.4549887 98.8998626,13.8236821 C97.5445878,15.1923754 96.8669606,16.8965072 96.8669606,18.9361287 C96.8669606,20.948913 97.5445878,22.6396265 98.8998626,24.0083198 C100.255137,25.3770132 101.939142,26.0613496 103.951926,26.0613496 C105.293782,26.0613496 106.501435,25.7460181 107.57492,25.1153457 C108.648405,24.4846733 109.466925,23.6326073 110.030504,22.5591224 L113.00941,24.2901082 C112.150622,25.8734986 110.916133,27.1415337 109.305906,28.0942516 C107.695678,29.0469695 105.911036,29.5233213 103.951926,29.5233213 Z M131.124379,8.87225737 L131.124379,12.2537181 L124.280946,12.2537181 L124.280946,29 L120.778719,29 L120.778719,12.2537181 L113.895031,12.2537181 L113.895031,8.87225737 L131.124379,8.87225737 Z M148.796537,8.87225737 L151.614421,8.87225737 L151.614421,29 L148.152449,29 L148.152449,14.8703247 L137.001679,29 L134.183795,29 L134.183795,8.87225737 L137.645767,8.87225737 L137.645767,23.0019327 L148.796537,8.87225737 Z M168.038659,8.34893606 C170.856557,8.34893606 173.258443,9.37544067 175.24439,11.4284807 C177.230338,13.4815207 178.223296,15.984045 178.223296,18.9361287 C178.223296,21.8882124 177.230338,24.3907367 175.24439,26.4437767 C173.258443,28.4968167 170.856557,29.5233213 168.038659,29.5233213 C164.710855,29.5233213 162.174785,28.1949036 160.430372,25.5380283 L160.430372,37.0510971 L156.928145,37.0510971 L156.928145,8.87225737 L160.430372,8.87225737 L160.430372,12.3342291 C162.174785,9.67735379 164.710855,8.34893606 168.038659,8.34893606 Z M167.595848,26.1418605 C169.608633,26.1418605 171.299346,25.450815 172.668039,24.0687031 C174.036733,22.6865912 174.721069,20.9757501 174.721069,18.9361287 C174.721069,16.8965072 174.036733,15.1856662 172.668039,13.8035543 C171.299346,12.4214424 169.608633,11.7303968 167.595848,11.7303968 C165.556227,11.7303968 163.852095,12.4214424 162.483402,13.8035543 C161.114708,15.1856662 160.430372,16.8965072 160.430372,18.9361287 C160.430372,20.9757501 161.114708,22.6865912 162.483402,24.0687031 C163.852095,25.450815 165.556227,26.1418605 167.595848,26.1418605 Z M195.653921,8.87225737 L199.397682,8.87225737 L191.185563,30.24792 C190.326775,32.5290756 189.119122,34.2667533 187.562569,35.4610054 C186.006016,36.6552574 184.234792,37.1852827 182.248845,37.0510971 L182.248845,33.7904027 C184.71786,33.9782626 186.529339,32.6364265 187.683335,29.7648542 L188.005379,29.0402555 L179.269939,8.87225737 L182.973444,8.87225737 L189.857132,24.6524076 L195.653921,8.87225737 Z M205.637282,5.85309598 L205.637282,2.7936791 L216.506263,2.7936791 L216.506263,5.85309598 L205.637282,5.85309598 Z M216.949073,8.87225737 L219.766957,8.87225737 L219.766957,29 L216.304985,29 L216.304985,14.8703247 L205.154216,29 L202.336332,29 L202.336332,8.87225737 L205.798304,8.87225737 L205.798304,23.0019327 L216.949073,8.87225737 Z M248.549629,18.6543403 C250.616088,19.5131283 251.649301,21.0696581 251.649301,23.3239766 C251.649301,24.9878783 251.092439,26.3498419 249.978699,27.4099083 C248.864958,28.4699747 247.274882,29 245.208424,29 L235.144552,29 L235.144552,8.87225737 L244.403314,8.87225737 C246.416098,8.87225737 247.972628,9.37544591 249.07295,10.3818381 C250.173272,11.3882302 250.723425,12.7099388 250.723425,14.3470034 C250.723425,16.2792763 249.998834,17.7150409 248.549629,18.6543403 Z M244.242292,12.0121852 L238.566269,12.0121852 L238.566269,17.2856538 L244.242292,17.2856538 C246.281914,17.2856538 247.301709,16.3866236 247.301709,14.5885363 C247.301709,12.8709603 246.281914,12.0121852 244.242292,12.0121852 Z M245.007146,25.8198167 C246.026957,25.8198167 246.811931,25.5782862 247.362092,25.0952179 C247.912253,24.6121497 248.18733,23.9278133 248.18733,23.0421882 C248.18733,22.2102373 247.912253,21.5594468 247.362092,21.0897971 C246.811931,20.6201475 246.026957,20.3853262 245.007146,20.3853262 L238.566269,20.3853262 L238.566269,25.8198167 L245.007146,25.8198167 Z M55.7542359,49.4432 L55.7542359,104.479996 L43.1743968,104.479996 L43.1743968,72.4800305 L28.9434538,95.8313569 L27.5282219,95.8313569 L13.2972788,72.4800305 L13.2972788,104.479996 L0.717439679,104.479996 L0.717439679,49.4432 L13.2972788,49.4432 L28.2358378,73.8952624 L43.1743968,49.4432 L55.7542359,49.4432 Z M77.7689544,92.3719011 L99.7836729,92.3719011 L99.7836729,104.479996 L65.1891153,104.479996 L65.1891153,49.4432 L99.390553,49.4432 L99.390553,61.5512952 L77.7689544,61.5512952 L77.7689544,70.6716786 L97.4249531,70.6716786 L97.4249531,82.6225258 L77.7689544,82.6225258 L77.7689544,92.3719011 Z M143.81311,49.4432 L143.81311,61.5512952 L129.660791,61.5512952 L129.660791,104.479996 L117.080952,104.479996 L117.080952,61.5512952 L102.928633,61.5512952 L102.928633,49.4432 L143.81311,49.4432 Z M170.152148,49.4432 C175.551023,49.4432 180.111169,51.2777416 183.832723,54.9468797 C187.554278,58.6160178 189.415027,63.0713329 189.415027,68.3129588 C189.415027,73.5545846 187.554278,78.0098998 183.832723,81.6790378 C180.111169,85.3481759 175.551023,87.1827175 170.152148,87.1827175 L161.896629,87.1827175 L161.896629,104.479996 L149.31679,104.479996 L149.31679,49.4432 L170.152148,49.4432 Z M170.152148,75.3891183 C172.09155,75.3891183 173.690222,74.7077171 174.948212,73.3448944 C176.206202,71.9820717 176.835188,70.3047766 176.835188,68.3129588 C176.835188,66.3211409 176.206202,64.6438458 174.948212,63.2810231 C173.690222,61.9182004 172.09155,61.2367992 170.152148,61.2367992 L161.896629,61.2367992 L161.896629,75.3891183 L170.152148,75.3891183 Z M195.704946,104.479996 L195.704946,49.4432 L208.284786,49.4432 L208.284786,66.7404789 L216.540305,66.7404789 C221.93918,66.7404789 226.499326,68.5750204 230.22088,72.2441585 C233.942434,75.9132966 235.803184,80.3686117 235.803184,85.6102376 C235.803184,90.8518634 233.942434,95.3071786 230.22088,98.9763167 C226.499326,102.645455 221.93918,104.479996 216.540305,104.479996 L195.704946,104.479996 Z M240.520623,104.479996 L240.520623,49.4432 L253.100462,49.4432 L253.100462,104.479996 L240.520623,104.479996 Z M208.284786,92.6863971 L216.540305,92.6863971 C218.479707,92.6863971 220.078378,92.004996 221.336369,90.6421732 C222.594359,89.2793505 223.223345,87.6020554 223.223345,85.6102376 C223.223345,83.6184198 222.594359,81.9411246 221.336369,80.5783019 C220.078378,79.2154792 218.479707,78.5340781 216.540305,78.5340781 L208.284786,78.5340781 L208.284786,92.6863971 Z"></path> </g> </g> </g> </g> </svg> 