<?xml version="1.0" encoding="UTF-8"?> <svg xmlns="http://www.w3.org/2000/svg" xmlns:xlink="http://www.w3.org/1999/xlink" width="11px" height="95px" viewBox="0 0 11 95"> <!-- Generator: Sketch 52.6 (67491) - http://www.bohemiancoding.com/sketch --> <title>Combined Shape</title> <desc>Created with Sketch.</desc> <g id="Page-1" stroke="none" stroke-width="1" fill="none" fill-rule="evenodd"> <g id="Landing" transform="translate(-604.000000, -640.000000)" fill="#FFFFFF"> <g id="dalee" transform="translate(604.000000, 640.000000)"> <path d="M9.648,9.888 L10.848,9.888 L10.848,14.144 L8.64,14.144 L8.64,12 L2.448,12 L2.448,14.144 L0.24,14.144 L0.24,9.888 L1.328,9.888 C1.94666976,9.02399568 2.256,7.76000832 2.256,6.096 L2.256,0.8 L9.648,0.8 L9.648,9.888 Z M3.696,9.888 L7.44,9.888 L7.44,2.864 L4.464,2.864 L4.464,6.128 C4.464,7.74934144 4.20800256,9.00266224 3.696,9.888 Z M8.24,32 L7.568,29.984 L3.104,29.984 L2.432,32 L0.048,32 L3.968,20.8 L6.704,20.8 L10.64,32 L8.24,32 Z M3.808,27.92 L6.88,27.92 L5.344,23.344 L3.808,27.92 Z M0.176,52 L0.176,49.952 C0.83733664,50.0480005 1.33333168,49.9146685 1.664,49.552 C1.99466832,49.1893315 2.16,48.4800053 2.16,47.424 L2.16,40.8 L9.776,40.8 L9.776,52 L7.584,52 L7.584,42.912 L4.352,42.912 L4.352,47.36 C4.352,48.3306715 4.23466784,49.1466634 4,49.808 C3.76533216,50.4693366 3.44266872,50.9599984 3.032,51.28 C2.62133128,51.6000016 2.18400232,51.8133328 1.72,51.92 C1.25599768,52.0266672 0.74133616,52.0533336 0.176,52 Z M3.515,71.91 L9.405,71.91 L9.405,74 L1.33,74 L1.33,60.7 L9.31,60.7 L9.31,62.79 L3.515,62.79 L3.515,66.248 L8.835,66.248 L8.835,68.319 L3.515,68.319 L3.515,71.91 Z M3.515,92.91 L9.405,92.91 L9.405,95 L1.33,95 L1.33,81.7 L9.31,81.7 L9.31,83.79 L3.515,83.79 L3.515,87.248 L8.835,87.248 L8.835,89.319 L3.515,89.319 L3.515,92.91 Z" id="Combined-Shape"></path> </g> </g> </g> </svg> 