<?xml version="1.0" encoding="UTF-8"?> <svg xmlns="http://www.w3.org/2000/svg" xmlns:xlink="http://www.w3.org/1999/xlink" width="85px" height="85px" viewBox="0 0 85 85"> <!-- Generator: Sketch 52.6 (67491) - http://www.bohemiancoding.com/sketch --> <title>Rectangle 13 Copy</title> <desc>Created with Sketch.</desc> <g id="Page-1" stroke="none" stroke-width="1" fill="none" fill-rule="evenodd"> <g id="Landing" transform="translate(-1072.000000, 0.000000)"> <g id="cover-copy-2" transform="translate(-15.000000, -45.000000)"> <g id="Group-2" transform="translate(0.000000, 45.000000)"> <g id="Group-3"> <g id="menu-copy"> <g id="Rectangle-13-Copy" transform="translate(1087.000000, 0.000000)"> <polygon id="Rectangle-Copy-40" fill="#1D33DA" points="-1.47451495e-16 0 85 0 85 85 0 85"></polygon> <g id="Group-40-Copy-3" transform="translate(23.000000, 23.000000)" fill="#FFFFFF"> <g id="Group-40"> <rect id="Rectangle" x="0" y="0" width="9" height="9"></rect> <rect id="Rectangle-Copy-42" x="15" y="0" width="9" height="9" rx="4.5"></rect> <rect id="Rectangle-Copy-43" x="30" y="0" width="9" height="9"></rect> <rect id="Rectangle-Copy-49" x="0" y="30" width="9" height="9"></rect> <rect id="Rectangle-Copy-48" x="15" y="30" width="9" height="9"></rect> <rect id="Rectangle-Copy-47" x="30" y="30" width="9" height="9" rx="4.5"></rect> <polygon id="Triangle" points="4.5 15 9 24 0 24"></polygon> <rect id="Rectangle-Copy-45" x="15" y="15" width="9" height="9"></rect> <rect id="Rectangle-Copy-44" x="30" y="15" width="9" height="9"></rect> </g> </g> </g> </g> </g> </g> </g> </g> </g> </svg> 