<?xml version="1.0" encoding="UTF-8"?> <!-- Generator: Adobe Illustrator 21.0.0, SVG Export Plug-In . SVG Version: 6.00 Build 0) --> <svg xmlns="http://www.w3.org/2000/svg" xmlns:xlink="http://www.w3.org/1999/xlink" id="Слой_1" x="0px" y="0px" viewBox="0 0 617 126.4" style="enable-background:new 0 0 617 126.4;" xml:space="preserve"> <style type="text/css"> .st0{fill:#ED1C24;} .st1{fill:#FFFFFF;} </style> <g> <rect class="st0" width="617" height="126.4"></rect> <path class="st1" d="M85.8,85.6V72.8l-1.7,0.4c-0.5,0-1.1-0.1-1.4-0.4L82,71.9l-0.5-1.3l-0.2-1.1c-0.3-1.9-0.9-3.3-1.8-4.3 c-0.7-1-1.7-1.8-2.9-2.4c-1.2-0.5-2.3-0.6-3.7-0.6v-0.9c1.6-0.3,2.8-0.6,3.8-1.3c0.9-0.6,1.7-1.3,2.2-2l1.9-3.3 c0.5-1.3,1.2-2.2,1.7-2.8c0.4-0.6,1.1-1,1.9-1l0.8,0.1V40.4c-2.1-0.6-4-0.9-5.8-0.9s-3.3,0.4-4.5,1c-1.1,0.6-2,1.5-2.8,2.6 c-0.7,1.1-1.4,2.2-1.8,3.2L67,55.4c-0.5,1.1-0.9,1.7-1.2,1.9c-0.3,0.2-0.7,0.3-1.5,0.3h-1.2v-6.1c0-1.2,0.2-1.9,0.6-2.2 c0.5-0.3,1.1-0.5,1.8-0.5h0.9v-8.3H45.5v8.3h2.3c0.8,0,1.4,0.2,1.7,0.5c0.4,0.3,0.6,0.9,0.6,2.1v23.3c0,1-0.2,1.7-0.6,2.2 c-0.3,0.3-0.8,0.4-1.7,0.4h-2.3v8.3h21.1v-8.3h-0.9c-0.8,0-1.5-0.2-1.8-0.5c-0.4-0.3-0.6-1-0.6-2.2v-7.9h1.2c1.1,0,1.8,0.5,2.1,1.3 c0.5,0.8,1.1,2.4,1.7,4.7l2.2,6.1c0.6,1.5,1.4,2.9,2.3,4.3c0.9,1.2,2,2.1,3.3,2.7c1.4,0.6,2.9,0.9,4.6,0.9 C82.6,86.7,84.3,86.3,85.8,85.6L85.8,85.6z"></path> <path class="st1" d="M105.2,52.2c-2.8,0-5.4,0.5-7.6,1.7c-2.1,1.2-3.8,2.5-5.2,4.2c-1.1,1.5-1.9,3.2-2.6,5.2c-0.6,2-0.9,4-0.9,6 c0,4.5,1.2,8.3,3.4,11.3c1.4,1.7,3.3,3.2,5.6,4.2c2.4,1,5,1.5,7.4,1.5c2.6,0,5.2-0.5,7.6-1.5c2.4-1,4.2-2.4,5.6-4.2 c2.2-3.2,3.3-6.9,3.3-11.3l-0.3-4c-0.4-1.7-0.8-3-1.3-3.9c-0.4-1.1-1.1-2.2-1.9-3.3c-1.6-2.1-3.5-3.5-5.9-4.5 C110.1,52.7,107.6,52.2,105.2,52.2L105.2,52.2z M105.2,79.2c-1.2,0-2-0.5-2.6-1.5c-0.7-1.2-1.1-3.4-1.1-6.9v-2.9 c0-2.5,0.2-4.5,0.6-6.1c0.5-1.5,1.5-2.4,3.1-2.4s2.6,0.8,3.2,2.4c0.5,1.5,0.7,3.5,0.7,6.1v2.9c0,3.4-0.3,5.7-1.1,6.9 C107.3,78.6,106.4,79.2,105.2,79.2L105.2,79.2z"></path> <path class="st1" d="M144,52.2c-1.5,0-2.7,0.3-3.8,0.7c-0.9,0.5-2.2,1.5-4,3h-0.3l-1.1-3.1h-12v6.5h1.1c0.7,0,1.2,0.1,1.5,0.4 c0.4,0.3,0.6,0.8,0.6,1.6v25.1c0,0.9-0.2,1.4-0.6,1.7c-0.3,0.2-0.7,0.3-1.5,0.3h-1.1v6.4h18.1v-6.4h-2.3c-0.4,0-0.8-0.2-1.4-0.5 c-0.3-0.2-0.4-0.7-0.4-1.5v-2.1c0.7,0.5,1.7,1,2.6,1.4c0.8,0.4,1.9,0.5,3.1,0.5c2.9,0,5.4-0.6,7.4-1.9c1.9-1.4,3.4-2.9,4.4-4.8 c1.1-2,1.8-3.9,2.1-5.6c0.3-1.6,0.5-3.3,0.5-5c0-2.8-0.4-5.4-1.2-7.7c-0.5-2.4-1.9-4.5-3.9-6.4C149.9,53.2,147.3,52.2,144,52.2 L144,52.2z M143.7,61c0.4,1.1,0.6,2.7,0.6,4.8v5.3l-0.1,0.7l-0.1,1.9c-0.1,3.6-1.4,5.4-3.9,5.4c-1.4,0-2.5-0.8-3.4-2.4V62.6 c0.5-2.2,1.7-3.3,3.7-3.3C142.2,59.4,143.3,60,143.7,61L143.7,61z"></path> <path class="st1" d="M187.2,54.9c-2-1.7-4.6-2.6-7.9-2.6c-1.5,0-2.7,0.3-3.8,0.7c-0.9,0.5-2.3,1.5-4.1,3h-0.2l-1.1-3.1h-12v6.5h1.1 c0.7,0,1.2,0.1,1.5,0.4s0.5,0.8,0.5,1.6v25.1c0,0.9-0.2,1.4-0.5,1.7c-0.3,0.2-0.7,0.3-1.5,0.3h-1.1v6.4h18.1v-6.4h-2.3 c-0.4,0-0.8-0.2-1.4-0.5c-0.3-0.2-0.4-0.7-0.4-1.5v-2.1c0.7,0.5,1.6,1,2.5,1.4s2,0.5,3.2,0.5c2.9,0,5.4-0.6,7.4-1.9 c2-1.5,3.5-3.1,4.4-4.8c1.1-2,1.7-3.9,2-5.6c0.4-2.2,0.6-3.8,0.6-5c0-2.8-0.4-5.4-1.2-7.7C190.5,58.9,189.2,56.8,187.2,54.9 L187.2,54.9z M175.8,59.4c1.7,0,2.7,0.5,3.2,1.6c0.4,1.1,0.6,2.7,0.6,4.8v5.3l-0.1,0.7l-0.1,1.9c-0.1,3.6-1.4,5.4-3.9,5.4 c-1.4,0-2.5-0.8-3.4-2.4V62.6C172.6,60.5,173.8,59.4,175.8,59.4L175.8,59.4z"></path> <path class="st1" d="M227.2,71.6c0-3.9-0.6-7.3-2-10.2c-1.2-3-2.8-5.2-5.2-6.7c-2.2-1.5-4.8-2.4-7.9-2.4c-2.4,0-4.8,0.5-7.1,1.4 c-2.1,0.9-4,2.4-5.8,4.7c-0.9,1.2-1.9,2.9-2.6,5.2c-0.6,1.9-0.9,4-0.9,6.1c0,4.4,1.2,8.1,3.4,11.1c1.9,2.4,4,3.9,6.3,4.6 c2.7,0.7,4.8,1.1,6.3,1.1c4.3,0,7.8-1.1,10.2-3.2c2.4-2.1,4.1-4.6,4.8-7.5h-10.2c-0.3,2.4-1.6,3.5-4,3.5c-0.9,0-1.9-0.2-2.6-0.6 c-0.5-0.5-0.9-1.1-1.2-1.9c-0.3-0.6-0.5-1.8-0.5-3.4v-1.6h19V71.6z M215.4,60.8c0.7,0.8,1.1,2.3,1.1,4.4h-8.3 c0-1.8,0.4-3.2,1.3-4.2s1.9-1.5,3.1-1.5S214.7,59.9,215.4,60.8L215.4,60.8z"></path> <path class="st1" d="M256.2,54.7c-2.2-1.6-5.4-2.4-9.3-2.4c-5.6,0-9.8,2-12.7,5.9c-1.2,1.5-2.1,3.2-2.6,5.2c-0.6,2-0.9,4-0.9,6 c0,4.5,1.2,8.3,3.4,11.3c1.4,1.9,3.3,3.3,5.6,4.3c2.5,1,5,1.5,7.4,1.5s4.6-0.4,6.5-1s3.5-1.6,4.8-3c1.4-1.4,2.3-2.9,3.1-4.4 c0.6-1.6,0.9-3.4,0.9-5.3h-11.9c0,2.7-0.3,4.4-1.1,5.3c-0.9,0.8-1.8,1.3-2.5,1.3c-1.2,0-2.1-0.5-2.7-1.7c-0.6-0.9-0.9-3.2-0.9-6.7 v-3.1c0-2.6,0.2-4.6,0.6-6.2c0.5-1.4,1.5-2.1,3.1-2.1c1.2,0,2,0.5,2.6,1.6c0.6,1.2,0.9,2.6,0.9,4.4h11.6c-0.1-1.5-0.5-3.3-1.4-5.3 C260,58.2,258.5,56.4,256.2,54.7L256.2,54.7z"></path> <path class="st1" d="M278.6,60.1h6.8v17c0,0.7-0.1,1.3-0.3,1.5c-0.2,0.3-0.7,0.5-1.7,0.5h-0.2v6.5h16.1v-6.5h-1.1 c-0.6,0-1.2-0.1-1.5-0.4s-0.4-0.8-0.4-1.6V61.3c0-0.6,0.1-1.1,0.3-1.5c0.3-0.3,0.8-0.5,1.6-0.5h1.1v-6.5h-34.8v6.5h1.2 c0.8,0,1.4,0.2,1.6,0.6c0.3,0.4,0.4,0.8,0.4,1.4v15.8c0,0.7-0.1,1.3-0.4,1.5c-0.2,0.3-0.7,0.5-1.6,0.5h-1.1v6.5h16.1v-6.5h-0.2 c-0.5,0-0.9-0.1-1.4-0.4c-0.3-0.3-0.5-0.8-0.5-1.6V60.1L278.6,60.1z"></path> <path class="st1" d="M324.1,53.6c-2.2-0.9-4.5-1.4-7-1.4c-3.1,0-5.6,0.5-7.8,1.7c-2.2,1.2-3.9,2.5-5.1,4.2c-1.2,1.4-2,3.1-2.6,5.2 s-0.9,4.1-0.9,6c0,4.4,1.1,8.2,3.3,11.3c1.4,1.7,3.2,3.1,5.6,4.2c2.5,1,5.1,1.5,7.6,1.5s5.1-0.5,7.5-1.5c2.3-1,4.2-2.4,5.6-4.2 c2.2-3,3.4-6.8,3.4-11.3c0-0.8-0.2-2.2-0.5-4c-0.2-1.2-0.6-2.4-1.2-3.9c-0.6-1.4-1.3-2.4-2-3.3C328.3,56.1,326.3,54.5,324.1,53.6 L324.1,53.6z M317.2,59.4c1.6,0,2.5,0.8,3.1,2.4c0.4,1.5,0.6,3.5,0.6,6.1v2.9c0,3.4-0.3,5.7-1.1,6.9c-0.6,1-1.5,1.5-2.6,1.5 c-1.2,0-2.1-0.5-2.8-1.5c-0.6-1.2-0.9-3.4-0.9-6.9v-2.9c0-2.7,0.2-4.7,0.7-6.1C314.5,60.2,315.6,59.4,317.2,59.4L317.2,59.4z"></path> <path class="st1" d="M367.6,59.8c0.3-0.3,0.8-0.4,1.5-0.4h1.1v-6.5h-16v6.5h0.2c0.8,0,1.4,0.2,1.6,0.5c0.2,0.5,0.3,0.9,0.3,1.5v4 h-7.1v-4c0-0.8,0.2-1.4,0.5-1.6c0.3-0.3,0.8-0.4,1.5-0.4h0.2v-6.5h-16.1v6.5h1.1c0.8,0,1.4,0.2,1.6,0.5s0.3,0.7,0.3,1.5v15.8 c0,0.8-0.1,1.4-0.4,1.6c-0.3,0.3-0.7,0.4-1.5,0.4h-1.1v6.5h16.1v-6.5h-0.2c-0.6,0-1.2-0.1-1.5-0.4s-0.5-0.8-0.5-1.6v-4.5h7.1v4.5 c0,0.7-0.1,1.3-0.3,1.5c-0.2,0.3-0.7,0.5-1.6,0.5h-0.2v6.5h16v-6.5h-1.1c-0.6,0-1.2-0.1-1.5-0.4s-0.5-0.8-0.5-1.6V61.4 C367.1,60.6,367.3,60,367.6,59.8L367.6,59.8z"></path> <path class="st1" d="M410.2,59.4v-6.5h-33.1v6.5h2.6c0.5,0,1.1,0.2,1.4,0.5s0.5,0.6,0.5,1.3c-0.1,2.6-0.4,5.3-1.1,8.1 c-0.5,2.4-1.3,4.6-2.4,6.4c-0.7,1-1.4,1.7-2,2.2c-0.7,0.5-1.6,0.6-2.7,0.6V94h6.4l1.2-5.8c0.2-1,0.5-1.7,0.9-2.1 c0.4-0.3,1.1-0.5,1.8-0.5h17c0.9,0,1.5,0.2,1.8,0.5c0.4,0.4,0.7,1.3,1.1,2.6l1.2,5.2h6.3V78.3h-2c-0.7,0-1.2-0.1-1.5-0.4 c-0.3-0.2-0.4-0.7-0.4-1.5V61.3c0-0.8,0.1-1.4,0.4-1.6c0.4-0.3,0.9-0.4,1.5-0.4L410.2,59.4L410.2,59.4z M389.9,66.6 c0.3-2.3,0.5-4.4,0.6-6.4h5.7v18.3h-9.5l1.3-2.7l0.7-2.6L389.9,66.6L389.9,66.6z"></path> <path class="st1" d="M437.1,54.6c-2.2-1.5-5-2.4-8-2.4c-2.4,0-4.7,0.5-7,1.4c-2.2,0.9-4.1,2.4-5.8,4.7c-0.9,1.2-1.9,2.9-2.6,5.2 c-0.7,1.9-1.1,4-1.1,6.1c0,4.4,1.2,8.1,3.4,11.1c1.9,2.4,4,3.9,6.3,4.6c2.8,0.7,4.9,1.1,6.4,1.1c4.3,0,7.8-1.1,10.2-3.2 s4-4.6,4.8-7.5h-10.3c-0.3,2.4-1.7,3.5-4.1,3.5c-0.9,0-1.8-0.2-2.5-0.6c-0.6-0.5-1.1-1.1-1.3-1.9c-0.3-0.6-0.4-1.8-0.4-3.4v-1.6h19 c0-3.9-0.6-7.3-1.9-10.2C441.1,58.3,439.5,56.1,437.1,54.6L437.1,54.6z M429.4,59.4c1.2,0,2.2,0.5,2.9,1.4c0.7,0.8,1.2,2.3,1.2,4.4 h-8.3c0-1.8,0.4-3.2,1.3-4.2C427.3,60,428.3,59.4,429.4,59.4L429.4,59.4z"></path> <path class="st1" d="M466.6,59.9c0.3,0.5,0.4,0.9,0.4,1.5v4h-7.2v-4c0-0.8,0.2-1.4,0.6-1.6c0.3-0.3,0.8-0.4,1.4-0.4h0.3v-6.5h-16.2 v6.5h1.2c0.8,0,1.4,0.2,1.6,0.5c0.2,0.3,0.3,0.7,0.3,1.5v15.8c0,0.8-0.1,1.4-0.4,1.6c-0.3,0.3-0.8,0.4-1.5,0.4h-1.2v6.5h16.2v-6.5 h-0.3c-0.6,0-1.2-0.1-1.5-0.4s-0.5-0.8-0.5-1.6v-4.5h7.2v4.5c0,0.7-0.1,1.3-0.4,1.5c-0.2,0.3-0.7,0.5-1.6,0.5h-0.2v6.5h16.1v-6.5 h-1.2c-0.5,0-1.1-0.1-1.5-0.4c-0.3-0.3-0.4-0.8-0.4-1.6V61.4c0-0.8,0.1-1.4,0.4-1.6c0.3-0.3,0.7-0.4,1.5-0.4h1.2v-6.5h-16.1v6.5 h0.2C465.9,59.4,466.4,59.6,466.6,59.9L466.6,59.9z"></path> <path class="st1" d="M494.5,49.8h1.4v25.1c0,1.1-0.2,1.8-0.6,2.2c-0.3,0.3-0.8,0.4-1.7,0.4h-2.4v8.3h22.4v-8.3h-2.4 c-0.7,0-1.3-0.1-1.6-0.4s-0.5-1-0.5-2.2V49.8h1.3c1.5,0,2.3,0.1,2.6,0.4c0.4,0.3,0.6,0.9,0.7,1.8l0.7,3.8h7.4V40.7h-38.9v15.1h7.4 c0.2-1.5,0.5-2.9,0.8-4.3c0.2-0.8,0.5-1.3,1.1-1.5C492.5,49.9,493.3,49.8,494.5,49.8L494.5,49.8z"></path> <g> <g> <g> <path class="st1" d="M572.4,69.4h2l-0.5,3.7h-2l-0.9,6.3c-0.3,1.8-0.4,2.4,1.6,2.7l-0.5,3.7L569,86c-1.4,0.1-3-0.1-3.9-1.1 c-1-1.1-0.7-2.7-0.4-4.1l1.1-7.6H565l0.5-3.7h0.8l0.5-3.2l6.4-1.7L572.4,69.4z"></path> </g> </g> <g> <g> <path class="st1" d="M548.2,75.3c0.5-4.5,2.3-6.3,8.1-6.3c6,0,7.2,2,6.5,6l-0.6,3.9h-8.4l-0.2,1.5c-0.1,0.8-0.2,1.9,0.9,1.9 c1.1,0,1.3-1,1.4-1.8l0.1-0.6h6.1l-0.6,4.1c-1.5,1.2-4.2,1.9-6.7,2.1s-5-0.2-6.2-1.2c-1.5-1.3-1.3-3.1-1.1-5.1L548.2,75.3z M556.9,74.5c0.1-0.7,0.1-1.7-1-1.7s-1.3,1-1.4,1.7l-0.1,0.6h2.4L556.9,74.5z"></path> </g> </g> <g> <g> <path class="st1" d="M537.3,70.4c1.8-1.1,3.3-1.4,4.6-1.4c1.3,0.1,2.3,0.5,2.9,1.1c1,1.1,0.9,2.3,0.7,3.7l-0.9,6.1 c-0.1,0.8-0.3,1.7,0.4,2.2l-0.5,3.7H538c-0.1-1.7,0.2-3.4,0.4-5.1l0.7-4.8c0-0.1,0.2-0.9,0-1.5c-0.3-0.6-0.9-1.1-2-0.6l-0.9,6.1 c-0.1,0.8-0.3,1.7,0.4,2.2l-0.5,3.7h-7.6l0.5-3.7c0.9-0.5,0.9-1.2,1.1-2.1l0.7-5c0.1-0.9,0.2-1.5-0.5-2l0.5-3.7h6.6L537.3,70.4z "></path> </g> </g> <g> <g> <path class="st1" d="M519.8,83.2c0.3-1.7,1.8-3,3.4-3c1.7,0,2.8,1.3,2.6,3c-0.3,1.7-1.8,3-3.4,3 C520.8,86.2,519.6,84.9,519.8,83.2z"></path> </g> </g> </g> </g> </svg> 