<?xml version="1.0" encoding="UTF-8"?> <svg xmlns="http://www.w3.org/2000/svg" xmlns:xlink="http://www.w3.org/1999/xlink" width="71px" height="40px" viewBox="0 0 71 40"> <!-- Generator: Sketch 52.6 (67491) - http://www.bohemiancoding.com/sketch --> <title>logo</title> <desc>Created with Sketch.</desc> <g id="Page-1" stroke="none" stroke-width="1" fill="none" fill-rule="evenodd"> <g id="Landing" transform="translate(-22.000000, -22.000000)" fill="#FFFFFF"> <g id="cover-copy-2" transform="translate(-15.000000, -45.000000)"> <g id="Group-2" transform="translate(0.000000, 45.000000)"> <g id="Group-3"> <g id="menu-copy"> <g id="Group-34" transform="translate(15.000000, 0.000000)"> <g id="Group-33"> <g id="logo" transform="translate(22.000000, 22.000000)"> <path d="M30.7313433,10.1052632 L35.7825871,10.1052632 C40.1626866,10.1052632 44.1189055,12 46.838806,15.0175439 L55.8462687,6.10526316 L70.8587065,21.0175439 L70.8587065,39.9649123 L60.8975124,39.9649123 L60.8975124,25.1578947 L55.8462687,19.9649123 L50.7950249,25.122807 L50.7950249,39.9298246 L40.8338308,39.9298246 L40.8338308,25.122807 C40.8338308,22.2105263 38.5378109,19.9649123 35.7825871,19.9649123 L35.7825871,19.9298246 L30.5900498,19.9298246 L30.5900498,10.1403509 L20.6641791,10.1403509 L20.6641791,19.9298246 L15.1890547,19.9298246 C12.3985075,19.9298246 10.1378109,22.1052632 10.1378109,24.877193 C10.1378109,27.6491228 12.4338308,29.8947368 15.1890547,29.8947368 L20.6641791,29.8947368 L20.6641791,19.9298246 L30.5900498,19.9298246 L30.5900498,39.9298246 L15.1890547,39.9298246 C6.8880597,39.9298246 0.176616915,33.122807 0.176616915,24.9122807 C0.176616915,16.7017544 6.8880597,10.1403509 15.1890547,10.1403509 L20.558209,10.1403509" id="Path"></path> <polyline id="Path" points="20.558209 10.1052632 20.558209 0.140350877 30.7313433 0.140350877 30.7313433 10.1052632"></polyline> </g> </g> </g> </g> </g> </g> </g> </g> </g> </svg> 