<?xml version="1.0" encoding="UTF-8"?> <svg xmlns="http://www.w3.org/2000/svg" xmlns:xlink="http://www.w3.org/1999/xlink" width="1280px" height="860px" viewBox="0 0 1280 860"> <!-- Generator: Sketch 52.6 (67491) - http://www.bohemiancoding.com/sketch --> <title>Bg</title> <desc>Created with Sketch.</desc> <defs> <path d="M1280,224 L1191.5,224 C1069.91592,224 971,322.915511 971,444.500917 C971,566.086324 1069.91592,665 1191.5,665 L1280,665 L1280,860 L0,860 L0,0 L1280,0 L1280,224 Z M1280,357 L1280,534 L1192.49908,534 C1143.70068,534 1104,494.299323 1104,445.499082 C1104,396.700677 1143.70068,357 1192.49908,357 L1280,357 Z" id="path-1"></path> <polygon id="path-3" points="1139.96419 214 1080.9996 272.483262 1022.03581 214.000796 988 247.757971 1080.9996 340 1174 247.758767"></polygon> <polygon id="path-4" points="81.5781798 33.8987342 58.0188271 56.8948652 34.4597949 33.899047 20.8607595 47.1726641 58.0188271 83.443038 95.1772152 47.172977"></polygon> <rect id="path-5" x="0" y="0" width="41.721519" height="41.721519"></rect> <rect id="path-6" x="32" y="31" width="32" height="66"></rect> <rect id="path-7" x="0" y="0" width="32" height="32"></rect> <rect id="path-8" x="32" y="31" width="32" height="140"></rect> <rect id="path-9" x="0" y="0" width="32" height="32"></rect> <rect id="path-10" x="1070" y="766" width="68" height="68"></rect> </defs> <g id="Page-1" stroke="none" stroke-width="1" fill="none" fill-rule="evenodd"> <g id="Landing-Tilda" transform="translate(0.000000, -649.000000)"> <g id="Bg" transform="translate(0.000000, 649.000000)"> <mask id="mask-2" fill="white"> <use xlink:href="#path-1"></use> </mask> <use id="Combined-Shape" fill="#F7F7F7" xlink:href="#path-1"></use> <g id="pattern" mask="url(#mask-2)"> <g transform="translate(737.000000, 543.000000) scale(1, -1) translate(-737.000000, -543.000000) translate(150.000000, 122.000000)"> <g id="Fill-1" transform="translate(1081.000000, 277.000000) scale(1, -1) translate(-1081.000000, -277.000000) " fill-rule="evenodd"> <use fill="#EAEAEA" xlink:href="#path-3"></use> <use fill="#F0F0F0" xlink:href="#path-3"></use> <use fill="#ECEFF4" xlink:href="#path-3"></use> </g> <g id="Group-22" stroke-width="1" fill-rule="evenodd" transform="translate(519.000000, 103.000000)"></g> <polygon id="Fill-1-Copy-4" transform="translate(48.500000, 793.500000) scale(-1, -1) rotate(-45.000000) translate(-48.500000, -793.500000) " points="74.1779548 766 48.4998253 791.528408 22.8220452 766.000347 8 780.735622 48.4998253 821 89 780.73597"></polygon> <g id="Group-30" stroke-width="1" fill-rule="evenodd" transform="translate(765.000000, 261.000000)"> <g id="Fill-1-Copy-6" transform="translate(58.018987, 58.670886) scale(-1, -1) rotate(-45.000000) translate(-58.018987, -58.670886) "> <use fill="#EAEAEA" xlink:href="#path-4"></use> <use fill="#F0F0F0" xlink:href="#path-4"></use> <use fill="#ECEFF4" xlink:href="#path-4"></use> </g> <g id="Rectangle-Copy-20"> <use fill="#EAEAEA" xlink:href="#path-5"></use> <use fill="#F0F0F0" xlink:href="#path-5"></use> <use fill="#ECEFF4" xlink:href="#path-5"></use> </g> </g> <g id="Group-25" stroke-width="1" fill-rule="evenodd" transform="translate(1002.000000, 104.000000)"> <g id="Rectangle"> <use fill="#EAEAEA" xlink:href="#path-6"></use> <use fill="#F0F0F0" xlink:href="#path-6"></use> <use fill="#ECEFF4" xlink:href="#path-6"></use> </g> <g id="Rectangle-Copy-20"> <use fill="#EAEAEA" xlink:href="#path-7"></use> <use fill="#F0F0F0" xlink:href="#path-7"></use> <use fill="#ECEFF4" xlink:href="#path-7"></use> </g> </g> <g id="Group-25-Copy-2" stroke-width="1" fill-rule="evenodd" transform="translate(816.000000, 746.500000) scale(-1, 1) translate(-816.000000, -746.500000) translate(784.000000, 661.000000)"> <g id="Rectangle"> <use fill="#EAEAEA" xlink:href="#path-8"></use> <use fill="#F0F0F0" xlink:href="#path-8"></use> <use fill="#ECEFF4" xlink:href="#path-8"></use> </g> <g id="Rectangle-Copy-20"> <use fill="#EAEAEA" xlink:href="#path-9"></use> <use fill="#F0F0F0" xlink:href="#path-9"></use> <use fill="#ECEFF4" xlink:href="#path-9"></use> </g> </g> <g id="Rectangle-Copy-20" fill-rule="evenodd"> <use fill="#EAEAEA" xlink:href="#path-10"></use> <use fill="#F0F0F0" xlink:href="#path-10"></use> <use fill="#ECEFF4" xlink:href="#path-10"></use> </g> </g> </g> <path d="M1418.4768,671.4768 L1418.4768,215.5232 L1190.5,215.5232 C1064.79406,215.5232 962.5232,317.793894 962.5232,443.50095 C962.5232,569.2064 1064.79435,671.4768 1190.5,671.4768 L1418.4768,671.4768 Z M1190.5,672.5232 C1064.21644,672.5232 961.4768,569.784312 961.4768,443.50095 C961.4768,317.215983 1064.21615,214.4768 1190.5,214.4768 L1419.5232,214.4768 L1419.5232,672.5232 L1190.5,672.5232 Z" id="Stroke-1" fill="#D6D6D6" fill-rule="nonzero" mask="url(#mask-2)"></path> </g> </g> </g> </svg> 