<?xml version="1.0" encoding="UTF-8"?> <svg xmlns="http://www.w3.org/2000/svg" xmlns:xlink="http://www.w3.org/1999/xlink" width="112px" height="160px" viewBox="0 0 112 160"> <!-- Generator: Sketch 52.6 (67491) - http://www.bohemiancoding.com/sketch --> <title>Shape</title> <desc>Created with Sketch.</desc> <g id="Page-1" stroke="none" stroke-width="1" fill="none" fill-rule="evenodd"> <g id="Landing-Tilda" transform="translate(-16.000000, -2100.000000)" fill="#ECEFF4"> <g id="posts" transform="translate(-74.000000, 1552.000000)"> <g id="bg"> <g id="Fill-6" transform="translate(26.000000, -62.000000)"> <g id="Group-25-Copy" transform="translate(610.500000, 635.500000) scale(-1, -1) translate(-610.500000, -635.500000) translate(64.000000, 501.000000)"> <path d="M1025.70612,11.2419155 L1025.70612,73.1938633 C1025.70612,96.2639602 1044.36589,115.032338 1067.30181,115.032338 L1081.82347,115.032338 L1081.82347,92.5485071 L1067.30181,92.5485071 C1056.69137,92.5485071 1048.05918,83.8658137 1048.05918,73.1938633 L1048.05918,11.2419155 L1025.70612,11.2419155 Z M1081.82347,126.274254 L1067.30181,126.274254 C1038.20259,126.274254 1014.52959,102.462752 1014.52959,73.1938633 L1014.52959,11.2419155 L992.176529,11.2419155 L992.176529,73.1938633 C992.176529,114.860337 1025.87768,148.758085 1067.30181,148.758085 L1081.82347,148.758085 L1081.82347,126.274254 Z M981,1.13686838e-13 L1059.23571,1.13686838e-13 L1059.23571,73.1938633 C1059.23571,77.6675836 1062.85411,81.3065916 1067.30181,81.3065916 L1093,81.3065916 L1093,160 L1067.30181,160 C1019.71438,160 981,121.059129 981,73.1938633 L981,1.13686838e-13 Z" id="Shape"></path> </g> </g> </g> </g> </g> </g> </svg> 