<?xml version="1.0" encoding="UTF-8"?> <svg xmlns="http://www.w3.org/2000/svg" xmlns:xlink="http://www.w3.org/1999/xlink" width="460px" height="655px" viewBox="0 0 460 655"> <!-- Generator: Sketch 52.6 (67491) - http://www.bohemiancoding.com/sketch --> <title>Combined Shape</title> <desc>Created with Sketch.</desc> <defs> <path d="M288.148488,2107.97841 L288.148488,1853.33109 C288.148488,1758.87344 211.597097,1682.02863 117.502917,1682.02863 L56.9036024,1682.02863 L56.9036024,1775.12955 L116.546153,1775.12955 C160.124738,1775.12955 195.578385,1810.67433 195.578385,1854.36262 L195.578385,2107.97841 L288.148488,2107.97841 Z M56.9036024,1636 L117.502917,1636 C236.881913,1636 334,1733.49325 334,1853.33109 L334,2107.97841 L425.096398,2107.97841 L425.096398,1854.36262 C425.096398,1683.7905 286.68097,1545.02159 116.546153,1545.02159 L56.9036024,1545.02159 L56.9036024,1636 Z M471,2154 L149.674783,2154 L149.674783,1854.36262 C149.674783,1836.04833 134.813492,1821.15114 116.546153,1821.15114 L11,1821.15114 L11,1499 L116.546153,1499 C311.994512,1499 471,1658.41419 471,1854.36262 L471,2154 Z" id="path-1"></path> </defs> <g id="Page-1" stroke="none" stroke-width="1" fill="none" fill-rule="evenodd"> <g id="Post-01-Copy" transform="translate(-11.000000, -1499.000000)"> <g id="Combined-Shape" transform="translate(241.000000, 1826.500000) scale(-1, -1) translate(-241.000000, -1826.500000) "> <use fill="#EAEAEA" xlink:href="#path-1"></use> <use fill="#F0F0F0" xlink:href="#path-1"></use> <use fill="#ECEFF4" xlink:href="#path-1"></use> </g> </g> </g> </svg> 