<svg xmlns="http://www.w3.org/2000/svg" width="30" height="30" viewBox="-615 1477 48 48" fill="#fff"><desc>LinkedIn</desc><path d="M-567 1501c0 13.256-10.745 24-24 24s-24-10.744-24-24c0-13.254 10.745-24 24-24s24 10.746 24 24zm-38.506 13.975h6.22v-20.004h-6.22v20.005zm3.11-22.74c1.987 0 3.602-1.614 3.602-3.605 0-1.99-1.615-3.605-3.602-3.605-1.993 0-3.604 1.615-3.604 3.605s1.61 3.606 3.604 3.606zm26.396 11.767c0-5.387-1.163-9.53-7.454-9.53-3.023 0-5.054 1.66-5.884 3.232h-.085v-2.733h-5.964v20.005h6.216v-9.896c0-2.61.492-5.138 3.728-5.138 3.186 0 3.232 2.984 3.232 5.305v9.73h6.21V1504z"/></svg>