<?xml version="1.0" encoding="UTF-8"?> <svg xmlns="http://www.w3.org/2000/svg" xmlns:xlink="http://www.w3.org/1999/xlink" width="529px" height="56px" viewBox="0 0 529 56"> <!-- Generator: Sketch 52.6 (67491) - http://www.bohemiancoding.com/sketch --> <title>korr_net_logo</title> <desc>Created with Sketch.</desc> <g id="Page-1" stroke="none" stroke-width="1" fill="none" fill-rule="evenodd"> <g id="korr_net_logo" fill="#FFFFFF"> <path d="M40.3,46.6 L40.3,33.8 L38.6,34.2 C38.1,34.2 37.5,34.1 37.2,33.8 L36.5,32.9 L36,31.6 L35.8,30.5 C35.5,28.6 34.9,27.2 34,26.2 C33.3,25.2 32.3,24.4 31.1,23.8 C29.9,23.3 28.8,23.2 27.4,23.2 L27.4,22.3 C29,22 30.2,21.7 31.2,21 C32.1,20.4 32.9,19.7 33.4,19 L35.3,15.7 C35.8,14.4 36.5,13.5 37,12.9 C37.4,12.3 38.1,11.9 38.9,11.9 L39.7,12 L39.7,1.4 C37.6,0.8 35.7,0.5 33.9,0.5 C32.1,0.5 30.6,0.9 29.4,1.5 C28.3,2.1 27.4,3 26.6,4.1 C25.9,5.2 25.2,6.3 24.8,7.3 L21.5,16.4 C21,17.5 20.6,18.1 20.3,18.3 C20,18.5 19.6,18.6 18.8,18.6 L17.6,18.6 L17.6,12.5 C17.6,11.3 17.8,10.6 18.2,10.3 C18.7,10 19.3,9.8 20,9.8 L20.9,9.8 L20.9,1.5 L0,1.5 L0,9.8 L2.3,9.8 C3.1,9.8 3.7,10 4,10.3 C4.4,10.6 4.6,11.2 4.6,12.4 L4.6,35.7 C4.6,36.7 4.4,37.4 4,37.9 C3.7,38.2 3.2,38.3 2.3,38.3 L0,38.3 L0,46.6 L21.1,46.6 L21.1,38.3 L20.2,38.3 C19.4,38.3 18.7,38.1 18.4,37.8 C18,37.5 17.8,36.8 17.8,35.6 L17.8,27.7 L19,27.7 C20.1,27.7 20.8,28.2 21.1,29 C21.6,29.8 22.2,31.4 22.8,33.7 L25,39.8 C25.6,41.3 26.4,42.7 27.3,44.1 C28.2,45.3 29.3,46.2 30.6,46.8 C32,47.4 33.5,47.7 35.2,47.7 C37.1,47.7 38.8,47.3 40.3,46.6 Z" id="Path"></path> <path d="M59.7,13.2 C56.9,13.2 54.3,13.7 52.1,14.9 C50,16.1 48.3,17.4 46.9,19.1 C45.8,20.6 45,22.3 44.3,24.3 C43.7,26.3 43.4,28.3 43.4,30.3 C43.4,34.8 44.6,38.6 46.8,41.6 C48.2,43.3 50.1,44.8 52.4,45.8 C54.8,46.8 57.4,47.3 59.8,47.3 C62.4,47.3 65,46.8 67.4,45.8 C69.8,44.8 71.6,43.4 73,41.6 C75.2,38.4 76.3,34.7 76.3,30.3 L76,26.3 C75.6,24.6 75.2,23.3 74.7,22.4 C74.3,21.3 73.6,20.2 72.8,19.1 C71.2,17 69.3,15.6 66.9,14.6 C64.6,13.7 62.1,13.2 59.7,13.2 Z M59.7,40.2 C58.5,40.2 57.7,39.7 57.1,38.7 C56.4,37.5 56,35.3 56,31.8 L56,28.9 C56,26.4 56.2,24.4 56.6,22.8 C57.1,21.3 58.1,20.4 59.7,20.4 C61.3,20.4 62.3,21.2 62.9,22.8 C63.4,24.3 63.6,26.3 63.6,28.9 L63.6,31.8 C63.6,35.2 63.3,37.5 62.5,38.7 C61.8,39.6 60.9,40.2 59.7,40.2 Z" id="Shape" fill-rule="nonzero"></path> <path d="M98.5,13.2 C97,13.2 95.8,13.5 94.7,13.9 C93.8,14.4 92.5,15.4 90.7,16.9 L90.4,16.9 L89.3,13.8 L77.3,13.8 L77.3,20.3 L78.4,20.3 C79.1,20.3 79.6,20.4 79.9,20.7 C80.3,21 80.5,21.5 80.5,22.3 L80.5,47.4 C80.5,48.3 80.3,48.8 79.9,49.1 C79.6,49.3 79.2,49.4 78.4,49.4 L77.3,49.4 L77.3,55.8 L95.4,55.8 L95.4,49.4 L93.1,49.4 C92.7,49.4 92.3,49.2 91.7,48.9 C91.4,48.7 91.3,48.2 91.3,47.4 L91.3,45.3 C92,45.8 93,46.3 93.9,46.7 C94.7,47.1 95.8,47.2 97,47.2 C99.9,47.2 102.4,46.6 104.4,45.3 C106.3,43.9 107.8,42.4 108.8,40.5 C109.9,38.5 110.6,36.6 110.9,34.9 C111.2,33.3 111.4,31.6 111.4,29.9 C111.4,27.1 111,24.5 110.2,22.2 C109.7,19.8 108.3,17.7 106.3,15.8 C104.4,14.2 101.8,13.2 98.5,13.2 Z M98.2,22 C98.6,23.1 98.8,24.7 98.8,26.8 L98.8,32.1 L98.7,32.8 L98.6,34.7 C98.5,38.3 97.2,40.1 94.7,40.1 C93.3,40.1 92.2,39.3 91.3,37.7 L91.3,23.6 C91.8,21.4 93,20.3 95,20.3 C96.7,20.4 97.8,21 98.2,22 Z" id="Shape" fill-rule="nonzero"></path> <path d="M141.7,15.9 C139.7,14.2 137.1,13.3 133.8,13.3 C132.3,13.3 131.1,13.6 130,14 C129.1,14.5 127.7,15.5 125.9,17 L125.7,17 L124.6,13.9 L112.6,13.9 L112.6,20.4 L113.7,20.4 C114.4,20.4 114.9,20.5 115.2,20.8 C115.5,21.1 115.7,21.6 115.7,22.4 L115.7,47.5 C115.7,48.4 115.5,48.9 115.2,49.2 C114.9,49.4 114.5,49.5 113.7,49.5 L112.6,49.5 L112.6,55.9 L130.7,55.9 L130.7,49.5 L128.4,49.5 C128,49.5 127.6,49.3 127,49 C126.7,48.8 126.6,48.3 126.6,47.5 L126.6,45.4 C127.3,45.9 128.2,46.4 129.1,46.8 C130,47.2 131.1,47.3 132.3,47.3 C135.2,47.3 137.7,46.7 139.7,45.4 C141.7,43.9 143.2,42.3 144.1,40.6 C145.2,38.6 145.8,36.7 146.1,35 C146.5,32.8 146.7,31.2 146.7,30 C146.7,27.2 146.3,24.6 145.5,22.3 C145,19.9 143.7,17.8 141.7,15.9 Z M130.3,20.4 C132,20.4 133,20.9 133.5,22 C133.9,23.1 134.1,24.7 134.1,26.8 L134.1,32.1 L134,32.8 L133.9,34.7 C133.8,38.3 132.5,40.1 130,40.1 C128.6,40.1 127.5,39.3 126.6,37.7 L126.6,23.6 C127.1,21.5 128.3,20.4 130.3,20.4 Z" id="Shape" fill-rule="nonzero"></path> <path d="M181.7,32.6 C181.7,28.7 181.1,25.3 179.7,22.4 C178.5,19.4 176.9,17.2 174.5,15.7 C172.3,14.2 169.7,13.3 166.6,13.3 C164.2,13.3 161.8,13.8 159.5,14.7 C157.4,15.6 155.5,17.1 153.7,19.4 C152.8,20.6 151.8,22.3 151.1,24.6 C150.5,26.5 150.2,28.6 150.2,30.7 C150.2,35.1 151.4,38.8 153.6,41.8 C155.5,44.2 157.6,45.7 159.9,46.4 C162.6,47.1 164.7,47.5 166.2,47.5 C170.5,47.5 174,46.4 176.4,44.3 C178.8,42.2 180.5,39.7 181.2,36.8 L171,36.8 C170.7,39.2 169.4,40.3 167,40.3 C166.1,40.3 165.1,40.1 164.4,39.7 C163.9,39.2 163.5,38.6 163.2,37.8 C162.9,37.2 162.7,36 162.7,34.4 L162.7,32.8 L181.7,32.8 L181.7,32.6 Z M169.9,21.8 C170.6,22.6 171,24.1 171,26.2 L162.7,26.2 C162.7,24.4 163.1,23 164,22 C164.9,21 165.9,20.5 167.1,20.5 C168.3,20.5 169.2,20.9 169.9,21.8 Z" id="Shape" fill-rule="nonzero"></path> <path d="M210.7,15.7 C208.5,14.1 205.3,13.3 201.4,13.3 C195.8,13.3 191.6,15.3 188.7,19.2 C187.5,20.7 186.6,22.4 186.1,24.4 C185.5,26.4 185.2,28.4 185.2,30.4 C185.2,34.9 186.4,38.7 188.6,41.7 C190,43.6 191.9,45 194.2,46 C196.7,47 199.2,47.5 201.6,47.5 C204,47.5 206.2,47.1 208.1,46.5 C210,45.9 211.6,44.9 212.9,43.5 C214.3,42.1 215.2,40.6 216,39.1 C216.6,37.5 216.9,35.7 216.9,33.8 L205,33.8 C205,36.5 204.7,38.2 203.9,39.1 C203,39.9 202.1,40.4 201.4,40.4 C200.2,40.4 199.3,39.9 198.7,38.7 C198.1,37.8 197.8,35.5 197.8,32 L197.8,28.9 C197.8,26.3 198,24.3 198.4,22.7 C198.9,21.3 199.9,20.6 201.5,20.6 C202.7,20.6 203.5,21.1 204.1,22.2 C204.7,23.4 205,24.8 205,26.6 L216.6,26.6 C216.5,25.1 216.1,23.3 215.2,21.3 C214.5,19.2 213,17.4 210.7,15.7 Z" id="Path"></path> <path d="M233.1,21.1 L239.9,21.1 L239.9,38.1 C239.9,38.8 239.8,39.4 239.6,39.6 C239.4,39.9 238.9,40.1 237.9,40.1 L237.7,40.1 L237.7,46.6 L253.8,46.6 L253.8,40.1 L252.7,40.1 C252.1,40.1 251.5,40 251.2,39.7 C250.9,39.4 250.8,38.9 250.8,38.1 L250.8,22.3 C250.8,21.7 250.9,21.2 251.1,20.8 C251.4,20.5 251.9,20.3 252.7,20.3 L253.8,20.3 L253.8,13.8 L219,13.8 L219,20.3 L220.2,20.3 C221,20.3 221.6,20.5 221.8,20.9 C222.1,21.3 222.2,21.7 222.2,22.3 L222.2,38.1 C222.2,38.8 222.1,39.4 221.8,39.6 C221.6,39.9 221.1,40.1 220.2,40.1 L219.1,40.1 L219.1,46.6 L235.2,46.6 L235.2,40.1 L235,40.1 C234.5,40.1 234.1,40 233.6,39.7 C233.3,39.4 233.1,38.9 233.1,38.1 L233.1,21.1 Z" id="Path"></path> <path d="M278.6,14.6 C276.4,13.7 274.1,13.2 271.6,13.2 C268.5,13.2 266,13.7 263.8,14.9 C261.6,16.1 259.9,17.4 258.7,19.1 C257.5,20.5 256.7,22.2 256.1,24.3 C255.5,26.4 255.2,28.4 255.2,30.3 C255.2,34.7 256.3,38.5 258.5,41.6 C259.9,43.3 261.7,44.7 264.1,45.8 C266.6,46.8 269.2,47.3 271.7,47.3 C274.2,47.3 276.8,46.8 279.2,45.8 C281.5,44.8 283.4,43.4 284.8,41.6 C287,38.6 288.2,34.8 288.2,30.3 C288.2,29.5 288,28.1 287.7,26.3 C287.5,25.1 287.1,23.9 286.5,22.4 C285.9,21 285.2,20 284.5,19.1 C282.8,17.1 280.8,15.5 278.6,14.6 Z M271.7,20.4 C273.3,20.4 274.2,21.2 274.8,22.8 C275.2,24.3 275.4,26.3 275.4,28.9 L275.4,31.8 C275.4,35.2 275.1,37.5 274.3,38.7 C273.7,39.7 272.8,40.2 271.7,40.2 C270.5,40.2 269.6,39.7 268.9,38.7 C268.3,37.5 268,35.3 268,31.8 L268,28.9 C268,26.2 268.2,24.2 268.7,22.8 C269,21.2 270.1,20.4 271.7,20.4 Z" id="Shape" fill-rule="nonzero"></path> <path d="M322.1,20.8 C322.4,20.5 322.9,20.4 323.6,20.4 L324.7,20.4 L324.7,13.9 L308.7,13.9 L308.7,20.4 L308.9,20.4 C309.7,20.4 310.3,20.6 310.5,20.9 C310.7,21.4 310.8,21.8 310.8,22.4 L310.8,26.4 L303.7,26.4 L303.7,22.4 C303.7,21.6 303.9,21 304.2,20.8 C304.5,20.5 305,20.4 305.7,20.4 L305.9,20.4 L305.9,13.9 L289.8,13.9 L289.8,20.4 L290.9,20.4 C291.7,20.4 292.3,20.6 292.5,20.9 C292.7,21.2 292.8,21.6 292.8,22.4 L292.8,38.2 C292.8,39 292.7,39.6 292.4,39.8 C292.1,40.1 291.7,40.2 290.9,40.2 L289.8,40.2 L289.8,46.7 L305.9,46.7 L305.9,40.2 L305.7,40.2 C305.1,40.2 304.5,40.1 304.2,39.8 C303.9,39.5 303.7,39 303.7,38.2 L303.7,33.7 L310.8,33.7 L310.8,38.2 C310.8,38.9 310.7,39.5 310.5,39.7 C310.3,40 309.8,40.2 308.9,40.2 L308.7,40.2 L308.7,46.7 L324.7,46.7 L324.7,40.2 L323.6,40.2 C323,40.2 322.4,40.1 322.1,39.8 C321.8,39.5 321.6,39 321.6,38.2 L321.6,22.4 C321.6,21.6 321.8,21 322.1,20.8 Z" id="Path"></path> <path d="M364.7,20.4 L364.7,13.9 L331.6,13.9 L331.6,20.4 L334.2,20.4 C334.7,20.4 335.3,20.6 335.6,20.9 C335.9,21.2 336.1,21.5 336.1,22.2 C336,24.8 335.7,27.5 335,30.3 C334.5,32.7 333.7,34.9 332.6,36.7 C331.9,37.7 331.2,38.4 330.6,38.9 C329.9,39.4 329,39.5 327.9,39.5 L327.9,55 L334.3,55 L335.5,49.2 C335.7,48.2 336,47.5 336.4,47.1 C336.8,46.8 337.5,46.6 338.2,46.6 L355.2,46.6 C356.1,46.6 356.7,46.8 357,47.1 C357.4,47.5 357.7,48.4 358.1,49.7 L359.3,54.9 L365.6,54.9 L365.6,39.3 L363.6,39.3 C362.9,39.3 362.4,39.2 362.1,38.9 C361.8,38.7 361.7,38.2 361.7,37.4 L361.7,22.3 C361.7,21.5 361.8,20.9 362.1,20.7 C362.5,20.4 363,20.3 363.6,20.3 L364.7,20.3 L364.7,20.4 Z M344.4,27.6 C344.7,25.3 344.9,23.2 345,21.2 L350.7,21.2 L350.7,39.5 L341.2,39.5 L342.5,36.8 L343.2,34.2 L344.4,27.6 Z" id="Shape" fill-rule="nonzero"></path> <path d="M391.6,15.6 C389.4,14.1 386.6,13.2 383.6,13.2 C381.2,13.2 378.9,13.7 376.6,14.6 C374.4,15.5 372.5,17 370.8,19.3 C369.9,20.5 368.9,22.2 368.2,24.5 C367.5,26.4 367.1,28.5 367.1,30.6 C367.1,35 368.3,38.7 370.5,41.7 C372.4,44.1 374.5,45.6 376.8,46.3 C379.6,47 381.7,47.4 383.2,47.4 C387.5,47.4 391,46.3 393.4,44.2 C395.8,42.1 397.4,39.6 398.2,36.7 L387.9,36.7 C387.6,39.1 386.2,40.2 383.8,40.2 C382.9,40.2 382,40 381.3,39.6 C380.7,39.1 380.2,38.5 380,37.7 C379.7,37.1 379.6,35.9 379.6,34.3 L379.6,32.7 L398.6,32.7 C398.6,28.8 398,25.4 396.7,22.5 C395.6,19.3 394,17.1 391.6,15.6 Z M383.9,20.4 C385.1,20.4 386.1,20.9 386.8,21.8 C387.5,22.6 388,24.1 388,26.2 L379.7,26.2 C379.7,24.4 380.1,23 381,22 C381.8,21 382.8,20.4 383.9,20.4 Z" id="Shape" fill-rule="nonzero"></path> <path d="M421.1,20.9 C421.4,21.4 421.5,21.8 421.5,22.4 L421.5,26.4 L414.3,26.4 L414.3,22.4 C414.3,21.6 414.5,21 414.9,20.8 C415.2,20.5 415.7,20.4 416.3,20.4 L416.6,20.4 L416.6,13.9 L400.4,13.9 L400.4,20.4 L401.6,20.4 C402.4,20.4 403,20.6 403.2,20.9 C403.4,21.2 403.5,21.6 403.5,22.4 L403.5,38.2 C403.5,39 403.4,39.6 403.1,39.8 C402.8,40.1 402.3,40.2 401.6,40.2 L400.4,40.2 L400.4,46.7 L416.6,46.7 L416.6,40.2 L416.3,40.2 C415.7,40.2 415.1,40.1 414.8,39.8 C414.5,39.5 414.3,39 414.3,38.2 L414.3,33.7 L421.5,33.7 L421.5,38.2 C421.5,38.9 421.4,39.5 421.1,39.7 C420.9,40 420.4,40.2 419.5,40.2 L419.3,40.2 L419.3,46.7 L435.4,46.7 L435.4,40.2 L434.2,40.2 C433.7,40.2 433.1,40.1 432.7,39.8 C432.4,39.5 432.3,39 432.3,38.2 L432.3,22.4 C432.3,21.6 432.4,21 432.7,20.8 C433,20.5 433.4,20.4 434.2,20.4 L435.4,20.4 L435.4,13.9 L419.3,13.9 L419.3,20.4 L419.5,20.4 C420.4,20.4 420.9,20.6 421.1,20.9 Z" id="Path"></path> <path d="M449,10.8 L450.4,10.8 L450.4,35.9 C450.4,37 450.2,37.7 449.8,38.1 C449.5,38.4 449,38.5 448.1,38.5 L445.7,38.5 L445.7,46.8 L468.1,46.8 L468.1,38.5 L465.7,38.5 C465,38.5 464.4,38.4 464.1,38.1 C463.8,37.8 463.6,37.1 463.6,35.9 L463.6,10.8 L464.9,10.8 C466.4,10.8 467.2,10.9 467.5,11.2 C467.9,11.5 468.1,12.1 468.2,13 L468.9,16.8 L476.3,16.8 L476.3,1.7 L437.4,1.7 L437.4,16.8 L444.8,16.8 C445,15.3 445.3,13.9 445.6,12.5 C445.8,11.7 446.1,11.2 446.7,11 C447,10.9 447.8,10.8 449,10.8 Z" id="Path"></path> <g id="Group" transform="translate(474.000000, 25.000000)"> <path d="M52.9,5.4 L54.9,5.4 L54.4,9.1 L52.4,9.1 L51.5,15.4 C51.2,17.2 51.1,17.8 53.1,18.1 L52.6,21.8 L49.5,22 C48.1,22.1 46.5,21.9 45.6,20.9 C44.6,19.8 44.9,18.2 45.2,16.8 L46.3,9.2 L45.5,9.2 L46,5.5 L46.8,5.5 L47.3,2.3 L53.7,0.6 L52.9,5.4 Z" id="Path"></path> <path d="M28.7,11.3 C29.2,6.8 31,5 36.8,5 C42.8,5 44,7 43.3,11 L42.7,14.9 L34.3,14.9 L34.1,16.4 C34,17.2 33.9,18.3 35,18.3 C36.1,18.3 36.3,17.3 36.4,16.5 L36.5,15.9 L42.6,15.9 L42,20 C40.5,21.2 37.8,21.9 35.3,22.1 C32.8,22.3 30.3,21.9 29.1,20.9 C27.6,19.6 27.8,17.8 28,15.8 L28.7,11.3 Z M37.4,10.5 C37.5,9.8 37.5,8.8 36.4,8.8 C35.3,8.8 35.1,9.8 35,10.5 L34.9,11.1 L37.3,11.1 L37.4,10.5 Z" id="Shape" fill-rule="nonzero"></path> <path d="M17.8,6.4 C19.6,5.3 21.1,5 22.4,5 C23.7,5.1 24.7,5.5 25.3,6.1 C26.3,7.2 26.2,8.4 26,9.8 L25.1,15.9 C25,16.7 24.8,17.6 25.5,18.1 L25,21.8 L18.5,21.8 C18.4,20.1 18.7,18.4 18.9,16.7 L19.6,11.9 C19.6,11.8 19.8,11 19.6,10.4 C19.3,9.8 18.7,9.3 17.6,9.8 L16.7,15.9 C16.6,16.7 16.4,17.6 17.1,18.1 L16.6,21.8 L9,21.8 L9.5,18.1 C10.4,17.6 10.4,16.9 10.6,16 L11.3,11 C11.4,10.1 11.5,9.5 10.8,9 L11.3,5.3 L17.9,5.3 L17.8,6.4 Z" id="Path"></path> <path d="M0.3,19.2 C0.6,17.5 2.1,16.2 3.7,16.2 C5.4,16.2 6.5,17.5 6.3,19.2 C6,20.9 4.5,22.2 2.9,22.2 C1.3,22.2 0.1,20.9 0.3,19.2 Z" id="Path"></path> </g> </g> </g> </svg> 