<?xml version="1.0" encoding="UTF-8"?> <svg xmlns="http://www.w3.org/2000/svg" xmlns:xlink="http://www.w3.org/1999/xlink" width="305px" height="80px" viewBox="0 0 305 80"> <!-- Generator: Sketch 52.6 (67491) - http://www.bohemiancoding.com/sketch --> <title>FRENCH PANACHE POUR</title> <desc>Created with Sketch.</desc> <g id="Page-1" stroke="none" stroke-width="1" fill="none" fill-rule="evenodd" fill-opacity="0"> <path d="M0.522460938,35 L0.522460938,0.977539062 L15.2265625,0.977539062 L15.2265625,6.06347656 L8.02832031,6.06347656 L8.02832031,14.6357422 L14.3037109,14.6357422 L14.3037109,19.8857422 L8.02832031,19.8857422 L8.02832031,35 L0.522460938,35 Z M18.7333984,35 L18.7333984,0.977539062 L28.1054688,0.977539062 C31.8242373,0.977539062 34.6337796,1.63720043 36.5341797,2.95654297 C38.4345798,4.2758855 39.3847656,6.61033481 39.3847656,9.95996094 C39.3847656,12.2295035 39.0908233,14.0375909 38.5029297,15.3842773 C37.9150361,16.7309638 36.8281329,17.7802697 35.2421875,18.5322266 L39.8974609,35 L32.125,35 L28.3925781,19.7626953 L26.2392578,19.7626953 L26.2392578,35 L18.7333984,35 Z M26.2392578,15.4355469 L28.3515625,15.4355469 C29.8691482,15.4355469 30.9287079,15.0356485 31.5302734,14.2358398 C32.1318389,13.4360312 32.4326172,12.2363361 32.4326172,10.6367188 C32.4326172,9.09178915 32.1523466,7.93652727 31.5917969,7.17089844 C31.0312472,6.40526961 30.0605538,6.02246094 28.6796875,6.02246094 L26.2392578,6.02246094 L26.2392578,15.4355469 Z M43.9169922,35 L43.9169922,0.977539062 L59.1953125,0.977539062 L59.1953125,6.10449219 L51.4228516,6.10449219 L51.4228516,14.5537109 L57.3496094,14.5537109 L57.3496094,19.7626953 L51.4228516,19.7626953 L51.4228516,29.9140625 L59.2773438,29.9140625 L59.2773438,35 L43.9169922,35 Z M62.6816406,35 L62.6816406,0.977539062 L67.9726562,0.977539062 L74.9453125,17.3632812 L74.9453125,0.977539062 L81.1591797,0.977539062 L81.1591797,35 L76.0732422,35 L69.1005859,17.3632812 L69.1005859,35 L62.6816406,35 Z M85.7529297,24.171875 L85.7529297,11.9082031 C85.7529297,8.16209064 86.5253829,5.32862289 88.0703125,3.40771484 C89.6152421,1.4868068 92.2470517,0.526367188 95.9658203,0.526367188 C99.5205256,0.526367188 102.039543,1.3774329 103.522949,3.07958984 C105.006355,4.78174679 105.748047,7.2050624 105.748047,10.3496094 L105.748047,13.2822266 L98.40625,13.2822266 L98.40625,9.87792969 C98.40625,8.56542313 98.2661147,7.56055036 97.9858398,6.86328125 C97.705565,6.16601214 97.0322319,5.81738281 95.9658203,5.81738281 C94.8994087,5.81738281 94.1987321,6.18651975 93.8637695,6.92480469 C93.5288069,7.66308963 93.3613281,8.68847 93.3613281,10.0009766 L93.3613281,26.0175781 C93.3613281,27.3574286 93.5356428,28.3828089 93.8842773,29.09375 C94.2329119,29.8046911 94.9267526,30.1601562 95.9658203,30.1601562 C97.004888,30.1601562 97.6713852,29.8046911 97.965332,29.09375 C98.2592788,28.3828089 98.40625,27.3574286 98.40625,26.0175781 L98.40625,22.4492188 L105.748047,22.4492188 L105.748047,25.3818359 C105.748047,28.5673987 105.006355,31.0522372 103.522949,32.8364258 C102.039543,34.6206144 99.5205256,35.5126953 95.9658203,35.5126953 C92.2743956,35.5126953 89.6494219,34.538584 88.0908203,32.590332 C86.5322188,30.6420801 85.7529297,27.8359558 85.7529297,24.171875 Z M109.993164,35 L109.993164,0.977539062 L117.519531,0.977539062 L117.519531,14.7587891 L122.769531,14.7587891 L122.769531,0.977539062 L130.316406,0.977539062 L130.316406,35 L122.769531,35 L122.769531,20.1318359 L117.519531,20.1318359 L117.519531,35 L109.993164,35 Z M146.230469,35 L146.230469,0.977539062 L157.65332,0.977539062 C160.647476,0.977539062 162.886223,1.82518684 164.369629,3.52050781 C165.853035,5.21582879 166.594727,7.65623407 166.594727,10.8417969 C166.594727,14.4785338 165.733407,17.0043875 164.010742,18.4194336 C162.288077,19.8344797 159.875016,20.5419922 156.771484,20.5419922 L153.736328,20.5419922 L153.736328,35 L146.230469,35 Z M153.736328,15.2919922 L156.258789,15.2919922 C157.571296,15.2919922 158.446287,14.9433629 158.883789,14.2460938 C159.321291,13.5488246 159.540039,12.3730551 159.540039,10.71875 C159.540039,9.20116429 159.331545,8.08008175 158.914551,7.35546875 C158.497557,6.63085575 157.59864,6.26855469 156.217773,6.26855469 L153.736328,6.26855469 L153.736328,15.2919922 Z M168.563477,35 L174.982422,0.977539062 L183.554688,0.977539062 L189.891602,35 L182.959961,35 L181.832031,27.8222656 L176.828125,27.8222656 L175.65918,35 L168.563477,35 Z M177.504883,23.3310547 L181.114258,23.3310547 L179.30957,10.0419922 L177.504883,23.3310547 Z M193.336914,35 L193.336914,0.977539062 L198.62793,0.977539062 L205.600586,17.3632812 L205.600586,0.977539062 L211.814453,0.977539062 L211.814453,35 L206.728516,35 L199.755859,17.3632812 L199.755859,35 L193.336914,35 Z M215.239258,35 L221.658203,0.977539062 L230.230469,0.977539062 L236.567383,35 L229.635742,35 L228.507812,27.8222656 L223.503906,27.8222656 L222.334961,35 L215.239258,35 Z M224.180664,23.3310547 L227.790039,23.3310547 L225.985352,10.0419922 L224.180664,23.3310547 Z M239.541016,24.171875 L239.541016,11.9082031 C239.541016,8.16209064 240.313469,5.32862289 241.858398,3.40771484 C243.403328,1.4868068 246.035138,0.526367188 249.753906,0.526367188 C253.308612,0.526367188 255.827629,1.3774329 257.311035,3.07958984 C258.794441,4.78174679 259.536133,7.2050624 259.536133,10.3496094 L259.536133,13.2822266 L252.194336,13.2822266 L252.194336,9.87792969 C252.194336,8.56542313 252.054201,7.56055036 251.773926,6.86328125 C251.493651,6.16601214 250.820318,5.81738281 249.753906,5.81738281 C248.687495,5.81738281 247.986818,6.18651975 247.651855,6.92480469 C247.316893,7.66308963 247.149414,8.68847 247.149414,10.0009766 L247.149414,26.0175781 C247.149414,27.3574286 247.323729,28.3828089 247.672363,29.09375 C248.020998,29.8046911 248.714839,30.1601562 249.753906,30.1601562 C250.792974,30.1601562 251.459471,29.8046911 251.753418,29.09375 C252.047365,28.3828089 252.194336,27.3574286 252.194336,26.0175781 L252.194336,22.4492188 L259.536133,22.4492188 L259.536133,25.3818359 C259.536133,28.5673987 258.794441,31.0522372 257.311035,32.8364258 C255.827629,34.6206144 253.308612,35.5126953 249.753906,35.5126953 C246.062482,35.5126953 243.437508,34.538584 241.878906,32.590332 C240.320305,30.6420801 239.541016,27.8359558 239.541016,24.171875 Z M263.78125,35 L263.78125,0.977539062 L271.307617,0.977539062 L271.307617,14.7587891 L276.557617,14.7587891 L276.557617,0.977539062 L284.104492,0.977539062 L284.104492,35 L276.557617,35 L276.557617,20.1318359 L271.307617,20.1318359 L271.307617,35 L263.78125,35 Z M289.272461,35 L289.272461,0.977539062 L304.550781,0.977539062 L304.550781,6.10449219 L296.77832,6.10449219 L296.77832,14.5537109 L302.705078,14.5537109 L302.705078,19.7626953 L296.77832,19.7626953 L296.77832,29.9140625 L304.632812,29.9140625 L304.632812,35 L289.272461,35 Z M0.522460938,79 L0.522460938,44.9775391 L11.9453125,44.9775391 C14.9394681,44.9775391 17.1782152,45.8251868 18.6616211,47.5205078 C20.1450269,49.2158288 20.8867188,51.6562341 20.8867188,54.8417969 C20.8867188,58.4785338 20.0253992,61.0043875 18.3027344,62.4194336 C16.5800695,63.8344797 14.1670077,64.5419922 11.0634766,64.5419922 L8.02832031,64.5419922 L8.02832031,79 L0.522460938,79 Z M8.02832031,59.2919922 L10.5507812,59.2919922 C11.8632878,59.2919922 12.7382791,58.9433629 13.1757812,58.2460938 C13.6132834,57.5488246 13.8320312,56.3730551 13.8320312,54.71875 C13.8320312,53.2011643 13.6235372,52.0800817 13.206543,51.3554688 C12.7895487,50.6308558 11.8906319,50.2685547 10.5097656,50.2685547 L8.02832031,50.2685547 L8.02832031,59.2919922 Z M24.0244141,68.2949219 L24.0244141,55.6416016 C24.0244141,51.9501769 24.810539,49.174814 26.3828125,47.3154297 C27.955086,45.4560454 30.5732239,44.5263672 34.2373047,44.5263672 C37.9287294,44.5263672 40.5673749,45.4628813 42.1533203,47.3359375 C43.7392657,49.2089937 44.5322266,51.9775207 44.5322266,55.6416016 L44.5322266,68.2949219 C44.5322266,71.9863466 43.7392657,74.7787991 42.1533203,76.6723633 C40.5673749,78.5659274 37.9287294,79.5126953 34.2373047,79.5126953 C30.5732239,79.5126953 27.955086,78.5659274 26.3828125,76.6723633 C24.810539,74.7787991 24.0244141,71.9863466 24.0244141,68.2949219 Z M31.7148438,70.1816406 C31.7148438,71.4121155 31.8686508,72.3828089 32.1762695,73.09375 C32.4838883,73.8046911 33.1708931,74.1601562 34.2373047,74.1601562 C35.3037163,74.1601562 36.0043929,73.8046911 36.3393555,73.09375 C36.6743181,72.3828089 36.8417969,71.4121155 36.8417969,70.1816406 L36.8417969,53.7958984 C36.8417969,52.5380796 36.6743181,51.5605504 36.3393555,50.8632812 C36.0043929,50.1660121 35.3037163,49.8173828 34.2373047,49.8173828 C33.2255809,49.8173828 32.5522478,50.172848 32.2172852,50.8837891 C31.8823225,51.5947301 31.7148438,52.5654235 31.7148438,53.7958984 L31.7148438,70.1816406 Z M48.859375,68.4589844 L48.859375,44.9775391 L56.2832031,44.9775391 L56.2832031,69.5869141 C56.2832031,70.9541084 56.4575178,72.0444295 56.8061523,72.8579102 C57.1547869,73.6713908 57.8622994,74.078125 58.9287109,74.078125 C59.9951225,74.078125 60.6957991,73.6748087 61.0307617,72.8681641 C61.3657243,72.0615194 61.5332031,70.9677803 61.5332031,69.5869141 L61.5332031,44.9775391 L69.0185547,44.9775391 L69.0185547,68.4589844 C69.0185547,70.9472781 68.7109406,72.9980388 68.0957031,74.6113281 C67.4804657,76.2246174 66.4345777,77.4448201 64.9580078,78.2719727 C63.4814379,79.0991252 61.4716924,79.5126953 58.9287109,79.5126953 C56.3857295,79.5126953 54.372566,79.0991252 52.8891602,78.2719727 C51.4057543,77.4448201 50.3632843,76.2246174 49.7617188,74.6113281 C49.1601532,72.9980388 48.859375,70.9472781 48.859375,68.4589844 Z M73.796875,79 L73.796875,44.9775391 L83.1689453,44.9775391 C86.8877139,44.9775391 89.6972561,45.6372004 91.5976562,46.956543 C93.4980564,48.2758855 94.4482422,50.6103348 94.4482422,53.9599609 C94.4482422,56.2295035 94.1542998,58.0375909 93.5664062,59.3842773 C92.9785127,60.7309638 91.8916095,61.7802697 90.3056641,62.5322266 L94.9609375,79 L87.1884766,79 L83.4560547,63.7626953 L81.3027344,63.7626953 L81.3027344,79 L73.796875,79 Z M81.3027344,59.4355469 L83.4150391,59.4355469 C84.9326248,59.4355469 85.9921845,59.0356485 86.59375,58.2358398 C87.1953155,57.4360312 87.4960938,56.2363361 87.4960938,54.6367188 C87.4960938,53.0917892 87.2158231,51.9365273 86.6552734,51.1708984 C86.0947238,50.4052696 85.1240303,50.0224609 83.7431641,50.0224609 L81.3027344,50.0224609 L81.3027344,59.4355469 Z M109.726562,79 L109.726562,44.9775391 L125.004883,44.9775391 L125.004883,50.1044922 L117.232422,50.1044922 L117.232422,58.5537109 L123.15918,58.5537109 L123.15918,63.7626953 L117.232422,63.7626953 L117.232422,73.9140625 L125.086914,73.9140625 L125.086914,79 L109.726562,79 Z M128.491211,79 L128.491211,44.9775391 L135.99707,44.9775391 L135.99707,73.9140625 L143.810547,73.9140625 L143.810547,79 L128.491211,79 Z M147.091797,79 L147.091797,44.9775391 L154.597656,44.9775391 L154.597656,73.9140625 L162.411133,73.9140625 L162.411133,79 L147.091797,79 Z M165.692383,79 L165.692383,44.9775391 L180.970703,44.9775391 L180.970703,50.1044922 L173.198242,50.1044922 L173.198242,58.5537109 L179.125,58.5537109 L179.125,63.7626953 L173.198242,63.7626953 L173.198242,73.9140625 L181.052734,73.9140625 L181.052734,79 L165.692383,79 Z" id="FRENCH-PANACHE-POUR" stroke="#281E74" stroke-width="0.5" fill="#281E74"></path> </g> </svg> 