<?xml version="1.0" encoding="UTF-8"?> <svg xmlns="http://www.w3.org/2000/svg" xmlns:xlink="http://www.w3.org/1999/xlink" width="168px" height="127px" viewBox="0 0 168 127"> <!-- Generator: Sketch 52.6 (67491) - http://www.bohemiancoding.com/sketch --> <title>Group 10</title> <desc>Created with Sketch.</desc> <g id="Page-1" stroke="none" stroke-width="1" fill="none" fill-rule="evenodd"> <g id="Group-10" transform="translate(84.961262, 65.724363) rotate(-16.000000) translate(-84.961262, -65.724363) translate(-14.038738, 19.724363)" fill="#FF1400"> <path d="M6.33996367,32.5667994 L4.71785607,30.0431578 C7.34100686,28.3570892 9.97251072,26.8269761 12.611417,25.4501768 L13.9990981,28.1099401 C11.4408835,29.4446401 8.88756075,30.9292941 6.33996367,32.5667994 Z M19.3293207,25.5480918 L18.1215206,22.8019639 C20.9729764,21.5478385 23.8293969,20.4706605 26.6892807,19.5666833 L27.5934533,22.4271853 C24.8371176,23.2984322 22.0820359,24.3373945 19.3293207,25.5480918 Z M33.2873062,20.8651227 L32.6069753,17.9432826 C35.6267781,17.2401417 38.6446729,16.7279918 41.6584382,16.4015717 L41.9814781,19.3841286 C39.087701,19.6975528 36.1891238,20.1894539 33.2873062,20.8651227 Z M47.8349411,18.9919333 L47.7574163,15.9929351 C50.8299811,15.9135086 53.889891,16.0247728 56.934188,16.3197341 L56.6448735,19.305751 C53.721521,19.022508 50.784085,18.9156972 47.8349411,18.9919333 Z M62.4971191,20.1102176 L63.0229364,17.1566577 C66.025358,17.6911739 69.0010074,18.4011889 71.9459759,19.2778507 L71.0900509,22.1531581 C68.2521774,21.3083764 65.386627,20.6246319 62.4971191,20.1102176 Z M76.6669868,24.0324143 L77.7240072,21.2247983 C80.5673443,22.2952671 83.3654365,23.5157 86.11234,24.8744789 L84.7822024,27.5634813 C82.1229533,26.2480614 79.4158589,25.0673187 76.6669868,24.0324143 Z M89.996227,30.3487851 L91.4904473,27.7473805 C94.1396803,29.2690729 96.7133225,30.9075509 99.1993386,32.6438803 L97.48153,35.1033789 C95.0668085,33.4168444 92.5676275,31.8257713 89.996227,30.3487851 Z M102.261818,38.6521674 L104.118984,36.2961249 C106.591312,38.2449539 108.911231,40.2527535 111.03621,42.2640602 L108.973966,44.4428554 C106.914161,42.4932363 104.662617,40.5446123 102.261818,38.6521674 Z M113.085554,48.6163629 L115.302506,46.5951947 C115.462916,46.7711428 115.620546,46.9458574 115.775313,47.119224 C117.33603,48.867564 119.323526,50.7920222 121.60957,52.7598806 L119.652388,55.0335209 C117.271542,52.9840548 115.190698,50.9692092 113.537322,49.1170724 C113.38956,48.9515519 113.238938,48.7846051 113.085554,48.6163629 Z M124.397876,58.8567937 L126.207184,56.4638025 C128.529294,58.2195175 130.984559,59.9171547 133.507485,61.5035059 L131.910601,64.0431833 C129.314278,62.4106819 126.788183,60.6640709 124.397876,58.8567937 Z M137.170298,67.1367566 L138.61174,64.5057405 C141.272423,65.9634355 143.937949,67.2563911 146.570723,68.3574166 L145.413262,71.1251385 C142.680598,69.9823389 139.920721,68.6436171 137.170298,67.1367566 Z M151.168655,73.2495858 L152.078227,70.3907958 C155.02407,71.3280643 157.871439,71.9820253 160.589661,72.3326273 L160.205893,75.3079798 C157.301106,74.9333142 154.279315,74.2392934 151.168655,73.2495858 Z M166.467721,75.6040603 L166.342807,72.606662 C169.348328,72.4814093 172.118182,71.9025573 174.629927,70.8518066 L175.787706,73.6193954 C172.935092,74.8127432 169.816339,75.4645093 166.467721,75.6040603 Z M181.318209,70.3478969 L179.449814,68.0007497 C181.545438,66.3325739 183.390136,64.199817 184.968679,61.5784401 L187.538682,63.1260468 C185.779356,66.0476365 183.699363,68.4524314 181.318209,70.3478969 Z" id="Path-9-Copy" fill-rule="nonzero" transform="translate(96.128269, 45.786060) scale(-1, 1) rotate(10.000000) translate(-96.128269, -45.786060) "></path> <polygon id="Path" fill-rule="nonzero" transform="translate(185.500000, 15.985222) rotate(-70.000000) translate(-185.500000, -15.985222) " points="185.5 15.8571429 193.931034 7.82758621 198.068966 12.1724138 185.5 24.1428571 172.931034 12.1724138 177.068966 7.82758621"></polygon> <circle id="Oval" cx="7.87124868" cy="73.9737981" r="4.5"></circle> </g> </g> </svg> 