<?xml version="1.0" encoding="UTF-8"?> <svg xmlns="http://www.w3.org/2000/svg" xmlns:xlink="http://www.w3.org/1999/xlink" width="324px" height="273px" viewBox="0 0 324 273"> <!-- Generator: Sketch 52.6 (67491) - http://www.bohemiancoding.com/sketch --> <title>Group 8</title> <desc>Created with Sketch.</desc> <g id="Page-1" stroke="none" stroke-width="1" fill="none" fill-rule="evenodd"> <g id="Group-8" fill="#FF1400"> <polygon id="Path" fill-rule="nonzero" transform="translate(153.000000, 264.485222) rotate(-9.000000) translate(-153.000000, -264.485222) " points="161.431034 256.327586 165.568966 260.672414 153 272.642857 140.431034 260.672414 144.568966 256.327586 153 264.357143"></polygon> <circle id="Oval" cx="9.5" cy="81.5" r="9.5"></circle> <path d="M13.3859876,89.6975175 L16.0124499,88.247795 C16.9181266,89.8886094 17.9623531,91.5189569 19.1428953,93.137039 L16.7193653,94.9052308 C15.4658816,93.1871731 14.3537219,91.4507618 13.3859876,89.6975175 Z M19.2694649,98.1461022 L21.5611744,96.2101095 C22.7832507,97.6567285 24.1144531,99.0912853 25.5525082,100.512242 L23.4439118,102.646211 C21.9429986,101.163143 20.5506695,99.6627136 19.2694649,98.1461022 Z M26.4138837,105.432322 L28.411269,103.193918 C29.8361347,104.465363 31.3466278,105.723994 32.940629,106.968599 L31.0943496,109.333182 C29.4494127,108.048806 27.8885314,106.748188 26.4138837,105.432322 Z M34.3568354,111.780031 L36.1115288,109.34671 C37.6731022,110.472777 39.303096,111.58572 40.9995548,112.68456 L39.3686175,115.202504 C37.6307652,114.076853 35.9595181,112.935743 34.3568354,111.780031 Z M42.7888946,117.345908 L44.3448641,114.78096 C46.0043524,115.787652 47.7196552,116.781059 49.4889428,117.760362 L48.0361361,120.385119 C46.2324614,119.386783 44.4827735,118.373463 42.7888946,117.345908 Z M51.6144524,122.309134 L53.0036868,119.650181 C54.7329211,120.553662 56.5080958,121.443797 58.3274863,122.319889 L57.0259316,125.022842 C55.1773585,124.132697 53.3729599,123.227909 51.6144524,122.309134 Z M60.6746698,126.734624 L61.9219306,124.006192 C63.7032296,124.820486 65.5226666,125.621381 67.3785989,126.408273 L66.2075456,129.170272 C64.3262626,128.372631 62.4814249,127.560555 60.6746698,126.734624 Z M69.9147732,130.704379 L71.0382807,127.922702 C72.856866,128.65722 74.7071374,129.37831 76.5875239,130.085444 L75.5315506,132.893454 C73.6286996,132.177872 71.7559179,131.44801 69.9147732,130.704379 Z M79.3076058,134.280576 L80.3207998,131.456848 C82.1763826,132.122658 84.0584953,132.774859 85.9656055,133.412981 L85.0136765,136.257947 C83.0861829,135.613005 81.1836491,134.953727 79.3076058,134.280576 Z M88.8385227,137.508473 L89.751354,134.650722 C91.6322051,135.251509 93.5349859,135.838556 95.4582089,136.411445 L94.6017596,139.286597 C92.659771,138.708118 90.7381964,138.115272 88.8385227,137.508473 Z M98.4503298,140.406608 L99.2705938,137.520925 C101.171635,138.061301 103.090569,138.587777 105.025949,139.09998 L104.258416,142.000134 C102.305478,141.483284 100.368967,140.951986 98.4503298,140.406608 Z M108.164308,143.009054 L108.897472,140.100021 C110.819342,140.58439 112.755547,141.054598 114.704666,141.510314 L114.021668,144.431532 C112.055837,143.971909 110.10291,143.49764 108.164308,143.009054 Z M117.947818,145.326203 L118.597969,142.397499 C120.536774,142.8279 122.486631,143.243855 124.446144,143.64507 L123.844372,146.584095 C121.868734,146.179579 119.90275,145.760184 117.947818,145.326203 Z M127.774421,147.366685 L128.344464,144.421341 C130.296222,144.799085 132.255957,145.162082 134.2223,145.510072 L133.699503,148.464168 C131.717404,148.11339 129.74192,147.747475 127.774421,147.366685 Z M137.670031,149.145123 L138.161457,146.185647 C140.125835,146.511835 142.095278,146.822905 144.068439,147.118629 L143.623786,150.085493 C141.635019,149.78743 139.649984,149.473898 137.670031,149.145123 Z M147.618481,150.662677 L148.031834,147.69129 C150.007156,147.966079 151.984724,148.225326 153.963211,148.468834 L153.596743,151.446367 C151.602604,151.200932 149.609407,150.939636 147.618481,150.662677 Z M157.55775,151.912866 L157.893035,148.931661 C159.876406,149.154724 161.859264,149.361787 163.840305,149.552683 L163.552553,152.538851 C161.555636,152.346425 159.556933,152.137707 157.55775,151.912866 Z M167.522624,152.900131 L167.778575,149.91107 C169.768699,150.081483 171.755559,150.235371 173.737868,150.372593 L173.530693,153.365431 C171.532084,153.22708 169.528965,153.071933 167.522624,152.900131 Z M177.548643,153.621274 L177.722659,150.626325 C179.71855,150.742293 181.708371,150.841124 183.690851,150.922705 L183.567502,153.920168 C181.568081,153.83789 179.561371,153.73822 177.548643,153.621274 Z M187.574559,154.062046 L187.663402,151.063361 C189.664289,151.122642 191.656202,151.164071 193.637883,151.187562 L193.602324,154.187351 C191.602819,154.163649 189.593145,154.121851 187.574559,154.062046 Z M197.632465,154.210584 L197.631342,151.210584 C199.63435,151.209834 201.62533,151.190427 203.603036,151.152302 L203.660858,154.151745 C201.664176,154.190236 199.654297,154.209827 197.632465,154.210584 Z M207.679888,154.048133 L207.582887,151.049702 C209.585712,150.98491 211.573244,150.90053 213.544244,150.796528 L213.702323,153.79236 C211.710872,153.897442 209.702982,153.982685 207.679888,154.048133 Z M217.716971,153.552117 L217.516399,150.55883 C219.519774,150.424588 221.504232,150.269605 223.468528,150.093868 L223.735858,153.081933 C221.749201,153.259671 219.742492,153.416392 217.716971,153.552117 Z M227.736631,152.692694 L227.422652,149.70917 C229.421158,149.498852 231.396739,149.26648 233.348144,149.01207 L233.73598,151.986895 C231.759829,152.244531 229.759631,152.479798 227.736631,152.692694 Z M237.743734,151.428782 L237.303617,148.461241 C239.291418,148.166429 241.251768,147.848038 243.183401,147.506112 L243.706315,150.460187 C241.746938,150.807025 239.758992,151.129898 237.743734,151.428782 Z M247.665895,149.718912 L247.084246,146.775838 C249.057821,146.385794 250.998636,145.970288 252.905401,145.529394 L253.581247,148.452275 C251.642925,148.900466 249.670714,149.322694 247.665895,149.718912 Z M257.501262,147.498577 L256.758146,144.592071 C258.706976,144.093807 260.616852,143.567873 262.486448,143.014381 L263.33806,145.890969 C261.432143,146.455214 259.486105,146.991106 257.501262,147.498577 Z M267.20301,144.689861 L266.273272,141.837566 C268.186877,141.213805 270.054017,140.559652 271.873316,139.875264 L272.929597,142.683158 C271.068006,143.383456 269.158686,144.052386 267.20301,144.689861 Z M276.69561,141.196573 L275.548029,138.424741 C277.405918,137.655546 279.208378,136.85277 280.953978,136.01662 L282.249982,138.722239 C280.454946,139.582069 278.603006,140.406882 276.69561,141.196573 Z M285.899189,136.884339 L284.495377,134.233055 C286.269559,133.293654 287.977515,132.31691 289.617762,131.303089 L291.19506,133.854976 C289.497408,134.904279 287.731598,135.914108 285.899189,136.884339 Z M294.618218,131.621834 L292.916522,129.15116 C294.562951,128.01717 296.130849,126.841741 297.61872,125.625184 L299.517694,127.94766 C297.965349,129.216935 296.331625,130.441712 294.618218,131.621834 Z M302.63612,125.236518 L300.598532,123.034647 C302.054878,121.68696 303.41999,120.293859 304.692419,118.855631 L306.939292,120.843484 C305.600007,122.357279 304.165004,123.821706 302.63612,125.236518 Z M309.535852,117.68982 L307.15244,115.867914 C308.344616,114.308313 309.435234,112.70037 310.422943,111.044234 L312.999512,112.580884 C311.952529,114.336407 310.797357,116.039524 309.535852,117.68982 Z M314.966028,108.997365 L312.296113,107.629317 C313.201018,105.863284 314.029632,104.085876 314.782146,102.298694 L317.547043,103.462885 C316.765344,105.319384 315.905033,107.164782 314.966028,108.997365 Z M319.036673,99.6496767 L316.214489,98.6321916 C316.886141,96.7692388 317.475955,94.8981107 317.984262,93.0208664 L320.879985,93.8049499 C320.350316,95.761089 319.735959,97.7100784 319.036673,99.6496767 Z M321.837335,89.8324788 L318.902207,89.2119731 C319.309372,87.2859928 319.631318,85.3564453 319.868594,83.4258969 L322.846188,83.7918603 C322.598413,85.8078374 322.262298,87.8223108 321.837335,89.8324788 Z M323.229895,79.6678159 L320.235877,79.4784656 C320.359736,77.5199916 320.396715,75.5639244 320.347689,73.6133911 L323.346742,73.5380114 C323.397983,75.5767069 323.359335,77.6211031 323.229895,79.6678159 Z M323.126176,69.4873272 L320.136668,69.7380017 C319.973021,67.7863719 319.7232,65.8442888 319.388529,63.9154086 L322.344367,63.4025547 C322.694073,65.4180872 322.955146,67.447644 323.126176,69.4873272 Z M321.520641,59.3634503 L318.599966,60.0487641 C318.153573,58.1463236 317.624278,56.2614777 317.013956,54.3982931 L319.864898,53.4644126 C320.501942,55.4091756 321.054524,57.3769451 321.520641,59.3634503 Z M318.474432,49.5957523 L315.681154,50.6900998 C314.968637,48.8714301 314.178336,47.0789115 313.312744,45.3168599 L316.005392,43.9941194 C316.907575,45.8306558 317.731466,47.6993605 318.474432,49.5957523 Z M314.130359,40.4240484 L311.512834,41.8898465 C310.556856,40.182724 309.529481,38.5104896 308.433831,36.8775242 L310.925038,35.2060308 C312.065428,36.9056777 313.134955,38.6465229 314.130359,40.4240484 Z M308.555973,31.8699905 L306.156758,33.6710371 C304.981242,32.1051051 303.74206,30.5826536 302.442891,29.1079065 L304.693977,27.1248258 C306.044798,28.6582054 307.333401,30.2413749 308.555973,31.8699905 Z M301.900804,24.1158209 L299.755849,26.2132402 C298.385922,24.8122654 296.960834,23.4630078 295.484698,22.1693486 L297.461977,19.9131643 C298.995996,21.2575506 300.477019,22.6597671 301.900804,24.1158209 Z M294.305134,17.2873679 L292.446804,19.6424927 C290.905543,18.4263483 289.317966,17.2697773 287.688478,16.1761896 L289.360256,13.6851744 C291.05369,14.8216772 292.703493,16.0235817 294.305134,17.2873679 Z M285.882749,11.4801764 L284.342727,14.0547311 C282.657205,13.0465017 280.934623,12.1048431 279.179472,11.2325886 L280.514594,8.54605714 C282.339585,9.45302019 284.130513,10.4320409 285.882749,11.4801764 Z M276.801691,6.8209021 L275.609644,9.5739047 C273.80774,8.7936822 271.978061,8.08600342 270.124989,7.45309293 L271.094632,4.61411566 C273.023121,5.27278443 274.926987,6.00915688 276.801691,6.8209021 Z M267.215031,3.40357733 L266.398376,6.29028394 C264.510754,5.75627222 262.604406,5.29945817 260.683434,4.92148367 L261.262615,1.97792303 C263.263685,2.3716578 265.249251,2.84745458 267.215031,3.40357733 Z M257.303002,1.30910374 L256.883438,4.27961991 C254.944185,4.00571455 252.994703,3.81202544 251.038678,3.69968619 L251.210692,0.704621708 C253.249725,0.821728333 255.281792,1.02362255 257.303002,1.30910374 Z M247.139178,0.583841941 L247.133413,3.5838364 C245.177778,3.58007821 243.219608,3.65779317 241.262088,3.81770869 L241.017823,0.827669464 C243.05864,0.660949158 245.100226,0.579923632 247.139178,0.583841941 Z M236.937282,1.27572461 L237.347481,4.24754844 C235.414208,4.51439684 233.484965,4.86189662 231.562402,5.29047881 L230.909657,2.36235239 C232.912473,1.91588001 234.922634,1.55380521 236.937282,1.27572461 Z M226.923022,3.36560509 L227.733594,6.25402559 C225.858624,6.78019475 223.992875,7.38426134 222.138487,8.06645974 L221.102704,5.25093953 C223.031117,4.5415089 224.971993,3.91311871 226.923022,3.36560509 Z M217.295893,6.76392087 L218.474806,9.52257326 C216.686025,10.2870111 214.910249,11.1251805 213.149173,12.0371951 L211.769576,9.37322964 C213.596226,8.42725602 215.438937,7.55749339 217.295893,6.76392087 Z M208.178869,11.3432223 L209.683744,13.938478 C208.001569,14.9138972 206.334902,15.9579086 204.685067,17.0705556 L203.007676,14.5833167 C204.71361,13.4328365 206.437806,12.3527883 208.178869,11.3432223 Z M199.657329,16.9509798 L201.441142,19.3630352 C199.877531,20.5193894 198.330865,21.7387287 196.802173,23.0210579 L194.87416,20.7226316 C196.449573,19.4011108 198.044316,18.1438685 199.657329,16.9509798 Z M191.793599,23.4112538 L193.809494,25.6330022 C192.367939,26.9409918 190.943973,28.3063893 189.538391,29.7291806 L187.404203,27.6208068 C188.848013,26.1593184 190.311414,24.7561088 191.793599,23.4112538 Z M184.590669,30.5696704 L186.79635,32.6031331 C186.271021,33.1729531 185.748475,33.7510257 185.228809,34.3372849 C184.42909,35.2395897 183.644893,36.1481364 182.871538,37.0681777 L180.575063,35.1378414 C181.365264,34.1977569 182.166587,33.2693698 182.983763,32.3473689 C183.516424,31.7464494 184.052072,31.1538818 184.590669,30.5696704 Z M178.025788,38.2598184 L180.376176,40.1241341 C179.149725,41.6703521 177.953897,43.2452422 176.78848,44.8484546 L174.361872,43.0844894 C175.551908,41.4474108 176.773141,39.839061 178.025788,38.2598184 Z M172.017641,46.4051504 L174.492075,48.1013755 C173.377125,49.7278502 172.292084,51.38168 171.236736,53.0625016 L168.696031,51.4672524 C169.772706,49.752466 170.879835,48.0649693 172.017641,46.4051504 Z M166.595313,54.9126758 L169.176904,56.4408733 C168.170536,58.140935 167.193327,59.8669625 166.245058,61.6185784 L163.606852,60.1903383 C164.573271,58.4051958 165.569349,56.6458424 166.595313,54.9126758 Z M161.721921,63.7783567 L164.394808,65.1405877 C163.499505,66.897298 162.632245,68.678225 161.792812,70.4829821 L159.072655,69.2177764 C159.927187,67.3805554 160.810199,65.5672818 161.721921,63.7783567 Z M157.412129,72.8997046 L160.16097,74.1013181 C159.369881,75.9110327 158.605843,77.7432965 157.86864,79.5977108 L155.080851,78.4894537 C155.830447,76.6038661 156.607462,74.7404801 157.412129,72.8997046 Z M153.638308,82.2360102 L156.449377,83.2838129 C155.760138,85.1329179 155.096779,87.0027344 154.459081,88.8928542 L151.616505,87.9338122 C152.264186,86.0141025 152.938043,84.1146972 153.638308,82.2360102 Z M150.361745,91.7818737 L153.223182,92.6830823 C152.630103,94.5661721 152.061792,96.4681639 151.518029,98.388638 L148.631502,97.5713467 C149.183176,95.6229345 149.759846,93.6929694 150.361745,91.7818737 Z M147.569247,101.462861 L150.470623,102.225761 C149.968219,104.136448 149.489502,106.064233 149.034251,108.008681 L146.113243,107.32479 C146.574645,105.354066 147.059902,103.399945 147.569247,101.462861 Z M145.225203,111.274218 L148.157756,111.906777 C147.74047,113.84132 147.345874,115.791185 146.973743,117.755918 L144.026148,117.197627 C144.402954,115.208215 144.80256,113.233595 145.225203,111.274218 Z M143.309431,121.158025 L146.265699,121.668396 C145.929227,123.617372 145.614393,125.579824 145.320968,127.555277 L142.353525,127.114506 C142.650383,125.11594 142.968939,123.13029 143.309431,121.158025 Z M141.793629,131.091455 L144.767396,131.487325 C144.505995,133.45096 144.265335,135.42627 144.045178,137.41275 L141.063434,137.08229 C141.285997,135.0741 141.529314,133.076987 141.793629,131.091455 Z M140.650205,141.068777 L143.636317,141.357112 C143.445976,143.328365 143.275459,145.309409 143.12452,147.299699 L140.13311,147.072837 C140.285596,145.06215 140.457876,143.060617 140.650205,141.068777 Z M139.854865,151.099754 L142.849039,151.286634 C142.725376,153.267952 142.62078,155.257139 142.534991,157.253597 L139.537757,157.124804 C139.624374,155.109078 139.729988,153.10053 139.854865,151.099754 Z M139.391172,161.119712 L142.389781,161.21106 C142.329311,163.196089 142.287128,165.186906 142.262952,167.18284 L139.263172,167.146506 C139.287569,165.132327 139.33014,163.123173 139.391172,161.119712 Z M139.23853,171.181571 L142.238533,171.181989 C142.238256,173.171178 142.255573,175.163865 142.290178,177.15928 L139.290629,177.211299 C139.255723,175.198496 139.238253,173.18833 139.23853,171.181571 Z M139.383175,181.225242 L142.381937,181.139056 C142.439108,183.12826 142.513173,185.118346 142.603787,187.108401 L139.606892,187.24486 C139.515519,185.238135 139.44083,183.231292 139.383175,181.225242 Z M139.81219,191.264979 L142.807399,191.095504 C142.919997,193.085509 143.048842,195.073279 143.193533,197.057689 L140.201476,197.275852 C140.055608,195.275295 139.925711,193.271297 139.81219,191.264979 Z M140.516378,201.295724 L143.505912,201.04535 C143.672671,203.036504 143.85504,205.021501 144.052529,206.998889 L141.06738,207.297026 C140.868309,205.303795 140.684477,203.302878 140.516378,201.295724 Z M141.487254,211.286831 L144.46907,210.957024 C144.689264,212.947816 144.924349,214.927236 145.173693,216.893299 L142.197533,217.270748 C141.946184,215.288876 141.709212,213.293576 141.487254,211.286831 Z M142.721109,221.229694 L145.693063,220.820441 C145.967162,222.810916 146.255258,224.782551 146.556464,226.732424 L143.591629,227.190415 C143.287923,225.224355 142.997453,223.236475 142.721109,221.229694 Z M144.229236,231.169683 L147.188712,230.678255 C147.519814,232.672214 147.863602,234.635394 148.218667,236.563018 L145.268302,237.106471 C144.910048,235.161539 144.563223,233.181017 144.229236,231.169683 Z M146.01897,241.045559 L148.962355,240.465485 C149.357312,242.469561 149.762449,244.420986 150.175102,246.31071 L147.244167,246.950729 C146.827142,245.040982 146.417857,243.069575 146.01897,241.045559 Z M148.132156,250.874749 L151.05287,250.189597 C151.531168,252.228518 152.012956,254.163137 152.491465,255.971539 L149.591276,256.738938 C149.105413,254.902743 148.616803,252.940734 148.132156,250.874749 Z M150.667776,260.61652 L153.547335,259.775009 C154.200272,262.009286 154.820444,263.906917 155.37183,265.371538 L152.564201,266.428526 C151.983581,264.886251 151.340542,262.918652 150.667776,260.61652 Z" id="Path-2" fill-rule="nonzero"></path> </g> </g> </svg> 