<?xml version="1.0" encoding="UTF-8"?> <svg xmlns="http://www.w3.org/2000/svg" xmlns:xlink="http://www.w3.org/1999/xlink" width="230px" height="51px" viewBox="0 0 230 51"> <!-- Generator: Sketch 52.6 (67491) - http://www.bohemiancoding.com/sketch --> <title>POUR LUI</title> <desc>Created with Sketch.</desc> <g id="Page-1" stroke="none" stroke-width="1" fill="none" fill-rule="evenodd" fill-opacity="0"> <path d="M0.603515625,49.699999 L0.603515625,1.09648341 L16.921875,1.09648341 C21.1992401,1.09648341 24.3974503,2.3074088 26.5166016,4.72929591 C28.6357528,7.15118302 29.6953125,10.6374763 29.6953125,15.1882803 C29.6953125,20.3836188 28.4648561,23.9919811 26.0039062,26.0134756 C23.5429564,28.0349701 20.0957253,29.0457022 15.6621094,29.0457022 L11.3261719,29.0457022 L11.3261719,49.699999 L0.603515625,49.699999 Z M11.3261719,21.5457022 L14.9296875,21.5457022 C16.8046969,21.5457022 18.0546844,21.0476603 18.6796875,20.0515615 C19.3046906,19.0554628 19.6171875,17.3757921 19.6171875,15.012499 C19.6171875,12.8445194 19.3193389,11.242973 18.7236328,10.2078115 C18.1279267,9.17265011 16.8437599,8.65507716 14.8710938,8.65507716 L11.3261719,8.65507716 L11.3261719,21.5457022 Z M34.1777344,34.4070303 L34.1777344,16.3308584 C34.1777344,11.0573945 35.30077,7.09259044 37.546875,4.43632716 C39.79298,1.78006388 43.533177,0.451952159 48.7675781,0.451952159 C54.041042,0.451952159 57.8105355,1.78982941 60.0761719,4.46562403 C62.3418082,7.14141866 63.4746094,11.0964572 63.4746094,16.3308584 L63.4746094,34.4070303 C63.4746094,39.6804942 62.3418082,43.6697121 60.0761719,46.3748037 C57.8105355,49.0798954 54.041042,50.4324209 48.7675781,50.4324209 C43.533177,50.4324209 39.79298,49.0798954 37.546875,46.3748037 C35.30077,43.6697121 34.1777344,39.6804942 34.1777344,34.4070303 Z M45.1640625,37.1023428 C45.1640625,38.8601641 45.3837869,40.246869 45.8232422,41.262499 C46.2626975,42.2781291 47.244133,42.7859365 48.7675781,42.7859365 C50.2910232,42.7859365 51.2919898,42.2781291 51.7705078,41.262499 C52.2490258,40.246869 52.4882812,38.8601641 52.4882812,37.1023428 L52.4882812,13.6941397 C52.4882812,11.8972557 52.2490258,10.5007853 51.7705078,9.50468653 C51.2919898,8.5085878 50.2910232,8.01054591 48.7675781,8.01054591 C47.3222584,8.01054591 46.360354,8.51835333 45.8818359,9.53398341 C45.4033179,10.5496135 45.1640625,11.9363184 45.1640625,13.6941397 L45.1640625,37.1023428 Z M69.65625,34.6414053 L69.65625,1.09648341 L80.2617188,1.09648341 L80.2617188,36.2527334 C80.2617188,38.2058682 80.5107397,39.7634698 81.0087891,40.925585 C81.5068384,42.0877002 82.5175705,42.668749 84.0410156,42.668749 C85.5644607,42.668749 86.5654273,42.0925829 87.0439453,40.9402334 C87.5224633,39.7878839 87.7617188,38.2253995 87.7617188,36.2527334 L87.7617188,1.09648341 L98.4550781,1.09648341 L98.4550781,34.6414053 C98.4550781,38.1961106 98.0156294,41.1257688 97.1367188,43.4304678 C96.2578081,45.7351668 94.7636824,47.4783134 92.6542969,48.65996 C90.5449113,49.8416065 87.6738463,50.4324209 84.0410156,50.4324209 C80.408185,50.4324209 77.5322372,49.8416065 75.4130859,48.65996 C73.2939347,47.4783134 71.8046918,45.7351668 70.9453125,43.4304678 C70.0859332,41.1257688 69.65625,38.1961106 69.65625,34.6414053 Z M105.28125,49.699999 L105.28125,1.09648341 L118.669922,1.09648341 C123.982448,1.09648341 127.99608,2.0388568 130.710938,3.92363185 C133.425795,5.8084069 134.783203,9.14333448 134.783203,13.9285147 C134.783203,17.1707184 134.363285,19.7537004 133.523438,21.6775381 C132.68359,23.6013758 131.130871,25.1003843 128.865234,26.1746084 L135.515625,49.699999 L124.412109,49.699999 L119.080078,27.9324209 L116.003906,27.9324209 L116.003906,49.699999 L105.28125,49.699999 Z M116.003906,21.7507803 L119.021484,21.7507803 C121.189464,21.7507803 122.703121,21.1794969 123.5625,20.0369131 C124.421879,18.8943293 124.851562,17.1804792 124.851562,14.8953115 C124.851562,12.6882692 124.451176,11.0378951 123.650391,9.94413966 C122.849605,8.85038419 121.4629,8.30351466 119.490234,8.30351466 L116.003906,8.30351466 L116.003906,21.7507803 Z M156.609375,49.699999 L156.609375,1.09648341 L167.332031,1.09648341 L167.332031,42.434374 L178.494141,42.434374 L178.494141,49.699999 L156.609375,49.699999 Z M182.830078,34.6414053 L182.830078,1.09648341 L193.435547,1.09648341 L193.435547,36.2527334 C193.435547,38.2058682 193.684568,39.7634698 194.182617,40.925585 C194.680667,42.0877002 195.691399,42.668749 197.214844,42.668749 C198.738289,42.668749 199.739255,42.0925829 200.217773,40.9402334 C200.696291,39.7878839 200.935547,38.2253995 200.935547,36.2527334 L200.935547,1.09648341 L211.628906,1.09648341 L211.628906,34.6414053 C211.628906,38.1961106 211.189458,41.1257688 210.310547,43.4304678 C209.431636,45.7351668 207.937511,47.4783134 205.828125,48.65996 C203.718739,49.8416065 200.847674,50.4324209 197.214844,50.4324209 C193.582013,50.4324209 190.706065,49.8416065 188.586914,48.65996 C186.467763,47.4783134 184.97852,45.7351668 184.119141,43.4304678 C183.259761,41.1257688 182.830078,38.1961106 182.830078,34.6414053 Z M218.513672,49.699999 L218.513672,1.09648341 L229.265625,1.09648341 L229.265625,49.699999 L218.513672,49.699999 Z" id="POUR-LUI" stroke="#FF1400" stroke-width="0.5" fill="#281E74"></path> </g> </svg> 