<?xml version="1.0" encoding="UTF-8"?> <svg xmlns="http://www.w3.org/2000/svg" xmlns:xlink="http://www.w3.org/1999/xlink" width="22px" height="95px" viewBox="0 0 22 95"> <!-- Generator: Sketch 52.6 (67491) - http://www.bohemiancoding.com/sketch --> <title>Oval 3</title> <desc>Created with Sketch.</desc> <g id="Page-1" stroke="none" stroke-width="1" fill="none" fill-rule="evenodd"> <g id="01" transform="translate(-266.000000, -416.000000)"> <g id="Oval-3" transform="translate(277.000000, 463.500000) rotate(90.000000) translate(-277.000000, -463.500000) translate(229.500000, 452.500000)"> <g id="Group-2" transform="translate(-0.000000, 9.000000)" fill="#FF1400"> <ellipse id="Oval" cx="1.97619048" cy="2" rx="1.97619048" ry="2"></ellipse> <ellipse id="Oval-Copy" cx="11.8571429" cy="2" rx="1.97619048" ry="2"></ellipse> <ellipse id="Oval-Copy-2" cx="21.7380952" cy="2" rx="1.97619048" ry="2"></ellipse> <ellipse id="Oval-Copy-3" cx="31.6190476" cy="2" rx="1.97619048" ry="2"></ellipse> <ellipse id="Oval-Copy-7" cx="41.5" cy="2" rx="1.97619048" ry="2"></ellipse> <ellipse id="Oval-Copy-6" cx="51.3809524" cy="2" rx="1.97619048" ry="2"></ellipse> <ellipse id="Oval-Copy-5" cx="61.2619048" cy="2" rx="1.97619048" ry="2"></ellipse> <ellipse id="Oval-Copy-4" cx="71.1428571" cy="2" rx="1.97619048" ry="2"></ellipse> <ellipse id="Oval-Copy-11" cx="81.0238095" cy="2" rx="1.97619048" ry="2"></ellipse> </g> <polyline id="Path" stroke="#FF1400" transform="translate(89.500000, 11.000000) rotate(-90.000000) translate(-89.500000, -11.000000) " points="79 6 89.5 16 100 6"></polyline> </g> </g> </g> </svg> 