<?xml version="1.0" encoding="UTF-8"?> <svg xmlns="http://www.w3.org/2000/svg" xmlns:xlink="http://www.w3.org/1999/xlink" width="417px" height="325px" viewBox="0 0 417 325"> <!-- Generator: Sketch 52.6 (67491) - http://www.bohemiancoding.com/sketch --> <title>Group 6</title> <desc>Created with Sketch.</desc> <g id="Page-1" stroke="none" stroke-width="1" fill="none" fill-rule="evenodd"> <g id="Group-6" transform="translate(208.500000, 162.500000) scale(-1, 1) translate(-208.500000, -162.500000) " fill="#FF1400"> <polygon id="Path" fill-rule="nonzero" points="357.896405 318.457546 357.227885 324.420187 339.978818 322.486253 341.069535 305.163415 347.057676 305.540452 346.326044 317.160299"></polygon> <circle id="Oval" cx="9.5" cy="69.5" r="9.5"></circle> <path d="M343.95593,315.836795 C346.265809,313.956101 348.526048,312.021969 350.735787,310.035787 L352.741239,312.266966 C350.495221,314.285757 348.197873,316.251645 345.850083,318.163205 L343.95593,315.836795 Z M355.104685,305.97811 C357.252955,303.916612 359.349151,301.804329 361.392369,299.64285 L363.572491,301.703692 C361.495845,303.900534 359.365319,306.047411 357.181839,308.142696 L355.104685,305.97811 Z M365.403526,295.259705 C367.376028,293.033128 369.294262,290.759152 371.157304,288.439574 L373.496276,290.318193 C371.603044,292.675359 369.653669,294.986251 367.649095,297.249031 L365.403526,295.259705 Z M374.835248,283.70592 C376.621909,281.32836 378.352216,278.907355 380.025245,276.444919 L382.506693,278.130865 C380.806925,280.632657 379.048901,283.092444 377.233557,285.508173 L374.835248,283.70592 Z M383.277573,271.492331 C384.870853,268.981153 386.405869,266.431007 387.88172,263.844127 L390.487476,265.330746 C388.988409,267.95832 387.429187,270.548678 385.810722,273.099551 L383.277573,271.492331 Z M390.766036,258.599839 C392.159044,255.970843 393.491989,253.30783 394.76402,250.613251 L397.476925,251.893933 C396.185203,254.630223 394.831578,257.334553 393.416905,260.004436 L390.766036,258.599839 Z M397.231746,245.170928 C398.418456,242.443411 399.543542,239.687292 400.606235,236.905224 L403.408739,237.975722 C402.32983,240.800247 401.187541,243.598506 399.982649,246.367813 L397.231746,245.170928 Z M402.649696,231.30296 C403.627647,228.490721 404.542401,225.655589 405.393289,222.800414 L408.268333,223.657224 C407.404596,226.555512 406.476013,229.433506 405.483255,232.288325 L402.649696,231.30296 Z M407.000789,217.097757 C407.766187,214.219286 408.467017,211.323981 409.10274,208.414861 L412.033576,209.05533 C411.388306,212.008137 410.676947,214.946938 409.900044,217.868681 L407.000789,217.097757 Z M410.287026,202.580114 C410.836147,199.651612 411.319441,196.712643 411.736521,193.766367 L414.706906,194.18686 C414.283557,197.177418 413.793004,200.160532 413.235638,203.133005 L410.287026,202.580114 Z M412.485546,187.835638 C412.814621,184.872954 413.076703,181.906451 413.271577,178.939402 L416.265127,179.136017 C416.0673,182.148021 415.801254,185.159392 415.46721,188.166821 L412.485546,187.835638 Z M413.57277,172.9739 C413.678037,169.991203 413.715154,167.011595 413.684093,164.038433 L416.68393,164.007094 C416.715469,167.02602 416.677782,170.051357 416.570904,173.079712 L413.57277,172.9739 Z M413.529653,158.067642 C413.406343,155.085063 413.213991,152.112727 412.952765,149.154021 L415.94114,148.890176 C416.206483,151.895512 416.401855,154.914501 416.527093,157.943718 L413.529653,158.067642 Z M412.333445,143.213477 C411.976937,140.250789 411.55072,137.305683 411.055163,134.381528 L414.012989,133.880265 C414.516602,136.851956 414.949712,139.844693 415.311958,142.855064 L412.333445,143.213477 Z M409.961471,128.5118 C409.36667,125.58709 408.701606,122.687473 407.966845,119.81626 L410.873189,119.072508 C411.62035,121.992177 412.29657,124.940435 412.901292,127.913925 L409.961471,128.5118 Z M406.407644,114.123248 C405.570214,111.256516 404.662139,108.422482 403.684167,105.624358 L406.516175,104.634543 C407.511361,107.481919 408.435314,110.365507 409.287293,113.282045 L406.407644,114.123248 Z M401.635273,100.077001 C400.552128,97.2965797 399.398474,94.5563523 398.17522,91.8593706 L400.907329,90.6201842 C402.153097,93.366803 403.327839,96.1571221 404.430651,98.9880287 L401.635273,100.077001 Z M395.617103,86.4857352 C394.284923,83.8164251 392.88267,81.1946835 391.411382,78.6233673 L394.015255,77.1334517 C395.514847,79.7542351 396.943903,82.4260885 398.30138,85.146086 L395.617103,86.4857352 Z M388.356408,73.5157338 C386.777221,70.988228 385.128985,68.5151862 383.412836,66.0992275 L385.858593,64.3619106 C387.609113,66.8262546 389.290175,69.3485501 390.900631,71.9261014 L388.356408,73.5157338 Z M379.863352,61.3092913 C378.043521,58.9544172 376.156296,56.6601694 374.202858,54.4288998 L376.460048,52.4527692 C378.453885,54.7301842 380.379983,57.0716886 382.237131,59.4748503 L379.863352,61.3092913 Z M370.187144,50.0290527 C368.139525,47.8769608 366.026863,45.7905997 363.85034,43.772036 L365.890339,41.572399 C368.112785,43.6335522 370.269936,45.7638484 372.360562,47.9611427 L370.187144,50.0290527 Z M359.401533,39.81658 C357.144305,37.8930722 354.825007,36.0391497 352.444778,34.2565937 L354.243089,31.8553276 C356.673763,33.6756622 359.042245,35.5689002 361.347333,37.5331919 L359.401533,39.81658 Z M347.587739,30.7764257 C346.436162,29.9874267 345.271554,29.2144092 344.094027,28.4575347 C342.759547,27.5998092 341.425862,26.7659598 340.090958,25.9545792 L341.649159,23.3909863 C343.005567,24.215437 344.360541,25.0625967 345.716115,25.9338806 C346.918413,26.706677 348.107531,27.4959627 349.283369,28.3015843 L347.587739,30.7764257 Z M334.953588,22.946076 C332.327667,21.4663715 329.69875,20.0736341 327.06712,18.7669268 L328.401316,16.0799357 C331.079923,17.409969 333.755041,18.827182 336.426356,20.3324661 L334.953588,22.946076 Z M321.691958,16.2189665 C318.950836,14.9810707 316.20777,13.8359492 313.463099,12.7824772 L314.538106,9.98169883 C317.336774,11.0558961 320.133101,12.2232518 322.926694,13.4848434 L321.691958,16.2189665 Z M307.867073,10.7619609 C305.029285,9.80169614 302.191009,8.93880772 299.352652,8.17196724 L300.13511,5.27580434 C303.033788,6.05894171 305.931804,6.93999209 308.828666,7.92024693 L307.867073,10.7619609 Z M293.594333,6.74761867 C290.677135,6.09237997 287.761366,5.53797033 284.847522,5.08283573 L285.3105,2.11877582 C288.289513,2.5840897 291.270145,3.15083229 294.25179,3.82054661 L293.594333,6.74761867 Z M278.938121,4.29514647 C275.974824,3.96785027 273.0154,3.74255738 270.06046,3.61748259 L270.187329,0.62016639 C273.209745,0.74809728 276.2367,0.978531103 279.267469,1.31327953 L278.938121,4.29514647 Z M264.13021,3.50053343 C261.159582,3.50899212 258.195815,3.61800988 255.239666,3.82556729 L255.029547,0.832934669 C258.052495,0.620687138 261.083486,0.509196636 264.121668,0.500545593 L264.13021,3.50053343 Z M249.35897,4.36907492 C246.413092,4.7067303 243.477674,5.14140009 240.553657,5.67080279 L240.019186,2.71879643 C243.00678,2.17788311 246.006501,1.73369139 249.017348,1.38858932 L249.35897,4.36907492 Z M234.709284,6.8579509 C231.819003,7.50889673 228.943505,8.25132951 226.08397,9.08265266 L225.246485,6.20192046 C228.164554,5.35358039 231.099506,4.59579688 234.050138,3.93125891 L234.709284,6.8579509 Z M220.394795,10.8603449 C217.585196,11.7995328 214.795619,12.8230618 212.02758,13.9279158 L210.915457,11.1416667 C213.736163,10.0157912 216.57941,8.97256976 219.443692,8.01510255 L220.394795,10.8603449 Z M206.52681,16.2425138 C203.813261,17.4433187 201.126425,18.7200967 198.468338,20.0691864 L197.110581,17.3940234 C199.815561,16.0211335 202.550304,14.7215904 205.3128,13.4991253 L206.52681,16.2425138 Z M193.209217,22.8527982 C190.60297,24.2894596 188.032581,25.7921631 185.501014,27.3561263 L183.924282,24.8038893 C186.49768,23.2140835 189.110883,21.6863491 191.760965,20.2255246 L193.209217,22.8527982 Z M180.490122,30.5647042 C177.997891,32.2175266 175.555494,33.9236341 173.167804,35.6759561 L171.392825,33.2573928 C173.818521,31.4771784 176.299875,29.743858 178.832044,28.0645488 L180.490122,30.5647042 Z M168.429335,39.2696765 C166.053153,41.1315463 163.751975,43.0269053 161.535537,44.9428262 L159.573666,42.6732311 C161.826341,40.7259863 164.164704,38.8000007 166.579024,36.9082469 L168.429335,39.2696765 Z M157.106895,48.9018321 C154.837183,51.0012986 152.702621,53.0899157 150.730523,55.1327265 L148.572175,53.0490912 C150.583705,50.965435 152.7587,48.8372558 155.069778,46.6995257 L157.106895,48.9018321 Z M146.685533,59.5034929 C144.804985,61.5618964 142.637009,63.7301666 140.234342,65.9536699 L138.196705,63.7518451 C140.539954,61.5833282 142.648956,59.4740407 144.470685,57.4800186 L146.685533,59.5034929 Z M135.697633,69.9782296 C133.460414,71.8848392 131.094877,73.7949178 128.630662,75.6821051 L126.806612,73.300332 C129.229675,71.444661 131.55458,69.5673905 133.751742,67.6949185 L135.697633,69.9782296 Z M123.773981,79.2790551 C121.330701,81.0291949 118.825896,82.7367108 116.278554,84.3862318 L114.647936,81.8680811 C117.155691,80.2441939 119.621708,78.5631196 122.027003,76.840189 L123.773981,79.2790551 Z M111.149421,87.5933721 C108.538282,89.1685083 105.904782,90.6699769 103.26238,92.0874868 L101.84421,89.4438542 C104.44165,88.0504635 107.031366,86.5739583 109.599823,85.0245693 L111.149421,87.5933721 Z M97.8615117,94.8605897 C95.0915795,96.2187422 92.3288397,97.4740547 89.5837626,98.6186848 L88.4291877,95.8497578 C91.1171533,94.7289418 93.824567,93.498768 96.5407714,92.1669593 L97.8615117,94.8605897 Z M83.9227324,100.830045 C80.9897026,101.897006 78.0921033,102.826202 75.2389067,103.610747 L74.4435164,100.718109 C77.2173225,99.955394 80.0383109,99.0507657 82.8971596,98.0107898 L83.9227324,100.830045 Z M69.3296837,105.040269 C66.2342844,105.683451 63.2075472,106.140868 60.2580248,106.405452 L59.9899893,103.417449 C62.8215876,103.163444 65.7343599,102.72325 68.7193605,102.103008 L69.3296837,105.040269 Z M54.1014993,106.674725 C50.9128866,106.660411 47.8360113,106.395695 44.8801973,105.872556 L45.4030315,102.918466 C48.1865334,103.411109 51.0933139,103.661191 54.1149658,103.674755 L54.1014993,106.674725 Z M38.8401667,104.386524 C35.8390512,103.425971 32.9945302,102.159842 30.316952,100.581187 L31.8405995,97.9969077 C34.3237325,99.4609211 36.9638123,100.636052 39.7546629,101.529306 L38.8401667,104.386524 Z M25.217526,97.0292555 C22.8645363,95.1133438 20.6775292,92.9094837 18.6630809,90.4139704 L20.9974341,88.5296151 C22.8819978,90.8642264 24.9217927,92.9197398 27.111749,94.7029023 L25.217526,97.0292555 Z M15.0729463,85.3652116 C13.5068994,82.8670719 12.0766515,80.1472609 10.7851562,77.2032186 L13.5324355,75.9980396 C14.7660221,78.8100756 16.1280202,81.4001002 17.6147852,83.7717703 L15.0729463,85.3652116 Z" id="Shape" fill-rule="nonzero"></path> </g> </g> </svg> 