<?xml version="1.0" encoding="UTF-8"?> <svg xmlns="http://www.w3.org/2000/svg" xmlns:xlink="http://www.w3.org/1999/xlink" width="303px" height="263px" viewBox="0 0 303 263"> <!-- Generator: Sketch 52.6 (67491) - http://www.bohemiancoding.com/sketch --> <title>Group 5</title> <desc>Created with Sketch.</desc> <g id="Page-1" stroke="none" stroke-width="1" fill="none" fill-rule="evenodd"> <g id="Group-5" fill="#FF1400"> <polygon id="Path" fill-rule="nonzero" points="162.431034 246.327586 166.568966 250.672414 154 262.642857 141.431034 250.672414 145.568966 246.327586 154 254.357143"></polygon> <circle id="Oval" cx="9.5" cy="102.5" r="9.5"></circle> <path d="M16.5012759,106.943913 L16.8971616,103.970149 C18.8842786,104.234686 20.8637829,104.489485 22.8356745,104.734544 L22.4656912,107.711642 C20.4851416,107.465507 18.4970033,107.209597 16.5012759,106.943913 Z M26.4471287,108.194484 L26.7994372,105.215243 C28.7895683,105.450585 30.7718633,105.675903 32.746322,105.891199 L32.4211285,108.873522 C30.4376066,108.657238 28.4462734,108.430892 26.4471287,108.194484 Z M36.4010672,109.29507 L36.7077897,106.310791 C38.7036643,106.515926 40.6914449,106.710709 42.6711315,106.895141 L42.3928492,109.882207 C40.4036567,109.696889 38.4063961,109.501176 36.4010672,109.29507 Z M46.3843878,110.241055 L46.6432911,107.252248 C48.6405672,107.425261 50.6295128,107.587621 52.6101278,107.739329 L52.3810088,110.730567 C50.390439,110.578096 48.3915653,110.414926 46.3843878,110.241055 Z M56.3906079,111.024002 L56.5993504,108.031273 C58.5980327,108.170681 60.5881339,108.299118 62.5696538,108.416584 L62.3921224,111.411327 C60.4001712,111.293242 58.3996664,111.164133 56.3906079,111.024002 Z M66.3958947,111.63443 L66.5521171,108.6385 C68.5556901,108.742976 70.5503858,108.836105 72.5362041,108.917886 L72.4127605,111.915346 C70.4159875,111.833113 68.4103656,111.739474 66.3958947,111.63443 Z M76.4113068,112.06517 L76.5124521,109.066875 C78.5130445,109.134364 80.5045172,109.190197 82.48687,109.234375 L82.4200294,112.23363 C80.4262128,112.189197 78.4233053,112.133043 76.4113068,112.06517 Z M86.4467971,112.307613 L86.4900992,109.307926 C88.4916783,109.33682 90.4838423,109.353683 92.466591,109.358516 L92.4592789,112.358507 C90.4645043,112.353645 88.4603437,112.33668 86.4467971,112.307613 Z M96.4782156,112.351854 L96.4608929,109.351904 C98.4647081,109.340333 100.458782,109.316316 102.443114,109.279855 L102.498229,112.279349 C100.50127,112.316042 98.4945991,112.34021 96.4782156,112.351854 Z M106.498552,112.188739 L106.417718,109.189828 C108.418529,109.135898 110.409304,109.069147 112.390042,108.989576 L112.510462,111.987159 C110.516499,112.067261 108.512529,112.134454 106.498552,112.188739 Z M116.532578,111.807405 L116.385033,108.811036 C118.385399,108.712535 120.375386,108.60078 122.354994,108.47577 L122.544064,111.469806 C120.550586,111.595692 118.546757,111.708225 116.532578,111.807405 Z M126.540085,111.198569 L126.322745,108.206452 C128.318355,108.061496 130.303268,107.902879 132.277484,107.730603 L132.538283,110.719245 C130.549555,110.892788 128.550155,111.052563 126.540085,111.198569 Z M136.5445,110.34962 L136.253975,107.363721 C138.24542,107.169955 140.225819,106.962086 142.195172,106.740114 L142.531184,109.721237 C140.546645,109.944921 138.551083,110.154382 136.5445,110.34962 Z M146.536658,109.248608 L146.169483,106.271162 C148.157199,106.02604 150.133489,105.76633 152.098354,105.492035 L152.513132,108.463223 C150.532379,108.739737 148.540221,109.001531 146.536658,109.248608 Z M156.492396,107.885603 L156.045175,104.919125 C158.023227,104.620917 159.989517,104.307694 161.944045,103.979455 L162.4409,106.938025 C160.469811,107.269045 158.486977,107.584904 156.492396,107.885603 Z M166.403081,106.249364 L165.872402,103.296674 C167.841402,102.94279 169.798269,102.57342 171.743004,102.188564 L172.325399,105.13149 C170.363415,105.51976 168.389309,105.892384 166.403081,106.249364 Z M176.245691,104.331464 L175.628292,101.395682 C177.584647,100.984258 179.528517,100.556898 181.459905,100.113603 L182.131019,103.037574 C180.181724,103.484979 178.219947,103.916275 176.245691,104.331464 Z M186.040077,102.114707 L185.332507,99.1993431 C187.27512,98.7278633 189.204883,98.2399798 191.121797,97.7356937 L191.885043,100.636979 C189.949577,101.146145 188.001254,101.638721 186.040077,102.114707 Z M195.762615,99.5899364 L194.961661,96.6988342 C196.886819,96.165486 198.798783,95.6152926 200.697554,95.0482549 L201.555995,97.9228121 C199.638079,98.4955672 197.706952,99.051275 195.762615,99.5899364 Z M205.417391,96.7410375 L204.519874,93.8784403 C206.425843,93.2808569 208.318268,92.6659789 210.197151,92.0338071 L211.153836,94.8771774 C209.25526,95.5159749 207.343111,96.1372614 205.417391,96.7410375 Z M214.955007,93.5684449 L213.958389,90.7388241 C215.841456,90.0755913 217.710656,89.3946468 219.565991,88.6959913 L220.623214,91.5035311 C218.747722,92.209777 216.858319,92.8980814 214.955007,93.5684449 Z M224.380482,90.0573511 L223.282401,87.2655387 C225.139401,86.5351393 226.982231,85.7866353 228.810895,85.0200273 L229.970752,87.7867458 C228.121558,88.5619606 226.258134,89.3188289 224.380482,90.0573511 Z M233.672678,86.2020165 L232.471284,83.4530799 C234.298919,82.654331 236.112108,81.8371157 237.910852,81.0014344 L239.174871,83.7221434 C237.355331,84.5674861 235.521266,85.3941104 233.672678,86.2020165 Z M242.823669,81.9924361 L241.517561,79.2916801 C243.312092,78.4238303 245.091935,77.5371962 246.857094,76.6317779 L248.226294,79.3011019 C246.440204,80.2172571 244.639328,81.1143685 242.823669,81.9924361 Z M251.801958,77.4310324 L250.390525,74.7837968 C252.148298,73.8466008 253.891182,72.8903525 255.619181,71.9150515 L257.093755,74.5276424 C255.344829,75.5147553 253.580895,76.4825521 251.801958,77.4310324 Z M260.589983,72.5168911 L259.07331,69.9285123 C259.261884,69.8179416 259.261884,69.8179416 259.450295,69.7071645 C261.069201,68.7546785 262.640745,67.802029 264.164877,66.8495246 L265.75478,69.3935782 C264.207763,70.3603845 262.613348,71.3268983 260.97158,72.2928355 C260.780862,72.4049681 260.780862,72.4049681 260.589983,72.5168911 Z M269.15817,67.2161795 L267.513899,64.7069222 C269.216096,63.5915034 270.852444,62.4770665 272.42286,61.364184 L274.157436,63.8118862 C272.556961,64.9460702 270.890512,66.0810069 269.15817,67.2161795 Z M277.428958,61.425715 L275.626927,59.0272394 C277.261861,57.798875 278.815012,56.5736546 280.286275,55.3524955 L282.202294,57.6609306 C280.693255,58.9134436 279.102105,60.1686402 277.428958,61.425715 Z M285.277402,55.0107877 L283.275238,52.7766571 C284.801766,51.4086265 286.222885,50.0478592 287.538524,48.6959485 L289.68849,50.7882309 C288.324393,52.1899359 286.853979,53.5979048 285.277402,55.0107877 Z M292.452149,47.7907454 L290.189476,45.820895 C291.537741,44.2722079 292.742424,42.7394115 293.803791,41.225588 L296.260197,42.9478152 C295.137305,44.5493928 293.867888,46.1645547 292.452149,47.7907454 Z M298.489695,39.4548227 L295.888681,37.9599223 C296.905536,36.1906708 297.715767,34.4569061 298.321617,32.7649283 L301.14601,33.776265 C300.478618,35.6401153 299.593103,37.5349758 298.489695,39.4548227 Z M302.265143,29.7122207 L299.318152,29.1507561 C299.684788,27.2263709 299.766184,25.3741551 299.570539,23.6032093 L302.552398,23.2737893 C302.781407,25.3467478 302.686832,27.4988774 302.265143,29.7122207 Z M301.590072,19.0254373 L298.758508,20.0165198 C298.159943,18.3063932 297.270753,16.6901607 296.101768,15.1814252 L298.47323,13.3439895 C299.837152,15.1043178 300.882998,17.005298 301.590072,19.0254373 Z M295.51787,10.186322 L293.515895,12.4206217 C292.173491,11.2178015 290.625471,10.1126403 288.88791,9.11700844 L290.37942,6.5140488 C292.295089,7.61173745 294.014419,8.83920075 295.51787,10.186322 Z M286.614177,4.63300289 L285.419484,7.38485858 C283.719116,6.64665954 281.892368,5.99925661 279.953414,5.44838587 L280.773289,2.56259209 C282.837597,3.14907676 284.789482,3.84082895 286.614177,4.63300289 Z M276.820304,1.5969177 L276.212713,4.53474567 C274.357788,4.15111678 272.425694,3.84877832 270.427367,3.63021535 L270.753541,0.647999608 C272.845145,0.8767645 274.871106,1.19379165 276.820304,1.5969177 Z M266.7112,0.320517913 L266.550617,3.31621699 C264.632453,3.2133945 262.667907,3.18349323 260.665241,3.2274185 L260.599456,0.228139851 C262.677014,0.182571968 264.717052,0.213622257 266.7112,0.320517913 Z M256.558525,0.410525742 L256.761814,3.40363007 C254.828141,3.5349635 252.86838,3.73237419 250.888781,3.99600035 L250.492763,1.02225365 C252.536095,0.750140018 254.560125,0.546255326 256.558525,0.410525742 Z M246.451817,1.64526967 L246.969019,4.60035033 C245.048541,4.93647515 243.116071,5.33310828 241.176369,5.79002662 L240.488513,2.86994904 C242.484622,2.39974326 244.473998,1.99143034 246.451817,1.64526967 Z M236.541105,3.87837565 L237.337574,6.7707167 C235.450937,7.29024347 233.562423,7.86567589 231.675691,8.49664038 L230.724221,5.65152101 C232.662144,5.00343699 234.602343,4.41225607 236.541105,3.87837565 Z M226.876547,7.01444848 L227.927791,9.82423234 C226.090366,10.5116812 224.258541,11.2511848 222.435159,12.0423272 L221.241053,9.2902169 C223.111557,8.47862855 224.991019,7.71989425 226.876547,7.01444848 Z M217.533936,10.973728 L218.820188,13.6839967 C217.045274,14.5263435 215.281576,15.4174177 213.531328,16.3568155 L212.112593,13.7134859 C213.906468,12.7506727 215.714341,11.8372799 217.533936,10.973728 Z M208.556488,15.6977545 L210.060792,18.2933411 C208.359456,19.2793713 206.673594,20.311197 205.004982,21.3884527 L203.377821,18.8680662 C205.086808,17.7647447 206.813635,16.7078466 208.556488,15.6977545 Z M199.989893,21.1325415 L201.696337,23.5999388 C201.462072,23.7619551 201.228195,23.9248792 200.994713,24.0887074 C199.592497,25.0726115 198.214726,26.0672345 196.860936,27.0727265 L195.072171,24.6643409 C196.447668,23.6427269 197.847313,22.6323132 199.271565,21.6329463 C199.510605,21.4652184 199.750049,21.2984164 199.989893,21.1325415 Z M191.868384,27.0979572 L193.708969,29.4669749 C192.128421,30.694967 190.582494,31.9383964 189.070927,33.197124 L187.151194,30.8917767 C188.688843,29.61133 190.261157,28.3466766 191.868384,27.0979572 Z M184.067447,33.5213483 L186.040788,35.7809775 C184.536895,37.0943328 183.069181,38.4235736 181.637352,39.7685477 L179.583388,37.5819444 C181.041698,36.2120959 182.536292,34.8585113 184.067447,33.5213483 Z M176.679101,40.3787833 L178.786977,42.513464 C177.366495,43.9161089 175.983801,45.335068 174.638561,46.7701748 L172.449818,44.7184917 C173.821513,43.2551623 175.231169,41.8085339 176.679101,40.3787833 Z M169.719873,47.7090721 L171.962271,49.7019719 C170.638741,51.1911995 169.354292,52.6969875 168.108549,54.2191569 L165.786925,52.3191406 C167.058463,50.7654531 168.369326,49.2286984 169.719873,47.7090721 Z M163.272727,55.4793678 L165.646123,57.3143044 C164.428997,58.8885944 163.25203,60.4795525 162.114806,62.0869885 L159.665744,60.3543334 C160.827463,58.7122737 162.029658,57.087214 163.272727,55.4793678 Z M157.376797,63.6901545 L159.87463,65.3517293 C158.773733,67.0067001 157.713737,68.6782546 156.694184,70.3661932 L154.126274,68.8151178 C155.16836,67.0898737 156.251719,65.3814765 157.376797,63.6901545 Z M152.08116,72.3160584 L154.693534,73.7910169 C153.7182,75.5184815 152.78403,77.262196 151.890528,79.0219552 L149.215581,77.6637743 C150.129043,75.8647033 151.084072,74.0820523 152.08116,72.3160584 Z M147.429471,81.3144439 L150.143453,82.5928419 C149.299678,84.3841384 148.496893,86.1911202 147.734562,88.0135813 L144.966937,86.8558904 C145.746215,84.9929142 146.56688,83.145686 147.429471,81.3144439 Z M143.462959,90.6039446 L146.263125,91.6805455 C145.553306,93.5267384 144.883917,95.3878492 144.254389,97.2636771 L141.410279,96.3091935 C142.053524,94.3924954 142.737556,92.4906692 143.462959,90.6039446 Z M140.178792,100.159785 L143.048896,101.032999 C142.473471,102.924324 141.937544,104.829604 141.440509,106.748654 L138.536336,105.996471 C139.043833,104.037026 139.591111,102.091394 140.178792,100.159785 Z M137.579756,109.909592 L140.503363,110.582288 C140.06047,112.507147 139.655748,114.444808 139.288558,116.395117 L136.340355,115.840051 C136.714918,113.85058 137.127831,111.873703 137.579756,109.909592 Z M135.641677,119.838842 L138.60338,120.316665 C138.28869,122.267215 138.01063,124.2293 137.76853,126.202816 L134.790852,125.837531 C135.037538,123.826631 135.320915,121.82703 135.641677,119.838842 Z M134.348195,129.854046 L137.333925,130.146305 C137.141486,132.112266 136.983868,134.088387 136.860373,136.074644 L133.866155,135.888478 C133.991837,133.867048 134.152276,131.855562 134.348195,129.854046 Z M133.661132,139.939395 L136.658833,140.056824 C136.581491,142.031173 136.537021,144.01426 136.524696,146.006193 L133.524754,145.987631 C133.537281,143.962977 133.58249,141.946938 133.661132,139.939395 Z M133.542793,150.030236 L136.542456,149.985239 C136.572102,151.961579 136.632553,153.945234 136.723065,155.936539 L133.726159,156.072759 C133.634277,154.051312 133.572899,152.037254 133.542793,150.030236 Z M133.948889,160.102631 L136.942575,159.908089 C137.070827,161.881682 137.22774,163.861251 137.412567,165.847529 L134.425471,166.125485 C134.238083,164.11169 134.078968,162.104324 133.948889,160.102631 Z M134.831787,170.10827 L137.813511,169.777631 C138.03163,171.744643 138.276189,173.716524 138.546503,175.694781 L135.574123,176.100934 C135.300412,174.097812 135.052732,172.10077 134.831787,170.10827 Z M136.152863,180.094799 L139.118322,179.640869 C139.334057,181.050231 139.562342,182.462062 139.802997,183.877479 C139.896445,184.427097 139.99025,184.972768 140.084415,185.514557 L137.128726,186.028269 C137.033931,185.482856 136.939504,184.933567 136.845441,184.380334 C136.602043,182.948779 136.371121,181.520645 136.152863,180.094799 Z M137.834785,189.982591 L140.785549,189.441304 C141.154585,191.453061 141.528807,193.408374 141.908614,195.312237 L138.966585,195.89915 C138.583736,193.980038 138.206603,192.009516 137.834785,189.982591 Z M139.775497,199.838268 L142.710639,199.217833 C143.133215,201.216948 143.562218,203.156505 143.999009,205.047063 L141.076007,205.722387 C140.634998,203.813568 140.201948,201.855714 139.775497,199.838268 Z M142.00717,209.633291 L144.920796,208.918602 C145.403649,210.887084 145.895585,212.803078 146.402873,214.698244 L143.504896,215.473958 C142.992249,213.558769 142.495094,211.622449 142.00717,209.633291 Z M144.570918,219.350194 L147.458174,218.535484 C147.980843,220.387774 148.513067,222.210159 149.13035,224.274148 L146.256139,225.133746 C145.634694,223.055841 145.098233,221.218947 144.570918,219.350194 Z M147.412996,228.970258 L150.284498,228.101652 C151.109189,230.827979 151.54571,232.295186 151.995944,233.877848 L149.110433,234.698715 C148.666073,233.136704 148.233083,231.681364 147.412996,228.970258 Z M150.139281,238.51552 L153.048485,237.783035 C153.570428,239.856035 153.993213,241.802942 154.337498,243.753192 L151.383179,244.274729 C151.05199,242.398659 150.644356,240.521525 150.139281,238.51552 Z M151.95867,248.156443 L154.937221,247.798348 C155.171839,249.749843 155.336249,251.763404 155.431785,253.890175 L152.434807,254.024801 C152.342591,251.971942 152.184265,250.032893 151.95867,248.156443 Z M152.529974,257.965544 L155.529939,257.951144 C155.530812,258.132873 155.531249,258.315542 155.53125,258.499174 L152.53125,258.499196 C152.531249,258.320346 152.530823,258.142469 152.529974,257.965544 Z" id="Path-8" fill-rule="nonzero"></path> </g> </g> </svg> 