<?xml version="1.0" encoding="UTF-8"?> <svg xmlns="http://www.w3.org/2000/svg" xmlns:xlink="http://www.w3.org/1999/xlink" width="580px" height="89px" viewBox="0 0 580 89"> <!-- Generator: Sketch 52.6 (67491) - http://www.bohemiancoding.com/sketch --> <title>2015_12_30_Lacoste_100Black</title> <desc>Created with Sketch.</desc> <defs> <polygon id="path-1" points="0.06 0.299 579.797702 0.299 579.797702 88.94 0.06 88.94"></polygon> </defs> <g id="Page-1" stroke="none" stroke-width="1" fill="none" fill-rule="evenodd"> <g id="Artboard" transform="translate(-41.000000, -211.000000)"> <g id="2015_12_30_Lacoste_100Black" transform="translate(41.000000, 211.000000)"> <mask id="mask-2" fill="white"> <use xlink:href="#path-1"></use> </mask> <g id="Clip-2"></g> <path d="M75.999,28.601 L87.272,53.262 L65.429,53.262 L75.999,28.601 Z M9.864,18.878 L0,18.878 L0,74.4 L39.359,74.4 L39.359,65.523 L9.864,65.523 L9.864,18.878 Z M304.81,27.756 L304.81,74.4 L314.674,74.4 L314.674,27.756 L334.121,27.756 L334.121,18.878 L285.924,18.878 L285.924,27.756 L304.81,27.756 Z M199.682,65.663 C188.691,65.663 180.377,57.349 180.377,46.638 C180.377,35.929 188.691,27.614 199.682,27.614 C210.674,27.614 218.989,35.929 218.989,46.638 C218.989,57.349 210.674,65.663 199.682,65.663 Z M140.637,27.614 C148.952,27.614 153.602,32.123 156.28,34.52 L163.185,27.756 C160.93,25.219 154.307,17.75 140.497,17.75 C124.573,17.75 110.48,28.459 110.48,46.638 C110.48,64.818 124.432,75.528 140.356,75.528 C152.617,75.528 160.93,68.904 163.607,66.508 L158.111,58.758 C153.743,62.423 146.838,65.663 140.497,65.663 C129.505,65.663 121.19,57.349 121.19,46.638 C121.19,35.929 129.505,27.614 140.637,27.614 Z M237.308,68.904 C239.564,70.737 246.328,75.528 258.166,75.528 C270.142,75.528 279.866,69.046 279.866,58.899 C279.866,37.761 249.288,44.525 249.288,32.97 C249.288,29.729 251.964,27.051 259.01,27.051 C267.465,27.051 272.96,30.856 275.074,32.547 L279.163,24.373 C276.625,21.978 268.875,17.75 259.01,17.75 C244.213,17.75 238.155,26.065 238.155,34.237 C238.155,53.403 268.734,47.907 268.734,59.322 C268.734,64.113 263.943,66.226 258.447,66.226 C250.132,66.226 243.508,62.564 240.691,60.448 L237.308,68.904 Z M384.993,18.878 L342.858,18.878 L342.858,74.4 L385.837,74.4 L385.837,65.523 L352.722,65.523 L352.722,51.008 L380.906,51.008 L380.906,42.129 L352.722,42.129 L352.722,27.756 L384.993,27.756 L384.993,18.878 Z M96.995,74.4 L108.619,74.4 L81.917,18.878 L70.784,18.878 L46.123,74.4 L56.411,74.4 L61.765,61.858 L91.218,61.858 L96.995,74.4 Z M199.682,75.528 C215.607,75.528 229.699,64.818 229.699,46.638 C229.699,28.459 215.607,17.75 199.682,17.75 C183.759,17.75 169.667,28.459 169.667,46.638 C169.667,64.818 183.759,75.528 199.682,75.528 Z" id="Fill-1" fill="#121413" mask="url(#mask-2)"></path> <path d="M514.051,43.757 C513.821,44.708 513.599,45.685 513.39,46.681 C513.339,46.922 513.105,47.035 512.876,46.919 C511.801,46.394 510.662,45.838 509.444,45.257 C509.181,45.14 509.175,44.921 509.44,44.798 C510.771,44.159 512.18,43.698 513.635,43.425 C513.926,43.37 514.112,43.525 514.051,43.757 Z M507.544,41.489 C507.314,42.443 507.087,43.419 506.888,44.415 C506.832,44.655 506.605,44.769 506.376,44.655 C505.292,44.126 504.154,43.566 502.941,42.993 C502.678,42.868 502.672,42.655 502.941,42.53 C504.264,41.892 505.671,41.425 507.132,41.159 C507.417,41.103 507.611,41.256 507.544,41.489 Z M505.506,50.605 C505.458,50.849 505.232,50.949 504.999,50.846 C503.924,50.32 502.785,49.76 501.568,49.183 C501.306,49.06 501.303,48.847 501.564,48.723 C502.89,48.079 504.302,47.615 505.757,47.345 C506.047,47.297 506.238,47.451 506.179,47.679 C505.939,48.628 505.722,49.611 505.506,50.605 Z M500.719,40.374 C500.483,41.321 500.259,42.298 500.052,43.294 C500.001,43.54 499.778,43.652 499.542,43.54 C498.468,43.005 497.328,42.451 496.115,41.876 C495.847,41.753 495.841,41.54 496.105,41.413 C497.434,40.771 498.849,40.308 500.305,40.036 C500.591,39.989 500.782,40.145 500.719,40.374 Z M499.347,46.388 C499.115,47.333 498.891,48.307 498.681,49.304 C498.629,49.552 498.401,49.661 498.171,49.552 C497.098,49.023 495.953,48.461 494.738,47.886 C494.478,47.763 494.473,47.546 494.733,47.42 C496.061,46.784 497.47,46.322 498.932,46.05 C499.22,45.994 499.406,46.152 499.347,46.388 Z M497.991,52.534 C497.751,53.484 497.531,54.458 497.323,55.454 C497.272,55.7 497.044,55.808 496.811,55.7 C495.738,55.174 494.599,54.61 493.381,54.034 C493.122,53.911 493.115,53.695 493.376,53.571 C494.705,52.933 496.115,52.468 497.57,52.198 C497.859,52.142 498.052,52.298 497.991,52.534 Z M492.464,43.39 C491.38,42.858 490.246,42.303 489.028,41.727 C488.765,41.603 488.757,41.395 489.022,41.267 C490.353,40.624 491.763,40.157 493.224,39.891 C493.509,39.841 493.696,39.989 493.639,40.229 C493.398,41.175 493.18,42.148 492.966,43.145 C492.923,43.39 492.695,43.499 492.464,43.39 Z M492.277,46.191 C492.044,47.146 491.818,48.111 491.615,49.115 C491.552,49.353 491.333,49.466 491.099,49.353 C490.025,48.826 488.879,48.268 487.667,47.695 C487.406,47.569 487.404,47.357 487.662,47.232 C488.988,46.587 490.4,46.126 491.859,45.855 C492.152,45.805 492.339,45.958 492.277,46.191 Z M490.951,52.261 C490.716,53.214 490.496,54.181 490.289,55.183 C490.24,55.421 490.009,55.534 489.781,55.421 C488.702,54.894 487.564,54.335 486.345,53.761 C486.085,53.636 486.078,53.425 486.339,53.304 C487.669,52.659 489.072,52.193 490.537,51.923 C490.824,51.874 491.011,52.029 490.951,52.261 Z M485.382,43.971 C484.297,43.449 483.158,42.884 481.943,42.314 C481.686,42.189 481.681,41.974 481.939,41.847 C483.271,41.21 484.68,40.747 486.142,40.477 C486.424,40.425 486.613,40.577 486.556,40.812 C486.319,41.761 486.097,42.737 485.89,43.734 C485.835,43.971 485.609,44.085 485.382,43.971 Z M485.177,46.882 C484.941,47.826 484.718,48.8 484.513,49.806 C484.461,50.052 484.23,50.157 484.004,50.044 C482.922,49.523 481.791,48.959 480.572,48.386 C480.306,48.257 480.299,48.05 480.562,47.924 C481.894,47.279 483.302,46.816 484.763,46.549 C485.05,46.502 485.237,46.657 485.177,46.882 Z M483.847,52.997 C483.61,53.946 483.391,54.915 483.181,55.919 C483.13,56.165 482.908,56.271 482.677,56.161 C481.595,55.634 480.462,55.075 479.238,54.497 C478.978,54.371 478.97,54.163 479.228,54.038 C480.566,53.392 481.972,52.927 483.431,52.663 C483.719,52.611 483.909,52.769 483.847,52.997 Z M478.166,45.182 C477.083,44.654 475.945,44.095 474.734,43.519 C474.472,43.4 474.458,43.193 474.724,43.058 C476.055,42.415 477.46,41.956 478.921,41.686 C479.211,41.637 479.396,41.786 479.339,42.024 C479.106,42.964 478.878,43.945 478.673,44.939 C478.626,45.188 478.393,45.294 478.166,45.182 Z M477.214,51.342 C477.166,51.583 476.941,51.695 476.708,51.583 C475.632,51.052 474.486,50.493 473.278,49.917 C473.021,49.797 473.008,49.587 473.272,49.461 C474.6,48.815 476.013,48.351 477.466,48.087 C477.753,48.038 477.947,48.185 477.887,48.422 C477.65,49.37 477.425,50.349 477.214,51.342 Z M475.847,57.46 C475.798,57.703 475.57,57.811 475.338,57.703 C474.259,57.173 473.125,56.616 471.908,56.039 C471.646,55.919 471.636,55.704 471.9,55.575 C473.228,54.934 474.642,54.472 476.099,54.204 C476.384,54.156 476.575,54.306 476.519,54.54 C476.278,55.486 476.06,56.464 475.847,57.46 Z M471.041,46.821 C469.957,46.3 468.821,45.745 467.603,45.157 C467.345,45.044 467.331,44.823 467.597,44.7 C468.927,44.059 470.335,43.605 471.796,43.325 C472.087,43.273 472.271,43.43 472.214,43.665 C471.979,44.612 471.752,45.585 471.544,46.578 C471.494,46.823 471.269,46.935 471.041,46.821 Z M470.703,50.331 C470.466,51.28 470.244,52.254 470.034,53.251 C469.98,53.489 469.751,53.606 469.521,53.489 C468.449,52.966 467.306,52.402 466.093,51.829 C465.832,51.708 465.828,51.495 466.087,51.368 C467.412,50.73 468.827,50.269 470.283,49.993 C470.572,49.943 470.765,50.099 470.703,50.331 Z M469.322,56.646 C469.088,57.593 468.869,58.565 468.658,59.56 C468.604,59.802 468.38,59.915 468.148,59.802 C467.074,59.277 465.935,58.718 464.717,58.137 C464.455,58.019 464.451,57.807 464.708,57.681 C466.038,57.04 467.446,56.576 468.912,56.308 C469.194,56.252 469.388,56.41 469.322,56.646 Z M463.919,48.8 C462.839,48.275 461.699,47.714 460.482,47.146 C460.223,47.023 460.216,46.804 460.477,46.681 C461.806,46.044 463.222,45.577 464.674,45.302 C464.968,45.255 465.152,45.404 465.095,45.64 C464.853,46.591 464.636,47.564 464.425,48.56 C464.377,48.806 464.151,48.917 463.919,48.8 Z M463.63,52.073 C463.392,53.027 463.169,54.001 462.963,54.999 C462.91,55.237 462.685,55.353 462.455,55.237 C461.376,54.712 460.238,54.154 459.025,53.576 C458.765,53.457 458.755,53.243 459.015,53.111 C460.344,52.475 461.754,52.009 463.209,51.738 C463.503,51.686 463.694,51.847 463.63,52.073 Z M457.425,49.064 C457.372,49.313 457.146,49.416 456.916,49.313 C455.837,48.776 454.699,48.224 453.481,47.648 C453.217,47.525 453.216,47.314 453.476,47.181 C454.806,46.542 456.216,46.079 457.677,45.812 C457.958,45.755 458.148,45.909 458.093,46.14 C457.853,47.095 457.634,48.07 457.425,49.064 Z M456.048,55.188 C455.998,55.433 455.769,55.543 455.537,55.433 C454.463,54.905 453.324,54.342 452.109,53.773 C451.846,53.644 451.838,53.434 452.101,53.304 C453.429,52.673 454.841,52.206 456.302,51.932 C456.589,51.882 456.779,52.036 456.721,52.266 C456.483,53.214 456.26,54.189 456.048,55.188 Z M449.45,43.375 C449.193,43.254 449.19,43.04 449.45,42.919 C450.778,42.273 452.189,41.808 453.646,41.54 C453.928,41.489 454.119,41.643 454.065,41.874 C453.828,42.82 453.603,43.8 453.398,44.798 C453.348,45.04 453.119,45.15 452.888,45.036 C451.812,44.513 450.673,43.952 449.45,43.375 Z M449.812,51.966 C449.761,52.207 449.533,52.32 449.302,52.204 C448.222,51.677 447.083,51.119 445.866,50.543 C445.609,50.422 445.597,50.206 445.859,50.081 C447.188,49.441 448.602,48.977 450.058,48.712 C450.349,48.654 450.539,48.808 450.484,49.039 C450.239,49.993 450.019,50.973 449.812,51.966 Z M442.352,44.946 C442.094,44.819 442.085,44.611 442.347,44.481 C443.674,43.839 445.087,43.374 446.546,43.101 C446.833,43.052 447.023,43.202 446.966,43.433 C446.727,44.385 446.503,45.361 446.292,46.359 C446.24,46.605 446.017,46.718 445.785,46.601 C444.71,46.071 443.564,45.515 442.352,44.946 Z M441.608,38.667 C442.942,38.028 444.357,37.568 445.816,37.294 C446.102,37.235 446.292,37.394 446.23,37.625 C445.992,38.577 445.77,39.55 445.562,40.543 C445.505,40.79 445.282,40.905 445.05,40.788 C443.968,40.259 442.835,39.702 441.614,39.128 C441.356,39.007 441.353,38.798 441.608,38.667 Z M443.256,32.901 C444.588,32.255 445.994,31.8 447.453,31.53 C447.74,31.474 447.929,31.629 447.875,31.857 C447.634,32.812 447.414,33.786 447.205,34.779 C447.153,35.023 446.925,35.142 446.691,35.023 C445.619,34.492 444.48,33.935 443.259,33.357 C443.003,33.236 442.996,33.023 443.256,32.901 Z M447.622,27.888 C448.944,27.245 450.357,26.784 451.822,26.514 C452.109,26.46 452.296,26.614 452.233,26.847 C452,27.795 451.776,28.767 451.572,29.767 C451.521,30.01 451.291,30.124 451.056,30.01 C449.978,29.485 448.838,28.925 447.626,28.347 C447.361,28.223 447.359,28.015 447.622,27.888 Z M453.389,36.195 C453.15,37.144 452.929,38.115 452.718,39.112 C452.666,39.356 452.443,39.476 452.21,39.356 C451.131,38.831 449.994,38.271 448.777,37.695 C448.519,37.577 448.511,37.362 448.773,37.231 C450.103,36.591 451.521,36.132 452.974,35.862 C453.255,35.81 453.449,35.958 453.389,36.195 Z M451.863,32.49 C451.602,32.369 451.591,32.155 451.855,32.027 C453.181,31.386 454.592,30.923 456.048,30.655 C456.343,30.603 456.531,30.755 456.467,30.991 C456.234,31.942 456.008,32.915 455.798,33.91 C455.751,34.153 455.529,34.264 455.296,34.153 C454.216,33.619 453.076,33.07 451.863,32.49 Z M453.318,24.056 C454.646,23.417 456.052,22.952 457.514,22.681 C457.8,22.632 457.988,22.786 457.931,23.018 C457.693,23.969 457.468,24.939 457.265,25.938 C457.216,26.186 456.99,26.292 456.757,26.179 C455.674,25.654 454.54,25.093 453.324,24.519 C453.06,24.398 453.051,24.181 453.318,24.056 Z M459.679,21.066 C461.011,20.424 462.417,19.964 463.878,19.689 C464.166,19.64 464.355,19.792 464.292,20.022 C464.055,20.97 463.833,21.946 463.628,22.94 C463.576,23.187 463.349,23.299 463.117,23.187 C462.037,22.659 460.899,22.097 459.685,21.526 C459.426,21.405 459.415,21.191 459.679,21.066 Z M540.055,38.855 C541.992,38.857 543.186,40.343 543.402,41.015 C543.402,41.015 540.489,41.658 539.221,41.925 C538.392,42.101 537.849,41.747 537.767,41.097 C537.663,40.374 538.439,38.841 540.055,38.855 Z M547.248,39.078 C547.546,38.317 548.172,37.796 548.819,37.795 C549.975,37.794 550.531,39.058 550.527,39.445 L547.733,40.068 C546.95,40.22 546.969,39.793 547.248,39.078 Z M578.619,62.667 C577.42,61.911 576.37,61.818 575.274,61.487 C573.791,61.037 573.315,59.218 572.765,59.007 C571.656,58.581 570.632,60.274 569.96,60.052 C569.288,59.838 569.013,57.609 568.467,57.405 C567.397,57.008 566.243,58.708 565.566,58.487 C564.895,58.273 564.533,56.075 563.987,55.876 C562.872,55.467 561.726,57.236 561.057,57.016 C560.382,56.8 560.197,54.517 559.648,54.31 C558.458,53.861 557.366,55.667 556.316,55.501 C555.647,55.398 554.185,55.151 552.263,53.864 C551.713,53.497 550.572,52.579 550.481,52.544 C550.472,52.541 550.46,52.538 550.451,52.534 C550.432,52.528 550.412,52.521 550.39,52.515 C550.382,52.513 550.373,52.512 550.365,52.511 C550.34,52.505 550.314,52.5 550.288,52.498 C550.277,52.497 550.267,52.499 550.256,52.499 C550.23,52.499 550.205,52.498 550.18,52.503 C550.167,52.506 550.154,52.514 550.141,52.518 C550.119,52.526 550.097,52.531 550.077,52.545 C550.063,52.554 550.051,52.571 550.038,52.584 C550.021,52.6 550.002,52.613 549.988,52.636 C549.976,52.655 549.968,52.684 549.958,52.708 C549.946,52.735 549.933,52.756 549.924,52.79 C549.917,52.821 549.915,52.866 549.91,52.904 C549.905,52.943 549.897,52.974 549.896,53.02 C549.894,53.111 549.899,53.216 549.915,53.339 C550.195,55.662 554.194,57.331 558.794,58.663 C563.386,59.987 568.041,61.273 570.814,62.551 C572.532,63.343 573.266,64.288 572.649,65.208 C572.17,65.923 570.992,65.968 569.71,65.361 C568.336,64.705 568.196,63.624 567.333,63.421 C566.272,63.171 564.929,65.184 564.09,64.989 C563.01,64.737 562.89,62.426 561.937,62.171 C560.674,61.832 559.269,63.789 558.435,63.61 C557.597,63.443 557.286,60.964 556.497,60.761 C555.167,60.417 553.813,62.466 552.978,62.288 C552.14,62.116 551.676,59.68 550.974,59.398 C549.648,58.862 547.878,60.864 546.046,59.893 C540.111,55.886 541.25,53.819 536.714,52.475 C534.372,51.784 531.45,52.624 529.741,52.805 C525.721,53.224 525.88,49.749 525.88,49.749 C527.046,50.02 528.682,50.757 531.682,49.644 C534.928,48.439 536.741,48.228 540.972,49.644 C544.542,50.846 546.668,49.772 547.913,49.451 C548,49.428 548.083,49.403 548.167,49.377 C548.245,49.353 548.323,49.329 548.402,49.308 C548.408,49.306 548.414,49.304 548.419,49.303 L548.421,49.303 C548.85,49.19 549.326,49.165 550.153,49.693 C551.307,50.429 552.417,51.239 552.985,50.964 C553.86,50.536 553.548,48.193 555.058,47.695 C555.748,47.466 557.629,49.349 558.452,49.035 C559.276,48.718 559.021,46.261 560.526,45.764 C561.219,45.538 563.101,47.42 563.923,47.109 C564.753,46.784 564.496,44.333 565.999,43.832 C566.691,43.606 568.577,45.491 569.395,45.179 C570.218,44.857 569.969,42.402 571.472,41.898 C572.16,41.674 574.051,43.562 574.869,43.247 L574.869,43.245 C575.692,42.919 575.577,42.298 576.237,40.628 C576.367,40.3 576.608,39.975 576.943,39.698 C577.861,38.945 579.252,37.335 578.434,35.527 C577.689,33.894 576.155,33.946 572.785,34.64 C569.95,35.226 552.344,39.095 552.344,39.095 C549.597,34.013 547.738,37.368 543.659,36.876 C541.078,36.566 536.903,33.933 530.298,40.03 C526.748,39.018 523.611,39.916 521.273,41.228 C517.311,39.612 509.753,35.737 495.393,35.737 C491.331,35.737 481.642,36.538 466.222,40.598 C462.275,41.638 458.669,41.413 457.791,39.071 C456.879,36.618 460.043,34.049 466.009,31.189 C480.806,24.103 490.684,25.772 510.58,15.237 C521.245,9.595 521.941,2.974 521.931,1.371 C521.931,0.274 520.815,-0.095 520.171,0.805 C516.583,5.813 515.661,5.398 514.544,4.28 C513.051,2.789 512.049,5.159 510.443,6.355 C509.225,7.261 508.981,6.169 507.994,5.534 C506.31,4.445 504.891,7.662 503.447,8.308 C501.772,9.06 501.467,8.22 500.898,7.626 C500.498,7.206 499.772,7.218 499.251,7.712 C495.857,10.937 495.361,10.568 494.347,9.494 C493.595,8.696 493.183,8.14 490.99,10.364 C489.722,11.65 487.601,13.171 486.962,11.568 C486.318,9.962 485.761,9.025 482.65,11.868 C480.806,13.548 479.55,13.687 478.992,12.892 C478.43,12.093 478.518,9.908 475.603,12.202 C472.993,14.258 471.679,15.497 470.817,13.509 C469.984,11.588 468.061,13.204 466.602,14.595 C465.837,15.327 464.566,17.066 463.541,15.297 C462.519,13.548 460.888,15.355 458.792,17.57 C457.613,18.812 456.824,18.266 455.657,17.439 C454.312,16.476 452.892,19.915 450.941,21.977 C450.574,22.318 450.042,22.566 448.867,21.748 C447.349,20.702 444.939,26.038 444.255,27.347 C443.134,29.459 441.904,26.792 440.598,28.702 C437.558,33.155 434.304,38.093 433.38,46.843 C432.275,57.313 436.156,65.84 440.095,68.974 C440.095,68.974 439.616,70.147 439.066,71.619 C437.964,74.57 437.511,78.4 438.924,81.085 C440.291,83.679 443.491,87.995 444.679,83.92 C445.255,81.942 445.8,82.046 447.708,83.395 C450.585,85.424 449.881,81.724 450.459,80.629 C450.866,79.861 451.365,79.563 453.736,81.127 C455.101,82.015 455.539,80.809 455.945,79.12 C457.197,73.903 454.732,72.619 452.296,72.129 C450.522,71.773 448.658,72.07 448.658,72.07 C452.539,66.151 453.019,62.921 448.662,59.925 C449.311,59.598 449.843,59.777 450.4,60.011 C451.472,60.464 452.369,61.288 452.936,62.288 C453.539,63.35 454.524,65.72 452.525,69.931 C453.363,69.931 456.579,70.134 458.032,73.435 C459.935,74.05 472.246,75.027 477.622,74.158 C479.576,73.843 480.459,72.077 482.41,70.261 C484.537,68.279 487.009,66.128 489.216,67.74 C485.458,69.281 482.809,72.205 482.809,75.911 C482.809,78.695 483.957,79.811 485.949,81.466 C487.748,82.964 488.305,85.338 488.965,87.185 C489.806,89.534 491.576,89.608 491.969,87.378 C492.512,84.293 493.444,84.867 494.637,86.183 C496.088,87.78 497.218,87.536 497.222,85.237 C497.226,83.061 497.877,81.986 500.31,84.501 C501.296,85.522 502.486,85.484 502.466,83.262 C502.443,80.547 503.662,80.809 505.182,81.971 C505.71,82.376 506.079,82.667 506.364,82.653 C507.561,82.588 508.349,80.261 507.427,78.42 C506.968,77.501 506.298,76.125 500.088,74.846 C498.054,74.427 498.402,73.015 498.402,73.015 C513.563,73.75 526.416,71.845 534.865,66.708 C545.25,69.212 560.444,69.451 565.429,69.386 C570.412,69.326 574.222,69.1 577.344,67.603 C580.634,66.023 580.14,63.622 578.619,62.667 Z" id="Fill-3" fill="#121413" mask="url(#mask-2)"></path> </g> </g> </g> </svg> 