<?xml version="1.0" encoding="UTF-8"?> <svg xmlns="http://www.w3.org/2000/svg" xmlns:xlink="http://www.w3.org/1999/xlink" width="602px" height="205px" viewBox="0 0 602 205"> <!-- Generator: Sketch 52.6 (67491) - http://www.bohemiancoding.com/sketch --> <title>logo-white</title> <desc>Created with Sketch.</desc> <g id="Page-1" stroke="none" stroke-width="1" fill="none" fill-rule="evenodd"> <g id="Artboard" transform="translate(-347.000000, -310.000000)" fill="#000000"> <g id="logo-white" transform="translate(347.000000, 310.000000)"> <path d="M327.862,193.696 C321.728,193.696 316.858,191.842 313.251,188.134 C309.644,184.426 307.84,179.213 307.84,172.492 C307.84,166.011 309.649,160.843 313.265,156.988 C316.881,153.133 321.756,151.206 327.891,151.206 C329.52,151.206 330.985,151.299 332.285,151.481 C333.586,151.664 334.83,151.92 336.02,152.25 C336.955,152.524 337.97,152.9 339.069,153.376 C340.168,153.853 341.056,154.265 341.733,154.612 L341.733,164.362 L340.69,164.362 C340.195,163.923 339.573,163.397 338.822,162.783 C338.071,162.17 337.219,161.57 336.268,160.984 C335.315,160.398 334.267,159.899 333.122,159.487 C331.977,159.075 330.783,158.869 329.538,158.869 C328.055,158.869 326.695,159.102 325.459,159.569 C324.224,160.037 323.047,160.846 321.93,162.001 C320.905,163.044 320.067,164.454 319.417,166.23 C318.767,168.006 318.442,170.102 318.442,172.519 C318.442,175.065 318.78,177.203 319.458,178.933 C320.136,180.662 321.023,182.059 322.122,183.121 C323.184,184.146 324.37,184.888 325.679,185.346 C326.989,185.804 328.293,186.033 329.593,186.033 C330.948,186.033 332.239,185.808 333.466,185.36 C334.693,184.911 335.727,184.412 336.57,183.863 C337.485,183.296 338.291,182.718 338.987,182.133 C339.682,181.547 340.287,181.026 340.799,180.568 L341.733,180.568 L341.733,190.181 C340.982,190.529 340.113,190.927 339.125,191.375 C338.136,191.824 337.119,192.204 336.076,192.515 C334.794,192.9 333.595,193.193 332.477,193.394 C331.359,193.595 329.821,193.696 327.862,193.696 Z" id="Path"></path> <path d="M357.114,157.661 L346.951,157.661 L346.951,150.163 L357.114,150.163 L357.114,157.661 Z M356.839,192.899 L347.227,192.899 L347.227,162.055 L356.839,162.055 L356.839,192.899 Z" id="Shape" fill-rule="nonzero"></path> <path d="M376.01,193.504 C372.092,193.504 369.24,192.698 367.455,191.087 C365.669,189.476 364.776,186.839 364.776,183.177 L364.776,168.757 L361.096,168.757 L361.096,162.056 L364.776,162.056 L364.776,153.24 L374.389,153.24 L374.389,162.056 L383.645,162.056 L383.645,168.757 L374.389,168.757 L374.389,179.689 C374.389,180.769 374.398,181.712 374.416,182.518 C374.434,183.324 374.581,184.047 374.855,184.688 C375.112,185.329 375.565,185.837 376.214,186.212 C376.864,186.587 377.812,186.774 379.057,186.774 C379.57,186.774 380.243,186.665 381.076,186.445 C381.909,186.225 382.491,186.024 382.82,185.841 L383.644,185.841 L383.644,192.625 C382.6,192.899 381.493,193.114 380.321,193.271 C379.15,193.426 377.713,193.504 376.01,193.504 Z" id="Path"></path> <polygon id="Path" points="416.357 162.056 400.784 204.215 390.457 204.215 395.126 192.158 383.811 162.055 393.918 162.055 400.399 181.391 406.469 162.055 416.357 162.055"></polygon> <path d="M471.151,190.564 C469.356,191.297 467.026,192.011 464.161,192.707 C461.295,193.402 458.471,193.751 455.687,193.751 C449.26,193.751 444.138,191.897 440.32,188.189 C436.503,184.481 434.593,179.221 434.593,172.41 C434.593,166.002 436.502,160.865 440.32,157.002 C444.138,153.139 449.361,151.206 455.99,151.206 C459.414,151.206 462.197,151.532 464.34,152.182 C466.482,152.832 468.697,153.715 470.986,154.832 L470.986,164.418 L470.052,164.418 C469.557,164.033 468.847,163.488 467.923,162.783 C466.998,162.079 466.097,161.478 465.218,160.984 C464.192,160.398 463.007,159.895 461.66,159.473 C460.314,159.052 458.89,158.841 457.389,158.841 C455.631,158.841 454.029,159.115 452.582,159.665 C451.136,160.214 449.845,161.057 448.71,162.191 C447.629,163.29 446.773,164.682 446.142,166.366 C445.51,168.052 445.195,170.011 445.195,172.244 C445.195,177.023 446.393,180.548 448.793,182.818 C451.191,185.089 454.469,186.224 458.626,186.224 C458.991,186.224 459.422,186.214 459.916,186.197 C460.411,186.178 460.841,186.151 461.207,186.114 L461.207,178.094 L453.269,178.094 L453.269,170.431 L471.15,170.431 L471.15,190.564 L471.151,190.564 Z" id="Path"></path> <path d="M506.994,192.899 L497.381,192.899 L497.381,189.494 C495.715,190.886 494.186,191.942 492.794,192.666 C491.402,193.389 489.746,193.751 487.823,193.751 C484.764,193.751 482.38,192.785 480.668,190.854 C478.956,188.923 478.101,186.015 478.101,182.133 L478.101,162.056 L487.769,162.056 L487.769,177.354 C487.769,178.948 487.81,180.248 487.892,181.254 C487.974,182.26 488.171,183.112 488.483,183.809 C488.776,184.45 489.229,184.935 489.842,185.264 C490.455,185.594 491.312,185.759 492.41,185.759 C493.087,185.759 493.889,185.594 494.813,185.264 C495.737,184.935 496.593,184.487 497.38,183.918 L497.38,162.056 L506.993,162.056 L506.993,192.899 L506.994,192.899 Z" id="Path"></path> <path d="M524.242,157.661 L514.079,157.661 L514.079,150.163 L524.242,150.163 L524.242,157.661 Z M523.967,192.899 L514.355,192.899 L514.355,162.055 L523.967,162.055 L523.967,192.899 Z" id="Shape" fill-rule="nonzero"></path> <path d="M559.371,192.899 L549.759,192.899 L549.759,189.685 C549.136,190.199 548.426,190.747 547.63,191.333 C546.833,191.919 546.133,192.358 545.528,192.651 C544.759,193.017 544,193.292 543.249,193.475 C542.498,193.658 541.601,193.749 540.558,193.749 C537.042,193.749 534.258,192.293 532.208,189.382 C530.157,186.471 529.132,182.58 529.132,177.709 C529.132,175.018 529.48,172.683 530.175,170.705 C530.871,168.727 531.832,167.007 533.06,165.542 C534.176,164.205 535.532,163.147 537.124,162.369 C538.716,161.591 540.401,161.202 542.178,161.202 C543.789,161.202 545.113,161.371 546.147,161.71 C547.181,162.049 548.385,162.575 549.759,163.289 L549.759,150.161 L559.371,150.161 L559.371,192.899 Z M549.759,184.385 L549.759,169.251 C549.282,169.014 548.66,168.816 547.891,168.661 C547.122,168.506 546.463,168.428 545.913,168.428 C543.606,168.428 541.871,169.234 540.708,170.845 C539.545,172.456 538.964,174.708 538.964,177.601 C538.964,180.641 539.427,182.838 540.352,184.193 C541.276,185.548 542.773,186.226 544.842,186.226 C545.684,186.226 546.535,186.061 547.397,185.731 C548.257,185.401 549.044,184.953 549.759,184.385 Z" id="Shape" fill-rule="nonzero"></path> <path d="M582.524,193.724 C576.701,193.724 572.238,192.332 569.134,189.549 C566.03,186.766 564.478,182.802 564.478,177.656 C564.478,172.621 565.924,168.601 568.818,165.598 C571.712,162.595 575.757,161.093 580.958,161.093 C585.683,161.093 589.234,162.366 591.615,164.911 C593.995,167.456 595.185,171.1 595.185,175.842 L595.185,179.303 L574.119,179.303 C574.211,180.732 574.513,181.926 575.025,182.887 C575.538,183.849 576.215,184.614 577.058,185.181 C577.881,185.748 578.843,186.156 579.942,186.403 C581.041,186.651 582.24,186.774 583.54,186.774 C584.657,186.774 585.756,186.651 586.836,186.403 C587.916,186.156 588.905,185.832 589.803,185.428 C590.59,185.08 591.318,184.705 591.987,184.302 C592.655,183.9 593.199,183.542 593.621,183.231 L594.638,183.231 L594.638,191.169 C593.85,191.481 593.131,191.769 592.482,192.034 C591.832,192.3 590.939,192.57 589.804,192.845 C588.76,193.119 587.684,193.334 586.576,193.491 C585.467,193.646 584.117,193.724 582.524,193.724 Z M585.71,173.509 C585.655,171.477 585.184,169.929 584.296,168.867 C583.407,167.805 582.048,167.274 580.217,167.274 C578.35,167.274 576.889,167.833 575.836,168.949 C574.783,170.066 574.202,171.586 574.092,173.509 L585.71,173.509 Z" id="Shape" fill-rule="nonzero"></path> <path d="M468.64,125.603 C470.146,128.947 471.223,132.126 472.924,134.927 C475.244,138.745 478.721,140.826 483.439,139.889 C490.77,138.433 493.549,132.217 490.751,124.459 C488.23,117.471 484.734,110.438 484.155,103.225 C482.854,87.003 483.081,70.659 482.717,54.364 C482.606,49.411 477.892,44.273 473.196,44.097 C467.587,43.888 463.092,47.412 462.83,53.155 C462.231,66.281 461.994,79.426 461.766,92.565 C461.642,99.667 459.659,106.003 454.83,111.273 C447.894,118.844 439.077,120.648 429.75,117.699 C420.499,114.774 413.621,108.619 412.945,98.21 C412.214,86.936 412.341,75.607 411.966,64.307 C411.819,59.832 411.698,55.297 410.834,50.935 C410.445,48.974 408.615,46.776 406.829,45.706 C399.385,41.249 391.484,45.686 391.249,54.831 C390.889,68.805 390.545,82.844 391.471,96.769 C392.596,113.704 401.185,126.568 416.278,134.669 C434.031,144.198 457.633,140.123 468.64,125.603 Z" id="Path"></path> <path d="M303.854,139.497 C319.507,139.414 333.889,127.97 337.837,111.502 C339.645,103.963 340.014,96.066 340.856,88.313 C342.338,74.663 348.697,67.482 362.251,64.417 C368.871,62.92 372.879,57.901 371.775,52.489 C370.572,46.586 365.123,42.873 358.507,44.069 C341.16,47.206 328.188,56.155 323.123,73.653 C320.794,81.701 320.051,90.259 319.11,98.645 C317.678,111.419 312.839,117.545 302.05,119.246 C294.665,120.41 291.446,124.141 292.013,130.879 C292.483,136.448 296.723,139.534 303.854,139.497 Z" id="Path"></path> <path d="M247.383,139.714 C264.93,139.272 279.184,126.607 282.842,107.603 C284.122,100.952 284.097,94.059 284.947,87.313 C286.637,73.901 293.414,66.872 306.719,64.384 C312.21,63.358 316.496,58.034 315.864,53.029 C315.154,47.421 309.512,42.954 303.533,43.929 C285.753,46.828 272.46,55.843 267.064,73.625 C264.73,81.316 263.853,89.567 263.241,97.635 C262.408,108.602 258.029,118.171 244.679,119.664 C238.268,120.381 235.385,124.919 236.029,130.935 C236.617,136.445 241.052,139.874 247.383,139.714 Z" id="Path"></path> <path d="M372.955,114.27 C365.872,114.262 360.755,119.382 360.743,126.49 C360.73,133.82 366.175,139.566 372.968,139.394 C379.315,139.234 385.733,132.956 385.683,126.956 C385.625,119.996 379.888,114.276 372.955,114.27 Z" id="Path"></path> <path d="M0,95.5 C1.979,93.829 3.745,91.756 5.982,90.573 C10.226,88.33 15.107,89.707 17.814,93.81 C19.252,95.99 20.145,98.558 21.101,101.022 C26.232,114.253 38.991,121.246 52.805,118.335 C64.996,115.767 73.849,103.251 72.961,89.844 C71.818,72.591 53.138,61.415 36.017,67.757 C34.46,68.333 32.974,69.101 31.412,69.659 C25.901,71.627 20.951,69.973 18.493,65.401 C15.77,60.338 17,54.507 22.227,51.529 C37.892,42.604 53.896,42.355 69.741,51.043 C81.408,57.44 88.504,67.703 92.815,80.058 C93.085,80.831 93.226,81.691 93.227,82.51 C93.267,102.484 94.012,122.49 93.115,142.423 C91.962,168.059 72.847,185.286 47.076,185.813 C30.875,186.144 18.003,179.917 8.199,167.195 C5.654,163.893 4.375,160.181 6.516,156.049 C9.903,149.513 17.962,148.151 23.177,153.452 C28.499,158.862 33.983,163.614 41.923,164.952 C58.033,167.667 72.399,156.286 72.998,139.928 C73.101,137.115 73.013,134.293 73.013,131.888 C68.015,134.051 63.142,137.05 57.856,138.297 C33.844,143.961 11.88,132.471 2.183,109.719 C1.564,108.267 0.733,106.905 0.001,105.501 C0,102.167 0,98.833 0,95.5 Z" id="Path"></path> <path d="M602,133.5 C599.155,137.236 596.043,141.011 590.81,140.219 C585.178,139.367 582.083,135.154 580.041,130.131 C579.436,128.642 578.851,127.145 577.972,124.935 C571.599,132.846 563.583,136.711 554.407,138.619 C530.947,143.496 508.268,131.266 500.191,109.252 C491.819,86.432 500.891,62.083 522.037,50.625 C552.97,33.863 590.261,55.099 591.933,90.46 C592.553,103.565 595.515,116.005 602.001,127.501 C602,129.5 602,131.5 602,133.5 Z M543.981,118.785 C560.321,118.418 571.621,107.08 571.273,91.4 C570.957,77.14 558.618,65.484 544.148,65.774 C529.138,66.075 517.849,78.37 517.946,93.863 C518.022,105.877 530.605,120.063 543.981,118.785 Z" id="Shape" fill-rule="nonzero"></path> <path d="M116,0.5 C120.766,2.652 123.454,5.878 123.408,11.572 C123.315,22.877 123.866,34.185 123.975,45.494 C124.148,63.471 124.185,81.448 124.262,99.426 C124.312,111.184 129.774,117.383 141.316,119.628 C144.523,120.252 148.259,121.681 150.311,124.01 C155.211,129.572 152.142,137.711 144.793,139.567 C137.657,141.369 130.79,139.671 124.573,136.265 C112.009,129.384 104.425,118.699 104.109,104.23 C103.436,73.451 103.421,42.658 103.069,11.872 C103.003,6.085 106.206,2.789 111,0.5 C112.667,0.5 114.333,0.5 116,0.5 Z" id="Path"></path> <path d="M239.266,93.155 C239.08,119.318 217.811,140.046 191.445,139.758 C164.963,139.469 144.515,118.339 144.737,91.488 C144.952,65.33 166.238,44.565 192.607,44.792 C218.824,45.017 239.456,66.4 239.266,93.155 Z M192.182,66.409 C177.846,64.474 165.631,77.671 165.306,92.224 C164.986,106.561 177.315,118.456 191.885,118.87 C206.31,119.28 219.106,106.326 218.446,91.992 C217.752,76.915 207.599,66.411 192.182,66.409 Z" id="Shape" fill-rule="nonzero"></path> <path d="M468.64,125.603 C457.633,140.124 434.032,144.199 416.279,134.669 C401.186,126.567 392.597,113.703 391.472,96.769 C390.546,82.843 390.89,68.804 391.25,54.831 C391.485,45.686 399.386,41.249 406.83,45.706 C408.616,46.775 410.446,48.974 410.835,50.935 C411.699,55.297 411.819,59.832 411.967,64.307 C412.341,75.608 412.214,86.936 412.946,98.21 C413.622,108.619 420.5,114.774 429.751,117.699 C439.078,120.648 447.896,118.845 454.831,111.273 C459.659,106.002 461.643,99.667 461.767,92.565 C461.996,79.425 462.233,66.281 462.831,53.155 C463.093,47.413 467.588,43.888 473.197,44.097 C477.892,44.273 482.606,49.41 482.718,54.364 C483.082,70.659 482.856,87.004 484.156,103.225 C484.735,110.438 488.23,117.471 490.752,124.459 C493.55,132.217 490.771,138.433 483.44,139.889 C478.722,140.827 475.246,138.745 472.925,134.927 C471.223,132.126 470.146,128.946 468.64,125.603 Z" id="Path"></path> <path d="M303.854,139.497 C296.723,139.534 292.484,136.448 292.015,130.878 C291.448,124.14 294.667,120.409 302.052,119.245 C312.84,117.545 317.68,111.419 319.112,98.644 C320.052,90.258 320.796,81.7 323.125,73.652 C328.189,56.154 341.162,47.205 358.509,44.068 C365.124,42.872 370.573,46.585 371.777,52.488 C372.881,57.9 368.873,62.919 362.253,64.416 C348.699,67.481 342.341,74.662 340.858,88.312 C340.016,96.066 339.647,103.962 337.839,111.501 C333.889,127.97 319.507,139.414 303.854,139.497 Z" id="Path"></path> <path d="M247.383,139.714 C241.052,139.874 236.617,136.445 236.028,130.936 C235.384,124.919 238.267,120.381 244.678,119.665 C258.029,118.172 262.408,108.603 263.24,97.636 C263.852,89.569 264.729,81.318 267.063,73.626 C272.459,55.844 285.751,46.829 303.532,43.93 C309.511,42.954 315.153,47.421 315.863,53.03 C316.496,58.036 312.21,63.359 306.718,64.385 C293.412,66.872 286.636,73.902 284.946,87.314 C284.096,94.06 284.121,100.953 282.841,107.604 C279.184,126.606 264.93,139.271 247.383,139.714 Z" id="Path"></path> <path d="M372.955,114.27 C379.888,114.277 385.625,119.997 385.683,126.957 C385.733,132.957 379.315,139.234 372.968,139.395 C366.175,139.567 360.731,133.821 360.743,126.491 C360.755,119.382 365.872,114.262 372.955,114.27 Z" id="Path"></path> </g> </g> </g> </svg> 