<?xml version="1.0" encoding="UTF-8"?> <svg xmlns="http://www.w3.org/2000/svg" width="119" height="74" viewBox="0 0 119 74" fill="none"> <path d="M47.3194 47.6979C39.4308 45.8975 33.6355 41.1065 29.0243 34.596C23.8376 27.1478 20.4236 18.8689 17.8895 10.199C17.092 7.58285 16.404 4.94379 15.5583 2.31471C15.3293 1.62661 14.8723 0.825197 14.2978 0.462345C13.903 0.199895 13.0714 0.603793 12.4758 0.70534C12.5772 1.09812 12.6305 1.47797 12.745 1.82202C13.0403 2.84125 13.4099 3.77593 13.5957 4.81805C14.2104 8.11642 14.7156 11.4377 15.3785 14.749C15.8205 16.9565 16.3588 19.1899 17.0197 21.3516C17.4295 22.7149 18.229 23.9737 18.7483 25.3141C19.5669 27.4658 20.044 29.735 21.0464 31.7793C22.5721 34.9562 24.146 38.146 26.1618 41.0364C30.6193 47.3491 36.5975 51.4579 44.2841 53.0475C47.8688 53.7468 51.353 54.6282 55.0452 54.1552C55.47 54.1123 56.0797 54.5368 56.3388 54.9196C59.1361 58.7506 62.8293 61.3592 67.2958 62.8172C70.6183 63.9163 73.963 65.1259 77.4332 65.4812C80.2987 65.779 83.351 65.1867 86.2588 64.5557C88.838 63.9933 91.3289 62.9895 93.7716 61.9727C97.2297 60.4446 100.051 58.0147 102.267 54.9524C102.59 54.5168 102.501 53.5005 102.233 52.9586C101.942 52.3063 101.237 52.4308 100.484 52.5423C98.0533 52.9356 96.5759 54.7855 94.9487 56.2297C91.7819 58.9849 88.0164 60.1172 84.0652 60.2075C77.2664 60.3182 71.2079 57.8592 65.7209 54.0387C62.769 51.9421 62.7951 51.8446 65.8454 50.1028C69.8148 47.8238 72.604 44.5496 73.5772 39.9532C74.6981 34.6129 71.3866 29.8085 66.0753 28.8032C64.4101 28.4615 63.027 29.1877 61.6922 29.9268C58.6549 31.6199 56.5085 34.2306 55.1385 37.415C53.7294 40.7456 52.719 44.1308 53.4833 47.8349C53.6601 48.7179 53.183 48.9557 52.3504 48.7848C50.6148 48.3198 48.9364 48.0267 47.3194 47.6979ZM59.6312 38.7755C60.3122 37.3912 60.9449 35.9939 61.6259 34.6095C62.0668 33.7353 62.6976 33.6954 63.5614 34.1358C66.2361 35.5314 67.6784 38.6337 67.1099 41.7195C66.5113 45.1106 64.0345 46.6405 61.2373 47.8235C61.0052 47.918 60.3956 47.4935 60.2198 47.1852C58.8789 44.4757 59.0055 41.6893 59.6312 38.7755ZM37.7083 45.3838C37.634 45.4683 37.5597 45.5528 37.4853 45.6374C35.7307 44.2793 34.0373 42.8855 32.2826 41.5275C32.37 41.3942 32.5055 41.2738 32.5929 41.1406C34.3345 42.5473 36.028 43.9412 37.7083 45.3838ZM64.6894 55.3814C64.602 55.5147 64.5277 55.5992 64.4403 55.7325C63.453 54.7889 62.4305 53.7838 61.4432 52.8403C61.5788 52.7199 61.6661 52.5867 61.7887 52.515C62.7408 53.3969 63.7151 54.3891 64.6894 55.3814Z" fill="black"></path> <path d="M111.155 56.498C111.71 53.461 112.173 50.1902 112.939 46.9482C113.191 45.8146 113.816 44.8329 112.767 43.9252C112.565 43.7145 112.232 43.4162 112.013 43.462C108.413 44.1687 104.881 43.2744 101.306 43.3089C98.9315 43.2995 96.5842 43.7673 94.6638 45.3418C94.2701 45.6542 94.1486 46.3006 93.8734 46.7491C94.3294 46.9757 94.7814 47.4102 95.2896 47.4419C98.8341 47.7127 102.392 47.9348 105.927 48.0465C107.053 48.087 107.128 48.5772 106.977 49.5289C106.691 51.7505 106.551 54.0109 106.314 56.2454C106.21 57.21 105.914 58.1229 105.666 59.0488C105.64 59.1463 105.53 59.1691 105.504 59.2666C105.466 59.9876 105.175 61.2674 105.451 61.3937C106.183 61.7466 107.2 61.81 107.979 61.601C110.475 60.9641 110.388 58.5904 111.155 56.498Z" fill="black"></path> </svg> 