<?xml version="1.0" encoding="UTF-8"?> <svg xmlns="http://www.w3.org/2000/svg" width="208" height="61" viewBox="0 0 208 61" fill="none"> <path d="M174.865 17.6289C174.665 15.3289 177.065 14.0289 175.365 11.8289C174.665 10.9289 176.365 10.5289 176.965 9.9289C180.265 6.4289 184.065 3.4289 187.965 0.628897C189.665 -0.471103 191.965 0.0288966 193.865 0.928897C194.365 1.1289 194.865 1.5289 194.565 2.2289C194.265 3.1289 193.665 2.3289 193.165 2.4289C192.565 2.5289 191.865 2.4289 191.365 3.1289C192.765 4.3289 193.965 5.8289 196.165 5.9289C197.665 6.0289 197.265 7.7289 197.365 8.5289C197.465 10.3289 198.665 10.8289 199.665 11.8289C200.665 12.7289 201.065 14.0289 202.865 13.3289C203.565 13.0289 204.765 13.5289 205.265 14.6289C204.365 15.5289 203.565 14.6289 202.765 14.3289C202.265 16.7289 204.065 16.5289 205.365 16.9289C206.065 17.1289 206.965 17.0289 207.065 18.0289C207.165 19.1289 205.765 18.5289 205.465 19.4289C207.465 19.9289 208.165 21.1289 205.965 22.1289C204.465 22.8289 205.765 24.5289 204.165 24.9289C204.265 23.9289 203.565 23.1289 203.065 22.2289C201.765 22.8289 203.165 23.8289 202.765 24.5289C201.365 24.6289 200.965 22.6289 199.365 23.4289C199.765 22.2289 202.565 21.1289 199.165 21.0289C198.065 21.0289 197.465 18.9289 195.865 20.2289C195.465 20.5289 195.365 19.6289 195.365 19.3289C195.265 17.1289 193.565 15.9289 191.965 16.0289C190.065 16.0289 187.365 14.9289 186.265 18.1289C185.965 18.9289 185.165 19.5289 184.465 20.1289C183.465 21.0289 182.165 21.4289 182.665 23.4289C182.965 24.4289 181.765 26.1289 179.765 25.6289C177.865 25.1289 176.665 25.8289 176.765 27.8289C176.865 29.1289 176.265 28.4289 175.765 28.7289C173.665 29.7289 170.965 27.5289 169.165 30.2289C168.265 31.5289 167.665 32.1289 169.965 32.2289C167.165 33.0289 164.365 33.8289 161.665 34.7289C159.865 35.3289 158.765 34.5289 157.865 33.2289C157.365 32.6289 157.365 31.9289 156.165 32.1289C154.965 32.3289 153.965 31.1289 153.665 30.0289C153.065 28.1289 151.665 26.8289 150.565 25.3289C149.265 23.5289 147.665 23.6289 146.465 25.0289C143.665 28.5289 139.565 30.8289 136.965 34.5289C135.865 36.0289 133.065 35.7289 132.965 38.3289C132.265 38.3289 131.565 38.1289 130.865 38.2289C129.365 38.5289 127.865 38.9289 126.365 39.4289C125.065 39.8289 123.965 39.8289 123.765 37.6289C123.465 40.2289 122.165 40.2289 120.365 39.6289C119.765 39.4289 118.665 39.6289 118.765 38.8289C118.765 38.4289 119.565 37.3289 120.565 37.8289C121.365 38.2289 122.065 38.4289 122.065 37.2289C122.065 35.9289 120.865 36.6289 120.365 36.7289C116.565 37.3289 113.765 36.0289 111.865 32.6289C111.065 31.2289 109.465 31.0289 108.065 31.5289C103.665 33.3289 98.9655 35.4289 96.0655 39.1289C94.2655 41.5289 91.7655 42.9289 89.8655 45.1289C88.2655 47.0289 85.7655 48.0289 84.2655 50.3289C82.9655 52.3289 76.9655 52.0289 75.4655 50.0289C72.6655 46.3289 68.4655 43.7289 67.0655 38.9289C66.6655 37.6289 65.7655 37.9289 64.9655 38.4289C63.3655 39.3289 61.8655 40.2289 60.2655 41.1289C59.4655 41.6289 58.7655 42.4289 57.5655 41.8289C56.3655 41.2289 55.9655 42.6289 55.3655 43.3289C55.0655 43.7289 55.3655 44.8289 54.8655 44.7289C52.1655 44.3289 52.3655 47.2289 50.7655 48.1289C49.7655 48.7289 49.7655 48.7289 48.0655 48.6289C47.5655 48.6289 46.9655 49.1289 46.4655 49.5289C42.9655 52.5289 39.0655 54.8289 34.5655 56.1289C32.5655 56.7289 31.4655 56.2289 30.6655 54.8289C29.0655 52.0289 26.4655 50.2289 24.3655 47.9289C23.6655 47.1289 23.0655 46.9289 22.2655 47.9289C19.6655 51.4289 16.5655 54.4289 12.8655 56.8289C12.0655 57.3289 12.3655 58.9289 11.3655 59.1289C8.96549 59.7289 6.56549 60.1289 4.06549 60.5289C3.46549 60.6289 3.06549 60.1289 3.46549 59.4289C3.76549 58.7289 3.56549 58.2289 2.76549 58.0289C-0.234514 57.1289 -0.834514 54.7289 1.16549 52.1289C4.16549 48.4289 7.26549 44.7289 10.2655 41.0289C13.2655 37.3289 16.2655 33.6289 19.2655 29.9289C20.2655 28.6289 21.3655 27.3289 22.7655 26.5289C24.3655 25.5289 26.5655 25.2289 27.3655 26.8289C28.9655 29.8289 31.8655 31.9289 32.5655 35.4289C33.0655 37.6289 33.8655 36.9289 35.0655 36.0289C42.7655 30.4289 50.2655 25.1289 59.0655 22.1289C59.2655 22.0289 59.3655 22.0289 59.5655 21.9289C69.9655 18.6289 71.2655 21.0289 75.2655 29.5289C77.2655 33.7289 76.1655 34.2289 80.5655 30.7289C85.0655 27.1289 89.1655 22.9289 94.0655 19.7289C98.0655 17.1289 101.965 14.5289 107.165 15.3289C110.965 15.9289 113.565 18.3289 115.965 20.9289C119.965 25.2289 123.865 24.2289 127.965 21.0289C132.465 17.5289 136.665 13.7289 140.965 10.1289C146.065 5.9289 149.065 6.5289 153.165 12.3289C154.065 13.6289 154.665 15.0289 155.665 16.2289C157.965 19.0289 160.765 19.3289 163.865 17.6289C166.865 16.0289 169.965 14.7289 172.765 12.7289C173.165 12.4289 173.665 11.5289 174.265 12.3289C174.665 12.9289 174.265 13.5289 173.965 14.1289C173.265 15.6289 173.265 15.6289 174.865 17.6289ZM184.565 14.1289C185.465 12.7289 185.965 11.9289 184.165 10.8289C183.265 10.2289 181.465 10.1289 181.465 8.2289C181.465 7.9289 180.865 8.1289 180.565 8.3289C180.365 8.5289 179.765 8.4289 180.165 9.0289C181.465 10.9289 180.465 12.1289 178.865 13.4289C180.165 13.1289 181.365 14.7289 182.565 13.1289C182.865 12.7289 182.265 11.3289 183.465 11.7289C184.365 12.1289 184.565 13.0289 184.565 14.1289ZM65.0655 25.4289C64.9655 25.2289 64.8655 24.9289 64.8655 24.7289C60.9655 24.6289 57.6655 26.2289 54.6655 28.6289C58.0655 27.5289 61.5655 26.4289 65.0655 25.4289ZM167.265 19.4289C164.865 20.0289 163.165 21.1289 161.265 21.1289C160.665 21.1289 159.765 21.2289 159.965 22.0289C160.065 22.6289 160.865 22.7289 161.565 22.7289C163.965 23.0289 165.665 21.9289 167.265 19.4289ZM168.865 19.4289C170.665 18.7289 173.365 19.9289 172.565 16.3289C171.165 17.0289 169.465 17.3289 168.865 19.4289ZM178.165 19.1289C176.465 20.5289 175.165 21.6289 173.765 22.6289C173.565 22.8289 172.665 22.2289 173.165 23.1289C173.265 23.3289 173.965 23.5289 174.065 23.5289C175.165 22.0289 177.765 22.0289 178.165 19.1289ZM59.6655 40.5289C61.8655 39.3289 63.9655 38.1289 66.1655 36.9289C63.5655 37.2289 61.4655 38.5289 59.6655 40.5289Z" fill="#C3D2E7"></path> </svg> 