<?xml version="1.0" encoding="UTF-8"?> <svg xmlns="http://www.w3.org/2000/svg" width="186" height="207" viewBox="0 0 186 207" fill="none"> <path d="M178.581 120.166C178.731 120.265 178.981 120.365 178.981 120.515C178.931 122.757 180.28 124.651 180.68 126.794C181.129 129.186 181.679 131.628 182.178 134.02C182.977 137.558 183.577 141.147 183.926 144.785C184.276 148.423 184.726 152.061 184.776 155.699C184.876 162.825 184.026 169.852 181.828 176.68C181.129 178.872 180.18 181.015 179.181 183.059C178.132 185.202 176.733 187.245 175.484 189.338C174.385 191.182 172.987 192.677 171.688 194.272C170.339 195.966 168.541 197.262 166.793 198.608C163.196 201.448 159.2 203.541 154.704 204.638C150.708 205.634 146.662 206.581 142.516 206.83C134.523 207.329 126.581 206.781 118.888 204.488C107.998 201.249 98.3074 195.767 89.3659 188.84C78.3763 180.268 69.8343 169.454 61.4922 158.49C54.7486 149.619 47.2557 141.496 39.1134 133.871C31.4706 126.644 22.8787 120.614 14.5366 114.235C10.2407 110.946 6.19452 107.208 3.49707 102.374C1.49896 98.7363 0.350049 94.8491 0.150238 90.7127C-0.149478 85.1311 -0.0495727 79.5993 0.89953 74.0675C0.949482 73.6688 0.89953 73.1206 1.49896 72.9711C1.79868 72.8714 1.79868 72.5724 1.69877 72.4229C0.499908 70.8282 1.14929 68.9842 1.2492 67.3397C1.44901 62.8046 2.04844 58.3194 3.49707 53.9836C3.64693 53.5849 3.64693 53.1364 4.39622 53.0367C3.9966 56.1764 2.74778 59.1666 2.74778 62.3062C4.34627 53.5351 7.29348 45.2623 12.8382 37.8866C11.989 38.385 10.5904 40.1791 9.89103 41.425C8.74211 43.5181 7.54325 45.5614 6.44429 47.7043C5.7949 49 5.49518 50.3954 4.9457 51.741C4.79584 52.04 4.79584 52.7377 4.24636 52.5384C3.74684 52.3889 3.9966 51.7908 4.14646 51.4918C5.44523 48.6013 6.44429 45.6112 7.99282 42.8204C10.6903 37.9863 14.137 33.8001 18.6328 30.4611C22.0795 27.9194 25.726 26.0257 29.972 24.9293C35.5667 23.484 40.7119 24.7299 46.0069 26.1752C50.4027 27.3712 54.3989 29.6139 58.8447 30.6106C62.791 31.5076 66.7373 31.3083 70.7335 30.8099C76.1783 30.162 80.9239 27.8696 85.4696 24.9293C87.4677 23.6335 89.3659 22.2381 91.314 20.9424C91.8635 20.5935 92.413 19.8958 93.1623 20.6932C93.2622 20.7929 93.5619 20.7929 93.6118 20.5935C93.8616 19.9457 93.3121 20.5437 93.2122 20.3444C92.7627 19.7962 93.2622 19.5968 93.5619 19.3975C95.3102 18.1516 97.1085 16.9057 98.8569 15.61C103.453 12.3208 108.198 9.23095 113.243 6.63948C115.042 5.6926 116.84 4.59621 118.888 4.24736C119.437 4.14769 120.486 3.35031 120.986 4.64605C121.336 4.39687 121.485 4.04801 121.535 3.64933C121.635 3.15097 121.985 2.80212 122.485 3.10113C122.884 3.35031 123.034 3.2008 123.234 2.95162C123.733 2.35359 124.183 1.75556 124.583 3.0513C125.182 2.85195 126.031 2.80212 126.231 2.40343C126.83 1.35687 127.829 1.55622 128.529 1.65589C129.528 1.75556 130.827 0.858514 131.576 2.70244C131.376 0.65917 131.376 0.609334 133.374 0.360155C142.566 -0.636564 151.457 0.360155 159.949 4.29719C168.541 8.33391 175.634 14.065 180.58 22.2381C182.478 25.3778 184.376 28.6171 184.826 32.4047C184.925 33.2519 185.725 33.9994 184.925 34.8466C186.574 36.4414 185.875 38.5843 185.725 40.3286C185.575 41.724 186.174 43.3686 185.175 44.6643C184.975 44.9633 185.275 45.1627 185.425 45.362C185.825 45.9102 185.525 46.7076 185.325 46.8571C184.226 47.505 184.726 48.3522 184.826 49.1994C184.975 50.6945 184.476 52.1895 183.876 53.5351C183.277 54.9803 182.728 56.4754 182.528 58.0203C182.478 58.5187 182.678 59.1666 181.778 59.1167C181.729 59.1167 181.679 59.2164 181.579 59.2662C182.827 59.8643 181.129 60.7613 181.828 61.459C181.878 61.5089 181.928 61.8079 181.878 61.8577C180.38 62.7548 181.179 64.5488 180.28 65.7449C179.78 66.3928 180.28 67.3895 179.83 68.1869C179.78 68.2865 179.88 68.5357 179.83 68.5357C178.532 68.9842 179.081 70.6288 178.082 71.2767C177.632 71.5757 177.832 72.0741 177.932 72.5226C177.982 72.7718 178.581 72.1239 178.332 72.7219C177.932 73.6688 177.932 74.6655 177.682 75.6124C177.333 77.0078 176.583 76.0609 175.884 75.6623C176.434 76.36 176.134 77.4065 177.133 77.8052C177.383 77.9049 177.233 78.1042 177.183 78.2039C176.633 79.7986 176.434 81.4931 176.034 83.1377C175.834 83.8852 175.584 84.6826 175.135 85.3304C174.785 85.8288 174.785 86.377 174.935 86.7258C175.185 87.2242 175.584 87.3239 174.635 87.4734C174.036 87.573 174.735 88.1212 174.835 88.4203C175.035 88.8688 175.335 89.2675 175.035 89.8157C174.735 90.4137 174.186 89.9652 173.736 89.9652C173.936 90.5134 174.435 90.3639 174.685 90.613C174.885 90.8124 175.185 91.0117 174.935 91.2609C173.736 92.3573 174.685 93.354 174.885 94.5002C175.185 96.1947 175.235 97.9389 175.135 99.6832C175.035 101.976 175.634 104.218 175.934 106.461C176.284 109.152 177.183 111.793 177.433 114.484C177.532 115.431 178.232 116.378 178.032 117.325C177.882 118.421 179.031 119.169 178.581 120.166C178.032 119.966 177.582 119.468 176.833 119.468C176.933 119.717 176.933 119.917 177.033 120.066C177.233 120.465 177.233 120.963 176.833 121.063C176.384 121.212 176.334 120.764 176.284 120.365C176.234 119.817 175.784 120.066 175.484 119.917C175.385 120.116 175.534 120.166 175.634 120.265C176.733 121.761 176.733 121.761 177.982 120.465C178.132 120.365 178.382 120.265 178.581 120.166ZM172.387 87.0747C171.688 87.7226 171.438 87.4734 171.488 86.6262C171.538 85.4799 171.738 84.3337 171.838 83.1875C172.138 80.297 172.937 77.4564 173.636 74.6157C173.786 74.1173 173.836 72.8714 175.035 73.6688C175.285 73.2203 175.984 73.6688 176.134 73.021C176.384 72.1737 175.484 72.6721 175.484 72.4229C175.335 71.5757 174.535 70.878 174.785 70.0308C175.185 68.7849 175.484 67.539 175.834 66.2931C176.234 64.8479 176.783 63.4026 177.183 61.9075C177.982 59.1666 178.781 56.4256 179.531 53.6846C179.88 52.2892 180.33 50.8938 180.68 49.4984C181.079 48.0532 181.129 46.4584 181.429 44.9633C182.178 41.0761 182.178 37.1889 181.579 33.3515C180.979 29.265 179.231 25.5273 176.983 22.0388C171.188 12.9188 162.896 7.18768 152.506 4.49654C145.962 2.80212 139.269 3.0513 132.625 4.09785C131.476 4.29719 130.377 4.59621 130.427 2.65261C130.077 3.94834 129.478 4.29719 128.329 3.99818C127.63 3.79883 126.93 4.64605 126.081 4.4467C126.231 5.94178 124.982 4.94506 124.533 5.29391C124.433 5.39358 124.233 5.34375 124.133 5.44342C123.384 6.04145 123.134 5.59293 122.984 4.74572C122.984 6.19096 122.335 6.83883 120.986 6.78899C120.337 6.73916 119.637 7.28735 119.587 7.58637C119.387 8.48341 118.688 8.63292 118.139 8.78243C117.04 9.13128 116.141 9.62964 115.141 10.2775C113.743 11.1746 112.144 11.8723 110.846 12.9188C110.096 13.5168 109.047 13.5667 108.498 14.065C107.699 14.8126 106.55 14.9621 106.05 16.0086C106 16.0585 105.8 16.1083 105.7 16.0585C105.201 15.8093 105.151 15.7595 105.051 16.3077C105.001 16.7562 104.701 17.0054 104.402 17.0552C103.552 17.2047 103.053 18.1018 102.054 18.0519C101.654 18.0021 101.205 18.3011 101.005 18.7995C100.355 20.2945 98.9068 21.0421 97.658 21.8394C95.3602 23.3345 93.0624 24.8794 90.7645 26.3247C88.8164 27.5706 86.9182 28.8663 84.8701 29.9129C82.0228 31.3581 78.9757 32.4545 75.7787 33.1522C68.5356 34.6971 61.4423 34.5476 54.4988 31.9561C50.103 30.3614 45.857 28.4178 41.3113 27.3712C39.2133 26.9227 37.0154 26.3745 34.8674 26.7234C30.6214 27.4211 26.825 29.3148 23.3283 31.7568C22.8288 32.1057 22.3792 33.0027 21.4801 32.2552C21.2303 32.006 21.1803 32.5043 21.1304 32.6538C20.1313 34.8466 18.0833 36.242 16.5347 37.9365C15.2859 39.282 14.3368 40.7771 13.2878 42.2223C11.7892 44.2158 10.7902 46.6079 9.59131 48.8505C9.59131 48.9004 9.44145 48.9004 9.4914 48.9004C8.99188 48.6512 9.84107 48.3522 9.19169 48.0033C9.34155 48.9502 7.89292 49.4984 8.89197 50.5948C8.99188 50.6945 8.84202 51.442 8.19263 51.5417C7.89292 51.5915 7.29348 51.8905 7.64315 52.4387C7.94287 52.9371 7.94287 54.1331 7.54325 54.482C6.94381 54.9305 6.99377 54.9305 7.09367 55.5285C7.14362 55.7279 7.19358 55.9771 7.14362 56.1764C6.39433 58.5685 6.04466 61.0105 5.69499 63.4525C5.44523 65.2466 4.79584 67.0905 5.44523 68.9344C6.04466 70.6288 5.7949 72.3731 5.89481 74.0675C6.04466 76.4098 5.44523 78.6524 5.44523 80.9947C5.44523 83.7855 5.99471 86.5265 6.04466 89.3173C6.14457 94.8989 8.59225 99.7829 11.2398 104.418C13.1879 107.806 16.3849 110.398 19.5819 112.84C25.1266 117.076 30.8712 121.013 36.1662 125.598C41.1115 129.884 45.9569 134.219 50.4527 138.904C55.1482 143.838 59.9936 148.622 63.9899 154.104C69.8343 162.128 76.0784 169.852 82.7721 177.178C89.4658 184.504 97.4083 190.385 106.15 195.219C118.239 201.897 131.076 203.84 144.564 201.548C149.509 200.701 154.404 199.654 158.9 197.063C170.339 190.484 176.134 180.069 178.981 167.709C180.929 159.287 180.38 150.715 179.281 142.193C178.831 138.804 178.781 135.416 177.882 132.077C177.283 129.934 177.233 127.691 176.434 125.548C176.134 124.8 176.583 123.704 176.234 123.056C175.534 121.86 175.385 120.515 174.835 119.269C174.385 118.322 174.785 117.176 174.385 116.279C173.536 114.534 173.386 112.591 172.887 110.797C171.788 106.86 171.638 102.823 171.039 98.836C170.789 97.2412 170.989 95.6963 170.939 94.1016C170.839 91.1612 171.288 89.4668 172.337 87.5232C172.437 87.5232 172.387 87.2242 172.387 87.0747C172.737 87.3737 172.887 88.0714 173.636 87.7226C174.535 87.3239 173.636 86.8255 173.686 86.4268C173.736 86.1278 173.936 85.779 173.336 85.779C172.937 85.779 172.637 85.8786 172.687 86.377C172.787 86.676 172.687 86.9252 172.387 87.0747ZM165.344 194.421C167.692 192.478 170.139 190.634 171.538 187.793C169.59 190.135 167.592 192.378 165.344 194.421ZM183.427 42.8702C183.577 42.4715 183.876 42.7207 184.176 42.7207C184.626 42.7705 184.876 42.4217 184.925 41.9732C184.975 41.724 185.025 41.3751 184.676 41.3253C184.026 41.1758 184.376 41.8237 184.176 42.0728C183.926 42.4217 183.527 42.322 183.227 42.4217C183.027 42.4715 182.977 42.6709 183.077 42.8702C183.077 42.9699 183.227 43.0197 183.427 42.8702Z" fill="#ECD7E6"></path> </svg> 