<?xml version="1.0" standalone="no"?>
<!DOCTYPE svg PUBLIC "-//W3C//DTD SVG 1.1//EN" "http://www.w3.org/Graphics/SVG/1.1/DTD/svg11.dtd" >
<svg xmlns="http://www.w3.org/2000/svg">
<metadata>Generated by IcoMoon</metadata>
<defs>
<font id="icomoon" horiz-adv-x="1024">
<font-face units-per-em="1024" ascent="960" descent="-64" />
<missing-glyph horiz-adv-x="1024" />
<glyph unicode="&#x20;" horiz-adv-x="0" d="" />
<glyph unicode="&#xe14c;" glyph-name="clear" d="M810 664.667l-238-238 238-238-60-60-238 238-238-238-60 60 238 238-238 238 60 60 238-238 238 238z" />
<glyph unicode="&#xe313;" glyph-name="arrow-down" d="M316 604.667l196-196 196 196 60-60-256-256-256 256z" />
<glyph unicode="&#xe314;" glyph-name="arrow-left" d="M658 252.667l-60-60-256 256 256 256 60-60-196-196z" />
<glyph unicode="&#xe315;" glyph-name="arrow-right" d="M366 240.667l196 196-196 196 60 60 256-256-256-256z" />
<glyph unicode="&#xe316;" glyph-name="arrow-up" d="M316 280.667l-60 60 256 256 256-256-60-60-196 196z" />
<glyph unicode="&#xe429;" glyph-name="params" d="M640 554.667v256h86v-86h170v-84h-170v-86h-86zM896 384.667h-426v84h426v-84zM298 554.667h86v-256h-86v86h-170v84h170v86zM554 42.667h-84v256h84v-86h342v-84h-342v-86zM128 724.667h426v-84h-426v84zM128 212.667h256v-84h-256v84z" />
<glyph unicode="&#xe60c;" glyph-name="fly" horiz-adv-x="1025" d="M1008 944.571c12-8.571 17.714-22.286 15.429-36.571l-146.286-877.714c-1.714-10.857-8.571-20-18.286-25.714-5.143-2.857-11.429-4.571-17.714-4.571-4.571 0-9.143 1.143-13.714 2.857l-258.857 105.714-138.286-168.571c-6.857-8.571-17.143-13.143-28-13.143-4 0-8.571 0.571-12.571 2.286-14.286 5.143-24 18.857-24 34.286v199.429l493.714 605.143-610.857-528.571-225.714 92.571c-13.143 5.143-21.714 17.143-22.857 31.429-0.571 13.714 6.286 26.857 18.286 33.714l950.857 548.571c5.714 3.429 12 5.143 18.286 5.143 7.429 0 14.857-2.286 20.571-6.286z" />
<glyph unicode="&#xe836;" glyph-name="check-pull" d="M512 84.667c93.333 0 173.667 33.667 241 101s101 147.667 101 241-33.667 173.667-101 241c-67.333 67.333-147.667 101-241 101s-173.667-33.667-241-101c-67.333-67.333-101-147.667-101-241s33.667-173.667 101-241c67.333-67.333 147.667-101 241-101zM512 852.667c117.333 0 217.667-41.667 301-125s125-183.667 125-301c0-117.333-41.667-217.667-125-301s-183.667-125-301-125c-117.333 0-217.667 41.667-301 125s-125 183.667-125 301 41.667 217.667 125 301c83.333 83.333 183.667 125 301 125z" />
<glyph unicode="&#xe86c;" glyph-name="check" d="M426 212.667l384 384-60 62-324-324-152 152-60-60zM512 852.667c117.333 0 217.667-41.667 301-125s125-183.667 125-301c0-117.333-41.667-217.667-125-301s-183.667-125-301-125c-117.333 0-217.667 41.667-301 125s-125 183.667-125 301 41.667 217.667 125 301c83.333 83.333 183.667 125 301 125z" />
<glyph unicode="&#xe876;" glyph-name="done" d="M384 246.667l452 454 60-60-512-512-238 238 58 60z" />
<glyph unicode="&#xe8ac;" glyph-name="logout" d="M760 718.667c90.667-77.333 136-174.667 136-292 0-106.667-37.333-197.333-112-272s-165.333-112-272-112c-106.667 0-197.333 37.333-272 112s-112 165.333-112 272c0 117.333 45.333 214.667 136 292l60-60c-73.333-60-110-137.333-110-232 0-82.667 29-153 87-211s128.333-87 211-87c82.667 0 153 29 211 87s87 128.333 87 211c0 94.667-36.667 171.333-110 230zM554 810.667v-426h-84v426h84z" />
<glyph unicode="&#xe900;" glyph-name="viber-fill" d="M550.059 373.547s18.219-1.621 27.989 10.539l19.115 24.021c9.216 11.947 31.488 19.541 53.291 7.424 28.843-16.299 66.133-41.899 91.691-65.749 14.080-11.861 17.365-29.355 7.765-47.829l-0.085-0.384c-9.899-17.408-23.083-33.749-39.765-48.981l-0.384-0.256c-18.773-15.659-40.363-24.747-63.445-17.237l-0.427 0.597c-41.472 11.733-140.971 62.464-204.373 113.024-103.723 81.835-177.451 216.832-197.845 289.195l-0.64 0.427c-7.509 23.168 1.664 44.757 17.237 63.488l0.299 0.341c15.232 16.683 31.531 29.909 48.981 39.765l0.384 0.085c18.432 9.6 35.925 6.357 47.829-7.765 15.659-16.171 45.056-55.083 65.707-91.691 12.117-21.76 4.523-44.075-7.381-53.248l-24.064-19.115c-12.117-9.813-10.539-28.032-10.539-28.032s35.584-134.656 168.661-168.619zM759.424 485.163c-7.125 0-12.928 5.76-12.971 12.885-0.597 78.080-24.064 140.288-69.717 184.832-45.739 44.587-103.552 67.456-171.819 67.925-7.168 0.043-12.928 5.888-12.843 13.056 0.043 7.125 5.803 12.843 12.928 12.843h0.085c75.179-0.512 139.008-25.856 189.739-75.264 50.773-49.579 76.885-117.973 77.525-203.221 0.043-7.125-5.675-12.971-12.843-13.056h-0.085zM691.371 511.787h-0.299c-7.168 0.171-12.843 6.101-12.672 13.227 1.024 44.288-11.648 80.128-38.656 109.611-26.88 29.397-63.787 45.44-112.853 49.024-7.125 0.555-12.501 6.741-11.989 13.867 0.555 7.125 6.741 12.501 13.867 11.989 55.211-4.053 98.987-23.381 130.091-57.387 31.275-34.133 46.592-77.099 45.44-127.659-0.171-7.040-5.931-12.672-12.928-12.672zM624.896 534.059c-6.869 0-12.587 5.376-12.928 12.331-2.176 43.947-22.912 65.451-65.152 67.755-7.168 0.384-12.629 6.485-12.245 13.611 0.384 7.168 6.443 12.629 13.611 12.245 55.808-2.987 86.784-34.944 89.643-92.331 0.384-7.125-5.12-13.227-12.288-13.568l-0.64-0.043zM915.755 386.048c-25.813-208.085-178.005-221.227-206.080-230.229-11.947-3.84-122.965-31.445-262.485-22.357 0 0-104.021-125.44-136.491-158.080-5.077-5.077-11.008-7.125-15.019-6.187-5.589 1.365-7.125 8.021-7.040 17.664l0.853 171.349v0.043c-203.179 56.448-191.36 268.587-189.056 379.648s23.168 202.069 85.163 263.253c111.36 100.864 340.779 85.803 340.779 85.803 193.749-0.853 286.592-59.179 308.139-78.72 71.467-61.184 107.861-207.659 81.237-422.187zM887.936 860.203c-25.472 23.381-128.299 98.048-357.333 99.072 0 0-270.080 16.299-401.749-104.533-73.301-73.301-99.072-180.523-101.803-313.515-2.688-133.035-6.229-382.208 233.984-449.792l0.256-0.085-0.171-103.083s-1.493-41.771 25.984-50.304c33.237-10.283 52.736 21.419 84.523 55.637 17.408 18.773 41.429 46.336 59.605 67.413 164.309-13.739 290.645 17.792 305.024 22.443 33.152 10.795 220.885 34.816 251.435 284.032 31.488 256.939-15.275 419.413-99.755 492.715z" />
<glyph unicode="&#xe901;" glyph-name="mail" d="M170.080 663.235l247.52-215.235-247.581-215.287c-6.206 5.878-10.019 14.235-10.019 23.507v383.562c0 9.253 3.874 17.582 10.080 23.454zM885.981 663.287c6.206-5.878 10.019-14.235 10.019-23.507v-383.562c0-9.252-3.874-17.582-10.080-23.454l-247.52 215.235 247.581 215.288zM614.459 427.181l233.541-203.181h-640l233.541 203.181 86.459-75.181zM192.115 704c-35.41 0-64.115-28.624-64.115-63.81v-384.38c0-35.241 28.472-63.81 64.115-63.81h671.77c35.41 0 64.115 28.624 64.115 63.81v384.38c0 35.241-28.472 63.81-64.115 63.81h-671.77zM528 393.6l-320 278.4h640z" />
<glyph unicode="&#xe902;" glyph-name="heart" d="M710.639 840.013c-73.983 0-145.112-31.826-194.458-86.102-49.31 54.277-120.421 86.102-194.367 86.102-138.393 0-250.992-112.564-250.992-250.956 0-54.494 17.141-106.296 49.779-150.079l348.185-411.836c10.693-12.644 26.335-19.941 42.988-20.049h0.217c16.419 0 32.006 7.117 42.771 19.489l348.366 401.468c37.732 45.047 58.503 102.232 58.503 161.006 0.054 138.374-112.564 250.956-250.992 250.956zM875.691 451.477l-348.167-401.216c-3.883-4.461-9.537-7.044-15.479-7.044v-18.062l-0.108 18.062c-5.997 0.036-11.668 2.673-15.515 7.243l-347.029 410.391c-27.762 37.226-42.428 81.569-42.428 128.224 0 118.47 96.38 214.832 214.868 214.832 70.262 0 137.562-33.325 179.99-89.119 3.414-4.479 8.724-7.135 14.378-7.135s10.946 2.637 14.378 7.135c42.464 55.794 109.782 89.119 180.080 89.119 118.506 0 214.904-96.362 214.904-214.832 0-50.321-17.791-99.27-49.87-137.598z" />
<glyph unicode="&#xe903;" glyph-name="iphone" d="M677.296 879.099h-336.282c-52.109 0-94.519-42.392-94.519-94.483v-713.962c0-52.109 42.41-94.483 94.519-94.483h336.264c52.109 0 94.519 42.392 94.519 94.483v713.944c0.018 52.109-42.392 94.501-94.501 94.501zM282.637 719.755h453.054v-533.918h-453.054zM735.691 70.654c0-32.187-26.19-58.359-58.395-58.359h-336.282c-32.205 0-58.395 26.172-58.395 58.359v79.058h453.054v-79.058zM282.637 755.879v28.719c0 32.187 26.19 58.359 58.395 58.359h336.264c32.205 0 58.395-26.172 58.395-58.359v-28.737h-453.054zM509.155 37.419c25.377 0 45.878 20.519 45.878 45.86 0 25.323-20.501 45.878-45.878 45.878s-45.878-20.555-45.878-45.878c0-25.341 20.501-45.86 45.878-45.86zM509.155 93.033c5.383 0 9.754-4.389 9.754-9.754s-4.389-9.736-9.736-9.736c-5.383 0-9.772 4.371-9.772 9.736s4.371 9.736 9.754 9.754z" />
<glyph unicode="&#xe904;" glyph-name="cart-alt" d="M1008.707 839.704c-11.024 3.031-22.463-3.509-25.494-14.554l-14.616-53.605h-778.718l15.301 66.31c0.685 2.948 0.706 6.021 0.062 8.99-5.606 26.387-29.294 45.571-56.283 45.571h-128.198c-11.46 0-20.761-9.28-20.761-20.761s9.301-20.761 20.761-20.761h128.198c6.27 0 11.896-3.716 14.491-9.176l-19.91-86.261c-0.041-0.166 0.041-0.332 0-0.477-0.582-2.782-0.664-5.668-0.021-8.616 0.021-0.062 0-0.103 0-0.166v-0.021l88.503-387.127-22.609-72.372c-0.208-0.664-0.394-1.349-0.52-2.055-3.072-15.155 0.768-30.726 10.526-42.664 9.778-11.979 24.249-18.85 39.715-18.85h617.531c11.46 0 20.761 9.28 20.761 20.761s-9.301 20.761-20.761 20.761h-617.531c-2.948 0-5.688 1.287-7.557 3.613-1.702 2.076-2.449 4.713-2.117 7.349l19.805 63.445 599.449 65.127c26.346 0.54 48.788 18.664 54.622 43.702l99.921 366.345c3.031 11.045-3.487 22.463-14.554 25.494zM883.103 458.079c-1.723-7.308-8.138-12.415-15.612-12.415-0.747 0-1.494-0.041-2.242-0.124l-595.608-64.712-79.825 349.197h767.445zM294.326 171.082c-46.192 0-83.77-37.578-83.77-83.749s37.578-83.749 83.77-83.749c46.151 0 83.708 37.578 83.708 83.749s-37.557 83.749-83.708 83.749zM294.326 45.103c-23.294 0-42.249 18.934-42.249 42.228s18.955 42.228 42.249 42.228c23.273 0 42.186-18.934 42.186-42.228s-18.913-42.228-42.186-42.228zM789.804 171.082c-46.172 0-83.749-37.578-83.749-83.749s37.578-83.749 83.749-83.749c46.192 0 83.749 37.578 83.749 83.749s-37.557 83.749-83.749 83.749zM789.804 45.103c-23.294 0-42.228 18.934-42.228 42.228s18.934 42.228 42.228 42.228 42.228-18.934 42.228-42.228-18.934-42.228-42.228-42.228z" />
<glyph unicode="&#xe905;" glyph-name="user" d="M520.841 873.934c-245.104 0-444.511-199.407-444.511-444.511s199.407-444.511 444.511-444.511 444.511 199.407 444.511 444.511c0 245.104-199.407 444.511-444.511 444.511zM272.739 105.333c143.558 61.213 170.363 90.654 176.793 111.299 0.542 1.752 0.813 3.558 0.813 5.383v37.371c0 4.732-1.86 9.266-5.148 12.625-22.921 23.427-40.64 55.975-51.297 94.086-1.12 4.028-3.594 7.514-7.008 9.916-11.126 7.839-17.755 20.808-17.755 34.734 0 12.355 5.274 21.44 9.717 26.877 2.619 3.233 4.046 7.243 4.046 11.397v83.7c0 82.183 49.743 127.447 140.054 127.447 91.593 0 140-44.054 140-127.447v-83.682c0-4.136 1.427-8.182 4.046-11.397 4.443-5.455 9.736-14.558 9.736-26.895 0-13.926-6.647-26.913-17.755-34.734-3.414-2.402-5.888-5.906-7.008-9.916-10.657-38.129-28.394-70.659-51.279-94.086-3.305-3.396-5.148-7.911-5.148-12.625v-37.371c0-1.824 0.271-3.631 0.813-5.383 6.394-20.519 32.837-49.725 174.083-110.125-69.070-53.518-155.642-85.488-249.583-85.488-93.291 0-179.285 31.5-248.12 84.314zM801.058 132.733c-139.765 58.485-164.944 85.109-169.405 92.876v26.624c23.445 25.901 41.778 59.641 53.41 98.331 17.52 14.721 27.798 36.775 27.798 60.183 0 15.949-4.75 31.121-13.781 44.27v77.704c0 103.948-64.193 163.571-176.124 163.571-110.306 0-176.179-61.159-176.179-163.571v-77.74c-8.905-13.095-13.745-28.556-13.745-44.234 0-23.391 10.259-45.408 27.762-60.165 11.632-38.707 29.965-72.466 53.428-98.349v-26.624c-4.497-7.821-29.983-34.716-172.331-94.086-79.582 74.561-129.452 180.477-129.452 297.882 0 225.199 183.205 408.386 408.386 408.386s408.386-183.205 408.386-408.386c0.018-116.772-49.328-222.165-128.151-296.672h-0.002z" />
<glyph unicode="&#xe906;" glyph-name="search" d="M621.668 306.332c-44.476-31.692-98.895-50.332-157.668-50.332-150.221 0-272 121.779-272 272s121.779 272 272 272 272-121.779 272-272c0-75.111-30.445-143.111-79.667-192.333l191.916-191.916c8.802-8.802 8.588-22.915-0.249-31.751-8.898-8.898-23.052-8.948-31.751-0.249zM464 288c132.548 0 240 107.452 240 240s-107.452 240-240 240-240-107.452-240-240 107.452-240 240-240v0z" />
<glyph unicode="&#xe907;" glyph-name="fave" d="M880.128 760.013c-85.606 78.592-224.41 78.592-310.016 0l-58.112-53.299-58.163 53.299c-85.606 78.592-224.358 78.592-309.965 0-96.307-88.371-96.307-231.373 0-319.744l368.128-337.869 368.128 337.869c96.256 88.371 96.256 231.424 0 319.744zM825.549 492.8l-313.549-292.608-313.6 292.608c-31.59 29.030-43.827 66.918-43.827 107.213s7.066 73.37 38.707 102.349c27.904 25.651 65.434 39.782 105.626 39.782 40.141 0 77.67-24.371 105.574-50.074l107.52-93.44 107.469 93.491c27.955 25.702 65.434 50.074 105.626 50.074s77.722-14.131 105.626-39.782c31.642-28.979 38.656-62.054 38.656-102.349s-12.186-78.234-43.827-107.264z" />
<glyph unicode="&#xe908;" glyph-name="fave-full" d="M880.128 760.064c-85.606 78.541-224.41 78.541-310.016 0l-58.112-53.35-58.163 53.35c-85.606 78.541-224.358 78.541-309.965 0-96.307-88.422-96.307-231.424 0-319.795l368.128-337.869 368.128 337.869c96.256 88.371 96.256 231.424 0 319.795z" />
<glyph unicode="&#xe909;" glyph-name="date" d="M804.902 239.369h-126.597c-10.885 0-18.091-7.168-18.091-18.091s7.168-18.167 18.091-18.167h126.597c10.885 0 18.091 7.244 18.091 18.167s-7.206 18.091-18.091 18.091zM804.978 529.199h-126.673c-10.809 0-18.091-7.244-18.091-18.167 0-10.847 7.244-18.129 18.091-18.129h126.673c10.809 0 18.015 7.244 18.015 18.129-0.038 10.923-7.206 18.167-18.015 18.167zM804.978 384.247h-126.673c-10.809 0-18.091-7.244-18.091-18.091 0-10.885 7.244-18.167 18.091-18.167h126.673c10.809 0 18.015 7.244 18.015 18.167-0.038 10.847-7.206 18.091-18.015 18.091zM569.761 529.199h-126.635c-10.847 0-18.091-7.244-18.091-18.167 0-10.847 7.206-18.129 18.091-18.129h126.635c10.809 0 18.091 7.244 18.091 18.129 0 10.923-7.244 18.167-18.091 18.167zM569.761 384.247h-126.635c-10.847 0-18.091-7.244-18.091-18.091 0-10.885 7.206-18.167 18.091-18.167h126.635c10.809 0 18.091 7.244 18.091 18.167 0 10.847-7.244 18.091-18.091 18.091zM334.583 529.199h-126.635c-10.809 0-18.091-7.244-18.091-18.167 0-10.847 7.244-18.129 18.091-18.129h126.635c10.847 0 18.129 7.244 18.129 18.129-0.038 10.923-7.282 18.167-18.129 18.167zM334.583 384.247h-126.635c-10.809 0-18.091-7.244-18.091-18.091 0-10.885 7.244-18.167 18.091-18.167h126.635c10.847 0 18.129 7.244 18.129 18.167-0.038 10.847-7.282 18.091-18.129 18.091zM334.583 239.369h-126.635c-10.809 0-18.091-7.244-18.091-18.167 0-10.809 7.244-18.091 18.091-18.091h126.635c10.847 0 18.129 7.244 18.129 18.091-0.038 10.923-7.282 18.167-18.129 18.167zM569.761 239.369h-126.635c-10.847 0-18.091-7.168-18.091-18.091s7.206-18.167 18.091-18.167h126.635c10.809 0 18.091 7.244 18.091 18.167s-7.244 18.091-18.091 18.091zM778.505-41.017h138.012c63.26 0 106.686 43.425 106.686 106.875v675.537c1.858 59.771-39.784 123.145-104.827 123.145h-38.078v54.348c0 10.885-7.168 18.129-18.015 18.129-10.885 0-18.167-7.244-18.167-18.129v-54.348h-644.437v54.348c0 10.885-7.244 18.129-18.129 18.129s-18.053-7.282-18.053-18.129v-54.348h-39.746c-63.336 0-123.032-59.733-123.032-123.145v-673.716c0-67.053 63.298-108.658 123.032-108.658h271.246zM770.313 828.321h73.842v-54.348c0-10.885 7.244-18.129 18.167-18.129 10.809 0 18.015 7.206 18.015 18.129v54.348h38.078c43.425 0 70.504-45.284 70.504-86.926v-21.732h-90.529c-10.809 0-18.091-7.244-18.091-18.129s7.244-18.129 18.091-18.129h90.529v-617.548c0-43.463-27.117-70.656-70.504-70.656h-794.662c-41.643 0-86.888 27.193-86.888 70.656v617.586h906.468c10.809 0 18.167 7.244 18.167 18.129 0 10.847-7.32 18.129-18.167 18.129h-906.468v21.694c0 43.463 43.463 86.926 86.888 86.926h39.746v-54.348c0-10.885 7.206-18.129 18.091-18.129s18.129 7.206 18.129 18.129v54.348h570.596z" />
<glyph unicode="&#xe90a;" glyph-name="facebook" horiz-adv-x="659" d="M424.734-23.041v368.64h210.943v245.761h-210.943v102.4c0 12.289 8.192 20.479 20.479 20.479h210.943v245.761h-233.472c-141.313-12.289-251.904-129.024-251.904-266.24v-102.4h-167.936v-245.761h167.936v-409.6h253.951v40.96zM213.79-23.041v409.6h-167.936v163.839h167.936v143.36c0 116.737 92.159 215.041 210.943 225.28h188.416v-163.839h-167.936c-34.815 0-63.488-26.624-63.488-61.44v-143.36h210.943v-163.839h-210.943v-409.6h-167.936z" />
<glyph unicode="&#xe90b;" glyph-name="instagram" horiz-adv-x="1025" d="M878.576 698.318c0-5.936-1.979-11.873-7.915-11.873h-89.045c-5.936 0-13.852 5.936-13.852 11.873v87.067c0 5.936 7.915 9.894 13.852 9.894h89.045c5.936 0 7.915-3.957 7.915-9.894v-87.067zM807.34 941.709h-587.701c-120.706 0-219.646-96.961-219.646-215.689v-556.040c0-118.728 98.94-215.689 219.646-215.689h587.701c120.706 0 217.667 96.961 217.667 215.689v556.040c0 118.728-96.961 215.689-217.667 215.689zM979.495 524.184v-354.204c0-94.982-75.194-172.155-172.155-172.155h-587.701c-94.982 0-174.134 77.173-174.134 172.155v556.040c0 94.982 79.152 172.155 174.134 172.155h587.701c96.961 0 172.155-77.173 172.155-172.155v-265.158zM494.691 759.66c-172.125 0-311.66-139.535-311.66-311.66s139.535-311.66 311.66-311.66v0c172.125 0 311.66 139.535 311.66 311.66s-139.535 311.66-311.66 311.66v0zM494.691 183.832c-126.642 0-265.158 138.515-265.158 265.158 0 124.664 138.515 263.179 265.158 263.179 124.664 0 263.179-138.515 263.179-263.179 0-126.642-138.515-265.158-263.179-265.158z" />
<glyph unicode="&#xe90c;" glyph-name="vkontakte" d="M972.331 149.291h-152.235c-25.557 0-49.536 9.941-67.584 27.989l-88.576 88.576c-7.253 7.253-17.323 11.435-27.563 11.435-21.504 0-38.997-17.493-38.997-38.997v-36.565c0-28.928-23.509-52.437-52.437-52.437h-139.605c-97.707 0-254.635 219.477-369.109 403.584-23.723 38.187-36.224 82.304-36.224 127.531v10.88c0 30.507 24.832 55.339 55.339 55.339h136.661c8.021 0 15.403-4.523 19.029-11.691 29.995-59.221 114.56-219.691 145.365-250.539 7.851-7.808 15.403-12.416 20.181-11.477 2.816 0.256 5.461 2.048 7.424 3.883v162.005c0 22.571-8.789 43.733-24.747 59.691l-11.691 11.691c-6.101 6.101-7.936 15.275-4.608 23.253 3.285 7.979 11.093 13.184 19.712 13.184h187.989c25.728 0 46.677-20.949 46.677-46.677v-218.24c11.819-5.461 32.981-11.691 49.707 3.371 17.877 16.213 62.464 105.088 113.493 226.475 8.96 21.291 29.739 35.072 52.949 35.072h149.675c33.536 0 60.843-27.307 60.843-60.885 0-34.347-11.819-68.053-33.28-94.891l-137.387-171.733v-26.368l155.477-155.477c14.805-14.805 19.2-36.864 11.179-56.192-8.021-19.285-26.709-31.787-47.659-31.787zM636.331 319.957c21.803 0 42.325-8.491 57.771-23.936l88.576-88.576c9.856-9.856 23.509-15.488 37.419-15.488h152.235c5.205 0 7.381 3.456 8.235 5.504s1.749 6.059-1.92 9.728l-161.707 161.707c-4.011 3.968-6.272 9.387-6.272 15.061v42.667c0 4.864 1.664 9.557 4.651 13.355l142.080 177.579c15.445 19.243 23.936 43.477 23.936 68.181 0 10.027-8.149 18.219-18.219 18.219h-149.675c-5.973 0-11.349-3.499-13.611-8.917-40.021-95.104-94.037-214.229-124.203-241.536-39.552-35.797-90.539-16.683-111.915-1.621-5.675 3.925-9.045 10.453-9.045 17.408v230.656c0 2.219-1.792 4.011-4.011 4.011h-141.867c11.648-19.499 17.877-41.856 17.877-65.152v-169.515c0-3.883-1.024-7.68-3.029-10.965-1.493-2.517-15.403-24.533-41.685-27.733-18.773-2.389-37.675 5.589-55.723 23.637-37.077 37.077-122.325 200.917-147.328 249.771h-123.563c-6.997-0.043-12.672-5.76-12.672-12.715v-10.88c0-37.291 10.325-73.6 29.824-105.003 147.029-236.501 274.56-383.445 332.843-383.445h139.563c5.376 0 9.771 4.395 9.771 9.771v36.565c0 45.013 36.651 81.664 81.664 81.664z" />
<glyph unicode="&#xe90d;" glyph-name="comment" d="M653.815 872.182h-283.45c-164.384 0-298.117-145.473-298.117-324.271 0-151.885 96.199-282.222 230.799-315.872v-204.735c0-7.098 4.154-13.547 10.621-16.455 2.384-1.084 4.913-1.608 7.442-1.608 4.317 0 8.58 1.535 11.939 4.516l238.295 209.901h82.454c164.384 0 298.117 145.473 298.117 324.271s-133.714 324.253-298.098 324.253h-0.002zM653.815 259.765h-89.281c-4.389 0-8.652-1.608-11.939-4.516l-213.423-187.973v179.249c0 8.652-6.123 16.093-14.63 17.737-125.243 24.294-216.168 143.594-216.168 283.649 0 158.875 117.531 288.146 261.992 288.146h283.432c144.461 0 261.992-129.253 261.992-288.146s-117.513-288.146-261.974-288.146z" />
<glyph unicode="&#xe90e;" glyph-name="ticket" horiz-adv-x="648" d="M166.63 668.202c-11.17 0-20.208-9.038-20.208-20.219v-385.024c0-11.17 9.038-20.219 20.208-20.219h313.72c11.18 0 20.219 9.038 20.219 20.219v385.024c0 11.17-9.028 20.219-20.219 20.219h-313.72zM460.142 283.188h-273.304v344.586h273.304v-344.586zM635.768 939.875c-3.783 3.793-8.934 5.925-14.284 5.925l-149.807-0.021c-11.097 0-20.125-8.934-20.219-20.031-0.648-69.925-58.075-126.809-127.969-126.809-69.925 0.021-127.331 56.905-127.958 126.83-0.104 11.097-9.122 20.031-20.219 20.031l-149.786-0.021c-11.18 0-20.219-9.059-20.219-20.219l-0.021-798.814c0-5.371 2.142-10.501 5.925-14.294 3.793-3.783 8.923-5.914 14.294-5.914h130.57c4.18-37.888 20.961-72.955 48.306-100.3 31.796-31.807 74.094-49.34 119.108-49.34 86.768 0 158.407 65.912 167.466 149.629h130.518c11.16 0 20.219 9.038 20.219 20.219v798.835c0 5.371-2.132 10.501-5.925 14.294zM601.266 146.954h-129.62c-11.16 0-20.135-10.418-20.135-21.588 0-70.604-57.428-128.042-128.021-128.042-34.21 0-66.351 13.322-90.54 37.501-24.179 24.168-37.48 56.33-37.522 89.757 0.042 0.512 0.104 1.651 0.104 2.163 0 11.18-9.038 20.219-20.219 20.219h-129.599l0.021 758.387 110.749 0.010c10.658-82.589 81.763-146.85 167.006-146.871 85.222 0 156.327 64.24 167.006 146.86l110.77 0.010v-758.406z" />
<glyph unicode="&#xe90f;" glyph-name="menu1" d="M128 725.334h768c11.778 0 21.834-4.167 30.167-12.5s12.5-18.389 12.5-30.167-4.167-21.834-12.5-30.167-18.389-12.5-30.167-12.5h-768c-11.778 0-21.834 4.167-30.167 12.5s-12.5 18.389-12.5 30.167 4.167 21.834 12.5 30.167 18.389 12.5 30.167 12.5zM128 213.334h768c11.778 0 21.834-4.167 30.167-12.5s12.5-18.389 12.5-30.167-4.167-21.834-12.5-30.167-18.389-12.5-30.167-12.5h-768c-11.778 0-21.834 4.167-30.167 12.5s-12.5 18.389-12.5 30.167 4.167 21.834 12.5 30.167 18.389 12.5 30.167 12.5zM128 469.334h768c11.778 0 21.834-4.167 30.167-12.5s12.5-18.389 12.5-30.167c0-11.778-4.167-21.834-12.5-30.167s-18.389-12.5-30.167-12.5h-768c-11.778 0-21.834 4.167-30.167 12.5s-12.5 18.389-12.5 30.167 4.167 21.834 12.5 30.167 18.389 12.5 30.167 12.5z" />
<glyph unicode="&#xe910;" glyph-name="gift" d="M771.516 640c18.126 12.88 35.512 27.216 51.444 43.148 33.402 33.402 55.746 74.5 62.912 115.722 7.858 45.186-3.672 87.14-31.63 115.1-22.3 22.298-52.51 34.086-87.364 34.086-49.632 0-101.922-23.824-143.46-65.362-66.476-66.476-105.226-158.238-126.076-223.722-15.44 65.802-46.206 154.644-106.018 214.458-32.094 32.092-73.114 48.57-111.846 48.57-31.654 0-61.78-11.004-84.26-33.486-49.986-49.988-43.232-137.786 15.086-196.104 20.792-20.792 45.098-38.062 70.72-52.412h-217.024v-256h64v-448h768v448.002h64v256h-188.484zM674.326 831.782c27.724 27.724 62.322 44.274 92.55 44.274 10.7 0 25.708-2.254 36.45-12.998 26.030-26.028 11.412-86.308-31.28-128.998-43.946-43.946-103.060-74.168-154.432-94.060h-50.672c18.568 57.548 52.058 136.456 107.384 191.782zM233.934 799.11c-0.702 9.12-0.050 26.248 12.196 38.494 10.244 10.244 23.788 12.396 33.348 12.396v0c21.258 0 43.468-10.016 60.932-27.48 33.872-33.872 61.766-87.772 80.668-155.876 0.51-1.84 1.008-3.67 1.496-5.486-1.816 0.486-3.646 0.984-5.486 1.496-68.104 18.904-122.002 46.798-155.874 80.67-15.828 15.826-25.77 36.16-27.28 55.786zM448 0h-256v416h256v-416zM448 448h-320v128h320v-128zM832 0h-256v416h256v-416zM896 448h-320v128h320v-128z" />
<glyph unicode="&#xe911;" glyph-name="wallet" d="M940.155 357.915h-40.911v135.43c0 9.988-8.074 18.062-18.062 18.062h-18.893c-0.054 1.571 0 3.161-0.488 4.696l-23.68 76.584h43.042c9.988 0 18.062 8.074 18.062 18.062s-8.074 18.062-18.062 18.062h-54.223l-65.15 210.768c-1.409 4.588-4.588 8.417-8.814 10.657-4.245 2.204-9.194 2.691-13.781 1.264l-593.253-183.458c-4.57-1.409-8.399-4.588-10.639-8.814-2.222-4.227-2.691-9.194-1.264-13.781l5.148-16.671c-42.175-0.199-76.421-34.517-76.421-76.728v-497.939c0-42.338 34.427-76.782 76.764-76.782h741.67c9.988 0 18.062 8.074 18.062 18.062v142.186h40.911c9.988 0 18.062 8.074 18.062 18.062v184.216c-0.018 9.988-8.092 18.062-18.080 18.062zM732.621 811.655l89.281-288.706-39.412-11.542h-569.194l-39.412 127.465 558.737 172.783zM139.53 592.687h10.819l25.143-81.28h-35.962c-22.397 0-40.64 18.243-40.64 40.64s18.243 40.64 40.64 40.64zM863.138 13.451h-723.608c-22.397 0-40.64 18.243-40.64 40.658v433.077c11.813-7.424 25.684-11.903 40.64-11.903h723.608v-117.368h-115.327c-60.743 0-110.179-49.418-110.179-110.179s49.418-110.179 110.179-110.179h115.327v-124.106zM922.093 173.698h-174.282c-40.839 0-74.055 33.216-74.055 74.055s33.216 74.055 74.055 74.055h174.282v-148.11zM785.091 247.753c0-13.676-11.087-24.763-24.763-24.763s-24.763 11.087-24.763 24.763c0 13.676 11.087 24.763 24.763 24.763s24.763-11.087 24.763-24.763z" />
<glyph unicode="&#xe912;" glyph-name="delivery" d="M935.369 351.9v130.915c0 105.664-69.684 160.302-72.646 162.578-3.161 2.42-7.026 3.721-10.982 3.721h-165.251v109.023c0 9.988-8.074 18.062-18.062 18.062h-593.488c-9.988 0-18.062-8.074-18.062-18.062v-424.191c0-9.988 8.074-18.062 18.062-18.062h19.092v-75.952c0-9.988 8.074-18.062 18.062-18.062h57.691c-2.041-8.164-3.251-16.653-3.251-25.432 0-57.763 46.998-104.761 104.761-104.761 57.745 0 104.743 46.998 104.743 104.761 0 8.778-1.21 17.267-3.251 25.432h307.093c-2.041-8.164-3.251-16.653-3.251-25.432 0-57.763 46.998-104.761 104.761-104.761 57.745 0 104.743 46.998 104.743 104.761 0 8.778-1.21 17.267-3.251 25.432h50.52c9.988 0 18.062 8.074 18.062 18.062v94.014c-0.018 9.32-7.044 16.978-16.093 17.954h-0.002zM899.244 482.833v-5.906h-70.28v136.081h16.057c13.492-12.517 54.223-56.372 54.223-130.174v-0.001zM792.84 613.007v-136.081h-106.386v136.081h106.386zM93.002 740.093h557.327v-388.066h-557.327zM271.294 127.802c-37.858 0-68.636 30.778-68.636 68.636 0 37.84 30.778 68.618 68.636 68.618 37.84 0 68.618-30.778 68.618-68.618 0-37.858-30.778-68.636-68.618-68.636zM781.371 127.802c-37.858 0-68.636 30.778-68.636 68.636 0 37.84 30.778 68.618 68.636 68.618 37.84 0 68.618-30.778 68.618-68.618 0-37.858-30.778-68.636-68.618-68.636zM915.32 257.995h-49.4c-19.074 26.118-49.816 43.187-84.549 43.187-34.752 0-65.494-17.069-84.567-43.187h-340.96c-19.074 26.118-49.816 43.187-84.549 43.187-34.752 0-65.494-17.069-84.567-43.187h-56.571v57.889h538.253c9.988 0 18.062 8.074 18.062 18.062v106.838h212.791v-106.838c0-9.32 7.044-16.96 16.093-17.954v-57.998zM804.96 196.439c0-13.028-10.561-23.589-23.589-23.589s-23.589 10.561-23.589 23.589 10.561 23.589 23.589 23.589 23.589-10.561 23.589-23.589zM294.883 196.439c0-13.028-10.561-23.589-23.589-23.589s-23.589 10.561-23.589 23.589 10.561 23.589 23.589 23.589 23.589-10.561 23.589-23.589zM727.202 732.471h0.126c46.022 0 87.511-54.891 87.909-55.451 3.54-4.768 8.995-7.261 14.522-7.261 3.739 0 7.514 1.156 10.747 3.558 8.002 5.942 9.681 17.213 3.757 25.215-2.113 2.872-52.615 70.063-116.935 70.063h-0.163c-9.97-0.018-18.044-8.11-18.026-18.098 0.018-9.97 8.11-18.026 18.062-18.026z" />
<glyph unicode="&#xe913;" glyph-name="load" d="M775.414 424.825c10.9 10.9 10.9 28.060 0 38.96-10.532 10.9-28.060 10.9-38.567 0l-197.548-197.18v651.514c0 15.196-12.078 27.667-27.274 27.667s-27.667-12.471-27.667-27.667v-651.514l-197.155 197.18c-10.9 10.9-28.453 10.9-38.96 0-10.9-10.9-10.9-28.060 0-38.96l244.315-244.315c10.532-10.532 28.060-10.532 38.96 0l243.897 244.315zM969.059 245.959c0 15.196 12.078 27.274 27.274 27.274s27.667-12.078 27.667-27.274v-268.078c0-15.196-12.471-27.667-27.667-27.667h-969.059c-15.196 0-27.274 12.471-27.274 27.667v268.078c0 15.196 12.078 27.274 27.274 27.274s27.667-12.078 27.667-27.274v-240.804h914.117v240.804h0.001z" />
<glyph unicode="&#xe914;" glyph-name="map" d="M514.465 875.126c-163.354 0-296.256-132.902-296.256-296.256 0-157.322 269.885-569.248 281.373-586.714 3.305-5.003 8.887-8.020 14.883-8.020s11.596 3.016 14.883 8.020c11.488 17.448 281.373 429.393 281.373 586.714 0.018 163.354-132.884 296.256-296.256 296.256zM514.465 34.836c-57.366 89.877-260.619 417.345-260.619 544.033 0 143.703 116.917 260.619 260.619 260.619s260.619-116.917 260.619-260.619c0.018-126.652-203.254-454.156-260.619-544.033zM514.465 717.082c-64.464 0-116.917-52.471-116.917-116.953 0-64.446 52.435-116.88 116.917-116.88s116.935 52.435 116.935 116.88c0 64.482-52.453 116.953-116.935 116.953zM514.465 518.903c-44.812 0-81.262 36.45-81.262 81.244 0 44.83 36.45 81.298 81.262 81.298 44.83 0 81.298-36.468 81.298-81.298 0-44.812-36.468-81.244-81.298-81.244z" />
<glyph unicode="&#xe915;" glyph-name="quest" d="M510.293 870.917c-242.738 0-440.212-197.474-440.212-440.194s197.474-440.176 440.194-440.176c242.72 0 440.194 197.474 440.194 440.176 0.018 242.72-197.456 440.194-440.176 440.194zM510.293 26.672c-222.815 0-404.069 181.254-404.069 404.051 0 222.815 181.254 404.069 404.069 404.069s404.069-181.254 404.069-404.069c0-222.797-181.272-404.051-404.069-404.051zM514.393 696.78c-69.576 0-124.394-26.678-172.584-83.953-3.36-4.172-5.202-9.41-5.202-14.739 0-11.361 8.58-19.597 20.374-19.597 6.593 0 12.788 3.071 17.412 8.616 40.586 46.384 85.886 68.925 138.465 68.925 72.285 0 124.738-47.612 124.738-113.232v-1.535c0-69.178-53.302-113.81-142.601-119.391-6.286-0.397-11.74-2.962-15.425-7.207-3.486-4.028-5.166-9.302-4.75-14.901l8.453-99.035c0.831-9.916 6.719-16.31 14.992-16.31h1.535c8.291 0 14.161 6.394 14.974 16.346l5.979 83.014c102.088 13.059 162.957 72.393 162.957 159.056v1.535c0.018 88.288-71.201 152.409-169.315 152.409zM499.022 220.714c-15.985 0-28.051-12.066-28.051-28.051v-20.735c0-15.985 12.066-28.051 28.051-28.051 16.003 0 28.069 12.066 28.069 28.051v20.735c0 15.985-12.066 28.051-28.069 28.051z" />
<glyph unicode="&#xe916;" glyph-name="play" d="M512.063-4.612c242.684 0 440.103 197.51 440.103 440.248 0 242.666-197.438 440.067-440.103 440.067-242.72 0-440.212-197.42-440.212-440.067 0-242.756 197.474-440.248 440.212-440.248zM512.063 839.579c222.761 0 403.979-181.2 403.979-403.943 0-222.833-181.218-404.124-403.979-404.124-222.815 0-404.087 181.29-404.087 404.124 0 222.743 181.272 403.943 404.087 403.943zM413.227 222.34c15.281-7.785 34.553-6.268 48.461 3.829l236.543 171.826c12.011 8.724 19.182 22.813 19.182 37.642 0 14.847-7.171 28.936-19.182 37.642l-236.543 171.844c-7.911 5.726-17.629 8.887-27.346 8.887-7.297 0-14.63-1.77-21.133-5.094-15.678-7.983-25.414-23.878-25.414-41.453v-343.615c0-17.611 9.736-33.487 25.432-41.507zM423.92 607.444c0 3.938 2.186 7.478 5.708 9.284 3.414 1.77 7.676 1.427 10.819-0.849l236.561-171.844c2.673-1.933 4.281-5.094 4.281-8.417s-1.608-6.466-4.299-8.417l-236.543-171.808c-1.788-1.282-3.901-1.969-6.123-1.969-1.644 0-3.287 0.379-4.714 1.12-3.504 1.806-5.69 5.364-5.69 9.302v343.598z" />
<glyph unicode="&#xe917;" glyph-name="phone-chat" d="M512 810.667h384v-298h-256l-128-128v426zM854 276.667c24 0 42-18 42-42v-150c0-24-18-42-42-42-400 0-726 326-726 726 0 24 18 42 42 42h150c24 0 42-18 42-42 0-54 8-104 24-152 4-14 2-32-10-44l-94-94c62-120 162-220 282-282l94 94c12 12 30 14 44 10 48-16 98-24 152-24z" />
<glyph unicode="&#xe918;" glyph-name="info" d="M554 554.667v86h-84v-86h84zM554 212.667v256h-84v-256zM512 852.667c236 0 426-190 426-426s-190-426-426-426-426 190-426 426 190 426 426 426z" />
<glyph unicode="&#xe919;" glyph-name="add" d="M810 384.667h-256v-256h-84v256h-256v84h256v256h84v-256h256v-84z" />
<glyph unicode="&#xe91a;" glyph-name="remove" d="M810 384.667h-596v84h596v-84z" />
<glyph unicode="&#xe91b;" glyph-name="no-eye" d="M259.478 291.478c-111.728 65.958-163.478 156.522-163.478 156.522s128 224 416 224c41.744 0 80.127-4.706 115.246-12.754l-27.185-27.185c-27.352 5.057-56.698 7.939-88.061 7.939-256 0-377.602-192-377.602-192s48.473-76.535 148.639-132.962l-23.559-23.56zM396.754 236.754c35.119-8.048 73.502-12.754 115.246-12.754 288 0 416 224 416 224s-51.751 90.564-163.478 156.522l-23.559-23.559c100.166-56.427 148.639-132.962 148.639-132.962s-121.602-192-377.602-192c-31.363 0-60.709 2.882-88.061 7.939l-27.185-27.185zM636.757 476.757c2.122-9.244 3.243-18.869 3.243-28.757 0-70.692-57.308-128-128-128-9.888 0-19.513 1.121-28.757 3.243l28.757 28.757c24.569 0 49.137 9.373 67.882 28.118s28.118 43.314 28.118 67.882zM540.757 572.757c-9.244 2.122-18.869 3.243-28.757 3.243-70.692 0-128-57.308-128-128 0-9.888 1.121-19.513 3.243-28.757l28.757 28.757c0 24.569 9.373 49.137 28.118 67.882s43.314 28.118 67.882 28.118zM768 736l-544-544 32-32 544 544z" />
<glyph unicode="&#xe91c;" glyph-name="eye" d="M512 672v0 0c288 0 416-224 416-224s-128-224-416-224-416 224-416 224 128 224 416 224zM512 640c-256 0-377.602-192-377.602-192s121.602-192 377.602-192 377.602 192 377.602 192-121.602 192-377.602 192v0 0zM512 320v0 0c-70.692 0-128 57.308-128 128s57.308 128 128 128 128-57.308 128-128-57.308-128-128-128zM512 352c53.019 0 96 42.981 96 96s-42.981 96-96 96-96-42.981-96-96 42.981-96 96-96v0 0zM512 416c17.673 0 32 14.327 32 32s-14.327 32-32 32-32-14.327-32-32 14.327-32 32-32v0 0z" />
<glyph unicode="&#xe91d;" glyph-name="no-check" d="M810 810.667c46 0 86-40 86-86v-596c0-46-40-86-86-86h-596c-46 0-86 40-86 86v596c0 46 40 86 86 86h596zM810 724.667h-596v-596h596v596z" />
<glyph unicode="&#xe91e;" glyph-name="is-check" d="M426 212.667l384 384-60 62-324-324-152 152-60-60zM810 810.667c48 0 86-40 86-86v-596c0-46-38-86-86-86h-596c-48 0-86 40-86 86v596c0 46 38 86 86 86h596z" />
<glyph unicode="&#xe91f;" glyph-name="visa-alt" horiz-adv-x="1317" d="M1128.57 385.143h-78.857s8 21.143 37.714 102.286c-0.571-0.571 8 21.143 12.571 34.857l6.857-31.429c17.714-87.429 21.714-105.714 21.715-105.714zM303.429 422.286l-33.143 168.571c-4.571 23.429-22.286 30.857-42.857 30.857h-153.143l-1.143-7.429c105.143-26.857 191.429-84 230.286-192v0.001zM405.714 621.714l-92.571-250.286-9.714 50.857c-20 53.143-68.571 102.286-123.429 124.571l77.143-291.429h100l149.143 366.286h-100.571zM485.143 254.857h94.857l59.429 366.857h-94.857zM924 612.571c-18.857 7.429-48.571 15.429-85.143 15.429-93.714 0-159.429-49.714-160-121.143-0.571-52.571 46.857-81.714 82.857-99.429 37.143-17.714 49.143-29.714 49.143-45.714 0-24.571-29.714-35.429-56.571-35.429-38.286 0-58.857 4.571-89.143 18.857l-12.571 6.286-13.143-82.286c22.286-10.286 62.857-19.429 105.714-19.429 99.429-0.571 164 49.143 165.143 125.143 0 41.714-25.714 73.143-80 99.429-33.143 16.571-53.143 28.571-53.143 45.714 0 15.429 17.143 31.429 54.286 31.429 30.857 0.571 53.714-5.714 70.857-13.714l8.571-4.571zM1166.86 621.714h-73.143c-22.857 0-40-6.857-49.714-30.857l-140.571-336h99.429c16 45.143 20 54.857 20 54.857h121.143s2.857-12.571 11.429-54.857h88zM1316.57 804.571v-731.429c0-40-33.143-73.143-73.143-73.143h-1170.29c-40 0-73.143 33.143-73.143 73.143v731.429c0 40 33.143 73.143 73.143 73.143h1170.29c40 0 73.143-33.143 73.143-73.143z" />
<glyph unicode="&#xe920;" glyph-name="mastercard-alt" horiz-adv-x="1317" d="M639.429 756c-47.429 31.429-103.429 48.571-160.571 48.571-160.571 0-290.857-130.286-290.857-290.286 0-160.571 130.286-290.857 290.857-290.857 57.143 0 113.143 17.143 160.571 48.571-153.143 124.571-152 359.429 0 484v0.001zM658.286 742.286c-147.429-116-148-341.143 0-456.571 148 115.429 147.429 340.571 0 456.571zM677.143 756c151.429-124.571 153.714-360 0-484 47.429-31.429 104-48.571 160.571-48.571 160.571 0 290.857 130.286 290.857 290.857 0 160-130.286 290.286-290.857 290.286-57.143 0-113.143-17.143-160.571-48.571zM1100.57 343.428h4v1.714h-9.714v-1.714h4v-9.714h1.714v9.714zM1117.14 333.714h2.286v11.429h-2.857l-3.429-7.429-3.429 7.429h-2.857v-11.429h1.714v8.571l3.429-7.429h2.286l2.857 7.429v-8.571zM1112.57 82.286v-1.143h-2.857v1.714h2.857v-0.571zM1112.57 77.143h1.714l-2.286 2.857c1.143 0 1.143 0.571 1.714 0.571 0.571 0.571 0.571 1.143 0.571 1.714s0 1.143-0.571 1.714c-0.571 0-1.143 0.571-2.286 0.571h-3.429v-7.429h1.714v2.857h0.571zM391.429 116c0 13.714 8.571 24.571 23.429 24.571 13.714 0 22.857-10.857 22.857-24.571 0-14.286-9.143-24.571-22.857-24.571-14.857 0-23.429 10.857-23.429 24.571zM661.714 141.143c10.857 0 18.286-6.286 20-18.286h-40c1.714 10.857 8.571 18.286 20 18.286zM865.143 116c0 13.714 8.571 24.571 22.857 24.571s23.429-10.857 23.429-24.571c0-14.286-9.143-24.571-23.429-24.571s-22.857 10.857-22.857 24.571zM1020.57 116c0 13.714 9.143 24.571 23.429 24.571 13.714 0 23.429-10.857 23.429-24.571 0-14.286-9.714-24.571-23.429-24.571-14.286 0-23.429 10.857-23.429 24.571zM1110.86 74.857c-0.571 0-1.143 0-2.286 0.571-0.571 0-1.143 0.571-1.714 1.143s-1.143 1.143-1.143 1.714-0.571 1.714-0.571 2.286 0 1.714 0.571 2.286c0 1.143 0.571 1.714 1.143 2.286s1.143 0.571 1.714 1.143 1.714 0.571 2.286 0.571 1.714 0 2.286-0.571 1.714-0.571 2.286-1.143 0.571-1.143 1.143-2.286c0-0.571 0.571-1.143 0.571-2.286 0-0.571-0.571-1.143-0.571-2.286-0.571-0.571-0.571-1.143-1.143-1.714s-1.143-1.143-2.286-1.143c-0.571-0.571-1.143-0.571-2.286-0.571zM342.286 77.143h17.143v48.571c0 18.286-12 30.286-30.857 30.857-9.714 0-20-2.857-26.857-13.714-5.143 8.571-13.714 13.714-25.714 13.714-8 0-16-2.857-22.286-11.429v9.143h-17.143v-77.143h17.143v42.857c0 13.714 7.429 20.571 18.857 20.571s17.143-7.429 17.143-20.571v-42.857h16.571v42.857c0 13.714 8 20.571 18.857 20.571 11.429 0 17.143-7.429 17.143-20.571v-42.857zM437.143 77.143h16.571v77.143h-16.571v-9.143c-5.714 6.857-13.714 11.429-24.571 11.429-21.714 0-38.286-17.143-38.286-40.571s16.571-40.571 38.286-40.571c10.857 0 18.857 4 24.571 11.429v-9.716zM538.857 100.571c0 13.714-10.286 20.571-26.857 22.857l-8 1.143c-7.429 1.143-13.143 2.857-13.143 8s5.143 8.571 14.286 8.571c10.286 0 19.429-3.429 24.571-6.286l6.857 13.714c-8 5.143-18.857 8-31.429 8-19.429 0-32-9.714-32-25.143 0-12.571 9.143-20 26.857-22.286l7.429-1.143c9.714-1.714 13.714-4 13.714-8 0-6.286-6.286-9.714-17.714-9.714s-20 4-25.714 8l-7.429-13.143c9.143-6.286 20.571-9.714 33.143-9.714 22.286 0 35.429 10.286 35.429 25.143v0.001zM613.143 81.143l-4.571 14.286c-5.143-2.857-10.286-4-14.857-4-8.571 0-10.857 5.143-10.857 12.571v34.857h27.429v15.429h-27.429v23.429h-17.143v-23.429h-16v-15.429h16v-34.857c0-17.714 6.857-28.571 26.857-28.571 6.857 0 15.429 2.286 20.571 5.714zM662.286 156.571c-22.286 0-38.286-16.571-38.286-40.571 0-24.571 16.571-40.571 39.429-40.571 11.429 0 22.286 2.857 31.429 10.857l-8 12.571c-6.286-5.143-14.857-8.571-22.286-8.571-10.857 0-20.571 5.143-23.429 18.857h57.714v6.857c0 24-14.857 40.571-36.571 40.571zM753.143 156.571c-9.714 0-16-4.571-20-11.429v9.143h-17.143v-77.143h17.143v43.429c0 12.571 5.143 20 16.571 20 3.429 0 6.857-0.571 10.286-2.286l5.143 16c-4 1.714-8.571 2.286-12 2.286zM770.286 116c0-23.429 16-40.571 41.143-40.571 11.429 0 19.429 2.286 27.429 9.143l-8 13.714c-6.286-4.571-12.571-7.429-20-6.857-13.714 0-23.429 9.714-23.429 24.571s9.714 24.571 23.429 24.571c7.429 0 13.714-2.286 20-6.857l8 13.714c-8 6.286-16 9.143-27.429 9.143-25.143 0-41.143-17.143-41.143-40.571zM910.286 77.143h17.143v77.143h-17.143v-9.143c-5.143 6.857-13.143 11.429-24 11.429-21.714 0-38.857-17.143-38.857-40.571s17.143-40.571 38.857-40.571c10.857 0 18.857 4 24 11.429v-9.716zM986.286 156.571c-9.714 0-16-4.571-20-11.429v9.143h-16.571v-77.143h16.571v43.429c0 12.571 5.714 20 16.571 20 3.429 0 6.857-0.571 10.286-2.286l5.143 16c-3.429 1.714-8.571 2.286-12 2.286zM1066.29 77.143h16.571v108.571h-16.571v-40.571c-5.143 6.857-13.143 11.429-24.571 11.429-21.143 0-38.286-17.143-38.286-40.571s17.143-40.571 38.286-40.571c11.429 0 19.429 4 24.571 11.429v-9.716zM1110.86 88.571c-0.571 0-1.714-0.571-2.857-0.571-1.143-0.571-1.714-1.143-2.286-1.714-1.143-0.571-1.714-1.714-1.714-2.286-0.571-1.143-0.571-2.286-0.571-3.429 0-0.571 0-1.714 0.571-2.857 0-0.571 0.571-1.714 1.714-2.286 0.571-0.571 1.143-1.143 2.286-1.714s2.286-0.571 2.857-0.571c1.143 0 2.286 0 3.429 0.571 0.571 0.571 1.714 1.143 2.286 1.714s1.143 1.714 1.714 2.286c0.571 1.143 0.571 2.286 0.571 2.857 0 1.143 0 2.286-0.571 3.429-0.571 0.571-1.143 1.714-1.714 2.286s-1.714 1.143-2.286 1.714c-1.143 0-2.286 0.571-3.429 0.571zM1316.57 804.571v-731.429c0-40-33.143-73.143-73.143-73.143h-1170.29c-40 0-73.143 33.143-73.143 73.143v731.429c0 40 33.143 73.143 73.143 73.143h1170.29c40 0 73.143-33.143 73.143-73.143z" />
<glyph unicode="&#xe921;" glyph-name="uniE920" horiz-adv-x="625" d="M621.568-46.592v985.088c0 11.264-11.264 11.264-11.264 11.264h-594.944c-11.264-1.024-9.216-9.216-9.216-9.216v-987.136s1.024-8.192 9.216-9.216h90.112c1.024 24.576 21.504 44.032 46.080 44.032s45.056-19.456 46.080-44.032h78.848c1.024 24.576 21.504 44.032 46.080 44.032s45.056-19.456 46.080-44.032h67.584c1.024 24.576 21.504 44.032 46.080 44.032s45.056-19.456 46.080-44.032h84.992c-1.024 0 9.216 0 8.192 9.216z" />
<glyph unicode="&#xe922;" glyph-name="uniE921" horiz-adv-x="625" d="M422.912 620.032h-148.48v-115.712h165.888v-59.392h-237.568v394.24h229.376v-59.392h-157.696v-101.376h148.48z" />
<glyph unicode="&#xe923;" glyph-name="uniE922" horiz-adv-x="625" d="M136.192 302.592h40.96v-167.936h-40.96v167.936z" />
<glyph unicode="&#xe924;" glyph-name="uniE923" horiz-adv-x="625" d="M451.584 302.592h40.96v-167.936h-40.96v167.936z" />
<glyph unicode="&#xe925;" glyph-name="uniE924" horiz-adv-x="625" d="M204.8 302.592h53.248v-135.168h-53.248v135.168z" />
<glyph unicode="&#xe926;" glyph-name="uniE925" horiz-adv-x="625" d="M286.72 302.592h53.248v-135.168h-53.248v135.168z" />
<glyph unicode="&#xe927;" glyph-name="uniE926" horiz-adv-x="625" d="M368.64 302.592h53.248v-135.168h-53.248v135.168z" />
<glyph unicode="&#xe928;" glyph-name="webmoney" d="M721.001 175.458l99.774-113.953c-19.955-15.229-41.485-29.932-65.116-43.061-71.943-40.96-155.438-64.591-244.185-64.591-273.067 0-495.721 222.654-495.721 495.721-0.525 272.542 222.129 494.671 495.196 494.671 77.719 0 151.762-17.854 217.403-50.412 10.503-4.726 20.48-10.503 30.457-16.279l-45.686-40.96-68.267 70.892-115.528-103.45-68.267 75.093-215.828-194.297 138.109-152.287-54.613-47.787 136.008-152.287-54.088-47.787 194.297-216.353 116.053 107.126zM957.309 482.658l53.038-58.814-58.814-53.038-53.038 58.814zM875.914 275.233l79.819-88.222-88.222-79.819-79.819 88.222zM641.182 818.215l79.819-88.222-88.747-79.819-79.819 88.222zM454.236 787.758l106.076-117.629-117.629-106.601-106.076 118.154zM713.649 472.681l-79.294 88.222 88.222 79.819 79.819-88.222zM822.876 604.488l58.814 53.038 53.038-58.814-58.814-53.038zM789.268 285.735l-79.819 88.222 88.747 79.819 79.819-88.222zM747.783 779.881l58.814 53.038 53.038-58.814-58.814-53.038zM526.704 362.404l-106.076 117.629 117.629 106.076 106.076-117.629zM610.724 158.654l-106.076 117.629 117.629 106.076 106.076-117.629z" />
<glyph unicode="&#xe929;" glyph-name="edit" d="M960-64h-896c-35.344 0-64 28.624-64 64v896c0 35.376 28.656 64 64 64h640l-128-128h-448v-768h768v448l128 128v-640c0-35.376-28.656-64-64-64zM256 192v192l576 576h64l128-128v-64l-576-576h-192zM544 416l352 352-64 64-352-352zM384 384l-64-64v-64h64l64 64z" />
<glyph unicode="&#xe92a;" glyph-name="telegram-fill" d="M679.429 204l84 396c7.429 34.857-12.571 48.571-35.429 40l-493.714-190.286c-33.714-13.143-33.143-32-5.714-40.571l126.286-39.429 293.143 184.571c13.714 9.143 26.286 4 16-5.143l-237.143-214.286-9.143-130.286c13.143 0 18.857 5.714 25.714 12.571l61.714 59.429 128-94.286c23.429-13.143 40-6.286 46.286 21.714zM1024 438.857c0-282.857-229.143-512-512-512s-512 229.143-512 512 229.143 512 512 512 512-229.143 512-512z" />
<glyph unicode="&#xe92b;" glyph-name="logo" horiz-adv-x="624" d="M9.513 957.255c-10.912-0.655-9.447-9.591-9.447-9.591v-999.969c0 0 0.624-8.19 8.808-8.952h91.223c0.836 25.065 21.324 45.042 46.534 45.042 25.316 0 45.659-19.982 46.678-45.042h79.645c1.092 25.065 21.469 45.042 46.608 45.042 25.246 0 45.623-19.982 46.678-45.042h68.7c1.018 25.065 21.505 45.042 46.608 45.042 25.209 0 45.729-19.982 46.747-45.042h85.965c-0.037 0 10.060-0.011 9.735 9.522v997.838c-0.4 11.131-11.579 11.152-11.579 11.152h-602.897zM199.272 845.64h232.104v-59.823h-159.284v-103.016h150.332v-59.184h-150.332v-117.157h168.166v-59.823h-240.987v398.992zM131.851 302.070h40.991v-170.155h-40.991v170.155zM201.26 302.070h53.994v-137.262h-53.994v137.262zM284.032 302.070h53.711v-137.262h-53.711v137.262zM367.439 302.070h53.855v-137.262h-53.855v137.262zM451.485 302.070h41.136v-170.155h-41.136v170.155z" />
<glyph unicode="&#xe92c;" glyph-name="karabas" horiz-adv-x="4368" d="M-0.133 679.63h103.755v-204.762h2.059c10.309 17.844 21.312 34.374 31.627 50.844l105.129 153.917h128.479l-153.23-197.228 161.479-265.922h-122.315l-113.378 199.979-39.817-48.815v-151.165h-103.755v463.181zM521.33 335.338l-32.941-118.878h-108.626l141.572 463.118h137.448l143.663-463.118h-112.722l-35.692 118.878h-132.664zM638.824 413.655l-28.846 98.281c-8.25 27.471-16.469 61.817-23.347 89.343h-1.404c-6.878-27.502-13.778-62.535-21.312-89.343l-27.471-98.281h102.408zM847.009 673.387c33.627 5.498 83.785 9.624 139.507 9.624 68.718 0 116.818-10.309 149.793-36.408 27.471-21.999 42.594-54.254 42.594-96.906 0-59.095-41.909-99.631-81.725-114.095v-2.059c32.256-13.033 50.127-43.941 61.789-86.595 14.437-52.158 28.846-112.661 37.813-130.51h-107.223c-7.564 13.062-18.591 50.844-32.283 107.879-12.344 57.692-32.256 73.476-74.848 74.193h-31.627v-182.077h-103.726v456.96zM950.716 474.122h41.252c52.19 0 83.099 26.123 83.099 66.658 0 42.594-28.846 63.875-76.968 64.593-25.467 0-39.877-2.059-47.435-3.409v-127.824zM1351.24 335.338l-32.909-118.878h-108.596l141.541 463.118h137.448l143.633-463.118h-112.661l-35.723 118.878h-132.635zM1468.774 413.655l-28.876 98.281c-8.22 27.471-16.5 61.817-23.347 89.343h-1.404c-6.878-27.502-13.748-62.535-21.312-89.343l-27.471-98.281h102.436zM1676.944 673.387c27.471 5.498 83.099 9.624 135.383 9.624 63.909 0 103.038-6.185 136.729-26.123 32.256-17.187 55.657-48.753 55.657-90.691 0-41.191-24.064-79.69-76.312-98.883v-1.404c52.91-14.437 92.065-54.254 92.065-114.036 0-41.938-19.223-74.877-48.094-98.286-33.718-26.811-90.035-41.877-182.105-41.877-51.501 0-89.976 3.437-113.318 6.878v454.901zM1780.697 496.125h34.374c54.969 0 84.503 22.656 84.503 57.005 0 35.030-26.781 53.595-74.193 53.595-22.686 0-35.723-1.434-44.658-2.752v-107.851zM1780.697 290.644c10.309-1.372 22.716-1.372 40.535-1.372 47.406 0 89.316 17.874 89.316 66.629 0 46.72-41.909 65.256-94.13 65.256h-35.723v-130.6zM2179.846 335.338l-32.941-118.878h-108.566l141.541 463.118h137.477l143.601-463.118h-112.661l-35.752 118.878h-132.604zM2297.318 413.655l-28.846 98.281c-8.25 27.471-16.5 61.817-23.347 89.343h-1.372c-6.878-27.502-13.778-62.535-21.312-89.343l-27.471-98.281h102.377zM2508.897 324.366c28.187-14.437 71.471-28.846 116.16-28.846 48.094 0 73.504 19.879 73.504 50.068 0 28.846-22.059 45.406-77.66 65.285-76.998 26.84-127.128 69.441-127.128 136.761 0 79.004 65.94 139.476 175.199 139.476 52.217 0 90.691-10.941 118.192-23.347l-23.347-84.53c-18.591 8.937-51.562 22.028-96.906 22.028-45.406 0-67.376-20.626-67.376-44.69 0-29.563 26.123-42.594 85.91-65.285 81.697-30.219 120.196-72.816 120.196-138.075 0-77.63-59.812-143.633-186.919-143.633-52.848 0-105.129 13.778-131.257 28.16l21.342 86.568zM2848.323 272.112c0 37.094 25.438 63.937 61.789 63.937 36.469 0 61.189-26.123 61.189-63.937 0-36.44-24.691-63.248-61.846-63.248-35.723 0-61.129 26.811-61.129 63.248zM3360.938 229.519c-19.253-9.624-62.535-19.908-118.907-19.908-160.103 0-242.514 99.631-242.514 231.573 0 158.011 112.661 245.952 252.886 245.952 54.283 0 95.504-10.941 114.065-20.566l-21.312-83.128c-21.312 8.965-50.905 17.187-87.942 17.187-83.19 0-147.786-50.159-147.786-153.201 0-92.783 54.969-151.165 148.475-151.165 31.566 0 66.629 6.878 87.256 15.098l15.813-81.756zM3815.723 452.869c0-151.912-92.065-244.005-227.446-244.005-137.417 0-217.792 103.755-217.792 235.726 0 138.792 88.626 242.543 225.36 242.543 142.228 0 219.858-106.503 219.858-234.263zM3481.105 446.656c0-90.691 42.594-154.604 112.661-154.604 70.754 0 111.318 67.343 111.318 157.327 0 83.159-39.877 154.604-112.005 154.604-70.724 0-111.944-67.343-111.944-157.327zM4258.849 393.745c-2.059 55.628-4.126 122.971-4.126 190.325h-2.059c-14.437-59.095-33.598-125.066-51.533-179.356l-56.343-180.696h-81.725l-49.5 179.264c-15.098 54.343-30.909 120.314-41.877 180.788h-1.434c-2.691-62.562-4.783-134.009-8.191-191.73l-8.22-175.887h-96.906l29.532 463.118h139.537l45.256-154.574c14.467-53.627 28.876-111.348 39.187-165.636h2.093c13.033 53.595 28.846 114.753 43.911 166.291l49.5 153.917h136.7l25.467-463.118h-102.408l-6.878 177.318z" />
<glyph unicode="&#xe92d;" glyph-name="google_play" horiz-adv-x="3465" d="M3465.093 49.504v796.992c-1.383 53.604-45.166 96.53-98.974 96.53-0.011 0-0.021 0-0.032 0h-3267.169c-56.928 0-99.005-42.078-99.005-99.005v-792.041c0-56.928 42.078-99.005 99.005-99.005h3267.171c54.679 0 99.005 44.326 99.005 99.005v0zM3363.614-34.652h-3262.221c-54.453 0-89.104 34.651-89.104 89.104v779.666c0 54.453 34.651 96.53 89.104 96.53h3262.221c54.453 0 89.104-34.651 89.104-89.104v-787.091c0-51.978-34.651-89.104-89.104-89.104zM2432.965 534.628v29.701h9.9v2.475h-22.276v-2.475h9.9v-29.701zM2145.85 663.335v-279.69c0-9.9-2.475-9.9-14.851-24.751h81.679l17.326 9.9-24.751 2.475c-14.851 0-17.326 4.95-17.326 22.276v259.889c0 14.851 7.425 17.326 19.801 24.751h-61.878l-34.651-14.851h34.651zM2121.099 559.38h-94.055c-2.137 0.132-4.635 0.207-7.151 0.207-28.121 0-54.052-9.379-74.834-25.181l0.305 0.222c-17.326-14.851-27.226-37.127-27.226-59.403 0-34.651 24.751-69.304 74.254-69.304h14.851l-4.95-17.326c0-14.851 7.425-24.751 12.375-32.176-19.801 0-56.928-2.475-84.154-19.801-27.226-14.851-34.651-39.603-34.651-54.453 0-34.651 29.701-64.353 96.53-64.353 76.729 0 118.807 42.078 118.807 84.154 0 32.176-19.801 47.028-39.603 64.353l-14.851 12.375c-4.95 2.475-12.375 9.9-12.375 19.801s7.425 14.851 12.375 22.276c19.801 14.851 37.127 29.701 37.127 61.878 0.025 0.729 0.041 1.585 0.041 2.445 0 24.226-11.603 45.743-29.554 59.297l-0.188 0.136h24.751l29.701 17.326zM2079.021 287.116c0-29.701-22.276-49.503-64.353-49.503-49.503 0-79.204 22.276-79.204 54.453s27.226 42.078 37.127 44.553c19.801 7.425 44.553 7.425 49.503 7.425h9.9c32.176-24.751 49.503-37.127 49.503-59.403zM2046.845 428.198c-7.425-7.425-19.801-12.375-29.701-12.375-39.603 0-56.928 49.503-56.928 79.204 0 12.375 0 24.751 9.9 34.651 7.425 7.425 19.801 14.851 29.701 14.851 39.603 0 56.928-49.503 56.928-84.154 0-7.425 0-24.751-9.9-32.176zM2269.606 368.795c24.751-17.326 49.503-17.326 61.878-17.326s29.701 0 44.553 7.425l14.851 9.9 24.751 22.276c-17.326-9.9-34.651-17.326-56.928-17.326-42.078 0-81.679 34.651-91.58 91.58h34.651l103.955 44.553c-4.219 18.509-14.892 34.021-29.473 44.398l-0.228 0.154c-13.645 7.284-29.844 11.562-47.041 11.562-56.046 0-101.48-45.434-101.48-101.48 0-0.584 0.005-1.167 0.015-1.749l-0.001 0.087c0-32.176 12.375-74.254 44.553-94.055zM2316.634 551.954c24.751 0 44.553-19.801 44.553-39.603 0-4.95-4.95-7.425-12.375-9.9l-81.679-37.127-2.475 24.751c0 49.503 34.651 61.878 49.503 61.878zM2477.517 534.628v32.176h-7.425l-7.425-27.226-7.425 27.226h-4.95v-32.176h2.475v29.701l9.9-29.701h2.475l7.425 29.701v-29.701zM2975.019 477.7c-69.304-2.475-103.955-24.751-103.955-69.304 0-19.801 7.425-34.651 17.326-47.028 12.806-10.79 29.487-17.348 47.701-17.348 0.633 0 1.266 0.008 1.895 0.023l-0.093-0.002c1.265-0.058 2.748-0.090 4.238-0.090 13.651 0 26.657 2.763 38.489 7.76l-0.65-0.244c9.9 4.95 22.276 14.851 32.176 27.226l7.425-29.701h24.751v148.508c0 24.751-7.425 42.078-19.801 54.453-12.375 9.9-29.701 14.851-56.928 14.851-1.171 0.032-2.549 0.051-3.931 0.051-25.72 0-49.937-6.431-71.132-17.773l0.81 0.396 12.375-24.751c24.751 9.9 42.078 17.326 61.878 17.326 14.851 0 24.751-4.95 34.651-12.375 7.425-9.9 9.9-22.276 9.9-37.127v-14.851h-37.127zM3012.145 435.624c0-19.801-7.425-34.651-17.326-47.028-12.375-9.9-27.226-17.326-49.503-17.326-12.375 0-22.276 4.95-29.701 9.9-7.425 7.425-9.9 14.851-9.9 24.751 0 17.326 4.95 29.701 17.326 34.651s29.701 12.375 56.928 12.375h32.176v-17.326zM2628.5 353.944c12.375-7.425 24.751-9.9 39.603-9.9 27.226 0 49.503 9.9 64.353 29.701 17.326 19.801 24.751 49.503 24.751 84.154s-7.425 61.878-24.751 81.679c-14.637 18.195-36.9 29.741-61.861 29.741-0.877 0-1.75-0.014-2.62-0.043l0.127 0.003c-14.851 0-27.226-2.475-39.603-7.425-12.133-5.67-22.149-14.1-29.547-24.521l-0.155-0.229-4.95 27.226h-24.751v-311.866h29.701v123.757l29.701-24.751zM2598.799 465.325c0 24.751 7.425 44.553 17.326 56.928 7.425 12.375 24.751 17.326 47.028 17.326 19.801 0 34.651-4.95 44.553-19.801s14.851-34.651 14.851-61.878c0-24.751-4.95-49.503-14.851-61.878-9.9-14.851-24.751-24.751-44.553-24.751-22.276 0-37.127 7.425-49.503 19.801-9.9 14.851-14.851 34.651-14.851 66.829v7.425zM2799.284 655.91h32.176v-306.916h-32.176zM933.037 475.225c19.801 9.9 17.326 22.276 2.475 29.701l-136.132 79.204-99.005-99.005 91.58-91.58 143.558 81.679zM789.48 589.081l-148.508 86.629-294.54 168.308-14.851 4.95 356.419-356.419 99.005 99.005zM314.254 829.169v-685.61c0-7.425 4.95-12.375 9.9-14.851l361.369 356.419-363.844 358.894c-4.95-2.475-4.95-7.425-4.95-14.851zM1353.809 596.507l37.127 34.651c-9.9 7.425-24.751 19.801-59.403 27.226-22.276 7.425-44.553 9.9-69.304 9.9-113.856 0-183.16-81.679-183.16-168.308 0-74.254 49.503-163.358 173.259-163.358l74.254 7.425 64.353 14.851v76.729l4.95 7.425 12.375 12.375h-96.53l-32.176-19.801 66.829 2.475v-74.254c-12.375-4.95-27.226-9.9-56.928-9.9-99.005 0-160.883 79.204-160.883 165.833 0 79.204 54.453 133.657 126.232 133.657 54.453 0 81.679-27.226 99.005-42.078l-12.375-19.801 14.851 4.95zM1428.063 457.899c0-49.503 37.127-106.43 106.43-106.43 74.254 0 116.331 56.928 116.331 108.905 0 54.453-42.078 106.43-108.905 106.43s-113.856-49.503-113.856-106.43zM1606.272 438.099c0-17.326-2.475-34.651-14.851-49.503-9.9-14.851-27.226-24.751-44.553-24.751-54.453 0-76.729 74.254-76.729 118.807 0 19.801 2.475 39.603 19.801 54.453 9.9 9.9 24.751 17.326 39.603 17.326 56.928 0 74.254-76.729 74.254-116.331zM3088.874 279.691h-24.751v-24.751l32.176-2.475c17.326 0 32.176 4.95 44.553 14.851 14.523 14.011 25.609 31.487 31.933 51.102l0.244 0.876 91.58 247.513h-34.651c3.155 18.718-18.703-42.871-40.050-104.7l-24.304-80.935-19.801 59.403-49.503 123.757h-32.176l86.629-215.336-12.375-32.176c-9.9-24.751-24.751-37.127-49.503-37.127zM782.054 386.121l-91.58 89.104-339.093-336.618 284.64 165.833 148.508 81.679zM1670.625 457.899c0-49.503 37.127-106.43 108.905-106.43 74.254 0 113.856 56.928 113.856 108.905 0 54.453-42.078 106.43-106.43 106.43-69.304 0-116.331-49.503-116.331-108.905zM1848.834 438.099c0-17.326-2.475-34.651-12.375-49.503-12.375-14.851-29.701-24.751-47.028-24.751-54.453 0-74.254 74.254-74.254 118.807 0 19.801 0 39.603 19.801 54.453 9.9 9.9 24.751 17.326 39.603 17.326 54.453 0 74.254-76.729 74.254-116.331z" />
<glyph unicode="&#xe92e;" glyph-name="apple_store" horiz-adv-x="3465" d="M3465.092 49.504v796.992c-1.383 53.604-45.166 96.53-98.974 96.53-0.011 0-0.021 0-0.032 0h-3267.169c-56.928 0-99.005-42.078-99.005-99.005v-792.041c0-56.928 42.078-99.005 99.005-99.005h3267.171c54.679 0 99.005 44.326 99.005 99.005v0zM3363.612-34.652h-3262.221c-54.453 0-89.104 34.651-89.104 89.104v779.666c0 54.453 34.651 96.53 89.104 96.53h3262.221c54.453 0 91.58-34.651 91.58-89.104v-787.091c0-51.978-37.126-89.104-91.58-89.104zM754.824 452.949c-2.475 84.154 66.829 123.757 69.304 126.232-26.525 38.542-69.417 64.171-118.419 66.812l-0.387 0.016c-49.503 4.95-99.005-29.701-126.232-29.701s-66.829 29.701-111.381 29.701c-58.527-2.521-108.823-35.469-135.709-83.333l-0.424-0.821c-59.403-101.48-14.851-252.463 42.078-334.143 27.226-42.078 61.878-86.629 103.955-84.154 42.078 0 59.403 24.751 108.905 24.751s66.829-24.751 108.905-24.751c47.028 0 74.254 39.603 101.48 81.679 34.651 47.028 47.028 91.58 49.503 94.055-2.475 0-91.58 34.651-91.58 133.657zM668.195 700.462c23.18 26.076 37.341 60.62 37.341 98.47 0 2.8-0.077 5.583-0.23 8.344l0.017-0.384c-32.176 0-74.254-24.751-99.005-49.503-19.801-24.751-37.126-66.829-32.176-103.955 0.563-0.009 1.228-0.014 1.894-0.014 39.256 0 74.245 18.278 96.917 46.789l0.194 0.253zM1366.181 148.508h-59.403l-32.176 101.48h-113.856l-29.701-101.48h-59.403l113.856 346.518h64.353l113.856-346.518zM1264.701 292.066l-29.701 94.055-17.326 64.353-17.326-64.353-29.701-91.58h94.055zM1653.296 277.215c0-44.553-12.375-76.729-34.651-101.48-18.169-19.845-44.19-32.242-73.108-32.242-1.273 0-2.541 0.024-3.803 0.072l0.182-0.005c-34.651 0-56.928 9.9-71.779 34.651v-131.182h-56.928v351.469h49.503v-39.603c16.244 27.061 45.432 44.889 78.784 44.889 2.762 0 5.495-0.122 8.196-0.361l-0.349 0.025c29.701 0 54.453-12.375 74.254-34.651 19.801-24.751 29.701-54.453 29.701-91.58zM1596.369 274.74c0 24.751-4.95 44.553-17.326 59.403-12.375 17.326-27.226 24.751-49.503 24.751-12.375 0-24.751-4.95-34.651-12.375-14.432-12.911-23.763-31.267-24.745-51.809l-0.006-0.169v-44.553c0-17.326 4.95-32.176 14.851-44.553 12.375-12.375 24.751-19.801 44.553-19.801s37.126 9.9 49.503 24.751c9.9 17.326 17.326 37.126 17.326 64.353zM1940.411 277.215c0-44.553-12.375-76.729-34.651-101.48-18.169-19.845-44.19-32.242-73.108-32.242-1.273 0-2.541 0.024-3.803 0.072l0.182-0.005c-32.176 0-56.928 9.9-71.779 34.651v-131.182h-56.928v351.469h49.503v-39.603h2.475c16.265 26.963 45.399 44.716 78.68 44.716 1.926 0 3.837-0.060 5.734-0.177l-0.26 0.013c29.701 0 54.453-12.375 74.254-34.651 19.801-24.751 29.701-54.453 29.701-91.58zM1883.483 274.74c0 24.751-4.95 44.553-17.326 59.403-12.375 17.326-27.226 24.751-49.503 24.751-12.375 0-24.751-4.95-34.651-12.375-12.375-9.9-19.801-22.276-24.751-37.126v-59.403c0-17.326 4.95-32.176 17.326-44.553 9.9-12.375 24.751-19.801 42.078-19.801 22.276 0 37.126 9.9 49.503 24.751s17.326 37.126 17.326 64.353zM2262.178 245.038c0-29.701-9.9-51.978-32.176-71.779s-54.453-29.701-94.055-29.701c-37.126 0-66.829 7.425-89.104 22.276l12.375 44.553c24.751-14.851 49.503-22.276 79.204-22.276 1.42-0.096 3.078-0.152 4.748-0.152 16.889 0 32.461 5.638 44.936 15.135l-0.182-0.133c12.375 9.9 17.326 22.276 17.326 37.126s-4.95 24.751-14.851 37.126c-7.425 9.9-24.751 17.326-47.028 24.751-59.403 24.751-91.58 56.928-91.58 99.005 0 29.701 12.375 54.453 32.176 71.779 21.068 17.151 48.238 27.539 77.833 27.539 3.095 0 6.164-0.114 9.203-0.337l-0.406 0.024c29.701 0 56.928-4.95 76.729-17.326l-12.375-44.553c-19.801 9.9-42.078 17.326-66.829 17.326-19.801 0-34.651-4.95-47.028-14.851-7.425-9.9-12.375-19.801-12.375-32.176s4.95-24.751 14.851-34.651c9.9-7.425 24.751-17.326 49.503-24.751 32.176-12.375 51.978-27.226 66.829-44.553 14.851-14.851 22.276-34.651 22.276-59.403zM2445.337 356.419h-61.878v-118.807c0-29.701 12.375-47.028 32.176-47.028l24.751 2.475v-42.078c-10.562-3.26-22.705-5.137-35.285-5.137-2.39 0-4.763 0.068-7.119 0.201l0.327-0.015c-19.801 0-37.126 7.425-49.503 19.801s-19.801 34.651-19.801 66.829v126.232h-37.126v42.078h37.126v44.553l54.453 17.326v-61.878h61.878v-42.078zM2722.552 274.74c0-37.126-12.375-69.304-34.651-94.055-24.751-24.751-51.978-37.126-91.58-37.126-37.126 0-64.353 12.375-86.629 34.651-22.276 24.751-32.176 56.928-32.176 94.055s9.9 69.304 32.176 94.055c24.751 24.751 54.453 37.126 91.58 37.126s66.829-12.375 89.104-37.126c19.801-24.751 32.176-54.453 32.176-91.58zM2663.149 274.74c0 22.276-4.95 42.078-14.851 56.928-8.702 19.069-27.572 32.099-49.493 32.176h-0.010c-22.276 0-39.603-9.9-49.503-32.176-12.375-14.851-17.326-34.651-17.326-59.403s4.95-42.078 14.851-59.403c12.375-19.801 29.701-29.701 49.503-29.701 24.751 0 39.603 9.9 51.978 29.701 9.9 17.326 14.851 37.126 14.851 61.878zM2900.761 348.994c-2.596 0.242-5.613 0.38-8.663 0.38s-6.068-0.138-9.046-0.408l0.384 0.028c-17.326 0-34.651-4.95-44.553-19.801-9.9-12.375-14.851-29.701-14.851-49.503v-131.182h-54.453v247.513h47.028v-44.553h2.475c7.425 14.851 17.326 29.701 29.701 39.603 12.375 7.425 24.751 12.375 39.603 12.375h12.375v-54.453zM3150.751 287.116l-2.475-27.226h-165.833c-0.010-0.467-0.016-1.016-0.016-1.567 0-21.966 9.538-41.704 24.699-55.298l0.070-0.062c12.375-12.375 29.701-17.326 54.453-17.326s47.028 4.95 66.829 12.375l7.425-39.603c-24.751-9.9-49.503-14.851-84.154-14.851-37.126 0-69.304 12.375-91.58 34.651-19.801 22.276-32.176 51.978-32.176 91.58 0 37.126 9.9 69.304 32.176 94.055 19.801 24.751 49.503 39.603 86.629 39.603 34.651 0 61.878-12.375 81.679-39.603 14.851-22.276 22.276-49.503 22.276-79.204zM3096.297 299.491c0.097 1.425 0.153 3.090 0.153 4.768 0 13.744-3.734 26.615-10.243 37.656l0.189-0.347c-8.714 14.917-24.649 24.78-42.887 24.78-0.586 0-1.169-0.010-1.75-0.030l0.084 0.002c-17.326 0-32.176-7.425-44.553-24.751-7.425-9.9-14.851-24.751-14.851-42.078h113.856zM1242.425 707.888c0-29.701-7.425-54.453-24.751-69.304-19.801-14.851-42.078-19.801-74.254-19.801h-39.603v168.308l47.028 2.475c29.701 0 51.978-4.95 66.829-17.326 17.326-14.851 24.751-37.126 24.751-64.353zM1215.198 707.888c0 19.801-4.95 34.651-17.326 44.553-9.9 12.375-24.751 17.326-44.553 17.326h-24.751v-128.707h19.801c22.276 0 37.126 4.95 49.503 14.851 12.375 12.375 17.326 29.701 17.326 49.503zM1398.358 683.136c0-19.801-7.425-37.126-17.326-49.503-12.375-9.9-27.226-17.326-47.028-17.326-17.326 0-32.176 4.95-42.078 17.326s-17.326 27.226-17.326 47.028c0 17.326 7.425 34.651 17.326 44.553 12.375 12.375 24.751 19.801 44.553 19.801s32.176-7.425 44.553-17.326c9.9-12.375 14.851-27.226 14.851-47.028zM1368.657 680.661c0 12.375-2.475 19.801-7.425 29.701-3.898 8.86-12.601 14.934-22.721 14.934-0.715 0-1.422-0.030-2.122-0.089l0.091 0.006c-12.375 0-19.801-4.95-24.751-14.851l-7.425-29.701c0-12.375 0-22.276 7.425-29.701 4.95-9.9 12.375-14.851 24.751-14.851 9.9 0 17.326 4.95 24.751 14.851 4.95 7.425 7.425 17.326 7.425 29.701zM1601.319 742.539l-39.603-123.757h-24.751l-14.851 54.453-9.9 39.603-9.9-39.603-17.326-54.453h-24.751l-37.126 123.757h24.751l14.851-59.403 7.425-39.603 12.375 39.603 17.326 59.403h22.276l14.851-56.928 9.9-42.078 9.9 42.078 14.851 56.928h24.751zM1742.401 618.783h-27.226v71.779c0 19.801-7.425 32.176-24.751 32.176-8.070 0-15.237-3.862-19.756-9.838l-0.045-0.062c-4.95-4.95-7.425-12.375-7.425-19.801v-74.254h-27.226v123.757h24.751v-19.801l14.851 14.851c7.425 4.95 14.851 7.425 24.751 7.425s19.801-4.95 27.226-12.375c9.9-7.425 14.851-22.276 14.851-39.603v-74.254zM1789.428 799.468h27.226v-178.209h-27.226zM1977.538 683.136c0-19.801-4.95-37.126-14.851-49.503-12.375-9.9-24.751-17.326-44.553-17.326s-32.176 4.95-44.553 17.326c-9.9 12.375-14.851 27.226-14.851 47.028 0 17.326 4.95 34.651 14.851 44.553 12.375 12.375 24.751 19.801 44.553 19.801s34.651-7.425 44.553-17.326c9.9-12.375 14.851-27.226 14.851-47.028zM1950.311 680.661c0 12.375-2.475 19.801-7.425 29.701-3.898 8.86-12.601 14.934-22.721 14.934-0.715 0-1.422-0.030-2.122-0.089l0.091 0.006c-9.9 0-19.801-4.95-24.751-14.851l-7.425-29.701c0-12.375 2.475-22.276 7.425-29.701 4.95-9.9 14.851-14.851 24.751-14.851s17.326 4.95 24.751 14.851c4.95 7.425 7.425 17.326 7.425 29.701zM2111.196 618.783h-24.751l-2.475 14.851c-9.9-12.375-22.276-17.326-37.126-17.326-9.9 0-19.801 2.475-27.226 12.375-7.425 4.95-9.9 14.851-9.9 24.751 0 14.851 7.425 24.751 19.801 34.651 12.786 6.456 27.872 10.235 43.84 10.235 2.864 0 5.7-0.122 8.503-0.36l-0.365 0.025v2.475c0 17.326-7.425 24.751-24.751 24.751-12.375 0-24.751-2.475-32.176-9.9l-7.425 17.326c9.9 7.425 24.751 12.375 42.078 12.375 32.176 0 47.028-17.326 47.028-49.503v-79.204zM2081.493 658.385v24.751c-32.176 0-47.028-7.425-47.028-24.751 0-7.425 0-12.375 4.95-14.851l14.851-4.95c4.95 0 9.9 0 14.851 4.95 6.038 4.563 9.9 11.732 9.9 19.801v0zM2264.654 618.783h-24.751v19.801c-7.425-14.851-22.276-22.276-39.603-22.276-14.851 0-27.226 4.95-37.126 17.326s-14.851 24.751-14.851 44.553 4.95 37.126 14.851 49.503c9.135 10.655 22.609 17.365 37.651 17.365 0.686 0 1.368-0.014 2.048-0.042l-0.097 0.003c14.851 0 27.226-4.95 34.651-17.326v71.779h27.226v-180.684zM2239.902 670.761v29.701c0 4.95-4.95 12.375-9.9 14.851-4.503 4.634-10.795 7.509-17.759 7.509-0.719 0-1.43-0.030-2.134-0.090l0.091 0.006c-9.9 0-17.326-2.475-24.751-12.375-4.734-7.454-7.545-16.532-7.545-26.268 0-1.208 0.044-2.406 0.128-3.593l-0.009 0.159c0-12.375 2.475-24.751 7.425-29.701 7.425-7.425 14.851-12.375 24.751-12.375s17.326 2.475 22.276 9.9c4.95 4.95 7.425 14.851 7.425 24.751zM2499.791 683.136c0-19.801-4.95-37.126-17.326-49.503-9.9-9.9-24.751-17.326-44.553-17.326-17.326 0-32.176 4.95-42.078 17.326-12.375 12.375-17.326 27.226-17.326 47.028 0 17.326 4.95 34.651 17.326 44.553 9.9 12.375 24.751 19.801 44.553 19.801 17.326 0 32.176-7.425 42.078-17.326 12.375-12.375 17.326-27.226 17.326-47.028zM2470.088 680.661c0 12.375 0 19.801-7.425 29.701-3.898 8.86-12.601 14.934-22.721 14.934-0.715 0-1.422-0.030-2.122-0.089l0.091 0.006c-9.9 0-17.326-4.95-24.751-14.851l-7.425-29.701c0-12.375 2.475-22.276 7.425-29.701 7.425-9.9 14.851-14.851 24.751-14.851 12.375 0 19.801 4.95 24.751 14.851 4.95 7.425 7.425 17.326 7.425 29.701zM2645.823 618.783h-24.751v71.779c0 19.801-9.9 32.176-24.751 32.176-0.717 0.073-1.548 0.116-2.389 0.116-8.121 0-15.327-3.911-19.841-9.951l-0.047-0.065c-4.95-4.95-7.425-12.375-7.425-19.801v-74.254h-27.226v123.757h24.751v-19.801l14.851 14.851c7.425 4.95 14.851 7.425 24.751 7.425s19.801-4.95 27.226-12.375c9.9-7.425 14.851-22.276 14.851-39.603v-74.254zM2828.982 720.263h-29.701v-59.403c0-14.851 4.95-22.276 17.326-22.276h12.375v-19.801h-22.276c-9.9 0-19.801 0-24.751 7.425s-9.9 17.326-9.9 32.176v61.878h-17.326v22.276h17.326v22.276l27.226 7.425v-29.701h29.701v-22.276zM2975.015 618.783h-27.226v69.304c0 24.751-9.9 34.651-24.751 34.651-12.375 0-22.276-7.425-24.751-19.801l-2.475-9.9v-74.254h-27.226v180.684h24.751v-74.254c9.9 12.375 24.751 19.801 39.603 19.801 9.9 0 19.801-4.95 27.226-12.375 9.9-7.425 14.851-22.276 14.851-39.603v-74.254zM3123.523 685.611v-12.375h-84.154c0-12.375 4.95-19.801 12.375-24.751 7.425-7.425 17.326-9.9 27.226-9.9 12.375 0 24.751 0 32.176 4.95l4.95-19.801c-9.9-4.95-24.751-7.425-39.603-7.425-19.801 0-34.651 4.95-47.028 17.326-9.9 12.375-14.851 24.751-14.851 44.553s4.95 34.651 14.851 47.028c9.9 12.375 24.751 19.801 42.078 19.801 19.801 0 32.176-7.425 42.078-19.801 7.425-9.9 9.9-24.751 9.9-39.603zM3098.772 693.036l-7.425 22.276c-4.563 6.038-11.732 9.9-19.801 9.9v0c-1.392 0.278-2.993 0.437-4.63 0.437-8.261 0-15.575-4.047-20.071-10.265l-0.050-0.072-7.425-22.276h56.928z" />
<glyph unicode="&#xe92f;" glyph-name="klive" horiz-adv-x="2029" d="M-0.029 941.207h174.381v-753.743h-174.381v753.743zM360.519 941.207h183.554v-139.367h-183.554v139.367zM365.056 740.887h174.429v-553.471h-174.429v553.471zM733.247 194.96v184.737l370.657 137.641-370.657 138.824v181.285l557.515-242.091v-158.304l-557.515-242.091zM1425.591 501.902c0 157.958 125.015 288.054 303.982 288.054 205.4 0 299.446-143.509 299.446-300.431 0-12.428-1.085-26.878-2.269-41.327h-428.012c17.26-71.261 72.346-108.445 150.363-108.445 58.489 0 100.949 16.521 149.131 56.812l99.766-79.546c-57.355-64.012-139.958-103.218-251.264-103.218-184.687 0-321.144 116.631-321.144 288.102zM1859.225 546.237c-10.307 70.275-56.171 117.717-129.651 117.717-72.248 0-119.295-46.406-133.054-117.717h262.704zM4.804 71.277h8.532v-85.809l55.086 51.337h11.342l-38.911-35.508 40.093-44.533h-10.751l-35.212 39.058-21.649-19.578v-19.48h-8.532v114.512zM323.038-19.711c0 16.669 15.83 26.087 38.861 26.087 12.378 0 20.91-1.43 29.49-3.451v3.451c0 16.127-10.997 24.461-29.294 24.461-10.801 0-19.676-2.712-27.913-6.461l-3.107 6.756c9.764 4.094 19.332 6.904 31.562 6.904 12.033 0 21.6-2.96 28.060-8.778 5.918-5.277 9.073-12.724 9.073-22.586v-49.907h-8.334v13.315c-7.789-9.327-19.421-15.218-32.43-15.218-0.544 0-1.086 0.010-1.626 0.031l0.077-0.003c-16.619 0-34.423 8.482-34.423 25.398zM391.539-13.3v9.123c-9.042 2.265-19.428 3.576-30.116 3.601h-0.016c-18.839 0-29.294-7.496-29.294-19.035s12.231-18.296 25.792-18.296c18.148 0 33.633 10.060 33.633 24.609zM660.111 36.805h8.532v-22.734c6.985 14.279 21.407 23.939 38.084 23.939 0.464 0 0.926-0.008 1.386-0.022l-0.067 0.001v-8.482h-0.887c-20.565 0-38.516-13.907-38.516-40.045v-32.746h-8.532v80.089zM947.82-19.711c0 16.669 15.88 26.087 38.911 26.087 12.329 0 20.91-1.43 29.49-3.451v3.451c0 16.127-11.046 24.461-29.343 24.461-10.849 0-19.676-2.712-27.863-6.461l-3.107 6.756c9.764 4.094 19.332 6.904 31.562 6.904 12.033 0 21.6-2.96 28.060-8.778 5.918-5.277 9.073-12.724 9.073-22.586v-49.907h-8.334v13.315c-7.833-9.327-19.5-15.214-32.543-15.214-0.505 0-1.007 0.009-1.509 0.026l0.073-0.003c-16.619 0-34.471 8.482-34.471 25.398zM1016.369-13.3v9.123c-9.058 2.267-19.462 3.578-30.167 3.601h-0.014c-18.789 0-29.294-7.496-29.294-19.035s12.231-18.296 25.792-18.296c18.099 0 33.682 10.060 33.682 24.609zM1293.425-25.925v-17.31h-8.532v114.512h8.532v-52.422c7.693 10.505 19.035 19.726 36.592 19.726 21.502 0 43.25-15.486 43.25-41.869 0-26.039-21.749-41.919-43.25-41.919-0.059 0-0.127 0-0.196 0-15.071 0-28.372 7.579-36.299 19.133l-0.097 0.149zM1364.045-3.19c0 21.008-16.175 34.471-34.867 34.471-18.494 0-36.198-13.907-36.198-34.669 0-20.515 17.705-34.324 36.198-34.324 19.332-0.050 34.867 12.674 34.867 34.521zM1622.311-19.711c0 16.669 15.83 26.087 38.861 26.087 12.378 0 20.91-1.43 29.49-3.451v3.451c0 16.127-10.997 24.461-29.294 24.461-10.849 0-19.726-2.712-27.913-6.461l-3.107 6.756c9.764 4.094 19.381 6.904 31.562 6.904 12.033 0 21.649-2.96 28.11-8.778 5.617-5.277 9.115-12.751 9.115-21.044 0-0.543-0.014-1.082-0.044-1.617l0.004 0.075v-49.907h-8.384v13.315c-7.789-9.327-19.421-15.218-32.43-15.218-0.544 0-1.086 0.010-1.626 0.031l0.077-0.003c-16.669 0-34.423 8.482-34.423 25.398zM1690.86-13.3v9.123c-9.042 2.265-19.428 3.576-30.116 3.601h-0.016c-18.887 0-29.343-7.496-29.343-19.035s12.181-18.296 25.792-18.296c18.148 0 33.682 10.060 33.682 24.609zM1951.692-33.223l5.129 6.115c9.715-6.756 20.515-10.455 31.859-10.455 12.033 0 21.452 5.918 21.452 15.436 0 9.419-11.146 12.921-23.573 16.027-14.45 3.797-30.527 7.643-30.527 22.291 0 12.872 12.033 22.093 29.343 22.093 10.653 0 22.686-3.403 31.562-8.828l-4.537-6.411c-7.8 4.834-17.221 7.78-27.313 7.989l-0.058 0.001c-12.231 0-20.219-5.967-20.219-14.302 0-8.926 12.033-12.181 24.757-15.486 14.252-3.551 29.294-8.334 29.294-22.734 0-14.302-13.562-23.425-30.675-23.425-13.67 0.247-26.278 4.583-36.713 11.832l0.218-0.144z" />
<glyph unicode="&#xe930;" glyph-name="afisha" horiz-adv-x="1609" d="M3.053 947.675v-996.352h1609.037v191.768h-16.924c-22.401 0-43.798 3.573-57.79 12.601s-23.234 22.317-23.234 52.432c0 29.419 10.028 42.628 24.861 51.838s36.446 12.696 56.164 12.696h16.924v110.81h-16.924c-24.949 0-45.403 4.791-58.389 14.414s-21.136 23.88-21.136 52.118c0 26.554 8.439 42.356 21.414 52.391s32.334 14.624 56.089 11.764l18.947-2.281v122.852l-15.777 1.073c-25.151 1.709-44.609 5.081-55.682 12.881s-18.494 20.267-18.494 52.691c0 27.617 7.322 41.815 18.785 51.022s29.886 14.011 54.244 14.011h16.924v181.273zM36.904 913.826h1541.338v-114.321c-22.070-1.856-42.316-7.713-58.515-20.723-20.269-16.28-31.438-43.062-31.438-77.412 0-38.54 11.821-65.552 32.854-80.366 16.792-11.827 36.461-15.694 57.099-17.695v-54.572c-23.16-0.238-44.748-6.311-61.894-19.572-21.755-16.826-34.556-44.752-34.556-79.166 0-35.729 13.089-63.201 34.835-79.314 17.466-12.943 38.846-18.615 61.616-20.374v-44.469c-18.945-1.506-39.176-5.998-57.095-17.124-23.397-14.527-40.856-42.050-40.856-80.594 0-38.35 15.744-66.040 38.732-80.874 17.985-11.605 38.771-16.030 59.217-17.425v-124.652h-1541.338zM117.429 491.478l132.432 346.321h50.475l140.928-346.321h-51.973l-39.979 104.945h-145.925l-37.48-104.945h-48.475zM216.877 633.903h117.938l-35.981 95.95c-10.995 28.985-18.99 52.973-24.987 71.963-4.498-22.488-10.995-44.477-18.99-66.465l-37.98-101.448zM586.686 796.319v43.977h42.978v-43.977c43.977-1.998 78.959-15.492 104.445-39.479 25.487-24.487 37.98-54.472 37.98-90.453 0-34.981-11.994-64.966-36.981-89.454-24.487-24.487-59.969-38.48-105.446-40.98v-44.477h-42.978v44.477c-40.98 1.998-74.961 13.992-101.947 37.48-27.485 23.487-40.98 54.472-40.98 92.952s13.493 69.464 40.478 92.952c27.485 22.987 61.468 35.481 102.447 36.981zM629.664 757.34v-181.905c29.485 1.499 52.973 9.994 69.964 25.487 16.991 15.992 25.487 37.48 25.487 65.466 0 26.985-8.496 48.475-24.987 64.467-16.991 15.992-39.979 24.987-70.463 26.486zM586.686 756.841c-28.485-0.999-51.474-9.495-68.964-24.987-17.99-15.992-26.486-37.48-26.486-65.466 0-27.485 8.496-49.475 25.986-64.966 17.491-15.992 40.478-24.487 69.464-25.487v180.906zM830.060 837.799h41.479v-274.358l183.905 274.358h45.477v-346.321h-41.479v273.359l-183.905-273.359h-45.477v346.321zM156.409 432.508h45.977v-305.342h114.441v305.342h45.977v-305.342h114.441v305.342h45.977v-345.821h-366.811v345.821zM560.2 86.687l132.932 345.821h49.975l140.928-345.821h-51.973l-39.979 104.945h-145.925l-37.48-104.945h-48.475zM659.648 228.613h117.938l-35.981 95.95c-10.995 29.485-18.99 53.472-24.987 72.463-4.498-22.488-10.995-44.977-18.99-66.465l-37.98-101.947zM927.010 86.687v48.475h48.475v-48.475z" />
<glyph unicode="&#xe931;" glyph-name="kyivstar" d="M512 940.518v0c37.063 0 67.386-30.307 67.386-67.371v-250.439c0-37.063-30.323-67.371-67.386-67.371v0c-37.048 0-67.355 30.307-67.355 67.371v250.439c0 37.063 30.307 67.371 67.355 67.371v0zM3.297 570.912v0c11.448 35.229 49.642 54.701 84.886 43.253l238.182-77.381c35.259-11.448 54.715-49.657 43.253-84.886v0c-11.448-35.244-49.642-54.701-84.886-43.253l-238.197 77.366c-35.229 11.462-54.701 49.657-43.237 84.901v0zM197.613-27.141v0c-29.972 21.81-36.681 64.13-14.902 94.102l147.198 202.632c21.78 29.972 64.13 36.681 94.102 14.902v0c29.986-21.78 36.696-64.1 14.916-94.086l-147.198-202.601c-21.78-30.002-64.146-36.726-94.117-14.948v0zM826.433-27.141v0c-29.986-21.78-72.322-15.054-94.102 14.948l-147.228 202.601c-21.78 29.986-15.070 72.338 14.916 94.117v0c29.986 21.78 72.322 15.070 94.102-14.916l147.228-202.647c21.78-29.972 15.070-72.292-14.916-94.102v0zM1020.719 570.927v0c11.462-35.259-8.008-73.438-43.253-84.886l-238.166-77.397c-35.259-11.462-73.469 7.994-84.901 43.253v0c-11.478 35.229 8.008 73.438 43.237 84.901l238.182 77.381c35.259 11.448 73.469-8.024 84.901-43.253v0z" />
<glyph unicode="&#xe932;" glyph-name="lifecell" d="M0.001 447.187c-0.436 282.789 228.502 512.24 511.201 512.646 282.835 0.436 512.376-228.307 512.798-511.065 0.452-282.835-228.382-512.346-511.216-512.767-55.884-0.075-109.583 8.764-159.894 25.178 36.126 211.275 169.261 383.849 345.509 457.155 20.946-24.124 51.817-39.273 86.212-39.213 62.825 0.075 113.649 51.004 113.543 113.905-0.12 62.915-51.064 113.815-113.89 113.74-62.84-0.091-113.588-51.004-113.649-113.86-224.949-67.99-406.95-225.235-499.244-427.248-29.395 26.217-55.657 55.718-78.35 87.989 5.014 196.563 102.008 368.474 247.506 470.015 20.887-23.507 51.29-38.159 85.113-38.144 62.856 0.105 113.694 51.2 113.634 114.056-0.105 62.945-51.14 113.724-113.995 113.619-62.915-0.091-113.799-51.049-113.663-113.95 0-3.373 0.211-6.656 0.422-9.833-135.499-47.826-246.588-142.080-311.582-262.189-0.286 6.611-0.452 13.267-0.452 19.967z" />
<glyph unicode="&#xe933;" glyph-name="vodafone" d="M288.051 909.627c135.809 66.309 300.588 66.769 437.702 3.77-106.038 8.815-212.002-26.312-300.247-83.613-91.717-59.052-159.199-153.767-186.684-259.107-19.441-75.080-16.118-156.942 14.93-228.431 42.772-102.075 146.865-177.987 258.825-178.284 63.875-0.683 128.315 20.525 177.527 61.59 58.785 48.441 96.184 122.126 100.042 198.26 2.776 61.783-12.377 126.489-52.077 175.138-43.157 53.799-108.828 83.807-174.514 99.76-6.545 98.929 70.302 192.931 166.485 212.24 110.045-52.047 200.322-144.506 249.090-256.050 47.64-107.151 56.247-230.88 24.398-343.685-28.598-102.832-90.619-196.034-174.395-262.194-88.926-71.222-202.326-111.129-316.305-110.966-100.266-0.994-200.485 28.703-284.055 84.059-102.18 66.903-179.1 171.472-211.543 289.294-30.053 106.943-23.983 223.786 17.408 326.901 46.63 117.896 139.089 216.603 253.409 271.322z" />
<glyph unicode="&#xe934;" glyph-name="route" horiz-adv-x="721" d="M357.762 960c-197.588 0-357.762-160.175-357.762-357.762 0-190.834 327.059-625.643 340.927-643.973l16.835-22.265 16.835 22.181c13.868 18.413 340.927 453.222 340.927 644.056 0 197.587-160.175 357.762-357.762 357.762zM357.762 6.312c-67.575 92.428-315.673 442.426-315.673 595.926 0.197 174.259 141.413 315.475 315.673 315.673 174.259-0.197 315.476-141.413 315.671-315.673 0-153.5-248.097-503.498-315.671-595.926zM357.762 749.551c-81.359 0-147.314-65.954-147.314-147.314s65.954-147.314 147.314-147.314c81.315 0.105 147.209 65.999 147.314 147.314 0 81.359-65.955 147.314-147.314 147.314zM357.762 497.012c-58.084 0.070-105.155 47.141-105.223 105.225 0 58.112 47.111 105.223 105.223 105.223s105.225-47.111 105.225-105.223c0-58.114-47.109-105.225-105.225-105.225z" />
<glyph unicode="&#xe935;" glyph-name="menu" d="M1024-17.455h-1024v-46.545h1024v46.545zM954.182 448h-954.182v-46.545h954.182v46.545zM1024 960h-1024v-46.545h1024v46.545z" />
<glyph unicode="&#xe936;" glyph-name="phone-call" horiz-adv-x="1023" d="M822.206-63.509c-42.568 0-93.984 10.674-150.509 32.008-123.951 46.721-258.803 139.081-379.707 259.987-120.943 120.943-213.303 255.832-260.062 379.77-42.491 112.7-42.593 205.184-0.239 247.513 6.092 6.092 12.284 12.624 18.678 19.37 38.64 40.642 82.315 86.368 140.188 84.304 39.874-1.648 78.526-26.432 118.086-75.669 116.928-145.412 64.216-197.23 3.197-257.317l-10.762-10.66c-9.98-9.98-28.835-56.186 146.581-231.604 57.256-57.268 106.078-99.169 145.109-124.543 24.568-15.961 68.495-40.125 86.532-22.090l10.837 10.938c60.011 60.882 111.83 113.416 257.142-3.411 49.238-39.572 73.983-78.175 75.644-118.124 2.367-57.848-43.712-101.611-84.379-140.226-6.696-6.407-13.24-12.599-19.332-18.641-21.033-21.033-54.651-31.606-97.003-31.606zM186.413 925.106c-41.12 0-78.25-39.081-111.113-73.669-6.609-6.947-13.002-13.694-19.307-19.987-31.554-31.517-28.346-114.335 8.131-211.075 45.073-119.47 134.638-250.018 252.219-367.599 117.531-117.506 248.016-207.073 367.524-252.107 96.727-36.539 179.546-39.635 211.038-8.143 6.293 6.293 13.040 12.687 19.987 19.258 35.343 33.58 75.431 71.642 73.681 113.869-1.209 29.012-22.329 60.213-62.794 92.724-121.082 97.381-154.952 63.008-211.1 6.054l-11.012-11.114c-26.834-26.884-70.434-20.919-129.616 17.545-41.057 26.707-91.781 70.132-150.686 129.073-145.588 145.549-192.145 234.637-146.581 280.301l10.975 10.837c57.079 56.16 91.528 90.056-5.89 211.201-32.586 40.427-63.751 61.56-92.763 62.794-0.905 0.038-1.8 0.038-2.693 0.038z" />
<glyph unicode="&#xe937;" glyph-name="close" d="M37.565 958.609l987.826-987.826-36.174-36.174-987.826 987.826zM1025.391 922.435l-987.826-987.826-36.174 36.174 987.826 987.826z" />
<glyph unicode="&#xe938;" glyph-name="chevron-down" d="M547.665 216.462l-514.511 510.811-33.151-32.913 514.513-510.811 33.15 32.912zM492.272 227.561l498.581 494.993 33.15-32.913-498.579-494.993-33.152 32.912z" />
<glyph unicode="&#xe939;" glyph-name="cabinet" horiz-adv-x="1001" d="M491.736 960c-271.531 0-491.736-229.363-491.736-512.058 0-282.815 220.206-511.942 491.736-511.942s491.578 229.087 491.578 511.942c0 282.695-220.048 512.058-491.578 512.058zM491.736-21.381c-92.386 0-178.202 29.107-249.782 78.897l41.295 210.181c6.53 50.614 46.881 88.979 95.060 92.248 32.33-26.114 71.305-41.91 113.427-41.91 42.24 0 81.215 15.914 113.701 42.186 49.713-1.615 91.834-40.809 98.758-93.747l40.469-206.792c-72.287-51.128-159.206-81.064-252.928-81.064zM327.771 554.608c0 92.090 75.553 170.594 163.966 170.594s163.966-78.504 163.966-170.594c0-96.584-79.998-191.944-163.966-191.944s-163.966 95.36-163.966 191.944zM780.926 88.239l-36.419 185.288c-7.747 59.871-49.436 107.885-103.082 123.918 32.054 41.083 55.14 103.238 55.14 157.123 0 115.763-93.605 213.331-204.828 213.331-111.106 0-204.986-97.528-204.986-213.331 0-54.279 23.48-116.869 55.966-158.068-52.15-17.017-92.502-63.93-99.975-121.635l-37.088-189.501c-100.526 86.263-164.633 216.718-164.633 362.538 0 258.746 202.114 469.36 450.716 469.36s450.716-210.575 450.716-469.36c0-144.165-62.888-273.52-161.527-359.664z" />
<glyph unicode="&#xe93a;" glyph-name="cart" d="M953.917 396.241l70.083 365.044h-786.083v-34.040h752.163l-67.977-298.802-648.090-67.4c0 0-70.083 501.987-70.083 505.97 0 8.238 0 30.432 0 30.432h-203.93v-34.040c0 0 116.104 0 174.122 0l67.942-646.757h675.621v34.039h-645.779v75.636l682.010 69.918zM327.175 162.423c-46.939 0-85.106-36.694-85.106-81.934 0-45.272 38.167-81.934 85.106-81.934 46.836 0 84.869 36.694 84.869 81.934 0 45.272-38 81.934-84.869 81.934zM327.175 32.628c-28.176 0-51.051 21.513-51.051 47.86 0 26.449 22.91 47.963 51.051 47.963 28.041 0 50.949-21.513 50.949-47.963 0-26.347-22.875-47.86-50.949-47.86zM837.129 162.423c-46.971 0-85.004-36.694-85.004-81.934 0-45.272 38.032-81.934 85.004-81.934 46.836 0 84.971 36.694 84.971 81.934 0 45.272-38.17 81.934-84.971 81.934zM837.129 32.628c-28.176 0-51.084 21.513-51.084 47.86 0 26.449 22.907 47.963 51.084 47.963 28.041 0 50.949-21.513 50.949-47.963-0.033-26.347-22.907-47.86-50.949-47.86z" />
<glyph unicode="&#xe93b;" glyph-name="search-icon" d="M472.193 962.745c129.029 0 247.078-54.906 332.182-142.756s140.011-208.643 140.011-343.164c0-134.52-54.906-255.314-140.011-343.164s-203.153-140.011-332.182-140.011c-129.029 0-247.078 52.161-334.928 140.011-85.105 87.85-137.265 208.643-137.265 343.164s52.161 255.314 137.265 343.164c87.85 87.85 205.898 142.756 334.928 142.756zM768.686 784.3c-76.869 76.869-181.19 126.284-296.493 126.284s-219.625-49.416-296.493-126.284c-74.123-79.614-123.539-186.681-123.539-307.475 0-118.048 49.416-227.861 123.539-304.729 76.869-79.614 181.19-126.284 296.493-126.284s219.625 46.67 296.493 126.284c74.123 76.869 123.539 186.681 123.539 304.729 0 120.794-49.416 227.861-123.539 307.475zM823.592 169.351l194.917-194.917-38.434-35.689-192.172 194.917z" />
<glyph unicode="&#xe93c;" glyph-name="ticket_icon" d="M647.168 949.077l103.766-103.766-5.462-8.192c-27.307-32.768-32.768-76.459-21.845-109.226 5.462-19.115 16.384-35.499 27.307-49.152 13.654-13.654 30.037-21.845 46.421-27.307 30.037-10.922 68.267-2.73 106.496 24.576l8.192 5.462 114.688-114.688-636.246-633.516-109.226 109.226 5.462 8.192c30.037 38.229 32.768 79.189 19.115 111.958-5.462 19.115-16.384 35.499-30.037 46.421-13.654 13.654-30.037 21.845-49.152 27.307-32.768 10.922-68.267 5.462-103.766-21.845l-5.462-5.462-114.688 114.688c212.992 210.262 423.253 420.522 636.246 630.785l8.192-5.462zM723.626 842.581l-84.651 84.651-606.208-603.478 84.651-87.381c38.229 27.307 79.189 32.768 117.418 19.115 19.115-5.462 38.229-16.384 54.613-30.037 16.384-16.384 27.307-35.499 35.499-54.613 13.654-38.229 10.922-81.92-16.384-125.61l81.92-81.92 606.208 603.478-87.381 90.112c-43.691-30.037-84.651-35.499-117.418-24.576-21.845 5.462-40.96 16.384-54.613 32.768s-24.576 35.499-32.768 54.613c-10.922 40.96-8.192 84.651 19.115 122.88zM450.56 697.856l-13.654-13.654-27.307 27.307 13.654 13.654 27.307-27.307zM802.816 359.253l-19.115 16.384-13.654-16.384 16.384-16.384 16.384 16.384zM740.010 416.597l-13.654-13.654-27.307 27.307 13.654 13.654 27.307-27.307zM669.013 487.595l-13.654-16.384-30.037 30.037 13.654 13.654 30.037-27.307zM595.285 558.592l-13.654-16.384-27.307 30.037 13.654 13.654 27.307-27.307zM524.288 626.859l-13.654-13.654-30.037 27.307 13.654 16.384 30.037-30.037z" />
<glyph unicode="&#xe93d;" glyph-name="mastercard" d="M717.478 754.543c-79.093-0.021-151.203-30.023-205.56-79.242-54.378 49.198-126.447 79.202-205.478 79.202h-1.94c-168.272-1.1-304.5-137.977-304.5-306.482 0-169.182 137.281-306.482 306.44-306.482 79.018 0 151.019 30.015 205.395 79.202-11.353 10.275-21.597 21.607-31.3 33.489h63.262c-9.535-11.692-19.972-22.617-31.136-32.787h-0.042v-0.042c-0.246-0.205-0.497-0.436-0.743-0.661 54.378-49.283 126.569-79.305 205.725-79.284 169.266 0.042 306.401 137.319 306.357 306.565 0 0.085-0.001 0.083 0.042 0.125-0.042 169.266-137.258 306.462-306.523 306.399zM484.045 643.67h58.224c8.626-10.402 16.575-21.369 23.786-32.829h-103.854c6.66 10.994 14.022 22.257 21.844 32.829zM444.031 578.632h139.697c5.011-10.613 9.387-21.539 13.213-32.829h-169.428c1.67 3.172 7.595 15.935 16.517 32.829zM673.789 528.79c16.999 0 36.752-7.969 36.752-7.969l-5.327-34.563c0 0-13.341 9.333-29.938 9.333-22.2 0-42.12-21.168-42.12-59.711 0-18.944 9.285-36.648 32.457-36.669 10.994 0 26.965 8.011 26.965 8.011l-5.823-35.595c0 0-17.54-4.459-28.534-4.459-38.944 0-58.72 26.899-58.72 67.597 0 61.376 36.633 94.025 74.287 94.025zM51.080 525.363h47.612l1.651-95.389 32.168 95.389h51.659l-25.726-155.389h-33.406l18.582 117.109-41.913-117.109h-22.463l-2.932 117.109-19.863-117.109h-31.466zM989.81 525.238l-24.983-155.182h-31.713l1.404 11.645c0 0-10.836-13.627-30.392-13.627-27.146 0-40.426 26.194-40.426 52.939 0 41.397 24.921 77.445 54.837 77.467 19.24 0 31.507-16.972 31.507-16.972l7.020 43.647zM381.388 515.286h32.623l-3.344-19.036h16.311l-4.17-30.681h-17.302l-9.126-56.613c-0.718-4.46 0.539-10.53 11.892-10.53 2.897 0 6.142 0.991 8.382 0.991l-4.088-27.749c-3.277-0.91-12.543-4.21-24.446-4.295-15.202-0.148-26.015 8.407-26.015 27.667 0 12.939 18.565 119.55 19.284 120.247zM480.039 499.925c35.815 0 46.497-26.233 46.497-47.736 0-8.605-4.295-29.732-4.295-29.732h-66.276c0 0-6.169-26.139 28.864-26.139 16.448 0 34.687 8.011 34.687 8.011l-5.781-31.466c0 0-10.506-5.368-34.439-5.368-25.942 0-56.366 10.956-56.366 57.068 0 39.959 24.296 75.34 57.109 75.361zM233.102 499.348c11.544 0 44.824-1.233 44.845-39.394l-12.843-89.855h-28.741l1.115 12.471c-0.507-0.042-10.465-14.949-33.489-14.949-12.072 0-31.507 6.514-31.507 35.141 0 36.344 29.669 48.355 57.894 48.355 4.439 0 13.998-0.785 13.998-0.785s1.074 2.254 1.074 8.259c0 9.874-8.861 11.19-21.018 11.19-21.417 0-35.595-5.74-35.595-5.74l4.748 28.121c0 0 17.149 7.185 39.518 7.185zM762.034 499.348c11.544 0 44.826-1.233 44.762-39.394l-12.801-89.855h-28.699l1.074 12.471c-0.528-0.042-10.486-14.949-33.489-14.949-12.051 0-31.507 6.514-31.507 35.141 0 36.344 29.649 48.355 57.852 48.355 4.483 0 14.040-0.785 14.040-0.785s1.115 2.254 1.115 8.259c0 9.874-8.903 11.19-21.059 11.19-21.396 0-35.554-5.74-35.554-5.74l4.748 28.121c0 0 17.107 7.185 39.518 7.185zM333.158 499.141c18.648 0 30.103-2.56 30.103-2.56l-4.088-28.823c0 0-17.711 1.487-22.299 1.487-11.629 0-17.963-2.535-17.963-10.654 0-16.3 38.899-8.299 38.899-48.851 0-43.363-42.010-41.458-49.346-41.458-27.38 0-35.846 3.753-36.627 3.964l4.378 28.575c0.042 0.211 13.744-4.997 28.988-4.997 8.795 0 20.193 0.869 20.193 11.356 0 15.772-40.839 11.966-40.839 49.346 0 32.961 24.459 42.615 48.602 42.615zM872.908 497.82c4.249 0 6.276-0.434 6.276-0.413-4.335-8.816-8.186-16.937-12.181-37.825-22.644 8.013-24.366-35.815-33.902-89.855h-33.489l20.358 126.482h30.392l-2.891-18.334c0 0 10.828 19.944 25.437 19.944zM598.923 497.777c4.27 0.042 6.276-0.372 6.276-0.372-4.335-8.837-8.165-16.957-12.141-37.867-22.644 8.013-24.41-35.836-33.902-89.855h-33.489l20.357 126.482h30.392l-2.932-18.334c0 0 10.828 19.944 25.437 19.944zM480.122 470.606c-17.781 0-21.184-20.204-21.184-22.34h36.214c0 1.649 3.384 22.34-15.031 22.34zM924.153 467.096c-14.355 0-25.726-16.647-25.726-41.954 0-15.476 5.505-25.354 17.261-25.354 17.675 0 26.18 23.030 26.18 40.261 0 18.986-6.002 27.026-17.715 27.047zM232.979 426.959c-23.912 0-28.741-10.775-28.741-19.697 0-4.609 2.633-12.305 12.76-12.305 19.662 0 23.718 25.721 23.084 31.219-0.931 0.169-1.521 0.764-7.103 0.785zM761.951 426.959c-23.912 0-28.741-10.775-28.741-19.697 0-4.609 2.611-12.305 12.76-12.305 19.62 0 23.696 25.721 23.084 31.219-0.952 0.169-1.542 0.764-7.103 0.785zM989.025 389.258c1.691 0 3.266-0.413 4.831-1.28 1.586-0.845 2.891-2.11 3.757-3.716 0.887-1.544 1.28-3.159 1.28-4.914 0-1.713-0.371-3.349-1.28-4.914-0.866-1.565-2.111-2.828-3.676-3.716-1.544-0.866-3.18-1.28-4.914-1.28-1.691 0-3.328 0.413-4.914 1.28-1.565 0.887-2.808 2.152-3.676 3.716-0.887 1.565-1.321 3.201-1.321 4.914s0.434 3.328 1.321 4.914c0.887 1.607 2.131 2.871 3.716 3.716 1.607 0.845 3.244 1.259 4.872 1.28zM989.067 387.605c-1.374 0-2.694-0.334-4.046-1.074s-2.357-1.745-3.097-3.055c-0.782-1.332-1.157-2.712-1.157-4.129s0.353-2.756 1.115-4.088c0.761-1.332 1.766-2.357 3.097-3.097 1.29-0.718 2.651-1.115 4.088-1.115 1.417 0 2.778 0.396 4.088 1.115 1.332 0.782 2.337 1.787 3.055 3.097 0.739 1.311 1.115 2.672 1.115 4.088s-0.416 2.798-1.157 4.129c-0.74 1.332-1.743 2.316-3.097 3.055-1.29 0.718-2.631 1.074-4.006 1.074zM984.691 384.55h3.716c1.248 0 2.197-0.119 2.725-0.33s0.983-0.567 1.321-1.032c0.339-0.486 0.496-1.040 0.496-1.57 0-0.761-0.338-1.474-0.868-2.023-0.549-0.571-1.279-0.886-2.189-0.949 0.38-0.127 0.654-0.345 0.908-0.578 0.401-0.423 0.956-1.112 1.57-2.106l1.321-2.065h-2.147l-0.908 1.652c-0.782 1.332-1.373 2.139-1.817 2.519-0.296 0.232-0.791 0.372-1.404 0.372h-0.991v-4.542h-1.734zM986.466 383.104v-3.221h2.106c0.994 0 1.663 0.096 2.065 0.454 0.318 0.296 0.496 0.692 0.496 1.157 0 0.359-0.099 0.592-0.289 0.868-0.169 0.275-0.427 0.43-0.702 0.578-0.338 0.106-0.889 0.164-1.734 0.164zM439.613 318.604h144.652c-5.307-11.332-11.243-22.258-17.838-32.787h-108.727c-6.618 10.571-12.78 21.392-18.087 32.787zM1001.758 282.846c-0.866 1.607-2.135 2.833-3.721 3.679-1.565 0.866-3.172 1.29-4.863 1.29-1.628-0.021-3.256-0.444-4.863-1.29-1.586-0.845-2.812-2.072-3.7-3.679-0.887-1.586-1.332-3.235-1.332-4.947s0.444-3.341 1.332-4.905c0.866-1.565 2.093-2.812 3.658-3.7 1.586-0.866 3.214-1.311 4.905-1.311 1.734 0 3.383 0.444 4.926 1.311 1.565 0.887 2.791 2.135 3.658 3.7 0.91 1.565 1.311 3.193 1.311 4.905 0 1.755-0.423 3.404-1.311 4.947zM1000.384 273.819c-0.718-1.311-1.734-2.304-3.066-3.087-1.311-0.718-2.663-1.1-4.080-1.1-1.438 0-2.812 0.38-4.101 1.1-1.332 0.74-2.325 1.755-3.087 3.087s-1.1 2.686-1.1 4.101c0 1.417 0.359 2.791 1.142 4.122 0.74 1.311 1.734 2.325 3.087 3.066s2.686 1.058 4.059 1.058c1.374 0 2.728-0.338 4.017-1.058 1.353-0.74 2.346-1.734 3.087-3.066s1.142-2.707 1.142-4.122c0-1.417-0.359-2.791-1.1-4.101zM996.536 274.537c-0.613 0.994-1.163 1.691-1.565 2.114-0.254 0.232-0.528 0.423-0.91 0.549 0.91 0.063 1.649 0.401 2.199 0.973 0.528 0.549 0.845 1.269 0.845 2.030 0 0.528-0.169 1.079-0.507 1.565-0.338 0.465-0.782 0.824-1.311 1.036s-1.459 0.317-2.707 0.317h-3.721v-10.656h1.734v4.525h0.994c0.613 0 1.1-0.127 1.396-0.359 0.444-0.38 1.036-1.184 1.818-2.517l0.91-1.67h2.135zM992.73 278.448h-2.093v3.235h1.945c0.845 0 1.396-0.063 1.734-0.169 0.275-0.148 0.528-0.296 0.697-0.571 0.19-0.275 0.275-0.507 0.275-0.866 0-0.465-0.19-0.866-0.507-1.163-0.401-0.359-1.058-0.465-2.051-0.465z" />
<glyph unicode="&#xe93e;" glyph-name="visa" d="M63.312 552.080l38.18-273.698h93.862l174.848 338.895h-98.602l-74.27-157.149c-10.52-22.3-19.592-42.509-27.396-61.015-1.441 19.295-3.005 38.065-4.89 57.213l-15.148 160.943h-149.896l155.963-123.414-92.651 58.224zM437.554 278.392l64.284 338.887h-88.239l-64.373-338.887zM489.317 298.361c20.679-15.493 57.064-24.778 97.31-24.778 83.521 0 139.557 47.169 139.557 117.346 0 38.362-22.423 68.819-68.383 92.947-25.84 14.405-41.423 24.128-41.423 36.352 0 11.434 12.052 23.773 40.453 23.773 27.634 0 48.963-10.809 52.85-12.966l10.076-5.54 28.195 75.537-7.425 4.066c-21.033 11.608-47.252 17.319-79.989 17.319-79.989 0-135.844-46.693-135.844-113.544 0-48.519 38.156-75.446 71.618-93.482 31.553-16.324 37.71-25.66 37.71-36.269 0-20.3-22.003-27.577-40.806-27.577-24.572 0-50.141 6.981-70.177 18.974l-9.961 5.984-29.841-73.536 6.083-4.609zM811.327 278.392l37.916 82.814h76.45l6.627-82.814h91.68l-39.744 338.895h-102.554l-164.953-338.895h94.578zM903.477 487.796c3.532 7.631 7.162 16.234 10.694 25.305 0.618-8.076 1.267-15.584 1.737-22.128l5.243-57.954h-42.864l25.19 54.775z" />
<glyph unicode="&#xe93f;" glyph-name="shield" horiz-adv-x="832" d="M352.015-32.029c-186.667 101.333-325.335 229.334-346.667 330.667l-5.334 325.335 5.334 282.667 53.333 10.666c138.667 32 213.334 37.334 357.334 37.334s218.668-5.334 357.334-37.334l53.333-10.666 5.334-282.667-5.334-325.335c-21.334-80-106.667-176-234.668-261.334-69.333-48-165.334-101.333-176-101.333zM474.682 106.635c101.333 48 186.667 117.333 218.668 181.334l21.334 37.334v229.334l5.334 234.668-21.334 5.334c-186.667 58.667-378.668 58.667-565.332 0l-21.334-5.334 5.334-234.668v-229.334l21.334-37.334c64-96.001 165.334-170.667 277.334-202.668zM362.682 149.302c-74.667 37.334-144.001 96.001-192 165.334-16 26.666-16 37.334-21.334 234.668v208l21.334 10.666c112.001 37.334 362.668 42.667 479.998 5.334l32-16v-202.668c0-229.334 0-234.668-58.667-293.334-42.667-48-181.334-138.667-208-138.667zM464.015 271.969c53.333 26.666 101.333 69.333 117.333 106.667 16 26.666 16 37.334 16 165.334l-5.334 133.333-37.334 10.666c-48 10.666-213.334 10.666-266.667 0l-42.667-10.666v-133.333c-5.334-154.667 0-170.667 58.667-224l112.001-69.333zM282.682 410.636v197.334h32v-197.334zM517.349 607.97h32v-197.334h-32zM336.015 618.636h42.667v-176h-42.667zM400.015 618.636h32v-176h-32zM453.349 618.636h42.667v-176h-42.667v176z" />
<glyph unicode="&#xe940;" glyph-name="messenger" horiz-adv-x="1020" d="M519.194 960h-18.469c-0.031 0-0.068 0-0.105 0-272.933 0-494.864-218.37-500.608-489.926l-0.009-0.535c0.787-146.145 66.459-276.794 169.65-364.718l0.677-0.563v-147.754c0-11.334 9.188-20.521 20.521-20.521v0c4.643 0 8.926 1.542 12.364 4.142l-0.052-0.037 116.972 73.877c55.736-22.083 120.308-34.887 187.871-34.887 0.326 0 0.651 0 0.977 0.001h10.21c270.882 0 494.566 217.527 500.722 490.461-5.753 272.092-227.684 490.461-500.617 490.461-0.037 0-0.074 0-0.112 0h0.006zM841.38 151.457c-82.227-81.193-195.274-131.342-320.034-131.342-0.756 0-1.513 0.002-2.268 0.006h-10.145c-0.948-0.007-2.069-0.011-3.19-0.011-60.791 0-118.944 11.296-172.475 31.904l3.285-1.112-20.521 8.209-16.417-10.261-88.242-55.408v129.285l-14.365 12.313c-95.154 81-155.303 200.66-155.962 334.385v0.114c5.745 249.421 209.299 449.419 459.565 449.419 0.040 0 0.080 0 0.12 0h18.464c0.034 0 0.074 0 0.115 0 250.266 0 453.82-199.997 459.555-448.884l0.010-0.534c-2.771-124.776-54.841-236.875-137.427-318.016l-0.067-0.065zM843.432 609.084c-3.784 5.007-9.726 8.209-16.417 8.209v0c-3.005-0.043-5.824-0.797-8.31-2.101l0.101 0.048-213.422-125.181-133.389 121.076c-3.699 3.627-8.77 5.866-14.365 5.866s-10.666-2.239-14.368-5.869l0.003 0.003-246.257-262.674c-3.755-4.021-6.061-9.437-6.061-15.391s2.306-11.371 6.073-15.404l-0.012 0.013c3.362-4.511 8.454-7.573 14.274-8.201l0.091-0.008c3.932 0.311 7.463 1.808 10.293 4.13l-0.032-0.026 213.422 123.128 133.389-121.076c3.561-3.054 8.225-4.913 13.323-4.913 6.127 0 11.627 2.685 15.387 6.943l0.019 0.022 246.257 262.674c3.212 3.871 5.161 8.89 5.161 14.365s-1.949 10.494-5.191 14.402l0.030-0.037zM580.758 360.775l-139.545 127.233-26.678-14.365-96.451-57.46 141.598 151.858 116.972-108.763 22.574-18.469 26.678 14.365 96.451 55.408z" />
<glyph unicode="&#xe941;" glyph-name="telegram" horiz-adv-x="1199" d="M1123.731 959.996l-31.62-4.865-1053.194-413.494c-26.756-9.729-38.917-36.485-38.917-60.808s17.026-48.646 43.782-58.376l255.393-75.402 97.293-306.472c14.594-48.646 80.267-65.673 116.751-26.756l124.048 126.481 252.961-187.289c46.214-36.485 116.751-9.729 126.481 48.646l179.992 863.473c9.729 48.646-26.756 92.428-72.97 94.86zM1118.866 911.35c19.459 2.432 36.485-14.594 31.62-36.485l-179.992-863.473c-4.865-24.323-31.62-34.052-51.079-19.459l-287.014 211.612-153.236-155.668c-12.162-14.594-31.62-9.729-36.485 7.297l-14.594 43.782 21.891-7.297c12.162 0 24.323 12.162 26.756 26.756l19.459 167.83 488.896 435.385c14.594 12.162 14.594 36.485 4.865 51.079-9.729 12.162-31.62 19.459-48.646 7.297l-576.459-359.983c-14.594-7.297-24.323-21.891-24.323-38.917l-2.432 4.865-279.717 82.699c-7.297 2.432-9.729 7.297-9.729 14.594 0 4.865 2.432 9.729 9.729 12.162l1050.761 413.494 9.729 2.432zM851.311 668.118l-386.739-345.389c-9.729-7.297-14.594-19.459-17.026-31.62l-9.729-75.402-48.646 160.533v2.432z" />
<glyph unicode="&#xe942;" glyph-name="twitter" horiz-adv-x="1430" d="M972.247 865.080h5.753l20.135-2.876c48.866-7.549 91.419-30.324 123.651-63.244l0.037-0.038c0.588-1.282 1.594-2.288 2.841-2.862l0.036-0.015c0.432-0.057 0.931-0.090 1.438-0.090s1.006 0.033 1.496 0.096l-0.058-0.006c43.37 8.842 81.86 22.766 117.479 41.425l-2.42-1.155 20.135 11.506c-17.307-51.009-50.682-92.763-93.997-120.262l-0.926-0.549c45.933 5.744 87.693 17.888 126.36 35.615l-2.671-1.098-2.876-5.753c-27.317-40.166-59.697-74.375-96.756-102.785l-1.044-0.768c-4.656-2.025-7.986-6.313-8.622-11.436l-0.007-0.070c0.351-7.622 0.551-16.559 0.551-25.541 0-36.721-3.34-72.661-9.733-107.534l0.553 3.634c-11.013-61.604-28.993-116.6-53.47-167.901l1.693 3.942c-54.653-115.059-135.194-209.982-247.376-273.265-40.536-24.595-87.337-45.199-136.846-59.399l-4.101-1.006c-36.873-11.171-79.969-19.333-124.368-22.871l-2.197-0.141h-100.676c-35.104 2.499-67.534 7.607-98.99 15.213l4.066-0.83c-66.464 16.292-124.962 41.006-178.216 73.47l2.751-1.558-14.382 8.629h46.024c44.061 0.037 86.635 6.338 126.9 18.060l-3.212-0.801c58.512 16.594 109.414 43.267 153.318 78.332l-0.865-0.668c-46.024 0-89.171 14.382-126.565 43.147-36.104 27.159-63.225 64.508-77.232 107.759l-0.433 1.547 48.9-2.876c17.58 0.201 34.361 3.346 49.963 8.964l-1.063-0.334c-100.666 21.938-175.012 110.090-175.465 215.685v0.050l46.024-17.259c15.424-5.296 33.202-8.44 51.687-8.629l0.090-0.001c-58.961 40.398-97.144 107.386-97.144 183.291 0 41.688 11.517 80.686 31.543 113.985l-0.558-1c55.494-67.582 123.463-122.684 200.683-162.306l3.546-1.653c72.782-37.622 158.226-61.554 248.779-66.1l1.474-0.059v2.876c-3.382 14.405-5.321 30.946-5.321 47.939 0 11.505 0.889 22.803 2.602 33.829l-0.157-1.227c15.77 95.606 90.954 169.815 185.757 183.946l1.213 0.149 20.135 2.876h20.135zM1357.694 960.004l-120.812-66.159-17.259-8.629c-23.038-12.491-49.797-23.293-77.835-31.006l-2.706-0.635c-36.241 30.718-81.249 52.181-130.764 60.198l-1.554 0.208-17.259 2.876h-11.506l-2.876 2.876h-28.765l-5.753-2.876-17.259-2.876c-118.259-17.858-210.77-109.395-229.902-225.657l-0.215-1.584c-1.597-10.184-2.634-22.118-2.872-34.248l-0.004-0.27c-63.474 10.029-120.552 29.128-172.881 56.14l3.17-1.487c-73.852 37.755-136.051 88.007-186.188 148.603l-0.782 0.973-46.024 57.529-40.271-60.406c-24.080-39.369-38.338-87.016-38.338-137.993 0-31.993 5.616-62.673 15.916-91.11l-0.589 1.862-17.259 5.753v-77.665c0-63.282 20.135-117.935 57.529-166.835l23.012-71.912c18.507-55.506 52.602-101.682 97.065-134.673l0.735-0.521c7.404-5.623 15.853-11.321 24.613-16.553l1.275-0.706-34.518-11.506c-32.104-9.136-68.974-14.389-107.072-14.389-0.785 0-1.57 0.002-2.355 0.007l0.121-0.001-43.147 2.876-224.365 20.135 192.724-117.935 5.753-2.876 11.506-8.629c54.649-33.29 117.932-59.973 185.158-76.679l4.689-0.986c30.041-7.005 65.497-12.13 101.751-14.296l1.802-0.086 11.506-2.876h86.294l11.506 2.876c49.618 3.469 95.73 11.651 140.017 24.178l-4.823-1.166c59.067 16.596 110.656 39.172 158.214 67.767l-2.884-1.608c115.059 69.035 207.106 166.835 267.512 296.276 24.282 51.558 43.295 111.441 54.057 174.144l0.596 4.197c7.071 35.335 11.247 76.065 11.505 117.725l0.001 0.211c37.569 30.603 69.875 65.651 96.709 104.747l1.091 1.682 2.876 2.876v2.876l92.047 143.824-117.935-48.9 2.876 2.876 43.147 129.441z" />
</font>
</defs>
</svg>
