<svg xmlns="http://www.w3.org/2000/svg">
<defs>
<font id="PTSansPro-Regular" horiz-adv-x="545" >
  <font-face 
    font-family="PT Sans Pro"
    font-weight="400"
    font-stretch="normal"
    units-per-em="1000"
    panose-1="2 11 5 3 2 2 3 2 2 4"
    ascent="770"
    descent="-230"
    x-height="500"
    cap-height="700"
    bbox="-447 -245 1093 1000"
    underline-thickness="50"
    underline-position="-50"
    stemh="74"
    stemv="83"
    unicode-range="U+0020-FB04"
  />
<missing-glyph horiz-adv-x="750" 
d="M50 0v700h650v-700h-650zM620 570l-50 50l-195 -217l-195 217l-50 -50l197 -220l-197 -220l50 -50l195 217l195 -217l50 50l-198 220zM129 63v-36h8v12h4c8 0 16 3 16 12c0 11 -9 12 -17 12h-11zM137 57h4c5 0 8 -2 8 -5c0 -6 -4 -6 -9 -6h-3v11zM189 57v6h-31v-6h12v-30
h7v30h12zM222 37c0 -3 -2 -4 -7 -4c-3 0 -5 0 -9 2l-3 -7c4 -1 7 -2 13 -2c9 0 14 4 14 12c0 12 -18 9 -18 16c0 2 2 3 6 3c3 0 6 -1 9 -2l2 7c-4 1 -8 2 -11 2c-9 0 -14 -4 -14 -11c0 -12 18 -11 18 -16zM235 52l2 -5c3 1 6 2 9 2s5 -1 5 -4v-2c-1 0 -2 1 -5 1
c-8 0 -12 -3 -12 -10c0 -5 3 -8 8 -8c4 0 7 2 9 5l2 -4h6c-1 1 -1 4 -1 7v11c0 7 -3 10 -10 10c-5 0 -10 -2 -13 -3zM245 32c-3 0 -4 1 -4 4s2 4 5 4s4 -1 5 -1v-3c-1 -3 -3 -4 -6 -4zM284 27h8v16c0 8 -3 12 -9 12c-5 0 -8 -2 -10 -5l-2 4h-5v-27h7v17c1 3 3 4 6 4
s5 -2 5 -6v-15zM299 34l-2 -6c3 -1 6 -2 10 -2c7 0 11 3 11 9c0 7 -4 7 -8 9c-3 1 -5 2 -5 3s1 2 3 2c3 0 5 -1 8 -2l2 6c-3 1 -6 2 -10 2c-7 0 -10 -3 -10 -9c0 -7 6 -8 8 -9c3 -1 5 -1 5 -3c0 -1 -1 -2 -3 -2c-3 0 -6 1 -9 2zM338 42c0 -14 7 -21 20 -21s20 7 20 21
c0 13 -7 20 -20 20c-11 0 -20 -8 -20 -20zM344 42c0 10 5 15 14 15s14 -5 14 -15s-5 -15 -14 -15s-14 5 -14 15zM365 33l-1 5c-2 -1 -3 -1 -4 -1c-3 0 -4 2 -4 5s1 4 4 4h3l2 4c-3 2 -5 2 -7 2c-6 0 -9 -3 -9 -10s3 -11 9 -11c3 0 6 1 7 2zM399 63v-36h8v12h4
c8 0 16 3 16 12c0 11 -9 12 -17 12h-11zM407 57h4c5 0 8 -2 8 -5c0 -7 -4 -6 -9 -6h-3v11zM430 52l2 -5c3 1 6 2 9 2s5 -1 5 -4v-2c-1 0 -2 1 -5 1c-9 0 -13 -3 -13 -10c0 -5 3 -8 9 -8c4 0 7 2 9 5l2 -4h6c-1 1 -1 4 -1 7v11c0 7 -3 10 -10 10c-5 0 -10 -2 -13 -3zM440 32

<glyph glyph-name="IJ" unicode="IJ" horiz-adv-x="580" 
d="M104 0v700h83v-700h-83zM401 174v526h83v-546c0 -106 -48 -164 -143 -164c-22 0 -66 6 -86 16l16 71c17 -8 38 -13 61 -13c56 0 69 42 69 110z" />
    <glyph glyph-name="ij" unicode="ij" horiz-adv-x="486" 
d="M94 0v500h80v-500h-80zM77 652c0 30 23 56 55 56s58 -26 58 -56s-26 -53 -58 -53s-55 23 -55 53zM312 3v497h80v-527c0 -123 -41 -185 -134 -185c-10 0 -19 1 -30 2v68c75 0 84 46 84 145zM295 652c0 30 23 56 55 56s58 -26 58 -56s-26 -53 -58 -53s-55 23 -55 53z" />
    <glyph glyph-name="uniF374.var.accented" unicode="&#xf374;`" horiz-adv-x="492" 
d="M435 87l18 -65c-32 -22 -91 -31 -146 -31c-136 0 -251 78 -251 272c0 201 131 271 251 271c64 0 109 -8 138 -18l-18 -72c-24 11 -66 16 -113 16c-80 0 -155 -45 -169 -156h235v-70h-236c10 -110 81 -169 179 -169c47 0 88 9 112 22zM248 596l59 149h89v-21l-101 -128
h-47z" />
    <glyph glyph-name="uniF376.var.accented" unicode="&#xf376;`" horiz-adv-x="291" 
d="M104 0v525h83v-525h-83zM111 596l59 149h89v-21l-101 -128h-47z" />
    <glyph glyph-name="uniF377.var.accented" unicode="&#xf377;`" horiz-adv-x="343" 
d="M130 0v525h83v-525h-83zM9 683c0 29 20 50 49 50c28 0 47 -21 47 -50c0 -28 -19 -48 -47 -48c-29 0 -49 20 -49 48zM238 683c0 29 19 50 47 50c29 0 49 -21 49 -50c0 -28 -20 -48 -49 -48c-28 0 -47 20 -47 48zM100 617l58 144h75v-21l-96 -123h-37z" />
    <glyph glyph-name="uniF350.var.accented" unicode="&#xf350;`" horiz-adv-x="482" 
d="M388 0l-51 131h-198l-50 -131h-81l209 531h48l209 -531h-86zM218 337l-54 -136h149l-54 137l-20 82h-1zM227 596l59 149h89v-21l-101 -128h-47z" />
    <glyph glyph-name="uniF355.var.accented" unicode="&#xf355;`" horiz-adv-x="470" 
d="M85 0v525h316v-70h-233v-153h213v-70h-213v-162h237v-70h-320zM206 596l59 149h89v-21l-101 -128h-47z" />
    <glyph glyph-name="uniF358.var.accented" unicode="&#xf358;`" horiz-adv-x="581" 
d="M413 0v323l7 66h-4l-37 -68l-246 -321h-48v525h83v-321l-7 -67h4l36 68l246 320h49v-525h-83zM247 596l59 149h89v-21l-101 -128h-47z" />
    <glyph glyph-name="uniF35E.var.accented" unicode="&#xf35e;`" horiz-adv-x="577" 
d="M56 263c0 174 85 271 232 271c159 0 233 -108 233 -271c0 -174 -85 -272 -233 -272c-158 0 -232 108 -232 272zM144 263c0 -112 44 -202 144 -202c91 0 145 64 145 202c0 108 -42 201 -145 201c-91 0 -144 -66 -144 -201zM237 596l59 149h89v-21l-101 -128h-47z" />
    <glyph glyph-name="uniF363.var.accented" unicode="&#xf363;`" horiz-adv-x="455" 
d="M101 525l131 -257l21 -70h4l15 72l99 255h83s-141 -348 -143 -352c-54 -128 -80 -177 -157 -177c-36 0 -57 5 -76 17l24 69c19 -10 35 -12 51 -12c29 0 47 22 61 70l-207 385h94zM188 596l59 149h89v-21l-101 -128h-47z" />
    <glyph glyph-name="uniF36B.var.accented" unicode="&#xf36b;`" horiz-adv-x="674" 
d="M506 0v525h83v-525h-83zM85 5v520h83v-196c12 2 43 6 67 6c103 0 198 -34 198 -163c0 -121 -84 -179 -216 -179c-29 0 -88 1 -132 12zM225 63c71 0 120 35 120 105c0 76 -55 97 -123 97c-17 0 -43 -4 -54 -7v-190c13 -3 33 -5 57 -5zM289 596l59 149h89v-21l-101 -128
h-47z" />
    <glyph glyph-name="uniF36D.var.accented" unicode="&#xf36d;`" horiz-adv-x="490" 
d="M126 232v70h224c-9 107 -74 162 -171 162c-51 0 -93 -14 -117 -27l-20 66c36 19 90 31 145 31c142 0 247 -75 247 -271c0 -199 -123 -272 -263 -272c-56 0 -102 10 -131 22l22 71c25 -12 68 -23 114 -23c85 0 168 47 175 171h-225zM150 596l59 149h89v-21l-101 -128h-47z
" />
    <glyph glyph-name="uniF36E.var.accented" unicode="&#xf36e;`" horiz-adv-x="758" 
d="M168 525v-221h88c11 147 88 230 223 230c160 0 223 -108 223 -271c0 -174 -74 -272 -223 -272c-145 0 -215 95 -223 239h-88v-230h-83v525h83zM344 263c0 -112 35 -202 135 -202c92 0 135 64 135 202c0 108 -31 201 -135 201c-89 0 -135 -66 -135 -201zM317 596l59 149
h89v-21l-101 -128h-47z" />
    <glyph glyph-name="uniF36F.var.accented" unicode="&#xf36f;`" horiz-adv-x="496" 
d="M411 520v-520h-83v220l-75 -15l-130 -205h-97l121 181l49 33c-74 16 -130 65 -130 153c0 124 96 165 219 165c36 0 87 -3 126 -12zM275 462c-63 0 -121 -23 -121 -97c0 -69 54 -98 122 -98h52v191c-14 3 -28 4 -53 4zM241 596l59 149h89v-21l-101 -128h-47z" />
    <glyph glyph-name="uniF371.var.accented" unicode="&#xf371;`" horiz-adv-x="470" 
d="M85 0v525h316v-70h-233v-153h213v-70h-213v-162h237v-70h-320zM79 683c0 29 20 50 49 50c28 0 47 -21 47 -50c0 -28 -19 -48 -47 -48c-29 0 -49 20 -49 48zM308 683c0 29 19 50 47 50c29 0 49 -21 49 -50c0 -28 -20 -48 -49 -48c-28 0 -47 20 -47 48zM170 617l58 144h75
v-21l-96 -123h-37z" />
    <glyph glyph-name="uniF38A.var.accented" unicode="&#xf38a;`" horiz-adv-x="477" 
d="M398 384l-139 -390h-48l-213 531h91l132 -335l18 -85h3l13 87l58 179c41 128 72 160 145 160c38 0 58 -7 78 -17l-22 -69c-20 10 -37 12 -52 12c-26 0 -44 -20 -64 -73zM191 596l59 149h89v-21l-101 -128h-47z" />
    <glyph glyph-name="afii10053.var.accented" unicode="&#x404;`" horiz-adv-x="583" 
d="M523 94l21 -65c-40 -31 -110 -41 -179 -41c-168 0 -309 111 -309 362c0 261 160 362 309 362c79 0 133 -10 169 -24l-20 -74c-31 15 -83 24 -142 24c-103 0 -211 -63 -227 -240h306v-74h-307c9 -175 114 -262 240 -262c59 0 110 13 139 32zM299 752l118 118h114v-21
l-163 -97h-69z" />
    <glyph glyph-name="afii10055.var.accented" unicode="&#x406;`" horiz-adv-x="291" 
d="M104 0v700h83v-700h-83zM62 752l118 118h114v-21l-163 -97h-69z" />
    <glyph glyph-name="afii10056.var.accented" unicode="&#x407;`" horiz-adv-x="294" 
d="M32 793c0 29 22 48 51 48c28 0 50 -19 50 -48s-22 -47 -50 -47c-29 0 -51 18 -51 47zM162 793c0 29 22 48 50 48c29 0 51 -19 51 -48s-22 -47 -51 -47c-28 0 -50 18 -50 47zM112 853l71 80h111v-20l-128 -60h-54zM105 0v700h83v-700h-83z" />
    <glyph glyph-name="afii10017.var.accented" unicode="&#x410;`" horiz-adv-x="585" 
d="M490 0l-72 194h-258l-70 -194h-82l265 711h38l266 -711h-87zM264 477l-77 -211h206l-78 213l-25 106h-1zM214 752l118 118h114v-21l-163 -97h-69z" />
    <glyph glyph-name="afii10022.var.accented" unicode="&#x415;`" horiz-adv-x="536" 
d="M85 0v700h381v-74h-298v-229h273v-74h-273v-249h303v-74h-386zM193 752l118 118h114v-21l-163 -97h-69z" />
    <glyph glyph-name="afii10026.var.accented" unicode="&#x418;`" horiz-adv-x="681" 
d="M513 0v474l6 80h-4l-43 -82l-338 -472h-49v700h83v-480l-7 -79h4l44 82l338 477h49v-700h-83zM262 752l118 118h114v-21l-163 -97h-69z" />
    <glyph glyph-name="afii10032.var.accented" unicode="&#x41e;`" horiz-adv-x="684" 
d="M56 350c0 232 104 362 285 362c197 0 287 -144 287 -362c0 -232 -104 -362 -287 -362c-195 0 -285 144 -285 362zM144 350c0 -154 60 -288 197 -288c124 0 199 92 199 288c0 153 -60 288 -199 288c-122 0 -197 -93 -197 -288zM297 752l118 118h114v-21l-163 -97h-69z" />
    <glyph glyph-name="afii10037.var.accented" unicode="&#x423;`" horiz-adv-x="553" 
d="M103 700l179 -369l26 -89h5l20 92l134 366h85l-177 -455c-73 -188 -100 -250 -193 -250c-44 0 -66 7 -89 22l25 69c26 -15 49 -17 68 -17c37 0 61 39 80 113l-259 518h96zM213 752l118 118h114v-21l-163 -97h-69z" />
    <glyph glyph-name="afii10045.var.accented" unicode="&#x42b;`" horiz-adv-x="769" 
d="M601 0v700h83v-700h-83zM85 7v693h83v-272c14 3 55 8 86 8c126 0 245 -45 245 -210c0 -161 -107 -234 -261 -234c-37 0 -102 2 -153 15zM245 64c96 0 166 52 166 156c0 113 -80 144 -170 144c-24 0 -59 -5 -73 -9v-285c18 -4 45 -6 77 -6zM293 752l118 118h114v-21
l-163 -97h-69z" />
    <glyph glyph-name="afii10047.var.accented" unicode="&#x42d;`" horiz-adv-x="577" 
d="M150 321v74h287c-11 168 -105 243 -227 243c-62 0 -113 -12 -143 -30l-22 65c41 24 106 39 175 39c171 0 301 -103 301 -362c0 -262 -150 -362 -322 -362c-66 0 -118 11 -154 25l22 73c31 -15 84 -24 137 -24c108 0 226 66 234 259h-288zM152 752l118 118h114v-21
l-163 -97h-69z" />
    <glyph glyph-name="afii10048.var.accented" unicode="&#x42e;`" horiz-adv-x="893" 
d="M168 700v-305h124c11 203 104 317 274 317c196 0 271 -144 271 -362c0 -232 -89 -362 -271 -362c-185 0 -268 131 -275 333h-123v-321h-83v700h83zM379 350c0 -154 49 -288 187 -288c123 0 183 92 183 288c0 153 -44 288 -183 288c-123 0 -187 -93 -187 -288zM323 752
l118 118h114v-21l-163 -97h-69z" />
    <glyph glyph-name="afii10049.var.accented" unicode="&#x42f;`" horiz-adv-x="569" 
d="M484 693v-693h-83v305l-103 -22l-174 -283h-98l156 249l61 43c-95 21 -167 88 -167 204c0 162 118 212 260 212c45 0 99 -3 148 -15zM332 636c-87 0 -168 -30 -168 -140c0 -101 77 -143 169 -143h68v277c-18 4 -36 6 -69 6zM271 752l118 118h114v-21l-163 -97h-69z" />
    <glyph glyph-name="afii10023.var.accented" unicode="&#x401;`" horiz-adv-x="536" 
d="M85 0v700h381v-74h-298v-229h273v-74h-273v-249h303v-74h-386zM347 812c0 28 23 47 51 47c32 0 54 -19 54 -47c0 -27 -22 -46 -54 -46c-28 0 -51 19 -51 46zM80 812c0 28 23 47 54 47c29 0 51 -19 51 -47c0 -27 -22 -46 -51 -46c-31 0 -54 19 -54 46zM177 753l68 121h100
v-21l-107 -100h-61z" />
    <glyph glyph-name="afii10065.var.accented" unicode="&#x430;`" horiz-adv-x="496" 
d="M94 404l-25 59c50 30 121 45 194 45c139 0 159 -83 159 -154c0 -80 -6 -157 -6 -225c0 -49 3 -94 14 -131h-59l-21 70h-5c-24 -36 -71 -76 -156 -76s-150 55 -150 142c0 117 101 153 247 153c18 0 36 0 55 -2c2 20 3 38 3 54c0 74 -24 99 -102 99
c-44 0 -111 -13 -148 -34zM211 62c76 0 116 44 130 79v83c-19 1 -38 2 -57 2c-83 0 -162 -17 -162 -84c0 -47 37 -80 89 -80zM206 571l59 149h89v-21l-101 -128h-47z" />
    <glyph glyph-name="afii10070.var.accented" unicode="&#x435;`" horiz-adv-x="508" 
d="M412 98l30 -58c-40 -32 -104 -52 -172 -52c-153 0 -221 103 -221 262c0 169 80 262 220 262c91 0 190 -30 190 -197c0 -22 -2 -46 -6 -73h-321c1 -116 43 -184 161 -184c45 0 96 19 119 40zM270 442c-78 0 -128 -38 -137 -137h248c0 101 -41 137 -111 137zM228 571
l59 149h89v-21l-101 -128h-47z" />
    <glyph glyph-name="afii10074.var.accented" unicode="&#x438;`" horiz-adv-x="546" 
d="M389 0v296l3 62h-3l-41 -64l-225 -294h-46v500h80v-305l-3 -59h4l39 62l225 302h47v-500h-80zM237 571l59 149h89v-21l-101 -128h-47z" />
    <glyph glyph-name="afii10080.var.accented" unicode="&#x43e;`" horiz-adv-x="536" 
d="M49 250c0 168 79 262 219 262c150 0 219 -104 219 -262c0 -168 -79 -262 -219 -262c-150 0 -219 104 -219 262zM132 250c0 -102 37 -192 136 -192c90 0 136 62 136 192c0 103 -37 192 -136 192c-89 0 -136 -62 -136 -192zM227 571l59 149h89v-21l-101 -128h-47z" />
    <glyph glyph-name="afii10085.var.accented" unicode="&#x443;`" horiz-adv-x="466" 
d="M104 500l120 -324l28 -96h5l22 97l97 323h81l-148 -449c-44 -131 -85 -256 -173 -256c-24 0 -43 3 -59 10l14 69c8 -3 17 -5 25 -5c37 0 75 35 97 131l-201 500h92zM208 571l59 149h89v-21l-101 -128h-47z" />
    <glyph glyph-name="afii10093.var.accented" unicode="&#x44b;`" horiz-adv-x="660" 
d="M157 243v-173c25 -4 49 -6 71 -6c83 0 113 35 113 94c0 53 -29 92 -110 92c-22 0 -51 -1 -74 -7zM157 500v-191c32 5 62 7 88 7c137 0 179 -65 179 -149c0 -121 -63 -173 -214 -173c-44 0 -87 2 -133 6v500h80zM503 0v500h80v-500h-80zM262 571l59 149h89v-21l-101 -128
h-47z" />
    <glyph glyph-name="afii10095.var.accented" unicode="&#x44d;`" horiz-adv-x="465" 
d="M121 219v66h212c-6 94 -56 157 -145 157c-54 0 -96 -18 -121 -35l-28 61c41 28 94 44 164 44c148 0 213 -96 213 -262c0 -170 -84 -262 -223 -262c-62 0 -117 10 -153 30l23 68c31 -17 79 -28 122 -28c92 0 143 52 149 161h-213zM156 571l59 149h89v-21l-101 -128h-47z
" />
    <glyph glyph-name="afii10096.var.accented" unicode="&#x44e;`" horiz-adv-x="719" 
d="M465 -12c-144 0 -201 91 -207 233h-101v-221h-80v500h80v-209h102c9 142 76 221 208 221c146 0 203 -104 203 -262c0 -168 -67 -262 -205 -262zM336 250c0 -104 29 -192 131 -192c85 0 120 61 120 192c0 104 -26 192 -121 192c-92 0 -130 -61 -130 -192zM288 571l59 149
h89v-21l-101 -128h-47z" />
    <glyph glyph-name="afii10097.var.accented" unicode="&#x44f;`" horiz-adv-x="475" 
d="M326 0v207l-77 -12l-132 -195h-97l120 171l40 37c-69 11 -125 57 -125 134c0 120 87 170 219 170c49 0 91 -8 132 -16v-496h-80zM326 433c-17 6 -41 9 -57 9c-85 0 -131 -30 -131 -96c0 -59 52 -94 129 -94c3 0 6 0 59 2v179zM229 571l59 149h89v-21l-101 -128h-47z" />
    <glyph glyph-name="afii10071.var.accented" unicode="&#x451;`" horiz-adv-x="508" 
d="M412 98l30 -58c-40 -32 -104 -52 -172 -52c-153 0 -221 103 -221 262c0 169 80 262 220 262c91 0 190 -30 190 -197c0 -22 -2 -46 -6 -73h-321c1 -116 43 -184 161 -184c45 0 96 19 119 40zM270 442c-78 0 -128 -38 -137 -137h248c0 101 -41 137 -111 137zM100 632
c0 29 20 50 49 50c28 0 47 -21 47 -50c0 -28 -19 -48 -47 -48c-29 0 -49 20 -49 48zM329 632c0 29 19 50 47 50c29 0 49 -21 49 -50c0 -28 -20 -48 -49 -48c-28 0 -47 20 -47 48zM191 566l58 144h75v-21l-96 -123h-37z" />
    <glyph glyph-name="afii10101.var.accented" unicode="&#x454;`" horiz-adv-x="472" 
d="M412 94l26 -61c-40 -29 -101 -45 -161 -45c-154 0 -228 104 -228 262c0 168 94 262 233 262c64 0 111 -10 147 -29l-23 -69c-31 17 -74 28 -116 28c-91 0 -150 -52 -160 -156h236v-66h-237c9 -89 58 -162 169 -162c47 0 90 17 114 36zM243 571l59 149h89v-21l-101 -128
h-47z" />
    <glyph glyph-name="afii10103.var.accented" unicode="&#x456;`" horiz-adv-x="268" 
d="M94 0v500h80v-500h-80zM77 652c0 30 23 56 55 56s58 -26 58 -56s-26 -53 -58 -53s-55 23 -55 53zM86 752l118 118h114v-21l-163 -97h-69z" />
    <glyph glyph-name="afii10104.var.accented" unicode="&#x457;`" horiz-adv-x="272" 
d="M29 633c0 29 18 49 47 49c28 0 46 -20 46 -49s-18 -48 -46 -48c-29 0 -47 19 -47 48zM151 633c0 29 18 49 46 49c29 0 47 -20 47 -49s-18 -48 -47 -48c-28 0 -46 19 -46 48zM95 0v500h80v-500h-80zM87 714l118 118h114v-21l-163 -97h-69z" />
    <glyph glyph-name="afii10062.var.accented" unicode="&#x40e;`" horiz-adv-x="553" 
d="M103 700l179 -369l26 -89h5l20 92l134 366h85l-177 -455c-73 -188 -100 -250 -193 -250c-44 0 -66 7 -89 22l25 69c26 -15 49 -17 68 -17c37 0 61 39 80 113l-259 518h96zM123 850l79 20c5 -49 38 -80 94 -80c54 0 88 29 95 77l68 -17c-15 -71 -68 -115 -166 -115
c-94 0 -159 36 -170 115zM241 833l113 118h113v-21l-159 -97h-67z" />
    <glyph glyph-name="afii10110.var.accented" unicode="&#x45e;`" horiz-adv-x="466" 
d="M104 500l120 -324l28 -96h5l22 97l97 323h81l-148 -449c-44 -131 -85 -256 -173 -256c-24 0 -43 3 -59 10l14 69c8 -3 17 -5 25 -5c37 0 75 35 97 131l-201 500h92zM87 678l68 24c13 -61 49 -82 93 -82s82 24 95 81l58 -19c-12 -77 -75 -120 -155 -120
c-75 0 -146 36 -159 116zM217 682l57 149h88v-21l-102 -128h-43z" />
    <glyph glyph-name="afii10148.var.accented" unicode="&#x474;`" horiz-adv-x="598" 
d="M478 520l-174 -531h-37l-269 711h90l178 -481l24 -106h2l16 108c25 88 53 175 81 271c61 208 108 215 176 215c46 0 70 -8 92 -22l-24 -70c-27 15 -50 18 -69 18c-37 0 -60 -32 -86 -113zM227 752l118 118h114v-21l-163 -97h-69z" />
    <glyph glyph-name="afii10196.var.accented" unicode="&#x475;`" horiz-adv-x="507" 
d="M413 356l-152 -367h-34l-217 511h92l120 -293l28 -95h1l25 97c37 95 42 106 46 116c43 114 69 182 150 182c24 0 42 -2 58 -9l-12 -74c-12 5 -23 9 -34 9c-22 0 -45 -15 -71 -77zM218 571l59 149h89v-21l-101 -128h-47z" />
    <glyph glyph-name="uni04AE.var.accented" unicode="&#x4ae;`" horiz-adv-x="558" 
d="M239 0v278l-231 422h97l164 -306l17 -61h1l18 63l157 304h89l-229 -421v-279h-83zM220 752l118 118h114v-21l-163 -97h-69z" />
    <glyph glyph-name="uni04AF.var.accented" unicode="&#x4af;`" horiz-adv-x="484" 
d="M207 0l-197 500h92l122 -324l28 -106h1l25 108l110 322h86l-187 -500v-200h-80v200zM208 571l59 149h89v-21l-101 -128h-47z" />
    <glyph glyph-name="uni04B0.var.accented" unicode="&#x4b0;`" horiz-adv-x="558" 
d="M89 223v62h146l-227 415h97l164 -306l17 -61h1l18 63l157 304h89l-226 -415h147v-62h-150v-223h-83v223h-150zM220 752l118 118h114v-21l-163 -97h-69z" />
    <glyph glyph-name="uni04B1.var.accented" unicode="&#x4b1;`" horiz-adv-x="484" 
d="M84 -60v60h123l-197 500h92l122 -324l28 -106h1l25 108l110 322h86l-187 -500h117v-60h-117v-140h-80v140h-123zM207 571l59 149h89v-21l-101 -128h-47z" />
    <glyph glyph-name="uni04D0.var.accented" unicode="&#x4d0;`" horiz-adv-x="585" 
d="M490 0l-72 194h-258l-70 -194h-82l265 711h38l266 -711h-87zM264 477l-77 -211h206l-78 213l-25 106h-1zM122 850l79 20c5 -49 38 -80 94 -80c54 0 88 29 95 77l68 -17c-15 -71 -68 -115 -166 -115c-94 0 -159 36 -170 115zM240 833l113 118h113v-21l-159 -97h-67z" />
    <glyph glyph-name="uni04D1.var.accented" unicode="&#x4d1;`" horiz-adv-x="496" 
d="M94 404l-25 59c50 30 121 45 194 45c139 0 159 -83 159 -154c0 -80 -6 -157 -6 -225c0 -49 3 -94 14 -131h-59l-21 70h-5c-24 -36 -71 -76 -156 -76s-150 55 -150 142c0 117 101 153 247 153c18 0 36 0 55 -2c2 20 3 38 3 54c0 74 -24 99 -102 99
c-44 0 -111 -13 -148 -34zM211 62c76 0 116 44 130 79v83c-19 1 -38 2 -57 2c-83 0 -162 -17 -162 -84c0 -47 37 -80 89 -80zM99 678l68 24c13 -61 49 -82 93 -82s82 24 95 81l58 -19c-12 -77 -75 -120 -155 -120c-75 0 -146 36 -159 116zM229 682l57 149h88v-21l-102 -128
h-43z" />
    <glyph glyph-name="uni04D2.var.accented" unicode="&#x4d2;`" horiz-adv-x="585" 
d="M490 0l-72 194h-258l-70 -194h-82l265 711h38l266 -711h-87zM264 477l-77 -211h206l-78 213l-25 106h-1zM370 812c0 28 23 47 51 47c32 0 54 -19 54 -47c0 -27 -22 -46 -54 -46c-28 0 -51 19 -51 46zM103 812c0 28 23 47 54 47c29 0 51 -19 51 -47c0 -27 -22 -46 -51 -46
c-31 0 -54 19 -54 46zM200 753l68 121h100v-21l-107 -100h-61z" />
    <glyph glyph-name="uni04D3.var.accented" unicode="&#x4d3;`" horiz-adv-x="496" 
d="M94 404l-25 59c50 30 121 45 194 45c139 0 159 -83 159 -154c0 -80 -6 -157 -6 -225c0 -49 3 -94 14 -131h-59l-21 70h-5c-24 -36 -71 -76 -156 -76s-150 55 -150 142c0 117 101 153 247 153c18 0 36 0 55 -2c2 20 3 38 3 54c0 74 -24 99 -102 99
c-44 0 -111 -13 -148 -34zM211 62c76 0 116 44 130 79v83c-19 1 -38 2 -57 2c-83 0 -162 -17 -162 -84c0 -47 37 -80 89 -80zM84 632c0 29 20 50 49 50c28 0 47 -21 47 -50c0 -28 -19 -48 -47 -48c-29 0 -49 20 -49 48zM313 632c0 29 19 50 47 50c29 0 49 -21 49 -50
c0 -28 -20 -48 -49 -48c-28 0 -47 20 -47 48zM175 566l58 144h75v-21l-96 -123h-37z" />
    <glyph glyph-name="uni04D4.var.accented" unicode="&#x4d4;`" horiz-adv-x="846" 
d="M395 600h-4l-34 -103l-133 -229h171v332zM395 0v198h-214l-112 -198h-91l415 700h383v-74h-298v-229h273v-74h-273v-249h303v-74h-386zM407 752l118 118h114v-21l-163 -97h-69z" />
    <glyph glyph-name="uni04D5.var.accented" unicode="&#x4d5;`" horiz-adv-x="796" 
d="M211 62c76 0 116 44 130 79v83c-19 1 -38 2 -57 2c-83 0 -162 -17 -162 -84c0 -47 37 -80 89 -80zM374 84h-7c-34 -47 -89 -92 -178 -92c-85 0 -150 55 -150 142c0 117 101 153 247 153c18 0 36 0 55 -2c1 20 3 38 3 54c0 74 -24 99 -102 99c-44 0 -111 -13 -148 -34
l-25 59c50 30 121 45 194 45c69 0 116 -23 136 -65c34 48 100 69 158 69c91 0 190 -31 190 -199c0 -21 -2 -45 -5 -71h-323c0 -116 44 -184 161 -184c46 0 96 18 120 39l30 -57c-40 -32 -104 -52 -172 -52c-81 0 -152 35 -184 96zM558 442c-78 0 -129 -38 -137 -137h248v12
c0 90 -45 125 -111 125zM359 571l59 149h89v-21l-101 -128h-47z" />
    <glyph glyph-name="uni04D6.var.accented" unicode="&#x4d6;`" horiz-adv-x="536" 
d="M85 0v700h381v-74h-298v-229h273v-74h-273v-249h303v-74h-386zM117 850l79 20c5 -49 38 -80 94 -80c54 0 88 29 95 77l68 -17c-15 -71 -68 -115 -166 -115c-94 0 -159 36 -170 115zM235 833l113 118h113v-21l-159 -97h-67z" />
    <glyph glyph-name="uni04D7.var.accented" unicode="&#x4d7;`" horiz-adv-x="508" 
d="M412 98l30 -58c-40 -32 -104 -52 -172 -52c-153 0 -221 103 -221 262c0 169 80 262 220 262c91 0 190 -30 190 -197c0 -22 -2 -46 -6 -73h-321c1 -116 43 -184 161 -184c45 0 96 19 119 40zM270 442c-78 0 -128 -38 -137 -137h248c0 101 -41 137 -111 137zM110 678l68 24
c13 -61 49 -82 93 -82s82 24 95 81l58 -19c-12 -77 -75 -120 -155 -120c-75 0 -146 36 -159 116zM240 682l57 149h88v-21l-102 -128h-43z" />
    <glyph glyph-name="uni04D8.var.accented" unicode="&#x4d8;`" horiz-adv-x="639" 
d="M500 322h-355c-3 -18 -4 -35 -4 -53c0 -108 49 -211 166 -211c123 0 192 91 193 264zM63 392h437c-12 170 -78 246 -215 246c-61 0 -125 -23 -155 -41l-21 67c40 24 110 48 192 48c180 0 282 -105 282 -362c0 -231 -92 -362 -277 -362c-166 0 -253 112 -253 291
c0 35 3 73 10 113zM240 752l118 118h114v-21l-163 -97h-69z" />
    <glyph glyph-name="afii10846.var.accented" unicode="&#x4d9;`" horiz-adv-x="507" 
d="M95 402l-30 58c40 32 104 52 172 52c153 0 221 -104 221 -262c0 -168 -80 -262 -212 -262c-88 0 -197 46 -197 220c0 21 2 43 5 68h326c-7 113 -48 166 -166 166c-45 0 -95 -19 -119 -40zM248 58c73 0 130 53 130 155h-251v-15c0 -93 52 -140 121 -140zM202 571l59 149
h89v-21l-101 -128h-47z" />
    <glyph glyph-name="uni04DA.var.accented" unicode="&#x4da;`" horiz-adv-x="639" 
d="M500 322h-355c-3 -18 -4 -35 -4 -53c0 -108 49 -211 166 -211c123 0 192 91 193 264zM63 392h437c-12 170 -78 246 -215 246c-61 0 -125 -23 -155 -41l-21 67c40 24 110 48 192 48c180 0 282 -105 282 -362c0 -231 -92 -362 -277 -362c-166 0 -253 112 -253 291
c0 35 3 73 10 113zM387 812c0 28 23 47 51 47c32 0 54 -19 54 -47c0 -27 -22 -46 -54 -46c-28 0 -51 19 -51 46zM120 812c0 28 23 47 54 47c29 0 51 -19 51 -47c0 -27 -22 -46 -51 -46c-31 0 -54 19 -54 46zM217 753l68 121h100v-21l-107 -100h-61z" />
    <glyph glyph-name="uni04DB.var.accented" unicode="&#x4db;`" horiz-adv-x="507" 
d="M95 402l-30 58c40 32 104 52 172 52c153 0 221 -104 221 -262c0 -168 -80 -262 -212 -262c-88 0 -197 46 -197 220c0 21 2 43 5 68h326c-7 113 -48 166 -166 166c-45 0 -95 -19 -119 -40zM248 58c73 0 130 53 130 155h-251v-15c0 -93 52 -140 121 -140zM88 632
c0 29 20 50 49 50c28 0 47 -21 47 -50c0 -28 -19 -48 -47 -48c-29 0 -49 20 -49 48zM317 632c0 29 19 50 47 50c29 0 49 -21 49 -50c0 -28 -20 -48 -49 -48c-28 0 -47 20 -47 48zM179 566l58 144h75v-21l-96 -123h-37z" />
    <glyph glyph-name="uni04E2.var.accented" unicode="&#x4e2;`" horiz-adv-x="681" 
d="M513 0v474l6 80h-4l-43 -82l-338 -472h-49v700h83v-480l-7 -79h4l44 82l338 477h49v-700h-83zM194 753v62h316v-62h-316zM280 825l118 118h114v-21l-163 -97h-69z" />
    <glyph glyph-name="uni04E3.var.accented" unicode="&#x4e3;`" horiz-adv-x="546" 
d="M389 0v296l3 62h-3l-41 -64l-225 -294h-46v500h80v-305l-3 -59h4l39 62l225 302h47v-500h-80zM127 579v62h296v-62h-296zM227 681l59 149h89v-21l-101 -128h-47z" />
    <glyph glyph-name="uni04E4.var.accented" unicode="&#x4e4;`" horiz-adv-x="681" 
d="M513 0v474l6 80h-4l-43 -82l-338 -472h-49v700h83v-480l-7 -79h4l44 82l338 477h49v-700h-83zM425 812c0 28 23 47 51 47c32 0 54 -19 54 -47c0 -27 -22 -46 -54 -46c-28 0 -51 19 -51 46zM158 812c0 28 23 47 54 47c29 0 51 -19 51 -47c0 -27 -22 -46 -51 -46
c-31 0 -54 19 -54 46zM255 753l68 121h100v-21l-107 -100h-61z" />
    <glyph glyph-name="uni04E5.var.accented" unicode="&#x4e5;`" horiz-adv-x="546" 
d="M389 0v296l3 62h-3l-41 -64l-225 -294h-46v500h80v-305l-3 -59h4l39 62l225 302h47v-500h-80zM113 632c0 29 20 50 49 50c28 0 47 -21 47 -50c0 -28 -19 -48 -47 -48c-29 0 -49 20 -49 48zM342 632c0 29 19 50 47 50c29 0 49 -21 49 -50c0 -28 -20 -48 -49 -48
c-28 0 -47 20 -47 48zM204 566l58 144h75v-21l-96 -123h-37z" />
    <glyph glyph-name="uni04E6.var.accented" unicode="&#x4e6;`" horiz-adv-x="684" 
d="M56 350c0 232 104 362 285 362c197 0 287 -144 287 -362c0 -232 -104 -362 -287 -362c-195 0 -285 144 -285 362zM144 350c0 -154 60 -288 197 -288c124 0 199 92 199 288c0 153 -60 288 -199 288c-122 0 -197 -93 -197 -288zM421 812c0 28 23 47 51 47
c32 0 54 -19 54 -47c0 -27 -22 -46 -54 -46c-28 0 -51 19 -51 46zM154 812c0 28 23 47 54 47c29 0 51 -19 51 -47c0 -27 -22 -46 -51 -46c-31 0 -54 19 -54 46zM251 753l68 121h100v-21l-107 -100h-61z" />
    <glyph glyph-name="uni04E7.var.accented" unicode="&#x4e7;`" horiz-adv-x="536" 
d="M49 250c0 168 79 262 219 262c150 0 219 -104 219 -262c0 -168 -79 -262 -219 -262c-150 0 -219 104 -219 262zM132 250c0 -102 37 -192 136 -192c90 0 136 62 136 192c0 103 -37 192 -136 192c-89 0 -136 -62 -136 -192zM112 632c0 29 20 50 49 50c28 0 47 -21 47 -50
c0 -28 -19 -48 -47 -48c-29 0 -49 20 -49 48zM341 632c0 29 19 50 47 50c29 0 49 -21 49 -50c0 -28 -20 -48 -49 -48c-28 0 -47 20 -47 48zM203 566l58 144h75v-21l-96 -123h-37z" />
    <glyph glyph-name="uni04E8.var.accented" unicode="&#x4e8;`" horiz-adv-x="684" 
d="M56 350c0 232 104 362 285 362c197 0 287 -144 287 -362c0 -232 -104 -362 -287 -362c-195 0 -285 144 -285 362zM144 392h396c-10 158 -90 246 -199 246c-97 0 -187 -62 -197 -246zM540 318h-396c10 -171 91 -256 197 -256c99 0 192 57 199 256zM299 752l118 118h114
v-21l-163 -97h-69z" />
    <glyph glyph-name="uni04E9.var.accented" unicode="&#x4e9;`" horiz-adv-x="536" 
d="M49 250c0 168 79 262 219 262c150 0 219 -104 219 -262c0 -168 -79 -262 -219 -262c-150 0 -219 104 -219 262zM132 281h272c-11 112 -60 161 -136 161c-69 0 -130 -40 -136 -161zM404 217h-272c7 -104 63 -159 136 -159c68 0 128 37 136 159zM237 571l59 149h89v-21
l-101 -128h-47z" />
    <glyph glyph-name="uni04EA.var.accented" unicode="&#x4ea;`" horiz-adv-x="684" 
d="M56 350c0 232 104 362 285 362c197 0 287 -144 287 -362c0 -232 -104 -362 -287 -362c-195 0 -285 144 -285 362zM144 392h396c-10 158 -90 246 -199 246c-97 0 -187 -62 -197 -246zM540 318h-396c10 -171 91 -256 197 -256c99 0 192 57 199 256zM425 812
c0 28 23 47 51 47c32 0 54 -19 54 -47c0 -27 -22 -46 -54 -46c-28 0 -51 19 -51 46zM158 812c0 28 23 47 54 47c29 0 51 -19 51 -47c0 -27 -22 -46 -51 -46c-31 0 -54 19 -54 46zM255 753l68 121h100v-21l-107 -100h-61z" />
    <glyph glyph-name="uni04EB.var.accented" unicode="&#x4eb;`" horiz-adv-x="536" 
d="M49 250c0 168 79 262 219 262c150 0 219 -104 219 -262c0 -168 -79 -262 -219 -262c-150 0 -219 104 -219 262zM132 281h272c-11 112 -60 161 -136 161c-69 0 -130 -40 -136 -161zM404 217h-272c7 -104 63 -159 136 -159c68 0 128 37 136 159zM112 632c0 29 20 50 49 50
c28 0 47 -21 47 -50c0 -28 -19 -48 -47 -48c-29 0 -49 20 -49 48zM341 632c0 29 19 50 47 50c29 0 49 -21 49 -50c0 -28 -20 -48 -49 -48c-28 0 -47 20 -47 48zM203 566l58 144h75v-21l-96 -123h-37z" />
    <glyph glyph-name="uni04EC.var.accented" unicode="&#x4ec;`" horiz-adv-x="577" 
d="M150 321v74h287c-11 168 -105 243 -227 243c-62 0 -113 -12 -143 -30l-22 65c41 24 106 39 175 39c171 0 301 -103 301 -362c0 -262 -150 -362 -322 -362c-66 0 -118 11 -154 25l22 73c31 -15 84 -24 137 -24c108 0 226 66 234 259h-288zM337 812c0 28 23 47 51 47
c32 0 54 -19 54 -47c0 -27 -22 -46 -54 -46c-28 0 -51 19 -51 46zM70 812c0 28 23 47 54 47c29 0 51 -19 51 -47c0 -27 -22 -46 -51 -46c-31 0 -54 19 -54 46zM167 753l68 121h100v-21l-107 -100h-61z" />
    <glyph glyph-name="uni04ED.var.accented" unicode="&#x4ed;`" horiz-adv-x="465" 
d="M121 219v66h212c-6 94 -56 157 -145 157c-54 0 -96 -18 -121 -35l-28 61c41 28 94 44 164 44c148 0 213 -96 213 -262c0 -170 -84 -262 -223 -262c-62 0 -117 10 -153 30l23 68c31 -17 79 -28 122 -28c92 0 143 52 149 161h-213zM52 632c0 29 20 50 49 50
c28 0 47 -21 47 -50c0 -28 -19 -48 -47 -48c-29 0 -49 20 -49 48zM281 632c0 29 19 50 47 50c29 0 49 -21 49 -50c0 -28 -20 -48 -49 -48c-28 0 -47 20 -47 48zM143 566l58 144h75v-21l-96 -123h-37z" />
    <glyph glyph-name="uni04EE.var.accented" unicode="&#x4ee;`" horiz-adv-x="553" 
d="M103 700l179 -369l26 -89h5l20 92l134 366h85l-177 -455c-73 -188 -100 -250 -193 -250c-44 0 -66 7 -89 22l25 69c26 -15 49 -17 68 -17c37 0 61 39 80 113l-259 518h96zM130 753v62h316v-62h-316zM216 825l118 118h114v-21l-163 -97h-69z" />
    <glyph glyph-name="uni04EF.var.accented" unicode="&#x4ef;`" horiz-adv-x="466" 
d="M104 500l120 -324l28 -96h5l22 97l97 323h81l-148 -449c-44 -131 -85 -256 -173 -256c-24 0 -43 3 -59 10l14 69c8 -3 17 -5 25 -5c37 0 75 35 97 131l-201 500h92zM97 579v62h296v-62h-296zM197 681l59 149h89v-21l-101 -128h-47z" />
    <glyph glyph-name="uni04F0.var.accented" unicode="&#x4f0;`" horiz-adv-x="553" 
d="M103 700l179 -369l26 -89h5l20 92l134 366h85l-177 -455c-73 -188 -100 -250 -193 -250c-44 0 -66 7 -89 22l25 69c26 -15 49 -17 68 -17c37 0 61 39 80 113l-259 518h96zM371 812c0 28 23 47 51 47c32 0 54 -19 54 -47c0 -27 -22 -46 -54 -46c-28 0 -51 19 -51 46z
M104 812c0 28 23 47 54 47c29 0 51 -19 51 -47c0 -27 -22 -46 -51 -46c-31 0 -54 19 -54 46zM201 753l68 121h100v-21l-107 -100h-61z" />
    <glyph glyph-name="uni04F1.var.accented" unicode="&#x4f1;`" horiz-adv-x="466" 
d="M104 500l120 -324l28 -96h5l22 97l97 323h81l-148 -449c-44 -131 -85 -256 -173 -256c-24 0 -43 3 -59 10l14 69c8 -3 17 -5 25 -5c37 0 75 35 97 131l-201 500h92zM79 632c0 29 20 50 49 50c28 0 47 -21 47 -50c0 -28 -19 -48 -47 -48c-29 0 -49 20 -49 48zM308 632
c0 29 19 50 47 50c29 0 49 -21 49 -50c0 -28 -20 -48 -49 -48c-28 0 -47 20 -47 48zM170 566l58 144h75v-21l-96 -123h-37z" />
    <glyph glyph-name="uni04F2.var.accented" unicode="&#x4f2;`" horiz-adv-x="553" 
d="M103 700l179 -369l26 -89h5l20 92l134 366h85l-177 -455c-73 -188 -100 -250 -193 -250c-44 0 -66 7 -89 22l25 69c26 -15 49 -17 68 -17c37 0 61 39 80 113l-259 518h96zM135 731l25 89h82v-16l-60 -73h-47zM314 731l133 89h100v-16l-173 -73h-60zM228 752l101 118h109
v-19l-138 -99h-72z" />
    <glyph glyph-name="uni04F3.var.accented" unicode="&#x4f3;`" horiz-adv-x="466" 
d="M104 500l120 -324l28 -96h5l22 97l97 323h81l-148 -449c-44 -131 -85 -256 -173 -256c-24 0 -43 3 -59 10l14 69c8 -3 17 -5 25 -5c37 0 75 35 97 131l-201 500h92zM121 571l15 129h77v-16l-51 -113h-41zM264 571l103 129h85v-16l-144 -113h-44zM219 622l60 148h85v-19
l-99 -129h-46z" />
    <glyph glyph-name="uni04F8.var.accented" unicode="&#x4f8;`" horiz-adv-x="769" 
d="M601 0v700h83v-700h-83zM85 7v693h83v-272c14 3 55 8 86 8c126 0 245 -45 245 -210c0 -161 -107 -234 -261 -234c-37 0 -102 2 -153 15zM245 64c96 0 166 52 166 156c0 113 -80 144 -170 144c-24 0 -59 -5 -73 -9v-285c18 -4 45 -6 77 -6zM462 812c0 28 23 47 51 47
c32 0 54 -19 54 -47c0 -27 -22 -46 -54 -46c-28 0 -51 19 -51 46zM195 812c0 28 23 47 54 47c29 0 51 -19 51 -47c0 -27 -22 -46 -51 -46c-31 0 -54 19 -54 46zM292 753l68 121h100v-21l-107 -100h-61z" />
    <glyph glyph-name="uni04F9.var.accented" unicode="&#x4f9;`" horiz-adv-x="660" 
d="M157 243v-173c25 -4 49 -6 71 -6c83 0 113 35 113 94c0 53 -29 92 -110 92c-22 0 -51 -1 -74 -7zM157 500v-191c32 5 62 7 88 7c137 0 179 -65 179 -149c0 -121 -63 -173 -214 -173c-44 0 -87 2 -133 6v500h80zM503 0v500h80v-500h-80zM168 632c0 29 20 50 49 50
c28 0 47 -21 47 -50c0 -28 -19 -48 -47 -48c-29 0 -49 20 -49 48zM397 632c0 29 19 50 47 50c29 0 49 -21 49 -50c0 -28 -20 -48 -49 -48c-28 0 -47 20 -47 48zM259 566l58 144h75v-21l-96 -123h-37z" />
    <glyph glyph-name="uniF37E.var.accented" unicode="&#xf37e;`" horiz-adv-x="455" 
d="M101 525l131 -257l21 -70h4l15 72l99 255h83s-141 -348 -143 -352c-54 -128 -80 -177 -157 -177c-36 0 -57 5 -76 17l24 69c19 -10 35 -12 51 -12c29 0 47 22 61 70l-207 385h94zM77 703l68 24c13 -61 49 -82 93 -82s82 24 95 81l58 -19c-12 -77 -75 -120 -155 -120
c-75 0 -146 36 -159 116zM207 707l57 149h88v-21l-102 -128h-43z" />
    <glyph glyph-name="uniF3A2.var.accented" unicode="&#xf3a2;`" horiz-adv-x="465" 
d="M192 0v201l-184 324h96l121 -217l13 -51h2l14 52l116 216h87l-182 -323v-202h-83zM200 596l59 149h89v-21l-101 -128h-47z" />
    <glyph glyph-name="uniF3A3.var.accented" unicode="&#xf3a3;`" horiz-adv-x="465" 
d="M75 141v60h117l-184 324h96l121 -217l13 -51h2l14 52l116 216h87l-182 -323v-1h119v-60h-119v-141h-83v141h-117zM209 596l59 149h89v-21l-101 -128h-47z" />
    <glyph glyph-name="uniF3B2.var.accented" unicode="&#xf3b2;`" horiz-adv-x="482" 
d="M388 0l-51 131h-198l-50 -131h-81l209 531h48l209 -531h-86zM218 337l-54 -136h149l-54 137l-20 82h-1zM83 703l68 24c13 -61 49 -82 93 -82s82 24 95 81l58 -19c-12 -77 -75 -120 -155 -120c-75 0 -146 36 -159 116zM213 707l57 149h88v-21l-102 -128h-43z" />
    <glyph glyph-name="uniF3B3.var.accented" unicode="&#xf3b3;`" horiz-adv-x="482" 
d="M388 0l-51 131h-198l-50 -131h-81l209 531h48l209 -531h-86zM218 337l-54 -136h149l-54 137l-20 82h-1zM76 683c0 29 20 50 49 50c28 0 47 -21 47 -50c0 -28 -19 -48 -47 -48c-29 0 -49 20 -49 48zM305 683c0 29 19 50 47 50c29 0 49 -21 49 -50c0 -28 -20 -48 -49 -48
c-28 0 -47 20 -47 48zM167 617l58 144h75v-21l-96 -123h-37z" />
    <glyph glyph-name="uniF3B4.var.accented" unicode="&#xf3b4;`" horiz-adv-x="698" 
d="M315 426h-4l-26 -74l-96 -145h126v219zM315 0v137h-164l-84 -137h-89l335 525h316v-70h-231v-153h211v-70h-211v-162h235v-70h-318zM328 596l59 149h89v-21l-101 -128h-47z" />
    <glyph glyph-name="uniF3B5.var.accented" unicode="&#xf3b5;`" horiz-adv-x="470" 
d="M85 0v525h316v-70h-233v-153h213v-70h-213v-162h237v-70h-320zM89 703l68 24c13 -61 49 -82 93 -82s82 24 95 81l58 -19c-12 -77 -75 -120 -155 -120c-75 0 -146 36 -159 116zM219 707l57 149h88v-21l-102 -128h-43z" />
    <glyph glyph-name="uniF3B6.var.accented" unicode="&#xf3b6;`" horiz-adv-x="539" 
d="M400 231h-261c-2 -11 -2 -20 -2 -31c0 -72 36 -139 123 -139c90 0 139 57 140 170zM61 301h339c-8 109 -56 163 -162 163c-49 0 -99 -18 -123 -32l-21 66c32 18 93 36 158 36c146 0 231 -79 231 -271c0 -172 -73 -272 -225 -272c-138 0 -204 89 -204 224c0 27 2 56 7 86z
M227 596l59 149h89v-21l-101 -128h-47z" />
    <glyph glyph-name="uniF3B7.var.accented" unicode="&#xf3b7;`" horiz-adv-x="539" 
d="M400 231h-261c-2 -11 -2 -20 -2 -31c0 -72 36 -139 123 -139c90 0 139 57 140 170zM61 301h339c-8 109 -56 163 -162 163c-49 0 -99 -18 -123 -32l-21 66c32 18 93 36 158 36c146 0 231 -79 231 -271c0 -172 -73 -272 -225 -272c-138 0 -204 89 -204 224c0 27 2 56 7 86z
M98 683c0 29 20 50 49 50c28 0 47 -21 47 -50c0 -28 -19 -48 -47 -48c-29 0 -49 20 -49 48zM327 683c0 29 19 50 47 50c29 0 49 -21 49 -50c0 -28 -20 -48 -49 -48c-28 0 -47 20 -47 48zM189 617l58 144h75v-21l-96 -123h-37z" />
    <glyph glyph-name="uniF3BB.var.accented" unicode="&#xf3bb;`" horiz-adv-x="581" 
d="M413 0v323l7 66h-4l-37 -68l-246 -321h-48v525h83v-321l-7 -67h4l36 68l246 320h49v-525h-83zM152 604v62h296v-62h-296zM252 706l59 149h89v-21l-101 -128h-47z" />
    <glyph glyph-name="uniF3BC.var.accented" unicode="&#xf3bc;`" horiz-adv-x="581" 
d="M413 0v323l7 66h-4l-37 -68l-246 -321h-48v525h83v-321l-7 -67h4l36 68l246 320h49v-525h-83zM133 683c0 29 20 50 49 50c28 0 47 -21 47 -50c0 -28 -19 -48 -47 -48c-29 0 -49 20 -49 48zM362 683c0 29 19 50 47 50c29 0 49 -21 49 -50c0 -28 -20 -48 -49 -48
c-28 0 -47 20 -47 48zM224 617l58 144h75v-21l-96 -123h-37z" />
    <glyph glyph-name="uniF3BD.var.accented" unicode="&#xf3bd;`" horiz-adv-x="577" 
d="M56 263c0 174 85 271 232 271c159 0 233 -108 233 -271c0 -174 -85 -272 -233 -272c-158 0 -232 108 -232 272zM144 263c0 -112 44 -202 144 -202c91 0 145 64 145 202c0 108 -42 201 -145 201c-91 0 -144 -66 -144 -201zM129 683c0 29 20 50 49 50c28 0 47 -21 47 -50
c0 -28 -19 -48 -47 -48c-29 0 -49 20 -49 48zM358 683c0 29 19 50 47 50c29 0 49 -21 49 -50c0 -28 -20 -48 -49 -48c-28 0 -47 20 -47 48zM220 617l58 144h75v-21l-96 -123h-37z" />
    <glyph glyph-name="uniF3BE.var.accented" unicode="&#xf3be;`" horiz-adv-x="577" 
d="M56 263c0 174 85 271 232 271c159 0 233 -108 233 -271c0 -174 -85 -272 -233 -272c-158 0 -232 108 -232 272zM288 61c84 0 137 54 145 170h-289c7 -97 53 -170 144 -170zM288 464c-83 0 -135 -53 -144 -163h288c-8 92 -52 163 -144 163zM247 596l59 149h89v-21
l-101 -128h-47z" />
    <glyph glyph-name="uniF3BF.var.accented" unicode="&#xf3bf;`" horiz-adv-x="577" 
d="M56 263c0 174 85 271 232 271c159 0 233 -108 233 -271c0 -174 -85 -272 -233 -272c-158 0 -232 108 -232 272zM288 61c84 0 137 54 145 170h-289c7 -97 53 -170 144 -170zM288 464c-83 0 -135 -53 -144 -163h288c-8 92 -52 163 -144 163zM125 683c0 29 20 50 49 50
c28 0 47 -21 47 -50c0 -28 -19 -48 -47 -48c-29 0 -49 20 -49 48zM354 683c0 29 19 50 47 50c29 0 49 -21 49 -50c0 -28 -20 -48 -49 -48c-28 0 -47 20 -47 48zM216 617l58 144h75v-21l-96 -123h-37z" />
    <glyph glyph-name="uniF3C0.var.accented" unicode="&#xf3c0;`" horiz-adv-x="490" 
d="M126 232v70h224c-9 107 -74 162 -171 162c-51 0 -93 -14 -117 -27l-20 66c36 19 90 31 145 31c142 0 247 -75 247 -271c0 -199 -123 -272 -263 -272c-56 0 -102 10 -131 22l22 71c25 -12 68 -23 114 -23c85 0 168 47 175 171h-225zM49 683c0 29 20 50 49 50
c28 0 47 -21 47 -50c0 -28 -19 -48 -47 -48c-29 0 -49 20 -49 48zM278 683c0 29 19 50 47 50c29 0 49 -21 49 -50c0 -28 -20 -48 -49 -48c-28 0 -47 20 -47 48zM140 617l58 144h75v-21l-96 -123h-37z" />
    <glyph glyph-name="uniF3C1.var.accented" unicode="&#xf3c1;`" horiz-adv-x="455" 
d="M101 525l131 -257l21 -70h4l15 72l99 255h83s-141 -348 -143 -352c-54 -128 -80 -177 -157 -177c-36 0 -57 5 -76 17l24 69c19 -10 35 -12 51 -12c29 0 47 22 61 70l-207 385h94zM89 604v62h296v-62h-296zM189 706l59 149h89v-21l-101 -128h-47z" />
    <glyph glyph-name="uniF3C2.var.accented" unicode="&#xf3c2;`" horiz-adv-x="455" 
d="M101 525l131 -257l21 -70h4l15 72l99 255h83s-141 -348 -143 -352c-54 -128 -80 -177 -157 -177c-36 0 -57 5 -76 17l24 69c19 -10 35 -12 51 -12c29 0 47 22 61 70l-207 385h94zM82 683c0 29 20 50 49 50c28 0 47 -21 47 -50c0 -28 -19 -48 -47 -48c-29 0 -49 20 -49 48
zM311 683c0 29 19 50 47 50c29 0 49 -21 49 -50c0 -28 -20 -48 -49 -48c-28 0 -47 20 -47 48zM173 617l58 144h75v-21l-96 -123h-37z" />
    <glyph glyph-name="uniF3C3.var.accented" unicode="&#xf3c3;`" horiz-adv-x="455" 
d="M101 525l131 -257l21 -70h4l15 72l99 255h83s-141 -348 -143 -352c-54 -128 -80 -177 -157 -177c-36 0 -57 5 -76 17l24 69c19 -10 35 -12 51 -12c29 0 47 22 61 70l-207 385h94zM122 596l15 129h77v-16l-51 -113h-41zM265 596l103 129h85v-16l-144 -113h-44zM220 647
l60 148h85v-19l-99 -129h-46z" />
    <glyph glyph-name="uniF3C6.var.accented" unicode="&#xf3c6;`" horiz-adv-x="674" 
d="M506 0v525h83v-525h-83zM85 5v520h83v-196c12 2 43 6 67 6c103 0 198 -34 198 -163c0 -121 -84 -179 -216 -179c-29 0 -88 1 -132 12zM225 63c71 0 120 35 120 105c0 76 -55 97 -123 97c-17 0 -43 -4 -54 -7v-190c13 -3 33 -5 57 -5zM168 683c0 29 20 50 49 50
c28 0 47 -21 47 -50c0 -28 -19 -48 -47 -48c-29 0 -49 20 -49 48zM397 683c0 29 19 50 47 50c29 0 49 -21 49 -50c0 -28 -20 -48 -49 -48c-28 0 -47 20 -47 48zM259 617l58 144h75v-21l-96 -123h-37z" />
    <glyph glyph-name="uniF684" unicode="&#xf769;&#xf76a;" horiz-adv-x="534" 
d="M104 0v525h83v-525h-83zM355 149v376h83v-397c0 -79 -37 -137 -122 -137c-23 0 -59 6 -79 15l16 69c13 -6 30 -10 48 -10c45 0 54 33 54 84z" />
    <glyph glyph-name="f_f" unicode="ff" horiz-adv-x="605" 
d="M385 430h-205v-430h-80v430h-78v70h78v28c0 124 37 178 144 178c41 0 67 -4 103 -18l-18 -66c-29 12 -55 14 -78 14c-71 0 -71 -45 -71 -129v-7h205v28c0 124 37 178 144 178c42 0 71 -4 107 -19l-18 -66c-31 13 -58 15 -82 15c-71 0 -71 -45 -71 -129v-7h134v-70h-134
v-430h-80v430z" />
    <glyph glyph-name="fi" unicode="fi" horiz-adv-x="540" 
d="M180 500h282v-500h-80v430h-202v-430h-80v430h-78v70h78v28c0 124 64 179 183 179c78 0 142 -18 177 -39l-27 -64c-36 23 -87 33 -143 33c-98 0 -110 -48 -110 -137z" />
    <glyph glyph-name="fl" unicode="fl" horiz-adv-x="583" 
d="M376 100v534c-20 4 -62 8 -98 8c-91 0 -98 -53 -98 -142h103v-70h-103v-430h-80v430h-78v70h78v28c0 124 50 184 176 184c53 0 142 -8 180 -18v-571c0 -47 18 -65 46 -65c18 0 38 2 63 11l8 -63c-21 -11 -66 -18 -93 -18c-60 0 -104 31 -104 112z" />
    <glyph glyph-name="f_f_i" unicode="ffi" horiz-adv-x="824" 
d="M384 430h-204v-430h-80v430h-78v70h78v28c0 124 37 178 144 178c41 0 67 -4 103 -18l-18 -66c-29 12 -55 14 -78 14c-71 0 -71 -45 -71 -129v-7h204v28c0 124 64 179 183 179c79 0 142 -18 177 -39l-27 -64c-36 23 -87 33 -143 33c-98 0 -110 -48 -110 -137h284v-500h-80
v430h-204v-430h-80v430z" />
    <glyph glyph-name="f_f_l" unicode="ffl" horiz-adv-x="868" 
d="M385 430h-205v-430h-80v430h-78v70h78v28c0 124 37 178 144 178c41 0 67 -4 103 -18l-18 -66c-29 12 -55 14 -78 14c-71 0 -71 -45 -71 -129v-7h205v28c0 124 50 184 177 184c53 0 142 -8 180 -18v-571c0 -47 17 -65 46 -65c17 0 37 2 62 11l9 -63
c-21 -11 -67 -18 -94 -18c-60 0 -103 31 -103 112v534c-20 4 -63 8 -99 8c-91 0 -98 -53 -98 -142h103v-70h-103v-430h-80v430z" />
    <glyph glyph-name=".notdef" horiz-adv-x="750" 
d="M50 0v700h650v-700h-650zM620 570l-50 50l-195 -217l-195 217l-50 -50l197 -220l-197 -220l50 -50l195 217l195 -217l50 50l-198 220zM129 63v-36h8v12h4c8 0 16 3 16 12c0 11 -9 12 -17 12h-11zM137 57h4c5 0 8 -2 8 -5c0 -6 -4 -6 -9 -6h-3v11zM189 57v6h-31v-6h12v-30
h7v30h12zM222 37c0 -3 -2 -4 -7 -4c-3 0 -5 0 -9 2l-3 -7c4 -1 7 -2 13 -2c9 0 14 4 14 12c0 12 -18 9 -18 16c0 2 2 3 6 3c3 0 6 -1 9 -2l2 7c-4 1 -8 2 -11 2c-9 0 -14 -4 -14 -11c0 -12 18 -11 18 -16zM235 52l2 -5c3 1 6 2 9 2s5 -1 5 -4v-2c-1 0 -2 1 -5 1
c-8 0 -12 -3 -12 -10c0 -5 3 -8 8 -8c4 0 7 2 9 5l2 -4h6c-1 1 -1 4 -1 7v11c0 7 -3 10 -10 10c-5 0 -10 -2 -13 -3zM245 32c-3 0 -4 1 -4 4s2 4 5 4s4 -1 5 -1v-3c-1 -3 -3 -4 -6 -4zM284 27h8v16c0 8 -3 12 -9 12c-5 0 -8 -2 -10 -5l-2 4h-5v-27h7v17c1 3 3 4 6 4
s5 -2 5 -6v-15zM299 34l-2 -6c3 -1 6 -2 10 -2c7 0 11 3 11 9c0 7 -4 7 -8 9c-3 1 -5 2 -5 3s1 2 3 2c3 0 5 -1 8 -2l2 6c-3 1 -6 2 -10 2c-7 0 -10 -3 -10 -9c0 -7 6 -8 8 -9c3 -1 5 -1 5 -3c0 -1 -1 -2 -3 -2c-3 0 -6 1 -9 2zM338 42c0 -14 7 -21 20 -21s20 7 20 21
c0 13 -7 20 -20 20c-11 0 -20 -8 -20 -20zM344 42c0 10 5 15 14 15s14 -5 14 -15s-5 -15 -14 -15s-14 5 -14 15zM365 33l-1 5c-2 -1 -3 -1 -4 -1c-3 0 -4 2 -4 5s1 4 4 4h3l2 4c-3 2 -5 2 -7 2c-6 0 -9 -3 -9 -10s3 -11 9 -11c3 0 6 1 7 2zM399 63v-36h8v12h4
c8 0 16 3 16 12c0 11 -9 12 -17 12h-11zM407 57h4c5 0 8 -2 8 -5c0 -7 -4 -6 -9 -6h-3v11zM430 52l2 -5c3 1 6 2 9 2s5 -1 5 -4v-2c-1 0 -2 1 -5 1c-9 0 -13 -3 -13 -10c0 -5 3 -8 9 -8c4 0 7 2 9 5l2 -4h6c-1 1 -1 4 -1 7v11c0 7 -3 10 -10 10c-5 0 -10 -2 -13 -3zM440 32
c-3 0 -4 1 -4 4s2 4 5 4s4 -1 5 -1v-3c-1 -3 -3 -4 -6 -4zM477 47l1 7c-1 1 -2 1 -4 1c-3 0 -5 -2 -6 -5h-1l-1 4h-6v-27h8v17c0 3 2 4 6 4c2 0 3 -1 3 -1zM482 52l1 -5c4 1 7 2 9 2c3 0 5 -1 5 -4v-2c-1 0 -2 1 -5 1c-9 0 -13 -3 -13 -10c0 -5 3 -8 9 -8c5 0 8 2 9 5h1
l1 -4h6c-1 1 -1 4 -1 7v11c0 7 -3 10 -10 10c-5 0 -9 -2 -12 -3zM491 32c-3 0 -4 1 -4 4s2 4 5 4s4 -1 5 -1v-3c-1 -3 -3 -4 -6 -4zM533 57v6h-31v-6h12v-30h7v30h12zM547 39l-6 15h-8l12 -27c-1 -3 -2 -5 -5 -5l-1 1l-2 -6c1 -1 3 -1 5 -1c3 0 7 4 10 13l10 25h-8l-5 -15
v-5h-1zM565 54v-38h8v12c1 -1 2 -2 5 -2c9 0 14 5 14 15c0 9 -4 14 -11 14c-3 0 -6 -1 -9 -4h-1l-1 3h-5zM579 49c3 0 5 -3 5 -8c0 -6 -2 -9 -7 -9c-1 0 -3 1 -4 2v10c0 3 2 5 6 5zM621 29l-3 5c-1 -1 -4 -2 -7 -2c-5 0 -7 3 -7 6h18v6c0 8 -5 11 -12 11
c-9 0 -14 -5 -14 -15c0 -9 5 -14 14 -14c4 0 9 2 11 3zM610 49c4 0 6 -2 5 -6h-11c0 4 2 6 6 6z" />
    <glyph glyph-name="space" unicode=" " horiz-adv-x="267" 
 />
    <glyph glyph-name="exclam" unicode="!" horiz-adv-x="305" 
d="M127 353v347h83v-347l-17 -176h-49zM110 46c0 36 23 58 57 58c36 0 59 -22 59 -58c0 -34 -23 -58 -59 -58c-34 0 -57 24 -57 58z" />
    <glyph glyph-name="quotedbl" unicode="&#x22;" horiz-adv-x="335" 
d="M207 507v193h78l-31 -193h-47zM90 507v193h78l-31 -193h-47z" />
    <glyph glyph-name="numbersign" unicode="#" 
d="M241 58l39 167h-105l-39 -167h-69l39 167h-78l14 64h79l31 131h-74l14 64h75l38 158h69l-38 -158h105l38 158h69l-38 -158h77l-16 -64h-76l-31 -131h73l-16 -64h-72l-39 -167h-69zM221 420l-31 -131h105l31 131h-105z" />
    <glyph glyph-name="dollar" unicode="$" 
d="M242 -100v88c-73 1 -132 14 -166 32l27 73c27 -16 73 -30 139 -33v270c-81 40 -163 86 -163 204c0 96 54 161 163 175v91h68v-88c68 -2 108 -13 142 -29l-24 -70c-27 13 -62 24 -118 27v-247c84 -43 172 -92 172 -208c0 -103 -60 -175 -172 -193v-92h-68zM399 178
c0 64 -47 98 -105 127v-243c61 10 105 47 105 116zM162 539c0 -57 42 -90 96 -119v219c-71 -8 -96 -52 -96 -100z" />
    <glyph glyph-name="percent" unicode="%" horiz-adv-x="773" 
d="M70 542c0 120 67 170 155 170s155 -45 155 -170s-67 -170 -155 -170s-155 45 -155 170zM144 542c0 -80 31 -112 81 -112s81 25 81 112s-31 112 -81 112s-81 -25 -81 -112zM427 170c0 120 67 170 155 170s155 -45 155 -170s-67 -170 -155 -170s-155 45 -155 170zM501 170
c0 -80 31 -112 81 -112s81 25 81 112s-31 112 -81 112s-81 -25 -81 -112zM123 27l514 686l49 -38l-513 -687z" />
    <glyph glyph-name="ampersand" unicode="&#x26;" horiz-adv-x="814" 
d="M118 187c0 108 82 193 170 247c-32 48 -59 95 -59 150c0 64 41 128 145 128c110 0 146 -61 146 -119c0 -55 -42 -118 -135 -172c44 -76 116 -166 182 -234c30 33 60 101 78 154l62 -29c-16 -46 -63 -133 -95 -173c57 -53 87 -74 125 -95l-50 -56c-34 17 -76 49 -121 93
c-47 -47 -114 -93 -219 -93c-124 0 -229 71 -229 199zM519 131c-76 78 -155 187 -194 252c-72 -54 -127 -110 -127 -194c0 -83 76 -131 161 -131c66 0 130 36 160 73zM307 584c0 -40 19 -79 45 -118c70 45 94 83 94 111c0 42 -18 72 -69 72c-48 0 -70 -26 -70 -65z" />
    <glyph glyph-name="quotesingle" unicode="'" horiz-adv-x="218" 
d="M90 507v193h78l-31 -193h-47z" />
    <glyph glyph-name="parenleft" unicode="(" horiz-adv-x="280" 
d="M278 -183l-51 -37c-123 128 -167 314 -167 463c0 147 44 332 170 469l48 -35c-107 -135 -138 -297 -138 -434c0 -129 39 -309 138 -426z" />
    <glyph glyph-name="parenright" unicode=")" horiz-adv-x="280" 
d="M2 675l51 37c123 -128 167 -314 167 -463c0 -147 -44 -332 -170 -469l-48 35c108 137 138 297 138 434c0 129 -40 308 -138 426z" />
    <glyph glyph-name="asterisk" unicode="*" horiz-adv-x="351" 
d="M81 687l49 28l25 -42l18 -56l21 57l24 40l48 -26l-26 -43l-46 -48l68 12h48v-56h-46l-64 12l46 -48l23 -39l-47 -28l-26 42l-23 61l-19 -58l-25 -42l-50 28l27 42l42 42l-58 -12h-50v56h50l62 -12l-45 44z" />
    <glyph glyph-name="plus" unicode="+" horiz-adv-x="505" 
d="M40 302v72h176v181h72v-181h176v-72h-176v-181h-72v181h-176z" />
    <glyph glyph-name="comma" unicode="," horiz-adv-x="225" 
d="M49 43c0 32 24 54 57 54c41 0 70 -30 70 -86c0 -95 -59 -144 -109 -160l-25 39c48 18 71 63 71 103c-6 -2 -11 -3 -17 -3c-26 0 -47 19 -47 53z" />
    <glyph glyph-name="hyphen" unicode="-" horiz-adv-x="360" 
d="M59 251v74h242v-74h-242z" />
    <glyph glyph-name="period" unicode="." horiz-adv-x="214" 
d="M49 46c0 36 23 58 57 58c36 0 59 -22 59 -58c0 -34 -23 -58 -59 -58c-34 0 -57 24 -57 58z" />
    <glyph glyph-name="slash" unicode="/" horiz-adv-x="354" 
d="M-37 -112l365 824l63 -28l-365 -824z" />
    <glyph glyph-name="zero" unicode="0" 
d="M43 350c0 239 80 362 229 362c160 0 230 -120 230 -362c0 -239 -80 -362 -230 -362c-159 0 -229 133 -229 362zM126 350c0 -172 44 -292 146 -292c101 0 147 92 147 292c0 172 -37 292 -147 292c-100 0 -146 -93 -146 -292z" />
    <glyph glyph-name="one" unicode="1" 
d="M108 0v74h140v484l10 59l-40 -47l-110 -79l-38 51l220 170h36v-638h137v-74h-355z" />
    <glyph glyph-name="two" unicode="2" 
d="M446 541c0 -140 -116 -303 -219 -431l-49 -43v-4l64 11h218v-74h-398v29c88 91 301 330 301 499c0 65 -38 114 -113 114c-51 0 -101 -24 -136 -51l-33 57c47 40 113 64 186 64c114 0 179 -71 179 -171z" />
    <glyph glyph-name="three" unicode="3" 
d="M234 58c92 0 158 59 158 145c0 93 -59 138 -156 138h-74v29l144 222l46 44l-65 -10h-198v74h357v-29l-159 -239l-35 -29v-2l34 7c106 -2 186 -76 186 -195c0 -145 -108 -225 -240 -225c-59 0 -108 10 -144 25l21 71c31 -15 73 -26 125 -26z" />
    <glyph glyph-name="four" unicode="4" 
d="M524 285v-70h-118v-215h-78v215h-308v33l332 463h54v-426h118zM328 285v218l10 82h-3l-35 -68l-141 -191l-48 -49l70 8h147z" />
    <glyph glyph-name="five" unicode="5" 
d="M213 58c92 0 159 55 159 156c0 97 -63 145 -167 145l-84 -5v346h312v-74h-237v-199l43 2c131 -1 213 -76 213 -210c0 -150 -108 -231 -241 -231c-59 0 -98 7 -134 20l21 67c31 -12 63 -17 115 -17z" />
    <glyph glyph-name="six" unicode="6" 
d="M492 211c0 -122 -76 -223 -213 -223c-132 0 -219 88 -219 247c0 265 144 451 336 477l17 -64c-148 -26 -248 -159 -269 -304c21 36 74 72 147 72c125 0 201 -76 201 -205zM409 203c0 94 -43 143 -135 143c-65 0 -115 -38 -134 -78c-2 -18 -2 -29 -2 -43
c0 -83 46 -167 142 -167c77 0 129 62 129 145z" />
    <glyph glyph-name="seven" unicode="7" 
d="M191 0h-81l251 586l44 49l-59 -9h-285v74h418v-27z" />
    <glyph glyph-name="eight" unicode="8" 
d="M68 167c0 84 43 143 136 194c-66 39 -120 86 -120 176c0 103 75 175 194 175c112 0 183 -66 183 -159c0 -76 -32 -131 -112 -186c70 -41 128 -91 128 -185c0 -114 -76 -194 -210 -194c-127 0 -199 79 -199 179zM399 177c0 79 -69 118 -140 156
c-81 -45 -113 -105 -113 -156c0 -65 43 -119 126 -119c67 0 127 38 127 119zM162 539c0 -74 63 -111 133 -147c59 46 88 90 88 144c0 68 -49 106 -107 106c-72 0 -114 -50 -114 -103z" />
    <glyph glyph-name="nine" unicode="9" 
d="M52 488c0 129 74 224 217 224c135 0 216 -93 216 -252c0 -300 -145 -449 -336 -472l-18 64c156 24 247 138 268 289c-36 -43 -74 -57 -145 -57c-109 0 -202 74 -202 204zM135 496c0 -94 55 -142 136 -142c65 0 114 24 134 58c2 17 2 30 2 44c0 96 -43 186 -143 186
c-81 0 -129 -54 -129 -146z" />
    <glyph glyph-name="colon" unicode=":" horiz-adv-x="219" 
d="M91 449c0 36 23 58 57 58c36 0 59 -22 59 -58c0 -34 -23 -58 -59 -58c-34 0 -57 24 -57 58zM91 46c0 36 23 58 57 58c36 0 59 -22 59 -58c0 -34 -23 -58 -59 -58c-34 0 -57 24 -57 58z" />
    <glyph glyph-name="semicolon" unicode=";" horiz-adv-x="256" 
d="M89 43c0 32 24 54 57 54c41 0 70 -30 70 -86c0 -95 -59 -144 -109 -160l-25 39c48 18 71 63 71 103c-6 -2 -11 -3 -17 -3c-26 0 -47 19 -47 53zM96 449c0 36 23 58 57 58c36 0 59 -22 59 -58c0 -34 -23 -58 -59 -58c-34 0 -57 24 -57 58z" />
    <glyph glyph-name="less" unicode="&#x3c;" horiz-adv-x="505" 
d="M425 84l-383 221v29l378 231l38 -62l-237 -145l-91 -38l90 -32l243 -144z" />
    <glyph glyph-name="equal" unicode="=" horiz-adv-x="505" 
d="M40 385v72h424v-72h-424zM40 219v72h424v-72h-424z" />
    <glyph glyph-name="greater" unicode="&#x3e;" horiz-adv-x="505" 
d="M80 565l383 -221v-29l-378 -231l-38 61l237 145l91 38l-90 32l-243 144z" />
    <glyph glyph-name="question" unicode="?" horiz-adv-x="436" 
d="M216 177h-66c-1 7 -1 15 -1 22c0 169 167 203 167 339c0 61 -32 104 -115 104c-48 0 -101 -20 -137 -42l-27 62c50 31 102 50 184 50c118 0 178 -71 178 -163c0 -180 -183 -205 -183 -372zM130 46c0 36 23 58 57 58c36 0 59 -22 59 -58c0 -34 -23 -58 -59 -58
c-34 0 -57 24 -57 58z" />
    <glyph glyph-name="at" unicode="@" horiz-adv-x="1064" 
d="M673 460l34 31h34l-51 -287c-6 -35 -10 -62 -10 -83c0 -33 10 -48 38 -48c91 0 186 99 186 253c0 205 -147 318 -354 318c-217 0 -390 -168 -390 -401c0 -238 154 -375 386 -375c39 0 93 10 133 28l20 -64c-59 -25 -107 -32 -165 -32c-248 0 -447 151 -447 436
c0 291 214 476 468 476c239 0 422 -144 422 -386c0 -171 -126 -322 -275 -322c-56 0 -92 20 -92 85c0 12 1 26 4 42h-4c-38 -61 -103 -127 -181 -127c-65 0 -119 59 -119 151c0 172 120 343 261 343c49 0 74 -17 102 -38zM620 230l30 163c-22 26 -42 35 -77 35
c-104 0 -185 -139 -185 -260c0 -52 18 -94 74 -94c53 0 119 79 158 156z" />
    <glyph glyph-name="A" unicode="A" horiz-adv-x="585" 
d="M490 0l-72 194h-258l-70 -194h-82l265 711h38l266 -711h-87zM264 477l-77 -211h206l-78 213l-25 106h-1z" />
    <glyph glyph-name="B" unicode="B" horiz-adv-x="584" 
d="M507 540c0 -67 -41 -142 -132 -165v-4c79 -14 153 -62 153 -172c0 -145 -130 -207 -261 -207c-45 0 -130 0 -182 13v689c49 8 116 14 193 14c103 0 229 -28 229 -168zM275 64c86 0 165 42 165 129c0 109 -97 129 -185 129h-87v-251c18 -4 74 -7 107 -7zM168 392h52
c23 0 60 1 81 4c63 21 118 62 118 127c0 89 -73 113 -149 113c-44 0 -83 -2 -102 -6v-238z" />
    <glyph glyph-name="C" unicode="C" horiz-adv-x="571" 
d="M513 94l20 -65c-40 -31 -105 -41 -174 -41c-167 0 -303 111 -303 362c0 261 156 362 304 362c79 0 127 -10 163 -24l-20 -73c-31 15 -78 23 -137 23c-110 0 -222 -74 -222 -288c0 -192 102 -288 234 -288c59 0 104 13 135 32z" />
    <glyph glyph-name="D" unicode="D" horiz-adv-x="654" 
d="M85 -1v701c50 7 132 8 187 8c225 0 326 -145 326 -353c0 -188 -93 -364 -336 -364c-42 0 -150 4 -177 8zM274 634c-34 0 -87 -1 -106 -5v-560c14 -2 82 -4 96 -4c188 0 246 140 246 290c0 130 -53 279 -236 279z" />
    <glyph glyph-name="E" unicode="E" horiz-adv-x="536" 
d="M85 0v700h381v-74h-298v-229h273v-74h-273v-249h303v-74h-386z" />
    <glyph glyph-name="F" unicode="F" horiz-adv-x="517" 
d="M85 0v700h381v-74h-298v-239h278v-74h-278v-313h-83z" />
    <glyph glyph-name="G" unicode="G" horiz-adv-x="612" 
d="M321 302v47h235v-308c-43 -33 -123 -53 -193 -53c-178 0 -307 113 -307 362c0 259 164 362 314 362c79 0 129 -10 165 -24l-21 -73c-31 15 -78 23 -137 23c-111 0 -233 -72 -233 -288c0 -197 95 -288 232 -288c42 0 80 9 109 25v195z" />
    <glyph glyph-name="H" unicode="H" horiz-adv-x="672" 
d="M504 0v321h-336v-321h-83v700h83v-305h336v305h83v-700h-83z" />
    <glyph glyph-name="I" unicode="I" horiz-adv-x="291" 
d="M104 0v700h83v-700h-83z" />
    <glyph glyph-name="J" unicode="J" horiz-adv-x="291" 
d="M112 174v526h83v-546c0 -106 -48 -164 -143 -164c-22 0 -66 6 -86 16l16 71c17 -8 38 -13 61 -13c56 0 69 42 69 110z" />
    <glyph glyph-name="K" unicode="K" horiz-adv-x="610" 
d="M470 0l-255 324h-47v-324h-83v700h83v-326l45 14l235 312h96l-234 -301l-42 -33l51 -40l256 -326h-105z" />
    <glyph glyph-name="L" unicode="L" horiz-adv-x="517" 
d="M499 74v-74h-414v700h83v-626h331z" />
    <glyph glyph-name="M" unicode="M" horiz-adv-x="791" 
d="M623 0v470l10 105h-5l-38 -96l-182 -316h-25l-193 317l-36 95h-5l14 -104v-471h-78v700h62l219 -358l33 -78h2l31 80l209 356h65v-700h-83z" />
    <glyph glyph-name="N" unicode="N" horiz-adv-x="673" 
d="M544 -11l-333 469l-54 101h-4l10 -101v-458h-78v711h44l335 -467l52 -96h5l-11 96v456h78v-711h-44z" />
    <glyph glyph-name="O" unicode="O" horiz-adv-x="684" 
d="M56 350c0 232 104 362 285 362c197 0 287 -144 287 -362c0 -232 -104 -362 -287 -362c-195 0 -285 144 -285 362zM144 350c0 -154 60 -288 197 -288c124 0 199 92 199 288c0 153 -60 288 -199 288c-122 0 -197 -93 -197 -288z" />
    <glyph glyph-name="P" unicode="P" horiz-adv-x="559" 
d="M85 0v693c50 12 112 15 169 15c123 0 268 -41 268 -215c0 -170 -134 -231 -272 -231c-13 0 -68 1 -82 4v-266h-83zM256 636c-34 0 -69 -1 -88 -6v-290c14 -4 64 -4 78 -4c91 0 188 28 188 157c0 110 -92 143 -178 143z" />
    <glyph glyph-name="Q" unicode="Q" horiz-adv-x="684" 
d="M704 -99v-72c-32 -9 -63 -12 -93 -12c-133 0 -254 67 -353 67c-16 0 -31 -2 -46 -6v73c18 4 36 7 54 7c111 0 219 -67 351 -67c28 0 57 3 87 10zM56 350c0 232 104 362 285 362c197 0 287 -144 287 -362c0 -232 -104 -362 -287 -362c-195 0 -285 144 -285 362zM144 350
c0 -154 60 -288 197 -288c124 0 199 92 199 288c0 153 -60 288 -199 288c-122 0 -197 -93 -197 -288z" />
    <glyph glyph-name="R" unicode="R" horiz-adv-x="595" 
d="M85 0v693c51 10 123 15 178 15c122 0 230 -51 230 -193c0 -109 -67 -179 -159 -201l48 -37l174 -277h-97l-193 302l-98 15v-317h-83zM265 636c-34 0 -78 -1 -97 -6v-258h78c92 0 159 44 159 140c0 71 -53 124 -140 124z" />
    <glyph glyph-name="S" unicode="S" horiz-adv-x="531" 
d="M401 178c0 168 -338 124 -338 356c0 109 80 178 219 178c81 0 152 -14 189 -32l-25 -73c-31 15 -94 31 -168 31c-88 0 -132 -46 -132 -99c0 -155 338 -133 338 -354c0 -119 -89 -197 -238 -197c-100 0 -164 18 -200 37l28 75c30 -17 95 -38 169 -38c88 0 158 35 158 116z
" />
    <glyph glyph-name="T" unicode="T" horiz-adv-x="555" 
d="M537 700v-74h-218v-626h-83v626h-218v74h519z" />
    <glyph glyph-name="U" unicode="U" horiz-adv-x="652" 
d="M487 256v444h80v-467c0 -169 -92 -242 -232 -242c-164 0 -250 75 -250 226v483h83v-444c0 -142 56 -191 168 -191c107 0 151 56 151 191z" />
    <glyph glyph-name="V" unicode="V" horiz-adv-x="568" 
d="M89 700l178 -481l24 -106h1l26 108l169 479h83l-265 -711h-37l-270 711h91z" />
    <glyph glyph-name="W" unicode="W" horiz-adv-x="828" 
d="M96 700l126 -469l16 -116h1l17 118l144 467h40l145 -469l17 -116h1l18 118l118 467h81l-195 -711h-46l-142 469l-18 106h-5l-18 -107l-142 -468h-46l-200 711h88z" />
    <glyph glyph-name="X" unicode="X" horiz-adv-x="618" 
d="M26 0l233 356l-213 344h100l142 -237l25 -57l24 57l150 237h92l-220 -337l230 -363h-97l-158 251l-27 60l-26 -60l-162 -251h-93z" />
    <glyph glyph-name="Y" unicode="Y" horiz-adv-x="558" 
d="M239 0v278l-231 422h97l164 -306l17 -61h1l18 63l157 304h89l-229 -421v-279h-83z" />
    <glyph glyph-name="Z" unicode="Z" 
d="M38 0v75l353 511l42 40h-395v74h470v-75l-355 -514l-42 -37h397v-74h-470z" />
    <glyph glyph-name="bracketleft" unicode="[" horiz-adv-x="304" 
d="M85 -230v930h181v-70h-103v-790h103v-70h-181z" />
    <glyph glyph-name="backslash" unicode="\" horiz-adv-x="380" 
d="M30 712l369 -823l-66 -29l-370 824z" />
    <glyph glyph-name="bracketright" unicode="]" horiz-adv-x="304" 
d="M220 700v-930h-182v70h104v790h-104v70h182z" />
    <glyph glyph-name="asciicircum" unicode="^" horiz-adv-x="500" 
d="M48 435l186 276h29l169 -276h-82l-80 135l-23 69l-31 -70l-92 -134h-76z" />
    <glyph glyph-name="underscore" unicode="_" horiz-adv-x="408" 
d="M0 -205v70h408v-70h-408z" />
    <glyph glyph-name="grave" unicode="`" horiz-adv-x="280" 
d="M155 720l65 -149h-45l-115 128v21h95z" />
    <glyph glyph-name="a" unicode="a" horiz-adv-x="496" 
d="M94 404l-25 59c50 30 121 45 194 45c139 0 159 -83 159 -154c0 -80 -6 -157 -6 -225c0 -49 3 -94 14 -131h-59l-21 70h-5c-24 -36 -71 -76 -156 -76s-150 55 -150 142c0 117 101 153 247 153c18 0 36 0 55 -2c2 20 3 38 3 54c0 74 -24 99 -102 99
c-44 0 -111 -13 -148 -34zM211 62c76 0 116 44 130 79v83c-19 1 -38 2 -57 2c-83 0 -162 -17 -162 -84c0 -47 37 -80 89 -80z" />
    <glyph glyph-name="b" unicode="b" horiz-adv-x="540" 
d="M77 29v671h80v-249h4c30 39 80 61 136 61c129 0 194 -82 194 -254c0 -174 -90 -267 -244 -267c-74 0 -140 19 -170 38zM283 442c-66 0 -107 -39 -126 -107v-253c25 -14 63 -21 102 -21c91 0 149 62 149 198c0 105 -35 183 -125 183z" />
    <glyph glyph-name="c" unicode="c" horiz-adv-x="451" 
d="M392 94l26 -61c-40 -29 -97 -45 -157 -45c-154 0 -212 104 -212 262c0 168 78 262 217 262c64 0 106 -10 142 -29l-23 -69c-31 17 -69 28 -111 28c-95 0 -142 -63 -142 -192c0 -101 38 -192 149 -192c48 0 87 17 111 36z" />
    <glyph glyph-name="d" unicode="d" horiz-adv-x="538" 
d="M461 700v-528c0 -68 0 -121 10 -174h-54l-20 71h-4c-26 -46 -80 -81 -147 -81c-133 0 -197 83 -197 260c0 169 87 261 227 261c49 0 72 -5 105 -17v208h80zM259 58c68 0 107 35 122 107v249c-24 18 -52 25 -102 25c-91 0 -147 -59 -147 -191c0 -110 33 -190 127 -190z
" />
    <glyph glyph-name="e" unicode="e" horiz-adv-x="508" 
d="M412 98l30 -58c-40 -32 -104 -52 -172 -52c-153 0 -221 103 -221 262c0 169 80 262 220 262c91 0 190 -30 190 -197c0 -22 -2 -46 -6 -73h-321c1 -116 43 -184 161 -184c45 0 96 19 119 40zM270 442c-78 0 -128 -38 -137 -137h248c0 101 -41 137 -111 137z" />
    <glyph glyph-name="f" unicode="f" horiz-adv-x="319" 
d="M22 430v70h78v28c0 124 37 178 143 178c42 0 72 -4 108 -19l-18 -66c-31 13 -58 15 -82 15c-69 0 -71 -42 -71 -122v-14h133v-70h-133v-430h-80v430h-78z" />
    <glyph glyph-name="g" unicode="g" horiz-adv-x="537" 
d="M460 479v-502c0 -128 -70 -189 -204 -189c-79 0 -124 11 -159 27l21 67c31 -12 65 -24 124 -24c111 0 139 41 139 143v48h-4c-27 -39 -66 -60 -132 -60c-134 0 -196 83 -196 259c0 170 83 261 241 261c75 0 127 -14 170 -30zM259 59c68 0 105 34 121 105v257
c-25 12 -59 18 -102 18c-90 0 -146 -60 -146 -190c0 -112 34 -190 127 -190z" />
    <glyph glyph-name="h" unicode="h" horiz-adv-x="547" 
d="M478 0h-80v285c0 104 -20 157 -107 157c-62 0 -120 -45 -134 -109v-333h-80v700h80v-256h4c35 41 82 68 153 68c113 0 164 -45 164 -210v-302z" />
    <glyph glyph-name="i" unicode="i" horiz-adv-x="268" 
d="M94 0v500h80v-500h-80zM77 652c0 30 23 56 55 56s58 -26 58 -56s-26 -53 -58 -53s-55 23 -55 53z" />
    <glyph glyph-name="j" unicode="j" horiz-adv-x="267" 
d="M93 3v497h80v-527c0 -123 -41 -185 -134 -185c-10 0 -19 1 -30 2v68c75 0 84 46 84 145zM76 652c0 30 23 56 55 56s58 -26 58 -56s-26 -53 -58 -53s-55 23 -55 53z" />
    <glyph glyph-name="k" unicode="k" horiz-adv-x="479" 
d="M370 0l-167 225h-46v-225h-80v700h80v-426l41 14l155 212h93l-153 -201l-41 -33l50 -40l167 -226h-99z" />
    <glyph glyph-name="l" unicode="l" horiz-adv-x="292" 
d="M166 700v-577c0 -47 17 -65 46 -65c17 0 37 2 62 11l9 -63c-21 -11 -66 -18 -94 -18c-60 0 -103 31 -103 112v600h80z" />
    <glyph glyph-name="m" unicode="m" horiz-adv-x="812" 
d="M450 0h-80v283c0 106 -14 159 -94 159c-61 0 -103 -43 -119 -98v-344h-80v500h56l15 -61h4c36 43 80 73 155 73c63 0 104 -22 126 -83c31 52 88 83 155 83c111 0 155 -45 155 -212v-300h-80v301c0 95 -15 141 -95 141c-66 0 -102 -39 -118 -108v-334z" />
    <glyph glyph-name="n" unicode="n" horiz-adv-x="547" 
d="M478 0h-80v285c0 104 -25 157 -105 157c-70 0 -118 -43 -136 -100v-342h-80v500h56l15 -61h4c32 42 87 73 161 73c109 0 165 -45 165 -210v-302z" />
    <glyph glyph-name="o" unicode="o" horiz-adv-x="536" 
d="M49 250c0 168 79 262 219 262c150 0 219 -104 219 -262c0 -168 -79 -262 -219 -262c-150 0 -219 104 -219 262zM132 250c0 -102 37 -192 136 -192c90 0 136 62 136 192c0 103 -37 192 -136 192c-89 0 -136 -62 -136 -192z" />
    <glyph glyph-name="p" unicode="p" horiz-adv-x="541" 
d="M77 -200v700h55l15 -60h4c30 47 81 72 143 72c133 0 198 -74 198 -252c0 -168 -90 -272 -230 -272c-49 0 -72 6 -105 20v-208h-80zM279 442c-68 0 -106 -35 -122 -107v-249c24 -18 52 -28 102 -28c91 0 150 71 150 203c0 110 -35 181 -130 181z" />
    <glyph glyph-name="q" unicode="q" horiz-adv-x="537" 
d="M460 478v-678h-80v250h-4c-26 -40 -65 -62 -131 -62c-133 0 -196 84 -196 260c0 171 85 261 243 261c70 0 139 -17 168 -31zM259 58c68 0 105 35 121 106v257c-25 13 -59 18 -102 18c-91 0 -146 -61 -146 -190c0 -112 34 -191 127 -191z" />
    <glyph glyph-name="r" unicode="r" horiz-adv-x="340" 
d="M330 500l-17 -77c-21 7 -40 10 -57 10c-57 0 -91 -35 -99 -83v-350h-80v500h56l15 -61h4c25 45 59 71 113 71c19 0 40 -3 65 -10z" />
    <glyph glyph-name="s" unicode="s" horiz-adv-x="421" 
d="M297 136c0 119 -241 63 -241 237c0 95 58 139 155 139c72 0 118 -15 154 -32l-19 -65c-31 15 -76 27 -125 27c-58 0 -85 -18 -85 -67c0 -102 241 -57 241 -236c0 -86 -57 -151 -174 -151c-75 0 -128 17 -164 37l24 67c31 -17 85 -34 135 -34c57 0 99 20 99 78z" />
    <glyph glyph-name="t" unicode="t" horiz-adv-x="339" 
d="M11 430v70h78v99l80 23v-122h136v-70h-136v-277c0 -69 16 -95 57 -95c34 0 55 7 84 19l18 -60c-36 -17 -79 -29 -128 -29c-81 0 -111 43 -111 150v292h-78z" />
    <glyph glyph-name="u" unicode="u" horiz-adv-x="539" 
d="M69 500h80v-285c0 -105 20 -157 98 -157c71 0 113 49 135 108v334h80v-358c0 -48 3 -103 11 -142h-55l-20 79h-5c-30 -52 -82 -91 -161 -91c-107 0 -163 45 -163 210v302z" />
    <glyph glyph-name="v" unicode="v" horiz-adv-x="482" 
d="M101 500l120 -293l28 -95h1l25 97l112 291h86l-213 -511h-34l-217 511h92z" />
    <glyph glyph-name="w" unicode="w" horiz-adv-x="735" 
d="M343 500h58l115 -292l25 -96h2l19 98l89 290h76l-168 -511h-39l-131 330l-19 82h-3l-20 -83l-126 -329h-39l-174 511h87l99 -291l17 -97h1l24 99z" />
    <glyph glyph-name="x" unicode="x" horiz-adv-x="515" 
d="M28 0l180 256l-168 244h98l95 -138l28 -57l29 57l97 138h90l-169 -240l179 -260h-95l-106 152l-30 60l-31 -60l-108 -152h-89z" />
    <glyph glyph-name="y" unicode="y" horiz-adv-x="466" 
d="M104 500l120 -324l28 -96h5l22 97l97 323h81l-148 -449c-44 -131 -85 -256 -173 -256c-24 0 -43 3 -59 10l14 69c8 -3 17 -5 25 -5c37 0 75 35 97 131l-201 500h92z" />
    <glyph glyph-name="z" unicode="z" horiz-adv-x="447" 
d="M42 0v70l231 318l42 42h-273v70h356v-70l-233 -321l-41 -39h274v-70h-356z" />
    <glyph glyph-name="braceleft" unicode="{" horiz-adv-x="346" 
d="M137 -126v238c0 68 -29 88 -80 88v70c51 0 80 26 80 84v242c0 62 31 105 95 105h85v-70h-50c-36 0 -52 -16 -52 -59v-237c0 -58 -33 -89 -70 -95v-6c36 -5 70 -43 70 -99v-236c0 -41 15 -59 53 -59h49v-70h-85c-59 0 -95 36 -95 104z" />
    <glyph glyph-name="bar" unicode="|" horiz-adv-x="238" 
d="M85 -130v830h68v-830h-68z" />
    <glyph glyph-name="braceright" unicode="}" horiz-adv-x="346" 
d="M235 597v-238c0 -68 29 -88 80 -88v-70c-51 0 -80 -26 -80 -84v-242c0 -62 -31 -105 -95 -105h-85v70h50c36 0 52 16 52 59v237c0 58 32 89 69 95v6c-36 5 -69 43 -69 99v236c0 41 -15 59 -52 59h-50v70h86c58 0 94 -36 94 -104z" />
    <glyph glyph-name="asciitilde" unicode="~" horiz-adv-x="505" 
d="M65 301l-34 60c57 44 103 59 142 59c75 0 125 -55 185 -55c25 0 51 10 82 36l34 -61c-51 -35 -91 -47 -124 -47c-72 0 -115 55 -178 55c-30 0 -64 -12 -107 -47z" />
    <glyph glyph-name="uni00A0" unicode="&#xa0;" horiz-adv-x="267" 
 />
    <glyph glyph-name="exclamdown" unicode="&#xa1;" horiz-adv-x="304" 
d="M176 147v-347h-83v347l17 176h49zM77 453c0 36 23 58 57 58c36 0 59 -22 59 -58c0 -34 -23 -58 -59 -58c-34 0 -57 24 -57 58z" />
    <glyph glyph-name="cent" unicode="&#xa2;" 
d="M435 94l26 -61c-32 -23 -74 -37 -120 -42v-91h-71v90c-132 13 -183 113 -183 260c0 152 66 244 183 259v91h71v-89c46 -3 82 -13 111 -28l-23 -68c-26 13 -60 23 -95 26v-383c42 3 79 19 101 36zM170 250c0 -88 28 -168 110 -188v377c-74 -14 -110 -76 -110 -189z" />
    <glyph glyph-name="sterling" unicode="&#xa3;" 
d="M50 313v70h66c-16 36 -28 75 -28 130c0 130 81 199 209 199c81 0 141 -14 180 -32l-26 -71c-30 15 -82 29 -155 29c-79 0 -125 -47 -125 -120c0 -55 16 -95 34 -135h161v-70h-131c10 -30 18 -63 18 -103s-12 -86 -36 -113l-39 -33v-4l62 14h256v-74h-446v72
c85 1 120 67 120 131c0 44 -10 78 -23 110h-97z" />
    <glyph glyph-name="currency" unicode="&#xa4;" 
d="M21 547l49 49l78 -77l21 -35c28 22 63 33 103 33c39 0 75 -12 103 -33l22 35l78 77l49 -49l-77 -78l-35 -22c21 -28 32 -63 32 -102c0 -40 -11 -75 -32 -103l35 -21l77 -78l-49 -48l-78 77l-21 33c-28 -20 -65 -31 -104 -31c-40 0 -75 10 -103 31l-21 -33l-78 -77l-49 48
l77 78l34 22c-20 27 -31 62 -31 102c0 39 12 74 31 103l-34 21zM170 345c0 -60 42 -105 102 -105s103 45 103 105s-43 106 -103 106s-102 -46 -102 -106z" />
    <glyph glyph-name="yen" unicode="&#xa5;" 
d="M111 268v60h94l-203 372h97l164 -306l17 -61h1l18 63l157 304h89l-203 -372h96v-60h-122v-71h122v-60h-122v-137h-83v137h-122v60h122v71h-122z" />
    <glyph glyph-name="brokenbar" unicode="&#xa6;" horiz-adv-x="238" 
d="M85 -130v336h68v-336h-68zM153 700v-336h-68v336h68z" />
    <glyph glyph-name="section" unicode="&#xa7;" horiz-adv-x="497" 
d="M57 353c0 41 23 83 57 113l41 14c-35 21 -61 52 -61 106c0 74 59 126 157 126c72 0 120 -14 156 -31l-19 -67c-32 15 -78 28 -126 28c-60 0 -88 -23 -88 -59c0 -102 266 -54 266 -236c0 -41 -22 -82 -56 -112l-45 -14c36 -21 64 -53 64 -107c0 -83 -69 -126 -158 -126
c-74 0 -119 15 -156 33l20 65c31 -15 75 -28 126 -28c55 0 88 16 88 59c0 103 -266 55 -266 236zM360 345c0 67 -77 80 -150 107c-39 -17 -73 -49 -73 -97c0 -67 75 -80 147 -106c37 17 76 53 76 96z" />
    <glyph glyph-name="dieresis" unicode="&#xa8;" horiz-adv-x="411" 
d="M60 653c0 30 20 51 49 51s49 -21 49 -51c0 -28 -20 -49 -49 -49s-49 21 -49 49zM252 653c0 30 20 51 49 51c30 0 50 -21 50 -51c0 -28 -20 -49 -50 -49c-29 0 -49 21 -49 49z" />
    <glyph glyph-name="copyright" unicode="&#xa9;" horiz-adv-x="806" 
d="M51 290c0 221 159 352 352 352s352 -131 352 -352s-159 -352 -352 -352c-213 0 -352 131 -352 352zM121 290c0 -184 125 -286 282 -286s282 102 282 286s-125 286 -282 286s-282 -102 -282 -286zM498 187l21 -60c-30 -17 -68 -27 -118 -27c-107 0 -166 74 -166 190
c0 121 66 190 166 190c49 0 72 -10 111 -27l-26 -61c-29 14 -57 18 -76 18c-56 0 -95 -28 -95 -120c0 -77 35 -120 103 -120c33 0 58 5 80 17z" />
    <glyph glyph-name="ordfeminine" unicode="&#xaa;" horiz-adv-x="386" 
d="M83 627l-15 50c33 17 91 31 157 31c83 0 108 -36 108 -101c0 -51 -3 -98 -3 -140c0 -32 2 -62 8 -87h-55l-13 46h-4c-17 -22 -46 -50 -104 -50c-69 0 -114 37 -114 95c0 82 84 111 190 111c9 0 18 -1 27 -1c1 8 1 15 1 22c0 36 -13 49 -58 49c-53 0 -100 -12 -125 -25z
M173 432c57 0 81 31 92 55v42c-14 1 -28 1 -42 1c-55 0 -105 -9 -105 -54c0 -26 20 -44 55 -44z" />
    <glyph glyph-name="guillemotleft" unicode="&#xab;" horiz-adv-x="478" 
d="M387 40l-165 219l158 228l53 -42l-97 -144l-48 -41l48 -36l103 -141zM205 38l-166 221l160 230l54 -43l-98 -145l-48 -41l48 -36l104 -142z" />
    <glyph glyph-name="logicalnot" unicode="&#xac;" horiz-adv-x="505" 
d="M41 320v72h424v-192h-72v120h-352z" />
    <glyph glyph-name="uni00AD" unicode="&#xad;" horiz-adv-x="360" 
d="M58 251v74h244v-74h-244z" />
    <glyph glyph-name="registered" unicode="&#xae;" horiz-adv-x="700" 
d="M85 451c0 171 121 265 265 265c148 0 265 -94 265 -265s-121 -265 -265 -265c-148 0 -265 94 -265 265zM148 451c0 -138 92 -206 202 -206c116 0 202 66 202 206c0 138 -91 206 -202 206c-117 0 -202 -68 -202 -206zM247 322v259c21 6 66 10 100 10c56 0 102 -21 102 -78
c0 -42 -31 -66 -71 -68l28 -14l74 -109h-61l-72 104l-48 15v-119h-52zM336 546c-14 0 -29 0 -37 -4v-71h34c39 0 61 11 61 40c0 22 -21 35 -58 35z" />
    <glyph glyph-name="macron" unicode="&#xaf;" horiz-adv-x="416" 
d="M60 581v62h296v-62h-296z" />
    <glyph glyph-name="degree" unicode="&#xb0;" horiz-adv-x="425" 
d="M85 571c0 83 63 141 141 141s141 -53 141 -141s-63 -141 -141 -141s-141 53 -141 141zM148 571c0 -50 37 -81 78 -81s78 31 78 81s-37 81 -78 81s-78 -31 -78 -81z" />
    <glyph glyph-name="plusminus" unicode="&#xb1;" horiz-adv-x="505" 
d="M40 421v72h176v181h72v-181h176v-72h-176v-120h-72v120h-176zM40 178v72h424v-72h-424z" />
    <glyph glyph-name="twosuperior" unicode="&#xb2;" horiz-adv-x="394" 
d="M319 690c0 -82 -59 -153 -131 -228l-46 -32v-2l57 15h140v-63h-291v33c62 51 201 180 201 268c0 41 -30 62 -69 62c-36 0 -72 -15 -97 -31l-22 57c34 24 83 38 131 38c83 0 127 -44 127 -117z" />
    <glyph glyph-name="threesuperior" unicode="&#xb3;" horiz-adv-x="394" 
d="M168 433c64 0 100 26 100 75c0 43 -30 72 -98 72h-55v23l97 116l34 27l-49 -6h-130v60h256v-33l-103 -123l-25 -18v-2l23 3c74 -1 120 -48 120 -119c0 -81 -65 -135 -164 -135c-48 0 -81 10 -108 19l15 60c22 -10 52 -19 87 -19z" />
    <glyph glyph-name="acute" unicode="&#xb4;" horiz-adv-x="268" 
d="M60 571l59 149h89v-21l-101 -128h-47z" />
    <glyph glyph-name="mu" unicode="&#xb5;" horiz-adv-x="552" 
d="M68 500h80v-283c0 -105 29 -159 110 -159c73 0 126 48 146 118v324h80v-337c0 -54 2 -111 15 -163h-55l-28 74h-4c-27 -46 -84 -86 -163 -86c-64 0 -93 21 -117 50h-5l21 -105v-133h-80v700z" />
    <glyph glyph-name="mu" unicode="&#x3bc;" horiz-adv-x="552" 
d="M68 500h80v-283c0 -105 29 -159 110 -159c73 0 126 48 146 118v324h80v-337c0 -54 2 -111 15 -163h-55l-28 74h-4c-27 -46 -84 -86 -163 -86c-64 0 -93 21 -117 50h-5l21 -105v-133h-80v700z" />
    <glyph glyph-name="paragraph" unicode="&#xb6;" horiz-adv-x="494" 
d="M341 -130v830h68v-830h-68zM185 -130v440c-84 0 -148 97 -148 196c0 98 64 194 171 194h45v-830h-68z" />
    <glyph glyph-name="periodcentered" unicode="&#xb7;" horiz-adv-x="267" 
d="M76 296c0 36 23 58 57 58c36 0 59 -22 59 -58c0 -34 -23 -58 -59 -58c-34 0 -57 24 -57 58z" />
    <glyph glyph-name="cedilla" unicode="&#xb8;" horiz-adv-x="287" 
d="M115 0h57l-24 -43c55 -10 79 -34 79 -75c0 -52 -45 -90 -122 -90c-14 0 -29 1 -45 4l9 39c8 -1 15 -1 21 -1c58 0 63 23 63 39c0 20 -28 31 -86 37z" />
    <glyph glyph-name="onesuperior" unicode="&#xb9;" horiz-adv-x="394" 
d="M72 380v61h106v254l7 36l-27 -28l-78 -47l-27 49l154 102h41v-366h95v-61h-271z" />
    <glyph glyph-name="ordmasculine" unicode="&#xba;" horiz-adv-x="398" 
d="M44 542c0 120 67 170 155 170s155 -45 155 -170s-67 -170 -155 -170s-155 45 -155 170zM118 542c0 -80 31 -112 81 -112s81 25 81 112s-31 112 -81 112s-81 -25 -81 -112z" />
    <glyph glyph-name="guillemotright" unicode="&#xbb;" horiz-adv-x="478" 
d="M91 487l166 -219l-160 -228l-52 42l96 144l49 41l-49 36l-102 141zM272 489l167 -221l-160 -230l-54 43l98 145l48 41l-48 36l-104 142z" />
    <glyph glyph-name="onequarter" unicode="&#xbc;" horiz-adv-x="837" 
d="M141 24l487 689l52 -35l-487 -690zM797 155v-59h-83v-96h-67v96h-204v37l226 302h45v-280h83zM647 155v128l6 49h-2l-22 -46l-78 -105l-33 -31l50 5h79zM178 280v315l7 36l-27 -28l-78 -47l-27 49l154 102h41v-427h-70z" />
    <glyph glyph-name="onehalf" unicode="&#xbd;" horiz-adv-x="850" 
d="M141 24l487 689l52 -35l-487 -690zM790 310c0 -82 -59 -153 -131 -228l-46 -32v-2l57 15h140v-63h-291v33c62 51 201 180 201 268c0 41 -30 62 -69 62c-36 0 -72 -15 -97 -31l-22 57c34 24 83 38 131 38c83 0 127 -44 127 -117zM178 280v315l7 36l-27 -28l-78 -47l-27 49
l154 102h41v-427h-70z" />
    <glyph glyph-name="threequarters" unicode="&#xbe;" horiz-adv-x="876" 
d="M180 24l487 689l52 -35l-487 -690zM836 155v-59h-83v-96h-67v96h-204v37l226 302h45v-280h83zM686 155v128l6 49h-2l-22 -46l-78 -105l-33 -31l50 5h79zM178 333c64 0 100 26 100 75c0 43 -30 72 -98 72h-55v23l97 116l34 27l-49 -6h-130v60h256v-33l-103 -123l-25 -18
v-2l23 3c74 -1 120 -48 120 -119c0 -81 -65 -135 -164 -135c-48 0 -81 10 -108 19l15 60c22 -10 52 -19 87 -19z" />
    <glyph glyph-name="questiondown" unicode="&#xbf;" horiz-adv-x="436" 
d="M220 323h66c1 -7 1 -15 1 -22c0 -169 -167 -203 -167 -339c0 -61 32 -104 115 -104c48 0 101 20 137 42l27 -62c-50 -31 -102 -50 -184 -50c-118 0 -178 71 -178 163c0 180 183 205 183 372zM191 454c0 36 23 58 57 58c36 0 59 -22 59 -58c0 -34 -23 -58 -59 -58
c-34 0 -57 24 -57 58z" />
    <glyph glyph-name="Agrave" unicode="&#xc0;" horiz-adv-x="585" 
d="M490 0l-72 194h-258l-70 -194h-82l265 711h38l266 -711h-87zM264 477l-77 -211h206l-78 213l-25 106h-1zM249 870l118 -118h-74l-158 97v21h114z" />
    <glyph glyph-name="Aacute" unicode="&#xc1;" horiz-adv-x="585" 
d="M490 0l-72 194h-258l-70 -194h-82l265 711h38l266 -711h-87zM264 477l-77 -211h206l-78 213l-25 106h-1zM213 752l118 118h114v-21l-163 -97h-69z" />
    <glyph glyph-name="Acircumflex" unicode="&#xc2;" horiz-adv-x="585" 
d="M490 0l-72 194h-258l-70 -194h-82l265 711h38l266 -711h-87zM264 477l-77 -211h206l-78 213l-25 106h-1zM132 769l133 101h60l127 -102v-21h-81l-60 49l-17 35l-19 -34l-64 -50h-79v22z" />
    <glyph glyph-name="Atilde" unicode="&#xc3;" horiz-adv-x="585" 
d="M490 0l-72 194h-258l-70 -194h-82l265 711h38l266 -711h-87zM264 477l-77 -211h206l-78 213l-25 106h-1zM159 744l-24 41c41 42 76 55 108 55c51 0 94 -33 135 -33c17 0 33 6 50 21l25 -43c-36 -33 -68 -44 -96 -44c-50 0 -91 33 -134 33c-21 0 -41 -7 -64 -30z" />
    <glyph glyph-name="Adieresis" unicode="&#xc4;" horiz-adv-x="585" 
d="M490 0l-72 194h-258l-70 -194h-82l265 711h38l266 -711h-87zM264 477l-77 -211h206l-78 213l-25 106h-1zM144 794c0 28 22 47 54 47c30 0 52 -19 52 -47c0 -27 -22 -46 -52 -46c-32 0 -54 19 -54 46zM336 794c0 28 22 47 52 47c32 0 54 -19 54 -47c0 -27 -22 -46 -54 -46
c-30 0 -52 19 -52 46z" />
    <glyph glyph-name="Aring" unicode="&#xc5;" horiz-adv-x="585" 
d="M188 768c0 49 32 85 105 85c66 0 106 -30 106 -85c0 -42 -27 -73 -79 -81l257 -687h-87l-72 194h-258l-70 -194h-82l256 687c-50 8 -76 38 -76 81zM264 477l-77 -211h206l-78 213l-25 106h-1zM249 768c0 -22 13 -40 44 -40c29 0 45 16 45 40c0 25 -15 42 -45 42
c-29 0 -44 -17 -44 -42z" />
    <glyph glyph-name="AE" unicode="&#xc6;" horiz-adv-x="846" 
d="M395 600h-4l-34 -103l-133 -229h171v332zM395 0v198h-214l-112 -198h-91l415 700h383v-74h-298v-229h273v-74h-273v-249h303v-74h-386z" />
    <glyph glyph-name="Ccedilla" unicode="&#xc7;" horiz-adv-x="571" 
d="M513 94l20 -65c-35 -27 -88 -38 -147 -40l-17 -32c55 -10 79 -34 79 -75c0 -52 -45 -90 -122 -90c-14 0 -29 1 -45 4l9 39c8 -1 15 -1 21 -1c58 0 63 23 63 39c0 20 -28 31 -86 37l42 80c-154 11 -274 123 -274 360c0 261 156 362 304 362c79 0 127 -10 163 -24l-20 -73
c-31 15 -78 23 -137 23c-110 0 -222 -74 -222 -288c0 -192 102 -288 234 -288c59 0 104 13 135 32z" />
    <glyph glyph-name="Egrave" unicode="&#xc8;" horiz-adv-x="536" 
d="M85 0v700h381v-74h-298v-229h273v-74h-273v-249h303v-74h-386zM208 870l118 -118h-74l-158 97v21h114z" />
    <glyph glyph-name="Eacute" unicode="&#xc9;" horiz-adv-x="536" 
d="M85 0v700h381v-74h-298v-229h273v-74h-273v-249h303v-74h-386zM212 752l118 118h114v-21l-163 -97h-69z" />
    <glyph glyph-name="Ecircumflex" unicode="&#xca;" horiz-adv-x="536" 
d="M85 0v700h381v-74h-298v-229h273v-74h-273v-249h303v-74h-386zM109 769l133 101h60l127 -102v-21h-81l-60 49l-17 35l-19 -34l-64 -50h-79v22z" />
    <glyph glyph-name="Edieresis" unicode="&#xcb;" horiz-adv-x="536" 
d="M85 0v700h381v-74h-298v-229h273v-74h-273v-249h303v-74h-386zM120 794c0 28 22 47 54 47c30 0 52 -19 52 -47c0 -27 -22 -46 -52 -46c-32 0 -54 19 -54 46zM312 794c0 28 22 47 52 47c32 0 54 -19 54 -47c0 -27 -22 -46 -54 -46c-30 0 -52 19 -52 46z" />
    <glyph glyph-name="Igrave" unicode="&#xcc;" horiz-adv-x="291" 
d="M104 0v700h83v-700h-83zM114 870l118 -118h-74l-158 97v21h114z" />
    <glyph glyph-name="Iacute" unicode="&#xcd;" horiz-adv-x="291" 
d="M104 0v700h83v-700h-83zM62 752l118 118h114v-21l-163 -97h-69z" />
    <glyph glyph-name="Icircumflex" unicode="&#xce;" horiz-adv-x="291" 
d="M104 0v700h83v-700h-83zM-16 769l133 101h60l127 -102v-21h-81l-60 49l-17 35l-19 -34l-64 -50h-79v22z" />
    <glyph glyph-name="Idieresis" unicode="&#xcf;" horiz-adv-x="291" 
d="M104 0v700h83v-700h-83zM-3 794c0 28 22 47 54 47c30 0 52 -19 52 -47c0 -27 -22 -46 -52 -46c-32 0 -54 19 -54 46zM189 794c0 28 22 47 52 47c32 0 54 -19 54 -47c0 -27 -22 -46 -54 -46c-30 0 -52 19 -52 46z" />
    <glyph glyph-name="Eth" unicode="&#xd0;" horiz-adv-x="658" 
d="M-1 332v60h90v308c50 7 132 8 187 8c225 0 326 -145 326 -353c0 -188 -93 -364 -336 -364c-42 0 -150 4 -177 8v333h-90zM278 634c-34 0 -87 -1 -106 -5v-237h147v-60h-147v-263c14 -2 82 -4 96 -4c188 0 246 140 246 290c0 130 -53 279 -236 279z" />
    <glyph glyph-name="Ntilde" unicode="&#xd1;" horiz-adv-x="673" 
d="M544 -11l-333 469l-54 101h-4l10 -101v-458h-78v711h44l335 -467l52 -96h5l-11 96v456h78v-711h-44zM203 744l-24 41c41 42 76 55 108 55c51 0 94 -33 135 -33c17 0 33 6 50 21l25 -43c-36 -33 -68 -44 -96 -44c-50 0 -91 33 -134 33c-21 0 -41 -7 -64 -30z" />
    <glyph glyph-name="Ograve" unicode="&#xd2;" horiz-adv-x="684" 
d="M56 350c0 232 104 362 285 362c197 0 287 -144 287 -362c0 -232 -104 -362 -287 -362c-195 0 -285 144 -285 362zM144 350c0 -154 60 -288 197 -288c124 0 199 92 199 288c0 153 -60 288 -199 288c-122 0 -197 -93 -197 -288zM292 870l118 -118h-74l-158 97v21h114z" />
    <glyph glyph-name="Oacute" unicode="&#xd3;" horiz-adv-x="684" 
d="M56 350c0 232 104 362 285 362c197 0 287 -144 287 -362c0 -232 -104 -362 -287 -362c-195 0 -285 144 -285 362zM144 350c0 -154 60 -288 197 -288c124 0 199 92 199 288c0 153 -60 288 -199 288c-122 0 -197 -93 -197 -288zM297 752l118 118h114v-21l-163 -97h-69z" />
    <glyph glyph-name="Ocircumflex" unicode="&#xd4;" horiz-adv-x="684" 
d="M56 350c0 232 104 362 285 362c197 0 287 -144 287 -362c0 -232 -104 -362 -287 -362c-195 0 -285 144 -285 362zM144 350c0 -154 60 -288 197 -288c124 0 199 92 199 288c0 153 -60 288 -199 288c-122 0 -197 -93 -197 -288zM179 769l133 101h60l127 -102v-21h-81
l-60 49l-17 35l-19 -34l-64 -50h-79v22z" />
    <glyph glyph-name="Otilde" unicode="&#xd5;" horiz-adv-x="684" 
d="M56 350c0 232 104 362 285 362c197 0 287 -144 287 -362c0 -232 -104 -362 -287 -362c-195 0 -285 144 -285 362zM144 350c0 -154 60 -288 197 -288c124 0 199 92 199 288c0 153 -60 288 -199 288c-122 0 -197 -93 -197 -288zM206 744l-24 41c41 42 76 55 108 55
c51 0 94 -33 135 -33c17 0 33 6 50 21l25 -43c-36 -33 -68 -44 -96 -44c-50 0 -91 33 -134 33c-21 0 -41 -7 -64 -30z" />
    <glyph glyph-name="Odieresis" unicode="&#xd6;" horiz-adv-x="684" 
d="M56 350c0 232 104 362 285 362c197 0 287 -144 287 -362c0 -232 -104 -362 -287 -362c-195 0 -285 144 -285 362zM144 350c0 -154 60 -288 197 -288c124 0 199 92 199 288c0 153 -60 288 -199 288c-122 0 -197 -93 -197 -288zM190 794c0 28 22 47 54 47
c30 0 52 -19 52 -47c0 -27 -22 -46 -52 -46c-32 0 -54 19 -54 46zM382 794c0 28 22 47 52 47c32 0 54 -19 54 -47c0 -27 -22 -46 -54 -46c-30 0 -52 19 -52 46z" />
    <glyph glyph-name="multiply" unicode="&#xd7;" horiz-adv-x="505" 
d="M76 464l51 53l126 -127l127 127l51 -53l-126 -126l126 -127l-51 -52l-127 128l-127 -128l-52 51l128 129z" />
    <glyph glyph-name="Oslash" unicode="&#xd8;" horiz-adv-x="684" 
d="M75 24l47 67c-45 63 -66 152 -66 259c0 232 104 362 285 362c75 0 134 -21 179 -59l42 60l52 -35l-51 -72c44 -63 65 -151 65 -256c0 -232 -104 -362 -287 -362c-73 0 -131 20 -175 56l-39 -56zM144 350c0 -67 11 -129 35 -179l290 411c-31 35 -73 56 -128 56
c-122 0 -197 -93 -197 -288zM540 350c0 64 -11 126 -34 175l-290 -411c31 -33 72 -52 125 -52c124 0 199 92 199 288z" />
    <glyph glyph-name="Ugrave" unicode="&#xd9;" horiz-adv-x="652" 
d="M487 256v444h80v-467c0 -169 -92 -242 -232 -242c-164 0 -250 75 -250 226v483h83v-444c0 -142 56 -191 168 -191c107 0 151 56 151 191zM289 870l118 -118h-74l-158 97v21h114z" />
    <glyph glyph-name="Uacute" unicode="&#xda;" horiz-adv-x="652" 
d="M487 256v444h80v-467c0 -169 -92 -242 -232 -242c-164 0 -250 75 -250 226v483h83v-444c0 -142 56 -191 168 -191c107 0 151 56 151 191zM272 752l118 118h114v-21l-163 -97h-69z" />
    <glyph glyph-name="Ucircumflex" unicode="&#xdb;" horiz-adv-x="652" 
d="M487 256v444h80v-467c0 -169 -92 -242 -232 -242c-164 0 -250 75 -250 226v483h83v-444c0 -142 56 -191 168 -191c107 0 151 56 151 191zM168 769l133 101h60l127 -102v-21h-81l-60 49l-17 35l-19 -34l-64 -50h-79v22z" />
    <glyph glyph-name="Udieresis" unicode="&#xdc;" horiz-adv-x="652" 
d="M487 256v444h80v-467c0 -169 -92 -242 -232 -242c-164 0 -250 75 -250 226v483h83v-444c0 -142 56 -191 168 -191c107 0 151 56 151 191zM178 794c0 28 22 47 54 47c30 0 52 -19 52 -47c0 -27 -22 -46 -52 -46c-32 0 -54 19 -54 46zM370 794c0 28 22 47 52 47
c32 0 54 -19 54 -47c0 -27 -22 -46 -54 -46c-30 0 -52 19 -52 46z" />
    <glyph glyph-name="Yacute" unicode="&#xdd;" horiz-adv-x="558" 
d="M239 0v278l-231 422h97l164 -306l17 -61h1l18 63l157 304h89l-229 -421v-279h-83zM237 752l118 118h114v-21l-163 -97h-69z" />
    <glyph glyph-name="Thorn" unicode="&#xde;" horiz-adv-x="559" 
d="M85 0v700h83v-75c28 2 58 3 86 3c123 0 268 -41 268 -215c0 -170 -134 -232 -272 -232c-13 0 -68 1 -82 4v-185h-83zM256 556c-34 0 -69 -1 -88 -6v-290c14 -4 64 -5 78 -5c91 0 188 29 188 158c0 110 -92 143 -178 143z" />
    <glyph glyph-name="germandbls" unicode="&#xdf;" horiz-adv-x="592" 
d="M384 559c0 46 -57 77 -102 77c-75 0 -102 -33 -102 -138v-498h-80v430h-78v70h78v23c0 129 68 183 179 183c110 0 185 -59 185 -146c0 -100 -121 -113 -121 -179c0 -90 204 -46 204 -222c0 -85 -64 -171 -180 -171c-62 0 -90 8 -126 28l23 65c31 -17 45 -25 96 -25
c57 0 107 41 107 100c0 120 -204 69 -204 220c0 103 121 115 121 183z" />
    <glyph glyph-name="agrave" unicode="&#xe0;" horiz-adv-x="496" 
d="M94 404l-25 59c50 30 121 45 194 45c139 0 159 -83 159 -154c0 -80 -6 -157 -6 -225c0 -49 3 -94 14 -131h-59l-21 70h-5c-24 -36 -71 -76 -156 -76s-150 55 -150 142c0 117 101 153 247 153c18 0 36 0 55 -2c2 20 3 38 3 54c0 74 -24 99 -102 99
c-44 0 -111 -13 -148 -34zM211 62c76 0 116 44 130 79v83c-19 1 -38 2 -57 2c-83 0 -162 -17 -162 -84c0 -47 37 -80 89 -80zM240 720l65 -149h-45l-115 128v21h95z" />
    <glyph glyph-name="aacute" unicode="&#xe1;" horiz-adv-x="496" 
d="M94 404l-25 59c50 30 121 45 194 45c139 0 159 -83 159 -154c0 -80 -6 -157 -6 -225c0 -49 3 -94 14 -131h-59l-21 70h-5c-24 -36 -71 -76 -156 -76s-150 55 -150 142c0 117 101 153 247 153c18 0 36 0 55 -2c2 20 3 38 3 54c0 74 -24 99 -102 99
c-44 0 -111 -13 -148 -34zM211 62c76 0 116 44 130 79v83c-19 1 -38 2 -57 2c-83 0 -162 -17 -162 -84c0 -47 37 -80 89 -80zM179 571l59 149h89v-21l-101 -128h-47z" />
    <glyph glyph-name="acircumflex" unicode="&#xe2;" horiz-adv-x="496" 
d="M94 404l-25 59c50 30 121 45 194 45c139 0 159 -83 159 -154c0 -80 -6 -157 -6 -225c0 -49 3 -94 14 -131h-59l-21 70h-5c-24 -36 -71 -76 -156 -76s-150 55 -150 142c0 117 101 153 247 153c18 0 36 0 55 -2c2 20 3 38 3 54c0 74 -24 99 -102 99
c-44 0 -111 -13 -148 -34zM211 62c76 0 116 44 130 79v83c-19 1 -38 2 -57 2c-83 0 -162 -17 -162 -84c0 -47 37 -80 89 -80zM116 550l123 182h32l111 -182h-72l-39 66l-21 58l-22 -58l-45 -66h-67z" />
    <glyph glyph-name="atilde" unicode="&#xe3;" horiz-adv-x="496" 
d="M94 404l-25 59c50 30 121 45 194 45c139 0 159 -83 159 -154c0 -80 -6 -157 -6 -225c0 -49 3 -94 14 -131h-59l-21 70h-5c-24 -36 -71 -76 -156 -76s-150 55 -150 142c0 117 101 153 247 153c18 0 36 0 55 -2c2 20 3 38 3 54c0 74 -24 99 -102 99
c-44 0 -111 -13 -148 -34zM211 62c76 0 116 44 130 79v83c-19 1 -38 2 -57 2c-83 0 -162 -17 -162 -84c0 -47 37 -80 89 -80zM132 614l-23 42c39 44 71 58 97 58c45 0 76 -40 112 -40c14 0 29 7 46 24l24 -43c-35 -38 -63 -50 -87 -50c-43 0 -74 40 -112 40
c-17 0 -35 -9 -57 -31z" />
    <glyph glyph-name="adieresis" unicode="&#xe4;" horiz-adv-x="496" 
d="M94 404l-25 59c50 30 121 45 194 45c139 0 159 -83 159 -154c0 -80 -6 -157 -6 -225c0 -49 3 -94 14 -131h-59l-21 70h-5c-24 -36 -71 -76 -156 -76s-150 55 -150 142c0 117 101 153 247 153c18 0 36 0 55 -2c2 20 3 38 3 54c0 74 -24 99 -102 99
c-44 0 -111 -13 -148 -34zM211 62c76 0 116 44 130 79v83c-19 1 -38 2 -57 2c-83 0 -162 -17 -162 -84c0 -47 37 -80 89 -80zM104 653c0 30 20 51 49 51s49 -21 49 -51c0 -28 -20 -49 -49 -49s-49 21 -49 49zM296 653c0 30 20 51 49 51c30 0 50 -21 50 -51
c0 -28 -20 -49 -50 -49c-29 0 -49 21 -49 49z" />
    <glyph glyph-name="aring" unicode="&#xe5;" horiz-adv-x="496" 
d="M94 404l-25 59c50 30 121 45 194 45c139 0 159 -83 159 -154c0 -80 -6 -157 -6 -225c0 -49 3 -94 14 -131h-59l-21 70h-5c-24 -36 -71 -76 -156 -76s-150 55 -150 142c0 117 101 153 247 153c18 0 36 0 55 -2c2 20 3 38 3 54c0 74 -24 99 -102 99
c-44 0 -111 -13 -148 -34zM211 62c76 0 116 44 130 79v83c-19 1 -38 2 -57 2c-83 0 -162 -17 -162 -84c0 -47 37 -80 89 -80zM152 643c0 55 39 91 97 91c55 0 98 -29 98 -91c0 -52 -42 -90 -98 -90s-97 33 -97 90zM206 643c0 -26 21 -42 43 -42c25 0 44 13 44 42
s-21 43 -44 43c-22 0 -43 -13 -43 -43z" />
    <glyph glyph-name="ae" unicode="&#xe6;" horiz-adv-x="796" 
d="M211 62c76 0 116 44 130 79v83c-19 1 -38 2 -57 2c-83 0 -162 -17 -162 -84c0 -47 37 -80 89 -80zM374 84h-7c-34 -47 -89 -92 -178 -92c-85 0 -150 55 -150 142c0 117 101 153 247 153c18 0 36 0 55 -2c1 20 3 38 3 54c0 74 -24 99 -102 99c-44 0 -111 -13 -148 -34
l-25 59c50 30 121 45 194 45c69 0 116 -23 136 -65c34 48 100 69 158 69c91 0 190 -31 190 -199c0 -21 -2 -45 -5 -71h-323c0 -116 44 -184 161 -184c46 0 96 18 120 39l30 -57c-40 -32 -104 -52 -172 -52c-81 0 -152 35 -184 96zM558 442c-78 0 -129 -38 -137 -137h248v12
c0 90 -45 125 -111 125z" />
    <glyph glyph-name="ccedilla" unicode="&#xe7;" horiz-adv-x="451" 
d="M392 94l26 -61c-32 -23 -74 -38 -121 -43l-18 -33c55 -10 79 -34 79 -75c0 -52 -45 -90 -122 -90c-14 0 -29 1 -45 4l9 39c8 -1 15 -1 21 -1c58 0 63 23 63 39c0 20 -28 31 -86 37l42 79c-138 9 -191 110 -191 261c0 168 78 262 217 262c64 0 106 -10 142 -29l-23 -69
c-31 17 -69 28 -111 28c-95 0 -142 -63 -142 -192c0 -101 38 -191 149 -191c48 0 87 16 111 35z" />
    <glyph glyph-name="egrave" unicode="&#xe8;" horiz-adv-x="508" 
d="M412 98l30 -58c-40 -32 -104 -52 -172 -52c-153 0 -221 103 -221 262c0 169 80 262 220 262c91 0 190 -30 190 -197c0 -22 -2 -46 -6 -73h-321c1 -116 43 -184 161 -184c45 0 96 19 119 40zM270 442c-78 0 -128 -38 -137 -137h248c0 101 -41 137 -111 137zM265 720
l65 -149h-45l-115 128v21h95z" />
    <glyph glyph-name="eacute" unicode="&#xe9;" horiz-adv-x="508" 
d="M412 98l30 -58c-40 -32 -104 -52 -172 -52c-153 0 -221 103 -221 262c0 169 80 262 220 262c91 0 190 -30 190 -197c0 -22 -2 -46 -6 -73h-321c1 -116 43 -184 161 -184c45 0 96 19 119 40zM270 442c-78 0 -128 -38 -137 -137h248c0 101 -41 137 -111 137zM232 571
l59 149h89v-21l-101 -128h-47z" />
    <glyph glyph-name="ecircumflex" unicode="&#xea;" horiz-adv-x="508" 
d="M412 98l30 -58c-40 -32 -104 -52 -172 -52c-153 0 -221 103 -221 262c0 169 80 262 220 262c91 0 190 -30 190 -197c0 -22 -2 -46 -6 -73h-321c1 -116 43 -184 161 -184c45 0 96 19 119 40zM270 442c-78 0 -128 -38 -137 -137h248c0 101 -41 137 -111 137zM122 550
l123 182h32l111 -182h-72l-39 66l-21 58l-22 -58l-45 -66h-67z" />
    <glyph glyph-name="edieresis" unicode="&#xeb;" horiz-adv-x="508" 
d="M412 98l30 -58c-40 -32 -104 -52 -172 -52c-153 0 -221 103 -221 262c0 169 80 262 220 262c91 0 190 -30 190 -197c0 -22 -2 -46 -6 -73h-321c1 -116 43 -184 161 -184c45 0 96 19 119 40zM270 442c-78 0 -128 -38 -137 -137h248c0 101 -41 137 -111 137zM118 653
c0 30 20 51 49 51s49 -21 49 -51c0 -28 -20 -49 -49 -49s-49 21 -49 49zM310 653c0 30 20 51 49 51c30 0 50 -21 50 -51c0 -28 -20 -49 -50 -49c-29 0 -49 21 -49 49z" />
    <glyph glyph-name="igrave" unicode="&#xec;" horiz-adv-x="268" 
d="M94 0v500h80v-500h-80zM106 720l65 -149h-45l-115 128v21h95z" />
    <glyph glyph-name="iacute" unicode="&#xed;" horiz-adv-x="268" 
d="M94 0v500h80v-500h-80zM95 571l59 149h89v-21l-101 -128h-47z" />
    <glyph glyph-name="icircumflex" unicode="&#xee;" horiz-adv-x="268" 
d="M94 0v500h80v-500h-80zM-3 550l123 182h32l111 -182h-72l-39 66l-21 58l-22 -58l-45 -66h-67z" />
    <glyph glyph-name="idieresis" unicode="&#xef;" horiz-adv-x="268" 
d="M94 0v500h80v-500h-80zM-14 653c0 30 20 51 49 51s49 -21 49 -51c0 -28 -20 -49 -49 -49s-49 21 -49 49zM178 653c0 30 20 51 49 51c30 0 50 -21 50 -51c0 -28 -20 -49 -50 -49c-29 0 -49 21 -49 49z" />
    <glyph glyph-name="eth" unicode="&#xf0;" horiz-adv-x="561" 
d="M247 552l-27 44l57 31c-25 15 -51 26 -76 32l35 54c24 -9 64 -24 104 -52l68 37l26 -45l-50 -27c64 -61 122 -161 122 -331c0 -216 -102 -307 -224 -307c-162 0 -226 120 -226 263c0 138 78 259 224 259c59 0 109 -22 127 -46c-15 49 -46 94 -84 129zM139 250
c0 -130 61 -192 147 -192c79 0 140 67 140 232c0 27 -2 70 -7 91c-22 38 -80 59 -131 59c-105 0 -149 -84 -149 -190z" />
    <glyph glyph-name="ntilde" unicode="&#xf1;" horiz-adv-x="547" 
d="M478 0h-80v285c0 104 -25 157 -105 157c-70 0 -118 -43 -136 -100v-342h-80v500h56l15 -61h4c32 42 87 73 161 73c109 0 165 -45 165 -210v-302zM157 614l-23 42c39 44 71 58 97 58c45 0 76 -40 112 -40c14 0 29 7 46 24l24 -43c-35 -38 -63 -50 -87 -50
c-43 0 -74 40 -112 40c-17 0 -35 -9 -57 -31z" />
    <glyph glyph-name="ograve" unicode="&#xf2;" horiz-adv-x="536" 
d="M49 250c0 168 79 262 219 262c150 0 219 -104 219 -262c0 -168 -79 -262 -219 -262c-150 0 -219 104 -219 262zM132 250c0 -102 37 -192 136 -192c90 0 136 62 136 192c0 103 -37 192 -136 192c-89 0 -136 -62 -136 -192zM252 720l65 -149h-45l-115 128v21h95z" />
    <glyph glyph-name="oacute" unicode="&#xf3;" horiz-adv-x="536" 
d="M49 250c0 168 79 262 219 262c150 0 219 -104 219 -262c0 -168 -79 -262 -219 -262c-150 0 -219 104 -219 262zM132 250c0 -102 37 -192 136 -192c90 0 136 62 136 192c0 103 -37 192 -136 192c-89 0 -136 -62 -136 -192zM227 571l59 149h89v-21l-101 -128h-47z" />
    <glyph glyph-name="ocircumflex" unicode="&#xf4;" horiz-adv-x="536" 
d="M49 250c0 168 79 262 219 262c150 0 219 -104 219 -262c0 -168 -79 -262 -219 -262c-150 0 -219 104 -219 262zM132 250c0 -102 37 -192 136 -192c90 0 136 62 136 192c0 103 -37 192 -136 192c-89 0 -136 -62 -136 -192zM135 550l123 182h32l111 -182h-72l-39 66l-21 58
l-22 -58l-45 -66h-67z" />
    <glyph glyph-name="otilde" unicode="&#xf5;" horiz-adv-x="536" 
d="M49 250c0 168 79 262 219 262c150 0 219 -104 219 -262c0 -168 -79 -262 -219 -262c-150 0 -219 104 -219 262zM132 250c0 -102 37 -192 136 -192c90 0 136 62 136 192c0 103 -37 192 -136 192c-89 0 -136 -62 -136 -192zM152 614l-23 42c39 44 71 58 97 58
c45 0 76 -40 112 -40c14 0 29 7 46 24l24 -43c-35 -38 -63 -50 -87 -50c-43 0 -74 40 -112 40c-17 0 -35 -9 -57 -31z" />
    <glyph glyph-name="odieresis" unicode="&#xf6;" horiz-adv-x="536" 
d="M49 250c0 168 79 262 219 262c150 0 219 -104 219 -262c0 -168 -79 -262 -219 -262c-150 0 -219 104 -219 262zM132 250c0 -102 37 -192 136 -192c90 0 136 62 136 192c0 103 -37 192 -136 192c-89 0 -136 -62 -136 -192zM120 653c0 30 20 51 49 51s49 -21 49 -51
c0 -28 -20 -49 -49 -49s-49 21 -49 49zM312 653c0 30 20 51 49 51c30 0 50 -21 50 -51c0 -28 -20 -49 -50 -49c-29 0 -49 21 -49 49z" />
    <glyph glyph-name="divide" unicode="&#xf7;" horiz-adv-x="505" 
d="M40 302v72h424v-72h-424zM195 525c0 36 23 58 57 58c36 0 59 -22 59 -58c0 -34 -23 -58 -59 -58c-34 0 -57 24 -57 58zM195 150c0 36 23 58 57 58c36 0 59 -22 59 -58c0 -34 -23 -58 -59 -58c-34 0 -57 24 -57 58z" />
    <glyph glyph-name="oslash" unicode="&#xf8;" horiz-adv-x="536" 
d="M49 250c0 168 79 262 219 262c49 0 90 -11 122 -32l26 35l50 -37l-29 -42c34 -45 50 -109 50 -186c0 -168 -79 -262 -219 -262c-52 0 -95 12 -128 35l-27 -37l-52 38l33 46c-30 45 -45 107 -45 180zM404 250c0 42 -6 83 -21 115l-199 -277c21 -19 48 -30 84 -30
c90 0 136 62 136 192zM132 250c0 -40 6 -78 18 -109l197 274c-20 17 -46 27 -79 27c-89 0 -136 -62 -136 -192z" />
    <glyph glyph-name="ugrave" unicode="&#xf9;" horiz-adv-x="539" 
d="M69 500h80v-285c0 -105 20 -157 98 -157c71 0 113 49 135 108v334h80v-358c0 -48 3 -103 11 -142h-55l-20 79h-5c-30 -52 -82 -91 -161 -91c-107 0 -163 45 -163 210v302zM243 720l65 -149h-45l-115 128v21h95z" />
    <glyph glyph-name="uacute" unicode="&#xfa;" horiz-adv-x="539" 
d="M69 500h80v-285c0 -105 20 -157 98 -157c71 0 113 49 135 108v334h80v-358c0 -48 3 -103 11 -142h-55l-20 79h-5c-30 -52 -82 -91 -161 -91c-107 0 -163 45 -163 210v302zM226 571l59 149h89v-21l-101 -128h-47z" />
    <glyph glyph-name="ucircumflex" unicode="&#xfb;" horiz-adv-x="539" 
d="M69 500h80v-285c0 -105 20 -157 98 -157c71 0 113 49 135 108v334h80v-358c0 -48 3 -103 11 -142h-55l-20 79h-5c-30 -52 -82 -91 -161 -91c-107 0 -163 45 -163 210v302zM137 550l123 182h32l111 -182h-72l-39 66l-21 58l-22 -58l-45 -66h-67z" />
    <glyph glyph-name="udieresis" unicode="&#xfc;" horiz-adv-x="539" 
d="M69 500h80v-285c0 -105 20 -157 98 -157c71 0 113 49 135 108v334h80v-358c0 -48 3 -103 11 -142h-55l-20 79h-5c-30 -52 -82 -91 -161 -91c-107 0 -163 45 -163 210v302zM124 653c0 30 20 51 49 51s49 -21 49 -51c0 -28 -20 -49 -49 -49s-49 21 -49 49zM316 653
c0 30 20 51 49 51c30 0 50 -21 50 -51c0 -28 -20 -49 -50 -49c-29 0 -49 21 -49 49z" />
    <glyph glyph-name="yacute" unicode="&#xfd;" horiz-adv-x="466" 
d="M104 500l120 -324l28 -96h5l22 97l97 323h81l-148 -449c-44 -131 -85 -256 -173 -256c-24 0 -43 3 -59 10l14 69c8 -3 17 -5 25 -5c37 0 75 35 97 131l-201 500h92zM218 571l59 149h89v-21l-101 -128h-47z" />
    <glyph glyph-name="thorn" unicode="&#xfe;" horiz-adv-x="541" 
d="M77 -200v900h80v-250h4c27 39 71 62 133 62c133 0 198 -74 198 -252c0 -168 -90 -272 -230 -272c-49 0 -72 6 -105 20v-208h-80zM279 442c-64 0 -106 -35 -122 -107v-249c24 -18 52 -28 102 -28c91 0 150 71 150 203c0 110 -35 181 -130 181z" />
    <glyph glyph-name="ydieresis" unicode="&#xff;" horiz-adv-x="466" 
d="M104 500l120 -324l28 -96h5l22 97l97 323h81l-148 -449c-44 -131 -85 -256 -173 -256c-24 0 -43 3 -59 10l14 69c8 -3 17 -5 25 -5c37 0 75 35 97 131l-201 500h92zM88 653c0 30 20 51 49 51s49 -21 49 -51c0 -28 -20 -49 -49 -49s-49 21 -49 49zM280 653
c0 30 20 51 49 51c30 0 50 -21 50 -51c0 -28 -20 -49 -50 -49c-29 0 -49 21 -49 49z" />
    <glyph glyph-name="Amacron" unicode="&#x100;" horiz-adv-x="585" 
d="M490 0l-72 194h-258l-70 -194h-82l265 711h38l266 -711h-87zM264 477l-77 -211h206l-78 213l-25 106h-1zM133 781v62h316v-62h-316z" />
    <glyph glyph-name="amacron" unicode="&#x101;" horiz-adv-x="496" 
d="M94 404l-25 59c50 30 121 45 194 45c139 0 159 -83 159 -154c0 -80 -6 -157 -6 -225c0 -49 3 -94 14 -131h-59l-21 70h-5c-24 -36 -71 -76 -156 -76s-150 55 -150 142c0 117 101 153 247 153c18 0 36 0 55 -2c2 20 3 38 3 54c0 74 -24 99 -102 99
c-44 0 -111 -13 -148 -34zM211 62c76 0 116 44 130 79v83c-19 1 -38 2 -57 2c-83 0 -162 -17 -162 -84c0 -47 37 -80 89 -80zM101 581v62h296v-62h-296z" />
    <glyph glyph-name="Abreve" unicode="&#x102;" horiz-adv-x="585" 
d="M490 0l-72 194h-258l-70 -194h-82l265 711h38l266 -711h-87zM264 477l-77 -211h206l-78 213l-25 106h-1zM121 847l43 24c22 -45 72 -71 134 -71c64 0 109 32 128 71l40 -19c-23 -77 -93 -122 -169 -122c-71 0 -145 36 -176 117z" />
    <glyph glyph-name="abreve" unicode="&#x103;" horiz-adv-x="496" 
d="M94 404l-25 59c50 30 121 45 194 45c139 0 159 -83 159 -154c0 -80 -6 -157 -6 -225c0 -49 3 -94 14 -131h-59l-21 70h-5c-24 -36 -71 -76 -156 -76s-150 55 -150 142c0 117 101 153 247 153c18 0 36 0 55 -2c2 20 3 38 3 54c0 74 -24 99 -102 99
c-44 0 -111 -13 -148 -34zM211 62c76 0 116 44 130 79v83c-19 1 -38 2 -57 2c-83 0 -162 -17 -162 -84c0 -47 37 -80 89 -80zM96 697l45 23c24 -48 67 -77 112 -77s84 28 106 77l42 -18c-7 -65 -70 -129 -149 -129c-74 0 -137 48 -156 124z" />
    <glyph glyph-name="Aogonek" unicode="&#x104;" horiz-adv-x="585" 
d="M490 0l-72 194h-258l-70 -194h-82l265 711h38l266 -711h-22c-35 -21 -56 -48 -56 -86c0 -27 18 -52 51 -52c12 0 25 3 40 10l11 -43c-20 -16 -58 -24 -86 -24c-60 0 -99 35 -99 89c0 47 30 83 80 106h-6zM264 477l-78 -211h208l-79 213l-25 106h-1z" />
    <glyph glyph-name="aogonek" unicode="&#x105;" horiz-adv-x="496" 
d="M94 404l-25 59c50 30 121 45 194 45c139 0 159 -83 159 -154c0 -80 -6 -157 -6 -225c0 -49 3 -94 14 -131h-23c-33 -21 -53 -49 -53 -85c0 -27 18 -51 51 -51c12 0 25 3 40 10l11 -43c-20 -16 -58 -24 -86 -24c-60 0 -99 35 -99 89c0 53 38 91 97 113l-18 61h-5
c-24 -36 -71 -76 -156 -76s-150 55 -150 142c0 117 101 153 247 153c18 0 36 0 55 -2c2 20 3 38 3 54c0 74 -24 99 -102 99c-44 0 -111 -13 -148 -34zM211 62c76 0 116 44 130 79v83c-19 1 -38 2 -57 2c-83 0 -162 -17 -162 -84c0 -47 37 -80 89 -80z" />
    <glyph glyph-name="Cacute" unicode="&#x106;" horiz-adv-x="571" 
d="M513 94l20 -65c-40 -31 -105 -41 -174 -41c-167 0 -303 111 -303 362c0 261 156 362 304 362c79 0 127 -10 163 -24l-20 -73c-31 15 -78 23 -137 23c-110 0 -222 -74 -222 -288c0 -192 102 -288 234 -288c59 0 104 13 135 32zM299 752l118 118h114v-21l-163 -97h-69z" />
    <glyph glyph-name="cacute" unicode="&#x107;" horiz-adv-x="451" 
d="M392 94l26 -61c-40 -29 -97 -45 -157 -45c-154 0 -212 104 -212 262c0 168 78 262 217 262c64 0 106 -10 142 -29l-23 -69c-31 17 -69 28 -111 28c-95 0 -142 -63 -142 -192c0 -101 38 -192 149 -192c48 0 87 17 111 36zM231 571l59 149h89v-21l-101 -128h-47z" />
    <glyph glyph-name="Ccircumflex" unicode="&#x108;" horiz-adv-x="571" 
d="M513 94l20 -65c-40 -31 -105 -41 -174 -41c-167 0 -303 111 -303 362c0 261 156 362 304 362c79 0 127 -10 163 -24l-20 -73c-31 15 -78 23 -137 23c-110 0 -222 -74 -222 -288c0 -192 102 -288 234 -288c59 0 104 13 135 32zM187 769l133 101h60l127 -102v-21h-81
l-60 49l-17 35l-19 -34l-64 -50h-79v22z" />
    <glyph glyph-name="ccircumflex" unicode="&#x109;" horiz-adv-x="451" 
d="M392 94l26 -61c-40 -29 -97 -45 -157 -45c-154 0 -212 104 -212 262c0 168 78 262 217 262c64 0 106 -10 142 -29l-23 -69c-31 17 -69 28 -111 28c-95 0 -142 -63 -142 -192c0 -101 38 -192 149 -192c48 0 87 17 111 36zM114 550l123 182h32l111 -182h-72l-39 66l-21 58
l-22 -58l-45 -66h-67z" />
    <glyph glyph-name="Cdotaccent" unicode="&#x10a;" horiz-adv-x="571" 
d="M513 94l20 -65c-40 -31 -105 -41 -174 -41c-167 0 -303 111 -303 362c0 261 156 362 304 362c79 0 127 -10 163 -24l-20 -73c-31 15 -78 23 -137 23c-110 0 -222 -74 -222 -288c0 -192 102 -288 234 -288c59 0 104 13 135 32zM297 797c0 28 24 52 62 52
c39 0 64 -24 64 -52c0 -30 -25 -53 -64 -53c-38 0 -62 23 -62 53z" />
    <glyph glyph-name="cdotaccent" unicode="&#x10b;" horiz-adv-x="451" 
d="M392 94l26 -61c-40 -29 -97 -45 -157 -45c-154 0 -212 104 -212 262c0 168 78 262 217 262c64 0 106 -10 142 -29l-23 -69c-31 17 -69 28 -111 28c-95 0 -142 -63 -142 -192c0 -101 38 -192 149 -192c48 0 87 17 111 36zM207 652c0 30 23 56 55 56s58 -26 58 -56
s-26 -53 -58 -53s-55 23 -55 53z" />
    <glyph glyph-name="Ccaron" unicode="&#x10c;" horiz-adv-x="571" 
d="M513 94l20 -65c-40 -31 -105 -41 -174 -41c-167 0 -303 111 -303 362c0 261 156 362 304 362c79 0 127 -10 163 -24l-20 -73c-31 15 -78 23 -137 23c-110 0 -222 -74 -222 -288c0 -192 102 -288 234 -288c59 0 104 13 135 32zM515 848l-133 -102h-58l-127 103v21h82
l59 -50l17 -34l19 33l63 51h78v-22z" />
    <glyph glyph-name="ccaron" unicode="&#x10d;" horiz-adv-x="451" 
d="M392 94l26 -61c-40 -29 -97 -45 -157 -45c-154 0 -212 104 -212 262c0 168 78 262 217 262c64 0 106 -10 142 -29l-23 -69c-31 17 -69 28 -111 28c-95 0 -142 -63 -142 -192c0 -101 38 -192 149 -192c48 0 87 17 111 36zM393 732l-123 -182h-37l-115 182h78l39 -66
l21 -58l22 58l45 66h70z" />
    <glyph glyph-name="Dcaron" unicode="&#x10e;" horiz-adv-x="654" 
d="M85 -1v701c50 7 132 8 187 8c225 0 326 -145 326 -353c0 -188 -93 -364 -336 -364c-42 0 -150 4 -177 8zM274 634c-34 0 -87 -1 -106 -5v-560c14 -2 82 -4 96 -4c188 0 246 140 246 290c0 130 -53 279 -236 279zM439 848l-133 -102h-58l-127 103v21h82l59 -50l17 -34
l19 33l63 51h78v-22z" />
    <glyph glyph-name="dcaron" unicode="&#x10f;" horiz-adv-x="589" 
d="M461 700v-528c0 -68 0 -121 10 -174h-54l-20 71h-4c-26 -46 -80 -81 -147 -81c-133 0 -197 83 -197 260c0 169 87 261 227 261c49 0 72 -5 105 -17v208h80zM259 58c68 0 107 35 122 107v249c-24 18 -52 25 -102 25c-91 0 -147 -59 -147 -191c0 -110 33 -190 127 -190z
M534 700h80c-5 -78 -59 -167 -82 -191l-33 18c23 48 35 112 35 173z" />
    <glyph glyph-name="Dcroat" unicode="&#x110;" horiz-adv-x="658" 
d="M-1 332v60h90v308c50 7 132 8 187 8c225 0 326 -145 326 -353c0 -188 -93 -364 -336 -364c-42 0 -150 4 -177 8v333h-90zM278 634c-34 0 -87 -1 -106 -5v-237h147v-60h-147v-263c14 -2 82 -4 96 -4c188 0 246 140 246 290c0 130 -53 279 -236 279z" />
    <glyph glyph-name="dcroat" unicode="&#x111;" horiz-adv-x="540" 
d="M461 700v-68h81v-60h-81v-400c0 -68 0 -121 10 -174h-54l-20 71h-4c-26 -46 -80 -81 -147 -81c-133 0 -197 83 -197 260c0 169 87 261 227 261c49 0 72 -5 105 -17v80h-157v60h157v68h80zM259 58c68 0 107 35 122 107v249c-24 18 -52 25 -102 25
c-91 0 -147 -59 -147 -191c0 -110 33 -190 127 -190z" />
    <glyph glyph-name="Emacron" unicode="&#x112;" horiz-adv-x="536" 
d="M85 0v700h381v-74h-298v-229h273v-74h-273v-249h303v-74h-386zM109 781v62h316v-62h-316z" />
    <glyph glyph-name="emacron" unicode="&#x113;" horiz-adv-x="508" 
d="M412 98l30 -58c-40 -32 -104 -52 -172 -52c-153 0 -221 103 -221 262c0 169 80 262 220 262c91 0 190 -30 190 -197c0 -22 -2 -46 -6 -73h-321c1 -116 43 -184 161 -184c45 0 96 19 119 40zM270 442c-78 0 -128 -38 -137 -137h248c0 101 -41 137 -111 137zM107 581v62
h296v-62h-296z" />
    <glyph glyph-name="Ebreve" unicode="&#x114;" horiz-adv-x="536" 
d="M85 0v700h381v-74h-298v-229h273v-74h-273v-249h303v-74h-386zM104 847l43 24c22 -45 72 -71 134 -71c64 0 109 32 128 71l40 -19c-23 -77 -93 -122 -169 -122c-71 0 -145 36 -176 117z" />
    <glyph glyph-name="ebreve" unicode="&#x115;" horiz-adv-x="508" 
d="M412 98l30 -58c-40 -32 -104 -52 -172 -52c-153 0 -221 103 -221 262c0 169 80 262 220 262c91 0 190 -30 190 -197c0 -22 -2 -46 -6 -73h-321c1 -116 43 -184 161 -184c45 0 96 19 119 40zM270 442c-78 0 -128 -38 -137 -137h248c0 101 -41 137 -111 137zM103 697l45 23
c24 -48 67 -77 112 -77s84 28 106 77l42 -18c-7 -65 -70 -129 -149 -129c-74 0 -137 48 -156 124z" />
    <glyph glyph-name="Edotaccent" unicode="&#x116;" horiz-adv-x="536" 
d="M85 0v700h381v-74h-298v-229h273v-74h-273v-249h303v-74h-386zM212 797c0 28 24 52 62 52c39 0 64 -24 64 -52c0 -30 -25 -53 -64 -53c-38 0 -62 23 -62 53z" />
    <glyph glyph-name="edotaccent" unicode="&#x117;" horiz-adv-x="508" 
d="M412 98l30 -58c-40 -32 -104 -52 -172 -52c-153 0 -221 103 -221 262c0 169 80 262 220 262c91 0 190 -30 190 -197c0 -22 -2 -46 -6 -73h-321c1 -116 43 -184 161 -184c45 0 96 19 119 40zM270 442c-78 0 -128 -38 -137 -137h248c0 101 -41 137 -111 137zM216 652
c0 30 23 56 55 56s58 -26 58 -56s-26 -53 -58 -53s-55 23 -55 53z" />
    <glyph glyph-name="Eogonek" unicode="&#x118;" horiz-adv-x="536" 
d="M85 0v700h381v-74h-298v-229h273v-74h-273v-249h303v-74h-36c-35 -21 -57 -49 -57 -87c0 -27 18 -51 51 -51c12 0 25 3 40 10l11 -43c-20 -16 -58 -24 -86 -24c-60 0 -99 35 -99 89c0 47 30 83 80 106h-290z" />
    <glyph glyph-name="eogonek" unicode="&#x119;" horiz-adv-x="508" 
d="M412 97l30 -57c-14 -12 -32 -21 -51 -29c-44 -22 -72 -56 -72 -98c0 -27 19 -51 52 -51c12 0 25 3 40 10l11 -43c-20 -16 -59 -24 -87 -24c-59 0 -99 35 -99 89c0 40 21 72 56 95c-7 -1 -15 -1 -22 -1c-153 0 -221 103 -221 262c0 169 80 262 220 262
c91 0 190 -30 190 -197c0 -22 -2 -46 -6 -73h-321c1 -116 43 -184 161 -184c45 0 96 18 119 39zM270 442c-78 0 -128 -38 -137 -137h248c0 101 -41 137 -111 137z" />
    <glyph glyph-name="Ecaron" unicode="&#x11a;" horiz-adv-x="536" 
d="M85 0v700h381v-74h-298v-229h273v-74h-273v-249h303v-74h-386zM427 848l-133 -102h-58l-127 103v21h82l59 -50l17 -34l19 33l63 51h78v-22z" />
    <glyph glyph-name="ecaron" unicode="&#x11b;" horiz-adv-x="508" 
d="M412 98l30 -58c-40 -32 -104 -52 -172 -52c-153 0 -221 103 -221 262c0 169 80 262 220 262c91 0 190 -30 190 -197c0 -22 -2 -46 -6 -73h-321c1 -116 43 -184 161 -184c45 0 96 19 119 40zM270 442c-78 0 -128 -38 -137 -137h248c0 101 -41 137 -111 137zM402 732
l-123 -182h-37l-115 182h78l39 -66l21 -58l22 58l45 66h70z" />
    <glyph glyph-name="Gcircumflex" unicode="&#x11c;" horiz-adv-x="612" 
d="M321 302v47h235v-308c-43 -33 -123 -53 -193 -53c-178 0 -307 113 -307 362c0 259 164 362 314 362c79 0 129 -10 165 -24l-21 -73c-31 15 -78 23 -137 23c-111 0 -233 -72 -233 -288c0 -197 95 -288 232 -288c42 0 80 9 109 25v195zM198 769l133 101h60l127 -102v-21
h-81l-60 49l-17 35l-19 -34l-64 -50h-79v22z" />
    <glyph glyph-name="gcircumflex" unicode="&#x11d;" horiz-adv-x="537" 
d="M460 479v-502c0 -128 -70 -189 -204 -189c-79 0 -124 11 -159 27l21 67c31 -12 65 -24 124 -24c111 0 139 41 139 143v48h-4c-27 -39 -66 -60 -132 -60c-134 0 -196 83 -196 259c0 170 83 261 241 261c75 0 127 -14 170 -30zM259 59c68 0 105 34 121 105v257
c-25 12 -59 18 -102 18c-90 0 -146 -60 -146 -190c0 -112 34 -190 127 -190zM137 550l123 182h32l111 -182h-72l-39 66l-21 58l-22 -58l-45 -66h-67z" />
    <glyph glyph-name="Gbreve" unicode="&#x11e;" horiz-adv-x="612" 
d="M321 302v47h235v-308c-43 -33 -123 -53 -193 -53c-178 0 -307 113 -307 362c0 259 164 362 314 362c79 0 129 -10 165 -24l-21 -73c-31 15 -78 23 -137 23c-111 0 -233 -72 -233 -288c0 -197 95 -288 232 -288c42 0 80 9 109 25v195zM180 847l43 24
c22 -45 72 -71 134 -71c64 0 109 32 128 71l40 -19c-23 -77 -93 -122 -169 -122c-71 0 -145 36 -176 117z" />
    <glyph glyph-name="gbreve" unicode="&#x11f;" horiz-adv-x="537" 
d="M460 479v-502c0 -128 -70 -189 -204 -189c-79 0 -124 11 -159 27l21 67c31 -12 65 -24 124 -24c111 0 139 41 139 143v48h-4c-27 -39 -66 -60 -132 -60c-134 0 -196 83 -196 259c0 170 83 261 241 261c75 0 127 -14 170 -30zM259 59c68 0 105 34 121 105v257
c-25 12 -59 18 -102 18c-90 0 -146 -60 -146 -190c0 -112 34 -190 127 -190zM116 697l45 23c24 -48 67 -77 112 -77s84 28 106 77l42 -18c-7 -65 -70 -129 -149 -129c-74 0 -137 48 -156 124z" />
    <glyph glyph-name="Gdotaccent" unicode="&#x120;" horiz-adv-x="612" 
d="M321 302v47h235v-308c-43 -33 -123 -53 -193 -53c-178 0 -307 113 -307 362c0 259 164 362 314 362c79 0 129 -10 165 -24l-21 -73c-31 15 -78 23 -137 23c-111 0 -233 -72 -233 -288c0 -197 95 -288 232 -288c42 0 80 9 109 25v195zM309 797c0 28 24 52 62 52
c39 0 64 -24 64 -52c0 -30 -25 -53 -64 -53c-38 0 -62 23 -62 53z" />
    <glyph glyph-name="gdotaccent" unicode="&#x121;" horiz-adv-x="537" 
d="M460 479v-502c0 -128 -70 -189 -204 -189c-79 0 -124 11 -159 27l21 67c31 -12 65 -24 124 -24c111 0 139 41 139 143v48h-4c-27 -39 -66 -60 -132 -60c-134 0 -196 83 -196 259c0 170 83 261 241 261c75 0 127 -14 170 -30zM259 59c68 0 105 34 121 105v257
c-25 12 -59 18 -102 18c-90 0 -146 -60 -146 -190c0 -112 34 -190 127 -190zM213 652c0 30 23 56 55 56s58 -26 58 -56s-26 -53 -58 -53s-55 23 -55 53z" />
    <glyph glyph-name="Gcommaaccent" unicode="&#x122;" horiz-adv-x="612" 
d="M321 302v47h235v-308c-43 -33 -123 -53 -193 -53c-178 0 -307 113 -307 362c0 259 164 362 314 362c79 0 129 -10 165 -24l-21 -73c-31 15 -78 23 -137 23c-111 0 -233 -72 -233 -288c0 -197 95 -288 232 -288c42 0 80 9 109 25v195zM294 -102c0 28 24 47 51 47
c33 0 64 -22 64 -75c0 -68 -54 -105 -80 -115l-28 32c26 14 44 37 44 69c-4 -1 -7 -1 -10 -1c-24 0 -41 18 -41 43z" />
    <glyph glyph-name="gcommaaccent" unicode="&#x123;" horiz-adv-x="537" 
d="M460 479v-502c0 -128 -70 -189 -204 -189c-79 0 -124 11 -159 27l21 67c31 -12 65 -24 124 -24c111 0 139 41 139 143v48h-4c-27 -39 -66 -60 -132 -60c-134 0 -196 83 -196 259c0 170 83 261 241 261c75 0 127 -14 170 -30zM259 59c68 0 105 34 121 105v257
c-25 12 -59 18 -102 18c-90 0 -146 -60 -146 -190c0 -112 34 -190 127 -190zM346 609c0 -28 -24 -47 -51 -47c-33 0 -64 22 -64 75c0 68 54 105 80 115l28 -32c-26 -14 -44 -37 -44 -69c4 1 7 1 10 1c24 0 41 -18 41 -43z" />
    <glyph glyph-name="Hcircumflex" unicode="&#x124;" horiz-adv-x="672" 
d="M504 0v321h-336v-321h-83v700h83v-305h336v305h83v-700h-83zM174 769l133 101h60l127 -102v-21h-81l-60 49l-17 35l-19 -34l-64 -50h-79v22z" />
    <glyph glyph-name="hcircumflex" unicode="&#x125;" horiz-adv-x="547" 
d="M478 0h-80v285c0 104 -20 157 -107 157c-62 0 -120 -45 -134 -109v-333h-80v700h80v-256h4c35 41 82 68 153 68c113 0 164 -45 164 -210v-302zM-41 769l133 101h60l127 -102v-21h-81l-60 49l-17 35l-19 -34l-64 -50h-79v22z" />
    <glyph glyph-name="Hbar" unicode="&#x126;" horiz-adv-x="677" 
d="M9 523v64h79v113h83v-113h336v113h83v-113h79v-64h-79v-523h-83v321h-336v-321h-83v523h-79zM171 395h336v128h-336v-128z" />
    <glyph glyph-name="hbar" unicode="&#x127;" horiz-adv-x="549" 
d="M-1 572v60h80v68h80v-68h160v-60h-160v-128h4c35 41 82 68 153 68c113 0 164 -45 164 -210v-302h-80v285c0 104 -20 157 -107 157c-62 0 -120 -45 -134 -109v-333h-80v572h-80z" />
    <glyph glyph-name="Itilde" unicode="&#x128;" horiz-adv-x="291" 
d="M104 0v700h83v-700h-83zM11 744l-24 41c41 42 76 55 108 55c51 0 94 -33 135 -33c17 0 33 6 50 21l25 -43c-36 -33 -68 -44 -96 -44c-50 0 -91 33 -134 33c-21 0 -41 -7 -64 -30z" />
    <glyph glyph-name="itilde" unicode="&#x129;" horiz-adv-x="268" 
d="M94 0v500h80v-500h-80zM18 614l-23 42c39 44 71 58 97 58c45 0 76 -40 112 -40c14 0 29 7 46 24l24 -43c-35 -38 -63 -50 -87 -50c-43 0 -74 40 -112 40c-17 0 -35 -9 -57 -31z" />
    <glyph glyph-name="Imacron" unicode="&#x12a;" horiz-adv-x="291" 
d="M104 0v700h83v-700h-83zM-12 781v62h316v-62h-316z" />
    <glyph glyph-name="imacron" unicode="&#x12b;" horiz-adv-x="268" 
d="M94 0v500h80v-500h-80zM-14 581v62h296v-62h-296z" />
    <glyph glyph-name="Ibreve" unicode="&#x12c;" horiz-adv-x="291" 
d="M104 0v700h83v-700h-83zM-26 847l43 24c22 -45 72 -71 134 -71c64 0 109 32 128 71l40 -19c-23 -77 -93 -122 -169 -122c-71 0 -145 36 -176 117z" />
    <glyph glyph-name="ibreve" unicode="&#x12d;" horiz-adv-x="268" 
d="M94 0v500h80v-500h-80zM-18 697l45 23c24 -48 67 -77 112 -77s84 28 106 77l42 -18c-7 -65 -70 -129 -149 -129c-74 0 -137 48 -156 124z" />
    <glyph glyph-name="Iogonek" unicode="&#x12e;" horiz-adv-x="291" 
d="M104 0v700h83v-700h-14c-34 -21 -56 -50 -56 -88c0 -27 18 -51 51 -51c12 0 25 3 40 10l11 -43c-20 -16 -58 -23 -86 -23c-60 0 -99 34 -99 88c0 47 30 84 80 107h-10z" />
    <glyph glyph-name="iogonek" unicode="&#x12f;" horiz-adv-x="269" 
d="M94 0v500h80v-500h-18c-33 -21 -54 -51 -54 -88c0 -27 18 -51 51 -51c12 0 25 3 40 10l11 -43c-20 -16 -58 -23 -87 -23c-59 0 -98 34 -98 88c0 47 30 84 80 107h-5zM77 652c0 30 23 56 55 56s58 -26 58 -56s-26 -53 -58 -53s-55 23 -55 53z" />
    <glyph glyph-name="Idotaccent" unicode="&#x130;" horiz-adv-x="291" 
d="M104 0v700h83v-700h-83zM84 797c0 28 24 52 62 52c39 0 64 -24 64 -52c0 -30 -25 -53 -64 -53c-38 0 -62 23 -62 53z" />
    <glyph glyph-name="dotlessi" unicode="&#x131;" horiz-adv-x="268" 
d="M94 0v500h80v-500h-80z" />
    <glyph glyph-name="Jcircumflex" unicode="&#x134;" horiz-adv-x="291" 
d="M112 174v526h83v-546c0 -106 -48 -164 -143 -164c-22 0 -66 6 -86 16l16 71c17 -8 38 -13 61 -13c56 0 69 42 69 110zM-9 769l133 101h60l127 -102v-21h-81l-60 49l-17 35l-19 -34l-64 -50h-79v22z" />
    <glyph glyph-name="jcircumflex" unicode="&#x135;" horiz-adv-x="267" 
d="M93 3v497h80v-527c0 -123 -41 -185 -134 -185c-10 0 -19 1 -30 2v68c75 0 84 46 84 145zM0 550l123 182h32l111 -182h-72l-39 66l-21 58l-22 -58l-45 -66h-67z" />
    <glyph glyph-name="Kcommaaccent" unicode="&#x136;" horiz-adv-x="610" 
d="M470 0l-255 324h-47v-324h-83v700h83v-326l45 14l235 312h96l-234 -301l-42 -33l51 -40l256 -326h-105zM232 -102c0 28 24 47 51 47c33 0 64 -22 64 -75c0 -68 -54 -105 -80 -115l-28 32c26 14 44 37 44 69c-4 -1 -7 -1 -10 -1c-24 0 -41 18 -41 43z" />
    <glyph glyph-name="kcommaaccent" unicode="&#x137;" horiz-adv-x="479" 
d="M370 0l-167 225h-46v-225h-80v700h80v-426l41 14l155 212h93l-153 -201l-41 -33l50 -40l167 -226h-99zM183 -102c0 28 24 47 51 47c33 0 64 -22 64 -75c0 -68 -54 -105 -80 -115l-28 32c26 14 44 37 44 69c-4 -1 -7 -1 -10 -1c-24 0 -41 18 -41 43z" />
    <glyph glyph-name="kgreenlandic" unicode="&#x138;" horiz-adv-x="478" 
d="M370 0l-167 225h-46v-225h-80v500h80v-226l43 14l160 212h87l-155 -201l-42 -33l52 -40l167 -226h-99z" />
    <glyph glyph-name="Lacute" unicode="&#x139;" horiz-adv-x="517" 
d="M499 74v-74h-414v700h83v-626h331zM113 752l118 118h114v-21l-163 -97h-69z" />
    <glyph glyph-name="lacute" unicode="&#x13a;" horiz-adv-x="292" 
d="M166 700v-577c0 -47 17 -65 46 -65c17 0 37 2 62 11l9 -63c-21 -11 -66 -18 -94 -18c-60 0 -103 31 -103 112v600h80zM90 752l118 118h114v-21l-163 -97h-69z" />
    <glyph glyph-name="Lcommaaccent" unicode="&#x13b;" horiz-adv-x="517" 
d="M499 74v-74h-414v700h83v-626h331zM192 -102c0 28 24 47 51 47c33 0 64 -22 64 -75c0 -68 -54 -105 -80 -115l-28 32c26 14 44 37 44 69c-4 -1 -7 -1 -10 -1c-24 0 -41 18 -41 43z" />
    <glyph glyph-name="lcommaaccent" unicode="&#x13c;" horiz-adv-x="292" 
d="M166 700v-577c0 -47 17 -65 46 -65c17 0 37 2 62 11l9 -63c-21 -11 -66 -18 -94 -18c-60 0 -103 31 -103 112v600h80zM117 -102c0 28 24 47 51 47c33 0 64 -22 64 -75c0 -68 -54 -105 -80 -115l-28 32c26 14 44 37 44 69c-4 -1 -7 -1 -10 -1c-24 0 -41 18 -41 43z" />
    <glyph glyph-name="Lcaron" unicode="&#x13d;" horiz-adv-x="517" 
d="M499 74v-74h-414v700h83v-626h331zM349 700h80c-5 -78 -59 -167 -82 -191l-33 18c23 48 35 112 35 173z" />
    <glyph glyph-name="lcaron" unicode="&#x13e;" horiz-adv-x="292" 
d="M166 700v-577c0 -47 17 -65 46 -65c17 0 37 2 62 11l9 -63c-21 -11 -66 -18 -94 -18c-60 0 -103 31 -103 112v600h80zM241 700h80c-5 -78 -59 -167 -82 -191l-33 18c23 48 35 112 35 173z" />
    <glyph glyph-name="Ldot" unicode="&#x13f;" horiz-adv-x="517" 
d="M320 395c0 30 22 57 54 57c33 0 57 -27 57 -57s-24 -54 -57 -54c-32 0 -54 24 -54 54zM499 74v-74h-414v700h83v-626h331z" />
    <glyph glyph-name="ldot" unicode="&#x140;" horiz-adv-x="298" 
d="M220 382c0 30 22 57 54 57c31 0 56 -27 56 -57s-24 -54 -56 -54c-31 0 -54 24 -54 54zM166 700v-577c0 -47 17 -65 46 -65c17 0 37 2 62 11l9 -63c-21 -11 -66 -18 -94 -18c-60 0 -103 31 -103 112v600h80z" />
    <glyph glyph-name="Lslash" unicode="&#x141;" horiz-adv-x="517" 
d="M15 211v76l70 55v358h83v-293l107 84v-80l-107 -82v-255h331v-74h-414v265z" />
    <glyph glyph-name="lslash" unicode="&#x142;" horiz-adv-x="292" 
d="M10 209v76l76 59v356h80v-293l104 82v-80l-104 -80v-206c0 -47 17 -65 46 -65c17 0 37 2 62 11l9 -63c-21 -11 -66 -18 -94 -18c-60 0 -103 31 -103 112v167z" />
    <glyph glyph-name="Nacute" unicode="&#x143;" horiz-adv-x="673" 
d="M544 -11l-333 469l-54 101h-4l10 -101v-458h-78v711h44l335 -467l52 -96h5l-11 96v456h78v-711h-44zM289 752l118 118h114v-21l-163 -97h-69z" />
    <glyph glyph-name="nacute" unicode="&#x144;" horiz-adv-x="547" 
d="M478 0h-80v285c0 104 -25 157 -105 157c-70 0 -118 -43 -136 -100v-342h-80v500h56l15 -61h4c32 42 87 73 161 73c109 0 165 -45 165 -210v-302zM241 571l59 149h89v-21l-101 -128h-47z" />
    <glyph glyph-name="Ncommaaccent" unicode="&#x145;" horiz-adv-x="673" 
d="M544 -11l-333 469l-54 101h-4l10 -101v-458h-78v711h44l335 -467l52 -96h5l-11 96v456h78v-711h-44zM279 -102c0 28 24 47 51 47c33 0 64 -22 64 -75c0 -68 -54 -105 -80 -115l-28 32c26 14 44 37 44 69c-4 -1 -7 -1 -10 -1c-24 0 -41 18 -41 43z" />
    <glyph glyph-name="ncommaaccent" unicode="&#x146;" horiz-adv-x="547" 
d="M478 0h-80v285c0 104 -25 157 -105 157c-70 0 -118 -43 -136 -100v-342h-80v500h56l15 -61h4c32 42 87 73 161 73c109 0 165 -45 165 -210v-302zM216 -102c0 28 24 47 51 47c33 0 64 -22 64 -75c0 -68 -54 -105 -80 -115l-28 32c26 14 44 37 44 69c-4 -1 -7 -1 -10 -1
c-24 0 -41 18 -41 43z" />
    <glyph glyph-name="Ncaron" unicode="&#x147;" horiz-adv-x="673" 
d="M544 -11l-333 469l-54 101h-4l10 -101v-458h-78v711h44l335 -467l52 -96h5l-11 96v456h78v-711h-44zM497 848l-133 -102h-58l-127 103v21h82l59 -50l17 -34l19 33l63 51h78v-22z" />
    <glyph glyph-name="ncaron" unicode="&#x148;" horiz-adv-x="547" 
d="M478 0h-80v285c0 104 -25 157 -105 157c-70 0 -118 -43 -136 -100v-342h-80v500h56l15 -61h4c32 42 87 73 161 73c109 0 165 -45 165 -210v-302zM412 732l-123 -182h-37l-115 182h78l39 -66l21 -58l22 58l45 66h70z" />
    <glyph glyph-name="napostrophe" unicode="&#x149;" horiz-adv-x="559" 
d="M490 0h-80v285c0 104 -25 157 -105 157c-70 0 -118 -43 -136 -100v-342h-80v500h56l15 -61h4c32 42 87 73 161 73c109 0 165 -45 165 -210v-302zM-46 659c0 30 22 49 52 49c37 0 63 -23 63 -70c0 -88 -57 -127 -87 -138l-25 34c30 16 49 39 49 77c-4 -1 -7 -1 -11 -1
c-25 0 -41 20 -41 49z" />
    <glyph glyph-name="Eng" unicode="&#x14a;" horiz-adv-x="673" 
d="M510 0v38l-299 420l-54 101h-4l10 -101v-458h-78v711h44l335 -467l52 -96h5l-11 96v456h78v-727c0 -123 -40 -185 -133 -185c-10 0 -19 1 -30 2v68c76 0 85 45 85 142z" />
    <glyph glyph-name="eng" unicode="&#x14b;" horiz-adv-x="547" 
d="M398 0v285c0 104 -25 157 -105 157c-70 0 -118 -43 -136 -100v-342h-80v500h56l15 -61h4c32 42 87 73 161 73c109 0 165 -45 165 -210v-329c0 -123 -41 -185 -134 -185c-10 0 -24 1 -30 2v68c75 0 84 45 84 142z" />
    <glyph glyph-name="Omacron" unicode="&#x14c;" horiz-adv-x="684" 
d="M56 350c0 232 104 362 285 362c197 0 287 -144 287 -362c0 -232 -104 -362 -287 -362c-195 0 -285 144 -285 362zM144 350c0 -154 60 -288 197 -288c124 0 199 92 199 288c0 153 -60 288 -199 288c-122 0 -197 -93 -197 -288zM190 781v62h316v-62h-316z" />
    <glyph glyph-name="omacron" unicode="&#x14d;" horiz-adv-x="536" 
d="M49 250c0 168 79 262 219 262c150 0 219 -104 219 -262c0 -168 -79 -262 -219 -262c-150 0 -219 104 -219 262zM132 250c0 -102 37 -192 136 -192c90 0 136 62 136 192c0 103 -37 192 -136 192c-89 0 -136 -62 -136 -192zM120 581v62h296v-62h-296z" />
    <glyph glyph-name="Obreve" unicode="&#x14e;" horiz-adv-x="684" 
d="M56 350c0 232 104 362 285 362c197 0 287 -144 287 -362c0 -232 -104 -362 -287 -362c-195 0 -285 144 -285 362zM144 350c0 -154 60 -288 197 -288c124 0 199 92 199 288c0 153 -60 288 -199 288c-122 0 -197 -93 -197 -288zM168 847l43 24c22 -45 72 -71 134 -71
c64 0 109 32 128 71l40 -19c-23 -77 -93 -122 -169 -122c-71 0 -145 36 -176 117z" />
    <glyph glyph-name="obreve" unicode="&#x14f;" horiz-adv-x="536" 
d="M49 250c0 168 79 262 219 262c150 0 219 -104 219 -262c0 -168 -79 -262 -219 -262c-150 0 -219 104 -219 262zM132 250c0 -102 37 -192 136 -192c90 0 136 62 136 192c0 103 -37 192 -136 192c-89 0 -136 -62 -136 -192zM116 697l45 23c24 -48 67 -77 112 -77
s84 28 106 77l42 -18c-7 -65 -70 -129 -149 -129c-74 0 -137 48 -156 124z" />
    <glyph glyph-name="Ohungarumlaut" unicode="&#x150;" horiz-adv-x="684" 
d="M56 350c0 232 104 362 285 362c197 0 287 -144 287 -362c0 -232 -104 -362 -287 -362c-195 0 -285 144 -285 362zM144 350c0 -154 60 -288 197 -288c124 0 199 92 199 288c0 153 -60 288 -199 288c-122 0 -197 -93 -197 -288zM242 741l64 109h93v-16l-100 -93h-57z
M366 741l102 109h99v-16l-143 -93h-58z" />
    <glyph glyph-name="ohungarumlaut" unicode="&#x151;" horiz-adv-x="536" 
d="M49 250c0 168 79 262 219 262c150 0 219 -104 219 -262c0 -168 -79 -262 -219 -262c-150 0 -219 104 -219 262zM132 250c0 -102 37 -192 136 -192c90 0 136 62 136 192c0 103 -37 192 -136 192c-89 0 -136 -62 -136 -192zM176 571l35 129h78v-16l-71 -113h-42zM284 571
l73 129h86v-16l-114 -113h-45z" />
    <glyph glyph-name="OE" unicode="&#x152;" horiz-adv-x="932" 
d="M481 79v539c-37 15 -89 20 -140 20c-122 0 -197 -93 -197 -288c0 -154 60 -288 205 -288c39 0 77 0 132 17zM481 0c-33 -7 -81 -12 -140 -12c-195 0 -285 144 -285 362c0 232 104 362 285 362c62 0 98 -5 140 -12h381v-74h-298v-229h273v-74h-273v-249h303v-74h-386z" />
    <glyph glyph-name="oe" unicode="&#x153;" horiz-adv-x="858" 
d="M132 246c0 -102 37 -193 136 -193c90 0 135 63 135 193c0 103 -36 192 -135 192c-89 0 -136 -62 -136 -192zM442 77c-36 -59 -95 -93 -174 -93c-150 0 -219 104 -219 262c0 168 79 262 219 262c83 0 141 -39 176 -92c35 55 96 92 175 92c91 0 190 -30 190 -197
c0 -22 -1 -46 -5 -73h-323c1 -116 44 -184 162 -184c46 0 96 18 119 39l30 -57c-40 -32 -104 -52 -172 -52c-82 0 -143 36 -178 93zM620 438c-77 0 -128 -38 -137 -137h248v9c0 92 -43 128 -111 128z" />
    <glyph glyph-name="Racute" unicode="&#x154;" horiz-adv-x="595" 
d="M85 0v693c51 10 123 15 178 15c122 0 230 -51 230 -193c0 -109 -67 -179 -159 -201l48 -37l174 -277h-97l-193 302l-98 15v-317h-83zM265 636c-34 0 -78 -1 -97 -6v-258h78c92 0 159 44 159 140c0 71 -53 124 -140 124zM202 752l118 118h114v-21l-163 -97h-69z" />
    <glyph glyph-name="racute" unicode="&#x155;" horiz-adv-x="340" 
d="M330 500l-17 -77c-21 7 -40 10 -57 10c-57 0 -91 -35 -99 -83v-350h-80v500h56l15 -61h4c25 45 59 71 113 71c19 0 40 -3 65 -10zM136 571l59 149h89v-21l-101 -128h-47z" />
    <glyph glyph-name="Rcommaaccent" unicode="&#x156;" horiz-adv-x="595" 
d="M85 0v693c51 10 123 15 178 15c122 0 230 -51 230 -193c0 -109 -67 -179 -159 -201l48 -37l174 -277h-97l-193 302l-98 15v-317h-83zM265 636c-34 0 -78 -1 -97 -6v-258h78c92 0 159 44 159 140c0 71 -53 124 -140 124zM239 -102c0 28 24 47 51 47c33 0 64 -22 64 -75
c0 -68 -54 -105 -80 -115l-28 32c26 14 44 37 44 69c-4 -1 -7 -1 -10 -1c-24 0 -41 18 -41 43z" />
    <glyph glyph-name="rcommaaccent" unicode="&#x157;" horiz-adv-x="340" 
d="M330 500l-17 -77c-21 7 -40 10 -57 10c-57 0 -91 -35 -99 -83v-350h-80v500h56l15 -61h4c25 45 59 71 113 71c19 0 40 -3 65 -10zM85 -102c0 28 24 47 51 47c33 0 64 -22 64 -75c0 -68 -54 -105 -80 -115l-28 32c26 14 44 37 44 69c-4 -1 -7 -1 -10 -1
c-24 0 -41 18 -41 43z" />
    <glyph glyph-name="Rcaron" unicode="&#x158;" horiz-adv-x="595" 
d="M85 0v693c51 10 123 15 178 15c122 0 230 -51 230 -193c0 -109 -67 -179 -159 -201l48 -37l174 -277h-97l-193 302l-98 15v-317h-83zM265 636c-34 0 -78 -1 -97 -6v-258h78c92 0 159 44 159 140c0 71 -53 124 -140 124zM410 848l-133 -102h-58l-127 103v21h82l59 -50
l17 -34l19 33l63 51h78v-22z" />
    <glyph glyph-name="rcaron" unicode="&#x159;" horiz-adv-x="340" 
d="M330 500l-17 -77c-21 7 -40 10 -57 10c-57 0 -91 -35 -99 -83v-350h-80v500h56l15 -61h4c25 45 59 71 113 71c19 0 40 -3 65 -10zM328 732l-123 -182h-37l-115 182h78l39 -66l21 -58l22 58l45 66h70z" />
    <glyph glyph-name="Sacute" unicode="&#x15a;" horiz-adv-x="531" 
d="M401 178c0 168 -338 124 -338 356c0 109 80 178 219 178c81 0 152 -14 189 -32l-25 -73c-31 15 -94 31 -168 31c-88 0 -132 -46 -132 -99c0 -155 338 -133 338 -354c0 -119 -89 -197 -238 -197c-100 0 -164 18 -200 37l28 75c30 -17 95 -38 169 -38c88 0 158 35 158 116z
M228 752l118 118h114v-21l-163 -97h-69z" />
    <glyph glyph-name="sacute" unicode="&#x15b;" horiz-adv-x="421" 
d="M297 136c0 119 -241 63 -241 237c0 95 58 139 155 139c72 0 118 -15 154 -32l-19 -65c-31 15 -76 27 -125 27c-58 0 -85 -18 -85 -67c0 -102 241 -57 241 -236c0 -86 -57 -151 -174 -151c-75 0 -128 17 -164 37l24 67c31 -17 85 -34 135 -34c57 0 99 20 99 78zM177 571
l59 149h89v-21l-101 -128h-47z" />
    <glyph glyph-name="Scircumflex" unicode="&#x15c;" horiz-adv-x="531" 
d="M401 178c0 168 -338 124 -338 356c0 109 80 178 219 178c81 0 152 -14 189 -32l-25 -73c-31 15 -94 31 -168 31c-88 0 -132 -46 -132 -99c0 -155 338 -133 338 -354c0 -119 -89 -197 -238 -197c-100 0 -164 18 -200 37l28 75c30 -17 95 -38 169 -38c88 0 158 35 158 116z
M119 769l133 101h60l127 -102v-21h-81l-60 49l-17 35l-19 -34l-64 -50h-79v22z" />
    <glyph glyph-name="scircumflex" unicode="&#x15d;" horiz-adv-x="421" 
d="M297 136c0 119 -241 63 -241 237c0 95 58 139 155 139c72 0 118 -15 154 -32l-19 -65c-31 15 -76 27 -125 27c-58 0 -85 -18 -85 -67c0 -102 241 -57 241 -236c0 -86 -57 -151 -174 -151c-75 0 -128 17 -164 37l24 67c31 -17 85 -34 135 -34c57 0 99 20 99 78zM78 550
l123 182h32l111 -182h-72l-39 66l-21 58l-22 -58l-45 -66h-67z" />
    <glyph glyph-name="Scedilla" unicode="&#x15e;" horiz-adv-x="531" 
d="M401 178c0 168 -338 124 -338 356c0 109 80 178 219 178c81 0 152 -14 189 -32l-25 -73c-31 15 -94 31 -168 31c-88 0 -132 -46 -132 -99c0 -155 338 -133 338 -354c0 -105 -69 -177 -186 -193l-19 -35c55 -10 79 -34 79 -75c0 -52 -45 -90 -122 -90c-14 0 -29 1 -45 4
l9 39c8 -1 15 -1 21 -1c58 0 63 23 63 39c0 20 -28 31 -86 37l41 78c-96 1 -158 18 -193 37l28 75c30 -17 95 -38 169 -38c88 0 158 35 158 116z" />
    <glyph glyph-name="scedilla" unicode="&#x15f;" horiz-adv-x="421" 
d="M297 136c0 119 -241 63 -241 237c0 95 58 139 155 139c72 0 118 -15 154 -32l-19 -65c-31 15 -76 27 -125 27c-58 0 -85 -18 -85 -67c0 -102 241 -57 241 -236c0 -78 -47 -138 -142 -149l-18 -33c55 -10 79 -34 79 -75c0 -52 -45 -90 -122 -90c-14 0 -29 1 -45 4l9 39
c8 -1 15 -1 21 -1c58 0 63 23 63 39c0 20 -28 31 -86 37l42 79c-62 3 -107 18 -139 36l24 67c31 -17 85 -33 135 -33c57 0 99 19 99 77z" />
    <glyph glyph-name="Scaron" unicode="&#x160;" horiz-adv-x="531" 
d="M401 178c0 168 -338 124 -338 356c0 109 80 178 219 178c81 0 152 -14 189 -32l-25 -73c-31 15 -94 31 -168 31c-88 0 -132 -46 -132 -99c0 -155 338 -133 338 -354c0 -119 -89 -197 -238 -197c-100 0 -164 18 -200 37l28 75c30 -17 95 -38 169 -38c88 0 158 35 158 116z
M455 848l-133 -102h-58l-127 103v21h82l59 -50l17 -34l19 33l63 51h78v-22z" />
    <glyph glyph-name="scaron" unicode="&#x161;" horiz-adv-x="421" 
d="M297 136c0 119 -241 63 -241 237c0 95 58 139 155 139c72 0 118 -15 154 -32l-19 -65c-31 15 -76 27 -125 27c-58 0 -85 -18 -85 -67c0 -102 241 -57 241 -236c0 -86 -57 -151 -174 -151c-75 0 -128 17 -164 37l24 67c31 -17 85 -34 135 -34c57 0 99 20 99 78zM348 732
l-123 -182h-37l-115 182h78l39 -66l21 -58l22 58l45 66h70z" />
    <glyph glyph-name="Tcedilla" unicode="&#x162;" horiz-adv-x="555" 
d="M250 0h-14v626h-218v74h519v-74h-218v-626h-12l-24 -43c55 -10 79 -34 79 -75c0 -52 -45 -90 -122 -90c-14 0 -29 1 -45 4l9 39c8 -1 15 -1 21 -1c58 0 63 23 63 39c0 20 -28 31 -86 37z" />
    <glyph glyph-name="tcedilla" unicode="&#x163;" horiz-adv-x="339" 
d="M11 430v70h78v99l80 23v-122h136v-70h-136v-277c0 -69 16 -95 57 -95c34 0 55 7 84 19l18 -60c-30 -14 -64 -25 -102 -29l-17 -31c55 -10 79 -34 79 -75c0 -52 -45 -90 -122 -90c-14 0 -29 1 -45 4l9 39c8 -1 15 -1 21 -1c58 0 63 23 63 39c0 20 -28 31 -86 37l42 80
c-59 10 -81 55 -81 148v292h-78z" />
    <glyph glyph-name="Tcaron" unicode="&#x164;" horiz-adv-x="555" 
d="M537 700v-74h-218v-626h-83v626h-218v74h519zM437 848l-133 -102h-58l-127 103v21h82l59 -50l17 -34l19 33l63 51h78v-22z" />
    <glyph glyph-name="tcaron" unicode="&#x165;" horiz-adv-x="339" 
d="M11 430v70h78v99l80 23v-122h136v-70h-136v-277c0 -69 16 -95 57 -95c34 0 55 7 84 19l18 -60c-36 -17 -79 -29 -128 -29c-81 0 -111 43 -111 150v292h-78zM231 714h80c-5 -78 -59 -167 -82 -191l-33 18c23 48 35 112 35 173z" />
    <glyph glyph-name="Tbar" unicode="&#x166;" horiz-adv-x="593" 
d="M556 700v-74h-218v-225h217v-74h-217v-327h-83v327h-216v74h216v225h-218v74h519z" />
    <glyph glyph-name="tbar" unicode="&#x167;" horiz-adv-x="375" 
d="M34 434v66h78v99l80 23v-122h136v-66h-136v-141h136v-64h-136v-75c0 -69 16 -96 58 -96c33 0 54 8 84 20l18 -61c-36 -17 -80 -29 -129 -29c-80 0 -111 43 -111 150v91h-78v64h78v141h-78z" />
    <glyph glyph-name="Utilde" unicode="&#x168;" horiz-adv-x="652" 
d="M487 256v444h80v-467c0 -169 -92 -242 -232 -242c-164 0 -250 75 -250 226v483h83v-444c0 -142 56 -191 168 -191c107 0 151 56 151 191zM193 744l-24 41c41 42 76 55 108 55c51 0 94 -33 135 -33c17 0 33 6 50 21l25 -43c-36 -33 -68 -44 -96 -44c-50 0 -91 33 -134 33
c-21 0 -41 -7 -64 -30z" />
    <glyph glyph-name="utilde" unicode="&#x169;" horiz-adv-x="539" 
d="M69 500h80v-285c0 -105 20 -157 98 -157c71 0 113 49 135 108v334h80v-358c0 -48 3 -103 11 -142h-55l-20 79h-5c-30 -52 -82 -91 -161 -91c-107 0 -163 45 -163 210v302zM154 614l-23 42c39 44 71 58 97 58c45 0 76 -40 112 -40c14 0 29 7 46 24l24 -43
c-35 -38 -63 -50 -87 -50c-43 0 -74 40 -112 40c-17 0 -35 -9 -57 -31z" />
    <glyph glyph-name="Umacron" unicode="&#x16a;" horiz-adv-x="652" 
d="M487 256v444h80v-467c0 -169 -92 -242 -232 -242c-164 0 -250 75 -250 226v483h83v-444c0 -142 56 -191 168 -191c107 0 151 56 151 191zM170 781v62h316v-62h-316z" />
    <glyph glyph-name="umacron" unicode="&#x16b;" horiz-adv-x="539" 
d="M69 500h80v-285c0 -105 20 -157 98 -157c71 0 113 49 135 108v334h80v-358c0 -48 3 -103 11 -142h-55l-20 79h-5c-30 -52 -82 -91 -161 -91c-107 0 -163 45 -163 210v302zM122 581v62h296v-62h-296z" />
    <glyph glyph-name="Ubreve" unicode="&#x16c;" horiz-adv-x="652" 
d="M487 256v444h80v-467c0 -169 -92 -242 -232 -242c-164 0 -250 75 -250 226v483h83v-444c0 -142 56 -191 168 -191c107 0 151 56 151 191zM154 847l43 24c22 -45 72 -71 134 -71c64 0 109 32 128 71l40 -19c-23 -77 -93 -122 -169 -122c-71 0 -145 36 -176 117z" />
    <glyph glyph-name="ubreve" unicode="&#x16d;" horiz-adv-x="539" 
d="M69 500h80v-285c0 -105 20 -157 98 -157c71 0 113 49 135 108v334h80v-358c0 -48 3 -103 11 -142h-55l-20 79h-5c-30 -52 -82 -91 -161 -91c-107 0 -163 45 -163 210v302zM117 697l45 23c24 -48 67 -77 112 -77s84 28 106 77l42 -18c-7 -65 -70 -129 -149 -129
c-74 0 -137 48 -156 124z" />
    <glyph glyph-name="Uring" unicode="&#x16e;" horiz-adv-x="652" 
d="M487 256v444h80v-467c0 -169 -92 -242 -232 -242c-164 0 -250 75 -250 226v483h83v-444c0 -142 56 -191 168 -191c107 0 151 56 151 191zM225 768c0 49 32 85 105 85c66 0 106 -30 106 -85c0 -48 -36 -83 -106 -83c-68 0 -105 32 -105 83zM286 768c0 -22 13 -40 44 -40
c29 0 45 16 45 40c0 25 -15 42 -45 42c-29 0 -44 -17 -44 -42z" />
    <glyph glyph-name="uring" unicode="&#x16f;" horiz-adv-x="539" 
d="M69 500h80v-285c0 -105 20 -157 98 -157c71 0 113 49 135 108v334h80v-358c0 -48 3 -103 11 -142h-55l-20 79h-5c-30 -52 -82 -91 -161 -91c-107 0 -163 45 -163 210v302zM172 643c0 55 39 91 97 91c55 0 98 -29 98 -91c0 -52 -42 -90 -98 -90s-97 33 -97 90zM226 643
c0 -26 21 -42 43 -42c25 0 44 13 44 42s-21 43 -44 43c-22 0 -43 -13 -43 -43z" />
    <glyph glyph-name="Uhungarumlaut" unicode="&#x170;" horiz-adv-x="652" 
d="M487 256v444h80v-467c0 -169 -92 -242 -232 -242c-164 0 -250 75 -250 226v483h83v-444c0 -142 56 -191 168 -191c107 0 151 56 151 191zM213 741l64 109h93v-16l-100 -93h-57zM337 741l102 109h99v-16l-143 -93h-58z" />
    <glyph glyph-name="uhungarumlaut" unicode="&#x171;" horiz-adv-x="539" 
d="M69 500h80v-285c0 -105 20 -157 98 -157c71 0 113 49 135 108v334h80v-358c0 -48 3 -103 11 -142h-55l-20 79h-5c-30 -52 -82 -91 -161 -91c-107 0 -163 45 -163 210v302zM175 571l35 129h78v-16l-71 -113h-42zM283 571l73 129h86v-16l-114 -113h-45z" />
    <glyph glyph-name="Uogonek" unicode="&#x172;" horiz-adv-x="652" 
d="M487 256v444h80v-467c0 -128 -54 -201 -140 -229c-38 -21 -60 -52 -60 -91c0 -27 18 -52 51 -52c12 0 25 3 40 10l11 -43c-20 -16 -58 -23 -86 -23c-60 0 -99 35 -99 89c0 40 22 74 60 97h-10c-164 0 -249 75 -249 226v483h83v-444c0 -142 56 -191 168 -191
c107 0 151 56 151 191z" />
    <glyph glyph-name="uogonek" unicode="&#x173;" horiz-adv-x="539" 
d="M69 500h80v-285c0 -105 20 -157 98 -157c71 0 113 49 135 108v334h80v-358c0 -48 3 -103 11 -142h-17c-42 -18 -60 -49 -60 -87c0 -27 18 -51 51 -51c12 0 25 3 40 10l11 -43c-20 -16 -58 -24 -86 -24c-59 0 -99 35 -99 89s38 94 101 116l-16 69h-5
c-30 -52 -82 -91 -161 -91c-107 0 -163 45 -163 210v302z" />
    <glyph glyph-name="Wcircumflex" unicode="&#x174;" horiz-adv-x="828" 
d="M96 700l126 -469l16 -116h1l17 118l144 467h40l145 -469l17 -116h1l18 118l118 467h81l-195 -711h-46l-142 469l-18 106h-5l-18 -107l-142 -468h-46l-200 711h88zM257 769l133 101h60l127 -102v-21h-81l-60 49l-17 35l-19 -34l-64 -50h-79v22z" />
    <glyph glyph-name="wcircumflex" unicode="&#x175;" horiz-adv-x="735" 
d="M343 500h58l115 -292l25 -96h2l19 98l89 290h76l-168 -511h-39l-131 330l-19 82h-3l-20 -83l-126 -329h-39l-174 511h87l99 -291l17 -97h1l24 99zM236 550l123 182h32l111 -182h-72l-39 66l-21 58l-22 -58l-45 -66h-67z" />
    <glyph glyph-name="Ycircumflex" unicode="&#x176;" horiz-adv-x="558" 
d="M239 0v278l-231 422h97l164 -306l17 -61h1l18 63l157 304h89l-229 -421v-279h-83zM122 769l133 101h60l127 -102v-21h-81l-60 49l-17 35l-19 -34l-64 -50h-79v22z" />
    <glyph glyph-name="ycircumflex" unicode="&#x177;" horiz-adv-x="466" 
d="M104 500l120 -324l28 -96h5l22 97l97 323h81l-148 -449c-44 -131 -85 -256 -173 -256c-24 0 -43 3 -59 10l14 69c8 -3 17 -5 25 -5c37 0 75 35 97 131l-201 500h92zM106 550l123 182h32l111 -182h-72l-39 66l-21 58l-22 -58l-45 -66h-67z" />
    <glyph glyph-name="Ydieresis" unicode="&#x178;" horiz-adv-x="558" 
d="M239 0v278l-231 422h97l164 -306l17 -61h1l18 63l157 304h89l-229 -421v-279h-83zM133 794c0 28 22 47 54 47c30 0 52 -19 52 -47c0 -27 -22 -46 -52 -46c-32 0 -54 19 -54 46zM325 794c0 28 22 47 52 47c32 0 54 -19 54 -47c0 -27 -22 -46 -54 -46c-30 0 -52 19 -52 46z
" />
    <glyph glyph-name="Zacute" unicode="&#x179;" 
d="M38 0v75l353 511l42 40h-395v74h470v-75l-355 -514l-42 -37h397v-74h-470zM211 752l118 118h114v-21l-163 -97h-69z" />
    <glyph glyph-name="zacute" unicode="&#x17a;" horiz-adv-x="447" 
d="M42 0v70l231 318l42 42h-273v70h356v-70l-233 -321l-41 -39h274v-70h-356zM177 571l59 149h89v-21l-101 -128h-47z" />
    <glyph glyph-name="Zdotaccent" unicode="&#x17b;" 
d="M38 0v75l353 511l42 40h-395v74h470v-75l-355 -514l-42 -37h397v-74h-470zM211 797c0 28 24 52 62 52c39 0 64 -24 64 -52c0 -30 -25 -53 -64 -53c-38 0 -62 23 -62 53z" />
    <glyph glyph-name="zdotaccent" unicode="&#x17c;" horiz-adv-x="447" 
d="M42 0v70l231 318l42 42h-273v70h356v-70l-233 -321l-41 -39h274v-70h-356zM173 652c0 30 23 56 55 56s58 -26 58 -56s-26 -53 -58 -53s-55 23 -55 53z" />
    <glyph glyph-name="Zcaron" unicode="&#x17d;" 
d="M38 0v75l353 511l42 40h-395v74h470v-75l-355 -514l-42 -37h397v-74h-470zM419 848l-133 -102h-58l-127 103v21h82l59 -50l17 -34l19 33l63 51h78v-22z" />
    <glyph glyph-name="zcaron" unicode="&#x17e;" horiz-adv-x="447" 
d="M42 0v70l231 318l42 42h-273v70h356v-70l-233 -321l-41 -39h274v-70h-356zM358 732l-123 -182h-37l-115 182h78l39 -66l21 -58l22 58l45 66h70z" />
    <glyph glyph-name="longs" unicode="&#x17f;" horiz-adv-x="249" 
d="M22 430v70h78v28c0 124 37 178 144 178c42 0 71 -4 107 -19l-18 -66c-31 13 -58 15 -82 15c-65 0 -71 -37 -71 -107v-529h-80v430h-78z" />
    <glyph glyph-name="uni018F" unicode="&#x18f;" horiz-adv-x="639" 
d="M500 322h-355c-3 -18 -4 -35 -4 -53c0 -108 49 -211 166 -211c123 0 192 91 193 264zM63 392h437c-12 170 -78 246 -215 246c-61 0 -125 -23 -155 -41l-21 67c40 24 110 48 192 48c180 0 282 -105 282 -362c0 -231 -92 -362 -277 -362c-166 0 -253 112 -253 291
c0 35 3 73 10 113z" />
    <glyph glyph-name="florin" unicode="&#x192;" 
d="M447 430h-131l-79 -464c-16 -98 -56 -174 -156 -174c-38 0 -83 11 -115 24l21 65c31 -13 56 -19 88 -19c51 0 73 41 90 146l68 422h-85v70h96l11 67c16 98 51 145 147 145c44 0 88 -11 121 -25l-23 -64c-31 13 -61 19 -92 19c-50 0 -62 -27 -74 -101l-7 -41h120v-70z" />
    <glyph glyph-name="uni01DD" unicode="&#x1dd;" horiz-adv-x="507" 
d="M95 402l-30 58c40 32 104 52 172 52c153 0 221 -104 221 -262c0 -168 -80 -262 -212 -262c-88 0 -197 46 -197 220c0 21 2 43 5 68h326c-7 113 -48 166 -166 166c-45 0 -95 -19 -119 -40zM248 58c73 0 130 53 130 155h-251v-15c0 -93 52 -140 121 -140z" />
    <glyph glyph-name="Gcaron" unicode="&#x1e6;" horiz-adv-x="612" 
d="M321 302v47h235v-308c-43 -33 -123 -53 -193 -53c-178 0 -307 113 -307 362c0 259 164 362 314 362c79 0 129 -10 165 -24l-21 -73c-31 15 -78 23 -137 23c-111 0 -233 -72 -233 -288c0 -197 95 -288 232 -288c42 0 80 9 109 25v195zM525 848l-133 -102h-58l-127 103v21
h82l59 -50l17 -34l19 33l63 51h78v-22z" />
    <glyph glyph-name="gcaron" unicode="&#x1e7;" horiz-adv-x="537" 
d="M460 479v-502c0 -128 -70 -189 -204 -189c-79 0 -124 11 -159 27l21 67c31 -12 65 -24 124 -24c111 0 139 41 139 143v48h-4c-27 -39 -66 -60 -132 -60c-134 0 -196 83 -196 259c0 170 83 261 241 261c75 0 127 -14 170 -30zM259 59c68 0 105 34 121 105v257
c-25 12 -59 18 -102 18c-90 0 -146 -60 -146 -190c0 -112 34 -190 127 -190zM407 732l-123 -182h-37l-115 182h78l39 -66l21 -58l22 58l45 66h70z" />
    <glyph glyph-name="uni01F4" unicode="&#x1f4;" horiz-adv-x="612" 
d="M321 302v47h235v-308c-43 -33 -123 -53 -193 -53c-178 0 -307 113 -307 362c0 259 164 362 314 362c79 0 129 -10 165 -24l-21 -73c-31 15 -78 23 -137 23c-111 0 -233 -72 -233 -288c0 -197 95 -288 232 -288c42 0 80 9 109 25v195zM310 752l118 118h114v-21l-163 -97
h-69z" />
    <glyph glyph-name="uni01F5" unicode="&#x1f5;" horiz-adv-x="537" 
d="M460 479v-502c0 -128 -70 -189 -204 -189c-79 0 -124 11 -159 27l21 67c31 -12 65 -24 124 -24c111 0 139 41 139 143v48h-4c-27 -39 -66 -60 -132 -60c-134 0 -196 83 -196 259c0 170 83 261 241 261c75 0 127 -14 170 -30zM259 59c68 0 105 34 121 105v257
c-25 12 -59 18 -102 18c-90 0 -146 -60 -146 -190c0 -112 34 -190 127 -190zM245 571l59 149h89v-21l-101 -128h-47z" />
    <glyph glyph-name="Aringacute" unicode="&#x1fa;" horiz-adv-x="585" 
d="M188 768c0 49 32 85 105 85c66 0 106 -30 106 -85c0 -42 -27 -73 -79 -81l257 -687h-87l-72 194h-258l-70 -194h-82l256 687c-50 8 -76 38 -76 81zM264 477l-77 -211h206l-78 213l-25 106h-1zM249 768c0 -22 13 -40 44 -40c29 0 45 16 45 40c0 25 -15 42 -45 42
c-29 0 -44 -17 -44 -42zM243 882l118 118h114v-21l-163 -97h-69z" />
    <glyph glyph-name="aringacute" unicode="&#x1fb;" horiz-adv-x="496" 
d="M94 404l-25 59c50 30 121 45 194 45c139 0 159 -83 159 -154c0 -80 -6 -157 -6 -225c0 -49 3 -94 14 -131h-59l-21 70h-5c-24 -36 -71 -76 -156 -76s-150 55 -150 142c0 117 101 153 247 153c18 0 36 0 55 -2c2 20 3 38 3 54c0 74 -24 99 -102 99
c-44 0 -111 -13 -148 -34zM211 62c76 0 116 44 130 79v83c-19 1 -38 2 -57 2c-83 0 -162 -17 -162 -84c0 -47 37 -80 89 -80zM151 641c0 55 39 91 97 91c55 0 98 -29 98 -91c0 -52 -42 -90 -98 -90s-97 33 -97 90zM205 641c0 -26 21 -42 43 -42c25 0 44 13 44 42
s-21 43 -44 43c-22 0 -43 -13 -43 -43zM192 752l118 118h114v-21l-163 -97h-69z" />
    <glyph glyph-name="AEacute" unicode="&#x1fc;" horiz-adv-x="846" 
d="M395 600h-4l-34 -103l-133 -229h171v332zM395 0v198h-214l-112 -198h-91l415 700h383v-74h-298v-229h273v-74h-273v-249h303v-74h-386zM424 752l118 118h114v-21l-163 -97h-69z" />
    <glyph glyph-name="aeacute" unicode="&#x1fd;" horiz-adv-x="796" 
d="M211 62c76 0 116 44 130 79v83c-19 1 -38 2 -57 2c-83 0 -162 -17 -162 -84c0 -47 37 -80 89 -80zM374 84h-7c-34 -47 -89 -92 -178 -92c-85 0 -150 55 -150 142c0 117 101 153 247 153c18 0 36 0 55 -2c1 20 3 38 3 54c0 74 -24 99 -102 99c-44 0 -111 -13 -148 -34
l-25 59c50 30 121 45 194 45c69 0 116 -23 136 -65c34 48 100 69 158 69c91 0 190 -31 190 -199c0 -21 -2 -45 -5 -71h-323c0 -116 44 -184 161 -184c46 0 96 18 120 39l30 -57c-40 -32 -104 -52 -172 -52c-81 0 -152 35 -184 96zM558 442c-78 0 -129 -38 -137 -137h248v12
c0 90 -45 125 -111 125zM366 571l59 149h89v-21l-101 -128h-47z" />
    <glyph glyph-name="Oslashacute" unicode="&#x1fe;" horiz-adv-x="684" 
d="M75 24l47 67c-45 63 -66 152 -66 259c0 232 104 362 285 362c75 0 134 -21 179 -59l42 60l52 -35l-51 -72c44 -63 65 -151 65 -256c0 -232 -104 -362 -287 -362c-73 0 -131 20 -175 56l-39 -56zM144 350c0 -67 11 -129 35 -179l290 411c-31 35 -73 56 -128 56
c-122 0 -197 -93 -197 -288zM540 350c0 64 -11 126 -34 175l-290 -411c31 -33 72 -52 125 -52c124 0 199 92 199 288zM299 752l118 118h114v-21l-163 -97h-69z" />
    <glyph glyph-name="oslashacute" unicode="&#x1ff;" horiz-adv-x="536" 
d="M49 250c0 168 79 262 219 262c49 0 90 -11 122 -32l26 35l50 -37l-29 -42c34 -45 50 -109 50 -186c0 -168 -79 -262 -219 -262c-52 0 -95 12 -128 35l-27 -37l-52 38l33 46c-30 45 -45 107 -45 180zM404 250c0 42 -6 83 -21 115l-199 -277c21 -19 48 -30 84 -30
c90 0 136 62 136 192zM132 250c0 -40 6 -78 18 -109l197 274c-20 17 -46 27 -79 27c-89 0 -136 -62 -136 -192zM228 571l59 149h89v-21l-101 -128h-47z" />
    <glyph glyph-name="Scommaaccent" unicode="&#x218;" horiz-adv-x="531" 
d="M401 178c0 168 -338 124 -338 356c0 109 80 178 219 178c81 0 152 -14 189 -32l-25 -73c-31 15 -94 31 -168 31c-88 0 -132 -46 -132 -99c0 -155 338 -133 338 -354c0 -119 -89 -197 -238 -197c-100 0 -164 18 -200 37l28 75c30 -17 95 -38 169 -38c88 0 158 35 158 116z
M203 -102c0 28 24 47 51 47c33 0 64 -22 64 -75c0 -68 -54 -105 -80 -115l-28 32c26 14 44 37 44 69c-4 -1 -7 -1 -10 -1c-24 0 -41 18 -41 43z" />
    <glyph glyph-name="scommaaccent" unicode="&#x219;" horiz-adv-x="421" 
d="M297 136c0 119 -241 63 -241 237c0 95 58 139 155 139c72 0 118 -15 154 -32l-19 -65c-31 15 -76 27 -125 27c-58 0 -85 -18 -85 -67c0 -102 241 -57 241 -236c0 -86 -57 -151 -174 -151c-75 0 -128 17 -164 37l24 67c31 -17 85 -34 135 -34c57 0 99 20 99 78zM154 -102
c0 28 24 47 51 47c33 0 64 -22 64 -75c0 -68 -54 -105 -80 -115l-28 32c26 14 44 37 44 69c-4 -1 -7 -1 -10 -1c-24 0 -41 18 -41 43z" />
    <glyph glyph-name="Tcommaaccent" unicode="&#x21a;" horiz-adv-x="555" 
d="M537 700v-74h-218v-626h-83v626h-218v74h519zM218 -102c0 28 24 47 51 47c33 0 64 -22 64 -75c0 -68 -54 -105 -80 -115l-28 32c26 14 44 37 44 69c-4 -1 -7 -1 -10 -1c-24 0 -41 18 -41 43z" />
    <glyph glyph-name="tcommaaccent" unicode="&#x21b;" horiz-adv-x="339" 
d="M11 430v70h78v99l80 23v-122h136v-70h-136v-277c0 -69 16 -95 57 -95c34 0 55 7 84 19l18 -60c-36 -17 -79 -29 -128 -29c-81 0 -111 43 -111 150v292h-78zM130 -102c0 28 24 47 51 47c33 0 64 -22 64 -75c0 -68 -54 -105 -80 -115l-28 32c26 14 44 37 44 69
c-4 -1 -7 -1 -10 -1c-24 0 -41 18 -41 43z" />
    <glyph glyph-name="uni0237" unicode="&#x237;" horiz-adv-x="267" 
d="M93 3v497h80v-527c0 -123 -41 -185 -134 -185c-10 0 -19 1 -30 2v68c75 0 84 46 84 145z" />
    <glyph glyph-name="uni0259" unicode="&#x259;" horiz-adv-x="507" 
d="M95 402l-30 58c40 32 104 52 172 52c153 0 221 -104 221 -262c0 -168 -80 -262 -212 -262c-88 0 -197 46 -197 220c0 21 2 43 5 68h326c-7 113 -48 166 -166 166c-45 0 -95 -19 -119 -40zM248 58c73 0 130 53 130 155h-251v-15c0 -93 52 -140 121 -140z" />
    <glyph glyph-name="afii57929" unicode="&#x2bc;" horiz-adv-x="194" 
d="M40 659c0 30 22 49 52 49c37 0 63 -23 63 -70c0 -88 -57 -127 -87 -138l-25 34c30 16 49 39 49 77c-4 -1 -7 -1 -11 -1c-25 0 -41 20 -41 49z" />
    <glyph glyph-name="circumflex" unicode="&#x2c6;" horiz-adv-x="386" 
d="M60 550l123 182h32l111 -182h-72l-39 66l-21 58l-22 -58l-45 -66h-67z" />
    <glyph glyph-name="caron" unicode="&#x2c7;" horiz-adv-x="395" 
d="M335 732l-123 -182h-37l-115 182h78l39 -66l21 -58l22 58l45 66h70z" />
    <glyph glyph-name="breve" unicode="&#x2d8;" horiz-adv-x="425" 
d="M60 697l45 23c24 -48 67 -77 112 -77s84 28 106 77l42 -18c-7 -65 -70 -129 -149 -129c-74 0 -137 48 -156 124z" />
    <glyph glyph-name="dotaccent" unicode="&#x2d9;" horiz-adv-x="233" 
d="M60 652c0 30 23 56 55 56s58 -26 58 -56s-26 -53 -58 -53s-55 23 -55 53z" />
    <glyph glyph-name="ring" unicode="&#x2da;" horiz-adv-x="315" 
d="M60 643c0 55 39 91 97 91c55 0 98 -29 98 -91c0 -52 -42 -90 -98 -90s-97 33 -97 90zM114 643c0 -26 21 -42 43 -42c25 0 44 13 44 42s-21 43 -44 43c-22 0 -43 -13 -43 -43z" />
    <glyph glyph-name="ogonek" unicode="&#x2db;" horiz-adv-x="305" 
d="M163 10h55c-46 -21 -75 -54 -75 -97c0 -27 18 -51 51 -51c12 0 25 3 40 10l11 -43c-20 -16 -58 -24 -86 -24c-60 0 -99 35 -99 89s40 94 103 116z" />
    <glyph glyph-name="tilde" unicode="&#x2dc;" horiz-adv-x="399" 
d="M83 614l-23 42c39 44 71 58 97 58c45 0 76 -40 112 -40c14 0 29 7 46 24l24 -43c-35 -38 -63 -50 -87 -50c-43 0 -74 40 -112 40c-17 0 -35 -9 -57 -31z" />
    <glyph glyph-name="hungarumlaut" unicode="&#x2dd;" horiz-adv-x="387" 
d="M60 571l35 129h78v-16l-71 -113h-42zM168 571l73 129h86v-16l-114 -113h-45z" />
    <glyph glyph-name="gravecomb" unicode="&#x300;" horiz-adv-x="2" 
d="M-257 720l65 -149h-45l-115 128v21h95z" />
    <glyph glyph-name="acutecomb" unicode="&#x301;" horiz-adv-x="2" 
d="M-291 571l59 149h89v-21l-101 -128h-47z" />
    <glyph glyph-name="uni0394" unicode="&#x394;" horiz-adv-x="568" 
d="M558 0h-544v37l254 674h34l256 -674v-37zM253 473l-147 -401h355l-155 403l-24 105h-1z" />
    <glyph glyph-name="uni0394" unicode="&#x2206;" horiz-adv-x="568" 
d="M558 0h-544v37l254 674h34l256 -674v-37zM253 473l-147 -401h355l-155 403l-24 105h-1z" />
    <glyph glyph-name="uni03A9" unicode="&#x3a9;" horiz-adv-x="802" 
d="M76 0v70h116l94 -10v26l-54 10c-85 41 -156 142 -156 280c0 208 126 336 324 336c208 0 326 -141 326 -340c0 -143 -83 -235 -155 -275l-57 -11v-26l96 10h116v-70h-287v125c79 15 199 81 199 252c0 127 -70 261 -239 261c-150 0 -235 -91 -235 -264
c0 -167 110 -236 198 -249v-125h-286z" />
    <glyph glyph-name="uni03A9" unicode="&#x2126;" horiz-adv-x="802" 
d="M76 0v70h116l94 -10v26l-54 10c-85 41 -156 142 -156 280c0 208 126 336 324 336c208 0 326 -141 326 -340c0 -143 -83 -235 -155 -275l-57 -11v-26l96 10h116v-70h-287v125c79 15 199 81 199 252c0 127 -70 261 -239 261c-150 0 -235 -91 -235 -264
c0 -167 110 -236 198 -249v-125h-286z" />
    <glyph glyph-name="pi" unicode="&#x3c0;" horiz-adv-x="664" 
d="M514 430v-314c0 -37 13 -50 32 -50c13 0 32 3 44 6l19 -54c-21 -9 -53 -22 -93 -22c-67 0 -82 41 -82 110v324h-190v-430h-80v430h-14c-28 0 -43 -16 -61 -45l-53 32c25 51 58 83 128 83h433v-70h-83z" />
    <glyph glyph-name="afii10023" unicode="&#x401;" horiz-adv-x="536" 
d="M85 0v700h381v-74h-298v-229h273v-74h-273v-249h303v-74h-386zM120 794c0 28 22 47 54 47c30 0 52 -19 52 -47c0 -27 -22 -46 -52 -46c-32 0 -54 19 -54 46zM312 794c0 28 22 47 52 47c32 0 54 -19 54 -47c0 -27 -22 -46 -54 -46c-30 0 -52 19 -52 46z" />
    <glyph glyph-name="afii10051" unicode="&#x402;" horiz-adv-x="728" 
d="M319 342v-342h-83v626h-218v74h519v-74h-218v-211c16 5 65 21 139 21c106 0 214 -45 214 -210c0 -160 -85 -234 -233 -234c-44 0 -60 1 -70 3v72c17 -2 34 -3 73 -3c93 0 142 52 142 156c0 113 -67 144 -152 144c-47 0 -98 -16 -113 -22z" />
    <glyph glyph-name="afii10052" unicode="&#x403;" horiz-adv-x="442" 
d="M460 700v-74h-292v-626h-83v700h375zM197 752l118 118h114v-21l-163 -97h-69z" />
    <glyph glyph-name="afii10053" unicode="&#x404;" horiz-adv-x="583" 
d="M523 94l21 -65c-40 -31 -110 -41 -179 -41c-168 0 -309 111 -309 362c0 261 160 362 309 362c79 0 133 -10 169 -24l-20 -74c-31 15 -83 24 -142 24c-103 0 -211 -63 -227 -240h306v-74h-307c9 -175 114 -262 240 -262c59 0 110 13 139 32z" />
    <glyph glyph-name="afii10054" unicode="&#x405;" horiz-adv-x="531" 
d="M401 178c0 168 -338 124 -338 356c0 109 80 178 219 178c81 0 152 -14 189 -32l-25 -73c-31 15 -94 31 -168 31c-88 0 -132 -46 -132 -99c0 -155 338 -133 338 -354c0 -119 -89 -197 -238 -197c-100 0 -164 18 -200 37l28 75c30 -17 95 -38 169 -38c88 0 158 35 158 116z
" />
    <glyph glyph-name="afii10055" unicode="&#x406;" horiz-adv-x="291" 
d="M104 0v700h83v-700h-83z" />
    <glyph glyph-name="afii10056" unicode="&#x407;" horiz-adv-x="293" 
d="M32 793c0 29 22 48 51 48c28 0 50 -19 50 -48s-22 -47 -50 -47c-29 0 -51 18 -51 47zM161 793c0 29 22 48 50 48c29 0 51 -19 51 -48s-22 -47 -51 -47c-28 0 -50 18 -50 47zM105 0v700h83v-700h-83z" />
    <glyph glyph-name="afii10057" unicode="&#x408;" horiz-adv-x="291" 
d="M112 174v526h83v-546c0 -106 -48 -164 -143 -164c-22 0 -66 6 -86 16l16 71c17 -8 38 -13 61 -13c56 0 69 42 69 110z" />
    <glyph glyph-name="afii10058" unicode="&#x409;" horiz-adv-x="926" 
d="M456 7v619h-209c-13 -265 -32 -441 -76 -539c-29 -64 -70 -92 -117 -92c-24 0 -40 3 -56 10l11 72c7 -2 14 -3 21 -3c22 0 45 12 66 52c38 71 66 234 73 574h370v-272c14 3 68 8 99 8c127 0 254 -45 254 -210c0 -160 -119 -234 -273 -234c-37 0 -112 2 -163 15zM630 64
c96 0 174 51 174 156c0 113 -86 144 -177 144c-24 0 -74 -5 -88 -9v-285c19 -4 58 -6 91 -6z" />
    <glyph glyph-name="afii10059" unicode="&#x40a;" horiz-adv-x="974" 
d="M504 6v330h-336v-336h-83v700h83v-290h336v290h83v-291c14 3 69 8 100 8c126 0 253 -35 253 -200c0 -161 -119 -225 -273 -225c-37 0 -112 3 -163 14zM678 64c97 0 174 42 174 146c0 113 -84 135 -177 135c-24 0 -75 -5 -88 -9v-266c18 -4 58 -6 91 -6z" />
    <glyph glyph-name="afii10060" unicode="&#x40b;" horiz-adv-x="750" 
d="M319 320v-320h-83v626h-218v74h519v-74h-218v-231c36 20 98 45 172 45c113 0 191 -46 191 -196v-244h-83v229c0 93 -41 137 -124 137c-63 0 -121 -18 -156 -46z" />
    <glyph glyph-name="afii10061" unicode="&#x40c;" horiz-adv-x="610" 
d="M470 0l-255 324h-47v-324h-83v700h83v-326l45 14l235 312h96l-234 -301l-42 -33l51 -40l256 -326h-105zM223 752l118 118h114v-21l-163 -97h-69z" />
    <glyph glyph-name="afii10062" unicode="&#x40e;" horiz-adv-x="553" 
d="M103 700l179 -369l26 -89h5l20 92l134 366h85l-177 -455c-73 -188 -100 -250 -193 -250c-44 0 -66 7 -89 22l25 69c26 -15 49 -17 68 -17c37 0 61 39 80 113l-259 518h96zM122 850l79 20c5 -49 39 -77 92 -77s86 28 92 76l71 -17c-15 -72 -66 -117 -164 -117
c-94 0 -159 36 -170 115z" />
    <glyph glyph-name="afii10145" unicode="&#x40f;" horiz-adv-x="659" 
d="M285 0h-200v700h83v-626h323v626h83v-700h-202l-15 -179h-52z" />
    <glyph glyph-name="afii10017" unicode="&#x410;" horiz-adv-x="585" 
d="M490 0l-72 194h-258l-70 -194h-82l265 711h38l266 -711h-87zM264 477l-77 -211h206l-78 213l-25 106h-1z" />
    <glyph glyph-name="afii10018" unicode="&#x411;" horiz-adv-x="550" 
d="M85 7v693h380v-74h-297v-210c23 4 59 9 90 9c135 0 254 -44 254 -204s-120 -229 -256 -229c-45 0 -121 3 -171 15zM266 64c86 0 158 46 158 143c0 124 -82 146 -174 146c-24 0 -68 -5 -82 -8v-275c19 -5 64 -6 98 -6z" />
    <glyph glyph-name="afii10019" unicode="&#x412;" horiz-adv-x="584" 
d="M507 540c0 -67 -41 -142 -132 -165v-4c79 -14 153 -62 153 -172c0 -145 -130 -207 -261 -207c-45 0 -130 0 -182 13v689c49 8 116 14 193 14c103 0 229 -28 229 -168zM275 64c86 0 165 42 165 129c0 109 -97 129 -185 129h-87v-251c18 -4 74 -7 107 -7zM168 392h52
c23 0 60 1 81 4c63 21 118 62 118 127c0 89 -73 113 -149 113c-44 0 -83 -2 -102 -6v-238z" />
    <glyph glyph-name="afii10020" unicode="&#x413;" horiz-adv-x="442" 
d="M460 700v-74h-292v-626h-83v700h375z" />
    <glyph glyph-name="afii10021" unicode="&#x414;" horiz-adv-x="669" 
d="M641 74v-203h-57l-15 129h-491l-15 -129h-58v203h71c21 29 99 209 100 626h374v-626h91zM164 74h303v552h-213c-9 -294 -46 -464 -90 -552z" />
    <glyph glyph-name="afii10022" unicode="&#x415;" horiz-adv-x="536" 
d="M85 0v700h381v-74h-298v-229h273v-74h-273v-249h303v-74h-386z" />
    <glyph glyph-name="afii10024" unicode="&#x416;" horiz-adv-x="806" 
d="M358 386v314h80v-326l43 14l203 312h92l-202 -304l-40 -32l50 -41l223 -323h-102l-221 324h-46v-324h-80v336l-42 -14l-221 -322h-96l221 313l48 38l-46 35l-209 314h97l203 -314h45z" />
    <glyph glyph-name="afii10025" unicode="&#x417;" horiz-adv-x="541" 
d="M194 331h-55v70h16c24 0 73 1 95 5c69 11 126 52 126 117c0 87 -64 115 -141 115c-71 0 -123 -12 -153 -26l-22 66c26 15 103 34 189 34c107 0 215 -40 215 -172c0 -67 -44 -134 -132 -161v-4c94 -13 153 -72 153 -168c0 -153 -130 -219 -262 -219c-87 0 -142 11 -179 26
l21 75c31 -15 87 -27 165 -27c83 0 167 45 167 140c0 84 -65 120 -159 127c-16 1 -29 2 -44 2z" />
    <glyph glyph-name="afii10026" unicode="&#x418;" horiz-adv-x="681" 
d="M513 0v474l6 80h-4l-43 -82l-338 -472h-49v700h83v-480l-7 -79h4l44 82l338 477h49v-700h-83z" />
    <glyph glyph-name="afii10027" unicode="&#x419;" horiz-adv-x="681" 
d="M513 0v474l6 80h-4l-43 -82l-338 -472h-49v700h83v-480l-7 -79h4l44 82l338 477h49v-700h-83zM179 850l79 20c5 -49 39 -77 92 -77s86 28 92 76l71 -17c-15 -72 -66 -117 -164 -117c-94 0 -159 36 -170 115z" />
    <glyph glyph-name="afii10028" unicode="&#x41a;" horiz-adv-x="610" 
d="M470 0l-255 324h-47v-324h-83v700h83v-326l45 14l235 312h96l-234 -301l-42 -33l51 -40l256 -326h-105z" />
    <glyph glyph-name="afii10029" unicode="&#x41b;" horiz-adv-x="624" 
d="M456 0v626h-209c-13 -265 -32 -441 -76 -539c-29 -64 -70 -92 -117 -92c-24 0 -40 3 -56 10l11 72c7 -2 14 -3 21 -3c22 0 45 12 66 52c38 71 66 234 73 574h370v-700h-83z" />
    <glyph glyph-name="afii10030" unicode="&#x41c;" horiz-adv-x="791" 
d="M623 0v470l10 105h-5l-38 -96l-182 -316h-25l-193 317l-36 95h-5l14 -104v-471h-78v700h62l219 -358l33 -78h2l31 80l209 356h65v-700h-83z" />
    <glyph glyph-name="afii10031" unicode="&#x41d;" horiz-adv-x="672" 
d="M504 0v321h-336v-321h-83v700h83v-305h336v305h83v-700h-83z" />
    <glyph glyph-name="afii10032" unicode="&#x41e;" horiz-adv-x="684" 
d="M56 350c0 232 104 362 285 362c197 0 287 -144 287 -362c0 -232 -104 -362 -287 -362c-195 0 -285 144 -285 362zM144 350c0 -154 60 -288 197 -288c124 0 199 92 199 288c0 153 -60 288 -199 288c-122 0 -197 -93 -197 -288z" />
    <glyph glyph-name="afii10033" unicode="&#x41f;" horiz-adv-x="659" 
d="M491 0v626h-323v-626h-83v700h489v-700h-83z" />
    <glyph glyph-name="afii10034" unicode="&#x420;" horiz-adv-x="559" 
d="M85 0v693c50 12 112 15 169 15c123 0 268 -41 268 -215c0 -170 -134 -231 -272 -231c-13 0 -68 1 -82 4v-266h-83zM256 636c-34 0 -69 -1 -88 -6v-290c14 -4 64 -4 78 -4c91 0 188 28 188 157c0 110 -92 143 -178 143z" />
    <glyph glyph-name="afii10035" unicode="&#x421;" horiz-adv-x="571" 
d="M513 94l20 -65c-40 -31 -105 -41 -174 -41c-167 0 -303 111 -303 362c0 261 156 362 304 362c79 0 127 -10 163 -24l-20 -73c-31 15 -78 23 -137 23c-110 0 -222 -74 -222 -288c0 -192 102 -288 234 -288c59 0 104 13 135 32z" />
    <glyph glyph-name="afii10036" unicode="&#x422;" horiz-adv-x="555" 
d="M537 700v-74h-218v-626h-83v626h-218v74h519z" />
    <glyph glyph-name="afii10037" unicode="&#x423;" horiz-adv-x="553" 
d="M103 700l179 -369l26 -89h5l20 92l134 366h85l-177 -455c-73 -188 -100 -250 -193 -250c-44 0 -66 7 -89 22l25 69c26 -15 49 -17 68 -17c37 0 61 39 80 113l-259 518h96z" />
    <glyph glyph-name="afii10038" unicode="&#x424;" horiz-adv-x="780" 
d="M349 -20v98c-23 -4 -56 -5 -82 -5c-126 0 -226 84 -226 277c0 181 99 288 245 288c17 0 48 -1 63 -4v86h82v-89c24 6 62 7 83 7c128 0 225 -93 225 -278c0 -190 -110 -287 -243 -287c-14 0 -51 2 -65 7v-100h-82zM502 568c-18 0 -54 -1 -72 -7v-415c13 -3 38 -3 59 -3
c90 0 164 71 164 217c0 124 -58 208 -151 208zM282 143c14 0 49 0 68 6v415c-16 3 -42 4 -61 4c-91 0 -162 -73 -162 -218c0 -127 62 -207 155 -207z" />
    <glyph glyph-name="afii10039" unicode="&#x425;" horiz-adv-x="618" 
d="M26 0l233 356l-213 344h100l142 -237l25 -57l24 57l150 237h92l-220 -337l230 -363h-97l-158 251l-27 60l-26 -60l-162 -251h-93z" />
    <glyph glyph-name="afii10040" unicode="&#x426;" horiz-adv-x="687" 
d="M659 74v-203h-57l-15 129h-502v700h83v-626h315v626h83v-626h93z" />
    <glyph glyph-name="afii10041" unicode="&#x427;" horiz-adv-x="605" 
d="M75 700h83v-232c0 -93 41 -137 124 -137c62 0 121 18 155 46v323h83v-700h-83v302c-36 -20 -97 -45 -172 -45c-113 0 -190 46 -190 196v247z" />
    <glyph glyph-name="afii10042" unicode="&#x428;" horiz-adv-x="877" 
d="M792 0h-707v700h83v-626h229v626h83v-626h229v626h83v-700z" />
    <glyph glyph-name="afii10043" unicode="&#x429;" horiz-adv-x="913" 
d="M812 0h-727v700h83v-626h229v626h83v-626h229v626h83v-626h93v-203h-58z" />
    <glyph glyph-name="afii10044" unicode="&#x42a;" horiz-adv-x="630" 
d="M159 7v619h-160v74h243v-272c14 3 69 8 100 8c126 0 254 -45 254 -210c0 -160 -119 -234 -273 -234c-37 0 -112 2 -164 15zM334 64c95 0 174 51 174 156c0 113 -87 144 -178 144c-23 0 -75 -5 -88 -9v-285c18 -4 58 -6 92 -6z" />
    <glyph glyph-name="afii10045" unicode="&#x42b;" horiz-adv-x="769" 
d="M601 0v700h83v-700h-83zM85 7v693h83v-272c14 3 55 8 86 8c126 0 245 -45 245 -210c0 -161 -107 -234 -261 -234c-37 0 -102 2 -153 15zM245 64c96 0 166 52 166 156c0 113 -80 144 -170 144c-24 0 -59 -5 -73 -9v-285c18 -4 45 -6 77 -6z" />
    <glyph glyph-name="afii10046" unicode="&#x42c;" horiz-adv-x="555" 
d="M85 7v693h83v-272c14 3 68 8 99 8c127 0 254 -45 254 -210c0 -160 -119 -234 -273 -234c-37 0 -112 2 -163 15zM259 64c96 0 174 51 174 156c0 113 -86 144 -177 144c-24 0 -74 -5 -88 -9v-285c19 -4 58 -6 91 -6z" />
    <glyph glyph-name="afii10047" unicode="&#x42d;" horiz-adv-x="577" 
d="M150 321v74h287c-11 168 -105 243 -227 243c-62 0 -113 -12 -143 -30l-22 65c41 24 106 39 175 39c171 0 301 -103 301 -362c0 -262 -150 -362 -322 -362c-66 0 -118 11 -154 25l22 73c31 -15 84 -24 137 -24c108 0 226 66 234 259h-288z" />
    <glyph glyph-name="afii10048" unicode="&#x42e;" horiz-adv-x="893" 
d="M168 700v-305h124c11 203 104 317 274 317c196 0 271 -144 271 -362c0 -232 -89 -362 -271 -362c-185 0 -268 131 -275 333h-123v-321h-83v700h83zM379 350c0 -154 49 -288 187 -288c123 0 183 92 183 288c0 153 -44 288 -183 288c-123 0 -187 -93 -187 -288z" />
    <glyph glyph-name="afii10049" unicode="&#x42f;" horiz-adv-x="569" 
d="M484 693v-693h-83v305l-103 -22l-174 -283h-98l156 249l61 43c-95 21 -167 88 -167 204c0 162 118 212 260 212c45 0 99 -3 148 -15zM332 636c-87 0 -168 -30 -168 -140c0 -101 77 -143 169 -143h68v277c-18 4 -36 6 -69 6z" />
    <glyph glyph-name="afii10065" unicode="&#x430;" horiz-adv-x="496" 
d="M94 404l-25 59c50 30 121 45 194 45c139 0 159 -83 159 -154c0 -80 -6 -157 -6 -225c0 -49 3 -94 14 -131h-59l-21 70h-5c-24 -36 -71 -76 -156 -76s-150 55 -150 142c0 117 101 153 247 153c18 0 36 0 55 -2c2 20 3 38 3 54c0 74 -24 99 -102 99
c-44 0 -111 -13 -148 -34zM211 62c76 0 116 44 130 79v83c-19 1 -38 2 -57 2c-83 0 -162 -17 -162 -84c0 -47 37 -80 89 -80z" />
    <glyph glyph-name="afii10066" unicode="&#x431;" horiz-adv-x="536" 
d="M123 411c44 64 94 87 173 87c122 0 191 -82 191 -237c0 -179 -81 -273 -218 -273c-146 0 -220 98 -220 315c0 343 108 373 266 387c69 6 105 12 129 35l9 -72c-26 -23 -62 -31 -146 -37c-114 -8 -174 -31 -187 -205h3zM132 249c0 -102 42 -191 136 -191
c91 0 136 68 136 196c0 101 -37 174 -122 174c-104 0 -150 -64 -150 -179z" />
    <glyph glyph-name="afii10067" unicode="&#x432;" horiz-adv-x="499" 
d="M77 1v498c46 3 93 8 169 8c131 0 185 -41 185 -123c0 -46 -25 -97 -88 -118v-4c78 -15 107 -55 107 -121c0 -103 -76 -148 -224 -148c-56 0 -103 4 -149 8zM157 228v-161c25 -3 48 -4 81 -4c89 0 132 23 132 84c0 48 -32 81 -125 81h-88zM157 289h98c47 0 96 35 96 77
c0 53 -29 71 -108 71c-42 0 -63 -2 -86 -3v-145z" />
    <glyph glyph-name="afii10068" unicode="&#x433;" horiz-adv-x="369" 
d="M369 500v-70h-212v-430h-80v500h292z" />
    <glyph glyph-name="afii10069" unicode="&#x434;" horiz-adv-x="541" 
d="M519 70v-197h-54l-15 127h-376l-15 -127h-54v197h59c21 29 76 147 80 430h302v-430h73zM145 70h221v360h-150c-5 -114 -26 -273 -71 -360z" />
    <glyph glyph-name="afii10070" unicode="&#x435;" horiz-adv-x="508" 
d="M412 98l30 -58c-40 -32 -104 -52 -172 -52c-153 0 -221 103 -221 262c0 169 80 262 220 262c91 0 190 -30 190 -197c0 -22 -2 -46 -6 -73h-321c1 -116 43 -184 161 -184c45 0 96 19 119 40zM270 442c-78 0 -128 -38 -137 -137h248c0 101 -41 137 -111 137z" />
    <glyph glyph-name="afii10072" unicode="&#x436;" horiz-adv-x="659" 
d="M287 235l-47 -14l-147 -221h-92l158 229l34 30l-51 38l-130 203h85l138 -216h52v216h78v-226l47 14l139 212h84l-136 -203l-39 -32l51 -40l148 -225h-95l-147 225h-52v-225h-78v235z" />
    <glyph glyph-name="afii10073" unicode="&#x437;" horiz-adv-x="441" 
d="M183 223h-58v65h70c48 0 98 35 98 78c0 52 -37 71 -108 71c-52 0 -98 -20 -122 -35l-23 62c40 23 93 43 167 43c109 0 166 -42 166 -123c0 -46 -32 -98 -87 -116v-4c78 -15 106 -57 106 -124c0 -84 -69 -149 -209 -149c-68 0 -109 14 -145 31l23 66
c31 -17 76 -27 126 -27c81 0 125 28 125 85c0 48 -37 77 -129 77z" />
    <glyph glyph-name="afii10074" unicode="&#x438;" horiz-adv-x="546" 
d="M389 0v296l3 62h-3l-41 -64l-225 -294h-46v500h80v-305l-3 -59h4l39 62l225 302h47v-500h-80z" />
    <glyph glyph-name="afii10075" unicode="&#x439;" horiz-adv-x="546" 
d="M389 0v296l3 62h-3l-41 -64l-225 -294h-46v500h80v-305l-3 -59h4l39 62l225 302h47v-500h-80zM124 678l68 24c13 -61 48 -82 91 -82s79 24 91 81l60 -19c-12 -77 -75 -120 -153 -120c-73 0 -144 36 -157 116z" />
    <glyph glyph-name="afii10076" unicode="&#x43a;" horiz-adv-x="478" 
d="M370 0l-167 225h-46v-225h-80v500h80v-226l43 14l160 212h87l-155 -201l-42 -33l52 -40l167 -226h-99z" />
    <glyph glyph-name="afii10077" unicode="&#x43b;" horiz-adv-x="503" 
d="M346 0v430h-145c-10 -169 -23 -434 -148 -434c-25 0 -43 2 -58 9l12 67c9 -3 18 -4 26 -4c54 0 86 73 95 432h298v-500h-80z" />
    <glyph glyph-name="afii10078" unicode="&#x43c;" horiz-adv-x="645" 
d="M490 0v297l6 95h-5l-36 -77l-121 -196h-28l-126 196l-33 77h-4l8 -94v-298h-74v500h79l140 -224l29 -58h2l30 60l131 222h80v-500h-78z" />
    <glyph glyph-name="afii10079" unicode="&#x43d;" horiz-adv-x="540" 
d="M383 0v221h-226v-221h-80v500h80v-209h226v209h80v-500h-80z" />
    <glyph glyph-name="afii10080" unicode="&#x43e;" horiz-adv-x="536" 
d="M49 250c0 168 79 262 219 262c150 0 219 -104 219 -262c0 -168 -79 -262 -219 -262c-150 0 -219 104 -219 262zM132 250c0 -102 37 -192 136 -192c90 0 136 62 136 192c0 103 -37 192 -136 192c-89 0 -136 -62 -136 -192z" />
    <glyph glyph-name="afii10081" unicode="&#x43f;" horiz-adv-x="535" 
d="M378 0v430h-221v-430h-80v500h381v-500h-80z" />
    <glyph glyph-name="afii10082" unicode="&#x440;" horiz-adv-x="541" 
d="M77 -200v700h55l15 -60h4c30 47 81 72 143 72c133 0 198 -74 198 -252c0 -168 -90 -272 -230 -272c-49 0 -72 6 -105 20v-208h-80zM279 442c-68 0 -106 -35 -122 -107v-249c24 -18 52 -28 102 -28c91 0 150 71 150 203c0 110 -35 181 -130 181z" />
    <glyph glyph-name="afii10083" unicode="&#x441;" horiz-adv-x="451" 
d="M392 94l26 -61c-40 -29 -97 -45 -157 -45c-154 0 -212 104 -212 262c0 168 78 262 217 262c64 0 106 -10 142 -29l-23 -69c-31 17 -69 28 -111 28c-95 0 -142 -63 -142 -192c0 -101 38 -192 149 -192c48 0 87 17 111 36z" />
    <glyph glyph-name="afii10084" unicode="&#x442;" horiz-adv-x="398" 
d="M396 500v-70h-157v-430h-80v430h-157v70h394z" />
    <glyph glyph-name="afii10085" unicode="&#x443;" horiz-adv-x="466" 
d="M104 500l120 -324l28 -96h5l22 97l97 323h81l-148 -449c-44 -131 -85 -256 -173 -256c-24 0 -43 3 -59 10l14 69c8 -3 17 -5 25 -5c37 0 75 35 97 131l-201 500h92z" />
    <glyph glyph-name="afii10086" unicode="&#x444;" horiz-adv-x="680" 
d="M302 -200v196c-23 -8 -49 -8 -69 -8c-121 0 -189 84 -189 262c0 169 75 258 210 258c17 0 33 -1 48 -4v196h76v-197c24 4 42 5 59 5c132 0 199 -70 199 -248c0 -168 -73 -272 -203 -272c-12 0 -41 2 -55 7v-195h-76zM422 442c-16 0 -27 0 -45 -5v-380c13 -3 30 -3 50 -3
c85 0 129 73 129 206c0 113 -34 182 -134 182zM253 54c16 0 31 1 50 5v379c-16 3 -28 4 -48 4c-82 0 -131 -61 -131 -192c0 -113 40 -196 129 -196z" />
    <glyph glyph-name="afii10087" unicode="&#x445;" horiz-adv-x="515" 
d="M28 0l180 256l-168 244h98l95 -138l28 -57l29 57l97 138h90l-169 -240l179 -260h-95l-106 152l-30 60l-31 -60l-108 -152h-89z" />
    <glyph glyph-name="afii10088" unicode="&#x446;" horiz-adv-x="548" 
d="M526 70v-197h-54l-15 127h-380v500h80v-430h217v430h80v-430h72z" />
    <glyph glyph-name="afii10089" unicode="&#x447;" horiz-adv-x="490" 
d="M49 500h80v-136c0 -71 11 -118 86 -118c60 0 98 16 118 32v222h80v-500h-80v210c-21 -13 -61 -34 -134 -34c-98 0 -150 39 -150 172v152z" />
    <glyph glyph-name="afii10090" unicode="&#x448;" horiz-adv-x="736" 
d="M659 0h-582v500h80v-430h171v430h80v-430h171v430h80v-500z" />
    <glyph glyph-name="afii10091" unicode="&#x449;" horiz-adv-x="753" 
d="M731 70v-200h-54l-15 130h-585v500h80v-430h171v430h80v-430h171v430h80v-430h72z" />
    <glyph glyph-name="afii10092" unicode="&#x44a;" horiz-adv-x="497" 
d="M191 243v-173c26 -4 49 -6 70 -6c84 0 123 35 123 94c0 53 -38 92 -120 92c-22 0 -49 -1 -73 -7zM191 500v-191c32 5 61 7 87 7c138 0 189 -65 189 -149c0 -121 -71 -173 -224 -173c-44 0 -86 2 -132 6v430h-110v70h190z" />
    <glyph glyph-name="afii10093" unicode="&#x44b;" horiz-adv-x="660" 
d="M157 243v-173c25 -4 49 -6 71 -6c83 0 113 35 113 94c0 53 -29 92 -110 92c-22 0 -51 -1 -74 -7zM157 500v-191c32 5 62 7 88 7c137 0 179 -65 179 -149c0 -121 -63 -173 -214 -173c-44 0 -87 2 -133 6v500h80zM503 0v500h80v-500h-80z" />
    <glyph glyph-name="afii10094" unicode="&#x44c;" horiz-adv-x="464" 
d="M157 243v-173c25 -4 49 -6 71 -6c84 0 123 35 123 94c0 53 -38 92 -120 92c-22 0 -51 -1 -74 -7zM157 500v-191c32 5 62 7 88 7c138 0 189 -65 189 -149c0 -121 -72 -173 -224 -173c-44 0 -87 2 -133 6v500h80z" />
    <glyph glyph-name="afii10095" unicode="&#x44d;" horiz-adv-x="465" 
d="M121 219v66h212c-6 94 -56 157 -145 157c-54 0 -96 -18 -121 -35l-28 61c41 28 94 44 164 44c148 0 213 -96 213 -262c0 -170 -84 -262 -223 -262c-62 0 -117 10 -153 30l23 68c31 -17 79 -28 122 -28c92 0 143 52 149 161h-213z" />
    <glyph glyph-name="afii10096" unicode="&#x44e;" horiz-adv-x="719" 
d="M465 -12c-144 0 -201 91 -207 233h-101v-221h-80v500h80v-209h102c9 142 76 221 208 221c146 0 203 -104 203 -262c0 -168 -67 -262 -205 -262zM336 250c0 -104 29 -192 131 -192c85 0 120 61 120 192c0 104 -26 192 -121 192c-92 0 -130 -61 -130 -192z" />
    <glyph glyph-name="afii10097" unicode="&#x44f;" horiz-adv-x="475" 
d="M326 0v207l-77 -12l-132 -195h-97l120 171l40 37c-69 11 -125 57 -125 134c0 120 87 170 219 170c49 0 91 -8 132 -16v-496h-80zM326 433c-17 6 -41 9 -57 9c-85 0 -131 -30 -131 -96c0 -59 52 -94 129 -94c3 0 6 0 59 2v179z" />
    <glyph glyph-name="afii10071" unicode="&#x451;" horiz-adv-x="508" 
d="M412 98l30 -58c-40 -32 -104 -52 -172 -52c-153 0 -221 103 -221 262c0 169 80 262 220 262c91 0 190 -30 190 -197c0 -22 -2 -46 -6 -73h-321c1 -116 43 -184 161 -184c45 0 96 19 119 40zM270 442c-78 0 -128 -38 -137 -137h248c0 101 -41 137 -111 137zM119 633
c0 30 20 51 49 51s49 -21 49 -51c0 -28 -20 -49 -49 -49s-49 21 -49 49zM311 633c0 30 20 51 49 51c30 0 50 -21 50 -51c0 -28 -20 -49 -50 -49c-29 0 -49 21 -49 49z" />
    <glyph glyph-name="afii10099" unicode="&#x452;" horiz-adv-x="548" 
d="M-2 440v60h80v200h80v-200h160v-60h-160v-148h4c35 41 82 68 153 68c113 0 164 -45 164 -210v-177c0 -123 -41 -185 -134 -185c-10 0 -19 1 -30 2v68c75 0 84 45 84 142v132c0 105 -20 158 -107 158c-62 0 -120 -45 -134 -109v-181h-80v440h-80z" />
    <glyph glyph-name="afii10100" unicode="&#x453;" horiz-adv-x="369" 
d="M369 500v-70h-212v-430h-80v500h292zM181 571l59 149h89v-21l-101 -128h-47z" />
    <glyph glyph-name="afii10101" unicode="&#x454;" horiz-adv-x="472" 
d="M412 94l26 -61c-40 -29 -101 -45 -161 -45c-154 0 -228 104 -228 262c0 168 94 262 233 262c64 0 111 -10 147 -29l-23 -69c-31 17 -74 28 -116 28c-91 0 -150 -52 -160 -156h236v-66h-237c9 -89 58 -162 169 -162c47 0 90 17 114 36z" />
    <glyph glyph-name="afii10102" unicode="&#x455;" horiz-adv-x="421" 
d="M297 136c0 119 -241 63 -241 237c0 95 58 139 155 139c72 0 118 -15 154 -32l-19 -65c-31 15 -76 27 -125 27c-58 0 -85 -18 -85 -67c0 -102 241 -57 241 -236c0 -86 -57 -151 -174 -151c-75 0 -128 17 -164 37l24 67c31 -17 85 -34 135 -34c57 0 99 20 99 78z" />
    <glyph glyph-name="afii10103" unicode="&#x456;" horiz-adv-x="268" 
d="M93 0v500h80v-500h-80zM77 652c0 30 23 56 55 56s58 -26 58 -56s-26 -53 -58 -53s-55 23 -55 53z" />
    <glyph glyph-name="afii10104" unicode="&#x457;" horiz-adv-x="278" 
d="M29 653c0 30 18 50 48 50c29 0 48 -20 48 -50c0 -28 -19 -49 -48 -49c-30 0 -48 21 -48 49zM154 653c0 30 18 50 47 50c30 0 49 -20 49 -50c0 -28 -19 -49 -49 -49c-29 0 -47 21 -47 49zM98 0v500h80v-500h-80z" />
    <glyph glyph-name="afii10105" unicode="&#x458;" horiz-adv-x="267" 
d="M93 3v497h80v-527c0 -123 -41 -185 -134 -185c-10 0 -19 1 -30 2v68c75 0 84 46 84 145zM76 652c0 30 23 56 55 56s58 -26 58 -56s-26 -53 -58 -53s-55 23 -55 53z" />
    <glyph glyph-name="afii10106" unicode="&#x459;" horiz-adv-x="733" 
d="M426 500v-191c32 5 62 7 88 7c138 0 189 -65 189 -149c0 -121 -72 -173 -224 -173c-44 0 -87 2 -133 6v430h-145c-10 -169 -23 -434 -148 -434c-25 0 -43 2 -58 9l12 67c9 -3 18 -4 26 -4c54 0 86 73 95 432h298zM426 243v-174c25 -4 49 -6 71 -6c84 0 123 36 123 95
c0 53 -38 92 -120 92c-22 0 -51 -1 -74 -7z" />
    <glyph glyph-name="afii10107" unicode="&#x45a;" horiz-adv-x="770" 
d="M463 243v-174c25 -4 49 -5 71 -5c84 0 123 35 123 94c0 53 -38 92 -120 92c-22 0 -50 -2 -74 -7zM463 500v-191c32 5 62 7 88 7c138 0 189 -65 189 -149c0 -121 -72 -173 -224 -173c-44 0 -87 2 -133 6v223h-226v-223h-80v500h80v-207h226v207h80z" />
    <glyph glyph-name="afii10108" unicode="&#x45b;" horiz-adv-x="548" 
d="M-2 440v60h80v200h80v-200h160v-60h-160v-148h4c35 41 82 68 153 68c113 0 164 -45 164 -210v-150h-80v132c0 105 -20 158 -107 158c-62 0 -120 -45 -134 -109v-181h-80v440h-80z" />
    <glyph glyph-name="afii10109" unicode="&#x45c;" horiz-adv-x="478" 
d="M370 0l-167 225h-46v-225h-80v500h80v-226l43 14l160 212h87l-155 -201l-42 -33l52 -40l167 -226h-99zM197 571l59 149h89v-21l-101 -128h-47z" />
    <glyph glyph-name="afii10110" unicode="&#x45e;" horiz-adv-x="466" 
d="M104 500l120 -324l28 -96h5l22 97l97 323h81l-148 -449c-44 -131 -85 -256 -173 -256c-24 0 -43 3 -59 10l14 69c8 -3 17 -5 25 -5c37 0 75 35 97 131l-201 500h92zM89 678l68 24c13 -61 48 -82 91 -82s79 24 91 81l60 -19c-12 -77 -75 -120 -153 -120
c-73 0 -144 36 -157 116z" />
    <glyph glyph-name="afii10193" unicode="&#x45f;" horiz-adv-x="535" 
d="M225 0h-148v500h80v-430h221v430h80v-500h-146l-15 -179h-52z" />
    <glyph glyph-name="afii10146" unicode="&#x462;" horiz-adv-x="619" 
d="M0 550v70h149v101h83v-101h207v-70h-207v-123c14 3 68 8 99 8c127 0 254 -44 254 -209c0 -160 -119 -234 -273 -234c-37 0 -112 2 -163 15v543h-149zM323 64c96 0 174 51 174 156c0 113 -86 143 -177 143c-24 0 -74 -5 -88 -9v-284c19 -4 58 -6 91 -6z" />
    <glyph glyph-name="afii10194" unicode="&#x463;" horiz-adv-x="497" 
d="M1 434v66h109v200h80v-200h160v-66h-160v-125c32 5 62 7 88 7c138 0 189 -65 189 -149c0 -121 -71 -173 -224 -173c-44 0 -87 2 -133 6v434h-109zM190 243v-173c26 -4 50 -6 71 -6c84 0 123 35 123 94c0 53 -38 92 -120 92c-22 0 -50 -1 -74 -7z" />
    <glyph glyph-name="afii10147" unicode="&#x472;" horiz-adv-x="684" 
d="M56 350c0 232 104 362 285 362c197 0 287 -144 287 -362c0 -232 -104 -362 -287 -362c-195 0 -285 144 -285 362zM144 392h396c-10 158 -90 246 -199 246c-97 0 -187 -62 -197 -246zM540 318h-396c10 -171 91 -256 197 -256c99 0 192 57 199 256z" />
    <glyph glyph-name="afii10195" unicode="&#x473;" horiz-adv-x="536" 
d="M49 250c0 168 79 262 219 262c150 0 219 -104 219 -262c0 -168 -79 -262 -219 -262c-150 0 -219 104 -219 262zM132 281h272c-11 112 -60 161 -136 161c-69 0 -130 -40 -136 -161zM404 217h-272c7 -104 63 -159 136 -159c68 0 128 37 136 159z" />
    <glyph glyph-name="afii10148" unicode="&#x474;" horiz-adv-x="598" 
d="M478 520l-174 -531h-37l-269 711h90l178 -481l24 -106h2l16 108c25 88 53 175 81 271c61 208 108 215 176 215c46 0 70 -8 92 -22l-24 -70c-27 15 -50 18 -69 18c-37 0 -60 -32 -86 -113z" />
    <glyph glyph-name="afii10196" unicode="&#x475;" horiz-adv-x="507" 
d="M413 356l-152 -367h-34l-217 511h92l120 -293l28 -95h1l25 97c37 95 42 106 46 116c43 114 69 182 150 182c24 0 42 -2 58 -9l-12 -74c-12 5 -23 9 -34 9c-22 0 -45 -15 -71 -77z" />
    <glyph glyph-name="uni048A" unicode="&#x48a;" horiz-adv-x="690" 
d="M513 0v474l6 80h-4l-43 -82l-338 -472h-49v700h83v-480l-7 -79h4l44 82l338 477h49v-630h104v-22l-91 -178h-54l45 130h-87zM177 850l79 20c5 -49 39 -77 92 -77s86 28 92 76l71 -17c-15 -72 -66 -117 -164 -117c-94 0 -159 36 -170 115z" />
    <glyph glyph-name="uni048B" unicode="&#x48b;" horiz-adv-x="561" 
d="M389 0v296l3 62h-3l-41 -64l-225 -294h-46v500h80v-305l-3 -59h4l39 62l225 302h47v-430h100v-22l-91 -178h-54l45 130h-80zM124 678l68 24c13 -61 48 -82 91 -82s79 24 91 81l60 -19c-12 -77 -75 -120 -153 -120c-73 0 -144 36 -157 116z" />
    <glyph glyph-name="uni048C" unicode="&#x48c;" horiz-adv-x="619" 
d="M0 550v70h149v101h83v-101h207v-70h-207v-123c14 3 68 8 99 8c127 0 254 -44 254 -209c0 -160 -119 -234 -273 -234c-37 0 -112 2 -163 15v543h-149zM323 64c96 0 174 51 174 156c0 113 -86 143 -177 143c-24 0 -74 -5 -88 -9v-284c19 -4 58 -6 91 -6z" />
    <glyph glyph-name="uni048D" unicode="&#x48d;" horiz-adv-x="497" 
d="M1 434v66h109v200h80v-200h160v-66h-160v-125c32 5 62 7 88 7c138 0 189 -65 189 -149c0 -121 -71 -173 -224 -173c-44 0 -87 2 -133 6v434h-109zM190 243v-173c26 -4 50 -6 71 -6c84 0 123 35 123 94c0 53 -38 92 -120 92c-22 0 -50 -1 -74 -7z" />
    <glyph glyph-name="uni048E" unicode="&#x48e;" horiz-adv-x="559" 
d="M85 0v693c50 12 112 15 169 15c123 0 268 -41 268 -215c0 -100 -47 -162 -113 -197l68 -98l-46 -33l-77 110c-33 -9 -68 -13 -104 -13c-13 0 -68 1 -82 4v-266h-83zM248 435l43 27l71 -103c42 22 72 62 72 134c0 110 -92 143 -178 143c-34 0 -69 -1 -88 -6v-290
c14 -4 64 -4 78 -4c22 0 44 1 66 6z" />
    <glyph glyph-name="uni048F" unicode="&#x48f;" horiz-adv-x="541" 
d="M77 -200v700h55l15 -60h4c30 47 81 72 143 72c133 0 198 -74 198 -252c0 -99 -31 -175 -85 -222l53 -62l-42 -37l-59 69c-28 -13 -61 -20 -97 -20c-49 0 -72 6 -105 20v-208h-80zM258 132l39 31l58 -69c34 34 54 90 54 167c0 110 -35 181 -130 181
c-68 0 -106 -35 -122 -107v-249c24 -18 52 -28 102 -28c19 0 38 2 54 9z" />
    <glyph glyph-name="afii10050" unicode="&#x490;" horiz-adv-x="442" 
d="M460 834v-208h-292v-626h-83v700h303l16 134h56z" />
    <glyph glyph-name="afii10098" unicode="&#x491;" horiz-adv-x="369" 
d="M369 430h-212v-430h-80v500h220l16 134h56v-204z" />
    <glyph glyph-name="uni0492" unicode="&#x492;" horiz-adv-x="482" 
d="M481 700v-74h-292v-241h215v-66h-215v-319h-83v319h-96v66h96v315h375z" />
    <glyph glyph-name="uni0493" unicode="&#x493;" horiz-adv-x="385" 
d="M382 500v-70h-212v-151h169v-60h-169v-219h-80v219h-90v60h90v221h292z" />
    <glyph glyph-name="uni0494" unicode="&#x494;" horiz-adv-x="577" 
d="M168 282v-282h-83v700h375v-74h-292v-271c16 5 65 21 138 21c107 0 215 -51 215 -240c0 -182 -85 -264 -233 -264c-44 0 -60 1 -70 3v74c17 -3 34 -3 73 -3c93 0 142 61 142 183c0 136 -67 175 -152 175c-47 0 -98 -16 -113 -22z" />
    <glyph glyph-name="uni0495" unicode="&#x495;" horiz-adv-x="535" 
d="M157 182v-182h-80v500h291v-70h-211v-178c15 6 54 21 125 21c106 0 198 -55 198 -228c0 -174 -68 -254 -217 -254c-44 0 -60 1 -70 3v70c17 -3 34 -3 73 -3c93 0 134 64 134 174c0 119 -57 168 -140 168c-48 0 -89 -15 -103 -21z" />
    <glyph glyph-name="uni0496" unicode="&#x496;" horiz-adv-x="819" 
d="M358 386v314h80v-326l43 14l203 312h92l-202 -304l-40 -32l50 -41l172 -249h58v-203h-58l-15 129h-36l-221 324h-46v-324h-80v336l-42 -14l-221 -322h-96l221 313l48 38l-46 35l-209 314h97l203 -314h45z" />
    <glyph glyph-name="uni0497" unicode="&#x497;" horiz-adv-x="693" 
d="M287 235l-47 -14l-147 -221h-92l158 229l34 30l-51 38l-130 203h85l138 -216h52v216h78v-226l47 14l139 212h84l-136 -203l-39 -32l51 -40l102 -155h75v-197h-54l-15 127h-55l-147 225h-52v-225h-78v235z" />
    <glyph glyph-name="uni0498" unicode="&#x498;" horiz-adv-x="541" 
d="M194 331h-55v70h16c24 0 73 1 95 5c69 11 126 52 126 117c0 87 -64 115 -141 115c-71 0 -123 -12 -153 -26l-22 66c26 15 103 34 189 34c107 0 215 -40 215 -172c0 -67 -44 -134 -132 -161v-4c94 -13 153 -72 153 -168c0 -138 -106 -205 -223 -217l-14 -169h-52l-19 168
c-61 3 -103 13 -133 25l21 75c31 -15 87 -26 165 -26c83 0 167 44 167 139c0 84 -65 120 -159 127c-16 1 -29 2 -44 2z" />
    <glyph glyph-name="uni0499" unicode="&#x499;" horiz-adv-x="441" 
d="M183 223h-58v65h70c48 0 98 35 98 78c0 52 -37 71 -108 71c-52 0 -98 -20 -122 -35l-23 62c40 23 93 43 167 43c109 0 166 -42 166 -123c0 -46 -32 -98 -87 -116v-4c78 -15 106 -57 106 -124c0 -72 -50 -129 -151 -145l-14 -174h-52l-19 171c-53 3 -87 15 -118 30l23 66
c31 -17 76 -26 126 -26c81 0 125 27 125 84c0 48 -37 77 -129 77z" />
    <glyph glyph-name="uni049A" unicode="&#x49a;" horiz-adv-x="615" 
d="M470 0l-255 324h-47v-324h-83v700h83v-326l45 14l235 312h96l-234 -301l-42 -33l51 -40l198 -252h89v-203h-58l-15 129h-63z" />
    <glyph glyph-name="uni049B" unicode="&#x49b;" horiz-adv-x="506" 
d="M370 0l-167 225h-46v-225h-80v500h80v-226l43 14l160 212h87l-155 -201l-42 -33l52 -40l115 -156h79v-197h-54l-15 127h-57z" />
    <glyph glyph-name="uni049C" unicode="&#x49c;" horiz-adv-x="685" 
d="M222 195v129h-54v-324h-83v700h83v-326l54 5v126h66v-119l23 2l214 312h95l-216 -301l-41 -33l49 -40l238 -326h-104l-232 324h-26v-129h-66z" />
    <glyph glyph-name="uni049D" unicode="&#x49d;" horiz-adv-x="538" 
d="M205 98v127h-48v-225h-80v500h80v-226l48 5v123h63v-117l26 3l131 212h84l-126 -201l-44 -33l52 -40l138 -226h-94l-138 225h-29v-127h-63z" />
    <glyph glyph-name="uni049E" unicode="&#x49e;" horiz-adv-x="664" 
d="M0 568v68h139v64h83v-64h122v-66h-122v-196l49 14l232 312h95l-231 -301l-44 -33l52 -40l254 -326h-106l-252 324h-49v-324h-83v568h-139z" />
    <glyph glyph-name="uni049F" unicode="&#x49f;" horiz-adv-x="481" 
d="M-2 553v60h81v87h80v-87h159v-60h-159v-279l41 14l155 212h93l-153 -201l-41 -33l50 -40l167 -226h-99l-167 225h-46v-225h-80v553h-81z" />
    <glyph glyph-name="uni04A0" unicode="&#x4a0;" horiz-adv-x="685" 
d="M161 0v626h-161v74h244v-326l44 14l235 312h97l-235 -301l-41 -33l50 -40l257 -326h-106l-255 324h-46v-324h-83z" />
    <glyph glyph-name="uni04A1" unicode="&#x4a1;" horiz-adv-x="512" 
d="M191 500v-226l42 14l161 212h86l-155 -201l-41 -33l52 -40l167 -226h-99l-167 225h-46v-225h-80v430h-110v70h190z" />
    <glyph glyph-name="uni04A2" unicode="&#x4a2;" horiz-adv-x="707" 
d="M504 0v321h-336v-321h-83v700h83v-305h336v305h83v-626h92v-203h-58l-15 129h-102z" />
    <glyph glyph-name="uni04A3" unicode="&#x4a3;" horiz-adv-x="546" 
d="M383 0v221h-226v-221h-80v500h80v-209h226v209h80v-430h73v-197h-54l-15 127h-84z" />
    <glyph glyph-name="uni04A4" unicode="&#x4a4;" horiz-adv-x="861" 
d="M879 700v-74h-292v-626h-83v321h-336v-321h-83v700h83v-305h336v305h375z" />
    <glyph glyph-name="uni04A5" unicode="&#x4a5;" horiz-adv-x="675" 
d="M675 500v-70h-212v-430h-80v221h-226v-221h-80v500h80v-209h226v209h292z" />
    <glyph glyph-name="uni04A6" unicode="&#x4a6;" horiz-adv-x="983" 
d="M574 282v-282h-83v626h-323v-626h-83v700h489v-345c15 5 65 21 138 21c107 0 216 -51 216 -240c0 -182 -85 -264 -234 -264c-44 0 -60 1 -70 3v74c17 -3 34 -3 73 -3c93 0 143 61 143 183c0 136 -68 175 -152 175c-48 0 -100 -16 -114 -22z" />
    <glyph glyph-name="uni04A7" unicode="&#x4a7;" horiz-adv-x="836" 
d="M458 182v-182h-80v430h-221v-430h-80v500h381v-248c15 6 54 21 125 21c104 0 197 -55 197 -228c0 -174 -67 -254 -216 -254c-44 0 -60 1 -70 3v70c17 -3 34 -3 73 -3c93 0 133 64 133 174c0 119 -56 168 -139 168c-48 0 -89 -15 -103 -21z" />
    <glyph glyph-name="uni04A8" unicode="&#x4a8;" horiz-adv-x="811" 
d="M353 712v-74c-124 0 -209 -93 -209 -287c0 -156 95 -293 230 -293c14 0 35 1 48 6c-85 52 -136 175 -136 298c0 207 101 318 231 318c147 0 225 -106 225 -282c0 -164 -71 -287 -157 -338c7 -1 14 -1 21 -1c50 0 90 12 115 30l25 -65c-25 -20 -57 -36 -128 -36
c-42 0 -89 12 -118 30c-35 -20 -80 -30 -126 -30c-198 0 -318 143 -318 362c0 232 112 362 297 362zM374 354c0 -93 44 -214 134 -266c71 40 146 150 146 304c0 119 -37 214 -133 214c-76 0 -147 -75 -147 -252z" />
    <glyph glyph-name="uni04A9" unicode="&#x4a9;" horiz-adv-x="660" 
d="M269 512v-70c-91 -1 -137 -63 -137 -191c0 -104 51 -193 159 -193c14 0 37 2 50 10c-48 29 -86 101 -86 185c0 118 40 247 181 247c123 0 171 -96 171 -215c0 -106 -59 -196 -118 -224c11 -5 24 -7 38 -7c27 0 56 9 79 33l25 -60c-24 -22 -67 -39 -115 -39
c-37 0 -79 12 -103 36c-40 -28 -91 -36 -134 -36c-147 0 -230 104 -230 262c0 165 75 261 220 262zM338 256c0 -76 32 -144 83 -178c55 28 103 106 103 207c0 71 -28 145 -89 145c-81 0 -97 -89 -97 -174z" />
    <glyph glyph-name="uni04AA" unicode="&#x4aa;" horiz-adv-x="571" 
d="M513 94l20 -65c-34 -27 -86 -37 -143 -40l-14 -168h-52l-19 172c-142 21 -249 133 -249 357c0 261 156 362 304 362c79 0 127 -10 163 -24l-20 -73c-31 15 -78 23 -137 23c-110 0 -222 -74 -222 -288c0 -192 102 -287 234 -287c59 0 104 12 135 31z" />
    <glyph glyph-name="uni04AB" unicode="&#x4ab;" horiz-adv-x="451" 
d="M392 94l26 -61c-29 -21 -67 -35 -109 -41l-14 -171h-52l-19 169c-127 16 -175 115 -175 260c0 168 78 262 217 262c64 0 106 -10 142 -29l-23 -69c-31 17 -69 28 -111 28c-95 0 -142 -63 -142 -192c0 -101 38 -192 149 -192c48 0 87 17 111 36z" />
    <glyph glyph-name="uni04AC" unicode="&#x4ac;" horiz-adv-x="555" 
d="M236 0v626h-218v74h519v-74h-218v-552h92v-203h-58l-15 129h-102z" />
    <glyph glyph-name="uni04AD" unicode="&#x4ad;" horiz-adv-x="398" 
d="M159 0v430h-157v70h394v-70h-157v-360h74v-197h-54l-15 127h-85z" />
    <glyph glyph-name="uni04AE" unicode="&#x4ae;" horiz-adv-x="558" 
d="M239 0v278l-231 422h97l164 -306l17 -61h1l18 63l157 304h89l-229 -421v-279h-83z" />
    <glyph glyph-name="uni04AF" unicode="&#x4af;" horiz-adv-x="484" 
d="M207 0l-197 500h92l122 -324l28 -106h1l25 108l110 322h86l-187 -500v-200h-80v200z" />
    <glyph glyph-name="uni04B0" unicode="&#x4b0;" horiz-adv-x="558" 
d="M89 223v62h146l-227 415h97l164 -306l17 -61h1l18 63l157 304h89l-226 -415h147v-62h-150v-223h-83v223h-150z" />
    <glyph glyph-name="uni04B1" unicode="&#x4b1;" horiz-adv-x="484" 
d="M84 -60v60h123l-197 500h92l122 -324l28 -106h1l25 108l110 322h86l-187 -500h117v-60h-117v-140h-80v140h-123z" />
    <glyph glyph-name="uni04B2" unicode="&#x4b2;" horiz-adv-x="648" 
d="M26 0l233 356l-213 344h100l142 -237l25 -57l24 57l150 237h92l-220 -337l183 -289h97v-203h-58l-15 129h-74l-158 251l-27 60l-26 -60l-162 -251h-93z" />
    <glyph glyph-name="uni04B3" unicode="&#x4b3;" horiz-adv-x="525" 
d="M28 0l180 256l-168 244h98l95 -138l28 -57l29 57l97 138h90l-169 -240l131 -190h76v-197h-54l-15 127h-54l-106 152l-30 60l-31 -60l-108 -152h-89z" />
    <glyph glyph-name="uni04B4" unicode="&#x4b4;" horiz-adv-x="838" 
d="M809 74v-203h-57l-15 129h-501v626h-218v74h483v-74h-182v-552h315v626h83v-626h92z" />
    <glyph glyph-name="uni04B5" unicode="&#x4b5;" horiz-adv-x="631" 
d="M608 70v-197h-54l-15 127h-380v430h-157v70h387v-70h-150v-360h217v430h80v-430h72z" />
    <glyph glyph-name="uni04B6" unicode="&#x4b6;" horiz-adv-x="639" 
d="M437 0v302c-36 -20 -97 -45 -172 -45c-113 0 -190 46 -190 196v247h83v-232c0 -93 41 -137 124 -137c62 0 121 18 155 46v323h83v-626h92v-203h-58l-15 129h-102z" />
    <glyph glyph-name="uni04B7" unicode="&#x4b7;" horiz-adv-x="509" 
d="M333 0v210c-21 -13 -61 -34 -134 -34c-98 0 -150 39 -150 172v152h80v-136c0 -71 11 -118 86 -118c60 0 98 16 118 32v222h80v-430h74v-197h-54l-15 127h-85z" />
    <glyph glyph-name="uni04B8" unicode="&#x4b8;" horiz-adv-x="613" 
d="M271 145v112c-120 0 -196 46 -196 196v247h83v-232c0 -89 37 -133 113 -137v124h66v-120c43 7 82 22 108 42v323h83v-700h-83v302c-25 -14 -63 -29 -108 -38v-119h-66z" />
    <glyph glyph-name="uni04B9" unicode="&#x4b9;" horiz-adv-x="497" 
d="M205 68v108c-105 0 -156 39 -156 172v152h80v-136c0 -67 10 -113 76 -118v127h63v-123c34 6 59 17 72 28v222h80v-500h-80v210c-13 -9 -37 -21 -72 -28v-114h-63z" />
    <glyph glyph-name="uni04BA" unicode="&#x4ba;" horiz-adv-x="605" 
d="M531 0h-83v232c0 93 -41 137 -124 137c-63 0 -121 -18 -156 -46v-323h-83v700h83v-302c36 20 98 45 172 45c113 0 191 -46 191 -196v-247z" />
    <glyph glyph-name="uni04BB" unicode="&#x4bb;" horiz-adv-x="547" 
d="M478 0h-80v285c0 104 -20 157 -107 157c-62 0 -120 -45 -134 -109v-333h-80v700h80v-256h4c35 41 82 68 153 68c113 0 164 -45 164 -210v-302z" />
    <glyph glyph-name="uni04BC" unicode="&#x4bc;" horiz-adv-x="774" 
d="M709 318h-435c11 -174 87 -256 231 -256c59 0 114 22 147 42l22 -67c-43 -26 -103 -49 -185 -49c-176 0 -290 99 -299 330h-37c-112 0 -152 51 -152 123c0 38 11 60 28 77h78c-21 -17 -28 -48 -28 -68c0 -31 11 -64 86 -64c8 0 16 0 25 1c9 207 106 325 275 325
c166 0 253 -105 253 -287c0 -33 -3 -69 -9 -107zM273 388h358c3 18 4 36 4 53c0 106 -51 201 -169 201c-123 0 -187 -95 -193 -254z" />
    <glyph glyph-name="uni04BD" unicode="&#x4bd;" horiz-adv-x="617" 
d="M521 97l30 -57c-40 -32 -104 -52 -172 -52c-150 0 -219 99 -221 253h-12c-96 0 -138 53 -138 120c0 40 13 65 41 93h78c-26 -19 -47 -45 -47 -88c0 -28 16 -60 70 -60c3 0 7 0 11 1c16 133 93 205 217 205c91 0 190 -30 190 -197c0 -22 -2 -46 -6 -73h-321
c1 -116 43 -184 161 -184c45 0 96 18 119 39zM379 442c-78 0 -128 -38 -137 -137h248c0 101 -41 137 -111 137z" />
    <glyph glyph-name="uni04BE" unicode="&#x4be;" horiz-adv-x="774" 
d="M709 318h-435c11 -174 87 -255 231 -255c59 0 114 21 147 41l22 -67c-39 -24 -92 -45 -163 -48l-14 -168h-52l-19 172c-140 21 -228 123 -236 325h-37c-112 0 -152 51 -152 123c0 38 11 60 28 77h78c-21 -17 -28 -48 -28 -68c0 -31 11 -64 86 -64c8 0 16 0 25 1
c9 207 106 325 275 325c166 0 253 -105 253 -287c0 -33 -3 -69 -9 -107zM273 388h358c3 18 4 36 4 53c0 106 -51 201 -169 201c-123 0 -187 -95 -193 -254z" />
    <glyph glyph-name="uni04BF" unicode="&#x4bf;" horiz-adv-x="617" 
d="M521 97l30 -57c-33 -26 -80 -43 -133 -49l-14 -170h-52l-19 171c-118 18 -173 111 -175 249h-12c-96 0 -138 53 -138 120c0 42 13 65 41 93h78c-26 -19 -47 -45 -47 -88c0 -28 16 -60 70 -60c3 0 7 0 11 1c16 133 93 205 217 205c91 0 190 -30 190 -197
c0 -22 -2 -46 -6 -73h-321c1 -116 43 -184 161 -184c45 0 96 18 119 39zM379 442c-78 0 -128 -38 -137 -137h248c0 101 -41 137 -111 137z" />
    <glyph glyph-name="uni04C0" unicode="&#x4c0;" horiz-adv-x="291" 
d="M104 0v700h83v-700h-83z" />
    <glyph glyph-name="uni04C3" unicode="&#x4c3;" horiz-adv-x="600" 
d="M441 71c0 181 -71 253 -226 253h-47v-324h-83v700h83v-326l45 14l235 312h96l-224 -286l-57 -38h63c142 -33 198 -111 198 -302v-18c0 -193 -76 -267 -195 -267c-9 0 -18 0 -28 1v73c106 0 140 54 140 208z" />
    <glyph glyph-name="uni04C4" unicode="&#x4c4;" horiz-adv-x="481" 
d="M361 16c0 140 -59 200 -158 200h-46v-216h-80v500h80v-235l43 14l160 221h87l-156 -210l-36 -26l44 -6c119 -27 142 -134 142 -242c0 -163 -76 -230 -177 -230c-11 0 -22 0 -34 2v69c6 -1 12 -1 18 -1c71 0 113 57 113 160z" />
    <glyph glyph-name="uni04C5" unicode="&#x4c5;" horiz-adv-x="622" 
d="M456 0v626h-209c-13 -265 -32 -441 -76 -539c-29 -64 -70 -92 -117 -92c-24 0 -40 3 -56 10l11 72c7 -2 14 -3 21 -3c22 0 45 12 66 52c38 71 66 234 73 574h370v-630h93v-22l-91 -178h-54l45 130h-76z" />
    <glyph glyph-name="uni04C6" unicode="&#x4c6;" horiz-adv-x="516" 
d="M346 0v430h-145c-10 -169 -23 -434 -148 -434c-25 0 -43 3 -58 9l12 67c9 -3 18 -4 26 -4c54 0 86 73 95 432h298v-430h100v-22l-91 -178h-54l45 130h-80z" />
    <glyph glyph-name="uni04C7" unicode="&#x4c7;" horiz-adv-x="672" 
d="M587 700v-727c0 -123 -40 -185 -133 -185c-10 0 -20 0 -31 2v70c76 0 81 43 81 140v321h-336v-321h-83v700h83v-305h336v305h83z" />
    <glyph glyph-name="uni04C8" unicode="&#x4c8;" horiz-adv-x="540" 
d="M383 0v221h-226v-221h-80v500h80v-209h226v209h80v-527c0 -123 -41 -185 -134 -185c-10 0 -19 1 -30 2v68c75 0 84 45 84 142z" />
    <glyph glyph-name="uni04C9" unicode="&#x4c9;" horiz-adv-x="681" 
d="M504 0v321h-336v-321h-83v700h83v-305h336v305h83v-630h104v-22l-91 -178h-54l45 130h-87z" />
    <glyph glyph-name="uni04CA" unicode="&#x4ca;" horiz-adv-x="556" 
d="M383 0v221h-226v-221h-80v500h80v-209h226v209h80v-430h100v-22l-91 -178h-54l45 130h-80z" />
    <glyph glyph-name="uni04CB" unicode="&#x4cb;" horiz-adv-x="605" 
d="M75 700h83v-232c0 -93 41 -137 124 -137c62 0 121 18 155 46v323h83v-700h-102l-15 -129h-58v203h92v228c-36 -20 -97 -45 -172 -45c-113 0 -190 46 -190 196v247z" />
    <glyph glyph-name="uni04CC" unicode="&#x4cc;" horiz-adv-x="490" 
d="M333 67v145c-21 -13 -61 -33 -134 -33c-98 0 -150 40 -150 171v150h80v-134c0 -69 11 -117 86 -117c60 0 98 16 118 32v219h80v-500h-88l-15 -127h-54v194h77z" />
    <glyph glyph-name="uni04CD" unicode="&#x4cd;" horiz-adv-x="801" 
d="M623 0v470l10 105h-5l-38 -96l-182 -316h-25l-193 317l-36 95h-5l14 -104v-471h-78v700h62l219 -358l33 -78h2l31 80l209 356h65v-630h104v-22l-91 -178h-54l45 130h-87z" />
    <glyph glyph-name="uni04CE" unicode="&#x4ce;" horiz-adv-x="661" 
d="M490 0v297l6 95h-5l-36 -77l-121 -196h-28l-126 196l-33 77h-4l8 -94v-298h-74v500h79l140 -224l29 -58h2l30 60l131 222h80v-430h100v-22l-91 -178h-54l45 130h-78z" />
    <glyph glyph-name="uni04CF" unicode="&#x4cf;" horiz-adv-x="254" 
d="M87 0v700h80v-700h-80z" />
    <glyph glyph-name="uni04D0" unicode="&#x4d0;" horiz-adv-x="585" 
d="M490 0l-72 194h-258l-70 -194h-82l265 711h38l266 -711h-87zM264 477l-77 -211h206l-78 213l-25 106h-1zM122 850l79 20c5 -49 39 -77 92 -77s86 28 92 76l71 -17c-15 -72 -66 -117 -164 -117c-94 0 -159 36 -170 115z" />
    <glyph glyph-name="uni04D1" unicode="&#x4d1;" horiz-adv-x="496" 
d="M94 404l-25 59c50 30 121 45 194 45c139 0 159 -83 159 -154c0 -80 -6 -157 -6 -225c0 -49 3 -94 14 -131h-59l-21 70h-5c-24 -36 -71 -76 -156 -76s-150 55 -150 142c0 117 101 153 247 153c18 0 36 0 55 -2c2 20 3 38 3 54c0 74 -24 99 -102 99
c-44 0 -111 -13 -148 -34zM211 62c76 0 116 44 130 79v83c-19 1 -38 2 -57 2c-83 0 -162 -17 -162 -84c0 -47 37 -80 89 -80zM88 678l68 24c13 -61 48 -82 91 -82s79 24 91 81l60 -19c-12 -77 -75 -120 -153 -120c-73 0 -144 36 -157 116z" />
    <glyph glyph-name="uni04D2" unicode="&#x4d2;" horiz-adv-x="585" 
d="M490 0l-72 194h-258l-70 -194h-82l265 711h38l266 -711h-87zM264 477l-77 -211h206l-78 213l-25 106h-1zM142 794c0 28 22 47 54 47c30 0 52 -19 52 -47c0 -27 -22 -46 -52 -46c-32 0 -54 19 -54 46zM334 794c0 28 22 47 52 47c32 0 54 -19 54 -47c0 -27 -22 -46 -54 -46
c-30 0 -52 19 -52 46z" />
    <glyph glyph-name="uni04D3" unicode="&#x4d3;" horiz-adv-x="496" 
d="M94 404l-25 59c50 30 121 45 194 45c139 0 159 -83 159 -154c0 -80 -6 -157 -6 -225c0 -49 3 -94 14 -131h-59l-21 70h-5c-24 -36 -71 -76 -156 -76s-150 55 -150 142c0 117 101 153 247 153c18 0 36 0 55 -2c2 20 3 38 3 54c0 74 -24 99 -102 99
c-44 0 -111 -13 -148 -34zM211 62c76 0 116 44 130 79v83c-19 1 -38 2 -57 2c-83 0 -162 -17 -162 -84c0 -47 37 -80 89 -80zM97 633c0 30 20 51 49 51s49 -21 49 -51c0 -28 -20 -49 -49 -49s-49 21 -49 49zM289 633c0 30 20 51 49 51c30 0 50 -21 50 -51
c0 -28 -20 -49 -50 -49c-29 0 -49 21 -49 49z" />
    <glyph glyph-name="uni04D4" unicode="&#x4d4;" horiz-adv-x="846" 
d="M395 600h-4l-34 -103l-133 -229h171v332zM395 0v198h-214l-112 -198h-91l415 700h383v-74h-298v-229h273v-74h-273v-249h303v-74h-386z" />
    <glyph glyph-name="uni04D5" unicode="&#x4d5;" horiz-adv-x="796" 
d="M211 62c76 0 116 44 130 79v83c-19 1 -38 2 -57 2c-83 0 -162 -17 -162 -84c0 -47 37 -80 89 -80zM374 84h-7c-34 -47 -89 -92 -178 -92c-85 0 -150 55 -150 142c0 117 101 153 247 153c18 0 36 0 55 -2c1 20 3 38 3 54c0 74 -24 99 -102 99c-44 0 -111 -13 -148 -34
l-25 59c50 30 121 45 194 45c69 0 116 -23 136 -65c34 48 100 69 158 69c91 0 190 -31 190 -199c0 -21 -2 -45 -5 -71h-323c0 -116 44 -184 161 -184c46 0 96 18 120 39l30 -57c-40 -32 -104 -52 -172 -52c-81 0 -152 35 -184 96zM558 442c-78 0 -129 -38 -137 -137h248v12
c0 90 -45 125 -111 125z" />
    <glyph glyph-name="uni04D6" unicode="&#x4d6;" horiz-adv-x="536" 
d="M85 0v700h381v-74h-298v-229h273v-74h-273v-249h303v-74h-386zM106 850l79 20c5 -49 39 -77 92 -77s86 28 92 76l71 -17c-15 -72 -66 -117 -164 -117c-94 0 -159 36 -170 115z" />
    <glyph glyph-name="uni04D7" unicode="&#x4d7;" horiz-adv-x="508" 
d="M412 98l30 -58c-40 -32 -104 -52 -172 -52c-153 0 -221 103 -221 262c0 169 80 262 220 262c91 0 190 -30 190 -197c0 -22 -2 -46 -6 -73h-321c1 -116 43 -184 161 -184c45 0 96 19 119 40zM270 442c-78 0 -128 -38 -137 -137h248c0 101 -41 137 -111 137zM108 678l68 24
c13 -61 48 -82 91 -82s79 24 91 81l60 -19c-12 -77 -75 -120 -153 -120c-73 0 -144 36 -157 116z" />
    <glyph glyph-name="uni04D8" unicode="&#x4d8;" horiz-adv-x="639" 
d="M500 322h-355c-3 -18 -4 -35 -4 -53c0 -108 49 -211 166 -211c123 0 192 91 193 264zM63 392h437c-12 170 -78 246 -215 246c-61 0 -125 -23 -155 -41l-21 67c40 24 110 48 192 48c180 0 282 -105 282 -362c0 -231 -92 -362 -277 -362c-166 0 -253 112 -253 291
c0 35 3 73 10 113z" />
    <glyph glyph-name="afii10846" unicode="&#x4d9;" horiz-adv-x="507" 
d="M95 402l-30 58c40 32 104 52 172 52c153 0 221 -104 221 -262c0 -168 -80 -262 -212 -262c-88 0 -197 46 -197 220c0 21 2 43 5 68h326c-7 113 -48 166 -166 166c-45 0 -95 -19 -119 -40zM248 58c73 0 130 53 130 155h-251v-15c0 -93 52 -140 121 -140z" />
    <glyph glyph-name="uni04DA" unicode="&#x4da;" horiz-adv-x="639" 
d="M500 322h-355c-3 -18 -4 -35 -4 -53c0 -108 49 -211 166 -211c123 0 192 91 193 264zM63 392h437c-12 170 -78 246 -215 246c-61 0 -125 -23 -155 -41l-21 67c40 24 110 48 192 48c180 0 282 -105 282 -362c0 -231 -92 -362 -277 -362c-166 0 -253 112 -253 291
c0 35 3 73 10 113zM161 794c0 28 22 47 54 47c30 0 52 -19 52 -47c0 -27 -22 -46 -52 -46c-32 0 -54 19 -54 46zM353 794c0 28 22 47 52 47c32 0 54 -19 54 -47c0 -27 -22 -46 -54 -46c-30 0 -52 19 -52 46z" />
    <glyph glyph-name="uni04DB" unicode="&#x4db;" horiz-adv-x="507" 
d="M95 402l-30 58c40 32 104 52 172 52c153 0 221 -104 221 -262c0 -168 -80 -262 -212 -262c-88 0 -197 46 -197 220c0 21 2 43 5 68h326c-7 113 -48 166 -166 166c-45 0 -95 -19 -119 -40zM248 58c73 0 130 53 130 155h-251v-15c0 -93 52 -140 121 -140zM100 633
c0 30 20 51 49 51s49 -21 49 -51c0 -28 -20 -49 -49 -49s-49 21 -49 49zM292 633c0 30 20 51 49 51c30 0 50 -21 50 -51c0 -28 -20 -49 -50 -49c-29 0 -49 21 -49 49z" />
    <glyph glyph-name="uni04DC" unicode="&#x4dc;" horiz-adv-x="806" 
d="M358 386v314h80v-326l43 14l203 312h92l-202 -304l-40 -32l50 -41l223 -323h-102l-221 324h-46v-324h-80v336l-42 -14l-221 -322h-96l221 313l48 38l-46 35l-209 314h97l203 -314h45zM250 794c0 28 22 47 54 47c30 0 52 -19 52 -47c0 -27 -22 -46 -52 -46
c-32 0 -54 19 -54 46zM442 794c0 28 22 47 52 47c32 0 54 -19 54 -47c0 -27 -22 -46 -54 -46c-30 0 -52 19 -52 46z" />
    <glyph glyph-name="uni04DD" unicode="&#x4dd;" horiz-adv-x="659" 
d="M287 235l-47 -14l-147 -221h-92l158 229l34 30l-51 38l-130 203h85l138 -216h52v216h78v-226l47 14l139 212h84l-136 -203l-39 -32l51 -40l148 -225h-95l-147 225h-52v-225h-78v235zM182 633c0 30 20 51 49 51s49 -21 49 -51c0 -28 -20 -49 -49 -49s-49 21 -49 49z
M374 633c0 30 20 51 49 51c30 0 50 -21 50 -51c0 -28 -20 -49 -50 -49c-29 0 -49 21 -49 49z" />
    <glyph glyph-name="uni04DE" unicode="&#x4de;" horiz-adv-x="541" 
d="M194 331h-55v70h16c24 0 73 1 95 5c69 11 126 52 126 117c0 87 -64 115 -141 115c-71 0 -123 -12 -153 -26l-22 66c26 15 103 34 189 34c107 0 215 -40 215 -172c0 -67 -44 -134 -132 -161v-4c94 -13 153 -72 153 -168c0 -153 -130 -219 -262 -219c-87 0 -142 11 -179 26
l21 75c31 -15 87 -27 165 -27c83 0 167 45 167 140c0 84 -65 120 -159 127c-16 1 -29 2 -44 2zM93 794c0 28 22 47 54 47c30 0 52 -19 52 -47c0 -27 -22 -46 -52 -46c-32 0 -54 19 -54 46zM285 794c0 28 22 47 52 47c32 0 54 -19 54 -47c0 -27 -22 -46 -54 -46
c-30 0 -52 19 -52 46z" />
    <glyph glyph-name="uni04DF" unicode="&#x4df;" horiz-adv-x="441" 
d="M183 223h-58v65h70c48 0 98 35 98 78c0 52 -37 71 -108 71c-52 0 -98 -20 -122 -35l-23 62c40 23 93 43 167 43c109 0 166 -42 166 -123c0 -46 -32 -98 -87 -116v-4c78 -15 106 -57 106 -124c0 -84 -69 -149 -209 -149c-68 0 -109 14 -145 31l23 66
c31 -17 76 -27 126 -27c81 0 125 28 125 85c0 48 -37 77 -129 77zM57 633c0 30 20 51 49 51s49 -21 49 -51c0 -28 -20 -49 -49 -49s-49 21 -49 49zM249 633c0 30 20 51 49 51c30 0 50 -21 50 -51c0 -28 -20 -49 -50 -49c-29 0 -49 21 -49 49z" />
    <glyph glyph-name="uni04E0" unicode="&#x4e0;" horiz-adv-x="563" 
d="M230 62c105 0 188 55 188 143c0 93 -77 136 -201 136h-88v27l186 224l44 43l-62 -9h-240v74h415v-30l-200 -239l-35 -29v-4l34 9c134 0 227 -74 227 -194c0 -143 -115 -225 -269 -225c-59 0 -139 15 -174 35l21 73c29 -17 102 -34 154 -34z" />
    <glyph glyph-name="uni04E1" unicode="&#x4e1;" horiz-adv-x="475" 
d="M188 -142c91 0 160 57 160 145c0 93 -62 138 -160 138h-73v26l144 224l45 43l-64 -8h-198v74h359v-29l-159 -238l-34 -29v-4l32 8c106 0 186 -76 186 -194c0 -144 -106 -226 -242 -226c-59 0 -107 10 -145 27l23 71c32 -16 73 -28 126 -28z" />
    <glyph glyph-name="uni04E2" unicode="&#x4e2;" horiz-adv-x="681" 
d="M513 0v474l6 80h-4l-43 -82l-338 -472h-49v700h83v-480l-7 -79h4l44 82l338 477h49v-700h-83zM189 781v62h316v-62h-316z" />
    <glyph glyph-name="uni04E3" unicode="&#x4e3;" horiz-adv-x="546" 
d="M389 0v296l3 62h-3l-41 -64l-225 -294h-46v500h80v-305l-3 -59h4l39 62l225 302h47v-500h-80zM130 581v62h296v-62h-296z" />
    <glyph glyph-name="uni04E4" unicode="&#x4e4;" horiz-adv-x="681" 
d="M513 0v474l6 80h-4l-43 -82l-338 -472h-49v700h83v-480l-7 -79h4l44 82l338 477h49v-700h-83zM190 794c0 28 22 47 54 47c30 0 52 -19 52 -47c0 -27 -22 -46 -52 -46c-32 0 -54 19 -54 46zM382 794c0 28 22 47 52 47c32 0 54 -19 54 -47c0 -27 -22 -46 -54 -46
c-30 0 -52 19 -52 46z" />
    <glyph glyph-name="uni04E5" unicode="&#x4e5;" horiz-adv-x="546" 
d="M389 0v296l3 62h-3l-41 -64l-225 -294h-46v500h80v-305l-3 -59h4l39 62l225 302h47v-500h-80zM135 633c0 30 20 51 49 51s49 -21 49 -51c0 -28 -20 -49 -49 -49s-49 21 -49 49zM327 633c0 30 20 51 49 51c30 0 50 -21 50 -51c0 -28 -20 -49 -50 -49c-29 0 -49 21 -49 49z
" />
    <glyph glyph-name="uni04E6" unicode="&#x4e6;" horiz-adv-x="684" 
d="M56 350c0 232 104 362 285 362c197 0 287 -144 287 -362c0 -232 -104 -362 -287 -362c-195 0 -285 144 -285 362zM144 350c0 -154 60 -288 197 -288c124 0 199 92 199 288c0 153 -60 288 -199 288c-122 0 -197 -93 -197 -288zM193 794c0 28 22 47 54 47
c30 0 52 -19 52 -47c0 -27 -22 -46 -52 -46c-32 0 -54 19 -54 46zM385 794c0 28 22 47 52 47c32 0 54 -19 54 -47c0 -27 -22 -46 -54 -46c-30 0 -52 19 -52 46z" />
    <glyph glyph-name="uni04E7" unicode="&#x4e7;" horiz-adv-x="536" 
d="M49 250c0 168 79 262 219 262c150 0 219 -104 219 -262c0 -168 -79 -262 -219 -262c-150 0 -219 104 -219 262zM132 250c0 -102 37 -192 136 -192c90 0 136 62 136 192c0 103 -37 192 -136 192c-89 0 -136 -62 -136 -192zM120 633c0 30 20 51 49 51s49 -21 49 -51
c0 -28 -20 -49 -49 -49s-49 21 -49 49zM312 633c0 30 20 51 49 51c30 0 50 -21 50 -51c0 -28 -20 -49 -50 -49c-29 0 -49 21 -49 49z" />
    <glyph glyph-name="uni04E8" unicode="&#x4e8;" horiz-adv-x="684" 
d="M56 350c0 232 104 362 285 362c197 0 287 -144 287 -362c0 -232 -104 -362 -287 -362c-195 0 -285 144 -285 362zM144 392h396c-10 158 -90 246 -199 246c-97 0 -187 -62 -197 -246zM540 318h-396c10 -171 91 -256 197 -256c99 0 192 57 199 256z" />
    <glyph glyph-name="uni04E9" unicode="&#x4e9;" horiz-adv-x="536" 
d="M49 250c0 168 79 262 219 262c150 0 219 -104 219 -262c0 -168 -79 -262 -219 -262c-150 0 -219 104 -219 262zM132 281h272c-11 112 -60 161 -136 161c-69 0 -130 -40 -136 -161zM404 217h-272c7 -104 63 -159 136 -159c68 0 128 37 136 159z" />
    <glyph glyph-name="uni04EA" unicode="&#x4ea;" horiz-adv-x="684" 
d="M56 350c0 232 104 362 285 362c197 0 287 -144 287 -362c0 -232 -104 -362 -287 -362c-195 0 -285 144 -285 362zM144 392h396c-10 158 -90 246 -199 246c-97 0 -187 -62 -197 -246zM540 318h-396c10 -171 91 -256 197 -256c99 0 192 57 199 256zM193 794
c0 28 22 47 54 47c30 0 52 -19 52 -47c0 -27 -22 -46 -52 -46c-32 0 -54 19 -54 46zM385 794c0 28 22 47 52 47c32 0 54 -19 54 -47c0 -27 -22 -46 -54 -46c-30 0 -52 19 -52 46z" />
    <glyph glyph-name="uni04EB" unicode="&#x4eb;" horiz-adv-x="536" 
d="M49 250c0 168 79 262 219 262c150 0 219 -104 219 -262c0 -168 -79 -262 -219 -262c-150 0 -219 104 -219 262zM132 281h272c-11 112 -60 161 -136 161c-69 0 -130 -40 -136 -161zM404 217h-272c7 -104 63 -159 136 -159c68 0 128 37 136 159zM120 633c0 30 20 51 49 51
s49 -21 49 -51c0 -28 -20 -49 -49 -49s-49 21 -49 49zM312 633c0 30 20 51 49 51c30 0 50 -21 50 -51c0 -28 -20 -49 -50 -49c-29 0 -49 21 -49 49z" />
    <glyph glyph-name="uni04EC" unicode="&#x4ec;" horiz-adv-x="577" 
d="M150 321v74h287c-11 168 -105 243 -227 243c-62 0 -113 -12 -143 -30l-22 65c41 24 106 39 175 39c171 0 301 -103 301 -362c0 -262 -150 -362 -322 -362c-66 0 -118 11 -154 25l22 73c31 -15 84 -24 137 -24c108 0 226 66 234 259h-288zM78 794c0 28 22 47 54 47
c30 0 52 -19 52 -47c0 -27 -22 -46 -52 -46c-32 0 -54 19 -54 46zM270 794c0 28 22 47 52 47c32 0 54 -19 54 -47c0 -27 -22 -46 -54 -46c-30 0 -52 19 -52 46z" />
    <glyph glyph-name="uni04ED" unicode="&#x4ed;" horiz-adv-x="465" 
d="M121 219v66h212c-6 94 -56 157 -145 157c-54 0 -96 -18 -121 -35l-28 61c41 28 94 44 164 44c148 0 213 -96 213 -262c0 -170 -84 -262 -223 -262c-62 0 -117 10 -153 30l23 68c31 -17 79 -28 122 -28c92 0 143 52 149 161h-213zM55 633c0 30 20 51 49 51s49 -21 49 -51
c0 -28 -20 -49 -49 -49s-49 21 -49 49zM247 633c0 30 20 51 49 51c30 0 50 -21 50 -51c0 -28 -20 -49 -50 -49c-29 0 -49 21 -49 49z" />
    <glyph glyph-name="uni04EE" unicode="&#x4ee;" horiz-adv-x="553" 
d="M103 700l179 -369l26 -89h5l20 92l134 366h85l-177 -455c-73 -188 -100 -250 -193 -250c-44 0 -66 7 -89 22l25 69c26 -15 49 -17 68 -17c37 0 61 39 80 113l-259 518h96zM138 781v62h316v-62h-316z" />
    <glyph glyph-name="uni04EF" unicode="&#x4ef;" horiz-adv-x="466" 
d="M104 500l120 -324l28 -96h5l22 97l97 323h81l-148 -449c-44 -131 -85 -256 -173 -256c-24 0 -43 3 -59 10l14 69c8 -3 17 -5 25 -5c37 0 75 35 97 131l-201 500h92zM98 581v62h296v-62h-296z" />
    <glyph glyph-name="uni04F0" unicode="&#x4f0;" horiz-adv-x="553" 
d="M103 700l179 -369l26 -89h5l20 92l134 366h85l-177 -455c-73 -188 -100 -250 -193 -250c-44 0 -66 7 -89 22l25 69c26 -15 49 -17 68 -17c37 0 61 39 80 113l-259 518h96zM145 794c0 28 22 47 54 47c30 0 52 -19 52 -47c0 -27 -22 -46 -52 -46c-32 0 -54 19 -54 46z
M337 794c0 28 22 47 52 47c32 0 54 -19 54 -47c0 -27 -22 -46 -54 -46c-30 0 -52 19 -52 46z" />
    <glyph glyph-name="uni04F1" unicode="&#x4f1;" horiz-adv-x="466" 
d="M104 500l120 -324l28 -96h5l22 97l97 323h81l-148 -449c-44 -131 -85 -256 -173 -256c-24 0 -43 3 -59 10l14 69c8 -3 17 -5 25 -5c37 0 75 35 97 131l-201 500h92zM98 633c0 30 20 51 49 51s49 -21 49 -51c0 -28 -20 -49 -49 -49s-49 21 -49 49zM290 633
c0 30 20 51 49 51c30 0 50 -21 50 -51c0 -28 -20 -49 -50 -49c-29 0 -49 21 -49 49z" />
    <glyph glyph-name="uni04F2" unicode="&#x4f2;" horiz-adv-x="553" 
d="M103 700l179 -369l26 -89h5l20 92l134 366h85l-177 -455c-73 -188 -100 -250 -193 -250c-44 0 -66 7 -89 22l25 69c26 -15 49 -17 68 -17c37 0 61 39 80 113l-259 518h96zM177 741l64 109h93v-16l-100 -93h-57zM301 741l102 109h99v-16l-143 -93h-58z" />
    <glyph glyph-name="uni04F3" unicode="&#x4f3;" horiz-adv-x="466" 
d="M104 500l120 -324l28 -96h5l22 97l97 323h81l-148 -449c-44 -131 -85 -256 -173 -256c-24 0 -43 3 -59 10l14 69c8 -3 17 -5 25 -5c37 0 75 35 97 131l-201 500h92zM160 571l35 129h78v-16l-71 -113h-42zM268 571l73 129h86v-16l-114 -113h-45z" />
    <glyph glyph-name="uni04F4" unicode="&#x4f4;" horiz-adv-x="605" 
d="M75 700h83v-232c0 -93 41 -137 124 -137c62 0 121 18 155 46v323h83v-700h-83v302c-36 -20 -97 -45 -172 -45c-113 0 -190 46 -190 196v247zM157 794c0 28 22 47 54 47c30 0 52 -19 52 -47c0 -27 -22 -46 -52 -46c-32 0 -54 19 -54 46zM349 794c0 28 22 47 52 47
c32 0 54 -19 54 -47c0 -27 -22 -46 -54 -46c-30 0 -52 19 -52 46z" />
    <glyph glyph-name="uni04F5" unicode="&#x4f5;" horiz-adv-x="490" 
d="M49 500h80v-136c0 -71 11 -118 86 -118c60 0 98 16 118 32v222h80v-500h-80v210c-21 -13 -61 -34 -134 -34c-98 0 -150 39 -150 172v152zM84 633c0 30 20 51 49 51s49 -21 49 -51c0 -28 -20 -49 -49 -49s-49 21 -49 49zM276 633c0 30 20 51 49 51c30 0 50 -21 50 -51
c0 -28 -20 -49 -50 -49c-29 0 -49 21 -49 49z" />
    <glyph glyph-name="uni04F6" unicode="&#x4f6;" horiz-adv-x="442" 
d="M460 700v-74h-292v-552h92v-203h-58l-15 129h-102v700h375z" />
    <glyph glyph-name="uni04F7" unicode="&#x4f7;" horiz-adv-x="369" 
d="M77 0v500h292v-70h-212v-360h74v-197h-54l-15 127h-85z" />
    <glyph glyph-name="uni04F8" unicode="&#x4f8;" horiz-adv-x="769" 
d="M601 0v700h83v-700h-83zM85 7v693h83v-272c14 3 55 8 86 8c126 0 245 -45 245 -210c0 -161 -107 -234 -261 -234c-37 0 -102 2 -153 15zM245 64c96 0 166 52 166 156c0 113 -80 144 -170 144c-24 0 -59 -5 -73 -9v-285c18 -4 45 -6 77 -6zM229 794c0 28 22 47 54 47
c30 0 52 -19 52 -47c0 -27 -22 -46 -52 -46c-32 0 -54 19 -54 46zM421 794c0 28 22 47 52 47c32 0 54 -19 54 -47c0 -27 -22 -46 -54 -46c-30 0 -52 19 -52 46z" />
    <glyph glyph-name="uni04F9" unicode="&#x4f9;" horiz-adv-x="660" 
d="M157 243v-173c25 -4 49 -6 71 -6c83 0 113 35 113 94c0 53 -29 92 -110 92c-22 0 -51 -1 -74 -7zM157 500v-191c32 5 62 7 88 7c137 0 179 -65 179 -149c0 -121 -63 -173 -214 -173c-44 0 -87 2 -133 6v500h80zM503 0v500h80v-500h-80zM179 633c0 30 20 51 49 51
s49 -21 49 -51c0 -28 -20 -49 -49 -49s-49 21 -49 49zM371 633c0 30 20 51 49 51c30 0 50 -21 50 -51c0 -28 -20 -49 -50 -49c-29 0 -49 21 -49 49z" />
    <glyph glyph-name="uni04FC" unicode="&#x4fc;" horiz-adv-x="618" 
d="M479 -42c0 65 -26 113 -52 154l-91 139l-29 60l-26 -60l-162 -251h-93l233 356l-213 344h100l142 -237l25 -57l24 57l150 237h92l-220 -337l139 -215c42 -65 61 -118 61 -173c0 -123 -43 -185 -137 -185c-10 0 -20 0 -31 2v68c76 0 88 47 88 98z" />
    <glyph glyph-name="uni04FD" unicode="&#x4fd;" horiz-adv-x="514" 
d="M308 260l96 -134c39 -55 64 -111 64 -162c0 -115 -52 -176 -147 -176c-10 0 -22 1 -31 2v68c76 0 98 30 98 89c0 54 -28 104 -55 142l-47 63l-32 56l-29 -56l-108 -152h-89l180 256l-168 244h98l95 -138l28 -57l29 57l97 138h90z" />
    <glyph glyph-name="uni04FE" unicode="&#x4fe;" horiz-adv-x="618" 
d="M57 321v74h178l-189 305h100l142 -237l25 -57l24 57l150 237h92l-199 -305h184v-74h-179l204 -321h-97l-158 251l-27 60l-26 -60l-162 -251h-93l210 321h-179z" />
    <glyph glyph-name="uni04FF" unicode="&#x4ff;" horiz-adv-x="514" 
d="M55 225v66h129l-144 209h98l95 -138l28 -57l29 57l97 138h90l-147 -209h138v-66h-136l155 -225h-95l-106 152l-30 60l-31 -60l-108 -152h-89l158 225h-131z" />
    </font>
</defs>
</svg>
