<?xml version="1.0" encoding="UTF-8"?> <svg xmlns="http://www.w3.org/2000/svg" xmlns:xlink="http://www.w3.org/1999/xlink" width="382px" height="133px" viewBox="0 0 382 133"> <!-- Generator: Sketch 57.1 (83088) - https://sketch.com --> <title>Group</title> <desc>Created with Sketch.</desc> <g id="Page-1" stroke="none" stroke-width="1" fill="none" fill-rule="evenodd"> <g id="Brocard_Logo_480x360" transform="translate(-55.000000, -115.000000)" fill="#000000"> <g id="Group" transform="translate(55.564000, 115.354000)"> <path d="M375.081,2.793 L376.26,2.793 C376.873,2.821 377.17,3.103 377.17,3.628 C377.17,4.208 376.71,4.625 375.96,4.625 L375.081,4.625 L375.081,2.793 Z M375.081,5.029 L375.389,5.029 L376.03,5.729 L376.994,6.874 C377.158,7.088 377.321,7.305 377.499,7.534 C377.646,7.52 377.809,7.493 377.958,7.493 C378.108,7.493 378.259,7.52 378.421,7.534 L378.27,7.346 L377.892,6.927 L376.219,4.961 C377.035,4.828 377.878,4.409 377.878,3.535 C377.878,2.78 377.334,2.389 376.084,2.389 L374.374,2.389 L374.374,7.534 C374.481,7.52 374.602,7.493 374.726,7.493 C374.835,7.493 374.957,7.52 375.081,7.534 L375.081,5.029 Z M376.164,9.755 C378.828,9.755 380.974,7.614 380.974,4.961 C380.974,2.323 378.828,0.182 376.164,0.182 C373.491,0.182 371.316,2.323 371.316,4.961 C371.316,7.614 373.491,9.755 376.164,9.755 L376.164,9.755 Z M376.164,9.083 C373.924,9.083 372.062,7.197 372.062,4.961 C372.062,2.74 373.924,0.855 376.164,0.855 C378.408,0.855 380.228,2.74 380.228,4.961 C380.228,7.197 378.408,9.083 376.164,9.083 L376.164,9.083 Z" id="Fill-3"></path> <path d="M4.715,28.523 C4.715,30.323 4.811,34.487 4.35,36.006 C3.787,37.974 1.638,37.918 3.55271368e-15,37.918 L3.55271368e-15,39.212 C2.866,39.155 5.783,39.258 8.648,39.202 C10.9,39.258 13.101,39.155 15.352,39.212 C18.322,39.212 22.006,39.325 24.77,37.75 C27.636,36.061 29.733,33.304 29.733,29.591 C29.733,26.329 28.198,23.628 25.794,21.827 C23.797,20.308 21.188,19.802 18.322,19.52 L18.322,19.407 C22.211,18.115 25.999,15.918 25.999,10.799 C25.999,3.317 18.785,1.972 13.408,1.966 C11.326,1.964 9.367,1.966 7.318,1.977 C4.807,1.991 2.493,1.964 3.55271368e-15,1.966 L3.55271368e-15,3.261 C1.638,3.261 3.787,3.205 4.35,5.173 C4.811,6.694 4.715,10.857 4.715,12.657 L4.715,28.523 Z M10.083,20.42 L11.668,20.42 C14.278,20.42 17.298,20.252 19.653,21.603 C22.314,23.177 23.337,25.878 23.337,29.084 C23.337,34.429 21.085,37.6921214 16.07,37.6921214 C14.126,37.6921214 11.565,37.75 10.696,35.331 C10.083,33.642 10.083,30.154 10.083,28.241 L10.083,20.42 Z M10.083,6.243 C10.083,5.792 10.031,4.217 10.388,3.878 C10.799,3.485 12.743,3.598 13.408,3.598 C17.964,3.598 20.42,6.074 20.42,11.08 C20.42,13.782 19.959,16.201 17.81,17.719 C15.813,19.013 13.971,18.902 11.72,18.902 L10.083,18.902 L10.083,6.243 L10.083,6.243 Z" id="Fill-4"></path> <path d="M71.24,20.895 C76.307,20.389 80.504,17.292 80.504,11.213 C80.504,3.387 74.618,1.924 68.783,1.924 C68,1.933 54.851,1.933 53.481,1.924 L53.481,3.219 C55.12,3.219 57.268,3.163 57.832,5.132 C58.292,6.653 58.173,10.819 58.173,12.62 L58.173,28.497 C58.173,30.297 58.292,34.464 57.832,35.983 C57.268,37.898 55.12,37.898 53.481,37.898 L53.481,39.193 C55.942,39.183 58.676,39.218 61.158,39.206 C63.616,39.194 66.002,39.183 68.375,39.193 L68.375,37.898 C66.737,37.898 64.638,37.955 64.024,35.983 C63.563,34.464 63.563,30.297 63.563,28.497 L63.563,21.853 C66.277,21.853 66.071,22.19 67.761,24.331 L76.256,35.927 L78.661,39.193 C79.884,39.183 81.216,39.194 82.5,39.206 C83.915,39.218 85.738,39.183 87.105,39.193 L87.105,37.898 C84.495,37.448 83.728,36.659 82.089,34.577 L71.24,20.895 Z M63.563,5.638 C63.563,5.02 63.461,3.951 64.126,3.612 C64.587,3.387 66.839,3.556 67.453,3.556 C72.059,3.556 74.618,7.045 74.618,12.001 C74.618,20.164 69.961,20.334 63.563,20.334 L63.563,5.638 L63.563,5.638 Z" id="Fill-5"></path> <path d="M126.391,39.941 C136.414,39.941 144.403,31.66 144.403,19.709 C144.403,8.164 136.067,0 126.589,0 C117.013,0 108.379,8.513 108.379,20.117 C108.379,31.836 116.715,39.941 126.391,39.941 M126.391,1.575 C135.124,1.575 138.201,11.196 138.201,19.941 C138.201,28.63 135.521,38.367 126.689,38.367 C117.659,38.367 114.582,29.27 114.582,20.117 C114.582,11.488 117.807,1.575 126.391,1.575" id="Fill-6"></path> <path d="M198.375,2.136 L199.632,2.136 L199.632,13.133 L198.375,13.133 C197.514,6.936 193.566,2.583 187.69,2.583 C178.626,2.583 175.892,12.464 175.892,20.837 C175.892,29.266 178.829,38.254 187.792,38.254 C194.879,38.254 197.464,32.671 198.982,25.973 L199.893,25.973 L199.893,38.199 L199.237,38.199 L198.021,35.351 C194.627,38.31 191.184,39.539 186.829,39.539 C176.55,39.539 169.561,32.224 169.561,20.837 C169.561,9.504 177.006,1.298 187.286,1.298 C191.439,1.298 194.07,2.359 197.565,4.76 L198.375,2.136" id="Fill-7"></path> <path d="M234.533,25.545 L247.172,25.545 L249.173,31.354 C249.632,32.651 250.193,34.342 250.193,35.752 C250.193,37.953 247.685,37.839 246.251,37.896 L246.251,39.193 C246.255,39.183 260.909,39.183 260.942,39.193 L260.942,37.896 C259.2,37.67 257.665,37.445 256.54,35.81 C255.619,34.512 254.495,31.07 253.877,29.606 L243.541,0.957 L241.73,0.957 C241.73,0.957 229.42,34.662 229.261,34.99 C228.334,36.907 227.169,37.607 224.809,37.896 L224.809,39.193 C226.519,39.183 233.88,39.183 235.763,39.193 L235.763,37.896 C234.226,37.727 231.619,37.896 231.619,35.471 C231.619,33.271 233.307,29.098 234.072,26.955 L234.533,25.545 Z M235.198,23.741 L241.02,7.836 L246.509,23.741 L235.198,23.741 L235.198,23.741 Z" id="Fill-8"></path> <path d="M339.889,28.477 C339.889,30.276 339.889,34.435 339.428,35.953 C338.864,37.865 336.713,37.865 335.077,37.865 L335.077,39.156 C335.086,39.206 348.126,39.206 351.146,39.156 C361.689,38.985 368.8,33.254 368.8,21.34 C368.8,9.144 360.613,2.04 349.814,1.949 C347.46,1.929 337.395,1.929 335.077,1.949 L335.077,3.354 C336.713,3.354 338.864,3.296 339.428,5.264 C339.889,6.784 339.889,10.942 339.889,12.741 L339.889,28.477 Z M345.155,5.601 C345.155,5.153 345.155,4.196 345.464,3.86 C345.925,3.354 347.92,3.466 348.538,3.466 C359.487,3.466 362.404,11.11 362.404,22.239 C362.404,30.557 360.662,37.639 351.709,37.639 C349.764,37.639 347.155,37.414 345.976,35.503 C344.953,33.874 345.155,31.176 345.155,29.265 L345.155,5.601 L345.155,5.601 Z" id="Fill-9"></path> <path d="M2.89,53.355 L5.572,53.355 C7.426,53.355 8.101,52.674 8.101,52.071 C8.101,51.372 7.15,50.853 5.572,50.853 L1.735,50.853 L1.735,55.185 L2.89,55.185 L2.89,53.355 Z M2.89,51.349 L5.229,51.349 C6.178,51.349 6.913,51.528 6.913,52.077 C6.913,52.662 6.213,52.856 5.18,52.856 L2.89,52.856 L2.89,51.349 L2.89,51.349 Z" id="Fill-10"></path> <path d="M68.317,53.922 L69.16,55.185 L70.419,55.185 L67.33,50.853 L66.025,50.853 L62.818,55.185 L64.004,55.185 L64.896,53.922 L68.317,53.922 Z M65.254,53.404 L66.62,51.497 L66.643,51.497 L67.9,53.404 L65.254,53.404 L65.254,53.404 Z" id="Fill-11"></path> <path d="M124.342,53.328 L127.135,53.328 C128.514,53.328 128.655,53.74 128.655,54.096 C128.655,54.262 128.692,54.917 128.859,55.185 L130.269,55.185 L130.269,55.088 C129.913,54.986 129.855,54.893 129.842,54.651 L129.772,53.869 C129.724,53.266 129.237,53.157 128.753,53.052 C129.3,52.892 129.938,52.654 129.938,52.016 C129.938,51.099 128.537,50.853 127.135,50.853 L123.192,50.853 L123.192,55.185 L124.342,55.185 L124.342,53.328 Z M124.342,51.349 L127.218,51.349 C127.79,51.349 128.753,51.405 128.753,52.077 C128.753,52.714 127.861,52.825 127.018,52.825 L124.342,52.825 L124.342,51.349 L124.342,51.349 Z" id="Fill-12"></path> <polyline id="Fill-13" points="185.765 55.185 184.615 55.185 184.615 50.853 190.523 50.853 190.523 51.372 185.765 51.372 185.765 52.699 189.952 52.699 189.952 53.217 185.765 53.217 185.765 55.185"></polyline> <path d="M248.666,50.853 L248.666,53.662 C248.666,54.549 247.571,55.295 245.228,55.295 C242.937,55.295 241.952,54.549 241.952,53.74 L241.952,50.853 L243.106,50.853 L243.106,53.581 C243.106,54.521 244.232,54.779 245.269,54.779 C246.325,54.779 247.509,54.533 247.509,53.59 L247.509,50.853 L248.666,50.853" id="Fill-14"></path> <path d="M306.609,55.185 L306.609,52.626 C306.609,52.499 306.631,51.95 306.631,51.545 L306.609,51.545 L304.208,55.185 L303.067,55.185 L300.668,51.551 L300.646,51.551 C300.646,51.95 300.668,52.499 300.668,52.626 L300.668,55.185 L299.555,55.185 L299.555,50.853 L301.207,50.853 L303.637,54.514 L303.665,54.514 L306.088,50.853 L307.723,50.853 L307.723,55.185 L306.609,55.185" id="Fill-15"></path> <path d="M366.164,52.119 C366.099,51.451 365.011,51.237 364.049,51.237 C363.318,51.237 362.102,51.34 362.102,51.996 C362.102,52.366 362.616,52.488 363.108,52.549 L365.545,52.828 C366.648,52.962 367.48,53.301 367.48,53.988 C367.48,55.016 365.607,55.296 364.145,55.296 C362.565,55.296 361.948,55.058 361.565,54.885 C360.842,54.549 360.699,54.188 360.699,53.784 L361.78,53.784 C361.78,54.569 363.039,54.796 364.13,54.796 C364.962,54.796 366.366,54.687 366.366,54.07 C366.366,53.616 365.948,53.472 364.545,53.301 L362.804,53.096 C362.242,53.03 360.983,52.828 360.983,52.077 C360.983,51.399 361.852,50.738 363.918,50.738 C366.897,50.738 367.192,51.643 367.248,52.119 L366.164,52.119" id="Fill-16"></path> <polygon id="Fill-17" points="0.024 45.511 368.847 45.511 368.847 44.788 0.024 44.788"></polygon> <path d="M299.802,20.938 C304.869,20.431 309.065,17.334 309.065,11.254 C309.065,3.428 303.18,1.965 297.345,1.965 C295.194,2.022 292.95,1.985 290.846,2 C287.904,2.022 284.888,1.998 282.042,1.965 L282.042,3.26 C283.681,3.26 285.83,3.203 286.393,5.175 C286.854,6.695 286.734,10.862 286.734,12.663 L286.734,28.539 C286.734,30.339 286.854,34.505 286.393,36.026 C285.83,37.939 283.681,37.939 282.042,37.939 L282.042,39.235 C284.504,39.224 287.236,39.26 289.718,39.248 C292.176,39.236 294.563,39.224 296.936,39.235 L296.936,37.939 C295.295,37.939 293.199,37.996 292.585,36.026 C292.125,34.505 292.125,30.339 292.125,28.539 L292.125,21.895 C294.837,21.895 294.632,22.232 296.321,24.373 L304.816,35.969 L307.221,39.235 C308.447,39.224 309.776,39.236 311.06,39.248 C312.477,39.26 314.3,39.224 315.668,39.235 L315.668,37.939 C313.056,37.49 312.289,36.701 310.65,34.618 L299.802,20.938 Z M292.125,5.681 C292.125,5.062 292.023,3.992 292.687,3.655 C293.148,3.428 295.401,3.598 296.015,3.598 C300.622,3.598 303.18,7.088 303.18,12.042 C303.18,20.206 298.521,20.375 292.125,20.375 L292.125,5.681 L292.125,5.681 Z" id="Fill-18"></path> <path d="M192.22,129.554 L192.22,95.005 C222.691,96.108 246.21,103.413 246.21,112.268 C246.21,121.152 222.691,128.452 192.22,129.554 M192.228,92.688 L192.228,92.647 C202.551,91.616 210.096,88.353 210.096,84.481 C210.096,80.532 202.255,77.216 191.622,76.252 L189.607,76.058 L189.607,131.709 C235.434,131.083 271.699,122.585 271.699,112.16 C271.699,101.962 236.807,93.589 192.228,92.688" id="Fill-19"></path> <path d="M127.826,112.268 C127.826,103.413 151.344,96.108 181.812,95.005 L181.812,129.555 C151.344,128.452 127.826,121.152 127.826,112.268 M102.338,112.16 C102.338,122.585 138.601,131.084 184.426,131.709 L184.426,76.058 L182.412,76.253 C171.78,77.216 163.938,80.532 163.938,84.481 C163.938,88.353 171.484,91.616 181.807,92.647 L181.807,92.688 C137.229,93.589 102.338,101.962 102.338,112.16" id="Fill-20"></path> </g> </g> </g> </svg> 