<?xml version="1.0" encoding="utf-8"?>
<!-- Generator: Adobe Illustrator 19.2.1, SVG Export Plug-In . SVG Version: 6.00 Build 0)  -->
<svg version="1.1" id="Layer_1" xmlns="http://www.w3.org/2000/svg" xmlns:xlink="http://www.w3.org/1999/xlink" x="0px" y="0px"
	 viewBox="0 0 332.1 64.6" style="enable-background:new 0 0 332.1 64.6;" xml:space="preserve">
<style type="text/css">
	.st0{fill:#FFFFFF;}
</style>
<g>
	<g>
		<path class="st0" d="M258.2,47.1h7.1v7.1h-7.1V47.1z"/>
		<path class="st0" d="M294.1,54.2h-6.3v-3.6h-0.1c-0.9,1.5-2.8,4.3-7.6,4.3c-4.9,0-8.7-2.9-8.7-8.4V29h6.5v15.4c0,1.8,0.1,5,4.4,5
			c3,0,5.3-2,5.3-5.8V29h6.5L294.1,54.2L294.1,54.2z"/>
		<path class="st0" d="M320.7,49.2c0,3,0.7,3.7,1.5,3.9v1H315c-0.2-0.6-0.6-1.6-0.6-2.9c-2,2.1-3.6,3.7-8,3.7
			c-4.5,0-7.8-2.6-7.8-7.8c0-4.2,2.6-7.1,6.9-7.8l6.4-0.9c0.9-0.1,2.3-0.4,2.3-2.1c0-1.7-0.9-2.8-4-2.8c-3.5,0-4.1,1.5-4.4,3.5h-6.5
			c0-1.8,1.3-8.7,10.7-8.8c9,0,10.7,4,10.7,7.6L320.7,49.2z M314.2,41.9c-0.8,0.4-1.5,0.8-2.8,1l-1.7,0.3c-3,0.6-4.5,1.4-4.5,3.9
			c0,2.2,1.5,3.1,3.3,3.1c1.5,0,5.8-0.8,5.8-5.9L314.2,41.9L314.2,41.9z"/>
	</g>
</g>
</svg>
