<?xml version="1.0" encoding="utf-8"?>
<!-- Generator: Adobe Illustrator 19.2.1, SVG Export Plug-In . SVG Version: 6.00 Build 0)  -->
<svg version="1.1" id="Layer_1" xmlns="http://www.w3.org/2000/svg" xmlns:xlink="http://www.w3.org/1999/xlink" x="0px" y="0px"
	 viewBox="0 0 332.1 64.6" style="enable-background:new 0 0 332.1 64.6;" xml:space="preserve">
<style type="text/css">
	.st0{fill:#EC1C24;}
	.st1{fill:#FFFFFF;}
</style>
<g>
	<g>
		<rect x="0.3" class="st0" width="253.3" height="64.6"/>
	</g>
	<g>
		<path class="st1" d="M48.5,10.8v34.1h5.1v19.8H43.3V54H17v10.8H6.6V44.9h4.7c2.8-3.6,4.5-12,4.5-22.4V10.8H48.5z M37.4,19.9H26.1
			v5.3c0,11.6-1.6,16.5-3.8,19.8h15.1L37.4,19.9L37.4,19.9z"/>
		<path class="st1" d="M93.3,41.3c-2.9,10.4-11.4,13.8-18.6,13.8c-11.9,0-21.1-5.9-21.1-23.6c0-5.2,1.8-21.8,20.3-21.8
			c11.9,0,19.9,6.7,19.9,21.5v4.3H65c0,3.3,0.7,10.6,9.7,10.6c3.2,0,6.3-1.7,7.2-4.7L93.3,41.3L93.3,41.3z M82.3,28.1
			c-0.6-6.9-5-9.1-8.6-9.1c-5.3,0-8.1,3.5-8.8,9.1H82.3z"/>
		<path class="st1" d="M107.7,26.9h15.9V10.8h11.1V54h-11.1V36h-15.9v18H96.5V10.8h11.1V26.9z"/>
		<path class="st1" d="M151.3,26.9h7.9c10.3,0,17.1,5.3,17.1,14.3c0,8.7-7.5,12.8-17,12.8h-19.1V10.8h11.1L151.3,26.9L151.3,26.9z
			 M151.3,46.2h7.6c4,0,6.3-1.9,6.3-5.2c0-3.8-2.3-6.3-6.3-6.3h-7.6V46.2z"/>
		<path class="st1" d="M207.1,10.8v9.1h-17V54H179V10.8C179,10.8,207.1,10.8,207.1,10.8z"/>
		<path class="st1" d="M220.3,38.2l16.1-27.4h11.9V54h-11.1V26.5L221.1,54h-11.9V10.8h11.1L220.3,38.2L220.3,38.2z"/>
	</g>
</g>
</svg>
