<svg id="Layer_1" data-name="Layer 1" xmlns="http://www.w3.org/2000/svg" viewBox="0 0 315.59 55.1">
  <defs>
    <style>
      .cls-1 {
        fill: #fff;
      }
    </style>
  </defs>
  <title>Dengi_w</title>
  <g>
    <g>
      <path class="cls-1" d="M48.51,10.8V44.92h5.13V64.77H43.3V54H17V64.77H6.63V44.92h4.65c2.84-3.61,4.49-12,4.49-22.4V10.8H48.51ZM37.38,19.87H26.11v5.3c0,11.56-1.58,16.46-3.78,19.75H37.39V19.87h0Z" transform="translate(-6.63 -9.67)"/>
      <path class="cls-1" d="M93.3,41.31C90.39,51.67,81.94,55.12,74.69,55.12c-11.91,0-21.14-5.86-21.14-23.61,0-5.22,1.81-21.84,20.35-21.84,11.91,0,19.87,6.66,19.87,21.52v4.26H65c0,3.29.71,10.6,9.7,10.6,3.15,0,6.31-1.68,7.18-4.74H93.3Zm-11-13.25c-0.63-6.9-5-9.07-8.6-9.07-5.29,0-8.13,3.45-8.75,9.07H82.34Z" transform="translate(-6.63 -9.67)"/>
      <path class="cls-1" d="M107.66,26.94h15.85V10.8h11.12V54H123.51V36H107.66V54H96.53V10.8h11.12V26.94Z" transform="translate(-6.63 -9.67)"/>
      <path class="cls-1" d="M151.27,26.94h7.89c10.33,0,17.11,5.3,17.11,14.3,0,8.67-7.49,12.77-17,12.77H140.15V10.8h11.12V26.94h0Zm0,19.27h7.57c4,0,6.31-1.93,6.31-5.22,0-3.78-2.29-6.26-6.31-6.26h-7.57V46.21Z" transform="translate(-6.63 -9.67)"/>
      <path class="cls-1" d="M207.15,10.8v9.07h-17V54H179V10.8h28.11Z" transform="translate(-6.63 -9.67)"/>
      <path class="cls-1" d="M220.28,38.18L236.37,10.8h11.91V54H237.16V26.54L221.07,54H209.17V10.8h11.12V38.18h0Z" transform="translate(-6.63 -9.67)"/>
    </g>
    <g>
      <path class="cls-1" d="M258.18,47.1h7.1v7.1h-7.1V47.1Z" transform="translate(-6.63 -9.67)"/>
      <path class="cls-1" d="M294.09,54.2H287.8V50.6h-0.1A8.1,8.1,0,0,1,280.13,55c-4.87,0-8.7-2.89-8.7-8.42V29H278V44.4c0,1.85.1,5,4.35,5,3,0,5.25-2,5.25-5.82V29h6.53V54.2h0Z" transform="translate(-6.63 -9.67)"/>
      <path class="cls-1" d="M320.7,49.23c0,3,.71,3.69,1.52,3.93v1H315a7.43,7.43,0,0,1-.61-2.93c-2,2.08-3.6,3.69-8,3.69s-7.76-2.64-7.76-7.76c0-4.16,2.65-7.14,6.9-7.76l6.39-.94c0.9-.14,2.32-0.38,2.32-2.08s-0.95-2.84-4-2.84c-3.5,0-4.07,1.51-4.35,3.46h-6.53c0-1.85,1.28-8.66,10.74-8.75,9,0,10.69,4,10.69,7.62V49.23Zm-6.53-7.33a8.25,8.25,0,0,1-2.79,1l-1.75.33c-3,.57-4.54,1.37-4.54,3.93,0,2.18,1.46,3.13,3.31,3.13a5.53,5.53,0,0,0,5.77-5.87V41.9h0Z" transform="translate(-6.63 -9.67)"/>
    </g>
  </g>
</svg>
