<?xml version="1.0" encoding="UTF-8"?>
<!DOCTYPE svg PUBLIC "-//W3C//DTD SVG 1.1//EN" "http://www.w3.org/Graphics/SVG/1.1/DTD/svg11.dtd">
<!-- Creator: CorelDRAW X8 -->
<svg xmlns="http://www.w3.org/2000/svg" xml:space="preserve" width="67.6275mm" height="15.6034mm" version="1.1" style="shape-rendering:geometricPrecision; text-rendering:geometricPrecision; image-rendering:optimizeQuality; fill-rule:evenodd; clip-rule:evenodd"
viewBox="0 0 6763 1560"
 xmlns:xlink="http://www.w3.org/1999/xlink">
 <defs>
  <style type="text/css">
   <![CDATA[
    .fil1 {fill:white}
    .fil0 {fill:#FEFEFE;fill-rule:nonzero}
   ]]>
  </style>
 </defs>
 <g id="Слой_x0020_1">
  <metadata id="CorelCorpID_0Corel-Layer"/>
  <g id="_1790905132880">
   <g>
    <path class="fil0" d="M5982 927c0,36 -28,63 -63,63l-642 0 1 -28c3,-138 47,-226 147,-291l271 -175c51,-32 111,-87 112,-166 0,-123 -75,-199 -195,-199 -45,0 -191,13 -196,190 -1,37 -31,68 -68,68 -38,0 -68,-31 -68,-69 7,-189 140,-316 332,-316 140,0 248,63 295,171 79,187 -15,351 -141,427 -69,42 -271,176 -271,176 -38,25 -62,52 -74,87l497 0c35,0 63,28 63,62z"/>
    <path class="fil0" d="M4430 865l-497 0c12,-35 35,-62 74,-87 0,0 201,-134 270,-176 126,-76 220,-240 141,-427 -46,-108 -154,-171 -295,-171 -191,0 -325,127 -331,316 0,38 30,69 68,69 36,0 67,-31 67,-68 5,-177 151,-190 196,-190 120,0 195,76 195,199 0,79 -61,134 -111,166l-271 175c-101,65 -145,153 -147,291l-1 28 641 0c36,0 63,-27 64,-63 0,-34 -28,-62 -63,-62z"/>
    <path class="fil0" d="M5274 507c0,291 -178,508 -413,509 -238,0 -411,-211 -411,-502 0,-291 178,-509 413,-509 238,-1 411,211 411,502zm-136 5c0,-189 -104,-383 -277,-383 -179,1 -275,196 -275,379 0,190 104,383 277,383 179,0 275,-195 275,-379z"/>
    <path class="fil0" d="M3733 514c0,284 -208,514 -479,514l-449 0c-206,0 -347,-55 -434,-155 -13,-15 -26,-31 -37,-47 -33,-45 -61,-83 -92,-124l-238 0 0 194c0,54 -44,98 -98,98 -55,0 -98,-45 -98,-98l-1 -764c0,-54 44,-98 98,-98l429 0c185,0 334,150 334,334 0,138 -84,257 -203,308l38 50c17,23 37,42 60,57 14,9 34,20 57,30 55,21 126,35 185,35l449 0c148,0 271,-152 271,-334 0,-182 -123,-314 -271,-314 -147,0 -271,132 -271,314 0,103 43,189 107,245l21 19 -266 0c-44,-78 -69,-167 -69,-264 0,-284 208,-514 478,-514 271,0 479,230 479,514zm-1262 -146c0,-75 -61,-137 -137,-137l-330 0 0 274 330 0c76,0 137,-61 137,-137z"/>
    <path class="fil0" d="M1570 28c-55,0 -98,44 -98,99l0 457c0,129 -96,225 -203,225 -106,0 -201,-96 -201,-225l0 -457c0,-54 -43,-98 -97,-99 -56,-1 -100,44 -100,99l0 457c0,226 175,414 400,415 222,-1 397,-190 397,-415l0 -457c0,-54 -42,-99 -98,-99z"/>
    <path class="fil0" d="M6763 545c-16,270 -188,468 -412,468 -238,1 -411,-211 -411,-502 0,-291 178,-508 413,-509 227,0 394,191 410,461l0 82zm-135 -35c0,-190 -104,-383 -277,-383 -179,0 -275,195 -275,379 0,189 104,383 277,383 179,-1 275,-196 275,-379z"/>
    <path class="fil0" d="M687 226c54,0 98,-45 98,-99 0,-56 -45,-99 -100,-99l-586 0c-55,0 -99,44 -99,99l0 763c0,56 46,98 99,98l588 0c54,0 98,-44 98,-98 0,-56 -45,-99 -100,-99l-488 0 0 -184 416 -1c55,0 98,-44 98,-98 0,-56 -45,-98 -99,-98l-415 0 0 -184 490 0z"/>
   </g>
   <g>
    <path class="fil0" d="M236 1391l35 9c-7,29 -20,52 -40,67 -19,15 -43,23 -71,23 -29,0 -52,-6 -70,-18 -19,-11 -32,-29 -42,-51 -9,-22 -14,-46 -14,-72 0,-28 5,-52 16,-73 11,-21 26,-37 46,-48 19,-11 41,-16 65,-16 27,0 49,7 68,21 18,13 31,32 38,57l-35 9c-6,-20 -15,-34 -27,-43 -12,-9 -27,-14 -45,-14 -20,0 -38,5 -52,15 -13,10 -23,24 -29,40 -5,17 -8,34 -8,52 0,23 3,43 10,60 6,17 17,30 31,38 14,8 29,13 45,13 20,0 37,-6 51,-18 13,-11 23,-28 28,-51zm80 -174l211 0 0 269 -36 0 0 -238 -140 0 0 238 -35 0 0 -269zm270 269l0 -269 195 0 0 31 -159 0 0 83 148 0 0 31 -148 0 0 92 165 0 0 32 -201 0zm251 -269l36 0 0 237 139 0 0 -237 36 0 0 237 25 0 0 106 -32 0 0 -74 -204 0 0 -269zm277 0l212 0 0 269 -36 0 0 -238 -140 0 0 238 -36 0 0 -269zm270 269l0 -269 102 0c18,0 31,0 41,2 13,2 24,6 33,13 9,6 16,14 22,26 5,11 8,23 8,36 0,23 -8,42 -22,58 -15,16 -41,24 -79,24l-69 0 0 110 -36 0zm36 -142l69 0c23,0 40,-4 49,-13 10,-8 15,-20 15,-36 0,-11 -3,-21 -9,-29 -5,-8 -13,-13 -22,-16 -6,-1 -17,-2 -33,-2l-69 0 0 96zm196 11c0,-45 12,-80 36,-105 24,-25 55,-38 93,-38 24,0 47,6 67,18 20,12 35,28 45,49 11,22 16,46 16,72 0,28 -5,52 -16,74 -11,21 -27,37 -47,48 -20,12 -42,17 -66,17 -25,0 -48,-6 -68,-18 -19,-12 -35,-29 -45,-50 -10,-21 -15,-44 -15,-67zm36 0c0,33 9,58 27,77 17,18 39,28 65,28 27,0 49,-10 66,-29 18,-18 26,-45 26,-80 0,-21 -3,-41 -11,-57 -7,-16 -18,-29 -32,-38 -15,-9 -31,-13 -48,-13 -25,0 -47,8 -65,26 -18,17 -28,46 -28,86zm268 131l0 -269 194 0 0 31 -159 0 0 83 149 0 0 31 -149 0 0 92 165 0 0 32 -200 0zm250 -269l36 0 0 117c16,0 28,-3 34,-9 7,-6 15,-22 25,-46 8,-17 14,-30 19,-37 5,-7 12,-13 21,-18 9,-5 18,-8 29,-8 14,0 21,0 22,1l0 30c-1,0 -4,0 -7,0 -4,0 -7,0 -7,0 -12,0 -20,3 -26,8 -5,6 -12,17 -19,35 -9,23 -17,38 -23,44 -6,6 -14,10 -22,14 17,5 34,21 51,48l55 90 -44 0 -45 -73c-12,-21 -23,-34 -31,-42 -8,-8 -19,-11 -32,-11l0 126 -36 0 0 -269zm287 269l0 -238 -89 0 0 -31 213 0 0 31 -89 0 0 238 -35 0z"/>
    <polygon class="fil1" points="2824,1179 3033,1179 3014,1266 2924,1266 2917,1302 2997,1302 2979,1383 2898,1383 2877,1479 2757,1479 "/>
    <g>
     <path class="fil1" d="M3247 1329c9,-42 -14,-63 -44,-63 -31,0 -64,21 -74,63 -10,42 15,63 45,63 30,0 64,-21 73,-63l0 0zm-232 0c18,-81 92,-158 209,-158 117,0 155,77 137,158 -18,81 -91,158 -209,158 -117,0 -156,-77 -137,-158z"/>
    </g>
    <polygon class="fil1" points="3821,1266 3758,1266 3777,1179 4023,1179 4003,1266 3940,1266 3892,1479 3773,1479 "/>
    <path class="fil1" d="M4154 1293c21,0 28,-10 31,-21 2,-10 -1,-21 -22,-21l-11 0 -9 42 11 0zm-23 113c12,0 31,-1 35,-22 5,-20 -13,-22 -24,-22l-15 0 -10 44 14 0zm87 -227c86,0 82,53 77,77 -7,33 -39,54 -66,62l0 1c37,6 59,35 49,76 -6,31 -37,84 -120,84l-177 0 68 -300 169 0z"/>
    <path class="fil1" d="M4436 1360l42 0 -5 -76 -37 76zm-5 -181l132 0 39 300 -123 0 -1 -44 -76 0 -22 44 -123 0 174 -300z"/>
    <polygon class="fil1" points="4690,1179 4809,1179 4761,1392 4845,1392 4826,1479 4622,1479 "/>
    <polygon class="fil1" points="4922,1179 5041,1179 4993,1392 5077,1392 5058,1479 4855,1479 "/>
    <path class="fil1" d="M5167 1393c27,0 50,16 43,47 -7,31 -38,45 -64,45 -27,0 -51,-14 -43,-45 6,-31 38,-47 64,-47z"/>
    <path class="fil1" d="M5401 1179l-39 177c-4,14 -8,44 22,44 31,0 40,-30 43,-44l41 -177 119 0 -39 173c-7,34 -38,135 -183,135 -145,0 -129,-101 -122,-135l39 -173 119 0z"/>
    <path class="fil1" d="M5695 1360l41 0 -3 -76 -38 76zm-4 -181l131 0 39 300 -122 0 -3 -44 -75 0 -22 44 -123 0 175 -300z"/>
    <g>
     <g>
      <path class="fil1" d="M3484 1460c0,0 0,0 0,0 -2,-1 -53,-27 -71,-84 0,0 0,0 0,0 -4,-12 -7,-25 -8,-38l0 0c-2,-39 12,-68 13,-70 13,-26 30,-42 31,-44 40,-42 94,-45 98,-45 31,-3 54,5 55,5 0,0 0,0 0,0 62,17 88,58 89,61 0,0 0,0 0,0 19,27 25,57 26,76 1,16 -1,27 -1,28 -7,58 -53,95 -56,97 -1,1 -29,23 -68,31 0,0 0,0 0,0l0 0c-2,0 -63,11 -108,-17zm202 -136c-12,10 -30,21 -37,25 0,0 0,0 0,0 0,0 0,0 0,0 0,8 -1,33 -6,55 -1,0 -1,1 -1,1l0 0c0,0 1,-1 1,-1 5,-21 7,-53 7,-53 7,-4 25,-14 36,-23 4,4 9,15 12,30 0,-1 0,-1 0,-1 -2,-17 -8,-28 -12,-33zm-162 86c0,0 0,0 0,0 20,16 41,23 50,27 0,0 0,-1 1,-1 -1,0 -1,0 -1,0 -8,-3 -28,-12 -49,-29 0,0 -1,0 -1,0 -8,3 -30,11 -44,13 0,0 0,0 0,0 14,-2 36,-7 44,-10zm57 20c20,-6 46,-21 52,-25 6,-22 7,-49 7,-56 -20,-14 -40,-26 -46,-30 -14,7 -51,23 -60,27 -4,27 -4,48 -4,54 23,19 45,28 51,30zm105 -171c-1,1 -2,2 -3,3 5,14 7,29 8,39 0,7 0,12 0,15 0,0 0,0 0,0 3,4 9,13 13,28l0 0c0,0 0,0 0,0 1,-4 2,-12 1,-22 -1,-16 -5,-40 -19,-63zm-62 -28c1,1 1,1 2,1 -16,6 -31,16 -36,20 0,0 0,-1 0,-1 1,6 6,38 8,61 7,3 27,15 47,29 7,-4 29,-17 39,-27 -1,1 -1,1 -2,2 0,-3 0,-8 0,-15 0,-10 -2,-24 -8,-37 -4,-4 -29,-27 -50,-33zm-104 17c8,0 34,0 58,7 1,7 8,36 11,57 0,0 0,0 0,0l0 0c-2,-21 -6,-50 -8,-58 -24,-8 -53,-9 -61,-9 -12,15 -20,29 -25,39 6,-10 14,-23 25,-36zm100 -23c1,2 1,3 1,3 0,0 0,-1 -1,-3zm-112 -13l13 25c9,0 37,1 63,9 0,0 0,0 0,0 5,-4 20,-14 36,-21 -2,-7 -9,-21 -22,-30 -3,-1 -24,-7 -50,-4 -3,1 -25,7 -40,21l0 0zm-68 97c8,-3 24,-11 40,-15 0,0 0,0 0,0 3,-7 13,-28 33,-53 0,0 0,-1 0,-1l-13 -25c-6,1 -21,4 -43,18 -2,2 -16,16 -27,39 1,19 7,32 10,37zm-2 64c16,24 33,36 37,39 10,-1 34,-9 46,-13 0,-7 0,-27 5,-54 -20,-16 -38,-37 -44,-43 0,0 0,0 0,0 -20,6 -41,16 -41,16 0,0 1,0 2,-1 -6,20 -6,38 -5,48 0,4 0,7 0,8zm0 1c0,0 0,0 0,-1 0,1 0,1 0,1zm131 89l0 0c0,0 0,0 0,0 9,2 19,2 21,2 35,-7 60,-26 62,-28 8,-8 12,-15 14,-20 0,0 0,0 0,0 0,0 0,0 0,0 -14,0 -24,-3 -28,-5 -7,5 -33,20 -54,26 -6,12 -12,20 -15,25z"/>
     </g>
    </g>
   </g>
  </g>
 </g>
</svg>
