<?xml version="1.0" encoding="utf-8"?>
<!-- Generator: Adobe Illustrator 15.0.2, SVG Export Plug-In . SVG Version: 6.00 Build 0)  -->
<!DOCTYPE svg PUBLIC "-//W3C//DTD SVG 1.1//EN" "http://www.w3.org/Graphics/SVG/1.1/DTD/svg11.dtd">
<svg version="1.1" id="Layer_1" xmlns="http://www.w3.org/2000/svg" xmlns:xlink="http://www.w3.org/1999/xlink" x="0px" y="0px"
	 width="176.652px" height="22.246px" viewBox="0 0 176.652 22.246" enable-background="new 0 0 176.652 22.246"
	 xml:space="preserve">
<polygon fill="#FFFFFF" points="9.053,3.268 20.372,3.268 19.325,7.948 14.462,7.948 14.054,9.902 18.416,9.902 17.417,14.265 
	13.054,14.265 11.917,19.447 5.418,19.447 "/>
<path fill="#FFFFFF" d="M31.916,11.357c0.5-2.273-0.773-3.409-2.409-3.409s-3.454,1.136-3.955,3.409
	c-0.544,2.272,0.773,3.407,2.409,3.407C29.598,14.765,31.415,13.63,31.916,11.357 M19.371,11.357
	c1.001-4.364,4.955-8.545,11.272-8.545c6.363,0,8.408,4.181,7.453,8.545c-0.999,4.364-4.954,8.544-11.317,8.544
	C20.461,19.901,18.372,15.722,19.371,11.357"/>
<polygon fill="#FFFFFF" points="62.914,7.948 59.505,7.948 60.55,3.268 73.82,3.268 72.776,7.948 69.367,7.948 66.777,19.447 
	60.323,19.447 "/>
<path fill="#FFFFFF" d="M80.912,9.402c1.136,0,1.546-0.545,1.68-1.138c0.138-0.544-0.045-1.089-1.181-1.089h-0.59l-0.5,2.227H80.912
	z M79.685,15.539c0.637,0,1.681-0.091,1.909-1.182c0.227-1.092-0.728-1.229-1.319-1.229h-0.817l-0.547,2.411H79.685z M84.366,3.268
	c4.636,0,4.454,2.862,4.181,4.135c-0.408,1.819-2.135,2.953-3.59,3.363v0.045c2,0.363,3.182,1.91,2.682,4.137
	c-0.362,1.637-1.998,4.5-6.499,4.5h-9.545l3.636-16.18H84.366z"/>
<path fill="#FFFFFF" d="M96.139,13.038h2.272l-0.229-4.091L96.139,13.038z M95.909,3.268h7.137l2.091,16.18h-6.635l-0.091-2.363
	h-4.092l-1.182,2.363h-6.637L95.909,3.268z"/>
<polygon fill="#FFFFFF" points="109.863,3.268 116.318,3.268 113.728,14.765 118.272,14.765 117.227,19.447 106.227,19.447 "/>
<polygon fill="#FFFFFF" points="122.409,3.268 128.862,3.268 126.271,14.765 130.816,14.765 129.77,19.447 118.772,19.447 "/>
<path fill="#FFFFFF" d="M135.635,14.812c1.456,0,2.727,0.861,2.363,2.544c-0.408,1.682-2.046,2.454-3.5,2.454
	c-1.408,0-2.727-0.772-2.317-2.454C132.544,15.674,134.227,14.812,135.635,14.812"/>
<path fill="#FFFFFF" d="M148.316,3.268l-2.139,9.542c-0.181,0.773-0.408,2.41,1.229,2.41c1.635,0,2.136-1.637,2.316-2.41
	l2.184-9.542h6.454l-2.091,9.361c-0.41,1.818-2.093,7.272-9.908,7.272c-7.817,0-6.999-5.454-6.59-7.272l2.091-9.361H148.316z"/>
<path fill="#FFFFFF" d="M164.178,13.038h2.227l-0.182-4.091L164.178,13.038z M163.949,3.268h7.092l2.09,16.18h-6.591l-0.136-2.363
	h-4.044l-1.182,2.363h-6.637L163.949,3.268z"/>
<g>
	<g>
		<path fill="#FFFFFF" d="M44.712,18.448c0.003,0.002,0.007,0.004,0.009,0.005c-0.117-0.059-2.875-1.47-3.842-4.574
			c0.001,0.002,0.001,0.004,0.002,0.006c-0.234-0.646-0.375-1.327-0.417-2.025l0,0c-0.126-2.097,0.65-3.677,0.697-3.77
			c0.678-1.443,1.593-2.309,1.662-2.372c2.182-2.28,5.086-2.436,5.272-2.442c1.683-0.159,2.931,0.245,3.018,0.273
			c-0.003-0.001-0.006-0.001-0.009-0.003c3.341,0.931,4.726,3.146,4.804,3.276c-0.003-0.003-0.004-0.006-0.007-0.01
			c1.05,1.499,1.347,3.074,1.411,4.131c0.052,0.869-0.045,1.446-0.052,1.488c-0.376,3.155-2.891,5.131-3.031,5.238
			c-0.08,0.064-1.557,1.244-3.659,1.669c0,0-0.001,0-0.001,0.001h-0.002C50.429,19.366,47.171,19.957,44.712,18.448z M55.632,11.085
			c-0.629,0.529-1.648,1.156-1.988,1.361c0,0.007,0,0.016,0,0.024c0-0.004,0-0.008,0-0.011c-0.008,0.436-0.059,1.778-0.362,2.967
			c-0.003,0.013-0.006,0.025-0.01,0.039l0.002,0.001c0.005-0.016,0.008-0.024,0.008-0.024c0.307-1.136,0.431-2.874,0.431-2.881
			c0.341-0.196,1.302-0.763,1.932-1.27c0.183,0.264,0.494,0.809,0.634,1.623c0.002-0.01,0.005-0.019,0.008-0.028
			C56.152,11.977,55.823,11.372,55.632,11.085z M46.88,15.752c0.004,0.003,0.009,0.007,0.014,0.011
			c1.067,0.83,2.176,1.215,2.708,1.418c0.001-0.005,0.004-0.01,0.006-0.014c-0.002-0.001-0.005-0.003-0.007-0.003
			c-0.461-0.188-1.526-0.677-2.688-1.581c-0.005-0.004-0.009-0.008-0.015-0.011c-0.427,0.155-1.664,0.59-2.399,0.694
			c0.001,0.004,0.003,0.009,0.004,0.013C45.244,16.171,46.46,15.904,46.88,15.752z M49.936,16.799c1.118-0.274,2.51-1.12,2.84-1.327
			c0.33-1.181,0.382-2.624,0.39-3.038c-1.083-0.755-2.174-1.403-2.514-1.603c-0.77,0.352-2.723,1.247-3.212,1.473
			c-0.244,1.462-0.261,2.564-0.26,2.896C48.462,16.205,49.651,16.69,49.936,16.799z M55.617,7.568
			c-0.048,0.079-0.098,0.149-0.14,0.204c0.287,0.726,0.388,1.523,0.421,2.079c0.023,0.378,0.017,0.673,0.012,0.813
			c0.001,0.002,0.003,0.003,0.004,0.006c0.145,0.186,0.486,0.686,0.707,1.496l0,0c0.003,0.008,0.005,0.017,0.007,0.025
			c0.025-0.211,0.06-0.647,0.026-1.213C56.602,10.097,56.374,8.824,55.617,7.568z M52.299,6.096
			c0.025,0.006,0.052,0.015,0.078,0.022c-0.839,0.343-1.646,0.893-1.936,1.1c-0.004-0.03-0.009-0.056-0.013-0.076
			c0.06,0.346,0.352,2.059,0.465,3.293c0.337,0.197,1.43,0.847,2.523,1.606c0.394-0.238,1.552-0.956,2.083-1.464
			c-0.021,0.021-0.043,0.04-0.066,0.062c0.005-0.134,0.01-0.41-0.011-0.761c-0.033-0.541-0.133-1.325-0.422-2.016
			C54.774,7.648,53.415,6.394,52.299,6.096z M46.654,6.984c0.423,0.007,1.825,0.021,3.133,0.408c0.064,0.37,0.447,1.917,0.593,3.055
			c0.012-0.005,0.024-0.011,0.035-0.016l0-0.001c-0.108-1.14-0.364-2.676-0.444-3.138c-1.325-0.399-2.873-0.453-3.301-0.461
			c-0.64,0.81-1.086,1.561-1.366,2.098C45.624,8.392,46.086,7.692,46.654,6.984z M52.072,5.744c0.03,0.085,0.048,0.146,0.055,0.171
			C52.12,5.891,52.103,5.829,52.072,5.744z M45.998,5.026L46.7,6.374c0.484,0.008,2.042,0.065,3.419,0.482
			c0.006,0.002,0.012,0.004,0.018,0.006c0.276-0.198,1.068-0.744,1.935-1.118c-0.127-0.356-0.477-1.148-1.188-1.601
			c-0.182-0.057-1.287-0.371-2.712-0.238C48.016,3.947,46.836,4.288,45.998,5.026L45.998,5.026z M42.362,10.276
			c0.385-0.174,1.288-0.563,2.157-0.805c0.001-0.002,0.002-0.005,0.003-0.008c0.153-0.368,0.683-1.527,1.735-2.868
			c0.005-0.007,0.01-0.013,0.015-0.02l-0.709-1.358c-0.305,0.038-1.112,0.206-2.291,0.963c-0.112,0.108-0.899,0.89-1.489,2.123
			C41.835,9.312,42.185,9.991,42.362,10.276z M42.249,13.754c0.86,1.291,1.78,1.933,2.005,2.077c0.509-0.015,1.812-0.448,2.45-0.679
			c0-0.397,0.025-1.479,0.265-2.916c-1.053-0.895-2.051-1.979-2.356-2.318c0.001,0.002,0.003,0.003,0.005,0.005
			c-1.069,0.302-2.221,0.847-2.233,0.853c0.002-0.001,0.037-0.017,0.098-0.045c-0.289,1.091-0.31,2.014-0.275,2.603
			C42.22,13.541,42.239,13.686,42.249,13.754z M42.256,13.798c0,0-0.003-0.016-0.007-0.042
			C42.253,13.782,42.256,13.798,42.256,13.798z M49.285,18.623L49.285,18.623C49.286,18.623,49.285,18.623,49.285,18.623
			c0.493,0.109,1.068,0.095,1.17,0.091c1.858-0.381,3.214-1.423,3.343-1.525c0.412-0.426,0.639-0.813,0.755-1.062
			c-0.006,0-0.013-0.001-0.02-0.001c0.002,0.001,0.006,0,0.008,0c-0.725-0.025-1.291-0.18-1.527-0.255
			c-0.381,0.239-1.75,1.065-2.92,1.363C49.811,17.9,49.498,18.357,49.285,18.623z"/>
	</g>
</g>
</svg>
