<?xml version="1.0" standalone="no"?>
<!DOCTYPE svg PUBLIC "-//W3C//DTD SVG 20010904//EN"
 "http://www.w3.org/TR/2001/REC-SVG-20010904/DTD/svg10.dtd">
<svg version="1.0" xmlns="http://www.w3.org/2000/svg"
 width="1000.000000pt" height="1000.000000pt" viewBox="0 0 1000.000000 1000.000000"
 preserveAspectRatio="xMidYMid meet">
<metadata>
Created by potrace 1.11, written by Peter Selinger 2001-2013
</metadata>
<g transform="translate(0.000000,1000.000000) scale(0.100000,-0.100000)"
fill="#000000" stroke="none">
<path d="M0 5000 l0 -5000 5000 0 5000 0 0 5000 0 5000 -5000 0 -5000 0 0
-5000z m4815 3595 c0 -5 -13 -13 -30 -16 -16 -4 29 -6 100 -6 72 0 118 2 103
4 -14 2 -31 10 -37 17 -32 38 330 7 584 -50 611 -138 1181 -496 1578 -992 172
-214 353 -532 446 -784 335 -905 191 -1921 -383 -2691 -245 -330 -566 -609
-926 -805 -65 -35 -79 -40 -110 -32 -19 4 -26 8 -16 9 19 1 19 2 1 21 -10 12
-25 18 -32 15 -8 -2 -12 -1 -9 4 8 13 -91 94 -104 86 -6 -3 -8 -10 -5 -15 3
-5 1 -11 -4 -14 -10 -7 -9 13 2 30 7 12 -40 51 -55 46 -5 -1 -8 2 -8 6 0 4
-13 15 -29 25 -24 14 -30 15 -40 3 -9 -11 -9 -16 0 -22 7 -4 9 -3 6 2 -3 5 3
10 14 10 19 0 19 -1 4 -12 -13 -10 -23 -10 -41 -2 -18 9 -21 14 -12 20 9 6 6
7 -9 3 -25 -7 -42 13 -22 26 8 5 9 9 3 9 -5 0 -15 -5 -20 -10 -7 -7 -23 -4
-50 9 -299 145 -644 210 -961 183 -293 -26 -538 -98 -786 -234 -37 -20 -75
-34 -83 -31 -10 3 -12 0 -9 -10 7 -17 -24 -32 -37 -19 -6 6 2 18 20 31 32 23
47 27 37 11 -3 -5 -1 -10 5 -10 7 0 10 7 7 15 -4 8 -2 17 3 20 4 3 10 0 12 -7
3 -8 7 -6 11 5 11 29 -16 19 -96 -35 -117 -81 -192 -149 -175 -160 10 -7 10
-8 -2 -7 -8 1 -23 -1 -32 -5 -16 -8 -65 15 -195 92 -310 183 -595 440 -819
738 -671 893 -757 2086 -223 3071 258 475 682 894 1159 1147 332 175 721 291
1070 319 83 7 195 2 195 -8z m2740 -4777 c22 -53 43 -99 46 -103 3 -3 23 40
45 95 39 100 55 120 80 99 11 -9 14 -44 14 -145 0 -127 -1 -134 -20 -134 -19
0 -20 7 -20 108 l-1 107 -37 -90 c-32 -77 -41 -90 -61 -90 -20 0 -28 12 -57
80 l-33 80 -1 -97 c0 -91 -1 -98 -20 -98 -19 0 -20 7 -20 138 0 76 3 142 7
146 20 19 41 -7 78 -96z m-115 77 c0 -11 -12 -15 -45 -15 l-45 0 0 -125 c0
-118 -1 -125 -20 -125 -19 0 -20 7 -20 125 l0 125 -40 0 c-29 0 -40 4 -40 15
0 12 18 15 105 15 87 0 105 -3 105 -15z m-2248 -454 c267 -54 515 -175 724
-352 112 -95 112 -94 84 -124 l-23 -24 -71 63 c-209 187 -450 309 -726 367
-152 32 -429 33 -582 1 -278 -58 -541 -190 -726 -366 l-74 -70 -19 24 c-10 14
-19 28 -19 32 0 12 106 108 186 167 213 158 473 264 739 300 109 15 394 5 507
-18z m704 -20 c-3 -5 1 -14 9 -21 12 -10 15 -10 15 0 0 8 3 10 8 6 4 -4 5 -8
3 -9 -2 -1 1 -13 9 -27 l12 -25 -20 20 c-36 35 -51 45 -64 45 -9 0 -9 3 2 10
19 12 33 13 26 1z m-2096 -97 c-28 -19 -54 -34 -56 -32 -5 5 87 67 100 68 4 0
-15 -16 -44 -36z m2205 -12 c-3 -3 -11 0 -18 7 -9 10 -8 11 6 5 10 -3 15 -9
12 -12z m-1261 -14 c20 -65 20 -66 -41 -78 -135 -27 -136 -27 -130 -67 4 -19
8 -37 9 -39 2 -1 42 5 88 16 47 10 87 17 88 15 2 -2 6 -21 9 -42 l5 -39 -73
-14 c-41 -7 -80 -15 -86 -17 -17 -7 -16 -35 1 -58 13 -18 18 -18 82 -6 38 7
79 15 91 18 19 4 23 0 29 -32 3 -20 4 -38 1 -41 -3 -3 -44 -15 -92 -25 -106
-24 -155 -15 -184 32 -25 40 -79 315 -65 329 8 8 211 56 252 59 7 1 14 -5 16
-11z m581 -52 c49 -12 50 -13 49 -50 -1 -20 -4 -39 -7 -42 -3 -3 -42 4 -86 16
-45 12 -87 20 -95 17 -7 -3 -18 -19 -24 -35 l-10 -30 81 -22 c45 -12 85 -25
88 -28 10 -11 -10 -72 -24 -72 -7 0 -46 9 -87 20 -41 10 -75 18 -76 17 -2 -1
-11 -36 -22 -77 -11 -41 -22 -74 -26 -74 -4 1 -19 4 -35 7 -16 3 -31 13 -34
21 -8 20 64 286 86 319 30 46 85 50 222 13z m-1071 -232 c96 -118 113 -159 96
-224 -20 -74 -108 -140 -185 -140 -65 0 -102 32 -240 204 l-39 48 29 24 c17
13 33 24 37 24 3 0 37 -37 74 -82 37 -46 78 -93 91 -105 33 -31 76 -29 112 5
53 49 46 82 -40 189 -40 48 -77 94 -83 102 -8 10 -3 19 19 37 17 13 33 24 36
24 4 0 45 -48 93 -106z m1505 5 c16 -15 20 -27 15 -42 -4 -12 -31 -104 -60
-205 -28 -101 -55 -186 -58 -190 -4 -3 -21 8 -38 25 -29 30 -30 33 -21 72 6
23 8 41 4 41 -3 0 -21 13 -40 29 l-34 28 37 22 c28 18 40 20 50 12 11 -10 17
-2 31 39 9 28 15 53 13 56 -2 2 -56 -30 -119 -70 l-114 -75 -37 22 c-21 11
-38 23 -37 26 1 13 345 229 365 230 11 1 30 -8 43 -20z m-616 -233 c100 -30
209 -82 282 -134 58 -42 165 -141 165 -153 0 -5 -11 -16 -25 -25 -25 -16 -26
-16 -83 38 -114 108 -259 185 -412 219 -78 17 -116 20 -215 16 -66 -3 -149
-13 -185 -22 -133 -35 -271 -113 -384 -216 l-57 -52 -25 25 -26 25 64 58 c144
131 306 213 486 245 26 5 110 7 187 6 116 -3 155 -8 228 -30z m-172 -450 c93
-20 164 -59 229 -125 259 -266 140 -737 -209 -826 -53 -14 -110 -16 -370 -13
-280 4 -312 6 -371 26 -64 21 -135 61 -176 98 -11 11 -48 56 -83 102 l-62 82
-104 0 -105 0 -1 -82 c-1 -111 -3 -122 -23 -153 -34 -52 -103 -56 -147 -9
l-24 26 0 400 0 400 28 24 c28 24 28 24 280 24 301 0 321 -4 408 -90 98 -97
125 -230 72 -351 -26 -57 -85 -124 -132 -148 l-35 -18 56 -56 c85 -85 108 -90
432 -95 316 -4 335 -1 405 67 64 62 94 139 95 241 2 259 -268 385 -427 199
-47 -54 -67 -116 -67 -203 0 -81 26 -147 80 -209 l32 -37 -130 0 -129 0 -22
53 c-116 279 43 611 322 672 80 17 99 17 178 1z m848 -12 c73 -21 144 -88 171
-160 53 -144 0 -299 -133 -387 -28 -19 -104 -68 -168 -110 -64 -41 -126 -88
-139 -104 l-22 -28 254 -5 c139 -3 254 -7 255 -8 0 -1 5 -15 11 -30 10 -29 1
-59 -22 -74 -6 -4 -154 -8 -329 -8 l-318 0 6 63 c4 39 18 85 38 127 l32 65
189 126 c220 147 239 168 233 262 -6 100 -69 157 -171 157 -106 0 -167 -51
-181 -151 -8 -58 -33 -89 -70 -89 -64 0 -83 80 -44 184 26 70 109 149 177 170
63 20 166 20 231 0z m733 -17 c265 -130 321 -577 101 -808 -211 -222 -545
-112 -628 206 -20 77 -19 230 1 308 39 152 142 272 269 314 66 22 192 12 257
-20z m665 18 c73 -22 146 -90 173 -163 29 -76 25 -176 -10 -247 -35 -72 -87
-118 -254 -225 -81 -52 -160 -108 -174 -125 l-25 -30 251 -5 c138 -3 252 -7
255 -10 2 -3 10 -15 16 -27 12 -24 1 -59 -23 -75 -6 -4 -154 -8 -328 -8 l-318
0 0 23 c1 50 28 146 54 191 24 41 53 64 214 171 217 143 238 166 230 261 -8
96 -63 147 -166 152 -110 5 -173 -45 -187 -149 -8 -58 -33 -89 -70 -89 -64 0
-84 81 -45 182 31 82 101 148 182 173 58 18 163 18 225 0z m733 -15 c69 -35
105 -66 145 -124 138 -201 122 -507 -35 -679 -178 -195 -473 -149 -594 94 -47
94 -59 161 -54 294 6 126 25 189 89 284 41 61 116 121 185 147 61 22 207 14
264 -16z m-5437 -1 c61 -31 75 -99 30 -149 l-28 -30 -247 -1 -248 0 0 -85 0
-84 211 0 211 0 29 -29 c40 -41 40 -91 0 -132 l-29 -29 -211 0 -211 0 0 -85 0
-85 246 0 246 0 29 -29 c40 -41 40 -91 0 -132 l-29 -29 -317 0 -316 0 -24 24
c-13 13 -26 39 -30 57 -3 19 -5 200 -3 402 l3 369 33 29 32 29 301 0 c201 0
308 -4 322 -11z m289 -18 l33 -29 5 -275 5 -275 30 -43 c38 -53 86 -79 148
-79 74 0 122 32 163 110 17 31 20 67 24 303 l5 269 28 24 c36 31 83 31 122 0
l30 -24 0 -289 0 -288 -32 -67 c-42 -89 -101 -151 -182 -191 -60 -29 -74 -32
-161 -32 -82 0 -103 4 -152 27 -66 31 -147 106 -177 166 -44 86 -51 142 -51
402 1 262 4 280 51 306 39 22 76 17 111 -15z"/>
<path d="M4703 8563 c9 -2 23 -2 30 0 6 3 -1 5 -18 5 -16 0 -22 -2 -12 -5z"/>
<path d="M5058 8563 c12 -2 32 -2 45 0 12 2 2 4 -23 4 -25 0 -35 -2 -22 -4z"/>
<path d="M4030 8336 c-145 -51 -194 -72 -330 -140 -240 -120 -448 -266 -633
-445 l-110 -106 7 -88 c12 -168 67 -379 141 -543 39 -84 123 -219 132 -210 3
3 11 2 17 -3 6 -5 20 -5 31 0 11 4 15 8 8 8 -18 1 -10 55 10 63 9 4 17 13 17
20 0 9 -3 9 -11 -2 -8 -11 -9 -9 -4 10 4 14 12 30 18 35 7 7 8 6 3 -2 -3 -6
-2 -22 3 -35 9 -21 10 -19 10 15 1 21 -4 37 -10 37 -8 0 -8 4 -2 13 5 6 15 31
22 54 6 23 23 55 36 71 13 16 21 32 17 36 -4 4 -1 6 7 4 7 -2 16 3 19 11 3 8
0 11 -7 7 -6 -4 -11 -2 -11 5 0 8 12 10 36 6 33 -6 35 -5 18 8 -10 7 -23 11
-28 8 -5 -4 -6 -1 -2 6 4 6 12 9 17 6 5 -4 9 -2 9 4 0 6 8 8 18 5 13 -5 14 -4
3 4 -16 11 -1 46 24 56 8 3 15 12 15 21 0 9 15 31 33 50 17 18 52 57 77 85 73
83 100 110 109 110 4 0 29 23 55 52 25 28 46 45 46 38 0 -7 11 -1 25 14 13 14
30 26 37 26 7 0 29 14 48 30 19 16 40 34 47 40 7 5 28 17 47 27 20 9 36 21 36
26 0 5 6 7 14 4 7 -3 25 1 40 8 22 12 28 12 40 0 11 -12 15 -10 26 13 8 15 14
30 14 33 1 4 21 23 46 44 47 40 113 74 143 75 9 0 17 5 17 10 0 6 -9 10 -20
10 -24 0 -119 36 -143 54 -27 21 -119 274 -115 314 2 18 -1 32 -7 32 -5 0 -53
-15 -105 -34z m168 -526 c-7 -10 -14 -18 -15 -16 -6 6 9 36 18 36 5 0 4 -9 -3
-20z m-927 -987 c-12 -20 -14 -14 -5 12 4 9 9 14 11 11 3 -2 0 -13 -6 -23z"/>
<path d="M5640 8335 c0 -29 -72 -244 -100 -295 -11 -20 -87 -55 -142 -65 -38
-7 -53 -25 -20 -25 29 0 116 -46 143 -76 14 -16 39 -47 54 -69 15 -22 25 -32
22 -23 -5 14 -2 15 16 9 15 -6 21 -16 20 -32 -1 -13 1 -18 3 -11 8 18 34 15
35 -5 0 -10 3 -13 5 -6 7 15 30 6 75 -29 20 -15 42 -28 48 -28 6 0 11 -4 11
-9 0 -5 13 -14 29 -21 16 -6 41 -25 57 -41 15 -16 33 -29 41 -29 7 0 17 -9 23
-20 6 -11 15 -20 20 -20 5 0 28 -20 51 -45 23 -25 45 -42 50 -39 5 2 15 -10
22 -29 16 -36 58 -87 74 -87 5 0 19 -20 31 -44 12 -24 29 -49 37 -56 8 -7 15
-16 15 -21 0 -5 8 -18 18 -28 34 -39 42 -50 42 -65 0 -8 4 -18 10 -21 5 -3 19
-27 30 -53 11 -25 27 -53 34 -62 7 -8 16 -26 19 -40 3 -14 20 -65 37 -115 18
-49 34 -107 36 -129 2 -21 12 -45 21 -53 16 -13 16 -14 1 -9 -12 3 -15 1 -11
-9 3 -8 9 -12 14 -9 19 11 7 -10 -36 -66 -82 -106 -164 -163 -240 -164 -33 -1
-40 2 -43 20 -4 26 34 72 98 119 140 103 131 321 -17 395 -90 45 -239 15 -295
-61 -63 -84 -65 -167 -7 -276 57 -108 63 -129 38 -154 -22 -22 -43 -19 -126
17 l-53 23 -5 -22 c-2 -12 -11 -62 -20 -112 -56 -317 -172 -611 -366 -925
-206 -332 -244 -450 -184 -578 34 -72 68 -120 175 -242 116 -132 143 -172 145
-217 l3 -36 123 -42 c68 -23 146 -51 173 -63 27 -12 52 -22 55 -22 4 0 -1 46
-11 103 -9 56 -20 138 -24 182 l-6 80 66 100 c124 186 213 383 262 578 29 116
44 362 26 455 l-9 53 100 105 c100 105 100 105 121 86 48 -44 132 -70 165 -52
28 14 26 37 -5 84 -57 84 -68 180 -30 261 40 87 115 135 209 135 70 0 134 -39
174 -107 24 -41 28 -59 28 -123 0 -64 -4 -82 -28 -123 -16 -27 -47 -60 -69
-75 -83 -56 -102 -76 -94 -105 9 -35 55 -58 131 -65 150 -12 400 95 559 240
l48 43 -16 115 c-73 502 -271 942 -600 1337 -305 367 -697 638 -1159 804 -60
22 -113 39 -118 39 -5 0 -9 -16 -9 -35z m880 -1645 c0 -11 -4 -20 -9 -20 -5 0
-7 9 -4 20 3 11 7 20 9 20 2 0 4 -9 4 -20z"/>
<path d="M2631 7223 c-130 -207 -256 -500 -312 -718 l-22 -90 31 -34 c17 -19
28 -39 25 -44 -3 -6 -1 -7 6 -3 6 4 30 -8 54 -27 74 -61 147 -97 241 -121 50
-13 93 -19 94 -15 2 5 10 9 18 9 20 0 28 25 15 49 -15 28 -85 67 -146 82 -38
10 -62 25 -100 63 -56 56 -75 103 -75 182 0 56 35 138 56 130 8 -3 11 0 8 8
-7 17 80 63 137 71 52 8 96 -7 146 -49 36 -31 87 -122 79 -143 -3 -7 0 -13 6
-13 8 0 9 -24 3 -82 -11 -120 -10 -169 6 -179 44 -28 71 8 92 119 17 90 5 141
-60 257 -97 170 -180 385 -214 548 -10 49 -20 91 -22 94 -3 2 -33 -40 -66 -94z"/>
<path d="M3240 6794 c0 -5 21 -30 47 -54 39 -37 41 -38 13 -7 -29 32 -32 40
-20 48 13 9 13 10 -1 6 -9 -3 -22 0 -28 6 -6 6 -11 7 -11 1z"/>
<path d="M2533 6395 c0 -8 4 -12 9 -9 5 3 6 10 3 15 -9 13 -12 11 -12 -6z"/>
<path d="M2574 6384 c-18 -14 -18 -14 6 -3 31 14 36 19 24 19 -6 0 -19 -7 -30
-16z"/>
<path d="M2291 6364 c0 -11 3 -14 6 -6 3 7 2 16 -1 19 -3 4 -6 -2 -5 -13z"/>
<path d="M2282 6310 c0 -14 2 -19 5 -12 2 6 2 18 0 25 -3 6 -5 1 -5 -13z"/>
<path d="M2270 6260 c0 -11 4 -20 9 -20 5 0 7 9 4 20 -3 11 -7 20 -9 20 -2 0
-4 -9 -4 -20z"/>
<path d="M2264 6205 c-3 -8 -4 -20 -2 -27 3 -7 7 -1 10 15 6 29 1 36 -8 12z"/>
<path d="M2560 6161 c0 -10 19 -25 25 -20 1 2 -3 10 -11 17 -8 7 -14 8 -14 3z"/>
<path d="M3061 6154 c0 -11 3 -14 6 -6 3 7 2 16 -1 19 -3 4 -6 -2 -5 -13z"/>
<path d="M2865 6138 c11 -6 27 -16 35 -22 9 -6 5 -1 -8 12 -13 12 -28 22 -35
22 -7 0 -3 -6 8 -12z"/>
<path d="M2252 6110 c0 -19 2 -27 5 -17 2 9 2 25 0 35 -3 9 -5 1 -5 -18z"/>
<path d="M2573 6088 c-34 -38 -55 -77 -50 -90 4 -9 6 -7 6 4 1 9 17 37 36 62
37 49 41 60 8 24z"/>
<path d="M3072 6070 c0 -19 2 -27 5 -17 2 9 2 25 0 35 -3 9 -5 1 -5 -18z"/>
<path d="M2290 6066 c0 -2 7 -7 16 -10 8 -3 12 -2 9 4 -6 10 -25 14 -25 6z"/>
<path d="M3363 6052 c0 -11 4 -19 8 -16 8 4 49 -57 49 -72 0 -5 -10 7 -22 26
-19 30 -22 32 -26 15 -7 -32 19 -333 39 -452 41 -247 136 -497 265 -703 12
-19 10 -18 -10 5 l-26 30 -1 -25 -1 -25 -8 25 c-7 21 -8 22 -9 5 -1 -17 -3
-18 -12 -5 -9 13 -10 12 -5 -2 3 -11 -4 -27 -17 -41 -12 -13 -26 -31 -32 -40
-5 -10 -21 -20 -34 -22 -14 -3 -29 -11 -33 -20 -5 -8 -14 -15 -20 -15 -15 0
-79 -70 -73 -80 3 -5 -3 -11 -14 -15 -18 -5 -64 -45 -143 -121 -15 -14 -34
-24 -41 -21 -9 3 -12 -5 -10 -32 1 -20 -6 8 -16 61 -43 223 -123 395 -239 520
-121 128 -210 175 -487 253 -193 55 -174 55 -164 -2 17 -91 70 -276 111 -387
134 -364 330 -669 619 -960 l157 -158 104 85 c166 134 363 259 532 337 l82 38
18 79 c38 173 45 238 42 388 -10 412 -185 846 -520 1285 -67 87 -65 86 -63 62z
m352 -1258 c9 -15 12 -23 6 -20 -11 7 -35 46 -28 46 3 0 12 -12 22 -26z"/>
<path d="M2236 6022 c-3 -20 -6 -103 -6 -184 l0 -147 98 -31 c191 -59 368 -83
450 -61 77 21 42 77 -70 108 -77 22 -125 63 -160 140 -15 35 -33 63 -38 63 -5
0 -7 8 -4 18 5 13 4 14 -4 3 -9 -12 -28 -5 -109 41 -54 31 -97 61 -96 66 2 7
-4 9 -14 5 -9 -4 -14 -2 -10 3 3 6 -3 10 -12 11 -14 1 -20 -8 -25 -35z"/>
<path d="M3070 5981 c0 -12 -9 -21 -24 -25 -14 -3 -27 -14 -29 -24 -3 -11 -5
-7 -6 10 -2 59 -31 36 -31 -25 0 -18 -7 -54 -15 -81 -8 -27 -15 -69 -15 -93 0
-36 3 -43 19 -43 26 0 77 61 91 107 13 45 26 193 16 193 -3 0 -6 -9 -6 -19z"/>
<path d="M7450 5659 c-47 -32 -172 -102 -278 -155 -167 -84 -203 -106 -267
-166 -241 -225 -347 -641 -323 -1270 4 -112 11 -223 16 -248 l8 -45 128 125
c159 155 263 279 371 440 236 355 381 748 429 1170 18 148 20 211 9 209 -5 -1
-46 -28 -93 -60z"/>
<path d="M4274 5486 c0 -13 3 -22 5 -20 2 2 9 -1 16 -6 8 -7 9 -27 4 -67 -5
-32 -11 -143 -13 -248 -7 -251 -25 -509 -37 -513 -17 -6 1 -21 19 -16 11 3 10
0 -5 -12 -13 -9 -23 -22 -23 -28 0 -6 5 -4 11 4 8 12 9 9 4 -10 -3 -14 -8 -38
-10 -54 -4 -25 -2 -28 9 -15 258 283 311 376 288 501 -17 92 -136 323 -240
467 -26 36 -30 38 -28 17z m60 -116 c-5 -5 -10 3 -11 18 -1 22 0 24 9 8 6 -10
6 -22 2 -26z m-17 -82 c-3 -8 -6 -5 -6 6 -1 11 2 17 5 13 3 -3 4 -12 1 -19z
m-46 -741 l-24 -22 19 27 c10 14 21 24 23 22 3 -3 -6 -15 -18 -27z"/>
<path d="M3610 4923 c0 -6 8 -17 18 -24 16 -13 16 -13 2 6 -8 11 -16 22 -17
24 -2 2 -3 0 -3 -6z"/>
<path d="M3192 4540 c0 -14 2 -19 5 -12 2 6 2 18 0 25 -3 6 -5 1 -5 -13z"/>
<path d="M4220 4469 c0 -5 5 -7 10 -4 6 3 10 8 10 11 0 2 -4 4 -10 4 -5 0 -10
-5 -10 -11z"/>
<path d="M4048 3534 c-38 -20 -36 -28 2 -9 17 9 30 18 30 20 0 7 -1 6 -32 -11z"/>
<path d="M5717 3539 c7 -7 15 -10 18 -7 3 3 -2 9 -12 12 -14 6 -15 5 -6 -5z"/>
<path d="M5750 3526 c0 -3 9 -10 20 -16 11 -6 20 -8 20 -6 0 3 -9 10 -20 16
-11 6 -20 8 -20 6z"/>
<path d="M3963 3474 c0 -6 9 -9 19 -6 27 7 29 17 4 17 -13 0 -23 -5 -23 -11z"/>
<path d="M3845 3390 c-3 -5 -2 -10 4 -10 5 0 13 5 16 10 3 6 2 10 -4 10 -5 0
-13 -4 -16 -10z"/>
<path d="M3718 2104 c-2 -9 -2 -65 0 -125 l3 -109 161 0 c206 0 232 11 259
103 6 23 4 41 -11 74 -29 65 -56 73 -249 73 -139 0 -160 -2 -163 -16z"/>
<path d="M6360 2210 c-109 -21 -185 -120 -211 -275 -27 -169 47 -351 166 -406
118 -55 249 13 307 160 18 46 22 76 22 171 0 95 -4 125 -22 171 -50 127 -156
199 -262 179z"/>
<path d="M7725 2204 c-176 -64 -240 -381 -116 -576 112 -176 334 -145 411 58
33 87 38 228 11 313 -54 171 -175 253 -306 205z"/>
</g>
</svg>
