<?xml version="1.0" encoding="UTF-8"?>
<svg width="279px" height="463px" viewBox="0 0 279 463" version="1.1" xmlns="http://www.w3.org/2000/svg" xmlns:xlink="http://www.w3.org/1999/xlink">
    <!-- Generator: Sketch 50.2 (55047) - http://www.bohemiancoding.com/sketch -->
    <title>Group</title>
    <desc>Created with Sketch.</desc>
    <defs></defs>
    <g id="Page-1" stroke="none" stroke-width="1" fill="none" fill-rule="evenodd">
        <g id="gatnoe" transform="translate(-198.000000, -65.000000)">
            <g id="Group" transform="translate(198.000000, 65.000000)">
                <path d="M201.486,190.69 L151.713,219.426 C150.642,220.045 149.516,220.547 148.368,220.987 L148.368,193.802 L213.699,156.082 L213.699,169.534 C213.699,178.234 209.02,186.34 201.486,190.69 Z M127.287,219.426 L108.876,208.796 L108.876,186.911 C108.876,182.013 104.907,178.044 100.009,178.044 C95.11,178.044 91.141,182.013 91.141,186.911 L91.141,198.556 L77.514,190.688 C69.98,186.34 65.301,178.234 65.301,169.534 L65.301,87.013 L130.632,124.733 L130.632,152.497 L104.264,137.245 C100.029,134.795 94.6,136.241 92.148,140.481 C89.695,144.722 91.144,150.146 95.385,152.596 L130.632,172.983 L130.632,220.987 C129.484,220.547 128.358,220.044 127.287,219.426 Z M77.514,49.664 L93.337,40.529 L130.632,62.248 L130.632,104.257 L65.685,66.758 C66.892,59.66 71.172,53.326 77.514,49.664 Z M127.287,20.929 C128.36,20.31 129.484,19.8 130.632,19.352 L130.632,41.723 L111.035,30.31 L127.287,20.929 Z M201.486,49.667 C202.283,50.127 203.029,50.65 203.761,51.19 L148.368,83.173 L148.368,19.352 C149.515,19.799 150.64,20.307 151.713,20.926 L201.486,49.667 Z M148.368,103.649 L213.206,66.214 C213.498,67.721 213.699,69.253 213.699,70.816 L213.699,88.847 L181.901,106.914 C177.643,109.333 176.154,114.745 178.573,119.005 C180.206,121.88 183.206,123.494 186.291,123.494 C187.775,123.494 189.282,123.119 190.665,122.334 L213.699,109.245 L213.699,135.605 L148.368,173.326 L148.368,103.649 Z M210.353,34.308 L160.581,5.566 C147.776,-1.817 131.224,-1.82 118.419,5.569 L68.646,34.305 C55.642,41.813 47.566,55.801 47.566,70.816 L47.566,169.534 C47.566,184.551 55.642,198.542 68.646,206.047 L118.419,234.782 C122.224,236.981 126.363,238.48 130.632,239.402 L130.632,259.529 C130.632,264.428 134.602,268.396 139.5,268.396 C144.398,268.396 148.368,264.428 148.368,259.529 L148.368,239.402 C152.637,238.48 156.775,236.981 160.581,234.782 L210.353,206.05 C223.357,198.542 231.434,184.551 231.434,169.534 L231.434,70.816 C231.434,55.801 223.357,41.813 210.353,34.308 Z" id="Fill-1" fill="#93C453"></path>
                <path d="M17.232,321.176 C17.232,317.3 16.701,311.108 12.056,311.108 C7.406,311.108 6.875,317.3 6.875,321.176 C6.875,324.449 7.167,331.202 12.056,331.202 C16.945,331.202 17.232,324.449 17.232,321.176 Z M12.056,335.516 C0.244,335.516 0,324.052 0,321.176 C0,318.259 0.244,306.795 12.056,306.795 C23.868,306.795 24.107,318.259 24.107,321.176 C24.107,324.052 23.868,335.516 12.056,335.516 Z" id="Fill-2" fill="#261A14"></path>
                <path d="M33.577,319.378 C33.577,319.02 33.675,318.578 34.548,318.578 L35.563,318.578 C40.745,318.578 40.745,315.424 40.745,314.743 C40.745,313.945 40.5,311.108 36.29,311.108 C35.417,311.108 33.87,311.27 31.982,312.387 C31.596,312.628 31.303,312.787 31.064,312.787 C30.869,312.787 30.674,312.667 30.435,312.387 L28.786,310.35 C28.64,310.19 28.547,310.071 28.547,309.83 C28.547,309.311 29.22,308.871 29.806,308.593 C31.689,307.593 34.255,306.795 37.5,306.795 C43.359,306.795 46.99,309.433 46.99,314.064 C46.99,318.458 43.359,319.937 42.101,320.337 C45.829,320.937 48.053,323.371 48.053,327.087 C48.053,331.441 45.004,335.516 36.241,335.516 C32.948,335.516 29.659,334.798 27.961,333.64 C27.771,333.521 27.381,333.239 27.381,332.959 C27.381,332.8 27.43,332.64 27.625,332.361 L29.127,330.124 C29.269,329.924 29.367,329.724 29.757,329.724 C30.094,329.724 30.435,329.963 30.967,330.202 C31.787,330.603 33.436,331.202 35.904,331.202 C37.548,331.202 39.144,330.963 40.354,329.805 C41.276,328.924 41.472,327.887 41.472,327.087 C41.472,325.05 40.5,324.011 39.485,323.493 C38.374,322.933 37.066,322.894 35.953,322.894 L34.548,322.894 C33.675,322.894 33.577,322.454 33.577,322.094 L33.577,319.378" id="Fill-3" fill="#261A14"></path>
                <path d="M61.588,330.524 L71.658,330.524 C72.092,330.524 72.628,330.603 72.628,331.322 L72.628,334.037 C72.628,334.757 72.092,334.837 71.658,334.837 L55.972,334.837 C55.103,334.837 55.006,334.397 55.006,334.037 L55.006,308.273 C55.006,307.554 55.538,307.474 55.972,307.474 L72.385,307.474 C72.58,307.474 72.819,307.515 72.965,307.674 C73.112,307.832 73.063,308.032 73.014,308.193 L72.048,311.188 C71.999,311.389 71.853,311.789 71.125,311.789 L61.588,311.789 L61.588,318.419 L69.721,318.419 C70.594,318.419 70.691,318.858 70.691,319.218 L70.691,321.935 C70.691,322.654 70.16,322.732 69.721,322.732 L61.588,322.732 L61.588,330.524" id="Fill-4" fill="#261A14"></path>
                <path d="M85.631,319.578 L87.134,319.578 C89.939,319.578 92.701,319.259 92.701,315.382 C92.701,311.708 89.603,311.667 87.763,311.667 L85.631,311.667 L85.631,319.578 Z M85.631,334.037 C85.631,334.397 85.539,334.837 84.665,334.837 L80.015,334.837 C79.147,334.837 79.049,334.397 79.049,334.037 L79.049,308.273 C79.049,307.554 79.581,307.474 80.015,307.474 L87.958,307.474 C90.134,307.474 93.135,307.554 95.365,308.593 C97.204,309.433 99.283,311.229 99.283,315.104 C99.283,320.376 95.072,323.892 88.197,323.892 L85.631,323.892 L85.631,334.037 Z" id="Fill-5" fill="#261A14"></path>
                <path d="M104.591,308.273 C104.591,307.515 105.074,307.474 105.557,307.474 L110.207,307.474 C110.689,307.474 111.173,307.515 111.173,308.273 L111.173,318.458 L120.326,318.458 L120.326,308.273 C120.326,307.515 120.809,307.474 121.292,307.474 L125.941,307.474 C126.858,307.474 126.907,307.874 126.907,308.273 L126.907,334.037 C126.907,334.438 126.858,334.837 125.941,334.837 L121.292,334.837 C120.809,334.837 120.326,334.798 120.326,334.037 L120.326,322.774 L111.173,322.774 L111.173,334.037 C111.173,334.798 110.689,334.837 110.207,334.837 L105.557,334.837 C105.074,334.837 104.591,334.798 104.591,334.037 L104.591,308.273" id="Fill-6" fill="#261A14"></path>
                <path d="M135.504,308.273 C135.504,307.554 136.036,307.474 136.47,307.474 L141.12,307.474 C141.993,307.474 142.086,307.913 142.086,308.273 L142.086,319.778 C142.086,321.654 141.993,320.815 141.896,325.369 L142.086,325.369 C142.861,323.771 144.555,320.495 145.281,319.179 L151.38,308.313 C151.673,307.793 151.771,307.474 152.639,307.474 L157.24,307.474 C158.113,307.474 158.206,307.913 158.206,308.273 L158.206,334.037 C158.206,334.397 158.113,334.837 157.24,334.837 L152.59,334.837 C151.722,334.837 151.624,334.397 151.624,334.037 L151.624,321.335 C151.624,320.257 151.722,318.339 151.819,316.941 L151.624,316.941 C150.415,319.737 149.639,321.015 148.912,322.293 L142.232,334.159 C141.993,334.599 141.847,334.837 141.12,334.837 L136.47,334.837 C135.602,334.837 135.504,334.397 135.504,334.037 L135.504,308.273" id="Fill-7" fill="#261A14"></path>
                <path d="M185.055,301.002 C185.245,301.002 185.538,301.162 185.538,301.563 C185.538,302.16 185.343,302.919 184.567,303.8 C183.503,304.958 181.615,306.114 178.181,306.114 C174.741,306.114 172.853,304.958 171.789,303.8 C171.013,302.919 170.823,302.16 170.823,301.563 C170.823,301.162 171.111,301.002 171.306,301.002 L174.453,300.724 C174.692,300.724 174.887,300.604 175.131,300.763 C175.321,300.882 175.37,301.201 175.517,301.521 C175.902,302.479 176.727,303.119 178.181,303.119 C179.629,303.119 180.455,302.479 180.839,301.521 C180.986,301.201 181.035,300.882 181.23,300.763 C181.469,300.604 181.664,300.724 181.908,300.724 L185.055,301.002 Z M166.803,308.273 C166.803,307.554 167.334,307.474 167.769,307.474 L172.418,307.474 C173.292,307.474 173.384,307.913 173.384,308.273 L173.384,319.778 C173.384,321.654 173.292,320.815 173.194,325.369 L173.384,325.369 C174.16,323.771 175.854,320.495 176.581,319.179 L182.679,308.313 C182.972,307.793 183.069,307.474 183.938,307.474 L188.539,307.474 C189.412,307.474 189.505,307.913 189.505,308.273 L189.505,334.037 C189.505,334.397 189.412,334.837 188.539,334.837 L183.889,334.837 C183.021,334.837 182.923,334.397 182.923,334.037 L182.923,321.335 C182.923,320.257 183.021,318.339 183.118,316.941 L182.923,316.941 C181.713,319.737 180.937,321.015 180.21,322.293 L173.531,334.159 C173.292,334.599 173.146,334.837 172.418,334.837 L167.769,334.837 C166.9,334.837 166.803,334.397 166.803,334.037 L166.803,308.273 Z" id="Fill-8" fill="#261A14"></path>
                <path d="M209.372,308.273 C209.372,307.554 209.904,307.474 210.338,307.474 L226.751,307.474 C227.38,307.474 227.526,307.712 227.526,307.954 C227.526,308.032 227.478,308.112 227.429,308.313 L226.458,311.628 C226.316,312.187 225.785,312.268 225.346,312.268 L215.954,312.268 L215.954,334.037 C215.954,334.397 215.861,334.837 214.988,334.837 L210.338,334.837 C209.47,334.837 209.372,334.397 209.372,334.037 L209.372,308.273" id="Fill-9" fill="#261A14"></path>
                <path d="M238.651,317.061 C238.314,315.863 237.972,314.504 237.587,311.748 L237.44,311.748 C237.392,312.826 237.245,314.304 236.377,317.061 L234.245,323.933 L240.637,323.933 L238.651,317.061 Z M240.783,307.474 C241.266,307.474 241.364,307.712 241.505,308.112 L250.995,333.878 C251.043,334.037 251.141,334.159 251.141,334.359 C251.141,334.798 250.609,334.837 250.365,334.837 L244.993,334.837 C244.413,334.837 244.266,334.798 243.974,333.998 L241.846,327.526 L233.518,327.526 L231.532,333.998 C231.342,334.637 231.293,334.837 230.664,334.837 L225.482,334.837 C224.467,334.837 224.663,334.278 224.755,334.037 L234.392,308.073 C234.538,307.712 234.586,307.474 235.216,307.474 L240.783,307.474 Z" id="Fill-10" fill="#261A14"></path>
                <path d="M274.55,301.002 C274.74,301.002 275.033,301.162 275.033,301.563 C275.033,302.16 274.838,302.919 274.063,303.8 C272.999,304.958 271.111,306.114 267.676,306.114 C264.236,306.114 262.348,304.958 261.285,303.8 C260.508,302.919 260.318,302.16 260.318,301.563 C260.318,301.162 260.606,301.002 260.801,301.002 L263.948,300.724 C264.187,300.724 264.382,300.604 264.626,300.763 C264.817,300.882 264.866,301.201 265.012,301.521 C265.397,302.479 266.222,303.119 267.676,303.119 C269.125,303.119 269.949,302.479 270.335,301.521 C270.481,301.201 270.53,300.882 270.725,300.763 C270.964,300.604 271.159,300.724 271.403,300.724 L274.55,301.002 Z M256.298,308.273 C256.298,307.554 256.83,307.474 257.264,307.474 L261.914,307.474 C262.787,307.474 262.88,307.913 262.88,308.273 L262.88,319.778 C262.88,321.654 262.787,320.815 262.689,325.369 L262.88,325.369 C263.656,323.771 265.348,320.495 266.075,319.179 L272.174,308.313 C272.467,307.793 272.564,307.474 273.433,307.474 L278.034,307.474 C278.907,307.474 279,307.913 279,308.273 L279,334.037 C279,334.397 278.907,334.837 278.034,334.837 L273.384,334.837 C272.516,334.837 272.418,334.397 272.418,334.037 L272.418,321.335 C272.418,320.257 272.516,318.339 272.613,316.941 L272.418,316.941 C271.208,319.737 270.432,321.015 269.705,322.293 L263.026,334.159 C262.787,334.599 262.64,334.837 261.914,334.837 L257.264,334.837 C256.395,334.837 256.298,334.397 256.298,334.037 L256.298,308.273 Z" id="Fill-11" fill="#261A14"></path>
                <path d="M4.602,361.649 C4.602,359.941 5.866,359.752 6.9,359.752 L45.844,359.752 C47.337,359.752 47.684,360.322 47.684,360.891 C47.684,361.081 47.566,361.271 47.454,361.745 L45.156,369.622 C44.81,370.952 43.546,371.142 42.512,371.142 L20.225,371.142 L20.225,422.869 C20.225,423.723 19.995,424.767 17.926,424.767 L6.9,424.767 C4.831,424.767 4.602,423.723 4.602,422.869 L4.602,361.649" id="Fill-12" fill="#261A14"></path>
                <path d="M74.113,382.531 C73.308,379.685 72.503,376.457 71.586,369.907 L71.239,369.907 C71.127,372.472 70.78,375.981 68.712,382.531 L63.657,398.856 L78.821,398.856 L74.113,382.531 Z M79.167,359.752 C80.314,359.752 80.548,360.322 80.89,361.271 L103.406,422.488 C103.523,422.869 103.752,423.154 103.752,423.627 C103.752,424.672 102.489,424.767 101.914,424.767 L89.165,424.767 C87.784,424.767 87.438,424.672 86.75,422.773 L81.695,407.397 L61.935,407.397 L57.222,422.773 C56.764,424.291 56.651,424.767 55.158,424.767 L42.863,424.767 C40.453,424.767 40.912,423.437 41.141,422.869 L64.004,361.177 C64.345,360.322 64.462,359.752 65.955,359.752 L79.167,359.752 Z" id="Fill-13" fill="#261A14"></path>
                <path d="M135.349,422.869 C135.349,424.576 134.085,424.767 133.056,424.767 L122.025,424.767 C119.956,424.767 119.727,423.723 119.727,422.869 L119.727,371.142 L104.445,371.142 C102.723,371.142 102.723,370.098 102.723,369.717 L102.723,361.177 C102.723,360.796 102.723,359.752 104.445,359.752 L153.274,359.752 C155.572,359.752 154.997,361.081 154.768,361.745 L152.24,369.622 C151.781,370.952 150.747,371.142 149.825,371.142 L135.349,371.142 L135.349,422.869" id="Fill-14" fill="#261A14"></path>
                <path d="M162.696,361.649 C162.696,359.847 163.842,359.752 164.994,359.752 L176.021,359.752 C177.171,359.752 178.318,359.847 178.318,361.649 L178.318,385.852 L200.029,385.852 L200.029,361.649 C200.029,359.847 201.181,359.752 202.328,359.752 L213.359,359.752 C215.54,359.752 215.657,360.701 215.657,361.649 L215.657,422.869 C215.657,423.817 215.54,424.767 213.359,424.767 L202.328,424.767 C201.181,424.767 200.029,424.672 200.029,422.869 L200.029,396.103 L178.318,396.103 L178.318,422.869 C178.318,424.672 177.171,424.767 176.021,424.767 L164.994,424.767 C163.842,424.767 162.696,424.672 162.696,422.869 L162.696,361.649" id="Fill-15" fill="#261A14"></path>
                <path d="M251.737,414.516 L275.635,414.516 C276.669,414.516 277.932,414.706 277.932,416.414 L277.932,422.869 C277.932,424.576 276.669,424.767 275.635,424.767 L238.413,424.767 C236.344,424.767 236.115,423.723 236.115,422.869 L236.115,361.649 C236.115,359.941 237.378,359.752 238.413,359.752 L277.357,359.752 C277.815,359.752 278.391,359.847 278.737,360.228 C279.079,360.605 278.966,361.081 278.85,361.462 L276.551,368.58 C276.439,369.054 276.093,370.002 274.371,370.002 L251.737,370.002 L251.737,385.759 L271.038,385.759 C273.107,385.759 273.336,386.804 273.336,387.657 L273.336,394.109 C273.336,395.819 272.073,396.008 271.038,396.008 L251.737,396.008 L251.737,414.516" id="Fill-16" fill="#261A14"></path>
                <polyline id="Fill-17" fill="#261A14" points="24.282 446.688 21.91 446.688 16.109 453.707 16.109 446.688 14.144 446.688 14.144 453.707 8.343 446.688 5.971 446.688 12.208 454.174 5.036 462.596 7.749 462.596 14.144 454.921 14.144 462.596 16.109 462.596 16.109 454.921 22.504 462.596 25.216 462.596 18.044 454.174 24.282 446.688"></polyline>
                <polyline id="Fill-18" fill="#261A14" points="29.687 460.381 29.687 446.688 27.721 446.688 27.721 462.596 30.561 462.596 38.169 448.841 38.169 462.596 40.135 462.596 40.135 446.688 37.235 446.688 29.687 460.381"></polyline>
                <polyline id="Fill-19" fill="#261A14" points="42.918 448.343 48.003 448.343 48.003 462.596 49.969 462.596 49.969 448.343 55.053 448.343 55.053 446.688 42.918 446.688 42.918 448.343"></polyline>
                <path d="M58.334,458.446 C58.304,459.944 57.806,461.194 56.028,461.194 L55.84,461.194 L56.028,462.972 L56.186,462.972 C59.056,463.002 60.27,460.945 60.27,458.512 L60.27,448.343 L66.507,448.343 L66.507,462.596 L68.473,462.596 L68.473,446.688 L58.334,446.688 L58.334,458.446" id="Fill-20" fill="#261A14"></path>
                <path d="M79.617,461.285 C76.188,461.285 74.345,458.324 74.345,454.642 C74.345,450.964 76.188,447.997 79.617,447.997 C83.051,447.997 84.89,450.964 84.89,454.642 C84.89,458.324 83.051,461.285 79.617,461.285 Z M79.617,446.316 C74.472,446.316 72.196,450.309 72.196,454.642 C72.196,458.979 74.472,462.972 79.617,462.972 C84.763,462.972 87.043,458.979 87.043,454.642 C87.043,450.309 84.763,446.316 79.617,446.316 Z" id="Fill-21" fill="#261A14"></path>
                <path d="M95.846,460.945 L92.727,460.945 L92.727,455.14 L95.566,455.14 C98.03,455.14 100.367,455.454 100.367,458.075 C100.367,460.381 98.061,460.945 95.846,460.945 Z M92.727,448.343 L96.283,448.343 C97.812,448.343 99.747,448.652 99.747,450.746 C99.747,453.082 97.594,453.488 95.846,453.488 L92.727,453.488 L92.727,448.343 Z M99.274,454.235 L99.274,454.205 C100.803,453.646 101.743,452.487 101.743,450.776 C101.743,447.688 99.122,446.688 96.375,446.688 L90.762,446.688 L90.762,462.596 L95.907,462.596 C99.372,462.596 102.459,461.504 102.459,457.979 C102.459,456.109 101.179,454.702 99.274,454.235 Z" id="Fill-22" fill="#261A14"></path>
                <polyline id="Fill-23" fill="#261A14" points="108.331 460.381 108.331 446.688 106.366 446.688 106.366 462.596 109.205 462.596 116.814 448.841 116.814 462.596 118.78 462.596 118.78 446.688 115.879 446.688 108.331 460.381"></polyline>
                <polyline id="Fill-24" fill="#261A14" points="125.682 460.381 125.682 446.688 123.717 446.688 123.717 462.596 126.556 462.596 134.165 448.841 134.165 462.596 136.131 462.596 136.131 446.688 133.23 446.688 125.682 460.381"></polyline>
                <path d="M133.794,440.825 L132.855,440.825 C132.484,442.136 131.204,442.542 129.954,442.542 C128.71,442.542 127.43,442.136 127.054,440.825 L126.119,440.825 C126.398,442.883 127.77,444.411 129.954,444.411 C132.139,444.411 133.51,442.883 133.794,440.825" id="Fill-25" fill="#261A14"></path>
                <polyline id="Fill-26" fill="#261A14" points="161.345 446.688 158.882 446.688 151.71 453.707 151.71 446.688 149.744 446.688 149.744 462.596 151.71 462.596 151.71 454.921 159.507 462.596 162.285 462.596 153.645 454.174 161.345 446.688"></polyline>
                <path d="M170.96,461.285 C167.532,461.285 165.688,458.324 165.688,454.642 C165.688,450.964 167.532,447.997 170.96,447.997 C174.395,447.997 176.233,450.964 176.233,454.642 C176.233,458.324 174.395,461.285 170.96,461.285 Z M170.96,446.316 C165.815,446.316 163.54,450.309 163.54,454.642 C163.54,458.979 165.815,462.972 170.96,462.972 C176.106,462.972 178.387,458.979 178.387,454.642 C178.387,450.309 176.106,446.316 170.96,446.316 Z" id="Fill-27" fill="#261A14"></path>
                <polyline id="Fill-28" fill="#261A14" points="191.09 460.163 184.944 446.688 182.105 446.688 182.105 462.596 184.07 462.596 184.07 448.998 190.278 462.596 191.929 462.596 197.953 448.998 197.953 462.596 199.913 462.596 199.913 446.688 197.262 446.688 191.09 460.163"></polyline>
                <polyline id="Fill-29" fill="#261A14" points="204.952 462.596 206.918 462.596 206.918 448.373 215.401 448.373 215.401 462.596 217.366 462.596 217.366 446.688 204.952 446.688 204.952 462.596"></polyline>
                <path d="M222.837,458.446 C222.801,459.944 222.303,461.194 220.525,461.194 L220.338,461.194 L220.525,462.972 L220.683,462.972 C223.553,463.002 224.767,460.945 224.767,458.512 L224.767,448.343 L231.005,448.343 L231.005,462.596 L232.97,462.596 L232.97,446.688 L222.837,446.688 L222.837,458.446" id="Fill-30" fill="#261A14"></path>
                <path d="M238.873,453.52 C238.873,450.898 240.65,447.997 243.556,447.997 C246.486,447.997 247.609,450.746 247.609,453.52 L238.873,453.52 Z M243.429,446.316 C239.406,446.316 236.724,449.775 236.724,454.642 C236.724,459.416 238.689,462.972 243.957,462.972 C245.425,462.972 247.203,462.657 248.574,462.099 L248.574,460.102 C247.64,460.691 245.552,461.285 244.115,461.285 C240.686,461.285 238.873,458.573 238.873,455.205 L249.763,455.205 L249.763,454.205 C249.763,449.933 247.919,446.316 243.429,446.316 Z" id="Fill-31" fill="#261A14"></path>
                <polyline id="Fill-32" fill="#261A14" points="265.113 446.688 262.649 446.688 255.477 453.707 255.477 446.688 253.511 446.688 253.511 462.596 255.477 462.596 255.477 454.921 263.274 462.596 266.052 462.596 257.413 454.174 265.113 446.688"></polyline>
                <path d="M275.444,447.997 C276.506,447.997 277.786,448.343 278.848,448.811 L279,446.936 C278.441,446.753 277.07,446.316 275.165,446.316 C270.456,446.316 267.308,449.745 267.308,454.642 C267.308,459.071 269.801,462.972 274.917,462.972 C276.415,462.972 277.659,462.875 279,462.408 L278.817,460.569 C277.628,461.006 276.476,461.285 275.226,461.285 C271.64,461.285 269.456,458.258 269.456,454.642 C269.456,450.776 271.609,447.997 275.444,447.997" id="Fill-33" fill="#261A14"></path>
            </g>
        </g>
    </g>
</svg>