<?xml version="1.0" encoding="UTF-8"?>
<svg width="577px" height="419px" viewBox="0 0 577 419" version="1.1" xmlns="http://www.w3.org/2000/svg" xmlns:xlink="http://www.w3.org/1999/xlink">
    <!-- Generator: Sketch 50.2 (55047) - http://www.bohemiancoding.com/sketch -->
    <title>Group</title>
    <desc>Created with Sketch.</desc>
    <defs>
        <path d="M40.762,6.403 C40.762,6.403 33.394,4.255 23.119,8.391 C12.843,12.526 9.911,15.545 6.896,18.005 C3.88,20.466 0.062,24.414 0.062,24.414 C0.062,24.414 1.576,19.14 9.027,11.826 C16.479,4.512 23.497,2.257 27.082,1.354 C30.809,0.414 37.244,0.096 41.301,2.003 C43.303,2.944 44.134,4.233 43.859,5.25 C43.424,6.859 40.762,6.403 40.762,6.403" id="path-1"></path>
        <path d="M42.595,7.835 C61.488,3.62 87.461,0.094 107.639,0.378 C130.021,0.694 135.675,1.941 140.63,4.926 C141.753,5.602 142.978,6.949 143.604,8.444 C144.827,11.363 144.523,15.095 142.015,17.234 C134.877,23.323 118.677,21.469 118.677,21.469 C119.125,21.497 137.149,20.509 131.033,11.263 C126.894,5.006 96.634,6.125 75.619,7.624 C36.386,10.423 4.161,21.919 0.892979651,27.142 C0.876,21.913 11.508,14.77 42.595,7.835" id="path-3"></path>
        <path d="M0.471,43.563 C0.471,43.563 -0.559,37.037 9.446,28.072 C20.336,18.314 36.147,9.265 51.31,4.473 C66.473,-0.318 79.067,0.074 83,1.353 C86.932,2.631 88.524,3.707 88.8,7.411 C89.04,10.638 84.505,13.958 80.844,14.947 C78.714,15.523 74.671,16.041 72.775,16.184 C76.93,14.436 82.49,13.145 80.944,8.926 C79.473,4.912 70.379,5.646 60.54,7.2 C58.479,7.525 56.838,7.816 55.031,8.318 C47.009,10.142 38.438,14.197 38.438,14.197 C38.438,14.197 26.146,19.532 15.238,27.529 C7.828,32.963 4.123,36.722 1.378,41.691 C0.789,42.758 0.471,43.563 0.471,43.563" id="path-5"></path>
        <path d="M31.5,7.625 C47.658,-1.181 65.897,-1.402 69.443,4.563 C70.579,6.472 69.061,9.462 67.488,10.811 C65.916,12.16 63.318,13.253 59.58,13.548 L59.584,13.541 C63.215,11.803 64.649,10.231 64.07,7.989 C63.213,4.675 56.305,4.046 48.288,5.961 C40.993,7.703 35.492,9.917 30.943,12.268 C15.442,20.281 3.836,29.764 0.916,36.627 C-0.183,29.231 13.552,17.407 31.5,7.625" id="path-7"></path>
        <path d="M79.219,2.816 C101.214,-1.632 114.342,3.122 114.342,3.122 C114.342,3.122 121.156,5.442 119.493,10.556 C118.765,12.793 116.947,14.439 115.132,15.584 C112.984,16.938 110.517,17.733 107.979,18.077 C105.661,18.392 102.354,18.733 100.904,18.374 C100.904,18.374 100.958,18.313 101.041,18.216 C105.966,16.818 110.632,14.935 109.896,11.754 C108.85,7.237 100.833,6.23 85.633,7.414 C75.837,8.176 59.091,12.45 45.867,17.2 C39.112,19.627 33.758,21.564 27.139,24.85 C14.559,31.233 4.532,37.71 0.845,45.031 C-0.903,40.112 11.729,16.468 79.219,2.816" id="path-9"></path>
        <path d="M88.633,1.769 C103.28,-0.682 117.844,0.717 123.84,2.688 C129.836,4.659 131.665,9.265 130.203,12.568 C129.29,14.634 127.302,16.091 124.041,17.429 C118.83,19.566 107.732,19.78 107.732,19.78 C107.732,19.78 107.802,19.715 107.919,19.6 C114.74,18.471 119.607,15.699 119.464,12.664 C119.287,8.938 114.392,7.088 105.115,7.132 C90.855,7.199 63.286,11.933 37.352,20.745 C20.727,26.394 2.897,35.531 0.53,41.688 C-1.226,31.051 31.843,11.27 88.633,1.769" id="path-11"></path>
        <path d="M37.278,12.866 C52.516,8.104 65.35,3.827 96.14,1.373 C111.985,0.11 125.123,1.357 131.469,3.613 C137.815,5.869 140.139,9.715 138.938,14.581 C138.359,16.925 136.423,19.097 132.983,20.461 C127.453,22.654 122.261,22.466 118.008,22.292 C125.355,21.488 129.453,17.692 128.943,13.668 C128.475,9.962 120.427,7.364 110.496,6.959 C95.434,6.345 85.808,7.505 77.531,8.713 C36.007,14.775 3.266,29.858 0.802,35.556 C-1.603,25.938 30.375,15.639 37.278,12.866" id="path-13"></path>
        <path d="M4.582,34.627 C8.272,29.671 19.834,20.605 36.339,12.842 C56.055,3.567 69.625,1.773 78.063,0.759 C89.155,-0.575 101.449,0.285 104.542,4.103 C107.636,7.921 104.308,11.301 101.435,13.221 C99.174,14.732 92.444,16.266 89.04,15.507 C93.839,14.293 96.471,11.946 96.298,9.677 C96.061,6.554 92.933,3.653 78.14,5.104 C60.958,6.616 42.6,14.636 42.6,14.636 C42.6,14.636 27.748,21.025 18.418,27.251 C9.087,33.477 3.755,38.792 2.42,40.737 C1.086,42.683 0.71,44.057 0.71,44.057 C0.71,44.057 0.459,40.163 4.582,34.627" id="path-15"></path>
    </defs>
    <g id="Page-1" stroke="none" stroke-width="1" fill="none" fill-rule="evenodd">
        <g id="ic" transform="translate(-49.000000, -87.000000)">
            <g id="Group" transform="translate(49.000000, 87.000000)">
                <path d="M146.805,413.277 C145.974,413.692 144.312,414.108 142.182,414.108 C137.248,414.108 133.534,410.992 133.534,405.252 C133.534,399.772 137.248,396.059 142.676,396.059 C144.857,396.059 146.234,396.526 146.831,396.838 L146.286,398.682 C145.429,398.267 144.208,397.955 142.754,397.955 C138.65,397.955 135.923,400.578 135.923,405.175 C135.923,409.46 138.391,412.213 142.65,412.213 C144.026,412.213 145.429,411.927 146.337,411.485 L146.805,413.277" id="Fill-1" fill="#494C4A"></path>
                <polyline id="Fill-2" fill="#494C4A" points="157.769 398.267 152.445 398.267 152.445 396.345 165.404 396.345 165.404 398.267 160.054 398.267 160.054 413.849 157.769 413.849 157.769 398.267"></polyline>
                <path d="M177.718,406.577 L176.003,401.539 C175.614,400.396 175.354,399.357 175.095,398.345 L175.043,398.345 C174.783,399.383 174.498,400.448 174.16,401.513 L172.446,406.577 L177.718,406.577 Z M171.978,408.343 L170.16,413.849 L167.823,413.849 L173.77,396.345 L176.497,396.345 L182.47,413.849 L180.055,413.849 L178.185,408.343 L171.978,408.343 Z" id="Fill-3" fill="#494C4A"></path>
                <path d="M191.202,404.993 C191.695,405.122 192.318,405.175 193.071,405.175 C195.798,405.175 197.46,403.85 197.46,401.435 C197.46,399.123 195.824,398.007 193.331,398.007 C192.344,398.007 191.591,398.085 191.202,398.188 L191.202,404.993 Z M188.942,396.553 C190.033,396.37 191.461,396.215 193.279,396.215 C195.513,396.215 197.149,396.734 198.188,397.669 C199.148,398.5 199.72,399.772 199.72,401.331 C199.72,402.915 199.252,404.162 198.37,405.07 C197.175,406.343 195.227,406.992 193.02,406.992 C192.344,406.992 191.721,406.967 191.202,406.837 L191.202,413.849 L188.942,413.849 L188.942,396.553 Z" id="Fill-4" fill="#494C4A"></path>
                <path d="M207.827,405.2 C207.827,408.94 209.853,412.29 213.411,412.29 C216.995,412.29 219.02,408.992 219.02,405.019 C219.02,401.539 217.202,397.902 213.437,397.902 C209.697,397.902 207.827,401.356 207.827,405.2 Z M221.409,404.915 C221.409,410.94 217.748,414.135 213.281,414.135 C208.658,414.135 205.412,410.551 205.412,405.252 C205.412,399.694 208.866,396.059 213.541,396.059 C218.319,396.059 221.409,399.721 221.409,404.915 Z" id="Fill-5" fill="#494C4A"></path>
                <polyline id="Fill-6" fill="#494C4A" points="230.504 396.345 230.504 403.668 238.971 403.668 238.971 396.345 241.256 396.345 241.256 413.849 238.971 413.849 238.971 405.642 230.504 405.642 230.504 413.849 228.245 413.849 228.245 396.345 230.504 396.345"></polyline>
                <path d="M257.648,406.577 L255.934,401.539 C255.545,400.396 255.285,399.357 255.025,398.345 L254.974,398.345 C254.714,399.383 254.428,400.448 254.09,401.513 L252.376,406.577 L257.648,406.577 Z M251.909,408.343 L250.091,413.849 L247.753,413.849 L253.701,396.345 L256.428,396.345 L262.401,413.849 L259.986,413.849 L258.116,408.343 L251.909,408.343 Z" id="Fill-7" fill="#494C4A"></path>
                <path d="M271.132,412.135 C271.574,412.213 272.223,412.238 273.028,412.238 C275.365,412.238 277.521,411.382 277.521,408.836 C277.521,406.447 275.469,405.46 273.002,405.46 L271.132,405.46 L271.132,412.135 Z M271.132,403.746 L273.184,403.746 C275.573,403.746 276.976,402.5 276.976,400.812 C276.976,398.76 275.417,397.955 273.132,397.955 C272.093,397.955 271.496,398.032 271.132,398.11 L271.132,403.746 Z M268.873,396.578 C269.86,396.37 271.418,396.215 273.002,396.215 C275.262,396.215 276.716,396.604 277.807,397.487 C278.716,398.162 279.261,399.201 279.261,400.578 C279.261,402.266 278.144,403.746 276.3,404.421 L276.3,404.474 C277.962,404.889 279.91,406.266 279.91,408.862 C279.91,410.368 279.313,411.512 278.43,412.368 C277.209,413.485 275.235,414.005 272.379,414.005 C270.821,414.005 269.626,413.9 268.873,413.797 L268.873,396.578 Z" id="Fill-8" fill="#494C4A"></path>
                <path d="M288.018,405.2 C288.018,408.94 290.043,412.29 293.601,412.29 C297.185,412.29 299.211,408.992 299.211,405.019 C299.211,401.539 297.393,397.902 293.627,397.902 C289.887,397.902 288.018,401.356 288.018,405.2 Z M301.6,404.915 C301.6,410.94 297.938,414.135 293.471,414.135 C288.849,414.135 285.602,410.551 285.602,405.252 C285.602,399.694 289.056,396.059 293.731,396.059 C298.51,396.059 301.6,399.721 301.6,404.915 Z" id="Fill-9" fill="#494C4A"></path>
                <path d="M312.175,401.513 C312.175,404.317 311.916,406.681 311.292,408.654 C310.929,409.875 310.383,411.044 309.864,411.979 L317.603,411.979 L317.603,398.215 L312.175,398.215 L312.175,401.513 Z M319.862,396.345 L319.862,412.005 L321.395,412.057 L321.239,418.056 L319.473,418.056 L319.317,413.849 L308.28,413.849 L308.124,418.056 L306.358,418.056 L306.202,412.057 L307.526,412.005 C308.176,410.811 308.825,409.537 309.241,408.161 C309.838,406.136 310.072,403.798 310.072,400.785 L310.072,396.345 L319.862,396.345 Z" id="Fill-10" fill="#494C4A"></path>
                <polyline id="Fill-11" fill="#494C4A" points="330.411 396.345 330.411 403.668 338.877 403.668 338.877 396.345 341.163 396.345 341.163 413.849 338.877 413.849 338.877 405.642 330.411 405.642 330.411 413.849 328.152 413.849 328.152 396.345 330.411 396.345"></polyline>
                <path d="M351.115,396.345 L351.115,403.72 C351.115,406.499 351.063,408.784 350.907,411.122 L350.959,411.147 C351.842,409.33 352.933,407.434 354.205,405.356 L359.867,396.345 L362.126,396.345 L362.126,413.849 L359.997,413.849 L359.997,406.396 C359.997,403.564 360.022,401.486 360.204,399.279 L360.126,399.253 C359.27,401.175 358.075,403.201 356.88,405.148 L351.4,413.849 L348.985,413.849 L348.985,396.345 L351.115,396.345" id="Fill-12" fill="#494C4A"></path>
                <polyline id="Fill-13" fill="#494C4A" points="372.234 396.345 372.234 411.953 380.259 411.953 380.259 396.345 382.544 396.345 382.544 412.005 384.076 412.057 383.92 418.056 382.128 418.056 381.973 413.849 369.974 413.849 369.974 396.345 372.234 396.345"></polyline>
                <path d="M393.067,412.108 C393.586,412.213 394.158,412.238 394.937,412.238 C397.456,412.238 399.612,411.018 399.612,408.343 C399.612,405.59 397.404,404.551 394.911,404.551 C394.339,404.551 393.638,404.604 393.067,404.681 L393.067,412.108 Z M393.067,396.345 L393.067,402.889 C393.586,402.812 394.625,402.759 395.223,402.759 C398.807,402.759 401.975,404.344 401.975,408.213 C401.975,409.85 401.456,411.044 400.625,411.953 C399.196,413.459 396.755,414.005 394.339,414.005 C392.755,414.005 391.561,413.9 390.808,413.797 L390.808,396.345 L393.067,396.345 Z" id="Fill-14" fill="#494C4A"></path>
                <path d="M411.017,396.345 L411.017,404.109 L411.718,404.109 L417.717,396.345 L420.444,396.345 L413.822,404.369 C416.705,404.759 417.821,406.525 418.73,408.889 C419.379,410.681 419.873,412.29 420.652,413.849 L418.211,413.849 C417.588,412.654 417.094,411.096 416.627,409.72 C415.822,407.408 414.705,405.824 411.744,405.824 L411.017,405.824 L411.017,413.849 L408.784,413.849 L408.784,396.345 L411.017,396.345" id="Fill-15" fill="#494C4A"></path>
                <path d="M435.459,406.577 L433.745,401.539 C433.356,400.396 433.096,399.357 432.836,398.345 L432.785,398.345 C432.525,399.383 432.239,400.448 431.901,401.513 L430.188,406.577 L435.459,406.577 Z M429.72,408.343 L427.902,413.849 L425.564,413.849 L431.512,396.345 L434.239,396.345 L440.212,413.849 L437.797,413.849 L435.927,408.343 L429.72,408.343 Z" id="Fill-16" fill="#494C4A"></path>
                <polyline id="Fill-17" fill="#494C4A" points="461.436 368.058 467.089 368.085 467.361 312.127 461.708 312.1 461.436 368.058"></polyline>
                <path d="M430.487,319.805 C433.235,317.727 437.321,316.687 442.667,316.713 L444.727,316.723 L444.716,311.432 L442.657,311.422 C436.084,311.39 430.802,312.847 426.958,315.752 C422.978,318.761 420.945,323.008 420.919,328.377 L420.808,351.386 C420.782,356.755 422.772,361.021 426.723,364.067 C430.47,366.959 435.738,368.44 442.417,368.474 L444.476,368.483 L444.464,363.31 L442.405,363.3 C439.743,363.287 437.357,362.985 435.316,362.403 C433.346,361.843 431.672,361.037 430.343,360.011 C429.052,359.016 428.105,357.837 427.447,356.408 C426.785,354.97 426.453,353.289 426.462,351.413 L426.574,328.404 C426.592,324.595 427.873,321.781 430.487,319.805" id="Fill-18" fill="#494C4A"></path>
                <polyline id="Fill-19" fill="#494C4A" points="572.609 311.758 554.538 336.486 536.707 311.583 532.784 314.36 552.253 341.511 552.122 368.52 556.643 368.541 556.773 341.533 576.505 314.573 572.609 311.758"></polyline>
                <polygon id="Fill-20" fill="#494C4A" points="0.495 368.027 6.178 368.027 6.178 311.782 0.495 311.782"></polygon>
                <polyline id="Fill-21" fill="#494C4A" points="127.846 368.538 163.098 368.538 163.098 363.338 133.528 363.338 133.528 339.639 155.487 339.639 155.487 334.36 133.528 334.36 133.528 316.511 163.098 316.511 163.098 311.193 127.846 311.193 127.846 368.538"></polyline>
                <path d="M298.952,348.85 L311.17,320.83 L323.429,348.85 L298.952,348.85 Z M309.041,311.782 L284.783,367.347 L290.388,368.418 L296.679,354.127 L325.708,354.127 L331.998,368.418 L337.603,367.347 L313.345,311.782 L309.041,311.782 Z" id="Fill-22" fill="#494C4A"></path>
                <polyline id="Fill-23" fill="#494C4A" points="357.103 311.782 351.42 311.782 351.42 368.538 386.673 368.538 386.673 363.338 357.103 363.338 357.103 311.782"></polyline>
                <polyline id="Fill-24" fill="#494C4A" points="21.619 311.782 21.619 368.027 27.302 368.027 27.302 322.594 51.311 356.297 51.311 346.713 26.404 311.782 21.619 311.782"></polyline>
                <polyline id="Fill-25" fill="#494C4A" points="59.41 368.027 65.203 368.027 65.203 311.782 59.576 311.782 59.41 368.027"></polyline>
                <polyline id="Fill-26" fill="#494C4A" points="256.823 341.013 267.468 341.013 267.468 360.357 273.1 360.357 273.1 335.734 256.823 335.734 256.823 341.013"></polyline>
                <path d="M240.902,359.797 C237.989,357.573 236.574,354.849 236.574,351.469 L236.574,328.342 C236.574,324.854 238.211,322.048 241.577,319.77 C244.777,317.607 248.504,316.511 252.657,316.511 L258.384,316.511 L258.384,311.193 L252.657,311.193 C247.253,311.193 242.399,312.621 238.227,315.437 C233.359,318.738 230.891,323.08 230.891,328.342 L230.891,351.469 C230.891,356.448 233.05,360.622 237.317,363.878 C241.404,366.97 246.564,368.538 252.657,368.538 L258.384,368.538 L258.384,363.338 L252.657,363.338 C247.933,363.338 243.979,362.147 240.902,359.797" id="Fill-27" fill="#494C4A"></path>
                <path d="M217.96,328.341 C217.96,321.934 215.076,317.181 209.39,314.215 C205.542,312.21 200.772,311.193 195.217,311.193 L192.265,311.193 L192.265,316.512 L195.217,316.512 C199.825,316.512 203.671,317.304 206.655,318.869 C210.472,320.856 212.328,323.955 212.328,328.341 C212.328,332.789 210.738,335.413 206.827,337.403 C205.69,337.994 202.437,339.212 201.026,339.574 L199.532,339.959 L199.333,345.274 L212.801,368.407 L219.006,366.904 L205.64,343.558 C213.423,340.695 217.96,335.188 217.96,328.341" id="Fill-28" fill="#494C4A"></path>
                <polyline id="Fill-29" fill="#494C4A" points="178.499 368.027 184.171 368.027 184.473 311.193 178.499 311.193 178.499 368.027"></polyline>
                <polyline id="Fill-30" fill="#494C4A" points="498.152 321.504 497.915 370.285 503.755 370.313 504.436 321.504 498.152 321.504"></polyline>
                <polyline id="Fill-31" fill="#494C4A" points="504.572 311.726 504.572 311.722 481.009 311.607 480.982 317.091 523.675 317.156 523.701 311.818 504.572 311.726"></polyline>
                <polyline id="Fill-32" fill="#494C4A" points="98.883 310.91 98.883 310.907 75.758 310.907 75.758 316.287 117.654 316.283 117.654 310.91 98.883 310.91"></polyline>
                <polyline id="Fill-33" fill="#494C4A" points="92.628 320.618 92.628 368.407 98.359 368.407 98.794 320.618 92.628 320.618"></polyline>
                <path d="M167.872,228.304 C150.524,211.013 151.597,182.81 151.597,182.81 C151.597,182.81 151.728,114.797 217.492,63.592 C233.264,51.312 249.108,42.206 264.086,35.45 C258.282,39.733 252.357,44.526 246.345,49.911 C211.207,81.383 191.619,119.844 181.156,147.769 C172.816,170.023 167.102,193.608 165.955,204.459 C165.193,211.666 165.327,220.121 167.872,228.304" id="Fill-34" fill="#D0D2CB"></path>
                <path d="M345.406,226.167 C350.221,221.451 354.597,216.232 358.416,210.472 C398.665,149.767 418.256,93.658 411.681,51.319 C411.199,48.215 410.54,45.256 409.727,42.423 C413.595,46.726 416.768,51.523 419.212,56.845 C431.091,82.716 422.792,141.324 385.74,194.964 C376.681,208.079 362.409,218.36 345.406,226.167" id="Fill-35" fill="#D0D2CB"></path>
                <path d="M409.727,42.423 C402.704,34.609 393.356,28.452 381.69,23.913 C369.202,19.055 355,16.715 341.246,16.715 C339.534,16.715 337.829,16.751 336.135,16.823 C337.83,16.751 339.536,16.715 341.249,16.715 C355.003,16.715 369.203,19.054 381.692,23.913 C393.355,28.451 402.703,34.608 409.726,42.42 C409.726,42.421 409.727,42.422 409.727,42.423 M264.086,35.45 C286.522,18.894 307.121,10.099 323.664,5.492 C307.121,10.099 286.524,18.894 264.088,35.45 C264.089,35.449 264.088,35.45 264.086,35.45" id="Fill-36" fill="#DCDCD6"></path>
                <path d="M262.724,262.141 C291.158,258.665 321.16,248.102 344.069,227.453 C322.214,248.092 291.766,258.707 262.724,262.141 M172.829,238.918 C170.761,235.753 169.224,232.426 168.109,229.043 C169.297,232.334 170.813,235.698 172.829,238.918 M321.611,235.051 C329.932,232.549 337.934,229.597 345.406,226.167 C345.277,226.293 345.149,226.418 345.019,226.544 C337.624,229.824 329.762,232.65 321.611,235.051 M173.631,233.121 C171.568,231.747 169.696,230.23 167.957,228.575 C167.929,228.485 167.9,228.394 167.872,228.304 C169.604,230.03 171.516,231.649 173.631,233.121" id="Fill-37" fill="#DCDCD6"></path>
                <path d="M409.729,42.423 C409.728,42.422 409.727,42.421 409.726,42.42 C405.896,29.079 398.413,18.722 387.373,11.285 C377.066,4.342 364.434,0.945 351.966,0.945 C349.205,0.945 346.451,1.112 343.732,1.443 C338.049,2.136 331.287,3.37 323.664,5.492 C331.287,3.369 338.05,2.136 343.733,1.442 C346.451,1.111 349.204,0.944 351.965,0.944 C364.434,0.944 377.066,4.341 387.373,11.284 C398.415,18.723 405.898,29.08 409.729,42.423 M264.088,35.45 C288.633,24.38 310.847,19.629 326.577,17.628 C329.703,17.23 332.899,16.961 336.135,16.823 C332.9,16.961 329.703,17.23 326.578,17.628 C310.847,19.629 288.632,24.38 264.088,35.45" id="Fill-38" fill="#B4B6B2"></path>
                <path d="M409.726,42.42 C402.703,34.608 393.355,28.451 381.692,23.913 C369.203,19.054 355.003,16.715 341.249,16.715 C339.536,16.715 337.83,16.751 336.135,16.823 C332.899,16.961 329.703,17.23 326.577,17.628 C310.847,19.629 288.633,24.38 264.09,35.449 C286.524,18.894 307.121,10.099 323.664,5.492 C331.287,3.37 338.049,2.136 343.732,1.443 C346.451,1.112 349.205,0.945 351.966,0.945 C364.434,0.945 377.066,4.342 387.373,11.285 C398.413,18.722 405.896,29.079 409.726,42.42" id="Fill-39" fill="#A3A6A2"></path>
                <path d="M241.054,263.468 C216.899,263.468 195.792,258.428 183.941,250.491 C179.084,247.238 175.514,243.207 172.829,238.918 C175.673,243.271 179.52,247.316 184.654,250.772 C196.264,258.587 217.274,263.415 241.211,263.415 C248.186,263.415 255.41,263.005 262.724,262.141 C255.344,263.043 248.07,263.468 241.054,263.468 M241.44,246.219 C217.031,246.219 195.444,243.112 181.99,237.642 C178.897,236.384 176.123,234.855 173.631,233.121 C175.96,234.671 178.533,236.037 181.434,237.208 C195.184,242.763 217.183,245.945 242.046,245.945 C267.507,245.945 295.973,242.603 321.611,235.051 C295.887,242.784 267.104,246.219 241.44,246.219 M168.109,229.043 C168.05,228.88 167.992,228.716 167.934,228.553 C167.942,228.56 167.95,228.567 167.957,228.575 C168.007,228.731 168.058,228.887 168.109,229.043 M344.069,227.453 C344.388,227.152 344.704,226.849 345.019,226.544 C345.048,226.531 345.079,226.517 345.109,226.504 C344.763,226.823 344.417,227.139 344.069,227.453" id="Fill-40" fill="#B4B6B2"></path>
                <path d="M241.211,263.415 C217.274,263.415 196.264,258.587 184.654,250.772 C179.52,247.316 175.673,243.271 172.829,238.918 C170.813,235.698 169.297,232.334 168.109,229.043 C168.058,228.887 168.007,228.731 167.957,228.575 C169.696,230.23 171.568,231.747 173.631,233.121 C176.123,234.855 178.897,236.384 181.99,237.642 C195.444,243.112 217.031,246.219 241.44,246.219 C267.104,246.219 295.887,242.784 321.611,235.051 C329.762,232.65 337.624,229.824 345.019,226.544 C344.704,226.849 344.388,227.152 344.069,227.453 C321.16,248.102 291.158,258.665 262.724,262.141 C255.41,263.005 248.186,263.415 241.211,263.415" id="Fill-41" fill="#A3A6A2"></path>
                <g id="Group-44" transform="translate(260.000000, 55.000000)">
                    <mask id="mask-2" fill="white">
                        <use xlink:href="#path-1"></use>
                    </mask>
                    <g id="Clip-43"></g>
                    <path d="M40.762,6.403 C40.762,6.403 33.394,4.255 23.119,8.391 C12.843,12.526 9.911,15.545 6.896,18.005 C3.88,20.466 0.062,24.414 0.062,24.414 C0.062,24.414 1.576,19.14 9.027,11.826 C16.479,4.512 23.497,2.257 27.082,1.354 C30.809,0.414 37.244,0.096 41.301,2.003 C43.303,2.944 44.134,4.233 43.859,5.25 C43.424,6.859 40.762,6.403 40.762,6.403" id="Fill-42" mask="url(#mask-2)"></path>
                </g>
                <g id="Group-47" transform="translate(210.000000, 178.000000)">
                    <mask id="mask-4" fill="white">
                        <use xlink:href="#path-3"></use>
                    </mask>
                    <g id="Clip-46"></g>
                    <path d="M42.595,7.835 C61.488,3.62 87.461,0.094 107.639,0.378 C130.021,0.694 135.675,1.941 140.63,4.926 C141.753,5.602 142.978,6.949 143.604,8.444 C144.827,11.363 144.523,15.095 142.015,17.234 C134.877,23.323 118.677,21.469 118.677,21.469 C119.125,21.497 137.149,20.509 131.033,11.263 C126.894,5.006 96.634,6.125 75.619,7.624 C36.386,10.423 4.161,21.919 0.892979651,27.142 C0.876,21.913 11.508,14.77 42.595,7.835" id="Fill-45" mask="url(#mask-4)"></path>
                </g>
                <g id="Group-50" transform="translate(237.000000, 79.000000)">
                    <mask id="mask-6" fill="white">
                        <use xlink:href="#path-5"></use>
                    </mask>
                    <g id="Clip-49"></g>
                    <path d="M0.471,43.563 C0.471,43.563 -0.559,37.037 9.446,28.072 C20.336,18.314 36.147,9.265 51.31,4.473 C66.473,-0.318 79.067,0.074 83,1.353 C86.932,2.631 88.524,3.707 88.8,7.411 C89.04,10.638 84.505,13.958 80.844,14.947 C78.714,15.523 74.671,16.041 72.775,16.184 C76.93,14.436 82.49,13.145 80.944,8.926 C79.473,4.912 70.379,5.646 60.54,7.2 C58.479,7.525 56.838,7.816 55.031,8.318 C47.009,10.142 38.438,14.197 38.438,14.197 C38.438,14.197 26.146,19.532 15.238,27.529 C7.828,32.963 4.123,36.722 1.378,41.691 C0.789,42.758 0.471,43.563 0.471,43.563" id="Fill-48" mask="url(#mask-6)"></path>
                </g>
                <g id="Group-53" transform="translate(246.000000, 65.000000)">
                    <mask id="mask-8" fill="white">
                        <use xlink:href="#path-7"></use>
                    </mask>
                    <g id="Clip-52"></g>
                    <path d="M31.5,7.625 C47.658,-1.181 65.897,-1.402 69.443,4.563 C70.579,6.472 69.061,9.462 67.488,10.811 C65.916,12.16 63.318,13.253 59.58,13.548 L59.584,13.541 C63.215,11.803 64.649,10.231 64.07,7.989 C63.213,4.675 56.305,4.046 48.288,5.961 C40.993,7.703 35.492,9.917 30.943,12.268 C15.442,20.281 3.836,29.764 0.916,36.627 C-0.183,29.231 13.552,17.407 31.5,7.625" id="Fill-51" mask="url(#mask-8)"></path>
                </g>
                <g id="Group-56" transform="translate(224.000000, 112.000000)">
                    <mask id="mask-10" fill="white">
                        <use xlink:href="#path-9"></use>
                    </mask>
                    <g id="Clip-55"></g>
                    <path d="M79.219,2.816 C101.214,-1.632 114.342,3.122 114.342,3.122 C114.342,3.122 121.156,5.442 119.493,10.556 C118.765,12.793 116.947,14.439 115.132,15.584 C112.984,16.938 110.517,17.733 107.979,18.077 C105.661,18.392 102.354,18.733 100.904,18.374 C100.904,18.374 100.958,18.313 101.041,18.216 C105.966,16.818 110.632,14.935 109.896,11.754 C108.85,7.237 100.833,6.23 85.633,7.414 C75.837,8.176 59.091,12.45 45.867,17.2 C39.112,19.627 33.758,21.564 27.139,24.85 C14.559,31.233 4.532,37.71 0.845,45.031 C-0.903,40.112 11.729,16.468 79.219,2.816" id="Fill-54" mask="url(#mask-10)"></path>
                </g>
                <g id="Group-59" transform="translate(219.000000, 133.000000)">
                    <mask id="mask-12" fill="white">
                        <use xlink:href="#path-11"></use>
                    </mask>
                    <g id="Clip-58"></g>
                    <path d="M88.633,1.769 C103.28,-0.682 117.844,0.717 123.84,2.688 C129.836,4.659 131.665,9.265 130.203,12.568 C129.29,14.634 127.302,16.091 124.041,17.429 C118.83,19.566 107.732,19.78 107.732,19.78 C107.732,19.78 107.802,19.715 107.919,19.6 C114.74,18.471 119.607,15.699 119.464,12.664 C119.287,8.938 114.392,7.088 105.115,7.132 C90.855,7.199 63.286,11.933 37.352,20.745 C20.727,26.394 2.897,35.531 0.53,41.688 C-1.226,31.051 31.843,11.27 88.633,1.769" id="Fill-57" mask="url(#mask-12)"></path>
                </g>
                <g id="Group-62" transform="translate(214.000000, 155.000000)">
                    <mask id="mask-14" fill="white">
                        <use xlink:href="#path-13"></use>
                    </mask>
                    <g id="Clip-61"></g>
                    <path d="M37.278,12.866 C52.516,8.104 65.35,3.827 96.14,1.373 C111.985,0.11 125.123,1.357 131.469,3.613 C137.815,5.869 140.139,9.715 138.938,14.581 C138.359,16.925 136.423,19.097 132.983,20.461 C127.453,22.654 122.261,22.466 118.008,22.292 C125.355,21.488 129.453,17.692 128.943,13.668 C128.475,9.962 120.427,7.364 110.496,6.959 C95.434,6.345 85.808,7.505 77.531,8.713 C36.007,14.775 3.266,29.858 0.802,35.556 C-1.603,25.938 30.375,15.639 37.278,12.866" id="Fill-60" mask="url(#mask-14)"></path>
                </g>
                <g id="Group-65" transform="translate(230.000000, 96.000000)">
                    <mask id="mask-16" fill="white">
                        <use xlink:href="#path-15"></use>
                    </mask>
                    <g id="Clip-64"></g>
                    <path d="M4.582,34.627 C8.272,29.671 19.834,20.605 36.339,12.842 C56.055,3.567 69.625,1.773 78.063,0.759 C89.155,-0.575 101.449,0.285 104.542,4.103 C107.636,7.921 104.308,11.301 101.435,13.221 C99.174,14.732 92.444,16.266 89.04,15.507 C93.839,14.293 96.471,11.946 96.298,9.677 C96.061,6.554 92.933,3.653 78.14,5.104 C60.958,6.616 42.6,14.636 42.6,14.636 C42.6,14.636 27.748,21.025 18.418,27.251 C9.087,33.477 3.755,38.792 2.42,40.737 C1.086,42.683 0.71,44.057 0.71,44.057 C0.71,44.057 0.459,40.163 4.582,34.627" id="Fill-63" mask="url(#mask-16)"></path>
                </g>
            </g>
        </g>
    </g>
</svg>