<?xml version="1.0" encoding="UTF-8"?>
<svg width="433px" height="424px" viewBox="0 0 433 424" version="1.1" xmlns="http://www.w3.org/2000/svg" xmlns:xlink="http://www.w3.org/1999/xlink">
    <!-- Generator: Sketch 50.2 (55047) - http://www.bohemiancoding.com/sketch -->
    <title>Group</title>
    <desc>Created with Sketch.</desc>
    <defs>
        <polyline id="path-1" points="56.266 257.39 42.757 250.071 42.757 48.516 14.05 74.201 14.05 225.217 0.118 203.762 0.118 65.271 76.739 0.953 153.363 65.059 153.363 205.942 139.854 223.673 139.854 73.373 111.78 49.067 111.78 250.586 97.004 257.152 97.004 37.504 77.41 21.014 56.266 40.004 56.266 257.39"></polyline>
        <linearGradient x1="50.0003263%" y1="-0.000155983731%" x2="50.0003263%" y2="99.999844%" id="linearGradient-3">
            <stop stop-color="#F2DFBD" offset="0%"></stop>
            <stop stop-color="#8A6354" offset="100%"></stop>
        </linearGradient>
    </defs>
    <g id="Page-1" stroke="none" stroke-width="1" fill="none" fill-rule="evenodd">
        <g id="luk" transform="translate(-121.000000, -85.000000)">
            <g id="Group" transform="translate(121.000000, 84.000000)">
                <g id="Group-3" transform="translate(139.000000, 0.000000)">
                    <mask id="mask-2" fill="white">
                        <use xlink:href="#path-1"></use>
                    </mask>
                    <g id="Clip-2"></g>
                    <polyline id="Fill-1" fill="url(#linearGradient-3)" mask="url(#mask-2)" points="56.266 257.39 42.757 250.071 42.757 48.516 14.05 74.201 14.05 225.217 0.118 203.762 0.118 65.271 76.739 0.953 153.363 65.059 153.363 205.942 139.854 223.673 139.854 73.373 111.78 49.067 111.78 250.586 97.004 257.152 97.004 37.504 77.41 21.014 56.266 40.004 56.266 257.39"></polyline>
                </g>
                <path d="M26.883,326.766 L18.991,326.766 L18.991,345.495 C18.991,348.563 18.905,351.257 18.737,353.582 C18.565,355.907 18.16,358.124 17.523,360.231 C16.886,362.339 15.854,364.058 14.426,365.383 C13.001,366.706 11.118,367.369 8.776,367.369 C7.282,367.369 5.9,366.979 4.624,366.198 C3.351,365.416 2.342,364.374 1.593,363.074 C0.848,361.771 0.475,360.39 0.475,358.926 C0.475,357.243 0.983,355.911 1.999,354.925 C3.018,353.942 4.143,353.45 5.379,353.45 C6.329,353.45 7.25,353.768 8.137,354.4 C9.027,355.034 9.472,356.056 9.472,357.471 C9.472,358.203 9.37,358.754 9.166,359.127 C8.961,359.496 8.658,359.843 8.255,360.166 C7.85,360.485 7.563,360.749 7.391,360.95 C7.223,361.155 7.137,361.495 7.137,361.97 C7.137,363.266 7.721,363.912 8.889,363.912 C10.224,363.912 11.247,363.203 11.949,361.781 C12.652,360.363 13.133,358.177 13.394,355.222 C13.654,352.27 13.786,348.177 13.786,342.942 L13.786,327.135 L9.927,327.135 L9.927,323.916 L37.925,323.916 L37.925,327.135 L34.014,327.135 L34.014,363.246 L37.925,363.246 L37.925,366.465 L22.972,366.465 L22.972,363.246 L26.883,363.246 L26.883,326.766" id="Fill-4" fill="#574336"></path>
                <path d="M61.88,347.2 L68.354,327.194 L64.617,327.194 L64.617,323.916 L76.886,323.916 L76.886,327.194 L74.033,327.194 L63.694,356.254 C62.945,358.371 62.117,360.248 61.213,361.881 C60.31,363.514 59.215,364.836 57.925,365.849 C56.639,366.864 55.135,367.369 53.414,367.369 C51.827,367.369 50.356,366.967 49.007,366.162 C47.658,365.354 46.593,364.266 45.811,362.896 C45.033,361.524 44.644,360.021 44.644,358.378 C44.644,356.884 45.056,355.667 45.877,354.733 C46.702,353.797 47.635,353.332 48.681,353.332 C49.802,353.332 50.805,353.754 51.685,354.599 C52.563,355.446 53.004,356.442 53.004,357.59 C53.004,358.768 52.694,359.822 52.078,360.753 C51.563,361.436 51.306,362.063 51.306,362.636 C51.306,363.031 51.478,363.385 51.82,363.691 C52.164,363.998 52.576,364.149 53.061,364.149 C54.231,364.149 55.241,363.395 56.091,361.881 C56.942,360.367 57.764,358.49 58.552,356.254 L45.287,327.194 L41.962,327.194 L41.962,323.916 L56.797,323.916 L56.797,327.194 L53.176,327.194 L61.88,347.2" id="Fill-5" fill="#574336"></path>
                <path d="M94.601,366.465 L79.766,366.465 L79.766,363.246 L83.618,363.246 L83.618,327.135 L79.766,327.135 L79.766,323.916 L94.601,323.916 L94.601,327.135 L90.692,327.135 L90.692,341.963 C92.309,341.963 93.516,341.653 94.311,341.036 C95.105,340.416 95.633,339.572 95.9,338.497 C96.167,337.425 96.395,335.743 96.586,333.457 C96.794,330.727 97.14,328.629 97.628,327.164 C98.113,325.7 98.895,324.642 99.973,323.981 C101.052,323.325 102.595,322.995 104.604,322.995 C107.209,322.995 109.056,323.688 110.145,325.073 C111.233,326.459 111.781,328.035 111.781,329.807 C111.781,331.241 111.378,332.319 110.58,333.042 C109.782,333.764 108.898,334.127 107.928,334.127 C106.949,334.127 106.098,333.784 105.382,333.101 C104.663,332.418 104.304,331.564 104.304,330.535 C104.304,330.001 104.347,329.568 104.433,329.242 C104.518,328.916 104.64,328.619 104.802,328.345 C104.963,328.074 105.069,327.854 105.118,327.686 L105.118,327.075 C104.993,326.749 104.723,326.587 104.304,326.587 C103.192,326.587 102.483,327.276 102.187,328.658 C101.886,330.037 101.698,332.161 101.623,335.03 C101.573,336.871 101.289,338.523 100.765,339.987 C100.244,341.452 99.023,342.537 97.114,343.239 C99.634,344.041 101.471,344.879 102.622,345.753 C103.77,346.63 104.614,348.012 105.145,349.901 C105.679,351.792 106.078,354.76 106.345,358.807 C106.448,360.113 106.794,361.178 107.384,362.006 C107.975,362.83 109.168,363.246 110.966,363.246 L110.966,366.465 C109.663,367.068 108.166,367.369 106.471,367.369 C104.673,367.369 103.242,367.013 102.17,366.304 C101.101,365.591 100.31,364.618 99.802,363.385 C99.294,362.154 98.964,360.971 98.813,359.839 C98.657,358.704 98.426,356.458 98.113,353.095 C97.619,347.86 95.554,345.241 91.919,345.241 C91.702,345.241 91.292,345.288 90.692,345.377 L90.692,363.246 L94.601,363.246 L94.601,366.465" id="Fill-6" fill="#574336"></path>
                <polyline id="Fill-7" fill="#574336" points="123.229 323.055 127.028 333.457 123.344 333.457 113.76 323.055 123.229 323.055"></polyline>
                <path d="M152.265,343.002 L152.265,327.016 C151.497,326.848 150.62,326.766 149.63,326.766 C146.619,326.766 144.703,327.59 143.875,329.242 C143.05,330.895 142.635,332.824 142.635,335.03 C142.635,340.463 145.069,343.18 149.93,343.18 C150.603,343.18 151.385,343.121 152.265,343.002 Z M159.343,327.135 L159.343,363.246 L163.265,363.246 L163.265,366.465 L148.351,366.465 L148.351,363.246 L152.265,363.246 L152.265,346.399 C151.487,346.32 150.959,346.28 150.686,346.28 C146.853,346.28 144.653,348.467 144.083,352.841 L143.156,360.262 C142.605,364.922 140.62,367.25 137.196,367.25 C134.917,367.25 133.143,366.989 131.879,366.465 L131.879,363.246 C133.086,363.246 133.977,363.074 134.548,362.731 C135.118,362.392 135.475,361.97 135.616,361.465 C135.761,360.961 135.88,360.172 135.973,359.104 L136.56,353.45 C136.797,351.204 137.463,349.381 138.565,347.979 C139.663,346.58 141.503,345.568 144.093,344.944 C141.685,344.173 139.907,343.503 138.756,342.937 C137.605,342.365 136.678,341.462 135.973,340.225 C135.27,338.988 134.917,337.237 134.917,334.971 C134.917,330.37 136.392,327.379 139.34,325.993 C142.289,324.608 145.181,323.916 148.014,323.916 L163.265,323.916 L163.265,327.135 L159.343,327.135 Z" id="Fill-8" fill="#574336"></path>
                <polyline id="Fill-9" fill="#574336" points="190.616 341.903 190.616 327.135 186.764 327.135 186.764 323.916 201.714 323.916 201.714 327.135 197.806 327.135 197.806 363.246 201.714 363.246 201.714 366.465 186.764 366.465 186.764 363.246 190.616 363.246 190.616 345.36 178.875 345.36 178.875 363.246 182.783 363.246 182.783 366.465 167.833 366.465 167.833 363.246 171.685 363.246 171.685 327.135 167.833 327.135 167.833 323.916 182.783 323.916 182.783 327.135 178.875 327.135 178.875 341.903 190.616 341.903"></polyline>
                <polyline id="Fill-10" fill="#574336" points="210.188 363.246 210.188 327.135 206.279 327.135 206.279 323.916 221.229 323.916 221.229 327.135 217.321 327.135 217.321 363.246 221.229 363.246 221.229 366.465 206.279 366.465 206.279 363.246 210.188 363.246"></polyline>
                <path d="M236.949,345.33 L236.949,363.068 C237.892,363.187 238.729,363.246 239.462,363.246 C241.447,363.246 242.981,362.89 244.056,362.178 C245.128,361.465 245.85,360.499 246.216,359.278 C246.583,358.058 246.767,356.567 246.767,354.806 C246.767,351.524 246.276,349.074 245.296,347.451 C244.316,345.832 242.529,345.021 239.933,345.021 C239.142,345.021 238.149,345.123 236.949,345.33 Z M236.949,326.824 L236.949,341.726 C237.997,341.973 238.871,342.095 239.574,342.095 C243.901,342.095 246.068,338.89 246.068,332.478 C246.068,330.331 245.398,328.813 244.063,327.923 C242.727,327.032 241.134,326.587 239.29,326.587 C238.584,326.587 237.806,326.666 236.949,326.824 Z M229.703,363.246 L229.703,327.135 L225.794,327.135 L225.794,323.916 L241.388,323.916 C243.535,323.916 245.527,324.278 247.357,325.008 C249.188,325.733 250.649,326.861 251.737,328.385 C252.826,329.908 253.37,331.805 253.37,334.07 C253.37,335.782 253.103,337.214 252.565,338.368 C252.028,339.522 251.196,340.482 250.068,341.247 C248.94,342.016 247.43,342.725 245.54,343.378 C248.344,343.773 250.593,345.008 252.288,347.082 C253.98,349.153 254.828,351.864 254.828,355.219 C254.828,358.483 254.069,360.947 252.559,362.616 C251.045,364.281 249.416,365.341 247.664,365.789 C245.913,366.241 244.33,366.465 242.915,366.465 L225.794,366.465 L225.794,363.246 L229.703,363.246 Z" id="Fill-11" fill="#574336"></path>
                <path d="M285.57,324.324 L285.57,337.643 L281.121,337.643 C280.824,334.335 280.184,331.644 279.201,329.565 C278.218,327.491 276.52,326.452 274.115,326.452 C272.136,326.452 270.675,327.264 269.729,328.886 C268.782,330.509 268.185,332.576 267.938,335.09 C267.69,337.603 267.565,340.865 267.565,344.872 C267.565,347.237 267.651,349.434 267.816,351.462 C267.981,353.49 268.32,355.399 268.828,357.19 C269.336,358.981 270.104,360.437 271.127,361.554 C272.149,362.672 273.459,363.229 275.055,363.229 C276.084,363.229 277.117,362.899 278.152,362.237 C279.188,361.574 280.091,360.394 280.863,358.694 C281.635,356.999 282.07,354.74 282.176,351.92 L287.199,351.92 C287.093,356.099 286.295,359.341 284.808,361.644 C283.32,363.945 281.658,365.476 279.828,366.234 C277.997,366.993 276.309,367.369 274.758,367.369 C273.436,367.369 271.988,367.174 270.421,366.785 C268.852,366.393 267.189,365.469 265.435,364.008 C263.68,362.55 262.202,360.265 261.005,357.151 C259.805,354.041 259.208,349.951 259.208,344.886 C259.208,340.888 259.613,337.465 260.435,334.608 C261.252,331.756 262.367,329.479 263.779,327.781 C265.19,326.086 266.78,324.862 268.551,324.117 C270.319,323.368 272.192,322.995 274.171,322.995 C276.483,322.995 278.799,323.965 281.121,325.908 L282.176,324.324 L285.57,324.324" id="Fill-12" fill="#574336"></path>
                <path d="M302.347,345.449 L302.347,363.187 C303.327,363.306 304.217,363.365 305.025,363.365 C307.496,363.365 309.3,362.722 310.438,361.436 C311.579,360.149 312.149,357.982 312.149,354.925 C312.149,352.712 311.945,350.901 311.542,349.499 C311.14,348.095 310.428,347.025 309.405,346.294 C308.386,345.564 306.961,345.198 305.141,345.198 C304.181,345.198 303.248,345.281 302.347,345.449 Z M302.347,327.135 L302.347,341.488 L306.144,341.488 C308.35,341.488 310.438,341.742 312.413,342.253 C314.386,342.762 316.121,343.938 317.621,345.782 C319.119,347.629 319.867,350.347 319.867,353.938 C319.867,357.64 319.082,360.416 317.512,362.267 C315.946,364.117 314.204,365.277 312.288,365.753 C310.372,366.228 308.383,366.465 306.322,366.465 L291.49,366.465 L291.49,363.246 L295.398,363.246 L295.398,327.135 L291.49,327.135 L291.49,323.916 L306.256,323.916 L306.256,327.135 L302.347,327.135 Z" id="Fill-13" fill="#574336"></path>
                <path d="M338.98,366.465 L324.145,366.465 L324.145,363.246 L327.997,363.246 L327.997,327.135 L324.145,327.135 L324.145,323.916 L338.98,323.916 L338.98,327.135 L335.072,327.135 L335.072,341.963 C336.688,341.963 337.895,341.653 338.689,341.036 C339.484,340.416 340.012,339.572 340.279,338.497 C340.546,337.425 340.774,335.743 340.965,333.457 C341.173,330.727 341.52,328.629 342.007,327.164 C342.492,325.7 343.274,324.642 344.353,323.981 C345.431,323.325 346.975,322.995 348.983,322.995 C351.589,322.995 353.436,323.688 354.524,325.073 C355.612,326.459 356.16,328.035 356.16,329.807 C356.16,331.241 355.757,332.319 354.959,333.042 C354.161,333.764 353.277,334.127 352.308,334.127 C351.328,334.127 350.477,333.784 349.762,333.101 C349.042,332.418 348.683,331.564 348.683,330.535 C348.683,330.001 348.726,329.568 348.812,329.242 C348.897,328.916 349.02,328.619 349.181,328.345 C349.343,328.074 349.448,327.854 349.498,327.686 L349.498,327.075 C349.372,326.749 349.102,326.587 348.683,326.587 C347.571,326.587 346.862,327.276 346.565,328.658 C346.266,330.037 346.078,332.161 346.001,335.03 C345.952,336.871 345.668,338.523 345.144,339.987 C344.623,341.452 343.403,342.537 341.493,343.239 C344.013,344.041 345.85,344.879 347.001,345.753 C348.149,346.63 348.993,348.012 349.524,349.901 C350.058,351.792 350.458,354.76 350.725,358.807 C350.827,360.113 351.173,361.178 351.764,362.006 C352.354,362.83 353.548,363.246 355.345,363.246 L355.345,366.465 C354.042,367.068 352.545,367.369 350.85,367.369 C349.052,367.369 347.621,367.013 346.549,366.304 C345.48,365.591 344.689,364.618 344.181,363.385 C343.673,362.154 343.343,360.971 343.191,359.839 C343.037,358.704 342.806,356.458 342.492,353.095 C341.998,347.86 339.933,345.241 336.298,345.241 C336.081,345.241 335.672,345.288 335.072,345.377 L335.072,363.246 L338.98,363.246 L338.98,366.465" id="Fill-14" fill="#574336"></path>
                <polyline id="Fill-15" fill="#574336" points="371.124 350.971 383.092 329.377 383.092 327.135 379.184 327.135 379.184 323.916 394.079 323.916 394.079 327.135 390.17 327.135 390.17 363.246 394.079 363.246 394.079 366.465 379.184 366.465 379.184 363.246 383.092 363.246 383.092 338.134 371.124 359.477 371.124 363.246 375.032 363.246 375.032 366.465 360.197 366.465 360.197 363.246 364.105 363.246 364.105 327.135 360.197 327.135 360.197 323.916 375.032 323.916 375.032 327.135 371.124 327.135 371.124 350.971"></polyline>
                <path d="M415.876,321.91 C412.251,321.91 409.458,321.68 407.489,321.215 C405.52,320.749 404.534,319.826 404.534,318.44 C404.534,317.551 404.88,316.769 405.569,316.103 C406.259,315.433 407.36,315.1 408.871,315.1 C409.774,315.1 410.563,315.311 411.232,315.729 C411.902,316.152 412.301,316.61 412.423,317.105 L412.423,318.811 C412.604,319.177 413.755,319.361 415.876,319.361 C418.056,319.361 419.224,319.177 419.385,318.811 L419.385,317.105 C419.521,316.63 419.893,316.175 420.507,315.746 C421.12,315.314 421.935,315.1 422.954,315.1 C424.455,315.1 425.553,315.433 426.242,316.096 C426.932,316.759 427.274,317.54 427.274,318.44 C427.274,319.826 426.288,320.749 424.316,321.215 C422.34,321.68 419.53,321.91 415.876,321.91 Z M409.57,350.971 L421.539,329.377 L421.539,327.135 L417.631,327.135 L417.631,323.916 L432.525,323.916 L432.525,327.135 L428.617,327.135 L428.617,363.246 L432.525,363.246 L432.525,366.465 L417.631,366.465 L417.631,363.246 L421.539,363.246 L421.539,338.134 L409.57,359.477 L409.57,363.246 L413.479,363.246 L413.479,366.465 L398.643,366.465 L398.643,363.246 L402.552,363.246 L402.552,327.135 L398.643,327.135 L398.643,323.916 L413.479,323.916 L413.479,327.135 L409.57,327.135 L409.57,350.971 Z" id="Fill-16" fill="#574336"></path>
                <polyline id="Fill-17" fill="#887969" points="147.615 391.316 147.615 404.529 157.509 391.316 162.255 391.316 151.777 404.872 162.035 418.655 157.035 418.655 147.615 405.212 147.615 418.655 143.674 418.655 143.674 391.316 147.615 391.316"></polyline>
                <path d="M175.798,396.745 L172.074,406.92 L179.449,406.92 L175.798,396.745 Z M183.756,418.655 L180.87,410.795 L170.649,410.795 L167.803,418.655 L163.641,418.655 L173.898,391.316 L177.658,391.316 L187.915,418.655 L183.756,418.655 Z" id="Fill-18" fill="#887969"></path>
                <path d="M210.692,411.706 L215.511,411.706 C213.172,416.692 209.244,419.186 203.72,419.186 C199.97,419.186 196.807,417.774 194.228,414.951 C191.648,412.131 190.359,408.757 190.359,404.832 C190.359,401.01 191.678,397.715 194.32,394.941 C196.958,392.171 200.118,390.782 203.792,390.782 C206.444,390.782 208.792,391.448 210.837,392.777 C212.882,394.106 214.438,396.01 215.511,398.493 L210.91,398.493 C209.208,396.063 206.81,394.846 203.72,394.846 C201.187,394.846 199.003,395.852 197.167,397.866 C195.329,399.879 194.412,402.2 194.412,404.832 C194.412,407.593 195.299,409.984 197.074,412.009 C198.901,414.11 201.114,415.162 203.72,415.162 C206.784,415.162 209.109,414.011 210.692,411.706" id="Fill-19" fill="#887969"></path>
                <polyline id="Fill-20" fill="#887969" points="225.692 391.316 225.692 404.529 235.586 391.316 240.333 391.316 229.854 404.872 240.111 418.655 235.111 418.655 225.692 405.212 225.692 418.655 221.75 418.655 221.75 391.316 225.692 391.316"></polyline>
                <path d="M253.875,396.745 L250.151,406.92 L257.525,406.92 L253.875,396.745 Z M261.833,418.655 L258.947,410.795 L248.726,410.795 L245.88,418.655 L241.718,418.655 L251.975,391.316 L255.735,391.316 L265.992,418.655 L261.833,418.655 Z" id="Fill-21" fill="#887969"></path>
                <path d="M286.905,414.783 L281.104,396.897 L275.299,414.783 L286.905,414.783 Z M279.204,391.316 L283,391.316 L290.777,414.783 L292.747,414.783 L292.747,424.047 L288.95,424.047 L288.95,418.655 L273.291,418.655 L273.291,424.047 L269.495,424.047 L269.495,414.783 L271.431,414.783 L279.204,391.316 Z" id="Fill-22" fill="#887969"></path>
                <polyline id="Fill-23" fill="#887969" points="305.18 407.545 305.18 410.683 350.14 409.372 350.14 408.613 305.18 407.545"></polyline>
                <polyline id="Fill-24" fill="#887969" points="128.525 407.545 128.525 410.683 83.564 409.372 83.564 408.613 128.525 407.545"></polyline>
                <path d="M317.219,98.215 L316.718,97.515 L309.916,97.515 L311.877,100.182 C326.755,120.421 334.619,144.383 334.619,169.476 C334.619,234.141 282.012,286.749 217.349,286.749 C152.686,286.749 100.078,234.141 100.078,169.476 C100.078,144.383 107.941,120.421 122.819,100.182 L124.78,97.515 L117.979,97.515 L117.478,98.215 C102.5,119.144 94.584,143.785 94.584,169.476 C94.584,237.169 149.656,292.242 217.349,292.242 C285.042,292.242 340.113,237.169 340.113,169.476 C340.113,143.786 332.197,119.145 317.219,98.215" id="Fill-25" fill="#845F54"></path>
                <path d="M317.219,98.215 L317.791,97.805 L317.29,97.105 L317.079,96.811 L308.525,96.811 L311.31,100.599 C326.1,120.72 333.914,144.53 333.915,169.476 C333.914,201.615 320.843,230.754 299.735,251.864 C278.625,272.973 249.487,286.045 217.349,286.045 C185.21,286.045 156.072,272.973 134.962,251.864 C113.853,230.754 100.782,201.615 100.781,169.476 C100.782,144.53 108.596,120.72 123.386,100.598 L126.171,96.811 L117.618,96.811 L116.906,97.805 C101.844,118.851 93.879,143.64 93.88,169.476 C93.881,237.559 149.266,292.945 217.349,292.946 C285.432,292.945 340.816,237.559 340.817,169.476 C340.818,143.641 332.854,118.852 317.792,97.805 L317.219,98.215 L316.647,98.624 C331.54,119.437 339.409,143.931 339.409,169.476 C339.409,203.129 325.722,233.641 303.618,255.746 C281.513,277.85 251.002,291.538 217.349,291.538 C183.695,291.538 153.184,277.85 131.079,255.746 C108.975,233.641 95.288,203.129 95.288,169.476 C95.288,143.93 103.157,119.436 118.05,98.624 L118.341,98.218 L123.389,98.218 L122.252,99.765 C107.287,120.122 99.373,144.235 99.374,169.476 C99.375,234.531 152.295,287.451 217.349,287.453 C282.402,287.451 335.321,234.531 335.322,169.476 C335.323,144.235 327.41,120.122 312.444,99.765 L311.307,98.218 L316.356,98.218 L316.647,98.625 L317.219,98.215" id="Fill-26" fill="#8A6354"></path>
            </g>
        </g>
    </g>
</svg>