<?xml version="1.0" encoding="UTF-8"?> <svg xmlns="http://www.w3.org/2000/svg" width="905" height="921" viewBox="0 0 905 921" fill="none"> <path d="M719.809 465.353C719.809 574.412 656.405 668.659 564.448 713.252C562.849 714.033 561.234 714.793 559.604 715.533C537.586 725.696 514.311 732.878 490.394 736.888C481.842 738.324 473.161 739.36 464.349 739.996C457.778 740.469 451.148 740.705 444.456 740.705C428.159 740.714 411.892 739.282 395.847 736.425C370.138 731.848 345.218 723.609 321.847 711.961C231.308 666.869 169.104 573.367 169.104 465.353C169.104 350.977 238.841 252.886 338.123 211.292C342.53 209.438 346.998 207.703 351.527 206.085C352.136 205.858 352.745 205.649 353.353 205.431C354.099 205.167 354.844 204.913 355.589 204.658C367.605 200.563 379.89 197.308 392.357 194.916H392.366C393.021 194.798 393.675 194.671 394.329 194.553C398.273 193.826 402.25 193.184 406.261 192.626C407.67 192.435 409.078 192.245 410.496 192.081C412.695 191.799 414.903 191.563 417.121 191.336C426.108 190.454 435.22 190.009 444.456 190C449.99 190 455.485 190.161 460.941 190.482C464.83 190.718 468.696 191.027 472.537 191.409H472.546C477.135 191.881 481.685 192.46 486.195 193.144C486.513 193.19 486.831 193.244 487.14 193.29C497.352 194.875 507.464 197.041 517.429 199.778C634.086 231.757 719.809 338.545 719.809 465.353Z" fill="#FFD037"></path> <path d="M447.206 0L447.206 0C429.972 0 416 13.9716 416 31.2064V94.6178C416 111.853 429.972 125.824 447.206 125.824H447.206C464.441 125.824 478.413 111.853 478.413 94.6178V31.2064C478.413 13.9716 464.441 0 447.206 0Z" fill="#FFD037"></path> <path d="M815.148 203.787C830.073 195.169 835.187 176.084 826.57 161.158C817.953 146.232 798.867 141.118 783.941 149.736L729.025 181.441C714.1 190.059 708.986 209.144 717.603 224.07C726.22 238.996 745.306 244.11 760.232 235.493L815.148 203.787Z" fill="#FFD037"></path> <path d="M873.325 496.413C890.56 496.413 904.531 482.441 904.531 465.206C904.531 447.972 890.56 434 873.325 434L809.913 434C792.679 434 778.707 447.972 778.707 465.206C778.707 482.441 792.679 496.413 809.913 496.413L873.325 496.413Z" fill="#FFD037"></path> <path d="M756.905 785.066C769.092 797.253 788.85 797.253 801.037 785.066C813.224 772.879 813.224 753.121 801.037 740.934L756.199 696.095C744.012 683.908 724.253 683.908 712.066 696.095C699.879 708.282 699.879 728.041 712.066 740.228L756.905 785.066Z" fill="#FFD037"></path> <path d="M424.103 889.618C424.103 906.853 438.074 920.824 455.309 920.824C472.544 920.824 486.516 906.853 486.516 889.618L486.516 826.206C486.516 808.972 472.544 795 455.309 795C438.074 795 424.103 808.972 424.103 826.206L424.103 889.618Z" fill="#FFD037"></path> <path d="M98.0665 740.905C85.8797 753.092 85.8797 772.851 98.0666 785.038C110.253 797.224 130.012 797.224 142.199 785.038L187.038 740.199C199.225 728.012 199.225 708.253 187.038 696.066C174.851 683.879 155.092 683.879 142.905 696.066L98.0665 740.905Z" fill="#FFD037"></path> <path d="M94.6178 496.413C111.853 496.413 125.824 482.441 125.824 465.206C125.824 447.972 111.853 434 94.6178 434L31.2064 434C13.9716 434 -2.34989e-05 447.972 -2.42523e-05 465.206C-2.50056e-05 482.441 13.9716 496.413 31.2064 496.413L94.6178 496.413Z" fill="#FFD037"></path> <path d="M117.232 154.603C102.306 145.986 83.2206 151.1 74.6032 166.026C65.9858 180.951 71.0997 200.037 86.0255 208.654L140.941 240.36C155.867 248.977 174.953 243.863 183.57 228.938C192.188 214.012 187.074 194.926 172.148 186.309L117.232 154.603Z" fill="#FFD037"></path> </svg> 