<?xml version="1.0" encoding="UTF-8"?> <svg xmlns="http://www.w3.org/2000/svg" width="43" height="54" viewBox="0 0 43 54" fill="none"> <path d="M34.9781 33.1033L34.8538 33.2027C35.2517 32.8297 35.6744 32.4319 36.0971 32.034C35.003 32.7054 33.7348 33.4762 33.5359 34.6698C33.1878 34.4709 32.1931 35.1423 32.2429 35.2417C32.0937 35.4655 31.9693 35.6644 31.7953 35.8882C31.8947 35.739 32.0191 35.6147 32.1185 35.4655C32.0191 35.6147 31.8947 35.739 31.7953 35.8882C31.298 36.5348 30.6763 37.1315 30.0049 37.6786C29.3335 38.2256 28.5876 38.7478 27.8416 39.2949C27.4189 39.5933 26.6729 40.1403 25.902 40.7122C25.1312 41.2842 24.3603 41.8063 23.9128 42.0799C23.7884 42.1545 23.6641 42.2539 23.5398 42.3285C23.7636 42.2042 23.7636 42.2042 23.9874 42.0799C23.5398 42.5523 23.1668 42.975 22.7441 43.3729C22.8435 43.348 22.8933 43.3978 23.1419 43.2983L22.8933 43.4475C22.7938 43.721 22.2965 44.094 22.1224 44.293C22.1224 44.1935 21.9235 44.3178 21.7743 44.4173L21.8737 44.4173C21.5754 44.6162 21.2521 44.8649 20.9537 45.1135C20.6553 45.3622 20.3321 45.586 20.0834 45.7849C20.0088 45.8346 19.9342 45.8595 19.8845 45.8595L19.412 46.2822C19.3872 46.1579 18.9396 46.506 19.1385 46.2822C18.8401 46.6552 18.3925 46.879 18.0941 47.252C17.4227 47.7244 16.7513 48.2218 16.1048 48.7439C15.4334 49.2661 14.7621 49.7883 14.1156 50.3354L14.1653 50.3354C13.7177 50.7332 13.4193 51.2057 12.7728 51.529C12.4247 51.9268 11.8528 52.3993 11.8279 52.6976C11.3554 53.0458 11.2062 53.2696 10.7586 53.6426C10.9576 53.6674 10.3608 54.0653 10.6592 53.9907C11.057 53.9161 11.0073 53.7917 11.3554 53.7171L11.3306 53.6923C12.6982 52.996 14.041 52.2501 15.3589 51.4295C15.7567 51.1062 16.2043 50.783 16.6519 50.4846C17.0995 50.1862 17.5471 49.8629 17.9947 49.5645C18.4671 49.2164 18.9396 48.8434 19.3871 48.4953C19.8347 48.1223 20.2575 47.7742 20.6304 47.4261C20.8045 47.252 21.0034 47.2271 21.2024 47.1525C21.9235 46.5806 22.8684 45.9092 23.6641 45.2378C23.6392 45.2378 23.6392 45.2627 23.6144 45.2627C24.0371 44.9146 24.4349 44.7654 24.8577 44.4173C24.8328 44.3924 24.9074 44.3427 24.9323 44.293C25.1063 44.3676 27.2199 42.1296 27.4189 42.055C27.4686 42.0053 27.4935 41.9804 27.5432 41.9307C28.0156 41.6074 28.513 41.309 28.9854 41.0355C29.4579 40.7371 29.9055 40.4387 30.2785 40.1403C30.4028 39.9414 30.5271 39.7425 30.6266 39.5684C30.8006 39.5187 30.7509 39.3943 30.925 39.27C31.5218 39.1705 31.6709 38.8473 31.3974 38.9468C31.6958 38.6235 32.0439 38.3748 32.3175 38.1013C32.4418 37.977 32.5413 37.8278 32.6656 37.7035C32.7651 37.5791 32.8645 37.5542 32.964 37.5542C33.2375 37.2559 33.1878 37.4051 33.511 37.1315C33.6602 37.1315 34.1575 36.311 34.257 36.2612L34.2073 36.3109C34.5554 36.0126 34.9533 35.938 35.2765 35.6396C35.7738 35.2169 36.2463 34.7444 36.7187 34.2968C37.1912 33.8244 37.6388 33.3519 38.0615 32.9292C37.9869 32.8546 37.8874 33.1281 37.788 33.0535C38.3102 32.5562 38.8821 32.1086 39.3794 31.6113C39.4789 31.5367 39.6281 31.4621 39.7027 31.4372C39.8767 31.288 39.7524 31.288 39.8767 31.1886L39.9762 31.2383C40.0757 30.9896 40.2995 31.0394 40.4238 30.8404C40.3989 30.8156 40.4487 30.741 40.4984 30.6664C40.573 30.741 40.6476 30.4674 40.7222 30.542C40.747 30.5172 40.7719 30.4674 40.8216 30.4426C40.8714 30.3431 41.1946 29.4728 41.1946 29.3734L41.2444 29.3485C41.319 29.249 41.2941 29.1495 41.2444 29.1993L41.3438 29.0749L41.3438 29.0998L41.4433 28.9755C41.4682 28.9506 41.5179 28.9506 41.5428 29.0252C41.5676 28.9258 41.6174 28.8263 41.6919 28.7766C41.493 28.9506 41.2195 29.1247 40.9708 29.2739C41.0206 29.1744 41.1698 29.0501 41.2444 28.9506C41.3936 28.876 41.6174 28.702 41.7914 28.5279C41.8163 28.4782 41.7417 28.3787 41.8411 28.329C41.9406 28.329 41.9157 28.2295 42.0152 28.1798C41.9903 28.3041 41.9157 28.3787 41.8411 28.4533C41.9406 28.503 42.0401 28.2792 42.1147 28.2046C42.1147 28.1549 42.2639 28.0057 42.3136 27.8814C42.3633 27.9809 42.4131 27.8317 42.5125 27.7819C42.5623 27.7073 42.5871 27.6327 42.5374 27.6576C42.4628 27.583 42.2887 27.9311 42.2639 27.7571C42.3136 27.7571 42.4131 27.6079 42.4628 27.5333C42.4131 27.5084 42.3882 27.5581 42.3882 27.4835C42.4628 27.4089 42.4628 27.2846 42.5623 27.2597C42.5623 27.2846 42.5374 27.3095 42.5125 27.3343C42.5871 27.21 42.3882 28.1549 42.4628 27.9808C42.3882 27.9808 42.6369 27.1354 42.5871 27.21C42.5125 27.2597 42.5374 27.1105 42.4628 27.1603L42.4628 27.2846C42.3882 27.3592 42.2639 27.3592 42.2639 27.3095C42.3882 27.1603 42.2639 27.9808 42.3136 27.8068L42.2639 27.8565C42.2639 27.7819 42.3633 27.6078 42.4628 27.583C42.4131 27.5581 42.4628 27.4587 42.4877 27.3841L42.5125 27.3592C42.5374 27.2846 42.612 27.1851 42.5125 27.1851C42.239 27.583 42.239 26.6132 41.9406 26.9862C42.1644 26.8867 42.0152 27.1105 41.8909 27.2846C41.8411 27.2846 41.7417 27.3095 41.6422 27.4089C41.5676 27.5084 41.6422 27.4835 41.6422 27.5333C41.5676 27.583 41.493 27.6825 41.4433 27.6327C41.4433 27.7571 41.319 27.7322 41.2692 27.8565C41.2444 27.956 41.2941 27.8814 41.2941 27.956C41.1946 28.0803 41.0454 28.2544 40.9708 28.329C40.8962 28.329 40.7222 28.3787 40.7222 28.2295C40.8714 28.0554 40.7968 28.4036 40.9211 28.1798C40.747 28.1798 41.0206 27.9809 40.9708 27.8814C40.8714 27.9063 40.7719 28.0306 40.6973 28.1549L40.7222 28.1549C40.6724 28.2544 40.5481 28.4533 40.3989 28.503C40.374 28.4533 40.3243 28.4782 40.3492 28.4036L40.2497 28.5279C40.2497 28.5528 40.2497 28.5776 40.2746 28.5528C40.2497 28.6274 40.2 28.6771 40.1254 28.702C40.0757 28.6771 39.7773 29.4977 39.7524 29.4728C39.6778 29.5723 39.6032 29.5225 39.5783 29.6469C39.5783 29.6717 39.7275 29.4231 39.8767 29.1993C40.0011 28.9755 40.1005 28.7517 40.0757 28.8014C40.0259 28.8263 39.8767 29.1247 39.7027 29.3982C39.5286 29.6717 39.3794 29.9701 39.3048 29.9453C39.2551 30.0199 39.2054 30.0945 39.2551 30.1193C39.1308 30.2188 39.2053 30.0199 39.1059 30.0696C39.1059 30.0696 39.1307 30.0696 39.1059 30.0944L38.9815 30.1193C38.907 30.3431 38.6086 30.5172 38.534 30.7658C38.534 30.6664 38.5091 30.5669 38.5837 30.4177L38.6334 30.4177C38.6334 30.3928 38.708 30.2934 38.6583 30.2437C38.534 30.3183 38.4594 30.4177 38.4096 30.5669C38.3848 30.5669 38.3599 30.5918 38.335 30.5918C38.335 30.5918 38.335 30.5918 38.3599 30.5918C38.3102 30.6166 38.3102 30.5918 38.3102 30.5669C38.3102 30.5669 38.3102 30.5669 38.3102 30.542C38.1361 30.5172 38.0118 31.0145 37.7631 31.1637C37.7383 31.2383 37.788 31.1886 37.7382 31.288C37.5145 31.4372 37.3653 31.5367 37.1415 31.7356C37.1166 31.8351 37.1415 31.8599 37.2658 31.8351L37.0917 31.9843C37.0917 31.7356 36.6939 32.1583 36.7187 31.8848C36.6442 31.9097 36.5447 31.9843 36.4949 32.0837C36.5198 32.1335 36.5447 32.1832 36.4452 32.2827C36.2712 32.3821 36.3209 32.3572 36.1468 32.4567C36.0722 32.4567 36.0971 32.3821 36.0722 32.3573C35.9479 32.6059 35.8236 32.4319 35.6495 32.6308C35.5501 32.7551 35.3511 32.9789 35.4009 33.0535C35.0527 33.2276 35.003 33.1779 34.9781 33.1033Z" fill="black"></path> <path d="M31.0735 20.9438L30.8994 20.919C31.4216 20.919 31.9935 20.9687 32.5406 21.0184C31.347 20.6454 29.9297 20.3222 28.9848 20.9936C28.9102 20.6206 27.7414 20.3719 27.7166 20.4714C27.4679 20.5211 27.2193 20.5708 26.9706 20.6206C27.1447 20.5957 27.3187 20.5709 27.4928 20.546C27.3187 20.5709 27.1447 20.5957 26.9706 20.6206C25.3792 20.8444 23.6883 20.6455 21.898 20.4217C20.9282 20.2973 18.2426 20.1233 17.2231 19.9741C17.0739 19.9492 16.9248 19.9492 16.7756 19.9243C17.0242 19.9741 17.0242 19.9741 17.2729 19.9989C16.6512 20.0735 16.0793 20.173 15.5571 20.2227C15.6566 20.2725 15.6566 20.3222 15.8804 20.4217L15.6069 20.3719C15.3582 20.5211 14.7614 20.4962 14.4879 20.5708C14.5376 20.4962 14.3387 20.4714 14.1398 20.4465L14.2144 20.4962C13.4932 20.4465 12.6727 20.4962 12.0262 20.4714C11.9267 20.4714 11.877 20.4465 11.8272 20.4217L11.2056 20.4714C11.2553 20.3719 10.6834 20.3719 10.9818 20.2973C10.5093 20.4217 10.0617 20.347 9.61416 20.4714C8.0476 20.4962 6.35672 20.5709 4.74043 20.7946L4.79015 20.8444C4.21824 20.919 3.72092 21.1427 3.02467 21.093C2.52735 21.2671 1.83111 21.3665 1.65705 21.5903C1.08513 21.6401 0.861329 21.7644 0.314277 21.839C0.463473 21.9385 -0.207908 21.9882 0.0656175 22.0876C0.438607 22.2368 0.463485 22.0876 0.761877 22.212L0.761877 22.1623C1.48299 22.212 2.22897 22.2617 2.95008 22.2866C3.67119 22.3114 4.41716 22.3363 5.16314 22.3612C5.66046 22.3114 6.15779 22.2866 6.67998 22.2866C7.20216 22.2866 7.72435 22.3114 8.22167 22.2866C9.31577 22.2369 10.5093 22.1622 11.4791 22.0876C11.7029 22.0628 11.877 22.1622 12.051 22.212C12.9213 22.1622 14.0403 22.2368 15.0101 22.1871C14.9852 22.1871 14.9852 22.1871 14.9603 22.1871C15.4825 22.1871 15.8804 22.3114 16.3777 22.3114C16.3777 22.2866 16.4523 22.2866 16.502 22.2617C16.5766 22.4109 19.5108 22.0379 19.6849 22.1374C19.7346 22.1374 19.7843 22.1374 19.8589 22.1374C20.9282 22.2368 22.0471 22.585 22.9672 22.6098C23.1661 22.5352 23.3899 22.4855 23.564 22.4109C23.7132 22.4855 23.7629 22.3612 23.9618 22.386C24.4591 22.7093 24.7575 22.6098 24.484 22.4855C24.9067 22.4606 25.3046 22.5104 25.6776 22.5104C25.8516 22.4855 26.0257 22.4855 26.1998 22.4606C26.349 22.4358 26.4236 22.4855 26.4982 22.5601C26.8711 22.5352 26.7717 22.6098 27.1447 22.6596C27.2441 22.759 28.1393 22.5352 28.2388 22.5601L28.1642 22.585C28.6118 22.6347 28.9102 22.8336 29.3577 22.8585C30.5762 22.9828 31.9438 22.9331 33.0876 23.0077C33.1125 22.9082 32.839 23.0325 32.8141 22.8833C33.4855 22.9082 34.1817 23.0574 34.8531 23.0823C34.9775 23.1071 35.1266 23.1569 35.1764 23.2066C35.4002 23.2563 35.3007 23.1569 35.4748 23.1569L35.4996 23.2563C35.7234 23.1817 35.8478 23.3558 36.0716 23.3061C36.0716 23.2563 36.171 23.2563 36.2456 23.2563C36.2456 23.3558 36.4943 23.2563 36.4694 23.3309C36.5191 23.3309 36.544 23.3309 36.6186 23.3309C36.7181 23.3061 37.5635 22.958 37.6381 22.9082L37.6878 22.9331C37.8122 22.9331 37.8619 22.8336 37.7873 22.8336L37.9365 22.8336L37.9116 22.8336L38.0608 22.8336C38.0857 22.8336 38.1354 22.8834 38.0857 22.9331C38.1603 22.8834 38.2598 22.8585 38.3592 22.8833C38.1106 22.8336 37.7873 22.759 37.5386 22.6596C37.6381 22.6098 37.837 22.6596 37.9365 22.6596C38.0857 22.7093 38.3592 22.7839 38.583 22.8088C38.6327 22.8088 38.6576 22.6844 38.7571 22.7093C38.8068 22.7839 38.8814 22.6844 38.9809 22.7342C38.8814 22.7839 38.7819 22.7839 38.6576 22.7839C38.6825 22.8834 38.9311 22.8336 39.0057 22.8336C39.0306 22.8088 39.2544 22.8088 39.3787 22.7839C39.329 22.8834 39.4782 22.8336 39.5777 22.8833C39.6771 22.8833 39.7269 22.8336 39.6771 22.8088C39.702 22.7093 39.329 22.7839 39.4285 22.6596C39.4533 22.7093 39.6274 22.6844 39.7268 22.6596C39.7268 22.6098 39.6523 22.6347 39.702 22.5601C39.8014 22.5601 39.9009 22.4855 39.9755 22.5352C39.9506 22.5601 39.9258 22.5352 39.876 22.5601C40.0004 22.5601 39.2047 22.9828 39.3539 22.9331C39.3041 22.8834 40.075 22.5352 39.9755 22.5352C39.9009 22.5104 40.0252 22.4358 39.9258 22.4109L39.8512 22.4855C39.7268 22.4855 39.6771 22.386 39.702 22.3363C39.9009 22.3363 39.2047 22.759 39.3539 22.6844L39.2793 22.6596C39.3539 22.6098 39.5279 22.5601 39.6025 22.6098C39.6025 22.5601 39.6771 22.5352 39.7517 22.5104L39.7766 22.5104C39.8512 22.4855 39.9755 22.4855 39.9009 22.4109C39.4285 22.4606 40.1247 21.839 39.6771 21.839C39.8761 21.9385 39.6274 21.9633 39.4285 22.013C39.4036 21.9633 39.3041 21.9136 39.1798 21.9136C39.0555 21.9385 39.1052 21.9633 39.0803 21.9882C39.0057 21.9633 38.8814 21.9633 38.8814 21.8887C38.7819 21.9633 38.7322 21.8638 38.6079 21.8887C38.5084 21.9384 38.6079 21.9136 38.5582 21.9633C38.409 21.9633 38.1852 21.9882 38.0857 21.9633C38.036 21.9136 37.8868 21.8141 37.9862 21.7147C38.21 21.7147 37.9116 21.8639 38.1354 21.839C38.036 21.7147 38.3344 21.7893 38.3841 21.6898C38.3095 21.6401 38.1603 21.6401 38.036 21.6649L38.0608 21.6898C37.9614 21.7147 37.7376 21.7644 37.6132 21.6898C37.6381 21.6401 37.5884 21.6152 37.663 21.5903L37.5138 21.5903C37.4889 21.6152 37.4641 21.6152 37.5138 21.6401C37.4392 21.6898 37.3646 21.6649 37.3149 21.6401C37.29 21.5903 36.4943 21.8887 36.5191 21.8639C36.4197 21.8639 36.3699 21.7893 36.2705 21.839C36.2705 21.8639 36.5191 21.8141 36.7678 21.7644C37.0165 21.7147 37.2403 21.6401 37.1657 21.6649C37.1159 21.6401 36.8175 21.7147 36.4943 21.7893C36.1959 21.8639 35.8726 21.9136 35.8478 21.8639C35.7732 21.8639 35.6737 21.8887 35.6737 21.9385C35.5245 21.9136 35.7234 21.839 35.624 21.7893C35.624 21.7893 35.624 21.8141 35.5991 21.8141L35.4996 21.7395C35.2758 21.8141 34.9775 21.7147 34.7288 21.839C34.8034 21.7893 34.878 21.6898 35.0023 21.6401L35.0272 21.6649C35.0521 21.6401 35.1764 21.6401 35.1515 21.5655C35.0023 21.5406 34.9028 21.5406 34.7537 21.5903C34.7288 21.5655 34.7039 21.5655 34.6791 21.5406L34.6791 21.5655C34.6293 21.5406 34.6293 21.5157 34.6542 21.5157C34.5796 21.3665 34.1071 21.6152 33.8585 21.5157C33.7839 21.5406 33.8585 21.5406 33.759 21.5655C33.5104 21.5157 33.3114 21.466 33.0628 21.4163C32.9633 21.4909 32.9633 21.5157 33.0628 21.5655L32.8638 21.5406C33.0628 21.3666 32.4908 21.3665 32.6898 21.1925C32.64 21.1428 32.5157 21.1428 32.3914 21.1676C32.3914 21.2174 32.3665 21.2919 32.2173 21.2671C32.0184 21.1925 32.0681 21.2174 31.8941 21.1676C31.8443 21.1179 31.9189 21.093 31.9189 21.0433C31.6703 21.1179 31.6951 20.919 31.4465 20.919C31.2973 20.9438 30.9989 20.9438 30.9989 21.0184C31.0486 21.093 31.0486 21.0184 31.0735 20.9438Z" fill="black"></path> <path d="M29.9297 8.08813L29.8302 8.01355C30.1783 8.16274 30.5265 8.38652 30.8497 8.58545C30.2281 7.91407 29.4821 7.19297 28.562 7.51623C28.6864 7.14324 28.015 6.59618 27.9652 6.67078C27.7912 6.64591 27.5923 6.62104 27.4182 6.57131C27.5425 6.59618 27.6669 6.64591 27.7912 6.67078C27.6669 6.64591 27.5425 6.62104 27.4182 6.57131C26.2744 6.29778 25.2549 5.60155 24.1608 4.9053C23.564 4.50745 21.8482 3.5874 21.2514 3.18955C21.152 3.13981 21.0774 3.06523 20.9779 3.0155C21.1271 3.11496 21.1271 3.11494 21.2763 3.23927C20.8287 3.1398 20.4309 3.06521 20.033 2.96575C20.0827 3.04034 20.0579 3.09007 20.1822 3.23927L20.0081 3.11494C19.7843 3.18953 19.4114 2.99061 19.1876 2.99061C19.2622 2.94087 19.1378 2.86629 19.0135 2.7917L19.0384 2.86628C18.5908 2.61762 17.994 2.44355 17.5713 2.24463C17.5215 2.21976 17.4718 2.17005 17.4718 2.14519L17.0491 2.02086C17.1237 1.92139 16.7507 1.79706 16.9745 1.79706C16.6264 1.79706 16.328 1.57325 16.0047 1.59812C14.9603 1.1754 13.8165 0.80242 12.6478 0.55376L12.6478 0.60348C12.25 0.528882 11.8272 0.60348 11.3796 0.35482C11.0066 0.379686 10.5093 0.255368 10.2855 0.42943C9.88768 0.3051 9.68875 0.354838 9.31576 0.28024C9.36549 0.429436 8.89304 0.280234 9.0671 0.42943C9.26603 0.67809 9.31576 0.553742 9.48982 0.752669L9.48982 0.702949C10.4099 1.25 11.3548 1.6976 12.3246 2.14519C13.0208 2.31925 13.6922 2.66737 14.3884 2.91603C15.1344 3.18955 15.955 3.43819 16.6015 3.61225C16.7756 3.63712 16.8253 3.78634 16.9496 3.8858C17.5464 4.08473 18.2427 4.45771 18.914 4.6815L18.8892 4.65664C19.2373 4.80584 19.4362 5.02963 19.7843 5.15396C19.7843 5.1291 19.8589 5.15396 19.8838 5.15396C19.8838 5.22856 20.406 5.37775 20.9282 5.55181C21.4504 5.70101 21.9974 5.87507 22.0223 5.9248C22.0472 5.9248 22.0969 5.94966 22.1466 5.94966C22.818 6.34752 23.3899 6.96918 23.9867 7.24271C24.1359 7.24271 24.31 7.26757 24.4592 7.24271C24.5337 7.36704 24.6083 7.24268 24.7327 7.34215C24.9067 7.78974 25.1554 7.76487 25.0311 7.59081C25.3046 7.69027 25.5532 7.83947 25.8019 7.9638C25.9262 7.98866 26.0506 8.0384 26.15 8.06327C26.2495 8.08813 26.2744 8.16275 26.2992 8.23735C26.5479 8.31194 26.4484 8.36167 26.6722 8.51087C26.6722 8.6352 27.3685 8.68493 27.4431 8.75953L27.3933 8.75953C27.6669 8.93359 27.7663 9.20712 28.0398 9.35632C28.7858 9.82877 29.7059 10.2017 30.4518 10.5747C30.5016 10.4753 30.2778 10.525 30.3275 10.3758C30.7751 10.5996 31.173 10.9477 31.6206 11.1467C31.6952 11.1964 31.7698 11.2959 31.7946 11.3456C31.9189 11.4451 31.8941 11.3207 32.0184 11.3953L31.9935 11.4948C32.1925 11.4948 32.1925 11.6937 32.3417 11.7186C32.3665 11.6937 32.4163 11.6937 32.466 11.7186C32.4411 11.818 32.6401 11.7683 32.5903 11.8678C32.6152 11.8926 32.6401 11.8926 32.6898 11.9175C32.7644 11.9175 33.4606 11.8429 33.5352 11.818L33.5601 11.8429C33.6596 11.8678 33.7093 11.818 33.6596 11.7683L33.759 11.818L33.7342 11.818L33.8336 11.8678C33.8585 11.8926 33.8585 11.9424 33.8088 11.9672C33.8834 11.9424 33.958 11.9424 34.0077 11.9921C33.8585 11.8678 33.6844 11.7186 33.5352 11.5445C33.6098 11.5445 33.7342 11.644 33.8088 11.644C33.8834 11.7434 34.0574 11.8678 34.1817 11.9424C34.2066 11.9424 34.2812 11.8429 34.331 11.9175C34.331 12.017 34.4056 11.9424 34.4553 12.017C34.3807 12.0418 34.3061 11.9921 34.2315 11.9672C34.2066 12.0667 34.3807 12.0916 34.4304 12.1413C34.4553 12.1164 34.6045 12.191 34.7039 12.191C34.6293 12.2656 34.7537 12.2656 34.8034 12.3402C34.8531 12.3651 34.9029 12.3402 34.9029 12.3153C34.9526 12.2159 34.6791 12.191 34.8034 12.1164C34.8034 12.1662 34.9277 12.191 35.0023 12.2159C35.0272 12.1662 34.9775 12.1662 35.0272 12.1164C35.1018 12.1413 35.1764 12.1164 35.2013 12.1662C35.1764 12.1662 35.1515 12.1662 35.1267 12.1413C35.2261 12.1662 34.5299 12.3402 34.6542 12.3402C34.6293 12.2905 35.2759 12.191 35.2013 12.1662C35.1515 12.1164 35.2759 12.0916 35.2261 12.0418L35.1515 12.0916C35.0769 12.0418 35.0769 11.9424 35.1018 11.9175C35.2261 11.9672 34.6293 12.1662 34.7537 12.1413L34.7039 12.0916C34.7537 12.0667 34.9029 12.0916 34.9277 12.1413C34.9526 12.0916 35.0023 12.0916 35.0769 12.0916L35.1018 12.1164C35.1764 12.1164 35.2261 12.1413 35.2261 12.0667C34.9029 11.9672 35.5991 11.5943 35.3007 11.4699C35.4002 11.6191 35.2261 11.5694 35.0769 11.5445C35.0769 11.4948 35.0272 11.4202 34.9526 11.3705C34.878 11.3456 34.9029 11.3953 34.878 11.4202C34.8283 11.3704 34.7537 11.3207 34.7785 11.271C34.6791 11.3207 34.6791 11.1964 34.6045 11.1964C34.5299 11.1964 34.6045 11.2213 34.5299 11.2461C34.4304 11.1964 34.2812 11.1467 34.2066 11.1218C34.1818 11.0472 34.132 10.9229 34.2315 10.8483C34.3807 10.898 34.132 10.9726 34.2812 10.9975C34.2564 10.8483 34.4304 10.9975 34.505 10.9229C34.4801 10.8483 34.3807 10.8234 34.2812 10.7985L34.2812 10.8234C34.2066 10.8234 34.0326 10.7985 33.9828 10.6991C34.0077 10.6493 33.9828 10.6245 34.0574 10.6245L33.958 10.5747C33.9331 10.5747 33.9331 10.5996 33.958 10.6245C33.9082 10.6493 33.8585 10.5996 33.8336 10.5747C33.8336 10.525 33.212 10.5747 33.2368 10.5499C33.1622 10.525 33.1623 10.4504 33.0877 10.4753C33.0628 10.5001 33.8585 10.5747 33.759 10.5499C33.7093 10.4753 32.8141 10.5001 32.8141 10.3758C32.7644 10.3509 32.6898 10.3509 32.6898 10.4007C32.6152 10.3509 32.7644 10.3261 32.7147 10.2515C32.7147 10.2515 32.7147 10.2763 32.6898 10.2763L32.6401 10.2017C32.466 10.2266 32.2919 10.0277 32.093 10.0774C32.1676 10.0525 32.2422 9.97794 32.3665 9.95307L32.3665 9.97796C32.3914 9.97796 32.466 9.97795 32.4909 9.92821C32.4163 9.85362 32.3417 9.82877 32.2173 9.85363C32.1925 9.82877 32.1925 9.80388 32.1925 9.80388C32.1925 9.80388 32.1925 9.80388 32.1925 9.82874C32.1676 9.77901 32.1676 9.77902 32.1925 9.77902C32.1925 9.62983 31.7946 9.72928 31.6703 9.58008C31.6206 9.58008 31.6454 9.60497 31.5957 9.60497C31.4465 9.48065 31.347 9.38117 31.1978 9.28171C31.1232 9.30657 31.0984 9.33143 31.1481 9.4309L31.0238 9.35632C31.2227 9.25685 30.8497 9.10765 31.0486 9.00819C31.0238 8.95845 30.9492 8.90872 30.8746 8.90872C30.8497 8.93358 30.8 9.00817 30.7254 8.95844C30.6259 8.83411 30.6508 8.88385 30.5513 8.78439C30.5513 8.70979 30.601 8.70978 30.6259 8.68492C30.427 8.66005 30.5264 8.51085 30.3773 8.43626C30.2778 8.41139 30.0789 8.31193 30.0291 8.4114C29.8551 8.21247 29.8799 8.16273 29.9297 8.08813Z" fill="black"></path> </svg> 