<?xml version="1.0" encoding="UTF-8"?> <svg xmlns="http://www.w3.org/2000/svg" width="121" height="123" viewBox="0 0 121 123" fill="none"> <path d="M24.6484 108.591C46.2715 128.345 82.7253 124.489 101.204 105.625C119.06 87.4125 128.374 64.5436 106.128 38.3823C83.882 12.221 49.0893 29.9288 29.9577 46.7171C13.9703 60.8063 -1.63159 84.5947 24.6484 108.591Z" fill="url(#paint0_radial)"></path> <path d="M92.2465 114.582L93.4033 113.87C92.9287 114.167 92.4838 114.463 92.0092 114.76C91.5346 115.027 91.0304 115.294 90.5558 115.591C90.3185 115.739 90.0812 115.857 89.8142 116.006L89.0727 116.391C88.5685 116.629 88.0642 116.896 87.56 117.163C85.4837 118.082 83.3777 118.972 81.2125 119.684C83.5854 119.031 86.0176 118.112 88.4202 117.044C90.8227 115.976 93.1363 114.671 95.2719 113.247C95.8058 112.891 96.3398 112.506 96.844 112.15C97.3482 111.764 97.8228 111.349 98.3271 110.963C98.8313 110.578 99.2762 110.163 99.7211 109.747C99.9584 109.54 100.166 109.332 100.374 109.124C100.581 108.917 100.819 108.709 100.997 108.501C101.797 107.641 102.598 106.811 103.221 105.98C103.903 105.15 104.497 104.319 105.031 103.548C105.149 103.518 105.357 103.4 105.653 103.192C105.92 102.984 106.247 102.688 106.632 102.332C107.374 101.65 108.264 100.701 109.094 99.7514C109.925 98.8022 110.696 97.8234 111.259 97.0522C111.526 96.6666 111.764 96.3403 111.942 96.1327C112.09 95.8954 112.179 95.7471 112.179 95.7174C112.683 94.8572 113.217 93.9971 113.692 93.1072C114.196 92.2174 114.67 91.3275 115.145 90.408C114.819 91.0309 114.492 91.6538 114.166 92.2767C113.81 92.8996 113.484 93.4928 113.128 94.086C113.484 93.4928 113.81 92.8699 114.166 92.2767C114.492 91.6538 114.819 91.0309 115.145 90.408C115.531 89.6962 115.857 88.9546 116.213 88.2131C116.539 87.4716 116.865 86.7004 117.192 85.9588C117.488 85.1876 117.815 84.4165 118.082 83.6156C118.23 83.23 118.348 82.8147 118.497 82.4291L118.704 81.8359C118.764 81.6283 118.823 81.4207 118.882 81.213C119.861 77.9799 120.484 74.5689 120.662 71.0392C120.84 67.5392 120.543 63.9501 119.772 60.4501C119.001 56.9204 117.785 53.4797 116.183 50.2169C115.976 49.7423 115.709 49.2678 115.412 48.7339C115.115 48.2 114.819 47.6067 114.493 47.0135C114.137 46.4203 113.751 45.7974 113.365 45.1152C113.187 44.7889 112.95 44.4626 112.742 44.1364C112.535 43.8101 112.298 43.4541 112.06 43.1279C111.823 42.7719 111.615 42.416 111.348 42.0897C111.111 41.7338 110.844 41.4075 110.577 41.0516C110.31 40.6956 110.043 40.3397 109.806 39.9838C109.539 39.6278 109.242 39.2719 108.975 38.916C108.679 38.56 108.412 38.2041 108.115 37.8482L107.67 37.3142L107.196 36.7803C106.573 36.0685 105.95 35.3566 105.297 34.6744C102.658 31.9159 99.5728 29.5726 96.577 27.8523C96.3991 27.7336 96.2211 27.6447 96.0431 27.526C95.8652 27.4074 95.6575 27.348 95.4796 27.2294C95.094 27.0514 94.738 26.8735 94.3821 26.6955C94.0262 26.5175 93.6702 26.3396 93.344 26.1912C92.988 26.0429 92.6321 25.8946 92.3058 25.776C91.9795 25.6277 91.6532 25.509 91.327 25.3904C91.1787 25.3311 91.0007 25.2717 90.8524 25.2124C90.7041 25.1531 90.5558 25.1234 90.3778 25.0641C89.7846 24.8565 89.221 24.6785 88.7168 24.5302C88.1236 24.3226 87.5303 24.2039 86.9371 24.0556C86.6405 23.9963 86.3439 23.9073 86.0473 23.848L85.6023 23.7294C85.454 23.6997 85.3057 23.67 85.1574 23.6404C85.6617 23.7294 86.0473 23.848 86.3439 23.9073C86.6702 23.9963 86.9074 24.0556 87.1447 24.115C87.649 24.2336 88.1532 24.3522 89.1321 24.6785C88.8058 24.5895 88.5092 24.5005 88.2125 24.4412C87.8863 24.3819 87.5897 24.3226 87.2634 24.2633C86.6405 24.1446 86.0176 24.026 85.4244 23.9073C84.8015 23.848 84.2083 23.759 83.615 23.6997C83.3184 23.67 83.0218 23.6107 82.7252 23.6107C82.4286 23.581 82.132 23.581 81.8354 23.5514C81.2421 23.5217 80.6489 23.4921 80.0853 23.4624C79.4921 23.4624 78.9285 23.4624 78.365 23.4921C78.0684 23.4921 77.8014 23.4921 77.5048 23.4921C77.2082 23.4921 76.9412 23.5217 76.6446 23.5514C76.0811 23.581 75.5175 23.6404 74.9539 23.67C75.3395 23.6997 75.5768 23.7294 75.9327 23.759C76.1107 23.759 76.3183 23.7887 76.6149 23.7887C76.7633 23.7887 76.9116 23.7887 77.0895 23.8183C77.2675 23.8183 77.4751 23.8183 77.7124 23.848C77.3268 23.8183 76.9709 23.848 76.5853 23.848L75.4582 23.8777C75.1912 23.937 74.8946 23.9666 74.5683 23.9963C74.2421 24.0556 73.8861 24.115 73.5005 24.1743C73.1149 24.2336 72.7293 24.2929 72.3141 24.3522C71.8988 24.4116 71.4835 24.5005 71.0683 24.5599C69.3776 24.8268 67.6869 25.2421 66.6191 25.5387C67.064 25.3014 65.3436 25.687 63.8606 26.0726C64.0682 26.0429 64.2758 26.0133 64.4835 25.9836C61.6656 26.7251 58.6995 27.793 55.9113 28.9794C53.0935 30.1659 50.4537 31.5303 48.1697 32.7464C47.5468 33.1023 47.0426 33.31 46.746 33.4286C45.3222 34.2888 43.9281 35.149 42.5637 36.0685C42.6824 35.8905 41.7925 36.3947 41.1103 36.81C40.4578 37.2253 39.9832 37.4922 40.9324 36.7803C37.9366 38.9753 34.8518 41.1109 32.2416 43.5135C27.3771 47.4881 22.661 52.0856 18.7457 57.4246C16.788 60.0942 15.038 62.912 13.6143 65.9078C12.2202 68.9036 11.1524 72.0773 10.5592 75.3401L10.6778 75.0435C10.2922 77.2977 10.1439 79.4927 10.2625 81.7469C10.3812 84.0309 10.7074 86.4038 11.36 89.0733C11.538 89.5479 11.7159 90.0224 11.8939 90.5267C11.9236 90.6453 11.9829 90.7936 12.0422 90.9123C12.1015 91.0309 12.1609 91.1496 12.1905 91.2979C12.3092 91.5352 12.3981 91.8021 12.5168 92.0394C12.9321 93.0776 13.466 94.0564 13.9405 94.9759C14.0592 95.2132 14.1778 95.4208 14.3261 95.6284C14.4448 95.8361 14.5931 96.0437 14.7117 96.2513C14.9787 96.6369 15.216 97.0225 15.4236 97.3488C15.8982 98.0013 16.3134 98.4759 16.6101 98.7725C16.7584 99.0098 16.9067 99.2175 17.055 99.4548C17.2033 99.6624 17.3516 99.87 17.4999 100.048C17.7965 100.434 18.0635 100.79 18.3304 101.145C18.4787 101.323 18.5974 101.472 18.716 101.65C18.8643 101.798 18.983 101.946 19.1313 102.095C19.3982 102.391 19.6652 102.688 19.9321 102.955C20.1991 103.251 20.466 103.518 20.733 103.815C21.0296 104.082 21.2966 104.379 21.6228 104.675C22.2457 105.268 22.8686 105.951 23.6991 106.692C23.3432 106.247 24.144 106.929 24.8559 107.552C25.5381 108.175 26.2203 108.679 25.4491 107.908C24.5 106.811 23.9364 106.277 23.4322 105.802C22.9279 105.298 22.5127 104.823 21.7415 103.874V103.963C21.2669 103.429 20.822 102.866 20.377 102.332C19.9321 101.768 19.4575 101.234 19.0719 100.641L17.8558 98.9209L16.7584 97.1115C15.3346 94.6793 14.2075 92.1284 13.4363 89.4589C12.6651 86.7894 12.2795 84.0309 12.3388 81.2724C12.3685 78.5139 12.8431 75.7257 13.6439 73.0562C14.1482 71.2468 14.8007 69.4375 15.6312 67.6578C16.4618 65.8781 17.4109 64.1281 18.538 62.4671L18.9533 61.8442L19.3686 61.2213C19.6652 60.806 19.9321 60.3908 20.2287 59.9755C20.822 59.1747 21.4449 58.3441 22.0677 57.5729C22.6906 56.7721 23.3728 56.0306 24.0254 55.2594C24.7076 54.5178 25.3602 53.7466 26.072 53.0348C29.0382 49.8907 32.3899 46.8652 35.8306 44.1364C37.5213 42.7719 39.2713 41.4965 40.9324 40.2804C41.7925 39.6872 42.6231 39.0939 43.4239 38.56C43.8392 38.2931 44.2544 38.0261 44.64 37.7592C45.0553 37.4922 45.4409 37.2253 45.8265 36.988C46.568 36.5134 47.2502 36.1278 47.9028 35.8015C48.5553 35.4752 49.2079 35.1786 49.8901 34.8524C52.8859 33.1913 56.4156 31.5303 60.1529 30.1659C63.8902 28.8014 67.8352 27.7336 71.6022 27.1404C71.4539 27.1701 71.3352 27.1701 71.2463 27.1997C71.4835 27.1701 71.7505 27.1107 71.9878 27.0811C72.1064 27.0514 72.2251 27.0514 72.3437 27.0218C72.4624 27.0218 72.581 26.9921 72.6997 26.9921C73.1742 26.9328 73.6488 26.9031 74.0937 26.8735C74.331 26.8438 74.5387 26.8438 74.776 26.8141C75.0132 26.7845 75.2209 26.7845 75.4582 26.7845C75.9031 26.7845 76.348 26.7548 76.7633 26.7548L77.4158 26.7251C77.6234 26.7251 77.8607 26.7548 78.0684 26.7548C78.5133 26.7548 78.9582 26.7845 79.4031 26.7845C79.848 26.7845 80.293 26.8438 80.7675 26.8735C81.2421 26.9031 81.7167 26.9328 82.1913 26.9921C82.1913 26.9328 82.7845 27.0218 83.0811 27.0218C83.1701 27.0514 83.5854 27.1404 84.2379 27.2294C84.4159 27.2591 84.5939 27.2887 84.8015 27.3184C85.0091 27.348 85.2167 27.4074 85.4244 27.4667C85.8693 27.5557 86.3735 27.6743 86.9074 27.793C87.1744 27.8523 87.4413 27.9116 87.738 28.0006C88.0346 28.0896 88.3015 28.1786 88.6278 28.2379C88.9244 28.3269 89.2507 28.4158 89.5473 28.5048C89.8736 28.5938 90.1702 28.7421 90.4965 28.8311C90.8227 28.9497 91.149 29.0684 91.4753 29.187C91.6532 29.2464 91.8016 29.3057 91.9795 29.365C92.1575 29.4243 92.3058 29.5133 92.4541 29.5726C93.1067 29.8693 93.7889 30.1659 94.4414 30.4921C97.0516 31.7972 99.4542 33.5769 101.264 35.06C102.124 35.8608 102.865 36.5134 103.399 37.0473C103.903 37.6109 104.259 37.9668 104.348 38.1151C104.645 38.4117 104.942 38.738 105.238 39.0346C107.967 42.2677 110.37 45.8864 112.268 49.5347C114.166 53.1831 115.56 56.8611 116.48 60.3018C116.687 61.0433 116.954 61.8145 117.162 62.5857C117.251 62.9713 117.34 63.3569 117.429 63.7128C117.518 64.0688 117.607 64.4247 117.666 64.751C117.696 66.0264 117.963 66.2341 117.993 67.7468C117.844 69.6748 117.696 71.1875 117.637 71.9884C117.577 72.7892 117.666 72.8485 117.844 71.8697C117.696 75.0435 116.984 78.1876 116.094 80.8571C115.887 81.48 115.679 82.1029 115.501 82.7258C115.293 83.3486 115.056 83.9715 114.819 84.5944C114.404 85.6622 114.048 86.1961 113.721 86.6707C112.446 89.2809 112.772 88.4801 111.2 91.0606C111.081 91.2089 110.755 91.6835 110.37 92.336C109.954 92.9886 109.48 93.7894 108.946 94.62C107.908 96.2513 106.751 97.8234 106.484 98.1497C106.573 98.031 106.692 97.8827 106.781 97.7344C106.217 98.4166 105.683 99.0395 105.179 99.6031C104.645 100.167 104.141 100.701 103.636 101.234C103.103 101.739 102.598 102.273 102.064 102.806C101.53 103.34 100.937 103.904 100.344 104.527C98.6533 106.188 96.844 107.79 94.8863 109.243C92.9287 110.667 90.8524 112.031 88.7168 113.188C84.4456 115.502 79.9074 117.252 75.6361 118.29C75.6065 118.379 76.0811 118.26 76.5853 118.112C77.0895 117.993 77.5938 117.815 77.6828 117.904C75.1616 118.616 72.6107 119.18 70.0005 119.506C69.3479 119.624 68.6954 119.684 68.0428 119.743C67.3903 119.802 66.7377 119.891 66.0852 119.921L64.1275 120.04L62.1699 120.099C61.9326 120.099 61.6953 120.099 61.4284 120.069C61.1911 120.04 60.9241 120.04 60.7165 120.01C60.2419 119.98 59.8563 119.951 59.6487 119.921C58.8182 119.891 58.5809 119.891 58.3732 119.891C58.1953 119.921 58.047 119.921 57.4241 119.891L57.2758 119.743C56.3859 119.773 55.7334 119.654 55.1105 119.535C54.4876 119.417 53.8647 119.328 53.0342 119.239C52.9452 119.298 52.3223 119.209 51.7587 119.12C51.7587 118.972 49.9494 118.824 50.068 118.675H50.0384C49.6825 118.616 49.4452 118.557 49.0002 118.468C48.8223 118.468 48.318 118.379 47.6062 118.26C47.2502 118.201 46.8646 118.141 46.4494 118.082C46.0341 118.023 45.6188 117.904 45.1739 117.815C44.729 117.726 44.3137 117.637 43.8985 117.548C43.4832 117.459 43.0976 117.341 42.7714 117.252C42.0892 117.074 41.5553 116.955 41.4069 116.896C41.318 116.866 41.1993 116.807 41.1103 116.747C40.2205 116.391 39.8052 116.362 40.3095 116.599L39.212 116.154L39.3307 116.184C38.9747 116.035 38.6188 115.887 38.2628 115.709C38.0849 115.591 37.8772 115.442 38.2035 115.502C37.5806 115.264 36.8688 114.997 36.3052 114.671C36.6908 114.908 37.1357 115.116 37.5806 115.383C38.0255 115.62 38.5001 115.887 38.945 116.124C39.4196 116.362 39.8942 116.599 40.3688 116.807C40.6061 116.925 40.8434 117.044 41.051 117.163C41.2883 117.281 41.5256 117.37 41.7332 117.459C41.5256 117.4 41.318 117.341 41.051 117.252C40.8137 117.163 40.5468 117.044 40.2798 116.925C39.7459 116.688 39.212 116.48 38.8264 116.302C38.3815 116.035 37.6696 115.65 36.8984 115.264C36.5128 115.057 36.1272 114.849 35.7416 114.612C35.356 114.374 34.9704 114.167 34.6145 113.959C34.4662 113.87 34.2882 113.841 34.0806 113.781C33.873 113.692 33.6357 113.574 33.3094 113.336C33.0424 113.01 32.5085 112.862 31.9746 112.417C32.6865 112.773 33.3391 113.188 33.9916 113.603C33.9619 113.396 32.3899 112.535 31.8856 112.15C31.7373 112.09 31.3814 111.824 30.9365 111.527C30.6992 111.379 30.4619 111.201 30.2246 111.052C30.106 110.963 29.9873 110.904 29.8687 110.815C29.75 110.726 29.6611 110.667 29.5424 110.578C29.9577 110.726 28.9788 110.044 28.5636 109.629C28.0593 109.213 27.7034 109.006 27.8814 109.213C27.6144 109.213 29.8687 110.845 29.0678 110.429C29.0085 110.34 28.7119 110.074 28.356 109.807C28 109.54 27.6144 109.243 27.3475 109.035C27.2881 109.095 27.6737 109.391 27.2585 109.154C26.6949 108.65 26.0127 108.175 25.7457 107.849C25.8644 107.938 26.1017 108.146 26.2797 108.294C26.1017 108.116 26.2796 108.235 26.6356 108.501C26.8136 108.62 27.0508 108.768 27.2881 108.946C27.5254 109.124 27.7924 109.302 28.089 109.48C29.2161 110.162 30.2839 110.845 29.75 110.459C29.8687 110.578 28.6526 109.836 27.5254 109.095C26.428 108.294 25.3305 107.493 25.5678 107.73C26.0127 108.146 25.1229 107.552 25.5974 107.997L26.1907 108.383C26.8136 108.976 26.9915 109.302 26.7246 109.154C26.4576 108.917 26.5466 108.946 26.7839 109.095C27.0508 109.243 27.4661 109.54 27.9407 109.807C28.8602 110.34 29.7797 110.904 29.2755 110.548L29.661 110.874C29.2161 110.607 28.089 109.807 27.7034 109.391C27.6441 109.451 27.1102 109.006 26.6356 108.65L26.4873 108.501C26.0127 108.146 25.3898 107.582 25.5974 107.908C26.9322 109.065 26.3686 108.857 25.7754 108.62C25.1822 108.383 24.5296 108.146 25.8644 109.302C25.3602 108.739 25.5085 108.798 25.8941 109.095C26.1017 109.243 26.3686 109.451 26.6356 109.718C26.7839 109.836 26.9322 109.955 27.0805 110.103C27.2288 110.222 27.4068 110.34 27.5551 110.459C27.6441 110.607 28.1187 111.082 28.9788 111.794C29.7797 112.328 29.4831 112.061 29.661 112.12C30.0763 112.446 30.9068 113.04 30.7289 113.069C31.4111 113.396 31.7077 113.781 32.4789 114.196C33.1907 114.552 32.4492 114.137 32.9831 114.374C33.4874 114.701 34.1102 115.027 34.7035 115.353C35.2967 115.68 35.8603 116.006 36.3052 116.213C36.6018 116.451 37.551 117.074 36.7501 116.866C35.1187 116.095 37.462 116.955 35.7416 116.184C36.3645 116.747 34.2289 115.442 33.873 115.442C34.1102 115.62 34.4958 115.857 34.9408 116.095C35.178 116.213 35.3857 116.332 35.623 116.48C35.8603 116.599 36.0976 116.688 36.3348 116.807L36.1569 116.688C36.5721 116.866 37.195 117.133 37.8179 117.43C38.4408 117.726 39.0934 117.963 39.5086 118.201C39.2713 118.171 39.6569 118.379 39.034 118.171L40.1908 118.646C40.3391 118.675 40.5171 118.735 40.1908 118.586C40.4578 118.675 40.7544 118.764 41.0213 118.853C41.2883 118.942 41.5256 119.061 41.7332 119.15C41.7629 119.18 42.1781 119.298 42.7714 119.476C43.3646 119.654 44.1654 119.832 44.9366 120.01C45.7078 120.218 46.5087 120.336 47.0723 120.425C47.6358 120.514 47.9918 120.603 47.9621 120.603C48.8223 120.811 49.0299 120.93 49.8901 121.019C49.9197 121.019 49.4155 120.93 48.6443 120.811C47.8731 120.692 46.8646 120.455 45.8858 120.277C44.907 120.04 43.9875 119.802 43.3646 119.654C42.7417 119.506 42.4451 119.387 42.712 119.476C42.89 119.565 43.6019 119.773 44.551 120.01C45.0256 120.129 45.5892 120.277 46.1528 120.396C46.746 120.514 47.3392 120.633 47.9621 120.752C48.585 120.87 49.2079 120.959 49.7714 121.048C50.3647 121.137 50.8986 121.226 51.3732 121.285C52.3223 121.404 53.0045 121.493 53.1528 121.552C53.4791 121.612 53.835 121.641 54.102 121.641C54.369 121.641 54.5173 121.641 54.4579 121.582C55.5554 121.73 54.102 121.701 54.9029 121.849C54.9325 121.849 54.8435 121.79 55.0808 121.819L55.8224 121.997C56.6825 121.997 57.7503 122.057 58.8478 122.116C59.9156 122.116 61.0131 122.146 61.9326 122.027C61.3987 122.146 60.8055 122.264 59.6487 122.353L59.441 122.324C59.3521 122.324 59.0851 122.353 58.8181 122.353C58.5512 122.353 58.3139 122.383 58.3436 122.413C58.9071 122.472 59.4114 122.472 59.9453 122.472C60.4792 122.472 61.0131 122.442 61.5767 122.413C61.7843 122.413 62.0512 122.442 62.2292 122.442L62.1995 122.413C62.5851 122.442 62.5555 122.442 62.4072 122.502C62.3775 122.502 62.3775 122.502 62.3182 122.531C63.0301 122.739 66.7081 122.205 68.725 121.997C69.3183 121.879 68.7844 121.938 69.5259 121.819C70.564 121.701 71.4242 121.582 72.3141 121.463C73.2039 121.315 74.0937 121.167 75.1616 120.93C75.8141 120.663 75.8438 120.603 75.0132 120.722L76.6149 120.336C75.9327 120.663 76.6743 120.514 77.4158 120.396C78.1573 120.247 78.8692 120.099 78.1277 120.455C78.6023 120.366 79.5811 120.099 80.4413 119.773C80.5006 119.684 80.6192 119.535 81.7167 119.15C82.1023 119.031 82.3693 118.972 82.5769 118.883C82.7845 118.824 82.9032 118.764 83.0515 118.735C83.3184 118.646 83.526 118.586 84.1786 118.349C84.5049 118.319 84.06 118.527 84.1489 118.557C85.0981 118.141 85.5134 117.963 85.9583 117.845C86.3735 117.726 86.8185 117.607 87.7083 117.192C88.2422 116.896 89.0727 116.48 89.7549 116.095C90.4371 115.709 90.9414 115.353 90.9414 115.264C92.2762 114.315 92.3058 114.374 92.2465 114.582Z" fill="black"></path> <path d="M23.4024 84.7722C22.8092 89.8147 27.7923 94.5012 34.4958 95.2724C41.1992 96.0436 47.1018 92.6028 47.6951 87.5604C48.2883 82.518 42.5636 84.357 35.8602 83.5858C29.1567 82.8443 23.9956 79.7595 23.4024 84.7722Z" fill="#CE6EA6"></path> <path d="M59.1744 82.6962C60.1532 84.6242 63.149 85.0691 65.8779 83.675C68.6067 82.281 70.0008 79.6114 69.022 77.6835C68.0431 75.7555 66.3228 77.8318 63.5939 79.1962C60.8651 80.5903 58.1956 80.7682 59.1744 82.6962Z" fill="#CE6EA6"></path> <path d="M62.7336 51.9374C62.9116 51.6408 63.0895 51.3738 63.2675 51.0772C62.4963 52.2933 61.6065 53.4501 60.6277 54.5773C60.1234 55.1408 59.6192 55.6747 59.1149 56.2086L58.3141 57.0095C58.1954 57.1578 58.0471 57.2468 57.9285 57.3654C57.8098 57.4841 57.6615 57.6027 57.5429 57.6917L57.1276 58.018L56.6827 58.3146C56.3861 58.5222 56.0895 58.6705 55.7632 58.8782C55.1403 59.2044 54.4878 59.5307 53.8352 59.7977C52.5301 60.3316 51.1657 60.7468 49.8606 61.0434C49.5343 61.1028 48.8521 61.2214 48.5258 61.2807C47.1911 61.5477 45.6783 61.8146 44.1359 61.9926C42.6232 62.2002 41.0808 62.3189 39.7164 62.3782C38.352 62.4375 37.3435 62.6452 37.3435 62.6452C36.9876 62.6748 36.6613 62.7341 36.9876 62.8231C37.6698 62.9121 39.3901 62.9121 39.3901 62.9714C39.3901 63.0011 39.0342 63.0011 38.7079 63.0011C38.7079 63.0901 37.6698 63.268 37.3138 63.2384C37.1359 63.268 36.5427 63.268 35.9198 63.2384C35.7715 63.2384 35.6232 63.2087 35.4749 63.2087C35.3265 63.1791 35.1782 63.1791 35.0596 63.1494C34.9409 63.1197 34.8223 63.0901 34.7333 63.0604C34.6443 63.0308 34.585 63.0011 34.5257 62.9714C34.2884 62.8231 34.2884 62.8528 34.407 63.0011C34.4664 63.0604 34.585 63.1791 34.7333 63.268C34.8223 63.2977 34.9113 63.357 35.0003 63.3867C35.0892 63.4163 35.1782 63.446 35.2969 63.5053C36.1274 63.8019 37.2842 63.9503 37.9961 64.0096C38.7079 64.0689 37.9961 64.1282 37.9961 64.1875C38.7079 64.1875 39.0639 64.2469 39.7757 64.1875C39.7757 64.1875 39.8054 64.1875 39.8647 64.1875C39.924 64.1875 40.013 64.1875 40.1317 64.1875C40.3393 64.1875 40.6359 64.1875 40.9919 64.1579C41.6444 64.1282 42.4453 64.0689 42.9792 64.0096C42.9792 64.0096 43.3351 63.9503 44.3733 63.8316C44.7292 63.7723 44.7292 63.7723 44.7292 63.7426C44.7292 63.7723 44.7292 63.7723 44.7292 63.8019C45.0851 63.713 45.797 63.6536 46.1233 63.5647C46.1233 63.5943 46.1233 63.5943 46.1233 63.624C46.8055 63.4757 47.5174 63.3867 48.2292 63.2087C48.2292 63.2384 48.2292 63.2384 48.2292 63.268C48.5852 63.1791 48.9114 63.1197 48.9411 63.1494C48.9411 63.1791 48.9411 63.1791 48.9411 63.2087C49.297 63.1494 49.9792 62.9418 49.9792 62.9714C49.9792 62.9418 49.9792 62.9418 49.9792 62.9418C51.3733 62.5858 52.4115 62.2892 53.42 61.9333C53.7759 61.8146 54.1022 61.696 54.4581 61.5477C54.814 61.3994 55.17 61.2511 55.5556 61.0731C55.9115 60.9248 56.2971 60.6875 56.653 60.5095C57.009 60.3019 57.3946 60.0943 57.7505 59.8273C58.1064 59.59 58.4624 59.3231 58.7887 59.0265C59.1149 58.7299 59.4709 58.4036 59.7378 58.107C60.0344 57.8104 60.3014 57.5137 60.598 57.2171C60.8649 56.9205 61.1616 56.6239 61.3989 56.2976C61.6361 56.0307 61.8438 55.7341 61.5768 55.9714C61.8141 55.7044 62.0514 55.4375 62.259 55.1408C62.7336 54.5773 62.437 54.8146 62.8819 54.251C63.7421 53.0942 64.543 51.8781 65.1955 50.6027C65.8481 49.3272 66.4116 47.9628 66.8269 46.5687C67.6277 43.7805 67.865 40.8441 67.5981 37.9966C67.6277 38.7085 67.6574 39.3313 67.6574 39.9839C67.6574 40.3102 67.6277 40.6068 67.6277 40.9331C67.6277 41.2593 67.6277 41.5856 67.5981 41.9415C67.5684 41.9415 67.5388 41.9415 67.5091 42.2975C67.4794 42.5644 67.4498 42.8314 67.4201 43.128C67.3904 43.3949 67.3311 43.6916 67.3015 43.9585C67.2421 44.2255 67.2125 44.4924 67.1532 44.7594C67.0938 45.0263 67.0345 45.2933 66.9752 45.5306C66.9159 45.7679 66.8565 46.0348 66.7972 46.2424C66.7379 46.4797 66.6489 46.6874 66.5896 46.895C66.4413 47.2806 66.3523 47.6365 66.204 47.8738C66.115 48.0221 66.0557 48.2001 65.937 48.4374C65.8184 48.6747 65.6701 49.0009 65.4328 49.4755L65.6701 49.0009L65.8777 48.4967C65.8481 48.4967 65.8184 48.467 65.8184 48.467C65.2845 49.7721 64.3947 51.3442 63.5938 52.501C63.5938 52.501 63.5641 52.4713 63.5345 52.4713L63.1192 53.0349C62.9709 53.1535 63.0302 53.0349 63.1785 52.7976C63.2675 52.6789 63.3565 52.501 63.4751 52.323C63.5938 52.145 63.7124 51.9077 63.8607 51.6705C64.1574 51.1959 64.4243 50.662 64.7209 50.1281C64.9879 49.5942 65.2252 49.0899 65.4031 48.6747C65.3735 48.6747 65.3438 48.645 65.3142 48.645C65.2252 48.8526 65.1065 49.0603 65.0175 49.2679L64.9879 49.2382C65.8481 47.3399 66.3523 45.6492 66.6786 43.5729C66.6489 43.7509 66.6193 44.0178 66.5599 44.2551C66.5303 44.3738 66.5303 44.5221 66.5006 44.6407C66.4709 44.7594 66.4413 44.878 66.4413 44.9373C66.4116 44.9373 66.382 44.9373 66.3226 45.2636C66.3523 45.0856 66.4116 44.9077 66.4413 44.7297C66.4709 44.5517 66.5006 44.3738 66.5303 44.1661C66.5896 43.7805 66.6786 43.3949 66.7082 43.0093C66.7676 42.2382 66.8565 41.4373 66.8269 40.7551C66.8269 40.5771 66.7972 40.5771 66.7676 40.7551C66.7676 40.8441 66.7379 40.9627 66.7379 41.1407C66.7379 41.3186 66.7082 41.5263 66.6786 41.7932C66.6192 42.2975 66.5896 42.7424 66.5599 43.1577C66.5006 43.5729 66.4116 44.0178 66.3226 44.5221H66.2633C66.3226 44.1958 66.382 43.7509 66.471 43.3356C66.5006 43.128 66.5303 42.9204 66.5599 42.7127C66.5896 42.5051 66.5896 42.3271 66.5896 42.1492C66.5896 41.7932 66.471 42.8314 66.471 42.4754C66.5006 42.1195 66.5303 41.7932 66.5303 41.4373C66.4709 41.9415 66.4413 42.5644 66.382 43.1577C66.3226 43.4543 66.293 43.7509 66.2336 44.0475C66.1743 44.3441 66.1447 44.6111 66.0557 44.8483C65.9667 45.1746 65.8481 45.5009 65.8184 45.5009C65.7294 45.9162 65.6108 46.3018 65.4921 46.6577C65.3735 47.0136 65.2548 47.3696 65.1065 47.6662C64.9582 47.9628 64.8396 48.2594 64.6913 48.5264C64.543 48.7933 64.3947 49.0306 64.276 49.2382C64.1277 49.5942 63.2972 51.0772 62.7336 51.9374Z" fill="black"></path> <path d="M2.63979 3.64839C3.38132 2.61024 8.27544 1.06785 11.4195 0.83056C22.7798 -0.0592805 43.958 8.60183 59.9158 55.2888C57.9879 56.8608 57.1573 57.4244 57.1573 57.4244C57.1573 57.4244 38.708 18.5087 24.5595 11.568C16.9365 7.83064 6.91102 11.0934 4.95337 12.0425C1.6313 13.6443 -1.36449 9.3137 2.63979 3.64839Z" fill="url(#paint1_linear)"></path> <path d="M37.5809 14.9493L38.0555 15.5129C36.4834 13.7035 34.7334 11.9239 32.9241 10.2628C34.8521 12.1315 36.8097 14.3264 38.5894 16.4324C40.3988 18.5383 41.9708 20.6443 43.3945 22.1867C43.3945 22.4536 44.1064 23.6994 44.8183 24.8859C45.5005 26.102 46.1827 27.2291 46.242 27.2588C46.8353 28.1486 47.4285 29.0978 48.0217 30.0469C47.6065 29.3944 47.2209 28.7418 46.8056 28.119C47.1912 28.7715 47.6065 29.4241 48.0217 30.0469C49.8311 33.0724 51.5218 36.3351 53.0641 39.8055C54.6065 43.2759 56.0599 46.8946 57.365 50.6319C57.6913 51.5218 58.1066 52.7675 58.6108 54.1913C58.7295 54.5175 58.9074 55.0515 58.8778 54.9921V55.0515L58.8481 55.0811L58.8184 55.1108H58.7888L58.6701 55.1998C58.3439 55.4667 58.0176 55.704 57.6617 55.971C57.6023 56.0303 57.543 56.0599 57.4837 56.0599L57.4244 55.9413V55.9116C57.4244 55.882 57.4244 55.9116 57.3947 55.8226L57.2167 55.4371C56.9498 54.9031 56.7125 54.3989 56.4455 53.865C55.9413 52.8269 55.4074 51.8184 54.9328 50.8692C53.954 48.9412 53.0938 47.2802 52.5006 46.1234C52.204 45.5302 51.8777 44.9666 51.5811 44.3734C52.0853 45.3522 52.0853 45.3522 52.5896 46.331C51.1955 43.9284 49.8904 41.7632 48.6446 39.6869C48.8226 40.0725 48.8226 40.1615 49.2972 41.081L48.7039 39.9835C48.0514 39.064 46.7166 36.8097 46.0344 35.8012C46.2124 36.0089 45.7378 35.1487 45.2929 34.4368L45.4412 34.7334C43.7801 31.9749 41.6742 28.8605 39.9835 26.4876C39.7462 26.1613 39.5979 25.8944 39.5089 25.746C38.975 25.0045 38.3818 24.263 37.8182 23.5511C38.0258 23.6698 36.4538 21.6824 37.314 22.6909C35.9792 21.0892 34.6445 19.4282 33.2504 18.0341C32.9538 17.7078 32.6275 17.3815 32.3309 17.0553C32.0342 16.729 31.708 16.4027 31.3817 16.1061C31.0554 15.7798 30.7292 15.4832 30.4029 15.1569C30.0469 14.8603 29.7207 14.5637 29.3647 14.2671C27.9706 13.0807 26.4579 11.9535 24.7376 11.123C23.0172 10.3221 21.1782 9.84757 19.3095 9.61027C17.4409 9.37298 15.5722 9.40265 13.7332 9.58061H13.9112C12.6357 9.72892 11.4493 9.93655 10.2035 10.2332C8.95773 10.5298 7.68229 10.8857 6.19923 11.3603C5.93228 11.4493 5.66532 11.5976 5.39837 11.7162C5.13142 11.8349 4.83481 11.9832 4.56785 12.1018C4.00429 12.3391 3.35174 12.3984 2.78817 12.2501C2.22461 12.1018 1.75002 11.7459 1.42374 11.4196C1.09747 11.0637 0.919505 10.7374 0.80086 10.5298C0.563569 9.90689 0.474592 9.34332 0.474592 8.80942C0.474592 8.30518 0.504243 7.83059 0.593227 7.38567C0.771195 6.49583 1.03816 5.60599 1.66105 4.47886C1.45342 4.74581 1.75002 4.18225 2.01697 3.70767C2.31358 3.23309 2.55087 2.84749 2.16527 3.35173C1.63137 4.03394 1.39408 4.41954 1.18645 4.80514C0.978824 5.19073 0.80086 5.54667 0.504246 6.22888L0.533901 6.19922C0.385594 6.61448 0.266952 7.02974 0.148307 7.47466C0.0593227 7.91958 0 8.3645 0 8.80942C0 9.72892 0.177975 10.7077 0.711879 11.5383C0.978832 11.9535 1.36443 12.3391 1.80935 12.6061C2.25427 12.873 2.78817 13.051 3.32207 13.0807C3.85598 13.1103 4.36021 13.0213 4.8348 12.8434L5.45769 12.5764C5.63566 12.4874 5.81363 12.4281 5.99159 12.3688C7.47466 11.8349 9.07638 11.4493 10.6484 11.1527C12.2501 10.8561 13.8519 10.6781 15.4536 10.6484C17.5892 10.5594 19.8731 10.7967 21.9791 11.4493C22.246 11.5383 22.513 11.6272 22.7799 11.7162L23.5511 12.0425L23.9367 12.2205L24.1147 12.3095L24.3816 12.3984L25.1232 12.8137L25.4791 13.0213L25.835 13.2586L26.5469 13.7332C26.7842 13.8815 26.9918 14.0595 27.2291 14.2374C27.4664 14.4154 27.674 14.5934 27.8817 14.7417C29.78 16.2544 31.5597 18.0934 33.2207 19.9324C34.8521 21.8011 36.3648 23.6698 37.6403 25.3604C38.2631 26.1613 38.6191 26.8139 39.0936 27.5257C41.3776 30.6995 44.0471 34.9114 46.331 38.7081C46.3014 38.6487 46.242 38.5597 46.2124 38.5301C47.4285 40.5471 48.2294 42.1191 49.3565 44.1064C49.3861 44.0768 49.5344 44.403 49.6531 44.5513C49.7124 44.759 51.4031 47.6658 53.0345 50.6912C53.865 52.204 54.6659 53.7167 55.2887 54.9031C55.5854 55.4964 55.8523 56.0303 56.0599 56.4159C56.1786 56.6828 56.2972 56.8905 56.3862 57.0684C56.4752 57.2464 56.5345 57.3947 56.5642 57.4837C56.6828 57.721 56.8015 57.9879 56.9498 58.2549C56.9794 58.2549 57.0091 58.2252 57.0388 58.2252L57.1278 58.1659C57.4837 57.9286 57.8693 57.6913 58.2252 57.4244L59.0557 56.8015L59.8566 56.2082L60.4202 55.7633L60.5685 55.6447C60.5981 55.615 60.6278 55.615 60.6278 55.5854L60.5685 55.4074L60.4498 55.0811C60.3312 54.7252 60.2125 54.3396 60.0939 53.9836C60.0049 53.687 59.9159 53.3904 59.7973 53.1235C59.6193 52.5599 59.4117 51.9667 59.2337 51.4031C58.8778 50.276 58.4625 49.1785 58.0769 48.081C57.8693 47.5471 57.6913 47.0132 57.4837 46.509C57.276 46.0047 57.0684 45.5005 56.8905 45.0259C56.5049 44.1954 56.0896 43.2759 55.704 42.5937C55.4667 41.9115 55.3184 41.7928 54.9625 40.992C54.2803 38.8267 53.5981 37.6699 54.0133 38.7674C53.5981 37.9369 53.2125 37.0767 52.8269 36.2758C52.4413 35.4453 52.026 34.6741 51.6701 33.9326C51.3141 33.2504 50.9582 32.5682 50.5726 31.9156C50.2463 31.352 50.098 30.9961 49.9794 30.6995C49.1488 29.2164 49.4455 29.6317 48.5853 28.0893C48.5556 28.0003 48.3777 27.7037 48.17 27.3181C48.0514 27.1401 47.9327 26.9028 47.7844 26.6952C47.6361 26.4876 47.4878 26.2503 47.3395 26.013C46.7166 25.0935 46.0937 24.1443 45.9751 23.9367C46.0344 24.0257 46.0937 24.085 46.1531 24.174C45.5895 23.3138 45.1446 22.5723 44.7293 21.8604C44.2844 21.1189 43.8098 20.4367 43.2462 19.6061C41.6149 17.3519 39.7759 15.068 37.8182 12.962C35.8606 10.8857 33.7546 8.95773 31.708 7.35601C31.619 7.38567 32.6275 8.06788 32.5978 8.18653C30.2546 6.22888 27.7037 4.41954 24.9452 2.9958C24.441 2.72884 23.8477 2.40257 23.6104 2.28392C22.6909 1.86866 23.0469 2.10596 22.3647 1.80934L22.3053 1.6907C21.8011 1.51273 21.4155 1.39408 21.0596 1.24578C20.8816 1.18645 20.7036 1.09747 20.5257 1.03815C20.318 0.978824 20.1104 0.919502 19.8731 0.830518C19.8138 0.830518 19.4578 0.741534 19.1019 0.65255C19.1019 0.563566 18.0044 0.415259 18.0934 0.355936C17.8858 0.296613 17.7375 0.266952 17.4705 0.207629C17.3816 0.207629 17.0553 0.148307 16.6104 0.118645C16.1951 0.0593227 15.6315 0.0593227 15.0976 0C14.5637 0 14.0298 0 13.5849 0C13.1696 0.0296613 12.8434 0.0296613 12.7247 0.0593227H12.5171C11.9239 0.088984 11.6866 0.148307 12.0425 0.148307L11.3306 0.118645C11.3603 0.118645 11.39 0.118645 11.4196 0.118645L10.7078 0.177968C10.5891 0.177968 10.4111 0.177968 10.6188 0.118645C10.2332 0.207629 9.78825 0.296613 9.373 0.326275C9.93656 0.266952 10.5594 0.177968 11.1823 0.148307C11.5086 0.118645 11.8052 0.148307 12.1315 0.148307C12.4578 0.148307 12.7544 0.177968 13.051 0.177968C12.5764 0.177968 11.7162 0.207629 11.1823 0.237291C10.5594 0.237291 9.28401 0.385597 8.33485 0.563565C8.12722 0.622888 8.00856 0.741534 7.50432 0.830518C7.26703 0.830518 6.97043 0.978824 6.55517 1.03815C7.00009 0.88984 7.445 0.771195 7.91958 0.65255C7.86026 0.622888 7.5933 0.682211 7.26703 0.771195C6.94075 0.860179 6.61449 0.949163 6.40686 1.00849C6.25855 1.06781 5.36871 1.33476 4.80514 1.54239C4.92379 1.45341 4.80515 1.48307 4.62718 1.54239C4.44921 1.60171 4.18226 1.72036 4.03395 1.75002C3.64836 1.89833 3.44073 2.04663 3.58903 1.98731C3.55937 2.04663 3.91529 1.89833 4.24157 1.77968C4.56784 1.66104 4.8348 1.57205 4.59751 1.72036C4.53819 1.72036 4.3009 1.80934 4.06361 1.89833C3.82632 2.01697 3.5297 2.13562 3.35173 2.2246C3.35173 2.25426 3.61868 2.10596 3.41105 2.28392C2.96613 2.49155 2.55089 2.81783 2.25427 3.08478C2.28393 3.02546 2.37291 2.93647 2.43223 2.87715C2.49156 2.81783 2.58054 2.7585 2.63987 2.72884C2.58054 2.78817 2.55087 2.78817 2.61019 2.72884C2.63986 2.69918 2.72885 2.6102 2.8475 2.52121C2.96615 2.43223 3.11445 2.31358 3.29242 2.2246C3.47039 2.10596 3.64835 2.01697 3.82632 1.92799C4.53819 1.54239 5.25006 1.24578 4.89412 1.36442C4.98311 1.36442 4.21191 1.6907 3.47038 2.10596C3.08478 2.31358 2.72884 2.58054 2.46189 2.81783C2.34324 2.93647 2.2246 3.08478 2.16527 3.17376C2.10595 3.23309 2.13561 3.23309 2.16527 3.20343C2.34324 2.9958 2.3136 3.08478 2.25427 3.17376C2.22461 3.20342 2.19494 3.26275 2.2246 3.26275C2.2246 3.26275 2.25427 3.23309 2.34325 3.1441C2.40258 3.08478 2.46189 2.96613 2.52121 2.93647L2.69919 2.7585C3.20344 2.43223 3.41105 2.43223 3.26275 2.52121C3.05512 2.63986 3.08479 2.6102 3.23309 2.49155C3.3814 2.37291 3.64834 2.19494 3.94495 2.04663C4.50852 1.72036 5.10175 1.45341 4.74581 1.60171L5.04243 1.51273C4.74581 1.63137 3.97463 1.98731 3.67801 2.07629C3.67801 2.10596 3.58903 2.16528 3.47038 2.2246C3.32207 2.31358 3.17377 2.40257 2.99581 2.52121L2.87715 2.58054C2.78817 2.63986 2.69918 2.69918 2.61019 2.78817C2.58053 2.81783 2.52122 2.84749 2.49156 2.90681C2.4619 2.93647 2.40257 2.9958 2.37291 3.02546C2.2246 3.17376 2.19494 3.26275 2.31358 3.1441C2.3729 3.08478 2.43224 2.9958 2.49156 2.96613C2.55088 2.93647 2.58054 2.87715 2.63987 2.84749C2.72885 2.78817 2.78818 2.72884 2.8475 2.69918C2.96615 2.63986 2.9958 2.63986 3.02546 2.63986C3.05512 2.66952 2.90682 2.81783 2.78817 2.96613C2.66953 3.11444 2.55088 3.32207 2.58054 3.35173C2.6102 3.38139 2.72885 3.23309 3.17377 2.96613C2.96614 3.05512 2.90682 3.11444 2.87715 3.11444C2.87715 3.11444 2.93647 3.02546 3.05511 2.93647C3.29241 2.75851 3.73733 2.52121 4.15259 2.34325C4.24157 2.34325 4.62718 2.2246 5.22041 2.01697C5.72465 1.80934 5.51702 1.86866 5.606 1.80934C5.90261 1.72036 6.46618 1.57205 6.40686 1.63137C6.79246 1.45341 7.0594 1.48307 7.56364 1.33476C8.00856 1.18645 7.53399 1.3051 7.8306 1.21612C8.48315 1.06781 9.43232 0.860179 9.96622 0.800856C10.1739 0.800856 10.8264 0.800856 10.3815 0.919502C9.37298 1.06781 10.7374 0.741534 9.69926 0.919502C10.1738 0.949163 8.77976 1.12713 8.60179 1.24578C8.92806 1.21612 9.61027 1.06781 10.1738 0.978824H10.0552C10.5594 0.88984 11.5383 0.741534 12.1018 0.800856C11.9832 0.830518 12.2205 0.860179 11.8349 0.88984L12.5171 0.860179C12.6061 0.860179 12.6951 0.830518 12.4874 0.830518C12.8137 0.800856 13.14 0.830518 13.3773 0.830518C13.4069 0.830518 14.3264 0.830518 15.2163 0.88984C16.1061 0.919502 16.996 1.06781 16.9366 1.06781C17.4409 1.15679 17.5298 1.24578 18.0341 1.3051C18.0341 1.3051 17.9748 1.27544 17.8561 1.24578C17.7375 1.21612 17.5595 1.18645 17.3519 1.15679C17.1443 1.12713 16.8773 1.09747 16.6104 1.03815C16.3434 1.00849 16.0765 0.949163 15.7798 0.949163C15.5129 0.919502 15.2163 0.88984 14.979 0.88984C14.7417 0.860179 14.5044 0.860179 14.3264 0.860179C13.9705 0.860179 13.7925 0.860179 13.9705 0.860179C14.0891 0.88984 14.4747 0.88984 15.0383 0.919502C15.3053 0.949163 15.6315 0.978824 15.9578 1.00849C16.2841 1.03815 16.64 1.09747 16.9959 1.12713C17.1739 1.15679 17.3519 1.18645 17.5002 1.21612C17.6782 1.24578 17.8265 1.27544 18.0044 1.3051C18.3307 1.36442 18.6273 1.42374 18.8943 1.48307C19.4282 1.63137 19.7841 1.72036 19.8731 1.75002C20.229 1.839 20.6443 1.98731 20.585 1.92799C21.1782 2.13562 20.3774 1.92799 20.7926 2.10596C20.7926 2.10596 20.7629 2.07629 20.9112 2.13562L21.2968 2.31358C21.7714 2.43223 22.3053 2.69918 22.8689 2.90681C23.4325 3.1441 23.9664 3.41105 24.441 3.58902C24.1443 3.50004 23.8181 3.44072 23.2248 3.20343L23.1358 3.1441C23.0469 3.11444 22.5426 2.93647 22.5426 2.96613C22.6909 3.02546 22.8096 3.08478 22.9579 3.1441C23.0765 3.20343 23.2248 3.26275 23.3435 3.32207C23.6104 3.44072 23.8774 3.55936 24.174 3.67801C24.2926 3.73733 24.4113 3.79665 24.4706 3.85597C24.4706 3.85597 24.4706 3.85597 24.4706 3.82631C24.6486 3.94496 24.6189 3.94496 24.5596 3.9153H24.5299C24.6782 4.0636 25.2121 4.33056 25.8647 4.62717C26.4876 4.95344 27.1995 5.30938 27.6444 5.66532C27.941 5.84328 27.674 5.66532 28.03 5.87295C28.9791 6.5255 29.602 7.02974 30.5512 7.77127C30.8775 7.9789 30.9071 7.9789 30.5809 7.65263L31.2927 8.24585C30.5512 7.83059 32.5385 9.40265 31.7673 8.92806C31.9749 9.10603 32.3605 9.46197 32.7758 9.78824C32.8351 9.78824 32.9241 9.8179 33.4283 10.2332C34.0809 10.8561 33.9029 10.7077 34.4368 11.2416C34.5258 11.39 34.3182 11.212 34.3182 11.2713C35.1784 12.0128 35.0004 12.0128 35.7419 12.784C35.9792 13.0213 36.3351 13.3773 36.6318 13.6739C36.9284 13.9705 37.1657 14.2078 37.1953 14.2078C37.7292 14.9197 37.6699 14.979 37.5809 14.9493Z" fill="black"></path> <defs> <radialGradient id="paint0_radial" cx="0" cy="0" r="1" gradientUnits="userSpaceOnUse" gradientTransform="translate(66.6944 73.8806) rotate(126.12) scale(49.0777 52.2492)"> <stop stop-color="#A13660"></stop> <stop offset="0.2975" stop-color="#9B2D58"></stop> <stop offset="0.6727" stop-color="#972652"></stop> <stop offset="1" stop-color="#952450"></stop> </radialGradient> <linearGradient id="paint1_linear" x1="11.4362" y1="5.32684" x2="54.2118" y2="42.6235" gradientUnits="userSpaceOnUse"> <stop stop-color="#32A457"></stop> <stop offset="1" stop-color="#1B6A38"></stop> </linearGradient> </defs> </svg> 