<?xml version="1.0" encoding="UTF-8"?> <svg xmlns="http://www.w3.org/2000/svg" width="50" height="50" viewBox="0 0 50 50" fill="none"> <g clip-path="url(#clip0)"> <path d="M0.634844 26.5326L19.6378 45.5356C20.4846 46.3823 21.8559 46.3823 22.7028 45.5356C23.5496 44.6895 23.5496 43.3166 22.7028 42.4705L5.2323 25.0001L22.7027 7.52971C23.5495 6.68362 23.5495 5.31077 22.7027 4.46467C22.2793 4.04124 21.7251 3.82952 21.1702 3.82952C20.6153 3.82952 20.0603 4.04124 19.6377 4.46467L0.634745 23.4676C-0.212032 24.3137 -0.212032 25.6865 0.634844 26.5326Z" fill="#FFD037"></path> <path d="M27.2969 26.5326L46.2999 45.5356C47.146 46.3823 48.5188 46.3823 49.3649 45.5356C50.2117 44.6895 50.2117 43.3166 49.3649 42.4705L31.8952 25.0001L49.3648 7.52971C50.2116 6.68362 50.2116 5.31077 49.3648 4.46467C48.9422 4.04124 48.3872 3.82952 47.8323 3.82952C47.2774 3.82952 46.7224 4.04124 46.2998 4.46467L27.2969 23.4676C26.4502 24.3137 26.4502 25.6865 27.2969 26.5326Z" fill="#FFD037"></path> </g> <defs> <clipPath id="clip0"> <rect x="50" y="50" width="50" height="50" transform="rotate(-180 50 50)" fill="white"></rect> </clipPath> </defs> </svg> 