<?xml version="1.0" encoding="UTF-8"?> <svg xmlns="http://www.w3.org/2000/svg" width="2253" height="1405" viewBox="0 0 2253 1405" fill="none"> <path d="M2000.22 701.857C1927.41 796.329 1951.57 912.286 1993.81 1001.29C2007.96 1031.08 2024.02 1062.42 2016.74 1098.17C2007.85 1141.88 1965.87 1179.84 1922.24 1203.57C1842.69 1246.83 1748.66 1255.62 1677.42 1226.44C1615.87 1201.22 1572.66 1150.6 1509.99 1127.19C1405.11 1088.02 1269.07 1132.5 1152.45 1191.39C1069.95 1233.06 979.586 1284.39 899.135 1269.01C842.526 1258.18 804.36 1215.01 784.259 1165.8C774.553 1142.04 767.754 1115.7 748.451 1098.84C736.975 1088.81 721.806 1082.88 706.224 1078.35C563.943 1036.98 381.051 1102.91 243.099 1053.68C149.93 1020.43 91.9401 937.813 67.7679 845.531C43.5957 753.249 49.4566 651.212 58.9494 550.364C65.6955 478.696 76.4093 401.589 127.099 338.59C180.721 271.946 274.311 174.488 354.771 171.837C435.232 169.185 503.711 256.855 566.863 292.129C645.789 336.214 718.491 395.433 816.676 402.103C883.541 406.645 954.566 385.978 1024.05 371.236C1140.22 346.59 1191.71 378.463 1306.77 371.236C1416.92 364.317 1573.08 315.681 1677.42 330.955C1751.26 341.764 1828.86 376.624 1898.38 394.408C1943.69 406 2064.04 353.939 2106.77 371.236C2159.41 392.543 2198.14 486.297 2182.77 550.364C2168.16 611.276 2038.86 651.715 2000.22 701.857Z" fill="#C94884"></path> </svg> 