<?xml version="1.0" encoding="UTF-8"?> <svg xmlns="http://www.w3.org/2000/svg" width="177" height="174" viewBox="0 0 177 174" fill="none"> <path d="M176.814 92.0365C168.139 95.9195 153.598 101.951 143.436 100.629C133.274 99.3069 111.133 101.042 96.1788 80.3874C81.3076 59.733 78.6638 43.5399 77.342 35.7738C76.0201 28.0078 91.4696 0.0829385 91.4696 0.0829385C91.4696 0.0829385 91.3044 34.865 100.971 43.953C102.54 34.5345 102.045 28.2556 104.358 23.4638C108.158 37.0957 106.836 48.5796 109.15 52.7105C110.472 41.8049 122.286 30.7341 133.687 23.629C139.223 25.6118 144.923 30.5689 145.832 35.1955C131.044 39.8221 117.907 51.6364 115.181 59.5677C135.422 77.8262 166.569 67.5816 172.105 68.9861C157.729 80.8005 150.459 82.4528 138.975 82.7007C144.18 89.8884 176.814 92.0365 176.814 92.0365Z" fill="#86BB51"></path> <path d="M142.114 36.6826C132.365 34.4519 131.374 26.1075 131.291 25.1161C131.869 24.4551 132.613 23.629 134.183 22.8854C140.048 25.364 145.832 32.3039 145.832 35.1129C144.097 35.9391 143.436 36.3521 142.114 36.6826Z" fill="#86BB51"></path> <path d="M139.718 111.948C149.798 105.008 163.099 106.66 169.295 115.665C175.492 124.671 172.352 137.642 162.273 144.664C152.194 151.604 138.892 149.952 132.696 140.947C126.499 131.859 129.639 118.888 139.718 111.948Z" fill="url(#paint0_radial)"></path> <path d="M9.5118 100.216C19.1781 93.5238 32.0664 95.5066 38.2627 104.512C44.4591 113.517 41.7327 126.24 32.0664 132.932C22.4002 139.625 9.5118 137.642 3.31547 128.636C-2.88086 119.631 -0.154474 106.825 9.5118 100.216Z" fill="url(#paint1_radial)"></path> <path d="M45.2026 147.969C45.2026 136.973 36.2882 128.058 25.2917 128.058C14.2952 128.058 5.38086 136.973 5.38086 147.969C5.38086 158.965 14.2952 167.88 25.2917 167.88C36.2882 167.88 45.2026 158.965 45.2026 147.969Z" fill="url(#paint2_radial)"></path> <path d="M38.1798 134.089C47.8461 127.397 60.7345 129.38 66.9308 138.385C73.1271 147.391 70.4007 160.114 60.7345 166.806C51.0682 173.498 38.1798 171.515 31.9834 162.51C25.7871 153.422 28.5135 140.699 38.1798 134.089Z" fill="url(#paint3_radial)"></path> <path d="M29.3399 100.629C39.0062 93.9369 51.8946 95.9197 58.0909 104.925C64.2872 113.93 61.5608 126.654 51.8946 133.346C42.2283 140.038 29.3399 138.055 23.1436 129.049C16.9473 120.044 19.6737 107.321 29.3399 100.629Z" fill="url(#paint4_radial)"></path> <path d="M18.6817 69.7297C28.348 63.0377 41.2364 65.0205 47.4327 74.0259C53.6291 83.0312 50.9027 95.7544 41.2364 102.446C31.5701 109.138 18.6817 107.156 12.4854 98.1503C6.28906 89.1449 9.01545 76.4218 18.6817 69.7297Z" fill="url(#paint5_radial)"></path> <path d="M67.9239 137.311C77.5902 130.619 90.4786 132.602 96.6749 141.607C102.871 150.613 100.145 163.336 90.4786 170.028C80.8123 176.72 67.9239 174.737 61.7276 165.732C55.5312 156.726 58.2576 144.003 67.9239 137.311Z" fill="url(#paint6_radial)"></path> <path d="M49.1681 114.013C58.8344 107.321 71.7227 109.304 77.9191 118.309C84.1154 127.315 81.389 140.038 71.7227 146.73C62.0564 153.422 49.1681 151.439 42.9717 142.434C36.7754 133.428 39.5018 120.623 49.1681 114.013Z" fill="url(#paint7_radial)"></path> <path d="M103.117 130.867C112.122 124.671 124.185 126.488 130.051 134.915C135.916 143.425 133.273 155.322 124.267 161.518C115.262 167.715 103.2 165.897 97.3339 157.47C91.468 149.043 94.1118 137.146 103.117 130.867Z" fill="url(#paint8_radial)"></path> <path d="M80.5626 104.016C90.1462 97.407 103.117 99.4724 109.479 108.726C115.84 117.896 113.197 130.785 103.53 137.394C93.9466 144.003 80.9756 141.938 74.6141 132.685C68.2525 123.432 70.9789 110.626 80.5626 104.016Z" fill="url(#paint9_radial)"></path> <path d="M49.4992 79.3137C58.6698 70.4736 72.5496 70.0605 80.5636 78.3223C88.5775 86.5841 87.6687 100.464 78.5807 109.304C69.4101 118.144 55.5303 118.557 47.5164 110.295C39.5025 102.034 40.4113 88.1538 49.4992 79.3137Z" fill="url(#paint10_radial)"></path> <path d="M64.6172 58.246C64.6172 45.5613 54.3341 35.2783 41.6494 35.2783C28.9647 35.2783 18.6816 45.5613 18.6816 58.246C18.6816 70.9307 28.9647 81.2137 41.6494 81.2137C54.3341 81.2137 64.6172 70.9307 64.6172 58.246Z" fill="url(#paint11_radial)"></path> <path d="M154.176 114.096C154.176 101.32 143.819 90.9626 131.043 90.9626C118.267 90.9626 107.91 101.32 107.91 114.096C107.91 126.872 118.267 137.229 131.043 137.229C143.819 137.229 154.176 126.872 154.176 114.096Z" fill="url(#paint12_radial)"></path> <path d="M103.202 62.4595C103.202 49.6835 92.8445 39.3265 80.0685 39.3265C67.2925 39.3265 56.9355 49.6835 56.9355 62.4595C56.9355 75.2354 67.2925 85.5924 80.0685 85.5924C92.8445 85.5924 103.202 75.2354 103.202 62.4595Z" fill="url(#paint13_radial)"></path> <path d="M79.4066 27.9254C79.4066 15.1495 69.0496 4.79249 56.2736 4.79249C43.4976 4.79249 33.1406 15.1495 33.1406 27.9254C33.1406 40.7014 43.4976 51.0583 56.2736 51.0583C69.0496 51.0583 79.4066 40.7014 79.4066 27.9254Z" fill="url(#paint14_radial)"></path> <path d="M128.811 93.7717C128.811 80.9957 118.454 70.6387 105.678 70.6387C92.9019 70.6387 82.5449 80.9957 82.5449 93.7717C82.5449 106.548 92.9019 116.905 105.678 116.905C118.454 116.905 128.811 106.548 128.811 93.7717Z" fill="url(#paint15_radial)"></path> <defs> <radialGradient id="paint0_radial" cx="0" cy="0" r="1" gradientUnits="userSpaceOnUse" gradientTransform="translate(149.4 141.095) rotate(-83.7672) scale(28.4378 25.987)"> <stop stop-color="#E09EC2"></stop> <stop offset="0.2595" stop-color="#D77CAE"></stop> <stop offset="0.5838" stop-color="#B22380"></stop> <stop offset="1" stop-color="#79207C"></stop> </radialGradient> <radialGradient id="paint1_radial" cx="0" cy="0" r="1" gradientUnits="userSpaceOnUse" gradientTransform="translate(19.3298 129.02) rotate(-83.7672) scale(27.9352 26.4542)"> <stop stop-color="#E09EC2"></stop> <stop offset="0.2595" stop-color="#D77CAE"></stop> <stop offset="0.5838" stop-color="#B22380"></stop> <stop offset="1" stop-color="#79207C"></stop> </radialGradient> <radialGradient id="paint2_radial" cx="0" cy="0" r="1" gradientUnits="userSpaceOnUse" gradientTransform="translate(24.2127 160.188) rotate(-124.582) scale(27.1847)"> <stop stop-color="#E09EC2"></stop> <stop offset="0.2595" stop-color="#D77CAE"></stop> <stop offset="0.5838" stop-color="#B22380"></stop> <stop offset="1" stop-color="#79207C"></stop> </radialGradient> <radialGradient id="paint3_radial" cx="0" cy="0" r="1" gradientUnits="userSpaceOnUse" gradientTransform="translate(47.9779 162.912) rotate(-83.7671) scale(27.9353 26.4542)"> <stop stop-color="#E09EC2"></stop> <stop offset="0.2595" stop-color="#D77CAE"></stop> <stop offset="0.5838" stop-color="#B22380"></stop> <stop offset="1" stop-color="#79207C"></stop> </radialGradient> <radialGradient id="paint4_radial" cx="0" cy="0" r="1" gradientUnits="userSpaceOnUse" gradientTransform="translate(39.1569 129.481) rotate(-83.7671) scale(27.9352 26.4542)"> <stop stop-color="#E09EC2"></stop> <stop offset="0.2595" stop-color="#D77CAE"></stop> <stop offset="0.5838" stop-color="#B22380"></stop> <stop offset="1" stop-color="#79207C"></stop> </radialGradient> <radialGradient id="paint5_radial" cx="0" cy="0" r="1" gradientUnits="userSpaceOnUse" gradientTransform="translate(28.4788 98.5744) rotate(-83.7671) scale(27.9353 26.4542)"> <stop stop-color="#E09EC2"></stop> <stop offset="0.2595" stop-color="#D77CAE"></stop> <stop offset="0.5838" stop-color="#B22380"></stop> <stop offset="1" stop-color="#79207C"></stop> </radialGradient> <radialGradient id="paint6_radial" cx="0" cy="0" r="1" gradientUnits="userSpaceOnUse" gradientTransform="translate(77.6799 166.184) rotate(-83.7671) scale(27.9352 26.4542)"> <stop stop-color="#E09EC2"></stop> <stop offset="0.2595" stop-color="#D77CAE"></stop> <stop offset="0.5838" stop-color="#B22380"></stop> <stop offset="1" stop-color="#79207C"></stop> </radialGradient> <radialGradient id="paint7_radial" cx="0" cy="0" r="1" gradientUnits="userSpaceOnUse" gradientTransform="translate(58.9779 142.816) rotate(-83.7671) scale(27.9352 26.4542)"> <stop stop-color="#E09EC2"></stop> <stop offset="0.2595" stop-color="#D77CAE"></stop> <stop offset="0.5838" stop-color="#B22380"></stop> <stop offset="1" stop-color="#79207C"></stop> </radialGradient> <radialGradient id="paint8_radial" cx="0" cy="0" r="1" gradientUnits="userSpaceOnUse" gradientTransform="translate(112.412 158.135) rotate(-83.767) scale(26.1861 24.8494)"> <stop stop-color="#E09EC2"></stop> <stop offset="0.2595" stop-color="#D77CAE"></stop> <stop offset="0.5838" stop-color="#B22380"></stop> <stop offset="1" stop-color="#79207C"></stop> </radialGradient> <radialGradient id="paint9_radial" cx="0" cy="0" r="1" gradientUnits="userSpaceOnUse" gradientTransform="translate(90.8426 133.465) rotate(-88.4097) scale(28.1232 23.1198)"> <stop stop-color="#E09EC2"></stop> <stop offset="0.2595" stop-color="#D77CAE"></stop> <stop offset="0.5838" stop-color="#B22380"></stop> <stop offset="1" stop-color="#79207C"></stop> </radialGradient> <radialGradient id="paint10_radial" cx="0" cy="0" r="1" gradientUnits="userSpaceOnUse" gradientTransform="translate(64.5661 107.929) rotate(-93.2369) scale(29.7136 27.4919)"> <stop stop-color="#E09EC2"></stop> <stop offset="0.2595" stop-color="#D77CAE"></stop> <stop offset="0.5838" stop-color="#B22380"></stop> <stop offset="1" stop-color="#79207C"></stop> </radialGradient> <radialGradient id="paint11_radial" cx="0" cy="0" r="1" gradientUnits="userSpaceOnUse" gradientTransform="translate(40.5011 72.5614) rotate(-124.583) scale(31.4673 31.4672)"> <stop stop-color="#E09EC2"></stop> <stop offset="0.2595" stop-color="#D77CAE"></stop> <stop offset="0.5838" stop-color="#B22380"></stop> <stop offset="1" stop-color="#79207C"></stop> </radialGradient> <radialGradient id="paint12_radial" cx="0" cy="0" r="1" gradientUnits="userSpaceOnUse" gradientTransform="translate(134.024 128.052) rotate(-141.214) scale(31.6534)"> <stop stop-color="#E09EC2"></stop> <stop offset="0.2595" stop-color="#D77CAE"></stop> <stop offset="0.5838" stop-color="#B22380"></stop> <stop offset="1" stop-color="#79207C"></stop> </radialGradient> <radialGradient id="paint13_radial" cx="0" cy="0" r="1" gradientUnits="userSpaceOnUse" gradientTransform="translate(78.9668 76.6608) rotate(-124.582) scale(31.6535)"> <stop stop-color="#E09EC2"></stop> <stop offset="0.2595" stop-color="#D77CAE"></stop> <stop offset="0.5838" stop-color="#B22380"></stop> <stop offset="1" stop-color="#79207C"></stop> </radialGradient> <radialGradient id="paint14_radial" cx="0" cy="0" r="1" gradientUnits="userSpaceOnUse" gradientTransform="translate(55.1704 42.1449) rotate(-124.582) scale(31.6535)"> <stop stop-color="#E09EC2"></stop> <stop offset="0.2595" stop-color="#D77CAE"></stop> <stop offset="0.5838" stop-color="#B22380"></stop> <stop offset="1" stop-color="#79207C"></stop> </radialGradient> <radialGradient id="paint15_radial" cx="0" cy="0" r="1" gradientUnits="userSpaceOnUse" gradientTransform="translate(104.605 107.921) rotate(-124.582) scale(31.6535)"> <stop stop-color="#E09EC2"></stop> <stop offset="0.2595" stop-color="#D77CAE"></stop> <stop offset="0.5838" stop-color="#B22380"></stop> <stop offset="1" stop-color="#79207C"></stop> </radialGradient> </defs> </svg> 