<?xml version="1.0" encoding="UTF-8"?> <svg xmlns="http://www.w3.org/2000/svg" width="96" height="71" viewBox="0 0 96 71" fill="none"> <path d="M85.2686 60.9876C85.2849 60.9556 85.3174 60.8917 85.3661 60.8438C85.2199 60.9237 85.0899 61.0195 85.1874 61.1953C85.1062 61.1473 84.9925 61.2432 85.0087 61.2592C85.0087 61.2912 85.0087 61.3231 84.9925 61.3551C84.9925 61.3391 85.0087 61.3231 85.0087 61.2912C85.0087 61.3071 85.0087 61.3391 84.9925 61.3551C84.96 61.5468 84.8138 61.6746 84.6513 61.8025C84.5701 61.8823 84.3426 62.0741 84.2451 62.122C84.2289 62.138 84.2126 62.138 84.1964 62.154C84.2289 62.138 84.2289 62.138 84.2451 62.138C84.2126 62.2019 84.1801 62.2658 84.1476 62.3137C84.1639 62.3137 84.1801 62.3297 84.2126 62.3297L84.1801 62.3457C84.1801 62.3936 84.1314 62.4256 84.1152 62.4575C84.1152 62.4416 84.0827 62.4416 84.0664 62.4575H84.0827C84.0177 62.5055 83.9527 62.5694 83.8877 62.6013C83.8715 62.6013 83.8715 62.6013 83.8552 62.6013L83.8065 62.6493C83.7902 62.6173 83.7415 62.6493 83.7577 62.6173C83.7252 62.6653 83.6765 62.6812 83.644 62.7292C83.4978 62.8091 83.3353 62.873 83.1566 62.9369V62.9529C83.0916 62.9848 83.0429 63.0327 82.9617 63.0168C82.8967 63.0487 82.8155 63.0647 82.783 63.1126C82.718 63.1126 82.6855 63.1286 82.6042 63.1286C82.6205 63.1606 82.523 63.1446 82.5555 63.1765C82.588 63.2245 82.6042 63.1925 82.6367 63.2405V63.2245C82.8154 63.3203 83.0266 63.3523 83.2378 63.3363C83.3678 63.2884 83.514 63.2724 83.644 63.2245C83.7902 63.1606 83.9202 63.0807 84.0014 63.0008C84.0177 62.9848 84.0502 62.9848 84.0827 62.9848C84.1639 62.9209 84.2939 62.841 84.3751 62.7451C84.4238 62.6972 84.4888 62.6972 84.5213 62.6493V62.6333C84.5538 62.6493 84.7325 62.3297 84.765 62.3137C84.765 62.3137 84.765 62.2978 84.7812 62.2978C84.8787 62.2179 85.0249 62.154 85.1062 62.0741C85.1062 62.0421 85.1062 62.0102 85.1062 61.9782C85.1387 61.9782 85.1062 61.9463 85.1224 61.9303C85.2199 61.9303 85.2199 61.8823 85.1712 61.8823C85.1874 61.8344 85.2361 61.8024 85.2524 61.7705C85.2524 61.7545 85.2686 61.7385 85.2686 61.7066C85.2686 61.6906 85.2849 61.6906 85.3011 61.6906C85.3174 61.6427 85.3336 61.6746 85.3661 61.6267C85.3986 61.6267 85.3986 61.4989 85.4149 61.4989V61.5148C85.4473 61.4669 85.5123 61.4669 85.5448 61.419C85.6423 61.3071 85.7073 61.1473 85.7723 61.0355C85.7398 61.0195 85.756 61.0675 85.7235 61.0515C85.7723 60.9876 85.8373 60.9237 85.8698 60.8438C85.886 60.8278 85.9022 60.8278 85.9185 60.8118C85.9347 60.7958 85.9185 60.7958 85.9185 60.7799H85.951C85.951 60.7479 85.9997 60.7479 85.9997 60.7159C85.9835 60.7159 85.9997 60.7 85.9997 60.7C86.0322 60.7159 86.016 60.668 86.0322 60.684C86.0322 60.684 86.0322 60.668 86.0485 60.668C86.0485 60.652 86.016 60.5242 85.9997 60.5082C85.9997 60.4923 85.9835 60.4763 85.9835 60.4923V60.4763V60.4603C85.9835 60.4603 85.9997 60.4603 86.016 60.4603C86.016 60.4443 86.016 60.4283 86.016 60.4283C85.9835 60.4603 85.951 60.4923 85.9185 60.5082C85.9185 60.4923 85.9347 60.4763 85.9347 60.4603C85.951 60.4443 85.9835 60.4124 85.9997 60.3964C85.9997 60.3964 85.9672 60.3804 85.9835 60.3644C85.9997 60.3644 85.9835 60.3485 85.9997 60.3325C86.016 60.3485 85.9997 60.3644 85.9997 60.3804C86.0322 60.3804 86.0322 60.3485 86.0322 60.3325C86.0322 60.3325 86.0322 60.3005 86.0322 60.2846C86.0485 60.3005 86.0485 60.2686 86.0647 60.2526C86.0647 60.2366 86.0647 60.2206 86.0485 60.2366C86.016 60.2366 86.0322 60.3005 85.9997 60.2686C86.016 60.2686 86.016 60.2366 86.016 60.2206C85.9997 60.2206 85.9997 60.2366 85.9997 60.2206C85.9997 60.2047 85.9835 60.1887 85.9997 60.1727V60.1887C85.9997 60.1567 86.081 60.3165 86.081 60.2846C86.0647 60.3005 86.016 60.1407 85.9997 60.1727C85.9997 60.1887 85.9672 60.1567 85.9672 60.1727L85.9835 60.1887C85.9835 60.2047 85.951 60.2047 85.9347 60.2047C85.9347 60.1727 86.016 60.3005 86.016 60.2686L85.9997 60.2846C85.9997 60.2686 85.9835 60.2366 85.9997 60.2366C85.9835 60.2366 85.9835 60.2206 85.9835 60.2047C85.9835 60.1887 85.9835 60.1727 85.9672 60.1887C85.9672 60.2206 85.9347 60.2047 85.9022 60.2047C85.8698 60.1887 85.821 60.1887 85.821 60.2047C85.8535 60.1887 85.8535 60.2206 85.8535 60.2366C85.8373 60.2366 85.821 60.2526 85.821 60.2686C85.821 60.2845 85.8373 60.2846 85.8373 60.2846C85.821 60.2846 85.821 60.3005 85.8048 60.3005C85.821 60.3165 85.7885 60.3165 85.7885 60.3325C85.7885 60.3485 85.8048 60.3325 85.8048 60.3485C85.8048 60.3644 85.7885 60.3964 85.7885 60.3964C85.7723 60.3964 85.7398 60.4124 85.7235 60.3804C85.7398 60.3485 85.756 60.3964 85.756 60.3804C85.7235 60.3804 85.756 60.3485 85.7235 60.3485C85.7073 60.3485 85.7073 60.3644 85.7073 60.3804C85.7073 60.3964 85.7073 60.4283 85.691 60.4283C85.6748 60.4283 85.6748 60.4283 85.6748 60.4124V60.4283C85.6748 60.4283 85.6748 60.4283 85.691 60.4283C85.691 60.4443 85.691 60.4443 85.6748 60.4443C85.6585 60.4443 85.691 60.5562 85.691 60.5402C85.691 60.5562 85.6748 60.5562 85.6748 60.5722C85.691 60.5722 85.6748 60.4443 85.6748 60.4603C85.6585 60.4603 85.691 60.6201 85.6586 60.6201C85.6586 60.6361 85.6586 60.6361 85.6586 60.6361C85.6423 60.652 85.6423 60.6201 85.6261 60.6201H85.6098C85.6261 60.652 85.5773 60.668 85.5936 60.7159C85.5773 60.7 85.5611 60.684 85.5611 60.668C85.5611 60.668 85.5611 60.652 85.5448 60.652C85.5286 60.668 85.5286 60.684 85.5286 60.7H85.5123C85.4961 60.7 85.4961 60.7 85.4961 60.7C85.4636 60.7 85.4961 60.7639 85.4636 60.7799C85.4636 60.7958 85.4636 60.7799 85.4636 60.7958C85.4311 60.8118 85.4149 60.8278 85.3986 60.8598C85.4149 60.8757 85.4149 60.8757 85.4311 60.8757L85.4149 60.8917C85.3824 60.8598 85.3499 60.9077 85.3336 60.8757C85.3174 60.8757 85.3174 60.8917 85.3174 60.9077C85.3336 60.9077 85.3336 60.9237 85.3336 60.9396C85.3174 60.9556 85.3174 60.9556 85.3011 60.9556C85.2849 60.9556 85.2849 60.9396 85.2686 60.9396C85.2686 60.9716 85.2362 60.9396 85.2199 60.9716C85.2199 60.9876 85.2037 61.0195 85.2199 61.0355C85.3011 61.0035 85.2849 61.0036 85.2686 60.9876Z" fill="black"></path> <path d="M8.35731 12.5746H8.32481C8.40605 12.5746 8.48728 12.6065 8.56851 12.6225C8.40605 12.4787 8.19484 12.3349 8.01613 12.5905C8.01613 12.4467 7.85367 12.3509 7.83742 12.3828C7.78868 12.3988 7.75619 12.4148 7.70745 12.4308C7.73994 12.4308 7.75619 12.4148 7.78868 12.3988C7.75619 12.4148 7.73994 12.4148 7.70745 12.4308C7.44751 12.5106 7.18757 12.4148 6.92763 12.3189C6.78141 12.271 6.37524 12.1751 6.22902 12.1112C6.21278 12.0952 6.18029 12.0952 6.16404 12.0952C6.19654 12.1112 6.19653 12.1112 6.22902 12.1272C6.13154 12.1591 6.03407 12.1751 5.95284 12.1911C5.96909 12.2071 5.96909 12.239 6.00158 12.271L5.96908 12.255C5.92034 12.3029 5.83912 12.287 5.79038 12.3189C5.80662 12.287 5.77412 12.271 5.74163 12.271L5.75788 12.287C5.64416 12.255 5.51418 12.271 5.4167 12.255C5.40045 12.255 5.40046 12.239 5.38422 12.223L5.28673 12.239C5.30298 12.1911 5.2055 12.1911 5.25424 12.1751C5.173 12.223 5.10802 12.1751 5.02679 12.223C4.7831 12.2071 4.50691 12.2071 4.24697 12.255V12.271C4.14949 12.287 4.06825 12.3668 3.97078 12.3349C3.88954 12.3828 3.77582 12.4148 3.75957 12.5106C3.67834 12.5266 3.64585 12.5746 3.56461 12.6065C3.59711 12.6544 3.49963 12.6704 3.53212 12.7024C3.59711 12.7663 3.58086 12.7024 3.62959 12.7503V12.7343C3.67833 12.7503 3.72708 12.7503 3.77582 12.7663C3.82456 12.7823 3.88954 12.7982 3.93828 12.7982C4.03576 12.8142 4.14948 12.8462 4.26321 12.8622C4.40943 12.8302 4.57189 12.8781 4.73436 12.8781C4.89682 12.8781 5.09178 12.8781 5.23799 12.8622C5.27049 12.8462 5.28673 12.8941 5.31923 12.9101C5.4492 12.9101 5.62791 12.942 5.77412 12.942C5.85536 12.942 5.90409 13.006 5.98533 13.006C5.98533 12.99 6.00158 12.99 6.00158 12.99C6.00158 13.0539 6.48897 12.942 6.50521 12.974C6.52146 12.974 6.52146 12.974 6.53771 12.974C6.70017 13.0219 6.86263 13.1657 6.99261 13.1657C7.0251 13.1498 7.07384 13.1178 7.09009 13.1018C7.10634 13.1338 7.12258 13.0858 7.15507 13.1018C7.22006 13.2296 7.26879 13.1817 7.2363 13.1338C7.30129 13.1338 7.36628 13.1498 7.41502 13.1498C7.44751 13.1498 7.46376 13.1338 7.49625 13.1338C7.5125 13.1338 7.52874 13.1498 7.54499 13.1817C7.60997 13.1657 7.57748 13.1977 7.64246 13.2137C7.65871 13.2616 7.80493 13.1657 7.82118 13.1817H7.80493C7.86991 13.1977 7.90241 13.2776 7.98364 13.2936C8.1786 13.3415 8.3898 13.3415 8.56851 13.3734C8.56851 13.3255 8.51977 13.3734 8.53602 13.3255C8.64974 13.3415 8.74722 13.4054 8.86094 13.4214C8.87719 13.4374 8.90968 13.4533 8.90968 13.4693C8.94217 13.4853 8.92594 13.4533 8.95843 13.4533V13.4853C9.00717 13.4533 9.00716 13.5332 9.0559 13.5172C9.0559 13.5013 9.07215 13.5013 9.0884 13.5013C9.0884 13.5492 9.12089 13.5013 9.12089 13.5332H9.13714C9.15338 13.5172 9.2996 13.4054 9.31584 13.3894C9.33209 13.3894 9.34834 13.3575 9.33209 13.3575H9.36459H9.39707C9.39707 13.3575 9.41332 13.3734 9.39707 13.4054C9.41332 13.3894 9.42957 13.3894 9.44582 13.3894C9.39708 13.3575 9.34834 13.3255 9.2996 13.2936C9.31585 13.2776 9.34834 13.2936 9.36459 13.2936C9.38084 13.3255 9.42957 13.3415 9.47831 13.3575C9.49455 13.3575 9.49455 13.3095 9.5108 13.3255C9.52705 13.3575 9.54329 13.3255 9.55954 13.3415C9.54329 13.3575 9.51081 13.3575 9.49456 13.3575C9.49456 13.3894 9.54329 13.3734 9.55954 13.3894C9.55954 13.3734 9.60828 13.3894 9.64077 13.3734C9.64077 13.4054 9.67327 13.3894 9.68952 13.4054C9.70576 13.4054 9.72201 13.3894 9.70576 13.3734C9.70576 13.3415 9.62452 13.3575 9.64077 13.3255C9.65702 13.3415 9.68951 13.3255 9.70576 13.3255C9.70576 13.3095 9.68952 13.3095 9.68952 13.2936C9.70576 13.2936 9.72201 13.2616 9.73826 13.2936H9.722C9.7545 13.2936 9.60828 13.4533 9.64077 13.4374C9.62452 13.4214 9.77074 13.2936 9.7545 13.2936C9.73825 13.2936 9.7545 13.2616 9.73826 13.2456L9.722 13.2776C9.70576 13.2776 9.67327 13.2456 9.68952 13.2296C9.72201 13.2296 9.60828 13.3894 9.64077 13.3575H9.62453C9.64077 13.3415 9.67327 13.3255 9.68952 13.3415C9.68952 13.3255 9.70576 13.3095 9.722 13.2936C9.73825 13.2776 9.7545 13.2776 9.73826 13.2616C9.65702 13.2776 9.73826 13.0539 9.65702 13.0539C9.70576 13.1018 9.65702 13.1018 9.62453 13.1178C9.62453 13.1018 9.59204 13.0858 9.57579 13.0699C9.55954 13.0699 9.55954 13.0858 9.55954 13.1018C9.54329 13.0858 9.52705 13.0858 9.52705 13.0699C9.51081 13.1018 9.49455 13.0539 9.47831 13.0699C9.46206 13.0858 9.47831 13.0858 9.46206 13.1018C9.44582 13.1018 9.39708 13.1018 9.38083 13.0858C9.36459 13.0699 9.34834 13.0219 9.36459 12.99C9.39708 12.99 9.34833 13.0539 9.39707 13.0379C9.38083 12.99 9.42957 13.0219 9.42957 12.99C9.41332 12.974 9.39708 12.974 9.38083 12.974C9.36459 12.974 9.33209 12.99 9.31584 12.958C9.31584 12.942 9.31585 12.9261 9.33209 12.9261H9.31584V12.942C9.2996 12.958 9.2996 12.942 9.28336 12.942C9.28336 12.9261 9.15338 13.0219 9.15338 13.006C9.13713 13.006 9.13714 12.974 9.12089 12.99C9.12089 13.006 9.28335 12.9261 9.2671 12.942C9.25086 12.9261 9.07215 13.0379 9.0559 12.99C9.03966 12.99 9.02341 12.99 9.02341 13.006C9.00716 12.99 9.03965 12.974 9.02341 12.942V12.958L9.00717 12.9261C8.97467 12.958 8.92593 12.9101 8.89344 12.942C8.90969 12.9261 8.92593 12.8781 8.94218 12.8622V12.8781C8.94218 12.8781 8.95843 12.8622 8.95843 12.8462C8.94218 12.8302 8.92593 12.8302 8.89344 12.8462C8.89344 12.8462 8.89344 12.8302 8.8772 12.8302C8.8772 12.8142 8.8772 12.8142 8.8772 12.8142C8.86095 12.7503 8.79596 12.8462 8.74722 12.8142C8.73097 12.8142 8.74722 12.8302 8.73097 12.8302C8.69848 12.7982 8.66599 12.7823 8.6335 12.7663C8.61725 12.7823 8.61725 12.7982 8.6335 12.8302L8.60101 12.8142C8.6335 12.7503 8.55226 12.7503 8.58475 12.6864C8.58475 12.6704 8.55226 12.6704 8.53602 12.6704C8.53602 12.6864 8.51977 12.7184 8.50352 12.7024C8.47103 12.6704 8.48728 12.6864 8.45478 12.6544C8.45478 12.6385 8.45478 12.6225 8.45478 12.6065C8.40604 12.6225 8.4223 12.5586 8.3898 12.5586C8.37356 12.5586 8.32482 12.5586 8.30857 12.5905C8.34106 12.6225 8.34106 12.5905 8.35731 12.5746Z" fill="black"></path> <path d="M6.18112 9.79439L6.19737 9.81037C6.11614 9.79439 6.05115 9.74646 5.96992 9.7145C6.09989 9.89026 6.26235 10.066 6.47355 9.84233C6.44106 9.98613 6.58728 10.098 6.60353 10.066C6.65227 10.05 6.68476 10.0341 6.7335 10.0341C6.70101 10.0341 6.68476 10.0341 6.65227 10.05C6.68476 10.05 6.70101 10.0341 6.7335 10.0341C6.99344 9.98613 7.20464 10.098 7.44834 10.2258C7.57831 10.2897 7.93574 10.4175 8.06571 10.4974C8.08195 10.5134 8.0982 10.5134 8.11444 10.5294C8.08195 10.5134 8.08195 10.5134 8.04945 10.4814C8.14693 10.4655 8.22817 10.4495 8.3094 10.4495C8.3094 10.4335 8.3094 10.4016 8.27691 10.3696L8.3094 10.3856C8.35814 10.3376 8.43937 10.3536 8.48811 10.3536C8.47186 10.3856 8.50436 10.4016 8.5206 10.4016V10.3856C8.61808 10.4175 8.7318 10.4335 8.82928 10.4655C8.84553 10.4655 8.84553 10.4814 8.84553 10.4974H8.94301C8.92676 10.5294 9.008 10.5454 8.95926 10.5613C9.04049 10.5294 9.08923 10.5773 9.17046 10.5454C9.38166 10.6093 9.60911 10.6412 9.85281 10.6572V10.6412C9.93404 10.6412 10.0315 10.5933 10.1127 10.6412C10.194 10.6093 10.3077 10.6252 10.3564 10.5454C10.4377 10.5613 10.4864 10.5294 10.5676 10.5454C10.5676 10.4974 10.6651 10.5294 10.6326 10.4814C10.6001 10.4016 10.5839 10.4495 10.5676 10.3856V10.4016C10.3889 10.2578 10.194 10.1459 9.99902 10.05C9.85281 10.0341 9.70659 9.95418 9.56037 9.92222C9.3979 9.89026 9.2192 9.87428 9.08923 9.8583C9.05674 9.8583 9.04048 9.82635 9.02424 9.79439C8.89427 9.77842 8.74805 9.7145 8.60184 9.7145C8.5206 9.69853 8.48811 9.65059 8.40688 9.63462C8.40688 9.65059 8.39063 9.65059 8.39063 9.65059C8.39063 9.58668 7.93573 9.65059 7.91948 9.61864C7.91948 9.61864 7.90324 9.61864 7.88699 9.61864C7.74077 9.55473 7.62705 9.41093 7.49708 9.37897C7.46459 9.39495 7.43209 9.41093 7.3996 9.44288C7.38335 9.41093 7.36711 9.45886 7.33462 9.44288C7.30213 9.31506 7.23714 9.34701 7.26963 9.39495C7.20464 9.39495 7.1559 9.363 7.10716 9.363C7.07467 9.363 7.05843 9.363 7.02593 9.363C7.00969 9.363 6.99344 9.34701 6.99344 9.31506C6.9447 9.31506 6.96095 9.29908 6.91221 9.26713C6.91221 9.21919 6.76599 9.28311 6.74974 9.26713H6.76599C6.70101 9.23517 6.68475 9.15528 6.63602 9.1393C6.47355 9.05941 6.29484 9.02746 6.14862 8.96355C6.13238 8.99551 6.18112 8.96355 6.16488 9.02746C6.08364 8.9955 6.01866 8.89964 5.92118 8.86768C5.90493 8.8517 5.90493 8.81975 5.88868 8.80377C5.87244 8.77182 5.87244 8.81975 5.83995 8.80377L5.85619 8.77181C5.8237 8.78779 5.8237 8.7079 5.79121 8.72388C5.79121 8.73986 5.77496 8.73986 5.75872 8.72388C5.77496 8.69193 5.72622 8.7079 5.74246 8.67595C5.74246 8.67595 5.72622 8.67595 5.72622 8.65997C5.70997 8.67595 5.56376 8.72388 5.54751 8.73986V8.72388C5.53127 8.72388 5.51502 8.73986 5.51502 8.75584L5.49877 8.73986L5.48252 8.72388C5.48252 8.72388 5.48252 8.7079 5.49877 8.69192C5.48252 8.7079 5.46628 8.7079 5.46628 8.69192C5.48253 8.72388 5.49877 8.77181 5.51502 8.83572C5.49877 8.83572 5.48253 8.81975 5.46628 8.80377C5.46628 8.77182 5.43378 8.73986 5.41753 8.7079C5.41753 8.7079 5.38505 8.73986 5.38505 8.72388C5.38505 8.69193 5.3688 8.72388 5.3688 8.69192C5.38504 8.67595 5.40129 8.69193 5.40129 8.7079C5.41754 8.67595 5.38504 8.67595 5.3688 8.65997C5.35255 8.67595 5.33631 8.64399 5.32006 8.64399C5.33631 8.61204 5.32006 8.61203 5.32006 8.59606C5.30381 8.58008 5.30382 8.59606 5.30382 8.61204C5.28757 8.64399 5.33631 8.64399 5.30382 8.67595C5.30382 8.65997 5.28757 8.65997 5.27132 8.64399C5.25508 8.65997 5.27132 8.65997 5.25507 8.67595C5.23882 8.65997 5.22259 8.67595 5.22259 8.65997H5.23883C5.22258 8.64399 5.38505 8.58008 5.35256 8.58008C5.35256 8.59606 5.20634 8.64399 5.22259 8.65997C5.22259 8.67595 5.20633 8.69193 5.20633 8.7079L5.22259 8.69192C5.23883 8.7079 5.22258 8.73986 5.20633 8.75584C5.19009 8.73986 5.33631 8.65997 5.30382 8.65997V8.67595C5.28757 8.69192 5.25508 8.69192 5.27132 8.65997C5.25508 8.67595 5.25507 8.67595 5.23883 8.67595C5.22258 8.67595 5.20633 8.67595 5.20633 8.69192C5.27132 8.7079 5.07636 8.86768 5.1251 8.89963C5.1251 8.8517 5.15759 8.86768 5.17384 8.86768C5.17384 8.88366 5.17384 8.91561 5.19009 8.93159C5.20634 8.93159 5.20634 8.91561 5.22259 8.91561C5.22259 8.93159 5.23883 8.94757 5.22259 8.96355C5.25508 8.94757 5.23882 8.9955 5.25507 8.97952C5.27132 8.97952 5.25508 8.96355 5.27132 8.96355C5.28757 8.97953 5.32006 8.9955 5.32006 8.9955C5.32006 9.01148 5.32006 9.05941 5.28757 9.09137C5.25507 9.07539 5.32006 9.04344 5.28757 9.04344C5.27132 9.09137 5.25507 9.04344 5.23883 9.07539C5.23883 9.10735 5.25508 9.10735 5.27132 9.10735C5.28757 9.10735 5.32006 9.10735 5.32006 9.1393C5.30381 9.15528 5.30382 9.17126 5.30382 9.17126L5.32006 9.18724C5.32006 9.18724 5.33631 9.17126 5.32006 9.17126C5.33631 9.15528 5.33631 9.17126 5.35256 9.18724C5.35256 9.20322 5.49877 9.15528 5.48252 9.17126C5.49877 9.17126 5.48253 9.20322 5.51502 9.18724C5.51502 9.17126 5.35255 9.18724 5.3688 9.18724C5.3688 9.21919 5.58 9.17126 5.56376 9.20322C5.58 9.20322 5.59625 9.20322 5.59625 9.18724C5.6125 9.20322 5.58 9.21919 5.58 9.23517C5.58 9.23517 5.58 9.21919 5.58 9.23517V9.26713C5.61249 9.25115 5.64499 9.29908 5.69373 9.28311C5.67748 9.29908 5.66124 9.33104 5.62875 9.34702V9.33104C5.62875 9.33104 5.6125 9.33104 5.59625 9.34702C5.6125 9.36299 5.62874 9.363 5.66123 9.363V9.37897C5.66123 9.39495 5.66123 9.39495 5.66123 9.39495C5.64498 9.45886 5.74246 9.39495 5.77496 9.42691C5.7912 9.42691 5.77496 9.41093 5.79121 9.41093C5.8237 9.44288 5.83995 9.47484 5.87244 9.49082C5.88869 9.47484 5.90493 9.45886 5.88868 9.42691L5.92118 9.44288C5.87244 9.49082 5.95367 9.52277 5.90493 9.57071C5.90493 9.58668 5.92118 9.60266 5.93742 9.58668C5.93742 9.57071 5.95367 9.55473 5.96992 9.55473C5.98616 9.58668 5.98616 9.57071 6.00241 9.60266C6.00241 9.61864 5.98616 9.63462 5.98616 9.65059C6.0349 9.63462 6.00241 9.69853 6.03491 9.7145C6.05115 9.7145 6.09989 9.73048 6.11614 9.69853C6.19737 9.73048 6.19736 9.76244 6.18112 9.79439Z" fill="black"></path> <path d="M8.27671 7.158L8.29295 7.17398C8.22796 7.14203 8.17923 7.0941 8.11424 7.04616C8.19547 7.2379 8.29295 7.41365 8.53664 7.23789C8.47166 7.36572 8.56914 7.50952 8.58538 7.47756C8.63412 7.47756 8.66662 7.46158 8.69911 7.46158C8.66662 7.46158 8.65037 7.46158 8.61788 7.46158C8.65037 7.46158 8.66662 7.46158 8.69911 7.46158C8.92656 7.46158 9.10527 7.62136 9.26773 7.78114C9.36521 7.87701 9.6414 8.06874 9.72263 8.18059C9.73888 8.19657 9.75512 8.21255 9.75512 8.22852C9.73888 8.19657 9.73888 8.19657 9.72263 8.18059C9.80386 8.19657 9.88509 8.19657 9.96633 8.21255C9.96633 8.18059 9.98257 8.16461 9.96633 8.13266L9.98258 8.16461C10.0476 8.13266 10.1125 8.16461 10.145 8.16461C10.1288 8.18059 10.145 8.21255 10.1613 8.22852V8.21255C10.2263 8.27646 10.34 8.30841 10.405 8.35635C10.4212 8.35635 10.4212 8.37233 10.4212 8.3883L10.5025 8.40428C10.47 8.43624 10.535 8.46819 10.4862 8.46819C10.5674 8.45221 10.5999 8.51612 10.6812 8.50015C10.8599 8.61199 11.0548 8.69188 11.266 8.75579V8.73981C11.3473 8.75579 11.4447 8.72384 11.5097 8.80373C11.591 8.78775 11.6884 8.81971 11.7534 8.77177C11.8184 8.80373 11.8672 8.78775 11.9484 8.80373C11.9646 8.7558 12.0296 8.80373 12.0296 8.75579C12.0296 8.6759 11.9971 8.72384 11.9971 8.65992V8.6759C11.8834 8.51612 11.7372 8.37233 11.591 8.2445C11.461 8.19657 11.3635 8.1007 11.2498 8.03679C11.1198 7.97288 10.9736 7.90896 10.8436 7.86103C10.8111 7.86103 10.8111 7.8131 10.8111 7.78114C10.6974 7.73321 10.5837 7.63734 10.47 7.58941C10.405 7.55745 10.3887 7.49354 10.3237 7.46158C10.3237 7.47756 10.3075 7.46158 10.3075 7.47756C10.3238 7.41365 9.90135 7.36572 9.90135 7.33376H9.88509C9.77137 7.23789 9.70639 7.06214 9.60891 7.0142C9.57642 7.03018 9.52768 7.03018 9.49519 7.04616C9.49519 7.01421 9.4627 7.04616 9.44645 7.03018C9.44645 6.90236 9.3977 6.91834 9.3977 6.96627C9.34896 6.95029 9.30023 6.91833 9.25149 6.90236C9.23524 6.90236 9.20275 6.90236 9.1865 6.88638C9.17025 6.88638 9.17026 6.8704 9.17026 6.83845C9.12152 6.82247 9.15401 6.80649 9.10527 6.77454C9.12151 6.7266 8.95906 6.77453 8.95906 6.74258H8.9753C8.92656 6.71062 8.92656 6.61475 8.87782 6.5828C8.74785 6.47095 8.58538 6.42302 8.45541 6.34313C8.43917 6.37509 8.48791 6.34313 8.45541 6.40705C8.37418 6.35911 8.32544 6.26324 8.26045 6.21531C8.24421 6.19933 8.24421 6.16738 8.24421 6.1514C8.22796 6.11944 8.21172 6.16738 8.21172 6.1514L8.22797 6.11944C8.17923 6.13542 8.21171 6.05553 8.17922 6.05553C8.16298 6.07151 8.16298 6.07151 8.14674 6.05553C8.16298 6.02358 8.11424 6.03955 8.13048 6.0076C8.13048 6.0076 8.11424 6.0076 8.11424 5.99162C8.098 5.99162 7.95177 6.03955 7.93553 6.05553V6.03955C7.91928 6.03955 7.90304 6.05553 7.90304 6.07151L7.88679 6.05553L7.87055 6.03955C7.87055 6.03955 7.87054 6.02358 7.88679 6.0076C7.87054 6.0076 7.85429 6.02358 7.85429 6.0076C7.87054 6.03955 7.88679 6.08749 7.90304 6.1514C7.88679 6.1514 7.87054 6.11944 7.85429 6.11944C7.85429 6.08749 7.83806 6.05553 7.82181 6.02357C7.82181 6.02357 7.78931 6.05553 7.78931 6.03955C7.80556 6.0076 7.77306 6.03955 7.77306 6.0076C7.78931 5.99162 7.80556 6.0076 7.80556 6.02357C7.8218 5.99162 7.78931 5.99162 7.78931 5.97564C7.77307 5.99162 7.75682 5.95966 7.74058 5.95966C7.75682 5.92771 7.74058 5.92771 7.74058 5.91173C7.74058 5.89575 7.72432 5.91173 7.72432 5.92771C7.70808 5.95967 7.75682 5.97564 7.72432 5.99162C7.72432 5.97564 7.70808 5.97564 7.69183 5.95966C7.67558 5.97564 7.69183 5.97564 7.67559 5.99162C7.65934 5.97564 7.64309 5.99162 7.64309 5.97564C7.64309 5.97564 7.6431 5.97564 7.65934 5.97564C7.6431 5.95966 7.80555 5.89575 7.77306 5.89575C7.77306 5.91173 7.62685 5.95966 7.64309 5.97564C7.64309 5.99162 7.62685 6.0076 7.62685 6.02357L7.64309 6.0076C7.65934 6.02358 7.6431 6.05553 7.62685 6.07151C7.6106 6.05553 7.75682 5.97564 7.72432 5.99162V6.0076C7.70808 6.02358 7.67558 6.0076 7.69183 5.99162C7.67558 6.0076 7.67559 6.0076 7.65934 6.0076C7.6431 6.0076 7.62685 6.0076 7.62685 6.02357C7.67559 6.05553 7.49688 6.19933 7.54562 6.23129C7.54562 6.18335 7.57811 6.19933 7.59436 6.19933C7.59436 6.21531 7.59436 6.24726 7.59436 6.26324C7.6106 6.26324 7.6106 6.24727 7.6106 6.24727C7.6106 6.26325 7.62684 6.27922 7.6106 6.2952C7.64309 6.27922 7.62685 6.32716 7.64309 6.31118C7.65934 6.31118 7.6431 6.2952 7.65934 6.2952C7.67559 6.31118 7.69184 6.32716 7.70808 6.32716C7.70808 6.34313 7.69183 6.39106 7.67559 6.42302C7.65934 6.40704 7.70808 6.37509 7.67559 6.37509C7.65934 6.42302 7.6431 6.37509 7.62685 6.40705C7.62685 6.439 7.6431 6.439 7.65934 6.439C7.67559 6.439 7.70808 6.439 7.70808 6.47096C7.69184 6.48693 7.69183 6.50291 7.69183 6.50291L7.70808 6.51889C7.70808 6.51889 7.72433 6.51889 7.70808 6.50291C7.72433 6.48693 7.72432 6.50291 7.72432 6.51889C7.72432 6.53487 7.85429 6.50291 7.85429 6.50291C7.87054 6.50291 7.8543 6.53487 7.87055 6.51889C7.88679 6.50291 7.72433 6.51889 7.74058 6.51889C7.74058 6.55084 7.93553 6.50291 7.91928 6.55085C7.93553 6.55085 7.93553 6.55085 7.95178 6.53487C7.96802 6.55085 7.93553 6.56682 7.93553 6.5828C7.93553 6.5828 7.93553 6.56682 7.93553 6.5828V6.61476C7.96802 6.59878 8.00052 6.66269 8.03301 6.63074C8.01676 6.64671 7.98427 6.67867 7.96802 6.67867V6.66269C7.96802 6.66269 7.95177 6.66269 7.93553 6.67867C7.95177 6.69465 7.96803 6.69465 7.98427 6.69465V6.71063C7.98427 6.7266 7.98427 6.7266 7.98427 6.7266C7.96803 6.77454 8.0655 6.7266 8.08175 6.77454C8.09799 6.77454 8.08174 6.75856 8.09799 6.75856C8.11424 6.79051 8.13049 6.82247 8.14674 6.85443C8.16298 6.83845 8.17922 6.82247 8.17922 6.80649L8.19547 6.82247C8.14673 6.8704 8.21172 6.90236 8.14674 6.95029C8.14674 6.96627 8.16298 6.98225 8.17922 6.98225C8.19547 6.96627 8.21172 6.95029 8.22797 6.95029C8.24422 6.98225 8.24421 6.96627 8.24421 6.99823C8.24421 7.0142 8.22796 7.03018 8.21172 7.04616C8.26046 7.03018 8.21172 7.09409 8.24421 7.11007C8.26046 7.11007 8.29295 7.12605 8.32544 7.09409C8.3092 7.11007 8.29295 7.14203 8.27671 7.158Z" fill="black"></path> <path d="M10.3557 4.77745L10.3719 4.79343C10.3232 4.7455 10.2907 4.68159 10.2744 4.61767C10.2582 4.80941 10.2744 5.01712 10.5669 4.95321C10.4532 5.04908 10.4856 5.20886 10.5181 5.19288C10.5506 5.20886 10.5994 5.20886 10.6319 5.22483C10.6156 5.20886 10.5831 5.20886 10.5669 5.19288C10.5831 5.20886 10.6156 5.20886 10.6319 5.22483C10.8431 5.3207 10.9243 5.52841 10.9893 5.73613C11.038 5.84797 11.1842 6.15155 11.2005 6.27937C11.2005 6.29535 11.2167 6.31133 11.2167 6.32731C11.2167 6.29535 11.2167 6.29535 11.2167 6.26339C11.2817 6.31133 11.363 6.34329 11.4117 6.39122C11.4279 6.37524 11.4442 6.35927 11.4442 6.32731V6.35926C11.5092 6.35926 11.5417 6.42317 11.5904 6.43915C11.5579 6.45513 11.5742 6.47111 11.5742 6.50306L11.5904 6.48709C11.6229 6.56698 11.7041 6.64687 11.7366 6.72676C11.7366 6.74274 11.7366 6.74273 11.7204 6.75871L11.7854 6.80665C11.7366 6.82262 11.7854 6.88653 11.7366 6.85458C11.8016 6.88653 11.8016 6.95045 11.8828 6.96643C11.9803 7.14218 12.094 7.30196 12.2565 7.46174L12.2727 7.44576C12.3215 7.4937 12.4352 7.52565 12.4352 7.60554C12.5164 7.6375 12.5814 7.7014 12.6627 7.7014C12.6952 7.76532 12.7601 7.7813 12.8089 7.82923C12.8414 7.79727 12.8901 7.87716 12.9064 7.82923C12.9389 7.76532 12.8901 7.78129 12.9226 7.71738H12.9064C12.9064 7.50967 12.8576 7.31794 12.7926 7.14218C12.6952 7.04631 12.6627 6.90251 12.5977 6.79067C12.5164 6.66284 12.419 6.551 12.3215 6.45513C12.289 6.43915 12.3215 6.39122 12.3215 6.37524C12.2403 6.27937 12.1915 6.15155 12.1103 6.05568C12.0615 6.00775 12.0778 5.92786 12.0453 5.87993C12.0291 5.87993 12.0291 5.87993 12.0128 5.87993C12.0615 5.83199 11.7041 5.6083 11.7204 5.57635L11.7041 5.56037C11.6554 5.43255 11.6716 5.24081 11.5904 5.16092C11.5579 5.16092 11.5092 5.14494 11.4767 5.14494C11.4929 5.11299 11.4442 5.14495 11.4279 5.11299C11.4929 5.00114 11.4279 4.98516 11.4117 5.04908C11.363 5.01712 11.3467 4.96919 11.3142 4.92125C11.298 4.90528 11.2817 4.8893 11.2492 4.8893C11.233 4.87332 11.233 4.85734 11.2492 4.84136C11.2005 4.80941 11.233 4.80941 11.2167 4.76147C11.2492 4.72952 11.0868 4.69756 11.0868 4.68158H11.103C11.0705 4.63365 11.1193 4.55376 11.0868 4.50583C11.0218 4.36203 10.8918 4.2342 10.8106 4.12236C10.7781 4.15431 10.8431 4.13834 10.7943 4.17029C10.7456 4.0904 10.7293 3.99454 10.6806 3.93062C10.6806 3.91465 10.6806 3.88269 10.6968 3.86671C10.6968 3.83476 10.6644 3.86671 10.6644 3.85074L10.6968 3.81878C10.6481 3.81878 10.6969 3.75487 10.6644 3.73889C10.6481 3.75487 10.6481 3.73889 10.6319 3.73889C10.6644 3.70693 10.6156 3.72291 10.6319 3.69096C10.6319 3.69096 10.6156 3.69096 10.6319 3.67498C10.6156 3.67498 10.4532 3.659 10.4369 3.659V3.64302C10.4207 3.62704 10.4044 3.64302 10.4044 3.659L10.3882 3.64302L10.3719 3.62705C10.3719 3.62705 10.3882 3.61107 10.4044 3.59509C10.3882 3.59509 10.3719 3.59509 10.3719 3.57911C10.3719 3.62705 10.3719 3.67498 10.3557 3.72291C10.3394 3.72291 10.3394 3.69096 10.3232 3.67498C10.3394 3.64302 10.3232 3.59509 10.3232 3.56313C10.3232 3.56313 10.2744 3.59509 10.2907 3.56313C10.3069 3.53118 10.2744 3.54716 10.2907 3.53118C10.3069 3.53118 10.3232 3.54715 10.3232 3.56313C10.3557 3.53118 10.3232 3.5152 10.3232 3.49922C10.3069 3.49922 10.3069 3.48324 10.2907 3.46727C10.3232 3.45129 10.2907 3.43531 10.3069 3.41933C10.3069 3.40335 10.2907 3.41933 10.2744 3.41933C10.242 3.43531 10.2907 3.46727 10.2419 3.48324C10.2582 3.46727 10.2257 3.45129 10.2257 3.45129C10.2095 3.46727 10.2257 3.46727 10.1932 3.48324C10.1932 3.46727 10.1607 3.48324 10.177 3.45129C10.177 3.45129 10.177 3.45129 10.1932 3.45129C10.177 3.43531 10.3557 3.41933 10.3394 3.41933C10.3232 3.43531 10.177 3.43531 10.1932 3.43531C10.1932 3.45129 10.1607 3.45129 10.1607 3.46727L10.1932 3.45129C10.1932 3.46727 10.177 3.49922 10.1607 3.49922C10.1445 3.48324 10.3232 3.45129 10.2907 3.45129V3.46727C10.2744 3.46727 10.242 3.46727 10.2582 3.43531C10.242 3.45129 10.2257 3.45129 10.2095 3.43531C10.1932 3.43531 10.1932 3.41933 10.177 3.45129C10.2257 3.49922 9.99826 3.56313 10.0145 3.61107C10.0308 3.56313 10.047 3.57911 10.0795 3.59509C10.0632 3.61107 10.0632 3.62705 10.0632 3.659C10.0795 3.67498 10.0795 3.659 10.0957 3.64302C10.0957 3.659 10.0957 3.67498 10.0795 3.69096C10.112 3.67498 10.0795 3.72291 10.0957 3.72291C10.112 3.72291 10.112 3.70694 10.1282 3.70694C10.1445 3.72291 10.1607 3.73889 10.1607 3.75487C10.1445 3.77085 10.1282 3.81878 10.0957 3.83476C10.0795 3.8028 10.1445 3.8028 10.1282 3.78682C10.0957 3.83476 10.0957 3.77085 10.0632 3.8028C10.047 3.81878 10.0632 3.83476 10.0795 3.85074C10.0957 3.85074 10.1282 3.86671 10.112 3.89867C10.0957 3.91465 10.0957 3.91465 10.0795 3.91465L10.0957 3.93062C10.0957 3.93062 10.112 3.93063 10.112 3.91465C10.1282 3.91465 10.1282 3.93062 10.1282 3.93062C10.112 3.9466 10.2582 3.96258 10.2419 3.96258C10.2582 3.97856 10.2257 3.99454 10.2582 3.99454C10.2744 3.97856 10.112 3.93063 10.1445 3.9466C10.1282 3.96258 10.3232 4.01051 10.3069 4.04247C10.3069 4.04247 10.3232 4.05845 10.3394 4.04247C10.3394 4.05845 10.3069 4.05845 10.3069 4.0904C10.3069 4.0904 10.3069 4.0904 10.3232 4.0904L10.3069 4.12236C10.3557 4.12236 10.3394 4.18627 10.3882 4.17029C10.3719 4.17029 10.3232 4.18627 10.3069 4.18627V4.17029C10.3069 4.17029 10.2907 4.17029 10.2744 4.17029C10.2744 4.18627 10.2907 4.20225 10.3069 4.20225V4.21823C10.3069 4.2342 10.3069 4.23421 10.2907 4.23421C10.2582 4.28214 10.3557 4.26616 10.3557 4.3141C10.3719 4.3141 10.3719 4.3141 10.3719 4.3141C10.3719 4.34605 10.3719 4.37801 10.3882 4.40996C10.4207 4.40996 10.4207 4.39398 10.4369 4.37801L10.4531 4.40996C10.3882 4.42594 10.4369 4.48985 10.3557 4.50583C10.3557 4.52181 10.3557 4.53778 10.3719 4.53778C10.3882 4.52181 10.4044 4.52181 10.4207 4.52181C10.4207 4.55376 10.4207 4.53778 10.4207 4.56974C10.4044 4.58572 10.3882 4.58572 10.3882 4.6017C10.4369 4.61767 10.3719 4.64963 10.3882 4.66561C10.4044 4.68159 10.4369 4.69756 10.4531 4.68158C10.4044 4.7455 10.3882 4.76148 10.3557 4.77745Z" fill="black"></path> <path d="M48.5998 30.7094C48.3074 30.5177 48.0149 30.3419 47.7063 30.1502C49.1684 31.029 50.5819 31.9717 52.0278 32.9144C53.4575 33.8731 54.9034 34.8477 56.3331 35.8223C54.806 34.7199 53.2138 33.5855 51.5729 32.467C50.7606 31.9078 49.932 31.3486 49.1035 30.8053C48.681 30.5337 48.2749 30.2621 47.8362 29.9904L47.5113 29.7987C47.3976 29.7348 47.2839 29.6709 47.1539 29.607L46.8614 29.4472C46.764 29.3993 46.6665 29.3353 46.569 29.2714C45.7892 28.7921 44.9931 28.2489 44.2133 27.7376C43.4335 27.2263 42.6699 26.731 41.9388 26.2516C40.4604 25.2929 39.0632 24.4301 37.7959 23.6952C37.4548 23.104 31.5898 18.79 31.4273 18.758C30.1601 17.9272 28.8929 17.0803 27.5932 16.2175C28.4705 16.8087 29.364 17.3999 30.2251 17.9911C29.3478 17.3999 28.4705 16.8087 27.5932 16.2175C25.5786 14.8594 23.5316 13.4693 21.452 12.0473C20.4122 11.3443 19.3562 10.6253 18.284 9.90627C17.7478 9.55476 17.2117 9.18727 16.6593 8.83575C16.3831 8.66 16.1069 8.48424 15.8308 8.30849C15.5383 8.13273 15.2621 7.95697 14.9372 7.79719C14.9047 7.78121 14.8722 7.76524 14.8397 7.76524H14.8235L14.8072 7.74926L14.791 7.70132C14.6935 7.46166 14.6123 7.22199 14.5148 6.98232C14.4011 6.69472 14.2711 6.40712 14.1574 6.11952C14.0274 5.83192 13.8974 5.54432 13.7675 5.27269C13.6212 4.98509 13.4913 4.69749 13.3451 4.42587C13.0526 3.86664 12.7277 3.30741 12.3865 2.76417C12.2078 2.50852 12.0453 2.25288 11.8666 1.99723L11.8016 1.90136L11.7529 1.82147C11.7204 1.77354 11.6879 1.70963 11.6717 1.6617C11.6554 1.61376 11.6229 1.56583 11.6229 1.53387C11.6229 1.51789 11.6067 1.50192 11.6067 1.48594L11.5904 1.37409C11.5904 1.21432 11.5579 1.08649 11.5255 0.958671L11.5092 0.862803L11.4767 0.766935C11.4442 0.703024 11.4117 0.655092 11.3792 0.59118C11.2168 0.36749 10.9731 0.20771 10.7131 0.127821C10.4532 0.0319538 10.1445 0 9.85207 0C9.78709 0 9.6896 0 9.64086 0C9.59212 0 9.52714 -1.46305e-06 9.4784 0.0159764C9.38092 0.0319543 9.2672 0.0319538 9.16972 0.0479316C8.76356 0.111843 8.3574 0.22369 7.96748 0.399446C7.57757 0.575203 7.18766 0.798891 6.84648 1.16638C6.68402 1.34214 6.52155 1.56583 6.40783 1.82147C6.37533 1.88539 6.35909 1.9493 6.32659 2.01321L6.2941 2.10908L6.27786 2.15701V2.17299C6.26161 2.20494 6.26161 2.2369 6.24536 2.26886C6.19662 2.3807 6.06665 2.50852 5.8392 2.65232C5.61175 2.79612 5.31931 2.92395 4.99439 3.08372C4.66946 3.2435 4.29579 3.41926 3.92212 3.7548C3.87339 3.80273 3.82464 3.85066 3.7759 3.8986C3.72716 3.94653 3.67842 4.01044 3.62968 4.07435C3.51596 4.20218 3.41848 4.36195 3.33725 4.53771C3.30475 4.63358 3.27226 4.71347 3.25602 4.79336C3.23977 4.87325 3.22352 4.93716 3.20728 5.01705C3.17478 5.16085 3.15853 5.28867 3.14229 5.43247C3.1098 5.68812 3.07731 5.94376 3.02857 6.21539C3.01232 6.35919 2.97983 6.48701 2.94734 6.63081C2.93109 6.7107 2.91484 6.77461 2.89859 6.8545C2.88235 6.88646 2.88235 6.93439 2.86611 6.96635L2.84985 7.03026C2.83361 7.06221 2.81737 7.11015 2.78487 7.12612C2.76863 7.1421 2.75237 7.1421 2.73613 7.15808C2.67114 7.17406 2.60616 7.20601 2.54118 7.22199C2.34622 7.2859 2.08627 7.34981 1.79384 7.49361C1.5014 7.63741 1.19272 7.84513 0.949019 8.11675C0.835294 8.26055 0.721575 8.38837 0.640343 8.54815C0.591604 8.62804 0.542867 8.69195 0.510374 8.77184C0.477881 8.85173 0.445382 8.93162 0.412889 9.01151C0.299164 9.34704 0.234182 9.69856 0.234182 10.0341C0.234182 10.3696 0.28292 10.7052 0.364152 11.0087C0.396645 11.1685 0.445388 11.3123 0.510374 11.4721C0.559113 11.6159 0.65659 11.8236 0.640343 11.7917C0.640343 11.8076 0.656586 11.8236 0.656586 11.8236C0.656586 11.8396 0.640343 11.8556 0.640343 11.8556L0.575353 11.9994C0.526614 12.1112 0.494123 12.2231 0.445384 12.3509C0.364152 12.5905 0.266677 12.8302 0.185445 13.1018C0.169199 13.1658 0.152948 13.2456 0.120455 13.3096C0.104209 13.3735 0.0879644 13.4534 0.071718 13.5332C0.0554715 13.6131 0.0392271 13.677 0.0229806 13.7729C0.00673421 13.9007 -0.00951817 14.0126 0.00672826 14.1244V14.3002C0.00672826 14.3641 0.0229806 14.412 0.0229806 14.46C0.0392271 14.5718 0.0717199 14.6837 0.104213 14.7795C0.136706 14.8914 0.185443 14.9872 0.234182 15.0831C0.266675 15.131 0.299164 15.179 0.331657 15.2269C0.36415 15.2748 0.396645 15.3228 0.445384 15.3547C0.526616 15.4346 0.591602 15.5145 0.68908 15.5784C0.770313 15.6423 0.884036 15.6903 0.981514 15.7542C1.09524 15.8021 1.19272 15.85 1.30644 15.882C1.42017 15.9139 1.5339 15.9459 1.64762 15.9779C1.84258 16.0098 1.97255 16.0258 2.13502 16.0418C2.28123 16.0577 2.42744 16.0737 2.57366 16.0737C3.14229 16.0897 3.69467 16.0737 4.2308 16.0258C5.30307 15.9299 6.34283 15.7861 7.36636 15.5784C7.87 15.4825 8.37365 15.3707 8.87729 15.2429C9.00726 15.2109 9.12098 15.179 9.25095 15.147C9.36468 15.1151 9.4784 15.0831 9.59212 15.0511C9.62462 15.0352 9.65711 15.0352 9.70585 15.0192C9.7221 15.0352 9.7221 15.0511 9.73835 15.0671L9.77084 15.0991L9.88456 15.2109C9.96579 15.2908 10.0308 15.3547 10.112 15.4346C10.4044 15.7222 10.7131 15.9619 10.9893 16.2015C11.5742 16.6809 12.1266 17.0963 12.6465 17.4958C13.7025 18.2946 14.6285 18.9497 15.3759 19.493C16.1232 20.0203 16.8543 20.5475 17.6179 21.0588C16.3669 20.18 16.3669 20.18 15.1322 19.2853C18.3327 21.4103 21.2571 23.2478 24.1002 25.0373C23.629 24.6858 23.5641 24.5899 22.4268 23.775L23.8402 24.7337C25.2049 25.4847 28.2268 27.434 29.689 28.2808C29.3478 28.137 30.4688 28.856 31.4436 29.4951L31.0699 29.2075C34.8228 31.6042 39.2419 34.2885 42.6374 36.3656C43.1085 36.6532 43.4497 36.8929 43.6609 37.0367L45.318 37.9953C45.5942 38.1551 45.8704 38.3149 46.1791 38.4747C46.4715 38.6345 46.7152 38.7623 46.9914 38.9221C46.8452 38.8901 47.5113 39.3055 47.9987 39.6251C48.5023 39.9606 48.8435 40.1843 48.0474 39.721C50.5169 41.143 52.9214 42.7408 55.2771 44.1149C59.3712 46.7352 63.5953 49.4355 67.8518 52.1677C68.9079 52.8547 69.9801 53.5418 71.0361 54.2288C71.2961 54.4046 71.556 54.5804 71.7997 54.7561C72.0434 54.9478 72.3034 55.1396 72.5471 55.3313C73.0507 55.7148 73.5381 56.1142 74.0255 56.5137C75.9913 58.1115 77.9571 59.6933 79.9067 61.2751L79.7442 61.0993C80.4266 61.6426 81.0927 62.1858 81.7913 62.6971C82.1324 62.9687 82.5874 63.1924 83.0423 63.2723C83.156 63.2883 83.2697 63.3202 83.3672 63.3202C83.4647 63.3362 83.5459 63.3522 83.6271 63.3682C83.8058 63.4161 83.9358 63.5599 84.0008 63.7197L84.0495 63.8475L84.0983 63.9913C84.1308 64.0872 84.1633 64.199 84.212 64.2949C84.277 64.5026 84.3582 64.7103 84.4395 64.918C84.5857 65.3335 84.7481 65.7649 84.9106 66.2122C85.2355 67.091 85.5767 68.0177 86.0316 68.9924C86.1778 69.264 86.3403 69.5356 86.5515 69.8073C86.7627 70.0629 87.0226 70.3026 87.3638 70.4464C87.5263 70.5103 87.705 70.5422 87.8837 70.5422C88.0624 70.5422 88.2411 70.5103 88.4036 70.4623C88.566 70.4144 88.7285 70.3505 88.891 70.2706C89.0372 70.1907 89.1997 70.1108 89.3296 70.015C89.3946 69.967 89.4596 69.9031 89.5083 69.8392C89.5571 69.7753 89.6058 69.6954 89.6383 69.6315C89.7195 69.4877 89.8008 69.3439 89.9145 69.2321C90.1257 68.9924 90.4019 68.8166 90.6293 68.6409C90.873 68.4651 91.1005 68.2894 91.3442 68.1615C91.4579 68.0976 91.5879 68.0337 91.7016 67.9858C91.8153 67.9378 91.9616 67.9059 92.059 67.8899C92.1728 67.8739 92.2702 67.842 92.3515 67.794C92.4327 67.7301 92.4977 67.6822 92.5464 67.6023C92.6439 67.4745 92.7089 67.3467 92.7576 67.2348C92.8551 67.0591 92.9526 66.8993 93.0338 66.7235C93.1151 66.5638 93.18 66.4199 93.245 66.2921C93.2775 66.2282 93.31 66.1643 93.3262 66.1004C93.3425 66.0365 93.3262 65.9726 93.3262 65.9087C93.31 65.8447 93.2938 65.7968 93.2775 65.7169C93.2613 65.637 93.2288 65.5572 93.2125 65.4773C93.1475 65.1417 93.1313 64.8222 93.1638 64.5346C93.18 64.231 93.2125 63.9594 93.2775 63.6718C93.3425 63.3842 93.44 63.0966 93.5862 62.8409C93.7324 62.5693 93.9111 62.3456 94.0898 62.1219C94.2685 61.8982 94.4473 61.6905 94.6422 61.4508C94.8209 61.2271 95.0159 60.9715 95.2108 60.7159C95.3896 60.4602 95.5683 60.1566 95.617 59.9489C95.552 60.0927 95.552 60.0128 95.5845 59.869C95.5845 59.7891 95.5845 59.6933 95.552 59.5974C95.5033 59.5015 95.422 59.4216 95.3246 59.3737C95.2108 59.3098 95.1783 59.3258 94.9509 59.2139C94.8047 59.134 94.7072 59.0861 94.6422 59.0542C94.5122 58.9902 94.5447 59.0382 94.9022 59.2619C94.9996 59.3258 95.0809 59.3577 95.1296 59.3737C95.1621 59.3897 95.1946 59.4057 95.2108 59.4216C95.2596 59.4536 95.3083 59.4856 95.3408 59.5335C95.4058 59.6134 95.422 59.7092 95.422 59.7891C95.3895 59.9649 95.3571 60.0288 95.2108 60.2525C95.1459 60.3484 95.0809 60.4442 94.9996 60.5561C94.9184 60.6679 94.8372 60.7798 94.7397 60.8916C94.5447 61.1313 94.3173 61.3869 93.9761 61.7384L94.0411 61.7065C93.9111 61.8503 93.7811 61.9941 93.6349 62.1698C93.505 62.3456 93.3587 62.5214 93.245 62.7291C93.0013 63.1445 92.8876 63.6078 92.8226 64.0233C92.7576 64.4387 92.7089 64.8701 92.7576 65.3494C92.7739 65.4613 92.7901 65.5891 92.8226 65.7009L92.8714 65.9087C92.8876 65.9726 92.8713 66.0525 92.8389 66.1164L92.6114 66.5638C92.5302 66.7076 92.449 66.8513 92.3677 66.9792C92.3352 67.0431 92.2865 67.107 92.254 67.1549C92.2215 67.1869 92.2052 67.2029 92.189 67.2188C92.1403 67.2668 92.0753 67.2828 92.0103 67.2828C92.0103 67.2828 91.9128 67.2987 91.8478 67.2987C91.7828 67.3147 91.7016 67.3307 91.6204 67.3467C91.4742 67.3786 91.3279 67.4425 91.198 67.5064C90.938 67.6183 90.7431 67.7461 90.5481 67.8739C90.3531 68.0018 90.1744 68.1136 89.9957 68.2414C89.8008 68.3852 89.5896 68.529 89.3784 68.7527C89.2809 68.8486 89.1672 68.9924 89.1022 69.1202C89.0534 69.1841 89.0372 69.2321 89.0047 69.28L88.9722 69.3279L88.956 69.3439C88.9397 69.3758 88.9072 69.3918 88.891 69.4078L88.8747 69.4238L88.8422 69.4398C88.826 69.4557 88.7772 69.4717 88.7448 69.4877C88.5985 69.5676 88.4198 69.6315 88.2736 69.6794C88.1274 69.7274 88.0137 69.7274 87.9162 69.7274C87.8187 69.7114 87.7537 69.6954 87.6725 69.6475C87.5913 69.5995 87.4938 69.5037 87.3963 69.3918C87.2988 69.28 87.2013 69.1362 87.1201 68.9924L86.9901 68.7367L86.8602 68.4651C86.5352 67.7461 86.2428 66.9632 85.9504 66.1803C85.6742 65.3974 85.4142 64.5985 85.1543 63.7996L85.0893 63.6238C85.0731 63.5599 85.0568 63.512 85.0243 63.4161C84.9593 63.2404 84.8781 63.0806 84.7644 62.9368C84.6507 62.793 84.5044 62.6652 84.3582 62.5693C84.1958 62.4734 84.0171 62.4095 83.8383 62.3616C83.6434 62.3136 83.5297 62.2977 83.4322 62.2817C83.3509 62.2657 83.2697 62.2497 83.2047 62.2178C83.0585 62.1698 82.9448 62.1219 82.8148 62.042C82.7498 62.0101 82.6848 61.9621 82.6199 61.9142L82.3924 61.7225L81.905 61.323L80.9302 60.5081C80.2804 59.9649 79.6143 59.4057 78.9644 58.8464C77.7784 57.8718 76.5599 56.8812 75.3414 55.8746C74.7241 55.3792 74.1067 54.868 73.4731 54.3567L72.9857 53.9732C72.8232 53.8454 72.6608 53.7176 72.4821 53.5897C72.1409 53.3341 71.7835 53.1104 71.4585 52.8867C68.7616 51.0972 66.0322 49.3236 63.3353 47.5821C60.4435 45.7286 57.4216 43.8113 54.481 41.9738C53.0188 41.0631 51.5729 40.1524 50.1757 39.3055C49.4771 38.8741 48.7948 38.4587 48.1124 38.0592C47.95 37.9634 47.7712 37.8515 47.6088 37.7557C47.4301 37.6598 47.2514 37.5639 47.0889 37.4681C46.9264 37.3722 46.764 37.2923 46.6015 37.2124C46.439 37.1166 46.2766 37.0367 46.1304 36.9408C44.9119 36.2538 44.0833 35.6626 43.076 35.0075C38.4296 32.2273 32.5971 28.5364 27.4145 25.277C27.5119 25.3409 27.6094 25.4048 27.6582 25.4367C24.9125 23.6952 22.9304 22.2891 20.2823 20.5475C20.2823 20.5795 19.8761 20.3079 19.6649 20.18C19.5512 20.0682 18.2515 19.2054 16.4481 17.9911C15.5546 17.3839 14.531 16.6809 13.475 15.9139C12.9551 15.5305 12.419 15.147 11.9154 14.7316C11.6554 14.5239 11.4117 14.3162 11.1843 14.1084L11.0218 13.9487L10.9731 13.9007L10.9081 13.8208L10.7781 13.677C10.6806 13.5812 10.5994 13.4853 10.5182 13.3894C10.4694 13.3415 10.4369 13.2936 10.4044 13.2456C10.372 13.1977 10.3395 13.1498 10.2907 13.1178C10.0958 13.1817 9.9008 13.2456 9.72209 13.3096L9.57588 13.3575L9.44591 13.4054L9.18596 13.4853C8.95851 13.5492 8.71482 13.6291 8.48737 13.677C8.01622 13.8049 7.56132 13.9167 7.12266 14.0126C6.22911 14.2043 5.3843 14.3481 4.66946 14.428C3.93837 14.5239 3.321 14.5558 2.88235 14.5398C2.42745 14.5398 2.15126 14.4919 2.07003 14.46C1.9888 14.444 1.90756 14.428 1.82633 14.396C1.7451 14.3641 1.68012 14.3002 1.64762 14.2203C1.61513 14.1244 1.61513 13.9966 1.63137 13.9007C1.66386 13.741 1.7126 13.5332 1.76134 13.3415C1.82633 13.1498 1.89132 12.9421 1.97255 12.7503L2.26499 12.0153L2.28123 11.8236V11.7277C2.28123 11.6958 2.28123 11.6638 2.28123 11.6319C2.24874 11.52 2.23249 11.3922 2.2 11.2804L2.13502 11.1525L2.10252 11.0886L2.08627 11.0567C2.07002 11.0087 2.05378 10.9608 2.03753 10.9129C2.00504 10.817 1.97255 10.7211 1.94006 10.6253C1.89132 10.4335 1.85883 10.2418 1.85883 10.066C1.84258 9.89029 1.87507 9.71453 1.92381 9.55476C1.9563 9.39498 2.05378 9.25118 2.13502 9.12336C2.32997 8.88369 2.54117 8.75587 2.97982 8.64402L3.14229 8.59608L3.33725 8.53217C3.41848 8.50022 3.51596 8.46826 3.5972 8.43631C3.67843 8.38837 3.75966 8.35642 3.84089 8.30849C3.98711 8.19664 4.13332 8.0848 4.2308 7.92502L4.31203 7.81317C4.32828 7.78122 4.34452 7.73328 4.36077 7.68535C4.39326 7.60546 4.44201 7.50959 4.45826 7.4297L4.50699 7.20601L4.55573 7.03026C4.58822 6.91841 4.60447 6.79059 4.63696 6.67874C4.6857 6.43907 4.7182 6.19941 4.75069 5.97572C4.78318 5.75203 4.81567 5.52834 4.84816 5.3366C4.86441 5.24074 4.88066 5.16085 4.91315 5.11291C4.9294 5.08096 4.94565 5.049 4.97814 5.01705C4.99439 5.00107 5.01063 4.98509 5.02688 4.95314L5.10811 4.88922C5.12436 4.87324 5.17309 4.84129 5.20559 4.82531C5.23808 4.80933 5.27058 4.77738 5.30307 4.7614C5.44929 4.66553 5.62799 4.56967 5.82295 4.48978C6.01791 4.39391 6.21287 4.29804 6.44032 4.1862C6.55405 4.13826 6.66777 4.05837 6.78149 4.01044L6.9602 3.8986C7.02519 3.86664 7.07393 3.81871 7.13892 3.77077C7.36637 3.61099 7.61006 3.35535 7.77252 3.06775C7.82126 2.98786 7.85376 2.90797 7.88625 2.84406C7.91874 2.76417 7.95123 2.68428 7.96748 2.60439L7.99998 2.47657C7.99998 2.46059 7.99997 2.46059 8.01622 2.44461C8.01622 2.42863 8.03247 2.41266 8.03247 2.3807C8.09746 2.22092 8.30865 2.02919 8.58484 1.88539C8.86103 1.74158 9.20222 1.62974 9.52714 1.56583C9.60838 1.54985 9.68961 1.53387 9.77084 1.53387L9.88456 1.5179H9.9333C9.98204 1.5179 10.047 1.51789 10.0958 1.53387C10.1283 1.53387 10.177 1.56583 10.1932 1.59779C10.2095 1.62974 10.2095 1.67767 10.2257 1.70963C10.242 1.8055 10.3232 2.02919 10.3882 2.17299L10.5019 2.3807L10.6156 2.55646C10.6969 2.68428 10.7781 2.78015 10.8431 2.87601C10.9243 2.97188 10.9893 3.06775 11.0543 3.16361C11.3305 3.5311 11.5904 3.8986 11.8016 4.21815C12.2403 5.09694 12.419 5.20878 12.9064 6.29527C13.0526 6.66277 13.1663 7.03026 13.2801 7.34981C13.3451 7.50959 13.3938 7.66937 13.4425 7.82915C13.475 7.90904 13.4913 7.97295 13.5238 8.05284C13.5725 8.18066 13.605 8.29251 13.6537 8.40435C13.7187 8.46826 13.7675 8.51619 13.8324 8.58011C13.8649 8.61206 13.8812 8.64402 13.9137 8.66C13.9462 8.67597 13.9787 8.69195 13.9949 8.72391C14.0599 8.77184 14.1249 8.81978 14.1899 8.86771C14.2548 8.91564 14.3198 8.96358 14.3848 9.01151C14.4011 9.05944 14.4336 9.05944 14.4661 9.07542C14.4985 9.0914 14.5148 9.10738 14.5473 9.12336C14.596 9.15531 14.661 9.18726 14.7098 9.21922C14.8072 9.28313 14.9047 9.33107 14.9859 9.379C15.1484 9.47487 15.2621 9.53878 15.3109 9.55476C15.4246 9.60269 15.2946 9.49084 14.8885 9.21922C15.9607 9.84236 17.033 10.5614 18.0565 11.2484C19.08 11.9514 20.0711 12.6385 21.0134 13.2776C21.8907 13.8688 22.7517 14.444 23.6453 15.0352C24.3926 15.5305 24.7825 15.85 25.1237 16.1536C27.0246 17.4638 26.4397 17.1123 28.4055 18.5183C28.8279 18.9178 33.4419 21.9216 33.9943 22.337L33.6693 22.1134C35.9438 23.7431 37.3735 24.9414 39.6155 26.5232C41.1752 27.6257 42.7673 28.7442 44.4082 29.8307C44.8144 30.1023 45.2368 30.3739 45.6755 30.6455C45.7892 30.7094 45.8867 30.7734 46.0166 30.8373C46.0816 30.8692 46.1304 30.9012 46.1953 30.9331L46.3741 31.029L46.6665 31.1888L46.9752 31.3645C47.8037 31.8598 48.6161 32.3871 49.4446 32.9144C52.7102 35.0394 55.9107 37.1645 58.8351 39.1457C58.9488 39.1138 57.5354 38.2989 57.5354 38.1551C60.9796 40.4879 64.3913 42.9165 67.8681 45.2653C68.4855 45.7126 69.2328 46.2559 69.509 46.4636C70.6137 47.2305 70.1913 46.8631 71.0036 47.4223L71.0686 47.5661C72.3034 48.317 72.7745 48.7964 73.928 49.5154C74.0092 49.5314 74.4154 49.803 74.8216 50.0586C74.7891 50.1385 76.0725 50.8575 75.9751 50.8895H75.9913C76.235 51.0492 76.4137 51.1611 76.7224 51.3528C76.7874 51.3848 76.9173 51.4647 77.0961 51.5605C77.1935 51.6085 77.3073 51.6724 77.421 51.7363C77.4535 51.7523 77.486 51.7683 77.5185 51.7842C77.5672 51.8002 77.6159 51.8322 77.6484 51.8481C77.6972 51.8641 77.7459 51.8961 77.7946 51.9121C77.8109 51.928 77.8596 51.944 77.8596 51.944L77.9084 51.96C78.1358 52.0399 78.412 52.1517 78.7045 52.2795C78.9969 52.4074 79.3056 52.5512 79.6305 52.7109C80.2479 53.0145 80.8652 53.3501 81.3526 53.6217C81.84 53.8933 82.1812 54.117 82.2949 54.1809L82.4899 54.3407C83.091 54.7721 83.3672 54.9319 83.0423 54.6443C83.2859 54.836 83.5134 55.0277 83.7408 55.2195L83.6596 55.1556C83.8871 55.3473 84.0983 55.555 84.2932 55.7627C84.3907 55.8746 84.4719 56.0343 84.2932 55.8905C84.3745 55.9704 84.4557 56.0343 84.5207 56.1142L84.6344 56.2261L84.7319 56.3539C84.7969 56.4338 84.8456 56.5137 84.8944 56.5936C84.9106 56.6255 84.9268 56.6735 84.9431 56.7054L84.9593 56.7374C84.9593 56.7533 84.9756 56.7533 84.9756 56.7853L85.0081 56.9131C85.0406 56.9451 85.0731 56.977 85.1218 57.025L85.1705 57.0729L85.203 57.1208L85.1705 57.0729C85.1543 57.0569 85.138 57.0409 85.1218 57.025C85.0893 56.993 85.0568 56.9611 85.0081 56.9131L84.9756 56.8173L84.9593 56.7693C84.9593 56.7533 84.9593 56.7533 84.9431 56.7374L84.9106 56.6575C84.8944 56.5936 84.8456 56.5297 84.8131 56.4657C84.7481 56.3379 84.6506 56.2101 84.5532 56.0663C84.342 55.7947 84.0983 55.5231 83.8221 55.2514C83.2697 54.7242 82.6523 54.2129 82.0675 53.7815C82.3274 53.9412 82.6848 54.1969 83.0423 54.4685C83.3834 54.7401 83.7246 55.0277 83.9683 55.2514C84.1308 55.4272 84.3582 55.6509 84.5694 55.9225C84.6182 55.9864 84.6669 56.0663 84.7319 56.1302C84.7806 56.1941 84.8294 56.274 84.8781 56.3539C84.9106 56.4338 84.9593 56.4977 84.9918 56.5776C85.0243 56.6575 85.0568 56.6894 85.0893 56.8652C85.2355 57.009 85.333 57.1368 85.4305 57.2646L85.528 57.4084C85.5604 57.4564 85.5604 57.4883 85.5929 57.5363C85.5929 57.5522 85.5929 57.5522 85.6092 57.5682L85.6417 57.5842L85.7067 57.6002C85.7554 57.6161 85.8204 57.6481 85.8691 57.6801C85.9991 57.7599 86.1453 57.8239 86.324 57.9357C86.4053 57.9197 86.4703 57.9197 86.5352 57.9038C86.6002 57.9038 86.649 57.8878 86.714 57.8878C86.7464 57.8878 86.7627 57.8878 86.7789 57.8878H86.8277C86.8927 57.8718 86.9576 57.8718 87.0389 57.8558C87.2013 57.8398 87.3963 57.8398 87.705 57.8878C88.0137 57.9836 88.4198 57.9517 88.956 58.0795C88.3386 58.0156 87.7375 57.9357 87.1526 57.9038C87.2013 57.9357 87.5588 57.9677 87.9812 58.0156C88.4036 58.0635 88.8747 58.1274 89.1184 58.1754C89.2322 58.1754 89.5896 58.2393 90.012 58.3192C90.4344 58.3991 90.9218 58.4949 91.2954 58.5588C90.9543 58.5588 91.8966 58.7346 92.3352 58.8624C92.8389 58.9902 93.1638 59.0382 92.9688 58.9583C93.0663 58.9423 92.5627 58.8145 92.124 58.7026C91.6854 58.5908 91.3279 58.5109 91.6854 58.5429C91.8641 58.6228 92.8551 58.8305 93.3912 58.9583C93.4075 58.9263 93.0338 58.8464 93.3912 58.8784C93.9761 59.0382 94.626 59.15 94.9022 59.2938C94.8047 59.2778 94.5772 59.198 94.3985 59.15C94.7722 59.2619 93.7324 59.0382 92.7089 58.8624C91.6854 58.6867 90.6781 58.5588 91.1817 58.6387C91.0518 58.5908 92.1727 58.7506 93.245 58.9583C93.7811 59.0542 94.3173 59.166 94.6585 59.2459C94.7397 59.2619 94.8209 59.2778 94.8859 59.2938C94.9184 59.2938 94.9346 59.3098 94.9509 59.3098C94.9671 59.3098 94.9671 59.3098 94.9834 59.3098L94.9996 59.2778C95.0646 59.1181 95.1459 58.9902 95.2108 58.8624L95.2433 58.8145V58.7985C95.3083 58.6867 94.7072 59.7092 94.9671 59.2778H94.9834C94.9996 59.2778 94.9996 59.2778 94.9996 59.2938C94.9996 59.3098 94.9996 59.2938 94.9996 59.2938C94.9996 59.2938 94.9996 59.2938 94.9834 59.2938C94.9834 59.2938 94.9834 59.2938 94.9671 59.2938C95.0971 59.0861 94.6909 59.7732 95.2433 58.8145C95.1783 58.9263 95.1134 59.0382 95.0646 59.134C95.0321 59.182 95.0159 59.2459 94.9996 59.2938C94.9996 59.3098 94.9996 59.2938 94.9996 59.2938H95.0159H94.9996C94.9834 59.2938 94.9834 59.2778 94.9671 59.2778C94.9509 59.2619 94.9509 59.2619 94.9509 59.2619C94.9509 59.2619 94.9834 59.2619 95.0159 59.2619H95.0321L95.0484 59.2139C95.0809 59.15 95.1134 59.0861 95.1459 59.0222C95.1783 58.9583 95.2108 58.9104 95.2433 58.8624C95.2433 58.8464 95.2596 58.8464 95.2596 58.8305C95.3083 58.7346 94.7884 59.6134 95.0159 59.2459H95.0321C95.0321 59.2459 95.0321 59.2459 95.0321 59.2299C95.5033 58.415 95.1621 59.0062 95.2758 58.8305C95.2596 58.8624 95.2433 58.8944 95.2108 58.9263C95.1621 58.9902 95.1296 59.0861 95.0809 59.182C95.0484 59.2619 95.0646 59.2299 95.0646 59.2299C95.0809 59.2299 95.0646 59.2299 95.0646 59.2299C95.0484 59.2299 95.0321 59.2139 95.0159 59.2139C94.8534 59.182 94.6747 59.15 94.496 59.1181C93.8461 58.9263 93.5862 58.7985 93.8299 58.8145C94.3823 58.9583 93.5862 58.8145 92.7576 58.7026C91.929 58.5748 91.0842 58.463 91.5716 58.5429L91.1817 58.447C91.5879 58.4949 92.6764 58.7186 93.0825 58.8624C93.0988 58.8145 93.6512 58.9423 94.0898 59.0382L94.2523 59.0861C94.4798 59.134 94.7559 59.2139 94.9346 59.2619C95.1133 59.3098 95.1296 59.3098 95.0484 59.2459C94.9022 59.198 94.7722 59.15 94.6585 59.1181C94.5447 59.0861 94.4472 59.0542 94.3823 59.0222C94.2523 58.9743 94.1873 58.9423 94.2036 58.9263C94.2198 58.8944 94.4473 58.8944 94.6909 58.9104C94.9346 58.9263 95.1783 58.9423 95.1946 58.8944C95.2271 58.8624 95.0321 58.7506 94.366 58.5748C95.4545 58.9743 93.9761 58.5429 92.7901 58.3032C92.6764 58.2393 92.1728 58.0795 91.3279 57.8878C90.5806 57.744 90.8893 57.8398 90.7431 57.8239C90.3369 57.728 89.5571 57.5682 89.6708 57.5522C89.0859 57.5203 88.7447 57.3765 88.0462 57.3126C87.4288 57.2806 88.0786 57.3445 87.64 57.3286C87.4775 57.3126 87.2988 57.3126 87.1201 57.2966C87.0389 57.2966 86.9414 57.2966 86.8602 57.2966C86.7627 57.2966 86.6652 57.2966 86.5677 57.3126C86.4865 57.2966 86.4053 57.2966 86.3403 57.2966C86.2753 57.2966 86.1941 57.2966 86.1291 57.2966C86.0641 57.2966 85.9991 57.3126 85.9504 57.3286C85.9179 57.3286 85.9016 57.3445 85.8691 57.3445C85.8529 57.3445 85.8366 57.3605 85.8366 57.3445C85.8366 57.3285 85.8366 57.3285 85.8366 57.3126C85.8691 57.025 85.7717 56.7533 85.6904 56.6095C85.6579 56.4977 85.6254 56.4338 85.5929 56.3859C85.5604 56.3219 85.5442 56.274 85.528 56.2421C85.4792 56.1142 85.3492 55.8586 85.268 55.6988C85.1868 55.539 85.1705 55.4751 85.4142 55.6988C85.6254 55.9864 85.6742 56.1302 85.6904 56.1622C85.7067 56.1941 85.6579 56.1462 85.6092 56.0983C85.5604 56.0503 85.528 56.0024 85.5442 56.0503C85.5605 56.0983 85.6579 56.2101 85.7879 56.5456C85.7717 56.4498 85.7717 56.4178 85.7717 56.4178C85.7879 56.4178 85.8041 56.4657 85.8366 56.5297C85.9016 56.6735 85.9666 56.9451 85.9179 57.2167C85.9016 57.2806 85.9504 57.2327 85.9829 57.2327C86.0154 57.2167 86.0478 57.2007 86.0966 57.2007C86.1616 57.1847 86.2428 57.1688 86.3078 57.1528C86.4378 57.1368 86.5515 57.1049 86.6165 57.1049C86.649 57.1049 86.6652 57.0889 86.6815 57.0889C86.6652 57.0889 86.649 57.0889 86.6327 57.0889C86.5515 57.0889 86.454 57.0889 86.3403 57.1049C86.2915 57.1208 86.2266 57.1208 86.1616 57.1368C86.1291 57.1368 86.0966 57.1528 86.0803 57.1688C86.0478 57.1688 85.9991 57.2007 86.0316 57.1528C86.0803 56.9451 86.0478 56.7214 85.9829 56.5137C85.9504 56.4178 85.9016 56.3219 85.8529 56.2101C85.8041 56.1142 85.7392 56.0184 85.6742 55.9225L85.7392 56.0663C85.5605 55.7627 85.203 55.3473 84.8294 54.9798C84.4395 54.6123 84.0333 54.2608 83.7571 54.0051C83.9196 54.085 83.6759 53.8614 84.082 54.1809C83.8383 53.9732 83.5784 53.7815 83.3184 53.5897C83.2047 53.5258 83.1072 53.4619 83.3184 53.6377C82.9285 53.398 82.5711 53.1264 82.2787 52.9187C82.2462 52.8707 81.1414 52.1997 80.0204 51.6564C79.4518 51.3848 78.8994 51.1291 78.4608 50.9694C78.347 50.9374 78.2658 50.8895 78.1846 50.8575C78.1033 50.8096 78.0383 50.7776 77.9896 50.7457C77.8759 50.6818 77.8271 50.6658 77.8434 50.6658C77.2423 50.3143 77.1448 50.1705 76.5437 49.8349C76.5274 49.8349 76.8686 50.0426 77.3885 50.3622C77.6484 50.506 77.9571 50.6977 78.282 50.8575C78.3145 50.8735 78.3633 50.8895 78.3958 50.9214L78.5257 50.9694C78.6232 51.0013 78.7045 51.0492 78.8019 51.0812C78.9806 51.1611 79.1593 51.241 79.3381 51.3209C80.7515 51.976 81.9862 52.7429 81.5963 52.5032C81.4826 52.4233 80.9952 52.1198 80.2966 51.7682C79.9554 51.5925 79.5655 51.3848 79.1269 51.1931C78.9157 51.0972 78.6882 51.0013 78.4608 50.9214C78.347 50.8735 78.2495 50.8256 78.1521 50.7776L77.8434 50.6019C76.9986 50.1225 76.1863 49.6112 75.5526 49.2118C74.919 48.8123 74.4641 48.5247 74.3992 48.4449C73.9767 48.1732 73.4406 47.8377 73.5218 47.9336C72.807 47.4383 73.7818 48.0135 73.2944 47.646C73.2782 47.646 73.3269 47.6939 73.1644 47.5821L72.6933 47.2146C71.5398 46.5275 69.9476 45.3611 68.7291 44.6421C69.0866 44.8339 69.5252 45.0256 70.305 45.5049L70.4188 45.6168C70.5325 45.6807 71.1661 46.0801 71.1661 46.0322C70.4675 45.5369 69.8502 45.1215 69.0703 44.6581C68.9404 44.5622 68.7779 44.4344 68.6804 44.3545C68.6804 44.3545 68.6966 44.3705 68.6804 44.3705C68.453 44.1788 68.4692 44.1948 68.5829 44.2427C68.5992 44.2427 68.6154 44.2587 68.6479 44.2746C68.258 43.8752 65.8048 42.4532 64.5213 41.5264C64.1314 41.2868 64.4726 41.5105 63.9852 41.2069C62.6692 40.2802 61.7757 39.6251 60.3947 38.6664C59.9236 38.4108 59.8748 38.3948 60.3785 38.8102L59.3387 38.0912C60.3785 38.6185 57.4379 36.6692 58.5751 37.2604C58.2827 37.0207 57.6491 36.6053 57.048 36.2218C56.9667 36.2058 56.853 36.1898 56.1057 35.6945C55.0984 34.9755 55.3421 35.1353 54.4973 34.5441C54.3186 34.3684 54.6435 34.5761 54.6272 34.5122C53.2625 33.6813 53.5225 33.6653 52.2715 32.8505C51.4754 32.3392 49.9158 31.3326 49.8345 31.3805C48.4211 30.7414 48.4536 30.7094 48.5998 30.7094Z" fill="black"></path> </svg> 