<?xml version="1.0" encoding="UTF-8"?> <svg xmlns="http://www.w3.org/2000/svg" width="448" height="448" viewBox="0 0 448 448" fill="none"> <path d="M405.333 111.821H271.083L251.541 92.28C206.954 47.672 134.378 47.672 89.792 92.28L42.901 139.192C15.232 166.861 0 203.64 0 242.744C0 323.491 65.685 389.176 146.432 389.176H277.333C300.864 389.176 320 370.04 320 346.488C320 337.72 317.333 329.549 312.768 322.765C329.387 316.92 341.333 301.069 341.333 282.488C341.333 273.72 338.666 265.549 334.101 258.765C350.72 252.92 362.666 237.069 362.666 218.488C362.666 210.723 360.575 203.427 356.927 197.155H405.332C428.863 197.155 447.999 178.019 447.999 154.488C447.999 130.957 428.864 111.821 405.333 111.821ZM405.333 175.843H266.667C260.779 175.843 256 180.622 256 186.51C256 192.398 260.779 197.177 266.667 197.177H320C331.776 197.177 341.333 206.756 341.333 218.51C341.333 230.265 331.776 239.843 320 239.843H288C282.112 239.843 277.333 244.622 277.333 250.51C277.333 256.398 282.112 261.177 288 261.177H298.667C310.443 261.177 320 270.756 320 282.51C320 294.265 310.443 303.843 298.667 303.843H277.334C271.446 303.843 266.667 308.622 266.667 314.51C266.667 320.398 271.446 325.177 277.334 325.177C289.11 325.177 298.667 334.756 298.667 346.51C298.667 358.264 289.11 367.843 277.334 367.843H146.432C77.461 367.843 21.333 311.715 21.333 242.744C21.333 209.336 34.346 177.933 57.984 154.296L104.875 107.384C123.03 89.251 146.838 80.184 170.667 80.184C194.496 80.184 218.304 89.251 236.459 107.384L240.918 111.843H181.334C175.446 111.843 170.667 116.622 170.667 122.51C170.667 128.398 175.446 133.177 181.334 133.177H405.334C417.11 133.177 426.667 142.756 426.667 154.51C426.667 166.264 417.109 175.843 405.333 175.843Z" fill="#FFD037"></path> </svg> 