<?xml version="1.0" encoding="UTF-8"?> <svg xmlns="http://www.w3.org/2000/svg" width="43" height="54" viewBox="0 0 43 54" fill="none"> <path d="M7.61562 20.8967L7.73995 20.7973C7.3421 21.1703 6.91937 21.5681 6.49665 21.966C7.59076 21.2946 8.85892 20.5238 9.05785 19.3302C9.40597 19.5291 10.4006 18.8577 10.3509 18.7583C10.5001 18.5345 10.6244 18.3356 10.7985 18.1118C10.699 18.261 10.5747 18.3853 10.4752 18.5345C10.5747 18.3853 10.699 18.261 10.7985 18.1118C11.2958 17.4652 11.9174 16.8685 12.5888 16.3214C13.2602 15.7744 14.0062 15.2522 14.7522 14.7051C15.1749 14.4067 15.9209 13.8597 16.6917 13.2878C17.4626 12.7158 18.2334 12.1936 18.681 11.9201C18.8053 11.8455 18.9297 11.7461 19.054 11.6715C18.8302 11.7958 18.8302 11.7958 18.6064 11.9201C19.054 11.4477 19.427 11.025 19.8497 10.6271C19.7502 10.652 19.7005 10.6022 19.4518 10.7017L19.7005 10.5525C19.8 10.279 20.2973 9.90597 20.4713 9.70704C20.4713 9.80651 20.6703 9.68218 20.8195 9.58271H20.72C21.0184 9.38379 21.3417 9.13514 21.6401 8.88648C21.9384 8.63782 22.2617 8.41401 22.5104 8.21508C22.585 8.16535 22.6596 8.1405 22.7093 8.1405L23.1817 7.71776C23.2066 7.84209 23.6542 7.49397 23.4553 7.71776C23.7537 7.34477 24.2012 7.121 24.4996 6.74801C25.171 6.27556 25.8424 5.77824 26.4889 5.25605C27.1603 4.73387 27.8317 4.21167 28.4782 3.66462H28.4285C28.8761 3.26677 29.1744 2.7943 29.821 2.47104C30.1691 2.07319 30.741 1.60074 30.7659 1.30235C31.2383 0.954228 31.3875 0.730422 31.8351 0.357432C31.6362 0.332566 32.233 -0.0652966 31.9346 0.00930142C31.5367 0.0838994 31.5864 0.208254 31.2383 0.282852L31.2632 0.307712C29.8955 1.00396 28.5528 1.74993 27.2349 2.57051C26.837 2.89377 26.3895 3.21704 25.9419 3.51543C25.4943 3.81382 25.0467 4.13707 24.5991 4.43546C24.1266 4.78359 23.6542 5.15659 23.2066 5.50471C22.759 5.8777 22.3363 6.22581 21.9633 6.57393C21.7892 6.74799 21.5903 6.77285 21.3914 6.84745C20.6703 7.41937 19.7254 8.09077 18.9297 8.76215C18.9545 8.76215 18.9545 8.73729 18.9794 8.73729C18.5567 9.08542 18.1588 9.23459 17.7361 9.58271C17.761 9.60758 17.6864 9.65731 17.6615 9.70704C17.4874 9.63245 15.3738 11.8704 15.1749 11.945C15.1252 11.9947 15.1003 12.0196 15.0506 12.0693C14.5781 12.3926 14.0808 12.691 13.6083 12.9645C13.1359 13.2629 12.6883 13.5613 12.3153 13.8597C12.191 14.0586 12.0666 14.2575 11.9672 14.4316C11.7931 14.4813 11.8428 14.6057 11.6688 14.73C11.072 14.8295 10.9228 15.1527 11.1963 15.0532C10.8979 15.3765 10.5498 15.6252 10.2763 15.8987C10.152 16.023 10.0525 16.1722 9.92816 16.2965C9.82869 16.4209 9.72923 16.4458 9.62976 16.4458C9.35624 16.7441 9.40598 16.5949 9.08272 16.8685C8.93353 16.8685 8.43621 17.689 8.33674 17.7388L8.38646 17.6891C8.03834 17.9874 7.64048 18.062 7.31723 18.3604C6.81991 18.7831 6.34746 19.2556 5.875 19.7032C5.40255 20.1756 4.95495 20.6481 4.53223 21.0708C4.60683 21.1454 4.7063 20.8719 4.80577 20.9465C4.28358 21.4438 3.71166 21.8914 3.21434 22.3887C3.11487 22.4633 2.96568 22.5379 2.89108 22.5628C2.71702 22.712 2.84135 22.712 2.71702 22.8114L2.61756 22.7617C2.5181 23.0104 2.29429 22.9606 2.16996 23.1596C2.19483 23.1844 2.1451 23.259 2.09537 23.3336C2.02077 23.259 1.94618 23.5326 1.87158 23.458C1.84672 23.4828 1.82185 23.5326 1.77211 23.5574C1.72238 23.6569 1.39912 24.5272 1.39912 24.6266L1.34939 24.6515C1.27479 24.751 1.29966 24.8505 1.34939 24.8007L1.24993 24.9251V24.9002L1.15046 25.0245C1.1256 25.0494 1.07586 25.0494 1.05099 24.9748C1.02613 25.0742 0.976401 25.1737 0.901803 25.2234C1.10073 25.0494 1.37426 24.8753 1.62292 24.7261C1.57319 24.8256 1.42399 24.9499 1.34939 25.0494C1.20019 25.124 0.976395 25.298 0.802333 25.4721C0.777467 25.5218 0.852077 25.6213 0.752613 25.671C0.653149 25.671 0.678012 25.7705 0.578548 25.8202C0.603414 25.6959 0.678015 25.6213 0.752613 25.5467C0.653149 25.497 0.553676 25.7208 0.479078 25.7954C0.479078 25.8451 0.329885 25.9943 0.280153 26.1186C0.230421 26.0191 0.180692 26.1683 0.0812283 26.2181C0.0314963 26.2927 0.00662121 26.3673 0.0563532 26.3424C0.130951 26.417 0.305022 26.0689 0.329888 26.2429C0.280156 26.2429 0.180695 26.3921 0.130963 26.4667C0.180695 26.4916 0.205558 26.4419 0.205558 26.5165C0.13096 26.5911 0.130957 26.7154 0.0314933 26.7403C0.0314933 26.7154 0.0563623 26.6905 0.0812283 26.6657C0.00663032 26.79 0.205561 25.8451 0.130963 26.0192C0.205561 26.0192 -0.0430986 26.8646 0.00663336 26.79C0.0812313 26.7403 0.0563653 26.8895 0.130963 26.8397V26.7154C0.205561 26.6408 0.329888 26.6408 0.329888 26.6905C0.205558 26.8397 0.329885 26.0192 0.280153 26.1932L0.329888 26.1435C0.329888 26.2181 0.230427 26.3922 0.130963 26.417C0.180695 26.4419 0.130954 26.5413 0.106088 26.6159L0.0812283 26.6408C0.0563623 26.7154 -0.0182357 26.8149 0.0812283 26.8149C0.354754 26.417 0.354751 27.3868 0.653143 27.0138C0.429349 27.1133 0.578548 26.8895 0.702878 26.7154C0.75261 26.7154 0.852074 26.6905 0.951538 26.5911C1.02614 26.4916 0.951538 26.5165 0.951538 26.4667C1.02614 26.417 1.10073 26.3175 1.15046 26.3673C1.15046 26.2429 1.2748 26.2678 1.32453 26.1435C1.34939 26.044 1.29965 26.1186 1.29965 26.044C1.39912 25.9197 1.54833 25.7456 1.62292 25.671C1.69752 25.671 1.87158 25.6213 1.87158 25.7705C1.72239 25.9446 1.79697 25.5964 1.67264 25.8202C1.8467 25.8202 1.57319 26.0191 1.62292 26.1186C1.72239 26.0937 1.82185 25.9694 1.89644 25.8451H1.87158C1.92132 25.7456 2.04564 25.5467 2.19484 25.497C2.2197 25.5467 2.26944 25.5218 2.24457 25.5964L2.34403 25.4721C2.34403 25.4472 2.34403 25.4224 2.31917 25.4472C2.34403 25.3726 2.39376 25.3229 2.46836 25.298C2.51809 25.3229 2.81648 24.5023 2.84135 24.5272C2.91595 24.4277 2.99055 24.4775 3.01541 24.3531C3.01541 24.3283 2.86621 24.5769 2.71702 24.8007C2.59269 25.0245 2.49323 25.2483 2.51809 25.1986C2.56782 25.1737 2.71702 24.8753 2.89108 24.6018C3.06514 24.3283 3.21433 24.0299 3.28893 24.0547C3.33866 23.9801 3.3884 23.9055 3.33867 23.8807C3.463 23.7812 3.38841 23.9801 3.48787 23.9304C3.48787 23.9304 3.46301 23.9304 3.48787 23.9056L3.6122 23.8807C3.6868 23.6569 3.98519 23.4828 4.05979 23.2342C4.05979 23.3336 4.08465 23.4331 4.01005 23.5823H3.96032C3.96032 23.6072 3.88573 23.7066 3.93546 23.7563C4.05979 23.6817 4.13439 23.5823 4.18412 23.4331C4.20898 23.4331 4.23385 23.4082 4.25871 23.4082C4.25871 23.4082 4.25872 23.4082 4.23385 23.4082C4.28358 23.3834 4.28357 23.4082 4.28357 23.4331C4.28357 23.4331 4.28357 23.4331 4.28357 23.458C4.45763 23.4828 4.58197 22.9855 4.83063 22.8363C4.85549 22.7617 4.80577 22.8114 4.8555 22.712C5.0793 22.5628 5.22848 22.4633 5.45228 22.2644C5.47714 22.1649 5.45228 22.1401 5.32795 22.1649L5.50201 22.0157C5.50201 22.2644 5.89987 21.8417 5.875 22.1152C5.9496 22.0903 6.04907 22.0157 6.0988 21.9163C6.07394 21.8665 6.04906 21.8168 6.14852 21.7173C6.32258 21.6179 6.27286 21.6427 6.44692 21.5433C6.52151 21.5433 6.49665 21.6179 6.52151 21.6427C6.64584 21.3941 6.77017 21.5681 6.94424 21.3692C7.0437 21.2449 7.24263 21.0211 7.1929 20.9465C7.54102 20.7724 7.59076 20.8221 7.61562 20.8967Z" fill="black"></path> <path d="M11.5203 33.0562L11.6943 33.081C11.1721 33.081 10.6002 33.0313 10.0532 32.9816C11.2467 33.3546 12.6641 33.6778 13.609 33.0064C13.6836 33.3794 14.8523 33.6281 14.8772 33.5286C15.1258 33.4789 15.3745 33.4292 15.6231 33.3794C15.4491 33.4043 15.275 33.4291 15.101 33.454C15.275 33.4291 15.4491 33.4043 15.6231 33.3794C17.2146 33.1556 18.9054 33.3545 20.6958 33.5783C21.6656 33.7027 24.3511 33.8767 25.3706 34.0259C25.5198 34.0508 25.669 34.0508 25.8182 34.0757C25.5695 34.0259 25.5695 34.0259 25.3209 34.0011C25.9425 33.9265 26.5144 33.827 27.0366 33.7773C26.9372 33.7275 26.9372 33.6778 26.7134 33.5783L26.9869 33.6281C27.2356 33.4789 27.8323 33.5037 28.1059 33.4292C28.0561 33.5037 28.2551 33.5286 28.454 33.5535L28.3794 33.5038C29.1005 33.5535 29.9211 33.5038 30.5676 33.5286C30.6671 33.5286 30.7168 33.5535 30.7665 33.5783L31.3882 33.5286C31.3384 33.6281 31.9104 33.6281 31.612 33.7027C32.0844 33.5783 32.532 33.6529 32.9796 33.5286C34.5461 33.5038 36.237 33.4291 37.8533 33.2054L37.8036 33.1556C38.3755 33.081 38.8728 32.8572 39.5691 32.907C40.0664 32.7329 40.7626 32.6335 40.9367 32.4097C41.5086 32.3599 41.7324 32.2356 42.2795 32.161C42.1303 32.0615 42.8017 32.0118 42.5281 31.9124C42.1551 31.7632 42.1303 31.9124 41.8319 31.788V31.8377C41.1108 31.788 40.3648 31.7383 39.6437 31.7134C38.9226 31.6885 38.1766 31.6637 37.4306 31.6388C36.9333 31.6886 36.436 31.7134 35.9138 31.7134C35.3916 31.7134 34.8694 31.6885 34.3721 31.7134C33.278 31.7631 32.0844 31.8378 31.1146 31.9124C30.8909 31.9372 30.7168 31.8378 30.5427 31.788C29.6724 31.8378 28.5534 31.7632 27.5837 31.8129C27.6085 31.8129 27.6085 31.8129 27.6334 31.8129C27.1112 31.8129 26.7134 31.6886 26.216 31.6886C26.216 31.7134 26.1414 31.7134 26.0917 31.7383C26.0171 31.5891 23.0829 31.9621 22.9089 31.8626C22.8591 31.8626 22.8094 31.8626 22.7348 31.8626C21.6656 31.7632 20.5466 31.415 19.6266 31.3902C19.4276 31.4648 19.2038 31.5145 19.0298 31.5891C18.8806 31.5145 18.8309 31.6388 18.6319 31.614C18.1346 31.2907 17.8362 31.3902 18.1097 31.5145C17.687 31.5394 17.2892 31.4896 16.9162 31.4896C16.7421 31.5145 16.568 31.5145 16.394 31.5394C16.2448 31.5642 16.1702 31.5145 16.0956 31.4399C15.7226 31.4648 15.8221 31.3902 15.4491 31.3404C15.3496 31.241 14.4544 31.4648 14.355 31.4399L14.4296 31.415C13.982 31.3653 13.6836 31.1664 13.236 31.1415C12.0176 31.0172 10.6499 31.0669 9.50611 30.9923C9.48124 31.0918 9.75478 30.9675 9.77964 31.1167C9.10826 31.0918 8.41201 30.9426 7.74063 30.9177C7.6163 30.8929 7.46711 30.8431 7.41738 30.7934C7.19358 30.7437 7.29304 30.8431 7.11898 30.8431L7.09412 30.7437C6.87033 30.8183 6.74599 30.6442 6.52219 30.6939C6.52219 30.7437 6.42274 30.7437 6.34814 30.7437C6.34814 30.6442 6.09948 30.7437 6.12434 30.6691C6.07461 30.6691 6.04975 30.6691 5.97515 30.6691C5.87569 30.6939 5.03024 31.042 4.95564 31.0918L4.9059 31.0669C4.78157 31.0669 4.73185 31.1664 4.80645 31.1664H4.65724H4.68212H4.53291C4.50805 31.1664 4.45832 31.1166 4.50805 31.0669C4.43346 31.1166 4.334 31.1415 4.23453 31.1167C4.48319 31.1664 4.80645 31.241 5.05511 31.3404C4.95564 31.3902 4.75671 31.3404 4.65724 31.3404C4.50805 31.2907 4.23453 31.2161 4.01073 31.1912C3.961 31.1912 3.93613 31.3156 3.83667 31.2907C3.78694 31.2161 3.71235 31.3156 3.61288 31.2658C3.71235 31.2161 3.81181 31.2161 3.93614 31.2161C3.91127 31.1166 3.66261 31.1664 3.58801 31.1664C3.56314 31.1912 3.33935 31.1912 3.21502 31.2161C3.26475 31.1166 3.11556 31.1664 3.0161 31.1167C2.91663 31.1167 2.86689 31.1664 2.91663 31.1912C2.89176 31.2907 3.26475 31.2161 3.16528 31.3404C3.14042 31.2907 2.96637 31.3156 2.86691 31.3404C2.86691 31.3902 2.9415 31.3653 2.89177 31.4399C2.7923 31.4399 2.69284 31.5145 2.61825 31.4648C2.64311 31.4399 2.66797 31.4648 2.7177 31.4399C2.59337 31.4399 3.38909 31.0172 3.23989 31.0669C3.28963 31.1166 2.51878 31.4648 2.61825 31.4648C2.69284 31.4896 2.5685 31.5642 2.66797 31.5891L2.74258 31.5145C2.86691 31.5145 2.91663 31.614 2.89177 31.6637C2.69284 31.6637 3.38909 31.241 3.23989 31.3156L3.31449 31.3404C3.23989 31.3902 3.06583 31.4399 2.99124 31.3902C2.99124 31.4399 2.91663 31.4648 2.84203 31.4896H2.81717C2.74257 31.5145 2.61824 31.5145 2.69284 31.5891C3.16529 31.5394 2.46904 32.161 2.91663 32.161C2.7177 32.0615 2.96636 32.0367 3.16528 31.987C3.19015 32.0367 3.28961 32.0864 3.41394 32.0864C3.53827 32.0615 3.48855 32.0367 3.51341 32.0118C3.58801 32.0367 3.71234 32.0367 3.71234 32.1113C3.8118 32.0367 3.86154 32.1362 3.98587 32.1113C4.08534 32.0616 3.98586 32.0864 4.03559 32.0367C4.18479 32.0367 4.40859 32.0118 4.50805 32.0367C4.55779 32.0864 4.70699 32.1859 4.60752 32.2853C4.38373 32.2853 4.68211 32.1361 4.45832 32.161C4.55778 32.2853 4.25939 32.2107 4.20966 32.3102C4.28426 32.3599 4.43346 32.3599 4.55779 32.3351L4.53291 32.3102C4.63238 32.2853 4.85618 32.2356 4.98051 32.3102C4.95565 32.3599 5.00538 32.3848 4.93078 32.4097H5.07997C5.10483 32.3848 5.1297 32.3848 5.07997 32.3599C5.15457 32.3102 5.22916 32.3351 5.27889 32.3599C5.30376 32.4097 6.09947 32.1113 6.07461 32.1361C6.17407 32.1361 6.2238 32.2107 6.32327 32.161C6.32327 32.1361 6.07461 32.1859 5.82595 32.2356C5.57729 32.2853 5.3535 32.3599 5.4281 32.3351C5.47783 32.3599 5.77622 32.2853 6.09948 32.2107C6.39787 32.1361 6.72112 32.0864 6.74599 32.1361C6.82059 32.1361 6.92006 32.1113 6.92006 32.0615C7.06925 32.0864 6.87033 32.161 6.96979 32.2107C6.96979 32.2107 6.96978 32.1859 6.99465 32.1859L7.09412 32.2605C7.31791 32.1859 7.6163 32.2853 7.86496 32.161C7.79036 32.2107 7.71577 32.3102 7.59144 32.3599L7.56656 32.3351C7.5417 32.3599 7.41737 32.3599 7.44224 32.4345C7.59143 32.4594 7.6909 32.4594 7.8401 32.4097C7.86497 32.4345 7.88983 32.4345 7.91469 32.4594V32.4345C7.96443 32.4594 7.96442 32.4843 7.93955 32.4843C8.01415 32.6335 8.48661 32.3848 8.73527 32.4843C8.80987 32.4594 8.73527 32.4594 8.83474 32.4345C9.0834 32.4843 9.28232 32.534 9.53098 32.5837C9.63045 32.5091 9.63045 32.4843 9.53098 32.4345L9.72991 32.4594C9.53098 32.6334 10.1029 32.6334 9.90397 32.8075C9.9537 32.8572 10.078 32.8572 10.2024 32.8324C10.2024 32.7826 10.2272 32.7081 10.3764 32.7329C10.5753 32.8075 10.5256 32.7826 10.6997 32.8324C10.7494 32.8821 10.6748 32.907 10.6748 32.9567C10.9235 32.8821 10.8986 33.081 11.1473 33.081C11.2965 33.0562 11.5949 33.0562 11.5949 32.9816C11.5451 32.907 11.5451 32.9816 11.5203 33.0562Z" fill="black"></path> <path d="M12.6641 45.9119L12.7636 45.9865C12.4154 45.8373 12.0673 45.6135 11.744 45.4146C12.3657 46.0859 13.1117 46.807 14.0317 46.4838C13.9074 46.8568 14.5788 47.4038 14.6285 47.3292C14.8026 47.3541 15.0015 47.379 15.1756 47.4287C15.0512 47.4038 14.9269 47.3541 14.8026 47.3292C14.9269 47.3541 15.0512 47.379 15.1756 47.4287C16.3194 47.7022 17.3389 48.3984 18.433 49.0947C19.0298 49.4926 20.7455 50.4126 21.3423 50.8105C21.4418 50.8602 21.5164 50.9348 21.6158 50.9845C21.4666 50.885 21.4666 50.8851 21.3174 50.7607C21.765 50.8602 22.1629 50.9348 22.5607 51.0343C22.511 50.9597 22.5359 50.9099 22.4116 50.7607L22.5856 50.8851C22.8094 50.8105 23.1824 51.0094 23.4062 51.0094C23.3316 51.0591 23.4559 51.1337 23.5803 51.2083L23.5554 51.1337C24.003 51.3824 24.5998 51.5564 25.0225 51.7554C25.0722 51.7802 25.122 51.8299 25.122 51.8548L25.5447 51.9791C25.4701 52.0786 25.8431 52.2029 25.6193 52.2029C25.9674 52.2029 26.2658 52.4267 26.589 52.4019C27.6334 52.8246 28.7772 53.1976 29.9459 53.4462V53.3965C30.3438 53.4711 30.7665 53.3965 31.2141 53.6452C31.5871 53.6203 32.0844 53.7446 32.3082 53.5706C32.7061 53.6949 32.905 53.6452 33.278 53.7198C33.2283 53.5706 33.7007 53.7198 33.5267 53.5706C33.3277 53.3219 33.278 53.4463 33.1039 53.2473V53.297C32.1839 52.75 31.239 52.3024 30.2692 51.8548C29.573 51.6807 28.9016 51.3326 28.2053 51.084C27.4593 50.8104 26.6388 50.5618 25.9923 50.3877C25.8182 50.3629 25.7685 50.2137 25.6441 50.1142C25.0473 49.9153 24.3511 49.5423 23.6797 49.3185L23.7046 49.3434C23.3565 49.1942 23.1575 48.9704 22.8094 48.846C22.8094 48.8709 22.7348 48.846 22.7099 48.846C22.7099 48.7714 22.1878 48.6222 21.6656 48.4482C21.1434 48.299 20.5963 48.1249 20.5715 48.0752C20.5466 48.0752 20.4969 48.0503 20.4471 48.0503C19.7758 47.6525 19.2038 47.0308 18.6071 46.7573C18.4579 46.7573 18.2838 46.7324 18.1346 46.7573C18.06 46.633 17.9854 46.7573 17.8611 46.6579C17.687 46.2103 17.4384 46.2351 17.5627 46.4092C17.2892 46.3097 17.0405 46.1605 16.7918 46.0362C16.6675 46.0113 16.5432 45.9616 16.4437 45.9367C16.3443 45.9119 16.3194 45.8373 16.2945 45.7627C16.0459 45.6881 16.1453 45.6383 15.9215 45.4891C15.9215 45.3648 15.2253 45.3151 15.1507 45.2405H15.2004C14.9269 45.0664 14.8274 44.7929 14.5539 44.6437C13.8079 44.1712 12.8879 43.7983 12.1419 43.4253C12.0922 43.5247 12.316 43.475 12.2662 43.6242C11.8186 43.4004 11.4208 43.0523 10.9732 42.8533C10.8986 42.8036 10.824 42.7041 10.7991 42.6544C10.6748 42.5549 10.6997 42.6793 10.5753 42.6047L10.6002 42.5052C10.4013 42.5052 10.4013 42.3063 10.2521 42.2814C10.2272 42.3063 10.1775 42.3063 10.1277 42.2814C10.1526 42.182 9.95369 42.2317 10.0034 42.1322C9.97855 42.1074 9.95369 42.1074 9.90396 42.0825C9.82936 42.0825 9.13311 42.1571 9.05851 42.182L9.03365 42.1571C8.93419 42.1322 8.88445 42.182 8.93418 42.2317L8.83473 42.182H8.85959L8.76012 42.1322C8.73525 42.1074 8.73526 42.0576 8.78499 42.0328C8.71039 42.0576 8.6358 42.0576 8.58607 42.0079C8.73526 42.1322 8.90932 42.2814 9.05851 42.4555C8.98391 42.4555 8.85959 42.356 8.78499 42.356C8.71039 42.2566 8.53633 42.1322 8.412 42.0576C8.38714 42.0576 8.31253 42.1571 8.2628 42.0825C8.2628 41.983 8.1882 42.0576 8.13847 41.983C8.21307 41.9582 8.28767 42.0079 8.36227 42.0328C8.38713 41.9333 8.21308 41.9084 8.16334 41.8587C8.13848 41.8836 7.98927 41.809 7.88981 41.809C7.96441 41.7344 7.84009 41.7344 7.79035 41.6598C7.74062 41.6349 7.69088 41.6598 7.69088 41.6847C7.64115 41.7841 7.91468 41.809 7.79035 41.8836C7.79035 41.8338 7.66603 41.809 7.59143 41.7841C7.56656 41.8338 7.61629 41.8338 7.56655 41.8836C7.49196 41.8587 7.41735 41.8836 7.39249 41.8338C7.41735 41.8338 7.44223 41.8338 7.4671 41.8587C7.36763 41.8338 8.06387 41.6598 7.93954 41.6598C7.96441 41.7095 7.31789 41.809 7.39249 41.8338C7.44222 41.8836 7.3179 41.9084 7.36763 41.9582L7.44222 41.9084C7.51682 41.9582 7.51682 42.0576 7.49196 42.0825C7.36763 42.0328 7.96442 41.8338 7.84009 41.8587L7.88981 41.9084C7.84008 41.9333 7.69089 41.9084 7.66602 41.8587C7.64116 41.9084 7.59142 41.9084 7.51682 41.9084L7.49196 41.8836C7.41736 41.8836 7.36763 41.8587 7.36763 41.9333C7.69089 42.0328 6.99464 42.4057 7.29303 42.5301C7.19357 42.3809 7.36762 42.4306 7.51682 42.4555C7.51682 42.5052 7.56655 42.5798 7.64115 42.6295C7.71575 42.6544 7.69089 42.6047 7.71576 42.5798C7.76549 42.6296 7.84008 42.6793 7.81521 42.729C7.91468 42.6793 7.91468 42.8036 7.98928 42.8036C8.06388 42.8036 7.98928 42.7787 8.06387 42.7539C8.16334 42.8036 8.31253 42.8533 8.38713 42.8782C8.41199 42.9528 8.46173 43.0771 8.36227 43.1517C8.21307 43.102 8.46173 43.0274 8.31253 43.0025C8.3374 43.1517 8.16335 43.0025 8.08875 43.0771C8.11361 43.1517 8.21307 43.1766 8.31253 43.2015V43.1766C8.38713 43.1766 8.5612 43.2015 8.61093 43.3009C8.58606 43.3507 8.61093 43.3755 8.53633 43.3755L8.63579 43.4253C8.66065 43.4253 8.66065 43.4004 8.63579 43.3755C8.68552 43.3507 8.73525 43.4004 8.76012 43.4253C8.76012 43.475 9.38177 43.4253 9.35691 43.4501C9.43151 43.475 9.4315 43.5496 9.5061 43.5247C9.53096 43.4999 8.73526 43.4253 8.83473 43.4501C8.88446 43.5247 9.77963 43.4999 9.77963 43.6242C9.82936 43.6491 9.90396 43.6491 9.90396 43.5993C9.97856 43.6491 9.82936 43.6739 9.87909 43.7485C9.87909 43.7485 9.8791 43.7237 9.90396 43.7237L9.9537 43.7983C10.1278 43.7734 10.3018 43.9723 10.5007 43.9226C10.4261 43.9475 10.3515 44.0221 10.2272 44.0469V44.022C10.2024 44.022 10.1278 44.0221 10.1029 44.0718C10.1775 44.1464 10.2521 44.1712 10.3764 44.1464C10.4013 44.1712 10.4013 44.1961 10.4013 44.1961C10.4013 44.1961 10.4013 44.1961 10.4013 44.1713C10.4261 44.221 10.4261 44.221 10.4013 44.221C10.4013 44.3702 10.7991 44.2707 10.9235 44.4199C10.9732 44.4199 10.9483 44.395 10.9981 44.395C11.1473 44.5194 11.2467 44.6188 11.3959 44.7183C11.4705 44.6934 11.4954 44.6686 11.4457 44.5691L11.57 44.6437C11.3711 44.7431 11.744 44.8923 11.5451 44.9918C11.57 45.0415 11.6446 45.0913 11.7192 45.0913C11.744 45.0664 11.7938 44.9918 11.8684 45.0416C11.9678 45.1659 11.943 45.1161 12.0424 45.2156C12.0424 45.2902 11.9927 45.2902 11.9678 45.3151C12.1668 45.3399 12.0673 45.4891 12.2165 45.5637C12.316 45.5886 12.5149 45.6881 12.5646 45.5886C12.7387 45.7875 12.7138 45.8373 12.6641 45.9119Z" fill="black"></path> </svg> 