<?xml version="1.0" encoding="UTF-8"?> <svg xmlns="http://www.w3.org/2000/svg" width="466" height="466" viewBox="0 0 466 466" fill="none"> <path d="M0.875 23.75C0.822906 66.8149 9.27985 109.466 25.76 149.253C42.2402 189.039 66.4189 225.178 96.9071 255.593C126.771 285.535 162.163 309.395 201.119 325.85C240.721 342.607 283.249 351.357 326.25 351.594L356.709 328.75L326.167 305.844C252.202 305.376 181.422 275.682 129.261 223.239C102.981 197.103 82.1461 166.014 67.9617 131.772C53.7772 97.5293 46.5251 60.8138 46.625 23.75C46.625 17.6832 44.2149 11.8648 39.925 7.57493C35.6352 3.28504 29.8168 0.875 23.75 0.875C17.6832 0.875 11.8648 3.28504 7.57495 7.57493C3.28506 11.8648 0.875 17.6832 0.875 23.75ZM279.95 433.975C276.31 429.122 274.747 423.021 275.605 417.015C276.463 411.009 279.672 405.59 284.525 401.95L382.125 328.75L333.325 292.15L284.525 255.55C282.122 253.748 280.097 251.49 278.567 248.905C277.036 246.32 276.03 243.459 275.605 240.485C275.18 237.511 275.345 234.483 276.091 231.573C276.836 228.663 278.148 225.928 279.95 223.525C281.752 221.122 284.01 219.097 286.595 217.567C289.18 216.036 292.041 215.03 295.015 214.605C297.989 214.18 301.017 214.345 303.927 215.091C306.837 215.836 309.572 217.148 311.975 218.95L433.975 310.45C436.816 312.581 439.122 315.344 440.71 318.52C442.298 321.696 443.125 325.199 443.125 328.75C443.125 332.301 442.298 335.804 440.71 338.98C439.122 342.156 436.816 344.919 433.975 347.05L311.975 438.55C309.572 440.352 306.837 441.664 303.927 442.409C301.017 443.155 297.989 443.32 295.015 442.895C292.041 442.47 289.18 441.464 286.595 439.933C284.01 438.403 281.752 436.378 279.95 433.975Z" fill="#C94884"></path> <path d="M315.325 867.075C311.685 862.222 310.122 856.121 310.98 850.115C311.838 844.109 315.047 838.69 319.9 835.05L417.5 761.85L368.7 725.25L319.9 688.65C317.497 686.848 315.472 684.589 313.942 682.005C312.411 679.42 311.405 676.559 310.98 673.585C310.555 670.611 310.72 667.583 311.466 664.673C312.211 661.763 313.523 659.028 315.325 656.625C317.127 654.222 319.385 652.197 321.97 650.667C324.555 649.136 327.416 648.13 330.39 647.705C333.364 647.28 336.392 647.445 339.302 648.191C342.212 648.936 344.947 650.248 347.35 652.05L469.35 743.55C472.191 745.681 474.497 748.444 476.085 751.62C477.673 754.796 478.5 758.299 478.5 761.85C478.5 765.401 477.673 768.904 476.085 772.08C474.497 775.256 472.191 778.019 469.35 780.15L347.35 871.65C344.947 873.452 342.212 874.764 339.302 875.509C336.392 876.255 333.364 876.42 330.39 875.995C327.416 875.57 324.555 874.564 321.97 873.033C319.385 871.503 317.127 869.478 315.325 867.075Z" fill="#C94884"></path> </svg> 